<?xml version="1.0" encoding="UTF-8" standalone="no"?>
<!DOCTYPE svg PUBLIC "-//W3C//DTD SVG 1.1//EN"
 "http://www.w3.org/Graphics/SVG/1.1/DTD/svg11.dtd">
<!-- Generated by graphviz version 2.38.0 (20140413.2041)
 -->
<!-- Title: /home/adcroft/GitHub/workspace/Gaea&#45;stats&#45;MOM6&#45;examples/MOM6&#45;examples/src/MOM6/config_src/coupled_driver Pages: 1 -->
<svg width="120pt" height="151pt"
 viewBox="0.00 0.00 120.00 151.00" xmlns="http://www.w3.org/2000/svg" xmlns:xlink="http://www.w3.org/1999/xlink">
<g id="graph0" class="graph" transform="scale(1 1) rotate(0) translate(4 147)">
<title>/home/adcroft/GitHub/workspace/Gaea&#45;stats&#45;MOM6&#45;examples/MOM6&#45;examples/src/MOM6/config_src/coupled_driver</title>
<polygon fill="white" stroke="none" points="-4,4 -4,-147 116,-147 116,4 -4,4"/>
<g id="clust1" class="cluster"><title>clusterdir_bbbeac63f53ec5ea699fa4cbaa8c4afb</title>
<g id="a_clust1"><a xlink:href="dir_bbbeac63f53ec5ea699fa4cbaa8c4afb.html" target="_top" xlink:title="config_src">
<polygon fill="#ddddee" stroke="black" points="8,-64 8,-135 104,-135 104,-64 8,-64"/>
<text text-anchor="middle" x="56" y="-123" font-family="Helvetica,sans-Serif" font-size="10.00">config_src</text>
</a>
</g>
</g>
<!-- dir_a19e664d9f2d0f5526bad3c5f3c3e9c4 -->
<g id="node1" class="node"><title>dir_a19e664d9f2d0f5526bad3c5f3c3e9c4</title>
<g id="a_node1"><a xlink:href="dir_a19e664d9f2d0f5526bad3c5f3c3e9c4.html" target="_top" xlink:title="coupled_driver">
<polygon fill="#eeeeff" stroke="black" points="96,-108 16,-108 16,-72 96,-72 96,-108"/>
<text text-anchor="middle" x="56" y="-87.5" font-family="Helvetica,sans-Serif" font-size="10.00">coupled_driver</text>
</a>
</g>
</g>
<!-- dir_67fed18fa7f74247fef50848ceb46cee -->
<g id="node2" class="node"><title>dir_67fed18fa7f74247fef50848ceb46cee</title>
<g id="a_node2"><a xlink:href="dir_67fed18fa7f74247fef50848ceb46cee.html" target="_top" xlink:title="dynamic_symmetric">
<polygon fill="none" stroke="black" points="108,-36 4,-36 4,-0 108,-0 108,-36"/>
<text text-anchor="middle" x="56" y="-15.5" font-family="Helvetica,sans-Serif" font-size="10.00">dynamic_symmetric</text>
</a>
</g>
</g>
<!-- dir_a19e664d9f2d0f5526bad3c5f3c3e9c4&#45;&gt;dir_67fed18fa7f74247fef50848ceb46cee -->
<g id="edge1" class="edge"><title>dir_a19e664d9f2d0f5526bad3c5f3c3e9c4&#45;&gt;dir_67fed18fa7f74247fef50848ceb46cee</title>
<path fill="none" stroke="black" d="M56,-71.6966C56,-63.9827 56,-54.7125 56,-46.1124"/>
<polygon fill="black" stroke="black" points="59.5001,-46.1043 56,-36.1043 52.5001,-46.1044 59.5001,-46.1043"/>
<g id="a_edge1&#45;headlabel"><a xlink:href="dir_000001_000002.html" target="_top" xlink:title="1">
<text text-anchor="middle" x="62.3393" y="-47.199" font-family="Helvetica,sans-Serif" font-size="10.00">1</text>
</a>
</g>
</g>
</g>
</svg>
