<?xml version="1.0" encoding="UTF-8" standalone="no"?>
<!DOCTYPE svg PUBLIC "-//W3C//DTD SVG 1.1//EN"
 "http://www.w3.org/Graphics/SVG/1.1/DTD/svg11.dtd">
<!-- Generated by graphviz version 2.38.0 (20140413.2041)
 -->
<!-- Title: /home/adcroft/GitHub/workspace/Gaea&#45;stats&#45;MOM6&#45;examples/MOM6&#45;examples/src/MOM6/src/equation_of_state Pages: 1 -->
<svg width="134pt" height="223pt"
 viewBox="0.00 0.00 134.00 223.00" xmlns="http://www.w3.org/2000/svg" xmlns:xlink="http://www.w3.org/1999/xlink">
<g id="graph0" class="graph" transform="scale(1 1) rotate(0) translate(4 219)">
<title>/home/adcroft/GitHub/workspace/Gaea&#45;stats&#45;MOM6&#45;examples/MOM6&#45;examples/src/MOM6/src/equation_of_state</title>
<polygon fill="white" stroke="none" points="-4,4 -4,-219 130,-219 130,4 -4,4"/>
<g id="clust1" class="cluster"><title>clusterdir_68267d1309a1af8e8297ef4c3efbcdba</title>
<g id="a_clust1"><a xlink:href="dir_68267d1309a1af8e8297ef4c3efbcdba.html" target="_top" xlink:title="src">
<polygon fill="#ddddee" stroke="black" points="8,-136 8,-207 118,-207 118,-136 8,-136"/>
<text text-anchor="middle" x="63" y="-195" font-family="Helvetica,sans-Serif" font-size="10.00">src</text>
</a>
</g>
</g>
<!-- dir_2e79efa5a200c32482668df7b7b77ba8 -->
<g id="node1" class="node"><title>dir_2e79efa5a200c32482668df7b7b77ba8</title>
<g id="a_node1"><a xlink:href="dir_2e79efa5a200c32482668df7b7b77ba8.html" target="_top" xlink:title="equation_of_state">
<polygon fill="#eeeeff" stroke="black" points="110,-180 16,-180 16,-144 110,-144 110,-180"/>
<text text-anchor="middle" x="63" y="-159.5" font-family="Helvetica,sans-Serif" font-size="10.00">equation_of_state</text>
</a>
</g>
</g>
<!-- dir_bbbeac63f53ec5ea699fa4cbaa8c4afb -->
<g id="node2" class="node"><title>dir_bbbeac63f53ec5ea699fa4cbaa8c4afb</title>
<g id="a_node2"><a xlink:href="dir_bbbeac63f53ec5ea699fa4cbaa8c4afb.html" target="_top" xlink:title="config_src">
<polygon fill="white" stroke="red" points="65,-108 3,-108 3,-72 65,-72 65,-108"/>
<text text-anchor="middle" x="34" y="-87.5" font-family="Helvetica,sans-Serif" font-size="10.00">config_src</text>
</a>
</g>
</g>
<!-- dir_2e79efa5a200c32482668df7b7b77ba8&#45;&gt;dir_bbbeac63f53ec5ea699fa4cbaa8c4afb -->
<g id="edge3" class="edge"><title>dir_2e79efa5a200c32482668df7b7b77ba8&#45;&gt;dir_bbbeac63f53ec5ea699fa4cbaa8c4afb</title>
<path fill="none" stroke="black" d="M55.8315,-143.697C52.5655,-135.813 48.626,-126.304 44.9978,-117.546"/>
<polygon fill="black" stroke="black" points="48.147,-116.003 41.0861,-108.104 41.68,-118.683 48.147,-116.003"/>
<g id="a_edge3&#45;headlabel"><a xlink:href="dir_000008_000000.html" target="_top" xlink:title="3">
<text text-anchor="middle" x="52.1459" y="-115.738" font-family="Helvetica,sans-Serif" font-size="10.00">3</text>
</a>
</g>
</g>
<!-- dir_5752cadd8276ecfd63d9b924f2a4d4b5 -->
<g id="node3" class="node"><title>dir_5752cadd8276ecfd63d9b924f2a4d4b5</title>
<g id="a_node3"><a xlink:href="dir_5752cadd8276ecfd63d9b924f2a4d4b5.html" target="_top" xlink:title="framework">
<polygon fill="none" stroke="black" points="65,-36 3,-36 3,-0 65,-0 65,-36"/>
<text text-anchor="middle" x="34" y="-15.5" font-family="Helvetica,sans-Serif" font-size="10.00">framework</text>
</a>
</g>
</g>
<!-- dir_2e79efa5a200c32482668df7b7b77ba8&#45;&gt;dir_5752cadd8276ecfd63d9b924f2a4d4b5 -->
<g id="edge4" class="edge"><title>dir_2e79efa5a200c32482668df7b7b77ba8&#45;&gt;dir_5752cadd8276ecfd63d9b924f2a4d4b5</title>
<path fill="none" stroke="black" d="M69.492,-143.824C75.3975,-125.565 82.0613,-96.063 74,-72 70.6494,-61.9984 64.5839,-52.3756 58.1723,-44.1385"/>
<polygon fill="black" stroke="black" points="60.82,-41.8485 51.7331,-36.4006 55.4394,-46.3261 60.82,-41.8485"/>
<g id="a_edge4&#45;headlabel"><a xlink:href="dir_000008_000009.html" target="_top" xlink:title="1">
<text text-anchor="middle" x="65.3018" y="-40.2953" font-family="Helvetica,sans-Serif" font-size="10.00">1</text>
</a>
</g>
</g>
<!-- dir_bbbeac63f53ec5ea699fa4cbaa8c4afb&#45;&gt;dir_5752cadd8276ecfd63d9b924f2a4d4b5 -->
<g id="edge1" class="edge"><title>dir_bbbeac63f53ec5ea699fa4cbaa8c4afb&#45;&gt;dir_5752cadd8276ecfd63d9b924f2a4d4b5</title>
<path fill="none" stroke="black" d="M28.0843,-71.6966C27.2886,-63.9827 27.0621,-54.7125 27.4047,-46.1124"/>
<polygon fill="black" stroke="black" points="30.8984,-46.3243 28.105,-36.1043 23.9154,-45.8356 30.8984,-46.3243"/>
<g id="a_edge1&#45;headlabel"><a xlink:href="dir_000000_000009.html" target="_top" xlink:title="4">
<text text-anchor="middle" x="33.4799" y="-47.6083" font-family="Helvetica,sans-Serif" font-size="10.00">4</text>
</a>
</g>
</g>
<!-- dir_5752cadd8276ecfd63d9b924f2a4d4b5&#45;&gt;dir_bbbeac63f53ec5ea699fa4cbaa8c4afb -->
<g id="edge2" class="edge"><title>dir_5752cadd8276ecfd63d9b924f2a4d4b5&#45;&gt;dir_bbbeac63f53ec5ea699fa4cbaa8c4afb</title>
<path fill="none" stroke="black" d="M39.895,-36.1043C40.7005,-43.7913 40.9369,-53.0537 40.604,-61.6651"/>
<polygon fill="black" stroke="black" points="37.1085,-61.4805 39.9157,-71.6966 44.0921,-61.9597 37.1085,-61.4805"/>
<g id="a_edge2&#45;headlabel"><a xlink:href="dir_000009_000000.html" target="_top" xlink:title="1">
<text text-anchor="middle" x="34.5219" y="-55.2" font-family="Helvetica,sans-Serif" font-size="10.00">1</text>
</a>
</g>
</g>
</g>
</svg>
