<?xml version="1.0" encoding="UTF-8" standalone="no"?>
<!DOCTYPE svg PUBLIC "-//W3C//DTD SVG 1.1//EN"
 "http://www.w3.org/Graphics/SVG/1.1/DTD/svg11.dtd">
<!-- Generated by graphviz version 2.38.0 (20140413.2041)
 -->
<!-- Title: subchk Pages: 1 -->
<svg width="423pt" height="357pt"
 viewBox="0.00 0.00 423.00 356.50" xmlns="http://www.w3.org/2000/svg" xmlns:xlink="http://www.w3.org/1999/xlink">
<g id="graph0" class="graph" transform="scale(1 1) rotate(0) translate(4 352.5)">
<title>subchk</title>
<polygon fill="white" stroke="none" points="-4,4 -4,-352.5 419,-352.5 419,4 -4,4"/>
<!-- Node1 -->
<g id="node1" class="node"><title>Node1</title>
<polygon fill="#bfbfbf" stroke="black" points="0,-152.5 0,-171.5 48,-171.5 48,-152.5 0,-152.5"/>
<text text-anchor="middle" x="24" y="-159.5" font-family="Helvetica,sans-Serif" font-size="10.00">subchk</text>
</g>
<!-- Node2 -->
<g id="node2" class="node"><title>Node2</title>
<g id="a_node2"><a xlink:href="namespacemom__checksums.html#aa256eac55b0236adf37d29e69fac3e01" target="_top" xlink:title="chksum_B_2d performs checksums on a 2d array staggered at corner points. ">
<polygon fill="white" stroke="black" points="84,-318.5 84,-337.5 245,-337.5 245,-318.5 84,-318.5"/>
<text text-anchor="middle" x="164.5" y="-325.5" font-family="Helvetica,sans-Serif" font-size="10.00">mom_checksums::chksum_b_2d</text>
</a>
</g>
</g>
<!-- Node1&#45;&gt;Node2 -->
<g id="edge1" class="edge"><title>Node1&#45;&gt;Node2</title>
<path fill="none" stroke="midnightblue" d="M28.1994,-181.476C34.0594,-211.099 49.2631,-267.463 84,-300 92.9711,-308.403 104.614,-314.306 116.21,-318.445"/>
<polygon fill="midnightblue" stroke="midnightblue" points="31.6245,-180.748 26.3897,-171.537 24.7378,-182.003 31.6245,-180.748"/>
</g>
<!-- Node4 -->
<g id="node4" class="node"><title>Node4</title>
<g id="a_node4"><a xlink:href="namespacemom__checksums.html#aab4aaf5ade6f759a68f7f75d5d0f0671" target="_top" xlink:title="chksum_B_3d performs checksums on a 3d array staggered at corner points. ">
<polygon fill="white" stroke="black" points="84,-271.5 84,-290.5 245,-290.5 245,-271.5 84,-271.5"/>
<text text-anchor="middle" x="164.5" y="-278.5" font-family="Helvetica,sans-Serif" font-size="10.00">mom_checksums::chksum_b_3d</text>
</a>
</g>
</g>
<!-- Node1&#45;&gt;Node4 -->
<g id="edge3" class="edge"><title>Node1&#45;&gt;Node4</title>
<path fill="none" stroke="midnightblue" d="M32.013,-181.086C40.8822,-202.617 58.1804,-237.204 84,-257 92.2378,-263.316 102.13,-267.978 112.095,-271.416"/>
<polygon fill="midnightblue" stroke="midnightblue" points="35.2387,-179.725 28.3357,-171.687 28.7199,-182.275 35.2387,-179.725"/>
</g>
<!-- Node6 -->
<g id="node6" class="node"><title>Node6</title>
<g id="a_node6"><a xlink:href="namespacemom__checksums.html#a71c7ef9c5bf9454473221ba51cd9c8ea" target="_top" xlink:title="chksum_h_2d performs checksums on a 2d array staggered at tracer points. ">
<polygon fill="white" stroke="black" points="84,-228.5 84,-247.5 245,-247.5 245,-228.5 84,-228.5"/>
<text text-anchor="middle" x="164.5" y="-235.5" font-family="Helvetica,sans-Serif" font-size="10.00">mom_checksums::chksum_h_2d</text>
</a>
</g>
</g>
<!-- Node1&#45;&gt;Node6 -->
<g id="edge5" class="edge"><title>Node1&#45;&gt;Node6</title>
<path fill="none" stroke="midnightblue" d="M38.585,-179.424C49.5097,-192.252 65.9682,-209.117 84,-219 91.0932,-222.888 98.969,-225.986 106.927,-228.454"/>
<polygon fill="midnightblue" stroke="midnightblue" points="41.2913,-177.204 32.2442,-171.691 35.8783,-181.643 41.2913,-177.204"/>
</g>
<!-- Node8 -->
<g id="node8" class="node"><title>Node8</title>
<g id="a_node8"><a xlink:href="namespacemom__checksums.html#ae02bd1af88b60e0461600287f702644d" target="_top" xlink:title="chksum_h_3d performs checksums on a 3d array staggered at tracer points. ">
<polygon fill="white" stroke="black" points="84,-190.5 84,-209.5 245,-209.5 245,-190.5 84,-190.5"/>
<text text-anchor="middle" x="164.5" y="-197.5" font-family="Helvetica,sans-Serif" font-size="10.00">mom_checksums::chksum_h_3d</text>
</a>
</g>
</g>
<!-- Node1&#45;&gt;Node8 -->
<g id="edge7" class="edge"><title>Node1&#45;&gt;Node8</title>
<path fill="none" stroke="midnightblue" d="M57.7385,-173.037C66.25,-175.771 75.4349,-178.601 84,-181 95.8885,-184.33 108.878,-187.59 120.848,-190.445"/>
<polygon fill="midnightblue" stroke="midnightblue" points="58.7259,-169.678 48.1335,-169.905 56.5555,-176.333 58.7259,-169.678"/>
</g>
<!-- Node10 -->
<g id="node10" class="node"><title>Node10</title>
<g id="a_node10"><a xlink:href="namespacemom__checksums.html#abb256b94ff03434f46796e2350a3e3b0" target="_top" xlink:title="chksum_u_2d performs checksums on a 2d array staggered at C&#45;grid u points. ">
<polygon fill="white" stroke="black" points="84,-152.5 84,-171.5 245,-171.5 245,-152.5 84,-152.5"/>
<text text-anchor="middle" x="164.5" y="-159.5" font-family="Helvetica,sans-Serif" font-size="10.00">mom_checksums::chksum_u_2d</text>
</a>
</g>
</g>
<!-- Node1&#45;&gt;Node10 -->
<g id="edge9" class="edge"><title>Node1&#45;&gt;Node10</title>
<path fill="none" stroke="midnightblue" d="M58.2811,-162C66.1159,-162 74.8009,-162 83.7247,-162"/>
<polygon fill="midnightblue" stroke="midnightblue" points="58.1818,-158.5 48.1818,-162 58.1818,-165.5 58.1818,-158.5"/>
</g>
<!-- Node12 -->
<g id="node12" class="node"><title>Node12</title>
<g id="a_node12"><a xlink:href="namespacemom__checksums.html#aa3d21cbcd2f604e5762b56a3d9197053" target="_top" xlink:title="chksum_u_3d performs checksums on a 3d array staggered at C&#45;grid u points. ">
<polygon fill="white" stroke="black" points="84,-76.5 84,-95.5 245,-95.5 245,-76.5 84,-76.5"/>
<text text-anchor="middle" x="164.5" y="-83.5" font-family="Helvetica,sans-Serif" font-size="10.00">mom_checksums::chksum_u_3d</text>
</a>
</g>
</g>
<!-- Node1&#45;&gt;Node12 -->
<g id="edge11" class="edge"><title>Node1&#45;&gt;Node12</title>
<path fill="none" stroke="midnightblue" d="M38.585,-144.576C49.5097,-131.748 65.9682,-114.883 84,-105 91.0932,-101.112 98.969,-98.0139 106.927,-95.546"/>
<polygon fill="midnightblue" stroke="midnightblue" points="35.8783,-142.357 32.2442,-152.309 41.2913,-146.796 35.8783,-142.357"/>
</g>
<!-- Node14 -->
<g id="node14" class="node"><title>Node14</title>
<g id="a_node14"><a xlink:href="namespacemom__checksums.html#ab91c2c2d2ba5ce3d11f1fd9d51b87f3e" target="_top" xlink:title="chksum_v_2d performs checksums on a 2d array staggered at C&#45;grid v points. ">
<polygon fill="white" stroke="black" points="84,-114.5 84,-133.5 245,-133.5 245,-114.5 84,-114.5"/>
<text text-anchor="middle" x="164.5" y="-121.5" font-family="Helvetica,sans-Serif" font-size="10.00">mom_checksums::chksum_v_2d</text>
</a>
</g>
</g>
<!-- Node1&#45;&gt;Node14 -->
<g id="edge13" class="edge"><title>Node1&#45;&gt;Node14</title>
<path fill="none" stroke="midnightblue" d="M57.7385,-150.963C66.25,-148.229 75.4349,-145.399 84,-143 95.8885,-139.67 108.878,-136.41 120.848,-133.555"/>
<polygon fill="midnightblue" stroke="midnightblue" points="56.5555,-147.667 48.1335,-154.095 58.7259,-154.322 56.5555,-147.667"/>
</g>
<!-- Node15 -->
<g id="node15" class="node"><title>Node15</title>
<g id="a_node15"><a xlink:href="namespacemom__checksums.html#aa52c1e3c92ac97ab747b75644e7b4fe1" target="_top" xlink:title="chksum_v_3d performs checksums on a 3d array staggered at C&#45;grid v points. ">
<polygon fill="white" stroke="black" points="84,-38.5 84,-57.5 245,-57.5 245,-38.5 84,-38.5"/>
<text text-anchor="middle" x="164.5" y="-45.5" font-family="Helvetica,sans-Serif" font-size="10.00">mom_checksums::chksum_v_3d</text>
</a>
</g>
</g>
<!-- Node1&#45;&gt;Node15 -->
<g id="edge15" class="edge"><title>Node1&#45;&gt;Node15</title>
<path fill="none" stroke="midnightblue" d="M31.6765,-142.974C40.3139,-121.212 57.4763,-86.129 84,-67 89.4096,-63.0986 95.5125,-59.9893 101.872,-57.5128"/>
<polygon fill="midnightblue" stroke="midnightblue" points="28.3538,-141.867 28.1175,-152.459 34.9076,-144.326 28.3538,-141.867"/>
</g>
<!-- Node16 -->
<g id="node16" class="node"><title>Node16</title>
<g id="a_node16"><a xlink:href="MOM__checksums_8F90.html#ae44c5eea560b6a602432359b8688ba5a" target="_top" xlink:title="subchk">
<polygon fill="white" stroke="black" points="140.5,-0.5 140.5,-19.5 188.5,-19.5 188.5,-0.5 140.5,-0.5"/>
<text text-anchor="middle" x="164.5" y="-7.5" font-family="Helvetica,sans-Serif" font-size="10.00">subchk</text>
</a>
</g>
</g>
<!-- Node1&#45;&gt;Node16 -->
<g id="edge17" class="edge"><title>Node1&#45;&gt;Node16</title>
<path fill="none" stroke="midnightblue" d="M28.1012,-142.349C33.7841,-113.087 48.7015,-58.3672 84,-29 99.7089,-15.9307 122.9,-11.5526 140.185,-10.2234"/>
<polygon fill="midnightblue" stroke="midnightblue" points="24.6522,-141.753 26.3521,-152.211 31.5447,-142.976 24.6522,-141.753"/>
</g>
<!-- Node3 -->
<g id="node3" class="node"><title>Node3</title>
<g id="a_node3"><a xlink:href="namespacemom__checksums.html#a33a96580d54906fd7bbe9a699e7844da" target="_top" xlink:title="mom_checksums::chksum\l_pair_b_2d">
<polygon fill="white" stroke="black" points="281,-318 281,-348 415,-348 415,-318 281,-318"/>
<text text-anchor="start" x="289" y="-336" font-family="Helvetica,sans-Serif" font-size="10.00">mom_checksums::chksum</text>
<text text-anchor="middle" x="348" y="-325" font-family="Helvetica,sans-Serif" font-size="10.00">_pair_b_2d</text>
</a>
</g>
</g>
<!-- Node2&#45;&gt;Node3 -->
<g id="edge2" class="edge"><title>Node2&#45;&gt;Node3</title>
<path fill="none" stroke="midnightblue" d="M255.197,-330.471C263.812,-330.708 272.44,-330.946 280.769,-331.175"/>
<polygon fill="midnightblue" stroke="midnightblue" points="255.201,-326.97 245.109,-330.193 255.008,-333.967 255.201,-326.97"/>
</g>
<!-- Node5 -->
<g id="node5" class="node"><title>Node5</title>
<g id="a_node5"><a xlink:href="namespacemom__checksums.html#a75c6667ccb73ed731d2c44df7d572880" target="_top" xlink:title="mom_checksums::chksum\l_pair_b_3d">
<polygon fill="white" stroke="black" points="281,-269 281,-299 415,-299 415,-269 281,-269"/>
<text text-anchor="start" x="289" y="-287" font-family="Helvetica,sans-Serif" font-size="10.00">mom_checksums::chksum</text>
<text text-anchor="middle" x="348" y="-276" font-family="Helvetica,sans-Serif" font-size="10.00">_pair_b_3d</text>
</a>
</g>
</g>
<!-- Node4&#45;&gt;Node5 -->
<g id="edge4" class="edge"><title>Node4&#45;&gt;Node5</title>
<path fill="none" stroke="midnightblue" d="M255.197,-282.483C263.812,-282.625 272.44,-282.768 280.769,-282.905"/>
<polygon fill="midnightblue" stroke="midnightblue" points="255.165,-278.982 245.109,-282.316 255.049,-285.981 255.165,-278.982"/>
</g>
<!-- Node7 -->
<g id="node7" class="node"><title>Node7</title>
<g id="a_node7"><a xlink:href="namespacemom__checksums.html#a61d9c890e0d5f96f82775b52df020052" target="_top" xlink:title="mom_checksums::chksum\l_pair_h_2d">
<polygon fill="white" stroke="black" points="281,-220 281,-250 415,-250 415,-220 281,-220"/>
<text text-anchor="start" x="289" y="-238" font-family="Helvetica,sans-Serif" font-size="10.00">mom_checksums::chksum</text>
<text text-anchor="middle" x="348" y="-227" font-family="Helvetica,sans-Serif" font-size="10.00">_pair_h_2d</text>
</a>
</g>
</g>
<!-- Node6&#45;&gt;Node7 -->
<g id="edge6" class="edge"><title>Node6&#45;&gt;Node7</title>
<path fill="none" stroke="midnightblue" d="M255.197,-236.517C263.812,-236.375 272.44,-236.232 280.769,-236.095"/>
<polygon fill="midnightblue" stroke="midnightblue" points="255.049,-233.019 245.109,-236.684 255.165,-240.018 255.049,-233.019"/>
</g>
<!-- Node9 -->
<g id="node9" class="node"><title>Node9</title>
<g id="a_node9"><a xlink:href="namespacemom__checksums.html#a761c78d8efba4bf7dc6f1060c96e083c" target="_top" xlink:title="mom_checksums::chksum\l_pair_h_3d">
<polygon fill="white" stroke="black" points="281,-171 281,-201 415,-201 415,-171 281,-171"/>
<text text-anchor="start" x="289" y="-189" font-family="Helvetica,sans-Serif" font-size="10.00">mom_checksums::chksum</text>
<text text-anchor="middle" x="348" y="-178" font-family="Helvetica,sans-Serif" font-size="10.00">_pair_h_3d</text>
</a>
</g>
</g>
<!-- Node8&#45;&gt;Node9 -->
<g id="edge8" class="edge"><title>Node8&#45;&gt;Node9</title>
<path fill="none" stroke="midnightblue" d="M255.197,-193.081C263.812,-192.417 272.44,-191.751 280.769,-191.109"/>
<polygon fill="midnightblue" stroke="midnightblue" points="254.81,-189.601 245.109,-193.859 255.348,-196.58 254.81,-189.601"/>
</g>
<!-- Node11 -->
<g id="node11" class="node"><title>Node11</title>
<g id="a_node11"><a xlink:href="namespacemom__checksums.html#a6621f0877c0c44b62c2e7afe29362116" target="_top" xlink:title="mom_checksums::chksum\l_uv_2d">
<polygon fill="white" stroke="black" points="281,-115 281,-145 415,-145 415,-115 281,-115"/>
<text text-anchor="start" x="289" y="-133" font-family="Helvetica,sans-Serif" font-size="10.00">mom_checksums::chksum</text>
<text text-anchor="middle" x="348" y="-122" font-family="Helvetica,sans-Serif" font-size="10.00">_uv_2d</text>
</a>
</g>
</g>
<!-- Node10&#45;&gt;Node11 -->
<g id="edge10" class="edge"><title>Node10&#45;&gt;Node11</title>
<path fill="none" stroke="midnightblue" d="M229.591,-150.7C246.161,-147.779 264.032,-144.628 280.712,-141.687"/>
<polygon fill="midnightblue" stroke="midnightblue" points="228.705,-147.302 219.465,-152.486 229.92,-154.196 228.705,-147.302"/>
</g>
<!-- Node13 -->
<g id="node13" class="node"><title>Node13</title>
<g id="a_node13"><a xlink:href="namespacemom__checksums.html#a797e807964197574c99d09f1d8e2456e" target="_top" xlink:title="mom_checksums::chksum\l_uv_3d">
<polygon fill="white" stroke="black" points="281,-53 281,-83 415,-83 415,-53 281,-53"/>
<text text-anchor="start" x="289" y="-71" font-family="Helvetica,sans-Serif" font-size="10.00">mom_checksums::chksum</text>
<text text-anchor="middle" x="348" y="-60" font-family="Helvetica,sans-Serif" font-size="10.00">_uv_3d</text>
</a>
</g>
</g>
<!-- Node12&#45;&gt;Node13 -->
<g id="edge12" class="edge"><title>Node12&#45;&gt;Node13</title>
<path fill="none" stroke="midnightblue" d="M255.197,-77.1044C263.812,-76.25 272.44,-75.3944 280.769,-74.5683"/>
<polygon fill="midnightblue" stroke="midnightblue" points="254.714,-73.635 245.109,-78.1049 255.405,-80.6009 254.714,-73.635"/>
</g>
<!-- Node14&#45;&gt;Node11 -->
<g id="edge14" class="edge"><title>Node14&#45;&gt;Node11</title>
<path fill="none" stroke="midnightblue" d="M255.197,-126.965C263.812,-127.25 272.44,-127.535 280.769,-127.811"/>
<polygon fill="midnightblue" stroke="midnightblue" points="255.219,-123.464 245.109,-126.632 254.987,-130.46 255.219,-123.464"/>
</g>
<!-- Node15&#45;&gt;Node13 -->
<g id="edge16" class="edge"><title>Node15&#45;&gt;Node13</title>
<path fill="none" stroke="midnightblue" d="M255.197,-57.884C263.812,-58.8333 272.44,-59.784 280.769,-60.7018"/>
<polygon fill="midnightblue" stroke="midnightblue" points="255.432,-54.3887 245.109,-56.7723 254.665,-61.3466 255.432,-54.3887"/>
</g>
</g>
</svg>
