<?xml version="1.0" encoding="UTF-8" standalone="no"?>
<!DOCTYPE svg PUBLIC "-//W3C//DTD SVG 1.1//EN"
 "http://www.w3.org/Graphics/SVG/1.1/DTD/svg11.dtd">
<!-- Generated by graphviz version 2.38.0 (20140413.2041)
 -->
<!-- Title: /home/adcroft/GitHub/workspace/Gaea&#45;stats&#45;MOM6&#45;examples/MOM6&#45;examples/src/MOM6/src/tracer/MOM_OCMIP2_CFC.F90 Pages: 1 -->
<svg width="240pt" height="173pt"
 viewBox="0.00 0.00 239.50 173.00" xmlns="http://www.w3.org/2000/svg" xmlns:xlink="http://www.w3.org/1999/xlink">
<g id="graph0" class="graph" transform="scale(1 1) rotate(0) translate(4 169)">
<title>/home/adcroft/GitHub/workspace/Gaea&#45;stats&#45;MOM6&#45;examples/MOM6&#45;examples/src/MOM6/src/tracer/MOM_OCMIP2_CFC.F90</title>
<polygon fill="white" stroke="none" points="-4,4 -4,-169 235.5,-169 235.5,4 -4,4"/>
<!-- Node0 -->
<g id="node1" class="node"><title>Node0</title>
<polygon fill="#bfbfbf" stroke="black" points="5.5,-112.5 5.5,-164.5 231.5,-164.5 231.5,-112.5 5.5,-112.5"/>
<text text-anchor="start" x="13.5" y="-152.5" font-family="Helvetica,sans-Serif" font-size="10.00">/home/adcroft/GitHub</text>
<text text-anchor="start" x="13.5" y="-141.5" font-family="Helvetica,sans-Serif" font-size="10.00">/workspace/Gaea&#45;stats</text>
<text text-anchor="start" x="13.5" y="-130.5" font-family="Helvetica,sans-Serif" font-size="10.00">&#45;MOM6&#45;examples/MOM6&#45;examples</text>
<text text-anchor="middle" x="118.5" y="-119.5" font-family="Helvetica,sans-Serif" font-size="10.00">/src/MOM6/src/tracer/MOM_OCMIP2_CFC.F90</text>
</g>
<!-- Node1 -->
<g id="node2" class="node"><title>Node1</title>
<g id="a_node2"><a xlink:href="MOM__memory_8h.html" target="_top" xlink:title="Compile&#45;time memory settings. ">
<polygon fill="white" stroke="black" points="19,-56.5 19,-75.5 108,-75.5 108,-56.5 19,-56.5"/>
<text text-anchor="middle" x="63.5" y="-63.5" font-family="Helvetica,sans-Serif" font-size="10.00">MOM_memory.h</text>
</a>
</g>
</g>
<!-- Node0&#45;&gt;Node1 -->
<g id="edge1" class="edge"><title>Node0&#45;&gt;Node1</title>
<path fill="none" stroke="midnightblue" d="M98.9542,-112.446C91.5294,-102.929 83.2583,-92.3266 76.5736,-83.758"/>
<polygon fill="midnightblue" stroke="midnightblue" points="79.1943,-81.4271 70.2837,-75.6955 73.6752,-85.7329 79.1943,-81.4271"/>
</g>
<!-- Node3 -->
<g id="node4" class="node"><title>Node3</title>
<g id="a_node4"><a xlink:href="version__variable_8h.html" target="_top" xlink:title="version_variable.h">
<polygon fill="white" stroke="black" points="126,-56.5 126,-75.5 221,-75.5 221,-56.5 126,-56.5"/>
<text text-anchor="middle" x="173.5" y="-63.5" font-family="Helvetica,sans-Serif" font-size="10.00">version_variable.h</text>
</a>
</g>
</g>
<!-- Node0&#45;&gt;Node3 -->
<g id="edge3" class="edge"><title>Node0&#45;&gt;Node3</title>
<path fill="none" stroke="midnightblue" d="M138.046,-112.446C145.471,-102.929 153.742,-92.3266 160.426,-83.758"/>
<polygon fill="midnightblue" stroke="midnightblue" points="163.325,-85.7329 166.716,-75.6955 157.806,-81.4271 163.325,-85.7329"/>
</g>
<!-- Node2 -->
<g id="node3" class="node"><title>Node2</title>
<g id="a_node3"><a xlink:href="MOM__memory__macros_8h.html" target="_top" xlink:title="Memory macros. ">
<polygon fill="white" stroke="black" points="0,-0.5 0,-19.5 127,-19.5 127,-0.5 0,-0.5"/>
<text text-anchor="middle" x="63.5" y="-7.5" font-family="Helvetica,sans-Serif" font-size="10.00">MOM_memory_macros.h</text>
</a>
</g>
</g>
<!-- Node1&#45;&gt;Node2 -->
<g id="edge2" class="edge"><title>Node1&#45;&gt;Node2</title>
<path fill="none" stroke="midnightblue" d="M63.5,-56.083C63.5,-49.0059 63.5,-38.8611 63.5,-29.9865"/>
<polygon fill="midnightblue" stroke="midnightblue" points="67.0001,-29.751 63.5,-19.7511 60.0001,-29.7511 67.0001,-29.751"/>
</g>
</g>
</svg>
