<?xml version="1.0" encoding="UTF-8" standalone="no"?>
<!DOCTYPE svg PUBLIC "-//W3C//DTD SVG 1.1//EN"
 "http://www.w3.org/Graphics/SVG/1.1/DTD/svg11.dtd">
<!-- Generated by graphviz version 2.38.0 (20140413.2041)
 -->
<!-- Title: myalloc Pages: 1 -->
<svg width="652pt" height="456pt"
 viewBox="0.00 0.00 652.00 455.50" xmlns="http://www.w3.org/2000/svg" xmlns:xlink="http://www.w3.org/1999/xlink">
<g id="graph0" class="graph" transform="scale(1 1) rotate(0) translate(4 451.5)">
<title>myalloc</title>
<polygon fill="white" stroke="none" points="-4,4 -4,-451.5 648,-451.5 648,4 -4,4"/>
<!-- Node6 -->
<g id="node1" class="node"><title>Node6</title>
<polygon fill="#bfbfbf" stroke="black" points="0,-230.5 0,-249.5 50,-249.5 50,-230.5 0,-230.5"/>
<text text-anchor="middle" x="25" y="-237.5" font-family="Helvetica,sans-Serif" font-size="10.00">myalloc</text>
</g>
<!-- Node7 -->
<g id="node2" class="node"><title>Node7</title>
<g id="a_node2"><a xlink:href="namespacemom__forcing__type.html#a4258a1dc8dc6733eb8269d771efe837d" target="_top" xlink:title="Conditionally allocate fields within the forcing type. ">
<polygon fill="white" stroke="black" points="86,-225 86,-255 223,-255 223,-225 86,-225"/>
<text text-anchor="start" x="94" y="-243" font-family="Helvetica,sans-Serif" font-size="10.00">mom_forcing_type::allocate</text>
<text text-anchor="middle" x="154.5" y="-232" font-family="Helvetica,sans-Serif" font-size="10.00">_forcing_type</text>
</a>
</g>
</g>
<!-- Node6&#45;&gt;Node7 -->
<g id="edge1" class="edge"><title>Node6&#45;&gt;Node7</title>
<path fill="none" stroke="midnightblue" d="M60.497,-240C68.38,-240 77.0251,-240 85.7704,-240"/>
<polygon fill="midnightblue" stroke="midnightblue" points="60.2819,-236.5 50.2819,-240 60.2819,-243.5 60.2819,-236.5"/>
</g>
<!-- Node8 -->
<g id="node3" class="node"><title>Node8</title>
<g id="a_node3"><a xlink:href="namespaceocean__model__mod.html#aced9c77abd80a4a509c7cc317af707a7" target="_top" xlink:title="ocean_model_mod::ocean\l_model_init">
<polygon fill="white" stroke="black" points="262.5,-417 262.5,-447 393.5,-447 393.5,-417 262.5,-417"/>
<text text-anchor="start" x="270.5" y="-435" font-family="Helvetica,sans-Serif" font-size="10.00">ocean_model_mod::ocean</text>
<text text-anchor="middle" x="328" y="-424" font-family="Helvetica,sans-Serif" font-size="10.00">_model_init</text>
</a>
</g>
</g>
<!-- Node7&#45;&gt;Node8 -->
<g id="edge2" class="edge"><title>Node7&#45;&gt;Node8</title>
<path fill="none" stroke="midnightblue" d="M164.524,-264.793C178.993,-301.214 210.75,-369.064 259,-408 263.189,-411.381 267.89,-414.303 272.812,-416.825"/>
<polygon fill="midnightblue" stroke="midnightblue" points="167.767,-263.474 160.902,-255.404 161.236,-265.993 167.767,-263.474"/>
</g>
<!-- Node9 -->
<g id="node4" class="node"><title>Node9</title>
<g id="a_node4"><a xlink:href="namespacemeso__surface__forcing.html#a7ab86d21960889d83d245685153dffc6" target="_top" xlink:title="meso_surface_forcing\l::meso_wind_forcing">
<polygon fill="white" stroke="black" points="271.5,-368 271.5,-398 384.5,-398 384.5,-368 271.5,-368"/>
<text text-anchor="start" x="279.5" y="-386" font-family="Helvetica,sans-Serif" font-size="10.00">meso_surface_forcing</text>
<text text-anchor="middle" x="328" y="-375" font-family="Helvetica,sans-Serif" font-size="10.00">::meso_wind_forcing</text>
</a>
</g>
</g>
<!-- Node7&#45;&gt;Node9 -->
<g id="edge3" class="edge"><title>Node7&#45;&gt;Node9</title>
<path fill="none" stroke="midnightblue" d="M172.055,-263.168C190.809,-288.06 223.423,-327.473 259,-353 266.968,-358.717 276.198,-363.683 285.239,-367.841"/>
<polygon fill="midnightblue" stroke="midnightblue" points="174.782,-260.969 166.018,-255.016 169.157,-265.135 174.782,-260.969"/>
</g>
<!-- Node10 -->
<g id="node5" class="node"><title>Node10</title>
<g id="a_node5"><a xlink:href="namespacemom__surface__forcing.html#a82bece05671a4155b220fb57fd4cfcc0" target="_top" xlink:title="mom_surface_forcing\l::set_forcing">
<polygon fill="white" stroke="black" points="433,-280 433,-310 543,-310 543,-280 433,-280"/>
<text text-anchor="start" x="441" y="-298" font-family="Helvetica,sans-Serif" font-size="10.00">mom_surface_forcing</text>
<text text-anchor="middle" x="488" y="-287" font-family="Helvetica,sans-Serif" font-size="10.00">::set_forcing</text>
</a>
</g>
</g>
<!-- Node7&#45;&gt;Node10 -->
<g id="edge4" class="edge"><title>Node7&#45;&gt;Node10</title>
<path fill="none" stroke="midnightblue" d="M175.752,-262.412C194.974,-281.874 225.796,-308.663 259,-320 321.557,-341.358 398.853,-324.506 445.469,-310.017"/>
<polygon fill="midnightblue" stroke="midnightblue" points="178.183,-259.89 168.732,-255.102 173.134,-264.739 178.183,-259.89"/>
</g>
<!-- Node12 -->
<g id="node7" class="node"><title>Node12</title>
<g id="a_node7"><a xlink:href="namespacemom__surface__forcing.html#ac7bf83a9b318dd6317a17c1f7df73314" target="_top" xlink:title="mom_surface_forcing\l::buoyancy_forcing_allocate">
<polygon fill="white" stroke="black" points="259,-280 259,-310 397,-310 397,-280 259,-280"/>
<text text-anchor="start" x="267" y="-298" font-family="Helvetica,sans-Serif" font-size="10.00">mom_surface_forcing</text>
<text text-anchor="middle" x="328" y="-287" font-family="Helvetica,sans-Serif" font-size="10.00">::buoyancy_forcing_allocate</text>
</a>
</g>
</g>
<!-- Node7&#45;&gt;Node12 -->
<g id="edge6" class="edge"><title>Node7&#45;&gt;Node12</title>
<path fill="none" stroke="midnightblue" d="M211.96,-258.107C234.065,-265.196 259.121,-273.231 280.194,-279.989"/>
<polygon fill="midnightblue" stroke="midnightblue" points="212.954,-254.75 202.363,-255.029 210.817,-261.416 212.954,-254.75"/>
</g>
<!-- Node13 -->
<g id="node8" class="node"><title>Node13</title>
<g id="a_node8"><a xlink:href="namespacemom__surface__forcing.html#a4ddc50ed40b1c13197acf1e465ca0abe" target="_top" xlink:title="mom_surface_forcing\l::wind_forcing_by_data\l_override">
<polygon fill="white" stroke="black" points="269.5,-219.5 269.5,-260.5 386.5,-260.5 386.5,-219.5 269.5,-219.5"/>
<text text-anchor="start" x="277.5" y="-248.5" font-family="Helvetica,sans-Serif" font-size="10.00">mom_surface_forcing</text>
<text text-anchor="start" x="277.5" y="-237.5" font-family="Helvetica,sans-Serif" font-size="10.00">::wind_forcing_by_data</text>
<text text-anchor="middle" x="328" y="-226.5" font-family="Helvetica,sans-Serif" font-size="10.00">_override</text>
</a>
</g>
</g>
<!-- Node7&#45;&gt;Node13 -->
<g id="edge8" class="edge"><title>Node7&#45;&gt;Node13</title>
<path fill="none" stroke="midnightblue" d="M233.389,-240C245.507,-240 257.836,-240 269.397,-240"/>
<polygon fill="midnightblue" stroke="midnightblue" points="233.281,-236.5 223.281,-240 233.281,-243.5 233.281,-236.5"/>
</g>
<!-- Node14 -->
<g id="node9" class="node"><title>Node14</title>
<g id="a_node9"><a xlink:href="namespaceuser__surface__forcing.html#af90ed498eee23495e43778c9609be44b" target="_top" xlink:title="user_surface_forcing\l::user_wind_forcing">
<polygon fill="white" stroke="black" points="274.5,-170 274.5,-200 381.5,-200 381.5,-170 274.5,-170"/>
<text text-anchor="start" x="282.5" y="-188" font-family="Helvetica,sans-Serif" font-size="10.00">user_surface_forcing</text>
<text text-anchor="middle" x="328" y="-177" font-family="Helvetica,sans-Serif" font-size="10.00">::user_wind_forcing</text>
</a>
</g>
</g>
<!-- Node7&#45;&gt;Node14 -->
<g id="edge10" class="edge"><title>Node7&#45;&gt;Node14</title>
<path fill="none" stroke="midnightblue" d="M211.96,-221.893C234.065,-214.804 259.121,-206.769 280.194,-200.011"/>
<polygon fill="midnightblue" stroke="midnightblue" points="210.817,-218.584 202.363,-224.971 212.954,-225.25 210.817,-218.584"/>
</g>
<!-- Node15 -->
<g id="node10" class="node"><title>Node15</title>
<g id="a_node10"><a xlink:href="namespacescm__cvmix__tests.html#a4ab083e8a54fae735fc1b89203e475ca" target="_top" xlink:title="scm_cvmix_tests::scm\l_cvmix_tests_wind_forcing">
<polygon fill="white" stroke="black" points="260.5,-121 260.5,-151 395.5,-151 395.5,-121 260.5,-121"/>
<text text-anchor="start" x="268.5" y="-139" font-family="Helvetica,sans-Serif" font-size="10.00">scm_cvmix_tests::scm</text>
<text text-anchor="middle" x="328" y="-128" font-family="Helvetica,sans-Serif" font-size="10.00">_cvmix_tests_wind_forcing</text>
</a>
</g>
</g>
<!-- Node7&#45;&gt;Node15 -->
<g id="edge11" class="edge"><title>Node7&#45;&gt;Node15</title>
<path fill="none" stroke="midnightblue" d="M179.702,-218.159C199.803,-200.879 229.742,-177.064 259,-161 265.615,-157.368 272.865,-154.065 280.088,-151.136"/>
<polygon fill="midnightblue" stroke="midnightblue" points="177.218,-215.682 171.981,-224.892 181.818,-220.958 177.218,-215.682"/>
</g>
<!-- Node16 -->
<g id="node11" class="node"><title>Node16</title>
<g id="a_node11"><a xlink:href="namespacescm__cvmix__tests.html#a013e19729529fd6656ca7a270563a698" target="_top" xlink:title="scm_cvmix_tests::scm\l_cvmix_tests_buoyancy\l_forcing">
<polygon fill="white" stroke="black" points="267,-60.5 267,-101.5 389,-101.5 389,-60.5 267,-60.5"/>
<text text-anchor="start" x="275" y="-89.5" font-family="Helvetica,sans-Serif" font-size="10.00">scm_cvmix_tests::scm</text>
<text text-anchor="start" x="275" y="-78.5" font-family="Helvetica,sans-Serif" font-size="10.00">_cvmix_tests_buoyancy</text>
<text text-anchor="middle" x="328" y="-67.5" font-family="Helvetica,sans-Serif" font-size="10.00">_forcing</text>
</a>
</g>
</g>
<!-- Node7&#45;&gt;Node16 -->
<g id="edge12" class="edge"><title>Node7&#45;&gt;Node16</title>
<path fill="none" stroke="midnightblue" d="M170.039,-215.902C187.983,-187.84 220.846,-141.568 259,-112 263.923,-108.185 269.39,-104.711 275.024,-101.584"/>
<polygon fill="midnightblue" stroke="midnightblue" points="166.888,-214.339 164.539,-224.67 172.818,-218.059 166.888,-214.339"/>
</g>
<!-- Node17 -->
<g id="node12" class="node"><title>Node17</title>
<g id="a_node12"><a xlink:href="namespacescm__idealized__hurricane.html#a1b6dd086c93c41b18d9b367af63d642a" target="_top" xlink:title="scm_idealized_hurricane\l::scm_idealized_hurricane\l_wind_forcing">
<polygon fill="white" stroke="black" points="263,-0.5 263,-41.5 393,-41.5 393,-0.5 263,-0.5"/>
<text text-anchor="start" x="271" y="-29.5" font-family="Helvetica,sans-Serif" font-size="10.00">scm_idealized_hurricane</text>
<text text-anchor="start" x="271" y="-18.5" font-family="Helvetica,sans-Serif" font-size="10.00">::scm_idealized_hurricane</text>
<text text-anchor="middle" x="328" y="-7.5" font-family="Helvetica,sans-Serif" font-size="10.00">_wind_forcing</text>
</a>
</g>
</g>
<!-- Node7&#45;&gt;Node17 -->
<g id="edge13" class="edge"><title>Node7&#45;&gt;Node17</title>
<path fill="none" stroke="midnightblue" d="M163.209,-215.232C176.678,-175.637 208.023,-97.7941 259,-51 262.802,-47.5097 267.077,-44.3777 271.582,-41.5773"/>
<polygon fill="midnightblue" stroke="midnightblue" points="159.835,-214.287 160.025,-224.88 166.482,-216.481 159.835,-214.287"/>
</g>
<!-- Node11 -->
<g id="node6" class="node"><title>Node11</title>
<g id="a_node6"><a xlink:href="MOM__driver_8F90.html#a08fffeb2d8e8acbf9ed4609be6d258c6" target="_top" xlink:title="mom_main">
<polygon fill="white" stroke="black" points="579,-285.5 579,-304.5 644,-304.5 644,-285.5 579,-285.5"/>
<text text-anchor="middle" x="611.5" y="-292.5" font-family="Helvetica,sans-Serif" font-size="10.00">mom_main</text>
</a>
</g>
</g>
<!-- Node10&#45;&gt;Node11 -->
<g id="edge5" class="edge"><title>Node10&#45;&gt;Node11</title>
<path fill="none" stroke="midnightblue" d="M553.627,-295C562.374,-295 571.013,-295 578.815,-295"/>
<polygon fill="midnightblue" stroke="midnightblue" points="553.353,-291.5 543.353,-295 553.353,-298.5 553.353,-291.5"/>
</g>
<!-- Node12&#45;&gt;Node10 -->
<g id="edge7" class="edge"><title>Node12&#45;&gt;Node10</title>
<path fill="none" stroke="midnightblue" d="M407.427,-295C416.009,-295 424.599,-295 432.793,-295"/>
<polygon fill="midnightblue" stroke="midnightblue" points="407.382,-291.5 397.382,-295 407.382,-298.5 407.382,-291.5"/>
</g>
<!-- Node13&#45;&gt;Node10 -->
<g id="edge9" class="edge"><title>Node13&#45;&gt;Node10</title>
<path fill="none" stroke="midnightblue" d="M396.69,-263.563C412.522,-269.074 428.972,-274.801 443.427,-279.832"/>
<polygon fill="midnightblue" stroke="midnightblue" points="397.531,-260.15 386.936,-260.168 395.23,-266.761 397.531,-260.15"/>
</g>
</g>
</svg>
