<?xml version="1.0" encoding="UTF-8" standalone="no"?>
<!DOCTYPE svg PUBLIC "-//W3C//DTD SVG 1.1//EN"
 "http://www.w3.org/Graphics/SVG/1.1/DTD/svg11.dtd">
<!-- Generated by graphviz version 2.38.0 (20140413.2041)
 -->
<!-- Title: locmsg Pages: 1 -->
<svg width="618pt" height="39pt"
 viewBox="0.00 0.00 618.00 39.00" xmlns="http://www.w3.org/2000/svg" xmlns:xlink="http://www.w3.org/1999/xlink">
<g id="graph0" class="graph" transform="scale(1 1) rotate(0) translate(4 35)">
<title>locmsg</title>
<polygon fill="white" stroke="none" points="-4,4 -4,-35 614,-35 614,4 -4,4"/>
<!-- Node1 -->
<g id="node1" class="node"><title>Node1</title>
<polygon fill="#bfbfbf" stroke="black" points="0,-6 0,-25 48,-25 48,-6 0,-6"/>
<text text-anchor="middle" x="24" y="-13" font-family="Helvetica,sans-Serif" font-size="10.00">locmsg</text>
</g>
<!-- Node2 -->
<g id="node2" class="node"><title>Node2</title>
<g id="a_node2"><a xlink:href="namespacemom__forcing__type.html#a1048a8e80ebd47f83b91772c02aedba2" target="_top" xlink:title="Write out values of the fluxes arrays at the i,j location. This is a debugging tool. ">
<polygon fill="white" stroke="black" points="84,-0.5 84,-30.5 216,-30.5 216,-0.5 84,-0.5"/>
<text text-anchor="start" x="92" y="-18.5" font-family="Helvetica,sans-Serif" font-size="10.00">mom_forcing_type::forcing</text>
<text text-anchor="middle" x="150" y="-7.5" font-family="Helvetica,sans-Serif" font-size="10.00">_singlepointprint</text>
</a>
</g>
</g>
<!-- Node1&#45;&gt;Node2 -->
<g id="edge1" class="edge"><title>Node1&#45;&gt;Node2</title>
<path fill="none" stroke="midnightblue" d="M58.052,-15.5C66.0882,-15.5 74.9609,-15.5 83.9196,-15.5"/>
<polygon fill="midnightblue" stroke="midnightblue" points="58.0329,-12.0001 48.0328,-15.5 58.0328,-19.0001 58.0329,-12.0001"/>
</g>
<!-- Node3 -->
<g id="node3" class="node"><title>Node3</title>
<g id="a_node3"><a xlink:href="namespacemom__diabatic__aux.html#aed2e2c3c0c73c160399e7de6f84c2c7f" target="_top" xlink:title="Update the thickness, temperature, and salinity due to thermodynamic boundary forcing (contained in f...">
<polygon fill="white" stroke="black" points="252,-6 252,-25 467,-25 467,-6 252,-6"/>
<text text-anchor="middle" x="359.5" y="-13" font-family="Helvetica,sans-Serif" font-size="10.00">mom_diabatic_aux::applyboundaryfluxesinout</text>
</a>
</g>
</g>
<!-- Node2&#45;&gt;Node3 -->
<g id="edge2" class="edge"><title>Node2&#45;&gt;Node3</title>
<path fill="none" stroke="midnightblue" d="M226.146,-15.5C234.517,-15.5 243.157,-15.5 251.825,-15.5"/>
<polygon fill="midnightblue" stroke="midnightblue" points="226.085,-12.0001 216.085,-15.5 226.085,-19.0001 226.085,-12.0001"/>
</g>
<!-- Node4 -->
<g id="node4" class="node"><title>Node4</title>
<g id="a_node4"><a xlink:href="namespacemom__diabatic__driver.html#af76fe90c618a04d7806bc53fe0f7a2a7" target="_top" xlink:title="This subroutine imposes the diapycnal mass fluxes and the accompanying diapycnal advection of momentu...">
<polygon fill="white" stroke="black" points="503,-0.5 503,-30.5 610,-30.5 610,-0.5 503,-0.5"/>
<text text-anchor="start" x="511" y="-18.5" font-family="Helvetica,sans-Serif" font-size="10.00">mom_diabatic_driver</text>
<text text-anchor="middle" x="556.5" y="-7.5" font-family="Helvetica,sans-Serif" font-size="10.00">::diabatic</text>
</a>
</g>
</g>
<!-- Node3&#45;&gt;Node4 -->
<g id="edge3" class="edge"><title>Node3&#45;&gt;Node4</title>
<path fill="none" stroke="midnightblue" d="M477.134,-15.5C485.93,-15.5 494.508,-15.5 502.569,-15.5"/>
<polygon fill="midnightblue" stroke="midnightblue" points="477.129,-12.0001 467.129,-15.5 477.129,-19.0001 477.129,-12.0001"/>
</g>
</g>
</svg>
