<?xml version="1.0" encoding="UTF-8" standalone="no"?>
<!DOCTYPE svg PUBLIC "-//W3C//DTD SVG 1.1//EN"
 "http://www.w3.org/Graphics/SVG/1.1/DTD/svg11.dtd">
<!-- Generated by graphviz version 2.38.0 (20140413.2041)
 -->
<!-- Title: /home/adcroft/GitHub/workspace/Gaea&#45;stats&#45;MOM6&#45;examples/MOM6&#45;examples/src/MOM6/src/parameterizations/vertical/MOM_regularize_layers.F90 Pages: 1 -->
<svg width="184pt" height="184pt"
 viewBox="0.00 0.00 184.00 184.00" xmlns="http://www.w3.org/2000/svg" xmlns:xlink="http://www.w3.org/1999/xlink">
<g id="graph0" class="graph" transform="scale(1 1) rotate(0) translate(4 180)">
<title>/home/adcroft/GitHub/workspace/Gaea&#45;stats&#45;MOM6&#45;examples/MOM6&#45;examples/src/MOM6/src/parameterizations/vertical/MOM_regularize_layers.F90</title>
<polygon fill="white" stroke="none" points="-4,4 -4,-180 180,-180 180,4 -4,4"/>
<!-- Node0 -->
<g id="node1" class="node"><title>Node0</title>
<polygon fill="#bfbfbf" stroke="black" points="-1.42109e-14,-112.5 -1.42109e-14,-175.5 176,-175.5 176,-112.5 -1.42109e-14,-112.5"/>
<text text-anchor="start" x="8" y="-163.5" font-family="Helvetica,sans-Serif" font-size="10.00">/home/adcroft/GitHub</text>
<text text-anchor="start" x="8" y="-152.5" font-family="Helvetica,sans-Serif" font-size="10.00">/workspace/Gaea&#45;stats</text>
<text text-anchor="start" x="8" y="-141.5" font-family="Helvetica,sans-Serif" font-size="10.00">&#45;MOM6&#45;examples/MOM6&#45;examples</text>
<text text-anchor="start" x="8" y="-130.5" font-family="Helvetica,sans-Serif" font-size="10.00">/src/MOM6/src/parameterizations</text>
<text text-anchor="middle" x="88" y="-119.5" font-family="Helvetica,sans-Serif" font-size="10.00">/vertical/MOM_regularize_layers.F90</text>
</g>
<!-- Node1 -->
<g id="node2" class="node"><title>Node1</title>
<g id="a_node2"><a xlink:href="MOM__memory_8h.html" target="_top" xlink:title="Compile&#45;time memory settings. ">
<polygon fill="white" stroke="black" points="43.5,-56.5 43.5,-75.5 132.5,-75.5 132.5,-56.5 43.5,-56.5"/>
<text text-anchor="middle" x="88" y="-63.5" font-family="Helvetica,sans-Serif" font-size="10.00">MOM_memory.h</text>
</a>
</g>
</g>
<!-- Node0&#45;&gt;Node1 -->
<g id="edge1" class="edge"><title>Node0&#45;&gt;Node1</title>
<path fill="none" stroke="midnightblue" d="M88,-112.088C88,-103.15 88,-93.6688 88,-85.7195"/>
<polygon fill="midnightblue" stroke="midnightblue" points="91.5001,-85.7181 88,-75.7182 84.5001,-85.7182 91.5001,-85.7181"/>
</g>
<!-- Node2 -->
<g id="node3" class="node"><title>Node2</title>
<g id="a_node3"><a xlink:href="MOM__memory__macros_8h.html" target="_top" xlink:title="Memory macros. ">
<polygon fill="white" stroke="black" points="24.5,-0.5 24.5,-19.5 151.5,-19.5 151.5,-0.5 24.5,-0.5"/>
<text text-anchor="middle" x="88" y="-7.5" font-family="Helvetica,sans-Serif" font-size="10.00">MOM_memory_macros.h</text>
</a>
</g>
</g>
<!-- Node1&#45;&gt;Node2 -->
<g id="edge2" class="edge"><title>Node1&#45;&gt;Node2</title>
<path fill="none" stroke="midnightblue" d="M88,-56.083C88,-49.0059 88,-38.8611 88,-29.9865"/>
<polygon fill="midnightblue" stroke="midnightblue" points="91.5001,-29.751 88,-19.7511 84.5001,-29.7511 91.5001,-29.751"/>
</g>
</g>
</svg>
