<?xml version="1.0" encoding="UTF-8" standalone="no"?>
<!DOCTYPE svg PUBLIC "-//W3C//DTD SVG 1.1//EN"
 "http://www.w3.org/Graphics/SVG/1.1/DTD/svg11.dtd">
<!-- Generated by graphviz version 2.38.0 (20140413.2041)
 -->
<!-- Title: mom_file_parser::openparameterblock Pages: 1 -->
<!--zoomable 187 -->
<svg id="main" version="1.1" xmlns="http://www.w3.org/2000/svg" xmlns:xlink="http://www.w3.org/1999/xlink" xml:space="preserve" onload="init(evt)">
<style type="text/css"><![CDATA[
.edge:hover path { stroke: red; }
.edge:hover polygon { stroke: red; fill: red; }
]]></style>
<script type="text/javascript"><![CDATA[
var edges = document.getElementsByTagName('g');
if (edges && edges.length) {
  for (var i=0;i<edges.length;i++) {
    if (edges[i].id.substr(0,4)=='edge') {
      edges[i].setAttribute('class','edge');
    }
  }
}
]]></script>
        <defs>
                <circle id="rim" cx="0" cy="0" r="7"/>
                <circle id="rim2" cx="0" cy="0" r="3.5"/>
                <g id="zoomPlus">
                        <use xlink:href="#rim" fill="#404040">
                                <set attributeName="fill" to="#808080" begin="zoomplus.mouseover" end="zoomplus.mouseout"/>
                        </use>
                        <path d="M-4,0h8M0,-4v8" fill="none" stroke="white" stroke-width="1.5" pointer-events="none"/>
                </g>
                <g id="zoomMin">
                        <use xlink:href="#rim" fill="#404040">
                                <set attributeName="fill" to="#808080" begin="zoomminus.mouseover" end="zoomminus.mouseout"/>
                        </use>
                        <path d="M-4,0h8" fill="none" stroke="white" stroke-width="1.5" pointer-events="none"/>
                </g>
                <g id="dirArrow">
                        <path fill="none" stroke="white" stroke-width="1.5" d="M0,-3.0v7 M-2.5,-0.5L0,-3.0L2.5,-0.5"/>
                </g>
               <g id="resetDef">
                       <use xlink:href="#rim2" fill="#404040">
                               <set attributeName="fill" to="#808080" begin="reset.mouseover" end="reset.mouseout"/>
                       </use>
               </g>
        </defs>

<script type="text/javascript">
var viewWidth = 1043;
var viewHeight = 187;
var sectionId = 'dynsection-41';
</script>
<script xlink:href="svgpan.js"/>
<svg id="graph" class="graph">
<g id="viewport">
<title>mom_file_parser::openparameterblock</title>
<polygon fill="white" stroke="none" points="-4,4 -4,-182.865 1039,-182.865 1039,4 -4,4"/>
<!-- Node255 -->
<g id="node1" class="node"><title>Node255</title>
<polygon fill="#bfbfbf" stroke="black" points="0,-38.5 0,-57.5 182,-57.5 182,-38.5 0,-38.5"/>
<text text-anchor="middle" x="91" y="-45.5" font-family="Helvetica,sans-Serif" font-size="10.00">mom_file_parser::openparameterblock</text>
</g>
<!-- Node256 -->
<g id="node2" class="node"><title>Node256</title>
<g id="a_node2"><a xlink:href="namespacemom__document.html#ada55c6a65638e04d2b550f419aafa929" target="_top" xlink:title="mom_document::doc_openblock">
<polygon fill="white" stroke="black" points="218.5,-98.5 218.5,-117.5 376.5,-117.5 376.5,-98.5 218.5,-98.5"/>
<text text-anchor="middle" x="297.5" y="-105.5" font-family="Helvetica,sans-Serif" font-size="10.00">mom_document::doc_openblock</text>
</a>
</g>
</g>
<!-- Node255&#45;&gt;Node256 -->
<g id="edge1" class="edge"><title>Node255&#45;&gt;Node256</title>
<path fill="none" stroke="midnightblue" d="M124.404,-57.5072C159.451,-67.7901 215.47,-84.226 254.021,-95.5367"/>
<polygon fill="midnightblue" stroke="midnightblue" points="253.329,-98.9812 263.91,-98.4382 255.3,-92.2643 253.329,-98.9812"/>
</g>
<!-- Node257 -->
<g id="node3" class="node"><title>Node257</title>
<g id="a_node3"><a xlink:href="namespacemom__error__handler.html#ad5f00a53059c72fe2332d1436c80ca71" target="_top" xlink:title="mom_error_handler::\lis_root_pe">
<polygon fill="white" stroke="black" points="929,-96 929,-126 1035,-126 1035,-96 929,-96"/>
<text text-anchor="start" x="937" y="-114" font-family="Helvetica,sans-Serif" font-size="10.00">mom_error_handler::</text>
<text text-anchor="middle" x="982" y="-103" font-family="Helvetica,sans-Serif" font-size="10.00">is_root_pe</text>
</a>
</g>
</g>
<!-- Node255&#45;&gt;Node257 -->
<g id="edge9" class="edge"><title>Node255&#45;&gt;Node257</title>
<path fill="none" stroke="midnightblue" d="M182.265,-48C266.331,-48 395.145,-48 507,-48 507,-48 507,-48 696,-48 779.417,-48 873.399,-74.0499 929.867,-92.6478"/>
<polygon fill="midnightblue" stroke="midnightblue" points="929.028,-96.0578 939.622,-95.9099 931.248,-89.4192 929.028,-96.0578"/>
</g>
<!-- Node262 -->
<g id="node8" class="node"><title>Node262</title>
<g id="a_node8"><a xlink:href="namespacemom__file__parser.html#a58777b0faf747d59a793b4e238919dc6" target="_top" xlink:title="mom_file_parser::pushblocklevel">
<polygon fill="white" stroke="black" points="218,-0.5 218,-19.5 377,-19.5 377,-0.5 218,-0.5"/>
<text text-anchor="middle" x="297.5" y="-7.5" font-family="Helvetica,sans-Serif" font-size="10.00">mom_file_parser::pushblocklevel</text>
</a>
</g>
</g>
<!-- Node255&#45;&gt;Node262 -->
<g id="edge10" class="edge"><title>Node255&#45;&gt;Node262</title>
<path fill="none" stroke="midnightblue" d="M143.34,-38.46C171.175,-33.2878 205.767,-26.8599 235.03,-21.4222"/>
<polygon fill="midnightblue" stroke="midnightblue" points="235.947,-24.812 245.139,-19.5439 234.668,-17.9298 235.947,-24.812"/>
</g>
<!-- Node256&#45;&gt;Node257 -->
<g id="edge2" class="edge"><title>Node256&#45;&gt;Node257</title>
<path fill="none" stroke="midnightblue" d="M315.681,-117.55C337.517,-129.09 376.739,-147.847 413,-155 622.464,-196.318 683.966,-179.442 893,-136 902.797,-133.964 913.101,-131.416 923.07,-128.732"/>
<polygon fill="midnightblue" stroke="midnightblue" points="924.19,-132.053 932.895,-126.015 922.324,-125.306 924.19,-132.053"/>
</g>
<!-- Node258 -->
<g id="node4" class="node"><title>Node258</title>
<g id="a_node4"><a xlink:href="namespacemom__document.html#aab976b6c6c9c01833438d217fca228a4" target="_top" xlink:title="mom_document::open\l_doc_file">
<polygon fill="white" stroke="black" points="451.5,-115 451.5,-145 564.5,-145 564.5,-115 451.5,-115"/>
<text text-anchor="start" x="459.5" y="-133" font-family="Helvetica,sans-Serif" font-size="10.00">mom_document::open</text>
<text text-anchor="middle" x="508" y="-122" font-family="Helvetica,sans-Serif" font-size="10.00">_doc_file</text>
</a>
</g>
</g>
<!-- Node256&#45;&gt;Node258 -->
<g id="edge3" class="edge"><title>Node256&#45;&gt;Node258</title>
<path fill="none" stroke="midnightblue" d="M376.731,-116.255C397.984,-118.497 420.778,-120.902 441.264,-123.064"/>
<polygon fill="midnightblue" stroke="midnightblue" points="441.119,-126.568 451.431,-124.137 441.853,-119.606 441.119,-126.568"/>
</g>
<!-- Node261 -->
<g id="node7" class="node"><title>Node261</title>
<g id="a_node7"><a xlink:href="namespacemom__document.html#a22d84550b1affd1037328c5117496a65" target="_top" xlink:title="mom_document::writemessageanddesc">
<polygon fill="white" stroke="black" points="413,-76.5 413,-95.5 603,-95.5 603,-76.5 413,-76.5"/>
<text text-anchor="middle" x="508" y="-83.5" font-family="Helvetica,sans-Serif" font-size="10.00">mom_document::writemessageanddesc</text>
</a>
</g>
</g>
<!-- Node256&#45;&gt;Node261 -->
<g id="edge8" class="edge"><title>Node256&#45;&gt;Node261</title>
<path fill="none" stroke="midnightblue" d="M376.731,-99.7454C386.524,-98.7121 396.644,-97.6443 406.715,-96.5816"/>
<polygon fill="midnightblue" stroke="midnightblue" points="407.178,-100.052 416.756,-95.5222 406.444,-93.0909 407.178,-100.052"/>
</g>
<!-- Node259 -->
<g id="node5" class="node"><title>Node259</title>
<g id="a_node5"><a xlink:href="namespacemom__document.html#a5f2661445a72a7d0f774677e91366db5" target="_top" xlink:title="mom_document::find\l_unused_unit_number">
<polygon fill="white" stroke="black" points="639,-115 639,-145 751,-145 751,-115 639,-115"/>
<text text-anchor="start" x="647" y="-133" font-family="Helvetica,sans-Serif" font-size="10.00">mom_document::find</text>
<text text-anchor="middle" x="695" y="-122" font-family="Helvetica,sans-Serif" font-size="10.00">_unused_unit_number</text>
</a>
</g>
</g>
<!-- Node258&#45;&gt;Node259 -->
<g id="edge4" class="edge"><title>Node258&#45;&gt;Node259</title>
<path fill="none" stroke="midnightblue" d="M564.506,-130C584.72,-130 607.755,-130 628.738,-130"/>
<polygon fill="midnightblue" stroke="midnightblue" points="628.852,-133.5 638.852,-130 628.852,-126.5 628.852,-133.5"/>
</g>
<!-- Node260 -->
<g id="node6" class="node"><title>Node260</title>
<g id="a_node6"><a xlink:href="namespacemom__error__handler.html#a460cfb79a06c29fc249952c2a3710d67" target="_top" xlink:title="mom_error_handler::\lmom_error">
<polygon fill="white" stroke="black" points="787,-96 787,-126 893,-126 893,-96 787,-96"/>
<text text-anchor="start" x="795" y="-114" font-family="Helvetica,sans-Serif" font-size="10.00">mom_error_handler::</text>
<text text-anchor="middle" x="840" y="-103" font-family="Helvetica,sans-Serif" font-size="10.00">mom_error</text>
</a>
</g>
</g>
<!-- Node258&#45;&gt;Node260 -->
<g id="edge7" class="edge"><title>Node258&#45;&gt;Node260</title>
<path fill="none" stroke="midnightblue" d="M564.68,-117.412C587.572,-112.841 614.431,-108.249 639,-106 688.571,-101.463 701.242,-104.588 751,-106 759.356,-106.237 768.152,-106.601 776.821,-107.026"/>
<polygon fill="midnightblue" stroke="midnightblue" points="776.736,-110.526 786.904,-107.55 777.099,-103.536 776.736,-110.526"/>
</g>
<!-- Node259&#45;&gt;Node260 -->
<g id="edge5" class="edge"><title>Node259&#45;&gt;Node260</title>
<path fill="none" stroke="midnightblue" d="M751.288,-122.654C759.557,-121.555 768.132,-120.416 776.538,-119.299"/>
<polygon fill="midnightblue" stroke="midnightblue" points="777.223,-122.739 786.675,-117.952 776.301,-115.8 777.223,-122.739"/>
</g>
<!-- Node260&#45;&gt;Node257 -->
<g id="edge6" class="edge"><title>Node260&#45;&gt;Node257</title>
<path fill="none" stroke="midnightblue" d="M893.131,-111C901.421,-111 910.07,-111 918.568,-111"/>
<polygon fill="midnightblue" stroke="midnightblue" points="918.826,-114.5 928.826,-111 918.826,-107.5 918.826,-114.5"/>
</g>
</g>
</svg>
        <g id="navigator" transform="translate(0 0)" fill="#404254">
                <rect fill="#f2f5e9" fill-opacity="0.5" stroke="#606060" stroke-width=".5" x="0" y="0" width="60" height="60"/>
                <use id="zoomplus" xlink:href="#zoomPlus" x="17" y="9" onmousedown="handleZoom(evt,'in')"/>
                <use id="zoomminus" xlink:href="#zoomMin" x="42" y="9" onmousedown="handleZoom(evt,'out')"/>
                <use id="reset" xlink:href="#resetDef" x="30" y="36" onmousedown="handleReset()"/>
                <g id="arrowUp" xlink:href="#dirArrow" transform="translate(30 24)" onmousedown="handlePan(0,-1)">
                  <use xlink:href="#rim" fill="#404040">
                        <set attributeName="fill" to="#808080" begin="arrowUp.mouseover" end="arrowUp.mouseout"/>
                  </use>
                  <path fill="none" stroke="white" stroke-width="1.5" d="M0,-3.0v7 M-2.5,-0.5L0,-3.0L2.5,-0.5"/>
                </g>
                <g id="arrowRight" xlink:href="#dirArrow" transform="rotate(90) translate(36 -43)" onmousedown="handlePan(1,0)">
                  <use xlink:href="#rim" fill="#404040">
                        <set attributeName="fill" to="#808080" begin="arrowRight.mouseover" end="arrowRight.mouseout"/>
                  </use>
                  <path fill="none" stroke="white" stroke-width="1.5" d="M0,-3.0v7 M-2.5,-0.5L0,-3.0L2.5,-0.5"/>
                </g>
                <g id="arrowDown" xlink:href="#dirArrow" transform="rotate(180) translate(-30 -48)" onmousedown="handlePan(0,1)">
                  <use xlink:href="#rim" fill="#404040">
                        <set attributeName="fill" to="#808080" begin="arrowDown.mouseover" end="arrowDown.mouseout"/>
                  </use>
                  <path fill="none" stroke="white" stroke-width="1.5" d="M0,-3.0v7 M-2.5,-0.5L0,-3.0L2.5,-0.5"/>
                </g>
                <g id="arrowLeft" xlink:href="#dirArrow" transform="rotate(270) translate(-36 17)" onmousedown="handlePan(-1,0)">
                  <use xlink:href="#rim" fill="#404040">
                        <set attributeName="fill" to="#808080" begin="arrowLeft.mouseover" end="arrowLeft.mouseout"/>
                  </use>
                  <path fill="none" stroke="white" stroke-width="1.5" d="M0,-3.0v7 M-2.5,-0.5L0,-3.0L2.5,-0.5"/>
                </g>
        </g>
        <svg viewBox="0 0 15 15" width="100%" height="30px" preserveAspectRatio="xMaxYMin meet">
         <g id="arrow_out" transform="scale(0.3 0.3)">
          <a xlink:href="namespacemom__file__parser_a363628fcd8540de780ebeacf24012229_cgraph_org.svg" target="_base">
           <rect id="button" ry="5" rx="5" y="6" x="6" height="38" width="38"
                fill="#f2f5e9" fill-opacity="0.5" stroke="#606060" stroke-width="1.0"/>
           <path id="arrow"
             d="M 11.500037,31.436501 C 11.940474,20.09759 22.043105,11.32322 32.158766,21.979434 L 37.068811,17.246167 C 37.068811,17.246167 37.088388,32 37.088388,32 L 22.160133,31.978069 C 22.160133,31.978069 26.997745,27.140456 26.997745,27.140456 C 18.528582,18.264221 13.291696,25.230495 11.500037,31.436501 z"
             style="fill:#404040;"/>
          </a>
         </g>
        </svg>
</svg>
