<?xml version="1.0" encoding="UTF-8" standalone="no"?>
<!DOCTYPE svg PUBLIC "-//W3C//DTD SVG 1.1//EN"
 "http://www.w3.org/Graphics/SVG/1.1/DTD/svg11.dtd">
<!-- Generated by graphviz version 2.38.0 (20140413.2041)
 -->
<!-- Title: mom_tracer_z_init::read_z_edges Pages: 1 -->
<svg width="395pt" height="88pt"
 viewBox="0.00 0.00 395.00 88.00" xmlns="http://www.w3.org/2000/svg" xmlns:xlink="http://www.w3.org/1999/xlink">
<g id="graph0" class="graph" transform="scale(1 1) rotate(0) translate(4 84)">
<title>mom_tracer_z_init::read_z_edges</title>
<polygon fill="white" stroke="none" points="-4,4 -4,-84 391,-84 391,4 -4,4"/>
<!-- Node0 -->
<g id="node1" class="node"><title>Node0</title>
<polygon fill="#bfbfbf" stroke="black" points="0,-24.5 0,-54.5 103,-54.5 103,-24.5 0,-24.5"/>
<text text-anchor="start" x="8" y="-42.5" font-family="Helvetica,sans-Serif" font-size="10.00">mom_tracer_z_init::</text>
<text text-anchor="middle" x="51.5" y="-31.5" font-family="Helvetica,sans-Serif" font-size="10.00">read_z_edges</text>
</g>
<!-- Node1 -->
<g id="node2" class="node"><title>Node1</title>
<g id="a_node2"><a xlink:href="namespacemom__error__handler.html#a460cfb79a06c29fc249952c2a3710d67" target="_top" xlink:title="mom_error_handler::\lmom_error">
<polygon fill="white" stroke="black" points="139,-49.5 139,-79.5 245,-79.5 245,-49.5 139,-49.5"/>
<text text-anchor="start" x="147" y="-67.5" font-family="Helvetica,sans-Serif" font-size="10.00">mom_error_handler::</text>
<text text-anchor="middle" x="192" y="-56.5" font-family="Helvetica,sans-Serif" font-size="10.00">mom_error</text>
</a>
</g>
</g>
<!-- Node0&#45;&gt;Node1 -->
<g id="edge1" class="edge"><title>Node0&#45;&gt;Node1</title>
<path fill="none" stroke="midnightblue" d="M103.286,-48.6671C111.609,-50.1695 120.317,-51.7413 128.877,-53.2865"/>
<polygon fill="midnightblue" stroke="midnightblue" points="128.364,-56.7504 138.827,-55.0825 129.608,-49.8618 128.364,-56.7504"/>
</g>
<!-- Node3 -->
<g id="node4" class="node"><title>Node3</title>
<g id="a_node4"><a xlink:href="namespacemom__error__handler.html#a1c462df7b61f1296407b4af51dfeceab" target="_top" xlink:title="mom_error_handler::\lmom_mesg">
<polygon fill="white" stroke="black" points="139,-0.5 139,-30.5 245,-30.5 245,-0.5 139,-0.5"/>
<text text-anchor="start" x="147" y="-18.5" font-family="Helvetica,sans-Serif" font-size="10.00">mom_error_handler::</text>
<text text-anchor="middle" x="192" y="-7.5" font-family="Helvetica,sans-Serif" font-size="10.00">mom_mesg</text>
</a>
</g>
</g>
<!-- Node0&#45;&gt;Node3 -->
<g id="edge3" class="edge"><title>Node0&#45;&gt;Node3</title>
<path fill="none" stroke="midnightblue" d="M103.286,-30.6996C111.609,-29.2572 120.317,-27.7484 128.877,-26.265"/>
<polygon fill="midnightblue" stroke="midnightblue" points="129.572,-29.6969 138.827,-24.5408 128.376,-22.7997 129.572,-29.6969"/>
</g>
<!-- Node2 -->
<g id="node3" class="node"><title>Node2</title>
<g id="a_node3"><a xlink:href="namespacemom__error__handler.html#ad5f00a53059c72fe2332d1436c80ca71" target="_top" xlink:title="mom_error_handler::\lis_root_pe">
<polygon fill="white" stroke="black" points="281,-24.5 281,-54.5 387,-54.5 387,-24.5 281,-24.5"/>
<text text-anchor="start" x="289" y="-42.5" font-family="Helvetica,sans-Serif" font-size="10.00">mom_error_handler::</text>
<text text-anchor="middle" x="334" y="-31.5" font-family="Helvetica,sans-Serif" font-size="10.00">is_root_pe</text>
</a>
</g>
</g>
<!-- Node1&#45;&gt;Node2 -->
<g id="edge2" class="edge"><title>Node1&#45;&gt;Node2</title>
<path fill="none" stroke="midnightblue" d="M245.131,-55.1909C253.512,-53.6942 262.26,-52.1321 270.849,-50.5985"/>
<polygon fill="midnightblue" stroke="midnightblue" points="271.597,-54.0203 280.826,-48.8169 270.366,-47.1293 271.597,-54.0203"/>
</g>
<!-- Node3&#45;&gt;Node2 -->
<g id="edge4" class="edge"><title>Node3&#45;&gt;Node2</title>
<path fill="none" stroke="midnightblue" d="M245.131,-24.4367C253.512,-25.8736 262.26,-27.3732 270.849,-28.8455"/>
<polygon fill="midnightblue" stroke="midnightblue" points="270.378,-32.3158 280.826,-30.5558 271.561,-25.4164 270.378,-32.3158"/>
</g>
</g>
</svg>
