<?xml version="1.0" encoding="UTF-8" standalone="no"?>
<!DOCTYPE svg PUBLIC "-//W3C//DTD SVG 1.1//EN"
 "http://www.w3.org/Graphics/SVG/1.1/DTD/svg11.dtd">
<!-- Generated by graphviz version 2.38.0 (20140413.2041)
 -->
<!-- Title: regrid_edge_values::edge_values_implicit_h6 Pages: 1 -->
<svg width="576pt" height="137pt"
 viewBox="0.00 0.00 576.00 137.00" xmlns="http://www.w3.org/2000/svg" xmlns:xlink="http://www.w3.org/1999/xlink">
<g id="graph0" class="graph" transform="scale(1 1) rotate(0) translate(4 133)">
<title>regrid_edge_values::edge_values_implicit_h6</title>
<polygon fill="white" stroke="none" points="-4,4 -4,-133 572,-133 572,4 -4,4"/>
<!-- Node120 -->
<g id="node1" class="node"><title>Node120</title>
<polygon fill="#bfbfbf" stroke="black" points="0,-49.5 0,-79.5 129,-79.5 129,-49.5 0,-49.5"/>
<text text-anchor="start" x="8" y="-67.5" font-family="Helvetica,sans-Serif" font-size="10.00">regrid_edge_values</text>
<text text-anchor="middle" x="64.5" y="-56.5" font-family="Helvetica,sans-Serif" font-size="10.00">::edge_values_implicit_h6</text>
</g>
<!-- Node121 -->
<g id="node2" class="node"><title>Node121</title>
<g id="a_node2"><a xlink:href="namespacepolynomial__functions.html#aed77465c5ca9937dab06fdb5f94eba39" target="_top" xlink:title="polynomial_functions\l::evaluation_polynomial">
<polygon fill="white" stroke="black" points="165,-98.5 165,-128.5 284,-128.5 284,-98.5 165,-98.5"/>
<text text-anchor="start" x="173" y="-116.5" font-family="Helvetica,sans-Serif" font-size="10.00">polynomial_functions</text>
<text text-anchor="middle" x="224.5" y="-105.5" font-family="Helvetica,sans-Serif" font-size="10.00">::evaluation_polynomial</text>
</a>
</g>
</g>
<!-- Node120&#45;&gt;Node121 -->
<g id="edge1" class="edge"><title>Node120&#45;&gt;Node121</title>
<path fill="none" stroke="midnightblue" d="M114.194,-79.6014C130.339,-84.6083 148.474,-90.2324 165.262,-95.439"/>
<polygon fill="midnightblue" stroke="midnightblue" points="164.378,-98.8292 174.966,-98.4484 166.452,-92.1433 164.378,-98.8292"/>
</g>
<!-- Node122 -->
<g id="node3" class="node"><title>Node122</title>
<g id="a_node3"><a xlink:href="namespaceregrid__solvers.html#a8130a338b59de62b00f68da4204568ad" target="_top" xlink:title="regrid_solvers::solve\l_linear_system">
<polygon fill="white" stroke="black" points="171,-49.5 171,-79.5 278,-79.5 278,-49.5 171,-49.5"/>
<text text-anchor="start" x="179" y="-67.5" font-family="Helvetica,sans-Serif" font-size="10.00">regrid_solvers::solve</text>
<text text-anchor="middle" x="224.5" y="-56.5" font-family="Helvetica,sans-Serif" font-size="10.00">_linear_system</text>
</a>
</g>
</g>
<!-- Node120&#45;&gt;Node122 -->
<g id="edge2" class="edge"><title>Node120&#45;&gt;Node122</title>
<path fill="none" stroke="midnightblue" d="M129.309,-64.5C139.587,-64.5 150.221,-64.5 160.48,-64.5"/>
<polygon fill="midnightblue" stroke="midnightblue" points="160.586,-68.0001 170.586,-64.5 160.586,-61.0001 160.586,-68.0001"/>
</g>
<!-- Node125 -->
<g id="node6" class="node"><title>Node125</title>
<g id="a_node6"><a xlink:href="namespaceregrid__solvers.html#a0d5c3cff8f31429b0a2c6d267e8b345d" target="_top" xlink:title="regrid_solvers::solve\l_tridiagonal_system">
<polygon fill="white" stroke="black" points="171,-0.5 171,-30.5 278,-30.5 278,-0.5 171,-0.5"/>
<text text-anchor="start" x="179" y="-18.5" font-family="Helvetica,sans-Serif" font-size="10.00">regrid_solvers::solve</text>
<text text-anchor="middle" x="224.5" y="-7.5" font-family="Helvetica,sans-Serif" font-size="10.00">_tridiagonal_system</text>
</a>
</g>
</g>
<!-- Node120&#45;&gt;Node125 -->
<g id="edge5" class="edge"><title>Node120&#45;&gt;Node125</title>
<path fill="none" stroke="midnightblue" d="M114.194,-49.3986C130.339,-44.3917 148.474,-38.7676 165.262,-33.561"/>
<polygon fill="midnightblue" stroke="midnightblue" points="166.452,-36.8567 174.966,-30.5516 164.378,-30.1708 166.452,-36.8567"/>
</g>
<!-- Node123 -->
<g id="node4" class="node"><title>Node123</title>
<g id="a_node4"><a xlink:href="namespacemom__error__handler.html#a460cfb79a06c29fc249952c2a3710d67" target="_top" xlink:title="mom_error_handler::\lmom_error">
<polygon fill="white" stroke="black" points="320,-49.5 320,-79.5 426,-79.5 426,-49.5 320,-49.5"/>
<text text-anchor="start" x="328" y="-67.5" font-family="Helvetica,sans-Serif" font-size="10.00">mom_error_handler::</text>
<text text-anchor="middle" x="373" y="-56.5" font-family="Helvetica,sans-Serif" font-size="10.00">mom_error</text>
</a>
</g>
</g>
<!-- Node122&#45;&gt;Node123 -->
<g id="edge3" class="edge"><title>Node122&#45;&gt;Node123</title>
<path fill="none" stroke="midnightblue" d="M278.39,-64.5C288.471,-64.5 299.111,-64.5 309.459,-64.5"/>
<polygon fill="midnightblue" stroke="midnightblue" points="309.679,-68.0001 319.679,-64.5 309.679,-61.0001 309.679,-68.0001"/>
</g>
<!-- Node124 -->
<g id="node5" class="node"><title>Node124</title>
<g id="a_node5"><a xlink:href="namespacemom__error__handler.html#ad5f00a53059c72fe2332d1436c80ca71" target="_top" xlink:title="mom_error_handler::\lis_root_pe">
<polygon fill="white" stroke="black" points="462,-49.5 462,-79.5 568,-79.5 568,-49.5 462,-49.5"/>
<text text-anchor="start" x="470" y="-67.5" font-family="Helvetica,sans-Serif" font-size="10.00">mom_error_handler::</text>
<text text-anchor="middle" x="515" y="-56.5" font-family="Helvetica,sans-Serif" font-size="10.00">is_root_pe</text>
</a>
</g>
</g>
<!-- Node123&#45;&gt;Node124 -->
<g id="edge4" class="edge"><title>Node123&#45;&gt;Node124</title>
<path fill="none" stroke="midnightblue" d="M426.131,-64.5C434.421,-64.5 443.07,-64.5 451.568,-64.5"/>
<polygon fill="midnightblue" stroke="midnightblue" points="451.826,-68.0001 461.826,-64.5 451.826,-61.0001 451.826,-68.0001"/>
</g>
</g>
</svg>
