<?xml version="1.0" encoding="UTF-8" standalone="no"?>
<!DOCTYPE svg PUBLIC "-//W3C//DTD SVG 1.1//EN"
 "http://www.w3.org/Graphics/SVG/1.1/DTD/svg11.dtd">
<!-- Generated by graphviz version 2.38.0 (20140413.2041)
 -->
<!-- Title: mom_diag_mediator::log_available_diag Pages: 1 -->
<!--zoomable 411 -->
<svg id="main" version="1.1" xmlns="http://www.w3.org/2000/svg" xmlns:xlink="http://www.w3.org/1999/xlink" xml:space="preserve" onload="init(evt)">
<style type="text/css"><![CDATA[
.edge:hover path { stroke: red; }
.edge:hover polygon { stroke: red; fill: red; }
]]></style>
<script type="text/javascript"><![CDATA[
var edges = document.getElementsByTagName('g');
if (edges && edges.length) {
  for (var i=0;i<edges.length;i++) {
    if (edges[i].id.substr(0,4)=='edge') {
      edges[i].setAttribute('class','edge');
    }
  }
}
]]></script>
        <defs>
                <circle id="rim" cx="0" cy="0" r="7"/>
                <circle id="rim2" cx="0" cy="0" r="3.5"/>
                <g id="zoomPlus">
                        <use xlink:href="#rim" fill="#404040">
                                <set attributeName="fill" to="#808080" begin="zoomplus.mouseover" end="zoomplus.mouseout"/>
                        </use>
                        <path d="M-4,0h8M0,-4v8" fill="none" stroke="white" stroke-width="1.5" pointer-events="none"/>
                </g>
                <g id="zoomMin">
                        <use xlink:href="#rim" fill="#404040">
                                <set attributeName="fill" to="#808080" begin="zoomminus.mouseover" end="zoomminus.mouseout"/>
                        </use>
                        <path d="M-4,0h8" fill="none" stroke="white" stroke-width="1.5" pointer-events="none"/>
                </g>
                <g id="dirArrow">
                        <path fill="none" stroke="white" stroke-width="1.5" d="M0,-3.0v7 M-2.5,-0.5L0,-3.0L2.5,-0.5"/>
                </g>
               <g id="resetDef">
                       <use xlink:href="#rim2" fill="#404040">
                               <set attributeName="fill" to="#808080" begin="reset.mouseover" end="reset.mouseout"/>
                       </use>
               </g>
        </defs>

<script type="text/javascript">
var viewWidth = 916;
var viewHeight = 411;
var sectionId = 'dynsection-21';
</script>
<script xlink:href="svgpan.js"/>
<svg id="graph" class="graph">
<g id="viewport">
<title>mom_diag_mediator::log_available_diag</title>
<polygon fill="white" stroke="none" points="-4,4 -4,-407 912,-407 912,4 -4,4"/>
<!-- Node191 -->
<g id="node1" class="node"><title>Node191</title>
<polygon fill="#bfbfbf" stroke="black" points="0,-85.5 0,-115.5 110,-115.5 110,-85.5 0,-85.5"/>
<text text-anchor="start" x="8" y="-103.5" font-family="Helvetica,sans-Serif" font-size="10.00">mom_diag_mediator::</text>
<text text-anchor="middle" x="55" y="-92.5" font-family="Helvetica,sans-Serif" font-size="10.00">log_available_diag</text>
</g>
<!-- Node192 -->
<g id="node2" class="node"><title>Node192</title>
<g id="a_node2"><a xlink:href="namespacemom__diag__mediator.html#ae50b35cba800ac5fd8975929fd2b9f4a" target="_top" xlink:title="Returns True if either the native of CMOr version of the diagnostic were registered. Updates &#39;dm_id&#39; after calling register_diag_field_expand_axes() for both native and CMOR variants of the field. ">
<polygon fill="white" stroke="black" points="146,-140 146,-181 256,-181 256,-140 146,-140"/>
<text text-anchor="start" x="154" y="-169" font-family="Helvetica,sans-Serif" font-size="10.00">mom_diag_mediator::</text>
<text text-anchor="start" x="154" y="-158" font-family="Helvetica,sans-Serif" font-size="10.00">register_diag_field</text>
<text text-anchor="middle" x="201" y="-147" font-family="Helvetica,sans-Serif" font-size="10.00">_expand_cmor</text>
</a>
</g>
</g>
<!-- Node191&#45;&gt;Node192 -->
<g id="edge1" class="edge"><title>Node191&#45;&gt;Node192</title>
<path fill="none" stroke="midnightblue" d="M101.753,-119.564C117.319,-126.05 134.782,-133.326 150.62,-139.925"/>
<polygon fill="midnightblue" stroke="midnightblue" points="102.914,-116.256 92.3373,-115.641 100.222,-122.718 102.914,-116.256"/>
</g>
<!-- Node205 -->
<g id="node15" class="node"><title>Node205</title>
<g id="a_node15"><a xlink:href="namespacemom__diag__mediator.html#afb4254e1cfbbcfc43028f14915173f80" target="_top" xlink:title="mom_diag_mediator::\lregister_scalar_field">
<polygon fill="white" stroke="black" points="146,-85.5 146,-115.5 256,-115.5 256,-85.5 146,-85.5"/>
<text text-anchor="start" x="154" y="-103.5" font-family="Helvetica,sans-Serif" font-size="10.00">mom_diag_mediator::</text>
<text text-anchor="middle" x="201" y="-92.5" font-family="Helvetica,sans-Serif" font-size="10.00">register_scalar_field</text>
</a>
</g>
</g>
<!-- Node191&#45;&gt;Node205 -->
<g id="edge14" class="edge"><title>Node191&#45;&gt;Node205</title>
<path fill="none" stroke="midnightblue" d="M120.27,-100.5C128.75,-100.5 137.375,-100.5 145.667,-100.5"/>
<polygon fill="midnightblue" stroke="midnightblue" points="120.03,-97.0001 110.03,-100.5 120.03,-104 120.03,-97.0001"/>
</g>
<!-- Node206 -->
<g id="node16" class="node"><title>Node206</title>
<g id="a_node16"><a xlink:href="namespacemom__diag__mediator.html#abe591ed2565e9f026c5be055bc2fc0b7" target="_top" xlink:title="Registers a static diagnostic, returning an integer handle. ">
<polygon fill="white" stroke="black" points="146,-26.5 146,-56.5 256,-56.5 256,-26.5 146,-26.5"/>
<text text-anchor="start" x="154" y="-44.5" font-family="Helvetica,sans-Serif" font-size="10.00">mom_diag_mediator::</text>
<text text-anchor="middle" x="201" y="-33.5" font-family="Helvetica,sans-Serif" font-size="10.00">register_static_field</text>
</a>
</g>
</g>
<!-- Node191&#45;&gt;Node206 -->
<g id="edge15" class="edge"><title>Node191&#45;&gt;Node206</title>
<path fill="none" stroke="midnightblue" d="M102.154,-81.5896C121.949,-73.4792 144.749,-64.1377 163.357,-56.5134"/>
<polygon fill="midnightblue" stroke="midnightblue" points="100.636,-78.4291 92.7099,-85.4592 103.29,-84.9065 100.636,-78.4291"/>
</g>
<!-- Node193 -->
<g id="node3" class="node"><title>Node193</title>
<g id="a_node3"><a xlink:href="namespacemom__diag__mediator.html#aa791f75f899ae9b7cd4756165a9c2a1b" target="_top" xlink:title="Returns the &quot;diag_mediator&quot; handle for a group (native, CMOR, z&#45;coord, ...) of diagnostics derived fr...">
<polygon fill="white" stroke="black" points="319,-186.5 319,-216.5 429,-216.5 429,-186.5 319,-186.5"/>
<text text-anchor="start" x="327" y="-204.5" font-family="Helvetica,sans-Serif" font-size="10.00">mom_diag_mediator::</text>
<text text-anchor="middle" x="374" y="-193.5" font-family="Helvetica,sans-Serif" font-size="10.00">register_diag_field</text>
</a>
</g>
</g>
<!-- Node192&#45;&gt;Node193 -->
<g id="edge2" class="edge"><title>Node192&#45;&gt;Node193</title>
<path fill="none" stroke="midnightblue" d="M266.171,-175.886C283.552,-180.053 302.19,-184.522 318.953,-188.541"/>
<polygon fill="midnightblue" stroke="midnightblue" points="266.646,-172.401 256.105,-173.473 265.014,-179.208 266.646,-172.401"/>
</g>
<!-- Node194 -->
<g id="node4" class="node"><title>Node194</title>
<g id="a_node4"><a xlink:href="namespacemom__ale.html#a994efb3c62fc5f63da2617f29cbd6be1" target="_top" xlink:title="Initialize diagnostics for the ALE module. ">
<polygon fill="white" stroke="black" points="516,-372.5 516,-402.5 629,-402.5 629,-372.5 516,-372.5"/>
<text text-anchor="start" x="524" y="-390.5" font-family="Helvetica,sans-Serif" font-size="10.00">mom_ale::ale_register</text>
<text text-anchor="middle" x="572.5" y="-379.5" font-family="Helvetica,sans-Serif" font-size="10.00">_diags</text>
</a>
</g>
</g>
<!-- Node193&#45;&gt;Node194 -->
<g id="edge3" class="edge"><title>Node193&#45;&gt;Node194</title>
<path fill="none" stroke="midnightblue" d="M386.442,-226.001C404.149,-261.291 441.489,-326.171 492,-362.5 499.165,-367.653 507.429,-371.77 515.862,-375.052"/>
<polygon fill="midnightblue" stroke="midnightblue" points="389.516,-224.32 381.974,-216.88 383.23,-227.4 389.516,-224.32"/>
</g>
<!-- Node195 -->
<g id="node5" class="node"><title>Node195</title>
<g id="a_node5"><a xlink:href="namespacemom__coriolisadv.html#ad3ce07f23ce7b484a5a9e0c0abe8b1cd" target="_top" xlink:title="Initializes the control structure for coriolisadv_cs. ">
<polygon fill="white" stroke="black" points="492,-334 492,-353 653,-353 653,-334 492,-334"/>
<text text-anchor="middle" x="572.5" y="-341" font-family="Helvetica,sans-Serif" font-size="10.00">mom_coriolisadv::coriolisadv_init</text>
</a>
</g>
</g>
<!-- Node193&#45;&gt;Node195 -->
<g id="edge4" class="edge"><title>Node193&#45;&gt;Node195</title>
<path fill="none" stroke="midnightblue" d="M390.848,-225.083C410.996,-253.166 448.444,-299.417 492,-324.5 498.764,-328.395 506.29,-331.493 513.941,-333.958"/>
<polygon fill="midnightblue" stroke="midnightblue" points="393.54,-222.826 384.928,-216.653 387.811,-226.848 393.54,-222.826"/>
</g>
<!-- Node196 -->
<g id="node6" class="node"><title>Node196</title>
<g id="a_node6"><a xlink:href="namespacemom__diag__mediator.html#a21267e25d12fa3e5d2540d2a299d2d2c" target="_top" xlink:title="Registers a diagnostic using the information encapsulated in the vardesc type argument and returns an...">
<polygon fill="white" stroke="black" points="517.5,-284.5 517.5,-314.5 627.5,-314.5 627.5,-284.5 517.5,-284.5"/>
<text text-anchor="start" x="525.5" y="-302.5" font-family="Helvetica,sans-Serif" font-size="10.00">mom_diag_mediator::</text>
<text text-anchor="middle" x="572.5" y="-291.5" font-family="Helvetica,sans-Serif" font-size="10.00">ocean_register_diag</text>
</a>
</g>
</g>
<!-- Node193&#45;&gt;Node196 -->
<g id="edge5" class="edge"><title>Node193&#45;&gt;Node196</title>
<path fill="none" stroke="midnightblue" d="M403.418,-222.567C426.375,-238.806 460.016,-260.887 492,-275.5 499.999,-279.155 508.7,-282.431 517.314,-285.3"/>
<polygon fill="midnightblue" stroke="midnightblue" points="405.336,-219.635 395.168,-216.657 401.259,-225.326 405.336,-219.635"/>
</g>
<!-- Node198 -->
<g id="node8" class="node"><title>Node198</title>
<g id="a_node8"><a xlink:href="namespacemom__diapyc__energy__req.html#aa0ce122f4dc6d9a6ec9e17996484bb76" target="_top" xlink:title="mom_diapyc_energy_req\l::diapyc_energy_req_init">
<polygon fill="white" stroke="black" points="510,-235.5 510,-265.5 635,-265.5 635,-235.5 510,-235.5"/>
<text text-anchor="start" x="518" y="-253.5" font-family="Helvetica,sans-Serif" font-size="10.00">mom_diapyc_energy_req</text>
<text text-anchor="middle" x="572.5" y="-242.5" font-family="Helvetica,sans-Serif" font-size="10.00">::diapyc_energy_req_init</text>
</a>
</g>
</g>
<!-- Node193&#45;&gt;Node198 -->
<g id="edge7" class="edge"><title>Node193&#45;&gt;Node198</title>
<path fill="none" stroke="midnightblue" d="M438.972,-217.452C462.198,-223.244 488.347,-229.765 511.242,-235.474"/>
<polygon fill="midnightblue" stroke="midnightblue" points="439.764,-214.043 429.215,-215.019 438.071,-220.835 439.764,-214.043"/>
</g>
<!-- Node199 -->
<g id="node9" class="node"><title>Node199</title>
<g id="a_node9"><a xlink:href="namespacemom__diffconvection.html#ac36d9d7fd69e4422e7de01242094ff34" target="_top" xlink:title="mom_diffconvection\l::diffconvection_init">
<polygon fill="white" stroke="black" points="520.5,-186.5 520.5,-216.5 624.5,-216.5 624.5,-186.5 520.5,-186.5"/>
<text text-anchor="start" x="528.5" y="-204.5" font-family="Helvetica,sans-Serif" font-size="10.00">mom_diffconvection</text>
<text text-anchor="middle" x="572.5" y="-193.5" font-family="Helvetica,sans-Serif" font-size="10.00">::diffconvection_init</text>
</a>
</g>
</g>
<!-- Node193&#45;&gt;Node199 -->
<g id="edge8" class="edge"><title>Node193&#45;&gt;Node199</title>
<path fill="none" stroke="midnightblue" d="M439.433,-201.5C465.63,-201.5 495.48,-201.5 520.167,-201.5"/>
<polygon fill="midnightblue" stroke="midnightblue" points="439.215,-198 429.215,-201.5 439.215,-205 439.215,-198"/>
</g>
<!-- Node200 -->
<g id="node10" class="node"><title>Node200</title>
<g id="a_node10"><a xlink:href="namespacemom__int__tide__input.html#a29a707637da633ccee155b53557b5f17" target="_top" xlink:title="mom_int_tide_input\l::int_tide_input_init">
<polygon fill="white" stroke="black" points="522,-137.5 522,-167.5 623,-167.5 623,-137.5 522,-137.5"/>
<text text-anchor="start" x="530" y="-155.5" font-family="Helvetica,sans-Serif" font-size="10.00">mom_int_tide_input</text>
<text text-anchor="middle" x="572.5" y="-144.5" font-family="Helvetica,sans-Serif" font-size="10.00">::int_tide_input_init</text>
</a>
</g>
</g>
<!-- Node193&#45;&gt;Node200 -->
<g id="edge9" class="edge"><title>Node193&#45;&gt;Node200</title>
<path fill="none" stroke="midnightblue" d="M438.933,-185.557C465.842,-178.847 496.679,-171.158 521.836,-164.884"/>
<polygon fill="midnightblue" stroke="midnightblue" points="438.071,-182.165 429.215,-187.981 439.764,-188.957 438.071,-182.165"/>
</g>
<!-- Node201 -->
<g id="node11" class="node"><title>Node201</title>
<g id="a_node11"><a xlink:href="namespacemom__kpp.html#a9c834424b6e067e280928db3700ec77e" target="_top" xlink:title="Initialize the CVmix KPP module and set up diagnostics Returns True if KPP is to be used...">
<polygon fill="white" stroke="black" points="523,-99 523,-118 622,-118 622,-99 523,-99"/>
<text text-anchor="middle" x="572.5" y="-106" font-family="Helvetica,sans-Serif" font-size="10.00">mom_kpp::kpp_init</text>
</a>
</g>
</g>
<!-- Node193&#45;&gt;Node201 -->
<g id="edge10" class="edge"><title>Node193&#45;&gt;Node201</title>
<path fill="none" stroke="midnightblue" d="M403.28,-180.329C426.16,-164.093 459.765,-142.21 492,-128.5 501.823,-124.322 512.713,-120.876 523.203,-118.091"/>
<polygon fill="midnightblue" stroke="midnightblue" points="401.131,-177.563 395.061,-186.246 405.221,-183.244 401.131,-177.563"/>
</g>
<!-- Node202 -->
<g id="node12" class="node"><title>Node202</title>
<g id="a_node12"><a xlink:href="namespacemom__neutral__diffusion.html#a87cf821c52ac1111493d4168f0a91d17" target="_top" xlink:title="Diagnostic handles for neutral diffusion tendencies. ">
<polygon fill="white" stroke="black" points="505,-49.5 505,-79.5 640,-79.5 640,-49.5 505,-49.5"/>
<text text-anchor="start" x="513" y="-67.5" font-family="Helvetica,sans-Serif" font-size="10.00">mom_neutral_diffusion</text>
<text text-anchor="middle" x="572.5" y="-56.5" font-family="Helvetica,sans-Serif" font-size="10.00">::neutral_diffusion_diag_init</text>
</a>
</g>
</g>
<!-- Node193&#45;&gt;Node202 -->
<g id="edge11" class="edge"><title>Node193&#45;&gt;Node202</title>
<path fill="none" stroke="midnightblue" d="M393.582,-178.202C414.865,-152.97 451.99,-113.164 492,-89.5 498.476,-85.6699 505.601,-82.3642 512.844,-79.528"/>
<polygon fill="midnightblue" stroke="midnightblue" points="390.677,-176.223 386.991,-186.156 396.067,-180.689 390.677,-176.223"/>
</g>
<!-- Node197 -->
<g id="node7" class="node"><title>Node197</title>
<g id="a_node7"><a xlink:href="namespacemom__diag__to__z.html#a90526b2f59f94c6af2f525a221029772" target="_top" xlink:title="This subroutine registers a tracer to be output in depth space. ">
<polygon fill="white" stroke="black" points="689,-284.5 689,-314.5 807,-314.5 807,-284.5 689,-284.5"/>
<text text-anchor="start" x="697" y="-302.5" font-family="Helvetica,sans-Serif" font-size="10.00">mom_diag_to_z::ocean</text>
<text text-anchor="middle" x="748" y="-291.5" font-family="Helvetica,sans-Serif" font-size="10.00">_register_diag_with_z</text>
</a>
</g>
</g>
<!-- Node196&#45;&gt;Node197 -->
<g id="edge6" class="edge"><title>Node196&#45;&gt;Node197</title>
<path fill="none" stroke="midnightblue" d="M638.111,-299.5C654.759,-299.5 672.572,-299.5 688.868,-299.5"/>
<polygon fill="midnightblue" stroke="midnightblue" points="637.92,-296 627.92,-299.5 637.92,-303 637.92,-296"/>
</g>
<!-- Node203 -->
<g id="node13" class="node"><title>Node203</title>
<g id="a_node13"><a xlink:href="namespacemom.html#a0be2869fef30e1e0604facfe1b41555d" target="_top" xlink:title="This subroutine initializes MOM. ">
<polygon fill="white" stroke="black" points="694.5,-55 694.5,-74 801.5,-74 801.5,-55 694.5,-55"/>
<text text-anchor="middle" x="748" y="-62" font-family="Helvetica,sans-Serif" font-size="10.00">mom::initialize_mom</text>
</a>
</g>
</g>
<!-- Node202&#45;&gt;Node203 -->
<g id="edge12" class="edge"><title>Node202&#45;&gt;Node203</title>
<path fill="none" stroke="midnightblue" d="M650.296,-64.5C665.171,-64.5 680.441,-64.5 694.326,-64.5"/>
<polygon fill="midnightblue" stroke="midnightblue" points="650.083,-61.0001 640.083,-64.5 650.083,-68.0001 650.083,-61.0001"/>
</g>
<!-- Node204 -->
<g id="node14" class="node"><title>Node204</title>
<g id="a_node14"><a xlink:href="MOM__driver_8F90.html#a08fffeb2d8e8acbf9ed4609be6d258c6" target="_top" xlink:title="mom_main">
<polygon fill="white" stroke="black" points="843,-55 843,-74 908,-74 908,-55 843,-55"/>
<text text-anchor="middle" x="875.5" y="-62" font-family="Helvetica,sans-Serif" font-size="10.00">mom_main</text>
</a>
</g>
</g>
<!-- Node203&#45;&gt;Node204 -->
<g id="edge13" class="edge"><title>Node203&#45;&gt;Node204</title>
<path fill="none" stroke="midnightblue" d="M812.06,-64.5C822.738,-64.5 833.404,-64.5 842.821,-64.5"/>
<polygon fill="midnightblue" stroke="midnightblue" points="811.86,-61.0001 801.86,-64.5 811.86,-68.0001 811.86,-61.0001"/>
</g>
<!-- Node207 -->
<g id="node17" class="node"><title>Node207</title>
<g id="a_node17"><a xlink:href="namespacemom__geothermal.html#a0abbb7953860e3357bbd3d35f46fd851" target="_top" xlink:title="mom_geothermal::geothermal_init">
<polygon fill="white" stroke="black" points="292,-12 292,-31 456,-31 456,-12 292,-12"/>
<text text-anchor="middle" x="374" y="-19" font-family="Helvetica,sans-Serif" font-size="10.00">mom_geothermal::geothermal_init</text>
</a>
</g>
</g>
<!-- Node206&#45;&gt;Node207 -->
<g id="edge16" class="edge"><title>Node206&#45;&gt;Node207</title>
<path fill="none" stroke="midnightblue" d="M266.14,-33.9983C274.504,-33.02 283.159,-32.0077 291.757,-31.0021"/>
<polygon fill="midnightblue" stroke="midnightblue" points="265.631,-30.5338 256.105,-35.1719 266.444,-37.4864 265.631,-30.5338"/>
</g>
<!-- Node208 -->
<g id="node18" class="node"><title>Node208</title>
<g id="a_node18"><a xlink:href="namespacemom__diabatic__driver.html#afa0b30bd6f0e080bcacbd6dcb15ff990" target="_top" xlink:title="This routine initializes the diabatic driver module. ">
<polygon fill="white" stroke="black" points="519,-0.5 519,-30.5 626,-30.5 626,-0.5 519,-0.5"/>
<text text-anchor="start" x="527" y="-18.5" font-family="Helvetica,sans-Serif" font-size="10.00">mom_diabatic_driver</text>
<text text-anchor="middle" x="572.5" y="-7.5" font-family="Helvetica,sans-Serif" font-size="10.00">::diabatic_driver_init</text>
</a>
</g>
</g>
<!-- Node207&#45;&gt;Node208 -->
<g id="edge17" class="edge"><title>Node207&#45;&gt;Node208</title>
<path fill="none" stroke="midnightblue" d="M466.085,-18.7188C484.22,-18.165 502.684,-17.6013 518.985,-17.1035"/>
<polygon fill="midnightblue" stroke="midnightblue" points="465.947,-15.2213 456.059,-19.0249 466.161,-22.218 465.947,-15.2213"/>
</g>
</g>
</svg>
        <g id="navigator" transform="translate(0 0)" fill="#404254">
                <rect fill="#f2f5e9" fill-opacity="0.5" stroke="#606060" stroke-width=".5" x="0" y="0" width="60" height="60"/>
                <use id="zoomplus" xlink:href="#zoomPlus" x="17" y="9" onmousedown="handleZoom(evt,'in')"/>
                <use id="zoomminus" xlink:href="#zoomMin" x="42" y="9" onmousedown="handleZoom(evt,'out')"/>
                <use id="reset" xlink:href="#resetDef" x="30" y="36" onmousedown="handleReset()"/>
                <g id="arrowUp" xlink:href="#dirArrow" transform="translate(30 24)" onmousedown="handlePan(0,-1)">
                  <use xlink:href="#rim" fill="#404040">
                        <set attributeName="fill" to="#808080" begin="arrowUp.mouseover" end="arrowUp.mouseout"/>
                  </use>
                  <path fill="none" stroke="white" stroke-width="1.5" d="M0,-3.0v7 M-2.5,-0.5L0,-3.0L2.5,-0.5"/>
                </g>
                <g id="arrowRight" xlink:href="#dirArrow" transform="rotate(90) translate(36 -43)" onmousedown="handlePan(1,0)">
                  <use xlink:href="#rim" fill="#404040">
                        <set attributeName="fill" to="#808080" begin="arrowRight.mouseover" end="arrowRight.mouseout"/>
                  </use>
                  <path fill="none" stroke="white" stroke-width="1.5" d="M0,-3.0v7 M-2.5,-0.5L0,-3.0L2.5,-0.5"/>
                </g>
                <g id="arrowDown" xlink:href="#dirArrow" transform="rotate(180) translate(-30 -48)" onmousedown="handlePan(0,1)">
                  <use xlink:href="#rim" fill="#404040">
                        <set attributeName="fill" to="#808080" begin="arrowDown.mouseover" end="arrowDown.mouseout"/>
                  </use>
                  <path fill="none" stroke="white" stroke-width="1.5" d="M0,-3.0v7 M-2.5,-0.5L0,-3.0L2.5,-0.5"/>
                </g>
                <g id="arrowLeft" xlink:href="#dirArrow" transform="rotate(270) translate(-36 17)" onmousedown="handlePan(-1,0)">
                  <use xlink:href="#rim" fill="#404040">
                        <set attributeName="fill" to="#808080" begin="arrowLeft.mouseover" end="arrowLeft.mouseout"/>
                  </use>
                  <path fill="none" stroke="white" stroke-width="1.5" d="M0,-3.0v7 M-2.5,-0.5L0,-3.0L2.5,-0.5"/>
                </g>
        </g>
        <svg viewBox="0 0 15 15" width="100%" height="30px" preserveAspectRatio="xMaxYMin meet">
         <g id="arrow_out" transform="scale(0.3 0.3)">
          <a xlink:href="namespacemom__diag__mediator_a65fe8d329cf5dbfd08c98874a7a64407_icgraph_org.svg" target="_base">
           <rect id="button" ry="5" rx="5" y="6" x="6" height="38" width="38"
                fill="#f2f5e9" fill-opacity="0.5" stroke="#606060" stroke-width="1.0"/>
           <path id="arrow"
             d="M 11.500037,31.436501 C 11.940474,20.09759 22.043105,11.32322 32.158766,21.979434 L 37.068811,17.246167 C 37.068811,17.246167 37.088388,32 37.088388,32 L 22.160133,31.978069 C 22.160133,31.978069 26.997745,27.140456 26.997745,27.140456 C 18.528582,18.264221 13.291696,25.230495 11.500037,31.436501 z"
             style="fill:#404040;"/>
          </a>
         </g>
        </svg>
</svg>
