<?xml version="1.0" encoding="UTF-8" standalone="no"?>
<!DOCTYPE svg PUBLIC "-//W3C//DTD SVG 1.1//EN"
 "http://www.w3.org/Graphics/SVG/1.1/DTD/svg11.dtd">
<!-- Generated by graphviz version 2.38.0 (20140413.2041)
 -->
<!-- Title: mom_ice_shelf::slope_limiter Pages: 1 -->
<svg width="675pt" height="186pt"
 viewBox="0.00 0.00 675.00 186.00" xmlns="http://www.w3.org/2000/svg" xmlns:xlink="http://www.w3.org/1999/xlink">
<g id="graph0" class="graph" transform="scale(1 1) rotate(0) translate(4 182)">
<title>mom_ice_shelf::slope_limiter</title>
<polygon fill="white" stroke="none" points="-4,4 -4,-182 671,-182 671,4 -4,4"/>
<!-- Node371 -->
<g id="node1" class="node"><title>Node371</title>
<polygon fill="#bfbfbf" stroke="black" points="0,-73.5 0,-103.5 112,-103.5 112,-73.5 0,-73.5"/>
<text text-anchor="start" x="8" y="-91.5" font-family="Helvetica,sans-Serif" font-size="10.00">mom_ice_shelf::slope</text>
<text text-anchor="middle" x="56" y="-80.5" font-family="Helvetica,sans-Serif" font-size="10.00">_limiter</text>
</g>
<!-- Node372 -->
<g id="node2" class="node"><title>Node372</title>
<g id="a_node2"><a xlink:href="namespacemom__ice__shelf.html#a0ffb4a930ade24b82233f6da5b525ca9" target="_top" xlink:title="mom_ice_shelf::ice\l_shelf_advect_temp_x">
<polygon fill="white" stroke="black" points="158,-147.5 158,-177.5 273,-177.5 273,-147.5 158,-147.5"/>
<text text-anchor="start" x="166" y="-165.5" font-family="Helvetica,sans-Serif" font-size="10.00">mom_ice_shelf::ice</text>
<text text-anchor="middle" x="215.5" y="-154.5" font-family="Helvetica,sans-Serif" font-size="10.00">_shelf_advect_temp_x</text>
</a>
</g>
</g>
<!-- Node371&#45;&gt;Node372 -->
<g id="edge1" class="edge"><title>Node371&#45;&gt;Node372</title>
<path fill="none" stroke="midnightblue" d="M90.8693,-108.758C107.723,-118.41 128.595,-129.732 148,-138.5 154.935,-141.633 162.411,-144.657 169.76,-147.44"/>
<polygon fill="midnightblue" stroke="midnightblue" points="92.3617,-105.577 81.9542,-103.594 88.8532,-111.635 92.3617,-105.577"/>
</g>
<!-- Node375 -->
<g id="node5" class="node"><title>Node375</title>
<g id="a_node5"><a xlink:href="namespacemom__ice__shelf.html#a15c9ad8686b798642fc092a3f4ee2e07" target="_top" xlink:title="mom_ice_shelf::ice\l_shelf_advect_temp_y">
<polygon fill="white" stroke="black" points="158,-98.5 158,-128.5 273,-128.5 273,-98.5 158,-98.5"/>
<text text-anchor="start" x="166" y="-116.5" font-family="Helvetica,sans-Serif" font-size="10.00">mom_ice_shelf::ice</text>
<text text-anchor="middle" x="215.5" y="-105.5" font-family="Helvetica,sans-Serif" font-size="10.00">_shelf_advect_temp_y</text>
</a>
</g>
</g>
<!-- Node371&#45;&gt;Node375 -->
<g id="edge4" class="edge"><title>Node371&#45;&gt;Node375</title>
<path fill="none" stroke="midnightblue" d="M122.317,-98.8678C134.112,-100.74 146.321,-102.678 157.844,-104.507"/>
<polygon fill="midnightblue" stroke="midnightblue" points="122.511,-95.3548 112.086,-97.2438 121.413,-102.268 122.511,-95.3548"/>
</g>
<!-- Node376 -->
<g id="node6" class="node"><title>Node376</title>
<g id="a_node6"><a xlink:href="namespacemom__ice__shelf.html#a8bd6d78f530289dc90ffbdb0b80e7883" target="_top" xlink:title="mom_ice_shelf::ice\l_shelf_advect_thickness_x">
<polygon fill="white" stroke="black" points="148,-49.5 148,-79.5 283,-79.5 283,-49.5 148,-49.5"/>
<text text-anchor="start" x="156" y="-67.5" font-family="Helvetica,sans-Serif" font-size="10.00">mom_ice_shelf::ice</text>
<text text-anchor="middle" x="215.5" y="-56.5" font-family="Helvetica,sans-Serif" font-size="10.00">_shelf_advect_thickness_x</text>
</a>
</g>
</g>
<!-- Node371&#45;&gt;Node376 -->
<g id="edge6" class="edge"><title>Node371&#45;&gt;Node376</title>
<path fill="none" stroke="midnightblue" d="M122.246,-78.5577C130.685,-77.2718 139.337,-75.9534 147.799,-74.664"/>
<polygon fill="midnightblue" stroke="midnightblue" points="121.444,-75.1394 112.086,-80.106 122.499,-82.0595 121.444,-75.1394"/>
</g>
<!-- Node380 -->
<g id="node10" class="node"><title>Node380</title>
<g id="a_node10"><a xlink:href="namespacemom__ice__shelf.html#a0663fa04e4a2df8b6676a0c5364ac8ee" target="_top" xlink:title="mom_ice_shelf::ice\l_shelf_advect_thickness_y">
<polygon fill="white" stroke="black" points="148,-0.5 148,-30.5 283,-30.5 283,-0.5 148,-0.5"/>
<text text-anchor="start" x="156" y="-18.5" font-family="Helvetica,sans-Serif" font-size="10.00">mom_ice_shelf::ice</text>
<text text-anchor="middle" x="215.5" y="-7.5" font-family="Helvetica,sans-Serif" font-size="10.00">_shelf_advect_thickness_y</text>
</a>
</g>
</g>
<!-- Node371&#45;&gt;Node380 -->
<g id="edge11" class="edge"><title>Node371&#45;&gt;Node380</title>
<path fill="none" stroke="midnightblue" d="M91.6401,-68.2878C108.376,-58.9287 128.924,-48.0221 148,-39.5 154.948,-36.396 162.431,-33.3877 169.783,-30.611"/>
<polygon fill="midnightblue" stroke="midnightblue" points="89.7513,-65.3349 82.7685,-73.303 93.1962,-71.4286 89.7513,-65.3349"/>
</g>
<!-- Node373 -->
<g id="node3" class="node"><title>Node373</title>
<g id="a_node3"><a xlink:href="namespacemom__ice__shelf.html#a356c2cd3e4862890302bd58357d55299" target="_top" xlink:title="mom_ice_shelf::ice\l_shelf_temp">
<polygon fill="white" stroke="black" points="319,-98.5 319,-128.5 420,-128.5 420,-98.5 319,-98.5"/>
<text text-anchor="start" x="327" y="-116.5" font-family="Helvetica,sans-Serif" font-size="10.00">mom_ice_shelf::ice</text>
<text text-anchor="middle" x="369.5" y="-105.5" font-family="Helvetica,sans-Serif" font-size="10.00">_shelf_temp</text>
</a>
</g>
</g>
<!-- Node372&#45;&gt;Node373 -->
<g id="edge2" class="edge"><title>Node372&#45;&gt;Node373</title>
<path fill="none" stroke="midnightblue" d="M273.14,-144.241C289.172,-139.073 306.436,-133.508 321.809,-128.552"/>
<polygon fill="midnightblue" stroke="midnightblue" points="271.789,-140.999 263.345,-147.399 273.937,-147.661 271.789,-140.999"/>
</g>
<!-- Node374 -->
<g id="node4" class="node"><title>Node374</title>
<g id="a_node4"><a xlink:href="namespacemom__ice__shelf.html#ac084bdc5be4e708e3263488e9574a3c9" target="_top" xlink:title="mom_ice_shelf::solo\l_time_step">
<polygon fill="white" stroke="black" points="457.5,-98.5 457.5,-128.5 564.5,-128.5 564.5,-98.5 457.5,-98.5"/>
<text text-anchor="start" x="465.5" y="-116.5" font-family="Helvetica,sans-Serif" font-size="10.00">mom_ice_shelf::solo</text>
<text text-anchor="middle" x="511" y="-105.5" font-family="Helvetica,sans-Serif" font-size="10.00">_time_step</text>
</a>
</g>
</g>
<!-- Node373&#45;&gt;Node374 -->
<g id="edge3" class="edge"><title>Node373&#45;&gt;Node374</title>
<path fill="none" stroke="midnightblue" d="M430.133,-113.5C439.157,-113.5 448.412,-113.5 457.277,-113.5"/>
<polygon fill="midnightblue" stroke="midnightblue" points="430.075,-110 420.075,-113.5 430.075,-117 430.075,-110"/>
</g>
<!-- Node375&#45;&gt;Node373 -->
<g id="edge5" class="edge"><title>Node375&#45;&gt;Node373</title>
<path fill="none" stroke="midnightblue" d="M283.448,-113.5C295.346,-113.5 307.545,-113.5 318.854,-113.5"/>
<polygon fill="midnightblue" stroke="midnightblue" points="283.099,-110 273.099,-113.5 283.099,-117 283.099,-110"/>
</g>
<!-- Node377 -->
<g id="node7" class="node"><title>Node377</title>
<g id="a_node7"><a xlink:href="namespacemom__ice__shelf.html#a6a07543d5e828b759f18def33ca4feda" target="_top" xlink:title="mom_ice_shelf::ice\l_shelf_advect">
<polygon fill="white" stroke="black" points="319,-49.5 319,-79.5 420,-79.5 420,-49.5 319,-49.5"/>
<text text-anchor="start" x="327" y="-67.5" font-family="Helvetica,sans-Serif" font-size="10.00">mom_ice_shelf::ice</text>
<text text-anchor="middle" x="369.5" y="-56.5" font-family="Helvetica,sans-Serif" font-size="10.00">_shelf_advect</text>
</a>
</g>
</g>
<!-- Node376&#45;&gt;Node377 -->
<g id="edge7" class="edge"><title>Node376&#45;&gt;Node377</title>
<path fill="none" stroke="midnightblue" d="M293.312,-64.5C301.97,-64.5 310.614,-64.5 318.794,-64.5"/>
<polygon fill="midnightblue" stroke="midnightblue" points="293.169,-61.0001 283.169,-64.5 293.169,-68.0001 293.169,-61.0001"/>
</g>
<!-- Node377&#45;&gt;Node374 -->
<g id="edge10" class="edge"><title>Node377&#45;&gt;Node374</title>
<path fill="none" stroke="midnightblue" d="M423.269,-83.0355C437.676,-88.0959 453.112,-93.5177 466.909,-98.3641"/>
<polygon fill="midnightblue" stroke="midnightblue" points="424.088,-79.6133 413.493,-79.6014 421.768,-86.2178 424.088,-79.6133"/>
</g>
<!-- Node378 -->
<g id="node8" class="node"><title>Node378</title>
<g id="a_node8"><a xlink:href="namespacemom__ice__shelf.html#a3b0e0cc9f36c5197236cc05867b780df" target="_top" xlink:title="Calculates fluxes between the ocean and ice&#45;shelf using the three&#45;equations formulation (optional to ...">
<polygon fill="white" stroke="black" points="456,-49.5 456,-79.5 566,-79.5 566,-49.5 456,-49.5"/>
<text text-anchor="start" x="464" y="-67.5" font-family="Helvetica,sans-Serif" font-size="10.00">mom_ice_shelf::shelf</text>
<text text-anchor="middle" x="511" y="-56.5" font-family="Helvetica,sans-Serif" font-size="10.00">_calc_flux</text>
</a>
</g>
</g>
<!-- Node377&#45;&gt;Node378 -->
<g id="edge8" class="edge"><title>Node377&#45;&gt;Node378</title>
<path fill="none" stroke="midnightblue" d="M430.295,-64.5C438.784,-64.5 447.474,-64.5 455.847,-64.5"/>
<polygon fill="midnightblue" stroke="midnightblue" points="430.075,-61.0001 420.075,-64.5 430.075,-68.0001 430.075,-61.0001"/>
</g>
<!-- Node379 -->
<g id="node9" class="node"><title>Node379</title>
<g id="a_node9"><a xlink:href="MOM__driver_8F90.html#a08fffeb2d8e8acbf9ed4609be6d258c6" target="_top" xlink:title="mom_main">
<polygon fill="white" stroke="black" points="602,-55 602,-74 667,-74 667,-55 602,-55"/>
<text text-anchor="middle" x="634.5" y="-62" font-family="Helvetica,sans-Serif" font-size="10.00">mom_main</text>
</a>
</g>
</g>
<!-- Node378&#45;&gt;Node379 -->
<g id="edge9" class="edge"><title>Node378&#45;&gt;Node379</title>
<path fill="none" stroke="midnightblue" d="M576.627,-64.5C585.374,-64.5 594.013,-64.5 601.815,-64.5"/>
<polygon fill="midnightblue" stroke="midnightblue" points="576.353,-61.0001 566.353,-64.5 576.353,-68.0001 576.353,-61.0001"/>
</g>
<!-- Node380&#45;&gt;Node377 -->
<g id="edge12" class="edge"><title>Node380&#45;&gt;Node377</title>
<path fill="none" stroke="midnightblue" d="M273.14,-33.7591C289.172,-38.9273 306.436,-44.4924 321.809,-49.4484"/>
<polygon fill="midnightblue" stroke="midnightblue" points="273.937,-30.3385 263.345,-30.6014 271.789,-37.0009 273.937,-30.3385"/>
</g>
</g>
</svg>
