<?xml version="1.0" encoding="UTF-8" standalone="no"?>
<!DOCTYPE svg PUBLIC "-//W3C//DTD SVG 1.1//EN"
 "http://www.w3.org/Graphics/SVG/1.1/DTD/svg11.dtd">
<!-- Generated by graphviz version 2.38.0 (20140413.2041)
 -->
<!-- Title: mom_kappa_shear::calculate_kappa_shear Pages: 1 -->
<svg width="616pt" height="137pt"
 viewBox="0.00 0.00 616.00 137.00" xmlns="http://www.w3.org/2000/svg" xmlns:xlink="http://www.w3.org/1999/xlink">
<g id="graph0" class="graph" transform="scale(1 1) rotate(0) translate(4 133)">
<title>mom_kappa_shear::calculate_kappa_shear</title>
<polygon fill="white" stroke="none" points="-4,4 -4,-133 612,-133 612,4 -4,4"/>
<!-- Node0 -->
<g id="node1" class="node"><title>Node0</title>
<polygon fill="#bfbfbf" stroke="black" points="0,-49.5 0,-79.5 144,-79.5 144,-49.5 0,-49.5"/>
<text text-anchor="start" x="8" y="-67.5" font-family="Helvetica,sans-Serif" font-size="10.00">mom_kappa_shear::calculate</text>
<text text-anchor="middle" x="72" y="-56.5" font-family="Helvetica,sans-Serif" font-size="10.00">_kappa_shear</text>
</g>
<!-- Node1 -->
<g id="node2" class="node"><title>Node1</title>
<g id="a_node2"><a xlink:href="namespacemom__eos.html#a204529f8434a0322314e6ce2a9762436" target="_top" xlink:title="Calls the appropriate subroutine to calculate density derivatives for 1&#45;D array inputs. ">
<polygon fill="white" stroke="black" points="200,-98.5 200,-128.5 304,-128.5 304,-98.5 200,-98.5"/>
<text text-anchor="start" x="208" y="-116.5" font-family="Helvetica,sans-Serif" font-size="10.00">mom_eos::calculate</text>
<text text-anchor="middle" x="252" y="-105.5" font-family="Helvetica,sans-Serif" font-size="10.00">_density_derivs</text>
</a>
</g>
</g>
<!-- Node0&#45;&gt;Node1 -->
<g id="edge1" class="edge"><title>Node0&#45;&gt;Node1</title>
<path fill="none" stroke="midnightblue" d="M127.858,-79.6014C147.61,-85.0387 170.006,-91.2038 190.232,-96.7716"/>
<polygon fill="midnightblue" stroke="midnightblue" points="189.395,-100.171 199.965,-99.4511 191.253,-93.4225 189.395,-100.171"/>
</g>
<!-- Node4 -->
<g id="node5" class="node"><title>Node4</title>
<g id="a_node5"><a xlink:href="namespacemom__kappa__shear.html#a4d43a516e89feda04c134210558a7d0a" target="_top" xlink:title="mom_kappa_shear::calculate\l_projected_state">
<polygon fill="white" stroke="black" points="180,-49.5 180,-79.5 324,-79.5 324,-49.5 180,-49.5"/>
<text text-anchor="start" x="188" y="-67.5" font-family="Helvetica,sans-Serif" font-size="10.00">mom_kappa_shear::calculate</text>
<text text-anchor="middle" x="252" y="-56.5" font-family="Helvetica,sans-Serif" font-size="10.00">_projected_state</text>
</a>
</g>
</g>
<!-- Node0&#45;&gt;Node4 -->
<g id="edge4" class="edge"><title>Node0&#45;&gt;Node4</title>
<path fill="none" stroke="midnightblue" d="M144.118,-64.5C152.609,-64.5 161.327,-64.5 169.944,-64.5"/>
<polygon fill="midnightblue" stroke="midnightblue" points="169.995,-68.0001 179.995,-64.5 169.995,-61.0001 169.995,-68.0001"/>
</g>
<!-- Node5 -->
<g id="node6" class="node"><title>Node5</title>
<g id="a_node6"><a xlink:href="namespacemom__kappa__shear.html#a69c584e62c72ad2b84a2338b6de82083" target="_top" xlink:title="This subroutine calculates new, consistent estimates of TKE and kappa. ">
<polygon fill="white" stroke="black" points="191.5,-0.5 191.5,-30.5 312.5,-30.5 312.5,-0.5 191.5,-0.5"/>
<text text-anchor="start" x="199.5" y="-18.5" font-family="Helvetica,sans-Serif" font-size="10.00">mom_kappa_shear::find</text>
<text text-anchor="middle" x="252" y="-7.5" font-family="Helvetica,sans-Serif" font-size="10.00">_kappa_tke</text>
</a>
</g>
</g>
<!-- Node0&#45;&gt;Node5 -->
<g id="edge5" class="edge"><title>Node0&#45;&gt;Node5</title>
<path fill="none" stroke="midnightblue" d="M127.858,-49.3986C146.386,-44.2981 167.242,-38.5571 186.45,-33.2695"/>
<polygon fill="midnightblue" stroke="midnightblue" points="187.61,-36.5802 196.323,-30.5516 185.753,-29.8313 187.61,-36.5802"/>
</g>
<!-- Node2 -->
<g id="node3" class="node"><title>Node2</title>
<g id="a_node3"><a xlink:href="namespacemom__error__handler.html#a460cfb79a06c29fc249952c2a3710d67" target="_top" xlink:title="mom_error_handler::\lmom_error">
<polygon fill="white" stroke="black" points="360,-98.5 360,-128.5 466,-128.5 466,-98.5 360,-98.5"/>
<text text-anchor="start" x="368" y="-116.5" font-family="Helvetica,sans-Serif" font-size="10.00">mom_error_handler::</text>
<text text-anchor="middle" x="413" y="-105.5" font-family="Helvetica,sans-Serif" font-size="10.00">mom_error</text>
</a>
</g>
</g>
<!-- Node1&#45;&gt;Node2 -->
<g id="edge2" class="edge"><title>Node1&#45;&gt;Node2</title>
<path fill="none" stroke="midnightblue" d="M304.184,-113.5C318.641,-113.5 334.535,-113.5 349.574,-113.5"/>
<polygon fill="midnightblue" stroke="midnightblue" points="349.821,-117 359.82,-113.5 349.82,-110 349.821,-117"/>
</g>
<!-- Node3 -->
<g id="node4" class="node"><title>Node3</title>
<g id="a_node4"><a xlink:href="namespacemom__error__handler.html#ad5f00a53059c72fe2332d1436c80ca71" target="_top" xlink:title="mom_error_handler::\lis_root_pe">
<polygon fill="white" stroke="black" points="502,-98.5 502,-128.5 608,-128.5 608,-98.5 502,-98.5"/>
<text text-anchor="start" x="510" y="-116.5" font-family="Helvetica,sans-Serif" font-size="10.00">mom_error_handler::</text>
<text text-anchor="middle" x="555" y="-105.5" font-family="Helvetica,sans-Serif" font-size="10.00">is_root_pe</text>
</a>
</g>
</g>
<!-- Node2&#45;&gt;Node3 -->
<g id="edge3" class="edge"><title>Node2&#45;&gt;Node3</title>
<path fill="none" stroke="midnightblue" d="M466.131,-113.5C474.421,-113.5 483.07,-113.5 491.568,-113.5"/>
<polygon fill="midnightblue" stroke="midnightblue" points="491.826,-117 501.826,-113.5 491.826,-110 491.826,-117"/>
</g>
</g>
</svg>
