<?xml version="1.0" encoding="UTF-8" standalone="no"?>
<!DOCTYPE svg PUBLIC "-//W3C//DTD SVG 1.1//EN"
 "http://www.w3.org/Graphics/SVG/1.1/DTD/svg11.dtd">
<!-- Generated by graphviz version 2.38.0 (20140413.2041)
 -->
<!-- Title: mom_remapping::remapbydeltaz Pages: 1 -->
<svg width="730pt" height="39pt"
 viewBox="0.00 0.00 730.00 39.00" xmlns="http://www.w3.org/2000/svg" xmlns:xlink="http://www.w3.org/1999/xlink">
<g id="graph0" class="graph" transform="scale(1 1) rotate(0) translate(4 35)">
<title>mom_remapping::remapbydeltaz</title>
<polygon fill="white" stroke="none" points="-4,4 -4,-35 726,-35 726,4 -4,4"/>
<!-- Node216 -->
<g id="node1" class="node"><title>Node216</title>
<polygon fill="#bfbfbf" stroke="black" points="0,-6 0,-25 158,-25 158,-6 0,-6"/>
<text text-anchor="middle" x="79" y="-13" font-family="Helvetica,sans-Serif" font-size="10.00">mom_remapping::remapbydeltaz</text>
</g>
<!-- Node217 -->
<g id="node2" class="node"><title>Node217</title>
<g id="a_node2"><a xlink:href="namespacemom__remapping.html#a5849f564453d5ed76fb4feffd41eca26" target="_top" xlink:title="Runs unit tests on remapping functions. Should only be called from a single/root thread Returns True ...">
<polygon fill="white" stroke="black" points="194,-0.5 194,-30.5 334,-30.5 334,-0.5 194,-0.5"/>
<text text-anchor="start" x="202" y="-18.5" font-family="Helvetica,sans-Serif" font-size="10.00">mom_remapping::remapping</text>
<text text-anchor="middle" x="264" y="-7.5" font-family="Helvetica,sans-Serif" font-size="10.00">_unit_tests</text>
</a>
</g>
</g>
<!-- Node216&#45;&gt;Node217 -->
<g id="edge1" class="edge"><title>Node216&#45;&gt;Node217</title>
<path fill="none" stroke="midnightblue" d="M168.194,-15.5C176.789,-15.5 185.424,-15.5 193.793,-15.5"/>
<polygon fill="midnightblue" stroke="midnightblue" points="168.139,-12.0001 158.139,-15.5 168.139,-19.0001 168.139,-12.0001"/>
</g>
<!-- Node218 -->
<g id="node3" class="node"><title>Node218</title>
<g id="a_node3"><a xlink:href="namespacemom__unit__tests.html#a71f3a2080872634c14a25a9411b59fe0" target="_top" xlink:title="Calls unit tests for other modules. Note that if a unit test returns true, a FATAL error is triggered...">
<polygon fill="white" stroke="black" points="370,-0.5 370,-30.5 478,-30.5 478,-0.5 370,-0.5"/>
<text text-anchor="start" x="378" y="-18.5" font-family="Helvetica,sans-Serif" font-size="10.00">mom_unit_tests::unit</text>
<text text-anchor="middle" x="424" y="-7.5" font-family="Helvetica,sans-Serif" font-size="10.00">_tests</text>
</a>
</g>
</g>
<!-- Node217&#45;&gt;Node218 -->
<g id="edge2" class="edge"><title>Node217&#45;&gt;Node218</title>
<path fill="none" stroke="midnightblue" d="M344.422,-15.5C353.062,-15.5 361.695,-15.5 369.908,-15.5"/>
<polygon fill="midnightblue" stroke="midnightblue" points="344.301,-12.0001 334.301,-15.5 344.301,-19.0001 344.301,-12.0001"/>
</g>
<!-- Node219 -->
<g id="node4" class="node"><title>Node219</title>
<g id="a_node4"><a xlink:href="namespacemom.html#a0be2869fef30e1e0604facfe1b41555d" target="_top" xlink:title="This subroutine initializes MOM. ">
<polygon fill="white" stroke="black" points="514,-6 514,-25 621,-25 621,-6 514,-6"/>
<text text-anchor="middle" x="567.5" y="-13" font-family="Helvetica,sans-Serif" font-size="10.00">mom::initialize_mom</text>
</a>
</g>
</g>
<!-- Node218&#45;&gt;Node219 -->
<g id="edge3" class="edge"><title>Node218&#45;&gt;Node219</title>
<path fill="none" stroke="midnightblue" d="M488.294,-15.5C496.742,-15.5 505.335,-15.5 513.581,-15.5"/>
<polygon fill="midnightblue" stroke="midnightblue" points="488.092,-12.0001 478.092,-15.5 488.092,-19.0001 488.092,-12.0001"/>
</g>
<!-- Node220 -->
<g id="node5" class="node"><title>Node220</title>
<g id="a_node5"><a xlink:href="MOM__driver_8F90.html#a08fffeb2d8e8acbf9ed4609be6d258c6" target="_top" xlink:title="mom_main">
<polygon fill="white" stroke="black" points="657,-6 657,-25 722,-25 722,-6 657,-6"/>
<text text-anchor="middle" x="689.5" y="-13" font-family="Helvetica,sans-Serif" font-size="10.00">mom_main</text>
</a>
</g>
</g>
<!-- Node219&#45;&gt;Node220 -->
<g id="edge4" class="edge"><title>Node219&#45;&gt;Node220</title>
<path fill="none" stroke="midnightblue" d="M631.206,-15.5C640.134,-15.5 648.983,-15.5 656.958,-15.5"/>
<polygon fill="midnightblue" stroke="midnightblue" points="631.134,-12.0001 621.134,-15.5 631.134,-19.0001 631.134,-12.0001"/>
</g>
</g>
</svg>
