<?xml version="1.0" encoding="UTF-8" standalone="no"?>
<!DOCTYPE svg PUBLIC "-//W3C//DTD SVG 1.1//EN"
 "http://www.w3.org/Graphics/SVG/1.1/DTD/svg11.dtd">
<!-- Generated by graphviz version 2.38.0 (20140413.2041)
 -->
<!-- Title: mom_wave_speed::wave_speed_set_param Pages: 1 -->
<svg width="457pt" height="88pt"
 viewBox="0.00 0.00 457.00 88.00" xmlns="http://www.w3.org/2000/svg" xmlns:xlink="http://www.w3.org/1999/xlink">
<g id="graph0" class="graph" transform="scale(1 1) rotate(0) translate(4 84)">
<title>mom_wave_speed::wave_speed_set_param</title>
<polygon fill="white" stroke="none" points="-4,4 -4,-84 453,-84 453,4 -4,4"/>
<!-- Node56 -->
<g id="node1" class="node"><title>Node56</title>
<polygon fill="#bfbfbf" stroke="black" points="0,-24.5 0,-54.5 128,-54.5 128,-24.5 0,-24.5"/>
<text text-anchor="start" x="8" y="-42.5" font-family="Helvetica,sans-Serif" font-size="10.00">mom_wave_speed::wave</text>
<text text-anchor="middle" x="64" y="-31.5" font-family="Helvetica,sans-Serif" font-size="10.00">_speed_set_param</text>
</g>
<!-- Node57 -->
<g id="node2" class="node"><title>Node57</title>
<g id="a_node2"><a xlink:href="namespacemom__wave__speed.html#a46e21529ec8098b0b19053afa133b971" target="_top" xlink:title="Initialize control structure for MOM_wave_speed. ">
<polygon fill="white" stroke="black" points="164,-24.5 164,-54.5 292,-54.5 292,-24.5 164,-24.5"/>
<text text-anchor="start" x="172" y="-42.5" font-family="Helvetica,sans-Serif" font-size="10.00">mom_wave_speed::wave</text>
<text text-anchor="middle" x="228" y="-31.5" font-family="Helvetica,sans-Serif" font-size="10.00">_speed_init</text>
</a>
</g>
</g>
<!-- Node56&#45;&gt;Node57 -->
<g id="edge1" class="edge"><title>Node56&#45;&gt;Node57</title>
<path fill="none" stroke="midnightblue" d="M138.374,-39.5C146.865,-39.5 155.469,-39.5 163.808,-39.5"/>
<polygon fill="midnightblue" stroke="midnightblue" points="138.097,-36.0001 128.097,-39.5 138.097,-43.0001 138.097,-36.0001"/>
</g>
<!-- Node58 -->
<g id="node3" class="node"><title>Node58</title>
<g id="a_node3"><a xlink:href="namespacemom__diagnostics.html#ab2108574e351f6deb812da3faf437278" target="_top" xlink:title="mom_diagnostics::mom\l_diagnostics_init">
<polygon fill="white" stroke="black" points="328,-49.5 328,-79.5 449,-79.5 449,-49.5 328,-49.5"/>
<text text-anchor="start" x="336" y="-67.5" font-family="Helvetica,sans-Serif" font-size="10.00">mom_diagnostics::mom</text>
<text text-anchor="middle" x="388.5" y="-56.5" font-family="Helvetica,sans-Serif" font-size="10.00">_diagnostics_init</text>
</a>
</g>
</g>
<!-- Node57&#45;&gt;Node58 -->
<g id="edge2" class="edge"><title>Node57&#45;&gt;Node58</title>
<path fill="none" stroke="midnightblue" d="M302.172,-51.0413C310.812,-52.4041 319.549,-53.7822 327.969,-55.1102"/>
<polygon fill="midnightblue" stroke="midnightblue" points="302.522,-47.5533 292.099,-49.4525 301.431,-54.4679 302.522,-47.5533"/>
</g>
<!-- Node59 -->
<g id="node4" class="node"><title>Node59</title>
<g id="a_node4"><a xlink:href="namespacemom__lateral__mixing__coeffs.html#aeb658054e8d4d723dff397f8ae186e4a" target="_top" xlink:title="Initializes the variables mixing coefficients container. ">
<polygon fill="white" stroke="black" points="336.5,-0.5 336.5,-30.5 440.5,-30.5 440.5,-0.5 336.5,-0.5"/>
<text text-anchor="start" x="344.5" y="-18.5" font-family="Helvetica,sans-Serif" font-size="10.00">mom_lateral_mixing</text>
<text text-anchor="middle" x="388.5" y="-7.5" font-family="Helvetica,sans-Serif" font-size="10.00">_coeffs::varmix_init</text>
</a>
</g>
</g>
<!-- Node57&#45;&gt;Node59 -->
<g id="edge3" class="edge"><title>Node57&#45;&gt;Node59</title>
<path fill="none" stroke="midnightblue" d="M302.168,-28.4209C313.705,-26.674 325.415,-24.901 336.311,-23.2509"/>
<polygon fill="midnightblue" stroke="midnightblue" points="301.462,-24.9878 292.099,-29.9456 302.51,-31.9089 301.462,-24.9878"/>
</g>
</g>
</svg>
