<?xml version="1.0" encoding="UTF-8" standalone="no"?>
<!DOCTYPE svg PUBLIC "-//W3C//DTD SVG 1.1//EN"
 "http://www.w3.org/Graphics/SVG/1.1/DTD/svg11.dtd">
<!-- Generated by graphviz version 2.38.0 (20140413.2041)
 -->
<!-- Title: mom_set_visc::set_u_at_v Pages: 1 -->
<svg width="532pt" height="198pt"
 viewBox="0.00 0.00 532.00 197.50" xmlns="http://www.w3.org/2000/svg" xmlns:xlink="http://www.w3.org/1999/xlink">
<g id="graph0" class="graph" transform="scale(1 1) rotate(0) translate(4 193.5)">
<title>mom_set_visc::set_u_at_v</title>
<polygon fill="white" stroke="none" points="-4,4 -4,-193.5 528,-193.5 528,4 -4,4"/>
<!-- Node1 -->
<g id="node1" class="node"><title>Node1</title>
<polygon fill="#bfbfbf" stroke="black" points="0,-98 0,-117 134,-117 134,-98 0,-98"/>
<text text-anchor="middle" x="67" y="-105" font-family="Helvetica,sans-Serif" font-size="10.00">mom_set_visc::set_u_at_v</text>
</g>
<!-- Node2 -->
<g id="node2" class="node"><title>Node2</title>
<g id="a_node2"><a xlink:href="namespacemom__set__visc.html#a9e73d0338646bb91d14b78e86f6e3886" target="_top" xlink:title="The following subroutine calculates the thickness of the bottom boundary layer and the viscosity with...">
<polygon fill="white" stroke="black" points="170,-117 170,-136 327,-136 327,-117 170,-117"/>
<text text-anchor="middle" x="248.5" y="-124" font-family="Helvetica,sans-Serif" font-size="10.00">mom_set_visc::set_viscous_bbl</text>
</a>
</g>
</g>
<!-- Node1&#45;&gt;Node2 -->
<g id="edge1" class="edge"><title>Node1&#45;&gt;Node2</title>
<path fill="none" stroke="midnightblue" d="M144.252,-115.571C152.679,-116.463 161.268,-117.372 169.713,-118.266"/>
<polygon fill="midnightblue" stroke="midnightblue" points="144.387,-112.066 134.074,-114.494 143.65,-119.027 144.387,-112.066"/>
</g>
<!-- Node3 -->
<g id="node3" class="node"><title>Node3</title>
<g id="a_node3"><a xlink:href="namespacemom__set__visc.html#afa97c345f1c4caaaf53b039d0b3fc9d8" target="_top" xlink:title="The following subroutine calculates the thickness of the surface boundary layer for applying an eleva...">
<polygon fill="white" stroke="black" points="171,-79 171,-98 326,-98 326,-79 171,-79"/>
<text text-anchor="middle" x="248.5" y="-86" font-family="Helvetica,sans-Serif" font-size="10.00">mom_set_visc::set_viscous_ml</text>
</a>
</g>
</g>
<!-- Node1&#45;&gt;Node3 -->
<g id="edge2" class="edge"><title>Node1&#45;&gt;Node3</title>
<path fill="none" stroke="midnightblue" d="M144.032,-99.4521C152.937,-98.5094 162.028,-97.5472 170.941,-96.6038"/>
<polygon fill="midnightblue" stroke="midnightblue" points="143.65,-95.9728 134.074,-100.506 144.387,-102.934 143.65,-95.9728"/>
</g>
<!-- Node4 -->
<g id="node4" class="node"><title>Node4</title>
<g id="a_node4"><a xlink:href="namespacemom__dynamics__legacy__split.html#ae34fe0561f87dc05c2fad64bf6d5a1ee" target="_top" xlink:title="mom_dynamics_legacy\l_split::step_mom_dyn\l_legacy_split">
<polygon fill="white" stroke="black" points="384,-148 384,-189 503,-189 503,-148 384,-148"/>
<text text-anchor="start" x="392" y="-177" font-family="Helvetica,sans-Serif" font-size="10.00">mom_dynamics_legacy</text>
<text text-anchor="start" x="392" y="-166" font-family="Helvetica,sans-Serif" font-size="10.00">_split::step_mom_dyn</text>
<text text-anchor="middle" x="443.5" y="-155" font-family="Helvetica,sans-Serif" font-size="10.00">_legacy_split</text>
</a>
</g>
</g>
<!-- Node3&#45;&gt;Node4 -->
<g id="edge3" class="edge"><title>Node3&#45;&gt;Node4</title>
<path fill="none" stroke="midnightblue" d="M312.538,-101.245C317.54,-103.068 322.422,-105.142 327,-107.5 345.771,-117.169 344.845,-127.719 363,-138.5 369.469,-142.341 376.516,-145.843 383.653,-148.988"/>
<polygon fill="midnightblue" stroke="midnightblue" points="313.413,-97.8487 302.82,-98.0419 311.221,-104.497 313.413,-97.8487"/>
</g>
<!-- Node5 -->
<g id="node5" class="node"><title>Node5</title>
<g id="a_node5"><a xlink:href="namespacemom__dynamics__split__rk2.html#a81cce65643a8cf94979d68354a9a1979" target="_top" xlink:title="RK2 splitting for time stepping MOM adiabatic dynamics. ">
<polygon fill="white" stroke="black" points="368.5,-98.5 368.5,-128.5 518.5,-128.5 518.5,-98.5 368.5,-98.5"/>
<text text-anchor="start" x="376.5" y="-116.5" font-family="Helvetica,sans-Serif" font-size="10.00">mom_dynamics_split</text>
<text text-anchor="middle" x="443.5" y="-105.5" font-family="Helvetica,sans-Serif" font-size="10.00">_rk2::step_mom_dyn_split_rk2</text>
</a>
</g>
</g>
<!-- Node3&#45;&gt;Node5 -->
<g id="edge4" class="edge"><title>Node3&#45;&gt;Node5</title>
<path fill="none" stroke="midnightblue" d="M333.18,-99.3394C344.842,-100.85 356.757,-102.393 368.229,-103.879"/>
<polygon fill="midnightblue" stroke="midnightblue" points="333.382,-95.8364 323.016,-98.0227 332.483,-102.778 333.382,-95.8364"/>
</g>
<!-- Node6 -->
<g id="node6" class="node"><title>Node6</title>
<g id="a_node6"><a xlink:href="namespacemom__dynamics__unsplit.html#a53a72861e61f049479fdec46ea11227b" target="_top" xlink:title="mom_dynamics_unsplit\l::step_mom_dyn_unsplit">
<polygon fill="white" stroke="black" points="382,-49.5 382,-79.5 505,-79.5 505,-49.5 382,-49.5"/>
<text text-anchor="start" x="390" y="-67.5" font-family="Helvetica,sans-Serif" font-size="10.00">mom_dynamics_unsplit</text>
<text text-anchor="middle" x="443.5" y="-56.5" font-family="Helvetica,sans-Serif" font-size="10.00">::step_mom_dyn_unsplit</text>
</a>
</g>
</g>
<!-- Node3&#45;&gt;Node6 -->
<g id="edge5" class="edge"><title>Node3&#45;&gt;Node6</title>
<path fill="none" stroke="midnightblue" d="M336.123,-77.7282C351.543,-75.8107 367.303,-73.8509 381.806,-72.0474"/>
<polygon fill="midnightblue" stroke="midnightblue" points="335.548,-74.2727 326.056,-78.9801 336.411,-81.2192 335.548,-74.2727"/>
</g>
<!-- Node7 -->
<g id="node7" class="node"><title>Node7</title>
<g id="a_node7"><a xlink:href="namespacemom__dynamics__unsplit__rk2.html#ae10d75d92c1ec7783df7e5d8965b86a0" target="_top" xlink:title="mom_dynamics_unsplit\l_rk2::step_mom_dyn_unsplit_rk2">
<polygon fill="white" stroke="black" points="363,-0.5 363,-30.5 524,-30.5 524,-0.5 363,-0.5"/>
<text text-anchor="start" x="371" y="-18.5" font-family="Helvetica,sans-Serif" font-size="10.00">mom_dynamics_unsplit</text>
<text text-anchor="middle" x="443.5" y="-7.5" font-family="Helvetica,sans-Serif" font-size="10.00">_rk2::step_mom_dyn_unsplit_rk2</text>
</a>
</g>
</g>
<!-- Node3&#45;&gt;Node7 -->
<g id="edge6" class="edge"><title>Node3&#45;&gt;Node7</title>
<path fill="none" stroke="midnightblue" d="M280.019,-74.6572C302.689,-64.6048 334.489,-50.9845 363,-40.5 372.37,-37.0544 382.464,-33.65 392.212,-30.515"/>
<polygon fill="midnightblue" stroke="midnightblue" points="278.3,-71.5916 270.595,-78.8637 281.153,-77.9837 278.3,-71.5916"/>
</g>
</g>
</svg>
