<?xml version="1.0" encoding="UTF-8" standalone="no"?>
<!DOCTYPE svg PUBLIC "-//W3C//DTD SVG 1.1//EN"
 "http://www.w3.org/Graphics/SVG/1.1/DTD/svg11.dtd">
<!-- Generated by graphviz version 2.38.0 (20140413.2041)
 -->
<!-- Title: mom_file_parser::closeparameterblock Pages: 1 -->
<svg width="1089pt" height="183pt"
 viewBox="0.00 0.00 1089.00 182.85" xmlns="http://www.w3.org/2000/svg" xmlns:xlink="http://www.w3.org/1999/xlink">
<g id="graph0" class="graph" transform="scale(1 1) rotate(0) translate(4 178.853)">
<title>mom_file_parser::closeparameterblock</title>
<polygon fill="white" stroke="none" points="-4,4 -4,-178.853 1085,-178.853 1085,4 -4,4"/>
<!-- Node17 -->
<g id="node1" class="node"><title>Node17</title>
<polygon fill="#bfbfbf" stroke="black" points="0,-38.5 0,-57.5 185,-57.5 185,-38.5 0,-38.5"/>
<text text-anchor="middle" x="92.5" y="-45.5" font-family="Helvetica,sans-Serif" font-size="10.00">mom_file_parser::closeparameterblock</text>
</g>
<!-- Node18 -->
<g id="node2" class="node"><title>Node18</title>
<g id="a_node2"><a xlink:href="namespacemom__document.html#a058916aee316efa7a6484b3bb1d3f3df" target="_top" xlink:title="mom_document::doc_closeblock">
<polygon fill="white" stroke="black" points="221,-98.5 221,-117.5 381,-117.5 381,-98.5 221,-98.5"/>
<text text-anchor="middle" x="301" y="-105.5" font-family="Helvetica,sans-Serif" font-size="10.00">mom_document::doc_closeblock</text>
</a>
</g>
</g>
<!-- Node17&#45;&gt;Node18 -->
<g id="edge1" class="edge"><title>Node17&#45;&gt;Node18</title>
<path fill="none" stroke="midnightblue" d="M126.221,-57.5072C161.611,-67.7901 218.178,-84.226 257.106,-95.5367"/>
<polygon fill="midnightblue" stroke="midnightblue" points="256.512,-99.0089 267.091,-98.4382 258.465,-92.2869 256.512,-99.0089"/>
</g>
<!-- Node19 -->
<g id="node3" class="node"><title>Node19</title>
<g id="a_node3"><a xlink:href="namespacemom__error__handler.html#ad5f00a53059c72fe2332d1436c80ca71" target="_top" xlink:title="mom_error_handler::\lis_root_pe">
<polygon fill="white" stroke="black" points="975,-55 975,-85 1081,-85 1081,-55 975,-55"/>
<text text-anchor="start" x="983" y="-73" font-family="Helvetica,sans-Serif" font-size="10.00">mom_error_handler::</text>
<text text-anchor="middle" x="1028" y="-62" font-family="Helvetica,sans-Serif" font-size="10.00">is_root_pe</text>
</a>
</g>
</g>
<!-- Node17&#45;&gt;Node19 -->
<g id="edge9" class="edge"><title>Node17&#45;&gt;Node19</title>
<path fill="none" stroke="midnightblue" d="M185.127,-48C269.715,-48 398.833,-48 511,-48 511,-48 511,-48 721,-48 805.636,-48 903.1,-56.4764 964.859,-62.9063"/>
<polygon fill="midnightblue" stroke="midnightblue" points="964.52,-66.3899 974.833,-63.9593 965.255,-59.4286 964.52,-66.3899"/>
</g>
<!-- Node24 -->
<g id="node8" class="node"><title>Node24</title>
<g id="a_node8"><a xlink:href="namespacemom__file__parser.html#a73b11b969d303b1fc0ba5235c812fd05" target="_top" xlink:title="mom_file_parser::popblocklevel">
<polygon fill="white" stroke="black" points="643,-0.5 643,-19.5 797,-19.5 797,-0.5 643,-0.5"/>
<text text-anchor="middle" x="720" y="-7.5" font-family="Helvetica,sans-Serif" font-size="10.00">mom_file_parser::popblocklevel</text>
</a>
</g>
</g>
<!-- Node17&#45;&gt;Node24 -->
<g id="edge10" class="edge"><title>Node17&#45;&gt;Node24</title>
<path fill="none" stroke="midnightblue" d="M173.345,-38.4741C189.123,-36.8061 205.571,-35.2177 221,-34 365.18,-22.6208 533.298,-15.8717 632.686,-12.5563"/>
<polygon fill="midnightblue" stroke="midnightblue" points="633.096,-16.0447 642.976,-12.2171 632.866,-9.04853 633.096,-16.0447"/>
</g>
<!-- Node18&#45;&gt;Node19 -->
<g id="edge2" class="edge"><title>Node18&#45;&gt;Node19</title>
<path fill="none" stroke="midnightblue" d="M319.674,-117.546C341.712,-128.858 380.893,-147.046 417,-154 582.842,-185.938 629.552,-176.018 797,-154 861.774,-145.483 878.127,-139.721 939,-116 957.396,-108.832 976.944,-98.8711 992.932,-90.0511"/>
<polygon fill="midnightblue" stroke="midnightblue" points="994.89,-92.9655 1001.9,-85.0195 991.464,-86.861 994.89,-92.9655"/>
</g>
<!-- Node20 -->
<g id="node4" class="node"><title>Node20</title>
<g id="a_node4"><a xlink:href="namespacemom__document.html#aab976b6c6c9c01833438d217fca228a4" target="_top" xlink:title="mom_document::open\l_doc_file">
<polygon fill="white" stroke="black" points="455.5,-115 455.5,-145 568.5,-145 568.5,-115 455.5,-115"/>
<text text-anchor="start" x="463.5" y="-133" font-family="Helvetica,sans-Serif" font-size="10.00">mom_document::open</text>
<text text-anchor="middle" x="512" y="-122" font-family="Helvetica,sans-Serif" font-size="10.00">_doc_file</text>
</a>
</g>
</g>
<!-- Node18&#45;&gt;Node20 -->
<g id="edge3" class="edge"><title>Node18&#45;&gt;Node20</title>
<path fill="none" stroke="midnightblue" d="M381.014,-116.317C402.176,-118.545 424.823,-120.929 445.188,-123.072"/>
<polygon fill="midnightblue" stroke="midnightblue" points="444.985,-126.57 455.296,-124.136 445.718,-119.609 444.985,-126.57"/>
</g>
<!-- Node23 -->
<g id="node7" class="node"><title>Node23</title>
<g id="a_node7"><a xlink:href="namespacemom__document.html#a22d84550b1affd1037328c5117496a65" target="_top" xlink:title="mom_document::writemessageanddesc">
<polygon fill="white" stroke="black" points="417,-76.5 417,-95.5 607,-95.5 607,-76.5 417,-76.5"/>
<text text-anchor="middle" x="512" y="-83.5" font-family="Helvetica,sans-Serif" font-size="10.00">mom_document::writemessageanddesc</text>
</a>
</g>
</g>
<!-- Node18&#45;&gt;Node23 -->
<g id="edge8" class="edge"><title>Node18&#45;&gt;Node23</title>
<path fill="none" stroke="midnightblue" d="M381.014,-99.6827C390.623,-98.6713 400.538,-97.6276 410.407,-96.5888"/>
<polygon fill="midnightblue" stroke="midnightblue" points="411.08,-100.037 420.659,-95.5096 410.348,-93.0757 411.08,-100.037"/>
</g>
<!-- Node21 -->
<g id="node5" class="node"><title>Node21</title>
<g id="a_node5"><a xlink:href="namespacemom__document.html#a5f2661445a72a7d0f774677e91366db5" target="_top" xlink:title="mom_document::find\l_unused_unit_number">
<polygon fill="white" stroke="black" points="664,-115 664,-145 776,-145 776,-115 664,-115"/>
<text text-anchor="start" x="672" y="-133" font-family="Helvetica,sans-Serif" font-size="10.00">mom_document::find</text>
<text text-anchor="middle" x="720" y="-122" font-family="Helvetica,sans-Serif" font-size="10.00">_unused_unit_number</text>
</a>
</g>
</g>
<!-- Node20&#45;&gt;Node21 -->
<g id="edge4" class="edge"><title>Node20&#45;&gt;Node21</title>
<path fill="none" stroke="midnightblue" d="M568.747,-130C594.95,-130 626.362,-130 653.675,-130"/>
<polygon fill="midnightblue" stroke="midnightblue" points="653.923,-133.5 663.923,-130 653.923,-126.5 653.923,-133.5"/>
</g>
<!-- Node22 -->
<g id="node6" class="node"><title>Node22</title>
<g id="a_node6"><a xlink:href="namespacemom__error__handler.html#a460cfb79a06c29fc249952c2a3710d67" target="_top" xlink:title="mom_error_handler::\lmom_error">
<polygon fill="white" stroke="black" points="833,-77 833,-107 939,-107 939,-77 833,-77"/>
<text text-anchor="start" x="841" y="-95" font-family="Helvetica,sans-Serif" font-size="10.00">mom_error_handler::</text>
<text text-anchor="middle" x="886" y="-84" font-family="Helvetica,sans-Serif" font-size="10.00">mom_error</text>
</a>
</g>
</g>
<!-- Node20&#45;&gt;Node22 -->
<g id="edge7" class="edge"><title>Node20&#45;&gt;Node22</title>
<path fill="none" stroke="midnightblue" d="M568.726,-117.554C591.625,-112.892 618.476,-108.003 643,-105 703.823,-97.5531 773.766,-94.3719 822.766,-93.013"/>
<polygon fill="midnightblue" stroke="midnightblue" points="822.987,-96.5085 832.893,-92.7498 822.805,-89.5109 822.987,-96.5085"/>
</g>
<!-- Node21&#45;&gt;Node22 -->
<g id="edge5" class="edge"><title>Node21&#45;&gt;Node22</title>
<path fill="none" stroke="midnightblue" d="M776.066,-117.241C791.104,-113.756 807.501,-109.957 822.901,-106.389"/>
<polygon fill="midnightblue" stroke="midnightblue" points="823.901,-109.75 832.853,-104.083 822.321,-102.93 823.901,-109.75"/>
</g>
<!-- Node22&#45;&gt;Node19 -->
<g id="edge6" class="edge"><title>Node22&#45;&gt;Node19</title>
<path fill="none" stroke="midnightblue" d="M939.131,-83.808C947.512,-82.4909 956.26,-81.1162 964.849,-79.7667"/>
<polygon fill="midnightblue" stroke="midnightblue" points="965.49,-83.2089 974.826,-78.1988 964.403,-76.2937 965.49,-83.2089"/>
</g>
<!-- Node24&#45;&gt;Node19 -->
<g id="edge11" class="edge"><title>Node24&#45;&gt;Node19</title>
<path fill="none" stroke="midnightblue" d="M797.089,-13.1717C839.392,-16.2269 892.688,-22.2248 939,-34 955.141,-38.1041 972.229,-44.5654 987.01,-50.8882"/>
<polygon fill="midnightblue" stroke="midnightblue" points="985.794,-54.1768 996.357,-54.9971 988.611,-47.7686 985.794,-54.1768"/>
</g>
</g>
</svg>
