<?xml version="1.0" encoding="UTF-8" standalone="no"?>
<!DOCTYPE svg PUBLIC "-//W3C//DTD SVG 1.1//EN"
 "http://www.w3.org/Graphics/SVG/1.1/DTD/svg11.dtd">
<!-- Generated by graphviz version 2.38.0 (20140413.2041)
 -->
<!-- Title: mom_shared_initialization::reset_face_lengths_list Pages: 1 -->
<svg width="451pt" height="154pt"
 viewBox="0.00 0.00 451.00 153.92" xmlns="http://www.w3.org/2000/svg" xmlns:xlink="http://www.w3.org/1999/xlink">
<g id="graph0" class="graph" transform="scale(1 1) rotate(0) translate(4 149.923)">
<title>mom_shared_initialization::reset_face_lengths_list</title>
<polygon fill="white" stroke="none" points="-4,4 -4,-149.923 447,-149.923 447,4 -4,4"/>
<!-- Node51 -->
<g id="node1" class="node"><title>Node51</title>
<polygon fill="#bfbfbf" stroke="black" points="0,-41.4227 0,-71.4227 129,-71.4227 129,-41.4227 0,-41.4227"/>
<text text-anchor="start" x="8" y="-59.4227" font-family="Helvetica,sans-Serif" font-size="10.00">mom_shared_initialization</text>
<text text-anchor="middle" x="64.5" y="-48.4227" font-family="Helvetica,sans-Serif" font-size="10.00">::reset_face_lengths_list</text>
</g>
<!-- Node52 -->
<g id="node2" class="node"><title>Node52</title>
<g id="a_node2"><a xlink:href="namespacemom__error__handler.html#a9cda07a87815f0e5594066162b4345c3" target="_top" xlink:title="Writes a message about entering a subroutine if call tree reporting is active. ">
<polygon fill="white" stroke="black" points="176.5,-115.423 176.5,-145.423 282.5,-145.423 282.5,-115.423 176.5,-115.423"/>
<text text-anchor="start" x="184.5" y="-133.423" font-family="Helvetica,sans-Serif" font-size="10.00">mom_error_handler::</text>
<text text-anchor="middle" x="229.5" y="-122.423" font-family="Helvetica,sans-Serif" font-size="10.00">calltree_enter</text>
</a>
</g>
</g>
<!-- Node51&#45;&gt;Node52 -->
<g id="edge1" class="edge"><title>Node51&#45;&gt;Node52</title>
<path fill="none" stroke="midnightblue" d="M93.4328,-71.4416C113.173,-81.812 140.392,-95.6248 165,-106.423 169.055,-108.202 173.289,-109.977 177.56,-111.709"/>
<polygon fill="midnightblue" stroke="midnightblue" points="176.331,-114.987 186.917,-115.419 178.911,-108.479 176.331,-114.987"/>
</g>
<!-- Node54 -->
<g id="node4" class="node"><title>Node54</title>
<g id="a_node4"><a xlink:href="namespacemom__error__handler.html#a88ea67781e2ed9b73ab7eac8ea5e8578" target="_top" xlink:title="Writes a message about leaving a subroutine if call tree reporting is active. ">
<polygon fill="white" stroke="black" points="176.5,-66.4227 176.5,-96.4227 282.5,-96.4227 282.5,-66.4227 176.5,-66.4227"/>
<text text-anchor="start" x="184.5" y="-84.4227" font-family="Helvetica,sans-Serif" font-size="10.00">mom_error_handler::</text>
<text text-anchor="middle" x="229.5" y="-73.4227" font-family="Helvetica,sans-Serif" font-size="10.00">calltree_leave</text>
</a>
</g>
</g>
<!-- Node51&#45;&gt;Node54 -->
<g id="edge3" class="edge"><title>Node51&#45;&gt;Node54</title>
<path fill="none" stroke="midnightblue" d="M129.454,-66.2316C141.578,-68.0912 154.247,-70.0342 166.315,-71.8852"/>
<polygon fill="midnightblue" stroke="midnightblue" points="165.871,-75.358 176.287,-73.4145 166.933,-68.4389 165.871,-75.358"/>
</g>
<!-- Node55 -->
<g id="node5" class="node"><title>Node55</title>
<g id="a_node5"><a xlink:href="namespacemom__shared__initialization.html#a49c0443c10514a0d5ce5d8df4d68bce8" target="_top" xlink:title="mom_shared_initialization\l::read_face_length_list">
<polygon fill="white" stroke="black" points="165,-17.4227 165,-47.4227 294,-47.4227 294,-17.4227 165,-17.4227"/>
<text text-anchor="start" x="173" y="-35.4227" font-family="Helvetica,sans-Serif" font-size="10.00">mom_shared_initialization</text>
<text text-anchor="middle" x="229.5" y="-24.4227" font-family="Helvetica,sans-Serif" font-size="10.00">::read_face_length_list</text>
</a>
</g>
</g>
<!-- Node51&#45;&gt;Node55 -->
<g id="edge5" class="edge"><title>Node51&#45;&gt;Node55</title>
<path fill="none" stroke="midnightblue" d="M129.454,-47.0062C137.852,-45.7697 146.511,-44.4948 155.05,-43.2374"/>
<polygon fill="midnightblue" stroke="midnightblue" points="155.614,-46.6922 164.998,-41.7728 154.594,-39.7669 155.614,-46.6922"/>
</g>
<!-- Node56 -->
<g id="node6" class="node"><title>Node56</title>
<g id="a_node6"><a xlink:href="namespacemom__string__functions.html#aca148baf726de2f028b7e7baad3c85d4" target="_top" xlink:title="mom_string_functions\l::uppercase">
<polygon fill="white" stroke="black" points="330,-6.42272 330,-36.4227 443,-36.4227 443,-6.42272 330,-6.42272"/>
<text text-anchor="start" x="338" y="-24.4227" font-family="Helvetica,sans-Serif" font-size="10.00">mom_string_functions</text>
<text text-anchor="middle" x="386.5" y="-13.4227" font-family="Helvetica,sans-Serif" font-size="10.00">::uppercase</text>
</a>
</g>
</g>
<!-- Node51&#45;&gt;Node56 -->
<g id="edge7" class="edge"><title>Node51&#45;&gt;Node56</title>
<path fill="none" stroke="midnightblue" d="M88.472,-41.3083C107.935,-29.4616 137.057,-13.93 165,-7.42272 216.122,4.48243 275.594,-0.340023 319.882,-7.40875"/>
<polygon fill="midnightblue" stroke="midnightblue" points="319.503,-10.894 329.944,-9.09464 320.66,-3.9902 319.503,-10.894"/>
</g>
<!-- Node53 -->
<g id="node3" class="node"><title>Node53</title>
<g id="a_node3"><a xlink:href="namespacemom__error__handler.html#ad5f00a53059c72fe2332d1436c80ca71" target="_top" xlink:title="mom_error_handler::\lis_root_pe">
<polygon fill="white" stroke="black" points="333.5,-77.4227 333.5,-107.423 439.5,-107.423 439.5,-77.4227 333.5,-77.4227"/>
<text text-anchor="start" x="341.5" y="-95.4227" font-family="Helvetica,sans-Serif" font-size="10.00">mom_error_handler::</text>
<text text-anchor="middle" x="386.5" y="-84.4227" font-family="Helvetica,sans-Serif" font-size="10.00">is_root_pe</text>
</a>
</g>
</g>
<!-- Node52&#45;&gt;Node53 -->
<g id="edge2" class="edge"><title>Node52&#45;&gt;Node53</title>
<path fill="none" stroke="midnightblue" d="M282.544,-117.664C295.707,-114.436 309.973,-110.939 323.571,-107.605"/>
<polygon fill="midnightblue" stroke="midnightblue" points="324.451,-110.993 333.33,-105.213 322.784,-104.195 324.451,-110.993"/>
</g>
<!-- Node54&#45;&gt;Node53 -->
<g id="edge4" class="edge"><title>Node54&#45;&gt;Node53</title>
<path fill="none" stroke="midnightblue" d="M282.544,-85.1162C295.579,-86.0413 309.696,-87.0431 323.175,-87.9996"/>
<polygon fill="midnightblue" stroke="midnightblue" points="323.107,-91.5035 333.33,-88.7203 323.602,-84.5211 323.107,-91.5035"/>
</g>
<!-- Node55&#45;&gt;Node56 -->
<g id="edge6" class="edge"><title>Node55&#45;&gt;Node56</title>
<path fill="none" stroke="midnightblue" d="M294.439,-27.8851C302.739,-27.2961 311.254,-26.6918 319.585,-26.1005"/>
<polygon fill="midnightblue" stroke="midnightblue" points="319.903,-29.5869 329.63,-25.3877 319.408,-22.6044 319.903,-29.5869"/>
</g>
</g>
</svg>
