<?xml version="1.0" encoding="UTF-8" standalone="no"?>
<!DOCTYPE svg PUBLIC "-//W3C//DTD SVG 1.1//EN"
 "http://www.w3.org/Graphics/SVG/1.1/DTD/svg11.dtd">
<!-- Generated by graphviz version 2.38.0 (20140413.2041)
 -->
<!-- Title: mom_document::doc_param_logical_array Pages: 1 -->
<svg width="900pt" height="204pt"
 viewBox="0.00 0.00 900.00 203.50" xmlns="http://www.w3.org/2000/svg" xmlns:xlink="http://www.w3.org/1999/xlink">
<g id="graph0" class="graph" transform="scale(1 1) rotate(0) translate(4 199.5)">
<title>mom_document::doc_param_logical_array</title>
<polygon fill="white" stroke="none" points="-4,4 -4,-199.5 896,-199.5 896,4 -4,4"/>
<!-- Node95 -->
<g id="node1" class="node"><title>Node95</title>
<polygon fill="#bfbfbf" stroke="black" points="0,-83 0,-113 140,-113 140,-83 0,-83"/>
<text text-anchor="start" x="8" y="-101" font-family="Helvetica,sans-Serif" font-size="10.00">mom_document::doc_param</text>
<text text-anchor="middle" x="70" y="-90" font-family="Helvetica,sans-Serif" font-size="10.00">_logical_array</text>
</g>
<!-- Node96 -->
<g id="node2" class="node"><title>Node96</title>
<g id="a_node2"><a xlink:href="namespacemom__document.html#aadc9c21a3f71a85107454b8080d6ec5c" target="_top" xlink:title="mom_document::define\l_string">
<polygon fill="white" stroke="black" points="211.5,-165 211.5,-195 330.5,-195 330.5,-165 211.5,-165"/>
<text text-anchor="start" x="219.5" y="-183" font-family="Helvetica,sans-Serif" font-size="10.00">mom_document::define</text>
<text text-anchor="middle" x="271" y="-172" font-family="Helvetica,sans-Serif" font-size="10.00">_string</text>
</a>
</g>
</g>
<!-- Node95&#45;&gt;Node96 -->
<g id="edge1" class="edge"><title>Node95&#45;&gt;Node96</title>
<path fill="none" stroke="midnightblue" d="M98.5512,-113.075C119.431,-124.145 149.033,-139.092 176,-150 186.213,-154.131 197.227,-158.08 207.995,-161.678"/>
<polygon fill="midnightblue" stroke="midnightblue" points="207.193,-165.097 217.785,-164.878 209.368,-158.444 207.193,-165.097"/>
</g>
<!-- Node97 -->
<g id="node3" class="node"><title>Node97</title>
<g id="a_node3"><a xlink:href="namespacemom__error__handler.html#ad5f00a53059c72fe2332d1436c80ca71" target="_top" xlink:title="mom_error_handler::\lis_root_pe">
<polygon fill="white" stroke="black" points="786,-99 786,-129 892,-129 892,-99 786,-99"/>
<text text-anchor="start" x="794" y="-117" font-family="Helvetica,sans-Serif" font-size="10.00">mom_error_handler::</text>
<text text-anchor="middle" x="839" y="-106" font-family="Helvetica,sans-Serif" font-size="10.00">is_root_pe</text>
</a>
</g>
</g>
<!-- Node95&#45;&gt;Node97 -->
<g id="edge2" class="edge"><title>Node95&#45;&gt;Node97</title>
<path fill="none" stroke="midnightblue" d="M140.074,-108.313C152.03,-109.782 164.357,-111.098 176,-112 395.958,-129.045 658.26,-121.653 775.734,-116.887"/>
<polygon fill="midnightblue" stroke="midnightblue" points="776.123,-120.374 785.97,-116.464 775.834,-113.38 776.123,-120.374"/>
</g>
<!-- Node98 -->
<g id="node4" class="node"><title>Node98</title>
<g id="a_node4"><a xlink:href="namespacemom__document.html#aa23ed2e58e74e88a71de374685ee11ec" target="_top" xlink:title="mom_document::mesghasbeendocumented">
<polygon fill="white" stroke="black" points="402,-88.5 402,-107.5 608,-107.5 608,-88.5 402,-88.5"/>
<text text-anchor="middle" x="505" y="-95.5" font-family="Helvetica,sans-Serif" font-size="10.00">mom_document::mesghasbeendocumented</text>
</a>
</g>
</g>
<!-- Node95&#45;&gt;Node98 -->
<g id="edge3" class="edge"><title>Node95&#45;&gt;Node98</title>
<path fill="none" stroke="midnightblue" d="M140.089,-98C207.75,-98 311.993,-98 391.596,-98"/>
<polygon fill="midnightblue" stroke="midnightblue" points="391.67,-101.5 401.669,-98 391.669,-94.5001 391.67,-101.5"/>
</g>
<!-- Node100 -->
<g id="node6" class="node"><title>Node100</title>
<g id="a_node6"><a xlink:href="namespacemom__document.html#aab976b6c6c9c01833438d217fca228a4" target="_top" xlink:title="mom_document::open\l_doc_file">
<polygon fill="white" stroke="black" points="214.5,-39 214.5,-69 327.5,-69 327.5,-39 214.5,-39"/>
<text text-anchor="start" x="222.5" y="-57" font-family="Helvetica,sans-Serif" font-size="10.00">mom_document::open</text>
<text text-anchor="middle" x="271" y="-46" font-family="Helvetica,sans-Serif" font-size="10.00">_doc_file</text>
</a>
</g>
</g>
<!-- Node95&#45;&gt;Node100 -->
<g id="edge6" class="edge"><title>Node95&#45;&gt;Node100</title>
<path fill="none" stroke="midnightblue" d="M138.928,-82.9808C160.118,-78.2956 183.439,-73.1391 204.462,-68.4909"/>
<polygon fill="midnightblue" stroke="midnightblue" points="205.251,-71.901 214.259,-66.3246 203.74,-65.0661 205.251,-71.901"/>
</g>
<!-- Node102 -->
<g id="node8" class="node"><title>Node102</title>
<g id="a_node8"><a xlink:href="namespacemom__document.html#a22d84550b1affd1037328c5117496a65" target="_top" xlink:title="mom_document::writemessageanddesc">
<polygon fill="white" stroke="black" points="176,-0.5 176,-19.5 366,-19.5 366,-0.5 176,-0.5"/>
<text text-anchor="middle" x="271" y="-7.5" font-family="Helvetica,sans-Serif" font-size="10.00">mom_document::writemessageanddesc</text>
</a>
</g>
</g>
<!-- Node95&#45;&gt;Node102 -->
<g id="edge10" class="edge"><title>Node95&#45;&gt;Node102</title>
<path fill="none" stroke="midnightblue" d="M89.1181,-82.9457C109.131,-67.1028 142.919,-42.6141 176,-29 182.31,-26.4031 189.009,-24.1508 195.811,-22.1992"/>
<polygon fill="midnightblue" stroke="midnightblue" points="197.045,-25.4931 205.816,-19.55 195.253,-18.7263 197.045,-25.4931"/>
</g>
<!-- Node99 -->
<g id="node5" class="node"><title>Node99</title>
<g id="a_node5"><a xlink:href="namespacemom__error__handler.html#a460cfb79a06c29fc249952c2a3710d67" target="_top" xlink:title="mom_error_handler::\lmom_error">
<polygon fill="white" stroke="black" points="644,-61 644,-91 750,-91 750,-61 644,-61"/>
<text text-anchor="start" x="652" y="-79" font-family="Helvetica,sans-Serif" font-size="10.00">mom_error_handler::</text>
<text text-anchor="middle" x="697" y="-68" font-family="Helvetica,sans-Serif" font-size="10.00">mom_error</text>
</a>
</g>
</g>
<!-- Node98&#45;&gt;Node99 -->
<g id="edge4" class="edge"><title>Node98&#45;&gt;Node99</title>
<path fill="none" stroke="midnightblue" d="M588.232,-88.4784C603.404,-86.7216 619.019,-84.9136 633.49,-83.238"/>
<polygon fill="midnightblue" stroke="midnightblue" points="634.272,-86.6709 643.803,-82.0439 633.467,-79.7174 634.272,-86.6709"/>
</g>
<!-- Node99&#45;&gt;Node97 -->
<g id="edge5" class="edge"><title>Node99&#45;&gt;Node97</title>
<path fill="none" stroke="midnightblue" d="M750.131,-90.1498C758.604,-92.4495 767.451,-94.8509 776.129,-97.2063"/>
<polygon fill="midnightblue" stroke="midnightblue" points="775.258,-100.597 785.826,-99.8384 777.092,-93.841 775.258,-100.597"/>
</g>
<!-- Node100&#45;&gt;Node99 -->
<g id="edge9" class="edge"><title>Node100&#45;&gt;Node99</title>
<path fill="none" stroke="midnightblue" d="M327.867,-56.8987C406.982,-61.0038 551.196,-68.4866 633.685,-72.7667"/>
<polygon fill="midnightblue" stroke="midnightblue" points="633.507,-76.2621 643.675,-73.285 633.87,-69.2715 633.507,-76.2621"/>
</g>
<!-- Node101 -->
<g id="node7" class="node"><title>Node101</title>
<g id="a_node7"><a xlink:href="namespacemom__document.html#a5f2661445a72a7d0f774677e91366db5" target="_top" xlink:title="mom_document::find\l_unused_unit_number">
<polygon fill="white" stroke="black" points="449,-1 449,-31 561,-31 561,-1 449,-1"/>
<text text-anchor="start" x="457" y="-19" font-family="Helvetica,sans-Serif" font-size="10.00">mom_document::find</text>
<text text-anchor="middle" x="505" y="-8" font-family="Helvetica,sans-Serif" font-size="10.00">_unused_unit_number</text>
</a>
</g>
</g>
<!-- Node100&#45;&gt;Node101 -->
<g id="edge7" class="edge"><title>Node100&#45;&gt;Node101</title>
<path fill="none" stroke="midnightblue" d="M327.57,-44.8981C361,-39.4224 403.721,-32.425 438.751,-26.6873"/>
<polygon fill="midnightblue" stroke="midnightblue" points="439.581,-30.0981 448.884,-25.0277 438.449,-23.1902 439.581,-30.0981"/>
</g>
<!-- Node101&#45;&gt;Node99 -->
<g id="edge8" class="edge"><title>Node101&#45;&gt;Node99</title>
<path fill="none" stroke="midnightblue" d="M558.807,-31.0676C574.666,-35.7174 592.078,-40.947 608,-46 619.539,-49.6619 631.87,-53.7531 643.538,-57.7077"/>
<polygon fill="midnightblue" stroke="midnightblue" points="642.557,-61.0711 653.152,-60.985 644.816,-54.4455 642.557,-61.0711"/>
</g>
</g>
</svg>
