<?xml version="1.0" encoding="UTF-8" standalone="no"?>
<!DOCTYPE svg PUBLIC "-//W3C//DTD SVG 1.1//EN"
 "http://www.w3.org/Graphics/SVG/1.1/DTD/svg11.dtd">
<!-- Generated by graphviz version 2.38.0 (20140413.2041)
 -->
<!-- Title: mom_ice_shelf::ice_shelf_solve_outer Pages: 1 -->
<svg width="370pt" height="186pt"
 viewBox="0.00 0.00 370.00 186.00" xmlns="http://www.w3.org/2000/svg" xmlns:xlink="http://www.w3.org/1999/xlink">
<g id="graph0" class="graph" transform="scale(1 1) rotate(0) translate(4 182)">
<title>mom_ice_shelf::ice_shelf_solve_outer</title>
<polygon fill="white" stroke="none" points="-4,4 -4,-182 366,-182 366,4 -4,4"/>
<!-- Node212 -->
<g id="node1" class="node"><title>Node212</title>
<polygon fill="#bfbfbf" stroke="black" points="0,-73.5 0,-103.5 101,-103.5 101,-73.5 0,-73.5"/>
<text text-anchor="start" x="8" y="-91.5" font-family="Helvetica,sans-Serif" font-size="10.00">mom_ice_shelf::ice</text>
<text text-anchor="middle" x="50.5" y="-80.5" font-family="Helvetica,sans-Serif" font-size="10.00">_shelf_solve_outer</text>
</g>
<!-- Node213 -->
<g id="node2" class="node"><title>Node213</title>
<g id="a_node2"><a xlink:href="namespacemom__ice__shelf.html#ae7611e3515ecf0eae0c5d6d17330fd6f" target="_top" xlink:title="mom_ice_shelf::initialize\l_diagnostic_fields">
<polygon fill="white" stroke="black" points="137,-147.5 137,-177.5 261,-177.5 261,-147.5 137,-147.5"/>
<text text-anchor="start" x="145" y="-165.5" font-family="Helvetica,sans-Serif" font-size="10.00">mom_ice_shelf::initialize</text>
<text text-anchor="middle" x="199" y="-154.5" font-family="Helvetica,sans-Serif" font-size="10.00">_diagnostic_fields</text>
</a>
</g>
</g>
<!-- Node212&#45;&gt;Node213 -->
<g id="edge1" class="edge"><title>Node212&#45;&gt;Node213</title>
<path fill="none" stroke="midnightblue" d="M83.7275,-108.935C99.4769,-118.508 118.897,-129.71 137,-138.5 143.45,-141.631 150.419,-144.675 157.262,-147.485"/>
<polygon fill="midnightblue" stroke="midnightblue" points="85.2683,-105.774 74.9164,-103.518 81.602,-111.737 85.2683,-105.774"/>
</g>
<!-- Node214 -->
<g id="node3" class="node"><title>Node214</title>
<g id="a_node3"><a xlink:href="namespacemom__ice__shelf.html#ae315e8464ef8a20062e3bccb61886755" target="_top" xlink:title="Initializes shelf model data, parameters and diagnostics. ">
<polygon fill="white" stroke="black" points="137,-98.5 137,-128.5 261,-128.5 261,-98.5 137,-98.5"/>
<text text-anchor="start" x="145" y="-116.5" font-family="Helvetica,sans-Serif" font-size="10.00">mom_ice_shelf::initialize</text>
<text text-anchor="middle" x="199" y="-105.5" font-family="Helvetica,sans-Serif" font-size="10.00">_ice_shelf</text>
</a>
</g>
</g>
<!-- Node212&#45;&gt;Node214 -->
<g id="edge2" class="edge"><title>Node212&#45;&gt;Node214</title>
<path fill="none" stroke="midnightblue" d="M111.217,-98.6907C119.64,-100.128 128.309,-101.607 136.759,-103.049"/>
<polygon fill="midnightblue" stroke="midnightblue" points="111.545,-95.196 101.098,-96.9639 110.367,-102.096 111.545,-95.196"/>
</g>
<!-- Node216 -->
<g id="node5" class="node"><title>Node216</title>
<g id="a_node5"><a xlink:href="namespacemom__ice__shelf.html#a3b0e0cc9f36c5197236cc05867b780df" target="_top" xlink:title="Calculates fluxes between the ocean and ice&#45;shelf using the three&#45;equations formulation (optional to ...">
<polygon fill="white" stroke="black" points="144,-49.5 144,-79.5 254,-79.5 254,-49.5 144,-49.5"/>
<text text-anchor="start" x="152" y="-67.5" font-family="Helvetica,sans-Serif" font-size="10.00">mom_ice_shelf::shelf</text>
<text text-anchor="middle" x="199" y="-56.5" font-family="Helvetica,sans-Serif" font-size="10.00">_calc_flux</text>
</a>
</g>
</g>
<!-- Node212&#45;&gt;Node216 -->
<g id="edge4" class="edge"><title>Node212&#45;&gt;Node216</title>
<path fill="none" stroke="midnightblue" d="M111.298,-78.7038C122.099,-76.9343 133.304,-75.0986 143.93,-73.3579"/>
<polygon fill="midnightblue" stroke="midnightblue" points="110.401,-75.304 101.098,-80.3747 111.533,-82.2119 110.401,-75.304"/>
</g>
<!-- Node217 -->
<g id="node6" class="node"><title>Node217</title>
<g id="a_node6"><a xlink:href="namespacemom__ice__shelf.html#ac084bdc5be4e708e3263488e9574a3c9" target="_top" xlink:title="mom_ice_shelf::solo\l_time_step">
<polygon fill="white" stroke="black" points="145.5,-0.5 145.5,-30.5 252.5,-30.5 252.5,-0.5 145.5,-0.5"/>
<text text-anchor="start" x="153.5" y="-18.5" font-family="Helvetica,sans-Serif" font-size="10.00">mom_ice_shelf::solo</text>
<text text-anchor="middle" x="199" y="-7.5" font-family="Helvetica,sans-Serif" font-size="10.00">_time_step</text>
</a>
</g>
</g>
<!-- Node212&#45;&gt;Node217 -->
<g id="edge6" class="edge"><title>Node212&#45;&gt;Node217</title>
<path fill="none" stroke="midnightblue" d="M85.2364,-68.2998C100.765,-59.3305 119.576,-48.9224 137,-40.5 144.11,-37.0632 151.819,-33.6628 159.287,-30.529"/>
<polygon fill="midnightblue" stroke="midnightblue" points="83.3839,-65.3283 76.5075,-73.3885 86.9094,-71.3757 83.3839,-65.3283"/>
</g>
<!-- Node215 -->
<g id="node4" class="node"><title>Node215</title>
<g id="a_node4"><a xlink:href="MOM__driver_8F90.html#a08fffeb2d8e8acbf9ed4609be6d258c6" target="_top" xlink:title="mom_main">
<polygon fill="white" stroke="black" points="297,-79 297,-98 362,-98 362,-79 297,-79"/>
<text text-anchor="middle" x="329.5" y="-86" font-family="Helvetica,sans-Serif" font-size="10.00">mom_main</text>
</a>
</g>
</g>
<!-- Node214&#45;&gt;Node215 -->
<g id="edge3" class="edge"><title>Node214&#45;&gt;Node215</title>
<path fill="none" stroke="midnightblue" d="M271.31,-99.6264C280.195,-97.8979 288.897,-96.2049 296.726,-94.6818"/>
<polygon fill="midnightblue" stroke="midnightblue" points="270.387,-96.2404 261.239,-101.586 271.724,-103.112 270.387,-96.2404"/>
</g>
<!-- Node216&#45;&gt;Node215 -->
<g id="edge5" class="edge"><title>Node216&#45;&gt;Node215</title>
<path fill="none" stroke="midnightblue" d="M264.08,-76.4683C275.453,-78.5924 286.833,-80.7179 296.795,-82.5785"/>
<polygon fill="midnightblue" stroke="midnightblue" points="264.596,-73.0041 254.123,-74.6086 263.311,-79.8851 264.596,-73.0041"/>
</g>
</g>
</svg>
