<?xml version="1.0" encoding="UTF-8" standalone="no"?>
<!DOCTYPE svg PUBLIC "-//W3C//DTD SVG 1.1//EN"
 "http://www.w3.org/Graphics/SVG/1.1/DTD/svg11.dtd">
<!-- Generated by graphviz version 2.38.0 (20140413.2041)
 -->
<!-- Title: mom_eos::int_specific_vol_dp Pages: 1 -->
<svg width="421pt" height="186pt"
 viewBox="0.00 0.00 421.00 186.00" xmlns="http://www.w3.org/2000/svg" xmlns:xlink="http://www.w3.org/1999/xlink">
<g id="graph0" class="graph" transform="scale(1 1) rotate(0) translate(4 182)">
<title>mom_eos::int_specific_vol_dp</title>
<polygon fill="white" stroke="none" points="-4,4 -4,-182 417,-182 417,4 -4,4"/>
<!-- Node177 -->
<g id="node1" class="node"><title>Node177</title>
<polygon fill="#bfbfbf" stroke="black" points="0,-73.5 0,-103.5 115,-103.5 115,-73.5 0,-73.5"/>
<text text-anchor="start" x="8" y="-91.5" font-family="Helvetica,sans-Serif" font-size="10.00">mom_eos::int_specific</text>
<text text-anchor="middle" x="57.5" y="-80.5" font-family="Helvetica,sans-Serif" font-size="10.00">_vol_dp</text>
</g>
<!-- Node178 -->
<g id="node2" class="node"><title>Node178</title>
<g id="a_node2"><a xlink:href="namespacemom__eos.html#ad2e95a70c19e0b162785fb213d63ed52" target="_top" xlink:title="mom_eos::int_spec_vol\l_dp_generic">
<polygon fill="white" stroke="black" points="151,-147.5 151,-177.5 271,-177.5 271,-147.5 151,-147.5"/>
<text text-anchor="start" x="159" y="-165.5" font-family="Helvetica,sans-Serif" font-size="10.00">mom_eos::int_spec_vol</text>
<text text-anchor="middle" x="211" y="-154.5" font-family="Helvetica,sans-Serif" font-size="10.00">_dp_generic</text>
</a>
</g>
</g>
<!-- Node177&#45;&gt;Node178 -->
<g id="edge1" class="edge"><title>Node177&#45;&gt;Node178</title>
<path fill="none" stroke="midnightblue" d="M84.8199,-103.723C103.118,-114.059 128.218,-127.748 151,-138.5 154.555,-140.178 158.26,-141.852 162.005,-143.492"/>
<polygon fill="midnightblue" stroke="midnightblue" points="160.764,-146.768 171.335,-147.479 163.515,-140.331 160.764,-146.768"/>
</g>
<!-- Node179 -->
<g id="node3" class="node"><title>Node179</title>
<g id="a_node3"><a xlink:href="namespacemom__eos__linear.html#ab1bb6ff722de713745ddf80a834a82b7" target="_top" xlink:title="This subroutine calculates analytical and nearly&#45;analytical integrals in pressure across layers of ge...">
<polygon fill="white" stroke="black" points="158.5,-98.5 158.5,-128.5 263.5,-128.5 263.5,-98.5 158.5,-98.5"/>
<text text-anchor="start" x="166.5" y="-116.5" font-family="Helvetica,sans-Serif" font-size="10.00">mom_eos_linear::int</text>
<text text-anchor="middle" x="211" y="-105.5" font-family="Helvetica,sans-Serif" font-size="10.00">_spec_vol_dp_linear</text>
</a>
</g>
</g>
<!-- Node177&#45;&gt;Node179 -->
<g id="edge2" class="edge"><title>Node177&#45;&gt;Node179</title>
<path fill="none" stroke="midnightblue" d="M115.344,-97.8802C126.144,-99.6623 137.491,-101.535 148.429,-103.34"/>
<polygon fill="midnightblue" stroke="midnightblue" points="147.896,-106.799 158.332,-104.974 149.036,-99.8925 147.896,-106.799"/>
</g>
<!-- Node180 -->
<g id="node4" class="node"><title>Node180</title>
<g id="a_node4"><a xlink:href="namespacemom__eos__wright.html#aeebb566af08f2b00a35d391395e62750" target="_top" xlink:title="This subroutine calculates analytical and nearly&#45;analytical integrals in pressure across layers of ge...">
<polygon fill="white" stroke="black" points="157,-49.5 157,-79.5 265,-79.5 265,-49.5 157,-49.5"/>
<text text-anchor="start" x="165" y="-67.5" font-family="Helvetica,sans-Serif" font-size="10.00">mom_eos_wright::int</text>
<text text-anchor="middle" x="211" y="-56.5" font-family="Helvetica,sans-Serif" font-size="10.00">_spec_vol_dp_wright</text>
</a>
</g>
</g>
<!-- Node177&#45;&gt;Node180 -->
<g id="edge3" class="edge"><title>Node177&#45;&gt;Node180</title>
<path fill="none" stroke="midnightblue" d="M115.344,-79.495C125.652,-77.8621 136.458,-76.1502 146.932,-74.491"/>
<polygon fill="midnightblue" stroke="midnightblue" points="147.516,-77.9423 156.845,-72.9206 146.42,-71.0285 147.516,-77.9423"/>
</g>
<!-- Node181 -->
<g id="node5" class="node"><title>Node181</title>
<g id="a_node5"><a xlink:href="namespacemom__error__handler.html#a460cfb79a06c29fc249952c2a3710d67" target="_top" xlink:title="mom_error_handler::\lmom_error">
<polygon fill="white" stroke="black" points="158,-0.5 158,-30.5 264,-30.5 264,-0.5 158,-0.5"/>
<text text-anchor="start" x="166" y="-18.5" font-family="Helvetica,sans-Serif" font-size="10.00">mom_error_handler::</text>
<text text-anchor="middle" x="211" y="-7.5" font-family="Helvetica,sans-Serif" font-size="10.00">mom_error</text>
</a>
</g>
</g>
<!-- Node177&#45;&gt;Node181 -->
<g id="edge4" class="edge"><title>Node177&#45;&gt;Node181</title>
<path fill="none" stroke="midnightblue" d="M86.1474,-73.4353C104.384,-63.6773 128.899,-50.8975 151,-40.5 155.132,-38.5561 159.456,-36.5929 163.803,-34.6665"/>
<polygon fill="midnightblue" stroke="midnightblue" points="165.526,-37.7338 173.295,-30.5299 162.729,-31.3168 165.526,-37.7338"/>
</g>
<!-- Node182 -->
<g id="node6" class="node"><title>Node182</title>
<g id="a_node6"><a xlink:href="namespacemom__error__handler.html#ad5f00a53059c72fe2332d1436c80ca71" target="_top" xlink:title="mom_error_handler::\lis_root_pe">
<polygon fill="white" stroke="black" points="307,-0.5 307,-30.5 413,-30.5 413,-0.5 307,-0.5"/>
<text text-anchor="start" x="315" y="-18.5" font-family="Helvetica,sans-Serif" font-size="10.00">mom_error_handler::</text>
<text text-anchor="middle" x="360" y="-7.5" font-family="Helvetica,sans-Serif" font-size="10.00">is_root_pe</text>
</a>
</g>
</g>
<!-- Node181&#45;&gt;Node182 -->
<g id="edge5" class="edge"><title>Node181&#45;&gt;Node182</title>
<path fill="none" stroke="midnightblue" d="M264.241,-15.5C274.747,-15.5 285.887,-15.5 296.697,-15.5"/>
<polygon fill="midnightblue" stroke="midnightblue" points="296.928,-19.0001 306.928,-15.5 296.928,-12.0001 296.928,-19.0001"/>
</g>
</g>
</svg>
