<?xml version="1.0" encoding="UTF-8" standalone="no"?>
<!DOCTYPE svg PUBLIC "-//W3C//DTD SVG 1.1//EN"
 "http://www.w3.org/Graphics/SVG/1.1/DTD/svg11.dtd">
<!-- Generated by graphviz version 2.38.0 (20140413.2041)
 -->
<!-- Title: mom_document::int_string Pages: 1 -->
<svg width="508pt" height="127pt"
 viewBox="0.00 0.00 508.00 126.50" xmlns="http://www.w3.org/2000/svg" xmlns:xlink="http://www.w3.org/1999/xlink">
<g id="graph0" class="graph" transform="scale(1 1) rotate(0) translate(4 122.5)">
<title>mom_document::int_string</title>
<polygon fill="white" stroke="none" points="-4,4 -4,-122.5 504,-122.5 504,4 -4,4"/>
<!-- Node179 -->
<g id="node1" class="node"><title>Node179</title>
<polygon fill="#bfbfbf" stroke="black" points="0,-55 0,-74 132,-74 132,-55 0,-55"/>
<text text-anchor="middle" x="66" y="-62" font-family="Helvetica,sans-Serif" font-size="10.00">mom_document::int_string</text>
</g>
<!-- Node180 -->
<g id="node2" class="node"><title>Node180</title>
<g id="a_node2"><a xlink:href="namespacemom__document.html#a14995c64ee277f19aa10b957431aa4c1" target="_top" xlink:title="mom_document::doc_param_int">
<polygon fill="white" stroke="black" points="168,-99 168,-118 324,-118 324,-99 168,-99"/>
<text text-anchor="middle" x="246" y="-106" font-family="Helvetica,sans-Serif" font-size="10.00">mom_document::doc_param_int</text>
</a>
</g>
</g>
<!-- Node179&#45;&gt;Node180 -->
<g id="edge1" class="edge"><title>Node179&#45;&gt;Node180</title>
<path fill="none" stroke="midnightblue" d="M115.434,-76.4961C132.094,-80.6204 150.864,-85.265 168,-89.5 180.431,-92.5722 193.992,-95.9198 206.222,-98.9372"/>
<polygon fill="midnightblue" stroke="midnightblue" points="115.915,-73.0096 105.367,-74.0037 114.232,-79.8044 115.915,-73.0096"/>
</g>
<!-- Node181 -->
<g id="node3" class="node"><title>Node181</title>
<g id="a_node3"><a xlink:href="namespacemom__document.html#a3ce71018037d66ba8f51d860bedbdcbb" target="_top" xlink:title="mom_document::doc_param\l_int_array">
<polygon fill="white" stroke="black" points="176,-49.5 176,-79.5 316,-79.5 316,-49.5 176,-49.5"/>
<text text-anchor="start" x="184" y="-67.5" font-family="Helvetica,sans-Serif" font-size="10.00">mom_document::doc_param</text>
<text text-anchor="middle" x="246" y="-56.5" font-family="Helvetica,sans-Serif" font-size="10.00">_int_array</text>
</a>
</g>
</g>
<!-- Node179&#45;&gt;Node181 -->
<g id="edge2" class="edge"><title>Node179&#45;&gt;Node181</title>
<path fill="none" stroke="midnightblue" d="M142.199,-64.5C153.4,-64.5 164.9,-64.5 175.966,-64.5"/>
<polygon fill="midnightblue" stroke="midnightblue" points="142.018,-61.0001 132.018,-64.5 142.018,-68.0001 142.018,-61.0001"/>
</g>
<!-- Node182 -->
<g id="node4" class="node"><title>Node182</title>
<g id="a_node4"><a xlink:href="namespacemom__document.html#a436486f7289eafc7b4e8ba65812f3459" target="_top" xlink:title="mom_document::real\l_array_string">
<polygon fill="white" stroke="black" points="192,-0.5 192,-30.5 300,-30.5 300,-0.5 192,-0.5"/>
<text text-anchor="start" x="200" y="-18.5" font-family="Helvetica,sans-Serif" font-size="10.00">mom_document::real</text>
<text text-anchor="middle" x="246" y="-7.5" font-family="Helvetica,sans-Serif" font-size="10.00">_array_string</text>
</a>
</g>
</g>
<!-- Node179&#45;&gt;Node182 -->
<g id="edge3" class="edge"><title>Node179&#45;&gt;Node182</title>
<path fill="none" stroke="midnightblue" d="M111.44,-52.2666C135.794,-45.5623 166.149,-37.2063 191.763,-30.1552"/>
<polygon fill="midnightblue" stroke="midnightblue" points="110.455,-48.9074 101.743,-54.936 112.313,-55.6563 110.455,-48.9074"/>
</g>
<!-- Node183 -->
<g id="node5" class="node"><title>Node183</title>
<g id="a_node5"><a xlink:href="namespacemom__document.html#a09ce71cb5106c9abb604c07b98e62863" target="_top" xlink:title="mom_document::doc_param\l_real_array">
<polygon fill="white" stroke="black" points="360,-0.5 360,-30.5 500,-30.5 500,-0.5 360,-0.5"/>
<text text-anchor="start" x="368" y="-18.5" font-family="Helvetica,sans-Serif" font-size="10.00">mom_document::doc_param</text>
<text text-anchor="middle" x="430" y="-7.5" font-family="Helvetica,sans-Serif" font-size="10.00">_real_array</text>
</a>
</g>
</g>
<!-- Node182&#45;&gt;Node183 -->
<g id="edge4" class="edge"><title>Node182&#45;&gt;Node183</title>
<path fill="none" stroke="midnightblue" d="M310.426,-15.5C326.402,-15.5 343.631,-15.5 359.871,-15.5"/>
<polygon fill="midnightblue" stroke="midnightblue" points="310.131,-12.0001 300.131,-15.5 310.131,-19.0001 310.131,-12.0001"/>
</g>
</g>
</svg>
