<?xml version="1.0" encoding="UTF-8" standalone="no"?>
<!DOCTYPE svg PUBLIC "-//W3C//DTD SVG 1.1//EN"
 "http://www.w3.org/Graphics/SVG/1.1/DTD/svg11.dtd">
<!-- Generated by graphviz version 2.38.0 (20140413.2041)
 -->
<!-- Title: mom_tidal_forcing::calc_tidal_forcing Pages: 1 -->
<svg width="460pt" height="186pt"
 viewBox="0.00 0.00 460.00 186.00" xmlns="http://www.w3.org/2000/svg" xmlns:xlink="http://www.w3.org/1999/xlink">
<g id="graph0" class="graph" transform="scale(1 1) rotate(0) translate(4 182)">
<title>mom_tidal_forcing::calc_tidal_forcing</title>
<polygon fill="white" stroke="none" points="-4,4 -4,-182 456,-182 456,4 -4,4"/>
<!-- Node1 -->
<g id="node1" class="node"><title>Node1</title>
<polygon fill="#bfbfbf" stroke="black" points="0,-73.5 0,-103.5 102,-103.5 102,-73.5 0,-73.5"/>
<text text-anchor="start" x="8" y="-91.5" font-family="Helvetica,sans-Serif" font-size="10.00">mom_tidal_forcing::</text>
<text text-anchor="middle" x="51" y="-80.5" font-family="Helvetica,sans-Serif" font-size="10.00">calc_tidal_forcing</text>
</g>
<!-- Node2 -->
<g id="node2" class="node"><title>Node2</title>
<g id="a_node2"><a xlink:href="namespacemom__pressureforce__afv.html#a2b38fa4956dd9305ec682fcc64ae32ea" target="_top" xlink:title="Boussinesq analytically&#45;integrated finite volume form of pressure gradient. ">
<polygon fill="white" stroke="black" points="150,-147.5 150,-177.5 282,-177.5 282,-147.5 150,-147.5"/>
<text text-anchor="start" x="158" y="-165.5" font-family="Helvetica,sans-Serif" font-size="10.00">mom_pressureforce_afv</text>
<text text-anchor="middle" x="216" y="-154.5" font-family="Helvetica,sans-Serif" font-size="10.00">::pressureforce_afv_bouss</text>
</a>
</g>
</g>
<!-- Node1&#45;&gt;Node2 -->
<g id="edge1" class="edge"><title>Node1&#45;&gt;Node2</title>
<path fill="none" stroke="midnightblue" d="M83.4836,-109.096C99.3811,-118.896 119.234,-130.246 138,-138.5 145.306,-141.714 153.176,-144.686 160.996,-147.365"/>
<polygon fill="midnightblue" stroke="midnightblue" points="84.9507,-105.885 74.6186,-103.541 81.2334,-111.817 84.9507,-105.885"/>
</g>
<!-- Node4 -->
<g id="node4" class="node"><title>Node4</title>
<g id="a_node4"><a xlink:href="namespacemom__pressureforce__afv.html#ac872477c8b86d0997199db68a8969466" target="_top" xlink:title="Non&#45;Boussinesq analytically&#45;integrated finite volume form of pressure gradient. ">
<polygon fill="white" stroke="black" points="142,-98.5 142,-128.5 290,-128.5 290,-98.5 142,-98.5"/>
<text text-anchor="start" x="150" y="-116.5" font-family="Helvetica,sans-Serif" font-size="10.00">mom_pressureforce_afv</text>
<text text-anchor="middle" x="216" y="-105.5" font-family="Helvetica,sans-Serif" font-size="10.00">::pressureforce_afv_nonbouss</text>
</a>
</g>
</g>
<!-- Node1&#45;&gt;Node4 -->
<g id="edge3" class="edge"><title>Node1&#45;&gt;Node4</title>
<path fill="none" stroke="midnightblue" d="M112.137,-97.7234C121.813,-99.2074 131.92,-100.758 141.861,-102.282"/>
<polygon fill="midnightblue" stroke="midnightblue" points="112.65,-94.2614 102.235,-96.2048 111.589,-101.18 112.65,-94.2614"/>
</g>
<!-- Node5 -->
<g id="node5" class="node"><title>Node5</title>
<g id="a_node5"><a xlink:href="namespacemom__pressureforce__mont.html#a15f395ec4b0c1bbc6f87af689f0de944" target="_top" xlink:title="Boussinesq Montgomery&#45;potential form of pressure gradient. ">
<polygon fill="white" stroke="black" points="146,-49.5 146,-79.5 286,-79.5 286,-49.5 146,-49.5"/>
<text text-anchor="start" x="154" y="-67.5" font-family="Helvetica,sans-Serif" font-size="10.00">mom_pressureforce_mont</text>
<text text-anchor="middle" x="216" y="-56.5" font-family="Helvetica,sans-Serif" font-size="10.00">::pressureforce_mont_bouss</text>
</a>
</g>
</g>
<!-- Node1&#45;&gt;Node5 -->
<g id="edge5" class="edge"><title>Node1&#45;&gt;Node5</title>
<path fill="none" stroke="midnightblue" d="M112.445,-79.6001C123.293,-78.0029 134.675,-76.327 145.749,-74.6965"/>
<polygon fill="midnightblue" stroke="midnightblue" points="111.619,-76.1839 102.235,-81.1034 112.639,-83.1093 111.619,-76.1839"/>
</g>
<!-- Node6 -->
<g id="node6" class="node"><title>Node6</title>
<g id="a_node6"><a xlink:href="namespacemom__pressureforce__mont.html#af536642cd29fc7ad6465c4f277ff0764" target="_top" xlink:title="Non&#45;Boussinesq Montgomery&#45;potential form of pressure gradient. ">
<polygon fill="white" stroke="black" points="138,-0.5 138,-30.5 294,-30.5 294,-0.5 138,-0.5"/>
<text text-anchor="start" x="146" y="-18.5" font-family="Helvetica,sans-Serif" font-size="10.00">mom_pressureforce_mont</text>
<text text-anchor="middle" x="216" y="-7.5" font-family="Helvetica,sans-Serif" font-size="10.00">::pressureforce_mont_nonbouss</text>
</a>
</g>
</g>
<!-- Node1&#45;&gt;Node6 -->
<g id="edge6" class="edge"><title>Node1&#45;&gt;Node6</title>
<path fill="none" stroke="midnightblue" d="M84.98,-68.1001C100.673,-58.9158 119.922,-48.3898 138,-40.5 146.244,-36.902 155.179,-33.5405 163.943,-30.5222"/>
<polygon fill="midnightblue" stroke="midnightblue" points="82.9974,-65.2068 76.1867,-73.3226 86.5719,-71.2254 82.9974,-65.2068"/>
</g>
<!-- Node3 -->
<g id="node3" class="node"><title>Node3</title>
<g id="a_node3"><a xlink:href="namespacemom__pressureforce__afv.html#aa3fa5f17809b17fc1c065fb5ba6a11dc" target="_top" xlink:title="Thin interface between the model and the Boussinesq and non&#45;Boussinesq pressure force routines...">
<polygon fill="white" stroke="black" points="330,-122.5 330,-152.5 452,-152.5 452,-122.5 330,-122.5"/>
<text text-anchor="start" x="338" y="-140.5" font-family="Helvetica,sans-Serif" font-size="10.00">mom_pressureforce_afv</text>
<text text-anchor="middle" x="391" y="-129.5" font-family="Helvetica,sans-Serif" font-size="10.00">::pressureforce_afv</text>
</a>
</g>
</g>
<!-- Node2&#45;&gt;Node3 -->
<g id="edge2" class="edge"><title>Node2&#45;&gt;Node3</title>
<path fill="none" stroke="midnightblue" d="M292.383,-151.606C304.937,-149.792 317.808,-147.932 329.916,-146.183"/>
<polygon fill="midnightblue" stroke="midnightblue" points="291.8,-148.154 282.404,-153.049 292.802,-155.082 291.8,-148.154"/>
</g>
<!-- Node4&#45;&gt;Node3 -->
<g id="edge4" class="edge"><title>Node4&#45;&gt;Node3</title>
<path fill="none" stroke="midnightblue" d="M300.137,-125.033C310.198,-126.429 320.319,-127.833 329.956,-129.17"/>
<polygon fill="midnightblue" stroke="midnightblue" points="300.503,-121.551 290.117,-123.643 299.541,-128.484 300.503,-121.551"/>
</g>
</g>
</svg>
