<?xml version="1.0" encoding="UTF-8" standalone="no"?>
<!DOCTYPE svg PUBLIC "-//W3C//DTD SVG 1.1//EN"
 "http://www.w3.org/Graphics/SVG/1.1/DTD/svg11.dtd">
<!-- Generated by graphviz version 2.38.0 (20140413.2041)
 -->
<!-- Title: mom_file_parser::closemultilinecomment Pages: 1 -->
<!--zoomable 78 -->
<svg id="main" version="1.1" xmlns="http://www.w3.org/2000/svg" xmlns:xlink="http://www.w3.org/1999/xlink" xml:space="preserve" onload="init(evt)">
<style type="text/css"><![CDATA[
.edge:hover path { stroke: red; }
.edge:hover polygon { stroke: red; fill: red; }
]]></style>
<script type="text/javascript"><![CDATA[
var edges = document.getElementsByTagName('g');
if (edges && edges.length) {
  for (var i=0;i<edges.length;i++) {
    if (edges[i].id.substr(0,4)=='edge') {
      edges[i].setAttribute('class','edge');
    }
  }
}
]]></script>
        <defs>
                <circle id="rim" cx="0" cy="0" r="7"/>
                <circle id="rim2" cx="0" cy="0" r="3.5"/>
                <g id="zoomPlus">
                        <use xlink:href="#rim" fill="#404040">
                                <set attributeName="fill" to="#808080" begin="zoomplus.mouseover" end="zoomplus.mouseout"/>
                        </use>
                        <path d="M-4,0h8M0,-4v8" fill="none" stroke="white" stroke-width="1.5" pointer-events="none"/>
                </g>
                <g id="zoomMin">
                        <use xlink:href="#rim" fill="#404040">
                                <set attributeName="fill" to="#808080" begin="zoomminus.mouseover" end="zoomminus.mouseout"/>
                        </use>
                        <path d="M-4,0h8" fill="none" stroke="white" stroke-width="1.5" pointer-events="none"/>
                </g>
                <g id="dirArrow">
                        <path fill="none" stroke="white" stroke-width="1.5" d="M0,-3.0v7 M-2.5,-0.5L0,-3.0L2.5,-0.5"/>
                </g>
               <g id="resetDef">
                       <use xlink:href="#rim2" fill="#404040">
                               <set attributeName="fill" to="#808080" begin="reset.mouseover" end="reset.mouseout"/>
                       </use>
               </g>
        </defs>

<script type="text/javascript">
var viewWidth = 928;
var viewHeight = 78;
var sectionId = 'dynsection-3';
</script>
<script xlink:href="svgpan.js"/>
<svg id="graph" class="graph">
<g id="viewport">
<title>mom_file_parser::closemultilinecomment</title>
<polygon fill="white" stroke="none" points="-4,4 -4,-73.5 924,-73.5 924,4 -4,4"/>
<!-- Node10 -->
<g id="node1" class="node"><title>Node10</title>
<polygon fill="#bfbfbf" stroke="black" points="0,-22.5 0,-41.5 194,-41.5 194,-22.5 0,-22.5"/>
<text text-anchor="middle" x="97" y="-29.5" font-family="Helvetica,sans-Serif" font-size="10.00">mom_file_parser::closemultilinecomment</text>
</g>
<!-- Node11 -->
<g id="node2" class="node"><title>Node11</title>
<g id="a_node2"><a xlink:href="namespacemom__file__parser.html#a7abfd98d7f0831fc0d1f3747a68f1be9" target="_top" xlink:title="mom_file_parser::populate\l_param_data">
<polygon fill="white" stroke="black" points="230,-17 230,-47 361,-47 361,-17 230,-17"/>
<text text-anchor="start" x="238" y="-35" font-family="Helvetica,sans-Serif" font-size="10.00">mom_file_parser::populate</text>
<text text-anchor="middle" x="295.5" y="-24" font-family="Helvetica,sans-Serif" font-size="10.00">_param_data</text>
</a>
</g>
</g>
<!-- Node10&#45;&gt;Node11 -->
<g id="edge1" class="edge"><title>Node10&#45;&gt;Node11</title>
<path fill="none" stroke="midnightblue" d="M204.402,-32C213.044,-32 221.601,-32 229.803,-32"/>
<polygon fill="midnightblue" stroke="midnightblue" points="204.235,-28.5001 194.235,-32 204.235,-35.5001 204.235,-28.5001"/>
</g>
<!-- Node12 -->
<g id="node3" class="node"><title>Node12</title>
<g id="a_node3"><a xlink:href="namespacemom__file__parser.html#abecae1b9386aafa17aec927af1f8c448" target="_top" xlink:title="mom_file_parser::open\l_param_file">
<polygon fill="white" stroke="black" points="397,-17 397,-47 513,-47 513,-17 397,-17"/>
<text text-anchor="start" x="405" y="-35" font-family="Helvetica,sans-Serif" font-size="10.00">mom_file_parser::open</text>
<text text-anchor="middle" x="455" y="-24" font-family="Helvetica,sans-Serif" font-size="10.00">_param_file</text>
</a>
</g>
</g>
<!-- Node11&#45;&gt;Node12 -->
<g id="edge2" class="edge"><title>Node11&#45;&gt;Node12</title>
<path fill="none" stroke="midnightblue" d="M371.132,-32C379.797,-32 388.529,-32 396.906,-32"/>
<polygon fill="midnightblue" stroke="midnightblue" points="371.016,-28.5001 361.016,-32 371.016,-35.5001 371.016,-28.5001"/>
</g>
<!-- Node13 -->
<g id="node4" class="node"><title>Node13</title>
<g id="a_node4"><a xlink:href="namespacemom__get__input.html#a299c5b9476662ef1a382e23a8d078143" target="_top" xlink:title="mom_get_input::get\l_mom_input">
<polygon fill="white" stroke="black" points="549,-17 549,-47 652,-47 652,-17 549,-17"/>
<text text-anchor="start" x="557" y="-35" font-family="Helvetica,sans-Serif" font-size="10.00">mom_get_input::get</text>
<text text-anchor="middle" x="600.5" y="-24" font-family="Helvetica,sans-Serif" font-size="10.00">_mom_input</text>
</a>
</g>
</g>
<!-- Node12&#45;&gt;Node13 -->
<g id="edge3" class="edge"><title>Node12&#45;&gt;Node13</title>
<path fill="none" stroke="midnightblue" d="M523.398,-32C531.878,-32 540.439,-32 548.606,-32"/>
<polygon fill="midnightblue" stroke="midnightblue" points="523.127,-28.5001 513.127,-32 523.127,-35.5001 523.127,-28.5001"/>
</g>
<!-- Node14 -->
<g id="node5" class="node"><title>Node14</title>
<g id="a_node5"><a xlink:href="namespaceocean__model__mod.html#a6b00b9a33be391bb23668abbfa4d99c6" target="_top" xlink:title="ocean_model_mod::ocean\l_model_flux_init">
<polygon fill="white" stroke="black" points="688,-39 688,-69 819,-69 819,-39 688,-39"/>
<text text-anchor="start" x="696" y="-57" font-family="Helvetica,sans-Serif" font-size="10.00">ocean_model_mod::ocean</text>
<text text-anchor="middle" x="753.5" y="-46" font-family="Helvetica,sans-Serif" font-size="10.00">_model_flux_init</text>
</a>
</g>
</g>
<!-- Node13&#45;&gt;Node14 -->
<g id="edge4" class="edge"><title>Node13&#45;&gt;Node14</title>
<path fill="none" stroke="midnightblue" d="M662.343,-40.8645C670.785,-42.0945 679.482,-43.3616 687.988,-44.601"/>
<polygon fill="midnightblue" stroke="midnightblue" points="662.601,-37.3653 652.201,-39.3869 661.592,-44.2921 662.601,-37.3653"/>
</g>
<!-- Node15 -->
<g id="node6" class="node"><title>Node15</title>
<g id="a_node6"><a xlink:href="namespacemom.html#a0be2869fef30e1e0604facfe1b41555d" target="_top" xlink:title="This subroutine initializes MOM. ">
<polygon fill="white" stroke="black" points="700,-0.5 700,-19.5 807,-19.5 807,-0.5 700,-0.5"/>
<text text-anchor="middle" x="753.5" y="-7.5" font-family="Helvetica,sans-Serif" font-size="10.00">mom::initialize_mom</text>
</a>
</g>
</g>
<!-- Node13&#45;&gt;Node15 -->
<g id="edge5" class="edge"><title>Node13&#45;&gt;Node15</title>
<path fill="none" stroke="midnightblue" d="M662.455,-23.1191C674.851,-21.3131 687.791,-19.4278 699.869,-17.6681"/>
<polygon fill="midnightblue" stroke="midnightblue" points="661.592,-19.7079 652.201,-24.6131 662.601,-26.6347 661.592,-19.7079"/>
</g>
<!-- Node16 -->
<g id="node7" class="node"><title>Node16</title>
<g id="a_node7"><a xlink:href="MOM__driver_8F90.html#a08fffeb2d8e8acbf9ed4609be6d258c6" target="_top" xlink:title="mom_main">
<polygon fill="white" stroke="black" points="855,-0.5 855,-19.5 920,-19.5 920,-0.5 855,-0.5"/>
<text text-anchor="middle" x="887.5" y="-7.5" font-family="Helvetica,sans-Serif" font-size="10.00">mom_main</text>
</a>
</g>
</g>
<!-- Node15&#45;&gt;Node16 -->
<g id="edge6" class="edge"><title>Node15&#45;&gt;Node16</title>
<path fill="none" stroke="midnightblue" d="M817.351,-10C830.288,-10 843.386,-10 854.652,-10"/>
<polygon fill="midnightblue" stroke="midnightblue" points="817.049,-6.5001 807.049,-10 817.049,-13.5001 817.049,-6.5001"/>
</g>
</g>
</svg>
        <g id="navigator" transform="translate(0 0)" fill="#404254">
                <rect fill="#f2f5e9" fill-opacity="0.5" stroke="#606060" stroke-width=".5" x="0" y="0" width="60" height="60"/>
                <use id="zoomplus" xlink:href="#zoomPlus" x="17" y="9" onmousedown="handleZoom(evt,'in')"/>
                <use id="zoomminus" xlink:href="#zoomMin" x="42" y="9" onmousedown="handleZoom(evt,'out')"/>
                <use id="reset" xlink:href="#resetDef" x="30" y="36" onmousedown="handleReset()"/>
                <g id="arrowUp" xlink:href="#dirArrow" transform="translate(30 24)" onmousedown="handlePan(0,-1)">
                  <use xlink:href="#rim" fill="#404040">
                        <set attributeName="fill" to="#808080" begin="arrowUp.mouseover" end="arrowUp.mouseout"/>
                  </use>
                  <path fill="none" stroke="white" stroke-width="1.5" d="M0,-3.0v7 M-2.5,-0.5L0,-3.0L2.5,-0.5"/>
                </g>
                <g id="arrowRight" xlink:href="#dirArrow" transform="rotate(90) translate(36 -43)" onmousedown="handlePan(1,0)">
                  <use xlink:href="#rim" fill="#404040">
                        <set attributeName="fill" to="#808080" begin="arrowRight.mouseover" end="arrowRight.mouseout"/>
                  </use>
                  <path fill="none" stroke="white" stroke-width="1.5" d="M0,-3.0v7 M-2.5,-0.5L0,-3.0L2.5,-0.5"/>
                </g>
                <g id="arrowDown" xlink:href="#dirArrow" transform="rotate(180) translate(-30 -48)" onmousedown="handlePan(0,1)">
                  <use xlink:href="#rim" fill="#404040">
                        <set attributeName="fill" to="#808080" begin="arrowDown.mouseover" end="arrowDown.mouseout"/>
                  </use>
                  <path fill="none" stroke="white" stroke-width="1.5" d="M0,-3.0v7 M-2.5,-0.5L0,-3.0L2.5,-0.5"/>
                </g>
                <g id="arrowLeft" xlink:href="#dirArrow" transform="rotate(270) translate(-36 17)" onmousedown="handlePan(-1,0)">
                  <use xlink:href="#rim" fill="#404040">
                        <set attributeName="fill" to="#808080" begin="arrowLeft.mouseover" end="arrowLeft.mouseout"/>
                  </use>
                  <path fill="none" stroke="white" stroke-width="1.5" d="M0,-3.0v7 M-2.5,-0.5L0,-3.0L2.5,-0.5"/>
                </g>
        </g>
        <svg viewBox="0 0 15 15" width="100%" height="30px" preserveAspectRatio="xMaxYMin meet">
         <g id="arrow_out" transform="scale(0.3 0.3)">
          <a xlink:href="namespacemom__file__parser_a99c426fd23fc4df0c4d05e33039e0a66_icgraph_org.svg" target="_base">
           <rect id="button" ry="5" rx="5" y="6" x="6" height="38" width="38"
                fill="#f2f5e9" fill-opacity="0.5" stroke="#606060" stroke-width="1.0"/>
           <path id="arrow"
             d="M 11.500037,31.436501 C 11.940474,20.09759 22.043105,11.32322 32.158766,21.979434 L 37.068811,17.246167 C 37.068811,17.246167 37.088388,32 37.088388,32 L 22.160133,31.978069 C 22.160133,31.978069 26.997745,27.140456 26.997745,27.140456 C 18.528582,18.264221 13.291696,25.230495 11.500037,31.436501 z"
             style="fill:#404040;"/>
          </a>
         </g>
        </svg>
</svg>
