<?xml version="1.0" encoding="UTF-8" standalone="no"?>
<!DOCTYPE svg PUBLIC "-//W3C//DTD SVG 1.1//EN"
 "http://www.w3.org/Graphics/SVG/1.1/DTD/svg11.dtd">
<!-- Generated by graphviz version 2.38.0 (20140413.2041)
 -->
<!-- Title: mom_meke::meke_lengthscales Pages: 1 -->
<svg width="588pt" height="28pt"
 viewBox="0.00 0.00 588.00 28.00" xmlns="http://www.w3.org/2000/svg" xmlns:xlink="http://www.w3.org/1999/xlink">
<g id="graph0" class="graph" transform="scale(1 1) rotate(0) translate(4 24)">
<title>mom_meke::meke_lengthscales</title>
<polygon fill="white" stroke="none" points="-4,4 -4,-24 584,-24 584,4 -4,4"/>
<!-- Node27 -->
<g id="node1" class="node"><title>Node27</title>
<polygon fill="#bfbfbf" stroke="black" points="0,-0.5 0,-19.5 158,-19.5 158,-0.5 0,-0.5"/>
<text text-anchor="middle" x="79" y="-7.5" font-family="Helvetica,sans-Serif" font-size="10.00">mom_meke::meke_lengthscales</text>
</g>
<!-- Node28 -->
<g id="node2" class="node"><title>Node28</title>
<g id="a_node2"><a xlink:href="namespacemom__meke.html#adff303c8c542ec848294078e4b3bc010" target="_top" xlink:title="Integrates forward&#45;in&#45;time the MEKE eddy energy equation. See MEKE equations. ">
<polygon fill="white" stroke="black" points="194,-0.5 194,-19.5 353,-19.5 353,-0.5 194,-0.5"/>
<text text-anchor="middle" x="273.5" y="-7.5" font-family="Helvetica,sans-Serif" font-size="10.00">mom_meke::step_forward_meke</text>
</a>
</g>
</g>
<!-- Node27&#45;&gt;Node28 -->
<g id="edge1" class="edge"><title>Node27&#45;&gt;Node28</title>
<path fill="none" stroke="midnightblue" d="M168.03,-10C176.605,-10 185.268,-10 193.744,-10"/>
<polygon fill="midnightblue" stroke="midnightblue" points="168.02,-6.5001 158.02,-10 168.02,-13.5001 168.02,-6.5001"/>
</g>
<!-- Node29 -->
<g id="node3" class="node"><title>Node29</title>
<g id="a_node3"><a xlink:href="namespacemom.html#a4c8332b095c6d295084089aa6b3b678a" target="_top" xlink:title="This subroutine orchestrates the time stepping of MOM. The adiabatic dynamics are stepped by calls to...">
<polygon fill="white" stroke="black" points="389,-0.5 389,-19.5 479,-19.5 479,-0.5 389,-0.5"/>
<text text-anchor="middle" x="434" y="-7.5" font-family="Helvetica,sans-Serif" font-size="10.00">mom::step_mom</text>
</a>
</g>
</g>
<!-- Node28&#45;&gt;Node29 -->
<g id="edge2" class="edge"><title>Node28&#45;&gt;Node29</title>
<path fill="none" stroke="midnightblue" d="M363.335,-10C372.196,-10 380.894,-10 388.979,-10"/>
<polygon fill="midnightblue" stroke="midnightblue" points="363.286,-6.5001 353.286,-10 363.286,-13.5001 363.286,-6.5001"/>
</g>
<!-- Node30 -->
<g id="node4" class="node"><title>Node30</title>
<g id="a_node4"><a xlink:href="MOM__driver_8F90.html#a08fffeb2d8e8acbf9ed4609be6d258c6" target="_top" xlink:title="mom_main">
<polygon fill="white" stroke="black" points="515,-0.5 515,-19.5 580,-19.5 580,-0.5 515,-0.5"/>
<text text-anchor="middle" x="547.5" y="-7.5" font-family="Helvetica,sans-Serif" font-size="10.00">mom_main</text>
</a>
</g>
</g>
<!-- Node29&#45;&gt;Node30 -->
<g id="edge3" class="edge"><title>Node29&#45;&gt;Node30</title>
<path fill="none" stroke="midnightblue" d="M489.26,-10C498.006,-10 506.8,-10 514.782,-10"/>
<polygon fill="midnightblue" stroke="midnightblue" points="489.068,-6.5001 479.068,-10 489.068,-13.5001 489.068,-6.5001"/>
</g>
</g>
</svg>
