<?xml version="1.0" encoding="UTF-8" standalone="no"?>
<!DOCTYPE svg PUBLIC "-//W3C//DTD SVG 1.1//EN"
 "http://www.w3.org/Graphics/SVG/1.1/DTD/svg11.dtd">
<!-- Generated by graphviz version 2.38.0 (20140413.2041)
 -->
<!-- Title: regrid_interp::get_polynomial_coordinate Pages: 1 -->
<svg width="940pt" height="88pt"
 viewBox="0.00 0.00 940.00 88.00" xmlns="http://www.w3.org/2000/svg" xmlns:xlink="http://www.w3.org/1999/xlink">
<g id="graph0" class="graph" transform="scale(1 1) rotate(0) translate(4 84)">
<title>regrid_interp::get_polynomial_coordinate</title>
<polygon fill="white" stroke="none" points="-4,4 -4,-84 936,-84 936,4 -4,4"/>
<!-- Node41 -->
<g id="node1" class="node"><title>Node41</title>
<polygon fill="#bfbfbf" stroke="black" points="0,-24.5 0,-54.5 119,-54.5 119,-24.5 0,-24.5"/>
<text text-anchor="start" x="8" y="-42.5" font-family="Helvetica,sans-Serif" font-size="10.00">regrid_interp::get</text>
<text text-anchor="middle" x="59.5" y="-31.5" font-family="Helvetica,sans-Serif" font-size="10.00">_polynomial_coordinate</text>
</g>
<!-- Node42 -->
<g id="node2" class="node"><title>Node42</title>
<g id="a_node2"><a xlink:href="namespaceregrid__interp.html#a3b8e2f8c3b01e0e9fd262342626e2e53" target="_top" xlink:title="Given target values (e.g., density), build new grid based on polynomial. ">
<polygon fill="white" stroke="black" points="155,-30 155,-49 297,-49 297,-30 155,-30"/>
<text text-anchor="middle" x="226" y="-37" font-family="Helvetica,sans-Serif" font-size="10.00">regrid_interp::interpolate_grid</text>
</a>
</g>
</g>
<!-- Node41&#45;&gt;Node42 -->
<g id="edge1" class="edge"><title>Node41&#45;&gt;Node42</title>
<path fill="none" stroke="midnightblue" d="M129.559,-39.5C137.966,-39.5 146.561,-39.5 154.981,-39.5"/>
<polygon fill="midnightblue" stroke="midnightblue" points="129.424,-36.0001 119.424,-39.5 129.424,-43.0001 129.424,-36.0001"/>
</g>
<!-- Node43 -->
<g id="node3" class="node"><title>Node43</title>
<g id="a_node3"><a xlink:href="namespaceregrid__interp.html#a4d634eff5836d643ef27129fc934853a" target="_top" xlink:title="regrid_interp::build\l_and_interpolate_grid">
<polygon fill="white" stroke="black" points="333,-24.5 333,-54.5 442,-54.5 442,-24.5 333,-24.5"/>
<text text-anchor="start" x="341" y="-42.5" font-family="Helvetica,sans-Serif" font-size="10.00">regrid_interp::build</text>
<text text-anchor="middle" x="387.5" y="-31.5" font-family="Helvetica,sans-Serif" font-size="10.00">_and_interpolate_grid</text>
</a>
</g>
</g>
<!-- Node42&#45;&gt;Node43 -->
<g id="edge2" class="edge"><title>Node42&#45;&gt;Node43</title>
<path fill="none" stroke="midnightblue" d="M307.464,-39.5C316.034,-39.5 324.592,-39.5 332.744,-39.5"/>
<polygon fill="midnightblue" stroke="midnightblue" points="307.423,-36.0001 297.423,-39.5 307.423,-43.0001 307.423,-36.0001"/>
</g>
<!-- Node44 -->
<g id="node4" class="node"><title>Node44</title>
<g id="a_node4"><a xlink:href="namespacecoord__hycom.html#a863abf3f62297588e4a3065fbf9333ea" target="_top" xlink:title="Build a HyCOM coordinate column. ">
<polygon fill="white" stroke="black" points="479.5,-49.5 479.5,-79.5 580.5,-79.5 580.5,-49.5 479.5,-49.5"/>
<text text-anchor="start" x="487.5" y="-67.5" font-family="Helvetica,sans-Serif" font-size="10.00">coord_hycom::build</text>
<text text-anchor="middle" x="530" y="-56.5" font-family="Helvetica,sans-Serif" font-size="10.00">_hycom1_column</text>
</a>
</g>
</g>
<!-- Node43&#45;&gt;Node44 -->
<g id="edge3" class="edge"><title>Node43&#45;&gt;Node44</title>
<path fill="none" stroke="midnightblue" d="M451.904,-50.7819C461.1,-52.4182 470.454,-54.0826 479.327,-55.6615"/>
<polygon fill="midnightblue" stroke="midnightblue" points="452.476,-47.3288 442.018,-49.0227 451.25,-54.2205 452.476,-47.3288"/>
</g>
<!-- Node47 -->
<g id="node7" class="node"><title>Node47</title>
<g id="a_node7"><a xlink:href="namespacecoord__rho.html#a6f5a56ba973e5e36820222a709614e40" target="_top" xlink:title="coord_rho::build_rho\l_column">
<polygon fill="white" stroke="black" points="478,-0.5 478,-30.5 582,-30.5 582,-0.5 478,-0.5"/>
<text text-anchor="start" x="486" y="-18.5" font-family="Helvetica,sans-Serif" font-size="10.00">coord_rho::build_rho</text>
<text text-anchor="middle" x="530" y="-7.5" font-family="Helvetica,sans-Serif" font-size="10.00">_column</text>
</a>
</g>
</g>
<!-- Node43&#45;&gt;Node47 -->
<g id="edge6" class="edge"><title>Node43&#45;&gt;Node47</title>
<path fill="none" stroke="midnightblue" d="M452.09,-28.6377C460.75,-27.1583 469.547,-25.6557 477.947,-24.2208"/>
<polygon fill="midnightblue" stroke="midnightblue" points="451.286,-25.2243 442.018,-30.3582 452.464,-32.1243 451.286,-25.2243"/>
</g>
<!-- Node45 -->
<g id="node5" class="node"><title>Node45</title>
<g id="a_node5"><a xlink:href="namespacemom__regridding.html#ab3541b357806978862434ee19b1be774" target="_top" xlink:title="Builds a simple HyCOM&#45;like grid with the deepest location of potential density interpolated from the ...">
<polygon fill="white" stroke="black" points="621,-49.5 621,-79.5 733,-79.5 733,-49.5 621,-49.5"/>
<text text-anchor="start" x="629" y="-67.5" font-family="Helvetica,sans-Serif" font-size="10.00">mom_regridding::build</text>
<text text-anchor="middle" x="677" y="-56.5" font-family="Helvetica,sans-Serif" font-size="10.00">_grid_hycom1</text>
</a>
</g>
</g>
<!-- Node44&#45;&gt;Node45 -->
<g id="edge4" class="edge"><title>Node44&#45;&gt;Node45</title>
<path fill="none" stroke="midnightblue" d="M591.027,-64.5C600.884,-64.5 611.059,-64.5 620.792,-64.5"/>
<polygon fill="midnightblue" stroke="midnightblue" points="590.901,-61.0001 580.901,-64.5 590.901,-68.0001 590.901,-61.0001"/>
</g>
<!-- Node46 -->
<g id="node6" class="node"><title>Node46</title>
<g id="a_node6"><a xlink:href="namespacemom__regridding.html#ab354fe3423a39fef6f2b66f409b1682c" target="_top" xlink:title="mom_regridding::regridding_main">
<polygon fill="white" stroke="black" points="772,-55 772,-74 932,-74 932,-55 772,-55"/>
<text text-anchor="middle" x="852" y="-62" font-family="Helvetica,sans-Serif" font-size="10.00">mom_regridding::regridding_main</text>
</a>
</g>
</g>
<!-- Node45&#45;&gt;Node46 -->
<g id="edge5" class="edge"><title>Node45&#45;&gt;Node46</title>
<path fill="none" stroke="midnightblue" d="M743.466,-64.5C752.695,-64.5 762.265,-64.5 771.719,-64.5"/>
<polygon fill="midnightblue" stroke="midnightblue" points="743.214,-61.0001 733.214,-64.5 743.214,-68.0001 743.214,-61.0001"/>
</g>
<!-- Node48 -->
<g id="node8" class="node"><title>Node48</title>
<g id="a_node8"><a xlink:href="namespacemom__diag__remap.html#a1fb71d2982777f33bcbf183187e1819b" target="_top" xlink:title="Build/update target vertical grids for diagnostic remapping. ">
<polygon fill="white" stroke="black" points="618,-0.5 618,-30.5 736,-30.5 736,-0.5 618,-0.5"/>
<text text-anchor="start" x="626" y="-18.5" font-family="Helvetica,sans-Serif" font-size="10.00">mom_diag_remap::diag</text>
<text text-anchor="middle" x="677" y="-7.5" font-family="Helvetica,sans-Serif" font-size="10.00">_remap_update</text>
</a>
</g>
</g>
<!-- Node47&#45;&gt;Node48 -->
<g id="edge7" class="edge"><title>Node47&#45;&gt;Node48</title>
<path fill="none" stroke="midnightblue" d="M592.33,-15.5C600.81,-15.5 609.5,-15.5 617.919,-15.5"/>
<polygon fill="midnightblue" stroke="midnightblue" points="592.122,-12.0001 582.122,-15.5 592.122,-19.0001 592.122,-12.0001"/>
</g>
</g>
</svg>
