<?xml version="1.0" encoding="UTF-8" standalone="no"?>
<!DOCTYPE svg PUBLIC "-//W3C//DTD SVG 1.1//EN"
 "http://www.w3.org/Graphics/SVG/1.1/DTD/svg11.dtd">
<!-- Generated by graphviz version 2.38.0 (20140413.2041)
 -->
<!-- Title: mom_ice_shelf::update_velocity_masks Pages: 1 -->
<svg width="533pt" height="132pt"
 viewBox="0.00 0.00 533.00 132.00" xmlns="http://www.w3.org/2000/svg" xmlns:xlink="http://www.w3.org/1999/xlink">
<g id="graph0" class="graph" transform="scale(1 1) rotate(0) translate(4 128)">
<title>mom_ice_shelf::update_velocity_masks</title>
<polygon fill="white" stroke="none" points="-4,4 -4,-128 529,-128 529,4 -4,4"/>
<!-- Node429 -->
<g id="node1" class="node"><title>Node429</title>
<polygon fill="#bfbfbf" stroke="black" points="0,-44.5 0,-74.5 118,-74.5 118,-44.5 0,-44.5"/>
<text text-anchor="start" x="8" y="-62.5" font-family="Helvetica,sans-Serif" font-size="10.00">mom_ice_shelf::update</text>
<text text-anchor="middle" x="59" y="-51.5" font-family="Helvetica,sans-Serif" font-size="10.00">_velocity_masks</text>
</g>
<!-- Node430 -->
<g id="node2" class="node"><title>Node430</title>
<g id="a_node2"><a xlink:href="namespacemom__ice__shelf.html#a6a07543d5e828b759f18def33ca4feda" target="_top" xlink:title="mom_ice_shelf::ice\l_shelf_advect">
<polygon fill="white" stroke="black" points="165.5,-88.5 165.5,-118.5 266.5,-118.5 266.5,-88.5 165.5,-88.5"/>
<text text-anchor="start" x="173.5" y="-106.5" font-family="Helvetica,sans-Serif" font-size="10.00">mom_ice_shelf::ice</text>
<text text-anchor="middle" x="216" y="-95.5" font-family="Helvetica,sans-Serif" font-size="10.00">_shelf_advect</text>
</a>
</g>
</g>
<!-- Node429&#45;&gt;Node430 -->
<g id="edge1" class="edge"><title>Node429&#45;&gt;Node430</title>
<path fill="none" stroke="midnightblue" d="M122.64,-77.2817C136.893,-81.3278 151.843,-85.5716 165.463,-89.4378"/>
<polygon fill="midnightblue" stroke="midnightblue" points="123.484,-73.8832 112.909,-74.5192 121.573,-80.6171 123.484,-73.8832"/>
</g>
<!-- Node433 -->
<g id="node5" class="node"><title>Node433</title>
<g id="a_node5"><a xlink:href="namespacemom__ice__shelf.html#ac084bdc5be4e708e3263488e9574a3c9" target="_top" xlink:title="mom_ice_shelf::solo\l_time_step">
<polygon fill="white" stroke="black" points="315.5,-44.5 315.5,-74.5 422.5,-74.5 422.5,-44.5 315.5,-44.5"/>
<text text-anchor="start" x="323.5" y="-62.5" font-family="Helvetica,sans-Serif" font-size="10.00">mom_ice_shelf::solo</text>
<text text-anchor="middle" x="369" y="-51.5" font-family="Helvetica,sans-Serif" font-size="10.00">_time_step</text>
</a>
</g>
</g>
<!-- Node429&#45;&gt;Node433 -->
<g id="edge7" class="edge"><title>Node429&#45;&gt;Node433</title>
<path fill="none" stroke="midnightblue" d="M128.557,-59.5C184.977,-59.5 263.782,-59.5 315.338,-59.5"/>
<polygon fill="midnightblue" stroke="midnightblue" points="128.295,-56.0001 118.295,-59.5 128.295,-63.0001 128.295,-56.0001"/>
</g>
<!-- Node434 -->
<g id="node6" class="node"><title>Node434</title>
<g id="a_node6"><a xlink:href="namespacemom__ice__shelf.html#ae315e8464ef8a20062e3bccb61886755" target="_top" xlink:title="Initializes shelf model data, parameters and diagnostics. ">
<polygon fill="white" stroke="black" points="154,-0.5 154,-30.5 278,-30.5 278,-0.5 154,-0.5"/>
<text text-anchor="start" x="162" y="-18.5" font-family="Helvetica,sans-Serif" font-size="10.00">mom_ice_shelf::initialize</text>
<text text-anchor="middle" x="216" y="-7.5" font-family="Helvetica,sans-Serif" font-size="10.00">_ice_shelf</text>
</a>
</g>
</g>
<!-- Node429&#45;&gt;Node434 -->
<g id="edge5" class="edge"><title>Node429&#45;&gt;Node434</title>
<path fill="none" stroke="midnightblue" d="M122.746,-41.6882C135.792,-37.985 149.416,-34.1173 162.067,-30.5262"/>
<polygon fill="midnightblue" stroke="midnightblue" points="121.573,-38.3829 112.909,-44.4808 123.484,-45.1168 121.573,-38.3829"/>
</g>
<!-- Node431 -->
<g id="node3" class="node"><title>Node431</title>
<g id="a_node3"><a xlink:href="namespacemom__ice__shelf.html#a3b0e0cc9f36c5197236cc05867b780df" target="_top" xlink:title="Calculates fluxes between the ocean and ice&#45;shelf using the three&#45;equations formulation (optional to ...">
<polygon fill="white" stroke="black" points="314,-93.5 314,-123.5 424,-123.5 424,-93.5 314,-93.5"/>
<text text-anchor="start" x="322" y="-111.5" font-family="Helvetica,sans-Serif" font-size="10.00">mom_ice_shelf::shelf</text>
<text text-anchor="middle" x="369" y="-100.5" font-family="Helvetica,sans-Serif" font-size="10.00">_calc_flux</text>
</a>
</g>
</g>
<!-- Node430&#45;&gt;Node431 -->
<g id="edge2" class="edge"><title>Node430&#45;&gt;Node431</title>
<path fill="none" stroke="midnightblue" d="M276.919,-105.484C289.084,-105.887 301.814,-106.308 313.77,-106.704"/>
<polygon fill="midnightblue" stroke="midnightblue" points="276.972,-101.984 266.862,-105.151 276.74,-108.98 276.972,-101.984"/>
</g>
<!-- Node430&#45;&gt;Node433 -->
<g id="edge4" class="edge"><title>Node430&#45;&gt;Node433</title>
<path fill="none" stroke="midnightblue" d="M276.731,-86.095C289.843,-82.2743 303.619,-78.2601 316.38,-74.5416"/>
<polygon fill="midnightblue" stroke="midnightblue" points="275.483,-82.8129 266.862,-88.9708 277.441,-89.5334 275.483,-82.8129"/>
</g>
<!-- Node432 -->
<g id="node4" class="node"><title>Node432</title>
<g id="a_node4"><a xlink:href="MOM__driver_8F90.html#a08fffeb2d8e8acbf9ed4609be6d258c6" target="_top" xlink:title="mom_main">
<polygon fill="white" stroke="black" points="460,-52 460,-71 525,-71 525,-52 460,-52"/>
<text text-anchor="middle" x="492.5" y="-59" font-family="Helvetica,sans-Serif" font-size="10.00">mom_main</text>
</a>
</g>
</g>
<!-- Node431&#45;&gt;Node432 -->
<g id="edge3" class="edge"><title>Node431&#45;&gt;Node432</title>
<path fill="none" stroke="midnightblue" d="M418.372,-89.7882C434.988,-83.3606 452.894,-76.4339 466.829,-71.0434"/>
<polygon fill="midnightblue" stroke="midnightblue" points="416.841,-86.6276 408.777,-93.4997 419.367,-93.1561 416.841,-86.6276"/>
</g>
<!-- Node434&#45;&gt;Node432 -->
<g id="edge6" class="edge"><title>Node434&#45;&gt;Node432</title>
<path fill="none" stroke="midnightblue" d="M288.439,-16.9821C328.713,-19.0759 379.685,-23.8422 424,-34.5 440.689,-38.5138 458.697,-45.8831 471.911,-51.9098"/>
<polygon fill="midnightblue" stroke="midnightblue" points="288.596,-13.4857 278.441,-16.5054 288.263,-20.4778 288.596,-13.4857"/>
</g>
</g>
</svg>
