<?xml version="1.0" encoding="UTF-8" standalone="no"?>
<!DOCTYPE svg PUBLIC "-//W3C//DTD SVG 1.1//EN"
 "http://www.w3.org/Graphics/SVG/1.1/DTD/svg11.dtd">
<!-- Generated by graphviz version 2.38.0 (20140413.2041)
 -->
<!-- Title: mom_entrain_diffusive::f_kb_to_ea_kb Pages: 1 -->
<svg width="709pt" height="61pt"
 viewBox="0.00 0.00 709.00 61.00" xmlns="http://www.w3.org/2000/svg" xmlns:xlink="http://www.w3.org/1999/xlink">
<g id="graph0" class="graph" transform="scale(1 1) rotate(0) translate(4 57)">
<title>mom_entrain_diffusive::f_kb_to_ea_kb</title>
<polygon fill="white" stroke="none" points="-4,4 -4,-57 705,-57 705,4 -4,4"/>
<!-- Node32 -->
<g id="node1" class="node"><title>Node32</title>
<polygon fill="#bfbfbf" stroke="black" points="0,-22.5 0,-52.5 115,-52.5 115,-22.5 0,-22.5"/>
<text text-anchor="start" x="8" y="-40.5" font-family="Helvetica,sans-Serif" font-size="10.00">mom_entrain_diffusive</text>
<text text-anchor="middle" x="57.5" y="-29.5" font-family="Helvetica,sans-Serif" font-size="10.00">::f_kb_to_ea_kb</text>
</g>
<!-- Node33 -->
<g id="node2" class="node"><title>Node33</title>
<g id="a_node2"><a xlink:href="namespacemom__entrain__diffusive.html#aa2d2f462912ba1e201b1b73e62a905f3" target="_top" xlink:title="This subroutine determines the reference density difference between the bottommost buffer layer and t...">
<polygon fill="white" stroke="black" points="302,-22.5 302,-52.5 417,-52.5 417,-22.5 302,-22.5"/>
<text text-anchor="start" x="310" y="-40.5" font-family="Helvetica,sans-Serif" font-size="10.00">mom_entrain_diffusive</text>
<text text-anchor="middle" x="359.5" y="-29.5" font-family="Helvetica,sans-Serif" font-size="10.00">::determine_dskb</text>
</a>
</g>
</g>
<!-- Node32&#45;&gt;Node33 -->
<g id="edge1" class="edge"><title>Node32&#45;&gt;Node33</title>
<path fill="none" stroke="midnightblue" d="M115.238,-39.6309C127.055,-39.9931 139.433,-40.3125 151,-40.5 202.104,-41.3285 214.896,-41.3285 266,-40.5 274.314,-40.3652 283.046,-40.1623 291.688,-39.9244"/>
<polygon fill="midnightblue" stroke="midnightblue" points="291.868,-43.4207 301.762,-39.6309 291.664,-36.4237 291.868,-43.4207"/>
</g>
<!-- Node36 -->
<g id="node5" class="node"><title>Node36</title>
<g id="a_node5"><a xlink:href="namespacemom__entrain__diffusive.html#ae45dbf976314c3a9e278ebcebedab109" target="_top" xlink:title="mom_entrain_diffusive\l::find_maxf_kb">
<polygon fill="white" stroke="black" points="151,-0.5 151,-30.5 266,-30.5 266,-0.5 151,-0.5"/>
<text text-anchor="start" x="159" y="-18.5" font-family="Helvetica,sans-Serif" font-size="10.00">mom_entrain_diffusive</text>
<text text-anchor="middle" x="208.5" y="-7.5" font-family="Helvetica,sans-Serif" font-size="10.00">::find_maxf_kb</text>
</a>
</g>
</g>
<!-- Node32&#45;&gt;Node36 -->
<g id="edge4" class="edge"><title>Node32&#45;&gt;Node36</title>
<path fill="none" stroke="midnightblue" d="M115.256,-29.12C123.649,-27.8806 132.362,-26.5942 140.933,-25.3287"/>
<polygon fill="midnightblue" stroke="midnightblue" points="141.521,-28.7799 150.902,-23.8567 140.498,-21.855 141.521,-28.7799"/>
</g>
<!-- Node34 -->
<g id="node3" class="node"><title>Node34</title>
<g id="a_node3"><a xlink:href="namespacemom__error__handler.html#a460cfb79a06c29fc249952c2a3710d67" target="_top" xlink:title="mom_error_handler::\lmom_error">
<polygon fill="white" stroke="black" points="453,-22.5 453,-52.5 559,-52.5 559,-22.5 453,-22.5"/>
<text text-anchor="start" x="461" y="-40.5" font-family="Helvetica,sans-Serif" font-size="10.00">mom_error_handler::</text>
<text text-anchor="middle" x="506" y="-29.5" font-family="Helvetica,sans-Serif" font-size="10.00">mom_error</text>
</a>
</g>
</g>
<!-- Node33&#45;&gt;Node34 -->
<g id="edge2" class="edge"><title>Node33&#45;&gt;Node34</title>
<path fill="none" stroke="midnightblue" d="M417.195,-37.5C425.515,-37.5 434.123,-37.5 442.55,-37.5"/>
<polygon fill="midnightblue" stroke="midnightblue" points="442.708,-41.0001 452.708,-37.5 442.708,-34.0001 442.708,-41.0001"/>
</g>
<!-- Node35 -->
<g id="node4" class="node"><title>Node35</title>
<g id="a_node4"><a xlink:href="namespacemom__error__handler.html#ad5f00a53059c72fe2332d1436c80ca71" target="_top" xlink:title="mom_error_handler::\lis_root_pe">
<polygon fill="white" stroke="black" points="595,-22.5 595,-52.5 701,-52.5 701,-22.5 595,-22.5"/>
<text text-anchor="start" x="603" y="-40.5" font-family="Helvetica,sans-Serif" font-size="10.00">mom_error_handler::</text>
<text text-anchor="middle" x="648" y="-29.5" font-family="Helvetica,sans-Serif" font-size="10.00">is_root_pe</text>
</a>
</g>
</g>
<!-- Node34&#45;&gt;Node35 -->
<g id="edge3" class="edge"><title>Node34&#45;&gt;Node35</title>
<path fill="none" stroke="midnightblue" d="M559.131,-37.5C567.421,-37.5 576.07,-37.5 584.568,-37.5"/>
<polygon fill="midnightblue" stroke="midnightblue" points="584.826,-41.0001 594.826,-37.5 584.826,-34.0001 584.826,-41.0001"/>
</g>
<!-- Node36&#45;&gt;Node33 -->
<g id="edge5" class="edge"><title>Node36&#45;&gt;Node33</title>
<path fill="none" stroke="midnightblue" d="M266.256,-23.88C274.649,-25.1194 283.362,-26.4058 291.933,-27.6713"/>
<polygon fill="midnightblue" stroke="midnightblue" points="291.498,-31.145 301.902,-29.1433 292.521,-24.2201 291.498,-31.145"/>
</g>
</g>
</svg>
