<?xml version="1.0" encoding="UTF-8" standalone="no"?>
<!DOCTYPE svg PUBLIC "-//W3C//DTD SVG 1.1//EN"
 "http://www.w3.org/Graphics/SVG/1.1/DTD/svg11.dtd">
<!-- Generated by graphviz version 2.38.0 (20140413.2041)
 -->
<!-- Title: regrid_edge_slopes::edge_slopes_implicit_h5 Pages: 1 -->
<svg width="1316pt" height="282pt"
 viewBox="0.00 0.00 1316.00 282.00" xmlns="http://www.w3.org/2000/svg" xmlns:xlink="http://www.w3.org/1999/xlink">
<g id="graph0" class="graph" transform="scale(1 1) rotate(0) translate(4 278)">
<title>regrid_edge_slopes::edge_slopes_implicit_h5</title>
<polygon fill="white" stroke="none" points="-4,4 -4,-278 1312,-278 1312,4 -4,4"/>
<!-- Node38 -->
<g id="node1" class="node"><title>Node38</title>
<polygon fill="#bfbfbf" stroke="black" points="0,-73.5 0,-103.5 129,-103.5 129,-73.5 0,-73.5"/>
<text text-anchor="start" x="8" y="-91.5" font-family="Helvetica,sans-Serif" font-size="10.00">regrid_edge_slopes</text>
<text text-anchor="middle" x="64.5" y="-80.5" font-family="Helvetica,sans-Serif" font-size="10.00">::edge_slopes_implicit_h5</text>
</g>
<!-- Node39 -->
<g id="node2" class="node"><title>Node39</title>
<g id="a_node2"><a xlink:href="namespacemom__remapping.html#a07d7276310f329f56560a1290bcb8b0a" target="_top" xlink:title="Creates polynomial reconstructions of u0 on the source grid h0. ">
<polygon fill="white" stroke="black" points="166.5,-98.5 166.5,-128.5 281.5,-128.5 281.5,-98.5 166.5,-98.5"/>
<text text-anchor="start" x="174.5" y="-116.5" font-family="Helvetica,sans-Serif" font-size="10.00">mom_remapping::build</text>
<text text-anchor="middle" x="224" y="-105.5" font-family="Helvetica,sans-Serif" font-size="10.00">_reconstructions_1d</text>
</a>
</g>
</g>
<!-- Node38&#45;&gt;Node39 -->
<g id="edge1" class="edge"><title>Node38&#45;&gt;Node39</title>
<path fill="none" stroke="midnightblue" d="M138.989,-100.165C148.152,-101.619 157.41,-103.089 166.264,-104.494"/>
<polygon fill="midnightblue" stroke="midnightblue" points="139.532,-96.7074 129.107,-98.5964 138.435,-103.621 139.532,-96.7074"/>
</g>
<!-- Node59 -->
<g id="node22" class="node"><title>Node59</title>
<g id="a_node22"><a xlink:href="namespaceregrid__interp.html#a1dfc0e2c1924dddd25b9102ec2ecf06e" target="_top" xlink:title="Given the set of target values and cell densities, this routine builds an interpolated profile for th...">
<polygon fill="white" stroke="black" points="165,-49.5 165,-79.5 283,-79.5 283,-49.5 165,-49.5"/>
<text text-anchor="start" x="173" y="-67.5" font-family="Helvetica,sans-Serif" font-size="10.00">regrid_interp::regridding</text>
<text text-anchor="middle" x="224" y="-56.5" font-family="Helvetica,sans-Serif" font-size="10.00">_set_ppolys</text>
</a>
</g>
</g>
<!-- Node38&#45;&gt;Node59 -->
<g id="edge24" class="edge"><title>Node38&#45;&gt;Node59</title>
<path fill="none" stroke="midnightblue" d="M139.135,-77.2794C147.73,-75.9697 156.407,-74.6475 164.753,-73.3757"/>
<polygon fill="midnightblue" stroke="midnightblue" points="138.466,-73.8409 129.107,-78.8075 139.52,-80.761 138.466,-73.8409"/>
</g>
<!-- Node40 -->
<g id="node3" class="node"><title>Node40</title>
<g id="a_node3"><a xlink:href="namespacemom__remapping.html#a9ed32f0c2764a3ead9311670315dc26c" target="_top" xlink:title="Remaps column of values u0 on grid h0 to grid h1 assuming the top edge is aligned. ">
<polygon fill="white" stroke="black" points="319,-98.5 319,-128.5 459,-128.5 459,-98.5 319,-98.5"/>
<text text-anchor="start" x="327" y="-116.5" font-family="Helvetica,sans-Serif" font-size="10.00">mom_remapping::remapping</text>
<text text-anchor="middle" x="389" y="-105.5" font-family="Helvetica,sans-Serif" font-size="10.00">_core_h</text>
</a>
</g>
</g>
<!-- Node39&#45;&gt;Node40 -->
<g id="edge2" class="edge"><title>Node39&#45;&gt;Node40</title>
<path fill="none" stroke="midnightblue" d="M291.589,-113.5C300.595,-113.5 309.853,-113.5 318.902,-113.5"/>
<polygon fill="midnightblue" stroke="midnightblue" points="291.552,-110 281.552,-113.5 291.552,-117 291.552,-110"/>
</g>
<!-- Node56 -->
<g id="node19" class="node"><title>Node56</title>
<g id="a_node19"><a xlink:href="namespacemom__remapping.html#a8b967872b8db2ac7d538991f7f255e56" target="_top" xlink:title="Remaps column of values u0 on grid h0 to implied grid h1 where the interfaces of h1 differ from those...">
<polygon fill="white" stroke="black" points="319,-193.5 319,-223.5 459,-223.5 459,-193.5 319,-193.5"/>
<text text-anchor="start" x="327" y="-211.5" font-family="Helvetica,sans-Serif" font-size="10.00">mom_remapping::remapping</text>
<text text-anchor="middle" x="389" y="-200.5" font-family="Helvetica,sans-Serif" font-size="10.00">_core_w</text>
</a>
</g>
</g>
<!-- Node39&#45;&gt;Node56 -->
<g id="edge20" class="edge"><title>Node39&#45;&gt;Node56</title>
<path fill="none" stroke="midnightblue" d="M259.482,-133.597C290.132,-151.461 334.268,-177.184 362.024,-193.36"/>
<polygon fill="midnightblue" stroke="midnightblue" points="261.23,-130.565 250.828,-128.553 257.705,-136.612 261.23,-130.565"/>
</g>
<!-- Node41 -->
<g id="node4" class="node"><title>Node41</title>
<g id="a_node4"><a xlink:href="namespacecoord__rho.html#a6f5a56ba973e5e36820222a709614e40" target="_top" xlink:title="coord_rho::build_rho\l_column">
<polygon fill="white" stroke="black" points="513,-49.5 513,-79.5 617,-79.5 617,-49.5 513,-49.5"/>
<text text-anchor="start" x="521" y="-67.5" font-family="Helvetica,sans-Serif" font-size="10.00">coord_rho::build_rho</text>
<text text-anchor="middle" x="565" y="-56.5" font-family="Helvetica,sans-Serif" font-size="10.00">_column</text>
</a>
</g>
</g>
<!-- Node40&#45;&gt;Node41 -->
<g id="edge3" class="edge"><title>Node40&#45;&gt;Node41</title>
<path fill="none" stroke="midnightblue" d="M453.384,-95.6504C472.972,-90.1343 494.288,-84.1316 512.932,-78.8811"/>
<polygon fill="midnightblue" stroke="midnightblue" points="452.302,-92.3189 443.626,-98.3986 454.2,-99.0568 452.302,-92.3189"/>
</g>
<!-- Node43 -->
<g id="node6" class="node"><title>Node43</title>
<g id="a_node6"><a xlink:href="namespacemom__state__initialization.html#a71ee3c056ca59c1c3529a4ec22e09fe3" target="_top" xlink:title="Adjust the layer thicknesses by cutting away the top at the depth where the hydrostatic pressure matc...">
<polygon fill="white" stroke="black" points="504,-142.5 504,-172.5 626,-172.5 626,-142.5 504,-142.5"/>
<text text-anchor="start" x="512" y="-160.5" font-family="Helvetica,sans-Serif" font-size="10.00">mom_state_initialization</text>
<text text-anchor="middle" x="565" y="-149.5" font-family="Helvetica,sans-Serif" font-size="10.00">::cut_off_column_top</text>
</a>
</g>
</g>
<!-- Node40&#45;&gt;Node43 -->
<g id="edge5" class="edge"><title>Node40&#45;&gt;Node43</title>
<path fill="none" stroke="midnightblue" d="M459.147,-130.985C474.181,-134.787 489.959,-138.777 504.578,-142.474"/>
<polygon fill="midnightblue" stroke="midnightblue" points="459.947,-127.578 449.394,-128.519 458.231,-134.364 459.947,-127.578"/>
</g>
<!-- Node49 -->
<g id="node12" class="node"><title>Node49</title>
<g id="a_node12"><a xlink:href="namespacemom__diag__remap.html#a4b76283906971bcb94e85c0ed25f4e7b" target="_top" xlink:title="Remap diagnostic field to alternative vertical grid. ">
<polygon fill="white" stroke="black" points="506,-191.5 506,-221.5 624,-221.5 624,-191.5 506,-191.5"/>
<text text-anchor="start" x="514" y="-209.5" font-family="Helvetica,sans-Serif" font-size="10.00">mom_diag_remap::diag</text>
<text text-anchor="middle" x="565" y="-198.5" font-family="Helvetica,sans-Serif" font-size="10.00">_remap_do_remap</text>
</a>
</g>
</g>
<!-- Node40&#45;&gt;Node49 -->
<g id="edge11" class="edge"><title>Node40&#45;&gt;Node49</title>
<path fill="none" stroke="midnightblue" d="M418.753,-134.671C439.282,-149.14 467.941,-168.055 495,-181.5 502.188,-185.072 510.018,-188.4 517.737,-191.387"/>
<polygon fill="midnightblue" stroke="midnightblue" points="420.655,-131.729 410.481,-128.772 416.59,-137.428 420.655,-131.729"/>
</g>
<!-- Node50 -->
<g id="node13" class="node"><title>Node50</title>
<g id="a_node13"><a xlink:href="namespacemom__wave__speed.html#a72302e356c47c5055ba0b1a8714c772a" target="_top" xlink:title="Calculates the wave speed of the first baroclinic mode. ">
<polygon fill="white" stroke="black" points="671,-98.5 671,-128.5 799,-128.5 799,-98.5 671,-98.5"/>
<text text-anchor="start" x="679" y="-116.5" font-family="Helvetica,sans-Serif" font-size="10.00">mom_wave_speed::wave</text>
<text text-anchor="middle" x="735" y="-105.5" font-family="Helvetica,sans-Serif" font-size="10.00">_speed</text>
</a>
</g>
</g>
<!-- Node40&#45;&gt;Node50 -->
<g id="edge12" class="edge"><title>Node40&#45;&gt;Node50</title>
<path fill="none" stroke="midnightblue" d="M469.218,-113.5C530.505,-113.5 614.22,-113.5 670.992,-113.5"/>
<polygon fill="midnightblue" stroke="midnightblue" points="469.2,-110 459.2,-113.5 469.2,-117 469.2,-110"/>
</g>
<!-- Node42 -->
<g id="node5" class="node"><title>Node42</title>
<g id="a_node5"><a xlink:href="namespacemom__diag__remap.html#a1fb71d2982777f33bcbf183187e1819b" target="_top" xlink:title="Build/update target vertical grids for diagnostic remapping. ">
<polygon fill="white" stroke="black" points="676,-49.5 676,-79.5 794,-79.5 794,-49.5 676,-49.5"/>
<text text-anchor="start" x="684" y="-67.5" font-family="Helvetica,sans-Serif" font-size="10.00">mom_diag_remap::diag</text>
<text text-anchor="middle" x="735" y="-56.5" font-family="Helvetica,sans-Serif" font-size="10.00">_remap_update</text>
</a>
</g>
</g>
<!-- Node41&#45;&gt;Node42 -->
<g id="edge4" class="edge"><title>Node41&#45;&gt;Node42</title>
<path fill="none" stroke="midnightblue" d="M627.523,-64.5C643.343,-64.5 660.311,-64.5 675.949,-64.5"/>
<polygon fill="midnightblue" stroke="midnightblue" points="627.318,-61.0001 617.318,-64.5 627.318,-68.0001 627.318,-61.0001"/>
</g>
<!-- Node44 -->
<g id="node7" class="node"><title>Node44</title>
<g id="a_node7"><a xlink:href="namespacemom__state__initialization.html#a5c77bf2b0ea9d28e28b661a2a42d3f88" target="_top" xlink:title="Run simple unit tests. ">
<polygon fill="white" stroke="black" points="674,-147.5 674,-177.5 796,-177.5 796,-147.5 674,-147.5"/>
<text text-anchor="start" x="682" y="-165.5" font-family="Helvetica,sans-Serif" font-size="10.00">mom_state_initialization</text>
<text text-anchor="middle" x="735" y="-154.5" font-family="Helvetica,sans-Serif" font-size="10.00">::mom_state_init_tests</text>
</a>
</g>
</g>
<!-- Node43&#45;&gt;Node44 -->
<g id="edge6" class="edge"><title>Node43&#45;&gt;Node44</title>
<path fill="none" stroke="midnightblue" d="M636.517,-159.599C648.97,-159.969 661.829,-160.352 673.961,-160.713"/>
<polygon fill="midnightblue" stroke="midnightblue" points="636.277,-156.09 626.177,-159.291 636.069,-163.087 636.277,-156.09"/>
</g>
<!-- Node45 -->
<g id="node8" class="node"><title>Node45</title>
<g id="a_node8"><a xlink:href="namespacemom__state__initialization.html#ac29cd3c6b5de2b36b9690d800ac98a09" target="_top" xlink:title="Adjust the layer thicknesses by cutting away the top of each model column at the depth where the hydr...">
<polygon fill="white" stroke="black" points="674,-196.5 674,-226.5 796,-226.5 796,-196.5 674,-196.5"/>
<text text-anchor="start" x="682" y="-214.5" font-family="Helvetica,sans-Serif" font-size="10.00">mom_state_initialization</text>
<text text-anchor="middle" x="735" y="-203.5" font-family="Helvetica,sans-Serif" font-size="10.00">::trim_for_ice</text>
</a>
</g>
</g>
<!-- Node43&#45;&gt;Node45 -->
<g id="edge7" class="edge"><title>Node43&#45;&gt;Node45</title>
<path fill="none" stroke="midnightblue" d="M622.557,-175.679C643.556,-182.429 667.126,-190.005 687.163,-196.445"/>
<polygon fill="midnightblue" stroke="midnightblue" points="623.389,-172.27 612.797,-172.542 621.247,-178.934 623.389,-172.27"/>
</g>
<!-- Node46 -->
<g id="node9" class="node"><title>Node46</title>
<g id="a_node9"><a xlink:href="namespacemom__state__initialization.html#af4e854627c6572332ba3fd895f169321" target="_top" xlink:title="mom_state_initialization\l::mom_initialize_state">
<polygon fill="white" stroke="black" points="854,-194.5 854,-224.5 976,-224.5 976,-194.5 854,-194.5"/>
<text text-anchor="start" x="862" y="-212.5" font-family="Helvetica,sans-Serif" font-size="10.00">mom_state_initialization</text>
<text text-anchor="middle" x="915" y="-201.5" font-family="Helvetica,sans-Serif" font-size="10.00">::mom_initialize_state</text>
</a>
</g>
</g>
<!-- Node45&#45;&gt;Node46 -->
<g id="edge8" class="edge"><title>Node45&#45;&gt;Node46</title>
<path fill="none" stroke="midnightblue" d="M806.426,-210.709C822.1,-210.533 838.58,-210.347 853.799,-210.176"/>
<polygon fill="midnightblue" stroke="midnightblue" points="806.223,-207.211 796.263,-210.823 806.301,-214.21 806.223,-207.211"/>
</g>
<!-- Node47 -->
<g id="node10" class="node"><title>Node47</title>
<g id="a_node10"><a xlink:href="namespacemom.html#a0be2869fef30e1e0604facfe1b41555d" target="_top" xlink:title="This subroutine initializes MOM. ">
<polygon fill="white" stroke="black" points="1031,-200 1031,-219 1138,-219 1138,-200 1031,-200"/>
<text text-anchor="middle" x="1084.5" y="-207" font-family="Helvetica,sans-Serif" font-size="10.00">mom::initialize_mom</text>
</a>
</g>
</g>
<!-- Node46&#45;&gt;Node47 -->
<g id="edge9" class="edge"><title>Node46&#45;&gt;Node47</title>
<path fill="none" stroke="midnightblue" d="M986.624,-209.5C1001.45,-209.5 1016.84,-209.5 1030.88,-209.5"/>
<polygon fill="midnightblue" stroke="midnightblue" points="986.471,-206 976.471,-209.5 986.471,-213 986.471,-206"/>
</g>
<!-- Node48 -->
<g id="node11" class="node"><title>Node48</title>
<g id="a_node11"><a xlink:href="MOM__driver_8F90.html#a08fffeb2d8e8acbf9ed4609be6d258c6" target="_top" xlink:title="mom_main">
<polygon fill="white" stroke="black" points="1208.5,-139 1208.5,-158 1273.5,-158 1273.5,-139 1208.5,-139"/>
<text text-anchor="middle" x="1241" y="-146" font-family="Helvetica,sans-Serif" font-size="10.00">mom_main</text>
</a>
</g>
</g>
<!-- Node47&#45;&gt;Node48 -->
<g id="edge10" class="edge"><title>Node47&#45;&gt;Node48</title>
<path fill="none" stroke="midnightblue" d="M1119.01,-196.268C1148.18,-184.754 1189.74,-168.344 1215.77,-158.065"/>
<polygon fill="midnightblue" stroke="midnightblue" points="1117.66,-193.041 1109.64,-199.969 1120.23,-199.552 1117.66,-193.041"/>
</g>
<!-- Node51 -->
<g id="node14" class="node"><title>Node51</title>
<g id="a_node14"><a xlink:href="namespacemom__lateral__mixing__coeffs.html#af206bc656869b4fc27d4d7e8a15d438e" target="_top" xlink:title="Calculates and stores the non&#45;dimensional resolution functions. ">
<polygon fill="white" stroke="black" points="863,-85 863,-126 967,-126 967,-85 863,-85"/>
<text text-anchor="start" x="871" y="-114" font-family="Helvetica,sans-Serif" font-size="10.00">mom_lateral_mixing</text>
<text text-anchor="start" x="871" y="-103" font-family="Helvetica,sans-Serif" font-size="10.00">_coeffs::calc_resoln</text>
<text text-anchor="middle" x="915" y="-92" font-family="Helvetica,sans-Serif" font-size="10.00">_function</text>
</a>
</g>
</g>
<!-- Node50&#45;&gt;Node51 -->
<g id="edge13" class="edge"><title>Node50&#45;&gt;Node51</title>
<path fill="none" stroke="midnightblue" d="M809.189,-110.211C827.196,-109.401 846.095,-108.552 862.808,-107.801"/>
<polygon fill="midnightblue" stroke="midnightblue" points="808.839,-106.723 799.007,-110.668 809.154,-113.716 808.839,-106.723"/>
</g>
<!-- Node55 -->
<g id="node18" class="node"><title>Node55</title>
<g id="a_node18"><a xlink:href="namespacemom__diagnostics.html#abb6644248c28ab2e952361bfec436063" target="_top" xlink:title="Diagnostics not more naturally calculated elsewhere are computed here. ">
<polygon fill="white" stroke="black" points="846,-145.5 846,-175.5 984,-175.5 984,-145.5 846,-145.5"/>
<text text-anchor="start" x="854" y="-163.5" font-family="Helvetica,sans-Serif" font-size="10.00">mom_diagnostics::calculate</text>
<text text-anchor="middle" x="915" y="-152.5" font-family="Helvetica,sans-Serif" font-size="10.00">_diagnostic_fields</text>
</a>
</g>
</g>
<!-- Node50&#45;&gt;Node55 -->
<g id="edge19" class="edge"><title>Node50&#45;&gt;Node55</title>
<path fill="none" stroke="midnightblue" d="M802.617,-131.09C820.547,-135.824 839.773,-140.901 857.119,-145.481"/>
<polygon fill="midnightblue" stroke="midnightblue" points="803.372,-127.669 792.81,-128.5 801.585,-134.437 803.372,-127.669"/>
</g>
<!-- Node52 -->
<g id="node15" class="node"><title>Node52</title>
<g id="a_node15"><a xlink:href="namespacemom.html#a4c8332b095c6d295084089aa6b3b678a" target="_top" xlink:title="This subroutine orchestrates the time stepping of MOM. The adiabatic dynamics are stepped by calls to...">
<polygon fill="white" stroke="black" points="1039.5,-137 1039.5,-156 1129.5,-156 1129.5,-137 1039.5,-137"/>
<text text-anchor="middle" x="1084.5" y="-144" font-family="Helvetica,sans-Serif" font-size="10.00">mom::step_mom</text>
</a>
</g>
</g>
<!-- Node51&#45;&gt;Node52 -->
<g id="edge14" class="edge"><title>Node51&#45;&gt;Node52</title>
<path fill="none" stroke="midnightblue" d="M977.006,-120.433C999.576,-125.958 1024.53,-132.066 1044.61,-136.98"/>
<polygon fill="midnightblue" stroke="midnightblue" points="977.711,-117.002 967.166,-118.024 976.047,-123.801 977.711,-117.002"/>
</g>
<!-- Node53 -->
<g id="node16" class="node"><title>Node53</title>
<g id="a_node16"><a xlink:href="namespacemom.html#ad56e17a755c7078ccea29ccbae4d5803" target="_top" xlink:title="step_offline is the main driver for running tracers offline in MOM6. This has been primarily develope...">
<polygon fill="white" stroke="black" points="1037,-96 1037,-115 1132,-115 1132,-96 1037,-96"/>
<text text-anchor="middle" x="1084.5" y="-103" font-family="Helvetica,sans-Serif" font-size="10.00">mom::step_offline</text>
</a>
</g>
</g>
<!-- Node51&#45;&gt;Node53 -->
<g id="edge16" class="edge"><title>Node51&#45;&gt;Node53</title>
<path fill="none" stroke="midnightblue" d="M977.277,-105.5C996.972,-105.5 1018.46,-105.5 1036.92,-105.5"/>
<polygon fill="midnightblue" stroke="midnightblue" points="977.166,-102 967.166,-105.5 977.166,-109 977.166,-102"/>
</g>
<!-- Node52&#45;&gt;Node48 -->
<g id="edge15" class="edge"><title>Node52&#45;&gt;Node48</title>
<path fill="none" stroke="midnightblue" d="M1140.06,-147.206C1162.98,-147.503 1188.81,-147.837 1208.48,-148.092"/>
<polygon fill="midnightblue" stroke="midnightblue" points="1139.82,-143.703 1129.77,-147.073 1139.73,-150.702 1139.82,-143.703"/>
</g>
<!-- Node53&#45;&gt;Node48 -->
<g id="edge17" class="edge"><title>Node53&#45;&gt;Node48</title>
<path fill="none" stroke="midnightblue" d="M1129.48,-117.739C1154.66,-124.749 1185.68,-133.381 1208.44,-139.716"/>
<polygon fill="midnightblue" stroke="midnightblue" points="1130.36,-114.353 1119.79,-115.043 1128.48,-121.096 1130.36,-114.353"/>
</g>
<!-- Node54 -->
<g id="node17" class="node"><title>Node54</title>
<g id="a_node17"><a xlink:href="namespaceocean__model__mod.html#ac9dc1795fc4799d6682f462857b42d62" target="_top" xlink:title="ocean_model_mod::update\l_ocean_model">
<polygon fill="white" stroke="black" points="1174,-89.5 1174,-119.5 1308,-119.5 1308,-89.5 1174,-89.5"/>
<text text-anchor="start" x="1182" y="-107.5" font-family="Helvetica,sans-Serif" font-size="10.00">ocean_model_mod::update</text>
<text text-anchor="middle" x="1241" y="-96.5" font-family="Helvetica,sans-Serif" font-size="10.00">_ocean_model</text>
</a>
</g>
</g>
<!-- Node53&#45;&gt;Node54 -->
<g id="edge18" class="edge"><title>Node53&#45;&gt;Node54</title>
<path fill="none" stroke="midnightblue" d="M1142.3,-105.132C1152.52,-105.066 1163.26,-104.997 1173.72,-104.929"/>
<polygon fill="midnightblue" stroke="midnightblue" points="1142.25,-101.633 1132.27,-105.197 1142.3,-108.632 1142.25,-101.633"/>
</g>
<!-- Node57 -->
<g id="node20" class="node"><title>Node57</title>
<g id="a_node20"><a xlink:href="namespacemom__remapping.html#a5849f564453d5ed76fb4feffd41eca26" target="_top" xlink:title="Runs unit tests on remapping functions. Should only be called from a single/root thread Returns True ...">
<polygon fill="white" stroke="black" points="495,-240.5 495,-270.5 635,-270.5 635,-240.5 495,-240.5"/>
<text text-anchor="start" x="503" y="-258.5" font-family="Helvetica,sans-Serif" font-size="10.00">mom_remapping::remapping</text>
<text text-anchor="middle" x="565" y="-247.5" font-family="Helvetica,sans-Serif" font-size="10.00">_unit_tests</text>
</a>
</g>
</g>
<!-- Node56&#45;&gt;Node57 -->
<g id="edge21" class="edge"><title>Node56&#45;&gt;Node57</title>
<path fill="none" stroke="midnightblue" d="M455.607,-226.222C472.995,-230.918 491.598,-235.943 508.398,-240.481"/>
<polygon fill="midnightblue" stroke="midnightblue" points="456.1,-222.729 445.533,-223.5 454.274,-229.487 456.1,-222.729"/>
</g>
<!-- Node58 -->
<g id="node21" class="node"><title>Node58</title>
<g id="a_node21"><a xlink:href="namespacemom__unit__tests.html#a71f3a2080872634c14a25a9411b59fe0" target="_top" xlink:title="Calls unit tests for other modules. Note that if a unit test returns true, a FATAL error is triggered...">
<polygon fill="white" stroke="black" points="861,-243.5 861,-273.5 969,-273.5 969,-243.5 861,-243.5"/>
<text text-anchor="start" x="869" y="-261.5" font-family="Helvetica,sans-Serif" font-size="10.00">mom_unit_tests::unit</text>
<text text-anchor="middle" x="915" y="-250.5" font-family="Helvetica,sans-Serif" font-size="10.00">_tests</text>
</a>
</g>
</g>
<!-- Node57&#45;&gt;Node58 -->
<g id="edge22" class="edge"><title>Node57&#45;&gt;Node58</title>
<path fill="none" stroke="midnightblue" d="M645.528,-256.186C711.516,-256.754 803.518,-257.548 860.878,-258.042"/>
<polygon fill="midnightblue" stroke="midnightblue" points="645.2,-252.683 635.17,-256.096 645.139,-259.682 645.2,-252.683"/>
</g>
<!-- Node58&#45;&gt;Node47 -->
<g id="edge23" class="edge"><title>Node58&#45;&gt;Node47</title>
<path fill="none" stroke="midnightblue" d="M977.383,-240.543C1002.33,-233.246 1030.13,-225.112 1051.02,-219.002"/>
<polygon fill="midnightblue" stroke="midnightblue" points="976.237,-237.232 967.622,-243.399 978.203,-243.95 976.237,-237.232"/>
</g>
<!-- Node60 -->
<g id="node23" class="node"><title>Node60</title>
<g id="a_node23"><a xlink:href="namespaceregrid__interp.html#a4d634eff5836d643ef27129fc934853a" target="_top" xlink:title="regrid_interp::build\l_and_interpolate_grid">
<polygon fill="white" stroke="black" points="334.5,-49.5 334.5,-79.5 443.5,-79.5 443.5,-49.5 334.5,-49.5"/>
<text text-anchor="start" x="342.5" y="-67.5" font-family="Helvetica,sans-Serif" font-size="10.00">regrid_interp::build</text>
<text text-anchor="middle" x="389" y="-56.5" font-family="Helvetica,sans-Serif" font-size="10.00">_and_interpolate_grid</text>
</a>
</g>
</g>
<!-- Node59&#45;&gt;Node60 -->
<g id="edge25" class="edge"><title>Node59&#45;&gt;Node60</title>
<path fill="none" stroke="midnightblue" d="M293.665,-64.5C307.265,-64.5 321.353,-64.5 334.365,-64.5"/>
<polygon fill="midnightblue" stroke="midnightblue" points="293.386,-61.0001 283.386,-64.5 293.386,-68.0001 293.386,-61.0001"/>
</g>
<!-- Node60&#45;&gt;Node41 -->
<g id="edge29" class="edge"><title>Node60&#45;&gt;Node41</title>
<path fill="none" stroke="midnightblue" d="M453.653,-64.5C473.167,-64.5 494.373,-64.5 512.932,-64.5"/>
<polygon fill="midnightblue" stroke="midnightblue" points="453.626,-61.0001 443.626,-64.5 453.625,-68.0001 453.626,-61.0001"/>
</g>
<!-- Node61 -->
<g id="node24" class="node"><title>Node61</title>
<g id="a_node24"><a xlink:href="namespacecoord__hycom.html#a863abf3f62297588e4a3065fbf9333ea" target="_top" xlink:title="Build a HyCOM coordinate column. ">
<polygon fill="white" stroke="black" points="514.5,-0.5 514.5,-30.5 615.5,-30.5 615.5,-0.5 514.5,-0.5"/>
<text text-anchor="start" x="522.5" y="-18.5" font-family="Helvetica,sans-Serif" font-size="10.00">coord_hycom::build</text>
<text text-anchor="middle" x="565" y="-7.5" font-family="Helvetica,sans-Serif" font-size="10.00">_hycom1_column</text>
</a>
</g>
</g>
<!-- Node60&#45;&gt;Node61 -->
<g id="edge26" class="edge"><title>Node60&#45;&gt;Node61</title>
<path fill="none" stroke="midnightblue" d="M453.335,-46.6644C473.454,-40.9986 495.401,-34.8182 514.406,-29.4661"/>
<polygon fill="midnightblue" stroke="midnightblue" points="452.302,-43.3189 443.626,-49.3986 454.2,-50.0568 452.302,-43.3189"/>
</g>
<!-- Node62 -->
<g id="node25" class="node"><title>Node62</title>
<g id="a_node25"><a xlink:href="namespacemom__regridding.html#ab3541b357806978862434ee19b1be774" target="_top" xlink:title="Builds a simple HyCOM&#45;like grid with the deepest location of potential density interpolated from the ...">
<polygon fill="white" stroke="black" points="679,-0.5 679,-30.5 791,-30.5 791,-0.5 679,-0.5"/>
<text text-anchor="start" x="687" y="-18.5" font-family="Helvetica,sans-Serif" font-size="10.00">mom_regridding::build</text>
<text text-anchor="middle" x="735" y="-7.5" font-family="Helvetica,sans-Serif" font-size="10.00">_grid_hycom1</text>
</a>
</g>
</g>
<!-- Node61&#45;&gt;Node62 -->
<g id="edge27" class="edge"><title>Node61&#45;&gt;Node62</title>
<path fill="none" stroke="midnightblue" d="M626.416,-15.5C643.566,-15.5 662.143,-15.5 678.957,-15.5"/>
<polygon fill="midnightblue" stroke="midnightblue" points="625.951,-12.0001 615.951,-15.5 625.951,-19.0001 625.951,-12.0001"/>
</g>
<!-- Node63 -->
<g id="node26" class="node"><title>Node63</title>
<g id="a_node26"><a xlink:href="namespacemom__regridding.html#ab354fe3423a39fef6f2b66f409b1682c" target="_top" xlink:title="mom_regridding::regridding_main">
<polygon fill="white" stroke="black" points="835,-6 835,-25 995,-25 995,-6 835,-6"/>
<text text-anchor="middle" x="915" y="-13" font-family="Helvetica,sans-Serif" font-size="10.00">mom_regridding::regridding_main</text>
</a>
</g>
</g>
<!-- Node62&#45;&gt;Node63 -->
<g id="edge28" class="edge"><title>Node62&#45;&gt;Node63</title>
<path fill="none" stroke="midnightblue" d="M801.554,-15.5C812.386,-15.5 823.716,-15.5 834.839,-15.5"/>
<polygon fill="midnightblue" stroke="midnightblue" points="801.345,-12.0001 791.345,-15.5 801.345,-19.0001 801.345,-12.0001"/>
</g>
</g>
</svg>
