<?xml version="1.0" encoding="UTF-8" standalone="no"?>
<!DOCTYPE svg PUBLIC "-//W3C//DTD SVG 1.1//EN"
 "http://www.w3.org/Graphics/SVG/1.1/DTD/svg11.dtd">
<!-- Generated by graphviz version 2.38.0 (20140413.2041)
 -->
<!-- Title: mom_ocmip2_co2calc_mod::drtsafe Pages: 1 -->
<svg width="302pt" height="39pt"
 viewBox="0.00 0.00 302.00 39.00" xmlns="http://www.w3.org/2000/svg" xmlns:xlink="http://www.w3.org/1999/xlink">
<g id="graph0" class="graph" transform="scale(1 1) rotate(0) translate(4 35)">
<title>mom_ocmip2_co2calc_mod::drtsafe</title>
<polygon fill="white" stroke="none" points="-4,4 -4,-35 298,-35 298,4 -4,4"/>
<!-- Node2 -->
<g id="node1" class="node"><title>Node2</title>
<polygon fill="#bfbfbf" stroke="black" points="0,-0.5 0,-30.5 114,-30.5 114,-0.5 0,-0.5"/>
<text text-anchor="start" x="8" y="-18.5" font-family="Helvetica,sans-Serif" font-size="10.00">mom_ocmip2_co2calc</text>
<text text-anchor="middle" x="57" y="-7.5" font-family="Helvetica,sans-Serif" font-size="10.00">_mod::drtsafe</text>
</g>
<!-- Node3 -->
<g id="node2" class="node"><title>Node3</title>
<g id="a_node2"><a xlink:href="namespacemom__ocmip2__co2calc__mod.html#a33244d2860fc6ef59fd35d3008f260a4" target="_top" xlink:title="mom_ocmip2_co2calc\l_mod::mom_ocmip2_co2calc">
<polygon fill="white" stroke="black" points="150,-0.5 150,-30.5 294,-30.5 294,-0.5 150,-0.5"/>
<text text-anchor="start" x="158" y="-18.5" font-family="Helvetica,sans-Serif" font-size="10.00">mom_ocmip2_co2calc</text>
<text text-anchor="middle" x="222" y="-7.5" font-family="Helvetica,sans-Serif" font-size="10.00">_mod::mom_ocmip2_co2calc</text>
</a>
</g>
</g>
<!-- Node2&#45;&gt;Node3 -->
<g id="edge1" class="edge"><title>Node2&#45;&gt;Node3</title>
<path fill="none" stroke="midnightblue" d="M124.241,-15.5C132.671,-15.5 141.327,-15.5 149.83,-15.5"/>
<polygon fill="midnightblue" stroke="midnightblue" points="124.095,-12.0001 114.095,-15.5 124.095,-19.0001 124.095,-12.0001"/>
</g>
</g>
</svg>
