<?xml version="1.0" encoding="UTF-8" standalone="no"?>
<!DOCTYPE svg PUBLIC "-//W3C//DTD SVG 1.1//EN"
 "http://www.w3.org/Graphics/SVG/1.1/DTD/svg11.dtd">
<!-- Generated by graphviz version 2.38.0 (20140413.2041)
 -->
<!-- Title: mom_domains::mom_domains_init Pages: 1 -->
<svg width="467pt" height="137pt"
 viewBox="0.00 0.00 467.00 137.00" xmlns="http://www.w3.org/2000/svg" xmlns:xlink="http://www.w3.org/1999/xlink">
<g id="graph0" class="graph" transform="scale(1 1) rotate(0) translate(4 133)">
<title>mom_domains::mom_domains_init</title>
<polygon fill="white" stroke="none" points="-4,4 -4,-133 463,-133 463,4 -4,4"/>
<!-- Node42 -->
<g id="node1" class="node"><title>Node42</title>
<polygon fill="#bfbfbf" stroke="black" points="0,-55 0,-74 168,-74 168,-55 0,-55"/>
<text text-anchor="middle" x="84" y="-62" font-family="Helvetica,sans-Serif" font-size="10.00">mom_domains::mom_domains_init</text>
</g>
<!-- Node43 -->
<g id="node2" class="node"><title>Node43</title>
<g id="a_node2"><a xlink:href="namespacemom__error__handler.html#a460cfb79a06c29fc249952c2a3710d67" target="_top" xlink:title="mom_error_handler::\lmom_error">
<polygon fill="white" stroke="black" points="207.5,-98.5 207.5,-128.5 313.5,-128.5 313.5,-98.5 207.5,-98.5"/>
<text text-anchor="start" x="215.5" y="-116.5" font-family="Helvetica,sans-Serif" font-size="10.00">mom_error_handler::</text>
<text text-anchor="middle" x="260.5" y="-105.5" font-family="Helvetica,sans-Serif" font-size="10.00">mom_error</text>
</a>
</g>
</g>
<!-- Node42&#45;&gt;Node43 -->
<g id="edge1" class="edge"><title>Node42&#45;&gt;Node43</title>
<path fill="none" stroke="midnightblue" d="M119.06,-74.064C141.311,-80.3122 171.025,-88.6561 197.391,-96.0597"/>
<polygon fill="midnightblue" stroke="midnightblue" points="196.736,-99.5109 207.31,-98.8448 198.628,-92.7716 196.736,-99.5109"/>
</g>
<!-- Node45 -->
<g id="node4" class="node"><title>Node45</title>
<g id="a_node4"><a xlink:href="namespacemom__error__handler.html#a1c462df7b61f1296407b4af51dfeceab" target="_top" xlink:title="mom_error_handler::\lmom_mesg">
<polygon fill="white" stroke="black" points="207.5,-49.5 207.5,-79.5 313.5,-79.5 313.5,-49.5 207.5,-49.5"/>
<text text-anchor="start" x="215.5" y="-67.5" font-family="Helvetica,sans-Serif" font-size="10.00">mom_error_handler::</text>
<text text-anchor="middle" x="260.5" y="-56.5" font-family="Helvetica,sans-Serif" font-size="10.00">mom_mesg</text>
</a>
</g>
</g>
<!-- Node42&#45;&gt;Node45 -->
<g id="edge3" class="edge"><title>Node42&#45;&gt;Node45</title>
<path fill="none" stroke="midnightblue" d="M168.161,-64.5C177.96,-64.5 187.828,-64.5 197.268,-64.5"/>
<polygon fill="midnightblue" stroke="midnightblue" points="197.322,-68.0001 207.322,-64.5 197.322,-61.0001 197.322,-68.0001"/>
</g>
<!-- Node46 -->
<g id="node5" class="node"><title>Node46</title>
<g id="a_node5"><a xlink:href="namespacemom__string__functions.html#af18b819f6c6a917c57b9690d0580f642" target="_top" xlink:title="Returns a directory name that is terminated with a &quot;/&quot; or &quot;./&quot; if the argument is an empty string...">
<polygon fill="white" stroke="black" points="204,-0.5 204,-30.5 317,-30.5 317,-0.5 204,-0.5"/>
<text text-anchor="start" x="212" y="-18.5" font-family="Helvetica,sans-Serif" font-size="10.00">mom_string_functions</text>
<text text-anchor="middle" x="260.5" y="-7.5" font-family="Helvetica,sans-Serif" font-size="10.00">::slasher</text>
</a>
</g>
</g>
<!-- Node42&#45;&gt;Node46 -->
<g id="edge5" class="edge"><title>Node42&#45;&gt;Node46</title>
<path fill="none" stroke="midnightblue" d="M119.06,-54.936C140.959,-48.7866 170.088,-40.6072 196.138,-33.2922"/>
<polygon fill="midnightblue" stroke="midnightblue" points="197.269,-36.6102 205.95,-30.537 195.376,-29.8708 197.269,-36.6102"/>
</g>
<!-- Node44 -->
<g id="node3" class="node"><title>Node44</title>
<g id="a_node3"><a xlink:href="namespacemom__error__handler.html#ad5f00a53059c72fe2332d1436c80ca71" target="_top" xlink:title="mom_error_handler::\lis_root_pe">
<polygon fill="white" stroke="black" points="353,-73.5 353,-103.5 459,-103.5 459,-73.5 353,-73.5"/>
<text text-anchor="start" x="361" y="-91.5" font-family="Helvetica,sans-Serif" font-size="10.00">mom_error_handler::</text>
<text text-anchor="middle" x="406" y="-80.5" font-family="Helvetica,sans-Serif" font-size="10.00">is_root_pe</text>
</a>
</g>
</g>
<!-- Node43&#45;&gt;Node44 -->
<g id="edge2" class="edge"><title>Node43&#45;&gt;Node44</title>
<path fill="none" stroke="midnightblue" d="M313.713,-104.404C323.11,-102.767 332.991,-101.045 342.642,-99.3637"/>
<polygon fill="midnightblue" stroke="midnightblue" points="343.335,-102.796 352.586,-97.6314 342.133,-95.8997 343.335,-102.796"/>
</g>
<!-- Node45&#45;&gt;Node44 -->
<g id="edge4" class="edge"><title>Node45&#45;&gt;Node44</title>
<path fill="none" stroke="midnightblue" d="M313.713,-73.2324C323.11,-74.8041 332.991,-76.4567 342.642,-78.0708"/>
<polygon fill="midnightblue" stroke="midnightblue" points="342.145,-81.5362 352.586,-79.7338 343.3,-74.6321 342.145,-81.5362"/>
</g>
</g>
</svg>
