<?xml version="1.0" encoding="UTF-8" standalone="no"?>
<!DOCTYPE svg PUBLIC "-//W3C//DTD SVG 1.1//EN"
 "http://www.w3.org/Graphics/SVG/1.1/DTD/svg11.dtd">
<!-- Generated by graphviz version 2.38.0 (20140413.2041)
 -->
<!-- Title: mom_barotropic::apply_velocity_obcs Pages: 1 -->
<svg width="292pt" height="66pt"
 viewBox="0.00 0.00 292.00 66.00" xmlns="http://www.w3.org/2000/svg" xmlns:xlink="http://www.w3.org/1999/xlink">
<g id="graph0" class="graph" transform="scale(1 1) rotate(0) translate(4 62)">
<title>mom_barotropic::apply_velocity_obcs</title>
<polygon fill="white" stroke="none" points="-4,4 -4,-62 288,-62 288,4 -4,4"/>
<!-- Node6 -->
<g id="node1" class="node"><title>Node6</title>
<polygon fill="#bfbfbf" stroke="black" points="0,-14 0,-44 116,-44 116,-14 0,-14"/>
<text text-anchor="start" x="8" y="-32" font-family="Helvetica,sans-Serif" font-size="10.00">mom_barotropic::apply</text>
<text text-anchor="middle" x="58" y="-21" font-family="Helvetica,sans-Serif" font-size="10.00">_velocity_obcs</text>
</g>
<!-- Node7 -->
<g id="node2" class="node"><title>Node7</title>
<g id="a_node2"><a xlink:href="namespacemom__barotropic.html#a8ad2b12e885746401a97fd65ad189722" target="_top" xlink:title="The function find_uhbt determines the zonal transport for a given velocity. ">
<polygon fill="white" stroke="black" points="152,-38.5 152,-57.5 284,-57.5 284,-38.5 152,-38.5"/>
<text text-anchor="middle" x="218" y="-45.5" font-family="Helvetica,sans-Serif" font-size="10.00">mom_barotropic::find_uhbt</text>
</a>
</g>
</g>
<!-- Node6&#45;&gt;Node7 -->
<g id="edge1" class="edge"><title>Node6&#45;&gt;Node7</title>
<path fill="none" stroke="midnightblue" d="M116.042,-35.8594C124.428,-36.8679 133.173,-37.9195 141.855,-38.9636"/>
<polygon fill="midnightblue" stroke="midnightblue" points="141.648,-42.4638 151.994,-40.1829 142.484,-35.5139 141.648,-42.4638"/>
</g>
<!-- Node8 -->
<g id="node3" class="node"><title>Node8</title>
<g id="a_node3"><a xlink:href="namespacemom__barotropic.html#ae96b701027f6f77feed0f68515b31e55" target="_top" xlink:title="The function find_vhbt determines the meridional transport for a given velocity. ">
<polygon fill="white" stroke="black" points="152,-0.5 152,-19.5 284,-19.5 284,-0.5 152,-0.5"/>
<text text-anchor="middle" x="218" y="-7.5" font-family="Helvetica,sans-Serif" font-size="10.00">mom_barotropic::find_vhbt</text>
</a>
</g>
</g>
<!-- Node6&#45;&gt;Node8 -->
<g id="edge2" class="edge"><title>Node6&#45;&gt;Node8</title>
<path fill="none" stroke="midnightblue" d="M116.042,-22.1406C124.428,-21.1321 133.173,-20.0805 141.855,-19.0364"/>
<polygon fill="midnightblue" stroke="midnightblue" points="142.484,-22.4861 151.994,-17.8171 141.648,-15.5362 142.484,-22.4861"/>
</g>
</g>
</svg>
