<?xml version="1.0" encoding="UTF-8" standalone="no"?>
<!DOCTYPE svg PUBLIC "-//W3C//DTD SVG 1.1//EN"
 "http://www.w3.org/Graphics/SVG/1.1/DTD/svg11.dtd">
<!-- Generated by graphviz version 2.38.0 (20140413.2041)
 -->
<!-- Title: mom_diag_remap::diag_remap_do_remap Pages: 1 -->
<svg width="1101pt" height="941pt"
 viewBox="0.00 0.00 1101.00 940.78" xmlns="http://www.w3.org/2000/svg" xmlns:xlink="http://www.w3.org/1999/xlink">
<g id="graph0" class="graph" transform="scale(1 1) rotate(0) translate(4 936.778)">
<title>mom_diag_remap::diag_remap_do_remap</title>
<polygon fill="white" stroke="none" points="-4,4 -4,-936.778 1097,-936.778 1097,4 -4,4"/>
<!-- Node12 -->
<g id="node1" class="node"><title>Node12</title>
<polygon fill="#bfbfbf" stroke="black" points="0,-67.778 0,-97.778 118,-97.778 118,-67.778 0,-67.778"/>
<text text-anchor="start" x="8" y="-85.778" font-family="Helvetica,sans-Serif" font-size="10.00">mom_diag_remap::diag</text>
<text text-anchor="middle" x="59" y="-74.778" font-family="Helvetica,sans-Serif" font-size="10.00">_remap_do_remap</text>
</g>
<!-- Node13 -->
<g id="node2" class="node"><title>Node13</title>
<g id="a_node2"><a xlink:href="namespacemom__error__handler.html#a33bcd190d460095104954f2e654f9fe6" target="_top" xlink:title="Issues a FATAL error if the assertion fails, i.e. the first argument is false. ">
<polygon fill="white" stroke="black" points="176,-67.778 176,-97.778 282,-97.778 282,-67.778 176,-67.778"/>
<text text-anchor="start" x="184" y="-85.778" font-family="Helvetica,sans-Serif" font-size="10.00">mom_error_handler::</text>
<text text-anchor="middle" x="229" y="-74.778" font-family="Helvetica,sans-Serif" font-size="10.00">assert</text>
</a>
</g>
</g>
<!-- Node12&#45;&gt;Node13 -->
<g id="edge1" class="edge"><title>Node12&#45;&gt;Node13</title>
<path fill="none" stroke="midnightblue" d="M118.287,-82.778C133.68,-82.778 150.347,-82.778 165.932,-82.778"/>
<polygon fill="midnightblue" stroke="midnightblue" points="165.993,-86.2781 175.992,-82.778 165.992,-79.2781 165.993,-86.2781"/>
</g>
<!-- Node16 -->
<g id="node5" class="node"><title>Node16</title>
<g id="a_node5"><a xlink:href="namespaceregrid__consts.html#a06ccba5b7b038bed853606a315df306a" target="_top" xlink:title="Parse a string parameter specifying the coordinate mode and return the appropriate enumerated integer...">
<polygon fill="white" stroke="black" points="154,-29.278 154,-48.278 304,-48.278 304,-29.278 154,-29.278"/>
<text text-anchor="middle" x="229" y="-36.278" font-family="Helvetica,sans-Serif" font-size="10.00">regrid_consts::coordinatemode</text>
</a>
</g>
</g>
<!-- Node12&#45;&gt;Node16 -->
<g id="edge4" class="edge"><title>Node12&#45;&gt;Node16</title>
<path fill="none" stroke="midnightblue" d="M116.147,-67.7607C128.605,-64.4523 141.747,-60.9805 154,-57.778 162.671,-55.5118 171.92,-53.1182 180.838,-50.8223"/>
<polygon fill="midnightblue" stroke="midnightblue" points="181.903,-54.1624 190.718,-48.2838 180.161,-47.3827 181.903,-54.1624"/>
</g>
<!-- Node18 -->
<g id="node7" class="node"><title>Node18</title>
<g id="a_node7"><a xlink:href="namespacemom__remapping.html#a9ed32f0c2764a3ead9311670315dc26c" target="_top" xlink:title="Remaps column of values u0 on grid h0 to grid h1 assuming the top edge is aligned. ">
<polygon fill="white" stroke="black" points="159,-204.778 159,-234.778 299,-234.778 299,-204.778 159,-204.778"/>
<text text-anchor="start" x="167" y="-222.778" font-family="Helvetica,sans-Serif" font-size="10.00">mom_remapping::remapping</text>
<text text-anchor="middle" x="229" y="-211.778" font-family="Helvetica,sans-Serif" font-size="10.00">_core_h</text>
</a>
</g>
</g>
<!-- Node12&#45;&gt;Node18 -->
<g id="edge7" class="edge"><title>Node12&#45;&gt;Node18</title>
<path fill="none" stroke="midnightblue" d="M78.6208,-97.9629C108.47,-122.304 167.143,-170.15 201.401,-198.087"/>
<polygon fill="midnightblue" stroke="midnightblue" points="199.59,-201.127 209.552,-204.734 204.014,-195.702 199.59,-201.127"/>
</g>
<!-- Node14 -->
<g id="node3" class="node"><title>Node14</title>
<g id="a_node3"><a xlink:href="namespacemom__error__handler.html#a460cfb79a06c29fc249952c2a3710d67" target="_top" xlink:title="mom_error_handler::\lmom_error">
<polygon fill="white" stroke="black" points="841,-261.778 841,-291.778 947,-291.778 947,-261.778 841,-261.778"/>
<text text-anchor="start" x="849" y="-279.778" font-family="Helvetica,sans-Serif" font-size="10.00">mom_error_handler::</text>
<text text-anchor="middle" x="894" y="-268.778" font-family="Helvetica,sans-Serif" font-size="10.00">mom_error</text>
</a>
</g>
</g>
<!-- Node13&#45;&gt;Node14 -->
<g id="edge2" class="edge"><title>Node13&#45;&gt;Node14</title>
<path fill="none" stroke="midnightblue" d="M282.119,-76.8433C360.858,-69.7189 513.906,-63.1055 636,-101.778 734.139,-132.863 828.684,-214.752 870.527,-254.501"/>
<polygon fill="midnightblue" stroke="midnightblue" points="868.313,-257.228 877.947,-261.636 873.165,-252.182 868.313,-257.228"/>
</g>
<!-- Node15 -->
<g id="node4" class="node"><title>Node15</title>
<g id="a_node4"><a xlink:href="namespacemom__error__handler.html#ad5f00a53059c72fe2332d1436c80ca71" target="_top" xlink:title="mom_error_handler::\lis_root_pe">
<polygon fill="white" stroke="black" points="987,-261.778 987,-291.778 1093,-291.778 1093,-261.778 987,-261.778"/>
<text text-anchor="start" x="995" y="-279.778" font-family="Helvetica,sans-Serif" font-size="10.00">mom_error_handler::</text>
<text text-anchor="middle" x="1040" y="-268.778" font-family="Helvetica,sans-Serif" font-size="10.00">is_root_pe</text>
</a>
</g>
</g>
<!-- Node14&#45;&gt;Node15 -->
<g id="edge3" class="edge"><title>Node14&#45;&gt;Node15</title>
<path fill="none" stroke="midnightblue" d="M947.395,-276.778C956.944,-276.778 966.992,-276.778 976.792,-276.778"/>
<polygon fill="midnightblue" stroke="midnightblue" points="976.885,-280.278 986.885,-276.778 976.885,-273.278 976.885,-280.278"/>
</g>
<!-- Node16&#45;&gt;Node14 -->
<g id="edge6" class="edge"><title>Node16&#45;&gt;Node14</title>
<path fill="none" stroke="midnightblue" d="M263.367,-29.15C285.005,-23.4168 313.921,-16.7043 340,-13.778 548.346,9.59963 636.916,16.7262 801,-113.778 846.831,-150.23 873.727,-216.135 885.635,-251.963"/>
<polygon fill="midnightblue" stroke="midnightblue" points="882.348,-253.176 888.727,-261.636 889.016,-251.045 882.348,-253.176"/>
</g>
<!-- Node17 -->
<g id="node6" class="node"><title>Node17</title>
<g id="a_node6"><a xlink:href="namespacemom__string__functions.html#aca148baf726de2f028b7e7baad3c85d4" target="_top" xlink:title="mom_string_functions\l::uppercase">
<polygon fill="white" stroke="black" points="344.5,-23.778 344.5,-53.778 457.5,-53.778 457.5,-23.778 344.5,-23.778"/>
<text text-anchor="start" x="352.5" y="-41.778" font-family="Helvetica,sans-Serif" font-size="10.00">mom_string_functions</text>
<text text-anchor="middle" x="401" y="-30.778" font-family="Helvetica,sans-Serif" font-size="10.00">::uppercase</text>
</a>
</g>
</g>
<!-- Node16&#45;&gt;Node17 -->
<g id="edge5" class="edge"><title>Node16&#45;&gt;Node17</title>
<path fill="none" stroke="midnightblue" d="M304.07,-38.778C314.097,-38.778 324.331,-38.778 334.201,-38.778"/>
<polygon fill="midnightblue" stroke="midnightblue" points="334.33,-42.2781 344.33,-38.778 334.33,-35.2781 334.33,-42.2781"/>
</g>
<!-- Node18&#45;&gt;Node14 -->
<g id="edge50" class="edge"><title>Node18&#45;&gt;Node14</title>
<path fill="none" stroke="midnightblue" d="M243.411,-235.123C262.464,-255.627 299.572,-290.978 340,-304.778 510.317,-362.915 727.269,-321.048 831.565,-294.35"/>
<polygon fill="midnightblue" stroke="midnightblue" points="832.504,-297.722 841.301,-291.817 830.742,-290.947 832.504,-297.722"/>
</g>
<!-- Node19 -->
<g id="node8" class="node"><title>Node19</title>
<g id="a_node8"><a xlink:href="namespacemom__remapping.html#a07d7276310f329f56560a1290bcb8b0a" target="_top" xlink:title="Creates polynomial reconstructions of u0 on the source grid h0. ">
<polygon fill="white" stroke="black" points="343.5,-599.778 343.5,-629.778 458.5,-629.778 458.5,-599.778 343.5,-599.778"/>
<text text-anchor="start" x="351.5" y="-617.778" font-family="Helvetica,sans-Serif" font-size="10.00">mom_remapping::build</text>
<text text-anchor="middle" x="401" y="-606.778" font-family="Helvetica,sans-Serif" font-size="10.00">_reconstructions_1d</text>
</a>
</g>
</g>
<!-- Node18&#45;&gt;Node19 -->
<g id="edge8" class="edge"><title>Node18&#45;&gt;Node19</title>
<path fill="none" stroke="midnightblue" d="M236.457,-234.78C262.175,-294.538 357.477,-515.976 389.458,-590.284"/>
<polygon fill="midnightblue" stroke="midnightblue" points="386.369,-591.959 393.537,-599.761 392.799,-589.192 386.369,-591.959"/>
</g>
<!-- Node38 -->
<g id="node27" class="node"><title>Node38</title>
<g id="a_node27"><a xlink:href="namespacemom__remapping.html#a62666b08a892ba9e9ab5a4731a07b942" target="_top" xlink:title="Checks that edge values and reconstructions satisfy bounds. ">
<polygon fill="white" stroke="black" points="340.5,-265.778 340.5,-295.778 461.5,-295.778 461.5,-265.778 340.5,-265.778"/>
<text text-anchor="start" x="348.5" y="-283.778" font-family="Helvetica,sans-Serif" font-size="10.00">mom_remapping::check</text>
<text text-anchor="middle" x="401" y="-272.778" font-family="Helvetica,sans-Serif" font-size="10.00">_reconstructions_1d</text>
</a>
</g>
</g>
<!-- Node18&#45;&gt;Node38 -->
<g id="edge40" class="edge"><title>Node18&#45;&gt;Node38</title>
<path fill="none" stroke="midnightblue" d="M272.022,-234.857C295.199,-243.173 324.159,-253.565 348.667,-262.358"/>
<polygon fill="midnightblue" stroke="midnightblue" points="347.572,-265.684 358.167,-265.767 349.936,-259.095 347.572,-265.684"/>
</g>
<!-- Node39 -->
<g id="node28" class="node"><title>Node39</title>
<g id="a_node28"><a xlink:href="namespacemom__remapping.html#aac27eb299cd36293b458a51b60ac771f" target="_top" xlink:title="Remaps column of n0 values u0 on grid h0 to grid h1 with n1 cells by calculating the n0+n1+1 sub&#45;inte...">
<polygon fill="white" stroke="black" points="340,-204.778 340,-234.778 462,-234.778 462,-204.778 340,-204.778"/>
<text text-anchor="start" x="348" y="-222.778" font-family="Helvetica,sans-Serif" font-size="10.00">mom_remapping::remap</text>
<text text-anchor="middle" x="401" y="-211.778" font-family="Helvetica,sans-Serif" font-size="10.00">_via_sub_cells</text>
</a>
</g>
</g>
<!-- Node18&#45;&gt;Node39 -->
<g id="edge42" class="edge"><title>Node18&#45;&gt;Node39</title>
<path fill="none" stroke="midnightblue" d="M299.146,-219.778C309.28,-219.778 319.727,-219.778 329.881,-219.778"/>
<polygon fill="midnightblue" stroke="midnightblue" points="329.915,-223.278 339.915,-219.778 329.915,-216.278 329.915,-223.278"/>
</g>
<!-- Node41 -->
<g id="node30" class="node"><title>Node41</title>
<g id="a_node30"><a xlink:href="namespacemom__remapping.html#afe0efe65edb680f96fc5efe3d29a9217" target="_top" xlink:title="Measure totals and bounds on source grid. ">
<polygon fill="white" stroke="black" points="501,-160.778 501,-190.778 633,-190.778 633,-160.778 501,-160.778"/>
<text text-anchor="start" x="509" y="-178.778" font-family="Helvetica,sans-Serif" font-size="10.00">mom_remapping::measure</text>
<text text-anchor="middle" x="567" y="-167.778" font-family="Helvetica,sans-Serif" font-size="10.00">_input_bounds</text>
</a>
</g>
</g>
<!-- Node18&#45;&gt;Node41 -->
<g id="edge48" class="edge"><title>Node18&#45;&gt;Node41</title>
<path fill="none" stroke="midnightblue" d="M289.08,-204.757C305.481,-201.023 323.356,-197.356 340,-194.778 389.997,-187.034 446.739,-182.277 490.861,-179.46"/>
<polygon fill="midnightblue" stroke="midnightblue" points="491.168,-182.947 500.932,-178.836 490.735,-175.961 491.168,-182.947"/>
</g>
<!-- Node42 -->
<g id="node31" class="node"><title>Node42</title>
<g id="a_node31"><a xlink:href="namespacemom__remapping.html#a5453aeefe69feaff159b67f3a4bd2366" target="_top" xlink:title="Measure totals and bounds on destination grid. ">
<polygon fill="white" stroke="black" points="501,-111.778 501,-141.778 633,-141.778 633,-111.778 501,-111.778"/>
<text text-anchor="start" x="509" y="-129.778" font-family="Helvetica,sans-Serif" font-size="10.00">mom_remapping::measure</text>
<text text-anchor="middle" x="567" y="-118.778" font-family="Helvetica,sans-Serif" font-size="10.00">_output_bounds</text>
</a>
</g>
</g>
<!-- Node18&#45;&gt;Node42 -->
<g id="edge49" class="edge"><title>Node18&#45;&gt;Node42</title>
<path fill="none" stroke="midnightblue" d="M266.759,-204.704C287.943,-196.364 315.208,-186.216 340,-178.778 389.655,-163.881 446.534,-150.815 490.808,-141.506"/>
<polygon fill="midnightblue" stroke="midnightblue" points="491.553,-144.926 500.628,-139.459 490.125,-138.073 491.553,-144.926"/>
</g>
<!-- Node19&#45;&gt;Node14 -->
<g id="edge39" class="edge"><title>Node19&#45;&gt;Node14</title>
<path fill="none" stroke="midnightblue" d="M403.596,-599.651C408.766,-558.902 428.951,-446.377 498,-393.778 606.199,-311.356 676.212,-404.893 801,-350.778 828.561,-338.826 854.717,-316.306 872.044,-299.236"/>
<polygon fill="midnightblue" stroke="midnightblue" points="874.819,-301.407 879.357,-291.833 869.839,-296.487 874.819,-301.407"/>
</g>
<!-- Node20 -->
<g id="node9" class="node"><title>Node20</title>
<g id="a_node9"><a xlink:href="namespacepcm__functions.html#a273c33619766b17e1bea2f9bbc1d5e1b" target="_top" xlink:title="pcm_functions::pcm\l_reconstruction">
<polygon fill="white" stroke="black" points="514.5,-795.778 514.5,-825.778 619.5,-825.778 619.5,-795.778 514.5,-795.778"/>
<text text-anchor="start" x="522.5" y="-813.778" font-family="Helvetica,sans-Serif" font-size="10.00">pcm_functions::pcm</text>
<text text-anchor="middle" x="567" y="-802.778" font-family="Helvetica,sans-Serif" font-size="10.00">_reconstruction</text>
</a>
</g>
</g>
<!-- Node19&#45;&gt;Node20 -->
<g id="edge9" class="edge"><title>Node19&#45;&gt;Node20</title>
<path fill="none" stroke="midnightblue" d="M406.343,-629.788C416.676,-662.91 445.842,-742.8 498,-786.778 500.364,-788.772 502.906,-790.604 505.568,-792.287"/>
<polygon fill="midnightblue" stroke="midnightblue" points="503.966,-795.401 514.411,-797.174 507.351,-789.274 503.966,-795.401"/>
</g>
<!-- Node21 -->
<g id="node10" class="node"><title>Node21</title>
<g id="a_node10"><a xlink:href="namespaceplm__functions.html#abf6acfcb1bef51f0c1f8682de53782c4" target="_top" xlink:title="plm_functions::plm\l_reconstruction">
<polygon fill="white" stroke="black" points="517.5,-746.778 517.5,-776.778 616.5,-776.778 616.5,-746.778 517.5,-746.778"/>
<text text-anchor="start" x="525.5" y="-764.778" font-family="Helvetica,sans-Serif" font-size="10.00">plm_functions::plm</text>
<text text-anchor="middle" x="567" y="-753.778" font-family="Helvetica,sans-Serif" font-size="10.00">_reconstruction</text>
</a>
</g>
</g>
<!-- Node19&#45;&gt;Node21 -->
<g id="edge10" class="edge"><title>Node19&#45;&gt;Node21</title>
<path fill="none" stroke="midnightblue" d="M409.972,-629.907C424.265,-655.643 456.662,-708.036 498,-737.778 501.223,-740.097 504.692,-742.21 508.295,-744.132"/>
<polygon fill="midnightblue" stroke="midnightblue" points="506.937,-747.362 517.468,-748.526 509.961,-741.049 506.937,-747.362"/>
</g>
<!-- Node22 -->
<g id="node11" class="node"><title>Node22</title>
<g id="a_node11"><a xlink:href="namespaceplm__functions.html#a66dd52e70d72fb5830f9c4fb16efb2e8" target="_top" xlink:title="plm_functions::plm\l_boundary_extrapolation">
<polygon fill="white" stroke="black" points="506,-697.778 506,-727.778 628,-727.778 628,-697.778 506,-697.778"/>
<text text-anchor="start" x="514" y="-715.778" font-family="Helvetica,sans-Serif" font-size="10.00">plm_functions::plm</text>
<text text-anchor="middle" x="567" y="-704.778" font-family="Helvetica,sans-Serif" font-size="10.00">_boundary_extrapolation</text>
</a>
</g>
</g>
<!-- Node19&#45;&gt;Node22 -->
<g id="edge11" class="edge"><title>Node19&#45;&gt;Node22</title>
<path fill="none" stroke="midnightblue" d="M418.204,-629.895C436.433,-646.246 467.495,-672.193 498,-688.778 501.214,-690.525 504.58,-692.186 508.021,-693.758"/>
<polygon fill="midnightblue" stroke="midnightblue" points="506.684,-696.993 517.255,-697.708 509.438,-690.557 506.684,-696.993"/>
</g>
<!-- Node23 -->
<g id="node12" class="node"><title>Node23</title>
<g id="a_node12"><a xlink:href="namespaceppm__functions.html#a97e2144c7499aacd90858788f1312432" target="_top" xlink:title="Builds quadratic polynomials coefficients from cell mean and edge values. ">
<polygon fill="white" stroke="black" points="514.5,-893.778 514.5,-923.778 619.5,-923.778 619.5,-893.778 514.5,-893.778"/>
<text text-anchor="start" x="522.5" y="-911.778" font-family="Helvetica,sans-Serif" font-size="10.00">ppm_functions::ppm</text>
<text text-anchor="middle" x="567" y="-900.778" font-family="Helvetica,sans-Serif" font-size="10.00">_reconstruction</text>
</a>
</g>
</g>
<!-- Node19&#45;&gt;Node23 -->
<g id="edge12" class="edge"><title>Node19&#45;&gt;Node23</title>
<path fill="none" stroke="midnightblue" d="M402.968,-630.001C406.658,-675.292 423.687,-810.638 498,-884.778 500.349,-887.121 502.94,-889.236 505.698,-891.146"/>
<polygon fill="midnightblue" stroke="midnightblue" points="504.007,-894.212 514.398,-896.278 507.563,-888.183 504.007,-894.212"/>
</g>
<!-- Node27 -->
<g id="node16" class="node"><title>Node27</title>
<g id="a_node16"><a xlink:href="namespaceppm__functions.html#aaf88d77ece3a30843c730fd2d57c517f" target="_top" xlink:title="ppm_functions::ppm\l_boundary_extrapolation">
<polygon fill="white" stroke="black" points="506,-648.778 506,-678.778 628,-678.778 628,-648.778 506,-648.778"/>
<text text-anchor="start" x="514" y="-666.778" font-family="Helvetica,sans-Serif" font-size="10.00">ppm_functions::ppm</text>
<text text-anchor="middle" x="567" y="-655.778" font-family="Helvetica,sans-Serif" font-size="10.00">_boundary_extrapolation</text>
</a>
</g>
</g>
<!-- Node19&#45;&gt;Node27 -->
<g id="edge16" class="edge"><title>Node19&#45;&gt;Node27</title>
<path fill="none" stroke="midnightblue" d="M452.544,-629.879C469.458,-634.933 488.477,-640.616 506.039,-645.863"/>
<polygon fill="midnightblue" stroke="midnightblue" points="505.04,-649.217 515.623,-648.726 507.044,-642.51 505.04,-649.217"/>
</g>
<!-- Node28 -->
<g id="node17" class="node"><title>Node28</title>
<g id="a_node17"><a xlink:href="namespaceregrid__edge__values.html#a2c2460b31b6de501eed3cb7db07a4be5" target="_top" xlink:title="regrid_edge_values\l::edge_values_implicit_h4">
<polygon fill="white" stroke="black" points="502.5,-452.778 502.5,-482.778 631.5,-482.778 631.5,-452.778 502.5,-452.778"/>
<text text-anchor="start" x="510.5" y="-470.778" font-family="Helvetica,sans-Serif" font-size="10.00">regrid_edge_values</text>
<text text-anchor="middle" x="567" y="-459.778" font-family="Helvetica,sans-Serif" font-size="10.00">::edge_values_implicit_h4</text>
</a>
</g>
</g>
<!-- Node19&#45;&gt;Node28 -->
<g id="edge17" class="edge"><title>Node19&#45;&gt;Node28</title>
<path fill="none" stroke="midnightblue" d="M409.972,-599.649C424.265,-573.913 456.662,-521.52 498,-491.778 499.899,-490.412 501.883,-489.117 503.93,-487.891"/>
<polygon fill="midnightblue" stroke="midnightblue" points="506.049,-490.728 513.235,-482.942 502.762,-484.548 506.049,-490.728"/>
</g>
<!-- Node32 -->
<g id="node21" class="node"><title>Node32</title>
<g id="a_node21"><a xlink:href="namespaceregrid__edge__slopes.html#a378dcb603968664e58d65e8ed892ec69" target="_top" xlink:title="regrid_edge_slopes\l::edge_slopes_implicit_h3">
<polygon fill="white" stroke="black" points="502.5,-403.778 502.5,-433.778 631.5,-433.778 631.5,-403.778 502.5,-403.778"/>
<text text-anchor="start" x="510.5" y="-421.778" font-family="Helvetica,sans-Serif" font-size="10.00">regrid_edge_slopes</text>
<text text-anchor="middle" x="567" y="-410.778" font-family="Helvetica,sans-Serif" font-size="10.00">::edge_slopes_implicit_h3</text>
</a>
</g>
</g>
<!-- Node19&#45;&gt;Node32 -->
<g id="edge22" class="edge"><title>Node19&#45;&gt;Node32</title>
<path fill="none" stroke="midnightblue" d="M406.343,-599.768C416.676,-566.646 445.842,-486.756 498,-442.778 499.507,-441.507 501.087,-440.302 502.724,-439.158"/>
<polygon fill="midnightblue" stroke="midnightblue" points="504.582,-442.125 511.318,-433.947 500.952,-436.139 504.582,-442.125"/>
</g>
<!-- Node33 -->
<g id="node22" class="node"><title>Node33</title>
<g id="a_node22"><a xlink:href="namespacepqm__functions.html#ada7e1a8d9d70b5b78b5e2dfddb5ffa43" target="_top" xlink:title="pqm_functions::pqm\l_reconstruction">
<polygon fill="white" stroke="black" points="514.5,-844.778 514.5,-874.778 619.5,-874.778 619.5,-844.778 514.5,-844.778"/>
<text text-anchor="start" x="522.5" y="-862.778" font-family="Helvetica,sans-Serif" font-size="10.00">pqm_functions::pqm</text>
<text text-anchor="middle" x="567" y="-851.778" font-family="Helvetica,sans-Serif" font-size="10.00">_reconstruction</text>
</a>
</g>
</g>
<!-- Node19&#45;&gt;Node33 -->
<g id="edge26" class="edge"><title>Node19&#45;&gt;Node33</title>
<path fill="none" stroke="midnightblue" d="M404.341,-630.053C411.212,-669.727 434.957,-777.03 498,-835.778 500.307,-837.928 502.818,-839.887 505.471,-841.672"/>
<polygon fill="midnightblue" stroke="midnightblue" points="503.94,-844.83 514.35,-846.801 507.442,-838.768 503.94,-844.83"/>
</g>
<!-- Node35 -->
<g id="node24" class="node"><title>Node35</title>
<g id="a_node24"><a xlink:href="namespacepqm__functions.html#ae2c3bd1b82cddbe1bbb0e93e83d93e48" target="_top" xlink:title="pqm_functions::pqm\l_boundary_extrapolation_v1">
<polygon fill="white" stroke="black" points="498,-599.778 498,-629.778 636,-629.778 636,-599.778 498,-599.778"/>
<text text-anchor="start" x="506" y="-617.778" font-family="Helvetica,sans-Serif" font-size="10.00">pqm_functions::pqm</text>
<text text-anchor="middle" x="567" y="-606.778" font-family="Helvetica,sans-Serif" font-size="10.00">_boundary_extrapolation_v1</text>
</a>
</g>
</g>
<!-- Node19&#45;&gt;Node35 -->
<g id="edge30" class="edge"><title>Node19&#45;&gt;Node35</title>
<path fill="none" stroke="midnightblue" d="M458.899,-614.778C468.237,-614.778 478.056,-614.778 487.803,-614.778"/>
<polygon fill="midnightblue" stroke="midnightblue" points="487.911,-618.278 497.911,-614.778 487.911,-611.278 487.911,-618.278"/>
</g>
<!-- Node36 -->
<g id="node25" class="node"><title>Node36</title>
<g id="a_node25"><a xlink:href="namespaceregrid__edge__values.html#a6c14843c556353d86f2efb4c7c74c9f5" target="_top" xlink:title="regrid_edge_values\l::edge_values_implicit_h6">
<polygon fill="white" stroke="black" points="502.5,-501.778 502.5,-531.778 631.5,-531.778 631.5,-501.778 502.5,-501.778"/>
<text text-anchor="start" x="510.5" y="-519.778" font-family="Helvetica,sans-Serif" font-size="10.00">regrid_edge_values</text>
<text text-anchor="middle" x="567" y="-508.778" font-family="Helvetica,sans-Serif" font-size="10.00">::edge_values_implicit_h6</text>
</a>
</g>
</g>
<!-- Node19&#45;&gt;Node36 -->
<g id="edge31" class="edge"><title>Node19&#45;&gt;Node36</title>
<path fill="none" stroke="midnightblue" d="M418.616,-599.663C436.957,-583.596 467.885,-558.277 498,-541.778 501.89,-539.647 505.999,-537.628 510.192,-535.732"/>
<polygon fill="midnightblue" stroke="midnightblue" points="511.631,-538.923 519.455,-531.779 508.884,-532.485 511.631,-538.923"/>
</g>
<!-- Node37 -->
<g id="node26" class="node"><title>Node37</title>
<g id="a_node26"><a xlink:href="namespaceregrid__edge__slopes.html#a32fc906bf14cfb859703b4a1a7c46a9c" target="_top" xlink:title="regrid_edge_slopes\l::edge_slopes_implicit_h5">
<polygon fill="white" stroke="black" points="502.5,-550.778 502.5,-580.778 631.5,-580.778 631.5,-550.778 502.5,-550.778"/>
<text text-anchor="start" x="510.5" y="-568.778" font-family="Helvetica,sans-Serif" font-size="10.00">regrid_edge_slopes</text>
<text text-anchor="middle" x="567" y="-557.778" font-family="Helvetica,sans-Serif" font-size="10.00">::edge_slopes_implicit_h5</text>
</a>
</g>
</g>
<!-- Node19&#45;&gt;Node37 -->
<g id="edge35" class="edge"><title>Node19&#45;&gt;Node37</title>
<path fill="none" stroke="midnightblue" d="M452.544,-599.677C469.458,-594.623 488.477,-588.94 506.039,-583.693"/>
<polygon fill="midnightblue" stroke="midnightblue" points="507.044,-587.046 515.623,-580.83 505.04,-580.339 507.044,-587.046"/>
</g>
<!-- Node24 -->
<g id="node13" class="node"><title>Node24</title>
<g id="a_node13"><a xlink:href="namespaceppm__functions.html#a89920c90b84f0b241c5a6d65fe2870b9" target="_top" xlink:title="Adjusts edge values using the standard PPM limiter (Colella &amp; Woodward, JCP 1984) after first checkin...">
<polygon fill="white" stroke="black" points="684,-893.778 684,-923.778 789,-923.778 789,-893.778 684,-893.778"/>
<text text-anchor="start" x="692" y="-911.778" font-family="Helvetica,sans-Serif" font-size="10.00">ppm_functions::ppm</text>
<text text-anchor="middle" x="736.5" y="-900.778" font-family="Helvetica,sans-Serif" font-size="10.00">_limiter_standard</text>
</a>
</g>
</g>
<!-- Node23&#45;&gt;Node24 -->
<g id="edge13" class="edge"><title>Node23&#45;&gt;Node24</title>
<path fill="none" stroke="midnightblue" d="M619.622,-908.778C636.657,-908.778 655.782,-908.778 673.51,-908.778"/>
<polygon fill="midnightblue" stroke="midnightblue" points="673.76,-912.278 683.76,-908.778 673.76,-905.278 673.76,-912.278"/>
</g>
<!-- Node25 -->
<g id="node14" class="node"><title>Node25</title>
<g id="a_node14"><a xlink:href="namespaceregrid__edge__values.html#aa204fe78ee22cae62f2b7f1bc76151a9" target="_top" xlink:title="regrid_edge_values\l::bound_edge_values">
<polygon fill="white" stroke="black" points="839.5,-841.778 839.5,-871.778 948.5,-871.778 948.5,-841.778 839.5,-841.778"/>
<text text-anchor="start" x="847.5" y="-859.778" font-family="Helvetica,sans-Serif" font-size="10.00">regrid_edge_values</text>
<text text-anchor="middle" x="894" y="-848.778" font-family="Helvetica,sans-Serif" font-size="10.00">::bound_edge_values</text>
</a>
</g>
</g>
<!-- Node24&#45;&gt;Node25 -->
<g id="edge14" class="edge"><title>Node24&#45;&gt;Node25</title>
<path fill="none" stroke="midnightblue" d="M782.477,-893.737C799.965,-887.89 820.159,-881.136 838.464,-875.015"/>
<polygon fill="midnightblue" stroke="midnightblue" points="839.75,-878.276 848.124,-871.785 837.53,-871.637 839.75,-878.276"/>
</g>
<!-- Node26 -->
<g id="node15" class="node"><title>Node26</title>
<g id="a_node15"><a xlink:href="namespaceregrid__edge__values.html#acbdacbbf7212e538bb52a9729fc949a7" target="_top" xlink:title="regrid_edge_values\l::check_discontinuous\l_edge_values">
<polygon fill="white" stroke="black" points="837,-891.278 837,-932.278 951,-932.278 951,-891.278 837,-891.278"/>
<text text-anchor="start" x="845" y="-920.278" font-family="Helvetica,sans-Serif" font-size="10.00">regrid_edge_values</text>
<text text-anchor="start" x="845" y="-909.278" font-family="Helvetica,sans-Serif" font-size="10.00">::check_discontinuous</text>
<text text-anchor="middle" x="894" y="-898.278" font-family="Helvetica,sans-Serif" font-size="10.00">_edge_values</text>
</a>
</g>
</g>
<!-- Node24&#45;&gt;Node26 -->
<g id="edge15" class="edge"><title>Node24&#45;&gt;Node26</title>
<path fill="none" stroke="midnightblue" d="M789.279,-909.777C801.22,-910.007 814.085,-910.256 826.553,-910.496"/>
<polygon fill="midnightblue" stroke="midnightblue" points="826.838,-914.002 836.904,-910.696 826.973,-907.003 826.838,-914.002"/>
</g>
<!-- Node29 -->
<g id="node18" class="node"><title>Node29</title>
<g id="a_node18"><a xlink:href="namespaceregrid__solvers.html#a8130a338b59de62b00f68da4204568ad" target="_top" xlink:title="regrid_solvers::solve\l_linear_system">
<polygon fill="white" stroke="black" points="683,-452.778 683,-482.778 790,-482.778 790,-452.778 683,-452.778"/>
<text text-anchor="start" x="691" y="-470.778" font-family="Helvetica,sans-Serif" font-size="10.00">regrid_solvers::solve</text>
<text text-anchor="middle" x="736.5" y="-459.778" font-family="Helvetica,sans-Serif" font-size="10.00">_linear_system</text>
</a>
</g>
</g>
<!-- Node28&#45;&gt;Node29 -->
<g id="edge18" class="edge"><title>Node28&#45;&gt;Node29</title>
<path fill="none" stroke="midnightblue" d="M631.802,-467.778C645.211,-467.778 659.344,-467.778 672.714,-467.778"/>
<polygon fill="midnightblue" stroke="midnightblue" points="672.766,-471.278 682.766,-467.778 672.766,-464.278 672.766,-471.278"/>
</g>
<!-- Node30 -->
<g id="node19" class="node"><title>Node30</title>
<g id="a_node19"><a xlink:href="namespacepolynomial__functions.html#aed77465c5ca9937dab06fdb5f94eba39" target="_top" xlink:title="polynomial_functions\l::evaluation_polynomial">
<polygon fill="white" stroke="black" points="677,-403.778 677,-433.778 796,-433.778 796,-403.778 677,-403.778"/>
<text text-anchor="start" x="685" y="-421.778" font-family="Helvetica,sans-Serif" font-size="10.00">polynomial_functions</text>
<text text-anchor="middle" x="736.5" y="-410.778" font-family="Helvetica,sans-Serif" font-size="10.00">::evaluation_polynomial</text>
</a>
</g>
</g>
<!-- Node28&#45;&gt;Node30 -->
<g id="edge20" class="edge"><title>Node28&#45;&gt;Node30</title>
<path fill="none" stroke="midnightblue" d="M619.622,-452.677C636.898,-447.623 656.322,-441.94 674.259,-436.693"/>
<polygon fill="midnightblue" stroke="midnightblue" points="675.433,-439.997 684.048,-433.83 673.468,-433.278 675.433,-439.997"/>
</g>
<!-- Node31 -->
<g id="node20" class="node"><title>Node31</title>
<g id="a_node20"><a xlink:href="namespaceregrid__solvers.html#a0d5c3cff8f31429b0a2c6d267e8b345d" target="_top" xlink:title="regrid_solvers::solve\l_tridiagonal_system">
<polygon fill="white" stroke="black" points="683,-501.778 683,-531.778 790,-531.778 790,-501.778 683,-501.778"/>
<text text-anchor="start" x="691" y="-519.778" font-family="Helvetica,sans-Serif" font-size="10.00">regrid_solvers::solve</text>
<text text-anchor="middle" x="736.5" y="-508.778" font-family="Helvetica,sans-Serif" font-size="10.00">_tridiagonal_system</text>
</a>
</g>
</g>
<!-- Node28&#45;&gt;Node31 -->
<g id="edge21" class="edge"><title>Node28&#45;&gt;Node31</title>
<path fill="none" stroke="midnightblue" d="M619.622,-482.879C636.898,-487.933 656.322,-493.616 674.259,-498.863"/>
<polygon fill="midnightblue" stroke="midnightblue" points="673.468,-502.278 684.048,-501.726 675.433,-495.559 673.468,-502.278"/>
</g>
<!-- Node29&#45;&gt;Node14 -->
<g id="edge19" class="edge"><title>Node29&#45;&gt;Node14</title>
<path fill="none" stroke="midnightblue" d="M786.35,-452.683C791.615,-449.884 796.635,-446.606 801,-442.778 845.645,-403.629 873.025,-337.338 885.323,-301.517"/>
<polygon fill="midnightblue" stroke="midnightblue" points="888.701,-302.449 888.526,-291.856 882.057,-300.246 888.701,-302.449"/>
</g>
<!-- Node32&#45;&gt;Node29 -->
<g id="edge23" class="edge"><title>Node32&#45;&gt;Node29</title>
<path fill="none" stroke="midnightblue" d="M619.622,-433.879C636.898,-438.933 656.322,-444.616 674.259,-449.863"/>
<polygon fill="midnightblue" stroke="midnightblue" points="673.468,-453.278 684.048,-452.726 675.433,-446.559 673.468,-453.278"/>
</g>
<!-- Node32&#45;&gt;Node30 -->
<g id="edge24" class="edge"><title>Node32&#45;&gt;Node30</title>
<path fill="none" stroke="midnightblue" d="M631.802,-418.778C643.243,-418.778 655.212,-418.778 666.784,-418.778"/>
<polygon fill="midnightblue" stroke="midnightblue" points="666.828,-422.278 676.828,-418.778 666.828,-415.278 666.828,-422.278"/>
</g>
<!-- Node32&#45;&gt;Node31 -->
<g id="edge25" class="edge"><title>Node32&#45;&gt;Node31</title>
<path fill="none" stroke="midnightblue" d="M620.865,-433.806C626.216,-436.374 631.375,-439.347 636,-442.778 657.704,-458.878 650.587,-475.293 672,-491.778 674.41,-493.634 676.975,-495.368 679.64,-496.988"/>
<polygon fill="midnightblue" stroke="midnightblue" points="677.969,-500.063 688.424,-501.775 681.319,-493.916 677.969,-500.063"/>
</g>
<!-- Node34 -->
<g id="node23" class="node"><title>Node34</title>
<g id="a_node23"><a xlink:href="namespacepqm__functions.html#a0ce0d64922453de1312adec7b8746544" target="_top" xlink:title="pqm_functions::pqm\l_limiter">
<polygon fill="white" stroke="black" points="684,-844.778 684,-874.778 789,-874.778 789,-844.778 684,-844.778"/>
<text text-anchor="start" x="692" y="-862.778" font-family="Helvetica,sans-Serif" font-size="10.00">pqm_functions::pqm</text>
<text text-anchor="middle" x="736.5" y="-851.778" font-family="Helvetica,sans-Serif" font-size="10.00">_limiter</text>
</a>
</g>
</g>
<!-- Node33&#45;&gt;Node34 -->
<g id="edge27" class="edge"><title>Node33&#45;&gt;Node34</title>
<path fill="none" stroke="midnightblue" d="M619.622,-859.778C636.657,-859.778 655.782,-859.778 673.51,-859.778"/>
<polygon fill="midnightblue" stroke="midnightblue" points="673.76,-863.278 683.76,-859.778 673.76,-856.278 673.76,-863.278"/>
</g>
<!-- Node34&#45;&gt;Node25 -->
<g id="edge28" class="edge"><title>Node34&#45;&gt;Node25</title>
<path fill="none" stroke="midnightblue" d="M789.279,-858.779C802.093,-858.532 815.969,-858.264 829.279,-858.007"/>
<polygon fill="midnightblue" stroke="midnightblue" points="829.388,-861.506 839.319,-857.814 829.253,-854.507 829.388,-861.506"/>
</g>
<!-- Node34&#45;&gt;Node26 -->
<g id="edge29" class="edge"><title>Node34&#45;&gt;Node26</title>
<path fill="none" stroke="midnightblue" d="M782.477,-874.819C796.384,-879.469 812.002,-884.692 827.021,-889.714"/>
<polygon fill="midnightblue" stroke="midnightblue" points="826.186,-893.126 836.78,-892.978 828.406,-886.487 826.186,-893.126"/>
</g>
<!-- Node36&#45;&gt;Node29 -->
<g id="edge32" class="edge"><title>Node36&#45;&gt;Node29</title>
<path fill="none" stroke="midnightblue" d="M619.622,-501.677C636.898,-496.623 656.322,-490.94 674.259,-485.693"/>
<polygon fill="midnightblue" stroke="midnightblue" points="675.433,-488.997 684.048,-482.83 673.468,-482.278 675.433,-488.997"/>
</g>
<!-- Node36&#45;&gt;Node30 -->
<g id="edge33" class="edge"><title>Node36&#45;&gt;Node30</title>
<path fill="none" stroke="midnightblue" d="M619.116,-501.776C625.09,-498.945 630.873,-495.633 636,-491.778 657.599,-475.537 650.475,-459.116 672,-442.778 673.831,-441.389 675.751,-440.072 677.736,-438.824"/>
<polygon fill="midnightblue" stroke="midnightblue" points="679.747,-441.71 686.784,-433.79 676.344,-435.593 679.747,-441.71"/>
</g>
<!-- Node36&#45;&gt;Node31 -->
<g id="edge34" class="edge"><title>Node36&#45;&gt;Node31</title>
<path fill="none" stroke="midnightblue" d="M631.802,-516.778C645.211,-516.778 659.344,-516.778 672.714,-516.778"/>
<polygon fill="midnightblue" stroke="midnightblue" points="672.766,-520.278 682.766,-516.778 672.766,-513.278 672.766,-520.278"/>
</g>
<!-- Node37&#45;&gt;Node29 -->
<g id="edge36" class="edge"><title>Node37&#45;&gt;Node29</title>
<path fill="none" stroke="midnightblue" d="M621.247,-550.627C626.467,-548.088 631.491,-545.156 636,-541.778 657.914,-525.358 650.268,-508.438 672,-491.778 673.786,-490.409 675.659,-489.111 677.595,-487.88"/>
<polygon fill="midnightblue" stroke="midnightblue" points="679.428,-490.865 686.425,-482.909 675.994,-484.765 679.428,-490.865"/>
</g>
<!-- Node37&#45;&gt;Node30 -->
<g id="edge37" class="edge"><title>Node37&#45;&gt;Node30</title>
<path fill="none" stroke="midnightblue" d="M624.269,-550.686C628.541,-548.16 632.531,-545.214 636,-541.778 669.262,-508.829 639.103,-476.092 672,-442.778 673.061,-441.704 674.175,-440.677 675.334,-439.695"/>
<polygon fill="midnightblue" stroke="midnightblue" points="677.428,-442.501 683.549,-433.853 673.371,-436.796 677.428,-442.501"/>
</g>
<!-- Node37&#45;&gt;Node31 -->
<g id="edge38" class="edge"><title>Node37&#45;&gt;Node31</title>
<path fill="none" stroke="midnightblue" d="M619.622,-550.677C636.898,-545.623 656.322,-539.94 674.259,-534.693"/>
<polygon fill="midnightblue" stroke="midnightblue" points="675.433,-537.997 684.048,-531.83 673.468,-531.278 675.433,-537.997"/>
</g>
<!-- Node38&#45;&gt;Node14 -->
<g id="edge41" class="edge"><title>Node38&#45;&gt;Node14</title>
<path fill="none" stroke="midnightblue" d="M461.827,-280.79C539.868,-280.734 680.651,-280.388 801,-278.778 810.603,-278.65 820.77,-278.471 830.706,-278.273"/>
<polygon fill="midnightblue" stroke="midnightblue" points="831.017,-281.768 840.942,-278.061 830.872,-274.769 831.017,-281.768"/>
</g>
<!-- Node39&#45;&gt;Node14 -->
<g id="edge45" class="edge"><title>Node39&#45;&gt;Node14</title>
<path fill="none" stroke="midnightblue" d="M462.276,-213.095C541.399,-206.165 683.972,-200.06 801,-229.778 822.415,-235.216 844.523,-246.304 861.699,-256.344"/>
<polygon fill="midnightblue" stroke="midnightblue" points="860.327,-259.604 870.697,-261.772 863.942,-253.61 860.327,-259.604"/>
</g>
<!-- Node40 -->
<g id="node29" class="node"><title>Node40</title>
<g id="a_node29"><a xlink:href="namespacemom__remapping.html#ac97371127053406c84be732a19eb6f9d" target="_top" xlink:title="Returns the average value of a reconstruction within a single source cell, i0, between the non&#45;dimens...">
<polygon fill="white" stroke="black" points="672,-239.778 672,-269.778 801,-269.778 801,-239.778 672,-239.778"/>
<text text-anchor="start" x="680" y="-257.778" font-family="Helvetica,sans-Serif" font-size="10.00">mom_remapping::average</text>
<text text-anchor="middle" x="736.5" y="-246.778" font-family="Helvetica,sans-Serif" font-size="10.00">_value_ppoly</text>
</a>
</g>
</g>
<!-- Node39&#45;&gt;Node40 -->
<g id="edge43" class="edge"><title>Node39&#45;&gt;Node40</title>
<path fill="none" stroke="midnightblue" d="M462.103,-229.076C473.984,-230.764 486.373,-232.417 498,-233.778 552.773,-240.188 614.858,-245.614 661.811,-249.344"/>
<polygon fill="midnightblue" stroke="midnightblue" points="661.649,-252.842 671.893,-250.137 662.199,-245.863 661.649,-252.842"/>
</g>
<!-- Node39&#45;&gt;Node41 -->
<g id="edge46" class="edge"><title>Node39&#45;&gt;Node41</title>
<path fill="none" stroke="midnightblue" d="M457.981,-204.759C471.496,-201.133 486.063,-197.225 499.99,-193.488"/>
<polygon fill="midnightblue" stroke="midnightblue" points="501.242,-196.776 509.993,-190.804 499.428,-190.015 501.242,-196.776"/>
</g>
<!-- Node39&#45;&gt;Node42 -->
<g id="edge47" class="edge"><title>Node39&#45;&gt;Node42</title>
<path fill="none" stroke="midnightblue" d="M419.747,-204.644C438.29,-189.422 468.708,-166.074 498,-150.778 501.301,-149.054 504.754,-147.407 508.278,-145.841"/>
<polygon fill="midnightblue" stroke="midnightblue" points="509.842,-148.981 517.717,-141.893 507.141,-142.523 509.842,-148.981"/>
</g>
<!-- Node40&#45;&gt;Node14 -->
<g id="edge44" class="edge"><title>Node40&#45;&gt;Node14</title>
<path fill="none" stroke="midnightblue" d="M801.196,-263.79C810.907,-265.164 820.921,-266.58 830.604,-267.95"/>
<polygon fill="midnightblue" stroke="midnightblue" points="830.156,-271.422 840.548,-269.357 831.137,-264.491 830.156,-271.422"/>
</g>
</g>
</svg>
