<?xml version="1.0" encoding="UTF-8" standalone="no"?>
<!DOCTYPE svg PUBLIC "-//W3C//DTD SVG 1.1//EN"
 "http://www.w3.org/Graphics/SVG/1.1/DTD/svg11.dtd">
<!-- Generated by graphviz version 2.38.0 (20140413.2041)
 -->
<!-- Title: mom_thickness_diffuse::thickness_diffuse Pages: 1 -->
<svg width="732pt" height="312pt"
 viewBox="0.00 0.00 732.00 312.00" xmlns="http://www.w3.org/2000/svg" xmlns:xlink="http://www.w3.org/1999/xlink">
<g id="graph0" class="graph" transform="scale(1 1) rotate(0) translate(4 308)">
<title>mom_thickness_diffuse::thickness_diffuse</title>
<polygon fill="white" stroke="none" points="-4,4 -4,-308 728,-308 728,4 -4,4"/>
<!-- Node11 -->
<g id="node1" class="node"><title>Node11</title>
<polygon fill="#bfbfbf" stroke="black" points="0,-202.5 0,-232.5 120,-232.5 120,-202.5 0,-202.5"/>
<text text-anchor="start" x="8" y="-220.5" font-family="Helvetica,sans-Serif" font-size="10.00">mom_thickness_diffuse</text>
<text text-anchor="middle" x="60" y="-209.5" font-family="Helvetica,sans-Serif" font-size="10.00">::thickness_diffuse</text>
</g>
<!-- Node12 -->
<g id="node2" class="node"><title>Node12</title>
<g id="a_node2"><a xlink:href="namespacemom__thickness__diffuse.html#a364792384e494f2e7e5644282e7f42c7" target="_top" xlink:title="Modifies thickness diffusivities to untangle layer structures. ">
<polygon fill="white" stroke="black" points="160,-273.5 160,-303.5 280,-303.5 280,-273.5 160,-273.5"/>
<text text-anchor="start" x="168" y="-291.5" font-family="Helvetica,sans-Serif" font-size="10.00">mom_thickness_diffuse</text>
<text text-anchor="middle" x="220" y="-280.5" font-family="Helvetica,sans-Serif" font-size="10.00">::add_detangling_kh</text>
</a>
</g>
</g>
<!-- Node11&#45;&gt;Node12 -->
<g id="edge1" class="edge"><title>Node11&#45;&gt;Node12</title>
<path fill="none" stroke="midnightblue" d="M89.7664,-232.626C108.433,-242.218 133.403,-254.633 156,-264.5 159.922,-266.212 164.008,-267.925 168.133,-269.604"/>
<polygon fill="midnightblue" stroke="midnightblue" points="167.18,-272.991 177.765,-273.44 169.77,-266.488 167.18,-272.991"/>
</g>
<!-- Node13 -->
<g id="node3" class="node"><title>Node13</title>
<g id="a_node3"><a xlink:href="namespacemom__diag__mediator.html#a8ce5a74c7e725cfaa01e7abd5dbdb97d" target="_top" xlink:title="Build/update vertical grids for diagnostic remapping. ">
<polygon fill="white" stroke="black" points="156,-224.5 156,-254.5 284,-254.5 284,-224.5 156,-224.5"/>
<text text-anchor="start" x="164" y="-242.5" font-family="Helvetica,sans-Serif" font-size="10.00">mom_diag_mediator::</text>
<text text-anchor="middle" x="220" y="-231.5" font-family="Helvetica,sans-Serif" font-size="10.00">diag_update_remap_grids</text>
</a>
</g>
</g>
<!-- Node11&#45;&gt;Node13 -->
<g id="edge2" class="edge"><title>Node11&#45;&gt;Node13</title>
<path fill="none" stroke="midnightblue" d="M120.283,-225.755C128.654,-226.92 137.34,-228.13 145.932,-229.326"/>
<polygon fill="midnightblue" stroke="midnightblue" points="145.563,-232.808 155.95,-230.721 146.529,-225.875 145.563,-232.808"/>
</g>
<!-- Node14 -->
<g id="node4" class="node"><title>Node14</title>
<g id="a_node4"><a xlink:href="namespacemom__error__handler.html#a460cfb79a06c29fc249952c2a3710d67" target="_top" xlink:title="mom_error_handler::\lmom_error">
<polygon fill="white" stroke="black" points="476,-142.5 476,-172.5 582,-172.5 582,-142.5 476,-142.5"/>
<text text-anchor="start" x="484" y="-160.5" font-family="Helvetica,sans-Serif" font-size="10.00">mom_error_handler::</text>
<text text-anchor="middle" x="529" y="-149.5" font-family="Helvetica,sans-Serif" font-size="10.00">mom_error</text>
</a>
</g>
</g>
<!-- Node11&#45;&gt;Node14 -->
<g id="edge3" class="edge"><title>Node11&#45;&gt;Node14</title>
<path fill="none" stroke="midnightblue" d="M120.146,-209.901C208.769,-198.515 375.243,-177.126 465.683,-165.506"/>
<polygon fill="midnightblue" stroke="midnightblue" points="466.32,-168.954 475.792,-164.208 465.428,-162.011 466.32,-168.954"/>
</g>
<!-- Node16 -->
<g id="node6" class="node"><title>Node16</title>
<g id="a_node6"><a xlink:href="namespacemom__thickness__diffuse.html#a6124aede8bd3c29c433090de1619235b" target="_top" xlink:title="Calculates parameterized layer transports for use in the continuity equation. Fluxes are limited to g...">
<polygon fill="white" stroke="black" points="160,-98.5 160,-128.5 280,-128.5 280,-98.5 160,-98.5"/>
<text text-anchor="start" x="168" y="-116.5" font-family="Helvetica,sans-Serif" font-size="10.00">mom_thickness_diffuse</text>
<text text-anchor="middle" x="220" y="-105.5" font-family="Helvetica,sans-Serif" font-size="10.00">::thickness_diffuse_full</text>
</a>
</g>
</g>
<!-- Node11&#45;&gt;Node16 -->
<g id="edge5" class="edge"><title>Node11&#45;&gt;Node16</title>
<path fill="none" stroke="midnightblue" d="M83.9746,-202.378C111.239,-184.431 156.846,-154.412 187.416,-134.289"/>
<polygon fill="midnightblue" stroke="midnightblue" points="189.569,-137.062 195.998,-128.641 185.72,-131.215 189.569,-137.062"/>
</g>
<!-- Node15 -->
<g id="node5" class="node"><title>Node15</title>
<g id="a_node5"><a xlink:href="namespacemom__error__handler.html#ad5f00a53059c72fe2332d1436c80ca71" target="_top" xlink:title="mom_error_handler::\lis_root_pe">
<polygon fill="white" stroke="black" points="618,-142.5 618,-172.5 724,-172.5 724,-142.5 618,-142.5"/>
<text text-anchor="start" x="626" y="-160.5" font-family="Helvetica,sans-Serif" font-size="10.00">mom_error_handler::</text>
<text text-anchor="middle" x="671" y="-149.5" font-family="Helvetica,sans-Serif" font-size="10.00">is_root_pe</text>
</a>
</g>
</g>
<!-- Node14&#45;&gt;Node15 -->
<g id="edge4" class="edge"><title>Node14&#45;&gt;Node15</title>
<path fill="none" stroke="midnightblue" d="M582.131,-157.5C590.421,-157.5 599.07,-157.5 607.568,-157.5"/>
<polygon fill="midnightblue" stroke="midnightblue" points="607.826,-161 617.826,-157.5 607.826,-154 607.826,-161"/>
</g>
<!-- Node16&#45;&gt;Node14 -->
<g id="edge7" class="edge"><title>Node16&#45;&gt;Node14</title>
<path fill="none" stroke="midnightblue" d="M274.108,-128.535C288.869,-132.269 304.973,-135.932 320,-138.5 368.603,-146.804 424.257,-151.647 465.759,-154.363"/>
<polygon fill="midnightblue" stroke="midnightblue" points="465.792,-157.872 475.993,-155.008 466.233,-150.886 465.792,-157.872"/>
</g>
<!-- Node17 -->
<g id="node7" class="node"><title>Node17</title>
<g id="a_node7"><a xlink:href="namespacemom__thickness__diffuse.html#aff6aa879773518e476ed0a603a1a301e" target="_top" xlink:title="Fills tracer values in massless layers with sensible values by diffusing vertically with a (small) co...">
<polygon fill="white" stroke="black" points="320,-98.5 320,-128.5 440,-128.5 440,-98.5 320,-98.5"/>
<text text-anchor="start" x="328" y="-116.5" font-family="Helvetica,sans-Serif" font-size="10.00">mom_thickness_diffuse</text>
<text text-anchor="middle" x="380" y="-105.5" font-family="Helvetica,sans-Serif" font-size="10.00">::vert_fill_ts</text>
</a>
</g>
</g>
<!-- Node16&#45;&gt;Node17 -->
<g id="edge6" class="edge"><title>Node16&#45;&gt;Node17</title>
<path fill="none" stroke="midnightblue" d="M280.283,-113.5C289.901,-113.5 299.936,-113.5 309.766,-113.5"/>
<polygon fill="midnightblue" stroke="midnightblue" points="309.91,-117 319.91,-113.5 309.91,-110 309.91,-117"/>
</g>
<!-- Node18 -->
<g id="node8" class="node"><title>Node18</title>
<g id="a_node8"><a xlink:href="namespacemom__eos.html#a204529f8434a0322314e6ce2a9762436" target="_top" xlink:title="Calls the appropriate subroutine to calculate density derivatives for 1&#45;D array inputs. ">
<polygon fill="white" stroke="black" points="328,-49.5 328,-79.5 432,-79.5 432,-49.5 328,-49.5"/>
<text text-anchor="start" x="336" y="-67.5" font-family="Helvetica,sans-Serif" font-size="10.00">mom_eos::calculate</text>
<text text-anchor="middle" x="380" y="-56.5" font-family="Helvetica,sans-Serif" font-size="10.00">_density_derivs</text>
</a>
</g>
</g>
<!-- Node16&#45;&gt;Node18 -->
<g id="edge8" class="edge"><title>Node16&#45;&gt;Node18</title>
<path fill="none" stroke="midnightblue" d="M269.694,-98.3986C285.839,-93.3917 303.974,-87.7676 320.762,-82.561"/>
<polygon fill="midnightblue" stroke="midnightblue" points="321.952,-85.8567 330.466,-79.5516 319.878,-79.1708 321.952,-85.8567"/>
</g>
<!-- Node19 -->
<g id="node9" class="node"><title>Node19</title>
<g id="a_node9"><a xlink:href="namespacemom__thickness__diffuse.html#a52d5fe57d53414fdc05f669723c9774e" target="_top" xlink:title="Tridiagonal solver for streamfunction at interfaces. ">
<polygon fill="white" stroke="black" points="320,-0.5 320,-30.5 440,-30.5 440,-0.5 320,-0.5"/>
<text text-anchor="start" x="328" y="-18.5" font-family="Helvetica,sans-Serif" font-size="10.00">mom_thickness_diffuse</text>
<text text-anchor="middle" x="380" y="-7.5" font-family="Helvetica,sans-Serif" font-size="10.00">::streamfn_solver</text>
</a>
</g>
</g>
<!-- Node16&#45;&gt;Node19 -->
<g id="edge10" class="edge"><title>Node16&#45;&gt;Node19</title>
<path fill="none" stroke="midnightblue" d="M238.295,-98.403C257.346,-82.3082 289.357,-56.8059 320,-39.5 322.84,-37.8958 325.81,-36.3426 328.84,-34.85"/>
<polygon fill="midnightblue" stroke="midnightblue" points="330.46,-37.9566 338.049,-30.5635 327.506,-31.6105 330.46,-37.9566"/>
</g>
<!-- Node18&#45;&gt;Node14 -->
<g id="edge9" class="edge"><title>Node18&#45;&gt;Node14</title>
<path fill="none" stroke="midnightblue" d="M420.411,-79.5268C427.094,-82.5446 433.855,-85.9048 440,-89.5 462.771,-102.822 486.305,-121.295 503.299,-135.626"/>
<polygon fill="midnightblue" stroke="midnightblue" points="501.211,-138.445 511.085,-142.287 505.762,-133.126 501.211,-138.445"/>
</g>
</g>
</svg>
