<?xml version="1.0" encoding="UTF-8" standalone="no"?>
<!DOCTYPE svg PUBLIC "-//W3C//DTD SVG 1.1//EN"
 "http://www.w3.org/Graphics/SVG/1.1/DTD/svg11.dtd">
<!-- Generated by graphviz version 2.38.0 (20140413.2041)
 -->
<!-- Title: mom_get_input::get_mom_input Pages: 1 -->
<!--zoomable 337 -->
<svg id="main" version="1.1" xmlns="http://www.w3.org/2000/svg" xmlns:xlink="http://www.w3.org/1999/xlink" xml:space="preserve" onload="init(evt)">
<style type="text/css"><![CDATA[
.edge:hover path { stroke: red; }
.edge:hover polygon { stroke: red; fill: red; }
]]></style>
<script type="text/javascript"><![CDATA[
var edges = document.getElementsByTagName('g');
if (edges && edges.length) {
  for (var i=0;i<edges.length;i++) {
    if (edges[i].id.substr(0,4)=='edge') {
      edges[i].setAttribute('class','edge');
    }
  }
}
]]></script>
        <defs>
                <circle id="rim" cx="0" cy="0" r="7"/>
                <circle id="rim2" cx="0" cy="0" r="3.5"/>
                <g id="zoomPlus">
                        <use xlink:href="#rim" fill="#404040">
                                <set attributeName="fill" to="#808080" begin="zoomplus.mouseover" end="zoomplus.mouseout"/>
                        </use>
                        <path d="M-4,0h8M0,-4v8" fill="none" stroke="white" stroke-width="1.5" pointer-events="none"/>
                </g>
                <g id="zoomMin">
                        <use xlink:href="#rim" fill="#404040">
                                <set attributeName="fill" to="#808080" begin="zoomminus.mouseover" end="zoomminus.mouseout"/>
                        </use>
                        <path d="M-4,0h8" fill="none" stroke="white" stroke-width="1.5" pointer-events="none"/>
                </g>
                <g id="dirArrow">
                        <path fill="none" stroke="white" stroke-width="1.5" d="M0,-3.0v7 M-2.5,-0.5L0,-3.0L2.5,-0.5"/>
                </g>
               <g id="resetDef">
                       <use xlink:href="#rim2" fill="#404040">
                               <set attributeName="fill" to="#808080" begin="reset.mouseover" end="reset.mouseout"/>
                       </use>
               </g>
        </defs>

<script type="text/javascript">
var viewWidth = 1128;
var viewHeight = 337;
var sectionId = 'dynsection-0';
</script>
<script xlink:href="svgpan.js"/>
<svg id="graph" class="graph">
<g id="viewport">
<title>mom_get_input::get_mom_input</title>
<polygon fill="white" stroke="none" points="-4,4 -4,-333.357 1124,-333.357 1124,4 -4,4"/>
<!-- Node0 -->
<g id="node1" class="node"><title>Node0</title>
<polygon fill="#bfbfbf" stroke="black" points="0,-276.857 0,-306.857 103,-306.857 103,-276.857 0,-276.857"/>
<text text-anchor="start" x="8" y="-294.857" font-family="Helvetica,sans-Serif" font-size="10.00">mom_get_input::get</text>
<text text-anchor="middle" x="51.5" y="-283.857" font-family="Helvetica,sans-Serif" font-size="10.00">_mom_input</text>
</g>
<!-- Node1 -->
<g id="node2" class="node"><title>Node1</title>
<g id="a_node2"><a xlink:href="namespacemom__error__handler.html#a460cfb79a06c29fc249952c2a3710d67" target="_top" xlink:title="mom_error_handler::\lmom_error">
<polygon fill="white" stroke="black" points="303.5,-298.857 303.5,-328.857 409.5,-328.857 409.5,-298.857 303.5,-298.857"/>
<text text-anchor="start" x="311.5" y="-316.857" font-family="Helvetica,sans-Serif" font-size="10.00">mom_error_handler::</text>
<text text-anchor="middle" x="356.5" y="-305.857" font-family="Helvetica,sans-Serif" font-size="10.00">mom_error</text>
</a>
</g>
</g>
<!-- Node0&#45;&gt;Node1 -->
<g id="edge1" class="edge"><title>Node0&#45;&gt;Node1</title>
<path fill="none" stroke="midnightblue" d="M103.215,-295.539C155.474,-299.333 237.012,-305.254 293.171,-309.331"/>
<polygon fill="midnightblue" stroke="midnightblue" points="293.121,-312.837 303.348,-310.07 293.628,-305.855 293.121,-312.837"/>
</g>
<!-- Node3 -->
<g id="node4" class="node"><title>Node3</title>
<g id="a_node4"><a xlink:href="namespacemom__file__parser.html#abecae1b9386aafa17aec927af1f8c448" target="_top" xlink:title="mom_file_parser::open\l_param_file">
<polygon fill="white" stroke="black" points="139,-254.857 139,-284.857 255,-284.857 255,-254.857 139,-254.857"/>
<text text-anchor="start" x="147" y="-272.857" font-family="Helvetica,sans-Serif" font-size="10.00">mom_file_parser::open</text>
<text text-anchor="middle" x="197" y="-261.857" font-family="Helvetica,sans-Serif" font-size="10.00">_param_file</text>
</a>
</g>
</g>
<!-- Node0&#45;&gt;Node3 -->
<g id="edge3" class="edge"><title>Node0&#45;&gt;Node3</title>
<path fill="none" stroke="midnightblue" d="M103.093,-284.1C111.328,-282.838 119.972,-281.512 128.535,-280.2"/>
<polygon fill="midnightblue" stroke="midnightblue" points="129.165,-283.644 138.52,-278.669 128.105,-276.725 129.165,-283.644"/>
</g>
<!-- Node2 -->
<g id="node3" class="node"><title>Node2</title>
<g id="a_node3"><a xlink:href="namespacemom__error__handler.html#ad5f00a53059c72fe2332d1436c80ca71" target="_top" xlink:title="mom_error_handler::\lis_root_pe">
<polygon fill="white" stroke="black" points="738,-216.857 738,-246.857 844,-246.857 844,-216.857 738,-216.857"/>
<text text-anchor="start" x="746" y="-234.857" font-family="Helvetica,sans-Serif" font-size="10.00">mom_error_handler::</text>
<text text-anchor="middle" x="791" y="-223.857" font-family="Helvetica,sans-Serif" font-size="10.00">is_root_pe</text>
</a>
</g>
</g>
<!-- Node1&#45;&gt;Node2 -->
<g id="edge2" class="edge"><title>Node1&#45;&gt;Node2</title>
<path fill="none" stroke="midnightblue" d="M409.507,-312.613C468.882,-310.262 568.577,-303.472 652,-283.857 685.074,-276.08 720.94,-262.393 747.817,-251.012"/>
<polygon fill="midnightblue" stroke="midnightblue" points="749.486,-254.105 757.291,-246.939 746.721,-247.674 749.486,-254.105"/>
</g>
<!-- Node3&#45;&gt;Node2 -->
<g id="edge4" class="edge"><title>Node3&#45;&gt;Node2</title>
<path fill="none" stroke="midnightblue" d="M255.092,-269.205C341.253,-267.83 509.585,-263.612 652,-250.857 676.871,-248.629 704.128,-245.108 727.801,-241.699"/>
<polygon fill="midnightblue" stroke="midnightblue" points="728.322,-245.16 737.709,-240.248 727.308,-238.233 728.322,-245.16"/>
</g>
<!-- Node4 -->
<g id="node5" class="node"><title>Node4</title>
<g id="a_node5"><a xlink:href="namespacemom__file__parser.html#a7abfd98d7f0831fc0d1f3747a68f1be9" target="_top" xlink:title="mom_file_parser::populate\l_param_data">
<polygon fill="white" stroke="black" points="291,-121.857 291,-151.857 422,-151.857 422,-121.857 291,-121.857"/>
<text text-anchor="start" x="299" y="-139.857" font-family="Helvetica,sans-Serif" font-size="10.00">mom_file_parser::populate</text>
<text text-anchor="middle" x="356.5" y="-128.857" font-family="Helvetica,sans-Serif" font-size="10.00">_param_data</text>
</a>
</g>
</g>
<!-- Node3&#45;&gt;Node4 -->
<g id="edge5" class="edge"><title>Node3&#45;&gt;Node4</title>
<path fill="none" stroke="midnightblue" d="M216.067,-254.6C243.956,-231.049 297.609,-185.742 329.616,-158.715"/>
<polygon fill="midnightblue" stroke="midnightblue" points="332.261,-161.061 337.643,-151.935 327.745,-155.713 332.261,-161.061"/>
</g>
<!-- Node4&#45;&gt;Node2 -->
<g id="edge7" class="edge"><title>Node4&#45;&gt;Node2</title>
<path fill="none" stroke="midnightblue" d="M422.047,-126.053C482.841,-118.372 575.714,-113.137 652,-136.857 697.811,-151.101 741.876,-186.425 767.428,-209.754"/>
<polygon fill="midnightblue" stroke="midnightblue" points="765.043,-212.315 774.745,-216.572 769.815,-207.194 765.043,-212.315"/>
</g>
<!-- Node5 -->
<g id="node6" class="node"><title>Node5</title>
<g id="a_node6"><a xlink:href="namespacemom__file__parser.html#a99c426fd23fc4df0c4d05e33039e0a66" target="_top" xlink:title="mom_file_parser::closemultilinecomment">
<polygon fill="white" stroke="black" points="458,-146.357 458,-165.357 652,-165.357 652,-146.357 458,-146.357"/>
<text text-anchor="middle" x="555" y="-153.357" font-family="Helvetica,sans-Serif" font-size="10.00">mom_file_parser::closemultilinecomment</text>
</a>
</g>
</g>
<!-- Node4&#45;&gt;Node5 -->
<g id="edge6" class="edge"><title>Node4&#45;&gt;Node5</title>
<path fill="none" stroke="midnightblue" d="M422.114,-143.104C430.314,-143.897 438.871,-144.725 447.512,-145.56"/>
<polygon fill="midnightblue" stroke="midnightblue" points="447.39,-149.065 457.68,-146.543 448.064,-142.097 447.39,-149.065"/>
</g>
<!-- Node6 -->
<g id="node7" class="node"><title>Node6</title>
<g id="a_node7"><a xlink:href="namespacemom__file__parser.html#ab4b89d9420e174185db1c6aa3feb948b" target="_top" xlink:title="mom_file_parser::lastnoncommentnonblank">
<polygon fill="white" stroke="black" points="688,-32.3566 688,-51.3566 894,-51.3566 894,-32.3566 688,-32.3566"/>
<text text-anchor="middle" x="791" y="-39.3566" font-family="Helvetica,sans-Serif" font-size="10.00">mom_file_parser::lastnoncommentnonblank</text>
</a>
</g>
</g>
<!-- Node4&#45;&gt;Node6 -->
<g id="edge8" class="edge"><title>Node4&#45;&gt;Node6</title>
<path fill="none" stroke="midnightblue" d="M365.209,-121.735C379.432,-95.735 412.552,-43.378 458,-22.8566 557.143,21.9094 690.195,-9.5142 753.533,-29.2245"/>
<polygon fill="midnightblue" stroke="midnightblue" points="752.493,-32.5666 763.084,-32.2739 754.623,-25.8982 752.493,-32.5666"/>
</g>
<!-- Node8 -->
<g id="node9" class="node"><title>Node8</title>
<g id="a_node9"><a xlink:href="namespacemom__file__parser.html#a476a2649ce161e38088588e07f7df130" target="_top" xlink:title="mom_file_parser::openmultilinecomment">
<polygon fill="white" stroke="black" points="695,-70.3566 695,-89.3566 887,-89.3566 887,-70.3566 695,-70.3566"/>
<text text-anchor="middle" x="791" y="-77.3566" font-family="Helvetica,sans-Serif" font-size="10.00">mom_file_parser::openmultilinecomment</text>
</a>
</g>
</g>
<!-- Node4&#45;&gt;Node8 -->
<g id="edge10" class="edge"><title>Node4&#45;&gt;Node8</title>
<path fill="none" stroke="midnightblue" d="M396.044,-121.741C414.506,-115.14 437.1,-107.978 458,-103.857 532.807,-89.1036 618.694,-83.1827 684.368,-80.9087"/>
<polygon fill="midnightblue" stroke="midnightblue" points="684.848,-84.3951 694.73,-80.5743 684.622,-77.3988 684.848,-84.3951"/>
</g>
<!-- Node9 -->
<g id="node10" class="node"><title>Node9</title>
<g id="a_node10"><a xlink:href="namespacemom__file__parser.html#ae0b982cc161173a401291757a6677373" target="_top" xlink:title="mom_file_parser::removecomments">
<polygon fill="white" stroke="black" points="468.5,-32.3566 468.5,-51.3566 641.5,-51.3566 641.5,-32.3566 468.5,-32.3566"/>
<text text-anchor="middle" x="555" y="-39.3566" font-family="Helvetica,sans-Serif" font-size="10.00">mom_file_parser::removecomments</text>
</a>
</g>
</g>
<!-- Node4&#45;&gt;Node9 -->
<g id="edge12" class="edge"><title>Node4&#45;&gt;Node9</title>
<path fill="none" stroke="midnightblue" d="M374.771,-121.597C393.866,-105.493 426.155,-80.4622 458,-65.8566 468.387,-61.0928 479.857,-57.1843 491.146,-54.0082"/>
<polygon fill="midnightblue" stroke="midnightblue" points="492.218,-57.3452 500.989,-51.4026 490.426,-50.5783 492.218,-57.3452"/>
</g>
<!-- Node10 -->
<g id="node11" class="node"><title>Node10</title>
<g id="a_node11"><a xlink:href="namespacemom__file__parser.html#a9813087789e0924f363d7f67768c7f42" target="_top" xlink:title="mom_file_parser::replacetabs">
<polygon fill="white" stroke="black" points="482.5,-222.357 482.5,-241.357 627.5,-241.357 627.5,-222.357 482.5,-222.357"/>
<text text-anchor="middle" x="555" y="-229.357" font-family="Helvetica,sans-Serif" font-size="10.00">mom_file_parser::replacetabs</text>
</a>
</g>
</g>
<!-- Node4&#45;&gt;Node10 -->
<g id="edge14" class="edge"><title>Node4&#45;&gt;Node10</title>
<path fill="none" stroke="midnightblue" d="M372.744,-151.983C391.273,-169.457 424.266,-197.734 458,-212.857 463.698,-215.411 469.738,-217.623 475.904,-219.539"/>
<polygon fill="midnightblue" stroke="midnightblue" points="475.093,-222.947 485.669,-222.313 477.006,-216.213 475.093,-222.947"/>
</g>
<!-- Node11 -->
<g id="node12" class="node"><title>Node11</title>
<g id="a_node12"><a xlink:href="namespacemom__file__parser.html#a3ad322925f44e8cb48c4e652634f6f93" target="_top" xlink:title="mom_file_parser::simplifywhitespace">
<polygon fill="white" stroke="black" points="466,-184.357 466,-203.357 644,-203.357 644,-184.357 466,-184.357"/>
<text text-anchor="middle" x="555" y="-191.357" font-family="Helvetica,sans-Serif" font-size="10.00">mom_file_parser::simplifywhitespace</text>
</a>
</g>
</g>
<!-- Node4&#45;&gt;Node11 -->
<g id="edge15" class="edge"><title>Node4&#45;&gt;Node11</title>
<path fill="none" stroke="midnightblue" d="M392.83,-151.863C411.878,-159.532 435.94,-168.55 458,-174.857 467.556,-177.588 477.758,-180.064 487.811,-182.258"/>
<polygon fill="midnightblue" stroke="midnightblue" points="487.279,-185.722 497.786,-184.356 488.721,-178.872 487.279,-185.722"/>
</g>
<!-- Node7 -->
<g id="node8" class="node"><title>Node7</title>
<g id="a_node8"><a xlink:href="namespacemom__file__parser.html#a000fd0a0681f9e73481ef2663154df78" target="_top" xlink:title="mom_file_parser::lastnoncommentindex">
<polygon fill="white" stroke="black" points="930,-51.3566 930,-70.3566 1120,-70.3566 1120,-51.3566 930,-51.3566"/>
<text text-anchor="middle" x="1025" y="-58.3566" font-family="Helvetica,sans-Serif" font-size="10.00">mom_file_parser::lastnoncommentindex</text>
</a>
</g>
</g>
<!-- Node6&#45;&gt;Node7 -->
<g id="edge9" class="edge"><title>Node6&#45;&gt;Node7</title>
<path fill="none" stroke="midnightblue" d="M894.096,-50.2179C902.659,-50.9192 911.325,-51.6289 919.902,-52.3314"/>
<polygon fill="midnightblue" stroke="midnightblue" points="919.668,-55.8238 929.92,-53.1518 920.239,-48.8472 919.668,-55.8238"/>
</g>
<!-- Node8&#45;&gt;Node7 -->
<g id="edge11" class="edge"><title>Node8&#45;&gt;Node7</title>
<path fill="none" stroke="midnightblue" d="M887.033,-72.0738C897.859,-71.1871 908.937,-70.2799 919.873,-69.3842"/>
<polygon fill="midnightblue" stroke="midnightblue" points="920.184,-72.8706 929.865,-68.5659 919.613,-65.8939 920.184,-72.8706"/>
</g>
<!-- Node9&#45;&gt;Node6 -->
<g id="edge13" class="edge"><title>Node9&#45;&gt;Node6</title>
<path fill="none" stroke="midnightblue" d="M641.804,-41.8566C653.523,-41.8566 665.693,-41.8566 677.793,-41.8566"/>
<polygon fill="midnightblue" stroke="midnightblue" points="677.931,-45.3567 687.931,-41.8566 677.931,-38.3567 677.931,-45.3567"/>
</g>
<!-- Node11&#45;&gt;Node2 -->
<g id="edge16" class="edge"><title>Node11&#45;&gt;Node2</title>
<path fill="none" stroke="midnightblue" d="M614.746,-203.397C649.124,-208.979 692.51,-216.025 727.513,-221.709"/>
<polygon fill="midnightblue" stroke="midnightblue" points="727.186,-225.202 737.617,-223.35 728.308,-218.292 727.186,-225.202"/>
</g>
</g>
</svg>
        <g id="navigator" transform="translate(0 0)" fill="#404254">
                <rect fill="#f2f5e9" fill-opacity="0.5" stroke="#606060" stroke-width=".5" x="0" y="0" width="60" height="60"/>
                <use id="zoomplus" xlink:href="#zoomPlus" x="17" y="9" onmousedown="handleZoom(evt,'in')"/>
                <use id="zoomminus" xlink:href="#zoomMin" x="42" y="9" onmousedown="handleZoom(evt,'out')"/>
                <use id="reset" xlink:href="#resetDef" x="30" y="36" onmousedown="handleReset()"/>
                <g id="arrowUp" xlink:href="#dirArrow" transform="translate(30 24)" onmousedown="handlePan(0,-1)">
                  <use xlink:href="#rim" fill="#404040">
                        <set attributeName="fill" to="#808080" begin="arrowUp.mouseover" end="arrowUp.mouseout"/>
                  </use>
                  <path fill="none" stroke="white" stroke-width="1.5" d="M0,-3.0v7 M-2.5,-0.5L0,-3.0L2.5,-0.5"/>
                </g>
                <g id="arrowRight" xlink:href="#dirArrow" transform="rotate(90) translate(36 -43)" onmousedown="handlePan(1,0)">
                  <use xlink:href="#rim" fill="#404040">
                        <set attributeName="fill" to="#808080" begin="arrowRight.mouseover" end="arrowRight.mouseout"/>
                  </use>
                  <path fill="none" stroke="white" stroke-width="1.5" d="M0,-3.0v7 M-2.5,-0.5L0,-3.0L2.5,-0.5"/>
                </g>
                <g id="arrowDown" xlink:href="#dirArrow" transform="rotate(180) translate(-30 -48)" onmousedown="handlePan(0,1)">
                  <use xlink:href="#rim" fill="#404040">
                        <set attributeName="fill" to="#808080" begin="arrowDown.mouseover" end="arrowDown.mouseout"/>
                  </use>
                  <path fill="none" stroke="white" stroke-width="1.5" d="M0,-3.0v7 M-2.5,-0.5L0,-3.0L2.5,-0.5"/>
                </g>
                <g id="arrowLeft" xlink:href="#dirArrow" transform="rotate(270) translate(-36 17)" onmousedown="handlePan(-1,0)">
                  <use xlink:href="#rim" fill="#404040">
                        <set attributeName="fill" to="#808080" begin="arrowLeft.mouseover" end="arrowLeft.mouseout"/>
                  </use>
                  <path fill="none" stroke="white" stroke-width="1.5" d="M0,-3.0v7 M-2.5,-0.5L0,-3.0L2.5,-0.5"/>
                </g>
        </g>
        <svg viewBox="0 0 15 15" width="100%" height="30px" preserveAspectRatio="xMaxYMin meet">
         <g id="arrow_out" transform="scale(0.3 0.3)">
          <a xlink:href="namespacemom__get__input_a299c5b9476662ef1a382e23a8d078143_cgraph_org.svg" target="_base">
           <rect id="button" ry="5" rx="5" y="6" x="6" height="38" width="38"
                fill="#f2f5e9" fill-opacity="0.5" stroke="#606060" stroke-width="1.0"/>
           <path id="arrow"
             d="M 11.500037,31.436501 C 11.940474,20.09759 22.043105,11.32322 32.158766,21.979434 L 37.068811,17.246167 C 37.068811,17.246167 37.088388,32 37.088388,32 L 22.160133,31.978069 C 22.160133,31.978069 26.997745,27.140456 26.997745,27.140456 C 18.528582,18.264221 13.291696,25.230495 11.500037,31.436501 z"
             style="fill:#404040;"/>
          </a>
         </g>
        </svg>
</svg>
