<?xml version="1.0" encoding="UTF-8" standalone="no"?>
<!DOCTYPE svg PUBLIC "-//W3C//DTD SVG 1.1//EN"
 "http://www.w3.org/Graphics/SVG/1.1/DTD/svg11.dtd">
<!-- Generated by graphviz version 2.38.0 (20140413.2041)
 -->
<!-- Title: mom_diag_mediator::ocean_register_diag Pages: 1 -->
<svg width="272pt" height="39pt"
 viewBox="0.00 0.00 272.00 39.00" xmlns="http://www.w3.org/2000/svg" xmlns:xlink="http://www.w3.org/1999/xlink">
<g id="graph0" class="graph" transform="scale(1 1) rotate(0) translate(4 35)">
<title>mom_diag_mediator::ocean_register_diag</title>
<polygon fill="white" stroke="none" points="-4,4 -4,-35 268,-35 268,4 -4,4"/>
<!-- Node226 -->
<g id="node1" class="node"><title>Node226</title>
<polygon fill="#bfbfbf" stroke="black" points="0,-0.5 0,-30.5 110,-30.5 110,-0.5 0,-0.5"/>
<text text-anchor="start" x="8" y="-18.5" font-family="Helvetica,sans-Serif" font-size="10.00">mom_diag_mediator::</text>
<text text-anchor="middle" x="55" y="-7.5" font-family="Helvetica,sans-Serif" font-size="10.00">ocean_register_diag</text>
</g>
<!-- Node227 -->
<g id="node2" class="node"><title>Node227</title>
<g id="a_node2"><a xlink:href="namespacemom__diag__to__z.html#a90526b2f59f94c6af2f525a221029772" target="_top" xlink:title="This subroutine registers a tracer to be output in depth space. ">
<polygon fill="white" stroke="black" points="146,-0.5 146,-30.5 264,-30.5 264,-0.5 146,-0.5"/>
<text text-anchor="start" x="154" y="-18.5" font-family="Helvetica,sans-Serif" font-size="10.00">mom_diag_to_z::ocean</text>
<text text-anchor="middle" x="205" y="-7.5" font-family="Helvetica,sans-Serif" font-size="10.00">_register_diag_with_z</text>
</a>
</g>
</g>
<!-- Node226&#45;&gt;Node227 -->
<g id="edge1" class="edge"><title>Node226&#45;&gt;Node227</title>
<path fill="none" stroke="midnightblue" d="M120.429,-15.5C128.85,-15.5 137.44,-15.5 145.752,-15.5"/>
<polygon fill="midnightblue" stroke="midnightblue" points="120.269,-12.0001 110.269,-15.5 120.269,-19.0001 120.269,-12.0001"/>
</g>
</g>
</svg>
