<?xml version="1.0" encoding="UTF-8" standalone="no"?>
<!DOCTYPE svg PUBLIC "-//W3C//DTD SVG 1.1//EN"
 "http://www.w3.org/Graphics/SVG/1.1/DTD/svg11.dtd">
<!-- Generated by graphviz version 2.38.0 (20140413.2041)
 -->
<!-- Title: mom_lateral_mixing_coeffs::calc_visbeck_coeffs Pages: 1 -->
<svg width="425pt" height="88pt"
 viewBox="0.00 0.00 425.00 88.00" xmlns="http://www.w3.org/2000/svg" xmlns:xlink="http://www.w3.org/1999/xlink">
<g id="graph0" class="graph" transform="scale(1 1) rotate(0) translate(4 84)">
<title>mom_lateral_mixing_coeffs::calc_visbeck_coeffs</title>
<polygon fill="white" stroke="none" points="-4,4 -4,-84 421,-84 421,4 -4,4"/>
<!-- Node52 -->
<g id="node1" class="node"><title>Node52</title>
<polygon fill="#bfbfbf" stroke="black" points="0,-19 0,-60 112,-60 112,-19 0,-19"/>
<text text-anchor="start" x="8" y="-48" font-family="Helvetica,sans-Serif" font-size="10.00">mom_lateral_mixing</text>
<text text-anchor="start" x="8" y="-37" font-family="Helvetica,sans-Serif" font-size="10.00">_coeffs::calc_visbeck</text>
<text text-anchor="middle" x="56" y="-26" font-family="Helvetica,sans-Serif" font-size="10.00">_coeffs</text>
</g>
<!-- Node53 -->
<g id="node2" class="node"><title>Node53</title>
<g id="a_node2"><a xlink:href="namespacemom__error__handler.html#a460cfb79a06c29fc249952c2a3710d67" target="_top" xlink:title="mom_error_handler::\lmom_error">
<polygon fill="white" stroke="black" points="158.5,-49.5 158.5,-79.5 264.5,-79.5 264.5,-49.5 158.5,-49.5"/>
<text text-anchor="start" x="166.5" y="-67.5" font-family="Helvetica,sans-Serif" font-size="10.00">mom_error_handler::</text>
<text text-anchor="middle" x="211.5" y="-56.5" font-family="Helvetica,sans-Serif" font-size="10.00">mom_error</text>
</a>
</g>
</g>
<!-- Node52&#45;&gt;Node53 -->
<g id="edge1" class="edge"><title>Node52&#45;&gt;Node53</title>
<path fill="none" stroke="midnightblue" d="M112.417,-48.5256C124.158,-50.4378 136.622,-52.4678 148.586,-54.4163"/>
<polygon fill="midnightblue" stroke="midnightblue" points="148.059,-57.8765 158.492,-56.0296 149.184,-50.9675 148.059,-57.8765"/>
</g>
<!-- Node55 -->
<g id="node4" class="node"><title>Node55</title>
<g id="a_node4"><a xlink:href="namespacemom__diag__mediator.html#a0be5d1cbc6c6f8f63950ce7d9bc6455a" target="_top" xlink:title="mom_diag_mediator::\lquery_averaging_enabled">
<polygon fill="white" stroke="black" points="148,-0.5 148,-30.5 275,-30.5 275,-0.5 148,-0.5"/>
<text text-anchor="start" x="156" y="-18.5" font-family="Helvetica,sans-Serif" font-size="10.00">mom_diag_mediator::</text>
<text text-anchor="middle" x="211.5" y="-7.5" font-family="Helvetica,sans-Serif" font-size="10.00">query_averaging_enabled</text>
</a>
</g>
</g>
<!-- Node52&#45;&gt;Node55 -->
<g id="edge3" class="edge"><title>Node52&#45;&gt;Node55</title>
<path fill="none" stroke="midnightblue" d="M112.417,-30.8354C120.688,-29.5423 129.318,-28.193 137.879,-26.8544"/>
<polygon fill="midnightblue" stroke="midnightblue" points="138.533,-30.2948 147.872,-25.292 137.451,-23.3789 138.533,-30.2948"/>
</g>
<!-- Node54 -->
<g id="node3" class="node"><title>Node54</title>
<g id="a_node3"><a xlink:href="namespacemom__error__handler.html#ad5f00a53059c72fe2332d1436c80ca71" target="_top" xlink:title="mom_error_handler::\lis_root_pe">
<polygon fill="white" stroke="black" points="311,-49.5 311,-79.5 417,-79.5 417,-49.5 311,-49.5"/>
<text text-anchor="start" x="319" y="-67.5" font-family="Helvetica,sans-Serif" font-size="10.00">mom_error_handler::</text>
<text text-anchor="middle" x="364" y="-56.5" font-family="Helvetica,sans-Serif" font-size="10.00">is_root_pe</text>
</a>
</g>
</g>
<!-- Node53&#45;&gt;Node54 -->
<g id="edge2" class="edge"><title>Node53&#45;&gt;Node54</title>
<path fill="none" stroke="midnightblue" d="M264.715,-64.5C276.272,-64.5 288.631,-64.5 300.549,-64.5"/>
<polygon fill="midnightblue" stroke="midnightblue" points="300.877,-68.0001 310.877,-64.5 300.877,-61.0001 300.877,-68.0001"/>
</g>
</g>
</svg>
