<?xml version="1.0" encoding="UTF-8" standalone="no"?>
<!DOCTYPE svg PUBLIC "-//W3C//DTD SVG 1.1//EN"
 "http://www.w3.org/Graphics/SVG/1.1/DTD/svg11.dtd">
<!-- Generated by graphviz version 2.38.0 (20140413.2041)
 -->
<!-- Title: mom_tracer_z_init::tracer_z_init Pages: 1 -->
<svg width="538pt" height="181pt"
 viewBox="0.00 0.00 538.00 181.00" xmlns="http://www.w3.org/2000/svg" xmlns:xlink="http://www.w3.org/1999/xlink">
<g id="graph0" class="graph" transform="scale(1 1) rotate(0) translate(4 177)">
<title>mom_tracer_z_init::tracer_z_init</title>
<polygon fill="white" stroke="none" points="-4,4 -4,-177 534,-177 534,4 -4,4"/>
<!-- Node10 -->
<g id="node1" class="node"><title>Node10</title>
<polygon fill="#bfbfbf" stroke="black" points="0,-71.5 0,-101.5 103,-101.5 103,-71.5 0,-71.5"/>
<text text-anchor="start" x="8" y="-89.5" font-family="Helvetica,sans-Serif" font-size="10.00">mom_tracer_z_init::</text>
<text text-anchor="middle" x="51.5" y="-78.5" font-family="Helvetica,sans-Serif" font-size="10.00">tracer_z_init</text>
</g>
<!-- Node11 -->
<g id="node2" class="node"><title>Node11</title>
<g id="a_node2"><a xlink:href="namespacemom__diag__to__z.html#a55f6203cfb483bb62c543f689ab30741" target="_top" xlink:title="This subroutine determines a limited slope for val to be advected with a piecewise limited scheme...">
<polygon fill="white" stroke="black" points="139,-142.5 139,-172.5 246,-172.5 246,-142.5 139,-142.5"/>
<text text-anchor="start" x="147" y="-160.5" font-family="Helvetica,sans-Serif" font-size="10.00">mom_diag_to_z::find</text>
<text text-anchor="middle" x="192.5" y="-149.5" font-family="Helvetica,sans-Serif" font-size="10.00">_limited_slope</text>
</a>
</g>
</g>
<!-- Node10&#45;&gt;Node11 -->
<g id="edge1" class="edge"><title>Node10&#45;&gt;Node11</title>
<path fill="none" stroke="midnightblue" d="M79.1339,-101.589C96.1116,-111.053 118.665,-123.342 139,-133.5 142.097,-135.047 145.315,-136.614 148.564,-138.166"/>
<polygon fill="midnightblue" stroke="midnightblue" points="147.19,-141.388 157.728,-142.478 150.169,-135.054 147.19,-141.388"/>
</g>
<!-- Node12 -->
<g id="node3" class="node"><title>Node12</title>
<g id="a_node3"><a xlink:href="namespacemom__diag__to__z.html#a7bb6af99ccb5eb1daf7473663ca19aea" target="_top" xlink:title="This subroutine determines the layers bounded by interfaces e that overlap with the depth range betwe...">
<polygon fill="white" stroke="black" points="139,-93.5 139,-123.5 246,-123.5 246,-93.5 139,-93.5"/>
<text text-anchor="start" x="147" y="-111.5" font-family="Helvetica,sans-Serif" font-size="10.00">mom_diag_to_z::find</text>
<text text-anchor="middle" x="192.5" y="-100.5" font-family="Helvetica,sans-Serif" font-size="10.00">_overlap</text>
</a>
</g>
</g>
<!-- Node10&#45;&gt;Node12 -->
<g id="edge2" class="edge"><title>Node10&#45;&gt;Node12</title>
<path fill="none" stroke="midnightblue" d="M103.075,-94.5047C111.444,-95.8293 120.209,-97.2166 128.833,-98.5815"/>
<polygon fill="midnightblue" stroke="midnightblue" points="128.434,-102.062 138.859,-100.168 129.529,-95.148 128.434,-102.062"/>
</g>
<!-- Node13 -->
<g id="node4" class="node"><title>Node13</title>
<g id="a_node4"><a xlink:href="namespacemom__error__handler.html#a460cfb79a06c29fc249952c2a3710d67" target="_top" xlink:title="mom_error_handler::\lmom_error">
<polygon fill="white" stroke="black" points="282,-49.5 282,-79.5 388,-79.5 388,-49.5 282,-49.5"/>
<text text-anchor="start" x="290" y="-67.5" font-family="Helvetica,sans-Serif" font-size="10.00">mom_error_handler::</text>
<text text-anchor="middle" x="335" y="-56.5" font-family="Helvetica,sans-Serif" font-size="10.00">mom_error</text>
</a>
</g>
</g>
<!-- Node10&#45;&gt;Node13 -->
<g id="edge3" class="edge"><title>Node10&#45;&gt;Node13</title>
<path fill="none" stroke="midnightblue" d="M103.152,-82.5414C150.392,-78.8494 220.994,-73.3317 271.672,-69.3711"/>
<polygon fill="midnightblue" stroke="midnightblue" points="272.152,-72.8444 281.849,-68.5758 271.606,-65.8657 272.152,-72.8444"/>
</g>
<!-- Node15 -->
<g id="node6" class="node"><title>Node15</title>
<g id="a_node6"><a xlink:href="namespacemom__tracer__z__init.html#a00e2eb419a924624bf8ae6d84e64ef47" target="_top" xlink:title="mom_tracer_z_init::\lread_z_edges">
<polygon fill="white" stroke="black" points="141,-5.5 141,-35.5 244,-35.5 244,-5.5 141,-5.5"/>
<text text-anchor="start" x="149" y="-23.5" font-family="Helvetica,sans-Serif" font-size="10.00">mom_tracer_z_init::</text>
<text text-anchor="middle" x="192.5" y="-12.5" font-family="Helvetica,sans-Serif" font-size="10.00">read_z_edges</text>
</a>
</g>
</g>
<!-- Node10&#45;&gt;Node15 -->
<g id="edge5" class="edge"><title>Node10&#45;&gt;Node15</title>
<path fill="none" stroke="midnightblue" d="M84.3894,-71.3583C104.078,-62.0095 129.531,-49.9244 150.683,-39.8806"/>
<polygon fill="midnightblue" stroke="midnightblue" points="152.227,-43.0223 159.759,-35.5713 149.224,-36.6989 152.227,-43.0223"/>
</g>
<!-- Node14 -->
<g id="node5" class="node"><title>Node14</title>
<g id="a_node5"><a xlink:href="namespacemom__error__handler.html#ad5f00a53059c72fe2332d1436c80ca71" target="_top" xlink:title="mom_error_handler::\lis_root_pe">
<polygon fill="white" stroke="black" points="424,-24.5 424,-54.5 530,-54.5 530,-24.5 424,-24.5"/>
<text text-anchor="start" x="432" y="-42.5" font-family="Helvetica,sans-Serif" font-size="10.00">mom_error_handler::</text>
<text text-anchor="middle" x="477" y="-31.5" font-family="Helvetica,sans-Serif" font-size="10.00">is_root_pe</text>
</a>
</g>
</g>
<!-- Node13&#45;&gt;Node14 -->
<g id="edge4" class="edge"><title>Node13&#45;&gt;Node14</title>
<path fill="none" stroke="midnightblue" d="M388.131,-55.1909C396.512,-53.6942 405.26,-52.1321 413.849,-50.5985"/>
<polygon fill="midnightblue" stroke="midnightblue" points="414.597,-54.0203 423.826,-48.8169 413.366,-47.1293 414.597,-54.0203"/>
</g>
<!-- Node15&#45;&gt;Node13 -->
<g id="edge6" class="edge"><title>Node15&#45;&gt;Node13</title>
<path fill="none" stroke="midnightblue" d="M241.459,-35.5192C252.638,-39.0202 264.657,-42.7842 276.212,-46.4027"/>
<polygon fill="midnightblue" stroke="midnightblue" points="275.191,-49.7505 285.78,-49.3991 277.283,-43.0704 275.191,-49.7505"/>
</g>
<!-- Node16 -->
<g id="node7" class="node"><title>Node16</title>
<g id="a_node7"><a xlink:href="namespacemom__error__handler.html#a1c462df7b61f1296407b4af51dfeceab" target="_top" xlink:title="mom_error_handler::\lmom_mesg">
<polygon fill="white" stroke="black" points="282,-0.5 282,-30.5 388,-30.5 388,-0.5 282,-0.5"/>
<text text-anchor="start" x="290" y="-18.5" font-family="Helvetica,sans-Serif" font-size="10.00">mom_error_handler::</text>
<text text-anchor="middle" x="335" y="-7.5" font-family="Helvetica,sans-Serif" font-size="10.00">mom_mesg</text>
</a>
</g>
</g>
<!-- Node15&#45;&gt;Node16 -->
<g id="edge7" class="edge"><title>Node15&#45;&gt;Node16</title>
<path fill="none" stroke="midnightblue" d="M244.224,-18.6949C253.133,-18.3778 262.497,-18.0446 271.678,-17.7179"/>
<polygon fill="midnightblue" stroke="midnightblue" points="272.063,-21.2065 281.933,-17.3529 271.814,-14.2109 272.063,-21.2065"/>
</g>
<!-- Node16&#45;&gt;Node14 -->
<g id="edge8" class="edge"><title>Node16&#45;&gt;Node14</title>
<path fill="none" stroke="midnightblue" d="M388.131,-24.4367C396.512,-25.8736 405.26,-27.3732 413.849,-28.8455"/>
<polygon fill="midnightblue" stroke="midnightblue" points="413.378,-32.3158 423.826,-30.5558 414.561,-25.4164 413.378,-32.3158"/>
</g>
</g>
</svg>
