<?xml version="1.0" encoding="UTF-8" standalone="no"?>
<!DOCTYPE svg PUBLIC "-//W3C//DTD SVG 1.1//EN"
 "http://www.w3.org/Graphics/SVG/1.1/DTD/svg11.dtd">
<!-- Generated by graphviz version 2.38.0 (20140413.2041)
 -->
<!-- Title: mom_grid::allocate_metrics Pages: 1 -->
<svg width="513pt" height="39pt"
 viewBox="0.00 0.00 513.00 39.00" xmlns="http://www.w3.org/2000/svg" xmlns:xlink="http://www.w3.org/1999/xlink">
<g id="graph0" class="graph" transform="scale(1 1) rotate(0) translate(4 35)">
<title>mom_grid::allocate_metrics</title>
<polygon fill="white" stroke="none" points="-4,4 -4,-35 509,-35 509,4 -4,4"/>
<!-- Node7 -->
<g id="node1" class="node"><title>Node7</title>
<polygon fill="#bfbfbf" stroke="black" points="0,-0.5 0,-30.5 99,-30.5 99,-0.5 0,-0.5"/>
<text text-anchor="start" x="8" y="-18.5" font-family="Helvetica,sans-Serif" font-size="10.00">mom_grid::allocate</text>
<text text-anchor="middle" x="49.5" y="-7.5" font-family="Helvetica,sans-Serif" font-size="10.00">_metrics</text>
</g>
<!-- Node8 -->
<g id="node2" class="node"><title>Node8</title>
<g id="a_node2"><a xlink:href="namespacemom__grid.html#a06d585b4319f18d7d7fac2afceb08205" target="_top" xlink:title="MOM_grid_init initializes the ocean grid array sizes and grid memory. ">
<polygon fill="white" stroke="black" points="135,-6 135,-25 261,-25 261,-6 135,-6"/>
<text text-anchor="middle" x="198" y="-13" font-family="Helvetica,sans-Serif" font-size="10.00">mom_grid::mom_grid_init</text>
</a>
</g>
</g>
<!-- Node7&#45;&gt;Node8 -->
<g id="edge1" class="edge"><title>Node7&#45;&gt;Node8</title>
<path fill="none" stroke="midnightblue" d="M109.364,-15.5C117.762,-15.5 126.422,-15.5 134.879,-15.5"/>
<polygon fill="midnightblue" stroke="midnightblue" points="109.282,-12.0001 99.2824,-15.5 109.282,-19.0001 109.282,-12.0001"/>
</g>
<!-- Node9 -->
<g id="node3" class="node"><title>Node9</title>
<g id="a_node3"><a xlink:href="namespacemom.html#a0be2869fef30e1e0604facfe1b41555d" target="_top" xlink:title="This subroutine initializes MOM. ">
<polygon fill="white" stroke="black" points="297,-6 297,-25 404,-25 404,-6 297,-6"/>
<text text-anchor="middle" x="350.5" y="-13" font-family="Helvetica,sans-Serif" font-size="10.00">mom::initialize_mom</text>
</a>
</g>
</g>
<!-- Node8&#45;&gt;Node9 -->
<g id="edge2" class="edge"><title>Node8&#45;&gt;Node9</title>
<path fill="none" stroke="midnightblue" d="M271.137,-15.5C279.745,-15.5 288.408,-15.5 296.674,-15.5"/>
<polygon fill="midnightblue" stroke="midnightblue" points="271.083,-12.0001 261.083,-15.5 271.083,-19.0001 271.083,-12.0001"/>
</g>
<!-- Node10 -->
<g id="node4" class="node"><title>Node10</title>
<g id="a_node4"><a xlink:href="MOM__driver_8F90.html#a08fffeb2d8e8acbf9ed4609be6d258c6" target="_top" xlink:title="mom_main">
<polygon fill="white" stroke="black" points="440,-6 440,-25 505,-25 505,-6 440,-6"/>
<text text-anchor="middle" x="472.5" y="-13" font-family="Helvetica,sans-Serif" font-size="10.00">mom_main</text>
</a>
</g>
</g>
<!-- Node9&#45;&gt;Node10 -->
<g id="edge3" class="edge"><title>Node9&#45;&gt;Node10</title>
<path fill="none" stroke="midnightblue" d="M414.206,-15.5C423.134,-15.5 431.983,-15.5 439.958,-15.5"/>
<polygon fill="midnightblue" stroke="midnightblue" points="414.134,-12.0001 404.134,-15.5 414.134,-19.0001 414.134,-12.0001"/>
</g>
</g>
</svg>
