<?xml version="1.0" encoding="UTF-8" standalone="no"?>
<!DOCTYPE svg PUBLIC "-//W3C//DTD SVG 1.1//EN"
 "http://www.w3.org/Graphics/SVG/1.1/DTD/svg11.dtd">
<!-- Generated by graphviz version 2.38.0 (20140413.2041)
 -->
<!-- Title: mom_file_parser::get_variable_line Pages: 1 -->
<!--zoomable 192 -->
<svg id="main" version="1.1" xmlns="http://www.w3.org/2000/svg" xmlns:xlink="http://www.w3.org/1999/xlink" xml:space="preserve" onload="init(evt)">
<style type="text/css"><![CDATA[
.edge:hover path { stroke: red; }
.edge:hover polygon { stroke: red; fill: red; }
]]></style>
<script type="text/javascript"><![CDATA[
var edges = document.getElementsByTagName('g');
if (edges && edges.length) {
  for (var i=0;i<edges.length;i++) {
    if (edges[i].id.substr(0,4)=='edge') {
      edges[i].setAttribute('class','edge');
    }
  }
}
]]></script>
        <defs>
                <circle id="rim" cx="0" cy="0" r="7"/>
                <circle id="rim2" cx="0" cy="0" r="3.5"/>
                <g id="zoomPlus">
                        <use xlink:href="#rim" fill="#404040">
                                <set attributeName="fill" to="#808080" begin="zoomplus.mouseover" end="zoomplus.mouseout"/>
                        </use>
                        <path d="M-4,0h8M0,-4v8" fill="none" stroke="white" stroke-width="1.5" pointer-events="none"/>
                </g>
                <g id="zoomMin">
                        <use xlink:href="#rim" fill="#404040">
                                <set attributeName="fill" to="#808080" begin="zoomminus.mouseover" end="zoomminus.mouseout"/>
                        </use>
                        <path d="M-4,0h8" fill="none" stroke="white" stroke-width="1.5" pointer-events="none"/>
                </g>
                <g id="dirArrow">
                        <path fill="none" stroke="white" stroke-width="1.5" d="M0,-3.0v7 M-2.5,-0.5L0,-3.0L2.5,-0.5"/>
                </g>
               <g id="resetDef">
                       <use xlink:href="#rim2" fill="#404040">
                               <set attributeName="fill" to="#808080" begin="reset.mouseover" end="reset.mouseout"/>
                       </use>
               </g>
        </defs>

<script type="text/javascript">
var viewWidth = 522;
var viewHeight = 192;
var sectionId = 'dynsection-16';
</script>
<script xlink:href="svgpan.js"/>
<svg id="graph" class="graph">
<g id="viewport">
<title>mom_file_parser::get_variable_line</title>
<polygon fill="white" stroke="none" points="-4,4 -4,-187.5 518,-187.5 518,4 -4,4"/>
<!-- Node145 -->
<g id="node1" class="node"><title>Node145</title>
<polygon fill="#bfbfbf" stroke="black" points="0,-71 0,-101 108,-101 108,-71 0,-71"/>
<text text-anchor="start" x="8" y="-89" font-family="Helvetica,sans-Serif" font-size="10.00">mom_file_parser::get</text>
<text text-anchor="middle" x="54" y="-78" font-family="Helvetica,sans-Serif" font-size="10.00">_variable_line</text>
</g>
<!-- Node146 -->
<g id="node2" class="node"><title>Node146</title>
<g id="a_node2"><a xlink:href="namespacemom__file__parser.html#a7803aabff129cc7f56d4516bc24613f0" target="_top" xlink:title="mom_file_parser::flag\l_line_as_read">
<polygon fill="white" stroke="black" points="203,-153 203,-183 313,-183 313,-153 203,-153"/>
<text text-anchor="start" x="211" y="-171" font-family="Helvetica,sans-Serif" font-size="10.00">mom_file_parser::flag</text>
<text text-anchor="middle" x="258" y="-160" font-family="Helvetica,sans-Serif" font-size="10.00">_line_as_read</text>
</a>
</g>
</g>
<!-- Node145&#45;&gt;Node146 -->
<g id="edge1" class="edge"><title>Node145&#45;&gt;Node146</title>
<path fill="none" stroke="midnightblue" d="M77.1738,-101.231C94.6705,-112.677 120.041,-128.036 144,-138 159.443,-144.423 176.651,-149.819 192.889,-154.184"/>
<polygon fill="midnightblue" stroke="midnightblue" points="192.29,-157.644 202.849,-156.768 194.049,-150.869 192.29,-157.644"/>
</g>
<!-- Node147 -->
<g id="node3" class="node"><title>Node147</title>
<g id="a_node3"><a xlink:href="namespacemom__error__handler.html#ad5f00a53059c72fe2332d1436c80ca71" target="_top" xlink:title="mom_error_handler::\lis_root_pe">
<polygon fill="white" stroke="black" points="408,-71 408,-101 514,-101 514,-71 408,-71"/>
<text text-anchor="start" x="416" y="-89" font-family="Helvetica,sans-Serif" font-size="10.00">mom_error_handler::</text>
<text text-anchor="middle" x="461" y="-78" font-family="Helvetica,sans-Serif" font-size="10.00">is_root_pe</text>
</a>
</g>
</g>
<!-- Node145&#45;&gt;Node147 -->
<g id="edge2" class="edge"><title>Node145&#45;&gt;Node147</title>
<path fill="none" stroke="midnightblue" d="M108.359,-99.2942C120.031,-101.667 132.373,-103.773 144,-105 244.774,-115.637 271.239,-115.754 372,-105 380.378,-104.106 389.129,-102.746 397.726,-101.156"/>
<polygon fill="midnightblue" stroke="midnightblue" points="398.574,-104.556 407.714,-99.1976 397.228,-97.6869 398.574,-104.556"/>
</g>
<!-- Node148 -->
<g id="node4" class="node"><title>Node148</title>
<g id="a_node4"><a xlink:href="namespacemom__file__parser.html#a0c9bb1e76b09bc09bae5402e63bd0f99" target="_top" xlink:title="mom_file_parser::overridewarninghasbeenissued">
<polygon fill="white" stroke="black" points="144,-76.5 144,-95.5 372,-95.5 372,-76.5 144,-76.5"/>
<text text-anchor="middle" x="258" y="-83.5" font-family="Helvetica,sans-Serif" font-size="10.00">mom_file_parser::overridewarninghasbeenissued</text>
</a>
</g>
</g>
<!-- Node145&#45;&gt;Node148 -->
<g id="edge3" class="edge"><title>Node145&#45;&gt;Node148</title>
<path fill="none" stroke="midnightblue" d="M108.073,-86C116.141,-86 124.741,-86 133.582,-86"/>
<polygon fill="midnightblue" stroke="midnightblue" points="133.651,-89.5001 143.651,-86 133.651,-82.5001 133.651,-89.5001"/>
</g>
<!-- Node149 -->
<g id="node5" class="node"><title>Node149</title>
<g id="a_node5"><a xlink:href="namespacemom__file__parser.html#a73b11b969d303b1fc0ba5235c812fd05" target="_top" xlink:title="mom_file_parser::popblocklevel">
<polygon fill="white" stroke="black" points="181,-38.5 181,-57.5 335,-57.5 335,-38.5 181,-38.5"/>
<text text-anchor="middle" x="258" y="-45.5" font-family="Helvetica,sans-Serif" font-size="10.00">mom_file_parser::popblocklevel</text>
</a>
</g>
</g>
<!-- Node145&#45;&gt;Node149 -->
<g id="edge4" class="edge"><title>Node145&#45;&gt;Node149</title>
<path fill="none" stroke="midnightblue" d="M108.103,-74.266C119.902,-71.7699 132.36,-69.2199 144,-67 157.916,-64.3459 172.835,-61.6982 187.121,-59.2586"/>
<polygon fill="midnightblue" stroke="midnightblue" points="188.112,-62.6407 197.388,-57.5219 186.944,-55.7388 188.112,-62.6407"/>
</g>
<!-- Node150 -->
<g id="node6" class="node"><title>Node150</title>
<g id="a_node6"><a xlink:href="namespacemom__file__parser.html#a58777b0faf747d59a793b4e238919dc6" target="_top" xlink:title="mom_file_parser::pushblocklevel">
<polygon fill="white" stroke="black" points="178.5,-0.5 178.5,-19.5 337.5,-19.5 337.5,-0.5 178.5,-0.5"/>
<text text-anchor="middle" x="258" y="-7.5" font-family="Helvetica,sans-Serif" font-size="10.00">mom_file_parser::pushblocklevel</text>
</a>
</g>
</g>
<!-- Node145&#45;&gt;Node150 -->
<g id="edge6" class="edge"><title>Node145&#45;&gt;Node150</title>
<path fill="none" stroke="midnightblue" d="M73.5718,-70.9069C90.7841,-57.7299 117.636,-39.1683 144,-29 151.804,-25.99 160.093,-23.4562 168.497,-21.3234"/>
<polygon fill="midnightblue" stroke="midnightblue" points="169.458,-24.693 178.393,-18.9993 167.858,-17.8784 169.458,-24.693"/>
</g>
<!-- Node149&#45;&gt;Node147 -->
<g id="edge5" class="edge"><title>Node149&#45;&gt;Node147</title>
<path fill="none" stroke="midnightblue" d="M318.91,-57.5451C336.082,-60.4242 354.808,-63.7004 372,-67 380.476,-68.6267 389.39,-70.4356 398.158,-72.2725"/>
<polygon fill="midnightblue" stroke="midnightblue" points="397.456,-75.7015 407.965,-74.35 398.907,-68.8535 397.456,-75.7015"/>
</g>
</g>
</svg>
        <g id="navigator" transform="translate(0 0)" fill="#404254">
                <rect fill="#f2f5e9" fill-opacity="0.5" stroke="#606060" stroke-width=".5" x="0" y="0" width="60" height="60"/>
                <use id="zoomplus" xlink:href="#zoomPlus" x="17" y="9" onmousedown="handleZoom(evt,'in')"/>
                <use id="zoomminus" xlink:href="#zoomMin" x="42" y="9" onmousedown="handleZoom(evt,'out')"/>
                <use id="reset" xlink:href="#resetDef" x="30" y="36" onmousedown="handleReset()"/>
                <g id="arrowUp" xlink:href="#dirArrow" transform="translate(30 24)" onmousedown="handlePan(0,-1)">
                  <use xlink:href="#rim" fill="#404040">
                        <set attributeName="fill" to="#808080" begin="arrowUp.mouseover" end="arrowUp.mouseout"/>
                  </use>
                  <path fill="none" stroke="white" stroke-width="1.5" d="M0,-3.0v7 M-2.5,-0.5L0,-3.0L2.5,-0.5"/>
                </g>
                <g id="arrowRight" xlink:href="#dirArrow" transform="rotate(90) translate(36 -43)" onmousedown="handlePan(1,0)">
                  <use xlink:href="#rim" fill="#404040">
                        <set attributeName="fill" to="#808080" begin="arrowRight.mouseover" end="arrowRight.mouseout"/>
                  </use>
                  <path fill="none" stroke="white" stroke-width="1.5" d="M0,-3.0v7 M-2.5,-0.5L0,-3.0L2.5,-0.5"/>
                </g>
                <g id="arrowDown" xlink:href="#dirArrow" transform="rotate(180) translate(-30 -48)" onmousedown="handlePan(0,1)">
                  <use xlink:href="#rim" fill="#404040">
                        <set attributeName="fill" to="#808080" begin="arrowDown.mouseover" end="arrowDown.mouseout"/>
                  </use>
                  <path fill="none" stroke="white" stroke-width="1.5" d="M0,-3.0v7 M-2.5,-0.5L0,-3.0L2.5,-0.5"/>
                </g>
                <g id="arrowLeft" xlink:href="#dirArrow" transform="rotate(270) translate(-36 17)" onmousedown="handlePan(-1,0)">
                  <use xlink:href="#rim" fill="#404040">
                        <set attributeName="fill" to="#808080" begin="arrowLeft.mouseover" end="arrowLeft.mouseout"/>
                  </use>
                  <path fill="none" stroke="white" stroke-width="1.5" d="M0,-3.0v7 M-2.5,-0.5L0,-3.0L2.5,-0.5"/>
                </g>
        </g>
        <svg viewBox="0 0 15 15" width="100%" height="30px" preserveAspectRatio="xMaxYMin meet">
         <g id="arrow_out" transform="scale(0.3 0.3)">
          <a xlink:href="namespacemom__file__parser_af883df6020543889b25986d6ee9701f7_cgraph_org.svg" target="_base">
           <rect id="button" ry="5" rx="5" y="6" x="6" height="38" width="38"
                fill="#f2f5e9" fill-opacity="0.5" stroke="#606060" stroke-width="1.0"/>
           <path id="arrow"
             d="M 11.500037,31.436501 C 11.940474,20.09759 22.043105,11.32322 32.158766,21.979434 L 37.068811,17.246167 C 37.068811,17.246167 37.088388,32 37.088388,32 L 22.160133,31.978069 C 22.160133,31.978069 26.997745,27.140456 26.997745,27.140456 C 18.528582,18.264221 13.291696,25.230495 11.500037,31.436501 z"
             style="fill:#404040;"/>
          </a>
         </g>
        </svg>
</svg>
