<?xml version="1.0" encoding="UTF-8" standalone="no"?>
<!DOCTYPE svg PUBLIC "-//W3C//DTD SVG 1.1//EN"
 "http://www.w3.org/Graphics/SVG/1.1/DTD/svg11.dtd">
<!-- Generated by graphviz version 2.38.0 (20140413.2041)
 -->
<!-- Title: pseudo_salt_tracer::register_pseudo_salt_tracer Pages: 1 -->
<!--zoomable 192 -->
<svg id="main" version="1.1" xmlns="http://www.w3.org/2000/svg" xmlns:xlink="http://www.w3.org/1999/xlink" xml:space="preserve" onload="init(evt)">
<style type="text/css"><![CDATA[
.edge:hover path { stroke: red; }
.edge:hover polygon { stroke: red; fill: red; }
]]></style>
<script type="text/javascript"><![CDATA[
var edges = document.getElementsByTagName('g');
if (edges && edges.length) {
  for (var i=0;i<edges.length;i++) {
    if (edges[i].id.substr(0,4)=='edge') {
      edges[i].setAttribute('class','edge');
    }
  }
}
]]></script>
        <defs>
                <circle id="rim" cx="0" cy="0" r="7"/>
                <circle id="rim2" cx="0" cy="0" r="3.5"/>
                <g id="zoomPlus">
                        <use xlink:href="#rim" fill="#404040">
                                <set attributeName="fill" to="#808080" begin="zoomplus.mouseover" end="zoomplus.mouseout"/>
                        </use>
                        <path d="M-4,0h8M0,-4v8" fill="none" stroke="white" stroke-width="1.5" pointer-events="none"/>
                </g>
                <g id="zoomMin">
                        <use xlink:href="#rim" fill="#404040">
                                <set attributeName="fill" to="#808080" begin="zoomminus.mouseover" end="zoomminus.mouseout"/>
                        </use>
                        <path d="M-4,0h8" fill="none" stroke="white" stroke-width="1.5" pointer-events="none"/>
                </g>
                <g id="dirArrow">
                        <path fill="none" stroke="white" stroke-width="1.5" d="M0,-3.0v7 M-2.5,-0.5L0,-3.0L2.5,-0.5"/>
                </g>
               <g id="resetDef">
                       <use xlink:href="#rim2" fill="#404040">
                               <set attributeName="fill" to="#808080" begin="reset.mouseover" end="reset.mouseout"/>
                       </use>
               </g>
        </defs>

<script type="text/javascript">
var viewWidth = 907;
var viewHeight = 192;
var sectionId = 'dynsection-6';
</script>
<script xlink:href="svgpan.js"/>
<svg id="graph" class="graph">
<g id="viewport">
<title>pseudo_salt_tracer::register_pseudo_salt_tracer</title>
<polygon fill="white" stroke="none" points="-4,4 -4,-187.5 903,-187.5 903,4 -4,4"/>
<!-- Node30 -->
<g id="node1" class="node"><title>Node30</title>
<polygon fill="#bfbfbf" stroke="black" points="0,-84.5 0,-125.5 113,-125.5 113,-84.5 0,-84.5"/>
<text text-anchor="start" x="8" y="-113.5" font-family="Helvetica,sans-Serif" font-size="10.00">pseudo_salt_tracer</text>
<text text-anchor="start" x="8" y="-102.5" font-family="Helvetica,sans-Serif" font-size="10.00">::register_pseudo_salt</text>
<text text-anchor="middle" x="56.5" y="-91.5" font-family="Helvetica,sans-Serif" font-size="10.00">_tracer</text>
</g>
<!-- Node31 -->
<g id="node2" class="node"><title>Node31</title>
<g id="a_node2"><a xlink:href="namespaceatmos__ocean__fluxes__mod.html#a2bde46287389f28af76f8794dd509475" target="_top" xlink:title="atmos_ocean_fluxes\l_mod::aof_set_coupler_flux">
<polygon fill="white" stroke="black" points="149,-153 149,-183 286,-183 286,-153 149,-153"/>
<text text-anchor="start" x="157" y="-171" font-family="Helvetica,sans-Serif" font-size="10.00">atmos_ocean_fluxes</text>
<text text-anchor="middle" x="217.5" y="-160" font-family="Helvetica,sans-Serif" font-size="10.00">_mod::aof_set_coupler_flux</text>
</a>
</g>
</g>
<!-- Node30&#45;&gt;Node31 -->
<g id="edge1" class="edge"><title>Node30&#45;&gt;Node31</title>
<path fill="none" stroke="midnightblue" d="M109.563,-125.629C128.689,-133.207 150.232,-141.743 168.942,-149.156"/>
<polygon fill="midnightblue" stroke="midnightblue" points="167.855,-152.49 178.441,-152.92 170.433,-145.982 167.855,-152.49"/>
</g>
<!-- Node32 -->
<g id="node3" class="node"><title>Node32</title>
<g id="a_node3"><a xlink:href="namespacemom__error__handler.html#a460cfb79a06c29fc249952c2a3710d67" target="_top" xlink:title="mom_error_handler::\lmom_error">
<polygon fill="white" stroke="black" points="651,-90 651,-120 757,-120 757,-90 651,-90"/>
<text text-anchor="start" x="659" y="-108" font-family="Helvetica,sans-Serif" font-size="10.00">mom_error_handler::</text>
<text text-anchor="middle" x="704" y="-97" font-family="Helvetica,sans-Serif" font-size="10.00">mom_error</text>
</a>
</g>
</g>
<!-- Node30&#45;&gt;Node32 -->
<g id="edge2" class="edge"><title>Node30&#45;&gt;Node32</title>
<path fill="none" stroke="midnightblue" d="M113.133,-107.821C124.969,-108.312 137.395,-108.746 149,-109 327.265,-112.895 537.864,-109.051 640.486,-106.634"/>
<polygon fill="midnightblue" stroke="midnightblue" points="640.758,-110.129 650.671,-106.391 640.59,-103.131 640.758,-110.129"/>
</g>
<!-- Node34 -->
<g id="node5" class="node"><title>Node34</title>
<g id="a_node5"><a xlink:href="namespacemom__io.html#a23e82d1d89d9bb1c9bdf802ce80d4508" target="_top" xlink:title="This routine queries vardesc. ">
<polygon fill="white" stroke="black" points="324.5,-76.5 324.5,-95.5 445.5,-95.5 445.5,-76.5 324.5,-76.5"/>
<text text-anchor="middle" x="385" y="-83.5" font-family="Helvetica,sans-Serif" font-size="10.00">mom_io::query_vardesc</text>
</a>
</g>
</g>
<!-- Node30&#45;&gt;Node34 -->
<g id="edge4" class="edge"><title>Node30&#45;&gt;Node34</title>
<path fill="none" stroke="midnightblue" d="M113.256,-101.755C168.782,-98.5242 254.174,-93.5549 314.18,-90.0631"/>
<polygon fill="midnightblue" stroke="midnightblue" points="314.548,-93.5476 324.328,-89.4725 314.142,-86.5594 314.548,-93.5476"/>
</g>
<!-- Node36 -->
<g id="node7" class="node"><title>Node36</title>
<g id="a_node7"><a xlink:href="namespacemom__io.html#a39c3ccc06bb1a6e446af2ee9010eba16" target="_top" xlink:title="Returns a vardesc type whose elements have been filled with the provided fields. The argument name is...">
<polygon fill="white" stroke="black" points="169,-38.5 169,-57.5 266,-57.5 266,-38.5 169,-38.5"/>
<text text-anchor="middle" x="217.5" y="-45.5" font-family="Helvetica,sans-Serif" font-size="10.00">mom_io::var_desc</text>
</a>
</g>
</g>
<!-- Node30&#45;&gt;Node36 -->
<g id="edge7" class="edge"><title>Node30&#45;&gt;Node36</title>
<path fill="none" stroke="midnightblue" d="M113.131,-84.891C124.967,-80.6252 137.394,-76.1561 149,-72 159.011,-68.4149 169.865,-64.5474 179.881,-60.9861"/>
<polygon fill="midnightblue" stroke="midnightblue" points="181.305,-64.1946 189.556,-57.5486 178.961,-57.5986 181.305,-64.1946"/>
</g>
<!-- Node33 -->
<g id="node4" class="node"><title>Node33</title>
<g id="a_node4"><a xlink:href="namespacemom__error__handler.html#ad5f00a53059c72fe2332d1436c80ca71" target="_top" xlink:title="mom_error_handler::\lis_root_pe">
<polygon fill="white" stroke="black" points="793,-90 793,-120 899,-120 899,-90 793,-90"/>
<text text-anchor="start" x="801" y="-108" font-family="Helvetica,sans-Serif" font-size="10.00">mom_error_handler::</text>
<text text-anchor="middle" x="846" y="-97" font-family="Helvetica,sans-Serif" font-size="10.00">is_root_pe</text>
</a>
</g>
</g>
<!-- Node32&#45;&gt;Node33 -->
<g id="edge3" class="edge"><title>Node32&#45;&gt;Node33</title>
<path fill="none" stroke="midnightblue" d="M757.131,-105C765.421,-105 774.07,-105 782.568,-105"/>
<polygon fill="midnightblue" stroke="midnightblue" points="782.826,-108.5 792.826,-105 782.826,-101.5 782.826,-108.5"/>
</g>
<!-- Node35 -->
<g id="node6" class="node"><title>Node35</title>
<g id="a_node6"><a xlink:href="namespacemom__io.html#ac4bc408e8b38dbd669842753f26ebf88" target="_top" xlink:title="Copies a string. ">
<polygon fill="white" stroke="black" points="484,-57.5 484,-76.5 615,-76.5 615,-57.5 484,-57.5"/>
<text text-anchor="middle" x="549.5" y="-64.5" font-family="Helvetica,sans-Serif" font-size="10.00">mom_io::safe_string_copy</text>
</a>
</g>
</g>
<!-- Node34&#45;&gt;Node35 -->
<g id="edge5" class="edge"><title>Node34&#45;&gt;Node35</title>
<path fill="none" stroke="midnightblue" d="M445.586,-79.033C454.766,-77.9597 464.344,-76.8398 473.803,-75.7339"/>
<polygon fill="midnightblue" stroke="midnightblue" points="474.469,-79.1799 483.995,-74.5421 473.656,-72.2272 474.469,-79.1799"/>
</g>
<!-- Node35&#45;&gt;Node32 -->
<g id="edge6" class="edge"><title>Node35&#45;&gt;Node32</title>
<path fill="none" stroke="midnightblue" d="M588.982,-76.589C604.693,-80.5038 623.266,-85.1318 640.81,-89.5034"/>
<polygon fill="midnightblue" stroke="midnightblue" points="640.442,-93.0187 650.991,-92.0405 642.134,-86.2264 640.442,-93.0187"/>
</g>
<!-- Node36&#45;&gt;Node35 -->
<g id="edge10" class="edge"><title>Node36&#45;&gt;Node35</title>
<path fill="none" stroke="midnightblue" d="M266.132,-50.7425C320.518,-53.8738 410.176,-59.0359 473.863,-62.7027"/>
<polygon fill="midnightblue" stroke="midnightblue" points="473.668,-66.1972 483.852,-63.2779 474.07,-59.2087 473.668,-66.1972"/>
</g>
<!-- Node37 -->
<g id="node8" class="node"><title>Node37</title>
<g id="a_node8"><a xlink:href="namespacemom__io.html#af96b29cb8410d557e8e452b81586223b" target="_top" xlink:title="This routine modifies the named elements of a vardesc type. All arguments are optional, except the vardesc type to be modified. ">
<polygon fill="white" stroke="black" points="322,-0.5 322,-19.5 448,-19.5 448,-0.5 322,-0.5"/>
<text text-anchor="middle" x="385" y="-7.5" font-family="Helvetica,sans-Serif" font-size="10.00">mom_io::modify_vardesc</text>
</a>
</g>
</g>
<!-- Node36&#45;&gt;Node37 -->
<g id="edge8" class="edge"><title>Node36&#45;&gt;Node37</title>
<path fill="none" stroke="midnightblue" d="M260.263,-38.411C282.201,-33.3739 309.28,-27.1562 332.508,-21.8229"/>
<polygon fill="midnightblue" stroke="midnightblue" points="333.575,-25.1692 342.538,-19.5201 332.008,-18.3467 333.575,-25.1692"/>
</g>
<!-- Node37&#45;&gt;Node35 -->
<g id="edge9" class="edge"><title>Node37&#45;&gt;Node35</title>
<path fill="none" stroke="midnightblue" d="M413.199,-19.5405C440.149,-28.9938 481.619,-43.5402 511.544,-54.037"/>
<polygon fill="midnightblue" stroke="midnightblue" points="510.618,-57.421 521.212,-57.4284 512.935,-50.8156 510.618,-57.421"/>
</g>
</g>
</svg>
        <g id="navigator" transform="translate(0 0)" fill="#404254">
                <rect fill="#f2f5e9" fill-opacity="0.5" stroke="#606060" stroke-width=".5" x="0" y="0" width="60" height="60"/>
                <use id="zoomplus" xlink:href="#zoomPlus" x="17" y="9" onmousedown="handleZoom(evt,'in')"/>
                <use id="zoomminus" xlink:href="#zoomMin" x="42" y="9" onmousedown="handleZoom(evt,'out')"/>
                <use id="reset" xlink:href="#resetDef" x="30" y="36" onmousedown="handleReset()"/>
                <g id="arrowUp" xlink:href="#dirArrow" transform="translate(30 24)" onmousedown="handlePan(0,-1)">
                  <use xlink:href="#rim" fill="#404040">
                        <set attributeName="fill" to="#808080" begin="arrowUp.mouseover" end="arrowUp.mouseout"/>
                  </use>
                  <path fill="none" stroke="white" stroke-width="1.5" d="M0,-3.0v7 M-2.5,-0.5L0,-3.0L2.5,-0.5"/>
                </g>
                <g id="arrowRight" xlink:href="#dirArrow" transform="rotate(90) translate(36 -43)" onmousedown="handlePan(1,0)">
                  <use xlink:href="#rim" fill="#404040">
                        <set attributeName="fill" to="#808080" begin="arrowRight.mouseover" end="arrowRight.mouseout"/>
                  </use>
                  <path fill="none" stroke="white" stroke-width="1.5" d="M0,-3.0v7 M-2.5,-0.5L0,-3.0L2.5,-0.5"/>
                </g>
                <g id="arrowDown" xlink:href="#dirArrow" transform="rotate(180) translate(-30 -48)" onmousedown="handlePan(0,1)">
                  <use xlink:href="#rim" fill="#404040">
                        <set attributeName="fill" to="#808080" begin="arrowDown.mouseover" end="arrowDown.mouseout"/>
                  </use>
                  <path fill="none" stroke="white" stroke-width="1.5" d="M0,-3.0v7 M-2.5,-0.5L0,-3.0L2.5,-0.5"/>
                </g>
                <g id="arrowLeft" xlink:href="#dirArrow" transform="rotate(270) translate(-36 17)" onmousedown="handlePan(-1,0)">
                  <use xlink:href="#rim" fill="#404040">
                        <set attributeName="fill" to="#808080" begin="arrowLeft.mouseover" end="arrowLeft.mouseout"/>
                  </use>
                  <path fill="none" stroke="white" stroke-width="1.5" d="M0,-3.0v7 M-2.5,-0.5L0,-3.0L2.5,-0.5"/>
                </g>
        </g>
        <svg viewBox="0 0 15 15" width="100%" height="30px" preserveAspectRatio="xMaxYMin meet">
         <g id="arrow_out" transform="scale(0.3 0.3)">
          <a xlink:href="namespacepseudo__salt__tracer_a147eabcabc9a787c01310dd67a5bab08_cgraph_org.svg" target="_base">
           <rect id="button" ry="5" rx="5" y="6" x="6" height="38" width="38"
                fill="#f2f5e9" fill-opacity="0.5" stroke="#606060" stroke-width="1.0"/>
           <path id="arrow"
             d="M 11.500037,31.436501 C 11.940474,20.09759 22.043105,11.32322 32.158766,21.979434 L 37.068811,17.246167 C 37.068811,17.246167 37.088388,32 37.088388,32 L 22.160133,31.978069 C 22.160133,31.978069 26.997745,27.140456 26.997745,27.140456 C 18.528582,18.264221 13.291696,25.230495 11.500037,31.436501 z"
             style="fill:#404040;"/>
          </a>
         </g>
        </svg>
</svg>
