<?xml version="1.0" encoding="UTF-8" standalone="no"?>
<!DOCTYPE svg PUBLIC "-//W3C//DTD SVG 1.1//EN"
 "http://www.w3.org/Graphics/SVG/1.1/DTD/svg11.dtd">
<!-- Generated by graphviz version 2.38.0 (20140413.2041)
 -->
<!-- Title: mom_file_parser::simplifywhitespace Pages: 1 -->
<svg width="328pt" height="39pt"
 viewBox="0.00 0.00 328.00 39.00" xmlns="http://www.w3.org/2000/svg" xmlns:xlink="http://www.w3.org/1999/xlink">
<g id="graph0" class="graph" transform="scale(1 1) rotate(0) translate(4 35)">
<title>mom_file_parser::simplifywhitespace</title>
<polygon fill="white" stroke="none" points="-4,4 -4,-35 324,-35 324,4 -4,4"/>
<!-- Node452 -->
<g id="node1" class="node"><title>Node452</title>
<polygon fill="#bfbfbf" stroke="black" points="-2.84217e-14,-6 -2.84217e-14,-25 178,-25 178,-6 -2.84217e-14,-6"/>
<text text-anchor="middle" x="89" y="-13" font-family="Helvetica,sans-Serif" font-size="10.00">mom_file_parser::simplifywhitespace</text>
</g>
<!-- Node453 -->
<g id="node2" class="node"><title>Node453</title>
<g id="a_node2"><a xlink:href="namespacemom__error__handler.html#ad5f00a53059c72fe2332d1436c80ca71" target="_top" xlink:title="mom_error_handler::\lis_root_pe">
<polygon fill="white" stroke="black" points="214,-0.5 214,-30.5 320,-30.5 320,-0.5 214,-0.5"/>
<text text-anchor="start" x="222" y="-18.5" font-family="Helvetica,sans-Serif" font-size="10.00">mom_error_handler::</text>
<text text-anchor="middle" x="267" y="-7.5" font-family="Helvetica,sans-Serif" font-size="10.00">is_root_pe</text>
</a>
</g>
</g>
<!-- Node452&#45;&gt;Node453 -->
<g id="edge1" class="edge"><title>Node452&#45;&gt;Node453</title>
<path fill="none" stroke="midnightblue" d="M178.258,-15.5C186.821,-15.5 195.382,-15.5 203.614,-15.5"/>
<polygon fill="midnightblue" stroke="midnightblue" points="203.843,-19.0001 213.843,-15.5 203.843,-12.0001 203.843,-19.0001"/>
</g>
</g>
</svg>
