<?xml version="1.0" encoding="UTF-8" standalone="no"?>
<!DOCTYPE svg PUBLIC "-//W3C//DTD SVG 1.1//EN"
 "http://www.w3.org/Graphics/SVG/1.1/DTD/svg11.dtd">
<!-- Generated by graphviz version 2.38.0 (20140413.2041)
 -->
<!-- Title: baroclinic_zone_initialization::baroclinic_zone_init_temperature_salinity Pages: 1 -->
<svg width="575pt" height="50pt"
 viewBox="0.00 0.00 575.00 50.00" xmlns="http://www.w3.org/2000/svg" xmlns:xlink="http://www.w3.org/1999/xlink">
<g id="graph0" class="graph" transform="scale(1 1) rotate(0) translate(4 46)">
<title>baroclinic_zone_initialization::baroclinic_zone_init_temperature_salinity</title>
<polygon fill="white" stroke="none" points="-4,4 -4,-46 571,-46 571,4 -4,4"/>
<!-- Node13 -->
<g id="node1" class="node"><title>Node13</title>
<polygon fill="#bfbfbf" stroke="black" points="0,-0.5 0,-41.5 165,-41.5 165,-0.5 0,-0.5"/>
<text text-anchor="start" x="8" y="-29.5" font-family="Helvetica,sans-Serif" font-size="10.00">baroclinic_zone_initialization</text>
<text text-anchor="start" x="8" y="-18.5" font-family="Helvetica,sans-Serif" font-size="10.00">::baroclinic_zone_init_temperature</text>
<text text-anchor="middle" x="82.5" y="-7.5" font-family="Helvetica,sans-Serif" font-size="10.00">_salinity</text>
</g>
<!-- Node14 -->
<g id="node2" class="node"><title>Node14</title>
<g id="a_node2"><a xlink:href="namespacemom__state__initialization.html#af4e854627c6572332ba3fd895f169321" target="_top" xlink:title="mom_state_initialization\l::mom_initialize_state">
<polygon fill="white" stroke="black" points="201,-6 201,-36 323,-36 323,-6 201,-6"/>
<text text-anchor="start" x="209" y="-24" font-family="Helvetica,sans-Serif" font-size="10.00">mom_state_initialization</text>
<text text-anchor="middle" x="262" y="-13" font-family="Helvetica,sans-Serif" font-size="10.00">::mom_initialize_state</text>
</a>
</g>
</g>
<!-- Node13&#45;&gt;Node14 -->
<g id="edge1" class="edge"><title>Node13&#45;&gt;Node14</title>
<path fill="none" stroke="midnightblue" d="M175.391,-21C184.043,-21 192.654,-21 200.897,-21"/>
<polygon fill="midnightblue" stroke="midnightblue" points="175.236,-17.5001 165.236,-21 175.236,-24.5001 175.236,-17.5001"/>
</g>
<!-- Node15 -->
<g id="node3" class="node"><title>Node15</title>
<g id="a_node3"><a xlink:href="namespacemom.html#a0be2869fef30e1e0604facfe1b41555d" target="_top" xlink:title="This subroutine initializes MOM. ">
<polygon fill="white" stroke="black" points="359,-11.5 359,-30.5 466,-30.5 466,-11.5 359,-11.5"/>
<text text-anchor="middle" x="412.5" y="-18.5" font-family="Helvetica,sans-Serif" font-size="10.00">mom::initialize_mom</text>
</a>
</g>
</g>
<!-- Node14&#45;&gt;Node15 -->
<g id="edge2" class="edge"><title>Node14&#45;&gt;Node15</title>
<path fill="none" stroke="midnightblue" d="M333.657,-21C342.116,-21 350.636,-21 358.779,-21"/>
<polygon fill="midnightblue" stroke="midnightblue" points="333.401,-17.5001 323.401,-21 333.401,-24.5001 333.401,-17.5001"/>
</g>
<!-- Node16 -->
<g id="node4" class="node"><title>Node16</title>
<g id="a_node4"><a xlink:href="MOM__driver_8F90.html#a08fffeb2d8e8acbf9ed4609be6d258c6" target="_top" xlink:title="mom_main">
<polygon fill="white" stroke="black" points="502,-11.5 502,-30.5 567,-30.5 567,-11.5 502,-11.5"/>
<text text-anchor="middle" x="534.5" y="-18.5" font-family="Helvetica,sans-Serif" font-size="10.00">mom_main</text>
</a>
</g>
</g>
<!-- Node15&#45;&gt;Node16 -->
<g id="edge3" class="edge"><title>Node15&#45;&gt;Node16</title>
<path fill="none" stroke="midnightblue" d="M476.206,-21C485.134,-21 493.983,-21 501.958,-21"/>
<polygon fill="midnightblue" stroke="midnightblue" points="476.134,-17.5001 466.134,-21 476.134,-24.5001 476.134,-17.5001"/>
</g>
</g>
</svg>
