<?xml version="1.0" encoding="UTF-8" standalone="no"?>
<!DOCTYPE svg PUBLIC "-//W3C//DTD SVG 1.1//EN"
 "http://www.w3.org/Graphics/SVG/1.1/DTD/svg11.dtd">
<!-- Generated by graphviz version 2.38.0 (20140413.2041)
 -->
<!-- Title: mom_continuity_ppm::continuity_ppm Pages: 1 -->
<!--zoomable 537 -->
<svg id="main" version="1.1" xmlns="http://www.w3.org/2000/svg" xmlns:xlink="http://www.w3.org/1999/xlink" xml:space="preserve" onload="init(evt)">
<style type="text/css"><![CDATA[
.edge:hover path { stroke: red; }
.edge:hover polygon { stroke: red; fill: red; }
]]></style>
<script type="text/javascript"><![CDATA[
var edges = document.getElementsByTagName('g');
if (edges && edges.length) {
  for (var i=0;i<edges.length;i++) {
    if (edges[i].id.substr(0,4)=='edge') {
      edges[i].setAttribute('class','edge');
    }
  }
}
]]></script>
        <defs>
                <circle id="rim" cx="0" cy="0" r="7"/>
                <circle id="rim2" cx="0" cy="0" r="3.5"/>
                <g id="zoomPlus">
                        <use xlink:href="#rim" fill="#404040">
                                <set attributeName="fill" to="#808080" begin="zoomplus.mouseover" end="zoomplus.mouseout"/>
                        </use>
                        <path d="M-4,0h8M0,-4v8" fill="none" stroke="white" stroke-width="1.5" pointer-events="none"/>
                </g>
                <g id="zoomMin">
                        <use xlink:href="#rim" fill="#404040">
                                <set attributeName="fill" to="#808080" begin="zoomminus.mouseover" end="zoomminus.mouseout"/>
                        </use>
                        <path d="M-4,0h8" fill="none" stroke="white" stroke-width="1.5" pointer-events="none"/>
                </g>
                <g id="dirArrow">
                        <path fill="none" stroke="white" stroke-width="1.5" d="M0,-3.0v7 M-2.5,-0.5L0,-3.0L2.5,-0.5"/>
                </g>
               <g id="resetDef">
                       <use xlink:href="#rim2" fill="#404040">
                               <set attributeName="fill" to="#808080" begin="reset.mouseover" end="reset.mouseout"/>
                       </use>
               </g>
        </defs>

<script type="text/javascript">
var viewWidth = 727;
var viewHeight = 537;
var sectionId = 'dynsection-0';
</script>
<script xlink:href="svgpan.js"/>
<svg id="graph" class="graph">
<g id="viewport">
<title>mom_continuity_ppm::continuity_ppm</title>
<polygon fill="white" stroke="none" points="-4,4 -4,-533 723,-533 723,4 -4,4"/>
<!-- Node0 -->
<g id="node1" class="node"><title>Node0</title>
<polygon fill="#bfbfbf" stroke="black" points="0,-161.5 0,-191.5 110,-191.5 110,-161.5 0,-161.5"/>
<text text-anchor="start" x="8" y="-179.5" font-family="Helvetica,sans-Serif" font-size="10.00">mom_continuity_ppm</text>
<text text-anchor="middle" x="55" y="-168.5" font-family="Helvetica,sans-Serif" font-size="10.00">::continuity_ppm</text>
</g>
<!-- Node1 -->
<g id="node2" class="node"><title>Node1</title>
<g id="a_node2"><a xlink:href="namespacemom__continuity__ppm.html#ae326b8319da257f423f73a32a984b641" target="_top" xlink:title="Calculates the mass or volume fluxes through the meridional faces, and other related quantities...">
<polygon fill="white" stroke="black" points="146,-161.5 146,-191.5 263,-191.5 263,-161.5 146,-161.5"/>
<text text-anchor="start" x="154" y="-179.5" font-family="Helvetica,sans-Serif" font-size="10.00">mom_continuity_ppm</text>
<text text-anchor="middle" x="204.5" y="-168.5" font-family="Helvetica,sans-Serif" font-size="10.00">::meridional_mass_flux</text>
</a>
</g>
</g>
<!-- Node0&#45;&gt;Node1 -->
<g id="edge1" class="edge"><title>Node0&#45;&gt;Node1</title>
<path fill="none" stroke="midnightblue" d="M110.086,-176.5C118.478,-176.5 127.236,-176.5 135.88,-176.5"/>
<polygon fill="midnightblue" stroke="midnightblue" points="135.948,-180 145.948,-176.5 135.948,-173 135.948,-180"/>
</g>
<!-- Node10 -->
<g id="node11" class="node"><title>Node10</title>
<g id="a_node11"><a xlink:href="namespacemom__error__handler.html#a460cfb79a06c29fc249952c2a3710d67" target="_top" xlink:title="mom_error_handler::\lmom_error">
<polygon fill="white" stroke="black" points="151.5,-66.5 151.5,-96.5 257.5,-96.5 257.5,-66.5 151.5,-66.5"/>
<text text-anchor="start" x="159.5" y="-84.5" font-family="Helvetica,sans-Serif" font-size="10.00">mom_error_handler::</text>
<text text-anchor="middle" x="204.5" y="-73.5" font-family="Helvetica,sans-Serif" font-size="10.00">mom_error</text>
</a>
</g>
</g>
<!-- Node0&#45;&gt;Node10 -->
<g id="edge13" class="edge"><title>Node0&#45;&gt;Node10</title>
<path fill="none" stroke="midnightblue" d="M79.3718,-161.447C104.147,-145.49 143.452,-120.175 171.185,-102.313"/>
<polygon fill="midnightblue" stroke="midnightblue" points="173.237,-105.155 179.749,-96.7972 169.447,-99.2695 173.237,-105.155"/>
</g>
<!-- Node12 -->
<g id="node13" class="node"><title>Node12</title>
<g id="a_node13"><a xlink:href="namespacemom__continuity__ppm.html#aaee3d916bed27d4884d9473218c20fc9" target="_top" xlink:title="Calculates the mass or volume fluxes through the zonal faces, and other related quantities. ">
<polygon fill="white" stroke="black" points="149.5,-366.5 149.5,-396.5 259.5,-396.5 259.5,-366.5 149.5,-366.5"/>
<text text-anchor="start" x="157.5" y="-384.5" font-family="Helvetica,sans-Serif" font-size="10.00">mom_continuity_ppm</text>
<text text-anchor="middle" x="204.5" y="-373.5" font-family="Helvetica,sans-Serif" font-size="10.00">::zonal_mass_flux</text>
</a>
</g>
</g>
<!-- Node0&#45;&gt;Node12 -->
<g id="edge15" class="edge"><title>Node0&#45;&gt;Node12</title>
<path fill="none" stroke="midnightblue" d="M66.846,-191.574C92.3119,-226.967 156.079,-315.592 186.645,-358.075"/>
<polygon fill="midnightblue" stroke="midnightblue" points="183.957,-360.331 192.638,-366.404 189.639,-356.242 183.957,-360.331"/>
</g>
<!-- Node2 -->
<g id="node3" class="node"><title>Node2</title>
<g id="a_node3"><a xlink:href="namespacemom__continuity__ppm.html#ab3bd46a3a28be2c37952c84c3568ca09" target="_top" xlink:title="Calculates left/right edge values for PPM reconstruction. ">
<polygon fill="white" stroke="black" points="299,-224.5 299,-254.5 418,-254.5 418,-224.5 299,-224.5"/>
<text text-anchor="start" x="307" y="-242.5" font-family="Helvetica,sans-Serif" font-size="10.00">mom_continuity_ppm</text>
<text text-anchor="middle" x="358.5" y="-231.5" font-family="Helvetica,sans-Serif" font-size="10.00">::ppm_reconstruction_y</text>
</a>
</g>
</g>
<!-- Node1&#45;&gt;Node2 -->
<g id="edge2" class="edge"><title>Node1&#45;&gt;Node2</title>
<path fill="none" stroke="midnightblue" d="M241.908,-191.59C262.888,-200.286 289.452,-211.296 311.824,-220.568"/>
<polygon fill="midnightblue" stroke="midnightblue" points="310.548,-223.828 321.126,-224.424 313.228,-217.362 310.548,-223.828"/>
</g>
<!-- Node5 -->
<g id="node6" class="node"><title>Node5</title>
<g id="a_node6"><a xlink:href="namespacemom__continuity__ppm.html#a1036571b2b764e39c6386a47fc978836" target="_top" xlink:title="Evaluates the meridional mass or volume fluxes in a layer. ">
<polygon fill="white" stroke="black" points="609,-125.5 609,-155.5 719,-155.5 719,-125.5 609,-125.5"/>
<text text-anchor="start" x="617" y="-143.5" font-family="Helvetica,sans-Serif" font-size="10.00">mom_continuity_ppm</text>
<text text-anchor="middle" x="664" y="-132.5" font-family="Helvetica,sans-Serif" font-size="10.00">::merid_flux_layer</text>
</a>
</g>
</g>
<!-- Node1&#45;&gt;Node5 -->
<g id="edge5" class="edge"><title>Node1&#45;&gt;Node5</title>
<path fill="none" stroke="midnightblue" d="M263.202,-178.985C335.926,-181.118 464.537,-181.568 573,-164.5 583.169,-162.9 593.845,-160.611 604.148,-158.076"/>
<polygon fill="midnightblue" stroke="midnightblue" points="605.063,-161.455 613.883,-155.584 603.327,-154.674 605.063,-161.455"/>
</g>
<!-- Node6 -->
<g id="node7" class="node"><title>Node6</title>
<g id="a_node7"><a xlink:href="namespacemom__continuity__ppm.html#adf02002cf5951d7610b8643d2d401585" target="_top" xlink:title="Return the maximum ratio of a/b or maxrat. ">
<polygon fill="white" stroke="black" points="303.5,-273.5 303.5,-303.5 413.5,-303.5 413.5,-273.5 303.5,-273.5"/>
<text text-anchor="start" x="311.5" y="-291.5" font-family="Helvetica,sans-Serif" font-size="10.00">mom_continuity_ppm</text>
<text text-anchor="middle" x="358.5" y="-280.5" font-family="Helvetica,sans-Serif" font-size="10.00">::ratio_max</text>
</a>
</g>
</g>
<!-- Node1&#45;&gt;Node6 -->
<g id="edge6" class="edge"><title>Node1&#45;&gt;Node6</title>
<path fill="none" stroke="midnightblue" d="M218.768,-191.738C235.812,-210.582 267.029,-242.707 299,-263.5 301.912,-265.394 304.992,-267.2 308.154,-268.911"/>
<polygon fill="midnightblue" stroke="midnightblue" points="306.707,-272.101 317.213,-273.476 309.857,-265.85 306.707,-272.101"/>
</g>
<!-- Node7 -->
<g id="node8" class="node"><title>Node7</title>
<g id="a_node8"><a xlink:href="namespacemom__continuity__ppm.html#a1a09c28286ea6568eb1a25e91d481f60" target="_top" xlink:title="Returns the barotropic velocity adjustment that gives the desired barotropic (layer&#45;summed) transport...">
<polygon fill="white" stroke="black" points="454,-125.5 454,-155.5 573,-155.5 573,-125.5 454,-125.5"/>
<text text-anchor="start" x="462" y="-143.5" font-family="Helvetica,sans-Serif" font-size="10.00">mom_continuity_ppm</text>
<text text-anchor="middle" x="513.5" y="-132.5" font-family="Helvetica,sans-Serif" font-size="10.00">::meridional_flux_adjust</text>
</a>
</g>
</g>
<!-- Node1&#45;&gt;Node7 -->
<g id="edge7" class="edge"><title>Node1&#45;&gt;Node7</title>
<path fill="none" stroke="midnightblue" d="M263.244,-169.729C314.482,-163.72 389.418,-154.933 443.737,-148.563"/>
<polygon fill="midnightblue" stroke="midnightblue" points="444.446,-152.004 453.971,-147.363 443.631,-145.052 444.446,-152.004"/>
</g>
<!-- Node8 -->
<g id="node9" class="node"><title>Node8</title>
<g id="a_node9"><a xlink:href="namespacemom__continuity__ppm.html#ac0a93898960aef838a55a8ef4f926aa1" target="_top" xlink:title="Sets of a structure that describes the meridional barotropic volume or mass fluxes as a function of b...">
<polygon fill="white" stroke="black" points="303.5,-49.5 303.5,-79.5 413.5,-79.5 413.5,-49.5 303.5,-49.5"/>
<text text-anchor="start" x="311.5" y="-67.5" font-family="Helvetica,sans-Serif" font-size="10.00">mom_continuity_ppm</text>
<text text-anchor="middle" x="358.5" y="-56.5" font-family="Helvetica,sans-Serif" font-size="10.00">::set_merid_bt_cont</text>
</a>
</g>
</g>
<!-- Node1&#45;&gt;Node8 -->
<g id="edge9" class="edge"><title>Node1&#45;&gt;Node8</title>
<path fill="none" stroke="midnightblue" d="M218.388,-161.332C235.277,-142.229 266.579,-109.382 299,-88.5 301.3,-87.0186 303.707,-85.5981 306.177,-84.2408"/>
<polygon fill="midnightblue" stroke="midnightblue" points="307.988,-87.2469 315.328,-79.6062 304.826,-81.0022 307.988,-87.2469"/>
</g>
<!-- Node9 -->
<g id="node10" class="node"><title>Node9</title>
<g id="a_node10"><a xlink:href="namespacemom__continuity__ppm.html#a57d13af4508737f8a42c2a997614a60e" target="_top" xlink:title="Sets the effective interface thickness at each meridional velocity point. ">
<polygon fill="white" stroke="black" points="299.5,-98.5 299.5,-128.5 417.5,-128.5 417.5,-98.5 299.5,-98.5"/>
<text text-anchor="start" x="307.5" y="-116.5" font-family="Helvetica,sans-Serif" font-size="10.00">mom_continuity_ppm</text>
<text text-anchor="middle" x="358.5" y="-105.5" font-family="Helvetica,sans-Serif" font-size="10.00">::merid_face_thickness</text>
</a>
</g>
</g>
<!-- Node1&#45;&gt;Node9 -->
<g id="edge12" class="edge"><title>Node1&#45;&gt;Node9</title>
<path fill="none" stroke="midnightblue" d="M241.908,-161.41C262.888,-152.714 289.452,-141.704 311.824,-132.432"/>
<polygon fill="midnightblue" stroke="midnightblue" points="313.228,-135.638 321.126,-128.576 310.548,-129.172 313.228,-135.638"/>
</g>
<!-- Node3 -->
<g id="node4" class="node"><title>Node3</title>
<g id="a_node4"><a xlink:href="namespacemom__continuity__ppm.html#ab03786fff2550dd61282356608fc1352" target="_top" xlink:title="This subroutine limits the left/right edge values of the PPM reconstruction according to the monotoni...">
<polygon fill="white" stroke="black" points="458.5,-238.5 458.5,-268.5 568.5,-268.5 568.5,-238.5 458.5,-238.5"/>
<text text-anchor="start" x="466.5" y="-256.5" font-family="Helvetica,sans-Serif" font-size="10.00">mom_continuity_ppm</text>
<text text-anchor="middle" x="513.5" y="-245.5" font-family="Helvetica,sans-Serif" font-size="10.00">::ppm_limit_cw84</text>
</a>
</g>
</g>
<!-- Node2&#45;&gt;Node3 -->
<g id="edge3" class="edge"><title>Node2&#45;&gt;Node3</title>
<path fill="none" stroke="midnightblue" d="M418.216,-244.873C427.973,-245.766 438.139,-246.696 448.029,-247.601"/>
<polygon fill="midnightblue" stroke="midnightblue" points="447.931,-251.106 458.208,-248.532 448.569,-244.135 447.931,-251.106"/>
</g>
<!-- Node4 -->
<g id="node5" class="node"><title>Node4</title>
<g id="a_node5"><a xlink:href="namespacemom__continuity__ppm.html#a870edb0c5b2cb0464899430b6651260c" target="_top" xlink:title="This subroutine limits the left/right edge values of the PPM reconstruction to give a reconstruction ...">
<polygon fill="white" stroke="black" points="458.5,-309.5 458.5,-339.5 568.5,-339.5 568.5,-309.5 458.5,-309.5"/>
<text text-anchor="start" x="466.5" y="-327.5" font-family="Helvetica,sans-Serif" font-size="10.00">mom_continuity_ppm</text>
<text text-anchor="middle" x="513.5" y="-316.5" font-family="Helvetica,sans-Serif" font-size="10.00">::ppm_limit_pos</text>
</a>
</g>
</g>
<!-- Node2&#45;&gt;Node4 -->
<g id="edge4" class="edge"><title>Node2&#45;&gt;Node4</title>
<path fill="none" stroke="midnightblue" d="M398.974,-254.531C405.425,-257.317 411.967,-260.349 418,-263.5 440.61,-275.307 464.751,-290.947 482.973,-303.434"/>
<polygon fill="midnightblue" stroke="midnightblue" points="481.197,-306.462 491.41,-309.28 485.184,-300.708 481.197,-306.462"/>
</g>
<!-- Node7&#45;&gt;Node5 -->
<g id="edge8" class="edge"><title>Node7&#45;&gt;Node5</title>
<path fill="none" stroke="midnightblue" d="M573.191,-140.5C581.491,-140.5 590.062,-140.5 598.464,-140.5"/>
<polygon fill="midnightblue" stroke="midnightblue" points="598.6,-144 608.6,-140.5 598.6,-137 598.6,-144"/>
</g>
<!-- Node8&#45;&gt;Node5 -->
<g id="edge11" class="edge"><title>Node8&#45;&gt;Node5</title>
<path fill="none" stroke="midnightblue" d="M413.598,-76.8484C456.838,-86.8565 518.944,-101.541 573,-115.5 581.763,-117.763 590.984,-120.228 600.045,-122.698"/>
<polygon fill="midnightblue" stroke="midnightblue" points="599.216,-126.1 609.785,-125.372 601.069,-119.35 599.216,-126.1"/>
</g>
<!-- Node8&#45;&gt;Node7 -->
<g id="edge10" class="edge"><title>Node8&#45;&gt;Node7</title>
<path fill="none" stroke="midnightblue" d="M397.851,-79.5019C404.623,-82.3581 411.563,-85.4209 418,-88.5 438.283,-98.2026 460.328,-110.243 478.021,-120.294"/>
<polygon fill="midnightblue" stroke="midnightblue" points="476.426,-123.414 486.843,-125.345 479.904,-117.339 476.426,-123.414"/>
</g>
<!-- Node11 -->
<g id="node12" class="node"><title>Node11</title>
<g id="a_node12"><a xlink:href="namespacemom__error__handler.html#ad5f00a53059c72fe2332d1436c80ca71" target="_top" xlink:title="mom_error_handler::\lis_root_pe">
<polygon fill="white" stroke="black" points="305.5,-0.5 305.5,-30.5 411.5,-30.5 411.5,-0.5 305.5,-0.5"/>
<text text-anchor="start" x="313.5" y="-18.5" font-family="Helvetica,sans-Serif" font-size="10.00">mom_error_handler::</text>
<text text-anchor="middle" x="358.5" y="-7.5" font-family="Helvetica,sans-Serif" font-size="10.00">is_root_pe</text>
</a>
</g>
</g>
<!-- Node10&#45;&gt;Node11 -->
<g id="edge14" class="edge"><title>Node10&#45;&gt;Node11</title>
<path fill="none" stroke="midnightblue" d="M238.27,-66.4628C256.155,-58.3358 278.726,-48.2096 299,-39.5 302.858,-37.8426 306.869,-36.1447 310.902,-34.4554"/>
<polygon fill="midnightblue" stroke="midnightblue" points="312.397,-37.624 320.287,-30.5524 309.709,-31.1606 312.397,-37.624"/>
</g>
<!-- Node12&#45;&gt;Node6 -->
<g id="edge20" class="edge"><title>Node12&#45;&gt;Node6</title>
<path fill="none" stroke="midnightblue" d="M223.216,-366.346C241.378,-351.325 270.869,-328.329 299,-312.5 301.822,-310.912 304.771,-309.371 307.779,-307.888"/>
<polygon fill="midnightblue" stroke="midnightblue" points="309.338,-311.023 316.917,-303.621 306.376,-304.681 309.338,-311.023"/>
</g>
<!-- Node13 -->
<g id="node14" class="node"><title>Node13</title>
<g id="a_node14"><a xlink:href="namespacemom__continuity__ppm.html#ad3b20d431c759531e827f1d426786884" target="_top" xlink:title="Calculates left/right edge values for PPM reconstruction. ">
<polygon fill="white" stroke="black" points="299,-322.5 299,-352.5 418,-352.5 418,-322.5 299,-322.5"/>
<text text-anchor="start" x="307" y="-340.5" font-family="Helvetica,sans-Serif" font-size="10.00">mom_continuity_ppm</text>
<text text-anchor="middle" x="358.5" y="-329.5" font-family="Helvetica,sans-Serif" font-size="10.00">::ppm_reconstruction_x</text>
</a>
</g>
</g>
<!-- Node12&#45;&gt;Node13 -->
<g id="edge16" class="edge"><title>Node12&#45;&gt;Node13</title>
<path fill="none" stroke="midnightblue" d="M257.385,-366.481C269.789,-362.89 283.15,-359.022 295.944,-355.319"/>
<polygon fill="midnightblue" stroke="midnightblue" points="296.959,-358.669 305.591,-352.526 295.012,-351.945 296.959,-358.669"/>
</g>
<!-- Node14 -->
<g id="node15" class="node"><title>Node14</title>
<g id="a_node15"><a xlink:href="namespacemom__continuity__ppm.html#a3c7a68d00ff8defb2edcc60d0b7ddb7e" target="_top" xlink:title="Evaluates the zonal mass or volume fluxes in a layer. ">
<polygon fill="white" stroke="black" points="609,-413.5 609,-443.5 719,-443.5 719,-413.5 609,-413.5"/>
<text text-anchor="start" x="617" y="-431.5" font-family="Helvetica,sans-Serif" font-size="10.00">mom_continuity_ppm</text>
<text text-anchor="middle" x="664" y="-420.5" font-family="Helvetica,sans-Serif" font-size="10.00">::zonal_flux_layer</text>
</a>
</g>
</g>
<!-- Node12&#45;&gt;Node14 -->
<g id="edge19" class="edge"><title>Node12&#45;&gt;Node14</title>
<path fill="none" stroke="midnightblue" d="M219.637,-396.599C236.599,-413.501 266.805,-439.907 299,-450.5 400.519,-483.903 526.429,-463.687 600.419,-446.042"/>
<polygon fill="midnightblue" stroke="midnightblue" points="601.625,-449.35 610.507,-443.575 599.962,-442.551 601.625,-449.35"/>
</g>
<!-- Node15 -->
<g id="node16" class="node"><title>Node15</title>
<g id="a_node16"><a xlink:href="namespacemom__continuity__ppm.html#a409d8171ed588e0c2b492dbfc963570d" target="_top" xlink:title="Returns the barotropic velocity adjustment that gives the desired barotropic (layer&#45;summed) transport...">
<polygon fill="white" stroke="black" points="458.5,-369.5 458.5,-399.5 568.5,-399.5 568.5,-369.5 458.5,-369.5"/>
<text text-anchor="start" x="466.5" y="-387.5" font-family="Helvetica,sans-Serif" font-size="10.00">mom_continuity_ppm</text>
<text text-anchor="middle" x="513.5" y="-376.5" font-family="Helvetica,sans-Serif" font-size="10.00">::zonal_flux_adjust</text>
</a>
</g>
</g>
<!-- Node12&#45;&gt;Node15 -->
<g id="edge21" class="edge"><title>Node12&#45;&gt;Node15</title>
<path fill="none" stroke="midnightblue" d="M259.679,-382.029C312.345,-382.544 392.348,-383.326 448.21,-383.872"/>
<polygon fill="midnightblue" stroke="midnightblue" points="448.314,-387.373 458.347,-383.971 448.382,-380.373 448.314,-387.373"/>
</g>
<!-- Node16 -->
<g id="node17" class="node"><title>Node16</title>
<g id="a_node17"><a xlink:href="namespacemom__continuity__ppm.html#aad852a51f55e24f5e276e4fbfe639394" target="_top" xlink:title="Sets a structure that describes the zonal barotropic volume or mass fluxes as a function of barotropi...">
<polygon fill="white" stroke="black" points="303.5,-410.5 303.5,-440.5 413.5,-440.5 413.5,-410.5 303.5,-410.5"/>
<text text-anchor="start" x="311.5" y="-428.5" font-family="Helvetica,sans-Serif" font-size="10.00">mom_continuity_ppm</text>
<text text-anchor="middle" x="358.5" y="-417.5" font-family="Helvetica,sans-Serif" font-size="10.00">::set_zonal_bt_cont</text>
</a>
</g>
</g>
<!-- Node12&#45;&gt;Node16 -->
<g id="edge23" class="edge"><title>Node12&#45;&gt;Node16</title>
<path fill="none" stroke="midnightblue" d="M257.385,-396.519C269.789,-400.11 283.15,-403.978 295.944,-407.681"/>
<polygon fill="midnightblue" stroke="midnightblue" points="295.012,-411.055 305.591,-410.474 296.959,-404.331 295.012,-411.055"/>
</g>
<!-- Node17 -->
<g id="node18" class="node"><title>Node17</title>
<g id="a_node18"><a xlink:href="namespacemom__continuity__ppm.html#a0d2952b38c8d388f317d904bc5d967b1" target="_top" xlink:title="Sets the effective interface thickness at each zonal velocity point. ">
<polygon fill="white" stroke="black" points="300,-498.5 300,-528.5 417,-528.5 417,-498.5 300,-498.5"/>
<text text-anchor="start" x="308" y="-516.5" font-family="Helvetica,sans-Serif" font-size="10.00">mom_continuity_ppm</text>
<text text-anchor="middle" x="358.5" y="-505.5" font-family="Helvetica,sans-Serif" font-size="10.00">::zonal_face_thickness</text>
</a>
</g>
</g>
<!-- Node12&#45;&gt;Node17 -->
<g id="edge26" class="edge"><title>Node12&#45;&gt;Node17</title>
<path fill="none" stroke="midnightblue" d="M216.507,-396.557C232.716,-417.949 264.803,-457.431 299,-483.5 303.71,-487.091 308.914,-490.458 314.219,-493.546"/>
<polygon fill="midnightblue" stroke="midnightblue" points="312.722,-496.717 323.171,-498.467 316.094,-490.583 312.722,-496.717"/>
</g>
<!-- Node13&#45;&gt;Node3 -->
<g id="edge17" class="edge"><title>Node13&#45;&gt;Node3</title>
<path fill="none" stroke="midnightblue" d="M397.037,-322.477C404.093,-319.367 411.342,-315.975 418,-312.5 440.103,-300.965 463.907,-286.087 482.095,-274.157"/>
<polygon fill="midnightblue" stroke="midnightblue" points="484.135,-277.005 490.541,-268.566 480.27,-271.168 484.135,-277.005"/>
</g>
<!-- Node13&#45;&gt;Node4 -->
<g id="edge18" class="edge"><title>Node13&#45;&gt;Node4</title>
<path fill="none" stroke="midnightblue" d="M418.216,-332.511C427.973,-331.682 438.139,-330.818 448.029,-329.978"/>
<polygon fill="midnightblue" stroke="midnightblue" points="448.54,-333.447 458.208,-329.113 447.948,-326.472 448.54,-333.447"/>
</g>
<!-- Node15&#45;&gt;Node14 -->
<g id="edge22" class="edge"><title>Node15&#45;&gt;Node14</title>
<path fill="none" stroke="midnightblue" d="M565.19,-399.519C577.19,-403.075 590.106,-406.902 602.493,-410.572"/>
<polygon fill="midnightblue" stroke="midnightblue" points="601.704,-413.989 612.287,-413.474 603.693,-407.277 601.704,-413.989"/>
</g>
<!-- Node16&#45;&gt;Node14 -->
<g id="edge25" class="edge"><title>Node16&#45;&gt;Node14</title>
<path fill="none" stroke="midnightblue" d="M413.76,-426.036C465.578,-426.549 543.696,-427.321 598.635,-427.864"/>
<polygon fill="midnightblue" stroke="midnightblue" points="598.921,-431.367 608.955,-427.966 598.99,-424.367 598.921,-431.367"/>
</g>
<!-- Node16&#45;&gt;Node15 -->
<g id="edge24" class="edge"><title>Node16&#45;&gt;Node15</title>
<path fill="none" stroke="midnightblue" d="M413.873,-410.929C425.033,-407.939 436.881,-404.764 448.349,-401.691"/>
<polygon fill="midnightblue" stroke="midnightblue" points="449.549,-404.993 458.302,-399.024 447.737,-398.231 449.549,-404.993"/>
</g>
</g>
</svg>
        <g id="navigator" transform="translate(0 0)" fill="#404254">
                <rect fill="#f2f5e9" fill-opacity="0.5" stroke="#606060" stroke-width=".5" x="0" y="0" width="60" height="60"/>
                <use id="zoomplus" xlink:href="#zoomPlus" x="17" y="9" onmousedown="handleZoom(evt,'in')"/>
                <use id="zoomminus" xlink:href="#zoomMin" x="42" y="9" onmousedown="handleZoom(evt,'out')"/>
                <use id="reset" xlink:href="#resetDef" x="30" y="36" onmousedown="handleReset()"/>
                <g id="arrowUp" xlink:href="#dirArrow" transform="translate(30 24)" onmousedown="handlePan(0,-1)">
                  <use xlink:href="#rim" fill="#404040">
                        <set attributeName="fill" to="#808080" begin="arrowUp.mouseover" end="arrowUp.mouseout"/>
                  </use>
                  <path fill="none" stroke="white" stroke-width="1.5" d="M0,-3.0v7 M-2.5,-0.5L0,-3.0L2.5,-0.5"/>
                </g>
                <g id="arrowRight" xlink:href="#dirArrow" transform="rotate(90) translate(36 -43)" onmousedown="handlePan(1,0)">
                  <use xlink:href="#rim" fill="#404040">
                        <set attributeName="fill" to="#808080" begin="arrowRight.mouseover" end="arrowRight.mouseout"/>
                  </use>
                  <path fill="none" stroke="white" stroke-width="1.5" d="M0,-3.0v7 M-2.5,-0.5L0,-3.0L2.5,-0.5"/>
                </g>
                <g id="arrowDown" xlink:href="#dirArrow" transform="rotate(180) translate(-30 -48)" onmousedown="handlePan(0,1)">
                  <use xlink:href="#rim" fill="#404040">
                        <set attributeName="fill" to="#808080" begin="arrowDown.mouseover" end="arrowDown.mouseout"/>
                  </use>
                  <path fill="none" stroke="white" stroke-width="1.5" d="M0,-3.0v7 M-2.5,-0.5L0,-3.0L2.5,-0.5"/>
                </g>
                <g id="arrowLeft" xlink:href="#dirArrow" transform="rotate(270) translate(-36 17)" onmousedown="handlePan(-1,0)">
                  <use xlink:href="#rim" fill="#404040">
                        <set attributeName="fill" to="#808080" begin="arrowLeft.mouseover" end="arrowLeft.mouseout"/>
                  </use>
                  <path fill="none" stroke="white" stroke-width="1.5" d="M0,-3.0v7 M-2.5,-0.5L0,-3.0L2.5,-0.5"/>
                </g>
        </g>
        <svg viewBox="0 0 15 15" width="100%" height="30px" preserveAspectRatio="xMaxYMin meet">
         <g id="arrow_out" transform="scale(0.3 0.3)">
          <a xlink:href="namespacemom__continuity__ppm_a59586aae1668f03f3a78d58f5712cc0f_cgraph_org.svg" target="_base">
           <rect id="button" ry="5" rx="5" y="6" x="6" height="38" width="38"
                fill="#f2f5e9" fill-opacity="0.5" stroke="#606060" stroke-width="1.0"/>
           <path id="arrow"
             d="M 11.500037,31.436501 C 11.940474,20.09759 22.043105,11.32322 32.158766,21.979434 L 37.068811,17.246167 C 37.068811,17.246167 37.088388,32 37.088388,32 L 22.160133,31.978069 C 22.160133,31.978069 26.997745,27.140456 26.997745,27.140456 C 18.528582,18.264221 13.291696,25.230495 11.500037,31.436501 z"
             style="fill:#404040;"/>
          </a>
         </g>
        </svg>
</svg>
