<?xml version="1.0" encoding="UTF-8" standalone="no"?>
<!DOCTYPE svg PUBLIC "-//W3C//DTD SVG 1.1//EN"
 "http://www.w3.org/Graphics/SVG/1.1/DTD/svg11.dtd">
<!-- Generated by graphviz version 2.38.0 (20140413.2041)
 -->
<!-- Title: mom_tracer_diabatic::applytracerboundaryfluxesinout Pages: 1 -->
<svg width="333pt" height="329pt"
 viewBox="0.00 0.00 333.00 329.00" xmlns="http://www.w3.org/2000/svg" xmlns:xlink="http://www.w3.org/1999/xlink">
<g id="graph0" class="graph" transform="scale(1 1) rotate(0) translate(4 325)">
<title>mom_tracer_diabatic::applytracerboundaryfluxesinout</title>
<polygon fill="white" stroke="none" points="-4,4 -4,-325 329,-325 329,4 -4,4"/>
<!-- Node1 -->
<g id="node1" class="node"><title>Node1</title>
<polygon fill="#bfbfbf" stroke="black" points="0,-137 0,-167 158,-167 158,-137 0,-137"/>
<text text-anchor="start" x="8" y="-155" font-family="Helvetica,sans-Serif" font-size="10.00">mom_tracer_diabatic</text>
<text text-anchor="middle" x="79" y="-144" font-family="Helvetica,sans-Serif" font-size="10.00">::applytracerboundaryfluxesinout</text>
</g>
<!-- Node2 -->
<g id="node2" class="node"><title>Node2</title>
<g id="a_node2"><a xlink:href="namespaceadvection__test__tracer.html#a02a7937d0c46fd2b70a64161d25ed378" target="_top" xlink:title="advection_test_tracer\l::advection_test_tracer\l_column_physics">
<polygon fill="white" stroke="black" points="201.5,-279.5 201.5,-320.5 317.5,-320.5 317.5,-279.5 201.5,-279.5"/>
<text text-anchor="start" x="209.5" y="-308.5" font-family="Helvetica,sans-Serif" font-size="10.00">advection_test_tracer</text>
<text text-anchor="start" x="209.5" y="-297.5" font-family="Helvetica,sans-Serif" font-size="10.00">::advection_test_tracer</text>
<text text-anchor="middle" x="259.5" y="-286.5" font-family="Helvetica,sans-Serif" font-size="10.00">_column_physics</text>
</a>
</g>
</g>
<!-- Node1&#45;&gt;Node2 -->
<g id="edge1" class="edge"><title>Node1&#45;&gt;Node2</title>
<path fill="none" stroke="midnightblue" d="M98.0035,-175.227C118.895,-200.988 155.439,-242.53 194,-270 198.728,-273.368 203.893,-276.51 209.177,-279.396"/>
<polygon fill="midnightblue" stroke="midnightblue" points="100.516,-172.765 91.5384,-167.139 95.0483,-177.136 100.516,-172.765"/>
</g>
<!-- Node3 -->
<g id="node3" class="node"><title>Node3</title>
<g id="a_node3"><a xlink:href="namespaceboundary__impulse__tracer.html#aca66c0e29a18f158c998ab10fecd6beb" target="_top" xlink:title="boundary_impulse_tracer\l::boundary_impulse_tracer\l_column_physics">
<polygon fill="white" stroke="black" points="194,-219.5 194,-260.5 325,-260.5 325,-219.5 194,-219.5"/>
<text text-anchor="start" x="202" y="-248.5" font-family="Helvetica,sans-Serif" font-size="10.00">boundary_impulse_tracer</text>
<text text-anchor="start" x="202" y="-237.5" font-family="Helvetica,sans-Serif" font-size="10.00">::boundary_impulse_tracer</text>
<text text-anchor="middle" x="259.5" y="-226.5" font-family="Helvetica,sans-Serif" font-size="10.00">_column_physics</text>
</a>
</g>
</g>
<!-- Node1&#45;&gt;Node3 -->
<g id="edge2" class="edge"><title>Node1&#45;&gt;Node3</title>
<path fill="none" stroke="midnightblue" d="M117.962,-171.737C140.055,-183.117 168.493,-197.584 194,-210 200.329,-213.081 207.038,-216.277 213.643,-219.385"/>
<polygon fill="midnightblue" stroke="midnightblue" points="119.401,-168.541 108.909,-167.064 116.19,-174.761 119.401,-168.541"/>
</g>
<!-- Node4 -->
<g id="node4" class="node"><title>Node4</title>
<g id="a_node4"><a xlink:href="namespaceideal__age__example.html#a910b9f6a989e02e130231ce67b708bfe" target="_top" xlink:title="ideal_age_example::\lideal_age_tracer_column\l_physics">
<polygon fill="white" stroke="black" points="197,-159.5 197,-200.5 322,-200.5 322,-159.5 197,-159.5"/>
<text text-anchor="start" x="205" y="-188.5" font-family="Helvetica,sans-Serif" font-size="10.00">ideal_age_example::</text>
<text text-anchor="start" x="205" y="-177.5" font-family="Helvetica,sans-Serif" font-size="10.00">ideal_age_tracer_column</text>
<text text-anchor="middle" x="259.5" y="-166.5" font-family="Helvetica,sans-Serif" font-size="10.00">_physics</text>
</a>
</g>
</g>
<!-- Node1&#45;&gt;Node4 -->
<g id="edge3" class="edge"><title>Node1&#45;&gt;Node4</title>
<path fill="none" stroke="midnightblue" d="M168.164,-165.83C177.91,-167.358 187.673,-168.89 196.989,-170.351"/>
<polygon fill="midnightblue" stroke="midnightblue" points="168.455,-162.333 158.033,-164.24 167.37,-169.248 168.455,-162.333"/>
</g>
<!-- Node5 -->
<g id="node5" class="node"><title>Node5</title>
<g id="a_node5"><a xlink:href="namespaceisomip__tracer.html#ab39c7461cc8f1db9e0b681b9250abad1" target="_top" xlink:title="This subroutine applies diapycnal diffusion and any other column. ">
<polygon fill="white" stroke="black" points="198.5,-110 198.5,-140 320.5,-140 320.5,-110 198.5,-110"/>
<text text-anchor="start" x="206.5" y="-128" font-family="Helvetica,sans-Serif" font-size="10.00">isomip_tracer::isomip</text>
<text text-anchor="middle" x="259.5" y="-117" font-family="Helvetica,sans-Serif" font-size="10.00">_tracer_column_physics</text>
</a>
</g>
</g>
<!-- Node1&#45;&gt;Node5 -->
<g id="edge4" class="edge"><title>Node1&#45;&gt;Node5</title>
<path fill="none" stroke="midnightblue" d="M168.21,-138.657C178.413,-137.114 188.634,-135.568 198.34,-134.1"/>
<polygon fill="midnightblue" stroke="midnightblue" points="167.397,-135.24 158.033,-140.197 168.444,-142.162 167.397,-135.24"/>
</g>
<!-- Node6 -->
<g id="node6" class="node"><title>Node6</title>
<g id="a_node6"><a xlink:href="namespacemom__ocmip2__cfc.html#af97d6b5ffc3e2a02d565592ba52bd39b" target="_top" xlink:title="This subroutine applies diapycnal diffusion and any other column. ">
<polygon fill="white" stroke="black" points="194,-61 194,-91 325,-91 325,-61 194,-61"/>
<text text-anchor="start" x="202" y="-79" font-family="Helvetica,sans-Serif" font-size="10.00">mom_ocmip2_cfc::ocmip2</text>
<text text-anchor="middle" x="259.5" y="-68" font-family="Helvetica,sans-Serif" font-size="10.00">_cfc_column_physics</text>
</a>
</g>
</g>
<!-- Node1&#45;&gt;Node6 -->
<g id="edge5" class="edge"><title>Node1&#45;&gt;Node6</title>
<path fill="none" stroke="midnightblue" d="M121.893,-132.645C143.344,-122.891 169.945,-111.035 194,-101 201.98,-97.6709 210.574,-94.2368 218.804,-91.0202"/>
<polygon fill="midnightblue" stroke="midnightblue" points="120.377,-129.489 112.733,-136.825 123.283,-135.858 120.377,-129.489"/>
</g>
<!-- Node7 -->
<g id="node7" class="node"><title>Node7</title>
<g id="a_node7"><a xlink:href="namespacepseudo__salt__tracer.html#a006d8a5e36cc4ed2aed60fb0bace3902" target="_top" xlink:title="pseudo_salt_tracer\l::pseudo_salt_tracer\l_column_physics">
<polygon fill="white" stroke="black" points="207,-0.5 207,-41.5 312,-41.5 312,-0.5 207,-0.5"/>
<text text-anchor="start" x="215" y="-29.5" font-family="Helvetica,sans-Serif" font-size="10.00">pseudo_salt_tracer</text>
<text text-anchor="start" x="215" y="-18.5" font-family="Helvetica,sans-Serif" font-size="10.00">::pseudo_salt_tracer</text>
<text text-anchor="middle" x="259.5" y="-7.5" font-family="Helvetica,sans-Serif" font-size="10.00">_column_physics</text>
</a>
</g>
</g>
<!-- Node1&#45;&gt;Node7 -->
<g id="edge6" class="edge"><title>Node1&#45;&gt;Node7</title>
<path fill="none" stroke="midnightblue" d="M101.934,-129.477C123.858,-107.791 159.225,-74.9849 194,-52 199.597,-48.3006 205.703,-44.7826 211.853,-41.534"/>
<polygon fill="midnightblue" stroke="midnightblue" points="99.3577,-127.103 94.7622,-136.649 104.308,-132.052 99.3577,-127.103"/>
</g>
</g>
</svg>
