<?xml version="1.0" encoding="UTF-8" standalone="no"?>
<!DOCTYPE svg PUBLIC "-//W3C//DTD SVG 1.1//EN"
 "http://www.w3.org/Graphics/SVG/1.1/DTD/svg11.dtd">
<!-- Generated by graphviz version 2.38.0 (20140413.2041)
 -->
<!-- Title: user_initialization::write_user_log Pages: 1 -->
<svg width="847pt" height="394pt"
 viewBox="0.00 0.00 847.00 393.50" xmlns="http://www.w3.org/2000/svg" xmlns:xlink="http://www.w3.org/1999/xlink">
<g id="graph0" class="graph" transform="scale(1 1) rotate(0) translate(4 389.5)">
<title>user_initialization::write_user_log</title>
<polygon fill="white" stroke="none" points="-4,4 -4,-389.5 843,-389.5 843,4 -4,4"/>
<!-- Node49 -->
<g id="node1" class="node"><title>Node49</title>
<polygon fill="#bfbfbf" stroke="black" points="0,-171.5 0,-201.5 92,-201.5 92,-171.5 0,-171.5"/>
<text text-anchor="start" x="8" y="-189.5" font-family="Helvetica,sans-Serif" font-size="10.00">user_initialization</text>
<text text-anchor="middle" x="46" y="-178.5" font-family="Helvetica,sans-Serif" font-size="10.00">::write_user_log</text>
</g>
<!-- Node50 -->
<g id="node2" class="node"><title>Node50</title>
<g id="a_node2"><a xlink:href="namespaceuser__initialization.html#aa6db7133a474bd7832e85ad5bd9df0ca" target="_top" xlink:title="This function puts the initial layer temperatures and salinities into T(:,:,:) and S(:...">
<polygon fill="white" stroke="black" points="137.5,-344 137.5,-385 253.5,-385 253.5,-344 137.5,-344"/>
<text text-anchor="start" x="145.5" y="-373" font-family="Helvetica,sans-Serif" font-size="10.00">user_initialization</text>
<text text-anchor="start" x="145.5" y="-362" font-family="Helvetica,sans-Serif" font-size="10.00">::user_init_temperature</text>
<text text-anchor="middle" x="195.5" y="-351" font-family="Helvetica,sans-Serif" font-size="10.00">_salinity</text>
</a>
</g>
</g>
<!-- Node49&#45;&gt;Node50 -->
<g id="edge1" class="edge"><title>Node49&#45;&gt;Node50</title>
<path fill="none" stroke="midnightblue" d="M54.8884,-211.085C66.3314,-243.267 90.3748,-299.665 128,-334.5 131.718,-337.942 135.897,-341.041 140.303,-343.819"/>
<polygon fill="midnightblue" stroke="midnightblue" points="58.171,-209.867 51.6146,-201.545 51.55,-212.139 58.171,-209.867"/>
</g>
<!-- Node51 -->
<g id="node3" class="node"><title>Node51</title>
<g id="a_node3"><a xlink:href="namespaceuser__initialization.html#a7b14806f2c4db32faadeaebc6363aa64" target="_top" xlink:title="Set up the sponges. ">
<polygon fill="white" stroke="black" points="133.5,-294.5 133.5,-324.5 257.5,-324.5 257.5,-294.5 133.5,-294.5"/>
<text text-anchor="start" x="141.5" y="-312.5" font-family="Helvetica,sans-Serif" font-size="10.00">user_initialization</text>
<text text-anchor="middle" x="195.5" y="-301.5" font-family="Helvetica,sans-Serif" font-size="10.00">::user_initialize_sponges</text>
</a>
</g>
</g>
<!-- Node49&#45;&gt;Node51 -->
<g id="edge2" class="edge"><title>Node49&#45;&gt;Node51</title>
<path fill="none" stroke="midnightblue" d="M61.1133,-210.294C75.4213,-232.556 99.4783,-265.322 128,-285.5 132.81,-288.903 138.154,-291.873 143.662,-294.454"/>
<polygon fill="midnightblue" stroke="midnightblue" points="64.0394,-208.372 55.7682,-201.751 58.1052,-212.085 64.0394,-208.372"/>
</g>
<!-- Node55 -->
<g id="node7" class="node"><title>Node55</title>
<g id="a_node7"><a xlink:href="namespaceuser__initialization.html#af042062e141adcd72d3fe7a14b9284e0" target="_top" xlink:title="initialize thicknesses. ">
<polygon fill="white" stroke="black" points="131,-245.5 131,-275.5 260,-275.5 260,-245.5 131,-245.5"/>
<text text-anchor="start" x="139" y="-263.5" font-family="Helvetica,sans-Serif" font-size="10.00">user_initialization</text>
<text text-anchor="middle" x="195.5" y="-252.5" font-family="Helvetica,sans-Serif" font-size="10.00">::user_initialize_thickness</text>
</a>
</g>
</g>
<!-- Node49&#45;&gt;Node55 -->
<g id="edge6" class="edge"><title>Node49&#45;&gt;Node55</title>
<path fill="none" stroke="midnightblue" d="M77.3964,-207.339C92.2452,-216.974 110.622,-228.112 128,-236.5 134.632,-239.701 141.809,-242.72 148.91,-245.467"/>
<polygon fill="midnightblue" stroke="midnightblue" points="78.9229,-204.153 68.6472,-201.573 75.0706,-209.998 78.9229,-204.153"/>
</g>
<!-- Node56 -->
<g id="node8" class="node"><title>Node56</title>
<g id="a_node8"><a xlink:href="namespaceuser__initialization.html#a7b7630e690c942f2961e45e19c4f69fc" target="_top" xlink:title="Initialize topography. ">
<polygon fill="white" stroke="black" points="128,-196.5 128,-226.5 263,-226.5 263,-196.5 128,-196.5"/>
<text text-anchor="start" x="136" y="-214.5" font-family="Helvetica,sans-Serif" font-size="10.00">user_initialization</text>
<text text-anchor="middle" x="195.5" y="-203.5" font-family="Helvetica,sans-Serif" font-size="10.00">::user_initialize_topography</text>
</a>
</g>
</g>
<!-- Node49&#45;&gt;Node56 -->
<g id="edge7" class="edge"><title>Node49&#45;&gt;Node56</title>
<path fill="none" stroke="midnightblue" d="M102.138,-195.845C110.571,-197.275 119.352,-198.763 127.998,-200.228"/>
<polygon fill="midnightblue" stroke="midnightblue" points="102.501,-192.357 92.0563,-194.137 101.331,-199.259 102.501,-192.357"/>
</g>
<!-- Node59 -->
<g id="node11" class="node"><title>Node59</title>
<g id="a_node11"><a xlink:href="namespaceuser__initialization.html#a45e373a6e0147bb93d41bf9ba2618c77" target="_top" xlink:title="initialize velocities. ">
<polygon fill="white" stroke="black" points="135,-147.5 135,-177.5 256,-177.5 256,-147.5 135,-147.5"/>
<text text-anchor="start" x="143" y="-165.5" font-family="Helvetica,sans-Serif" font-size="10.00">user_initialization</text>
<text text-anchor="middle" x="195.5" y="-154.5" font-family="Helvetica,sans-Serif" font-size="10.00">::user_initialize_velocity</text>
</a>
</g>
</g>
<!-- Node49&#45;&gt;Node59 -->
<g id="edge11" class="edge"><title>Node49&#45;&gt;Node59</title>
<path fill="none" stroke="midnightblue" d="M102.078,-177.538C112.742,-175.803 123.964,-173.977 134.769,-172.219"/>
<polygon fill="midnightblue" stroke="midnightblue" points="101.364,-174.108 92.0563,-179.169 102.489,-181.017 101.364,-174.108"/>
</g>
<!-- Node60 -->
<g id="node12" class="node"><title>Node60</title>
<g id="a_node12"><a xlink:href="namespaceuser__initialization.html#a541d25539cbb198ae0ed7c1356f267cf" target="_top" xlink:title="Set vertical coordinates. ">
<polygon fill="white" stroke="black" points="149.5,-98.5 149.5,-128.5 241.5,-128.5 241.5,-98.5 149.5,-98.5"/>
<text text-anchor="start" x="157.5" y="-116.5" font-family="Helvetica,sans-Serif" font-size="10.00">user_initialization</text>
<text text-anchor="middle" x="195.5" y="-105.5" font-family="Helvetica,sans-Serif" font-size="10.00">::user_set_coord</text>
</a>
</g>
</g>
<!-- Node49&#45;&gt;Node60 -->
<g id="edge12" class="edge"><title>Node49&#45;&gt;Node60</title>
<path fill="none" stroke="midnightblue" d="M78.8212,-165.887C93.4699,-156.86 111.279,-146.521 128,-138.5 135.34,-134.979 143.315,-131.612 151.11,-128.553"/>
<polygon fill="midnightblue" stroke="midnightblue" points="76.7737,-163.039 70.1467,-171.306 80.4823,-168.976 76.7737,-163.039"/>
</g>
<!-- Node62 -->
<g id="node14" class="node"><title>Node62</title>
<g id="a_node14"><a xlink:href="namespaceuser__initialization.html#a257e5194c434ba287d296f7a228c6a0c" target="_top" xlink:title="This subroutine sets the properties of flow at open boundary conditions. ">
<polygon fill="white" stroke="black" points="143,-49.5 143,-79.5 248,-79.5 248,-49.5 143,-49.5"/>
<text text-anchor="start" x="151" y="-67.5" font-family="Helvetica,sans-Serif" font-size="10.00">user_initialization</text>
<text text-anchor="middle" x="195.5" y="-56.5" font-family="Helvetica,sans-Serif" font-size="10.00">::user_set_obc_data</text>
</a>
</g>
</g>
<!-- Node49&#45;&gt;Node62 -->
<g id="edge15" class="edge"><title>Node49&#45;&gt;Node62</title>
<path fill="none" stroke="midnightblue" d="M61.7169,-162.625C76.1946,-140.896 100.136,-109.28 128,-89.5 133.331,-85.716 139.304,-82.4273 145.426,-79.591"/>
<polygon fill="midnightblue" stroke="midnightblue" points="58.6154,-160.975 56.1076,-171.268 64.4873,-164.785 58.6154,-160.975"/>
</g>
<!-- Node63 -->
<g id="node15" class="node"><title>Node63</title>
<g id="a_node15"><a xlink:href="namespaceuser__initialization.html#a83f001dcb5625d866c1265120a248e3c" target="_top" xlink:title="user_initialization\l::user_set_rotation">
<polygon fill="white" stroke="black" points="146.5,-0.5 146.5,-30.5 244.5,-30.5 244.5,-0.5 146.5,-0.5"/>
<text text-anchor="start" x="154.5" y="-18.5" font-family="Helvetica,sans-Serif" font-size="10.00">user_initialization</text>
<text text-anchor="middle" x="195.5" y="-7.5" font-family="Helvetica,sans-Serif" font-size="10.00">::user_set_rotation</text>
</a>
</g>
</g>
<!-- Node49&#45;&gt;Node63 -->
<g id="edge16" class="edge"><title>Node49&#45;&gt;Node63</title>
<path fill="none" stroke="midnightblue" d="M54.6508,-161.883C65.8305,-129.732 89.5827,-73.6503 128,-40.5 133.416,-35.8265 139.791,-31.9873 146.413,-28.8445"/>
<polygon fill="midnightblue" stroke="midnightblue" points="51.3133,-160.828 51.4602,-171.422 57.9517,-163.049 51.3133,-160.828"/>
</g>
<!-- Node52 -->
<g id="node4" class="node"><title>Node52</title>
<g id="a_node4"><a xlink:href="namespacemom__state__initialization.html#af4e854627c6572332ba3fd895f169321" target="_top" xlink:title="mom_state_initialization\l::mom_initialize_state">
<polygon fill="white" stroke="black" points="473,-257.5 473,-287.5 595,-287.5 595,-257.5 473,-257.5"/>
<text text-anchor="start" x="481" y="-275.5" font-family="Helvetica,sans-Serif" font-size="10.00">mom_state_initialization</text>
<text text-anchor="middle" x="534" y="-264.5" font-family="Helvetica,sans-Serif" font-size="10.00">::mom_initialize_state</text>
</a>
</g>
</g>
<!-- Node51&#45;&gt;Node52 -->
<g id="edge3" class="edge"><title>Node51&#45;&gt;Node52</title>
<path fill="none" stroke="midnightblue" d="M268.136,-301.623C329.07,-294.923 415.576,-285.411 472.942,-279.104"/>
<polygon fill="midnightblue" stroke="midnightblue" points="267.386,-298.185 257.828,-302.757 268.151,-305.143 267.386,-298.185"/>
</g>
<!-- Node53 -->
<g id="node5" class="node"><title>Node53</title>
<g id="a_node5"><a xlink:href="namespacemom.html#a0be2869fef30e1e0604facfe1b41555d" target="_top" xlink:title="This subroutine initializes MOM. ">
<polygon fill="white" stroke="black" points="631,-202 631,-221 738,-221 738,-202 631,-202"/>
<text text-anchor="middle" x="684.5" y="-209" font-family="Helvetica,sans-Serif" font-size="10.00">mom::initialize_mom</text>
</a>
</g>
</g>
<!-- Node52&#45;&gt;Node53 -->
<g id="edge4" class="edge"><title>Node52&#45;&gt;Node53</title>
<path fill="none" stroke="midnightblue" d="M581.091,-253.567C607.317,-242.794 639.044,-229.761 660.167,-221.085"/>
<polygon fill="midnightblue" stroke="midnightblue" points="579.628,-250.384 571.708,-257.421 582.288,-256.859 579.628,-250.384"/>
</g>
<!-- Node54 -->
<g id="node6" class="node"><title>Node54</title>
<g id="a_node6"><a xlink:href="MOM__driver_8F90.html#a08fffeb2d8e8acbf9ed4609be6d258c6" target="_top" xlink:title="mom_main">
<polygon fill="white" stroke="black" points="774,-202 774,-221 839,-221 839,-202 774,-202"/>
<text text-anchor="middle" x="806.5" y="-209" font-family="Helvetica,sans-Serif" font-size="10.00">mom_main</text>
</a>
</g>
</g>
<!-- Node53&#45;&gt;Node54 -->
<g id="edge5" class="edge"><title>Node53&#45;&gt;Node54</title>
<path fill="none" stroke="midnightblue" d="M748.206,-211.5C757.134,-211.5 765.983,-211.5 773.958,-211.5"/>
<polygon fill="midnightblue" stroke="midnightblue" points="748.134,-208 738.134,-211.5 748.134,-215 748.134,-208"/>
</g>
<!-- Node57 -->
<g id="node9" class="node"><title>Node57</title>
<g id="a_node9"><a xlink:href="namespacemom__fixed__initialization.html#a4f19c092d796f0cbb036c96575299b11" target="_top" xlink:title="MOM_initialize_topography makes the appropriate call to set up the bathymetry. ">
<polygon fill="white" stroke="black" points="299,-196.5 299,-226.5 437,-226.5 437,-196.5 299,-196.5"/>
<text text-anchor="start" x="307" y="-214.5" font-family="Helvetica,sans-Serif" font-size="10.00">mom_fixed_initialization</text>
<text text-anchor="middle" x="368" y="-203.5" font-family="Helvetica,sans-Serif" font-size="10.00">::mom_initialize_topography</text>
</a>
</g>
</g>
<!-- Node56&#45;&gt;Node57 -->
<g id="edge8" class="edge"><title>Node56&#45;&gt;Node57</title>
<path fill="none" stroke="midnightblue" d="M273.608,-211.5C282.041,-211.5 290.582,-211.5 298.895,-211.5"/>
<polygon fill="midnightblue" stroke="midnightblue" points="273.397,-208 263.397,-211.5 273.397,-215 273.397,-208"/>
</g>
<!-- Node58 -->
<g id="node10" class="node"><title>Node58</title>
<g id="a_node10"><a xlink:href="namespacemom__fixed__initialization.html#a6c1c054d9cda9f1bd11abba748614c92" target="_top" xlink:title="MOM_initialize_fixed sets up time&#45;invariant quantities related to MOM6&#39;s horizontal grid...">
<polygon fill="white" stroke="black" points="473.5,-196.5 473.5,-226.5 594.5,-226.5 594.5,-196.5 473.5,-196.5"/>
<text text-anchor="start" x="481.5" y="-214.5" font-family="Helvetica,sans-Serif" font-size="10.00">mom_fixed_initialization</text>
<text text-anchor="middle" x="534" y="-203.5" font-family="Helvetica,sans-Serif" font-size="10.00">::mom_initialize_fixed</text>
</a>
</g>
</g>
<!-- Node57&#45;&gt;Node58 -->
<g id="edge9" class="edge"><title>Node57&#45;&gt;Node58</title>
<path fill="none" stroke="midnightblue" d="M447.373,-211.5C456.143,-211.5 464.97,-211.5 473.449,-211.5"/>
<polygon fill="midnightblue" stroke="midnightblue" points="447.126,-208 437.126,-211.5 447.126,-215 447.126,-208"/>
</g>
<!-- Node58&#45;&gt;Node53 -->
<g id="edge10" class="edge"><title>Node58&#45;&gt;Node53</title>
<path fill="none" stroke="midnightblue" d="M604.718,-211.5C613.441,-211.5 622.248,-211.5 630.654,-211.5"/>
<polygon fill="midnightblue" stroke="midnightblue" points="604.545,-208 594.545,-211.5 604.545,-215 604.545,-208"/>
</g>
<!-- Node61 -->
<g id="node13" class="node"><title>Node61</title>
<g id="a_node13"><a xlink:href="namespacemom__coord__initialization.html#a6e2f4c11bc99476ea9c64a9aceac3b81" target="_top" xlink:title="MOM_initialize_coord sets up time&#45;invariant quantities related to MOM6&#39;s vertical coordinate...">
<polygon fill="white" stroke="black" points="306,-123.5 306,-153.5 430,-153.5 430,-123.5 306,-123.5"/>
<text text-anchor="start" x="314" y="-141.5" font-family="Helvetica,sans-Serif" font-size="10.00">mom_coord_initialization</text>
<text text-anchor="middle" x="368" y="-130.5" font-family="Helvetica,sans-Serif" font-size="10.00">::mom_initialize_coord</text>
</a>
</g>
</g>
<!-- Node60&#45;&gt;Node61 -->
<g id="edge13" class="edge"><title>Node60&#45;&gt;Node61</title>
<path fill="none" stroke="midnightblue" d="M251.676,-121.59C268.961,-124.125 288.138,-126.937 305.812,-129.528"/>
<polygon fill="midnightblue" stroke="midnightblue" points="252.145,-118.122 241.743,-120.134 251.13,-125.048 252.145,-118.122"/>
</g>
<!-- Node61&#45;&gt;Node53 -->
<g id="edge14" class="edge"><title>Node61&#45;&gt;Node53</title>
<path fill="none" stroke="midnightblue" d="M439.979,-152.914C484.61,-162.219 543.326,-174.9 595,-187.5 613.25,-191.95 633.479,-197.397 649.985,-201.976"/>
<polygon fill="midnightblue" stroke="midnightblue" points="440.607,-149.47 430.104,-150.863 439.183,-156.324 440.607,-149.47"/>
</g>
</g>
</svg>
