<?xml version="1.0" encoding="UTF-8" standalone="no"?>
<!DOCTYPE svg PUBLIC "-//W3C//DTD SVG 1.1//EN"
 "http://www.w3.org/Graphics/SVG/1.1/DTD/svg11.dtd">
<!-- Generated by graphviz version 2.38.0 (20140413.2041)
 -->
<!-- Title: mom_obsolete_diagnostics::found_in_diagtable Pages: 1 -->
<svg width="575pt" height="39pt"
 viewBox="0.00 0.00 575.00 39.00" xmlns="http://www.w3.org/2000/svg" xmlns:xlink="http://www.w3.org/1999/xlink">
<g id="graph0" class="graph" transform="scale(1 1) rotate(0) translate(4 35)">
<title>mom_obsolete_diagnostics::found_in_diagtable</title>
<polygon fill="white" stroke="none" points="-4,4 -4,-35 571,-35 571,4 -4,4"/>
<!-- Node3 -->
<g id="node1" class="node"><title>Node3</title>
<polygon fill="#bfbfbf" stroke="black" points="0,-0.5 0,-30.5 135,-30.5 135,-0.5 0,-0.5"/>
<text text-anchor="start" x="8" y="-18.5" font-family="Helvetica,sans-Serif" font-size="10.00">mom_obsolete_diagnostics</text>
<text text-anchor="middle" x="67.5" y="-7.5" font-family="Helvetica,sans-Serif" font-size="10.00">::found_in_diagtable</text>
</g>
<!-- Node4 -->
<g id="node2" class="node"><title>Node4</title>
<g id="a_node2"><a xlink:href="namespacemom__obsolete__diagnostics.html#ad5e890c09abd2c650beb9ac36bbb49b4" target="_top" xlink:title="Scan through the diag_table searching for obsolete parameters and issue informational messages and op...">
<polygon fill="white" stroke="black" points="171,-0.5 171,-30.5 323,-30.5 323,-0.5 171,-0.5"/>
<text text-anchor="start" x="179" y="-18.5" font-family="Helvetica,sans-Serif" font-size="10.00">mom_obsolete_diagnostics</text>
<text text-anchor="middle" x="247" y="-7.5" font-family="Helvetica,sans-Serif" font-size="10.00">::register_obsolete_diagnostics</text>
</a>
</g>
</g>
<!-- Node3&#45;&gt;Node4 -->
<g id="edge1" class="edge"><title>Node3&#45;&gt;Node4</title>
<path fill="none" stroke="midnightblue" d="M145.367,-15.5C153.863,-15.5 162.506,-15.5 170.978,-15.5"/>
<polygon fill="midnightblue" stroke="midnightblue" points="145.099,-12.0001 135.099,-15.5 145.099,-19.0001 145.099,-12.0001"/>
</g>
<!-- Node5 -->
<g id="node3" class="node"><title>Node5</title>
<g id="a_node3"><a xlink:href="namespacemom.html#a0be2869fef30e1e0604facfe1b41555d" target="_top" xlink:title="This subroutine initializes MOM. ">
<polygon fill="white" stroke="black" points="359,-6 359,-25 466,-25 466,-6 359,-6"/>
<text text-anchor="middle" x="412.5" y="-13" font-family="Helvetica,sans-Serif" font-size="10.00">mom::initialize_mom</text>
</a>
</g>
</g>
<!-- Node4&#45;&gt;Node5 -->
<g id="edge2" class="edge"><title>Node4&#45;&gt;Node5</title>
<path fill="none" stroke="midnightblue" d="M333.273,-15.5C341.981,-15.5 350.635,-15.5 358.839,-15.5"/>
<polygon fill="midnightblue" stroke="midnightblue" points="333.051,-12.0001 323.051,-15.5 333.051,-19.0001 333.051,-12.0001"/>
</g>
<!-- Node6 -->
<g id="node4" class="node"><title>Node6</title>
<g id="a_node4"><a xlink:href="MOM__driver_8F90.html#a08fffeb2d8e8acbf9ed4609be6d258c6" target="_top" xlink:title="mom_main">
<polygon fill="white" stroke="black" points="502,-6 502,-25 567,-25 567,-6 502,-6"/>
<text text-anchor="middle" x="534.5" y="-13" font-family="Helvetica,sans-Serif" font-size="10.00">mom_main</text>
</a>
</g>
</g>
<!-- Node5&#45;&gt;Node6 -->
<g id="edge3" class="edge"><title>Node5&#45;&gt;Node6</title>
<path fill="none" stroke="midnightblue" d="M476.206,-15.5C485.134,-15.5 493.983,-15.5 501.958,-15.5"/>
<polygon fill="midnightblue" stroke="midnightblue" points="476.134,-12.0001 466.134,-15.5 476.134,-19.0001 476.134,-12.0001"/>
</g>
</g>
</svg>
