<?xml version="1.0" encoding="UTF-8" standalone="no"?>
<!DOCTYPE svg PUBLIC "-//W3C//DTD SVG 1.1//EN"
 "http://www.w3.org/Graphics/SVG/1.1/DTD/svg11.dtd">
<!-- Generated by graphviz version 2.38.0 (20140413.2041)
 -->
<!-- Title: mom_ice_shelf::calc_shelf_visc_triangular Pages: 1 -->
<svg width="517pt" height="186pt"
 viewBox="0.00 0.00 517.00 186.00" xmlns="http://www.w3.org/2000/svg" xmlns:xlink="http://www.w3.org/1999/xlink">
<g id="graph0" class="graph" transform="scale(1 1) rotate(0) translate(4 182)">
<title>mom_ice_shelf::calc_shelf_visc_triangular</title>
<polygon fill="white" stroke="none" points="-4,4 -4,-182 513,-182 513,4 -4,4"/>
<!-- Node64 -->
<g id="node1" class="node"><title>Node64</title>
<polygon fill="#bfbfbf" stroke="black" points="0,-73.5 0,-103.5 111,-103.5 111,-73.5 0,-73.5"/>
<text text-anchor="start" x="8" y="-91.5" font-family="Helvetica,sans-Serif" font-size="10.00">mom_ice_shelf::calc</text>
<text text-anchor="middle" x="55.5" y="-80.5" font-family="Helvetica,sans-Serif" font-size="10.00">_shelf_visc_triangular</text>
</g>
<!-- Node65 -->
<g id="node2" class="node"><title>Node65</title>
<g id="a_node2"><a xlink:href="namespacemom__ice__shelf.html#a5d64b696412c0bfd8ded2e2eacaa917c" target="_top" xlink:title="mom_ice_shelf::ice\l_shelf_solve_outer">
<polygon fill="white" stroke="black" points="147,-73.5 147,-103.5 248,-103.5 248,-73.5 147,-73.5"/>
<text text-anchor="start" x="155" y="-91.5" font-family="Helvetica,sans-Serif" font-size="10.00">mom_ice_shelf::ice</text>
<text text-anchor="middle" x="197.5" y="-80.5" font-family="Helvetica,sans-Serif" font-size="10.00">_shelf_solve_outer</text>
</a>
</g>
</g>
<!-- Node64&#45;&gt;Node65 -->
<g id="edge1" class="edge"><title>Node64&#45;&gt;Node65</title>
<path fill="none" stroke="midnightblue" d="M121.12,-88.5C129.787,-88.5 138.564,-88.5 146.917,-88.5"/>
<polygon fill="midnightblue" stroke="midnightblue" points="121.029,-85.0001 111.029,-88.5 121.028,-92.0001 121.029,-85.0001"/>
</g>
<!-- Node66 -->
<g id="node3" class="node"><title>Node66</title>
<g id="a_node3"><a xlink:href="namespacemom__ice__shelf.html#a3b0e0cc9f36c5197236cc05867b780df" target="_top" xlink:title="Calculates fluxes between the ocean and ice&#45;shelf using the three&#45;equations formulation (optional to ...">
<polygon fill="white" stroke="black" points="291,-147.5 291,-177.5 401,-177.5 401,-147.5 291,-147.5"/>
<text text-anchor="start" x="299" y="-165.5" font-family="Helvetica,sans-Serif" font-size="10.00">mom_ice_shelf::shelf</text>
<text text-anchor="middle" x="346" y="-154.5" font-family="Helvetica,sans-Serif" font-size="10.00">_calc_flux</text>
</a>
</g>
</g>
<!-- Node65&#45;&gt;Node66 -->
<g id="edge2" class="edge"><title>Node65&#45;&gt;Node66</title>
<path fill="none" stroke="midnightblue" d="M230.728,-108.935C246.477,-118.508 265.897,-129.71 284,-138.5 290.45,-141.631 297.419,-144.675 304.262,-147.485"/>
<polygon fill="midnightblue" stroke="midnightblue" points="232.268,-105.774 221.916,-103.518 228.602,-111.737 232.268,-105.774"/>
</g>
<!-- Node68 -->
<g id="node5" class="node"><title>Node68</title>
<g id="a_node5"><a xlink:href="namespacemom__ice__shelf.html#ae315e8464ef8a20062e3bccb61886755" target="_top" xlink:title="Initializes shelf model data, parameters and diagnostics. ">
<polygon fill="white" stroke="black" points="284,-98.5 284,-128.5 408,-128.5 408,-98.5 284,-98.5"/>
<text text-anchor="start" x="292" y="-116.5" font-family="Helvetica,sans-Serif" font-size="10.00">mom_ice_shelf::initialize</text>
<text text-anchor="middle" x="346" y="-105.5" font-family="Helvetica,sans-Serif" font-size="10.00">_ice_shelf</text>
</a>
</g>
</g>
<!-- Node65&#45;&gt;Node68 -->
<g id="edge4" class="edge"><title>Node65&#45;&gt;Node68</title>
<path fill="none" stroke="midnightblue" d="M258.217,-98.6907C266.64,-100.128 275.309,-101.607 283.759,-103.049"/>
<polygon fill="midnightblue" stroke="midnightblue" points="258.545,-95.196 248.098,-96.9639 257.367,-102.096 258.545,-95.196"/>
</g>
<!-- Node69 -->
<g id="node6" class="node"><title>Node69</title>
<g id="a_node6"><a xlink:href="namespacemom__ice__shelf.html#ae7611e3515ecf0eae0c5d6d17330fd6f" target="_top" xlink:title="mom_ice_shelf::initialize\l_diagnostic_fields">
<polygon fill="white" stroke="black" points="284,-49.5 284,-79.5 408,-79.5 408,-49.5 284,-49.5"/>
<text text-anchor="start" x="292" y="-67.5" font-family="Helvetica,sans-Serif" font-size="10.00">mom_ice_shelf::initialize</text>
<text text-anchor="middle" x="346" y="-56.5" font-family="Helvetica,sans-Serif" font-size="10.00">_diagnostic_fields</text>
</a>
</g>
</g>
<!-- Node65&#45;&gt;Node69 -->
<g id="edge6" class="edge"><title>Node65&#45;&gt;Node69</title>
<path fill="none" stroke="midnightblue" d="M258.217,-78.7169C266.64,-77.3372 275.309,-75.9169 283.759,-74.5326"/>
<polygon fill="midnightblue" stroke="midnightblue" points="257.401,-75.304 248.098,-80.3747 258.533,-82.2119 257.401,-75.304"/>
</g>
<!-- Node70 -->
<g id="node7" class="node"><title>Node70</title>
<g id="a_node7"><a xlink:href="namespacemom__ice__shelf.html#ac084bdc5be4e708e3263488e9574a3c9" target="_top" xlink:title="mom_ice_shelf::solo\l_time_step">
<polygon fill="white" stroke="black" points="292.5,-0.5 292.5,-30.5 399.5,-30.5 399.5,-0.5 292.5,-0.5"/>
<text text-anchor="start" x="300.5" y="-18.5" font-family="Helvetica,sans-Serif" font-size="10.00">mom_ice_shelf::solo</text>
<text text-anchor="middle" x="346" y="-7.5" font-family="Helvetica,sans-Serif" font-size="10.00">_time_step</text>
</a>
</g>
</g>
<!-- Node65&#45;&gt;Node70 -->
<g id="edge7" class="edge"><title>Node65&#45;&gt;Node70</title>
<path fill="none" stroke="midnightblue" d="M232.236,-68.2998C247.765,-59.3305 266.576,-48.9224 284,-40.5 291.11,-37.0632 298.819,-33.6628 306.287,-30.529"/>
<polygon fill="midnightblue" stroke="midnightblue" points="230.384,-65.3283 223.508,-73.3885 233.909,-71.3757 230.384,-65.3283"/>
</g>
<!-- Node67 -->
<g id="node4" class="node"><title>Node67</title>
<g id="a_node4"><a xlink:href="MOM__driver_8F90.html#a08fffeb2d8e8acbf9ed4609be6d258c6" target="_top" xlink:title="mom_main">
<polygon fill="white" stroke="black" points="444,-128 444,-147 509,-147 509,-128 444,-128"/>
<text text-anchor="middle" x="476.5" y="-135" font-family="Helvetica,sans-Serif" font-size="10.00">mom_main</text>
</a>
</g>
</g>
<!-- Node66&#45;&gt;Node67 -->
<g id="edge3" class="edge"><title>Node66&#45;&gt;Node67</title>
<path fill="none" stroke="midnightblue" d="M411.08,-150.033C422.453,-147.82 433.833,-145.606 443.795,-143.668"/>
<polygon fill="midnightblue" stroke="midnightblue" points="410.271,-146.625 401.123,-151.97 411.608,-153.496 410.271,-146.625"/>
</g>
<!-- Node68&#45;&gt;Node67 -->
<g id="edge5" class="edge"><title>Node68&#45;&gt;Node67</title>
<path fill="none" stroke="midnightblue" d="M418.31,-126.819C427.195,-128.478 435.897,-130.103 443.726,-131.565"/>
<polygon fill="midnightblue" stroke="midnightblue" points="418.712,-123.333 408.239,-124.938 417.427,-130.214 418.712,-123.333"/>
</g>
</g>
</svg>
