<?xml version="1.0" encoding="UTF-8" standalone="no"?>
<!DOCTYPE svg PUBLIC "-//W3C//DTD SVG 1.1//EN"
 "http://www.w3.org/Graphics/SVG/1.1/DTD/svg11.dtd">
<!-- Generated by graphviz version 2.38.0 (20140413.2041)
 -->
<!-- Title: mom_regridding::set_regrid_params Pages: 1 -->
<svg width="719pt" height="88pt"
 viewBox="0.00 0.00 719.00 88.00" xmlns="http://www.w3.org/2000/svg" xmlns:xlink="http://www.w3.org/1999/xlink">
<g id="graph0" class="graph" transform="scale(1 1) rotate(0) translate(4 84)">
<title>mom_regridding::set_regrid_params</title>
<polygon fill="white" stroke="none" points="-4,4 -4,-84 715,-84 715,4 -4,4"/>
<!-- Node231 -->
<g id="node1" class="node"><title>Node231</title>
<polygon fill="#bfbfbf" stroke="black" points="0,-24.5 0,-54.5 105,-54.5 105,-24.5 0,-24.5"/>
<text text-anchor="start" x="8" y="-42.5" font-family="Helvetica,sans-Serif" font-size="10.00">mom_regridding::set</text>
<text text-anchor="middle" x="52.5" y="-31.5" font-family="Helvetica,sans-Serif" font-size="10.00">_regrid_params</text>
</g>
<!-- Node232 -->
<g id="node2" class="node"><title>Node232</title>
<g id="a_node2"><a xlink:href="namespacemom__regridding.html#af375f9f79f880b10aa85cd11de23519b" target="_top" xlink:title="Initialization and configures a regridding control structure based on customizable run&#45;time parameter...">
<polygon fill="white" stroke="black" points="161.5,-49.5 161.5,-79.5 288.5,-79.5 288.5,-49.5 161.5,-49.5"/>
<text text-anchor="start" x="169.5" y="-67.5" font-family="Helvetica,sans-Serif" font-size="10.00">mom_regridding::initialize</text>
<text text-anchor="middle" x="225" y="-56.5" font-family="Helvetica,sans-Serif" font-size="10.00">_regridding</text>
</a>
</g>
</g>
<!-- Node231&#45;&gt;Node232 -->
<g id="edge1" class="edge"><title>Node231&#45;&gt;Node232</title>
<path fill="none" stroke="midnightblue" d="M115.316,-48.5639C130.325,-50.7647 146.385,-53.1194 161.428,-55.3253"/>
<polygon fill="midnightblue" stroke="midnightblue" points="115.52,-45.0565 105.118,-47.0687 114.505,-51.9825 115.52,-45.0565"/>
</g>
<!-- Node233 -->
<g id="node3" class="node"><title>Node233</title>
<g id="a_node3"><a xlink:href="namespacemom__state__initialization.html#ab28dbceb8938600e7c0bc15380cef89a" target="_top" xlink:title="This subroutine determines the isopycnal or other coordinate interfaces and layer potential temperatu...">
<polygon fill="white" stroke="black" points="141,-0.5 141,-30.5 309,-30.5 309,-0.5 141,-0.5"/>
<text text-anchor="start" x="149" y="-18.5" font-family="Helvetica,sans-Serif" font-size="10.00">mom_state_initialization</text>
<text text-anchor="middle" x="225" y="-7.5" font-family="Helvetica,sans-Serif" font-size="10.00">::mom_temp_salt_initialize_from_z</text>
</a>
</g>
</g>
<!-- Node231&#45;&gt;Node233 -->
<g id="edge2" class="edge"><title>Node231&#45;&gt;Node233</title>
<path fill="none" stroke="midnightblue" d="M115.103,-30.8286C123.442,-29.6548 132.108,-28.435 140.747,-27.2189"/>
<polygon fill="midnightblue" stroke="midnightblue" points="114.533,-27.3743 105.118,-32.2341 115.509,-34.3059 114.533,-27.3743"/>
</g>
<!-- Node234 -->
<g id="node4" class="node"><title>Node234</title>
<g id="a_node4"><a xlink:href="namespacemom__state__initialization.html#af4e854627c6572332ba3fd895f169321" target="_top" xlink:title="mom_state_initialization\l::mom_initialize_state">
<polygon fill="white" stroke="black" points="345,-0.5 345,-30.5 467,-30.5 467,-0.5 345,-0.5"/>
<text text-anchor="start" x="353" y="-18.5" font-family="Helvetica,sans-Serif" font-size="10.00">mom_state_initialization</text>
<text text-anchor="middle" x="406" y="-7.5" font-family="Helvetica,sans-Serif" font-size="10.00">::mom_initialize_state</text>
</a>
</g>
</g>
<!-- Node233&#45;&gt;Node234 -->
<g id="edge3" class="edge"><title>Node233&#45;&gt;Node234</title>
<path fill="none" stroke="midnightblue" d="M319.397,-15.5C328.07,-15.5 336.695,-15.5 344.944,-15.5"/>
<polygon fill="midnightblue" stroke="midnightblue" points="319.212,-12.0001 309.212,-15.5 319.212,-19.0001 319.212,-12.0001"/>
</g>
<!-- Node235 -->
<g id="node5" class="node"><title>Node235</title>
<g id="a_node5"><a xlink:href="namespacemom.html#a0be2869fef30e1e0604facfe1b41555d" target="_top" xlink:title="This subroutine initializes MOM. ">
<polygon fill="white" stroke="black" points="503,-6 503,-25 610,-25 610,-6 503,-6"/>
<text text-anchor="middle" x="556.5" y="-13" font-family="Helvetica,sans-Serif" font-size="10.00">mom::initialize_mom</text>
</a>
</g>
</g>
<!-- Node234&#45;&gt;Node235 -->
<g id="edge4" class="edge"><title>Node234&#45;&gt;Node235</title>
<path fill="none" stroke="midnightblue" d="M477.657,-15.5C486.116,-15.5 494.636,-15.5 502.779,-15.5"/>
<polygon fill="midnightblue" stroke="midnightblue" points="477.401,-12.0001 467.401,-15.5 477.401,-19.0001 477.401,-12.0001"/>
</g>
<!-- Node236 -->
<g id="node6" class="node"><title>Node236</title>
<g id="a_node6"><a xlink:href="MOM__driver_8F90.html#a08fffeb2d8e8acbf9ed4609be6d258c6" target="_top" xlink:title="mom_main">
<polygon fill="white" stroke="black" points="646,-6 646,-25 711,-25 711,-6 646,-6"/>
<text text-anchor="middle" x="678.5" y="-13" font-family="Helvetica,sans-Serif" font-size="10.00">mom_main</text>
</a>
</g>
</g>
<!-- Node235&#45;&gt;Node236 -->
<g id="edge5" class="edge"><title>Node235&#45;&gt;Node236</title>
<path fill="none" stroke="midnightblue" d="M620.206,-15.5C629.134,-15.5 637.983,-15.5 645.958,-15.5"/>
<polygon fill="midnightblue" stroke="midnightblue" points="620.134,-12.0001 610.134,-15.5 620.134,-19.0001 620.134,-12.0001"/>
</g>
</g>
</svg>
