<?xml version="1.0" encoding="UTF-8" standalone="no"?>
<!DOCTYPE svg PUBLIC "-//W3C//DTD SVG 1.1//EN"
 "http://www.w3.org/Graphics/SVG/1.1/DTD/svg11.dtd">
<!-- Generated by graphviz version 2.38.0 (20140413.2041)
 -->
<!-- Title: mom_shared_initialization::mom_initialize_rotation Pages: 1 -->
<svg width="586pt" height="123pt"
 viewBox="0.00 0.00 586.00 123.42" xmlns="http://www.w3.org/2000/svg" xmlns:xlink="http://www.w3.org/1999/xlink">
<g id="graph0" class="graph" transform="scale(1 1) rotate(0) translate(4 119.42)">
<title>mom_shared_initialization::mom_initialize_rotation</title>
<polygon fill="white" stroke="none" points="-4,4 -4,-119.42 582,-119.42 582,4 -4,4"/>
<!-- Node33 -->
<g id="node1" class="node"><title>Node33</title>
<polygon fill="#bfbfbf" stroke="black" points="0,-42.1609 0,-72.1609 129,-72.1609 129,-42.1609 0,-42.1609"/>
<text text-anchor="start" x="8" y="-60.1609" font-family="Helvetica,sans-Serif" font-size="10.00">mom_shared_initialization</text>
<text text-anchor="middle" x="64.5" y="-49.1609" font-family="Helvetica,sans-Serif" font-size="10.00">::mom_initialize_rotation</text>
</g>
<!-- Node34 -->
<g id="node2" class="node"><title>Node34</title>
<g id="a_node2"><a xlink:href="namespacemom__error__handler.html#a9cda07a87815f0e5594066162b4345c3" target="_top" xlink:title="Writes a message about entering a subroutine if call tree reporting is active. ">
<polygon fill="white" stroke="black" points="330,-67.1609 330,-97.1609 436,-97.1609 436,-67.1609 330,-67.1609"/>
<text text-anchor="start" x="338" y="-85.1609" font-family="Helvetica,sans-Serif" font-size="10.00">mom_error_handler::</text>
<text text-anchor="middle" x="383" y="-74.1609" font-family="Helvetica,sans-Serif" font-size="10.00">calltree_enter</text>
</a>
</g>
</g>
<!-- Node33&#45;&gt;Node34 -->
<g id="edge1" class="edge"><title>Node33&#45;&gt;Node34</title>
<path fill="none" stroke="midnightblue" d="M88.0371,-72.3376C107.473,-84.4538 136.783,-100.47 165,-107.161 220.786,-120.389 237.215,-115.07 294,-107.161 305.315,-105.585 317.219,-102.921 328.487,-99.9045"/>
<polygon fill="midnightblue" stroke="midnightblue" points="329.512,-103.252 338.196,-97.1817 327.622,-96.5122 329.512,-103.252"/>
</g>
<!-- Node36 -->
<g id="node4" class="node"><title>Node36</title>
<g id="a_node4"><a xlink:href="namespacemom__error__handler.html#a88ea67781e2ed9b73ab7eac8ea5e8578" target="_top" xlink:title="Writes a message about leaving a subroutine if call tree reporting is active. ">
<polygon fill="white" stroke="black" points="330,-18.1609 330,-48.1609 436,-48.1609 436,-18.1609 330,-18.1609"/>
<text text-anchor="start" x="338" y="-36.1609" font-family="Helvetica,sans-Serif" font-size="10.00">mom_error_handler::</text>
<text text-anchor="middle" x="383" y="-25.1609" font-family="Helvetica,sans-Serif" font-size="10.00">calltree_leave</text>
</a>
</g>
</g>
<!-- Node33&#45;&gt;Node36 -->
<g id="edge3" class="edge"><title>Node33&#45;&gt;Node36</title>
<path fill="none" stroke="midnightblue" d="M88.472,-42.0465C107.935,-30.1998 137.057,-14.6681 165,-8.16086 220.839,4.84284 237.215,-0.251284 294,-8.16086 305.315,-9.7369 317.219,-12.401 328.487,-15.4172"/>
<polygon fill="midnightblue" stroke="midnightblue" points="327.622,-18.8095 338.196,-18.14 329.512,-12.0696 327.622,-18.8095"/>
</g>
<!-- Node37 -->
<g id="node5" class="node"><title>Node37</title>
<g id="a_node5"><a xlink:href="namespacemom__shared__initialization.html#a44255247460c969afe2d03ec4800f2c7" target="_top" xlink:title="mom_shared_initialization\l::set_rotation_beta_plane">
<polygon fill="white" stroke="black" points="165,-67.1609 165,-97.1609 294,-97.1609 294,-67.1609 165,-67.1609"/>
<text text-anchor="start" x="173" y="-85.1609" font-family="Helvetica,sans-Serif" font-size="10.00">mom_shared_initialization</text>
<text text-anchor="middle" x="229.5" y="-74.1609" font-family="Helvetica,sans-Serif" font-size="10.00">::set_rotation_beta_plane</text>
</a>
</g>
</g>
<!-- Node33&#45;&gt;Node37 -->
<g id="edge5" class="edge"><title>Node33&#45;&gt;Node37</title>
<path fill="none" stroke="midnightblue" d="M129.454,-66.9698C137.852,-68.2578 146.511,-69.5858 155.05,-70.8956"/>
<polygon fill="midnightblue" stroke="midnightblue" points="154.583,-74.3647 164.998,-72.4212 155.644,-67.4456 154.583,-74.3647"/>
</g>
<!-- Node38 -->
<g id="node6" class="node"><title>Node38</title>
<g id="a_node6"><a xlink:href="namespacemom__shared__initialization.html#a4154549a54c1406262dd82777532896f" target="_top" xlink:title="mom_shared_initialization\l::set_rotation_planetary">
<polygon fill="white" stroke="black" points="165,-18.1609 165,-48.1609 294,-48.1609 294,-18.1609 165,-18.1609"/>
<text text-anchor="start" x="173" y="-36.1609" font-family="Helvetica,sans-Serif" font-size="10.00">mom_shared_initialization</text>
<text text-anchor="middle" x="229.5" y="-25.1609" font-family="Helvetica,sans-Serif" font-size="10.00">::set_rotation_planetary</text>
</a>
</g>
</g>
<!-- Node33&#45;&gt;Node38 -->
<g id="edge8" class="edge"><title>Node33&#45;&gt;Node38</title>
<path fill="none" stroke="midnightblue" d="M129.454,-47.7443C137.852,-46.5078 146.511,-45.2329 155.05,-43.9755"/>
<polygon fill="midnightblue" stroke="midnightblue" points="155.614,-47.4303 164.998,-42.5109 154.594,-40.505 155.614,-47.4303"/>
</g>
<!-- Node35 -->
<g id="node3" class="node"><title>Node35</title>
<g id="a_node3"><a xlink:href="namespacemom__error__handler.html#ad5f00a53059c72fe2332d1436c80ca71" target="_top" xlink:title="mom_error_handler::\lis_root_pe">
<polygon fill="white" stroke="black" points="472,-42.1609 472,-72.1609 578,-72.1609 578,-42.1609 472,-42.1609"/>
<text text-anchor="start" x="480" y="-60.1609" font-family="Helvetica,sans-Serif" font-size="10.00">mom_error_handler::</text>
<text text-anchor="middle" x="525" y="-49.1609" font-family="Helvetica,sans-Serif" font-size="10.00">is_root_pe</text>
</a>
</g>
</g>
<!-- Node34&#45;&gt;Node35 -->
<g id="edge2" class="edge"><title>Node34&#45;&gt;Node35</title>
<path fill="none" stroke="midnightblue" d="M436.131,-72.8518C444.512,-71.3551 453.26,-69.7929 461.849,-68.2593"/>
<polygon fill="midnightblue" stroke="midnightblue" points="462.597,-71.6812 471.826,-66.4777 461.366,-64.7902 462.597,-71.6812"/>
</g>
<!-- Node36&#45;&gt;Node35 -->
<g id="edge4" class="edge"><title>Node36&#45;&gt;Node35</title>
<path fill="none" stroke="midnightblue" d="M436.131,-42.0976C444.512,-43.5344 453.26,-45.0341 461.849,-46.5063"/>
<polygon fill="midnightblue" stroke="midnightblue" points="461.378,-49.9766 471.826,-48.2167 462.561,-43.0773 461.378,-49.9766"/>
</g>
<!-- Node37&#45;&gt;Node34 -->
<g id="edge6" class="edge"><title>Node37&#45;&gt;Node34</title>
<path fill="none" stroke="midnightblue" d="M294.311,-82.1609C302.704,-82.1609 311.299,-82.1609 319.667,-82.1609"/>
<polygon fill="midnightblue" stroke="midnightblue" points="319.735,-85.661 329.735,-82.1609 319.735,-78.661 319.735,-85.661"/>
</g>
<!-- Node37&#45;&gt;Node36 -->
<g id="edge7" class="edge"><title>Node37&#45;&gt;Node36</title>
<path fill="none" stroke="midnightblue" d="M277.191,-67.0594C292.527,-62.0993 309.736,-56.5335 325.707,-51.368"/>
<polygon fill="midnightblue" stroke="midnightblue" points="327.025,-54.62 335.463,-48.2124 324.871,-47.9597 327.025,-54.62"/>
</g>
<!-- Node38&#45;&gt;Node34 -->
<g id="edge9" class="edge"><title>Node38&#45;&gt;Node34</title>
<path fill="none" stroke="midnightblue" d="M277.191,-48.2623C292.527,-53.2224 309.736,-58.7882 325.707,-63.9537"/>
<polygon fill="midnightblue" stroke="midnightblue" points="324.871,-67.362 335.463,-67.1093 327.025,-60.7017 324.871,-67.362"/>
</g>
<!-- Node38&#45;&gt;Node36 -->
<g id="edge10" class="edge"><title>Node38&#45;&gt;Node36</title>
<path fill="none" stroke="midnightblue" d="M294.311,-33.1609C302.704,-33.1609 311.299,-33.1609 319.667,-33.1609"/>
<polygon fill="midnightblue" stroke="midnightblue" points="319.735,-36.661 329.735,-33.1609 319.735,-29.661 319.735,-36.661"/>
</g>
</g>
</svg>
