<?xml version="1.0" encoding="UTF-8" standalone="no"?>
<!DOCTYPE svg PUBLIC "-//W3C//DTD SVG 1.1//EN"
 "http://www.w3.org/Graphics/SVG/1.1/DTD/svg11.dtd">
<!-- Generated by graphviz version 2.38.0 (20140413.2041)
 -->
<!-- Title: mom_continuity_ppm::meridional_mass_flux Pages: 1 -->
<svg width="271pt" height="39pt"
 viewBox="0.00 0.00 271.00 39.00" xmlns="http://www.w3.org/2000/svg" xmlns:xlink="http://www.w3.org/1999/xlink">
<g id="graph0" class="graph" transform="scale(1 1) rotate(0) translate(4 35)">
<title>mom_continuity_ppm::meridional_mass_flux</title>
<polygon fill="white" stroke="none" points="-4,4 -4,-35 267,-35 267,4 -4,4"/>
<!-- Node51 -->
<g id="node1" class="node"><title>Node51</title>
<polygon fill="#bfbfbf" stroke="black" points="0,-0.5 0,-30.5 117,-30.5 117,-0.5 0,-0.5"/>
<text text-anchor="start" x="8" y="-18.5" font-family="Helvetica,sans-Serif" font-size="10.00">mom_continuity_ppm</text>
<text text-anchor="middle" x="58.5" y="-7.5" font-family="Helvetica,sans-Serif" font-size="10.00">::meridional_mass_flux</text>
</g>
<!-- Node52 -->
<g id="node2" class="node"><title>Node52</title>
<g id="a_node2"><a xlink:href="namespacemom__continuity__ppm.html#a59586aae1668f03f3a78d58f5712cc0f" target="_top" xlink:title="Time steps the layer thicknesses, using a monotonically limit, directionally split PPM scheme...">
<polygon fill="white" stroke="black" points="153,-0.5 153,-30.5 263,-30.5 263,-0.5 153,-0.5"/>
<text text-anchor="start" x="161" y="-18.5" font-family="Helvetica,sans-Serif" font-size="10.00">mom_continuity_ppm</text>
<text text-anchor="middle" x="208" y="-7.5" font-family="Helvetica,sans-Serif" font-size="10.00">::continuity_ppm</text>
</a>
</g>
</g>
<!-- Node51&#45;&gt;Node52 -->
<g id="edge1" class="edge"><title>Node51&#45;&gt;Node52</title>
<path fill="none" stroke="midnightblue" d="M127.56,-15.5C135.976,-15.5 144.492,-15.5 152.666,-15.5"/>
<polygon fill="midnightblue" stroke="midnightblue" points="127.373,-12.0001 117.373,-15.5 127.373,-19.0001 127.373,-12.0001"/>
</g>
</g>
</svg>
