<?xml version="1.0" encoding="UTF-8" standalone="no"?>
<!DOCTYPE svg PUBLIC "-//W3C//DTD SVG 1.1//EN"
 "http://www.w3.org/Graphics/SVG/1.1/DTD/svg11.dtd">
<!-- Generated by graphviz version 2.38.0 (20140413.2041)
 -->
<!-- Title: mom_diag_remap::diag_remap_configure_axes Pages: 1 -->
<svg width="605pt" height="108pt"
 viewBox="0.00 0.00 605.00 108.00" xmlns="http://www.w3.org/2000/svg" xmlns:xlink="http://www.w3.org/1999/xlink">
<g id="graph0" class="graph" transform="scale(1 1) rotate(0) translate(4 104)">
<title>mom_diag_remap::diag_remap_configure_axes</title>
<polygon fill="white" stroke="none" points="-4,4 -4,-104 601,-104 601,4 -4,4"/>
<!-- Node2 -->
<g id="node1" class="node"><title>Node2</title>
<polygon fill="#bfbfbf" stroke="black" points="0,-22.5 0,-52.5 120,-52.5 120,-22.5 0,-22.5"/>
<text text-anchor="start" x="8" y="-40.5" font-family="Helvetica,sans-Serif" font-size="10.00">mom_diag_remap::diag</text>
<text text-anchor="middle" x="60" y="-29.5" font-family="Helvetica,sans-Serif" font-size="10.00">_remap_configure_axes</text>
</g>
<!-- Node3 -->
<g id="node2" class="node"><title>Node3</title>
<g id="a_node2"><a xlink:href="namespaceregrid__consts.html#a06ccba5b7b038bed853606a315df306a" target="_top" xlink:title="Parse a string parameter specifying the coordinate mode and return the appropriate enumerated integer...">
<polygon fill="white" stroke="black" points="156,-50 156,-69 306,-69 306,-50 156,-50"/>
<text text-anchor="middle" x="231" y="-57" font-family="Helvetica,sans-Serif" font-size="10.00">regrid_consts::coordinatemode</text>
</a>
</g>
</g>
<!-- Node2&#45;&gt;Node3 -->
<g id="edge1" class="edge"><title>Node2&#45;&gt;Node3</title>
<path fill="none" stroke="midnightblue" d="M120.108,-45.1945C128.753,-46.3199 137.788,-47.4961 146.804,-48.6698"/>
<polygon fill="midnightblue" stroke="midnightblue" points="146.585,-52.1707 156.953,-49.9909 147.488,-45.2292 146.585,-52.1707"/>
</g>
<!-- Node7 -->
<g id="node6" class="node"><title>Node7</title>
<g id="a_node6"><a xlink:href="namespacemom__string__functions.html#a4d76e9e8c2cd53f210b02006924a9212" target="_top" xlink:title="mom_string_functions\l::lowercase">
<polygon fill="white" stroke="black" points="174.5,-0.5 174.5,-30.5 287.5,-30.5 287.5,-0.5 174.5,-0.5"/>
<text text-anchor="start" x="182.5" y="-18.5" font-family="Helvetica,sans-Serif" font-size="10.00">mom_string_functions</text>
<text text-anchor="middle" x="231" y="-7.5" font-family="Helvetica,sans-Serif" font-size="10.00">::lowercase</text>
</a>
</g>
</g>
<!-- Node2&#45;&gt;Node7 -->
<g id="edge5" class="edge"><title>Node2&#45;&gt;Node7</title>
<path fill="none" stroke="midnightblue" d="M120.108,-29.8055C134.415,-27.943 149.794,-25.9411 164.381,-24.0422"/>
<polygon fill="midnightblue" stroke="midnightblue" points="164.866,-27.5086 174.33,-22.747 163.962,-20.5672 164.866,-27.5086"/>
</g>
<!-- Node4 -->
<g id="node3" class="node"><title>Node4</title>
<g id="a_node3"><a xlink:href="namespacemom__string__functions.html#aca148baf726de2f028b7e7baad3c85d4" target="_top" xlink:title="mom_string_functions\l::uppercase">
<polygon fill="white" stroke="black" points="342,-69.5 342,-99.5 455,-99.5 455,-69.5 342,-69.5"/>
<text text-anchor="start" x="350" y="-87.5" font-family="Helvetica,sans-Serif" font-size="10.00">mom_string_functions</text>
<text text-anchor="middle" x="398.5" y="-76.5" font-family="Helvetica,sans-Serif" font-size="10.00">::uppercase</text>
</a>
</g>
</g>
<!-- Node3&#45;&gt;Node4 -->
<g id="edge2" class="edge"><title>Node3&#45;&gt;Node4</title>
<path fill="none" stroke="midnightblue" d="M295.041,-69.0227C307.101,-70.8446 319.755,-72.7561 331.894,-74.5898"/>
<polygon fill="midnightblue" stroke="midnightblue" points="331.535,-78.0752 341.946,-76.1081 332.581,-71.1537 331.535,-78.0752"/>
</g>
<!-- Node5 -->
<g id="node4" class="node"><title>Node5</title>
<g id="a_node4"><a xlink:href="namespacemom__error__handler.html#a460cfb79a06c29fc249952c2a3710d67" target="_top" xlink:title="mom_error_handler::\lmom_error">
<polygon fill="white" stroke="black" points="345.5,-20.5 345.5,-50.5 451.5,-50.5 451.5,-20.5 345.5,-20.5"/>
<text text-anchor="start" x="353.5" y="-38.5" font-family="Helvetica,sans-Serif" font-size="10.00">mom_error_handler::</text>
<text text-anchor="middle" x="398.5" y="-27.5" font-family="Helvetica,sans-Serif" font-size="10.00">mom_error</text>
</a>
</g>
</g>
<!-- Node3&#45;&gt;Node5 -->
<g id="edge3" class="edge"><title>Node3&#45;&gt;Node5</title>
<path fill="none" stroke="midnightblue" d="M297.886,-49.9456C310.21,-48.1584 323.055,-46.2957 335.264,-44.5251"/>
<polygon fill="midnightblue" stroke="midnightblue" points="335.951,-47.9622 345.345,-43.0633 334.946,-41.0347 335.951,-47.9622"/>
</g>
<!-- Node6 -->
<g id="node5" class="node"><title>Node6</title>
<g id="a_node5"><a xlink:href="namespacemom__error__handler.html#ad5f00a53059c72fe2332d1436c80ca71" target="_top" xlink:title="mom_error_handler::\lis_root_pe">
<polygon fill="white" stroke="black" points="491,-20.5 491,-50.5 597,-50.5 597,-20.5 491,-20.5"/>
<text text-anchor="start" x="499" y="-38.5" font-family="Helvetica,sans-Serif" font-size="10.00">mom_error_handler::</text>
<text text-anchor="middle" x="544" y="-27.5" font-family="Helvetica,sans-Serif" font-size="10.00">is_root_pe</text>
</a>
</g>
</g>
<!-- Node5&#45;&gt;Node6 -->
<g id="edge4" class="edge"><title>Node5&#45;&gt;Node6</title>
<path fill="none" stroke="midnightblue" d="M451.713,-35.5C461.011,-35.5 470.783,-35.5 480.337,-35.5"/>
<polygon fill="midnightblue" stroke="midnightblue" points="480.586,-39.0001 490.586,-35.5 480.586,-32.0001 480.586,-39.0001"/>
</g>
</g>
</svg>
