<?xml version="1.0" encoding="UTF-8" standalone="no"?>
<!DOCTYPE svg PUBLIC "-//W3C//DTD SVG 1.1//EN"
 "http://www.w3.org/Graphics/SVG/1.1/DTD/svg11.dtd">
<!-- Generated by graphviz version 2.38.0 (20140413.2041)
 -->
<!-- Title: mom_document::doc_param_none Pages: 1 -->
<svg width="927pt" height="138pt"
 viewBox="0.00 0.00 927.00 137.50" xmlns="http://www.w3.org/2000/svg" xmlns:xlink="http://www.w3.org/1999/xlink">
<g id="graph0" class="graph" transform="scale(1 1) rotate(0) translate(4 133.5)">
<title>mom_document::doc_param_none</title>
<polygon fill="white" stroke="none" points="-4,4 -4,-133.5 923,-133.5 923,4 -4,4"/>
<!-- Node104 -->
<g id="node1" class="node"><title>Node104</title>
<polygon fill="#bfbfbf" stroke="black" points="0,-66.5 0,-85.5 167,-85.5 167,-66.5 0,-66.5"/>
<text text-anchor="middle" x="83.5" y="-73.5" font-family="Helvetica,sans-Serif" font-size="10.00">mom_document::doc_param_none</text>
</g>
<!-- Node105 -->
<g id="node2" class="node"><title>Node105</title>
<g id="a_node2"><a xlink:href="namespacemom__error__handler.html#ad5f00a53059c72fe2332d1436c80ca71" target="_top" xlink:title="mom_error_handler::\lis_root_pe">
<polygon fill="white" stroke="black" points="813,-99 813,-129 919,-129 919,-99 813,-99"/>
<text text-anchor="start" x="821" y="-117" font-family="Helvetica,sans-Serif" font-size="10.00">mom_error_handler::</text>
<text text-anchor="middle" x="866" y="-106" font-family="Helvetica,sans-Serif" font-size="10.00">is_root_pe</text>
</a>
</g>
</g>
<!-- Node104&#45;&gt;Node105 -->
<g id="edge1" class="edge"><title>Node104&#45;&gt;Node105</title>
<path fill="none" stroke="midnightblue" d="M122.956,-85.5109C146.028,-90.8663 176.035,-97.2193 203,-101 421.522,-131.639 684.542,-123.639 802.465,-117.719"/>
<polygon fill="midnightblue" stroke="midnightblue" points="802.933,-121.199 812.74,-117.19 802.573,-114.209 802.933,-121.199"/>
</g>
<!-- Node106 -->
<g id="node3" class="node"><title>Node106</title>
<g id="a_node3"><a xlink:href="namespacemom__document.html#aa23ed2e58e74e88a71de374685ee11ec" target="_top" xlink:title="mom_document::mesghasbeendocumented">
<polygon fill="white" stroke="black" points="429,-88.5 429,-107.5 635,-107.5 635,-88.5 429,-88.5"/>
<text text-anchor="middle" x="532" y="-95.5" font-family="Helvetica,sans-Serif" font-size="10.00">mom_document::mesghasbeendocumented</text>
</a>
</g>
</g>
<!-- Node104&#45;&gt;Node106 -->
<g id="edge2" class="edge"><title>Node104&#45;&gt;Node106</title>
<path fill="none" stroke="midnightblue" d="M167.176,-80.0736C237.864,-83.5566 340.253,-88.6015 418.415,-92.4527"/>
<polygon fill="midnightblue" stroke="midnightblue" points="418.632,-95.9675 428.792,-92.964 418.976,-88.976 418.632,-95.9675"/>
</g>
<!-- Node108 -->
<g id="node5" class="node"><title>Node108</title>
<g id="a_node5"><a xlink:href="namespacemom__document.html#aab976b6c6c9c01833438d217fca228a4" target="_top" xlink:title="mom_document::open\l_doc_file">
<polygon fill="white" stroke="black" points="241.5,-39 241.5,-69 354.5,-69 354.5,-39 241.5,-39"/>
<text text-anchor="start" x="249.5" y="-57" font-family="Helvetica,sans-Serif" font-size="10.00">mom_document::open</text>
<text text-anchor="middle" x="298" y="-46" font-family="Helvetica,sans-Serif" font-size="10.00">_doc_file</text>
</a>
</g>
</g>
<!-- Node104&#45;&gt;Node108 -->
<g id="edge5" class="edge"><title>Node104&#45;&gt;Node108</title>
<path fill="none" stroke="midnightblue" d="M167.267,-67.4312C188.501,-65.2328 211.053,-62.898 231.295,-60.8024"/>
<polygon fill="midnightblue" stroke="midnightblue" points="231.753,-64.2738 241.339,-59.7625 231.032,-57.311 231.753,-64.2738"/>
</g>
<!-- Node110 -->
<g id="node7" class="node"><title>Node110</title>
<g id="a_node7"><a xlink:href="namespacemom__document.html#a22d84550b1affd1037328c5117496a65" target="_top" xlink:title="mom_document::writemessageanddesc">
<polygon fill="white" stroke="black" points="203,-0.5 203,-19.5 393,-19.5 393,-0.5 203,-0.5"/>
<text text-anchor="middle" x="298" y="-7.5" font-family="Helvetica,sans-Serif" font-size="10.00">mom_document::writemessageanddesc</text>
</a>
</g>
</g>
<!-- Node104&#45;&gt;Node110 -->
<g id="edge9" class="edge"><title>Node104&#45;&gt;Node110</title>
<path fill="none" stroke="midnightblue" d="M105.504,-66.3444C128.884,-55.9117 167.992,-39.3904 203,-29 212.122,-26.2927 221.855,-23.8473 231.473,-21.6818"/>
<polygon fill="midnightblue" stroke="midnightblue" points="232.39,-25.0643 241.423,-19.5271 230.909,-18.2229 232.39,-25.0643"/>
</g>
<!-- Node107 -->
<g id="node4" class="node"><title>Node107</title>
<g id="a_node4"><a xlink:href="namespacemom__error__handler.html#a460cfb79a06c29fc249952c2a3710d67" target="_top" xlink:title="mom_error_handler::\lmom_error">
<polygon fill="white" stroke="black" points="671,-61 671,-91 777,-91 777,-61 671,-61"/>
<text text-anchor="start" x="679" y="-79" font-family="Helvetica,sans-Serif" font-size="10.00">mom_error_handler::</text>
<text text-anchor="middle" x="724" y="-68" font-family="Helvetica,sans-Serif" font-size="10.00">mom_error</text>
</a>
</g>
</g>
<!-- Node106&#45;&gt;Node107 -->
<g id="edge3" class="edge"><title>Node106&#45;&gt;Node107</title>
<path fill="none" stroke="midnightblue" d="M615.232,-88.4784C630.404,-86.7216 646.019,-84.9136 660.49,-83.238"/>
<polygon fill="midnightblue" stroke="midnightblue" points="661.272,-86.6709 670.803,-82.0439 660.467,-79.7174 661.272,-86.6709"/>
</g>
<!-- Node107&#45;&gt;Node105 -->
<g id="edge4" class="edge"><title>Node107&#45;&gt;Node105</title>
<path fill="none" stroke="midnightblue" d="M777.131,-90.1498C785.604,-92.4495 794.451,-94.8509 803.129,-97.2063"/>
<polygon fill="midnightblue" stroke="midnightblue" points="802.258,-100.597 812.826,-99.8384 804.092,-93.841 802.258,-100.597"/>
</g>
<!-- Node108&#45;&gt;Node107 -->
<g id="edge8" class="edge"><title>Node108&#45;&gt;Node107</title>
<path fill="none" stroke="midnightblue" d="M354.867,-56.8987C433.982,-61.0038 578.196,-68.4866 660.685,-72.7667"/>
<polygon fill="midnightblue" stroke="midnightblue" points="660.507,-76.2621 670.675,-73.285 660.87,-69.2715 660.507,-76.2621"/>
</g>
<!-- Node109 -->
<g id="node6" class="node"><title>Node109</title>
<g id="a_node6"><a xlink:href="namespacemom__document.html#a5f2661445a72a7d0f774677e91366db5" target="_top" xlink:title="mom_document::find\l_unused_unit_number">
<polygon fill="white" stroke="black" points="476,-1 476,-31 588,-31 588,-1 476,-1"/>
<text text-anchor="start" x="484" y="-19" font-family="Helvetica,sans-Serif" font-size="10.00">mom_document::find</text>
<text text-anchor="middle" x="532" y="-8" font-family="Helvetica,sans-Serif" font-size="10.00">_unused_unit_number</text>
</a>
</g>
</g>
<!-- Node108&#45;&gt;Node109 -->
<g id="edge6" class="edge"><title>Node108&#45;&gt;Node109</title>
<path fill="none" stroke="midnightblue" d="M354.57,-44.8981C388,-39.4224 430.721,-32.425 465.751,-26.6873"/>
<polygon fill="midnightblue" stroke="midnightblue" points="466.581,-30.0981 475.884,-25.0277 465.449,-23.1902 466.581,-30.0981"/>
</g>
<!-- Node109&#45;&gt;Node107 -->
<g id="edge7" class="edge"><title>Node109&#45;&gt;Node107</title>
<path fill="none" stroke="midnightblue" d="M585.807,-31.0676C601.666,-35.7174 619.078,-40.947 635,-46 646.539,-49.6619 658.87,-53.7531 670.538,-57.7077"/>
<polygon fill="midnightblue" stroke="midnightblue" points="669.557,-61.0711 680.152,-60.985 671.816,-54.4455 669.557,-61.0711"/>
</g>
</g>
</svg>
