<?xml version="1.0" encoding="UTF-8" standalone="no"?>
<!DOCTYPE svg PUBLIC "-//W3C//DTD SVG 1.1//EN"
 "http://www.w3.org/Graphics/SVG/1.1/DTD/svg11.dtd">
<!-- Generated by graphviz version 2.38.0 (20140413.2041)
 -->
<!-- Title: mom_domains::complete_group_pass Pages: 1 -->
<svg width="421pt" height="166pt"
 viewBox="0.00 0.00 421.00 165.50" xmlns="http://www.w3.org/2000/svg" xmlns:xlink="http://www.w3.org/1999/xlink">
<g id="graph0" class="graph" transform="scale(1 1) rotate(0) translate(4 161.5)">
<title>mom_domains::complete_group_pass</title>
<polygon fill="white" stroke="none" points="-4,4 -4,-161.5 417,-161.5 417,4 -4,4"/>
<!-- Node9 -->
<g id="node1" class="node"><title>Node9</title>
<polygon fill="#bfbfbf" stroke="black" points="0,-66.5 0,-96.5 126,-96.5 126,-66.5 0,-66.5"/>
<text text-anchor="start" x="8" y="-84.5" font-family="Helvetica,sans-Serif" font-size="10.00">mom_domains::complete</text>
<text text-anchor="middle" x="63" y="-73.5" font-family="Helvetica,sans-Serif" font-size="10.00">_group_pass</text>
</g>
<!-- Node10 -->
<g id="node2" class="node"><title>Node10</title>
<g id="a_node2"><a xlink:href="namespacemom__barotropic.html#a98cdf3c559146cc9485fcb9daa4cdbca" target="_top" xlink:title="This subroutine time steps the barotropic equations explicitly. For gravity waves, anything between a forwards&#45;backwards scheme and a simulated backwards Euler scheme is used, with bebt between 0.0 and 1.0 determining the scheme. In practice, bebt must be of order 0.2 or greater. A forwards&#45;backwards treatment of the Coriolis terms is always used. ">
<polygon fill="white" stroke="black" points="177.5,-138 177.5,-157 296.5,-157 296.5,-138 177.5,-138"/>
<text text-anchor="middle" x="237" y="-145" font-family="Helvetica,sans-Serif" font-size="10.00">mom_barotropic::btstep</text>
</a>
</g>
</g>
<!-- Node9&#45;&gt;Node10 -->
<g id="edge1" class="edge"><title>Node9&#45;&gt;Node10</title>
<path fill="none" stroke="midnightblue" d="M100.715,-101.219C118.807,-110.386 141.164,-120.912 162,-128.5 171.846,-132.086 182.662,-135.268 192.912,-137.954"/>
<polygon fill="midnightblue" stroke="midnightblue" points="102.168,-98.0307 91.6741,-96.572 98.9679,-104.256 102.168,-98.0307"/>
</g>
<!-- Node11 -->
<g id="node3" class="node"><title>Node11</title>
<g id="a_node3"><a xlink:href="namespacemom__internal__tides.html#a6cae26da43d0539e8ac959105cf125c2" target="_top" xlink:title="This subroutine calls other subroutines in this file that are needed to refract, propagate, and dissipate energy density of the internal tide. ">
<polygon fill="white" stroke="black" points="186,-88.5 186,-118.5 288,-118.5 288,-88.5 186,-88.5"/>
<text text-anchor="start" x="194" y="-106.5" font-family="Helvetica,sans-Serif" font-size="10.00">mom_internal_tides</text>
<text text-anchor="middle" x="237" y="-95.5" font-family="Helvetica,sans-Serif" font-size="10.00">::propagate_int_tide</text>
</a>
</g>
</g>
<!-- Node9&#45;&gt;Node11 -->
<g id="edge2" class="edge"><title>Node9&#45;&gt;Node11</title>
<path fill="none" stroke="midnightblue" d="M136.354,-90.7546C153.013,-92.8854 170.372,-95.1058 185.846,-97.0849"/>
<polygon fill="midnightblue" stroke="midnightblue" points="136.459,-87.2396 126.096,-89.4425 135.571,-94.183 136.459,-87.2396"/>
</g>
<!-- Node12 -->
<g id="node4" class="node"><title>Node12</title>
<g id="a_node4"><a xlink:href="namespacemom.html#a4c8332b095c6d295084089aa6b3b678a" target="_top" xlink:title="This subroutine orchestrates the time stepping of MOM. The adiabatic dynamics are stepped by calls to...">
<polygon fill="white" stroke="black" points="192,-50 192,-69 282,-69 282,-50 192,-50"/>
<text text-anchor="middle" x="237" y="-57" font-family="Helvetica,sans-Serif" font-size="10.00">mom::step_mom</text>
</a>
</g>
</g>
<!-- Node9&#45;&gt;Node12 -->
<g id="edge3" class="edge"><title>Node9&#45;&gt;Node12</title>
<path fill="none" stroke="midnightblue" d="M136.167,-72.2693C155.051,-69.8539 174.849,-67.3216 191.79,-65.1548"/>
<polygon fill="midnightblue" stroke="midnightblue" points="135.571,-68.817 126.096,-73.5575 136.459,-75.7604 135.571,-68.817"/>
</g>
<!-- Node14 -->
<g id="node6" class="node"><title>Node14</title>
<g id="a_node6"><a xlink:href="namespacemom__dynamics__split__rk2.html#a81cce65643a8cf94979d68354a9a1979" target="_top" xlink:title="RK2 splitting for time stepping MOM adiabatic dynamics. ">
<polygon fill="white" stroke="black" points="162,-0.5 162,-30.5 312,-30.5 312,-0.5 162,-0.5"/>
<text text-anchor="start" x="170" y="-18.5" font-family="Helvetica,sans-Serif" font-size="10.00">mom_dynamics_split</text>
<text text-anchor="middle" x="237" y="-7.5" font-family="Helvetica,sans-Serif" font-size="10.00">_rk2::step_mom_dyn_split_rk2</text>
</a>
</g>
</g>
<!-- Node9&#45;&gt;Node14 -->
<g id="edge5" class="edge"><title>Node9&#45;&gt;Node14</title>
<path fill="none" stroke="midnightblue" d="M107.809,-62.3964C124.647,-55.2589 144.115,-47.2527 162,-40.5 170.88,-37.147 180.437,-33.7585 189.637,-30.6046"/>
<polygon fill="midnightblue" stroke="midnightblue" points="106.056,-59.3391 98.2314,-66.4825 108.803,-65.7777 106.056,-59.3391"/>
</g>
<!-- Node13 -->
<g id="node5" class="node"><title>Node13</title>
<g id="a_node5"><a xlink:href="MOM__driver_8F90.html#a08fffeb2d8e8acbf9ed4609be6d258c6" target="_top" xlink:title="mom_main">
<polygon fill="white" stroke="black" points="348,-50 348,-69 413,-69 413,-50 348,-50"/>
<text text-anchor="middle" x="380.5" y="-57" font-family="Helvetica,sans-Serif" font-size="10.00">mom_main</text>
</a>
</g>
</g>
<!-- Node12&#45;&gt;Node13 -->
<g id="edge4" class="edge"><title>Node12&#45;&gt;Node13</title>
<path fill="none" stroke="midnightblue" d="M292.572,-59.5C311.272,-59.5 331.565,-59.5 347.837,-59.5"/>
<polygon fill="midnightblue" stroke="midnightblue" points="292.383,-56.0001 282.383,-59.5 292.383,-63.0001 292.383,-56.0001"/>
</g>
</g>
</svg>
