<?xml version="1.0" encoding="UTF-8" standalone="no"?>
<!DOCTYPE svg PUBLIC "-//W3C//DTD SVG 1.1//EN"
 "http://www.w3.org/Graphics/SVG/1.1/DTD/svg11.dtd">
<!-- Generated by graphviz version 2.38.0 (20140413.2041)
 -->
<!-- Title: mom_remapping::remap_via_sub_cells Pages: 1 -->
<svg width="582pt" height="176pt"
 viewBox="0.00 0.00 582.00 176.00" xmlns="http://www.w3.org/2000/svg" xmlns:xlink="http://www.w3.org/1999/xlink">
<g id="graph0" class="graph" transform="scale(1 1) rotate(0) translate(4 172)">
<title>mom_remapping::remap_via_sub_cells</title>
<polygon fill="white" stroke="none" points="-4,4 -4,-172 578,-172 578,4 -4,4"/>
<!-- Node186 -->
<g id="node1" class="node"><title>Node186</title>
<polygon fill="#bfbfbf" stroke="black" points="0,-71.5 0,-101.5 122,-101.5 122,-71.5 0,-71.5"/>
<text text-anchor="start" x="8" y="-89.5" font-family="Helvetica,sans-Serif" font-size="10.00">mom_remapping::remap</text>
<text text-anchor="middle" x="61" y="-78.5" font-family="Helvetica,sans-Serif" font-size="10.00">_via_sub_cells</text>
</g>
<!-- Node187 -->
<g id="node2" class="node"><title>Node187</title>
<g id="a_node2"><a xlink:href="namespacemom__remapping.html#ac97371127053406c84be732a19eb6f9d" target="_top" xlink:title="Returns the average value of a reconstruction within a single source cell, i0, between the non&#45;dimens...">
<polygon fill="white" stroke="black" points="159.5,-137.5 159.5,-167.5 288.5,-167.5 288.5,-137.5 159.5,-137.5"/>
<text text-anchor="start" x="167.5" y="-155.5" font-family="Helvetica,sans-Serif" font-size="10.00">mom_remapping::average</text>
<text text-anchor="middle" x="224" y="-144.5" font-family="Helvetica,sans-Serif" font-size="10.00">_value_ppoly</text>
</a>
</g>
</g>
<!-- Node186&#45;&gt;Node187 -->
<g id="edge1" class="edge"><title>Node186&#45;&gt;Node187</title>
<path fill="none" stroke="midnightblue" d="M98.9367,-101.642C122.049,-111.116 152.017,-123.401 176.709,-133.524"/>
<polygon fill="midnightblue" stroke="midnightblue" points="175.655,-136.874 186.235,-137.429 178.31,-130.397 175.655,-136.874"/>
</g>
<!-- Node188 -->
<g id="node3" class="node"><title>Node188</title>
<g id="a_node3"><a xlink:href="namespacemom__error__handler.html#a460cfb79a06c29fc249952c2a3710d67" target="_top" xlink:title="mom_error_handler::\lmom_error">
<polygon fill="white" stroke="black" points="326,-115.5 326,-145.5 432,-145.5 432,-115.5 326,-115.5"/>
<text text-anchor="start" x="334" y="-133.5" font-family="Helvetica,sans-Serif" font-size="10.00">mom_error_handler::</text>
<text text-anchor="middle" x="379" y="-122.5" font-family="Helvetica,sans-Serif" font-size="10.00">mom_error</text>
</a>
</g>
</g>
<!-- Node186&#45;&gt;Node188 -->
<g id="edge6" class="edge"><title>Node186&#45;&gt;Node188</title>
<path fill="none" stroke="midnightblue" d="M122.181,-94.8796C177.643,-102.602 259.618,-114.016 315.733,-121.83"/>
<polygon fill="midnightblue" stroke="midnightblue" points="315.511,-125.333 325.898,-123.245 316.476,-118.4 315.511,-125.333"/>
</g>
<!-- Node190 -->
<g id="node5" class="node"><title>Node190</title>
<g id="a_node5"><a xlink:href="namespacemom__remapping.html#afe0efe65edb680f96fc5efe3d29a9217" target="_top" xlink:title="Measure totals and bounds on source grid. ">
<polygon fill="white" stroke="black" points="158,-49.5 158,-79.5 290,-79.5 290,-49.5 158,-49.5"/>
<text text-anchor="start" x="166" y="-67.5" font-family="Helvetica,sans-Serif" font-size="10.00">mom_remapping::measure</text>
<text text-anchor="middle" x="224" y="-56.5" font-family="Helvetica,sans-Serif" font-size="10.00">_input_bounds</text>
</a>
</g>
</g>
<!-- Node186&#45;&gt;Node190 -->
<g id="edge4" class="edge"><title>Node186&#45;&gt;Node190</title>
<path fill="none" stroke="midnightblue" d="M122.409,-78.2454C130.746,-77.1062 139.39,-75.925 147.952,-74.755"/>
<polygon fill="midnightblue" stroke="midnightblue" points="148.507,-78.2118 157.941,-73.39 147.559,-71.2762 148.507,-78.2118"/>
</g>
<!-- Node191 -->
<g id="node6" class="node"><title>Node191</title>
<g id="a_node6"><a xlink:href="namespacemom__remapping.html#a5453aeefe69feaff159b67f3a4bd2366" target="_top" xlink:title="Measure totals and bounds on destination grid. ">
<polygon fill="white" stroke="black" points="158,-0.5 158,-30.5 290,-30.5 290,-0.5 158,-0.5"/>
<text text-anchor="start" x="166" y="-18.5" font-family="Helvetica,sans-Serif" font-size="10.00">mom_remapping::measure</text>
<text text-anchor="middle" x="224" y="-7.5" font-family="Helvetica,sans-Serif" font-size="10.00">_output_bounds</text>
</a>
</g>
</g>
<!-- Node186&#45;&gt;Node191 -->
<g id="edge5" class="edge"><title>Node186&#45;&gt;Node191</title>
<path fill="none" stroke="midnightblue" d="M91.9827,-71.3751C110.774,-62.0854 135.598,-50.1572 158,-40.5 162.736,-38.4584 167.699,-36.403 172.68,-34.3952"/>
<polygon fill="midnightblue" stroke="midnightblue" points="174.224,-37.5481 182.23,-30.6087 171.644,-31.0409 174.224,-37.5481"/>
</g>
<!-- Node187&#45;&gt;Node188 -->
<g id="edge2" class="edge"><title>Node187&#45;&gt;Node188</title>
<path fill="none" stroke="midnightblue" d="M288.557,-143.361C297.504,-142.075 306.696,-140.753 315.621,-139.469"/>
<polygon fill="midnightblue" stroke="midnightblue" points="316.158,-142.928 325.558,-138.041 315.162,-136 316.158,-142.928"/>
</g>
<!-- Node189 -->
<g id="node4" class="node"><title>Node189</title>
<g id="a_node4"><a xlink:href="namespacemom__error__handler.html#ad5f00a53059c72fe2332d1436c80ca71" target="_top" xlink:title="mom_error_handler::\lis_root_pe">
<polygon fill="white" stroke="black" points="468,-115.5 468,-145.5 574,-145.5 574,-115.5 468,-115.5"/>
<text text-anchor="start" x="476" y="-133.5" font-family="Helvetica,sans-Serif" font-size="10.00">mom_error_handler::</text>
<text text-anchor="middle" x="521" y="-122.5" font-family="Helvetica,sans-Serif" font-size="10.00">is_root_pe</text>
</a>
</g>
</g>
<!-- Node188&#45;&gt;Node189 -->
<g id="edge3" class="edge"><title>Node188&#45;&gt;Node189</title>
<path fill="none" stroke="midnightblue" d="M432.131,-130.5C440.421,-130.5 449.07,-130.5 457.568,-130.5"/>
<polygon fill="midnightblue" stroke="midnightblue" points="457.826,-134 467.826,-130.5 457.826,-127 457.826,-134"/>
</g>
</g>
</svg>
