<?xml version="1.0" encoding="UTF-8" standalone="no"?>
<!DOCTYPE svg PUBLIC "-//W3C//DTD SVG 1.1//EN"
 "http://www.w3.org/Graphics/SVG/1.1/DTD/svg11.dtd">
<!-- Generated by graphviz version 2.38.0 (20140413.2041)
 -->
<!-- Title: regrid_consts::state_dependent_char Pages: 1 -->
<!--zoomable 88 -->
<svg id="main" version="1.1" xmlns="http://www.w3.org/2000/svg" xmlns:xlink="http://www.w3.org/1999/xlink" xml:space="preserve" onload="init(evt)">
<style type="text/css"><![CDATA[
.edge:hover path { stroke: red; }
.edge:hover polygon { stroke: red; fill: red; }
]]></style>
<script type="text/javascript"><![CDATA[
var edges = document.getElementsByTagName('g');
if (edges && edges.length) {
  for (var i=0;i<edges.length;i++) {
    if (edges[i].id.substr(0,4)=='edge') {
      edges[i].setAttribute('class','edge');
    }
  }
}
]]></script>
        <defs>
                <circle id="rim" cx="0" cy="0" r="7"/>
                <circle id="rim2" cx="0" cy="0" r="3.5"/>
                <g id="zoomPlus">
                        <use xlink:href="#rim" fill="#404040">
                                <set attributeName="fill" to="#808080" begin="zoomplus.mouseover" end="zoomplus.mouseout"/>
                        </use>
                        <path d="M-4,0h8M0,-4v8" fill="none" stroke="white" stroke-width="1.5" pointer-events="none"/>
                </g>
                <g id="zoomMin">
                        <use xlink:href="#rim" fill="#404040">
                                <set attributeName="fill" to="#808080" begin="zoomminus.mouseover" end="zoomminus.mouseout"/>
                        </use>
                        <path d="M-4,0h8" fill="none" stroke="white" stroke-width="1.5" pointer-events="none"/>
                </g>
                <g id="dirArrow">
                        <path fill="none" stroke="white" stroke-width="1.5" d="M0,-3.0v7 M-2.5,-0.5L0,-3.0L2.5,-0.5"/>
                </g>
               <g id="resetDef">
                       <use xlink:href="#rim2" fill="#404040">
                               <set attributeName="fill" to="#808080" begin="reset.mouseover" end="reset.mouseout"/>
                       </use>
               </g>
        </defs>

<script type="text/javascript">
var viewWidth = 588;
var viewHeight = 88;
var sectionId = 'dynsection-5';
</script>
<script xlink:href="svgpan.js"/>
<svg id="graph" class="graph">
<g id="viewport">
<title>regrid_consts::state_dependent_char</title>
<polygon fill="white" stroke="none" points="-4,4 -4,-84 584,-84 584,4 -4,4"/>
<!-- Node23 -->
<g id="node1" class="node"><title>Node23</title>
<polygon fill="#bfbfbf" stroke="black" points="0,-27.5 0,-57.5 103,-57.5 103,-27.5 0,-27.5"/>
<text text-anchor="start" x="8" y="-45.5" font-family="Helvetica,sans-Serif" font-size="10.00">regrid_consts::state</text>
<text text-anchor="middle" x="51.5" y="-34.5" font-family="Helvetica,sans-Serif" font-size="10.00">_dependent_char</text>
</g>
<!-- Node24 -->
<g id="node2" class="node"><title>Node24</title>
<g id="a_node2"><a xlink:href="namespaceregrid__consts.html#a06ccba5b7b038bed853606a315df306a" target="_top" xlink:title="Parse a string parameter specifying the coordinate mode and return the appropriate enumerated integer...">
<polygon fill="white" stroke="black" points="139,-11 139,-30 289,-30 289,-11 139,-11"/>
<text text-anchor="middle" x="214" y="-18" font-family="Helvetica,sans-Serif" font-size="10.00">regrid_consts::coordinatemode</text>
</a>
</g>
</g>
<!-- Node23&#45;&gt;Node24 -->
<g id="edge1" class="edge"><title>Node23&#45;&gt;Node24</title>
<path fill="none" stroke="midnightblue" d="M103.283,-35.5391C112.857,-34.2267 123.081,-32.8253 133.294,-31.4255"/>
<polygon fill="midnightblue" stroke="midnightblue" points="134.046,-34.8552 143.478,-30.0296 133.095,-27.9201 134.046,-34.8552"/>
</g>
<!-- Node28 -->
<g id="node6" class="node"><title>Node28</title>
<g id="a_node6"><a xlink:href="namespaceregrid__consts.html#a5e0d6146992d81d5a47248019d7dfa71" target="_top" xlink:title="Returns true if the coordinate is dependent on the state density, returns false otherwise. ">
<polygon fill="white" stroke="black" points="162.5,-49.5 162.5,-79.5 265.5,-79.5 265.5,-49.5 162.5,-49.5"/>
<text text-anchor="start" x="170.5" y="-67.5" font-family="Helvetica,sans-Serif" font-size="10.00">regrid_consts::state</text>
<text text-anchor="middle" x="214" y="-56.5" font-family="Helvetica,sans-Serif" font-size="10.00">_dependent_int</text>
</a>
</g>
</g>
<!-- Node23&#45;&gt;Node28 -->
<g id="edge5" class="edge"><title>Node23&#45;&gt;Node28</title>
<path fill="none" stroke="midnightblue" d="M103.283,-49.4609C118.727,-51.5779 135.862,-53.9266 151.911,-56.1264"/>
<polygon fill="midnightblue" stroke="midnightblue" points="151.889,-59.6561 162.272,-57.5466 152.84,-52.7209 151.889,-59.6561"/>
</g>
<!-- Node25 -->
<g id="node3" class="node"><title>Node25</title>
<g id="a_node3"><a xlink:href="namespacemom__error__handler.html#a460cfb79a06c29fc249952c2a3710d67" target="_top" xlink:title="mom_error_handler::\lmom_error">
<polygon fill="white" stroke="black" points="328.5,-49.5 328.5,-79.5 434.5,-79.5 434.5,-49.5 328.5,-49.5"/>
<text text-anchor="start" x="336.5" y="-67.5" font-family="Helvetica,sans-Serif" font-size="10.00">mom_error_handler::</text>
<text text-anchor="middle" x="381.5" y="-56.5" font-family="Helvetica,sans-Serif" font-size="10.00">mom_error</text>
</a>
</g>
</g>
<!-- Node24&#45;&gt;Node25 -->
<g id="edge2" class="edge"><title>Node24&#45;&gt;Node25</title>
<path fill="none" stroke="midnightblue" d="M252.675,-30.0539C264.33,-33.0415 277.204,-36.3744 289,-39.5 298.551,-42.0308 308.651,-44.7485 318.519,-47.4266"/>
<polygon fill="midnightblue" stroke="midnightblue" points="317.711,-50.8341 328.279,-50.0831 319.549,-44.0798 317.711,-50.8341"/>
</g>
<!-- Node27 -->
<g id="node5" class="node"><title>Node27</title>
<g id="a_node5"><a xlink:href="namespacemom__string__functions.html#aca148baf726de2f028b7e7baad3c85d4" target="_top" xlink:title="mom_string_functions\l::uppercase">
<polygon fill="white" stroke="black" points="325,-0.5 325,-30.5 438,-30.5 438,-0.5 325,-0.5"/>
<text text-anchor="start" x="333" y="-18.5" font-family="Helvetica,sans-Serif" font-size="10.00">mom_string_functions</text>
<text text-anchor="middle" x="381.5" y="-7.5" font-family="Helvetica,sans-Serif" font-size="10.00">::uppercase</text>
</a>
</g>
</g>
<!-- Node24&#45;&gt;Node27 -->
<g id="edge4" class="edge"><title>Node24&#45;&gt;Node27</title>
<path fill="none" stroke="midnightblue" d="M289.037,-18.2632C297.603,-18.0044 306.295,-17.7418 314.74,-17.4867"/>
<polygon fill="midnightblue" stroke="midnightblue" points="315.005,-20.9804 324.894,-17.1799 314.793,-13.9836 315.005,-20.9804"/>
</g>
<!-- Node26 -->
<g id="node4" class="node"><title>Node26</title>
<g id="a_node4"><a xlink:href="namespacemom__error__handler.html#ad5f00a53059c72fe2332d1436c80ca71" target="_top" xlink:title="mom_error_handler::\lis_root_pe">
<polygon fill="white" stroke="black" points="474,-49.5 474,-79.5 580,-79.5 580,-49.5 474,-49.5"/>
<text text-anchor="start" x="482" y="-67.5" font-family="Helvetica,sans-Serif" font-size="10.00">mom_error_handler::</text>
<text text-anchor="middle" x="527" y="-56.5" font-family="Helvetica,sans-Serif" font-size="10.00">is_root_pe</text>
</a>
</g>
</g>
<!-- Node25&#45;&gt;Node26 -->
<g id="edge3" class="edge"><title>Node25&#45;&gt;Node26</title>
<path fill="none" stroke="midnightblue" d="M434.713,-64.5C444.011,-64.5 453.783,-64.5 463.337,-64.5"/>
<polygon fill="midnightblue" stroke="midnightblue" points="463.586,-68.0001 473.586,-64.5 463.586,-61.0001 463.586,-68.0001"/>
</g>
<!-- Node28&#45;&gt;Node25 -->
<g id="edge6" class="edge"><title>Node28&#45;&gt;Node25</title>
<path fill="none" stroke="midnightblue" d="M265.555,-64.5C282.163,-64.5 300.82,-64.5 318.195,-64.5"/>
<polygon fill="midnightblue" stroke="midnightblue" points="318.252,-68.0001 328.252,-64.5 318.252,-61.0001 318.252,-68.0001"/>
</g>
</g>
</svg>
        <g id="navigator" transform="translate(0 0)" fill="#404254">
                <rect fill="#f2f5e9" fill-opacity="0.5" stroke="#606060" stroke-width=".5" x="0" y="0" width="60" height="60"/>
                <use id="zoomplus" xlink:href="#zoomPlus" x="17" y="9" onmousedown="handleZoom(evt,'in')"/>
                <use id="zoomminus" xlink:href="#zoomMin" x="42" y="9" onmousedown="handleZoom(evt,'out')"/>
                <use id="reset" xlink:href="#resetDef" x="30" y="36" onmousedown="handleReset()"/>
                <g id="arrowUp" xlink:href="#dirArrow" transform="translate(30 24)" onmousedown="handlePan(0,-1)">
                  <use xlink:href="#rim" fill="#404040">
                        <set attributeName="fill" to="#808080" begin="arrowUp.mouseover" end="arrowUp.mouseout"/>
                  </use>
                  <path fill="none" stroke="white" stroke-width="1.5" d="M0,-3.0v7 M-2.5,-0.5L0,-3.0L2.5,-0.5"/>
                </g>
                <g id="arrowRight" xlink:href="#dirArrow" transform="rotate(90) translate(36 -43)" onmousedown="handlePan(1,0)">
                  <use xlink:href="#rim" fill="#404040">
                        <set attributeName="fill" to="#808080" begin="arrowRight.mouseover" end="arrowRight.mouseout"/>
                  </use>
                  <path fill="none" stroke="white" stroke-width="1.5" d="M0,-3.0v7 M-2.5,-0.5L0,-3.0L2.5,-0.5"/>
                </g>
                <g id="arrowDown" xlink:href="#dirArrow" transform="rotate(180) translate(-30 -48)" onmousedown="handlePan(0,1)">
                  <use xlink:href="#rim" fill="#404040">
                        <set attributeName="fill" to="#808080" begin="arrowDown.mouseover" end="arrowDown.mouseout"/>
                  </use>
                  <path fill="none" stroke="white" stroke-width="1.5" d="M0,-3.0v7 M-2.5,-0.5L0,-3.0L2.5,-0.5"/>
                </g>
                <g id="arrowLeft" xlink:href="#dirArrow" transform="rotate(270) translate(-36 17)" onmousedown="handlePan(-1,0)">
                  <use xlink:href="#rim" fill="#404040">
                        <set attributeName="fill" to="#808080" begin="arrowLeft.mouseover" end="arrowLeft.mouseout"/>
                  </use>
                  <path fill="none" stroke="white" stroke-width="1.5" d="M0,-3.0v7 M-2.5,-0.5L0,-3.0L2.5,-0.5"/>
                </g>
        </g>
        <svg viewBox="0 0 15 15" width="100%" height="30px" preserveAspectRatio="xMaxYMin meet">
         <g id="arrow_out" transform="scale(0.3 0.3)">
          <a xlink:href="namespaceregrid__consts_ab231ec7fa57aa5630c057ecbf9fbb95d_cgraph_org.svg" target="_base">
           <rect id="button" ry="5" rx="5" y="6" x="6" height="38" width="38"
                fill="#f2f5e9" fill-opacity="0.5" stroke="#606060" stroke-width="1.0"/>
           <path id="arrow"
             d="M 11.500037,31.436501 C 11.940474,20.09759 22.043105,11.32322 32.158766,21.979434 L 37.068811,17.246167 C 37.068811,17.246167 37.088388,32 37.088388,32 L 22.160133,31.978069 C 22.160133,31.978069 26.997745,27.140456 26.997745,27.140456 C 18.528582,18.264221 13.291696,25.230495 11.500037,31.436501 z"
             style="fill:#404040;"/>
          </a>
         </g>
        </svg>
</svg>
