<?xml version="1.0" encoding="UTF-8" standalone="no"?>
<!DOCTYPE svg PUBLIC "-//W3C//DTD SVG 1.1//EN"
 "http://www.w3.org/Graphics/SVG/1.1/DTD/svg11.dtd">
<!-- Generated by graphviz version 2.38.0 (20140413.2041)
 -->
<!-- Title: mom_neutral_diffusion::neutral_surface_flux Pages: 1 -->
<svg width="689pt" height="88pt"
 viewBox="0.00 0.00 689.00 88.00" xmlns="http://www.w3.org/2000/svg" xmlns:xlink="http://www.w3.org/1999/xlink">
<g id="graph0" class="graph" transform="scale(1 1) rotate(0) translate(4 84)">
<title>mom_neutral_diffusion::neutral_surface_flux</title>
<polygon fill="white" stroke="none" points="-4,4 -4,-84 685,-84 685,4 -4,4"/>
<!-- Node166 -->
<g id="node1" class="node"><title>Node166</title>
<polygon fill="#bfbfbf" stroke="black" points="0,-24.5 0,-54.5 115,-54.5 115,-24.5 0,-24.5"/>
<text text-anchor="start" x="8" y="-42.5" font-family="Helvetica,sans-Serif" font-size="10.00">mom_neutral_diffusion</text>
<text text-anchor="middle" x="57.5" y="-31.5" font-family="Helvetica,sans-Serif" font-size="10.00">::neutral_surface_flux</text>
</g>
<!-- Node167 -->
<g id="node2" class="node"><title>Node167</title>
<g id="a_node2"><a xlink:href="namespacemom__neutral__diffusion.html#a0aa7d320b2d623791e7de7d879930a64" target="_top" xlink:title="Update tracer concentration due to neutral diffusion; layer thickness unchanged by this update...">
<polygon fill="white" stroke="black" points="164.5,-49.5 164.5,-79.5 279.5,-79.5 279.5,-49.5 164.5,-49.5"/>
<text text-anchor="start" x="172.5" y="-67.5" font-family="Helvetica,sans-Serif" font-size="10.00">mom_neutral_diffusion</text>
<text text-anchor="middle" x="222" y="-56.5" font-family="Helvetica,sans-Serif" font-size="10.00">::neutral_diffusion</text>
</a>
</g>
</g>
<!-- Node166&#45;&gt;Node167 -->
<g id="edge1" class="edge"><title>Node166&#45;&gt;Node167</title>
<path fill="none" stroke="midnightblue" d="M125.57,-49.8185C138.498,-51.8074 151.92,-53.8723 164.472,-55.8034"/>
<polygon fill="midnightblue" stroke="midnightblue" points="125.751,-46.3051 115.335,-48.2438 124.686,-53.2237 125.751,-46.3051"/>
</g>
<!-- Node169 -->
<g id="node4" class="node"><title>Node169</title>
<g id="a_node4"><a xlink:href="namespacemom__neutral__diffusion.html#a6f91c93a6363fb39395796420f25fad2" target="_top" xlink:title="Returns true if unit tests of neutral_diffusion functions fail. Otherwise returns false...">
<polygon fill="white" stroke="black" points="151,-0.5 151,-30.5 293,-30.5 293,-0.5 151,-0.5"/>
<text text-anchor="start" x="159" y="-18.5" font-family="Helvetica,sans-Serif" font-size="10.00">mom_neutral_diffusion</text>
<text text-anchor="middle" x="222" y="-7.5" font-family="Helvetica,sans-Serif" font-size="10.00">::neutral_diffusion_unit_tests</text>
</a>
</g>
</g>
<!-- Node166&#45;&gt;Node169 -->
<g id="edge3" class="edge"><title>Node166&#45;&gt;Node169</title>
<path fill="none" stroke="midnightblue" d="M125.409,-29.618C133.774,-28.3826 142.349,-27.1162 150.762,-25.8735"/>
<polygon fill="midnightblue" stroke="midnightblue" points="124.716,-26.1824 115.335,-31.106 125.739,-33.1072 124.716,-26.1824"/>
</g>
<!-- Node168 -->
<g id="node3" class="node"><title>Node168</title>
<g id="a_node3"><a xlink:href="namespacemom__tracer__hor__diff.html#a069e22612062290389c2630c7f90ede2" target="_top" xlink:title="Compute along&#45;coordinate diffusion of all tracers using the diffusivity in CSKhTr, or using space&#45;dependent diffusivity. Multiple iterations are used (if necessary) so that there is no limit on the acceptable time increment. ">
<polygon fill="white" stroke="black" points="330,-49.5 330,-79.5 436,-79.5 436,-49.5 330,-49.5"/>
<text text-anchor="start" x="338" y="-67.5" font-family="Helvetica,sans-Serif" font-size="10.00">mom_tracer_hor_diff</text>
<text text-anchor="middle" x="383" y="-56.5" font-family="Helvetica,sans-Serif" font-size="10.00">::tracer_hordiff</text>
</a>
</g>
</g>
<!-- Node167&#45;&gt;Node168 -->
<g id="edge2" class="edge"><title>Node167&#45;&gt;Node168</title>
<path fill="none" stroke="midnightblue" d="M289.664,-64.5C303.112,-64.5 317.064,-64.5 329.924,-64.5"/>
<polygon fill="midnightblue" stroke="midnightblue" points="289.505,-61.0001 279.505,-64.5 289.505,-68.0001 289.505,-61.0001"/>
</g>
<!-- Node170 -->
<g id="node5" class="node"><title>Node170</title>
<g id="a_node5"><a xlink:href="namespacemom__unit__tests.html#a71f3a2080872634c14a25a9411b59fe0" target="_top" xlink:title="Calls unit tests for other modules. Note that if a unit test returns true, a FATAL error is triggered...">
<polygon fill="white" stroke="black" points="329,-0.5 329,-30.5 437,-30.5 437,-0.5 329,-0.5"/>
<text text-anchor="start" x="337" y="-18.5" font-family="Helvetica,sans-Serif" font-size="10.00">mom_unit_tests::unit</text>
<text text-anchor="middle" x="383" y="-7.5" font-family="Helvetica,sans-Serif" font-size="10.00">_tests</text>
</a>
</g>
</g>
<!-- Node169&#45;&gt;Node170 -->
<g id="edge4" class="edge"><title>Node169&#45;&gt;Node170</title>
<path fill="none" stroke="midnightblue" d="M303.353,-15.5C312.016,-15.5 320.665,-15.5 328.89,-15.5"/>
<polygon fill="midnightblue" stroke="midnightblue" points="303.203,-12.0001 293.203,-15.5 303.203,-19.0001 303.203,-12.0001"/>
</g>
<!-- Node171 -->
<g id="node6" class="node"><title>Node171</title>
<g id="a_node6"><a xlink:href="namespacemom.html#a0be2869fef30e1e0604facfe1b41555d" target="_top" xlink:title="This subroutine initializes MOM. ">
<polygon fill="white" stroke="black" points="473,-6 473,-25 580,-25 580,-6 473,-6"/>
<text text-anchor="middle" x="526.5" y="-13" font-family="Helvetica,sans-Serif" font-size="10.00">mom::initialize_mom</text>
</a>
</g>
</g>
<!-- Node170&#45;&gt;Node171 -->
<g id="edge5" class="edge"><title>Node170&#45;&gt;Node171</title>
<path fill="none" stroke="midnightblue" d="M447.294,-15.5C455.742,-15.5 464.335,-15.5 472.581,-15.5"/>
<polygon fill="midnightblue" stroke="midnightblue" points="447.092,-12.0001 437.092,-15.5 447.092,-19.0001 447.092,-12.0001"/>
</g>
<!-- Node172 -->
<g id="node7" class="node"><title>Node172</title>
<g id="a_node7"><a xlink:href="MOM__driver_8F90.html#a08fffeb2d8e8acbf9ed4609be6d258c6" target="_top" xlink:title="mom_main">
<polygon fill="white" stroke="black" points="616,-6 616,-25 681,-25 681,-6 616,-6"/>
<text text-anchor="middle" x="648.5" y="-13" font-family="Helvetica,sans-Serif" font-size="10.00">mom_main</text>
</a>
</g>
</g>
<!-- Node171&#45;&gt;Node172 -->
<g id="edge6" class="edge"><title>Node171&#45;&gt;Node172</title>
<path fill="none" stroke="midnightblue" d="M590.206,-15.5C599.134,-15.5 607.983,-15.5 615.958,-15.5"/>
<polygon fill="midnightblue" stroke="midnightblue" points="590.134,-12.0001 580.134,-15.5 590.134,-19.0001 590.134,-12.0001"/>
</g>
</g>
</svg>
