<?xml version="1.0" encoding="UTF-8" standalone="no"?>
<!DOCTYPE svg PUBLIC "-//W3C//DTD SVG 1.1//EN"
 "http://www.w3.org/Graphics/SVG/1.1/DTD/svg11.dtd">
<!-- Generated by graphviz version 2.38.0 (20140413.2041)
 -->
<!-- Title: dense_water_initialization::dense_water_initialize_sponges Pages: 1 -->
<svg width="1163pt" height="167pt"
 viewBox="0.00 0.00 1163.00 167.00" xmlns="http://www.w3.org/2000/svg" xmlns:xlink="http://www.w3.org/1999/xlink">
<g id="graph0" class="graph" transform="scale(1 1) rotate(0) translate(4 163)">
<title>dense_water_initialization::dense_water_initialize_sponges</title>
<polygon fill="white" stroke="none" points="-4,4 -4,-163 1159,-163 1159,4 -4,4"/>
<!-- Node0 -->
<g id="node1" class="node"><title>Node0</title>
<polygon fill="#bfbfbf" stroke="black" points="0,-39 0,-80 128,-80 128,-39 0,-39"/>
<text text-anchor="start" x="8" y="-68" font-family="Helvetica,sans-Serif" font-size="10.00">dense_water_initialization</text>
<text text-anchor="start" x="8" y="-57" font-family="Helvetica,sans-Serif" font-size="10.00">::dense_water_initialize</text>
<text text-anchor="middle" x="64" y="-46" font-family="Helvetica,sans-Serif" font-size="10.00">_sponges</text>
</g>
<!-- Node1 -->
<g id="node2" class="node"><title>Node1</title>
<g id="a_node2"><a xlink:href="namespacemom__ale__sponge.html#a135d5ca4d0dff789bc6db5ac789b4142" target="_top" xlink:title="This subroutine determines the number of points which are within. ">
<polygon fill="white" stroke="black" points="164,-88.5 164,-118.5 298,-118.5 298,-88.5 164,-88.5"/>
<text text-anchor="start" x="172" y="-106.5" font-family="Helvetica,sans-Serif" font-size="10.00">mom_ale_sponge::initialize</text>
<text text-anchor="middle" x="231" y="-95.5" font-family="Helvetica,sans-Serif" font-size="10.00">_ale_sponge</text>
</a>
</g>
</g>
<!-- Node0&#45;&gt;Node1 -->
<g id="edge1" class="edge"><title>Node0&#45;&gt;Node1</title>
<path fill="none" stroke="midnightblue" d="M128.321,-76.3857C139.965,-79.4908 152.149,-82.7398 163.873,-85.8662"/>
<polygon fill="midnightblue" stroke="midnightblue" points="163.027,-89.2628 173.591,-88.4577 164.831,-82.4992 163.027,-89.2628"/>
</g>
<!-- Node2 -->
<g id="node3" class="node"><title>Node2</title>
<g id="a_node3"><a xlink:href="namespacemom__error__handler.html#a460cfb79a06c29fc249952c2a3710d67" target="_top" xlink:title="mom_error_handler::\lmom_error">
<polygon fill="white" stroke="black" points="903.5,-79.5 903.5,-109.5 1009.5,-109.5 1009.5,-79.5 903.5,-79.5"/>
<text text-anchor="start" x="911.5" y="-97.5" font-family="Helvetica,sans-Serif" font-size="10.00">mom_error_handler::</text>
<text text-anchor="middle" x="956.5" y="-86.5" font-family="Helvetica,sans-Serif" font-size="10.00">mom_error</text>
</a>
</g>
</g>
<!-- Node0&#45;&gt;Node2 -->
<g id="edge9" class="edge"><title>Node0&#45;&gt;Node2</title>
<path fill="none" stroke="midnightblue" d="M128.219,-59.5C195.201,-59.5 304.055,-59.5 398,-59.5 398,-59.5 398,-59.5 571,-59.5 684.953,-59.5 817.123,-74.935 893.062,-85.3049"/>
<polygon fill="midnightblue" stroke="midnightblue" points="893.011,-88.8311 903.396,-86.7324 893.969,-81.8969 893.011,-88.8311"/>
</g>
<!-- Node8 -->
<g id="node9" class="node"><title>Node8</title>
<g id="a_node9"><a xlink:href="namespacemom__ale__sponge.html#adfb5d248683fa9d6accfcf5638303c3f" target="_top" xlink:title="This subroutine stores the reference profile at h points for the variable. ">
<polygon fill="white" stroke="black" points="174.5,-0.5 174.5,-30.5 287.5,-30.5 287.5,-0.5 174.5,-0.5"/>
<text text-anchor="start" x="182.5" y="-18.5" font-family="Helvetica,sans-Serif" font-size="10.00">mom_ale_sponge::set</text>
<text text-anchor="middle" x="231" y="-7.5" font-family="Helvetica,sans-Serif" font-size="10.00">_up_ale_sponge_field</text>
</a>
</g>
</g>
<!-- Node0&#45;&gt;Node8 -->
<g id="edge10" class="edge"><title>Node0&#45;&gt;Node8</title>
<path fill="none" stroke="midnightblue" d="M128.321,-42.6143C140.178,-39.4524 152.595,-36.1413 164.516,-32.9624"/>
<polygon fill="midnightblue" stroke="midnightblue" points="165.63,-36.2878 174.39,-30.3293 163.826,-29.5242 165.63,-36.2878"/>
</g>
<!-- Node1&#45;&gt;Node2 -->
<g id="edge2" class="edge"><title>Node1&#45;&gt;Node2</title>
<path fill="none" stroke="midnightblue" d="M298.124,-102.677C437.005,-100.95 757.384,-96.9645 893.023,-95.2772"/>
<polygon fill="midnightblue" stroke="midnightblue" points="893.285,-98.7743 903.241,-95.1501 893.198,-91.7748 893.285,-98.7743"/>
</g>
<!-- Node4 -->
<g id="node5" class="node"><title>Node4</title>
<g id="a_node5"><a xlink:href="namespacemom__remapping.html#a6847e0c44ccb54fb72587677f90d95b6" target="_top" xlink:title="Constructor for remapping control structure. ">
<polygon fill="white" stroke="black" points="334,-126.5 334,-156.5 464,-156.5 464,-126.5 334,-126.5"/>
<text text-anchor="start" x="342" y="-144.5" font-family="Helvetica,sans-Serif" font-size="10.00">mom_remapping::initialize</text>
<text text-anchor="middle" x="399" y="-133.5" font-family="Helvetica,sans-Serif" font-size="10.00">_remapping</text>
</a>
</g>
</g>
<!-- Node1&#45;&gt;Node4 -->
<g id="edge4" class="edge"><title>Node1&#45;&gt;Node4</title>
<path fill="none" stroke="midnightblue" d="M297.608,-118.519C306.299,-120.508 315.257,-122.559 324.076,-124.578"/>
<polygon fill="midnightblue" stroke="midnightblue" points="323.425,-128.019 333.954,-126.839 324.987,-121.196 323.425,-128.019"/>
</g>
<!-- Node3 -->
<g id="node4" class="node"><title>Node3</title>
<g id="a_node4"><a xlink:href="namespacemom__error__handler.html#ad5f00a53059c72fe2332d1436c80ca71" target="_top" xlink:title="mom_error_handler::\lis_root_pe">
<polygon fill="white" stroke="black" points="1049,-79.5 1049,-109.5 1155,-109.5 1155,-79.5 1049,-79.5"/>
<text text-anchor="start" x="1057" y="-97.5" font-family="Helvetica,sans-Serif" font-size="10.00">mom_error_handler::</text>
<text text-anchor="middle" x="1102" y="-86.5" font-family="Helvetica,sans-Serif" font-size="10.00">is_root_pe</text>
</a>
</g>
</g>
<!-- Node2&#45;&gt;Node3 -->
<g id="edge3" class="edge"><title>Node2&#45;&gt;Node3</title>
<path fill="none" stroke="midnightblue" d="M1009.71,-94.5C1019.01,-94.5 1028.78,-94.5 1038.34,-94.5"/>
<polygon fill="midnightblue" stroke="midnightblue" points="1038.59,-98.0001 1048.59,-94.5 1038.59,-91.0001 1038.59,-98.0001"/>
</g>
<!-- Node5 -->
<g id="node6" class="node"><title>Node5</title>
<g id="a_node6"><a xlink:href="namespacemom__remapping.html#a9e811f89c505a4416ea0eec315769801" target="_top" xlink:title="Set parameters within remapping object. ">
<polygon fill="white" stroke="black" points="500,-126.5 500,-156.5 640,-156.5 640,-126.5 500,-126.5"/>
<text text-anchor="start" x="508" y="-144.5" font-family="Helvetica,sans-Serif" font-size="10.00">mom_remapping::remapping</text>
<text text-anchor="middle" x="570" y="-133.5" font-family="Helvetica,sans-Serif" font-size="10.00">_set_param</text>
</a>
</g>
</g>
<!-- Node4&#45;&gt;Node5 -->
<g id="edge5" class="edge"><title>Node4&#45;&gt;Node5</title>
<path fill="none" stroke="midnightblue" d="M464.374,-141.5C472.597,-141.5 481.09,-141.5 489.517,-141.5"/>
<polygon fill="midnightblue" stroke="midnightblue" points="489.739,-145 499.739,-141.5 489.739,-138 489.739,-145"/>
</g>
<!-- Node6 -->
<g id="node7" class="node"><title>Node6</title>
<g id="a_node7"><a xlink:href="namespacemom__remapping.html#a41a89ac62578250500b7a450d5fdfae7" target="_top" xlink:title="Changes the method of reconstruction Use this routine to parse a string parameter specifying the reco...">
<polygon fill="white" stroke="black" points="676,-132 676,-151 864,-151 864,-132 676,-132"/>
<text text-anchor="middle" x="770" y="-139" font-family="Helvetica,sans-Serif" font-size="10.00">mom_remapping::setreconstructiontype</text>
</a>
</g>
</g>
<!-- Node5&#45;&gt;Node6 -->
<g id="edge6" class="edge"><title>Node5&#45;&gt;Node6</title>
<path fill="none" stroke="midnightblue" d="M640.251,-141.5C648.507,-141.5 657.067,-141.5 665.671,-141.5"/>
<polygon fill="midnightblue" stroke="midnightblue" points="665.775,-145 675.775,-141.5 665.775,-138 665.775,-145"/>
</g>
<!-- Node6&#45;&gt;Node2 -->
<g id="edge8" class="edge"><title>Node6&#45;&gt;Node2</title>
<path fill="none" stroke="midnightblue" d="M808.336,-131.989C832.732,-125.774 865.182,-117.508 893.403,-110.319"/>
<polygon fill="midnightblue" stroke="midnightblue" points="894.362,-113.686 903.189,-107.826 892.634,-106.903 894.362,-113.686"/>
</g>
<!-- Node7 -->
<g id="node8" class="node"><title>Node7</title>
<g id="a_node8"><a xlink:href="namespacemom__string__functions.html#aca148baf726de2f028b7e7baad3c85d4" target="_top" xlink:title="mom_string_functions\l::uppercase">
<polygon fill="white" stroke="black" points="900,-128.5 900,-158.5 1013,-158.5 1013,-128.5 900,-128.5"/>
<text text-anchor="start" x="908" y="-146.5" font-family="Helvetica,sans-Serif" font-size="10.00">mom_string_functions</text>
<text text-anchor="middle" x="956.5" y="-135.5" font-family="Helvetica,sans-Serif" font-size="10.00">::uppercase</text>
</a>
</g>
</g>
<!-- Node6&#45;&gt;Node7 -->
<g id="edge7" class="edge"><title>Node6&#45;&gt;Node7</title>
<path fill="none" stroke="midnightblue" d="M864.061,-142.509C872.625,-142.602 881.179,-142.694 889.429,-142.784"/>
<polygon fill="midnightblue" stroke="midnightblue" points="889.657,-146.286 899.694,-142.895 889.733,-139.287 889.657,-146.286"/>
</g>
</g>
</svg>
