<?xml version="1.0" encoding="UTF-8" standalone="no"?>
<!DOCTYPE svg PUBLIC "-//W3C//DTD SVG 1.1//EN"
 "http://www.w3.org/Graphics/SVG/1.1/DTD/svg11.dtd">
<!-- Generated by graphviz version 2.38.0 (20140413.2041)
 -->
<!-- Title: mom_document::doc_param_char Pages: 1 -->
<!--zoomable 204 -->
<svg id="main" version="1.1" xmlns="http://www.w3.org/2000/svg" xmlns:xlink="http://www.w3.org/1999/xlink" xml:space="preserve" onload="init(evt)">
<style type="text/css"><![CDATA[
.edge:hover path { stroke: red; }
.edge:hover polygon { stroke: red; fill: red; }
]]></style>
<script type="text/javascript"><![CDATA[
var edges = document.getElementsByTagName('g');
if (edges && edges.length) {
  for (var i=0;i<edges.length;i++) {
    if (edges[i].id.substr(0,4)=='edge') {
      edges[i].setAttribute('class','edge');
    }
  }
}
]]></script>
        <defs>
                <circle id="rim" cx="0" cy="0" r="7"/>
                <circle id="rim2" cx="0" cy="0" r="3.5"/>
                <g id="zoomPlus">
                        <use xlink:href="#rim" fill="#404040">
                                <set attributeName="fill" to="#808080" begin="zoomplus.mouseover" end="zoomplus.mouseout"/>
                        </use>
                        <path d="M-4,0h8M0,-4v8" fill="none" stroke="white" stroke-width="1.5" pointer-events="none"/>
                </g>
                <g id="zoomMin">
                        <use xlink:href="#rim" fill="#404040">
                                <set attributeName="fill" to="#808080" begin="zoomminus.mouseover" end="zoomminus.mouseout"/>
                        </use>
                        <path d="M-4,0h8" fill="none" stroke="white" stroke-width="1.5" pointer-events="none"/>
                </g>
                <g id="dirArrow">
                        <path fill="none" stroke="white" stroke-width="1.5" d="M0,-3.0v7 M-2.5,-0.5L0,-3.0L2.5,-0.5"/>
                </g>
               <g id="resetDef">
                       <use xlink:href="#rim2" fill="#404040">
                               <set attributeName="fill" to="#808080" begin="reset.mouseover" end="reset.mouseout"/>
                       </use>
               </g>
        </defs>

<script type="text/javascript">
var viewWidth = 924;
var viewHeight = 204;
var sectionId = 'dynsection-7';
</script>
<script xlink:href="svgpan.js"/>
<svg id="graph" class="graph">
<g id="viewport">
<title>mom_document::doc_param_char</title>
<polygon fill="white" stroke="none" points="-4,4 -4,-199.5 920,-199.5 920,4 -4,4"/>
<!-- Node56 -->
<g id="node1" class="node"><title>Node56</title>
<polygon fill="#bfbfbf" stroke="black" points="0,-88.5 0,-107.5 164,-107.5 164,-88.5 0,-88.5"/>
<text text-anchor="middle" x="82" y="-95.5" font-family="Helvetica,sans-Serif" font-size="10.00">mom_document::doc_param_char</text>
</g>
<!-- Node57 -->
<g id="node2" class="node"><title>Node57</title>
<g id="a_node2"><a xlink:href="namespacemom__document.html#aadc9c21a3f71a85107454b8080d6ec5c" target="_top" xlink:title="mom_document::define\l_string">
<polygon fill="white" stroke="black" points="235.5,-165 235.5,-195 354.5,-195 354.5,-165 235.5,-165"/>
<text text-anchor="start" x="243.5" y="-183" font-family="Helvetica,sans-Serif" font-size="10.00">mom_document::define</text>
<text text-anchor="middle" x="295" y="-172" font-family="Helvetica,sans-Serif" font-size="10.00">_string</text>
</a>
</g>
</g>
<!-- Node56&#45;&gt;Node57 -->
<g id="edge1" class="edge"><title>Node56&#45;&gt;Node57</title>
<path fill="none" stroke="midnightblue" d="M102.598,-107.502C125.617,-118.475 165.098,-136.72 200,-150 210.773,-154.099 222.378,-158.116 233.632,-161.811"/>
<polygon fill="midnightblue" stroke="midnightblue" points="232.81,-165.223 243.402,-164.969 234.963,-158.563 232.81,-165.223"/>
</g>
<!-- Node58 -->
<g id="node3" class="node"><title>Node58</title>
<g id="a_node3"><a xlink:href="namespacemom__error__handler.html#ad5f00a53059c72fe2332d1436c80ca71" target="_top" xlink:title="mom_error_handler::\lis_root_pe">
<polygon fill="white" stroke="black" points="810,-99 810,-129 916,-129 916,-99 810,-99"/>
<text text-anchor="start" x="818" y="-117" font-family="Helvetica,sans-Serif" font-size="10.00">mom_error_handler::</text>
<text text-anchor="middle" x="863" y="-106" font-family="Helvetica,sans-Serif" font-size="10.00">is_root_pe</text>
</a>
</g>
</g>
<!-- Node56&#45;&gt;Node58 -->
<g id="edge2" class="edge"><title>Node56&#45;&gt;Node58</title>
<path fill="none" stroke="midnightblue" d="M153.116,-107.512C168.534,-109.29 184.797,-110.925 200,-112 420.068,-127.564 682.315,-120.912 799.755,-116.609"/>
<polygon fill="midnightblue" stroke="midnightblue" points="800.125,-120.098 809.987,-116.227 799.864,-113.103 800.125,-120.098"/>
</g>
<!-- Node59 -->
<g id="node4" class="node"><title>Node59</title>
<g id="a_node4"><a xlink:href="namespacemom__document.html#aa23ed2e58e74e88a71de374685ee11ec" target="_top" xlink:title="mom_document::mesghasbeendocumented">
<polygon fill="white" stroke="black" points="426,-88.5 426,-107.5 632,-107.5 632,-88.5 426,-88.5"/>
<text text-anchor="middle" x="529" y="-95.5" font-family="Helvetica,sans-Serif" font-size="10.00">mom_document::mesghasbeendocumented</text>
</a>
</g>
</g>
<!-- Node56&#45;&gt;Node59 -->
<g id="edge3" class="edge"><title>Node56&#45;&gt;Node59</title>
<path fill="none" stroke="midnightblue" d="M164.102,-98C234.518,-98 337.196,-98 415.544,-98"/>
<polygon fill="midnightblue" stroke="midnightblue" points="415.945,-101.5 425.945,-98 415.945,-94.5001 415.945,-101.5"/>
</g>
<!-- Node61 -->
<g id="node6" class="node"><title>Node61</title>
<g id="a_node6"><a xlink:href="namespacemom__document.html#aab976b6c6c9c01833438d217fca228a4" target="_top" xlink:title="mom_document::open\l_doc_file">
<polygon fill="white" stroke="black" points="238.5,-39 238.5,-69 351.5,-69 351.5,-39 238.5,-39"/>
<text text-anchor="start" x="246.5" y="-57" font-family="Helvetica,sans-Serif" font-size="10.00">mom_document::open</text>
<text text-anchor="middle" x="295" y="-46" font-family="Helvetica,sans-Serif" font-size="10.00">_doc_file</text>
</a>
</g>
</g>
<!-- Node56&#45;&gt;Node61 -->
<g id="edge6" class="edge"><title>Node56&#45;&gt;Node61</title>
<path fill="none" stroke="midnightblue" d="M128.784,-88.4527C157.892,-82.3827 196.043,-74.427 228.35,-67.6901"/>
<polygon fill="midnightblue" stroke="midnightblue" points="229.097,-71.1097 238.172,-65.6419 227.668,-64.2571 229.097,-71.1097"/>
</g>
<!-- Node63 -->
<g id="node8" class="node"><title>Node63</title>
<g id="a_node8"><a xlink:href="namespacemom__document.html#a22d84550b1affd1037328c5117496a65" target="_top" xlink:title="mom_document::writemessageanddesc">
<polygon fill="white" stroke="black" points="200,-0.5 200,-19.5 390,-19.5 390,-0.5 200,-0.5"/>
<text text-anchor="middle" x="295" y="-7.5" font-family="Helvetica,sans-Serif" font-size="10.00">mom_document::writemessageanddesc</text>
</a>
</g>
</g>
<!-- Node56&#45;&gt;Node63 -->
<g id="edge10" class="edge"><title>Node56&#45;&gt;Node63</title>
<path fill="none" stroke="midnightblue" d="M95.9445,-88.3825C116.768,-73.3836 159.486,-44.5345 200,-29 206.972,-26.3267 214.386,-24.007 221.873,-21.9989"/>
<polygon fill="midnightblue" stroke="midnightblue" points="222.875,-25.3563 231.727,-19.5352 221.177,-18.5654 222.875,-25.3563"/>
</g>
<!-- Node60 -->
<g id="node5" class="node"><title>Node60</title>
<g id="a_node5"><a xlink:href="namespacemom__error__handler.html#a460cfb79a06c29fc249952c2a3710d67" target="_top" xlink:title="mom_error_handler::\lmom_error">
<polygon fill="white" stroke="black" points="668,-61 668,-91 774,-91 774,-61 668,-61"/>
<text text-anchor="start" x="676" y="-79" font-family="Helvetica,sans-Serif" font-size="10.00">mom_error_handler::</text>
<text text-anchor="middle" x="721" y="-68" font-family="Helvetica,sans-Serif" font-size="10.00">mom_error</text>
</a>
</g>
</g>
<!-- Node59&#45;&gt;Node60 -->
<g id="edge4" class="edge"><title>Node59&#45;&gt;Node60</title>
<path fill="none" stroke="midnightblue" d="M612.232,-88.4784C627.404,-86.7216 643.019,-84.9136 657.49,-83.238"/>
<polygon fill="midnightblue" stroke="midnightblue" points="658.272,-86.6709 667.803,-82.0439 657.467,-79.7174 658.272,-86.6709"/>
</g>
<!-- Node60&#45;&gt;Node58 -->
<g id="edge5" class="edge"><title>Node60&#45;&gt;Node58</title>
<path fill="none" stroke="midnightblue" d="M774.131,-90.1498C782.604,-92.4495 791.451,-94.8509 800.129,-97.2063"/>
<polygon fill="midnightblue" stroke="midnightblue" points="799.258,-100.597 809.826,-99.8384 801.092,-93.841 799.258,-100.597"/>
</g>
<!-- Node61&#45;&gt;Node60 -->
<g id="edge9" class="edge"><title>Node61&#45;&gt;Node60</title>
<path fill="none" stroke="midnightblue" d="M351.867,-56.8987C430.982,-61.0038 575.196,-68.4866 657.685,-72.7667"/>
<polygon fill="midnightblue" stroke="midnightblue" points="657.507,-76.2621 667.675,-73.285 657.87,-69.2715 657.507,-76.2621"/>
</g>
<!-- Node62 -->
<g id="node7" class="node"><title>Node62</title>
<g id="a_node7"><a xlink:href="namespacemom__document.html#a5f2661445a72a7d0f774677e91366db5" target="_top" xlink:title="mom_document::find\l_unused_unit_number">
<polygon fill="white" stroke="black" points="473,-1 473,-31 585,-31 585,-1 473,-1"/>
<text text-anchor="start" x="481" y="-19" font-family="Helvetica,sans-Serif" font-size="10.00">mom_document::find</text>
<text text-anchor="middle" x="529" y="-8" font-family="Helvetica,sans-Serif" font-size="10.00">_unused_unit_number</text>
</a>
</g>
</g>
<!-- Node61&#45;&gt;Node62 -->
<g id="edge7" class="edge"><title>Node61&#45;&gt;Node62</title>
<path fill="none" stroke="midnightblue" d="M351.57,-44.8981C385,-39.4224 427.721,-32.425 462.751,-26.6873"/>
<polygon fill="midnightblue" stroke="midnightblue" points="463.581,-30.0981 472.884,-25.0277 462.449,-23.1902 463.581,-30.0981"/>
</g>
<!-- Node62&#45;&gt;Node60 -->
<g id="edge8" class="edge"><title>Node62&#45;&gt;Node60</title>
<path fill="none" stroke="midnightblue" d="M582.807,-31.0676C598.666,-35.7174 616.078,-40.947 632,-46 643.539,-49.6619 655.87,-53.7531 667.538,-57.7077"/>
<polygon fill="midnightblue" stroke="midnightblue" points="666.557,-61.0711 677.152,-60.985 668.816,-54.4455 666.557,-61.0711"/>
</g>
</g>
</svg>
        <g id="navigator" transform="translate(0 0)" fill="#404254">
                <rect fill="#f2f5e9" fill-opacity="0.5" stroke="#606060" stroke-width=".5" x="0" y="0" width="60" height="60"/>
                <use id="zoomplus" xlink:href="#zoomPlus" x="17" y="9" onmousedown="handleZoom(evt,'in')"/>
                <use id="zoomminus" xlink:href="#zoomMin" x="42" y="9" onmousedown="handleZoom(evt,'out')"/>
                <use id="reset" xlink:href="#resetDef" x="30" y="36" onmousedown="handleReset()"/>
                <g id="arrowUp" xlink:href="#dirArrow" transform="translate(30 24)" onmousedown="handlePan(0,-1)">
                  <use xlink:href="#rim" fill="#404040">
                        <set attributeName="fill" to="#808080" begin="arrowUp.mouseover" end="arrowUp.mouseout"/>
                  </use>
                  <path fill="none" stroke="white" stroke-width="1.5" d="M0,-3.0v7 M-2.5,-0.5L0,-3.0L2.5,-0.5"/>
                </g>
                <g id="arrowRight" xlink:href="#dirArrow" transform="rotate(90) translate(36 -43)" onmousedown="handlePan(1,0)">
                  <use xlink:href="#rim" fill="#404040">
                        <set attributeName="fill" to="#808080" begin="arrowRight.mouseover" end="arrowRight.mouseout"/>
                  </use>
                  <path fill="none" stroke="white" stroke-width="1.5" d="M0,-3.0v7 M-2.5,-0.5L0,-3.0L2.5,-0.5"/>
                </g>
                <g id="arrowDown" xlink:href="#dirArrow" transform="rotate(180) translate(-30 -48)" onmousedown="handlePan(0,1)">
                  <use xlink:href="#rim" fill="#404040">
                        <set attributeName="fill" to="#808080" begin="arrowDown.mouseover" end="arrowDown.mouseout"/>
                  </use>
                  <path fill="none" stroke="white" stroke-width="1.5" d="M0,-3.0v7 M-2.5,-0.5L0,-3.0L2.5,-0.5"/>
                </g>
                <g id="arrowLeft" xlink:href="#dirArrow" transform="rotate(270) translate(-36 17)" onmousedown="handlePan(-1,0)">
                  <use xlink:href="#rim" fill="#404040">
                        <set attributeName="fill" to="#808080" begin="arrowLeft.mouseover" end="arrowLeft.mouseout"/>
                  </use>
                  <path fill="none" stroke="white" stroke-width="1.5" d="M0,-3.0v7 M-2.5,-0.5L0,-3.0L2.5,-0.5"/>
                </g>
        </g>
        <svg viewBox="0 0 15 15" width="100%" height="30px" preserveAspectRatio="xMaxYMin meet">
         <g id="arrow_out" transform="scale(0.3 0.3)">
          <a xlink:href="namespacemom__document_aeef6510f5e76c23d9a9a9c587f62d4d9_cgraph_org.svg" target="_base">
           <rect id="button" ry="5" rx="5" y="6" x="6" height="38" width="38"
                fill="#f2f5e9" fill-opacity="0.5" stroke="#606060" stroke-width="1.0"/>
           <path id="arrow"
             d="M 11.500037,31.436501 C 11.940474,20.09759 22.043105,11.32322 32.158766,21.979434 L 37.068811,17.246167 C 37.068811,17.246167 37.088388,32 37.088388,32 L 22.160133,31.978069 C 22.160133,31.978069 26.997745,27.140456 26.997745,27.140456 C 18.528582,18.264221 13.291696,25.230495 11.500037,31.436501 z"
             style="fill:#404040;"/>
          </a>
         </g>
        </svg>
</svg>
