<?xml version="1.0" encoding="UTF-8" standalone="no"?>
<!DOCTYPE svg PUBLIC "-//W3C//DTD SVG 1.1//EN"
 "http://www.w3.org/Graphics/SVG/1.1/DTD/svg11.dtd">
<!-- Generated by graphviz version 2.38.0 (20140413.2041)
 -->
<!-- Title: mom_document::find_unused_unit_number Pages: 1 -->
<svg width="1472pt" height="569pt"
 viewBox="0.00 0.00 1472.00 569.00" xmlns="http://www.w3.org/2000/svg" xmlns:xlink="http://www.w3.org/1999/xlink">
<g id="graph0" class="graph" transform="scale(1 1) rotate(0) translate(4 565)">
<title>mom_document::find_unused_unit_number</title>
<polygon fill="white" stroke="none" points="-4,4 -4,-565 1468,-565 1468,4 -4,4"/>
<!-- Node153 -->
<g id="node1" class="node"><title>Node153</title>
<polygon fill="#bfbfbf" stroke="black" points="0,-245 0,-275 112,-275 112,-245 0,-245"/>
<text text-anchor="start" x="8" y="-263" font-family="Helvetica,sans-Serif" font-size="10.00">mom_document::find</text>
<text text-anchor="middle" x="56" y="-252" font-family="Helvetica,sans-Serif" font-size="10.00">_unused_unit_number</text>
</g>
<!-- Node154 -->
<g id="node2" class="node"><title>Node154</title>
<g id="a_node2"><a xlink:href="namespacemom__document.html#aab976b6c6c9c01833438d217fca228a4" target="_top" xlink:title="mom_document::open\l_doc_file">
<polygon fill="white" stroke="black" points="148,-245 148,-275 261,-275 261,-245 148,-245"/>
<text text-anchor="start" x="156" y="-263" font-family="Helvetica,sans-Serif" font-size="10.00">mom_document::open</text>
<text text-anchor="middle" x="204.5" y="-252" font-family="Helvetica,sans-Serif" font-size="10.00">_doc_file</text>
</a>
</g>
</g>
<!-- Node153&#45;&gt;Node154 -->
<g id="edge1" class="edge"><title>Node153&#45;&gt;Node154</title>
<path fill="none" stroke="midnightblue" d="M122.49,-260C130.855,-260 139.355,-260 147.55,-260"/>
<polygon fill="midnightblue" stroke="midnightblue" points="122.385,-256.5 112.385,-260 122.385,-263.5 122.385,-256.5"/>
</g>
<!-- Node155 -->
<g id="node3" class="node"><title>Node155</title>
<g id="a_node3"><a xlink:href="namespacemom__document.html#ab6438889d6e98b10d8c42d5ff6b00ef8" target="_top" xlink:title="mom_document::doc_param_none">
<polygon fill="white" stroke="black" points="297,-541.5 297,-560.5 464,-560.5 464,-541.5 297,-541.5"/>
<text text-anchor="middle" x="380.5" y="-548.5" font-family="Helvetica,sans-Serif" font-size="10.00">mom_document::doc_param_none</text>
</a>
</g>
</g>
<!-- Node154&#45;&gt;Node155 -->
<g id="edge2" class="edge"><title>Node154&#45;&gt;Node155</title>
<path fill="none" stroke="midnightblue" d="M206.191,-285.084C209.094,-338.84 223.783,-465.638 297,-532 301.247,-535.85 306.115,-538.967 311.316,-541.486"/>
<polygon fill="midnightblue" stroke="midnightblue" points="209.686,-284.891 205.744,-275.057 202.693,-285.203 209.686,-284.891"/>
</g>
<!-- Node156 -->
<g id="node4" class="node"><title>Node156</title>
<g id="a_node4"><a xlink:href="namespacemom__document.html#ae29b615a7c566d9da64ade24864805b2" target="_top" xlink:title="mom_document::doc_param\l_logical">
<polygon fill="white" stroke="black" points="310.5,-492 310.5,-522 450.5,-522 450.5,-492 310.5,-492"/>
<text text-anchor="start" x="318.5" y="-510" font-family="Helvetica,sans-Serif" font-size="10.00">mom_document::doc_param</text>
<text text-anchor="middle" x="380.5" y="-499" font-family="Helvetica,sans-Serif" font-size="10.00">_logical</text>
</a>
</g>
</g>
<!-- Node154&#45;&gt;Node156 -->
<g id="edge3" class="edge"><title>Node154&#45;&gt;Node156</title>
<path fill="none" stroke="midnightblue" d="M208.634,-285.033C215.737,-331.077 237.362,-429.385 297,-483 300.993,-486.59 305.495,-489.645 310.283,-492.245"/>
<polygon fill="midnightblue" stroke="midnightblue" points="212.081,-284.417 207.193,-275.017 205.152,-285.413 212.081,-284.417"/>
</g>
<!-- Node157 -->
<g id="node5" class="node"><title>Node157</title>
<g id="a_node5"><a xlink:href="namespacemom__document.html#a9792937a5eb8f9a2a58c7b816520470d" target="_top" xlink:title="mom_document::doc_param\l_logical_array">
<polygon fill="white" stroke="black" points="310.5,-443 310.5,-473 450.5,-473 450.5,-443 310.5,-443"/>
<text text-anchor="start" x="318.5" y="-461" font-family="Helvetica,sans-Serif" font-size="10.00">mom_document::doc_param</text>
<text text-anchor="middle" x="380.5" y="-450" font-family="Helvetica,sans-Serif" font-size="10.00">_logical_array</text>
</a>
</g>
</g>
<!-- Node154&#45;&gt;Node157 -->
<g id="edge4" class="edge"><title>Node154&#45;&gt;Node157</title>
<path fill="none" stroke="midnightblue" d="M211.906,-284.648C222.931,-322.191 249.066,-393.497 297,-433 301.735,-436.902 307.07,-440.196 312.691,-442.976"/>
<polygon fill="midnightblue" stroke="midnightblue" points="215.271,-283.686 209.192,-275.009 208.533,-285.584 215.271,-283.686"/>
</g>
<!-- Node158 -->
<g id="node6" class="node"><title>Node158</title>
<g id="a_node6"><a xlink:href="namespacemom__document.html#a14995c64ee277f19aa10b957431aa4c1" target="_top" xlink:title="mom_document::doc_param_int">
<polygon fill="white" stroke="black" points="302.5,-404.5 302.5,-423.5 458.5,-423.5 458.5,-404.5 302.5,-404.5"/>
<text text-anchor="middle" x="380.5" y="-411.5" font-family="Helvetica,sans-Serif" font-size="10.00">mom_document::doc_param_int</text>
</a>
</g>
</g>
<!-- Node154&#45;&gt;Node158 -->
<g id="edge5" class="edge"><title>Node154&#45;&gt;Node158</title>
<path fill="none" stroke="midnightblue" d="M215.494,-284.907C229.172,-315.694 256.71,-367.392 297,-395 302.698,-398.905 309.085,-402.016 315.716,-404.494"/>
<polygon fill="midnightblue" stroke="midnightblue" points="218.546,-283.143 211.389,-275.332 212.113,-285.902 218.546,-283.143"/>
</g>
<!-- Node159 -->
<g id="node7" class="node"><title>Node159</title>
<g id="a_node7"><a xlink:href="namespacemom__document.html#a3ce71018037d66ba8f51d860bedbdcbb" target="_top" xlink:title="mom_document::doc_param\l_int_array">
<polygon fill="white" stroke="black" points="310.5,-355 310.5,-385 450.5,-385 450.5,-355 310.5,-355"/>
<text text-anchor="start" x="318.5" y="-373" font-family="Helvetica,sans-Serif" font-size="10.00">mom_document::doc_param</text>
<text text-anchor="middle" x="380.5" y="-362" font-family="Helvetica,sans-Serif" font-size="10.00">_int_array</text>
</a>
</g>
</g>
<!-- Node154&#45;&gt;Node159 -->
<g id="edge6" class="edge"><title>Node154&#45;&gt;Node159</title>
<path fill="none" stroke="midnightblue" d="M224.596,-282.796C241.745,-301.917 268.54,-328.652 297,-345 303.618,-348.802 310.874,-352.081 318.25,-354.895"/>
<polygon fill="midnightblue" stroke="midnightblue" points="227.087,-280.328 217.861,-275.119 221.825,-284.944 227.087,-280.328"/>
</g>
<!-- Node160 -->
<g id="node8" class="node"><title>Node160</title>
<g id="a_node8"><a xlink:href="namespacemom__document.html#aae79ba23b83e7e2be3dcc46f50ee0f69" target="_top" xlink:title="mom_document::doc_param_real">
<polygon fill="white" stroke="black" points="300,-316.5 300,-335.5 461,-335.5 461,-316.5 300,-316.5"/>
<text text-anchor="middle" x="380.5" y="-323.5" font-family="Helvetica,sans-Serif" font-size="10.00">mom_document::doc_param_real</text>
</a>
</g>
</g>
<!-- Node154&#45;&gt;Node160 -->
<g id="edge7" class="edge"><title>Node154&#45;&gt;Node160</title>
<path fill="none" stroke="midnightblue" d="M239.655,-280.111C256.477,-289.343 277.328,-299.81 297,-307 307.077,-310.683 318.116,-313.811 328.748,-316.401"/>
<polygon fill="midnightblue" stroke="midnightblue" points="241.194,-276.962 230.757,-275.138 237.779,-283.072 241.194,-276.962"/>
</g>
<!-- Node161 -->
<g id="node9" class="node"><title>Node161</title>
<g id="a_node9"><a xlink:href="namespacemom__document.html#a09ce71cb5106c9abb604c07b98e62863" target="_top" xlink:title="mom_document::doc_param\l_real_array">
<polygon fill="white" stroke="black" points="310.5,-267 310.5,-297 450.5,-297 450.5,-267 310.5,-267"/>
<text text-anchor="start" x="318.5" y="-285" font-family="Helvetica,sans-Serif" font-size="10.00">mom_document::doc_param</text>
<text text-anchor="middle" x="380.5" y="-274" font-family="Helvetica,sans-Serif" font-size="10.00">_real_array</text>
</a>
</g>
</g>
<!-- Node154&#45;&gt;Node161 -->
<g id="edge8" class="edge"><title>Node154&#45;&gt;Node161</title>
<path fill="none" stroke="midnightblue" d="M271.165,-268.303C284.005,-269.926 297.505,-271.633 310.451,-273.27"/>
<polygon fill="midnightblue" stroke="midnightblue" points="271.393,-264.804 261.033,-267.021 270.515,-271.748 271.393,-264.804"/>
</g>
<!-- Node162 -->
<g id="node10" class="node"><title>Node162</title>
<g id="a_node10"><a xlink:href="namespacemom__document.html#aeef6510f5e76c23d9a9a9c587f62d4d9" target="_top" xlink:title="mom_document::doc_param_char">
<polygon fill="white" stroke="black" points="298.5,-228.5 298.5,-247.5 462.5,-247.5 462.5,-228.5 298.5,-228.5"/>
<text text-anchor="middle" x="380.5" y="-235.5" font-family="Helvetica,sans-Serif" font-size="10.00">mom_document::doc_param_char</text>
</a>
</g>
</g>
<!-- Node154&#45;&gt;Node162 -->
<g id="edge9" class="edge"><title>Node154&#45;&gt;Node162</title>
<path fill="none" stroke="midnightblue" d="M271.194,-251.694C281.965,-250.332 293.201,-248.911 304.183,-247.523"/>
<polygon fill="midnightblue" stroke="midnightblue" points="270.515,-248.252 261.033,-252.979 271.393,-255.196 270.515,-248.252"/>
</g>
<!-- Node163 -->
<g id="node11" class="node"><title>Node163</title>
<g id="a_node11"><a xlink:href="namespacemom__document.html#ada55c6a65638e04d2b550f419aafa929" target="_top" xlink:title="mom_document::doc_openblock">
<polygon fill="white" stroke="black" points="301.5,-190.5 301.5,-209.5 459.5,-209.5 459.5,-190.5 301.5,-190.5"/>
<text text-anchor="middle" x="380.5" y="-197.5" font-family="Helvetica,sans-Serif" font-size="10.00">mom_document::doc_openblock</text>
</a>
</g>
</g>
<!-- Node154&#45;&gt;Node163 -->
<g id="edge10" class="edge"><title>Node154&#45;&gt;Node163</title>
<path fill="none" stroke="midnightblue" d="M244.462,-240.523C260.46,-233.061 279.342,-224.926 297,-219 307.729,-215.399 319.468,-212.245 330.638,-209.596"/>
<polygon fill="midnightblue" stroke="midnightblue" points="242.943,-237.37 235.407,-244.817 245.943,-243.695 242.943,-237.37"/>
</g>
<!-- Node172 -->
<g id="node20" class="node"><title>Node172</title>
<g id="a_node20"><a xlink:href="namespacemom__document.html#a058916aee316efa7a6484b3bb1d3f3df" target="_top" xlink:title="mom_document::doc_closeblock">
<polygon fill="white" stroke="black" points="300.5,-152.5 300.5,-171.5 460.5,-171.5 460.5,-152.5 300.5,-152.5"/>
<text text-anchor="middle" x="380.5" y="-159.5" font-family="Helvetica,sans-Serif" font-size="10.00">mom_document::doc_closeblock</text>
</a>
</g>
</g>
<!-- Node154&#45;&gt;Node172 -->
<g id="edge19" class="edge"><title>Node154&#45;&gt;Node172</title>
<path fill="none" stroke="midnightblue" d="M226.025,-236.972C243.249,-219.067 269.405,-194.992 297,-181 304.603,-177.145 312.996,-174.061 321.43,-171.597"/>
<polygon fill="midnightblue" stroke="midnightblue" points="223.058,-235.019 218.767,-244.706 228.163,-239.81 223.058,-235.019"/>
</g>
<!-- Node174 -->
<g id="node22" class="node"><title>Node174</title>
<g id="a_node22"><a xlink:href="namespacemom__document.html#a1fe9f578d46ecf80dc2dbd72cea15b47" target="_top" xlink:title="mom_document::doc_param_time">
<polygon fill="white" stroke="black" points="298.5,-114.5 298.5,-133.5 462.5,-133.5 462.5,-114.5 298.5,-114.5"/>
<text text-anchor="middle" x="380.5" y="-121.5" font-family="Helvetica,sans-Serif" font-size="10.00">mom_document::doc_param_time</text>
</a>
</g>
</g>
<!-- Node154&#45;&gt;Node174 -->
<g id="edge24" class="edge"><title>Node154&#45;&gt;Node174</title>
<path fill="none" stroke="midnightblue" d="M217.937,-235.572C232.952,-208.633 260.768,-166.057 297,-143 303.076,-139.133 309.849,-136.051 316.828,-133.594"/>
<polygon fill="midnightblue" stroke="midnightblue" points="214.666,-234.263 212.992,-244.725 220.825,-237.59 214.666,-234.263"/>
</g>
<!-- Node175 -->
<g id="node23" class="node"><title>Node175</title>
<g id="a_node23"><a xlink:href="namespacemom__document.html#a29ab772c411aedcc137942020c1ee042" target="_top" xlink:title="mom_document::doc_module">
<polygon fill="white" stroke="black" points="308,-76.5 308,-95.5 453,-95.5 453,-76.5 308,-76.5"/>
<text text-anchor="middle" x="380.5" y="-83.5" font-family="Helvetica,sans-Serif" font-size="10.00">mom_document::doc_module</text>
</a>
</g>
</g>
<!-- Node154&#45;&gt;Node175 -->
<g id="edge25" class="edge"><title>Node154&#45;&gt;Node175</title>
<path fill="none" stroke="midnightblue" d="M213.199,-235.062C225.255,-200.329 251.985,-137.955 297,-105 302.218,-101.18 308.08,-98.1116 314.209,-95.6496"/>
<polygon fill="midnightblue" stroke="midnightblue" points="209.765,-234.297 209.925,-244.891 216.406,-236.509 209.765,-234.297"/>
</g>
<!-- Node176 -->
<g id="node24" class="node"><title>Node176</title>
<g id="a_node24"><a xlink:href="namespacemom__document.html#ab7020ae92729a51ce8915cd1f080bb14" target="_top" xlink:title="mom_document::doc_subroutine">
<polygon fill="white" stroke="black" points="301.5,-38.5 301.5,-57.5 459.5,-57.5 459.5,-38.5 301.5,-38.5"/>
<text text-anchor="middle" x="380.5" y="-45.5" font-family="Helvetica,sans-Serif" font-size="10.00">mom_document::doc_subroutine</text>
</a>
</g>
</g>
<!-- Node154&#45;&gt;Node176 -->
<g id="edge26" class="edge"><title>Node154&#45;&gt;Node176</title>
<path fill="none" stroke="midnightblue" d="M210.051,-235.101C218.994,-193.587 242.901,-110.5 297,-67 301.811,-63.1317 307.264,-60.0214 313.018,-57.5243"/>
<polygon fill="midnightblue" stroke="midnightblue" points="206.613,-234.447 208.046,-244.944 213.472,-235.844 206.613,-234.447"/>
</g>
<!-- Node177 -->
<g id="node25" class="node"><title>Node177</title>
<g id="a_node25"><a xlink:href="namespacemom__document.html#a69dd076650308c992b1e19967804902a" target="_top" xlink:title="mom_document::doc_function">
<polygon fill="white" stroke="black" points="306.5,-0.5 306.5,-19.5 454.5,-19.5 454.5,-0.5 306.5,-0.5"/>
<text text-anchor="middle" x="380.5" y="-7.5" font-family="Helvetica,sans-Serif" font-size="10.00">mom_document::doc_function</text>
</a>
</g>
</g>
<!-- Node154&#45;&gt;Node177 -->
<g id="edge27" class="edge"><title>Node154&#45;&gt;Node177</title>
<path fill="none" stroke="midnightblue" d="M207.929,-234.752C213.926,-186.97 233.875,-83.2579 297,-29 301.458,-25.1678 306.538,-22.0692 311.935,-19.5687"/>
<polygon fill="midnightblue" stroke="midnightblue" points="204.433,-234.516 206.768,-244.85 211.387,-235.316 204.433,-234.516"/>
</g>
<!-- Node164 -->
<g id="node12" class="node"><title>Node164</title>
<g id="a_node12"><a xlink:href="namespacemom__file__parser.html#a363628fcd8540de780ebeacf24012229" target="_top" xlink:title="mom_file_parser::openparameterblock">
<polygon fill="white" stroke="black" points="501.5,-190.5 501.5,-209.5 683.5,-209.5 683.5,-190.5 501.5,-190.5"/>
<text text-anchor="middle" x="592.5" y="-197.5" font-family="Helvetica,sans-Serif" font-size="10.00">mom_file_parser::openparameterblock</text>
</a>
</g>
</g>
<!-- Node163&#45;&gt;Node164 -->
<g id="edge11" class="edge"><title>Node163&#45;&gt;Node164</title>
<path fill="none" stroke="midnightblue" d="M469.946,-200C480.283,-200 490.841,-200 501.203,-200"/>
<polygon fill="midnightblue" stroke="midnightblue" points="469.696,-196.5 459.696,-200 469.696,-203.5 469.696,-196.5"/>
</g>
<!-- Node165 -->
<g id="node13" class="node"><title>Node165</title>
<g id="a_node13"><a xlink:href="namespacemom__diffconvection.html#ac36d9d7fd69e4422e7de01242094ff34" target="_top" xlink:title="mom_diffconvection\l::diffconvection_init">
<polygon fill="white" stroke="black" points="739,-210 739,-240 843,-240 843,-210 739,-210"/>
<text text-anchor="start" x="747" y="-228" font-family="Helvetica,sans-Serif" font-size="10.00">mom_diffconvection</text>
<text text-anchor="middle" x="791" y="-217" font-family="Helvetica,sans-Serif" font-size="10.00">::diffconvection_init</text>
</a>
</g>
</g>
<!-- Node164&#45;&gt;Node165 -->
<g id="edge12" class="edge"><title>Node164&#45;&gt;Node165</title>
<path fill="none" stroke="midnightblue" d="M678.374,-210.798C698.961,-213.417 720.345,-216.138 738.822,-218.489"/>
<polygon fill="midnightblue" stroke="midnightblue" points="678.711,-207.313 668.349,-209.523 677.827,-214.257 678.711,-207.313"/>
</g>
<!-- Node166 -->
<g id="node14" class="node"><title>Node166</title>
<g id="a_node14"><a xlink:href="namespacemom__kpp.html#a9c834424b6e067e280928db3700ec77e" target="_top" xlink:title="Initialize the CVmix KPP module and set up diagnostics Returns True if KPP is to be used...">
<polygon fill="white" stroke="black" points="741.5,-171.5 741.5,-190.5 840.5,-190.5 840.5,-171.5 741.5,-171.5"/>
<text text-anchor="middle" x="791" y="-178.5" font-family="Helvetica,sans-Serif" font-size="10.00">mom_kpp::kpp_init</text>
</a>
</g>
</g>
<!-- Node164&#45;&gt;Node166 -->
<g id="edge13" class="edge"><title>Node164&#45;&gt;Node166</title>
<path fill="none" stroke="midnightblue" d="M693.969,-190.285C710.475,-188.689 726.896,-187.102 741.37,-185.702"/>
<polygon fill="midnightblue" stroke="midnightblue" points="693.315,-186.832 683.698,-191.279 693.989,-193.8 693.315,-186.832"/>
</g>
<!-- Node167 -->
<g id="node15" class="node"><title>Node167</title>
<g id="a_node15"><a xlink:href="namespacebaroclinic__zone__initialization.html#a8a7c5063ad937041a281c8c9dd1465ec" target="_top" xlink:title="Reads the parameters unique to this module. ">
<polygon fill="white" stroke="black" points="721,-122 721,-152 861,-152 861,-122 721,-122"/>
<text text-anchor="start" x="729" y="-140" font-family="Helvetica,sans-Serif" font-size="10.00">baroclinic_zone_initialization</text>
<text text-anchor="middle" x="791" y="-129" font-family="Helvetica,sans-Serif" font-size="10.00">::bcz_params</text>
</a>
</g>
</g>
<!-- Node164&#45;&gt;Node167 -->
<g id="edge14" class="edge"><title>Node164&#45;&gt;Node167</title>
<path fill="none" stroke="midnightblue" d="M661.526,-188.105C669.532,-186.052 677.511,-183.693 685,-181 702.025,-174.878 704.456,-169.321 721,-162 728.806,-158.546 737.253,-155.187 745.47,-152.11"/>
<polygon fill="midnightblue" stroke="midnightblue" points="660.677,-184.709 651.779,-190.46 662.321,-191.514 660.677,-184.709"/>
</g>
<!-- Node168 -->
<g id="node16" class="node"><title>Node168</title>
<g id="a_node16"><a xlink:href="namespacebaroclinic__zone__initialization.html#aa5348a29c9f838cd0f61f50ff3148568" target="_top" xlink:title="Initialization of temperature and salinity with the baroclinic zone initial conditions. ">
<polygon fill="white" stroke="black" points="897,-116.5 897,-157.5 1062,-157.5 1062,-116.5 897,-116.5"/>
<text text-anchor="start" x="905" y="-145.5" font-family="Helvetica,sans-Serif" font-size="10.00">baroclinic_zone_initialization</text>
<text text-anchor="start" x="905" y="-134.5" font-family="Helvetica,sans-Serif" font-size="10.00">::baroclinic_zone_init_temperature</text>
<text text-anchor="middle" x="979.5" y="-123.5" font-family="Helvetica,sans-Serif" font-size="10.00">_salinity</text>
</a>
</g>
</g>
<!-- Node167&#45;&gt;Node168 -->
<g id="edge15" class="edge"><title>Node167&#45;&gt;Node168</title>
<path fill="none" stroke="midnightblue" d="M871.364,-137C879.791,-137 888.373,-137 896.826,-137"/>
<polygon fill="midnightblue" stroke="midnightblue" points="871.181,-133.5 861.181,-137 871.181,-140.5 871.181,-133.5"/>
</g>
<!-- Node169 -->
<g id="node17" class="node"><title>Node169</title>
<g id="a_node17"><a xlink:href="namespacemom__state__initialization.html#af4e854627c6572332ba3fd895f169321" target="_top" xlink:title="mom_state_initialization\l::mom_initialize_state">
<polygon fill="white" stroke="black" points="1098,-122 1098,-152 1220,-152 1220,-122 1098,-122"/>
<text text-anchor="start" x="1106" y="-140" font-family="Helvetica,sans-Serif" font-size="10.00">mom_state_initialization</text>
<text text-anchor="middle" x="1159" y="-129" font-family="Helvetica,sans-Serif" font-size="10.00">::mom_initialize_state</text>
</a>
</g>
</g>
<!-- Node168&#45;&gt;Node169 -->
<g id="edge16" class="edge"><title>Node168&#45;&gt;Node169</title>
<path fill="none" stroke="midnightblue" d="M1072.39,-137C1081.04,-137 1089.65,-137 1097.9,-137"/>
<polygon fill="midnightblue" stroke="midnightblue" points="1072.24,-133.5 1062.24,-137 1072.24,-140.5 1072.24,-133.5"/>
</g>
<!-- Node170 -->
<g id="node18" class="node"><title>Node170</title>
<g id="a_node18"><a xlink:href="namespacemom.html#a0be2869fef30e1e0604facfe1b41555d" target="_top" xlink:title="This subroutine initializes MOM. ">
<polygon fill="white" stroke="black" points="1256,-127.5 1256,-146.5 1363,-146.5 1363,-127.5 1256,-127.5"/>
<text text-anchor="middle" x="1309.5" y="-134.5" font-family="Helvetica,sans-Serif" font-size="10.00">mom::initialize_mom</text>
</a>
</g>
</g>
<!-- Node169&#45;&gt;Node170 -->
<g id="edge17" class="edge"><title>Node169&#45;&gt;Node170</title>
<path fill="none" stroke="midnightblue" d="M1230.66,-137C1239.12,-137 1247.64,-137 1255.78,-137"/>
<polygon fill="midnightblue" stroke="midnightblue" points="1230.4,-133.5 1220.4,-137 1230.4,-140.5 1230.4,-133.5"/>
</g>
<!-- Node171 -->
<g id="node19" class="node"><title>Node171</title>
<g id="a_node19"><a xlink:href="MOM__driver_8F90.html#a08fffeb2d8e8acbf9ed4609be6d258c6" target="_top" xlink:title="mom_main">
<polygon fill="white" stroke="black" points="1399,-127.5 1399,-146.5 1464,-146.5 1464,-127.5 1399,-127.5"/>
<text text-anchor="middle" x="1431.5" y="-134.5" font-family="Helvetica,sans-Serif" font-size="10.00">mom_main</text>
</a>
</g>
</g>
<!-- Node170&#45;&gt;Node171 -->
<g id="edge18" class="edge"><title>Node170&#45;&gt;Node171</title>
<path fill="none" stroke="midnightblue" d="M1373.21,-137C1382.13,-137 1390.98,-137 1398.96,-137"/>
<polygon fill="midnightblue" stroke="midnightblue" points="1373.13,-133.5 1363.13,-137 1373.13,-140.5 1373.13,-133.5"/>
</g>
<!-- Node173 -->
<g id="node21" class="node"><title>Node173</title>
<g id="a_node21"><a xlink:href="namespacemom__file__parser.html#a0d01b9a66f5ac12b657c00f1295351bb" target="_top" xlink:title="mom_file_parser::closeparameterblock">
<polygon fill="white" stroke="black" points="500,-152.5 500,-171.5 685,-171.5 685,-152.5 500,-152.5"/>
<text text-anchor="middle" x="592.5" y="-159.5" font-family="Helvetica,sans-Serif" font-size="10.00">mom_file_parser::closeparameterblock</text>
</a>
</g>
</g>
<!-- Node172&#45;&gt;Node173 -->
<g id="edge20" class="edge"><title>Node172&#45;&gt;Node173</title>
<path fill="none" stroke="midnightblue" d="M470.885,-162C480.447,-162 490.187,-162 499.776,-162"/>
<polygon fill="midnightblue" stroke="midnightblue" points="470.593,-158.5 460.593,-162 470.593,-165.5 470.593,-158.5"/>
</g>
<!-- Node173&#45;&gt;Node165 -->
<g id="edge21" class="edge"><title>Node173&#45;&gt;Node165</title>
<path fill="none" stroke="midnightblue" d="M661.526,-173.895C669.532,-175.948 677.511,-178.307 685,-181 702.025,-187.122 704.456,-192.679 721,-200 728.806,-203.454 737.253,-206.813 745.47,-209.89"/>
<polygon fill="midnightblue" stroke="midnightblue" points="662.321,-170.486 651.779,-171.54 660.677,-177.291 662.321,-170.486"/>
</g>
<!-- Node173&#45;&gt;Node166 -->
<g id="edge22" class="edge"><title>Node173&#45;&gt;Node166</title>
<path fill="none" stroke="midnightblue" d="M695.158,-171.83C711.256,-173.386 727.232,-174.931 741.355,-176.296"/>
<polygon fill="midnightblue" stroke="midnightblue" points="695.425,-168.339 685.134,-170.86 694.751,-175.307 695.425,-168.339"/>
</g>
<!-- Node173&#45;&gt;Node167 -->
<g id="edge23" class="edge"><title>Node173&#45;&gt;Node167</title>
<path fill="none" stroke="midnightblue" d="M678.553,-151.179C692.68,-149.382 707.178,-147.537 720.85,-145.798"/>
<polygon fill="midnightblue" stroke="midnightblue" points="677.827,-147.743 668.349,-152.477 678.711,-154.687 677.827,-147.743"/>
</g>
</g>
</svg>
