<?xml version="1.0" encoding="UTF-8" standalone="no"?>
<!DOCTYPE svg PUBLIC "-//W3C//DTD SVG 1.1//EN"
 "http://www.w3.org/Graphics/SVG/1.1/DTD/svg11.dtd">
<!-- Generated by graphviz version 2.38.0 (20140413.2041)
 -->
<!-- Title: mom_diagnostics::mom_diagnostics_init Pages: 1 -->
<!--zoomable 148 -->
<svg id="main" version="1.1" xmlns="http://www.w3.org/2000/svg" xmlns:xlink="http://www.w3.org/1999/xlink" xml:space="preserve" onload="init(evt)">
<style type="text/css"><![CDATA[
.edge:hover path { stroke: red; }
.edge:hover polygon { stroke: red; fill: red; }
]]></style>
<script type="text/javascript"><![CDATA[
var edges = document.getElementsByTagName('g');
if (edges && edges.length) {
  for (var i=0;i<edges.length;i++) {
    if (edges[i].id.substr(0,4)=='edge') {
      edges[i].setAttribute('class','edge');
    }
  }
}
]]></script>
        <defs>
                <circle id="rim" cx="0" cy="0" r="7"/>
                <circle id="rim2" cx="0" cy="0" r="3.5"/>
                <g id="zoomPlus">
                        <use xlink:href="#rim" fill="#404040">
                                <set attributeName="fill" to="#808080" begin="zoomplus.mouseover" end="zoomplus.mouseout"/>
                        </use>
                        <path d="M-4,0h8M0,-4v8" fill="none" stroke="white" stroke-width="1.5" pointer-events="none"/>
                </g>
                <g id="zoomMin">
                        <use xlink:href="#rim" fill="#404040">
                                <set attributeName="fill" to="#808080" begin="zoomminus.mouseover" end="zoomminus.mouseout"/>
                        </use>
                        <path d="M-4,0h8" fill="none" stroke="white" stroke-width="1.5" pointer-events="none"/>
                </g>
                <g id="dirArrow">
                        <path fill="none" stroke="white" stroke-width="1.5" d="M0,-3.0v7 M-2.5,-0.5L0,-3.0L2.5,-0.5"/>
                </g>
               <g id="resetDef">
                       <use xlink:href="#rim2" fill="#404040">
                               <set attributeName="fill" to="#808080" begin="reset.mouseover" end="reset.mouseout"/>
                       </use>
               </g>
        </defs>

<script type="text/javascript">
var viewWidth = 744;
var viewHeight = 148;
var sectionId = 'dynsection-6';
</script>
<script xlink:href="svgpan.js"/>
<svg id="graph" class="graph">
<g id="viewport">
<title>mom_diagnostics::mom_diagnostics_init</title>
<polygon fill="white" stroke="none" points="-4,4 -4,-144 740,-144 740,4 -4,4"/>
<!-- Node59 -->
<g id="node1" class="node"><title>Node59</title>
<polygon fill="#bfbfbf" stroke="black" points="0,-71.5 0,-101.5 121,-101.5 121,-71.5 0,-71.5"/>
<text text-anchor="start" x="8" y="-89.5" font-family="Helvetica,sans-Serif" font-size="10.00">mom_diagnostics::mom</text>
<text text-anchor="middle" x="60.5" y="-78.5" font-family="Helvetica,sans-Serif" font-size="10.00">_diagnostics_init</text>
</g>
<!-- Node60 -->
<g id="node2" class="node"><title>Node60</title>
<g id="a_node2"><a xlink:href="namespacemom__error__handler.html#a460cfb79a06c29fc249952c2a3710d67" target="_top" xlink:title="mom_error_handler::\lmom_error">
<polygon fill="white" stroke="black" points="488,-109.5 488,-139.5 594,-139.5 594,-109.5 488,-109.5"/>
<text text-anchor="start" x="496" y="-127.5" font-family="Helvetica,sans-Serif" font-size="10.00">mom_error_handler::</text>
<text text-anchor="middle" x="541" y="-116.5" font-family="Helvetica,sans-Serif" font-size="10.00">mom_error</text>
</a>
</g>
</g>
<!-- Node59&#45;&gt;Node60 -->
<g id="edge1" class="edge"><title>Node59&#45;&gt;Node60</title>
<path fill="none" stroke="midnightblue" d="M121.152,-101.314C132.983,-103.949 145.347,-106.489 157,-108.5 286.469,-130.841 320.636,-129.739 452,-127.5 460.349,-127.358 469.142,-127.14 477.809,-126.884"/>
<polygon fill="midnightblue" stroke="midnightblue" points="478.005,-130.38 487.891,-126.57 477.787,-123.383 478.005,-130.38"/>
</g>
<!-- Node62 -->
<g id="node4" class="node"><title>Node62</title>
<g id="a_node4"><a xlink:href="namespacemom__diagnostics.html#a09d6bde56531baa237e612627550d124" target="_top" xlink:title="This subroutine registers fields to calculate a diagnostic time derivative. ">
<polygon fill="white" stroke="black" points="321,-87.5 321,-117.5 452,-117.5 452,-87.5 321,-87.5"/>
<text text-anchor="start" x="329" y="-105.5" font-family="Helvetica,sans-Serif" font-size="10.00">mom_diagnostics::register</text>
<text text-anchor="middle" x="386.5" y="-94.5" font-family="Helvetica,sans-Serif" font-size="10.00">_time_deriv</text>
</a>
</g>
</g>
<!-- Node59&#45;&gt;Node62 -->
<g id="edge3" class="edge"><title>Node59&#45;&gt;Node62</title>
<path fill="none" stroke="midnightblue" d="M121.304,-89.4533C174.69,-92.0896 253.103,-95.9619 310.638,-98.8031"/>
<polygon fill="midnightblue" stroke="midnightblue" points="310.605,-102.306 320.766,-99.3033 310.951,-95.3142 310.605,-102.306"/>
</g>
<!-- Node63 -->
<g id="node5" class="node"><title>Node63</title>
<g id="a_node5"><a xlink:href="namespacemom__diagnostics.html#a90a92410576d955e89d2aa4e3f6d7402" target="_top" xlink:title="This subroutine sets up diagnostics upon which other diagnostics depend. ">
<polygon fill="white" stroke="black" points="160,-49.5 160,-79.5 282,-79.5 282,-49.5 160,-49.5"/>
<text text-anchor="start" x="168" y="-67.5" font-family="Helvetica,sans-Serif" font-size="10.00">mom_diagnostics::set</text>
<text text-anchor="middle" x="221" y="-56.5" font-family="Helvetica,sans-Serif" font-size="10.00">_dependent_diagnostics</text>
</a>
</g>
</g>
<!-- Node59&#45;&gt;Node63 -->
<g id="edge5" class="edge"><title>Node59&#45;&gt;Node63</title>
<path fill="none" stroke="midnightblue" d="M121.422,-78.1827C130.693,-76.896 140.339,-75.5571 149.81,-74.2424"/>
<polygon fill="midnightblue" stroke="midnightblue" points="150.569,-77.6707 159.993,-72.829 149.607,-70.7372 150.569,-77.6707"/>
</g>
<!-- Node64 -->
<g id="node6" class="node"><title>Node64</title>
<g id="a_node6"><a xlink:href="namespacemom__wave__speed.html#a46e21529ec8098b0b19053afa133b971" target="_top" xlink:title="Initialize control structure for MOM_wave_speed. ">
<polygon fill="white" stroke="black" points="157,-0.5 157,-30.5 285,-30.5 285,-0.5 157,-0.5"/>
<text text-anchor="start" x="165" y="-18.5" font-family="Helvetica,sans-Serif" font-size="10.00">mom_wave_speed::wave</text>
<text text-anchor="middle" x="221" y="-7.5" font-family="Helvetica,sans-Serif" font-size="10.00">_speed_init</text>
</a>
</g>
</g>
<!-- Node59&#45;&gt;Node64 -->
<g id="edge7" class="edge"><title>Node59&#45;&gt;Node64</title>
<path fill="none" stroke="midnightblue" d="M90.4266,-71.3864C109.195,-61.7993 134.297,-49.3853 157,-39.5 160.924,-37.7916 165.011,-36.0816 169.137,-34.4054"/>
<polygon fill="midnightblue" stroke="midnightblue" points="170.773,-37.5213 178.77,-30.572 168.185,-31.0173 170.773,-37.5213"/>
</g>
<!-- Node61 -->
<g id="node3" class="node"><title>Node61</title>
<g id="a_node3"><a xlink:href="namespacemom__error__handler.html#ad5f00a53059c72fe2332d1436c80ca71" target="_top" xlink:title="mom_error_handler::\lis_root_pe">
<polygon fill="white" stroke="black" points="630,-109.5 630,-139.5 736,-139.5 736,-109.5 630,-109.5"/>
<text text-anchor="start" x="638" y="-127.5" font-family="Helvetica,sans-Serif" font-size="10.00">mom_error_handler::</text>
<text text-anchor="middle" x="683" y="-116.5" font-family="Helvetica,sans-Serif" font-size="10.00">is_root_pe</text>
</a>
</g>
</g>
<!-- Node60&#45;&gt;Node61 -->
<g id="edge2" class="edge"><title>Node60&#45;&gt;Node61</title>
<path fill="none" stroke="midnightblue" d="M594.131,-124.5C602.421,-124.5 611.07,-124.5 619.568,-124.5"/>
<polygon fill="midnightblue" stroke="midnightblue" points="619.826,-128 629.826,-124.5 619.826,-121 619.826,-128"/>
</g>
<!-- Node62&#45;&gt;Node60 -->
<g id="edge4" class="edge"><title>Node62&#45;&gt;Node60</title>
<path fill="none" stroke="midnightblue" d="M452.174,-111.83C460.6,-113.046 469.219,-114.289 477.607,-115.499"/>
<polygon fill="midnightblue" stroke="midnightblue" points="477.298,-118.991 487.695,-116.954 478.297,-112.062 477.298,-118.991"/>
</g>
<!-- Node63&#45;&gt;Node62 -->
<g id="edge6" class="edge"><title>Node63&#45;&gt;Node62</title>
<path fill="none" stroke="midnightblue" d="M282.417,-78.5418C291.734,-80.7073 301.448,-82.9651 311.028,-85.1916"/>
<polygon fill="midnightblue" stroke="midnightblue" points="310.408,-88.6407 320.941,-87.4955 311.993,-81.8224 310.408,-88.6407"/>
</g>
<!-- Node65 -->
<g id="node7" class="node"><title>Node65</title>
<g id="a_node7"><a xlink:href="namespacemom__wave__speed.html#a035c9e3306d6b21809e240a5b24a2db0" target="_top" xlink:title="Sets internal parameters for MOM_wave_speed. ">
<polygon fill="white" stroke="black" points="322.5,-0.5 322.5,-30.5 450.5,-30.5 450.5,-0.5 322.5,-0.5"/>
<text text-anchor="start" x="330.5" y="-18.5" font-family="Helvetica,sans-Serif" font-size="10.00">mom_wave_speed::wave</text>
<text text-anchor="middle" x="386.5" y="-7.5" font-family="Helvetica,sans-Serif" font-size="10.00">_speed_set_param</text>
</a>
</g>
</g>
<!-- Node64&#45;&gt;Node65 -->
<g id="edge8" class="edge"><title>Node64&#45;&gt;Node65</title>
<path fill="none" stroke="midnightblue" d="M285.213,-15.5C294.093,-15.5 303.28,-15.5 312.326,-15.5"/>
<polygon fill="midnightblue" stroke="midnightblue" points="312.455,-19.0001 322.455,-15.5 312.455,-12.0001 312.455,-19.0001"/>
</g>
</g>
</svg>
        <g id="navigator" transform="translate(0 0)" fill="#404254">
                <rect fill="#f2f5e9" fill-opacity="0.5" stroke="#606060" stroke-width=".5" x="0" y="0" width="60" height="60"/>
                <use id="zoomplus" xlink:href="#zoomPlus" x="17" y="9" onmousedown="handleZoom(evt,'in')"/>
                <use id="zoomminus" xlink:href="#zoomMin" x="42" y="9" onmousedown="handleZoom(evt,'out')"/>
                <use id="reset" xlink:href="#resetDef" x="30" y="36" onmousedown="handleReset()"/>
                <g id="arrowUp" xlink:href="#dirArrow" transform="translate(30 24)" onmousedown="handlePan(0,-1)">
                  <use xlink:href="#rim" fill="#404040">
                        <set attributeName="fill" to="#808080" begin="arrowUp.mouseover" end="arrowUp.mouseout"/>
                  </use>
                  <path fill="none" stroke="white" stroke-width="1.5" d="M0,-3.0v7 M-2.5,-0.5L0,-3.0L2.5,-0.5"/>
                </g>
                <g id="arrowRight" xlink:href="#dirArrow" transform="rotate(90) translate(36 -43)" onmousedown="handlePan(1,0)">
                  <use xlink:href="#rim" fill="#404040">
                        <set attributeName="fill" to="#808080" begin="arrowRight.mouseover" end="arrowRight.mouseout"/>
                  </use>
                  <path fill="none" stroke="white" stroke-width="1.5" d="M0,-3.0v7 M-2.5,-0.5L0,-3.0L2.5,-0.5"/>
                </g>
                <g id="arrowDown" xlink:href="#dirArrow" transform="rotate(180) translate(-30 -48)" onmousedown="handlePan(0,1)">
                  <use xlink:href="#rim" fill="#404040">
                        <set attributeName="fill" to="#808080" begin="arrowDown.mouseover" end="arrowDown.mouseout"/>
                  </use>
                  <path fill="none" stroke="white" stroke-width="1.5" d="M0,-3.0v7 M-2.5,-0.5L0,-3.0L2.5,-0.5"/>
                </g>
                <g id="arrowLeft" xlink:href="#dirArrow" transform="rotate(270) translate(-36 17)" onmousedown="handlePan(-1,0)">
                  <use xlink:href="#rim" fill="#404040">
                        <set attributeName="fill" to="#808080" begin="arrowLeft.mouseover" end="arrowLeft.mouseout"/>
                  </use>
                  <path fill="none" stroke="white" stroke-width="1.5" d="M0,-3.0v7 M-2.5,-0.5L0,-3.0L2.5,-0.5"/>
                </g>
        </g>
        <svg viewBox="0 0 15 15" width="100%" height="30px" preserveAspectRatio="xMaxYMin meet">
         <g id="arrow_out" transform="scale(0.3 0.3)">
          <a xlink:href="namespacemom__diagnostics_ab2108574e351f6deb812da3faf437278_cgraph_org.svg" target="_base">
           <rect id="button" ry="5" rx="5" y="6" x="6" height="38" width="38"
                fill="#f2f5e9" fill-opacity="0.5" stroke="#606060" stroke-width="1.0"/>
           <path id="arrow"
             d="M 11.500037,31.436501 C 11.940474,20.09759 22.043105,11.32322 32.158766,21.979434 L 37.068811,17.246167 C 37.068811,17.246167 37.088388,32 37.088388,32 L 22.160133,31.978069 C 22.160133,31.978069 26.997745,27.140456 26.997745,27.140456 C 18.528582,18.264221 13.291696,25.230495 11.500037,31.436501 z"
             style="fill:#404040;"/>
          </a>
         </g>
        </svg>
</svg>
