<?xml version="1.0" encoding="UTF-8" standalone="no"?>
<!DOCTYPE svg PUBLIC "-//W3C//DTD SVG 1.1//EN"
 "http://www.w3.org/Graphics/SVG/1.1/DTD/svg11.dtd">
<!-- Generated by graphviz version 2.38.0 (20140413.2041)
 -->
<!-- Title: mom_ale::remap_all_state_vars Pages: 1 -->
<svg width="396pt" height="137pt"
 viewBox="0.00 0.00 396.00 137.00" xmlns="http://www.w3.org/2000/svg" xmlns:xlink="http://www.w3.org/1999/xlink">
<g id="graph0" class="graph" transform="scale(1 1) rotate(0) translate(4 133)">
<title>mom_ale::remap_all_state_vars</title>
<polygon fill="white" stroke="none" points="-4,4 -4,-133 392,-133 392,4 -4,4"/>
<!-- Node151 -->
<g id="node1" class="node"><title>Node151</title>
<polygon fill="#bfbfbf" stroke="black" points="0,-49.5 0,-79.5 104,-79.5 104,-49.5 0,-49.5"/>
<text text-anchor="start" x="8" y="-67.5" font-family="Helvetica,sans-Serif" font-size="10.00">mom_ale::remap_all</text>
<text text-anchor="middle" x="52" y="-56.5" font-family="Helvetica,sans-Serif" font-size="10.00">_state_vars</text>
</g>
<!-- Node152 -->
<g id="node2" class="node"><title>Node152</title>
<g id="a_node2"><a xlink:href="namespacemom__error__handler.html#a9cda07a87815f0e5594066162b4345c3" target="_top" xlink:title="Writes a message about entering a subroutine if call tree reporting is active. ">
<polygon fill="white" stroke="black" points="140,-98.5 140,-128.5 246,-128.5 246,-98.5 140,-98.5"/>
<text text-anchor="start" x="148" y="-116.5" font-family="Helvetica,sans-Serif" font-size="10.00">mom_error_handler::</text>
<text text-anchor="middle" x="193" y="-105.5" font-family="Helvetica,sans-Serif" font-size="10.00">calltree_enter</text>
</a>
</g>
</g>
<!-- Node151&#45;&gt;Node152 -->
<g id="edge1" class="edge"><title>Node151&#45;&gt;Node152</title>
<path fill="none" stroke="midnightblue" d="M95.8388,-79.6014C109.579,-84.4451 124.958,-89.8664 139.317,-94.9285"/>
<polygon fill="midnightblue" stroke="midnightblue" points="138.469,-98.3403 149.063,-98.3641 140.796,-91.7385 138.469,-98.3403"/>
</g>
<!-- Node154 -->
<g id="node4" class="node"><title>Node154</title>
<g id="a_node4"><a xlink:href="namespacemom__error__handler.html#a88ea67781e2ed9b73ab7eac8ea5e8578" target="_top" xlink:title="Writes a message about leaving a subroutine if call tree reporting is active. ">
<polygon fill="white" stroke="black" points="140,-49.5 140,-79.5 246,-79.5 246,-49.5 140,-49.5"/>
<text text-anchor="start" x="148" y="-67.5" font-family="Helvetica,sans-Serif" font-size="10.00">mom_error_handler::</text>
<text text-anchor="middle" x="193" y="-56.5" font-family="Helvetica,sans-Serif" font-size="10.00">calltree_leave</text>
</a>
</g>
</g>
<!-- Node151&#45;&gt;Node154 -->
<g id="edge3" class="edge"><title>Node151&#45;&gt;Node154</title>
<path fill="none" stroke="midnightblue" d="M104.364,-64.5C112.611,-64.5 121.224,-64.5 129.694,-64.5"/>
<polygon fill="midnightblue" stroke="midnightblue" points="129.919,-68.0001 139.919,-64.5 129.919,-61.0001 129.919,-68.0001"/>
</g>
<!-- Node155 -->
<g id="node5" class="node"><title>Node155</title>
<g id="a_node5"><a xlink:href="namespacemom__error__handler.html#a34a02e601a60f03cb97a72fe25a32853" target="_top" xlink:title="Writes a message about reaching a milestone if call tree reporting is active. ">
<polygon fill="white" stroke="black" points="140,-0.5 140,-30.5 246,-30.5 246,-0.5 140,-0.5"/>
<text text-anchor="start" x="148" y="-18.5" font-family="Helvetica,sans-Serif" font-size="10.00">mom_error_handler::</text>
<text text-anchor="middle" x="193" y="-7.5" font-family="Helvetica,sans-Serif" font-size="10.00">calltree_waypoint</text>
</a>
</g>
</g>
<!-- Node151&#45;&gt;Node155 -->
<g id="edge5" class="edge"><title>Node151&#45;&gt;Node155</title>
<path fill="none" stroke="midnightblue" d="M95.8388,-49.3986C109.579,-44.5549 124.958,-39.1336 139.317,-34.0715"/>
<polygon fill="midnightblue" stroke="midnightblue" points="140.796,-37.2615 149.063,-30.6359 138.469,-30.6597 140.796,-37.2615"/>
</g>
<!-- Node153 -->
<g id="node3" class="node"><title>Node153</title>
<g id="a_node3"><a xlink:href="namespacemom__error__handler.html#ad5f00a53059c72fe2332d1436c80ca71" target="_top" xlink:title="mom_error_handler::\lis_root_pe">
<polygon fill="white" stroke="black" points="282,-49.5 282,-79.5 388,-79.5 388,-49.5 282,-49.5"/>
<text text-anchor="start" x="290" y="-67.5" font-family="Helvetica,sans-Serif" font-size="10.00">mom_error_handler::</text>
<text text-anchor="middle" x="335" y="-56.5" font-family="Helvetica,sans-Serif" font-size="10.00">is_root_pe</text>
</a>
</g>
</g>
<!-- Node152&#45;&gt;Node153 -->
<g id="edge2" class="edge"><title>Node152&#45;&gt;Node153</title>
<path fill="none" stroke="midnightblue" d="M237.147,-98.3986C250.986,-93.5549 266.475,-88.1336 280.938,-83.0715"/>
<polygon fill="midnightblue" stroke="midnightblue" points="282.472,-86.243 290.755,-79.6359 280.16,-79.636 282.472,-86.243"/>
</g>
<!-- Node154&#45;&gt;Node153 -->
<g id="edge4" class="edge"><title>Node154&#45;&gt;Node153</title>
<path fill="none" stroke="midnightblue" d="M246.131,-64.5C254.421,-64.5 263.07,-64.5 271.568,-64.5"/>
<polygon fill="midnightblue" stroke="midnightblue" points="271.826,-68.0001 281.826,-64.5 271.826,-61.0001 271.826,-68.0001"/>
</g>
<!-- Node155&#45;&gt;Node153 -->
<g id="edge6" class="edge"><title>Node155&#45;&gt;Node153</title>
<path fill="none" stroke="midnightblue" d="M237.147,-30.6014C250.986,-35.4451 266.475,-40.8664 280.938,-45.9285"/>
<polygon fill="midnightblue" stroke="midnightblue" points="280.16,-49.364 290.755,-49.3641 282.472,-42.757 280.16,-49.364"/>
</g>
</g>
</svg>
