<?xml version="1.0" encoding="UTF-8" standalone="no"?>
<!DOCTYPE svg PUBLIC "-//W3C//DTD SVG 1.1//EN"
 "http://www.w3.org/Graphics/SVG/1.1/DTD/svg11.dtd">
<!-- Generated by graphviz version 2.38.0 (20140413.2041)
 -->
<!-- Title: mom_restart::query_initialized_name Pages: 1 -->
<svg width="252pt" height="235pt"
 viewBox="0.00 0.00 252.00 235.00" xmlns="http://www.w3.org/2000/svg" xmlns:xlink="http://www.w3.org/1999/xlink">
<g id="graph0" class="graph" transform="scale(1 1) rotate(0) translate(4 231)">
<title>mom_restart::query_initialized_name</title>
<polygon fill="white" stroke="none" points="-4,4 -4,-231 248,-231 248,4 -4,4"/>
<!-- Node59 -->
<g id="node1" class="node"><title>Node59</title>
<polygon fill="#bfbfbf" stroke="black" points="0,-98.5 0,-128.5 101,-128.5 101,-98.5 0,-98.5"/>
<text text-anchor="start" x="8" y="-116.5" font-family="Helvetica,sans-Serif" font-size="10.00">mom_restart::query</text>
<text text-anchor="middle" x="50.5" y="-105.5" font-family="Helvetica,sans-Serif" font-size="10.00">_initialized_name</text>
</g>
<!-- Node60 -->
<g id="node2" class="node"><title>Node60</title>
<g id="a_node2"><a xlink:href="namespacemom__restart.html#a7abca14dfc4fa1efcec27f8f8f7d6762" target="_top" xlink:title="mom_restart::query\l_initialized_0d_name">
<polygon fill="white" stroke="black" points="137,-196.5 137,-226.5 244,-226.5 244,-196.5 137,-196.5"/>
<text text-anchor="start" x="145" y="-214.5" font-family="Helvetica,sans-Serif" font-size="10.00">mom_restart::query</text>
<text text-anchor="middle" x="190.5" y="-203.5" font-family="Helvetica,sans-Serif" font-size="10.00">_initialized_0d_name</text>
</a>
</g>
</g>
<!-- Node59&#45;&gt;Node60 -->
<g id="edge1" class="edge"><title>Node59&#45;&gt;Node60</title>
<path fill="none" stroke="midnightblue" d="M73.6835,-135.845C90.1613,-151.627 113.723,-172.544 137,-187.5 141.975,-190.696 147.445,-193.694 152.918,-196.415"/>
<polygon fill="midnightblue" stroke="midnightblue" points="75.8036,-133.025 66.1958,-128.559 70.9219,-138.042 75.8036,-133.025"/>
</g>
<!-- Node61 -->
<g id="node3" class="node"><title>Node61</title>
<g id="a_node3"><a xlink:href="namespacemom__restart.html#a3c999a09696203fd104cf5ea7786ae39" target="_top" xlink:title="mom_restart::query\l_initialized_1d_name">
<polygon fill="white" stroke="black" points="137,-147.5 137,-177.5 244,-177.5 244,-147.5 137,-147.5"/>
<text text-anchor="start" x="145" y="-165.5" font-family="Helvetica,sans-Serif" font-size="10.00">mom_restart::query</text>
<text text-anchor="middle" x="190.5" y="-154.5" font-family="Helvetica,sans-Serif" font-size="10.00">_initialized_1d_name</text>
</a>
</g>
</g>
<!-- Node59&#45;&gt;Node61 -->
<g id="edge2" class="edge"><title>Node59&#45;&gt;Node61</title>
<path fill="none" stroke="midnightblue" d="M103.702,-132.036C117.954,-137.096 133.223,-142.518 146.872,-147.364"/>
<polygon fill="midnightblue" stroke="midnightblue" points="104.625,-128.649 94.0306,-128.601 102.283,-135.246 104.625,-128.649"/>
</g>
<!-- Node62 -->
<g id="node4" class="node"><title>Node62</title>
<g id="a_node4"><a xlink:href="namespacemom__restart.html#ac2916c91f2b110463b8b6ffd5330c683" target="_top" xlink:title="mom_restart::query\l_initialized_2d_name">
<polygon fill="white" stroke="black" points="137,-98.5 137,-128.5 244,-128.5 244,-98.5 137,-98.5"/>
<text text-anchor="start" x="145" y="-116.5" font-family="Helvetica,sans-Serif" font-size="10.00">mom_restart::query</text>
<text text-anchor="middle" x="190.5" y="-105.5" font-family="Helvetica,sans-Serif" font-size="10.00">_initialized_2d_name</text>
</a>
</g>
</g>
<!-- Node59&#45;&gt;Node62 -->
<g id="edge3" class="edge"><title>Node59&#45;&gt;Node62</title>
<path fill="none" stroke="midnightblue" d="M111.525,-113.5C119.993,-113.5 128.646,-113.5 136.959,-113.5"/>
<polygon fill="midnightblue" stroke="midnightblue" points="111.321,-110 101.321,-113.5 111.321,-117 111.321,-110"/>
</g>
<!-- Node63 -->
<g id="node5" class="node"><title>Node63</title>
<g id="a_node5"><a xlink:href="namespacemom__restart.html#a0ff886233ff24e93349a1f1c8e547da4" target="_top" xlink:title="mom_restart::query\l_initialized_3d_name">
<polygon fill="white" stroke="black" points="137,-49.5 137,-79.5 244,-79.5 244,-49.5 137,-49.5"/>
<text text-anchor="start" x="145" y="-67.5" font-family="Helvetica,sans-Serif" font-size="10.00">mom_restart::query</text>
<text text-anchor="middle" x="190.5" y="-56.5" font-family="Helvetica,sans-Serif" font-size="10.00">_initialized_3d_name</text>
</a>
</g>
</g>
<!-- Node59&#45;&gt;Node63 -->
<g id="edge4" class="edge"><title>Node59&#45;&gt;Node63</title>
<path fill="none" stroke="midnightblue" d="M103.702,-94.9645C117.954,-89.9041 133.223,-84.4823 146.872,-79.6359"/>
<polygon fill="midnightblue" stroke="midnightblue" points="102.283,-91.7542 94.0306,-98.3986 104.625,-98.3507 102.283,-91.7542"/>
</g>
<!-- Node64 -->
<g id="node6" class="node"><title>Node64</title>
<g id="a_node6"><a xlink:href="namespacemom__restart.html#a5223057ec731f74507fd800511c01ab2" target="_top" xlink:title="mom_restart::query\l_initialized_4d_name">
<polygon fill="white" stroke="black" points="137,-0.5 137,-30.5 244,-30.5 244,-0.5 137,-0.5"/>
<text text-anchor="start" x="145" y="-18.5" font-family="Helvetica,sans-Serif" font-size="10.00">mom_restart::query</text>
<text text-anchor="middle" x="190.5" y="-7.5" font-family="Helvetica,sans-Serif" font-size="10.00">_initialized_4d_name</text>
</a>
</g>
</g>
<!-- Node59&#45;&gt;Node64 -->
<g id="edge5" class="edge"><title>Node59&#45;&gt;Node64</title>
<path fill="none" stroke="midnightblue" d="M74.1085,-91.3051C90.6293,-75.834 114.064,-55.3816 137,-40.5 142.505,-36.9283 148.599,-33.5587 154.628,-30.5188"/>
<polygon fill="midnightblue" stroke="midnightblue" points="71.424,-89.0278 66.5862,-98.4536 76.2461,-94.102 71.424,-89.0278"/>
</g>
</g>
</svg>
