<?xml version="1.0" encoding="UTF-8" standalone="no"?>
<!DOCTYPE svg PUBLIC "-//W3C//DTD SVG 1.1//EN"
 "http://www.w3.org/Graphics/SVG/1.1/DTD/svg11.dtd">
<!-- Generated by graphviz version 2.38.0 (20140413.2041)
 -->
<!-- Title: mom_surface_forcing::buoyancy_forcing_from_data_override Pages: 1 -->
<svg width="379pt" height="50pt"
 viewBox="0.00 0.00 379.00 50.00" xmlns="http://www.w3.org/2000/svg" xmlns:xlink="http://www.w3.org/1999/xlink">
<g id="graph0" class="graph" transform="scale(1 1) rotate(0) translate(4 46)">
<title>mom_surface_forcing::buoyancy_forcing_from_data_override</title>
<polygon fill="white" stroke="none" points="-4,4 -4,-46 375,-46 375,4 -4,4"/>
<!-- Node13 -->
<g id="node1" class="node"><title>Node13</title>
<polygon fill="#bfbfbf" stroke="black" points="0,-0.5 0,-41.5 124,-41.5 124,-0.5 0,-0.5"/>
<text text-anchor="start" x="8" y="-29.5" font-family="Helvetica,sans-Serif" font-size="10.00">mom_surface_forcing</text>
<text text-anchor="start" x="8" y="-18.5" font-family="Helvetica,sans-Serif" font-size="10.00">::buoyancy_forcing_from</text>
<text text-anchor="middle" x="62" y="-7.5" font-family="Helvetica,sans-Serif" font-size="10.00">_data_override</text>
</g>
<!-- Node14 -->
<g id="node2" class="node"><title>Node14</title>
<g id="a_node2"><a xlink:href="namespacemom__surface__forcing.html#a82bece05671a4155b220fb57fd4cfcc0" target="_top" xlink:title="mom_surface_forcing\l::set_forcing">
<polygon fill="white" stroke="black" points="160,-6 160,-36 270,-36 270,-6 160,-6"/>
<text text-anchor="start" x="168" y="-24" font-family="Helvetica,sans-Serif" font-size="10.00">mom_surface_forcing</text>
<text text-anchor="middle" x="215" y="-13" font-family="Helvetica,sans-Serif" font-size="10.00">::set_forcing</text>
</a>
</g>
</g>
<!-- Node13&#45;&gt;Node14 -->
<g id="edge1" class="edge"><title>Node13&#45;&gt;Node14</title>
<path fill="none" stroke="midnightblue" d="M134.424,-21C142.997,-21 151.642,-21 159.912,-21"/>
<polygon fill="midnightblue" stroke="midnightblue" points="134.418,-17.5001 124.417,-21 134.417,-24.5001 134.418,-17.5001"/>
</g>
<!-- Node15 -->
<g id="node3" class="node"><title>Node15</title>
<g id="a_node3"><a xlink:href="MOM__driver_8F90.html#a08fffeb2d8e8acbf9ed4609be6d258c6" target="_top" xlink:title="mom_main">
<polygon fill="white" stroke="black" points="306,-11.5 306,-30.5 371,-30.5 371,-11.5 306,-11.5"/>
<text text-anchor="middle" x="338.5" y="-18.5" font-family="Helvetica,sans-Serif" font-size="10.00">mom_main</text>
</a>
</g>
</g>
<!-- Node14&#45;&gt;Node15 -->
<g id="edge2" class="edge"><title>Node14&#45;&gt;Node15</title>
<path fill="none" stroke="midnightblue" d="M280.627,-21C289.374,-21 298.013,-21 305.815,-21"/>
<polygon fill="midnightblue" stroke="midnightblue" points="280.353,-17.5001 270.353,-21 280.353,-24.5001 280.353,-17.5001"/>
</g>
</g>
</svg>
