<?xml version="1.0" encoding="UTF-8" standalone="no"?>
<!DOCTYPE svg PUBLIC "-//W3C//DTD SVG 1.1//EN"
 "http://www.w3.org/Graphics/SVG/1.1/DTD/svg11.dtd">
<!-- Generated by graphviz version 2.38.0 (20140413.2041)
 -->
<!-- Title: mom_sponge::set_up_sponge_field Pages: 1 -->
<!--zoomable 186 -->
<svg id="main" version="1.1" xmlns="http://www.w3.org/2000/svg" xmlns:xlink="http://www.w3.org/1999/xlink" xml:space="preserve" onload="init(evt)">
<style type="text/css"><![CDATA[
.edge:hover path { stroke: red; }
.edge:hover polygon { stroke: red; fill: red; }
]]></style>
<script type="text/javascript"><![CDATA[
var edges = document.getElementsByTagName('g');
if (edges && edges.length) {
  for (var i=0;i<edges.length;i++) {
    if (edges[i].id.substr(0,4)=='edge') {
      edges[i].setAttribute('class','edge');
    }
  }
}
]]></script>
        <defs>
                <circle id="rim" cx="0" cy="0" r="7"/>
                <circle id="rim2" cx="0" cy="0" r="3.5"/>
                <g id="zoomPlus">
                        <use xlink:href="#rim" fill="#404040">
                                <set attributeName="fill" to="#808080" begin="zoomplus.mouseover" end="zoomplus.mouseout"/>
                        </use>
                        <path d="M-4,0h8M0,-4v8" fill="none" stroke="white" stroke-width="1.5" pointer-events="none"/>
                </g>
                <g id="zoomMin">
                        <use xlink:href="#rim" fill="#404040">
                                <set attributeName="fill" to="#808080" begin="zoomminus.mouseover" end="zoomminus.mouseout"/>
                        </use>
                        <path d="M-4,0h8" fill="none" stroke="white" stroke-width="1.5" pointer-events="none"/>
                </g>
                <g id="dirArrow">
                        <path fill="none" stroke="white" stroke-width="1.5" d="M0,-3.0v7 M-2.5,-0.5L0,-3.0L2.5,-0.5"/>
                </g>
               <g id="resetDef">
                       <use xlink:href="#rim2" fill="#404040">
                               <set attributeName="fill" to="#808080" begin="reset.mouseover" end="reset.mouseout"/>
                       </use>
               </g>
        </defs>

<script type="text/javascript">
var viewWidth = 690;
var viewHeight = 186;
var sectionId = 'dynsection-6';
</script>
<script xlink:href="svgpan.js"/>
<svg id="graph" class="graph">
<g id="viewport">
<title>mom_sponge::set_up_sponge_field</title>
<polygon fill="white" stroke="none" points="-4,4 -4,-182 686,-182 686,4 -4,4"/>
<!-- Node28 -->
<g id="node1" class="node"><title>Node28</title>
<polygon fill="#bfbfbf" stroke="black" points="0,-73.5 0,-103.5 110,-103.5 110,-73.5 0,-73.5"/>
<text text-anchor="start" x="8" y="-91.5" font-family="Helvetica,sans-Serif" font-size="10.00">mom_sponge::set_up</text>
<text text-anchor="middle" x="55" y="-80.5" font-family="Helvetica,sans-Serif" font-size="10.00">_sponge_field</text>
</g>
<!-- Node29 -->
<g id="node2" class="node"><title>Node29</title>
<g id="a_node2"><a xlink:href="namespacedome__initialization.html#a407c1b2429d1d5abd600d3d3cd35ac38" target="_top" xlink:title="This subroutine sets the inverse restoration time (Idamp), and ! the values towards which the interfa...">
<polygon fill="white" stroke="black" points="148.5,-147.5 148.5,-177.5 277.5,-177.5 277.5,-147.5 148.5,-147.5"/>
<text text-anchor="start" x="156.5" y="-165.5" font-family="Helvetica,sans-Serif" font-size="10.00">dome_initialization</text>
<text text-anchor="middle" x="213" y="-154.5" font-family="Helvetica,sans-Serif" font-size="10.00">::dome_initialize_sponges</text>
</a>
</g>
</g>
<!-- Node28&#45;&gt;Node29 -->
<g id="edge1" class="edge"><title>Node28&#45;&gt;Node29</title>
<path fill="none" stroke="midnightblue" d="M89.4808,-108.763C106.146,-118.416 126.79,-129.738 146,-138.5 152.878,-141.637 160.295,-144.662 167.588,-147.446"/>
<polygon fill="midnightblue" stroke="midnightblue" points="91.0638,-105.634 80.6664,-103.598 87.525,-111.673 91.0638,-105.634"/>
</g>
<!-- Node33 -->
<g id="node6" class="node"><title>Node33</title>
<g id="a_node6"><a xlink:href="namespacedome__tracer.html#acbbc86d4dbc4997c0cd55aa498d2c668" target="_top" xlink:title="dome_tracer::initialize\l_dome_tracer">
<polygon fill="white" stroke="black" points="157,-98.5 157,-128.5 269,-128.5 269,-98.5 157,-98.5"/>
<text text-anchor="start" x="165" y="-116.5" font-family="Helvetica,sans-Serif" font-size="10.00">dome_tracer::initialize</text>
<text text-anchor="middle" x="213" y="-105.5" font-family="Helvetica,sans-Serif" font-size="10.00">_dome_tracer</text>
</a>
</g>
</g>
<!-- Node28&#45;&gt;Node33 -->
<g id="edge5" class="edge"><title>Node28&#45;&gt;Node33</title>
<path fill="none" stroke="midnightblue" d="M120.22,-98.7917C132.402,-100.744 145.046,-102.77 156.915,-104.672"/>
<polygon fill="midnightblue" stroke="midnightblue" points="120.551,-95.3002 110.123,-97.1736 119.444,-102.212 120.551,-95.3002"/>
</g>
<!-- Node34 -->
<g id="node7" class="node"><title>Node34</title>
<g id="a_node7"><a xlink:href="namespaceisomip__initialization.html#a672219a0070f4491fc1a8d9c20c6c1e4" target="_top" xlink:title="Sets up the the inverse restoration time (Idamp), and. ">
<polygon fill="white" stroke="black" points="146,-49.5 146,-79.5 280,-79.5 280,-49.5 146,-49.5"/>
<text text-anchor="start" x="154" y="-67.5" font-family="Helvetica,sans-Serif" font-size="10.00">isomip_initialization</text>
<text text-anchor="middle" x="213" y="-56.5" font-family="Helvetica,sans-Serif" font-size="10.00">::isomip_initialize_sponges</text>
</a>
</g>
</g>
<!-- Node28&#45;&gt;Node34 -->
<g id="edge6" class="edge"><title>Node28&#45;&gt;Node34</title>
<path fill="none" stroke="midnightblue" d="M120.007,-78.6527C128.539,-77.3401 137.302,-75.992 145.869,-74.6739"/>
<polygon fill="midnightblue" stroke="midnightblue" points="119.475,-75.1934 110.123,-80.1733 120.539,-82.112 119.475,-75.1934"/>
</g>
<!-- Node35 -->
<g id="node8" class="node"><title>Node35</title>
<g id="a_node8"><a xlink:href="namespaceuser__tracer__example.html#a16d417b6068f44605caf3573bf5f4de9" target="_top" xlink:title="user_tracer_example\l::user_initialize_tracer">
<polygon fill="white" stroke="black" points="157,-0.5 157,-30.5 269,-30.5 269,-0.5 157,-0.5"/>
<text text-anchor="start" x="165" y="-18.5" font-family="Helvetica,sans-Serif" font-size="10.00">user_tracer_example</text>
<text text-anchor="middle" x="213" y="-7.5" font-family="Helvetica,sans-Serif" font-size="10.00">::user_initialize_tracer</text>
</a>
</g>
</g>
<!-- Node28&#45;&gt;Node35 -->
<g id="edge7" class="edge"><title>Node28&#45;&gt;Node35</title>
<path fill="none" stroke="midnightblue" d="M91.5199,-68.2046C107.868,-59.2164 127.667,-48.8197 146,-40.5 153.587,-37.0568 161.8,-33.6789 169.772,-30.5745"/>
<polygon fill="midnightblue" stroke="midnightblue" points="89.3738,-65.3928 82.3305,-73.3075 92.7722,-71.5126 89.3738,-65.3928"/>
</g>
<!-- Node30 -->
<g id="node3" class="node"><title>Node30</title>
<g id="a_node3"><a xlink:href="namespacemom__state__initialization.html#af4e854627c6572332ba3fd895f169321" target="_top" xlink:title="mom_state_initialization\l::mom_initialize_state">
<polygon fill="white" stroke="black" points="316,-147.5 316,-177.5 438,-177.5 438,-147.5 316,-147.5"/>
<text text-anchor="start" x="324" y="-165.5" font-family="Helvetica,sans-Serif" font-size="10.00">mom_state_initialization</text>
<text text-anchor="middle" x="377" y="-154.5" font-family="Helvetica,sans-Serif" font-size="10.00">::mom_initialize_state</text>
</a>
</g>
</g>
<!-- Node29&#45;&gt;Node30 -->
<g id="edge2" class="edge"><title>Node29&#45;&gt;Node30</title>
<path fill="none" stroke="midnightblue" d="M287.693,-162.5C297.1,-162.5 306.639,-162.5 315.798,-162.5"/>
<polygon fill="midnightblue" stroke="midnightblue" points="287.562,-159 277.562,-162.5 287.562,-166 287.562,-159"/>
</g>
<!-- Node31 -->
<g id="node4" class="node"><title>Node31</title>
<g id="a_node4"><a xlink:href="namespacemom.html#a0be2869fef30e1e0604facfe1b41555d" target="_top" xlink:title="This subroutine initializes MOM. ">
<polygon fill="white" stroke="black" points="474,-153 474,-172 581,-172 581,-153 474,-153"/>
<text text-anchor="middle" x="527.5" y="-160" font-family="Helvetica,sans-Serif" font-size="10.00">mom::initialize_mom</text>
</a>
</g>
</g>
<!-- Node30&#45;&gt;Node31 -->
<g id="edge3" class="edge"><title>Node30&#45;&gt;Node31</title>
<path fill="none" stroke="midnightblue" d="M448.657,-162.5C457.116,-162.5 465.636,-162.5 473.779,-162.5"/>
<polygon fill="midnightblue" stroke="midnightblue" points="448.401,-159 438.401,-162.5 448.401,-166 448.401,-159"/>
</g>
<!-- Node32 -->
<g id="node5" class="node"><title>Node32</title>
<g id="a_node5"><a xlink:href="MOM__driver_8F90.html#a08fffeb2d8e8acbf9ed4609be6d258c6" target="_top" xlink:title="mom_main">
<polygon fill="white" stroke="black" points="617,-153 617,-172 682,-172 682,-153 617,-153"/>
<text text-anchor="middle" x="649.5" y="-160" font-family="Helvetica,sans-Serif" font-size="10.00">mom_main</text>
</a>
</g>
</g>
<!-- Node31&#45;&gt;Node32 -->
<g id="edge4" class="edge"><title>Node31&#45;&gt;Node32</title>
<path fill="none" stroke="midnightblue" d="M591.206,-162.5C600.134,-162.5 608.983,-162.5 616.958,-162.5"/>
<polygon fill="midnightblue" stroke="midnightblue" points="591.134,-159 581.134,-162.5 591.134,-166 591.134,-159"/>
</g>
</g>
</svg>
        <g id="navigator" transform="translate(0 0)" fill="#404254">
                <rect fill="#f2f5e9" fill-opacity="0.5" stroke="#606060" stroke-width=".5" x="0" y="0" width="60" height="60"/>
                <use id="zoomplus" xlink:href="#zoomPlus" x="17" y="9" onmousedown="handleZoom(evt,'in')"/>
                <use id="zoomminus" xlink:href="#zoomMin" x="42" y="9" onmousedown="handleZoom(evt,'out')"/>
                <use id="reset" xlink:href="#resetDef" x="30" y="36" onmousedown="handleReset()"/>
                <g id="arrowUp" xlink:href="#dirArrow" transform="translate(30 24)" onmousedown="handlePan(0,-1)">
                  <use xlink:href="#rim" fill="#404040">
                        <set attributeName="fill" to="#808080" begin="arrowUp.mouseover" end="arrowUp.mouseout"/>
                  </use>
                  <path fill="none" stroke="white" stroke-width="1.5" d="M0,-3.0v7 M-2.5,-0.5L0,-3.0L2.5,-0.5"/>
                </g>
                <g id="arrowRight" xlink:href="#dirArrow" transform="rotate(90) translate(36 -43)" onmousedown="handlePan(1,0)">
                  <use xlink:href="#rim" fill="#404040">
                        <set attributeName="fill" to="#808080" begin="arrowRight.mouseover" end="arrowRight.mouseout"/>
                  </use>
                  <path fill="none" stroke="white" stroke-width="1.5" d="M0,-3.0v7 M-2.5,-0.5L0,-3.0L2.5,-0.5"/>
                </g>
                <g id="arrowDown" xlink:href="#dirArrow" transform="rotate(180) translate(-30 -48)" onmousedown="handlePan(0,1)">
                  <use xlink:href="#rim" fill="#404040">
                        <set attributeName="fill" to="#808080" begin="arrowDown.mouseover" end="arrowDown.mouseout"/>
                  </use>
                  <path fill="none" stroke="white" stroke-width="1.5" d="M0,-3.0v7 M-2.5,-0.5L0,-3.0L2.5,-0.5"/>
                </g>
                <g id="arrowLeft" xlink:href="#dirArrow" transform="rotate(270) translate(-36 17)" onmousedown="handlePan(-1,0)">
                  <use xlink:href="#rim" fill="#404040">
                        <set attributeName="fill" to="#808080" begin="arrowLeft.mouseover" end="arrowLeft.mouseout"/>
                  </use>
                  <path fill="none" stroke="white" stroke-width="1.5" d="M0,-3.0v7 M-2.5,-0.5L0,-3.0L2.5,-0.5"/>
                </g>
        </g>
        <svg viewBox="0 0 15 15" width="100%" height="30px" preserveAspectRatio="xMaxYMin meet">
         <g id="arrow_out" transform="scale(0.3 0.3)">
          <a xlink:href="namespacemom__sponge_af3da4a8b352c4130919d7bfedf1a5a3e_icgraph_org.svg" target="_base">
           <rect id="button" ry="5" rx="5" y="6" x="6" height="38" width="38"
                fill="#f2f5e9" fill-opacity="0.5" stroke="#606060" stroke-width="1.0"/>
           <path id="arrow"
             d="M 11.500037,31.436501 C 11.940474,20.09759 22.043105,11.32322 32.158766,21.979434 L 37.068811,17.246167 C 37.068811,17.246167 37.088388,32 37.088388,32 L 22.160133,31.978069 C 22.160133,31.978069 26.997745,27.140456 26.997745,27.140456 C 18.528582,18.264221 13.291696,25.230495 11.500037,31.436501 z"
             style="fill:#404040;"/>
          </a>
         </g>
        </svg>
</svg>
