<?xml version="1.0" encoding="UTF-8" standalone="no"?>
<!DOCTYPE svg PUBLIC "-//W3C//DTD SVG 1.1//EN"
 "http://www.w3.org/Graphics/SVG/1.1/DTD/svg11.dtd">
<!-- Generated by graphviz version 2.38.0 (20140413.2041)
 -->
<!-- Title: mom_shared_initialization::initialize_topography_named Pages: 1 -->
<svg width="438pt" height="88pt"
 viewBox="0.00 0.00 438.00 88.00" xmlns="http://www.w3.org/2000/svg" xmlns:xlink="http://www.w3.org/1999/xlink">
<g id="graph0" class="graph" transform="scale(1 1) rotate(0) translate(4 84)">
<title>mom_shared_initialization::initialize_topography_named</title>
<polygon fill="white" stroke="none" points="-4,4 -4,-84 434,-84 434,4 -4,4"/>
<!-- Node21 -->
<g id="node1" class="node"><title>Node21</title>
<polygon fill="#bfbfbf" stroke="black" points="0,-24.5 0,-54.5 146,-54.5 146,-24.5 0,-24.5"/>
<text text-anchor="start" x="8" y="-42.5" font-family="Helvetica,sans-Serif" font-size="10.00">mom_shared_initialization</text>
<text text-anchor="middle" x="73" y="-31.5" font-family="Helvetica,sans-Serif" font-size="10.00">::initialize_topography_named</text>
</g>
<!-- Node22 -->
<g id="node2" class="node"><title>Node22</title>
<g id="a_node2"><a xlink:href="namespacemom__error__handler.html#a9cda07a87815f0e5594066162b4345c3" target="_top" xlink:title="Writes a message about entering a subroutine if call tree reporting is active. ">
<polygon fill="white" stroke="black" points="182,-49.5 182,-79.5 288,-79.5 288,-49.5 182,-49.5"/>
<text text-anchor="start" x="190" y="-67.5" font-family="Helvetica,sans-Serif" font-size="10.00">mom_error_handler::</text>
<text text-anchor="middle" x="235" y="-56.5" font-family="Helvetica,sans-Serif" font-size="10.00">calltree_enter</text>
</a>
</g>
</g>
<!-- Node21&#45;&gt;Node22 -->
<g id="edge1" class="edge"><title>Node21&#45;&gt;Node22</title>
<path fill="none" stroke="midnightblue" d="M146.043,-50.7567C154.652,-52.1019 163.386,-53.4666 171.84,-54.7875"/>
<polygon fill="midnightblue" stroke="midnightblue" points="171.565,-58.2869 181.985,-56.3727 172.645,-51.3708 171.565,-58.2869"/>
</g>
<!-- Node24 -->
<g id="node4" class="node"><title>Node24</title>
<g id="a_node4"><a xlink:href="namespacemom__error__handler.html#a88ea67781e2ed9b73ab7eac8ea5e8578" target="_top" xlink:title="Writes a message about leaving a subroutine if call tree reporting is active. ">
<polygon fill="white" stroke="black" points="182,-0.5 182,-30.5 288,-30.5 288,-0.5 182,-0.5"/>
<text text-anchor="start" x="190" y="-18.5" font-family="Helvetica,sans-Serif" font-size="10.00">mom_error_handler::</text>
<text text-anchor="middle" x="235" y="-7.5" font-family="Helvetica,sans-Serif" font-size="10.00">calltree_leave</text>
</a>
</g>
</g>
<!-- Node21&#45;&gt;Node24 -->
<g id="edge3" class="edge"><title>Node21&#45;&gt;Node24</title>
<path fill="none" stroke="midnightblue" d="M146.043,-28.6936C154.652,-27.4021 163.386,-26.0921 171.84,-24.824"/>
<polygon fill="midnightblue" stroke="midnightblue" points="172.615,-28.247 181.985,-23.3022 171.577,-21.3244 172.615,-28.247"/>
</g>
<!-- Node23 -->
<g id="node3" class="node"><title>Node23</title>
<g id="a_node3"><a xlink:href="namespacemom__error__handler.html#ad5f00a53059c72fe2332d1436c80ca71" target="_top" xlink:title="mom_error_handler::\lis_root_pe">
<polygon fill="white" stroke="black" points="324,-24.5 324,-54.5 430,-54.5 430,-24.5 324,-24.5"/>
<text text-anchor="start" x="332" y="-42.5" font-family="Helvetica,sans-Serif" font-size="10.00">mom_error_handler::</text>
<text text-anchor="middle" x="377" y="-31.5" font-family="Helvetica,sans-Serif" font-size="10.00">is_root_pe</text>
</a>
</g>
</g>
<!-- Node22&#45;&gt;Node23 -->
<g id="edge2" class="edge"><title>Node22&#45;&gt;Node23</title>
<path fill="none" stroke="midnightblue" d="M288.131,-55.1909C296.512,-53.6942 305.26,-52.1321 313.849,-50.5985"/>
<polygon fill="midnightblue" stroke="midnightblue" points="314.597,-54.0203 323.826,-48.8169 313.366,-47.1293 314.597,-54.0203"/>
</g>
<!-- Node24&#45;&gt;Node23 -->
<g id="edge4" class="edge"><title>Node24&#45;&gt;Node23</title>
<path fill="none" stroke="midnightblue" d="M288.131,-24.4367C296.512,-25.8736 305.26,-27.3732 313.849,-28.8455"/>
<polygon fill="midnightblue" stroke="midnightblue" points="313.378,-32.3158 323.826,-30.5558 314.561,-25.4164 313.378,-32.3158"/>
</g>
</g>
</svg>
