<?xml version="1.0" encoding="UTF-8" standalone="no"?>
<!DOCTYPE svg PUBLIC "-//W3C//DTD SVG 1.1//EN"
 "http://www.w3.org/Graphics/SVG/1.1/DTD/svg11.dtd">
<!-- Generated by graphviz version 2.38.0 (20140413.2041)
 -->
<!-- Title: mom_barotropic::barotropic_init Pages: 1 -->
<!--zoomable 257 -->
<svg id="main" version="1.1" xmlns="http://www.w3.org/2000/svg" xmlns:xlink="http://www.w3.org/1999/xlink" xml:space="preserve" onload="init(evt)">
<style type="text/css"><![CDATA[
.edge:hover path { stroke: red; }
.edge:hover polygon { stroke: red; fill: red; }
]]></style>
<script type="text/javascript"><![CDATA[
var edges = document.getElementsByTagName('g');
if (edges && edges.length) {
  for (var i=0;i<edges.length;i++) {
    if (edges[i].id.substr(0,4)=='edge') {
      edges[i].setAttribute('class','edge');
    }
  }
}
]]></script>
        <defs>
                <circle id="rim" cx="0" cy="0" r="7"/>
                <circle id="rim2" cx="0" cy="0" r="3.5"/>
                <g id="zoomPlus">
                        <use xlink:href="#rim" fill="#404040">
                                <set attributeName="fill" to="#808080" begin="zoomplus.mouseover" end="zoomplus.mouseout"/>
                        </use>
                        <path d="M-4,0h8M0,-4v8" fill="none" stroke="white" stroke-width="1.5" pointer-events="none"/>
                </g>
                <g id="zoomMin">
                        <use xlink:href="#rim" fill="#404040">
                                <set attributeName="fill" to="#808080" begin="zoomminus.mouseover" end="zoomminus.mouseout"/>
                        </use>
                        <path d="M-4,0h8" fill="none" stroke="white" stroke-width="1.5" pointer-events="none"/>
                </g>
                <g id="dirArrow">
                        <path fill="none" stroke="white" stroke-width="1.5" d="M0,-3.0v7 M-2.5,-0.5L0,-3.0L2.5,-0.5"/>
                </g>
               <g id="resetDef">
                       <use xlink:href="#rim2" fill="#404040">
                               <set attributeName="fill" to="#808080" begin="reset.mouseover" end="reset.mouseout"/>
                       </use>
               </g>
        </defs>

<script type="text/javascript">
var viewWidth = 622;
var viewHeight = 257;
var sectionId = 'dynsection-5';
</script>
<script xlink:href="svgpan.js"/>
<svg id="graph" class="graph">
<g id="viewport">
<title>mom_barotropic::barotropic_init</title>
<polygon fill="white" stroke="none" points="-4,4 -4,-253 618,-253 618,4 -4,4"/>
<!-- Node14 -->
<g id="node1" class="node"><title>Node14</title>
<polygon fill="#bfbfbf" stroke="black" points="0,-112 0,-131 153,-131 153,-112 0,-112"/>
<text text-anchor="middle" x="76.5" y="-119" font-family="Helvetica,sans-Serif" font-size="10.00">mom_barotropic::barotropic_init</text>
</g>
<!-- Node15 -->
<g id="node2" class="node"><title>Node15</title>
<g id="a_node2"><a xlink:href="namespacemom__variables.html#a26d7f4002ba856a1929f5a3962eb0e99" target="_top" xlink:title="alloc_BT_cont_type allocates the arrays contained within a BT_cont_type and initializes them to 0...">
<polygon fill="white" stroke="black" points="198.5,-169.5 198.5,-199.5 307.5,-199.5 307.5,-169.5 198.5,-169.5"/>
<text text-anchor="start" x="206.5" y="-187.5" font-family="Helvetica,sans-Serif" font-size="10.00">mom_variables::alloc</text>
<text text-anchor="middle" x="253" y="-176.5" font-family="Helvetica,sans-Serif" font-size="10.00">_bt_cont_type</text>
</a>
</g>
</g>
<!-- Node14&#45;&gt;Node15 -->
<g id="edge1" class="edge"><title>Node14&#45;&gt;Node15</title>
<path fill="none" stroke="midnightblue" d="M104.003,-131.068C129.579,-140.302 168.98,-154.527 200.699,-165.979"/>
<polygon fill="midnightblue" stroke="midnightblue" points="199.678,-169.331 210.272,-169.435 202.055,-162.747 199.678,-169.331"/>
</g>
<!-- Node16 -->
<g id="node3" class="node"><title>Node16</title>
<g id="a_node3"><a xlink:href="namespacemom__error__handler.html#a460cfb79a06c29fc249952c2a3710d67" target="_top" xlink:title="mom_error_handler::\lmom_error">
<polygon fill="white" stroke="black" points="359.5,-147.5 359.5,-177.5 465.5,-177.5 465.5,-147.5 359.5,-147.5"/>
<text text-anchor="start" x="367.5" y="-165.5" font-family="Helvetica,sans-Serif" font-size="10.00">mom_error_handler::</text>
<text text-anchor="middle" x="412.5" y="-154.5" font-family="Helvetica,sans-Serif" font-size="10.00">mom_error</text>
</a>
</g>
</g>
<!-- Node14&#45;&gt;Node16 -->
<g id="edge7" class="edge"><title>Node14&#45;&gt;Node16</title>
<path fill="none" stroke="midnightblue" d="M153.041,-113.532C200.608,-110.467 263.005,-110.042 317,-121.5 334.128,-125.135 336.949,-130.504 353,-137.5 357.388,-139.413 361.968,-141.395 366.548,-143.367"/>
<polygon fill="midnightblue" stroke="midnightblue" points="365.319,-146.648 375.888,-147.378 368.081,-140.216 365.319,-146.648"/>
</g>
<!-- Node18 -->
<g id="node5" class="node"><title>Node18</title>
<g id="a_node5"><a xlink:href="namespacemom__barotropic.html#aa60ee766449413de40cdbc19964a6556" target="_top" xlink:title="btcalc calculates the barotropic velocities from the full velocity and thickness fields, determines the fraction of the total water column in each layer at velocity points, and determines a corrective fictitious mass source that will drive the barotropic estimate of the free surface height toward the baroclinic estimate. ">
<polygon fill="white" stroke="black" points="193.5,-131 193.5,-150 312.5,-150 312.5,-131 193.5,-131"/>
<text text-anchor="middle" x="253" y="-138" font-family="Helvetica,sans-Serif" font-size="10.00">mom_barotropic::btcalc</text>
</a>
</g>
</g>
<!-- Node14&#45;&gt;Node18 -->
<g id="edge4" class="edge"><title>Node14&#45;&gt;Node18</title>
<path fill="none" stroke="midnightblue" d="M153.023,-129.723C163.073,-130.817 173.334,-131.935 183.259,-133.015"/>
<polygon fill="midnightblue" stroke="midnightblue" points="183.139,-136.523 193.459,-134.126 183.897,-129.564 183.139,-136.523"/>
</g>
<!-- Node19 -->
<g id="node6" class="node"><title>Node19</title>
<g id="a_node6"><a xlink:href="namespacemom__barotropic.html#a75ff2563aedd553f2799c1cfc320129e" target="_top" xlink:title="This subroutine determines the open face areas of cells for calculating the barotropic transport...">
<polygon fill="white" stroke="black" points="358.5,-0.5 358.5,-30.5 466.5,-30.5 466.5,-0.5 358.5,-0.5"/>
<text text-anchor="start" x="366.5" y="-18.5" font-family="Helvetica,sans-Serif" font-size="10.00">mom_barotropic::find</text>
<text text-anchor="middle" x="412.5" y="-7.5" font-family="Helvetica,sans-Serif" font-size="10.00">_face_areas</text>
</a>
</g>
</g>
<!-- Node14&#45;&gt;Node19 -->
<g id="edge6" class="edge"><title>Node14&#45;&gt;Node19</title>
<path fill="none" stroke="midnightblue" d="M87.9192,-111.865C106.586,-95.2221 147.658,-61.3521 189,-45.5 240.26,-25.8446 302.467,-18.7363 348.058,-16.3184"/>
<polygon fill="midnightblue" stroke="midnightblue" points="348.281,-19.8119 358.106,-15.8469 347.952,-12.8196 348.281,-19.8119"/>
</g>
<!-- Node20 -->
<g id="node7" class="node"><title>Node20</title>
<g id="a_node7"><a xlink:href="namespacemom__error__handler.html#a1c462df7b61f1296407b4af51dfeceab" target="_top" xlink:title="mom_error_handler::\lmom_mesg">
<polygon fill="white" stroke="black" points="200,-218.5 200,-248.5 306,-248.5 306,-218.5 200,-218.5"/>
<text text-anchor="start" x="208" y="-236.5" font-family="Helvetica,sans-Serif" font-size="10.00">mom_error_handler::</text>
<text text-anchor="middle" x="253" y="-225.5" font-family="Helvetica,sans-Serif" font-size="10.00">mom_mesg</text>
</a>
</g>
</g>
<!-- Node14&#45;&gt;Node20 -->
<g id="edge8" class="edge"><title>Node14&#45;&gt;Node20</title>
<path fill="none" stroke="midnightblue" d="M87.8401,-131.243C106.708,-148.621 148.52,-185.313 189,-208.5 192.462,-210.483 196.112,-212.379 199.84,-214.177"/>
<polygon fill="midnightblue" stroke="midnightblue" points="198.651,-217.481 209.203,-218.436 201.549,-211.11 198.651,-217.481"/>
</g>
<!-- Node21 -->
<g id="node8" class="node"><title>Node21</title>
<g id="a_node8"><a xlink:href="namespacemom__barotropic.html#a5bbc20372a46408b8e61cbc1fd49e8e0" target="_top" xlink:title="This subroutine automatically determines an optimal value for dtbt based on some state of the ocean...">
<polygon fill="white" stroke="black" points="189,-55 189,-74 317,-74 317,-55 189,-55"/>
<text text-anchor="middle" x="253" y="-62" font-family="Helvetica,sans-Serif" font-size="10.00">mom_barotropic::set_dtbt</text>
</a>
</g>
</g>
<!-- Node14&#45;&gt;Node21 -->
<g id="edge10" class="edge"><title>Node14&#45;&gt;Node21</title>
<path fill="none" stroke="midnightblue" d="M106.707,-111.959C135.899,-102.424 180.956,-87.7064 213.151,-77.1901"/>
<polygon fill="midnightblue" stroke="midnightblue" points="214.278,-80.5037 222.697,-74.0716 212.105,-73.8497 214.278,-80.5037"/>
</g>
<!-- Node15&#45;&gt;Node16 -->
<g id="edge2" class="edge"><title>Node15&#45;&gt;Node16</title>
<path fill="none" stroke="midnightblue" d="M307.762,-176.99C321.041,-175.135 335.378,-173.133 349.033,-171.226"/>
<polygon fill="midnightblue" stroke="midnightblue" points="349.892,-174.64 359.312,-169.79 348.924,-167.707 349.892,-174.64"/>
</g>
<!-- Node17 -->
<g id="node4" class="node"><title>Node17</title>
<g id="a_node4"><a xlink:href="namespacemom__error__handler.html#ad5f00a53059c72fe2332d1436c80ca71" target="_top" xlink:title="mom_error_handler::\lis_root_pe">
<polygon fill="white" stroke="black" points="508,-175.5 508,-205.5 614,-205.5 614,-175.5 508,-175.5"/>
<text text-anchor="start" x="516" y="-193.5" font-family="Helvetica,sans-Serif" font-size="10.00">mom_error_handler::</text>
<text text-anchor="middle" x="561" y="-182.5" font-family="Helvetica,sans-Serif" font-size="10.00">is_root_pe</text>
</a>
</g>
</g>
<!-- Node16&#45;&gt;Node17 -->
<g id="edge3" class="edge"><title>Node16&#45;&gt;Node17</title>
<path fill="none" stroke="midnightblue" d="M465.563,-172.451C475.909,-174.428 486.872,-176.523 497.524,-178.559"/>
<polygon fill="midnightblue" stroke="midnightblue" points="497.132,-182.048 507.611,-180.487 498.446,-175.172 497.132,-182.048"/>
</g>
<!-- Node18&#45;&gt;Node16 -->
<g id="edge5" class="edge"><title>Node18&#45;&gt;Node16</title>
<path fill="none" stroke="midnightblue" d="M312.647,-148.692C324.605,-150.362 337.225,-152.125 349.301,-153.812"/>
<polygon fill="midnightblue" stroke="midnightblue" points="348.903,-157.29 359.291,-155.207 349.871,-150.357 348.903,-157.29"/>
</g>
<!-- Node20&#45;&gt;Node17 -->
<g id="edge9" class="edge"><title>Node20&#45;&gt;Node17</title>
<path fill="none" stroke="midnightblue" d="M306.256,-226.157C359.285,-218.705 441.381,-207.169 497.747,-199.248"/>
<polygon fill="midnightblue" stroke="midnightblue" points="498.544,-202.67 507.96,-197.813 497.57,-195.739 498.544,-202.67"/>
</g>
<!-- Node21&#45;&gt;Node16 -->
<g id="edge11" class="edge"><title>Node21&#45;&gt;Node16</title>
<path fill="none" stroke="midnightblue" d="M289.523,-74.0055C299.026,-77.5857 308.897,-82.3329 317,-88.5 338.504,-104.867 331.827,-120.708 353,-137.5 355.082,-139.151 357.29,-140.713 359.581,-142.188"/>
<polygon fill="midnightblue" stroke="midnightblue" points="358.328,-145.504 368.743,-147.447 361.813,-139.433 358.328,-145.504"/>
</g>
<!-- Node21&#45;&gt;Node19 -->
<g id="edge13" class="edge"><title>Node21&#45;&gt;Node19</title>
<path fill="none" stroke="midnightblue" d="M284.741,-54.936C304.246,-48.8679 330.105,-40.823 353.377,-33.5826"/>
<polygon fill="midnightblue" stroke="midnightblue" points="354.658,-36.8497 363.167,-30.537 352.579,-30.1657 354.658,-36.8497"/>
</g>
<!-- Node22 -->
<g id="node9" class="node"><title>Node22</title>
<g id="a_node9"><a xlink:href="namespacemom__barotropic.html#a69af48d24759b679d0431f09dc9da503" target="_top" xlink:title="This subroutine uses the BTCL types to find typical or maximum face areas, which can then be used for...">
<polygon fill="white" stroke="black" points="359,-49.5 359,-79.5 466,-79.5 466,-49.5 359,-49.5"/>
<text text-anchor="start" x="367" y="-67.5" font-family="Helvetica,sans-Serif" font-size="10.00">mom_barotropic::bt</text>
<text text-anchor="middle" x="412.5" y="-56.5" font-family="Helvetica,sans-Serif" font-size="10.00">_cont_to_face_areas</text>
</a>
</g>
</g>
<!-- Node21&#45;&gt;Node22 -->
<g id="edge12" class="edge"><title>Node21&#45;&gt;Node22</title>
<path fill="none" stroke="midnightblue" d="M317.154,-64.5C327.552,-64.5 338.328,-64.5 348.717,-64.5"/>
<polygon fill="midnightblue" stroke="midnightblue" points="348.949,-68.0001 358.949,-64.5 348.949,-61.0001 348.949,-68.0001"/>
</g>
<!-- Node23 -->
<g id="node10" class="node"><title>Node23</title>
<g id="a_node10"><a xlink:href="namespacemom__tidal__forcing.html#a0a1564c68489a35802c626a07f4629d7" target="_top" xlink:title="This subroutine calculates returns the partial derivative of the local geopotential height with the i...">
<polygon fill="white" stroke="black" points="353,-98.5 353,-128.5 472,-128.5 472,-98.5 353,-98.5"/>
<text text-anchor="start" x="361" y="-116.5" font-family="Helvetica,sans-Serif" font-size="10.00">mom_tidal_forcing::</text>
<text text-anchor="middle" x="412.5" y="-105.5" font-family="Helvetica,sans-Serif" font-size="10.00">tidal_forcing_sensitivity</text>
</a>
</g>
</g>
<!-- Node21&#45;&gt;Node23 -->
<g id="edge14" class="edge"><title>Node21&#45;&gt;Node23</title>
<path fill="none" stroke="midnightblue" d="M284.741,-74.064C304.246,-80.1321 330.105,-88.177 353.377,-95.4174"/>
<polygon fill="midnightblue" stroke="midnightblue" points="352.579,-98.8343 363.167,-98.463 354.658,-92.1503 352.579,-98.8343"/>
</g>
</g>
</svg>
        <g id="navigator" transform="translate(0 0)" fill="#404254">
                <rect fill="#f2f5e9" fill-opacity="0.5" stroke="#606060" stroke-width=".5" x="0" y="0" width="60" height="60"/>
                <use id="zoomplus" xlink:href="#zoomPlus" x="17" y="9" onmousedown="handleZoom(evt,'in')"/>
                <use id="zoomminus" xlink:href="#zoomMin" x="42" y="9" onmousedown="handleZoom(evt,'out')"/>
                <use id="reset" xlink:href="#resetDef" x="30" y="36" onmousedown="handleReset()"/>
                <g id="arrowUp" xlink:href="#dirArrow" transform="translate(30 24)" onmousedown="handlePan(0,-1)">
                  <use xlink:href="#rim" fill="#404040">
                        <set attributeName="fill" to="#808080" begin="arrowUp.mouseover" end="arrowUp.mouseout"/>
                  </use>
                  <path fill="none" stroke="white" stroke-width="1.5" d="M0,-3.0v7 M-2.5,-0.5L0,-3.0L2.5,-0.5"/>
                </g>
                <g id="arrowRight" xlink:href="#dirArrow" transform="rotate(90) translate(36 -43)" onmousedown="handlePan(1,0)">
                  <use xlink:href="#rim" fill="#404040">
                        <set attributeName="fill" to="#808080" begin="arrowRight.mouseover" end="arrowRight.mouseout"/>
                  </use>
                  <path fill="none" stroke="white" stroke-width="1.5" d="M0,-3.0v7 M-2.5,-0.5L0,-3.0L2.5,-0.5"/>
                </g>
                <g id="arrowDown" xlink:href="#dirArrow" transform="rotate(180) translate(-30 -48)" onmousedown="handlePan(0,1)">
                  <use xlink:href="#rim" fill="#404040">
                        <set attributeName="fill" to="#808080" begin="arrowDown.mouseover" end="arrowDown.mouseout"/>
                  </use>
                  <path fill="none" stroke="white" stroke-width="1.5" d="M0,-3.0v7 M-2.5,-0.5L0,-3.0L2.5,-0.5"/>
                </g>
                <g id="arrowLeft" xlink:href="#dirArrow" transform="rotate(270) translate(-36 17)" onmousedown="handlePan(-1,0)">
                  <use xlink:href="#rim" fill="#404040">
                        <set attributeName="fill" to="#808080" begin="arrowLeft.mouseover" end="arrowLeft.mouseout"/>
                  </use>
                  <path fill="none" stroke="white" stroke-width="1.5" d="M0,-3.0v7 M-2.5,-0.5L0,-3.0L2.5,-0.5"/>
                </g>
        </g>
        <svg viewBox="0 0 15 15" width="100%" height="30px" preserveAspectRatio="xMaxYMin meet">
         <g id="arrow_out" transform="scale(0.3 0.3)">
          <a xlink:href="namespacemom__barotropic_a8bf1849bbd33dbc234b6eeae40392ded_cgraph_org.svg" target="_base">
           <rect id="button" ry="5" rx="5" y="6" x="6" height="38" width="38"
                fill="#f2f5e9" fill-opacity="0.5" stroke="#606060" stroke-width="1.0"/>
           <path id="arrow"
             d="M 11.500037,31.436501 C 11.940474,20.09759 22.043105,11.32322 32.158766,21.979434 L 37.068811,17.246167 C 37.068811,17.246167 37.088388,32 37.088388,32 L 22.160133,31.978069 C 22.160133,31.978069 26.997745,27.140456 26.997745,27.140456 C 18.528582,18.264221 13.291696,25.230495 11.500037,31.436501 z"
             style="fill:#404040;"/>
          </a>
         </g>
        </svg>
</svg>
