<?xml version="1.0" encoding="UTF-8" standalone="no"?>
<!DOCTYPE svg PUBLIC "-//W3C//DTD SVG 1.1//EN"
 "http://www.w3.org/Graphics/SVG/1.1/DTD/svg11.dtd">
<!-- Generated by graphviz version 2.38.0 (20140413.2041)
 -->
<!-- Title: mom_continuity_ppm::zonal_flux_adjust Pages: 1 -->
<svg width="556pt" height="61pt"
 viewBox="0.00 0.00 556.00 61.00" xmlns="http://www.w3.org/2000/svg" xmlns:xlink="http://www.w3.org/1999/xlink">
<g id="graph0" class="graph" transform="scale(1 1) rotate(0) translate(4 57)">
<title>mom_continuity_ppm::zonal_flux_adjust</title>
<polygon fill="white" stroke="none" points="-4,4 -4,-57 552,-57 552,4 -4,4"/>
<!-- Node102 -->
<g id="node1" class="node"><title>Node102</title>
<polygon fill="#bfbfbf" stroke="black" points="0,-0.5 0,-30.5 110,-30.5 110,-0.5 0,-0.5"/>
<text text-anchor="start" x="8" y="-18.5" font-family="Helvetica,sans-Serif" font-size="10.00">mom_continuity_ppm</text>
<text text-anchor="middle" x="55" y="-7.5" font-family="Helvetica,sans-Serif" font-size="10.00">::zonal_flux_adjust</text>
</g>
<!-- Node103 -->
<g id="node2" class="node"><title>Node103</title>
<g id="a_node2"><a xlink:href="namespacemom__continuity__ppm.html#aad852a51f55e24f5e276e4fbfe639394" target="_top" xlink:title="Sets a structure that describes the zonal barotropic volume or mass fluxes as a function of barotropi...">
<polygon fill="white" stroke="black" points="146,-22.5 146,-52.5 256,-52.5 256,-22.5 146,-22.5"/>
<text text-anchor="start" x="154" y="-40.5" font-family="Helvetica,sans-Serif" font-size="10.00">mom_continuity_ppm</text>
<text text-anchor="middle" x="201" y="-29.5" font-family="Helvetica,sans-Serif" font-size="10.00">::set_zonal_bt_cont</text>
</a>
</g>
</g>
<!-- Node102&#45;&gt;Node103 -->
<g id="edge1" class="edge"><title>Node102&#45;&gt;Node103</title>
<path fill="none" stroke="midnightblue" d="M119.991,-25.2763C128.561,-26.5857 137.284,-27.9184 145.667,-29.1992"/>
<polygon fill="midnightblue" stroke="midnightblue" points="120.444,-21.8051 110.03,-23.7546 119.387,-28.7248 120.444,-21.8051"/>
</g>
<!-- Node104 -->
<g id="node3" class="node"><title>Node104</title>
<g id="a_node3"><a xlink:href="namespacemom__continuity__ppm.html#aaee3d916bed27d4884d9473218c20fc9" target="_top" xlink:title="Calculates the mass or volume fluxes through the zonal faces, and other related quantities. ">
<polygon fill="white" stroke="black" points="292,-0.5 292,-30.5 402,-30.5 402,-0.5 292,-0.5"/>
<text text-anchor="start" x="300" y="-18.5" font-family="Helvetica,sans-Serif" font-size="10.00">mom_continuity_ppm</text>
<text text-anchor="middle" x="347" y="-7.5" font-family="Helvetica,sans-Serif" font-size="10.00">::zonal_mass_flux</text>
</a>
</g>
</g>
<!-- Node102&#45;&gt;Node104 -->
<g id="edge4" class="edge"><title>Node102&#45;&gt;Node104</title>
<path fill="none" stroke="midnightblue" d="M120.309,-13.897C128.945,-13.7326 137.688,-13.5923 146,-13.5 194.886,-12.9569 207.114,-12.9569 256,-13.5 267.565,-13.6285 279.964,-13.8498 291.748,-14.0995"/>
<polygon fill="midnightblue" stroke="midnightblue" points="120.179,-10.3988 110.252,-14.0995 120.32,-17.3974 120.179,-10.3988"/>
</g>
<!-- Node103&#45;&gt;Node104 -->
<g id="edge2" class="edge"><title>Node103&#45;&gt;Node104</title>
<path fill="none" stroke="midnightblue" d="M265.991,-27.7237C274.561,-26.4143 283.284,-25.0816 291.667,-23.8008"/>
<polygon fill="midnightblue" stroke="midnightblue" points="265.387,-24.2752 256.03,-29.2454 266.444,-31.1949 265.387,-24.2752"/>
</g>
<!-- Node105 -->
<g id="node4" class="node"><title>Node105</title>
<g id="a_node4"><a xlink:href="namespacemom__continuity__ppm.html#a59586aae1668f03f3a78d58f5712cc0f" target="_top" xlink:title="Time steps the layer thicknesses, using a monotonically limit, directionally split PPM scheme...">
<polygon fill="white" stroke="black" points="438,-0.5 438,-30.5 548,-30.5 548,-0.5 438,-0.5"/>
<text text-anchor="start" x="446" y="-18.5" font-family="Helvetica,sans-Serif" font-size="10.00">mom_continuity_ppm</text>
<text text-anchor="middle" x="493" y="-7.5" font-family="Helvetica,sans-Serif" font-size="10.00">::continuity_ppm</text>
</a>
</g>
</g>
<!-- Node104&#45;&gt;Node105 -->
<g id="edge3" class="edge"><title>Node104&#45;&gt;Node105</title>
<path fill="none" stroke="midnightblue" d="M412.27,-15.5C420.75,-15.5 429.375,-15.5 437.667,-15.5"/>
<polygon fill="midnightblue" stroke="midnightblue" points="412.03,-12.0001 402.03,-15.5 412.03,-19.0001 412.03,-12.0001"/>
</g>
</g>
</svg>
