<?xml version="1.0" encoding="UTF-8" standalone="no"?>
<!DOCTYPE svg PUBLIC "-//W3C//DTD SVG 1.1//EN"
 "http://www.w3.org/Graphics/SVG/1.1/DTD/svg11.dtd">
<!-- Generated by graphviz version 2.38.0 (20140413.2041)
 -->
<!-- Title: mom_document::real_array_string Pages: 1 -->
<svg width="512pt" height="78pt"
 viewBox="0.00 0.00 512.00 77.50" xmlns="http://www.w3.org/2000/svg" xmlns:xlink="http://www.w3.org/1999/xlink">
<g id="graph0" class="graph" transform="scale(1 1) rotate(0) translate(4 73.5)">
<title>mom_document::real_array_string</title>
<polygon fill="white" stroke="none" points="-4,4 -4,-73.5 508,-73.5 508,4 -4,4"/>
<!-- Node227 -->
<g id="node1" class="node"><title>Node227</title>
<polygon fill="#bfbfbf" stroke="black" points="0,-22.5 0,-52.5 108,-52.5 108,-22.5 0,-22.5"/>
<text text-anchor="start" x="8" y="-40.5" font-family="Helvetica,sans-Serif" font-size="10.00">mom_document::real</text>
<text text-anchor="middle" x="54" y="-29.5" font-family="Helvetica,sans-Serif" font-size="10.00">_array_string</text>
</g>
<!-- Node228 -->
<g id="node2" class="node"><title>Node228</title>
<g id="a_node2"><a xlink:href="namespacemom__document.html#a546c1393f07adc49a43fe5f6af171730" target="_top" xlink:title="mom_document::int_string">
<polygon fill="white" stroke="black" points="144,-50 144,-69 276,-69 276,-50 144,-50"/>
<text text-anchor="middle" x="210" y="-57" font-family="Helvetica,sans-Serif" font-size="10.00">mom_document::int_string</text>
</a>
</g>
</g>
<!-- Node227&#45;&gt;Node228 -->
<g id="edge1" class="edge"><title>Node227&#45;&gt;Node228</title>
<path fill="none" stroke="midnightblue" d="M108.43,-45.1328C116.672,-46.3102 125.312,-47.5446 133.921,-48.7745"/>
<polygon fill="midnightblue" stroke="midnightblue" points="133.592,-52.2629 143.987,-50.2124 134.582,-45.3332 133.592,-52.2629"/>
</g>
<!-- Node229 -->
<g id="node3" class="node"><title>Node229</title>
<g id="a_node3"><a xlink:href="namespacemom__document.html#a966b8926bf40ee436654a0048b2bf42a" target="_top" xlink:title="mom_document::real\l_string">
<polygon fill="white" stroke="black" points="156,-0.5 156,-30.5 264,-30.5 264,-0.5 156,-0.5"/>
<text text-anchor="start" x="164" y="-18.5" font-family="Helvetica,sans-Serif" font-size="10.00">mom_document::real</text>
<text text-anchor="middle" x="210" y="-7.5" font-family="Helvetica,sans-Serif" font-size="10.00">_string</text>
</a>
</g>
</g>
<!-- Node227&#45;&gt;Node229 -->
<g id="edge2" class="edge"><title>Node227&#45;&gt;Node229</title>
<path fill="none" stroke="midnightblue" d="M108.43,-29.8672C120.442,-28.1511 133.302,-26.3139 145.676,-24.5463"/>
<polygon fill="midnightblue" stroke="midnightblue" points="146.521,-27.9612 155.925,-23.0821 145.531,-21.0316 146.521,-27.9612"/>
</g>
<!-- Node230 -->
<g id="node4" class="node"><title>Node230</title>
<g id="a_node4"><a xlink:href="namespacemom__document.html#acbd7bf94c8e359a48ace95fe1f3d3bb4" target="_top" xlink:title="mom_document::testformattedfloatisreal">
<polygon fill="white" stroke="black" points="312,-6 312,-25 504,-25 504,-6 312,-6"/>
<text text-anchor="middle" x="408" y="-13" font-family="Helvetica,sans-Serif" font-size="10.00">mom_document::testformattedfloatisreal</text>
</a>
</g>
</g>
<!-- Node229&#45;&gt;Node230 -->
<g id="edge3" class="edge"><title>Node229&#45;&gt;Node230</title>
<path fill="none" stroke="midnightblue" d="M264.04,-15.5C275.875,-15.5 288.827,-15.5 301.948,-15.5"/>
<polygon fill="midnightblue" stroke="midnightblue" points="302,-19.0001 312,-15.5 302,-12.0001 302,-19.0001"/>
</g>
</g>
</svg>
