<?xml version="1.0" encoding="UTF-8" standalone="no"?>
<!DOCTYPE svg PUBLIC "-//W3C//DTD SVG 1.1//EN"
 "http://www.w3.org/Graphics/SVG/1.1/DTD/svg11.dtd">
<!-- Generated by graphviz version 2.38.0 (20140413.2041)
 -->
<!-- Title: mom_document::doc_closeblock Pages: 1 -->
<svg width="1168pt" height="133pt"
 viewBox="0.00 0.00 1168.00 132.50" xmlns="http://www.w3.org/2000/svg" xmlns:xlink="http://www.w3.org/1999/xlink">
<g id="graph0" class="graph" transform="scale(1 1) rotate(0) translate(4 128.5)">
<title>mom_document::doc_closeblock</title>
<polygon fill="white" stroke="none" points="-4,4 -4,-128.5 1164,-128.5 1164,4 -4,4"/>
<!-- Node15 -->
<g id="node1" class="node"><title>Node15</title>
<polygon fill="#bfbfbf" stroke="black" points="0,-55.5 0,-74.5 160,-74.5 160,-55.5 0,-55.5"/>
<text text-anchor="middle" x="80" y="-62.5" font-family="Helvetica,sans-Serif" font-size="10.00">mom_document::doc_closeblock</text>
</g>
<!-- Node16 -->
<g id="node2" class="node"><title>Node16</title>
<g id="a_node2"><a xlink:href="namespacemom__file__parser.html#a0d01b9a66f5ac12b657c00f1295351bb" target="_top" xlink:title="mom_file_parser::closeparameterblock">
<polygon fill="white" stroke="black" points="196,-55.5 196,-74.5 381,-74.5 381,-55.5 196,-55.5"/>
<text text-anchor="middle" x="288.5" y="-62.5" font-family="Helvetica,sans-Serif" font-size="10.00">mom_file_parser::closeparameterblock</text>
</a>
</g>
</g>
<!-- Node15&#45;&gt;Node16 -->
<g id="edge1" class="edge"><title>Node15&#45;&gt;Node16</title>
<path fill="none" stroke="midnightblue" d="M170.4,-65C178.787,-65 187.297,-65 195.705,-65"/>
<polygon fill="midnightblue" stroke="midnightblue" points="170.248,-61.5001 160.248,-65 170.248,-68.5001 170.248,-61.5001"/>
</g>
<!-- Node17 -->
<g id="node3" class="node"><title>Node17</title>
<g id="a_node3"><a xlink:href="namespacemom__diffconvection.html#ac36d9d7fd69e4422e7de01242094ff34" target="_top" xlink:title="mom_diffconvection\l::diffconvection_init">
<polygon fill="white" stroke="black" points="435,-94 435,-124 539,-124 539,-94 435,-94"/>
<text text-anchor="start" x="443" y="-112" font-family="Helvetica,sans-Serif" font-size="10.00">mom_diffconvection</text>
<text text-anchor="middle" x="487" y="-101" font-family="Helvetica,sans-Serif" font-size="10.00">::diffconvection_init</text>
</a>
</g>
</g>
<!-- Node16&#45;&gt;Node17 -->
<g id="edge2" class="edge"><title>Node16&#45;&gt;Node17</title>
<path fill="none" stroke="midnightblue" d="M341.998,-76.7554C370.732,-83.1894 406.187,-91.1285 434.727,-97.519"/>
<polygon fill="midnightblue" stroke="midnightblue" points="342.661,-73.3171 332.138,-74.5473 341.131,-80.1479 342.661,-73.3171"/>
</g>
<!-- Node18 -->
<g id="node4" class="node"><title>Node18</title>
<g id="a_node4"><a xlink:href="namespacemom__kpp.html#a9c834424b6e067e280928db3700ec77e" target="_top" xlink:title="Initialize the CVmix KPP module and set up diagnostics Returns True if KPP is to be used...">
<polygon fill="white" stroke="black" points="437.5,-55.5 437.5,-74.5 536.5,-74.5 536.5,-55.5 437.5,-55.5"/>
<text text-anchor="middle" x="487" y="-62.5" font-family="Helvetica,sans-Serif" font-size="10.00">mom_kpp::kpp_init</text>
</a>
</g>
</g>
<!-- Node16&#45;&gt;Node18 -->
<g id="edge3" class="edge"><title>Node16&#45;&gt;Node18</title>
<path fill="none" stroke="midnightblue" d="M391.158,-65C407.256,-65 423.232,-65 437.355,-65"/>
<polygon fill="midnightblue" stroke="midnightblue" points="391.134,-61.5001 381.134,-65 391.134,-68.5001 391.134,-61.5001"/>
</g>
<!-- Node19 -->
<g id="node5" class="node"><title>Node19</title>
<g id="a_node5"><a xlink:href="namespacebaroclinic__zone__initialization.html#a8a7c5063ad937041a281c8c9dd1465ec" target="_top" xlink:title="Reads the parameters unique to this module. ">
<polygon fill="white" stroke="black" points="417,-6 417,-36 557,-36 557,-6 417,-6"/>
<text text-anchor="start" x="425" y="-24" font-family="Helvetica,sans-Serif" font-size="10.00">baroclinic_zone_initialization</text>
<text text-anchor="middle" x="487" y="-13" font-family="Helvetica,sans-Serif" font-size="10.00">::bcz_params</text>
</a>
</g>
</g>
<!-- Node16&#45;&gt;Node19 -->
<g id="edge4" class="edge"><title>Node16&#45;&gt;Node19</title>
<path fill="none" stroke="midnightblue" d="M341.941,-53.2576C365.513,-47.9793 393.618,-41.686 418.719,-36.0654"/>
<polygon fill="midnightblue" stroke="midnightblue" points="341.131,-49.8521 332.138,-55.4527 342.661,-56.6829 341.131,-49.8521"/>
</g>
<!-- Node20 -->
<g id="node6" class="node"><title>Node20</title>
<g id="a_node6"><a xlink:href="namespacebaroclinic__zone__initialization.html#aa5348a29c9f838cd0f61f50ff3148568" target="_top" xlink:title="Initialization of temperature and salinity with the baroclinic zone initial conditions. ">
<polygon fill="white" stroke="black" points="593,-0.5 593,-41.5 758,-41.5 758,-0.5 593,-0.5"/>
<text text-anchor="start" x="601" y="-29.5" font-family="Helvetica,sans-Serif" font-size="10.00">baroclinic_zone_initialization</text>
<text text-anchor="start" x="601" y="-18.5" font-family="Helvetica,sans-Serif" font-size="10.00">::baroclinic_zone_init_temperature</text>
<text text-anchor="middle" x="675.5" y="-7.5" font-family="Helvetica,sans-Serif" font-size="10.00">_salinity</text>
</a>
</g>
</g>
<!-- Node19&#45;&gt;Node20 -->
<g id="edge5" class="edge"><title>Node19&#45;&gt;Node20</title>
<path fill="none" stroke="midnightblue" d="M567.364,-21C575.791,-21 584.373,-21 592.826,-21"/>
<polygon fill="midnightblue" stroke="midnightblue" points="567.181,-17.5001 557.181,-21 567.181,-24.5001 567.181,-17.5001"/>
</g>
<!-- Node21 -->
<g id="node7" class="node"><title>Node21</title>
<g id="a_node7"><a xlink:href="namespacemom__state__initialization.html#af4e854627c6572332ba3fd895f169321" target="_top" xlink:title="mom_state_initialization\l::mom_initialize_state">
<polygon fill="white" stroke="black" points="794,-6 794,-36 916,-36 916,-6 794,-6"/>
<text text-anchor="start" x="802" y="-24" font-family="Helvetica,sans-Serif" font-size="10.00">mom_state_initialization</text>
<text text-anchor="middle" x="855" y="-13" font-family="Helvetica,sans-Serif" font-size="10.00">::mom_initialize_state</text>
</a>
</g>
</g>
<!-- Node20&#45;&gt;Node21 -->
<g id="edge6" class="edge"><title>Node20&#45;&gt;Node21</title>
<path fill="none" stroke="midnightblue" d="M768.391,-21C777.043,-21 785.654,-21 793.897,-21"/>
<polygon fill="midnightblue" stroke="midnightblue" points="768.236,-17.5001 758.236,-21 768.236,-24.5001 768.236,-17.5001"/>
</g>
<!-- Node22 -->
<g id="node8" class="node"><title>Node22</title>
<g id="a_node8"><a xlink:href="namespacemom.html#a0be2869fef30e1e0604facfe1b41555d" target="_top" xlink:title="This subroutine initializes MOM. ">
<polygon fill="white" stroke="black" points="952,-11.5 952,-30.5 1059,-30.5 1059,-11.5 952,-11.5"/>
<text text-anchor="middle" x="1005.5" y="-18.5" font-family="Helvetica,sans-Serif" font-size="10.00">mom::initialize_mom</text>
</a>
</g>
</g>
<!-- Node21&#45;&gt;Node22 -->
<g id="edge7" class="edge"><title>Node21&#45;&gt;Node22</title>
<path fill="none" stroke="midnightblue" d="M926.657,-21C935.116,-21 943.636,-21 951.779,-21"/>
<polygon fill="midnightblue" stroke="midnightblue" points="926.401,-17.5001 916.401,-21 926.401,-24.5001 926.401,-17.5001"/>
</g>
<!-- Node23 -->
<g id="node9" class="node"><title>Node23</title>
<g id="a_node9"><a xlink:href="MOM__driver_8F90.html#a08fffeb2d8e8acbf9ed4609be6d258c6" target="_top" xlink:title="mom_main">
<polygon fill="white" stroke="black" points="1095,-11.5 1095,-30.5 1160,-30.5 1160,-11.5 1095,-11.5"/>
<text text-anchor="middle" x="1127.5" y="-18.5" font-family="Helvetica,sans-Serif" font-size="10.00">mom_main</text>
</a>
</g>
</g>
<!-- Node22&#45;&gt;Node23 -->
<g id="edge8" class="edge"><title>Node22&#45;&gt;Node23</title>
<path fill="none" stroke="midnightblue" d="M1069.21,-21C1078.13,-21 1086.98,-21 1094.96,-21"/>
<polygon fill="midnightblue" stroke="midnightblue" points="1069.13,-17.5001 1059.13,-21 1069.13,-24.5001 1069.13,-17.5001"/>
</g>
</g>
</svg>
