<?xml version="1.0" encoding="UTF-8" standalone="no"?>
<!DOCTYPE svg PUBLIC "-//W3C//DTD SVG 1.1//EN"
 "http://www.w3.org/Graphics/SVG/1.1/DTD/svg11.dtd">
<!-- Generated by graphviz version 2.38.0 (20140413.2041)
 -->
<!-- Title: mom_tracer_registry::mom_tracer_chkinv Pages: 1 -->
<svg width="280pt" height="137pt"
 viewBox="0.00 0.00 280.00 137.00" xmlns="http://www.w3.org/2000/svg" xmlns:xlink="http://www.w3.org/1999/xlink">
<g id="graph0" class="graph" transform="scale(1 1) rotate(0) translate(4 133)">
<title>mom_tracer_registry::mom_tracer_chkinv</title>
<polygon fill="white" stroke="none" points="-4,4 -4,-133 276,-133 276,4 -4,4"/>
<!-- Node29 -->
<g id="node1" class="node"><title>Node29</title>
<polygon fill="#bfbfbf" stroke="black" points="0,-49.5 0,-79.5 108,-79.5 108,-49.5 0,-49.5"/>
<text text-anchor="start" x="8" y="-67.5" font-family="Helvetica,sans-Serif" font-size="10.00">mom_tracer_registry</text>
<text text-anchor="middle" x="54" y="-56.5" font-family="Helvetica,sans-Serif" font-size="10.00">::mom_tracer_chkinv</text>
</g>
<!-- Node30 -->
<g id="node2" class="node"><title>Node30</title>
<g id="a_node2"><a xlink:href="namespacemom__ale.html#a1e8b6f82cdc9d20abf0506b3ab7004b6" target="_top" xlink:title="Regrid/remap stored fields used for offline tracer integrations. These input fields are assumed to ha...">
<polygon fill="white" stroke="black" points="154.5,-98.5 154.5,-128.5 261.5,-128.5 261.5,-98.5 154.5,-98.5"/>
<text text-anchor="start" x="162.5" y="-116.5" font-family="Helvetica,sans-Serif" font-size="10.00">mom_ale::ale_offline</text>
<text text-anchor="middle" x="208" y="-105.5" font-family="Helvetica,sans-Serif" font-size="10.00">_inputs</text>
</a>
</g>
</g>
<!-- Node29&#45;&gt;Node30 -->
<g id="edge1" class="edge"><title>Node29&#45;&gt;Node30</title>
<path fill="none" stroke="midnightblue" d="M111.64,-82.7591C127.672,-87.9273 144.936,-93.4924 160.309,-98.4484"/>
<polygon fill="midnightblue" stroke="midnightblue" points="112.437,-79.3385 101.845,-79.6014 110.289,-86.0009 112.437,-79.3385"/>
</g>
<!-- Node31 -->
<g id="node3" class="node"><title>Node31</title>
<g id="a_node3"><a xlink:href="namespacemom__offline__main.html#ae85546d26ceb447742abe3c528cad2d7" target="_top" xlink:title="3D advection is done by doing flux&#45;limited nonlinear horizontal advection interspersed with an ALE re...">
<polygon fill="white" stroke="black" points="144,-49.5 144,-79.5 272,-79.5 272,-49.5 144,-49.5"/>
<text text-anchor="start" x="152" y="-67.5" font-family="Helvetica,sans-Serif" font-size="10.00">mom_offline_main::offline</text>
<text text-anchor="middle" x="208" y="-56.5" font-family="Helvetica,sans-Serif" font-size="10.00">_advection_ale</text>
</a>
</g>
</g>
<!-- Node29&#45;&gt;Node31 -->
<g id="edge2" class="edge"><title>Node29&#45;&gt;Node31</title>
<path fill="none" stroke="midnightblue" d="M118.35,-64.5C126.814,-64.5 135.493,-64.5 143.952,-64.5"/>
<polygon fill="midnightblue" stroke="midnightblue" points="118.162,-61.0001 108.162,-64.5 118.162,-68.0001 118.162,-61.0001"/>
</g>
<!-- Node32 -->
<g id="node4" class="node"><title>Node32</title>
<g id="a_node4"><a xlink:href="namespacemom__offline__main.html#a312c47e83e64a6bdf064526f77a8a8ec" target="_top" xlink:title="In the case where the main advection routine did not converge, something needs to be done with the re...">
<polygon fill="white" stroke="black" points="144,-0.5 144,-30.5 272,-30.5 272,-0.5 144,-0.5"/>
<text text-anchor="start" x="152" y="-18.5" font-family="Helvetica,sans-Serif" font-size="10.00">mom_offline_main::offline</text>
<text text-anchor="middle" x="208" y="-7.5" font-family="Helvetica,sans-Serif" font-size="10.00">_redistribute_residual</text>
</a>
</g>
</g>
<!-- Node29&#45;&gt;Node32 -->
<g id="edge3" class="edge"><title>Node29&#45;&gt;Node32</title>
<path fill="none" stroke="midnightblue" d="M111.64,-46.2409C127.672,-41.0727 144.936,-35.5076 160.309,-30.5516"/>
<polygon fill="midnightblue" stroke="midnightblue" points="110.289,-42.9991 101.845,-49.3986 112.437,-49.6615 110.289,-42.9991"/>
</g>
</g>
</svg>
