<?xml version="1.0" encoding="UTF-8" standalone="no"?>
<!DOCTYPE svg PUBLIC "-//W3C//DTD SVG 1.1//EN"
 "http://www.w3.org/Graphics/SVG/1.1/DTD/svg11.dtd">
<!-- Generated by graphviz version 2.38.0 (20140413.2041)
 -->
<!-- Title: mom_int_tide_input::int_tide_input_init Pages: 1 -->
<svg width="1123pt" height="320pt"
 viewBox="0.00 0.00 1123.00 320.00" xmlns="http://www.w3.org/2000/svg" xmlns:xlink="http://www.w3.org/1999/xlink">
<g id="graph0" class="graph" transform="scale(1 1) rotate(0) translate(4 316)">
<title>mom_int_tide_input::int_tide_input_init</title>
<polygon fill="white" stroke="none" points="-4,4 -4,-316 1119,-316 1119,4 -4,4"/>
<!-- Node8 -->
<g id="node1" class="node"><title>Node8</title>
<polygon fill="#bfbfbf" stroke="black" points="0,-18 0,-48 101,-48 101,-18 0,-18"/>
<text text-anchor="start" x="8" y="-36" font-family="Helvetica,sans-Serif" font-size="10.00">mom_int_tide_input</text>
<text text-anchor="middle" x="50.5" y="-25" font-family="Helvetica,sans-Serif" font-size="10.00">::int_tide_input_init</text>
</g>
<!-- Node9 -->
<g id="node2" class="node"><title>Node9</title>
<g id="a_node2"><a xlink:href="namespacemom__error__handler.html#a460cfb79a06c29fc249952c2a3710d67" target="_top" xlink:title="mom_error_handler::\lmom_error">
<polygon fill="white" stroke="black" points="867,-137 867,-167 973,-167 973,-137 867,-137"/>
<text text-anchor="start" x="875" y="-155" font-family="Helvetica,sans-Serif" font-size="10.00">mom_error_handler::</text>
<text text-anchor="middle" x="920" y="-144" font-family="Helvetica,sans-Serif" font-size="10.00">mom_error</text>
</a>
</g>
</g>
<!-- Node8&#45;&gt;Node9 -->
<g id="edge1" class="edge"><title>Node8&#45;&gt;Node9</title>
<path fill="none" stroke="midnightblue" d="M101.069,-23.7638C157.855,-14.0012 253.798,-0 337,-0 337,-0 337,-0 631,-0 658.157,-0 748.992,-24.535 831,-74 856.468,-89.3619 881.449,-112.501 898.249,-129.59"/>
<polygon fill="midnightblue" stroke="midnightblue" points="895.903,-132.199 905.365,-136.966 900.941,-127.339 895.903,-132.199"/>
</g>
<!-- Node11 -->
<g id="node4" class="node"><title>Node11</title>
<g id="a_node4"><a xlink:href="namespacemom__diag__mediator.html#aa791f75f899ae9b7cd4756165a9c2a1b" target="_top" xlink:title="Returns the &quot;diag_mediator&quot; handle for a group (native, CMOR, z&#45;coord, ...) of diagnostics derived fr...">
<polygon fill="white" stroke="black" points="137,-51 137,-81 247,-81 247,-51 137,-51"/>
<text text-anchor="start" x="145" y="-69" font-family="Helvetica,sans-Serif" font-size="10.00">mom_diag_mediator::</text>
<text text-anchor="middle" x="192" y="-58" font-family="Helvetica,sans-Serif" font-size="10.00">register_diag_field</text>
</a>
</g>
</g>
<!-- Node8&#45;&gt;Node11 -->
<g id="edge3" class="edge"><title>Node8&#45;&gt;Node11</title>
<path fill="none" stroke="midnightblue" d="M101.075,-44.7275C109.496,-46.7196 118.347,-48.8132 127.075,-50.8779"/>
<polygon fill="midnightblue" stroke="midnightblue" points="126.31,-54.2935 136.847,-53.1897 127.922,-47.4815 126.31,-54.2935"/>
</g>
<!-- Node10 -->
<g id="node3" class="node"><title>Node10</title>
<g id="a_node3"><a xlink:href="namespacemom__error__handler.html#ad5f00a53059c72fe2332d1436c80ca71" target="_top" xlink:title="mom_error_handler::\lis_root_pe">
<polygon fill="white" stroke="black" points="1009,-243 1009,-273 1115,-273 1115,-243 1009,-243"/>
<text text-anchor="start" x="1017" y="-261" font-family="Helvetica,sans-Serif" font-size="10.00">mom_error_handler::</text>
<text text-anchor="middle" x="1062" y="-250" font-family="Helvetica,sans-Serif" font-size="10.00">is_root_pe</text>
</a>
</g>
</g>
<!-- Node9&#45;&gt;Node10 -->
<g id="edge2" class="edge"><title>Node9&#45;&gt;Node10</title>
<path fill="none" stroke="midnightblue" d="M941.059,-167.187C965.178,-185.449 1005.8,-216.207 1033,-236.801"/>
<polygon fill="midnightblue" stroke="midnightblue" points="1030.89,-239.595 1040.98,-242.841 1035.12,-234.014 1030.89,-239.595"/>
</g>
<!-- Node12 -->
<g id="node5" class="node"><title>Node12</title>
<g id="a_node5"><a xlink:href="namespacemom__diag__mediator.html#ae50b35cba800ac5fd8975929fd2b9f4a" target="_top" xlink:title="Returns True if either the native of CMOr version of the diagnostic were registered. Updates &#39;dm_id&#39; after calling register_diag_field_expand_axes() for both native and CMOR variants of the field. ">
<polygon fill="white" stroke="black" points="283,-89.5 283,-130.5 393,-130.5 393,-89.5 283,-89.5"/>
<text text-anchor="start" x="291" y="-118.5" font-family="Helvetica,sans-Serif" font-size="10.00">mom_diag_mediator::</text>
<text text-anchor="start" x="291" y="-107.5" font-family="Helvetica,sans-Serif" font-size="10.00">register_diag_field</text>
<text text-anchor="middle" x="338" y="-96.5" font-family="Helvetica,sans-Serif" font-size="10.00">_expand_cmor</text>
</a>
</g>
</g>
<!-- Node11&#45;&gt;Node12 -->
<g id="edge4" class="edge"><title>Node11&#45;&gt;Node12</title>
<path fill="none" stroke="midnightblue" d="M242.154,-81.0192C252.033,-84.0378 262.552,-87.252 272.854,-90.3998"/>
<polygon fill="midnightblue" stroke="midnightblue" points="272.05,-93.814 282.637,-93.389 274.096,-87.1195 272.05,-93.814"/>
</g>
<!-- Node12&#45;&gt;Node10 -->
<g id="edge15" class="edge"><title>Node12&#45;&gt;Node10</title>
<path fill="none" stroke="midnightblue" d="M348.126,-130.741C361.752,-159.435 390.048,-211.081 429,-241 503.805,-298.457 534.676,-312 629,-312 629,-312 629,-312 777,-312 856.068,-312 945.374,-291.55 1002.37,-275.819"/>
<polygon fill="midnightblue" stroke="midnightblue" points="1003.6,-279.111 1012.28,-273.042 1001.71,-272.371 1003.6,-279.111"/>
</g>
<!-- Node13 -->
<g id="node6" class="node"><title>Node13</title>
<g id="a_node6"><a xlink:href="namespacemom__diag__mediator.html#a8415b33a337b1fbc7535688eca85ab37" target="_top" xlink:title="Create a diagnostic type and attached to list. ">
<polygon fill="white" stroke="black" points="429,-141 429,-171 539,-171 539,-141 429,-141"/>
<text text-anchor="start" x="437" y="-159" font-family="Helvetica,sans-Serif" font-size="10.00">mom_diag_mediator::</text>
<text text-anchor="middle" x="484" y="-148" font-family="Helvetica,sans-Serif" font-size="10.00">add_diag_to_list</text>
</a>
</g>
</g>
<!-- Node12&#45;&gt;Node13 -->
<g id="edge5" class="edge"><title>Node12&#45;&gt;Node13</title>
<path fill="none" stroke="midnightblue" d="M393.03,-127.26C403.784,-130.695 415.109,-134.313 425.96,-137.779"/>
<polygon fill="midnightblue" stroke="midnightblue" points="425.171,-141.201 435.762,-140.91 427.301,-134.533 425.171,-141.201"/>
</g>
<!-- Node19 -->
<g id="node12" class="node"><title>Node19</title>
<g id="a_node12"><a xlink:href="namespacemom__diag__mediator.html#ae0f04c145cb120fc2ab6cbfe9f166392" target="_top" xlink:title="Attaches &quot;cell_methods&quot; attribute to a variable based on defaults for axes_grp or optional arguments...">
<polygon fill="white" stroke="black" points="721,-84 721,-114 831,-114 831,-84 721,-84"/>
<text text-anchor="start" x="729" y="-102" font-family="Helvetica,sans-Serif" font-size="10.00">mom_diag_mediator::</text>
<text text-anchor="middle" x="776" y="-91" font-family="Helvetica,sans-Serif" font-size="10.00">attach_cell_methods</text>
</a>
</g>
</g>
<!-- Node12&#45;&gt;Node19 -->
<g id="edge13" class="edge"><title>Node12&#45;&gt;Node19</title>
<path fill="none" stroke="midnightblue" d="M393.338,-108.629C473.843,-106.598 624.521,-102.796 710.507,-100.627"/>
<polygon fill="midnightblue" stroke="midnightblue" points="710.755,-104.122 720.664,-100.371 710.578,-97.1243 710.755,-104.122"/>
</g>
<!-- Node20 -->
<g id="node13" class="node"><title>Node20</title>
<g id="a_node13"><a xlink:href="namespacemom__diag__mediator.html#a65fe8d329cf5dbfd08c98874a7a64407" target="_top" xlink:title="Log a diagnostic to the available diagnostics file. ">
<polygon fill="white" stroke="black" points="429,-29 429,-59 539,-59 539,-29 429,-29"/>
<text text-anchor="start" x="437" y="-47" font-family="Helvetica,sans-Serif" font-size="10.00">mom_diag_mediator::</text>
<text text-anchor="middle" x="484" y="-36" font-family="Helvetica,sans-Serif" font-size="10.00">log_available_diag</text>
</a>
</g>
</g>
<!-- Node12&#45;&gt;Node20 -->
<g id="edge16" class="edge"><title>Node12&#45;&gt;Node20</title>
<path fill="none" stroke="midnightblue" d="M383.773,-89.479C402.053,-81.1008 423.078,-71.4641 441.057,-63.2241"/>
<polygon fill="midnightblue" stroke="midnightblue" points="442.517,-66.4048 450.15,-59.0564 439.601,-60.0413 442.517,-66.4048"/>
</g>
<!-- Node22 -->
<g id="node15" class="node"><title>Node22</title>
<g id="a_node15"><a xlink:href="namespacemom__diag__mediator.html#aca4a32fea8dade9f51e076a56b9bad2b" target="_top" xlink:title="Returns an FMS id from register_diag_field_fms (the diag_manager routine) after expanding axes (axes&#45;...">
<polygon fill="white" stroke="black" points="429,-190.5 429,-231.5 539,-231.5 539,-190.5 429,-190.5"/>
<text text-anchor="start" x="437" y="-219.5" font-family="Helvetica,sans-Serif" font-size="10.00">mom_diag_mediator::</text>
<text text-anchor="start" x="437" y="-208.5" font-family="Helvetica,sans-Serif" font-size="10.00">register_diag_field</text>
<text text-anchor="middle" x="484" y="-197.5" font-family="Helvetica,sans-Serif" font-size="10.00">_expand_axes</text>
</a>
</g>
</g>
<!-- Node12&#45;&gt;Node22 -->
<g id="edge18" class="edge"><title>Node12&#45;&gt;Node22</title>
<path fill="none" stroke="midnightblue" d="M363.517,-130.58C381.23,-145.069 405.989,-164.557 429,-180 431.565,-181.722 434.231,-183.445 436.942,-185.149"/>
<polygon fill="midnightblue" stroke="midnightblue" points="435.333,-188.267 445.691,-190.495 438.983,-182.294 435.333,-188.267"/>
</g>
<!-- Node14 -->
<g id="node7" class="node"><title>Node14</title>
<g id="a_node7"><a xlink:href="namespacemom__diag__mediator.html#a1b0bed2113a0c268eafd1bafbb48bd4f" target="_top" xlink:title="mom_diag_mediator::\lalloc_diag_with_id">
<polygon fill="white" stroke="black" points="575,-215 575,-245 685,-245 685,-215 575,-215"/>
<text text-anchor="start" x="583" y="-233" font-family="Helvetica,sans-Serif" font-size="10.00">mom_diag_mediator::</text>
<text text-anchor="middle" x="630" y="-222" font-family="Helvetica,sans-Serif" font-size="10.00">alloc_diag_with_id</text>
</a>
</g>
</g>
<!-- Node13&#45;&gt;Node14 -->
<g id="edge6" class="edge"><title>Node13&#45;&gt;Node14</title>
<path fill="none" stroke="midnightblue" d="M519.679,-171.089C526.189,-174.192 532.872,-177.566 539,-181 555.775,-190.401 558.225,-195.599 575,-205 578.256,-206.824 581.668,-208.632 585.127,-210.391"/>
<polygon fill="midnightblue" stroke="midnightblue" points="583.803,-213.64 594.321,-214.911 586.892,-207.358 583.803,-213.64"/>
</g>
<!-- Node15 -->
<g id="node8" class="node"><title>Node15</title>
<g id="a_node8"><a xlink:href="namespacemom__error__handler.html#a33bcd190d460095104954f2e654f9fe6" target="_top" xlink:title="Issues a FATAL error if the assertion fails, i.e. the first argument is false. ">
<polygon fill="white" stroke="black" points="723,-204 723,-234 829,-234 829,-204 723,-204"/>
<text text-anchor="start" x="731" y="-222" font-family="Helvetica,sans-Serif" font-size="10.00">mom_error_handler::</text>
<text text-anchor="middle" x="776" y="-211" font-family="Helvetica,sans-Serif" font-size="10.00">assert</text>
</a>
</g>
</g>
<!-- Node13&#45;&gt;Node15 -->
<g id="edge7" class="edge"><title>Node13&#45;&gt;Node15</title>
<path fill="none" stroke="midnightblue" d="M525.622,-171.016C530.47,-173.864 535.081,-177.176 539,-181 564.892,-206.264 544.28,-234.897 575,-254 626.067,-285.756 697.889,-259.644 740.126,-238.689"/>
<polygon fill="midnightblue" stroke="midnightblue" points="741.876,-241.725 749.18,-234.05 738.684,-235.495 741.876,-241.725"/>
</g>
<!-- Node16 -->
<g id="node9" class="node"><title>Node16</title>
<g id="a_node9"><a xlink:href="namespacemom__diag__mediator.html#a3f7442639213320f7429e2288a79fda2" target="_top" xlink:title="Returns a new diagnostic id, it may be necessary to expand the diagnostics array. ...">
<polygon fill="white" stroke="black" points="575,-166 575,-196 685,-196 685,-166 575,-166"/>
<text text-anchor="start" x="583" y="-184" font-family="Helvetica,sans-Serif" font-size="10.00">mom_diag_mediator::</text>
<text text-anchor="middle" x="630" y="-173" font-family="Helvetica,sans-Serif" font-size="10.00">get_new_diag_id</text>
</a>
</g>
</g>
<!-- Node13&#45;&gt;Node16 -->
<g id="edge9" class="edge"><title>Node13&#45;&gt;Node16</title>
<path fill="none" stroke="midnightblue" d="M539.03,-165.38C547.405,-166.834 556.126,-168.348 564.7,-169.837"/>
<polygon fill="midnightblue" stroke="midnightblue" points="564.216,-173.305 574.667,-171.567 565.413,-166.408 564.216,-173.305"/>
</g>
<!-- Node18 -->
<g id="node11" class="node"><title>Node18</title>
<g id="a_node11"><a xlink:href="namespacemom__diag__mediator.html#a085f313357879a914af6450f2ab8ec79" target="_top" xlink:title="Associates the mask pointers within diag with the appropriate mask based on the axes group...">
<polygon fill="white" stroke="black" points="575,-117 575,-147 685,-147 685,-117 575,-117"/>
<text text-anchor="start" x="583" y="-135" font-family="Helvetica,sans-Serif" font-size="10.00">mom_diag_mediator::</text>
<text text-anchor="middle" x="630" y="-124" font-family="Helvetica,sans-Serif" font-size="10.00">set_diag_mask</text>
</a>
</g>
</g>
<!-- Node13&#45;&gt;Node18 -->
<g id="edge12" class="edge"><title>Node13&#45;&gt;Node18</title>
<path fill="none" stroke="midnightblue" d="M539.03,-146.995C547.405,-145.599 556.126,-144.146 564.7,-142.717"/>
<polygon fill="midnightblue" stroke="midnightblue" points="565.379,-146.152 574.667,-141.055 564.228,-139.247 565.379,-146.152"/>
</g>
<!-- Node15&#45;&gt;Node9 -->
<g id="edge8" class="edge"><title>Node15&#45;&gt;Node9</title>
<path fill="none" stroke="midnightblue" d="M809.582,-203.991C816.651,-200.713 824.081,-197.252 831,-194 846.458,-186.733 863.401,-178.67 878.257,-171.568"/>
<polygon fill="midnightblue" stroke="midnightblue" points="880.173,-174.531 887.682,-167.057 877.151,-168.217 880.173,-174.531"/>
</g>
<!-- Node16&#45;&gt;Node15 -->
<g id="edge10" class="edge"><title>Node16&#45;&gt;Node15</title>
<path fill="none" stroke="midnightblue" d="M685.03,-195.258C694.056,-197.64 703.484,-200.128 712.696,-202.559"/>
<polygon fill="midnightblue" stroke="midnightblue" points="712.016,-205.999 722.578,-205.166 713.802,-199.231 712.016,-205.999"/>
</g>
<!-- Node17 -->
<g id="node10" class="node"><title>Node17</title>
<g id="a_node10"><a xlink:href="namespacemom__diag__mediator.html#a883862f004e30bbc5211f38635511ba0" target="_top" xlink:title="Initializes a diag_type (used after allocating new memory) ">
<polygon fill="white" stroke="black" points="721,-155 721,-185 831,-185 831,-155 721,-155"/>
<text text-anchor="start" x="729" y="-173" font-family="Helvetica,sans-Serif" font-size="10.00">mom_diag_mediator::</text>
<text text-anchor="middle" x="776" y="-162" font-family="Helvetica,sans-Serif" font-size="10.00">initialize_diag_type</text>
</a>
</g>
</g>
<!-- Node16&#45;&gt;Node17 -->
<g id="edge11" class="edge"><title>Node16&#45;&gt;Node17</title>
<path fill="none" stroke="midnightblue" d="M685.03,-176.873C693.314,-176.24 701.936,-175.581 710.42,-174.933"/>
<polygon fill="midnightblue" stroke="midnightblue" points="710.963,-178.402 720.667,-174.15 710.43,-171.422 710.963,-178.402"/>
</g>
<!-- Node19&#45;&gt;Node9 -->
<g id="edge14" class="edge"><title>Node19&#45;&gt;Node9</title>
<path fill="none" stroke="midnightblue" d="M817.312,-114.046C833.351,-120.032 851.977,-126.984 868.872,-133.29"/>
<polygon fill="midnightblue" stroke="midnightblue" points="867.995,-136.699 878.588,-136.916 870.443,-130.141 867.995,-136.699"/>
</g>
<!-- Node21 -->
<g id="node14" class="node"><title>Node21</title>
<g id="a_node14"><a xlink:href="namespacemom__diag__mediator.html#ae002ca447acba252bf7bdc042e75a01e" target="_top" xlink:title="mom_diag_mediator::\ldescribe_option">
<polygon fill="white" stroke="black" points="575,-29 575,-59 685,-59 685,-29 575,-29"/>
<text text-anchor="start" x="583" y="-47" font-family="Helvetica,sans-Serif" font-size="10.00">mom_diag_mediator::</text>
<text text-anchor="middle" x="630" y="-36" font-family="Helvetica,sans-Serif" font-size="10.00">describe_option</text>
</a>
</g>
</g>
<!-- Node20&#45;&gt;Node21 -->
<g id="edge17" class="edge"><title>Node20&#45;&gt;Node21</title>
<path fill="none" stroke="midnightblue" d="M539.03,-44C547.314,-44 555.936,-44 564.42,-44"/>
<polygon fill="midnightblue" stroke="midnightblue" points="564.667,-47.5001 574.667,-44 564.667,-40.5001 564.667,-47.5001"/>
</g>
</g>
</svg>
