<?xml version="1.0" encoding="UTF-8" standalone="no"?>
<!DOCTYPE svg PUBLIC "-//W3C//DTD SVG 1.1//EN"
 "http://www.w3.org/Graphics/SVG/1.1/DTD/svg11.dtd">
<!-- Generated by graphviz version 2.38.0 (20140413.2041)
 -->
<!-- Title: p3m_functions::p3m_limiter Pages: 1 -->
<!--zoomable 88 -->
<svg id="main" version="1.1" xmlns="http://www.w3.org/2000/svg" xmlns:xlink="http://www.w3.org/1999/xlink" xml:space="preserve" onload="init(evt)">
<style type="text/css"><![CDATA[
.edge:hover path { stroke: red; }
.edge:hover polygon { stroke: red; fill: red; }
]]></style>
<script type="text/javascript"><![CDATA[
var edges = document.getElementsByTagName('g');
if (edges && edges.length) {
  for (var i=0;i<edges.length;i++) {
    if (edges[i].id.substr(0,4)=='edge') {
      edges[i].setAttribute('class','edge');
    }
  }
}
]]></script>
        <defs>
                <circle id="rim" cx="0" cy="0" r="7"/>
                <circle id="rim2" cx="0" cy="0" r="3.5"/>
                <g id="zoomPlus">
                        <use xlink:href="#rim" fill="#404040">
                                <set attributeName="fill" to="#808080" begin="zoomplus.mouseover" end="zoomplus.mouseout"/>
                        </use>
                        <path d="M-4,0h8M0,-4v8" fill="none" stroke="white" stroke-width="1.5" pointer-events="none"/>
                </g>
                <g id="zoomMin">
                        <use xlink:href="#rim" fill="#404040">
                                <set attributeName="fill" to="#808080" begin="zoomminus.mouseover" end="zoomminus.mouseout"/>
                        </use>
                        <path d="M-4,0h8" fill="none" stroke="white" stroke-width="1.5" pointer-events="none"/>
                </g>
                <g id="dirArrow">
                        <path fill="none" stroke="white" stroke-width="1.5" d="M0,-3.0v7 M-2.5,-0.5L0,-3.0L2.5,-0.5"/>
                </g>
               <g id="resetDef">
                       <use xlink:href="#rim2" fill="#404040">
                               <set attributeName="fill" to="#808080" begin="reset.mouseover" end="reset.mouseout"/>
                       </use>
               </g>
        </defs>

<script type="text/javascript">
var viewWidth = 1043;
var viewHeight = 88;
var sectionId = 'dynsection-8';
</script>
<script xlink:href="svgpan.js"/>
<svg id="graph" class="graph">
<g id="viewport">
<title>p3m_functions::p3m_limiter</title>
<polygon fill="white" stroke="none" points="-4,4 -4,-84 1039,-84 1039,4 -4,4"/>
<!-- Node69 -->
<g id="node1" class="node"><title>Node69</title>
<polygon fill="#bfbfbf" stroke="black" points="0,-24.5 0,-54.5 105,-54.5 105,-24.5 0,-24.5"/>
<text text-anchor="start" x="8" y="-42.5" font-family="Helvetica,sans-Serif" font-size="10.00">p3m_functions::p3m</text>
<text text-anchor="middle" x="52.5" y="-31.5" font-family="Helvetica,sans-Serif" font-size="10.00">_limiter</text>
</g>
<!-- Node70 -->
<g id="node2" class="node"><title>Node70</title>
<g id="a_node2"><a xlink:href="namespacep3m__functions.html#a1769b4b4ced88bbd9f28e348a7bdeabc" target="_top" xlink:title="p3m_functions::p3m\l_interpolation">
<polygon fill="white" stroke="black" points="141,-24.5 141,-54.5 246,-54.5 246,-24.5 141,-24.5"/>
<text text-anchor="start" x="149" y="-42.5" font-family="Helvetica,sans-Serif" font-size="10.00">p3m_functions::p3m</text>
<text text-anchor="middle" x="193.5" y="-31.5" font-family="Helvetica,sans-Serif" font-size="10.00">_interpolation</text>
</a>
</g>
</g>
<!-- Node69&#45;&gt;Node70 -->
<g id="edge1" class="edge"><title>Node69&#45;&gt;Node70</title>
<path fill="none" stroke="midnightblue" d="M115.441,-39.5C123.878,-39.5 132.466,-39.5 140.698,-39.5"/>
<polygon fill="midnightblue" stroke="midnightblue" points="115.259,-36.0001 105.258,-39.5 115.258,-43.0001 115.259,-36.0001"/>
</g>
<!-- Node71 -->
<g id="node3" class="node"><title>Node71</title>
<g id="a_node3"><a xlink:href="namespaceregrid__interp.html#a1dfc0e2c1924dddd25b9102ec2ecf06e" target="_top" xlink:title="Given the set of target values and cell densities, this routine builds an interpolated profile for th...">
<polygon fill="white" stroke="black" points="282,-24.5 282,-54.5 400,-54.5 400,-24.5 282,-24.5"/>
<text text-anchor="start" x="290" y="-42.5" font-family="Helvetica,sans-Serif" font-size="10.00">regrid_interp::regridding</text>
<text text-anchor="middle" x="341" y="-31.5" font-family="Helvetica,sans-Serif" font-size="10.00">_set_ppolys</text>
</a>
</g>
</g>
<!-- Node70&#45;&gt;Node71 -->
<g id="edge2" class="edge"><title>Node70&#45;&gt;Node71</title>
<path fill="none" stroke="midnightblue" d="M256.357,-39.5C264.784,-39.5 273.411,-39.5 281.771,-39.5"/>
<polygon fill="midnightblue" stroke="midnightblue" points="256.208,-36.0001 246.208,-39.5 256.208,-43.0001 256.208,-36.0001"/>
</g>
<!-- Node72 -->
<g id="node4" class="node"><title>Node72</title>
<g id="a_node4"><a xlink:href="namespaceregrid__interp.html#a4d634eff5836d643ef27129fc934853a" target="_top" xlink:title="regrid_interp::build\l_and_interpolate_grid">
<polygon fill="white" stroke="black" points="436,-24.5 436,-54.5 545,-54.5 545,-24.5 436,-24.5"/>
<text text-anchor="start" x="444" y="-42.5" font-family="Helvetica,sans-Serif" font-size="10.00">regrid_interp::build</text>
<text text-anchor="middle" x="490.5" y="-31.5" font-family="Helvetica,sans-Serif" font-size="10.00">_and_interpolate_grid</text>
</a>
</g>
</g>
<!-- Node71&#45;&gt;Node72 -->
<g id="edge3" class="edge"><title>Node71&#45;&gt;Node72</title>
<path fill="none" stroke="midnightblue" d="M410.318,-39.5C418.917,-39.5 427.616,-39.5 435.943,-39.5"/>
<polygon fill="midnightblue" stroke="midnightblue" points="410.296,-36.0001 400.296,-39.5 410.296,-43.0001 410.296,-36.0001"/>
</g>
<!-- Node73 -->
<g id="node5" class="node"><title>Node73</title>
<g id="a_node5"><a xlink:href="namespacecoord__hycom.html#a863abf3f62297588e4a3065fbf9333ea" target="_top" xlink:title="Build a HyCOM coordinate column. ">
<polygon fill="white" stroke="black" points="582.5,-49.5 582.5,-79.5 683.5,-79.5 683.5,-49.5 582.5,-49.5"/>
<text text-anchor="start" x="590.5" y="-67.5" font-family="Helvetica,sans-Serif" font-size="10.00">coord_hycom::build</text>
<text text-anchor="middle" x="633" y="-56.5" font-family="Helvetica,sans-Serif" font-size="10.00">_hycom1_column</text>
</a>
</g>
</g>
<!-- Node72&#45;&gt;Node73 -->
<g id="edge4" class="edge"><title>Node72&#45;&gt;Node73</title>
<path fill="none" stroke="midnightblue" d="M554.904,-50.7819C564.1,-52.4182 573.454,-54.0826 582.327,-55.6615"/>
<polygon fill="midnightblue" stroke="midnightblue" points="555.476,-47.3288 545.018,-49.0227 554.25,-54.2205 555.476,-47.3288"/>
</g>
<!-- Node76 -->
<g id="node8" class="node"><title>Node76</title>
<g id="a_node8"><a xlink:href="namespacecoord__rho.html#a6f5a56ba973e5e36820222a709614e40" target="_top" xlink:title="coord_rho::build_rho\l_column">
<polygon fill="white" stroke="black" points="581,-0.5 581,-30.5 685,-30.5 685,-0.5 581,-0.5"/>
<text text-anchor="start" x="589" y="-18.5" font-family="Helvetica,sans-Serif" font-size="10.00">coord_rho::build_rho</text>
<text text-anchor="middle" x="633" y="-7.5" font-family="Helvetica,sans-Serif" font-size="10.00">_column</text>
</a>
</g>
</g>
<!-- Node72&#45;&gt;Node76 -->
<g id="edge7" class="edge"><title>Node72&#45;&gt;Node76</title>
<path fill="none" stroke="midnightblue" d="M555.09,-28.6377C563.75,-27.1583 572.547,-25.6557 580.947,-24.2208"/>
<polygon fill="midnightblue" stroke="midnightblue" points="554.286,-25.2243 545.018,-30.3582 555.464,-32.1243 554.286,-25.2243"/>
</g>
<!-- Node74 -->
<g id="node6" class="node"><title>Node74</title>
<g id="a_node6"><a xlink:href="namespacemom__regridding.html#ab3541b357806978862434ee19b1be774" target="_top" xlink:title="Builds a simple HyCOM&#45;like grid with the deepest location of potential density interpolated from the ...">
<polygon fill="white" stroke="black" points="724,-49.5 724,-79.5 836,-79.5 836,-49.5 724,-49.5"/>
<text text-anchor="start" x="732" y="-67.5" font-family="Helvetica,sans-Serif" font-size="10.00">mom_regridding::build</text>
<text text-anchor="middle" x="780" y="-56.5" font-family="Helvetica,sans-Serif" font-size="10.00">_grid_hycom1</text>
</a>
</g>
</g>
<!-- Node73&#45;&gt;Node74 -->
<g id="edge5" class="edge"><title>Node73&#45;&gt;Node74</title>
<path fill="none" stroke="midnightblue" d="M694.027,-64.5C703.884,-64.5 714.059,-64.5 723.792,-64.5"/>
<polygon fill="midnightblue" stroke="midnightblue" points="693.901,-61.0001 683.901,-64.5 693.901,-68.0001 693.901,-61.0001"/>
</g>
<!-- Node75 -->
<g id="node7" class="node"><title>Node75</title>
<g id="a_node7"><a xlink:href="namespacemom__regridding.html#ab354fe3423a39fef6f2b66f409b1682c" target="_top" xlink:title="mom_regridding::regridding_main">
<polygon fill="white" stroke="black" points="875,-55 875,-74 1035,-74 1035,-55 875,-55"/>
<text text-anchor="middle" x="955" y="-62" font-family="Helvetica,sans-Serif" font-size="10.00">mom_regridding::regridding_main</text>
</a>
</g>
</g>
<!-- Node74&#45;&gt;Node75 -->
<g id="edge6" class="edge"><title>Node74&#45;&gt;Node75</title>
<path fill="none" stroke="midnightblue" d="M846.466,-64.5C855.695,-64.5 865.265,-64.5 874.719,-64.5"/>
<polygon fill="midnightblue" stroke="midnightblue" points="846.214,-61.0001 836.214,-64.5 846.214,-68.0001 846.214,-61.0001"/>
</g>
<!-- Node77 -->
<g id="node9" class="node"><title>Node77</title>
<g id="a_node9"><a xlink:href="namespacemom__diag__remap.html#a1fb71d2982777f33bcbf183187e1819b" target="_top" xlink:title="Build/update target vertical grids for diagnostic remapping. ">
<polygon fill="white" stroke="black" points="721,-0.5 721,-30.5 839,-30.5 839,-0.5 721,-0.5"/>
<text text-anchor="start" x="729" y="-18.5" font-family="Helvetica,sans-Serif" font-size="10.00">mom_diag_remap::diag</text>
<text text-anchor="middle" x="780" y="-7.5" font-family="Helvetica,sans-Serif" font-size="10.00">_remap_update</text>
</a>
</g>
</g>
<!-- Node76&#45;&gt;Node77 -->
<g id="edge8" class="edge"><title>Node76&#45;&gt;Node77</title>
<path fill="none" stroke="midnightblue" d="M695.33,-15.5C703.81,-15.5 712.5,-15.5 720.919,-15.5"/>
<polygon fill="midnightblue" stroke="midnightblue" points="695.122,-12.0001 685.122,-15.5 695.122,-19.0001 695.122,-12.0001"/>
</g>
</g>
</svg>
        <g id="navigator" transform="translate(0 0)" fill="#404254">
                <rect fill="#f2f5e9" fill-opacity="0.5" stroke="#606060" stroke-width=".5" x="0" y="0" width="60" height="60"/>
                <use id="zoomplus" xlink:href="#zoomPlus" x="17" y="9" onmousedown="handleZoom(evt,'in')"/>
                <use id="zoomminus" xlink:href="#zoomMin" x="42" y="9" onmousedown="handleZoom(evt,'out')"/>
                <use id="reset" xlink:href="#resetDef" x="30" y="36" onmousedown="handleReset()"/>
                <g id="arrowUp" xlink:href="#dirArrow" transform="translate(30 24)" onmousedown="handlePan(0,-1)">
                  <use xlink:href="#rim" fill="#404040">
                        <set attributeName="fill" to="#808080" begin="arrowUp.mouseover" end="arrowUp.mouseout"/>
                  </use>
                  <path fill="none" stroke="white" stroke-width="1.5" d="M0,-3.0v7 M-2.5,-0.5L0,-3.0L2.5,-0.5"/>
                </g>
                <g id="arrowRight" xlink:href="#dirArrow" transform="rotate(90) translate(36 -43)" onmousedown="handlePan(1,0)">
                  <use xlink:href="#rim" fill="#404040">
                        <set attributeName="fill" to="#808080" begin="arrowRight.mouseover" end="arrowRight.mouseout"/>
                  </use>
                  <path fill="none" stroke="white" stroke-width="1.5" d="M0,-3.0v7 M-2.5,-0.5L0,-3.0L2.5,-0.5"/>
                </g>
                <g id="arrowDown" xlink:href="#dirArrow" transform="rotate(180) translate(-30 -48)" onmousedown="handlePan(0,1)">
                  <use xlink:href="#rim" fill="#404040">
                        <set attributeName="fill" to="#808080" begin="arrowDown.mouseover" end="arrowDown.mouseout"/>
                  </use>
                  <path fill="none" stroke="white" stroke-width="1.5" d="M0,-3.0v7 M-2.5,-0.5L0,-3.0L2.5,-0.5"/>
                </g>
                <g id="arrowLeft" xlink:href="#dirArrow" transform="rotate(270) translate(-36 17)" onmousedown="handlePan(-1,0)">
                  <use xlink:href="#rim" fill="#404040">
                        <set attributeName="fill" to="#808080" begin="arrowLeft.mouseover" end="arrowLeft.mouseout"/>
                  </use>
                  <path fill="none" stroke="white" stroke-width="1.5" d="M0,-3.0v7 M-2.5,-0.5L0,-3.0L2.5,-0.5"/>
                </g>
        </g>
        <svg viewBox="0 0 15 15" width="100%" height="30px" preserveAspectRatio="xMaxYMin meet">
         <g id="arrow_out" transform="scale(0.3 0.3)">
          <a xlink:href="namespacep3m__functions_a377fa3f7b5caf101d47fa0d4c9b84f64_icgraph_org.svg" target="_base">
           <rect id="button" ry="5" rx="5" y="6" x="6" height="38" width="38"
                fill="#f2f5e9" fill-opacity="0.5" stroke="#606060" stroke-width="1.0"/>
           <path id="arrow"
             d="M 11.500037,31.436501 C 11.940474,20.09759 22.043105,11.32322 32.158766,21.979434 L 37.068811,17.246167 C 37.068811,17.246167 37.088388,32 37.088388,32 L 22.160133,31.978069 C 22.160133,31.978069 26.997745,27.140456 26.997745,27.140456 C 18.528582,18.264221 13.291696,25.230495 11.500037,31.436501 z"
             style="fill:#404040;"/>
          </a>
         </g>
        </svg>
</svg>
