<?xml version="1.0" encoding="UTF-8" standalone="no"?>
<!DOCTYPE svg PUBLIC "-//W3C//DTD SVG 1.1//EN"
 "http://www.w3.org/Graphics/SVG/1.1/DTD/svg11.dtd">
<!-- Generated by graphviz version 2.38.0 (20140413.2041)
 -->
<!-- Title: mom_regularize_layers::regularize_surface Pages: 1 -->
<svg width="420pt" height="88pt"
 viewBox="0.00 0.00 420.00 88.00" xmlns="http://www.w3.org/2000/svg" xmlns:xlink="http://www.w3.org/1999/xlink">
<g id="graph0" class="graph" transform="scale(1 1) rotate(0) translate(4 84)">
<title>mom_regularize_layers::regularize_surface</title>
<polygon fill="white" stroke="none" points="-4,4 -4,-84 416,-84 416,4 -4,4"/>
<!-- Node17 -->
<g id="node1" class="node"><title>Node17</title>
<polygon fill="#bfbfbf" stroke="black" points="0,-24.5 0,-54.5 117,-54.5 117,-24.5 0,-24.5"/>
<text text-anchor="start" x="8" y="-42.5" font-family="Helvetica,sans-Serif" font-size="10.00">mom_regularize_layers</text>
<text text-anchor="middle" x="58.5" y="-31.5" font-family="Helvetica,sans-Serif" font-size="10.00">::regularize_surface</text>
</g>
<!-- Node18 -->
<g id="node2" class="node"><title>Node18</title>
<g id="a_node2"><a xlink:href="namespacemom__regularize__layers.html#a4ba20ced31449e07aa640de2b71c0be8" target="_top" xlink:title="This subroutine determines the amount by which the harmonic mean thickness at velocity points differ ...">
<polygon fill="white" stroke="black" points="153,-49.5 153,-79.5 270,-79.5 270,-49.5 153,-49.5"/>
<text text-anchor="start" x="161" y="-67.5" font-family="Helvetica,sans-Serif" font-size="10.00">mom_regularize_layers</text>
<text text-anchor="middle" x="211.5" y="-56.5" font-family="Helvetica,sans-Serif" font-size="10.00">::find_deficit_ratios</text>
</a>
</g>
</g>
<!-- Node17&#45;&gt;Node18 -->
<g id="edge1" class="edge"><title>Node17&#45;&gt;Node18</title>
<path fill="none" stroke="midnightblue" d="M117.017,-49.0227C125.464,-50.4212 134.229,-51.8724 142.856,-53.3007"/>
<polygon fill="midnightblue" stroke="midnightblue" points="142.455,-56.7819 152.893,-54.9623 143.599,-49.8759 142.455,-56.7819"/>
</g>
<!-- Node19 -->
<g id="node3" class="node"><title>Node19</title>
<g id="a_node3"><a xlink:href="namespacemom__error__handler.html#a460cfb79a06c29fc249952c2a3710d67" target="_top" xlink:title="mom_error_handler::\lmom_error">
<polygon fill="white" stroke="black" points="158.5,-0.5 158.5,-30.5 264.5,-30.5 264.5,-0.5 158.5,-0.5"/>
<text text-anchor="start" x="166.5" y="-18.5" font-family="Helvetica,sans-Serif" font-size="10.00">mom_error_handler::</text>
<text text-anchor="middle" x="211.5" y="-7.5" font-family="Helvetica,sans-Serif" font-size="10.00">mom_error</text>
</a>
</g>
</g>
<!-- Node17&#45;&gt;Node19 -->
<g id="edge2" class="edge"><title>Node17&#45;&gt;Node19</title>
<path fill="none" stroke="midnightblue" d="M117.017,-30.3582C127.144,-28.7487 137.728,-27.0663 147.984,-25.4364"/>
<polygon fill="midnightblue" stroke="midnightblue" points="148.773,-28.8549 158.1,-23.8285 147.674,-21.9417 148.773,-28.8549"/>
</g>
<!-- Node20 -->
<g id="node4" class="node"><title>Node20</title>
<g id="a_node4"><a xlink:href="namespacemom__error__handler.html#ad5f00a53059c72fe2332d1436c80ca71" target="_top" xlink:title="mom_error_handler::\lis_root_pe">
<polygon fill="white" stroke="black" points="306,-0.5 306,-30.5 412,-30.5 412,-0.5 306,-0.5"/>
<text text-anchor="start" x="314" y="-18.5" font-family="Helvetica,sans-Serif" font-size="10.00">mom_error_handler::</text>
<text text-anchor="middle" x="359" y="-7.5" font-family="Helvetica,sans-Serif" font-size="10.00">is_root_pe</text>
</a>
</g>
</g>
<!-- Node19&#45;&gt;Node20 -->
<g id="edge3" class="edge"><title>Node19&#45;&gt;Node20</title>
<path fill="none" stroke="midnightblue" d="M264.618,-15.5C274.648,-15.5 285.248,-15.5 295.565,-15.5"/>
<polygon fill="midnightblue" stroke="midnightblue" points="295.757,-19.0001 305.757,-15.5 295.757,-12.0001 295.757,-19.0001"/>
</g>
</g>
</svg>
