<?xml version="1.0" encoding="UTF-8" standalone="no"?>
<!DOCTYPE svg PUBLIC "-//W3C//DTD SVG 1.1//EN"
 "http://www.w3.org/Graphics/SVG/1.1/DTD/svg11.dtd">
<!-- Generated by graphviz version 2.38.0 (20140413.2041)
 -->
<!-- Title: mom_diag_mediator::i2s Pages: 1 -->
<svg width="667pt" height="39pt"
 viewBox="0.00 0.00 667.00 39.00" xmlns="http://www.w3.org/2000/svg" xmlns:xlink="http://www.w3.org/1999/xlink">
<g id="graph0" class="graph" transform="scale(1 1) rotate(0) translate(4 35)">
<title>mom_diag_mediator::i2s</title>
<polygon fill="white" stroke="none" points="-4,4 -4,-35 663,-35 663,4 -4,4"/>
<!-- Node162 -->
<g id="node1" class="node"><title>Node162</title>
<polygon fill="#bfbfbf" stroke="black" points="0,-6 0,-25 123,-25 123,-6 0,-6"/>
<text text-anchor="middle" x="61.5" y="-13" font-family="Helvetica,sans-Serif" font-size="10.00">mom_diag_mediator::i2s</text>
</g>
<!-- Node163 -->
<g id="node2" class="node"><title>Node163</title>
<g id="a_node2"><a xlink:href="namespacemom__diag__mediator.html#ab9f767ec24a860cb71cae264560272a8" target="_top" xlink:title="Defines a group of &quot;axes&quot; from list of handles. ">
<polygon fill="white" stroke="black" points="159,-0.5 159,-30.5 269,-30.5 269,-0.5 159,-0.5"/>
<text text-anchor="start" x="167" y="-18.5" font-family="Helvetica,sans-Serif" font-size="10.00">mom_diag_mediator::</text>
<text text-anchor="middle" x="214" y="-7.5" font-family="Helvetica,sans-Serif" font-size="10.00">define_axes_group</text>
</a>
</g>
</g>
<!-- Node162&#45;&gt;Node163 -->
<g id="edge1" class="edge"><title>Node162&#45;&gt;Node163</title>
<path fill="none" stroke="midnightblue" d="M133.282,-15.5C141.854,-15.5 150.505,-15.5 158.786,-15.5"/>
<polygon fill="midnightblue" stroke="midnightblue" points="133.28,-12.0001 123.28,-15.5 133.28,-19.0001 133.28,-12.0001"/>
</g>
<!-- Node164 -->
<g id="node3" class="node"><title>Node164</title>
<g id="a_node3"><a xlink:href="namespacemom__diag__mediator.html#a4d8d23e602166167b393e19453ded5bf" target="_top" xlink:title="Sets up diagnostics axes. ">
<polygon fill="white" stroke="black" points="305,-0.5 305,-30.5 415,-30.5 415,-0.5 305,-0.5"/>
<text text-anchor="start" x="313" y="-18.5" font-family="Helvetica,sans-Serif" font-size="10.00">mom_diag_mediator::</text>
<text text-anchor="middle" x="360" y="-7.5" font-family="Helvetica,sans-Serif" font-size="10.00">set_axes_info</text>
</a>
</g>
</g>
<!-- Node163&#45;&gt;Node164 -->
<g id="edge2" class="edge"><title>Node163&#45;&gt;Node164</title>
<path fill="none" stroke="midnightblue" d="M279.27,-15.5C287.75,-15.5 296.375,-15.5 304.667,-15.5"/>
<polygon fill="midnightblue" stroke="midnightblue" points="279.03,-12.0001 269.03,-15.5 279.03,-19.0001 279.03,-12.0001"/>
</g>
<!-- Node165 -->
<g id="node4" class="node"><title>Node165</title>
<g id="a_node4"><a xlink:href="namespacemom.html#a0be2869fef30e1e0604facfe1b41555d" target="_top" xlink:title="This subroutine initializes MOM. ">
<polygon fill="white" stroke="black" points="451,-6 451,-25 558,-25 558,-6 451,-6"/>
<text text-anchor="middle" x="504.5" y="-13" font-family="Helvetica,sans-Serif" font-size="10.00">mom::initialize_mom</text>
</a>
</g>
</g>
<!-- Node164&#45;&gt;Node165 -->
<g id="edge3" class="edge"><title>Node164&#45;&gt;Node165</title>
<path fill="none" stroke="midnightblue" d="M425.503,-15.5C433.962,-15.5 442.55,-15.5 450.783,-15.5"/>
<polygon fill="midnightblue" stroke="midnightblue" points="425.28,-12.0001 415.28,-15.5 425.28,-19.0001 425.28,-12.0001"/>
</g>
<!-- Node166 -->
<g id="node5" class="node"><title>Node166</title>
<g id="a_node5"><a xlink:href="MOM__driver_8F90.html#a08fffeb2d8e8acbf9ed4609be6d258c6" target="_top" xlink:title="mom_main">
<polygon fill="white" stroke="black" points="594,-6 594,-25 659,-25 659,-6 594,-6"/>
<text text-anchor="middle" x="626.5" y="-13" font-family="Helvetica,sans-Serif" font-size="10.00">mom_main</text>
</a>
</g>
</g>
<!-- Node165&#45;&gt;Node166 -->
<g id="edge4" class="edge"><title>Node165&#45;&gt;Node166</title>
<path fill="none" stroke="midnightblue" d="M568.206,-15.5C577.134,-15.5 585.983,-15.5 593.958,-15.5"/>
<polygon fill="midnightblue" stroke="midnightblue" points="568.134,-12.0001 558.134,-15.5 568.134,-19.0001 568.134,-12.0001"/>
</g>
</g>
</svg>
