<?xml version="1.0" encoding="UTF-8" standalone="no"?>
<!DOCTYPE svg PUBLIC "-//W3C//DTD SVG 1.1//EN"
 "http://www.w3.org/Graphics/SVG/1.1/DTD/svg11.dtd">
<!-- Generated by graphviz version 2.38.0 (20140413.2041)
 -->
<!-- Title: mom_thickness_diffuse::streamfn_solver Pages: 1 -->
<svg width="667pt" height="39pt"
 viewBox="0.00 0.00 667.00 39.00" xmlns="http://www.w3.org/2000/svg" xmlns:xlink="http://www.w3.org/1999/xlink">
<g id="graph0" class="graph" transform="scale(1 1) rotate(0) translate(4 35)">
<title>mom_thickness_diffuse::streamfn_solver</title>
<polygon fill="white" stroke="none" points="-4,4 -4,-35 663,-35 663,4 -4,4"/>
<!-- Node6 -->
<g id="node1" class="node"><title>Node6</title>
<polygon fill="#bfbfbf" stroke="black" points="0,-0.5 0,-30.5 120,-30.5 120,-0.5 0,-0.5"/>
<text text-anchor="start" x="8" y="-18.5" font-family="Helvetica,sans-Serif" font-size="10.00">mom_thickness_diffuse</text>
<text text-anchor="middle" x="60" y="-7.5" font-family="Helvetica,sans-Serif" font-size="10.00">::streamfn_solver</text>
</g>
<!-- Node7 -->
<g id="node2" class="node"><title>Node7</title>
<g id="a_node2"><a xlink:href="namespacemom__thickness__diffuse.html#a6124aede8bd3c29c433090de1619235b" target="_top" xlink:title="Calculates parameterized layer transports for use in the continuity equation. Fluxes are limited to g...">
<polygon fill="white" stroke="black" points="156,-0.5 156,-30.5 276,-30.5 276,-0.5 156,-0.5"/>
<text text-anchor="start" x="164" y="-18.5" font-family="Helvetica,sans-Serif" font-size="10.00">mom_thickness_diffuse</text>
<text text-anchor="middle" x="216" y="-7.5" font-family="Helvetica,sans-Serif" font-size="10.00">::thickness_diffuse_full</text>
</a>
</g>
</g>
<!-- Node6&#45;&gt;Node7 -->
<g id="edge1" class="edge"><title>Node6&#45;&gt;Node7</title>
<path fill="none" stroke="midnightblue" d="M130.369,-15.5C138.862,-15.5 147.48,-15.5 155.804,-15.5"/>
<polygon fill="midnightblue" stroke="midnightblue" points="130.1,-12.0001 120.1,-15.5 130.1,-19.0001 130.1,-12.0001"/>
</g>
<!-- Node8 -->
<g id="node3" class="node"><title>Node8</title>
<g id="a_node3"><a xlink:href="namespacemom__thickness__diffuse.html#a9506f374762ce6d5d12424a9314fad2f" target="_top" xlink:title="Calculates thickness diffusion coefficients and applies thickness diffusion to layer thicknesses...">
<polygon fill="white" stroke="black" points="312,-0.5 312,-30.5 432,-30.5 432,-0.5 312,-0.5"/>
<text text-anchor="start" x="320" y="-18.5" font-family="Helvetica,sans-Serif" font-size="10.00">mom_thickness_diffuse</text>
<text text-anchor="middle" x="372" y="-7.5" font-family="Helvetica,sans-Serif" font-size="10.00">::thickness_diffuse</text>
</a>
</g>
</g>
<!-- Node7&#45;&gt;Node8 -->
<g id="edge2" class="edge"><title>Node7&#45;&gt;Node8</title>
<path fill="none" stroke="midnightblue" d="M286.369,-15.5C294.862,-15.5 303.48,-15.5 311.804,-15.5"/>
<polygon fill="midnightblue" stroke="midnightblue" points="286.1,-12.0001 276.1,-15.5 286.1,-19.0001 286.1,-12.0001"/>
</g>
<!-- Node9 -->
<g id="node4" class="node"><title>Node9</title>
<g id="a_node4"><a xlink:href="namespacemom.html#a4c8332b095c6d295084089aa6b3b678a" target="_top" xlink:title="This subroutine orchestrates the time stepping of MOM. The adiabatic dynamics are stepped by calls to...">
<polygon fill="white" stroke="black" points="468,-6 468,-25 558,-25 558,-6 468,-6"/>
<text text-anchor="middle" x="513" y="-13" font-family="Helvetica,sans-Serif" font-size="10.00">mom::step_mom</text>
</a>
</g>
</g>
<!-- Node8&#45;&gt;Node9 -->
<g id="edge3" class="edge"><title>Node8&#45;&gt;Node9</title>
<path fill="none" stroke="midnightblue" d="M442.502,-15.5C451.177,-15.5 459.851,-15.5 467.985,-15.5"/>
<polygon fill="midnightblue" stroke="midnightblue" points="442.352,-12.0001 432.352,-15.5 442.352,-19.0001 442.352,-12.0001"/>
</g>
<!-- Node10 -->
<g id="node5" class="node"><title>Node10</title>
<g id="a_node5"><a xlink:href="MOM__driver_8F90.html#a08fffeb2d8e8acbf9ed4609be6d258c6" target="_top" xlink:title="mom_main">
<polygon fill="white" stroke="black" points="594,-6 594,-25 659,-25 659,-6 594,-6"/>
<text text-anchor="middle" x="626.5" y="-13" font-family="Helvetica,sans-Serif" font-size="10.00">mom_main</text>
</a>
</g>
</g>
<!-- Node9&#45;&gt;Node10 -->
<g id="edge4" class="edge"><title>Node9&#45;&gt;Node10</title>
<path fill="none" stroke="midnightblue" d="M568.26,-15.5C577.006,-15.5 585.8,-15.5 593.782,-15.5"/>
<polygon fill="midnightblue" stroke="midnightblue" points="568.068,-12.0001 558.068,-15.5 568.068,-19.0001 568.068,-12.0001"/>
</g>
</g>
</svg>
