<?xml version="1.0" encoding="UTF-8" standalone="no"?>
<!DOCTYPE svg PUBLIC "-//W3C//DTD SVG 1.1//EN"
 "http://www.w3.org/Graphics/SVG/1.1/DTD/svg11.dtd">
<!-- Generated by graphviz version 2.38.0 (20140413.2041)
 -->
<!-- Title: mom_opacity::set_opacity Pages: 1 -->
<!--zoomable 176 -->
<svg id="main" version="1.1" xmlns="http://www.w3.org/2000/svg" xmlns:xlink="http://www.w3.org/1999/xlink" xml:space="preserve" onload="init(evt)">
<style type="text/css"><![CDATA[
.edge:hover path { stroke: red; }
.edge:hover polygon { stroke: red; fill: red; }
]]></style>
<script type="text/javascript"><![CDATA[
var edges = document.getElementsByTagName('g');
if (edges && edges.length) {
  for (var i=0;i<edges.length;i++) {
    if (edges[i].id.substr(0,4)=='edge') {
      edges[i].setAttribute('class','edge');
    }
  }
}
]]></script>
        <defs>
                <circle id="rim" cx="0" cy="0" r="7"/>
                <circle id="rim2" cx="0" cy="0" r="3.5"/>
                <g id="zoomPlus">
                        <use xlink:href="#rim" fill="#404040">
                                <set attributeName="fill" to="#808080" begin="zoomplus.mouseover" end="zoomplus.mouseout"/>
                        </use>
                        <path d="M-4,0h8M0,-4v8" fill="none" stroke="white" stroke-width="1.5" pointer-events="none"/>
                </g>
                <g id="zoomMin">
                        <use xlink:href="#rim" fill="#404040">
                                <set attributeName="fill" to="#808080" begin="zoomminus.mouseover" end="zoomminus.mouseout"/>
                        </use>
                        <path d="M-4,0h8" fill="none" stroke="white" stroke-width="1.5" pointer-events="none"/>
                </g>
                <g id="dirArrow">
                        <path fill="none" stroke="white" stroke-width="1.5" d="M0,-3.0v7 M-2.5,-0.5L0,-3.0L2.5,-0.5"/>
                </g>
               <g id="resetDef">
                       <use xlink:href="#rim2" fill="#404040">
                               <set attributeName="fill" to="#808080" begin="reset.mouseover" end="reset.mouseout"/>
                       </use>
               </g>
        </defs>

<script type="text/javascript">
var viewWidth = 595;
var viewHeight = 176;
var sectionId = 'dynsection-5';
</script>
<script xlink:href="svgpan.js"/>
<svg id="graph" class="graph">
<g id="viewport">
<title>mom_opacity::set_opacity</title>
<polygon fill="white" stroke="none" points="-4,4 -4,-172 591,-172 591,4 -4,4"/>
<!-- Node21 -->
<g id="node1" class="node"><title>Node21</title>
<polygon fill="#bfbfbf" stroke="black" points="0,-77 0,-96 131,-96 131,-77 0,-77"/>
<text text-anchor="middle" x="65.5" y="-84" font-family="Helvetica,sans-Serif" font-size="10.00">mom_opacity::set_opacity</text>
</g>
<!-- Node22 -->
<g id="node2" class="node"><title>Node22</title>
<g id="a_node2"><a xlink:href="namespacemom__tracer__flow__control.html#abd2e9269190427ba86fb8a26e6792e66" target="_top" xlink:title="mom_tracer_flow_control\l::get_chl_from_model">
<polygon fill="white" stroke="black" points="167.5,-137.5 167.5,-167.5 293.5,-167.5 293.5,-137.5 167.5,-137.5"/>
<text text-anchor="start" x="175.5" y="-155.5" font-family="Helvetica,sans-Serif" font-size="10.00">mom_tracer_flow_control</text>
<text text-anchor="middle" x="230.5" y="-144.5" font-family="Helvetica,sans-Serif" font-size="10.00">::get_chl_from_model</text>
</a>
</g>
</g>
<!-- Node21&#45;&gt;Node22 -->
<g id="edge1" class="edge"><title>Node21&#45;&gt;Node22</title>
<path fill="none" stroke="midnightblue" d="M90.2016,-96.097C114.343,-105.872 152.423,-121.291 182.672,-133.539"/>
<polygon fill="midnightblue" stroke="midnightblue" points="181.607,-136.884 192.19,-137.393 184.235,-130.396 181.607,-136.884"/>
</g>
<!-- Node23 -->
<g id="node3" class="node"><title>Node23</title>
<g id="a_node3"><a xlink:href="namespacemom__error__handler.html#a460cfb79a06c29fc249952c2a3710d67" target="_top" xlink:title="mom_error_handler::\lmom_error">
<polygon fill="white" stroke="black" points="334.5,-98.5 334.5,-128.5 440.5,-128.5 440.5,-98.5 334.5,-98.5"/>
<text text-anchor="start" x="342.5" y="-116.5" font-family="Helvetica,sans-Serif" font-size="10.00">mom_error_handler::</text>
<text text-anchor="middle" x="387.5" y="-105.5" font-family="Helvetica,sans-Serif" font-size="10.00">mom_error</text>
</a>
</g>
</g>
<!-- Node21&#45;&gt;Node23 -->
<g id="edge4" class="edge"><title>Node21&#45;&gt;Node23</title>
<path fill="none" stroke="midnightblue" d="M131.257,-91.9639C187.563,-96.7147 268.61,-103.553 324.185,-108.242"/>
<polygon fill="midnightblue" stroke="midnightblue" points="323.995,-111.739 334.254,-109.092 324.584,-104.763 323.995,-111.739"/>
</g>
<!-- Node25 -->
<g id="node5" class="node"><title>Node25</title>
<g id="a_node5"><a xlink:href="namespacemom__opacity.html#aefa20c0a034c6e9dcf598c938d6a78ef" target="_top" xlink:title="mom_opacity::opacity\l_from_chl">
<polygon fill="white" stroke="black" points="174,-49.5 174,-79.5 287,-79.5 287,-49.5 174,-49.5"/>
<text text-anchor="start" x="182" y="-67.5" font-family="Helvetica,sans-Serif" font-size="10.00">mom_opacity::opacity</text>
<text text-anchor="middle" x="230.5" y="-56.5" font-family="Helvetica,sans-Serif" font-size="10.00">_from_chl</text>
</a>
</g>
</g>
<!-- Node21&#45;&gt;Node25 -->
<g id="edge5" class="edge"><title>Node21&#45;&gt;Node25</title>
<path fill="none" stroke="midnightblue" d="M131.39,-77.7418C142.02,-76.3071 153.044,-74.8192 163.696,-73.3815"/>
<polygon fill="midnightblue" stroke="midnightblue" points="164.328,-76.8281 173.77,-72.0219 163.391,-69.891 164.328,-76.8281"/>
</g>
<!-- Node28 -->
<g id="node8" class="node"><title>Node28</title>
<g id="a_node8"><a xlink:href="namespacemom__diag__mediator.html#a0be5d1cbc6c6f8f63950ce7d9bc6455a" target="_top" xlink:title="mom_diag_mediator::\lquery_averaging_enabled">
<polygon fill="white" stroke="black" points="167,-0.5 167,-30.5 294,-30.5 294,-0.5 167,-0.5"/>
<text text-anchor="start" x="175" y="-18.5" font-family="Helvetica,sans-Serif" font-size="10.00">mom_diag_mediator::</text>
<text text-anchor="middle" x="230.5" y="-7.5" font-family="Helvetica,sans-Serif" font-size="10.00">query_averaging_enabled</text>
</a>
</g>
</g>
<!-- Node21&#45;&gt;Node28 -->
<g id="edge9" class="edge"><title>Node21&#45;&gt;Node28</title>
<path fill="none" stroke="midnightblue" d="M85.9578,-76.8997C106.069,-67.0957 138.461,-51.6346 167,-39.5 171.081,-37.7646 175.335,-36.0134 179.618,-34.2895"/>
<polygon fill="midnightblue" stroke="midnightblue" points="180.98,-37.5146 188.987,-30.5764 178.401,-31.007 180.98,-37.5146"/>
</g>
<!-- Node22&#45;&gt;Node23 -->
<g id="edge2" class="edge"><title>Node22&#45;&gt;Node23</title>
<path fill="none" stroke="midnightblue" d="M291.427,-137.422C302.254,-134.697 313.564,-131.852 324.45,-129.113"/>
<polygon fill="midnightblue" stroke="midnightblue" points="325.459,-132.468 334.303,-126.634 323.751,-125.679 325.459,-132.468"/>
</g>
<!-- Node24 -->
<g id="node4" class="node"><title>Node24</title>
<g id="a_node4"><a xlink:href="namespacemom__error__handler.html#ad5f00a53059c72fe2332d1436c80ca71" target="_top" xlink:title="mom_error_handler::\lis_root_pe">
<polygon fill="white" stroke="black" points="481,-98.5 481,-128.5 587,-128.5 587,-98.5 481,-98.5"/>
<text text-anchor="start" x="489" y="-116.5" font-family="Helvetica,sans-Serif" font-size="10.00">mom_error_handler::</text>
<text text-anchor="middle" x="534" y="-105.5" font-family="Helvetica,sans-Serif" font-size="10.00">is_root_pe</text>
</a>
</g>
</g>
<!-- Node23&#45;&gt;Node24 -->
<g id="edge3" class="edge"><title>Node23&#45;&gt;Node24</title>
<path fill="none" stroke="midnightblue" d="M440.668,-113.5C450.388,-113.5 460.634,-113.5 470.624,-113.5"/>
<polygon fill="midnightblue" stroke="midnightblue" points="470.909,-117 480.909,-113.5 470.909,-110 470.909,-117"/>
</g>
<!-- Node25&#45;&gt;Node23 -->
<g id="edge6" class="edge"><title>Node25&#45;&gt;Node23</title>
<path fill="none" stroke="midnightblue" d="M279.27,-79.6014C294.96,-84.5615 312.566,-90.1274 328.906,-95.2929"/>
<polygon fill="midnightblue" stroke="midnightblue" points="328.298,-98.7713 338.888,-98.4484 330.408,-92.0969 328.298,-98.7713"/>
</g>
<!-- Node26 -->
<g id="node6" class="node"><title>Node26</title>
<g id="a_node6"><a xlink:href="namespacemom__opacity.html#a4498b4bb6fcf1b7d849f89aa87c0332e" target="_top" xlink:title="mom_opacity::opacity\l_morel">
<polygon fill="white" stroke="black" points="331,-49.5 331,-79.5 444,-79.5 444,-49.5 331,-49.5"/>
<text text-anchor="start" x="339" y="-67.5" font-family="Helvetica,sans-Serif" font-size="10.00">mom_opacity::opacity</text>
<text text-anchor="middle" x="387.5" y="-56.5" font-family="Helvetica,sans-Serif" font-size="10.00">_morel</text>
</a>
</g>
</g>
<!-- Node25&#45;&gt;Node26 -->
<g id="edge7" class="edge"><title>Node25&#45;&gt;Node26</title>
<path fill="none" stroke="midnightblue" d="M287.021,-64.5C297.928,-64.5 309.468,-64.5 320.675,-64.5"/>
<polygon fill="midnightblue" stroke="midnightblue" points="320.846,-68.0001 330.846,-64.5 320.846,-61.0001 320.846,-68.0001"/>
</g>
<!-- Node27 -->
<g id="node7" class="node"><title>Node27</title>
<g id="a_node7"><a xlink:href="namespacemom__opacity.html#a0017241c03e4536115674fc5fc9608bf" target="_top" xlink:title="mom_opacity::sw_pen\l_frac_morel">
<polygon fill="white" stroke="black" points="330,-0.5 330,-30.5 445,-30.5 445,-0.5 330,-0.5"/>
<text text-anchor="start" x="338" y="-18.5" font-family="Helvetica,sans-Serif" font-size="10.00">mom_opacity::sw_pen</text>
<text text-anchor="middle" x="387.5" y="-7.5" font-family="Helvetica,sans-Serif" font-size="10.00">_frac_morel</text>
</a>
</g>
</g>
<!-- Node25&#45;&gt;Node27 -->
<g id="edge8" class="edge"><title>Node25&#45;&gt;Node27</title>
<path fill="none" stroke="midnightblue" d="M279.27,-49.3986C294.96,-44.4385 312.566,-38.8726 328.906,-33.7071"/>
<polygon fill="midnightblue" stroke="midnightblue" points="330.408,-36.9031 338.888,-30.5516 328.298,-30.2287 330.408,-36.9031"/>
</g>
</g>
</svg>
        <g id="navigator" transform="translate(0 0)" fill="#404254">
                <rect fill="#f2f5e9" fill-opacity="0.5" stroke="#606060" stroke-width=".5" x="0" y="0" width="60" height="60"/>
                <use id="zoomplus" xlink:href="#zoomPlus" x="17" y="9" onmousedown="handleZoom(evt,'in')"/>
                <use id="zoomminus" xlink:href="#zoomMin" x="42" y="9" onmousedown="handleZoom(evt,'out')"/>
                <use id="reset" xlink:href="#resetDef" x="30" y="36" onmousedown="handleReset()"/>
                <g id="arrowUp" xlink:href="#dirArrow" transform="translate(30 24)" onmousedown="handlePan(0,-1)">
                  <use xlink:href="#rim" fill="#404040">
                        <set attributeName="fill" to="#808080" begin="arrowUp.mouseover" end="arrowUp.mouseout"/>
                  </use>
                  <path fill="none" stroke="white" stroke-width="1.5" d="M0,-3.0v7 M-2.5,-0.5L0,-3.0L2.5,-0.5"/>
                </g>
                <g id="arrowRight" xlink:href="#dirArrow" transform="rotate(90) translate(36 -43)" onmousedown="handlePan(1,0)">
                  <use xlink:href="#rim" fill="#404040">
                        <set attributeName="fill" to="#808080" begin="arrowRight.mouseover" end="arrowRight.mouseout"/>
                  </use>
                  <path fill="none" stroke="white" stroke-width="1.5" d="M0,-3.0v7 M-2.5,-0.5L0,-3.0L2.5,-0.5"/>
                </g>
                <g id="arrowDown" xlink:href="#dirArrow" transform="rotate(180) translate(-30 -48)" onmousedown="handlePan(0,1)">
                  <use xlink:href="#rim" fill="#404040">
                        <set attributeName="fill" to="#808080" begin="arrowDown.mouseover" end="arrowDown.mouseout"/>
                  </use>
                  <path fill="none" stroke="white" stroke-width="1.5" d="M0,-3.0v7 M-2.5,-0.5L0,-3.0L2.5,-0.5"/>
                </g>
                <g id="arrowLeft" xlink:href="#dirArrow" transform="rotate(270) translate(-36 17)" onmousedown="handlePan(-1,0)">
                  <use xlink:href="#rim" fill="#404040">
                        <set attributeName="fill" to="#808080" begin="arrowLeft.mouseover" end="arrowLeft.mouseout"/>
                  </use>
                  <path fill="none" stroke="white" stroke-width="1.5" d="M0,-3.0v7 M-2.5,-0.5L0,-3.0L2.5,-0.5"/>
                </g>
        </g>
        <svg viewBox="0 0 15 15" width="100%" height="30px" preserveAspectRatio="xMaxYMin meet">
         <g id="arrow_out" transform="scale(0.3 0.3)">
          <a xlink:href="namespacemom__opacity_aefadc7465f74c0cab731cf1adf5f3a57_cgraph_org.svg" target="_base">
           <rect id="button" ry="5" rx="5" y="6" x="6" height="38" width="38"
                fill="#f2f5e9" fill-opacity="0.5" stroke="#606060" stroke-width="1.0"/>
           <path id="arrow"
             d="M 11.500037,31.436501 C 11.940474,20.09759 22.043105,11.32322 32.158766,21.979434 L 37.068811,17.246167 C 37.068811,17.246167 37.088388,32 37.088388,32 L 22.160133,31.978069 C 22.160133,31.978069 26.997745,27.140456 26.997745,27.140456 C 18.528582,18.264221 13.291696,25.230495 11.500037,31.436501 z"
             style="fill:#404040;"/>
          </a>
         </g>
        </svg>
</svg>
