<?xml version="1.0" encoding="UTF-8" standalone="no"?>
<!DOCTYPE svg PUBLIC "-//W3C//DTD SVG 1.1//EN"
 "http://www.w3.org/Graphics/SVG/1.1/DTD/svg11.dtd">
<!-- Generated by graphviz version 2.38.0 (20140413.2041)
 -->
<!-- Title: mom_file_parser::populate_param_data Pages: 1 -->
<svg width="837pt" height="256pt"
 viewBox="0.00 0.00 837.00 256.00" xmlns="http://www.w3.org/2000/svg" xmlns:xlink="http://www.w3.org/1999/xlink">
<g id="graph0" class="graph" transform="scale(1 1) rotate(0) translate(4 252)">
<title>mom_file_parser::populate_param_data</title>
<polygon fill="white" stroke="none" points="-4,4 -4,-252 833,-252 833,4 -4,4"/>
<!-- Node318 -->
<g id="node1" class="node"><title>Node318</title>
<polygon fill="#bfbfbf" stroke="black" points="0,-109 0,-139 131,-139 131,-109 0,-109"/>
<text text-anchor="start" x="8" y="-127" font-family="Helvetica,sans-Serif" font-size="10.00">mom_file_parser::populate</text>
<text text-anchor="middle" x="65.5" y="-116" font-family="Helvetica,sans-Serif" font-size="10.00">_param_data</text>
</g>
<!-- Node319 -->
<g id="node2" class="node"><title>Node319</title>
<g id="a_node2"><a xlink:href="namespacemom__file__parser.html#a99c426fd23fc4df0c4d05e33039e0a66" target="_top" xlink:title="mom_file_parser::closemultilinecomment">
<polygon fill="white" stroke="black" points="167,-228.5 167,-247.5 361,-247.5 361,-228.5 167,-228.5"/>
<text text-anchor="middle" x="264" y="-235.5" font-family="Helvetica,sans-Serif" font-size="10.00">mom_file_parser::closemultilinecomment</text>
</a>
</g>
</g>
<!-- Node318&#45;&gt;Node319 -->
<g id="edge1" class="edge"><title>Node318&#45;&gt;Node319</title>
<path fill="none" stroke="midnightblue" d="M79.1403,-139.215C96.7375,-159.389 130.583,-194.685 167,-214 176.029,-218.789 186.045,-222.648 196.103,-225.751"/>
<polygon fill="midnightblue" stroke="midnightblue" points="195.15,-229.119 205.727,-228.5 197.073,-222.388 195.15,-229.119"/>
</g>
<!-- Node320 -->
<g id="node3" class="node"><title>Node320</title>
<g id="a_node3"><a xlink:href="namespacemom__error__handler.html#ad5f00a53059c72fe2332d1436c80ca71" target="_top" xlink:title="mom_error_handler::\lis_root_pe">
<polygon fill="white" stroke="black" points="447,-128 447,-158 553,-158 553,-128 447,-128"/>
<text text-anchor="start" x="455" y="-146" font-family="Helvetica,sans-Serif" font-size="10.00">mom_error_handler::</text>
<text text-anchor="middle" x="500" y="-135" font-family="Helvetica,sans-Serif" font-size="10.00">is_root_pe</text>
</a>
</g>
</g>
<!-- Node318&#45;&gt;Node320 -->
<g id="edge2" class="edge"><title>Node318&#45;&gt;Node320</title>
<path fill="none" stroke="midnightblue" d="M131.122,-138.056C143,-140.114 155.331,-141.907 167,-143 260.558,-151.766 369.598,-149.367 436.459,-146.469"/>
<polygon fill="midnightblue" stroke="midnightblue" points="436.987,-149.948 446.819,-146.001 436.671,-142.956 436.987,-149.948"/>
</g>
<!-- Node321 -->
<g id="node4" class="node"><title>Node321</title>
<g id="a_node4"><a xlink:href="namespacemom__file__parser.html#ab4b89d9420e174185db1c6aa3feb948b" target="_top" xlink:title="mom_file_parser::lastnoncommentnonblank">
<polygon fill="white" stroke="black" points="397,-76.5 397,-95.5 603,-95.5 603,-76.5 397,-76.5"/>
<text text-anchor="middle" x="500" y="-83.5" font-family="Helvetica,sans-Serif" font-size="10.00">mom_file_parser::lastnoncommentnonblank</text>
</a>
</g>
</g>
<!-- Node318&#45;&gt;Node321 -->
<g id="edge3" class="edge"><title>Node318&#45;&gt;Node321</title>
<path fill="none" stroke="midnightblue" d="M131.181,-110.495C143.053,-108.38 155.368,-106.426 167,-105 239.888,-96.0627 322.306,-91.316 386.79,-88.8021"/>
<polygon fill="midnightblue" stroke="midnightblue" points="387.12,-92.2922 396.981,-88.4174 386.856,-85.2972 387.12,-92.2922"/>
</g>
<!-- Node323 -->
<g id="node6" class="node"><title>Node323</title>
<g id="a_node6"><a xlink:href="namespacemom__file__parser.html#a476a2649ce161e38088588e07f7df130" target="_top" xlink:title="mom_file_parser::openmultilinecomment">
<polygon fill="white" stroke="black" points="404,-183.5 404,-202.5 596,-202.5 596,-183.5 404,-183.5"/>
<text text-anchor="middle" x="500" y="-190.5" font-family="Helvetica,sans-Serif" font-size="10.00">mom_file_parser::openmultilinecomment</text>
</a>
</g>
</g>
<!-- Node318&#45;&gt;Node323 -->
<g id="edge5" class="edge"><title>Node318&#45;&gt;Node323</title>
<path fill="none" stroke="midnightblue" d="M102.149,-139.181C121.083,-146.623 144.942,-155.032 167,-160 241.691,-176.822 327.76,-185.07 393.546,-189.114"/>
<polygon fill="midnightblue" stroke="midnightblue" points="393.736,-192.631 403.926,-189.727 394.15,-185.643 393.736,-192.631"/>
</g>
<!-- Node324 -->
<g id="node7" class="node"><title>Node324</title>
<g id="a_node7"><a xlink:href="namespacemom__file__parser.html#ae0b982cc161173a401291757a6677373" target="_top" xlink:title="mom_file_parser::removecomments">
<polygon fill="white" stroke="black" points="177.5,-0.5 177.5,-19.5 350.5,-19.5 350.5,-0.5 177.5,-0.5"/>
<text text-anchor="middle" x="264" y="-7.5" font-family="Helvetica,sans-Serif" font-size="10.00">mom_file_parser::removecomments</text>
</a>
</g>
</g>
<!-- Node318&#45;&gt;Node324 -->
<g id="edge7" class="edge"><title>Node318&#45;&gt;Node324</title>
<path fill="none" stroke="midnightblue" d="M77.9412,-108.735C94.8895,-87.3004 128.807,-48.7058 167,-29 171.6,-26.6264 176.466,-24.5487 181.467,-22.73"/>
<polygon fill="midnightblue" stroke="midnightblue" points="182.803,-25.9757 191.221,-19.5422 180.628,-19.3221 182.803,-25.9757"/>
</g>
<!-- Node325 -->
<g id="node8" class="node"><title>Node325</title>
<g id="a_node8"><a xlink:href="namespacemom__file__parser.html#a9813087789e0924f363d7f67768c7f42" target="_top" xlink:title="mom_file_parser::replacetabs">
<polygon fill="white" stroke="black" points="191.5,-38.5 191.5,-57.5 336.5,-57.5 336.5,-38.5 191.5,-38.5"/>
<text text-anchor="middle" x="264" y="-45.5" font-family="Helvetica,sans-Serif" font-size="10.00">mom_file_parser::replacetabs</text>
</a>
</g>
</g>
<!-- Node318&#45;&gt;Node325 -->
<g id="edge9" class="edge"><title>Node318&#45;&gt;Node325</title>
<path fill="none" stroke="midnightblue" d="M91.7689,-108.827C111.65,-97.4128 140.353,-82.0675 167,-72 179.294,-67.3551 192.813,-63.3432 205.727,-60.0006"/>
<polygon fill="midnightblue" stroke="midnightblue" points="206.598,-63.3907 215.455,-57.5756 204.905,-56.5986 206.598,-63.3907"/>
</g>
<!-- Node326 -->
<g id="node9" class="node"><title>Node326</title>
<g id="a_node9"><a xlink:href="namespacemom__file__parser.html#a3ad322925f44e8cb48c4e652634f6f93" target="_top" xlink:title="mom_file_parser::simplifywhitespace">
<polygon fill="white" stroke="black" points="175,-114.5 175,-133.5 353,-133.5 353,-114.5 175,-114.5"/>
<text text-anchor="middle" x="264" y="-121.5" font-family="Helvetica,sans-Serif" font-size="10.00">mom_file_parser::simplifywhitespace</text>
</a>
</g>
</g>
<!-- Node318&#45;&gt;Node326 -->
<g id="edge10" class="edge"><title>Node318&#45;&gt;Node326</title>
<path fill="none" stroke="midnightblue" d="M131.114,-124C141.928,-124 153.361,-124 164.793,-124"/>
<polygon fill="midnightblue" stroke="midnightblue" points="164.824,-127.5 174.824,-124 164.824,-120.5 164.824,-127.5"/>
</g>
<!-- Node322 -->
<g id="node5" class="node"><title>Node322</title>
<g id="a_node5"><a xlink:href="namespacemom__file__parser.html#a000fd0a0681f9e73481ef2663154df78" target="_top" xlink:title="mom_file_parser::lastnoncommentindex">
<polygon fill="white" stroke="black" points="639,-129.5 639,-148.5 829,-148.5 829,-129.5 639,-129.5"/>
<text text-anchor="middle" x="734" y="-136.5" font-family="Helvetica,sans-Serif" font-size="10.00">mom_file_parser::lastnoncommentindex</text>
</a>
</g>
</g>
<!-- Node321&#45;&gt;Node322 -->
<g id="edge4" class="edge"><title>Node321&#45;&gt;Node322</title>
<path fill="none" stroke="midnightblue" d="M542.745,-95.5365C581.552,-104.402 639.489,-117.637 681.226,-127.172"/>
<polygon fill="midnightblue" stroke="midnightblue" points="680.671,-130.636 691.2,-129.451 682.23,-123.811 680.671,-130.636"/>
</g>
<!-- Node323&#45;&gt;Node322 -->
<g id="edge6" class="edge"><title>Node323&#45;&gt;Node322</title>
<path fill="none" stroke="midnightblue" d="M541.943,-183.47C581.082,-174.36 640.2,-160.6 682.299,-150.801"/>
<polygon fill="midnightblue" stroke="midnightblue" points="683.131,-154.201 692.077,-148.525 681.544,-147.383 683.131,-154.201"/>
</g>
<!-- Node324&#45;&gt;Node321 -->
<g id="edge8" class="edge"><title>Node324&#45;&gt;Node321</title>
<path fill="none" stroke="midnightblue" d="M322.817,-19.5339C335.512,-22.1556 348.803,-25.313 361,-29 399.673,-40.69 442.408,-59.2738 469.924,-72.024"/>
<polygon fill="midnightblue" stroke="midnightblue" points="468.797,-75.3609 479.337,-76.4339 471.767,-69.0221 468.797,-75.3609"/>
</g>
<!-- Node326&#45;&gt;Node320 -->
<g id="edge11" class="edge"><title>Node326&#45;&gt;Node320</title>
<path fill="none" stroke="midnightblue" d="M353.132,-131.156C380.915,-133.412 411.015,-135.856 436.617,-137.935"/>
<polygon fill="midnightblue" stroke="midnightblue" points="436.674,-141.451 446.925,-138.772 437.241,-134.474 436.674,-141.451"/>
</g>
</g>
</svg>
