<?xml version="1.0" encoding="UTF-8" standalone="no"?>
<!DOCTYPE svg PUBLIC "-//W3C//DTD SVG 1.1//EN"
 "http://www.w3.org/Graphics/SVG/1.1/DTD/svg11.dtd">
<!-- Generated by graphviz version 2.38.0 (20140413.2041)
 -->
<!-- Title: mom_restart::save_restart Pages: 1 -->
<svg width="564pt" height="61pt"
 viewBox="0.00 0.00 564.00 61.00" xmlns="http://www.w3.org/2000/svg" xmlns:xlink="http://www.w3.org/1999/xlink">
<g id="graph0" class="graph" transform="scale(1 1) rotate(0) translate(4 57)">
<title>mom_restart::save_restart</title>
<polygon fill="white" stroke="none" points="-4,4 -4,-57 560,-57 560,4 -4,4"/>
<!-- Node129 -->
<g id="node1" class="node"><title>Node129</title>
<polygon fill="#bfbfbf" stroke="black" points="0,-28 0,-47 131,-47 131,-28 0,-28"/>
<text text-anchor="middle" x="65.5" y="-35" font-family="Helvetica,sans-Serif" font-size="10.00">mom_restart::save_restart</text>
</g>
<!-- Node130 -->
<g id="node2" class="node"><title>Node130</title>
<g id="a_node2"><a xlink:href="namespacemom__error__handler.html#a460cfb79a06c29fc249952c2a3710d67" target="_top" xlink:title="mom_error_handler::\lmom_error">
<polygon fill="white" stroke="black" points="308,-22.5 308,-52.5 414,-52.5 414,-22.5 308,-22.5"/>
<text text-anchor="start" x="316" y="-40.5" font-family="Helvetica,sans-Serif" font-size="10.00">mom_error_handler::</text>
<text text-anchor="middle" x="361" y="-29.5" font-family="Helvetica,sans-Serif" font-size="10.00">mom_error</text>
</a>
</g>
</g>
<!-- Node129&#45;&gt;Node130 -->
<g id="edge1" class="edge"><title>Node129&#45;&gt;Node130</title>
<path fill="none" stroke="midnightblue" d="M131.099,-39.7132C143.035,-40.0412 155.393,-40.3268 167,-40.5 213.661,-41.1963 225.34,-41.2951 272,-40.5 280.349,-40.3577 289.142,-40.1396 297.809,-39.8844"/>
<polygon fill="midnightblue" stroke="midnightblue" points="298.005,-43.3801 307.891,-39.5702 297.787,-36.3835 298.005,-43.3801"/>
</g>
<!-- Node132 -->
<g id="node4" class="node"><title>Node132</title>
<g id="a_node4"><a xlink:href="namespacemom__restart.html#a4b143fb18dab7c0825e426fbf9532623" target="_top" xlink:title="mom_restart::restart\l_error">
<polygon fill="white" stroke="black" points="167,-0.5 167,-30.5 272,-30.5 272,-0.5 167,-0.5"/>
<text text-anchor="start" x="175" y="-18.5" font-family="Helvetica,sans-Serif" font-size="10.00">mom_restart::restart</text>
<text text-anchor="middle" x="219.5" y="-7.5" font-family="Helvetica,sans-Serif" font-size="10.00">_error</text>
</a>
</g>
</g>
<!-- Node129&#45;&gt;Node132 -->
<g id="edge3" class="edge"><title>Node129&#45;&gt;Node132</title>
<path fill="none" stroke="midnightblue" d="M131.403,-28.1062C139.778,-26.894 148.337,-25.6552 156.661,-24.4504"/>
<polygon fill="midnightblue" stroke="midnightblue" points="157.275,-27.8981 166.67,-23.0017 156.272,-20.9703 157.275,-27.8981"/>
</g>
<!-- Node131 -->
<g id="node3" class="node"><title>Node131</title>
<g id="a_node3"><a xlink:href="namespacemom__error__handler.html#ad5f00a53059c72fe2332d1436c80ca71" target="_top" xlink:title="mom_error_handler::\lis_root_pe">
<polygon fill="white" stroke="black" points="450,-22.5 450,-52.5 556,-52.5 556,-22.5 450,-22.5"/>
<text text-anchor="start" x="458" y="-40.5" font-family="Helvetica,sans-Serif" font-size="10.00">mom_error_handler::</text>
<text text-anchor="middle" x="503" y="-29.5" font-family="Helvetica,sans-Serif" font-size="10.00">is_root_pe</text>
</a>
</g>
</g>
<!-- Node130&#45;&gt;Node131 -->
<g id="edge2" class="edge"><title>Node130&#45;&gt;Node131</title>
<path fill="none" stroke="midnightblue" d="M414.131,-37.5C422.421,-37.5 431.07,-37.5 439.568,-37.5"/>
<polygon fill="midnightblue" stroke="midnightblue" points="439.826,-41.0001 449.826,-37.5 439.826,-34.0001 439.826,-41.0001"/>
</g>
<!-- Node132&#45;&gt;Node130 -->
<g id="edge4" class="edge"><title>Node132&#45;&gt;Node130</title>
<path fill="none" stroke="midnightblue" d="M272.048,-23.6295C280.416,-24.9491 289.16,-26.328 297.75,-27.6827"/>
<polygon fill="midnightblue" stroke="midnightblue" points="297.308,-31.1563 307.731,-29.2569 298.399,-24.2418 297.308,-31.1563"/>
</g>
</g>
</svg>
