<?xml version="1.0" encoding="UTF-8" standalone="no"?>
<!DOCTYPE svg PUBLIC "-//W3C//DTD SVG 1.1//EN"
 "http://www.w3.org/Graphics/SVG/1.1/DTD/svg11.dtd">
<!-- Generated by graphviz version 2.38.0 (20140413.2041)
 -->
<!-- Title: mom_bulk_mixed_layer::mechanical_entrainment Pages: 1 -->
<svg width="434pt" height="39pt"
 viewBox="0.00 0.00 434.00 39.00" xmlns="http://www.w3.org/2000/svg" xmlns:xlink="http://www.w3.org/1999/xlink">
<g id="graph0" class="graph" transform="scale(1 1) rotate(0) translate(4 35)">
<title>mom_bulk_mixed_layer::mechanical_entrainment</title>
<polygon fill="white" stroke="none" points="-4,4 -4,-35 430,-35 430,4 -4,4"/>
<!-- Node37 -->
<g id="node1" class="node"><title>Node37</title>
<polygon fill="#bfbfbf" stroke="black" points="0,-0.5 0,-30.5 128,-30.5 128,-0.5 0,-0.5"/>
<text text-anchor="start" x="8" y="-18.5" font-family="Helvetica,sans-Serif" font-size="10.00">mom_bulk_mixed_layer</text>
<text text-anchor="middle" x="64" y="-7.5" font-family="Helvetica,sans-Serif" font-size="10.00">::mechanical_entrainment</text>
</g>
<!-- Node38 -->
<g id="node2" class="node"><title>Node38</title>
<g id="a_node2"><a xlink:href="namespacemom__bulk__mixed__layer.html#af4ea9156c3759dd0328f0f994fe64e71" target="_top" xlink:title="This subroutine partially steps the bulk mixed layer model. The following processes are executed...">
<polygon fill="white" stroke="black" points="164,-0.5 164,-30.5 283,-30.5 283,-0.5 164,-0.5"/>
<text text-anchor="start" x="172" y="-18.5" font-family="Helvetica,sans-Serif" font-size="10.00">mom_bulk_mixed_layer</text>
<text text-anchor="middle" x="223.5" y="-7.5" font-family="Helvetica,sans-Serif" font-size="10.00">::bulkmixedlayer</text>
</a>
</g>
</g>
<!-- Node37&#45;&gt;Node38 -->
<g id="edge1" class="edge"><title>Node37&#45;&gt;Node38</title>
<path fill="none" stroke="midnightblue" d="M138.209,-15.5C146.831,-15.5 155.542,-15.5 163.926,-15.5"/>
<polygon fill="midnightblue" stroke="midnightblue" points="138.154,-12.0001 128.154,-15.5 138.154,-19.0001 138.154,-12.0001"/>
</g>
<!-- Node39 -->
<g id="node3" class="node"><title>Node39</title>
<g id="a_node3"><a xlink:href="namespacemom__diabatic__driver.html#af76fe90c618a04d7806bc53fe0f7a2a7" target="_top" xlink:title="This subroutine imposes the diapycnal mass fluxes and the accompanying diapycnal advection of momentu...">
<polygon fill="white" stroke="black" points="319,-0.5 319,-30.5 426,-30.5 426,-0.5 319,-0.5"/>
<text text-anchor="start" x="327" y="-18.5" font-family="Helvetica,sans-Serif" font-size="10.00">mom_diabatic_driver</text>
<text text-anchor="middle" x="372.5" y="-7.5" font-family="Helvetica,sans-Serif" font-size="10.00">::diabatic</text>
</a>
</g>
</g>
<!-- Node38&#45;&gt;Node39 -->
<g id="edge2" class="edge"><title>Node38&#45;&gt;Node39</title>
<path fill="none" stroke="midnightblue" d="M293.119,-15.5C301.781,-15.5 310.534,-15.5 318.893,-15.5"/>
<polygon fill="midnightblue" stroke="midnightblue" points="293.021,-12.0001 283.021,-15.5 293.021,-19.0001 293.021,-12.0001"/>
</g>
</g>
</svg>
