<?xml version="1.0" encoding="UTF-8" standalone="no"?>
<!DOCTYPE svg PUBLIC "-//W3C//DTD SVG 1.1//EN"
 "http://www.w3.org/Graphics/SVG/1.1/DTD/svg11.dtd">
<!-- Generated by graphviz version 2.38.0 (20140413.2041)
 -->
<!-- Title: mom_ice_shelf::ice_shelf_solve_inner Pages: 1 -->
<svg width="623pt" height="284pt"
 viewBox="0.00 0.00 623.00 284.00" xmlns="http://www.w3.org/2000/svg" xmlns:xlink="http://www.w3.org/1999/xlink">
<g id="graph0" class="graph" transform="scale(1 1) rotate(0) translate(4 280)">
<title>mom_ice_shelf::ice_shelf_solve_inner</title>
<polygon fill="white" stroke="none" points="-4,4 -4,-280 619,-280 619,4 -4,4"/>
<!-- Node176 -->
<g id="node1" class="node"><title>Node176</title>
<polygon fill="#bfbfbf" stroke="black" points="0,-122.5 0,-152.5 101,-152.5 101,-122.5 0,-122.5"/>
<text text-anchor="start" x="8" y="-140.5" font-family="Helvetica,sans-Serif" font-size="10.00">mom_ice_shelf::ice</text>
<text text-anchor="middle" x="50.5" y="-129.5" font-family="Helvetica,sans-Serif" font-size="10.00">_shelf_solve_inner</text>
</g>
<!-- Node177 -->
<g id="node2" class="node"><title>Node177</title>
<g id="a_node2"><a xlink:href="namespacemom__ice__shelf.html#a5d534895698ad80a68be9a1b992c4d0b" target="_top" xlink:title="mom_ice_shelf::apply\l_boundary_values_bilinear">
<polygon fill="white" stroke="black" points="137.5,-147.5 137.5,-177.5 268.5,-177.5 268.5,-147.5 137.5,-147.5"/>
<text text-anchor="start" x="145.5" y="-165.5" font-family="Helvetica,sans-Serif" font-size="10.00">mom_ice_shelf::apply</text>
<text text-anchor="middle" x="203" y="-154.5" font-family="Helvetica,sans-Serif" font-size="10.00">_boundary_values_bilinear</text>
</a>
</g>
</g>
<!-- Node176&#45;&gt;Node177 -->
<g id="edge1" class="edge"><title>Node176&#45;&gt;Node177</title>
<path fill="none" stroke="midnightblue" d="M101.196,-145.755C109.595,-147.15 118.474,-148.625 127.343,-150.099"/>
<polygon fill="midnightblue" stroke="midnightblue" points="126.887,-153.571 137.326,-151.757 128.035,-146.665 126.887,-153.571"/>
</g>
<!-- Node181 -->
<g id="node6" class="node"><title>Node181</title>
<g id="a_node6"><a xlink:href="namespacemom__ice__shelf.html#a6d1174213d77aef09d2eaae2fd138edd" target="_top" xlink:title="mom_ice_shelf::apply\l_boundary_values_triangle">
<polygon fill="white" stroke="black" points="137,-196.5 137,-226.5 269,-226.5 269,-196.5 137,-196.5"/>
<text text-anchor="start" x="145" y="-214.5" font-family="Helvetica,sans-Serif" font-size="10.00">mom_ice_shelf::apply</text>
<text text-anchor="middle" x="203" y="-203.5" font-family="Helvetica,sans-Serif" font-size="10.00">_boundary_values_triangle</text>
</a>
</g>
</g>
<!-- Node176&#45;&gt;Node181 -->
<g id="edge5" class="edge"><title>Node176&#45;&gt;Node181</title>
<path fill="none" stroke="midnightblue" d="M74.8487,-152.659C91.7038,-163.225 115.234,-177.215 137,-187.5 140.732,-189.263 144.631,-190.985 148.586,-192.645"/>
<polygon fill="midnightblue" stroke="midnightblue" points="147.278,-195.892 157.861,-196.396 149.902,-189.402 147.278,-195.892"/>
</g>
<!-- Node182 -->
<g id="node7" class="node"><title>Node182</title>
<g id="a_node7"><a xlink:href="namespacemom__ice__shelf.html#a08bef308dd58f20b81330c5706f71e1f" target="_top" xlink:title="mom_ice_shelf::cg_action\l_bilinear">
<polygon fill="white" stroke="black" points="137.5,-245.5 137.5,-275.5 268.5,-275.5 268.5,-245.5 137.5,-245.5"/>
<text text-anchor="start" x="145.5" y="-263.5" font-family="Helvetica,sans-Serif" font-size="10.00">mom_ice_shelf::cg_action</text>
<text text-anchor="middle" x="203" y="-252.5" font-family="Helvetica,sans-Serif" font-size="10.00">_bilinear</text>
</a>
</g>
</g>
<!-- Node176&#45;&gt;Node182 -->
<g id="edge6" class="edge"><title>Node176&#45;&gt;Node182</title>
<path fill="none" stroke="midnightblue" d="M60.9843,-152.697C75.0998,-174.168 103.589,-213.343 137,-236.5 139.119,-237.969 141.34,-239.36 143.629,-240.677"/>
<polygon fill="midnightblue" stroke="midnightblue" points="142.245,-243.901 152.735,-245.387 145.461,-237.684 142.245,-243.901"/>
</g>
<!-- Node183 -->
<g id="node8" class="node"><title>Node183</title>
<g id="a_node8"><a xlink:href="namespacemom__ice__shelf.html#a0ad3713e3c3ee71d987d6cd82c45181e" target="_top" xlink:title="mom_ice_shelf::cg_action\l_triangular">
<polygon fill="white" stroke="black" points="137.5,-98.5 137.5,-128.5 268.5,-128.5 268.5,-98.5 137.5,-98.5"/>
<text text-anchor="start" x="145.5" y="-116.5" font-family="Helvetica,sans-Serif" font-size="10.00">mom_ice_shelf::cg_action</text>
<text text-anchor="middle" x="203" y="-105.5" font-family="Helvetica,sans-Serif" font-size="10.00">_triangular</text>
</a>
</g>
</g>
<!-- Node176&#45;&gt;Node183 -->
<g id="edge8" class="edge"><title>Node176&#45;&gt;Node183</title>
<path fill="none" stroke="midnightblue" d="M101.196,-129.575C109.595,-128.236 118.474,-126.82 127.343,-125.405"/>
<polygon fill="midnightblue" stroke="midnightblue" points="128.002,-128.845 137.326,-123.813 126.899,-121.932 128.002,-128.845"/>
</g>
<!-- Node184 -->
<g id="node9" class="node"><title>Node184</title>
<g id="a_node9"><a xlink:href="namespacemom__ice__shelf.html#a0fa0e5e0225816e5e5e87994371f11f1" target="_top" xlink:title="mom_ice_shelf::matrix\l_diagonal_bilinear">
<polygon fill="white" stroke="black" points="145,-49.5 145,-79.5 261,-79.5 261,-49.5 145,-49.5"/>
<text text-anchor="start" x="153" y="-67.5" font-family="Helvetica,sans-Serif" font-size="10.00">mom_ice_shelf::matrix</text>
<text text-anchor="middle" x="203" y="-56.5" font-family="Helvetica,sans-Serif" font-size="10.00">_diagonal_bilinear</text>
</a>
</g>
</g>
<!-- Node176&#45;&gt;Node184 -->
<g id="edge9" class="edge"><title>Node176&#45;&gt;Node184</title>
<path fill="none" stroke="midnightblue" d="M75.2516,-122.458C92.0993,-112.147 115.454,-98.5658 137,-88.5 140.801,-86.7243 144.773,-84.9869 148.798,-83.3105"/>
<polygon fill="midnightblue" stroke="midnightblue" points="150.258,-86.4958 158.232,-79.52 147.649,-80.0004 150.258,-86.4958"/>
</g>
<!-- Node186 -->
<g id="node11" class="node"><title>Node186</title>
<g id="a_node11"><a xlink:href="namespacemom__ice__shelf.html#abc77d7c18a2919c9308c39aa26f916bf" target="_top" xlink:title="mom_ice_shelf::matrix\l_diagonal_triangle">
<polygon fill="white" stroke="black" points="145,-0.5 145,-30.5 261,-30.5 261,-0.5 145,-0.5"/>
<text text-anchor="start" x="153" y="-18.5" font-family="Helvetica,sans-Serif" font-size="10.00">mom_ice_shelf::matrix</text>
<text text-anchor="middle" x="203" y="-7.5" font-family="Helvetica,sans-Serif" font-size="10.00">_diagonal_triangle</text>
</a>
</g>
</g>
<!-- Node176&#45;&gt;Node186 -->
<g id="edge12" class="edge"><title>Node176&#45;&gt;Node186</title>
<path fill="none" stroke="midnightblue" d="M61.021,-122.461C75.1811,-101.212 103.724,-62.4393 137,-39.5 139.123,-38.0363 141.347,-36.6495 143.639,-35.3369"/>
<polygon fill="midnightblue" stroke="midnightblue" points="145.468,-38.3313 152.751,-30.6366 142.26,-32.1101 145.468,-38.3313"/>
</g>
<!-- Node178 -->
<g id="node3" class="node"><title>Node178</title>
<g id="a_node3"><a xlink:href="namespacemom__ice__shelf.html#a9f77faf4c64078c8bce0546bb024f34e" target="_top" xlink:title="mom_ice_shelf::bilinear\l_shape_functions">
<polygon fill="white" stroke="black" points="315.5,-98.5 315.5,-128.5 434.5,-128.5 434.5,-98.5 315.5,-98.5"/>
<text text-anchor="start" x="323.5" y="-116.5" font-family="Helvetica,sans-Serif" font-size="10.00">mom_ice_shelf::bilinear</text>
<text text-anchor="middle" x="375" y="-105.5" font-family="Helvetica,sans-Serif" font-size="10.00">_shape_functions</text>
</a>
</g>
</g>
<!-- Node177&#45;&gt;Node178 -->
<g id="edge2" class="edge"><title>Node177&#45;&gt;Node178</title>
<path fill="none" stroke="midnightblue" d="M256.393,-147.399C274.007,-142.321 293.823,-136.61 312.098,-131.342"/>
<polygon fill="midnightblue" stroke="midnightblue" points="313.141,-134.684 321.78,-128.552 311.202,-127.958 313.141,-134.684"/>
</g>
<!-- Node180 -->
<g id="node5" class="node"><title>Node180</title>
<g id="a_node5"><a xlink:href="namespacemom__ice__shelf.html#a925d19b978b5368c3b0d5cae3b542bfe" target="_top" xlink:title="mom_ice_shelf::cg_action\l_subgrid_basal_bilinear">
<polygon fill="white" stroke="black" points="309.5,-196.5 309.5,-226.5 440.5,-226.5 440.5,-196.5 309.5,-196.5"/>
<text text-anchor="start" x="317.5" y="-214.5" font-family="Helvetica,sans-Serif" font-size="10.00">mom_ice_shelf::cg_action</text>
<text text-anchor="middle" x="375" y="-203.5" font-family="Helvetica,sans-Serif" font-size="10.00">_subgrid_basal_bilinear</text>
</a>
</g>
</g>
<!-- Node177&#45;&gt;Node180 -->
<g id="edge4" class="edge"><title>Node177&#45;&gt;Node180</title>
<path fill="none" stroke="midnightblue" d="M256.393,-177.601C274.007,-182.679 293.823,-188.39 312.098,-193.658"/>
<polygon fill="midnightblue" stroke="midnightblue" points="311.202,-197.042 321.78,-196.448 313.141,-190.316 311.202,-197.042"/>
</g>
<!-- Node179 -->
<g id="node4" class="node"><title>Node179</title>
<g id="a_node4"><a xlink:href="namespacemom__ice__shelf.html#a43bcb4adfaabc54cd57ad8d96b71c224" target="_top" xlink:title="Calculate area of quadrilateral. ">
<polygon fill="white" stroke="black" points="481,-104 481,-123 615,-123 615,-104 481,-104"/>
<text text-anchor="middle" x="548" y="-111" font-family="Helvetica,sans-Serif" font-size="10.00">mom_ice_shelf::quad_area</text>
</a>
</g>
</g>
<!-- Node178&#45;&gt;Node179 -->
<g id="edge3" class="edge"><title>Node178&#45;&gt;Node179</title>
<path fill="none" stroke="midnightblue" d="M434.848,-113.5C446.396,-113.5 458.665,-113.5 470.688,-113.5"/>
<polygon fill="midnightblue" stroke="midnightblue" points="470.709,-117 480.709,-113.5 470.709,-110 470.709,-117"/>
</g>
<!-- Node182&#45;&gt;Node180 -->
<g id="edge7" class="edge"><title>Node182&#45;&gt;Node180</title>
<path fill="none" stroke="midnightblue" d="M256.393,-245.399C274.007,-240.321 293.823,-234.61 312.098,-229.342"/>
<polygon fill="midnightblue" stroke="midnightblue" points="313.141,-232.684 321.78,-226.552 311.202,-225.958 313.141,-232.684"/>
</g>
<!-- Node184&#45;&gt;Node178 -->
<g id="edge10" class="edge"><title>Node184&#45;&gt;Node178</title>
<path fill="none" stroke="midnightblue" d="M256.393,-79.6014C274.007,-84.6785 293.823,-90.3902 312.098,-95.6577"/>
<polygon fill="midnightblue" stroke="midnightblue" points="311.202,-99.0418 321.78,-98.4484 313.141,-92.3157 311.202,-99.0418"/>
</g>
<!-- Node185 -->
<g id="node10" class="node"><title>Node185</title>
<g id="a_node10"><a xlink:href="namespacemom__ice__shelf.html#af109d5577049ff4ded3b07d5ab25a771" target="_top" xlink:title="mom_ice_shelf::cg_diagonal\l_subgrid_basal_bilinear">
<polygon fill="white" stroke="black" points="305,-49.5 305,-79.5 445,-79.5 445,-49.5 305,-49.5"/>
<text text-anchor="start" x="313" y="-67.5" font-family="Helvetica,sans-Serif" font-size="10.00">mom_ice_shelf::cg_diagonal</text>
<text text-anchor="middle" x="375" y="-56.5" font-family="Helvetica,sans-Serif" font-size="10.00">_subgrid_basal_bilinear</text>
</a>
</g>
</g>
<!-- Node184&#45;&gt;Node185 -->
<g id="edge11" class="edge"><title>Node184&#45;&gt;Node185</title>
<path fill="none" stroke="midnightblue" d="M261.08,-64.5C271.863,-64.5 283.319,-64.5 294.642,-64.5"/>
<polygon fill="midnightblue" stroke="midnightblue" points="294.979,-68.0001 304.979,-64.5 294.979,-61.0001 294.979,-68.0001"/>
</g>
</g>
</svg>
