<?xml version="1.0" encoding="UTF-8" standalone="no"?>
<!DOCTYPE svg PUBLIC "-//W3C//DTD SVG 1.1//EN"
 "http://www.w3.org/Graphics/SVG/1.1/DTD/svg11.dtd">
<!-- Generated by graphviz version 2.38.0 (20140413.2041)
 -->
<!-- Title: mom::write_static_fields Pages: 1 -->
<svg width="375pt" height="28pt"
 viewBox="0.00 0.00 375.00 28.00" xmlns="http://www.w3.org/2000/svg" xmlns:xlink="http://www.w3.org/1999/xlink">
<g id="graph0" class="graph" transform="scale(1 1) rotate(0) translate(4 24)">
<title>mom::write_static_fields</title>
<polygon fill="white" stroke="none" points="-4,4 -4,-24 371,-24 371,4 -4,4"/>
<!-- Node475 -->
<g id="node1" class="node"><title>Node475</title>
<polygon fill="#bfbfbf" stroke="black" points="0,-0.5 0,-19.5 123,-19.5 123,-0.5 0,-0.5"/>
<text text-anchor="middle" x="61.5" y="-7.5" font-family="Helvetica,sans-Serif" font-size="10.00">mom::write_static_fields</text>
</g>
<!-- Node476 -->
<g id="node2" class="node"><title>Node476</title>
<g id="a_node2"><a xlink:href="namespacemom.html#a0be2869fef30e1e0604facfe1b41555d" target="_top" xlink:title="This subroutine initializes MOM. ">
<polygon fill="white" stroke="black" points="159,-0.5 159,-19.5 266,-19.5 266,-0.5 159,-0.5"/>
<text text-anchor="middle" x="212.5" y="-7.5" font-family="Helvetica,sans-Serif" font-size="10.00">mom::initialize_mom</text>
</a>
</g>
</g>
<!-- Node475&#45;&gt;Node476 -->
<g id="edge1" class="edge"><title>Node475&#45;&gt;Node476</title>
<path fill="none" stroke="midnightblue" d="M133.115,-10C141.694,-10 150.341,-10 158.601,-10"/>
<polygon fill="midnightblue" stroke="midnightblue" points="133.104,-6.5001 123.104,-10 133.104,-13.5001 133.104,-6.5001"/>
</g>
<!-- Node477 -->
<g id="node3" class="node"><title>Node477</title>
<g id="a_node3"><a xlink:href="MOM__driver_8F90.html#a08fffeb2d8e8acbf9ed4609be6d258c6" target="_top" xlink:title="mom_main">
<polygon fill="white" stroke="black" points="302,-0.5 302,-19.5 367,-19.5 367,-0.5 302,-0.5"/>
<text text-anchor="middle" x="334.5" y="-7.5" font-family="Helvetica,sans-Serif" font-size="10.00">mom_main</text>
</a>
</g>
</g>
<!-- Node476&#45;&gt;Node477 -->
<g id="edge2" class="edge"><title>Node476&#45;&gt;Node477</title>
<path fill="none" stroke="midnightblue" d="M276.206,-10C285.134,-10 293.983,-10 301.958,-10"/>
<polygon fill="midnightblue" stroke="midnightblue" points="276.134,-6.5001 266.134,-10 276.134,-13.5001 276.134,-6.5001"/>
</g>
</g>
</svg>
