<?xml version="1.0" encoding="UTF-8" standalone="no"?>
<!DOCTYPE svg PUBLIC "-//W3C//DTD SVG 1.1//EN"
 "http://www.w3.org/Graphics/SVG/1.1/DTD/svg11.dtd">
<!-- Generated by graphviz version 2.38.0 (20140413.2041)
 -->
<!-- Title: mom_document::mesghasbeendocumented Pages: 1 -->
<svg width="498pt" height="39pt"
 viewBox="0.00 0.00 498.00 39.00" xmlns="http://www.w3.org/2000/svg" xmlns:xlink="http://www.w3.org/1999/xlink">
<g id="graph0" class="graph" transform="scale(1 1) rotate(0) translate(4 35)">
<title>mom_document::mesghasbeendocumented</title>
<polygon fill="white" stroke="none" points="-4,4 -4,-35 494,-35 494,4 -4,4"/>
<!-- Node186 -->
<g id="node1" class="node"><title>Node186</title>
<polygon fill="#bfbfbf" stroke="black" points="0,-6 0,-25 206,-25 206,-6 0,-6"/>
<text text-anchor="middle" x="103" y="-13" font-family="Helvetica,sans-Serif" font-size="10.00">mom_document::mesghasbeendocumented</text>
</g>
<!-- Node187 -->
<g id="node2" class="node"><title>Node187</title>
<g id="a_node2"><a xlink:href="namespacemom__error__handler.html#a460cfb79a06c29fc249952c2a3710d67" target="_top" xlink:title="mom_error_handler::\lmom_error">
<polygon fill="white" stroke="black" points="242,-0.5 242,-30.5 348,-30.5 348,-0.5 242,-0.5"/>
<text text-anchor="start" x="250" y="-18.5" font-family="Helvetica,sans-Serif" font-size="10.00">mom_error_handler::</text>
<text text-anchor="middle" x="295" y="-7.5" font-family="Helvetica,sans-Serif" font-size="10.00">mom_error</text>
</a>
</g>
</g>
<!-- Node186&#45;&gt;Node187 -->
<g id="edge1" class="edge"><title>Node186&#45;&gt;Node187</title>
<path fill="none" stroke="midnightblue" d="M206.23,-15.5C214.876,-15.5 223.442,-15.5 231.639,-15.5"/>
<polygon fill="midnightblue" stroke="midnightblue" points="231.803,-19.0001 241.803,-15.5 231.803,-12.0001 231.803,-19.0001"/>
</g>
<!-- Node188 -->
<g id="node3" class="node"><title>Node188</title>
<g id="a_node3"><a xlink:href="namespacemom__error__handler.html#ad5f00a53059c72fe2332d1436c80ca71" target="_top" xlink:title="mom_error_handler::\lis_root_pe">
<polygon fill="white" stroke="black" points="384,-0.5 384,-30.5 490,-30.5 490,-0.5 384,-0.5"/>
<text text-anchor="start" x="392" y="-18.5" font-family="Helvetica,sans-Serif" font-size="10.00">mom_error_handler::</text>
<text text-anchor="middle" x="437" y="-7.5" font-family="Helvetica,sans-Serif" font-size="10.00">is_root_pe</text>
</a>
</g>
</g>
<!-- Node187&#45;&gt;Node188 -->
<g id="edge2" class="edge"><title>Node187&#45;&gt;Node188</title>
<path fill="none" stroke="midnightblue" d="M348.131,-15.5C356.421,-15.5 365.07,-15.5 373.568,-15.5"/>
<polygon fill="midnightblue" stroke="midnightblue" points="373.826,-19.0001 383.826,-15.5 373.826,-12.0001 373.826,-19.0001"/>
</g>
</g>
</svg>
