<?xml version="1.0" encoding="UTF-8" standalone="no"?>
<!DOCTYPE svg PUBLIC "-//W3C//DTD SVG 1.1//EN"
 "http://www.w3.org/Graphics/SVG/1.1/DTD/svg11.dtd">
<!-- Generated by graphviz version 2.38.0 (20140413.2041)
 -->
<!-- Title: mom_ice_shelf::change_thickness_using_melt Pages: 1 -->
<svg width="375pt" height="39pt"
 viewBox="0.00 0.00 375.00 39.00" xmlns="http://www.w3.org/2000/svg" xmlns:xlink="http://www.w3.org/1999/xlink">
<g id="graph0" class="graph" transform="scale(1 1) rotate(0) translate(4 35)">
<title>mom_ice_shelf::change_thickness_using_melt</title>
<polygon fill="white" stroke="none" points="-4,4 -4,-35 371,-35 371,4 -4,4"/>
<!-- Node118 -->
<g id="node1" class="node"><title>Node118</title>
<polygon fill="#bfbfbf" stroke="black" points="0,-0.5 0,-30.5 120,-30.5 120,-0.5 0,-0.5"/>
<text text-anchor="start" x="8" y="-18.5" font-family="Helvetica,sans-Serif" font-size="10.00">mom_ice_shelf::change</text>
<text text-anchor="middle" x="60" y="-7.5" font-family="Helvetica,sans-Serif" font-size="10.00">_thickness_using_melt</text>
</g>
<!-- Node119 -->
<g id="node2" class="node"><title>Node119</title>
<g id="a_node2"><a xlink:href="namespacemom__ice__shelf.html#a3b0e0cc9f36c5197236cc05867b780df" target="_top" xlink:title="Calculates fluxes between the ocean and ice&#45;shelf using the three&#45;equations formulation (optional to ...">
<polygon fill="white" stroke="black" points="156,-0.5 156,-30.5 266,-30.5 266,-0.5 156,-0.5"/>
<text text-anchor="start" x="164" y="-18.5" font-family="Helvetica,sans-Serif" font-size="10.00">mom_ice_shelf::shelf</text>
<text text-anchor="middle" x="211" y="-7.5" font-family="Helvetica,sans-Serif" font-size="10.00">_calc_flux</text>
</a>
</g>
</g>
<!-- Node118&#45;&gt;Node119 -->
<g id="edge1" class="edge"><title>Node118&#45;&gt;Node119</title>
<path fill="none" stroke="midnightblue" d="M130.552,-15.5C139.002,-15.5 147.537,-15.5 155.72,-15.5"/>
<polygon fill="midnightblue" stroke="midnightblue" points="130.317,-12.0001 120.317,-15.5 130.317,-19.0001 130.317,-12.0001"/>
</g>
<!-- Node120 -->
<g id="node3" class="node"><title>Node120</title>
<g id="a_node3"><a xlink:href="MOM__driver_8F90.html#a08fffeb2d8e8acbf9ed4609be6d258c6" target="_top" xlink:title="mom_main">
<polygon fill="white" stroke="black" points="302,-6 302,-25 367,-25 367,-6 302,-6"/>
<text text-anchor="middle" x="334.5" y="-13" font-family="Helvetica,sans-Serif" font-size="10.00">mom_main</text>
</a>
</g>
</g>
<!-- Node119&#45;&gt;Node120 -->
<g id="edge2" class="edge"><title>Node119&#45;&gt;Node120</title>
<path fill="none" stroke="midnightblue" d="M276.627,-15.5C285.374,-15.5 294.013,-15.5 301.815,-15.5"/>
<polygon fill="midnightblue" stroke="midnightblue" points="276.353,-12.0001 266.353,-15.5 276.353,-19.0001 276.353,-12.0001"/>
</g>
</g>
</svg>
