<?xml version="1.0" encoding="UTF-8" standalone="no"?>
<!DOCTYPE svg PUBLIC "-//W3C//DTD SVG 1.1//EN"
 "http://www.w3.org/Graphics/SVG/1.1/DTD/svg11.dtd">
<!-- Generated by graphviz version 2.38.0 (20140413.2041)
 -->
<!-- Title: mom_grid_initialize::set_grid_metrics_from_mosaic Pages: 1 -->
<svg width="411pt" height="137pt"
 viewBox="0.00 0.00 411.00 137.00" xmlns="http://www.w3.org/2000/svg" xmlns:xlink="http://www.w3.org/1999/xlink">
<g id="graph0" class="graph" transform="scale(1 1) rotate(0) translate(4 133)">
<title>mom_grid_initialize::set_grid_metrics_from_mosaic</title>
<polygon fill="white" stroke="none" points="-4,4 -4,-133 407,-133 407,4 -4,4"/>
<!-- Node118 -->
<g id="node1" class="node"><title>Node118</title>
<polygon fill="#bfbfbf" stroke="black" points="0,-44 0,-85 119,-85 119,-44 0,-44"/>
<text text-anchor="start" x="8" y="-73" font-family="Helvetica,sans-Serif" font-size="10.00">mom_grid_initialize</text>
<text text-anchor="start" x="8" y="-62" font-family="Helvetica,sans-Serif" font-size="10.00">::set_grid_metrics_from</text>
<text text-anchor="middle" x="59.5" y="-51" font-family="Helvetica,sans-Serif" font-size="10.00">_mosaic</text>
</g>
<!-- Node119 -->
<g id="node2" class="node"><title>Node119</title>
<g id="a_node2"><a xlink:href="namespacemom__error__handler.html#a9cda07a87815f0e5594066162b4345c3" target="_top" xlink:title="Writes a message about entering a subroutine if call tree reporting is active. ">
<polygon fill="white" stroke="black" points="155,-98.5 155,-128.5 261,-128.5 261,-98.5 155,-98.5"/>
<text text-anchor="start" x="163" y="-116.5" font-family="Helvetica,sans-Serif" font-size="10.00">mom_error_handler::</text>
<text text-anchor="middle" x="208" y="-105.5" font-family="Helvetica,sans-Serif" font-size="10.00">calltree_enter</text>
</a>
</g>
</g>
<!-- Node118&#45;&gt;Node119 -->
<g id="edge1" class="edge"><title>Node118&#45;&gt;Node119</title>
<path fill="none" stroke="midnightblue" d="M119.243,-84.1478C130.092,-87.7764 141.382,-91.5528 152.111,-95.1414"/>
<polygon fill="midnightblue" stroke="midnightblue" points="151.184,-98.5217 161.778,-98.3745 153.405,-91.8832 151.184,-98.5217"/>
</g>
<!-- Node121 -->
<g id="node4" class="node"><title>Node121</title>
<g id="a_node4"><a xlink:href="namespacemom__error__handler.html#a88ea67781e2ed9b73ab7eac8ea5e8578" target="_top" xlink:title="Writes a message about leaving a subroutine if call tree reporting is active. ">
<polygon fill="white" stroke="black" points="155,-49.5 155,-79.5 261,-79.5 261,-49.5 155,-49.5"/>
<text text-anchor="start" x="163" y="-67.5" font-family="Helvetica,sans-Serif" font-size="10.00">mom_error_handler::</text>
<text text-anchor="middle" x="208" y="-56.5" font-family="Helvetica,sans-Serif" font-size="10.00">calltree_leave</text>
</a>
</g>
</g>
<!-- Node118&#45;&gt;Node121 -->
<g id="edge3" class="edge"><title>Node118&#45;&gt;Node121</title>
<path fill="none" stroke="midnightblue" d="M119.243,-64.5C127.619,-64.5 136.258,-64.5 144.699,-64.5"/>
<polygon fill="midnightblue" stroke="midnightblue" points="144.866,-68.0001 154.866,-64.5 144.866,-61.0001 144.866,-68.0001"/>
</g>
<!-- Node122 -->
<g id="node5" class="node"><title>Node122</title>
<g id="a_node5"><a xlink:href="namespacemom__grid__initialize.html#ac78daa312636b0ef9a93694901b5c705" target="_top" xlink:title="extrapolate_metric extrapolates missing metric data into all the halo regions. ">
<polygon fill="white" stroke="black" points="156.5,-0.5 156.5,-30.5 259.5,-30.5 259.5,-0.5 156.5,-0.5"/>
<text text-anchor="start" x="164.5" y="-18.5" font-family="Helvetica,sans-Serif" font-size="10.00">mom_grid_initialize</text>
<text text-anchor="middle" x="208" y="-7.5" font-family="Helvetica,sans-Serif" font-size="10.00">::extrapolate_metric</text>
</a>
</g>
</g>
<!-- Node118&#45;&gt;Node122 -->
<g id="edge5" class="edge"><title>Node118&#45;&gt;Node122</title>
<path fill="none" stroke="midnightblue" d="M119.243,-44.8522C130.092,-41.2236 141.382,-37.4472 152.111,-33.8586"/>
<polygon fill="midnightblue" stroke="midnightblue" points="153.405,-37.1168 161.778,-30.6255 151.184,-30.4783 153.405,-37.1168"/>
</g>
<!-- Node120 -->
<g id="node3" class="node"><title>Node120</title>
<g id="a_node3"><a xlink:href="namespacemom__error__handler.html#ad5f00a53059c72fe2332d1436c80ca71" target="_top" xlink:title="mom_error_handler::\lis_root_pe">
<polygon fill="white" stroke="black" points="297,-73.5 297,-103.5 403,-103.5 403,-73.5 297,-73.5"/>
<text text-anchor="start" x="305" y="-91.5" font-family="Helvetica,sans-Serif" font-size="10.00">mom_error_handler::</text>
<text text-anchor="middle" x="350" y="-80.5" font-family="Helvetica,sans-Serif" font-size="10.00">is_root_pe</text>
</a>
</g>
</g>
<!-- Node119&#45;&gt;Node120 -->
<g id="edge2" class="edge"><title>Node119&#45;&gt;Node120</title>
<path fill="none" stroke="midnightblue" d="M261.131,-104.191C269.512,-102.694 278.26,-101.132 286.849,-99.5985"/>
<polygon fill="midnightblue" stroke="midnightblue" points="287.597,-103.02 296.826,-97.8169 286.366,-96.1293 287.597,-103.02"/>
</g>
<!-- Node121&#45;&gt;Node120 -->
<g id="edge4" class="edge"><title>Node121&#45;&gt;Node120</title>
<path fill="none" stroke="midnightblue" d="M261.131,-73.4367C269.512,-74.8736 278.26,-76.3732 286.849,-77.8455"/>
<polygon fill="midnightblue" stroke="midnightblue" points="286.378,-81.3158 296.826,-79.5558 287.561,-74.4164 286.378,-81.3158"/>
</g>
</g>
</svg>
