<?xml version="1.0" encoding="UTF-8" standalone="no"?>
<!DOCTYPE svg PUBLIC "-//W3C//DTD SVG 1.1//EN"
 "http://www.w3.org/Graphics/SVG/1.1/DTD/svg11.dtd">
<!-- Generated by graphviz version 2.38.0 (20140413.2041)
 -->
<!-- Title: mom_regridding::filtered_grid_motion Pages: 1 -->
<svg width="473pt" height="284pt"
 viewBox="0.00 0.00 473.00 284.00" xmlns="http://www.w3.org/2000/svg" xmlns:xlink="http://www.w3.org/1999/xlink">
<g id="graph0" class="graph" transform="scale(1 1) rotate(0) translate(4 280)">
<title>mom_regridding::filtered_grid_motion</title>
<polygon fill="white" stroke="none" points="-4,4 -4,-280 469,-280 469,4 -4,4"/>
<!-- Node117 -->
<g id="node1" class="node"><title>Node117</title>
<polygon fill="#bfbfbf" stroke="black" points="0,-122.5 0,-152.5 121,-152.5 121,-122.5 0,-122.5"/>
<text text-anchor="start" x="8" y="-140.5" font-family="Helvetica,sans-Serif" font-size="10.00">mom_regridding::filtered</text>
<text text-anchor="middle" x="60.5" y="-129.5" font-family="Helvetica,sans-Serif" font-size="10.00">_grid_motion</text>
</g>
<!-- Node118 -->
<g id="node2" class="node"><title>Node118</title>
<g id="a_node2"><a xlink:href="namespacemom__regridding.html#a259fcaa5cdd7c8e38406f9bbc01172e1" target="_top" xlink:title="mom_regridding::build\l_grid_adaptive">
<polygon fill="white" stroke="black" points="157,-245.5 157,-275.5 269,-275.5 269,-245.5 157,-245.5"/>
<text text-anchor="start" x="165" y="-263.5" font-family="Helvetica,sans-Serif" font-size="10.00">mom_regridding::build</text>
<text text-anchor="middle" x="213" y="-252.5" font-family="Helvetica,sans-Serif" font-size="10.00">_grid_adaptive</text>
</a>
</g>
</g>
<!-- Node117&#45;&gt;Node118 -->
<g id="edge1" class="edge"><title>Node117&#45;&gt;Node118</title>
<path fill="none" stroke="midnightblue" d="M79.4399,-160.806C97.2179,-182.656 126.186,-215.081 157,-236.5 161.705,-239.77 166.927,-242.743 172.227,-245.396"/>
<polygon fill="midnightblue" stroke="midnightblue" points="81.9506,-158.341 72.9736,-152.714 76.4823,-162.711 81.9506,-158.341"/>
</g>
<!-- Node120 -->
<g id="node4" class="node"><title>Node120</title>
<g id="a_node4"><a xlink:href="namespacemom__regridding.html#ab3541b357806978862434ee19b1be774" target="_top" xlink:title="Builds a simple HyCOM&#45;like grid with the deepest location of potential density interpolated from the ...">
<polygon fill="white" stroke="black" points="157,-196.5 157,-226.5 269,-226.5 269,-196.5 157,-196.5"/>
<text text-anchor="start" x="165" y="-214.5" font-family="Helvetica,sans-Serif" font-size="10.00">mom_regridding::build</text>
<text text-anchor="middle" x="213" y="-203.5" font-family="Helvetica,sans-Serif" font-size="10.00">_grid_hycom1</text>
</a>
</g>
</g>
<!-- Node117&#45;&gt;Node120 -->
<g id="edge3" class="edge"><title>Node117&#45;&gt;Node120</title>
<path fill="none" stroke="midnightblue" d="M98.0783,-157.427C115.734,-166.845 137.311,-178.064 157,-187.5 163.201,-190.472 169.86,-193.506 176.329,-196.374"/>
<polygon fill="midnightblue" stroke="midnightblue" points="99.701,-154.326 89.234,-152.685 96.3934,-160.495 99.701,-154.326"/>
</g>
<!-- Node121 -->
<g id="node5" class="node"><title>Node121</title>
<g id="a_node5"><a xlink:href="namespacemom__regridding.html#a22774f1202d4e7c7c52154bd00206b01" target="_top" xlink:title="Builds a grid that tracks density interfaces for water that is denser than the surface density plus a...">
<polygon fill="white" stroke="black" points="157,-147.5 157,-177.5 269,-177.5 269,-147.5 157,-147.5"/>
<text text-anchor="start" x="165" y="-165.5" font-family="Helvetica,sans-Serif" font-size="10.00">mom_regridding::build</text>
<text text-anchor="middle" x="213" y="-154.5" font-family="Helvetica,sans-Serif" font-size="10.00">_grid_slight</text>
</a>
</g>
</g>
<!-- Node117&#45;&gt;Node121 -->
<g id="edge5" class="edge"><title>Node117&#45;&gt;Node121</title>
<path fill="none" stroke="midnightblue" d="M131.33,-149.1C139.836,-150.513 148.435,-151.941 156.689,-153.312"/>
<polygon fill="midnightblue" stroke="midnightblue" points="131.852,-145.639 121.414,-147.452 130.705,-152.544 131.852,-145.639"/>
</g>
<!-- Node122 -->
<g id="node6" class="node"><title>Node122</title>
<g id="a_node6"><a xlink:href="namespacemom__regridding.html#a58a19305bbdab26bfa4f336dfac8c4f8" target="_top" xlink:title="mom_regridding::build\l_rho_grid">
<polygon fill="white" stroke="black" points="157,-98.5 157,-128.5 269,-128.5 269,-98.5 157,-98.5"/>
<text text-anchor="start" x="165" y="-116.5" font-family="Helvetica,sans-Serif" font-size="10.00">mom_regridding::build</text>
<text text-anchor="middle" x="213" y="-105.5" font-family="Helvetica,sans-Serif" font-size="10.00">_rho_grid</text>
</a>
</g>
</g>
<!-- Node117&#45;&gt;Node122 -->
<g id="edge7" class="edge"><title>Node117&#45;&gt;Node122</title>
<path fill="none" stroke="midnightblue" d="M131.33,-126.364C139.836,-125.008 148.435,-123.637 156.689,-122.32"/>
<polygon fill="midnightblue" stroke="midnightblue" points="130.738,-122.914 121.414,-127.946 131.84,-129.827 130.738,-122.914"/>
</g>
<!-- Node123 -->
<g id="node7" class="node"><title>Node123</title>
<g id="a_node7"><a xlink:href="namespacemom__regridding.html#a455d807ccfbbfd109be231321bec1038" target="_top" xlink:title="mom_regridding::build\l_sigma_grid">
<polygon fill="white" stroke="black" points="157,-49.5 157,-79.5 269,-79.5 269,-49.5 157,-49.5"/>
<text text-anchor="start" x="165" y="-67.5" font-family="Helvetica,sans-Serif" font-size="10.00">mom_regridding::build</text>
<text text-anchor="middle" x="213" y="-56.5" font-family="Helvetica,sans-Serif" font-size="10.00">_sigma_grid</text>
</a>
</g>
</g>
<!-- Node117&#45;&gt;Node123 -->
<g id="edge9" class="edge"><title>Node117&#45;&gt;Node123</title>
<path fill="none" stroke="midnightblue" d="M99.8696,-117.785C117.237,-108.973 138.074,-98.5535 157,-89.5 163.813,-86.2412 171.144,-82.8379 178.163,-79.6292"/>
<polygon fill="midnightblue" stroke="midnightblue" points="97.9365,-114.842 90.6119,-122.497 101.112,-121.08 97.9365,-114.842"/>
</g>
<!-- Node124 -->
<g id="node8" class="node"><title>Node124</title>
<g id="a_node8"><a xlink:href="namespacemom__regridding.html#a55e6873a74355daea004d39c452e0069" target="_top" xlink:title="Builds a z*&#45;ccordinate grid with partial steps (Adcroft and Campin, 2004). z* is defined as z* = (z&#45;e...">
<polygon fill="white" stroke="black" points="157,-0.5 157,-30.5 269,-30.5 269,-0.5 157,-0.5"/>
<text text-anchor="start" x="165" y="-18.5" font-family="Helvetica,sans-Serif" font-size="10.00">mom_regridding::build</text>
<text text-anchor="middle" x="213" y="-7.5" font-family="Helvetica,sans-Serif" font-size="10.00">_zstar_grid</text>
</a>
</g>
</g>
<!-- Node117&#45;&gt;Node124 -->
<g id="edge11" class="edge"><title>Node117&#45;&gt;Node124</title>
<path fill="none" stroke="midnightblue" d="M79.9098,-114.432C97.833,-93.1211 126.731,-61.6517 157,-40.5 162.245,-36.8352 168.113,-33.4974 174.009,-30.539"/>
<polygon fill="midnightblue" stroke="midnightblue" points="77.0508,-112.397 73.3748,-122.334 82.4451,-116.859 77.0508,-112.397"/>
</g>
<!-- Node119 -->
<g id="node3" class="node"><title>Node119</title>
<g id="a_node3"><a xlink:href="namespacemom__regridding.html#ab354fe3423a39fef6f2b66f409b1682c" target="_top" xlink:title="mom_regridding::regridding_main">
<polygon fill="white" stroke="black" points="305,-128 305,-147 465,-147 465,-128 305,-128"/>
<text text-anchor="middle" x="385" y="-135" font-family="Helvetica,sans-Serif" font-size="10.00">mom_regridding::regridding_main</text>
</a>
</g>
</g>
<!-- Node118&#45;&gt;Node119 -->
<g id="edge2" class="edge"><title>Node118&#45;&gt;Node119</title>
<path fill="none" stroke="midnightblue" d="M261.78,-240.726C264.26,-239.368 266.682,-237.957 269,-236.5 312.494,-209.164 356.453,-166.031 374.932,-147.028"/>
<polygon fill="midnightblue" stroke="midnightblue" points="259.937,-237.738 252.629,-245.408 263.125,-243.97 259.937,-237.738"/>
</g>
<!-- Node120&#45;&gt;Node119 -->
<g id="edge4" class="edge"><title>Node120&#45;&gt;Node119</title>
<path fill="none" stroke="midnightblue" d="M258.352,-192.194C291.742,-177.659 336.077,-158.361 362.174,-147.001"/>
<polygon fill="midnightblue" stroke="midnightblue" points="256.584,-189.146 248.812,-196.346 259.378,-195.564 256.584,-189.146"/>
</g>
<!-- Node121&#45;&gt;Node119 -->
<g id="edge6" class="edge"><title>Node121&#45;&gt;Node119</title>
<path fill="none" stroke="midnightblue" d="M279.119,-152.924C292.3,-150.985 306.157,-148.948 319.322,-147.011"/>
<polygon fill="midnightblue" stroke="midnightblue" points="278.578,-149.465 269.194,-154.383 279.597,-156.391 278.578,-149.465"/>
</g>
<!-- Node122&#45;&gt;Node119 -->
<g id="edge8" class="edge"><title>Node122&#45;&gt;Node119</title>
<path fill="none" stroke="midnightblue" d="M279.303,-122.719C291.526,-124.445 304.324,-126.252 316.609,-127.986"/>
<polygon fill="midnightblue" stroke="midnightblue" points="279.585,-119.224 269.194,-121.292 278.607,-126.156 279.585,-119.224"/>
</g>
<!-- Node123&#45;&gt;Node119 -->
<g id="edge10" class="edge"><title>Node123&#45;&gt;Node119</title>
<path fill="none" stroke="midnightblue" d="M258.713,-83.7001C291.898,-97.9501 335.74,-116.777 361.792,-127.964"/>
<polygon fill="midnightblue" stroke="midnightblue" points="259.794,-80.3554 249.224,-79.6256 257.032,-86.7875 259.794,-80.3554"/>
</g>
<!-- Node124&#45;&gt;Node119 -->
<g id="edge12" class="edge"><title>Node124&#45;&gt;Node119</title>
<path fill="none" stroke="midnightblue" d="M259.833,-35.151C262.989,-36.8627 266.074,-38.6507 269,-40.5 311.832,-67.5728 355.789,-109.319 374.568,-127.951"/>
<polygon fill="midnightblue" stroke="midnightblue" points="261.327,-31.9837 250.831,-30.5414 258.137,-38.2144 261.327,-31.9837"/>
</g>
</g>
</svg>
