<?xml version="1.0" encoding="UTF-8" standalone="no"?>
<!DOCTYPE svg PUBLIC "-//W3C//DTD SVG 1.1//EN"
 "http://www.w3.org/Graphics/SVG/1.1/DTD/svg11.dtd">
<!-- Generated by graphviz version 2.38.0 (20140413.2041)
 -->
<!-- Title: mom_surface_forcing::wind_forcing_by_data_override Pages: 1 -->
<svg width="440pt" height="137pt"
 viewBox="0.00 0.00 440.00 137.00" xmlns="http://www.w3.org/2000/svg" xmlns:xlink="http://www.w3.org/1999/xlink">
<g id="graph0" class="graph" transform="scale(1 1) rotate(0) translate(4 133)">
<title>mom_surface_forcing::wind_forcing_by_data_override</title>
<polygon fill="white" stroke="none" points="-4,4 -4,-133 436,-133 436,4 -4,4"/>
<!-- Node77 -->
<g id="node1" class="node"><title>Node77</title>
<polygon fill="#bfbfbf" stroke="black" points="0,-44 0,-85 117,-85 117,-44 0,-44"/>
<text text-anchor="start" x="8" y="-73" font-family="Helvetica,sans-Serif" font-size="10.00">mom_surface_forcing</text>
<text text-anchor="start" x="8" y="-62" font-family="Helvetica,sans-Serif" font-size="10.00">::wind_forcing_by_data</text>
<text text-anchor="middle" x="58.5" y="-51" font-family="Helvetica,sans-Serif" font-size="10.00">_override</text>
</g>
<!-- Node78 -->
<g id="node2" class="node"><title>Node78</title>
<g id="a_node2"><a xlink:href="namespacemom__forcing__type.html#a4258a1dc8dc6733eb8269d771efe837d" target="_top" xlink:title="Conditionally allocate fields within the forcing type. ">
<polygon fill="white" stroke="black" points="153,-98.5 153,-128.5 290,-128.5 290,-98.5 153,-98.5"/>
<text text-anchor="start" x="161" y="-116.5" font-family="Helvetica,sans-Serif" font-size="10.00">mom_forcing_type::allocate</text>
<text text-anchor="middle" x="221.5" y="-105.5" font-family="Helvetica,sans-Serif" font-size="10.00">_forcing_type</text>
</a>
</g>
</g>
<!-- Node77&#45;&gt;Node78 -->
<g id="edge1" class="edge"><title>Node77&#45;&gt;Node78</title>
<path fill="none" stroke="midnightblue" d="M117.17,-82.0517C131.539,-86.4249 146.966,-91.12 161.402,-95.5138"/>
<polygon fill="midnightblue" stroke="midnightblue" points="160.628,-98.9365 171.214,-98.4998 162.666,-92.2398 160.628,-98.9365"/>
</g>
<!-- Node80 -->
<g id="node4" class="node"><title>Node80</title>
<g id="a_node4"><a xlink:href="namespacemom__error__handler.html#a9cda07a87815f0e5594066162b4345c3" target="_top" xlink:title="Writes a message about entering a subroutine if call tree reporting is active. ">
<polygon fill="white" stroke="black" points="168.5,-49.5 168.5,-79.5 274.5,-79.5 274.5,-49.5 168.5,-49.5"/>
<text text-anchor="start" x="176.5" y="-67.5" font-family="Helvetica,sans-Serif" font-size="10.00">mom_error_handler::</text>
<text text-anchor="middle" x="221.5" y="-56.5" font-family="Helvetica,sans-Serif" font-size="10.00">calltree_enter</text>
</a>
</g>
</g>
<!-- Node77&#45;&gt;Node80 -->
<g id="edge3" class="edge"><title>Node77&#45;&gt;Node80</title>
<path fill="none" stroke="midnightblue" d="M117.17,-64.5C130.472,-64.5 144.68,-64.5 158.17,-64.5"/>
<polygon fill="midnightblue" stroke="midnightblue" points="158.319,-68.0001 168.319,-64.5 158.319,-61.0001 158.319,-68.0001"/>
</g>
<!-- Node82 -->
<g id="node6" class="node"><title>Node82</title>
<g id="a_node6"><a xlink:href="namespacemom__error__handler.html#a88ea67781e2ed9b73ab7eac8ea5e8578" target="_top" xlink:title="Writes a message about leaving a subroutine if call tree reporting is active. ">
<polygon fill="white" stroke="black" points="168.5,-0.5 168.5,-30.5 274.5,-30.5 274.5,-0.5 168.5,-0.5"/>
<text text-anchor="start" x="176.5" y="-18.5" font-family="Helvetica,sans-Serif" font-size="10.00">mom_error_handler::</text>
<text text-anchor="middle" x="221.5" y="-7.5" font-family="Helvetica,sans-Serif" font-size="10.00">calltree_leave</text>
</a>
</g>
</g>
<!-- Node77&#45;&gt;Node82 -->
<g id="edge5" class="edge"><title>Node77&#45;&gt;Node82</title>
<path fill="none" stroke="midnightblue" d="M117.17,-46.9483C131.539,-42.5751 146.966,-37.88 161.402,-33.4862"/>
<polygon fill="midnightblue" stroke="midnightblue" points="162.666,-36.7602 171.214,-30.5002 160.628,-30.0635 162.666,-36.7602"/>
</g>
<!-- Node79 -->
<g id="node3" class="node"><title>Node79</title>
<g id="a_node3"><a xlink:href="MOM__forcing__type_8F90.html#aede7c3d8c91ec3e8a8a3b68824a5e9e8" target="_top" xlink:title="Allocates and zeroes&#45;out array. ">
<polygon fill="white" stroke="black" points="354,-104 354,-123 404,-123 404,-104 354,-104"/>
<text text-anchor="middle" x="379" y="-111" font-family="Helvetica,sans-Serif" font-size="10.00">myalloc</text>
</a>
</g>
</g>
<!-- Node78&#45;&gt;Node79 -->
<g id="edge2" class="edge"><title>Node78&#45;&gt;Node79</title>
<path fill="none" stroke="midnightblue" d="M290.252,-113.5C308.606,-113.5 327.715,-113.5 343.397,-113.5"/>
<polygon fill="midnightblue" stroke="midnightblue" points="343.655,-117 353.655,-113.5 343.655,-110 343.655,-117"/>
</g>
<!-- Node81 -->
<g id="node5" class="node"><title>Node81</title>
<g id="a_node5"><a xlink:href="namespacemom__error__handler.html#ad5f00a53059c72fe2332d1436c80ca71" target="_top" xlink:title="mom_error_handler::\lis_root_pe">
<polygon fill="white" stroke="black" points="326,-25.5 326,-55.5 432,-55.5 432,-25.5 326,-25.5"/>
<text text-anchor="start" x="334" y="-43.5" font-family="Helvetica,sans-Serif" font-size="10.00">mom_error_handler::</text>
<text text-anchor="middle" x="379" y="-32.5" font-family="Helvetica,sans-Serif" font-size="10.00">is_root_pe</text>
</a>
</g>
</g>
<!-- Node80&#45;&gt;Node81 -->
<g id="edge4" class="edge"><title>Node80&#45;&gt;Node81</title>
<path fill="none" stroke="midnightblue" d="M274.712,-56.4416C287.86,-54.4123 302.104,-52.2139 315.692,-50.1167"/>
<polygon fill="midnightblue" stroke="midnightblue" points="316.577,-53.5216 325.926,-48.5371 315.509,-46.6035 316.577,-53.5216"/>
</g>
<!-- Node82&#45;&gt;Node81 -->
<g id="edge6" class="edge"><title>Node82&#45;&gt;Node81</title>
<path fill="none" stroke="midnightblue" d="M274.712,-23.8942C287.86,-26.008 302.104,-28.298 315.692,-30.4826"/>
<polygon fill="midnightblue" stroke="midnightblue" points="315.497,-33.9962 325.926,-32.128 316.608,-27.0849 315.497,-33.9962"/>
</g>
</g>
</svg>
