<?xml version="1.0" encoding="UTF-8" standalone="no"?>
<!DOCTYPE svg PUBLIC "-//W3C//DTD SVG 1.1//EN"
 "http://www.w3.org/Graphics/SVG/1.1/DTD/svg11.dtd">
<!-- Generated by graphviz version 2.38.0 (20140413.2041)
 -->
<!-- Title: mom_document::doc_module Pages: 1 -->
<svg width="811pt" height="100pt"
 viewBox="0.00 0.00 811.00 99.50" xmlns="http://www.w3.org/2000/svg" xmlns:xlink="http://www.w3.org/1999/xlink">
<g id="graph0" class="graph" transform="scale(1 1) rotate(0) translate(4 95.5)">
<title>mom_document::doc_module</title>
<polygon fill="white" stroke="none" points="-4,4 -4,-95.5 807,-95.5 807,4 -4,4"/>
<!-- Node34 -->
<g id="node1" class="node"><title>Node34</title>
<polygon fill="#bfbfbf" stroke="black" points="0,-22.5 0,-41.5 145,-41.5 145,-22.5 0,-22.5"/>
<text text-anchor="middle" x="72.5" y="-29.5" font-family="Helvetica,sans-Serif" font-size="10.00">mom_document::doc_module</text>
</g>
<!-- Node35 -->
<g id="node2" class="node"><title>Node35</title>
<g id="a_node2"><a xlink:href="namespacemom__document.html#aab976b6c6c9c01833438d217fca228a4" target="_top" xlink:title="mom_document::open\l_doc_file">
<polygon fill="white" stroke="black" points="219.5,-39 219.5,-69 332.5,-69 332.5,-39 219.5,-39"/>
<text text-anchor="start" x="227.5" y="-57" font-family="Helvetica,sans-Serif" font-size="10.00">mom_document::open</text>
<text text-anchor="middle" x="276" y="-46" font-family="Helvetica,sans-Serif" font-size="10.00">_doc_file</text>
</a>
</g>
</g>
<!-- Node34&#45;&gt;Node35 -->
<g id="edge1" class="edge"><title>Node34&#45;&gt;Node35</title>
<path fill="none" stroke="midnightblue" d="M145.109,-39.8183C166.011,-42.1005 188.744,-44.5825 209.264,-46.8229"/>
<polygon fill="midnightblue" stroke="midnightblue" points="209.135,-50.3295 219.456,-47.9356 209.895,-43.3709 209.135,-50.3295"/>
</g>
<!-- Node39 -->
<g id="node6" class="node"><title>Node39</title>
<g id="a_node6"><a xlink:href="namespacemom__document.html#a22d84550b1affd1037328c5117496a65" target="_top" xlink:title="mom_document::writemessageanddesc">
<polygon fill="white" stroke="black" points="181,-0.5 181,-19.5 371,-19.5 371,-0.5 181,-0.5"/>
<text text-anchor="middle" x="276" y="-7.5" font-family="Helvetica,sans-Serif" font-size="10.00">mom_document::writemessageanddesc</text>
</a>
</g>
</g>
<!-- Node34&#45;&gt;Node39 -->
<g id="edge6" class="edge"><title>Node34&#45;&gt;Node39</title>
<path fill="none" stroke="midnightblue" d="M145.109,-24.1817C155.675,-23.0281 166.709,-21.8234 177.688,-20.6246"/>
<polygon fill="midnightblue" stroke="midnightblue" points="178.18,-24.0918 187.741,-19.5271 177.42,-17.1332 178.18,-24.0918"/>
</g>
<!-- Node36 -->
<g id="node3" class="node"><title>Node36</title>
<g id="a_node3"><a xlink:href="namespacemom__document.html#a5f2661445a72a7d0f774677e91366db5" target="_top" xlink:title="mom_document::find\l_unused_unit_number">
<polygon fill="white" stroke="black" points="407,-61 407,-91 519,-91 519,-61 407,-61"/>
<text text-anchor="start" x="415" y="-79" font-family="Helvetica,sans-Serif" font-size="10.00">mom_document::find</text>
<text text-anchor="middle" x="463" y="-68" font-family="Helvetica,sans-Serif" font-size="10.00">_unused_unit_number</text>
</a>
</g>
</g>
<!-- Node35&#45;&gt;Node36 -->
<g id="edge2" class="edge"><title>Node35&#45;&gt;Node36</title>
<path fill="none" stroke="midnightblue" d="M332.506,-60.6007C352.72,-63.0045 375.755,-65.7439 396.738,-68.2391"/>
<polygon fill="midnightblue" stroke="midnightblue" points="396.509,-71.7364 406.852,-69.4419 397.335,-64.7854 396.509,-71.7364"/>
</g>
<!-- Node37 -->
<g id="node4" class="node"><title>Node37</title>
<g id="a_node4"><a xlink:href="namespacemom__error__handler.html#a460cfb79a06c29fc249952c2a3710d67" target="_top" xlink:title="mom_error_handler::\lmom_error">
<polygon fill="white" stroke="black" points="555,-39 555,-69 661,-69 661,-39 555,-39"/>
<text text-anchor="start" x="563" y="-57" font-family="Helvetica,sans-Serif" font-size="10.00">mom_error_handler::</text>
<text text-anchor="middle" x="608" y="-46" font-family="Helvetica,sans-Serif" font-size="10.00">mom_error</text>
</a>
</g>
</g>
<!-- Node35&#45;&gt;Node37 -->
<g id="edge5" class="edge"><title>Node35&#45;&gt;Node37</title>
<path fill="none" stroke="midnightblue" d="M332.75,-52.9187C381.8,-52.1155 455.141,-51.2744 519,-52 527.347,-52.0948 536.139,-52.2403 544.805,-52.4104"/>
<polygon fill="midnightblue" stroke="midnightblue" points="544.816,-55.9113 554.887,-52.6199 544.962,-48.9128 544.816,-55.9113"/>
</g>
<!-- Node36&#45;&gt;Node37 -->
<g id="edge3" class="edge"><title>Node36&#45;&gt;Node37</title>
<path fill="none" stroke="midnightblue" d="M519.288,-67.4942C527.557,-66.222 536.132,-64.9028 544.538,-63.6096"/>
<polygon fill="midnightblue" stroke="midnightblue" points="545.323,-67.03 554.675,-62.05 544.259,-60.1114 545.323,-67.03"/>
</g>
<!-- Node38 -->
<g id="node5" class="node"><title>Node38</title>
<g id="a_node5"><a xlink:href="namespacemom__error__handler.html#ad5f00a53059c72fe2332d1436c80ca71" target="_top" xlink:title="mom_error_handler::\lis_root_pe">
<polygon fill="white" stroke="black" points="697,-39 697,-69 803,-69 803,-39 697,-39"/>
<text text-anchor="start" x="705" y="-57" font-family="Helvetica,sans-Serif" font-size="10.00">mom_error_handler::</text>
<text text-anchor="middle" x="750" y="-46" font-family="Helvetica,sans-Serif" font-size="10.00">is_root_pe</text>
</a>
</g>
</g>
<!-- Node37&#45;&gt;Node38 -->
<g id="edge4" class="edge"><title>Node37&#45;&gt;Node38</title>
<path fill="none" stroke="midnightblue" d="M661.131,-54C669.421,-54 678.07,-54 686.568,-54"/>
<polygon fill="midnightblue" stroke="midnightblue" points="686.826,-57.5001 696.826,-54 686.826,-50.5001 686.826,-57.5001"/>
</g>
</g>
</svg>
