<?xml version="1.0" encoding="UTF-8" standalone="no"?>
<!DOCTYPE svg PUBLIC "-//W3C//DTD SVG 1.1//EN"
 "http://www.w3.org/Graphics/SVG/1.1/DTD/svg11.dtd">
<!-- Generated by graphviz version 2.38.0 (20140413.2041)
 -->
<!-- Title: mom_open_boundary::parse_segment_data_str Pages: 1 -->
<svg width="439pt" height="39pt"
 viewBox="0.00 0.00 439.00 39.00" xmlns="http://www.w3.org/2000/svg" xmlns:xlink="http://www.w3.org/1999/xlink">
<g id="graph0" class="graph" transform="scale(1 1) rotate(0) translate(4 35)">
<title>mom_open_boundary::parse_segment_data_str</title>
<polygon fill="white" stroke="none" points="-4,4 -4,-35 435,-35 435,4 -4,4"/>
<!-- Node80 -->
<g id="node1" class="node"><title>Node80</title>
<polygon fill="#bfbfbf" stroke="black" points="0,-0.5 0,-30.5 124,-30.5 124,-0.5 0,-0.5"/>
<text text-anchor="start" x="8" y="-18.5" font-family="Helvetica,sans-Serif" font-size="10.00">mom_open_boundary::</text>
<text text-anchor="middle" x="62" y="-7.5" font-family="Helvetica,sans-Serif" font-size="10.00">parse_segment_data_str</text>
</g>
<!-- Node81 -->
<g id="node2" class="node"><title>Node81</title>
<g id="a_node2"><a xlink:href="namespacemom__open__boundary.html#adb17aba34a8aaceb524910d2e1196a0c" target="_top" xlink:title="mom_open_boundary::\linitialize_segment_data">
<polygon fill="white" stroke="black" points="160,-0.5 160,-30.5 279,-30.5 279,-0.5 160,-0.5"/>
<text text-anchor="start" x="168" y="-18.5" font-family="Helvetica,sans-Serif" font-size="10.00">mom_open_boundary::</text>
<text text-anchor="middle" x="219.5" y="-7.5" font-family="Helvetica,sans-Serif" font-size="10.00">initialize_segment_data</text>
</a>
</g>
</g>
<!-- Node80&#45;&gt;Node81 -->
<g id="edge1" class="edge"><title>Node80&#45;&gt;Node81</title>
<path fill="none" stroke="midnightblue" d="M134.093,-15.5C142.747,-15.5 151.511,-15.5 159.954,-15.5"/>
<polygon fill="midnightblue" stroke="midnightblue" points="134.011,-12.0001 124.011,-15.5 134.011,-19.0001 134.011,-12.0001"/>
</g>
<!-- Node82 -->
<g id="node3" class="node"><title>Node82</title>
<g id="a_node3"><a xlink:href="namespacemom__open__boundary.html#a0d3f0ce359b2852f00092f7fef88cd5f" target="_top" xlink:title="Enables OBC module and reads configuration parameters This routine is called from MOM_initialize_fixe...">
<polygon fill="white" stroke="black" points="315,-0.5 315,-30.5 431,-30.5 431,-0.5 315,-0.5"/>
<text text-anchor="start" x="323" y="-18.5" font-family="Helvetica,sans-Serif" font-size="10.00">mom_open_boundary::</text>
<text text-anchor="middle" x="373" y="-7.5" font-family="Helvetica,sans-Serif" font-size="10.00">open_boundary_config</text>
</a>
</g>
</g>
<!-- Node81&#45;&gt;Node82 -->
<g id="edge2" class="edge"><title>Node81&#45;&gt;Node82</title>
<path fill="none" stroke="midnightblue" d="M289.298,-15.5C297.75,-15.5 306.319,-15.5 314.579,-15.5"/>
<polygon fill="midnightblue" stroke="midnightblue" points="289.074,-12.0001 279.074,-15.5 289.074,-19.0001 289.074,-12.0001"/>
</g>
</g>
</svg>
