<?xml version="1.0" encoding="UTF-8" standalone="no"?>
<!DOCTYPE svg PUBLIC "-//W3C//DTD SVG 1.1//EN"
 "http://www.w3.org/Graphics/SVG/1.1/DTD/svg11.dtd">
<!-- Generated by graphviz version 2.38.0 (20140413.2041)
 -->
<!-- Title: regional_dyes::register_dye_tracer Pages: 1 -->
<svg width="909pt" height="192pt"
 viewBox="0.00 0.00 909.00 191.50" xmlns="http://www.w3.org/2000/svg" xmlns:xlink="http://www.w3.org/1999/xlink">
<g id="graph0" class="graph" transform="scale(1 1) rotate(0) translate(4 187.5)">
<title>regional_dyes::register_dye_tracer</title>
<polygon fill="white" stroke="none" points="-4,4 -4,-187.5 905,-187.5 905,4 -4,4"/>
<!-- Node21 -->
<g id="node1" class="node"><title>Node21</title>
<polygon fill="#bfbfbf" stroke="black" points="0,-90 0,-120 115,-120 115,-90 0,-90"/>
<text text-anchor="start" x="8" y="-108" font-family="Helvetica,sans-Serif" font-size="10.00">regional_dyes::register</text>
<text text-anchor="middle" x="57.5" y="-97" font-family="Helvetica,sans-Serif" font-size="10.00">_dye_tracer</text>
</g>
<!-- Node22 -->
<g id="node2" class="node"><title>Node22</title>
<g id="a_node2"><a xlink:href="namespaceatmos__ocean__fluxes__mod.html#a2bde46287389f28af76f8794dd509475" target="_top" xlink:title="atmos_ocean_fluxes\l_mod::aof_set_coupler_flux">
<polygon fill="white" stroke="black" points="151,-153 151,-183 288,-183 288,-153 151,-153"/>
<text text-anchor="start" x="159" y="-171" font-family="Helvetica,sans-Serif" font-size="10.00">atmos_ocean_fluxes</text>
<text text-anchor="middle" x="219.5" y="-160" font-family="Helvetica,sans-Serif" font-size="10.00">_mod::aof_set_coupler_flux</text>
</a>
</g>
</g>
<!-- Node21&#45;&gt;Node22 -->
<g id="edge1" class="edge"><title>Node21&#45;&gt;Node22</title>
<path fill="none" stroke="midnightblue" d="M96.824,-120.09C119.007,-128.824 147.121,-139.894 170.735,-149.192"/>
<polygon fill="midnightblue" stroke="midnightblue" points="169.625,-152.517 180.212,-152.924 172.189,-146.004 169.625,-152.517"/>
</g>
<!-- Node23 -->
<g id="node3" class="node"><title>Node23</title>
<g id="a_node3"><a xlink:href="namespacemom__error__handler.html#a460cfb79a06c29fc249952c2a3710d67" target="_top" xlink:title="mom_error_handler::\lmom_error">
<polygon fill="white" stroke="black" points="653,-90 653,-120 759,-120 759,-90 653,-90"/>
<text text-anchor="start" x="661" y="-108" font-family="Helvetica,sans-Serif" font-size="10.00">mom_error_handler::</text>
<text text-anchor="middle" x="706" y="-97" font-family="Helvetica,sans-Serif" font-size="10.00">mom_error</text>
</a>
</g>
</g>
<!-- Node21&#45;&gt;Node23 -->
<g id="edge2" class="edge"><title>Node21&#45;&gt;Node23</title>
<path fill="none" stroke="midnightblue" d="M115.233,-107.841C127.05,-108.324 139.429,-108.75 151,-109 329.266,-112.853 539.865,-109.028 642.486,-106.625"/>
<polygon fill="midnightblue" stroke="midnightblue" points="642.758,-110.119 652.671,-106.382 642.591,-103.121 642.758,-110.119"/>
</g>
<!-- Node25 -->
<g id="node5" class="node"><title>Node25</title>
<g id="a_node5"><a xlink:href="namespacemom__io.html#a23e82d1d89d9bb1c9bdf802ce80d4508" target="_top" xlink:title="This routine queries vardesc. ">
<polygon fill="white" stroke="black" points="326.5,-76.5 326.5,-95.5 447.5,-95.5 447.5,-76.5 326.5,-76.5"/>
<text text-anchor="middle" x="387" y="-83.5" font-family="Helvetica,sans-Serif" font-size="10.00">mom_io::query_vardesc</text>
</a>
</g>
</g>
<!-- Node21&#45;&gt;Node25 -->
<g id="edge4" class="edge"><title>Node21&#45;&gt;Node25</title>
<path fill="none" stroke="midnightblue" d="M115.172,-101.712C170.985,-98.4741 256.353,-93.5215 316.291,-90.0442"/>
<polygon fill="midnightblue" stroke="midnightblue" points="316.647,-93.5295 326.427,-89.4561 316.241,-86.5413 316.647,-93.5295"/>
</g>
<!-- Node27 -->
<g id="node7" class="node"><title>Node27</title>
<g id="a_node7"><a xlink:href="namespacemom__io.html#a39c3ccc06bb1a6e446af2ee9010eba16" target="_top" xlink:title="Returns a vardesc type whose elements have been filled with the provided fields. The argument name is...">
<polygon fill="white" stroke="black" points="171,-38.5 171,-57.5 268,-57.5 268,-38.5 171,-38.5"/>
<text text-anchor="middle" x="219.5" y="-45.5" font-family="Helvetica,sans-Serif" font-size="10.00">mom_io::var_desc</text>
</a>
</g>
</g>
<!-- Node21&#45;&gt;Node27 -->
<g id="edge7" class="edge"><title>Node21&#45;&gt;Node27</title>
<path fill="none" stroke="midnightblue" d="M100.862,-89.8765C116.604,-84.2591 134.617,-77.835 151,-72 161.018,-68.4322 171.873,-64.5704 181.889,-61.0091"/>
<polygon fill="midnightblue" stroke="midnightblue" points="183.314,-64.2174 191.564,-57.5699 180.969,-57.6217 183.314,-64.2174"/>
</g>
<!-- Node24 -->
<g id="node4" class="node"><title>Node24</title>
<g id="a_node4"><a xlink:href="namespacemom__error__handler.html#ad5f00a53059c72fe2332d1436c80ca71" target="_top" xlink:title="mom_error_handler::\lis_root_pe">
<polygon fill="white" stroke="black" points="795,-90 795,-120 901,-120 901,-90 795,-90"/>
<text text-anchor="start" x="803" y="-108" font-family="Helvetica,sans-Serif" font-size="10.00">mom_error_handler::</text>
<text text-anchor="middle" x="848" y="-97" font-family="Helvetica,sans-Serif" font-size="10.00">is_root_pe</text>
</a>
</g>
</g>
<!-- Node23&#45;&gt;Node24 -->
<g id="edge3" class="edge"><title>Node23&#45;&gt;Node24</title>
<path fill="none" stroke="midnightblue" d="M759.131,-105C767.421,-105 776.07,-105 784.568,-105"/>
<polygon fill="midnightblue" stroke="midnightblue" points="784.826,-108.5 794.826,-105 784.826,-101.5 784.826,-108.5"/>
</g>
<!-- Node26 -->
<g id="node6" class="node"><title>Node26</title>
<g id="a_node6"><a xlink:href="namespacemom__io.html#ac4bc408e8b38dbd669842753f26ebf88" target="_top" xlink:title="Copies a string. ">
<polygon fill="white" stroke="black" points="486,-57.5 486,-76.5 617,-76.5 617,-57.5 486,-57.5"/>
<text text-anchor="middle" x="551.5" y="-64.5" font-family="Helvetica,sans-Serif" font-size="10.00">mom_io::safe_string_copy</text>
</a>
</g>
</g>
<!-- Node25&#45;&gt;Node26 -->
<g id="edge5" class="edge"><title>Node25&#45;&gt;Node26</title>
<path fill="none" stroke="midnightblue" d="M447.586,-79.033C456.766,-77.9597 466.344,-76.8398 475.803,-75.7339"/>
<polygon fill="midnightblue" stroke="midnightblue" points="476.469,-79.1799 485.995,-74.5421 475.656,-72.2272 476.469,-79.1799"/>
</g>
<!-- Node26&#45;&gt;Node23 -->
<g id="edge6" class="edge"><title>Node26&#45;&gt;Node23</title>
<path fill="none" stroke="midnightblue" d="M590.982,-76.589C606.693,-80.5038 625.266,-85.1318 642.81,-89.5034"/>
<polygon fill="midnightblue" stroke="midnightblue" points="642.442,-93.0187 652.991,-92.0405 644.134,-86.2264 642.442,-93.0187"/>
</g>
<!-- Node27&#45;&gt;Node26 -->
<g id="edge10" class="edge"><title>Node27&#45;&gt;Node26</title>
<path fill="none" stroke="midnightblue" d="M268.132,-50.7425C322.518,-53.8738 412.176,-59.0359 475.863,-62.7027"/>
<polygon fill="midnightblue" stroke="midnightblue" points="475.668,-66.1972 485.852,-63.2779 476.07,-59.2087 475.668,-66.1972"/>
</g>
<!-- Node28 -->
<g id="node8" class="node"><title>Node28</title>
<g id="a_node8"><a xlink:href="namespacemom__io.html#af96b29cb8410d557e8e452b81586223b" target="_top" xlink:title="This routine modifies the named elements of a vardesc type. All arguments are optional, except the vardesc type to be modified. ">
<polygon fill="white" stroke="black" points="324,-0.5 324,-19.5 450,-19.5 450,-0.5 324,-0.5"/>
<text text-anchor="middle" x="387" y="-7.5" font-family="Helvetica,sans-Serif" font-size="10.00">mom_io::modify_vardesc</text>
</a>
</g>
</g>
<!-- Node27&#45;&gt;Node28 -->
<g id="edge8" class="edge"><title>Node27&#45;&gt;Node28</title>
<path fill="none" stroke="midnightblue" d="M262.263,-38.411C284.201,-33.3739 311.28,-27.1562 334.508,-21.8229"/>
<polygon fill="midnightblue" stroke="midnightblue" points="335.575,-25.1692 344.538,-19.5201 334.008,-18.3467 335.575,-25.1692"/>
</g>
<!-- Node28&#45;&gt;Node26 -->
<g id="edge9" class="edge"><title>Node28&#45;&gt;Node26</title>
<path fill="none" stroke="midnightblue" d="M415.199,-19.5405C442.149,-28.9938 483.619,-43.5402 513.544,-54.037"/>
<polygon fill="midnightblue" stroke="midnightblue" points="512.618,-57.421 523.212,-57.4284 514.935,-50.8156 512.618,-57.421"/>
</g>
</g>
</svg>
