<?xml version="1.0" encoding="UTF-8" standalone="no"?>
<!DOCTYPE svg PUBLIC "-//W3C//DTD SVG 1.1//EN"
 "http://www.w3.org/Graphics/SVG/1.1/DTD/svg11.dtd">
<!-- Generated by graphviz version 2.38.0 (20140413.2041)
 -->
<!-- Title: mom_string_functions::extract_word Pages: 1 -->
<!--zoomable 323 -->
<svg id="main" version="1.1" xmlns="http://www.w3.org/2000/svg" xmlns:xlink="http://www.w3.org/1999/xlink" xml:space="preserve" onload="init(evt)">
<style type="text/css"><![CDATA[
.edge:hover path { stroke: red; }
.edge:hover polygon { stroke: red; fill: red; }
]]></style>
<script type="text/javascript"><![CDATA[
var edges = document.getElementsByTagName('g');
if (edges && edges.length) {
  for (var i=0;i<edges.length;i++) {
    if (edges[i].id.substr(0,4)=='edge') {
      edges[i].setAttribute('class','edge');
    }
  }
}
]]></script>
        <defs>
                <circle id="rim" cx="0" cy="0" r="7"/>
                <circle id="rim2" cx="0" cy="0" r="3.5"/>
                <g id="zoomPlus">
                        <use xlink:href="#rim" fill="#404040">
                                <set attributeName="fill" to="#808080" begin="zoomplus.mouseover" end="zoomplus.mouseout"/>
                        </use>
                        <path d="M-4,0h8M0,-4v8" fill="none" stroke="white" stroke-width="1.5" pointer-events="none"/>
                </g>
                <g id="zoomMin">
                        <use xlink:href="#rim" fill="#404040">
                                <set attributeName="fill" to="#808080" begin="zoomminus.mouseover" end="zoomminus.mouseout"/>
                        </use>
                        <path d="M-4,0h8" fill="none" stroke="white" stroke-width="1.5" pointer-events="none"/>
                </g>
                <g id="dirArrow">
                        <path fill="none" stroke="white" stroke-width="1.5" d="M0,-3.0v7 M-2.5,-0.5L0,-3.0L2.5,-0.5"/>
                </g>
               <g id="resetDef">
                       <use xlink:href="#rim2" fill="#404040">
                               <set attributeName="fill" to="#808080" begin="reset.mouseover" end="reset.mouseout"/>
                       </use>
               </g>
        </defs>

<script type="text/javascript">
var viewWidth = 853;
var viewHeight = 323;
var sectionId = 'dynsection-4';
</script>
<script xlink:href="svgpan.js"/>
<svg id="graph" class="graph">
<g id="viewport">
<title>mom_string_functions::extract_word</title>
<polygon fill="white" stroke="none" points="-4,4 -4,-319 849,-319 849,4 -4,4"/>
<!-- Node17 -->
<g id="node1" class="node"><title>Node17</title>
<polygon fill="#bfbfbf" stroke="black" points="0,-164.5 0,-194.5 113,-194.5 113,-164.5 0,-164.5"/>
<text text-anchor="start" x="8" y="-182.5" font-family="Helvetica,sans-Serif" font-size="10.00">mom_string_functions</text>
<text text-anchor="middle" x="56.5" y="-171.5" font-family="Helvetica,sans-Serif" font-size="10.00">::extract_word</text>
</g>
<!-- Node18 -->
<g id="node2" class="node"><title>Node18</title>
<g id="a_node2"><a xlink:href="namespacemom__string__functions.html#aae12046c1401f23bd7e038655e30654e" target="_top" xlink:title="Returns the integer corresponding to the nth word in the argument. ">
<polygon fill="white" stroke="black" points="154.5,-284.5 154.5,-314.5 267.5,-314.5 267.5,-284.5 154.5,-284.5"/>
<text text-anchor="start" x="162.5" y="-302.5" font-family="Helvetica,sans-Serif" font-size="10.00">mom_string_functions</text>
<text text-anchor="middle" x="211" y="-291.5" font-family="Helvetica,sans-Serif" font-size="10.00">::extract_integer</text>
</a>
</g>
</g>
<!-- Node17&#45;&gt;Node18 -->
<g id="edge1" class="edge"><title>Node17&#45;&gt;Node18</title>
<path fill="none" stroke="midnightblue" d="M74.7511,-202.719C91.6479,-224.087 119.147,-255.42 149,-275.5 153.91,-278.803 159.343,-281.754 164.883,-284.36"/>
<polygon fill="midnightblue" stroke="midnightblue" points="77.4947,-200.545 68.602,-194.786 71.9621,-204.834 77.4947,-200.545"/>
</g>
<!-- Node20 -->
<g id="node4" class="node"><title>Node20</title>
<g id="a_node4"><a xlink:href="namespacemom__string__functions.html#a7b7aa802a4da2021801267f6c6f890bf" target="_top" xlink:title="Returns true if a unit test of string_functions fails. ">
<polygon fill="white" stroke="black" points="309,-215.5 309,-245.5 449,-245.5 449,-215.5 309,-215.5"/>
<text text-anchor="start" x="317" y="-233.5" font-family="Helvetica,sans-Serif" font-size="10.00">mom_string_functions</text>
<text text-anchor="middle" x="379" y="-222.5" font-family="Helvetica,sans-Serif" font-size="10.00">::string_functions_unit_tests</text>
</a>
</g>
</g>
<!-- Node17&#45;&gt;Node20 -->
<g id="edge22" class="edge"><title>Node17&#45;&gt;Node20</title>
<path fill="none" stroke="midnightblue" d="M123.165,-167.03C166.869,-161.49 224.877,-159.528 273,-176.5 292.376,-183.333 291.098,-195.419 309,-205.5 315.55,-209.189 322.746,-212.505 329.942,-215.424"/>
<polygon fill="midnightblue" stroke="midnightblue" points="122.661,-163.566 113.224,-168.382 123.604,-170.502 122.661,-163.566"/>
</g>
<!-- Node24 -->
<g id="node8" class="node"><title>Node24</title>
<g id="a_node8"><a xlink:href="namespacemom__string__functions.html#a2f700337c5cf4e70a48bd0663570484e" target="_top" xlink:title="Returns the real corresponding to the nth word in the argument. ">
<polygon fill="white" stroke="black" points="154.5,-235.5 154.5,-265.5 267.5,-265.5 267.5,-235.5 154.5,-235.5"/>
<text text-anchor="start" x="162.5" y="-253.5" font-family="Helvetica,sans-Serif" font-size="10.00">mom_string_functions</text>
<text text-anchor="middle" x="211" y="-242.5" font-family="Helvetica,sans-Serif" font-size="10.00">::extract_real</text>
</a>
</g>
</g>
<!-- Node17&#45;&gt;Node24 -->
<g id="edge7" class="edge"><title>Node17&#45;&gt;Node24</title>
<path fill="none" stroke="midnightblue" d="M95.3164,-199.331C111.683,-207.7 131.146,-217.368 149,-225.5 156.395,-228.868 164.38,-232.291 172.06,-235.479"/>
<polygon fill="midnightblue" stroke="midnightblue" points="96.5663,-196.038 86.0729,-194.575 93.3636,-202.262 96.5663,-196.038"/>
</g>
<!-- Node25 -->
<g id="node9" class="node"><title>Node25</title>
<g id="a_node9"><a xlink:href="namespacemom__string__functions.html#a7bfdab6bba33230cc94ed625e95022c9" target="_top" xlink:title="Returns the string corresponding to the nth word in the argument or &quot;&quot; if the string is not long enou...">
<polygon fill="white" stroke="black" points="154.5,-186.5 154.5,-216.5 267.5,-216.5 267.5,-186.5 154.5,-186.5"/>
<text text-anchor="start" x="162.5" y="-204.5" font-family="Helvetica,sans-Serif" font-size="10.00">mom_string_functions</text>
<text text-anchor="middle" x="211" y="-193.5" font-family="Helvetica,sans-Serif" font-size="10.00">::extractword</text>
</a>
</g>
</g>
<!-- Node17&#45;&gt;Node25 -->
<g id="edge10" class="edge"><title>Node17&#45;&gt;Node25</title>
<path fill="none" stroke="midnightblue" d="M123.569,-189.031C133.83,-190.512 144.342,-192.028 154.342,-193.471"/>
<polygon fill="midnightblue" stroke="midnightblue" points="123.817,-185.531 113.419,-187.567 122.817,-192.459 123.817,-185.531"/>
</g>
<!-- Node27 -->
<g id="node11" class="node"><title>Node27</title>
<g id="a_node11"><a xlink:href="namespacemom__open__boundary.html#a0aee21537ad757ce15e602d8fd55eb4d" target="_top" xlink:title="Parse an OBC_SEGMENT_%%_DATA string. ">
<polygon fill="white" stroke="black" points="149,-98.5 149,-128.5 273,-128.5 273,-98.5 149,-98.5"/>
<text text-anchor="start" x="157" y="-116.5" font-family="Helvetica,sans-Serif" font-size="10.00">mom_open_boundary::</text>
<text text-anchor="middle" x="211" y="-105.5" font-family="Helvetica,sans-Serif" font-size="10.00">parse_segment_data_str</text>
</a>
</g>
</g>
<!-- Node17&#45;&gt;Node27 -->
<g id="edge14" class="edge"><title>Node17&#45;&gt;Node27</title>
<path fill="none" stroke="midnightblue" d="M101.832,-160.314C125.186,-150.207 153.413,-137.99 175.176,-128.571"/>
<polygon fill="midnightblue" stroke="midnightblue" points="100.274,-157.174 92.4866,-164.358 103.054,-163.598 100.274,-157.174"/>
</g>
<!-- Node30 -->
<g id="node14" class="node"><title>Node30</title>
<g id="a_node14"><a xlink:href="namespacemom__open__boundary.html#ad40be6b6ce4c94040b7de59bde9be77f" target="_top" xlink:title="Parse an OBC_SEGMENT_%%% string. ">
<polygon fill="white" stroke="black" points="153,-49.5 153,-79.5 269,-79.5 269,-49.5 153,-49.5"/>
<text text-anchor="start" x="161" y="-67.5" font-family="Helvetica,sans-Serif" font-size="10.00">mom_open_boundary::</text>
<text text-anchor="middle" x="211" y="-56.5" font-family="Helvetica,sans-Serif" font-size="10.00">parse_segment_str</text>
</a>
</g>
</g>
<!-- Node17&#45;&gt;Node30 -->
<g id="edge17" class="edge"><title>Node17&#45;&gt;Node30</title>
<path fill="none" stroke="midnightblue" d="M75.8102,-156.585C92.9394,-136.397 120.152,-107.349 149,-88.5 154.049,-85.2008 159.623,-82.239 165.286,-79.6163"/>
<polygon fill="midnightblue" stroke="midnightblue" points="73.0336,-154.45 69.3265,-164.375 78.4139,-158.928 73.0336,-154.45"/>
</g>
<!-- Node19 -->
<g id="node3" class="node"><title>Node19</title>
<g id="a_node3"><a xlink:href="namespacemom__regridding.html#af375f9f79f880b10aa85cd11de23519b" target="_top" xlink:title="Initialization and configures a regridding control structure based on customizable run&#45;time parameter...">
<polygon fill="white" stroke="black" points="315.5,-264.5 315.5,-294.5 442.5,-294.5 442.5,-264.5 315.5,-264.5"/>
<text text-anchor="start" x="323.5" y="-282.5" font-family="Helvetica,sans-Serif" font-size="10.00">mom_regridding::initialize</text>
<text text-anchor="middle" x="379" y="-271.5" font-family="Helvetica,sans-Serif" font-size="10.00">_regridding</text>
</a>
</g>
</g>
<!-- Node18&#45;&gt;Node19 -->
<g id="edge2" class="edge"><title>Node18&#45;&gt;Node19</title>
<path fill="none" stroke="midnightblue" d="M277.924,-291.557C290.228,-290.075 303.055,-288.53 315.259,-287.059"/>
<polygon fill="midnightblue" stroke="midnightblue" points="277.247,-288.114 267.737,-292.785 278.084,-295.063 277.247,-288.114"/>
</g>
<!-- Node18&#45;&gt;Node20 -->
<g id="edge3" class="edge"><title>Node18&#45;&gt;Node20</title>
<path fill="none" stroke="midnightblue" d="M261.838,-280.524C265.64,-278.884 269.398,-277.2 273,-275.5 289.552,-267.688 292.343,-263.086 309,-255.5 316.653,-252.015 324.946,-248.665 333.041,-245.612"/>
<polygon fill="midnightblue" stroke="midnightblue" points="260.225,-277.405 252.354,-284.496 262.929,-283.861 260.225,-277.405"/>
</g>
<!-- Node21 -->
<g id="node5" class="node"><title>Node21</title>
<g id="a_node5"><a xlink:href="namespacemom__unit__tests.html#a71f3a2080872634c14a25a9411b59fe0" target="_top" xlink:title="Calls unit tests for other modules. Note that if a unit test returns true, a FATAL error is triggered...">
<polygon fill="white" stroke="black" points="489,-215.5 489,-245.5 597,-245.5 597,-215.5 489,-215.5"/>
<text text-anchor="start" x="497" y="-233.5" font-family="Helvetica,sans-Serif" font-size="10.00">mom_unit_tests::unit</text>
<text text-anchor="middle" x="543" y="-222.5" font-family="Helvetica,sans-Serif" font-size="10.00">_tests</text>
</a>
</g>
</g>
<!-- Node20&#45;&gt;Node21 -->
<g id="edge4" class="edge"><title>Node20&#45;&gt;Node21</title>
<path fill="none" stroke="midnightblue" d="M459.477,-230.5C469.399,-230.5 479.352,-230.5 488.74,-230.5"/>
<polygon fill="midnightblue" stroke="midnightblue" points="459.173,-227 449.172,-230.5 459.172,-234 459.173,-227"/>
</g>
<!-- Node22 -->
<g id="node6" class="node"><title>Node22</title>
<g id="a_node6"><a xlink:href="namespacemom.html#a0be2869fef30e1e0604facfe1b41555d" target="_top" xlink:title="This subroutine initializes MOM. ">
<polygon fill="white" stroke="black" points="637,-221 637,-240 744,-240 744,-221 637,-221"/>
<text text-anchor="middle" x="690.5" y="-228" font-family="Helvetica,sans-Serif" font-size="10.00">mom::initialize_mom</text>
</a>
</g>
</g>
<!-- Node21&#45;&gt;Node22 -->
<g id="edge5" class="edge"><title>Node21&#45;&gt;Node22</title>
<path fill="none" stroke="midnightblue" d="M607.407,-230.5C617.162,-230.5 627.146,-230.5 636.64,-230.5"/>
<polygon fill="midnightblue" stroke="midnightblue" points="607.353,-227 597.353,-230.5 607.353,-234 607.353,-227"/>
</g>
<!-- Node23 -->
<g id="node7" class="node"><title>Node23</title>
<g id="a_node7"><a xlink:href="MOM__driver_8F90.html#a08fffeb2d8e8acbf9ed4609be6d258c6" target="_top" xlink:title="mom_main">
<polygon fill="white" stroke="black" points="780,-221 780,-240 845,-240 845,-221 780,-221"/>
<text text-anchor="middle" x="812.5" y="-228" font-family="Helvetica,sans-Serif" font-size="10.00">mom_main</text>
</a>
</g>
</g>
<!-- Node22&#45;&gt;Node23 -->
<g id="edge6" class="edge"><title>Node22&#45;&gt;Node23</title>
<path fill="none" stroke="midnightblue" d="M754.206,-230.5C763.134,-230.5 771.983,-230.5 779.958,-230.5"/>
<polygon fill="midnightblue" stroke="midnightblue" points="754.134,-227 744.134,-230.5 754.134,-234 754.134,-227"/>
</g>
<!-- Node24&#45;&gt;Node19 -->
<g id="edge8" class="edge"><title>Node24&#45;&gt;Node19</title>
<path fill="none" stroke="midnightblue" d="M277.924,-262.017C290.228,-264.166 303.055,-266.407 315.259,-268.539"/>
<polygon fill="midnightblue" stroke="midnightblue" points="278.191,-258.51 267.737,-260.237 276.986,-265.406 278.191,-258.51"/>
</g>
<!-- Node24&#45;&gt;Node20 -->
<g id="edge9" class="edge"><title>Node24&#45;&gt;Node20</title>
<path fill="none" stroke="midnightblue" d="M277.797,-242.573C288.001,-241.343 298.568,-240.07 308.844,-238.832"/>
<polygon fill="midnightblue" stroke="midnightblue" points="277.247,-239.114 267.737,-243.785 278.084,-246.063 277.247,-239.114"/>
</g>
<!-- Node25&#45;&gt;Node19 -->
<g id="edge11" class="edge"><title>Node25&#45;&gt;Node19</title>
<path fill="none" stroke="midnightblue" d="M264.256,-220.813C267.26,-222.306 270.196,-223.87 273,-225.5 290.763,-235.824 291.098,-244.419 309,-254.5 315.55,-258.189 322.746,-261.505 329.942,-264.424"/>
<polygon fill="midnightblue" stroke="midnightblue" points="265.65,-217.601 255.107,-216.551 262.695,-223.946 265.65,-217.601"/>
</g>
<!-- Node25&#45;&gt;Node20 -->
<g id="edge13" class="edge"><title>Node25&#45;&gt;Node20</title>
<path fill="none" stroke="midnightblue" d="M277.797,-212.995C288.001,-214.777 298.568,-216.623 308.844,-218.419"/>
<polygon fill="midnightblue" stroke="midnightblue" points="278.191,-209.51 267.737,-211.237 276.986,-216.406 278.191,-209.51"/>
</g>
<!-- Node26 -->
<g id="node10" class="node"><title>Node26</title>
<g id="a_node10"><a xlink:href="namespacemom__diag__remap.html#a0607b4ad01c1d80f181aa7450ba4f703" target="_top" xlink:title="Initialize a diagnostic remapping type with the given vertical coordinate. ">
<polygon fill="white" stroke="black" points="320,-166.5 320,-196.5 438,-196.5 438,-166.5 320,-166.5"/>
<text text-anchor="start" x="328" y="-184.5" font-family="Helvetica,sans-Serif" font-size="10.00">mom_diag_remap::diag</text>
<text text-anchor="middle" x="379" y="-173.5" font-family="Helvetica,sans-Serif" font-size="10.00">_remap_init</text>
</a>
</g>
</g>
<!-- Node25&#45;&gt;Node26 -->
<g id="edge12" class="edge"><title>Node25&#45;&gt;Node26</title>
<path fill="none" stroke="midnightblue" d="M277.728,-193.581C291.646,-191.904 306.242,-190.145 319.856,-188.505"/>
<polygon fill="midnightblue" stroke="midnightblue" points="277.247,-190.114 267.737,-194.785 278.084,-197.063 277.247,-190.114"/>
</g>
<!-- Node28 -->
<g id="node12" class="node"><title>Node28</title>
<g id="a_node12"><a xlink:href="namespacemom__open__boundary.html#adb17aba34a8aaceb524910d2e1196a0c" target="_top" xlink:title="mom_open_boundary::\linitialize_segment_data">
<polygon fill="white" stroke="black" points="319.5,-98.5 319.5,-128.5 438.5,-128.5 438.5,-98.5 319.5,-98.5"/>
<text text-anchor="start" x="327.5" y="-116.5" font-family="Helvetica,sans-Serif" font-size="10.00">mom_open_boundary::</text>
<text text-anchor="middle" x="379" y="-105.5" font-family="Helvetica,sans-Serif" font-size="10.00">initialize_segment_data</text>
</a>
</g>
</g>
<!-- Node27&#45;&gt;Node28 -->
<g id="edge15" class="edge"><title>Node27&#45;&gt;Node28</title>
<path fill="none" stroke="midnightblue" d="M283.344,-113.5C295.373,-113.5 307.736,-113.5 319.393,-113.5"/>
<polygon fill="midnightblue" stroke="midnightblue" points="283.341,-110 273.341,-113.5 283.341,-117 283.341,-110"/>
</g>
<!-- Node29 -->
<g id="node13" class="node"><title>Node29</title>
<g id="a_node13"><a xlink:href="namespacemom__open__boundary.html#a0d3f0ce359b2852f00092f7fef88cd5f" target="_top" xlink:title="Enables OBC module and reads configuration parameters This routine is called from MOM_initialize_fixe...">
<polygon fill="white" stroke="black" points="485,-49.5 485,-79.5 601,-79.5 601,-49.5 485,-49.5"/>
<text text-anchor="start" x="493" y="-67.5" font-family="Helvetica,sans-Serif" font-size="10.00">mom_open_boundary::</text>
<text text-anchor="middle" x="543" y="-56.5" font-family="Helvetica,sans-Serif" font-size="10.00">open_boundary_config</text>
</a>
</g>
</g>
<!-- Node28&#45;&gt;Node29 -->
<g id="edge16" class="edge"><title>Node28&#45;&gt;Node29</title>
<path fill="none" stroke="midnightblue" d="M439.884,-95.3871C457.106,-90.1778 475.698,-84.5543 492.238,-79.5516"/>
<polygon fill="midnightblue" stroke="midnightblue" points="438.486,-92.1532 429.927,-98.3986 440.512,-98.8534 438.486,-92.1532"/>
</g>
<!-- Node31 -->
<g id="node15" class="node"><title>Node31</title>
<g id="a_node15"><a xlink:href="namespacemom__open__boundary.html#ab7c14cc1f67490ff9326c35471fb7ef7" target="_top" xlink:title="Parse an OBC_SEGMENT_%%% string starting with &quot;I=&quot; and configure placement and type of OBC accordingl...">
<polygon fill="white" stroke="black" points="321,-49.5 321,-79.5 437,-79.5 437,-49.5 321,-49.5"/>
<text text-anchor="start" x="329" y="-67.5" font-family="Helvetica,sans-Serif" font-size="10.00">mom_open_boundary::</text>
<text text-anchor="middle" x="379" y="-56.5" font-family="Helvetica,sans-Serif" font-size="10.00">setup_u_point_obc</text>
</a>
</g>
</g>
<!-- Node30&#45;&gt;Node31 -->
<g id="edge18" class="edge"><title>Node30&#45;&gt;Node31</title>
<path fill="none" stroke="midnightblue" d="M279.467,-64.5C293.17,-64.5 307.459,-64.5 320.767,-64.5"/>
<polygon fill="midnightblue" stroke="midnightblue" points="279.128,-61.0001 269.128,-64.5 279.128,-68.0001 279.128,-61.0001"/>
</g>
<!-- Node32 -->
<g id="node16" class="node"><title>Node32</title>
<g id="a_node16"><a xlink:href="namespacemom__open__boundary.html#ae298511b7acc78ed5cd780ad967318cc" target="_top" xlink:title="Parse an OBC_SEGMENT_%%% string starting with &quot;J=&quot; and configure placement and type of OBC accordingl...">
<polygon fill="white" stroke="black" points="321,-0.5 321,-30.5 437,-30.5 437,-0.5 321,-0.5"/>
<text text-anchor="start" x="329" y="-18.5" font-family="Helvetica,sans-Serif" font-size="10.00">mom_open_boundary::</text>
<text text-anchor="middle" x="379" y="-7.5" font-family="Helvetica,sans-Serif" font-size="10.00">setup_v_point_obc</text>
</a>
</g>
</g>
<!-- Node30&#45;&gt;Node32 -->
<g id="edge20" class="edge"><title>Node30&#45;&gt;Node32</title>
<path fill="none" stroke="midnightblue" d="M272.868,-46.533C290.654,-41.283 309.902,-35.6011 327.009,-30.5516"/>
<polygon fill="midnightblue" stroke="midnightblue" points="271.76,-43.2106 263.16,-49.3986 273.742,-49.9243 271.76,-43.2106"/>
</g>
<!-- Node31&#45;&gt;Node29 -->
<g id="edge19" class="edge"><title>Node31&#45;&gt;Node29</title>
<path fill="none" stroke="midnightblue" d="M447.435,-64.5C459.875,-64.5 472.755,-64.5 484.855,-64.5"/>
<polygon fill="midnightblue" stroke="midnightblue" points="447.115,-61.0001 437.115,-64.5 447.115,-68.0001 447.115,-61.0001"/>
</g>
<!-- Node32&#45;&gt;Node29 -->
<g id="edge21" class="edge"><title>Node32&#45;&gt;Node29</title>
<path fill="none" stroke="midnightblue" d="M439.884,-33.6129C457.106,-38.8222 475.698,-44.4457 492.238,-49.4484"/>
<polygon fill="midnightblue" stroke="midnightblue" points="440.512,-30.1466 429.927,-30.6014 438.486,-36.8468 440.512,-30.1466"/>
</g>
</g>
</svg>
        <g id="navigator" transform="translate(0 0)" fill="#404254">
                <rect fill="#f2f5e9" fill-opacity="0.5" stroke="#606060" stroke-width=".5" x="0" y="0" width="60" height="60"/>
                <use id="zoomplus" xlink:href="#zoomPlus" x="17" y="9" onmousedown="handleZoom(evt,'in')"/>
                <use id="zoomminus" xlink:href="#zoomMin" x="42" y="9" onmousedown="handleZoom(evt,'out')"/>
                <use id="reset" xlink:href="#resetDef" x="30" y="36" onmousedown="handleReset()"/>
                <g id="arrowUp" xlink:href="#dirArrow" transform="translate(30 24)" onmousedown="handlePan(0,-1)">
                  <use xlink:href="#rim" fill="#404040">
                        <set attributeName="fill" to="#808080" begin="arrowUp.mouseover" end="arrowUp.mouseout"/>
                  </use>
                  <path fill="none" stroke="white" stroke-width="1.5" d="M0,-3.0v7 M-2.5,-0.5L0,-3.0L2.5,-0.5"/>
                </g>
                <g id="arrowRight" xlink:href="#dirArrow" transform="rotate(90) translate(36 -43)" onmousedown="handlePan(1,0)">
                  <use xlink:href="#rim" fill="#404040">
                        <set attributeName="fill" to="#808080" begin="arrowRight.mouseover" end="arrowRight.mouseout"/>
                  </use>
                  <path fill="none" stroke="white" stroke-width="1.5" d="M0,-3.0v7 M-2.5,-0.5L0,-3.0L2.5,-0.5"/>
                </g>
                <g id="arrowDown" xlink:href="#dirArrow" transform="rotate(180) translate(-30 -48)" onmousedown="handlePan(0,1)">
                  <use xlink:href="#rim" fill="#404040">
                        <set attributeName="fill" to="#808080" begin="arrowDown.mouseover" end="arrowDown.mouseout"/>
                  </use>
                  <path fill="none" stroke="white" stroke-width="1.5" d="M0,-3.0v7 M-2.5,-0.5L0,-3.0L2.5,-0.5"/>
                </g>
                <g id="arrowLeft" xlink:href="#dirArrow" transform="rotate(270) translate(-36 17)" onmousedown="handlePan(-1,0)">
                  <use xlink:href="#rim" fill="#404040">
                        <set attributeName="fill" to="#808080" begin="arrowLeft.mouseover" end="arrowLeft.mouseout"/>
                  </use>
                  <path fill="none" stroke="white" stroke-width="1.5" d="M0,-3.0v7 M-2.5,-0.5L0,-3.0L2.5,-0.5"/>
                </g>
        </g>
        <svg viewBox="0 0 15 15" width="100%" height="30px" preserveAspectRatio="xMaxYMin meet">
         <g id="arrow_out" transform="scale(0.3 0.3)">
          <a xlink:href="namespacemom__string__functions_aad76dee92b69dab4488da049fe11cdb8_icgraph_org.svg" target="_base">
           <rect id="button" ry="5" rx="5" y="6" x="6" height="38" width="38"
                fill="#f2f5e9" fill-opacity="0.5" stroke="#606060" stroke-width="1.0"/>
           <path id="arrow"
             d="M 11.500037,31.436501 C 11.940474,20.09759 22.043105,11.32322 32.158766,21.979434 L 37.068811,17.246167 C 37.068811,17.246167 37.088388,32 37.088388,32 L 22.160133,31.978069 C 22.160133,31.978069 26.997745,27.140456 26.997745,27.140456 C 18.528582,18.264221 13.291696,25.230495 11.500037,31.436501 z"
             style="fill:#404040;"/>
          </a>
         </g>
        </svg>
</svg>
