<?xml version="1.0" encoding="UTF-8" standalone="no"?>
<!DOCTYPE svg PUBLIC "-//W3C//DTD SVG 1.1//EN"
 "http://www.w3.org/Graphics/SVG/1.1/DTD/svg11.dtd">
<!-- Generated by graphviz version 2.38.0 (20140413.2041)
 -->
<!-- Title: mom_file_parser::convert_date_to_string Pages: 1 -->
<svg width="422pt" height="39pt"
 viewBox="0.00 0.00 422.00 39.00" xmlns="http://www.w3.org/2000/svg" xmlns:xlink="http://www.w3.org/1999/xlink">
<g id="graph0" class="graph" transform="scale(1 1) rotate(0) translate(4 35)">
<title>mom_file_parser::convert_date_to_string</title>
<polygon fill="white" stroke="none" points="-4,4 -4,-35 418,-35 418,4 -4,4"/>
<!-- Node34 -->
<g id="node1" class="node"><title>Node34</title>
<polygon fill="#bfbfbf" stroke="black" points="0,-0.5 0,-30.5 127,-30.5 127,-0.5 0,-0.5"/>
<text text-anchor="start" x="8" y="-18.5" font-family="Helvetica,sans-Serif" font-size="10.00">mom_file_parser::convert</text>
<text text-anchor="middle" x="63.5" y="-7.5" font-family="Helvetica,sans-Serif" font-size="10.00">_date_to_string</text>
</g>
<!-- Node35 -->
<g id="node2" class="node"><title>Node35</title>
<g id="a_node2"><a xlink:href="namespacemom__file__parser.html#a0d184e444a7c6b5ba1dcfdd544cf5482" target="_top" xlink:title="This subroutine writes the value of a time&#45;type parameter to a log file, along with its name and the ...">
<polygon fill="white" stroke="black" points="163,-0.5 163,-30.5 270,-30.5 270,-0.5 163,-0.5"/>
<text text-anchor="start" x="171" y="-18.5" font-family="Helvetica,sans-Serif" font-size="10.00">mom_file_parser::log</text>
<text text-anchor="middle" x="216.5" y="-7.5" font-family="Helvetica,sans-Serif" font-size="10.00">_param_time</text>
</a>
</g>
</g>
<!-- Node34&#45;&gt;Node35 -->
<g id="edge1" class="edge"><title>Node34&#45;&gt;Node35</title>
<path fill="none" stroke="midnightblue" d="M137.283,-15.5C145.892,-15.5 154.547,-15.5 162.802,-15.5"/>
<polygon fill="midnightblue" stroke="midnightblue" points="137.226,-12.0001 127.226,-15.5 137.226,-19.0001 137.226,-12.0001"/>
</g>
<!-- Node36 -->
<g id="node3" class="node"><title>Node36</title>
<g id="a_node3"><a xlink:href="namespacemom__file__parser.html#afc249b1d8fb63bd4102b52c83030ce73" target="_top" xlink:title="mom_file_parser::get\l_param_time">
<polygon fill="white" stroke="black" points="306,-0.5 306,-30.5 414,-30.5 414,-0.5 306,-0.5"/>
<text text-anchor="start" x="314" y="-18.5" font-family="Helvetica,sans-Serif" font-size="10.00">mom_file_parser::get</text>
<text text-anchor="middle" x="360" y="-7.5" font-family="Helvetica,sans-Serif" font-size="10.00">_param_time</text>
</a>
</g>
</g>
<!-- Node35&#45;&gt;Node36 -->
<g id="edge2" class="edge"><title>Node35&#45;&gt;Node36</title>
<path fill="none" stroke="midnightblue" d="M280.416,-15.5C288.888,-15.5 297.513,-15.5 305.795,-15.5"/>
<polygon fill="midnightblue" stroke="midnightblue" points="280.189,-12.0001 270.189,-15.5 280.189,-19.0001 280.189,-12.0001"/>
</g>
</g>
</svg>
