<?xml version="1.0" encoding="UTF-8" standalone="no"?>
<!DOCTYPE svg PUBLIC "-//W3C//DTD SVG 1.1//EN"
 "http://www.w3.org/Graphics/SVG/1.1/DTD/svg11.dtd">
<!-- Generated by graphviz version 2.38.0 (20140413.2041)
 -->
<!-- Title: mom_debugging::check_redundant_vb2d Pages: 1 -->
<svg width="284pt" height="39pt"
 viewBox="0.00 0.00 284.00 39.00" xmlns="http://www.w3.org/2000/svg" xmlns:xlink="http://www.w3.org/1999/xlink">
<g id="graph0" class="graph" transform="scale(1 1) rotate(0) translate(4 35)">
<title>mom_debugging::check_redundant_vb2d</title>
<polygon fill="white" stroke="none" points="-4,4 -4,-35 280,-35 280,4 -4,4"/>
<!-- Node24 -->
<g id="node1" class="node"><title>Node24</title>
<polygon fill="#bfbfbf" stroke="black" points="0,-0.5 0,-30.5 120,-30.5 120,-0.5 0,-0.5"/>
<text text-anchor="start" x="8" y="-18.5" font-family="Helvetica,sans-Serif" font-size="10.00">mom_debugging::check</text>
<text text-anchor="middle" x="60" y="-7.5" font-family="Helvetica,sans-Serif" font-size="10.00">_redundant_vb2d</text>
</g>
<!-- Node25 -->
<g id="node2" class="node"><title>Node25</title>
<g id="a_node2"><a xlink:href="namespacemom__debugging.html#a1d85ea0234c675fb2b42cb1074f70340" target="_top" xlink:title="mom_debugging::check\l_redundant_vb3d">
<polygon fill="white" stroke="black" points="156,-0.5 156,-30.5 276,-30.5 276,-0.5 156,-0.5"/>
<text text-anchor="start" x="164" y="-18.5" font-family="Helvetica,sans-Serif" font-size="10.00">mom_debugging::check</text>
<text text-anchor="middle" x="216" y="-7.5" font-family="Helvetica,sans-Serif" font-size="10.00">_redundant_vb3d</text>
</a>
</g>
</g>
<!-- Node24&#45;&gt;Node25 -->
<g id="edge1" class="edge"><title>Node24&#45;&gt;Node25</title>
<path fill="none" stroke="midnightblue" d="M130.369,-15.5C138.862,-15.5 147.48,-15.5 155.804,-15.5"/>
<polygon fill="midnightblue" stroke="midnightblue" points="130.1,-12.0001 120.1,-15.5 130.1,-19.0001 130.1,-12.0001"/>
</g>
</g>
</svg>
