<?xml version="1.0" encoding="UTF-8" standalone="no"?>
<!DOCTYPE svg PUBLIC "-//W3C//DTD SVG 1.1//EN"
 "http://www.w3.org/Graphics/SVG/1.1/DTD/svg11.dtd">
<!-- Generated by graphviz version 2.38.0 (20140413.2041)
 -->
<!-- Title: mom_checksums::chksum_pair_h_2d Pages: 1 -->
<svg width="651pt" height="203pt"
 viewBox="0.00 0.00 651.00 202.50" xmlns="http://www.w3.org/2000/svg" xmlns:xlink="http://www.w3.org/1999/xlink">
<g id="graph0" class="graph" transform="scale(1 1) rotate(0) translate(4 198.5)">
<title>mom_checksums::chksum_pair_h_2d</title>
<polygon fill="white" stroke="none" points="-4,4 -4,-198.5 647,-198.5 647,4 -4,4"/>
<!-- Node106 -->
<g id="node1" class="node"><title>Node106</title>
<polygon fill="#bfbfbf" stroke="black" points="0,-71 0,-101 134,-101 134,-71 0,-71"/>
<text text-anchor="start" x="8" y="-89" font-family="Helvetica,sans-Serif" font-size="10.00">mom_checksums::chksum</text>
<text text-anchor="middle" x="67" y="-78" font-family="Helvetica,sans-Serif" font-size="10.00">_pair_h_2d</text>
</g>
<!-- Node107 -->
<g id="node2" class="node"><title>Node107</title>
<g id="a_node2"><a xlink:href="namespacemom__checksums.html#a71c7ef9c5bf9454473221ba51cd9c8ea" target="_top" xlink:title="chksum_h_2d performs checksums on a 2d array staggered at tracer points. ">
<polygon fill="white" stroke="black" points="170,-76.5 170,-95.5 331,-95.5 331,-76.5 170,-76.5"/>
<text text-anchor="middle" x="250.5" y="-83.5" font-family="Helvetica,sans-Serif" font-size="10.00">mom_checksums::chksum_h_2d</text>
</a>
</g>
</g>
<!-- Node106&#45;&gt;Node107 -->
<g id="edge1" class="edge"><title>Node106&#45;&gt;Node107</title>
<path fill="none" stroke="midnightblue" d="M134.039,-86C142.417,-86 151.099,-86 159.769,-86"/>
<polygon fill="midnightblue" stroke="midnightblue" points="159.921,-89.5001 169.921,-86 159.921,-82.5001 159.921,-89.5001"/>
</g>
<!-- Node108 -->
<g id="node3" class="node"><title>Node108</title>
<g id="a_node3"><a xlink:href="namespacemom__checksums.html#a1e347f41f6888fd746c4ec1cd5578439" target="_top" xlink:title="mom_checksums::chk\l_sum_msg_nsew">
<polygon fill="white" stroke="black" points="376,-164 376,-194 492,-194 492,-164 376,-164"/>
<text text-anchor="start" x="384" y="-182" font-family="Helvetica,sans-Serif" font-size="10.00">mom_checksums::chk</text>
<text text-anchor="middle" x="434" y="-171" font-family="Helvetica,sans-Serif" font-size="10.00">_sum_msg_nsew</text>
</a>
</g>
</g>
<!-- Node107&#45;&gt;Node108 -->
<g id="edge2" class="edge"><title>Node107&#45;&gt;Node108</title>
<path fill="none" stroke="midnightblue" d="M265.599,-95.6242C286.888,-109.874 328.815,-136.853 367,-155 370.779,-156.796 374.73,-158.541 378.74,-160.218"/>
<polygon fill="midnightblue" stroke="midnightblue" points="377.565,-163.517 388.149,-163.995 380.173,-157.021 377.565,-163.517"/>
</g>
<!-- Node109 -->
<g id="node4" class="node"><title>Node109</title>
<g id="a_node4"><a xlink:href="namespacemom__checksums.html#a6400a8423305b77e4aed5d1cb4c24520" target="_top" xlink:title="mom_checksums::chksum\l_error">
<polygon fill="white" stroke="black" points="367,-115 367,-145 501,-145 501,-115 367,-115"/>
<text text-anchor="start" x="375" y="-133" font-family="Helvetica,sans-Serif" font-size="10.00">mom_checksums::chksum</text>
<text text-anchor="middle" x="434" y="-122" font-family="Helvetica,sans-Serif" font-size="10.00">_error</text>
</a>
</g>
</g>
<!-- Node107&#45;&gt;Node109 -->
<g id="edge3" class="edge"><title>Node107&#45;&gt;Node109</title>
<path fill="none" stroke="midnightblue" d="M290.883,-95.5473C311.409,-100.523 337.162,-106.767 361.088,-112.567"/>
<polygon fill="midnightblue" stroke="midnightblue" points="360.312,-115.98 370.855,-114.935 361.961,-109.177 360.312,-115.98"/>
</g>
<!-- Node110 -->
<g id="node5" class="node"><title>Node110</title>
<g id="a_node5"><a xlink:href="namespacemom__error__handler.html#ad5f00a53059c72fe2332d1436c80ca71" target="_top" xlink:title="mom_error_handler::\lis_root_pe">
<polygon fill="white" stroke="black" points="537,-33 537,-63 643,-63 643,-33 537,-33"/>
<text text-anchor="start" x="545" y="-51" font-family="Helvetica,sans-Serif" font-size="10.00">mom_error_handler::</text>
<text text-anchor="middle" x="590" y="-40" font-family="Helvetica,sans-Serif" font-size="10.00">is_root_pe</text>
</a>
</g>
</g>
<!-- Node107&#45;&gt;Node110 -->
<g id="edge4" class="edge"><title>Node107&#45;&gt;Node110</title>
<path fill="none" stroke="midnightblue" d="M331.023,-82.7192C380.182,-80.0047 444.468,-75.216 501,-67 509.338,-65.7882 518.066,-64.2443 526.651,-62.5619"/>
<polygon fill="midnightblue" stroke="midnightblue" points="527.528,-65.9554 536.631,-60.5348 526.134,-59.0954 527.528,-65.9554"/>
</g>
<!-- Node111 -->
<g id="node6" class="node"><title>Node111</title>
<g id="a_node6"><a xlink:href="MOM__checksums_8F90.html#a11889addbbd6d0919cf61aa07fd30ae8" target="_top" xlink:title="subchk">
<polygon fill="white" stroke="black" points="410,-38.5 410,-57.5 458,-57.5 458,-38.5 410,-38.5"/>
<text text-anchor="middle" x="434" y="-45.5" font-family="Helvetica,sans-Serif" font-size="10.00">subchk</text>
</a>
</g>
</g>
<!-- Node107&#45;&gt;Node111 -->
<g id="edge5" class="edge"><title>Node107&#45;&gt;Node111</title>
<path fill="none" stroke="midnightblue" d="M297.3,-76.411C329.287,-69.714 371.242,-60.9301 399.984,-54.9125"/>
<polygon fill="midnightblue" stroke="midnightblue" points="400.862,-58.3046 409.932,-52.8296 399.427,-51.4532 400.862,-58.3046"/>
</g>
<!-- Node112 -->
<g id="node7" class="node"><title>Node112</title>
<g id="a_node7"><a xlink:href="MOM__checksums_8F90.html#aa1b37a18ca6028d099f6e8444c734697" target="_top" xlink:title="substats">
<polygon fill="white" stroke="black" points="407,-0.5 407,-19.5 461,-19.5 461,-0.5 407,-0.5"/>
<text text-anchor="middle" x="434" y="-7.5" font-family="Helvetica,sans-Serif" font-size="10.00">substats</text>
</a>
</g>
</g>
<!-- Node107&#45;&gt;Node112 -->
<g id="edge6" class="edge"><title>Node107&#45;&gt;Node112</title>
<path fill="none" stroke="midnightblue" d="M268.674,-76.3144C290.861,-64.087 330.925,-42.9662 367,-29 376.573,-25.2939 387.172,-21.9316 397.024,-19.1011"/>
<polygon fill="midnightblue" stroke="midnightblue" points="398.244,-22.395 406.946,-16.3517 396.374,-15.6492 398.244,-22.395"/>
</g>
<!-- Node112&#45;&gt;Node110 -->
<g id="edge7" class="edge"><title>Node112&#45;&gt;Node110</title>
<path fill="none" stroke="midnightblue" d="M461.124,-16.4462C479.22,-20.9114 504.102,-27.0511 527.11,-32.7285"/>
<polygon fill="midnightblue" stroke="midnightblue" points="526.283,-36.1294 536.831,-35.1271 527.96,-29.3332 526.283,-36.1294"/>
</g>
</g>
</svg>
