<?xml version="1.0" encoding="UTF-8" standalone="no"?>
<!DOCTYPE svg PUBLIC "-//W3C//DTD SVG 1.1//EN"
 "http://www.w3.org/Graphics/SVG/1.1/DTD/svg11.dtd">
<!-- Generated by graphviz version 2.38.0 (20140413.2041)
 -->
<!-- Title: rossby_front_2d_initialization::rossby_front_initialize_temperature_salinity Pages: 1 -->
<svg width="530pt" height="50pt"
 viewBox="0.00 0.00 530.00 50.00" xmlns="http://www.w3.org/2000/svg" xmlns:xlink="http://www.w3.org/1999/xlink">
<g id="graph0" class="graph" transform="scale(1 1) rotate(0) translate(4 46)">
<title>rossby_front_2d_initialization::rossby_front_initialize_temperature_salinity</title>
<polygon fill="white" stroke="none" points="-4,4 -4,-46 526,-46 526,4 -4,4"/>
<!-- Node16 -->
<g id="node1" class="node"><title>Node16</title>
<polygon fill="#bfbfbf" stroke="black" points="0,-0.5 0,-41.5 143,-41.5 143,-0.5 0,-0.5"/>
<text text-anchor="start" x="8" y="-29.5" font-family="Helvetica,sans-Serif" font-size="10.00">rossby_front_2d_initialization</text>
<text text-anchor="start" x="8" y="-18.5" font-family="Helvetica,sans-Serif" font-size="10.00">::rossby_front_initialize</text>
<text text-anchor="middle" x="71.5" y="-7.5" font-family="Helvetica,sans-Serif" font-size="10.00">_temperature_salinity</text>
</g>
<!-- Node17 -->
<g id="node2" class="node"><title>Node17</title>
<g id="a_node2"><a xlink:href="namespacerossby__front__2d__initialization.html#aa10adb0378184432ecaa78eb339c6c5a" target="_top" xlink:title="Analytic prescription of mixed layer depth in 2d Rossby front test. ">
<polygon fill="white" stroke="black" points="179,-11.5 179,-30.5 343,-30.5 343,-11.5 179,-11.5"/>
<text text-anchor="middle" x="261" y="-18.5" font-family="Helvetica,sans-Serif" font-size="10.00">rossby_front_2d_initialization::hml</text>
</a>
</g>
</g>
<!-- Node16&#45;&gt;Node17 -->
<g id="edge1" class="edge"><title>Node16&#45;&gt;Node17</title>
<path fill="none" stroke="midnightblue" d="M143.119,-21C151.475,-21 160.093,-21 168.684,-21"/>
<polygon fill="midnightblue" stroke="midnightblue" points="168.74,-24.5001 178.74,-21 168.74,-17.5001 168.74,-24.5001"/>
</g>
<!-- Node18 -->
<g id="node3" class="node"><title>Node18</title>
<g id="a_node3"><a xlink:href="namespacerossby__front__2d__initialization.html#a15a0b752df24fbae7deabe844a418239" target="_top" xlink:title="Pseudo coordinate across domain used by Hml() and dTdy() returns a coordinate from &#45;PI/2 ...">
<polygon fill="white" stroke="black" points="379,-6 379,-36 522,-36 522,-6 379,-6"/>
<text text-anchor="start" x="387" y="-24" font-family="Helvetica,sans-Serif" font-size="10.00">rossby_front_2d_initialization</text>
<text text-anchor="middle" x="450.5" y="-13" font-family="Helvetica,sans-Serif" font-size="10.00">::ypseudo</text>
</a>
</g>
</g>
<!-- Node17&#45;&gt;Node18 -->
<g id="edge2" class="edge"><title>Node17&#45;&gt;Node18</title>
<path fill="none" stroke="midnightblue" d="M343.15,-21C351.593,-21 360.176,-21 368.616,-21"/>
<polygon fill="midnightblue" stroke="midnightblue" points="368.823,-24.5001 378.823,-21 368.823,-17.5001 368.823,-24.5001"/>
</g>
</g>
</svg>
