<?xml version="1.0" encoding="UTF-8" standalone="no"?>
<!DOCTYPE svg PUBLIC "-//W3C//DTD SVG 1.1//EN"
 "http://www.w3.org/Graphics/SVG/1.1/DTD/svg11.dtd">
<!-- Generated by graphviz version 2.38.0 (20140413.2041)
 -->
<!-- Title: mom_remapping::dzfromh1h2 Pages: 1 -->
<svg width="936pt" height="137pt"
 viewBox="0.00 0.00 936.00 137.00" xmlns="http://www.w3.org/2000/svg" xmlns:xlink="http://www.w3.org/1999/xlink">
<g id="graph0" class="graph" transform="scale(1 1) rotate(0) translate(4 133)">
<title>mom_remapping::dzfromh1h2</title>
<polygon fill="white" stroke="none" points="-4,4 -4,-133 932,-133 932,4 -4,4"/>
<!-- Node101 -->
<g id="node1" class="node"><title>Node101</title>
<polygon fill="#bfbfbf" stroke="black" points="0,-30 0,-49 146,-49 146,-30 0,-30"/>
<text text-anchor="middle" x="73" y="-37" font-family="Helvetica,sans-Serif" font-size="10.00">mom_remapping::dzfromh1h2</text>
</g>
<!-- Node102 -->
<g id="node2" class="node"><title>Node102</title>
<g id="a_node2"><a xlink:href="namespacemom__ale.html#aab30651699eb2cd8dc5a67c8e03474ee" target="_top" xlink:title="Remaps a single scalar between grids described by thicknesses h_src and h_dst. h_dst must be dimensio...">
<polygon fill="white" stroke="black" points="198.5,-49.5 198.5,-79.5 305.5,-79.5 305.5,-49.5 198.5,-49.5"/>
<text text-anchor="start" x="206.5" y="-67.5" font-family="Helvetica,sans-Serif" font-size="10.00">mom_ale::ale_remap</text>
<text text-anchor="middle" x="252" y="-56.5" font-family="Helvetica,sans-Serif" font-size="10.00">_scalar</text>
</a>
</g>
</g>
<!-- Node101&#45;&gt;Node102 -->
<g id="edge1" class="edge"><title>Node101&#45;&gt;Node102</title>
<path fill="none" stroke="midnightblue" d="M151.695,-50.4739C167.464,-52.7011 183.697,-54.9939 198.352,-57.0638"/>
<polygon fill="midnightblue" stroke="midnightblue" points="151.812,-46.9558 141.421,-49.0227 150.833,-53.887 151.812,-46.9558"/>
</g>
<!-- Node108 -->
<g id="node8" class="node"><title>Node108</title>
<g id="a_node8"><a xlink:href="namespacemom__remapping.html#a5849f564453d5ed76fb4feffd41eca26" target="_top" xlink:title="Runs unit tests on remapping functions. Should only be called from a single/root thread Returns True ...">
<polygon fill="white" stroke="black" points="182,-0.5 182,-30.5 322,-30.5 322,-0.5 182,-0.5"/>
<text text-anchor="start" x="190" y="-18.5" font-family="Helvetica,sans-Serif" font-size="10.00">mom_remapping::remapping</text>
<text text-anchor="middle" x="252" y="-7.5" font-family="Helvetica,sans-Serif" font-size="10.00">_unit_tests</text>
</a>
</g>
</g>
<!-- Node101&#45;&gt;Node108 -->
<g id="edge7" class="edge"><title>Node101&#45;&gt;Node108</title>
<path fill="none" stroke="midnightblue" d="M154.14,-28.6335C163.354,-27.3842 172.69,-26.1183 181.743,-24.8907"/>
<polygon fill="midnightblue" stroke="midnightblue" points="153.648,-25.1681 144.209,-29.9801 154.589,-32.1046 153.648,-25.1681"/>
</g>
<!-- Node103 -->
<g id="node3" class="node"><title>Node103</title>
<g id="a_node3"><a xlink:href="namespacemom__ale.html#a1e8b6f82cdc9d20abf0506b3ab7004b6" target="_top" xlink:title="Regrid/remap stored fields used for offline tracer integrations. These input fields are assumed to ha...">
<polygon fill="white" stroke="black" points="388.5,-98.5 388.5,-128.5 495.5,-128.5 495.5,-98.5 388.5,-98.5"/>
<text text-anchor="start" x="396.5" y="-116.5" font-family="Helvetica,sans-Serif" font-size="10.00">mom_ale::ale_offline</text>
<text text-anchor="middle" x="442" y="-105.5" font-family="Helvetica,sans-Serif" font-size="10.00">_inputs</text>
</a>
</g>
</g>
<!-- Node102&#45;&gt;Node103 -->
<g id="edge2" class="edge"><title>Node102&#45;&gt;Node103</title>
<path fill="none" stroke="midnightblue" d="M315.538,-80.7997C339.158,-86.956 365.774,-93.8933 388.394,-99.7889"/>
<polygon fill="midnightblue" stroke="midnightblue" points="316.178,-77.3497 305.618,-78.2144 314.412,-84.1234 316.178,-77.3497"/>
</g>
<!-- Node104 -->
<g id="node4" class="node"><title>Node104</title>
<g id="a_node4"><a xlink:href="namespacemom__state__initialization.html#ab28dbceb8938600e7c0bc15380cef89a" target="_top" xlink:title="This subroutine determines the isopycnal or other coordinate interfaces and layer potential temperatu...">
<polygon fill="white" stroke="black" points="358,-49.5 358,-79.5 526,-79.5 526,-49.5 358,-49.5"/>
<text text-anchor="start" x="366" y="-67.5" font-family="Helvetica,sans-Serif" font-size="10.00">mom_state_initialization</text>
<text text-anchor="middle" x="442" y="-56.5" font-family="Helvetica,sans-Serif" font-size="10.00">::mom_temp_salt_initialize_from_z</text>
</a>
</g>
</g>
<!-- Node102&#45;&gt;Node104 -->
<g id="edge3" class="edge"><title>Node102&#45;&gt;Node104</title>
<path fill="none" stroke="midnightblue" d="M315.713,-64.5C329.189,-64.5 343.633,-64.5 357.749,-64.5"/>
<polygon fill="midnightblue" stroke="midnightblue" points="315.619,-61.0001 305.618,-64.5 315.618,-68.0001 315.619,-61.0001"/>
</g>
<!-- Node105 -->
<g id="node5" class="node"><title>Node105</title>
<g id="a_node5"><a xlink:href="namespacemom__state__initialization.html#af4e854627c6572332ba3fd895f169321" target="_top" xlink:title="mom_state_initialization\l::mom_initialize_state">
<polygon fill="white" stroke="black" points="562,-49.5 562,-79.5 684,-79.5 684,-49.5 562,-49.5"/>
<text text-anchor="start" x="570" y="-67.5" font-family="Helvetica,sans-Serif" font-size="10.00">mom_state_initialization</text>
<text text-anchor="middle" x="623" y="-56.5" font-family="Helvetica,sans-Serif" font-size="10.00">::mom_initialize_state</text>
</a>
</g>
</g>
<!-- Node104&#45;&gt;Node105 -->
<g id="edge4" class="edge"><title>Node104&#45;&gt;Node105</title>
<path fill="none" stroke="midnightblue" d="M536.397,-64.5C545.07,-64.5 553.695,-64.5 561.944,-64.5"/>
<polygon fill="midnightblue" stroke="midnightblue" points="536.212,-61.0001 526.212,-64.5 536.212,-68.0001 536.212,-61.0001"/>
</g>
<!-- Node106 -->
<g id="node6" class="node"><title>Node106</title>
<g id="a_node6"><a xlink:href="namespacemom.html#a0be2869fef30e1e0604facfe1b41555d" target="_top" xlink:title="This subroutine initializes MOM. ">
<polygon fill="white" stroke="black" points="720,-30 720,-49 827,-49 827,-30 720,-30"/>
<text text-anchor="middle" x="773.5" y="-37" font-family="Helvetica,sans-Serif" font-size="10.00">mom::initialize_mom</text>
</a>
</g>
</g>
<!-- Node105&#45;&gt;Node106 -->
<g id="edge5" class="edge"><title>Node105&#45;&gt;Node106</title>
<path fill="none" stroke="midnightblue" d="M694.379,-52.6518C702.928,-51.2124 711.547,-49.7615 719.779,-48.3757"/>
<polygon fill="midnightblue" stroke="midnightblue" points="693.681,-49.2199 684.401,-54.3315 694.843,-56.1228 693.681,-49.2199"/>
</g>
<!-- Node107 -->
<g id="node7" class="node"><title>Node107</title>
<g id="a_node7"><a xlink:href="MOM__driver_8F90.html#a08fffeb2d8e8acbf9ed4609be6d258c6" target="_top" xlink:title="mom_main">
<polygon fill="white" stroke="black" points="863,-30 863,-49 928,-49 928,-30 863,-30"/>
<text text-anchor="middle" x="895.5" y="-37" font-family="Helvetica,sans-Serif" font-size="10.00">mom_main</text>
</a>
</g>
</g>
<!-- Node106&#45;&gt;Node107 -->
<g id="edge6" class="edge"><title>Node106&#45;&gt;Node107</title>
<path fill="none" stroke="midnightblue" d="M837.206,-39.5C846.134,-39.5 854.983,-39.5 862.958,-39.5"/>
<polygon fill="midnightblue" stroke="midnightblue" points="837.134,-36.0001 827.134,-39.5 837.134,-43.0001 837.134,-36.0001"/>
</g>
<!-- Node109 -->
<g id="node9" class="node"><title>Node109</title>
<g id="a_node9"><a xlink:href="namespacemom__unit__tests.html#a71f3a2080872634c14a25a9411b59fe0" target="_top" xlink:title="Calls unit tests for other modules. Note that if a unit test returns true, a FATAL error is triggered...">
<polygon fill="white" stroke="black" points="569,-0.5 569,-30.5 677,-30.5 677,-0.5 569,-0.5"/>
<text text-anchor="start" x="577" y="-18.5" font-family="Helvetica,sans-Serif" font-size="10.00">mom_unit_tests::unit</text>
<text text-anchor="middle" x="623" y="-7.5" font-family="Helvetica,sans-Serif" font-size="10.00">_tests</text>
</a>
</g>
</g>
<!-- Node108&#45;&gt;Node109 -->
<g id="edge8" class="edge"><title>Node108&#45;&gt;Node109</title>
<path fill="none" stroke="midnightblue" d="M332.706,-15.5C404.115,-15.5 506.858,-15.5 568.746,-15.5"/>
<polygon fill="midnightblue" stroke="midnightblue" points="332.406,-12.0001 322.406,-15.5 332.406,-19.0001 332.406,-12.0001"/>
</g>
<!-- Node109&#45;&gt;Node106 -->
<g id="edge9" class="edge"><title>Node109&#45;&gt;Node106</title>
<path fill="none" stroke="midnightblue" d="M687.386,-25.7442C698.15,-27.4838 709.224,-29.2736 719.679,-30.9633"/>
<polygon fill="midnightblue" stroke="midnightblue" points="687.623,-22.2371 677.192,-24.0968 686.506,-29.1475 687.623,-22.2371"/>
</g>
</g>
</svg>
