<?xml version="1.0" encoding="UTF-8" standalone="no"?>
<!DOCTYPE svg PUBLIC "-//W3C//DTD SVG 1.1//EN"
 "http://www.w3.org/Graphics/SVG/1.1/DTD/svg11.dtd">
<!-- Generated by graphviz version 2.38.0 (20140413.2041)
 -->
<!-- Title: mom_ice_shelf::bilinear_shape_functions_subgrid Pages: 1 -->
<svg width="536pt" height="186pt"
 viewBox="0.00 0.00 536.00 186.00" xmlns="http://www.w3.org/2000/svg" xmlns:xlink="http://www.w3.org/1999/xlink">
<g id="graph0" class="graph" transform="scale(1 1) rotate(0) translate(4 182)">
<title>mom_ice_shelf::bilinear_shape_functions_subgrid</title>
<polygon fill="white" stroke="none" points="-4,4 -4,-182 532,-182 532,4 -4,4"/>
<!-- Node39 -->
<g id="node1" class="node"><title>Node39</title>
<polygon fill="#bfbfbf" stroke="black" points="0,-73.5 0,-103.5 130,-103.5 130,-73.5 0,-73.5"/>
<text text-anchor="start" x="8" y="-91.5" font-family="Helvetica,sans-Serif" font-size="10.00">mom_ice_shelf::bilinear</text>
<text text-anchor="middle" x="65" y="-80.5" font-family="Helvetica,sans-Serif" font-size="10.00">_shape_functions_subgrid</text>
</g>
<!-- Node40 -->
<g id="node2" class="node"><title>Node40</title>
<g id="a_node2"><a xlink:href="namespacemom__ice__shelf.html#a5d64b696412c0bfd8ded2e2eacaa917c" target="_top" xlink:title="mom_ice_shelf::ice\l_shelf_solve_outer">
<polygon fill="white" stroke="black" points="166,-73.5 166,-103.5 267,-103.5 267,-73.5 166,-73.5"/>
<text text-anchor="start" x="174" y="-91.5" font-family="Helvetica,sans-Serif" font-size="10.00">mom_ice_shelf::ice</text>
<text text-anchor="middle" x="216.5" y="-80.5" font-family="Helvetica,sans-Serif" font-size="10.00">_shelf_solve_outer</text>
</a>
</g>
</g>
<!-- Node39&#45;&gt;Node40 -->
<g id="edge1" class="edge"><title>Node39&#45;&gt;Node40</title>
<path fill="none" stroke="midnightblue" d="M140.343,-88.5C148.951,-88.5 157.566,-88.5 165.732,-88.5"/>
<polygon fill="midnightblue" stroke="midnightblue" points="140.269,-85.0001 130.269,-88.5 140.269,-92.0001 140.269,-85.0001"/>
</g>
<!-- Node41 -->
<g id="node3" class="node"><title>Node41</title>
<g id="a_node3"><a xlink:href="namespacemom__ice__shelf.html#a3b0e0cc9f36c5197236cc05867b780df" target="_top" xlink:title="Calculates fluxes between the ocean and ice&#45;shelf using the three&#45;equations formulation (optional to ...">
<polygon fill="white" stroke="black" points="310,-147.5 310,-177.5 420,-177.5 420,-147.5 310,-147.5"/>
<text text-anchor="start" x="318" y="-165.5" font-family="Helvetica,sans-Serif" font-size="10.00">mom_ice_shelf::shelf</text>
<text text-anchor="middle" x="365" y="-154.5" font-family="Helvetica,sans-Serif" font-size="10.00">_calc_flux</text>
</a>
</g>
</g>
<!-- Node40&#45;&gt;Node41 -->
<g id="edge2" class="edge"><title>Node40&#45;&gt;Node41</title>
<path fill="none" stroke="midnightblue" d="M249.728,-108.935C265.477,-118.508 284.897,-129.71 303,-138.5 309.45,-141.631 316.419,-144.675 323.262,-147.485"/>
<polygon fill="midnightblue" stroke="midnightblue" points="251.268,-105.774 240.916,-103.518 247.602,-111.737 251.268,-105.774"/>
</g>
<!-- Node43 -->
<g id="node5" class="node"><title>Node43</title>
<g id="a_node5"><a xlink:href="namespacemom__ice__shelf.html#ae315e8464ef8a20062e3bccb61886755" target="_top" xlink:title="Initializes shelf model data, parameters and diagnostics. ">
<polygon fill="white" stroke="black" points="303,-98.5 303,-128.5 427,-128.5 427,-98.5 303,-98.5"/>
<text text-anchor="start" x="311" y="-116.5" font-family="Helvetica,sans-Serif" font-size="10.00">mom_ice_shelf::initialize</text>
<text text-anchor="middle" x="365" y="-105.5" font-family="Helvetica,sans-Serif" font-size="10.00">_ice_shelf</text>
</a>
</g>
</g>
<!-- Node40&#45;&gt;Node43 -->
<g id="edge4" class="edge"><title>Node40&#45;&gt;Node43</title>
<path fill="none" stroke="midnightblue" d="M277.217,-98.6907C285.64,-100.128 294.309,-101.607 302.759,-103.049"/>
<polygon fill="midnightblue" stroke="midnightblue" points="277.545,-95.196 267.098,-96.9639 276.367,-102.096 277.545,-95.196"/>
</g>
<!-- Node44 -->
<g id="node6" class="node"><title>Node44</title>
<g id="a_node6"><a xlink:href="namespacemom__ice__shelf.html#ae7611e3515ecf0eae0c5d6d17330fd6f" target="_top" xlink:title="mom_ice_shelf::initialize\l_diagnostic_fields">
<polygon fill="white" stroke="black" points="303,-49.5 303,-79.5 427,-79.5 427,-49.5 303,-49.5"/>
<text text-anchor="start" x="311" y="-67.5" font-family="Helvetica,sans-Serif" font-size="10.00">mom_ice_shelf::initialize</text>
<text text-anchor="middle" x="365" y="-56.5" font-family="Helvetica,sans-Serif" font-size="10.00">_diagnostic_fields</text>
</a>
</g>
</g>
<!-- Node40&#45;&gt;Node44 -->
<g id="edge6" class="edge"><title>Node40&#45;&gt;Node44</title>
<path fill="none" stroke="midnightblue" d="M277.217,-78.7169C285.64,-77.3372 294.309,-75.9169 302.759,-74.5326"/>
<polygon fill="midnightblue" stroke="midnightblue" points="276.401,-75.304 267.098,-80.3747 277.533,-82.2119 276.401,-75.304"/>
</g>
<!-- Node45 -->
<g id="node7" class="node"><title>Node45</title>
<g id="a_node7"><a xlink:href="namespacemom__ice__shelf.html#ac084bdc5be4e708e3263488e9574a3c9" target="_top" xlink:title="mom_ice_shelf::solo\l_time_step">
<polygon fill="white" stroke="black" points="311.5,-0.5 311.5,-30.5 418.5,-30.5 418.5,-0.5 311.5,-0.5"/>
<text text-anchor="start" x="319.5" y="-18.5" font-family="Helvetica,sans-Serif" font-size="10.00">mom_ice_shelf::solo</text>
<text text-anchor="middle" x="365" y="-7.5" font-family="Helvetica,sans-Serif" font-size="10.00">_time_step</text>
</a>
</g>
</g>
<!-- Node40&#45;&gt;Node45 -->
<g id="edge7" class="edge"><title>Node40&#45;&gt;Node45</title>
<path fill="none" stroke="midnightblue" d="M251.236,-68.2998C266.765,-59.3305 285.576,-48.9224 303,-40.5 310.11,-37.0632 317.819,-33.6628 325.287,-30.529"/>
<polygon fill="midnightblue" stroke="midnightblue" points="249.384,-65.3283 242.508,-73.3885 252.909,-71.3757 249.384,-65.3283"/>
</g>
<!-- Node42 -->
<g id="node4" class="node"><title>Node42</title>
<g id="a_node4"><a xlink:href="MOM__driver_8F90.html#a08fffeb2d8e8acbf9ed4609be6d258c6" target="_top" xlink:title="mom_main">
<polygon fill="white" stroke="black" points="463,-128 463,-147 528,-147 528,-128 463,-128"/>
<text text-anchor="middle" x="495.5" y="-135" font-family="Helvetica,sans-Serif" font-size="10.00">mom_main</text>
</a>
</g>
</g>
<!-- Node41&#45;&gt;Node42 -->
<g id="edge3" class="edge"><title>Node41&#45;&gt;Node42</title>
<path fill="none" stroke="midnightblue" d="M430.08,-150.033C441.453,-147.82 452.833,-145.606 462.795,-143.668"/>
<polygon fill="midnightblue" stroke="midnightblue" points="429.271,-146.625 420.123,-151.97 430.608,-153.496 429.271,-146.625"/>
</g>
<!-- Node43&#45;&gt;Node42 -->
<g id="edge5" class="edge"><title>Node43&#45;&gt;Node42</title>
<path fill="none" stroke="midnightblue" d="M437.31,-126.819C446.195,-128.478 454.897,-130.103 462.726,-131.565"/>
<polygon fill="midnightblue" stroke="midnightblue" points="437.712,-123.333 427.239,-124.938 436.427,-130.214 437.712,-123.333"/>
</g>
</g>
</svg>
