<?xml version="1.0" encoding="UTF-8" standalone="no"?>
<!DOCTYPE svg PUBLIC "-//W3C//DTD SVG 1.1//EN"
 "http://www.w3.org/Graphics/SVG/1.1/DTD/svg11.dtd">
<!-- Generated by graphviz version 2.38.0 (20140413.2041)
 -->
<!-- Title: mom_grid::adcroft_reciprocal Pages: 1 -->
<svg width="725pt" height="39pt"
 viewBox="0.00 0.00 725.00 39.00" xmlns="http://www.w3.org/2000/svg" xmlns:xlink="http://www.w3.org/1999/xlink">
<g id="graph0" class="graph" transform="scale(1 1) rotate(0) translate(4 35)">
<title>mom_grid::adcroft_reciprocal</title>
<polygon fill="white" stroke="none" points="-4,4 -4,-35 721,-35 721,4 -4,4"/>
<!-- Node1 -->
<g id="node1" class="node"><title>Node1</title>
<polygon fill="#bfbfbf" stroke="black" points="0,-6 0,-25 143,-25 143,-6 0,-6"/>
<text text-anchor="middle" x="71.5" y="-13" font-family="Helvetica,sans-Serif" font-size="10.00">mom_grid::adcroft_reciprocal</text>
</g>
<!-- Node2 -->
<g id="node2" class="node"><title>Node2</title>
<g id="a_node2"><a xlink:href="namespacemom__grid.html#ad5c6da36363b3908694605da62811a4b" target="_top" xlink:title="set_derived_metrics calculates metric terms that are derived from other metrics. ">
<polygon fill="white" stroke="black" points="179,-0.5 179,-30.5 295,-30.5 295,-0.5 179,-0.5"/>
<text text-anchor="start" x="187" y="-18.5" font-family="Helvetica,sans-Serif" font-size="10.00">mom_grid::set_derived</text>
<text text-anchor="middle" x="237" y="-7.5" font-family="Helvetica,sans-Serif" font-size="10.00">_metrics</text>
</a>
</g>
</g>
<!-- Node1&#45;&gt;Node2 -->
<g id="edge1" class="edge"><title>Node1&#45;&gt;Node2</title>
<path fill="none" stroke="midnightblue" d="M153.364,-15.5C161.993,-15.5 170.636,-15.5 178.907,-15.5"/>
<polygon fill="midnightblue" stroke="midnightblue" points="153.263,-12.0001 143.263,-15.5 153.263,-19.0001 153.263,-12.0001"/>
</g>
<!-- Node3 -->
<g id="node3" class="node"><title>Node3</title>
<g id="a_node3"><a xlink:href="namespacemom__transcribe__grid.html#aa794cd7c93cc632380b95fa142884288" target="_top" xlink:title="Copies information from a dynamic (shared) horizontal grid type into an ocean_grid_type. ">
<polygon fill="white" stroke="black" points="331,-0.5 331,-30.5 473,-30.5 473,-0.5 331,-0.5"/>
<text text-anchor="start" x="339" y="-18.5" font-family="Helvetica,sans-Serif" font-size="10.00">mom_transcribe_grid</text>
<text text-anchor="middle" x="402" y="-7.5" font-family="Helvetica,sans-Serif" font-size="10.00">::copy_dyngrid_to_mom_grid</text>
</a>
</g>
</g>
<!-- Node2&#45;&gt;Node3 -->
<g id="edge2" class="edge"><title>Node2&#45;&gt;Node3</title>
<path fill="none" stroke="midnightblue" d="M305.197,-15.5C313.656,-15.5 322.328,-15.5 330.831,-15.5"/>
<polygon fill="midnightblue" stroke="midnightblue" points="305.01,-12.0001 295.009,-15.5 305.009,-19.0001 305.01,-12.0001"/>
</g>
<!-- Node4 -->
<g id="node4" class="node"><title>Node4</title>
<g id="a_node4"><a xlink:href="namespacemom.html#a0be2869fef30e1e0604facfe1b41555d" target="_top" xlink:title="This subroutine initializes MOM. ">
<polygon fill="white" stroke="black" points="509,-6 509,-25 616,-25 616,-6 509,-6"/>
<text text-anchor="middle" x="562.5" y="-13" font-family="Helvetica,sans-Serif" font-size="10.00">mom::initialize_mom</text>
</a>
</g>
</g>
<!-- Node3&#45;&gt;Node4 -->
<g id="edge3" class="edge"><title>Node3&#45;&gt;Node4</title>
<path fill="none" stroke="midnightblue" d="M483.528,-15.5C492.132,-15.5 500.715,-15.5 508.873,-15.5"/>
<polygon fill="midnightblue" stroke="midnightblue" points="483.443,-12.0001 473.443,-15.5 483.443,-19.0001 483.443,-12.0001"/>
</g>
<!-- Node5 -->
<g id="node5" class="node"><title>Node5</title>
<g id="a_node5"><a xlink:href="MOM__driver_8F90.html#a08fffeb2d8e8acbf9ed4609be6d258c6" target="_top" xlink:title="mom_main">
<polygon fill="white" stroke="black" points="652,-6 652,-25 717,-25 717,-6 652,-6"/>
<text text-anchor="middle" x="684.5" y="-13" font-family="Helvetica,sans-Serif" font-size="10.00">mom_main</text>
</a>
</g>
</g>
<!-- Node4&#45;&gt;Node5 -->
<g id="edge4" class="edge"><title>Node4&#45;&gt;Node5</title>
<path fill="none" stroke="midnightblue" d="M626.206,-15.5C635.134,-15.5 643.983,-15.5 651.958,-15.5"/>
<polygon fill="midnightblue" stroke="midnightblue" points="626.134,-12.0001 616.134,-15.5 626.134,-19.0001 626.134,-12.0001"/>
</g>
</g>
</svg>
