<?xml version="1.0" encoding="UTF-8" standalone="no"?>
<!DOCTYPE svg PUBLIC "-//W3C//DTD SVG 1.1//EN"
 "http://www.w3.org/Graphics/SVG/1.1/DTD/svg11.dtd">
<!-- Generated by graphviz version 2.38.0 (20140413.2041)
 -->
<!-- Title: mom_checksums::chk_sum_msg_s Pages: 1 -->
<svg width="491pt" height="88pt"
 viewBox="0.00 0.00 491.00 88.00" xmlns="http://www.w3.org/2000/svg" xmlns:xlink="http://www.w3.org/1999/xlink">
<g id="graph0" class="graph" transform="scale(1 1) rotate(0) translate(4 84)">
<title>mom_checksums::chk_sum_msg_s</title>
<polygon fill="white" stroke="none" points="-4,4 -4,-84 487,-84 487,4 -4,4"/>
<!-- Node25 -->
<g id="node1" class="node"><title>Node25</title>
<polygon fill="#bfbfbf" stroke="black" points="0,-25.5 0,-55.5 116,-55.5 116,-25.5 0,-25.5"/>
<text text-anchor="start" x="8" y="-43.5" font-family="Helvetica,sans-Serif" font-size="10.00">mom_checksums::chk</text>
<text text-anchor="middle" x="58" y="-32.5" font-family="Helvetica,sans-Serif" font-size="10.00">_sum_msg_s</text>
</g>
<!-- Node26 -->
<g id="node2" class="node"><title>Node26</title>
<g id="a_node2"><a xlink:href="namespacemom__checksums.html#ab91c2c2d2ba5ce3d11f1fd9d51b87f3e" target="_top" xlink:title="chksum_v_2d performs checksums on a 2d array staggered at C&#45;grid v points. ">
<polygon fill="white" stroke="black" points="152,-52 152,-71 313,-71 313,-52 152,-52"/>
<text text-anchor="middle" x="232.5" y="-59" font-family="Helvetica,sans-Serif" font-size="10.00">mom_checksums::chksum_v_2d</text>
</a>
</g>
</g>
<!-- Node25&#45;&gt;Node26 -->
<g id="edge1" class="edge"><title>Node25&#45;&gt;Node26</title>
<path fill="none" stroke="midnightblue" d="M126.618,-48.7317C135.413,-49.8025 144.481,-50.9064 153.43,-51.9958"/>
<polygon fill="midnightblue" stroke="midnightblue" points="126.79,-45.2269 116.44,-47.4927 125.944,-52.1756 126.79,-45.2269"/>
</g>
<!-- Node28 -->
<g id="node4" class="node"><title>Node28</title>
<g id="a_node4"><a xlink:href="namespacemom__checksums.html#aa52c1e3c92ac97ab747b75644e7b4fe1" target="_top" xlink:title="chksum_v_3d performs checksums on a 3d array staggered at C&#45;grid v points. ">
<polygon fill="white" stroke="black" points="152,-11 152,-30 313,-30 313,-11 152,-11"/>
<text text-anchor="middle" x="232.5" y="-18" font-family="Helvetica,sans-Serif" font-size="10.00">mom_checksums::chksum_v_3d</text>
</a>
</g>
</g>
<!-- Node25&#45;&gt;Node28 -->
<g id="edge3" class="edge"><title>Node25&#45;&gt;Node28</title>
<path fill="none" stroke="midnightblue" d="M126.466,-32.6779C134.804,-31.7112 143.388,-30.7159 151.885,-29.7307"/>
<polygon fill="midnightblue" stroke="midnightblue" points="125.97,-29.2118 116.44,-33.8403 126.777,-36.1652 125.97,-29.2118"/>
</g>
<!-- Node27 -->
<g id="node3" class="node"><title>Node27</title>
<g id="a_node3"><a xlink:href="namespacemom__checksums.html#a6621f0877c0c44b62c2e7afe29362116" target="_top" xlink:title="mom_checksums::chksum\l_uv_2d">
<polygon fill="white" stroke="black" points="349,-49.5 349,-79.5 483,-79.5 483,-49.5 349,-49.5"/>
<text text-anchor="start" x="357" y="-67.5" font-family="Helvetica,sans-Serif" font-size="10.00">mom_checksums::chksum</text>
<text text-anchor="middle" x="416" y="-56.5" font-family="Helvetica,sans-Serif" font-size="10.00">_uv_2d</text>
</a>
</g>
</g>
<!-- Node26&#45;&gt;Node27 -->
<g id="edge2" class="edge"><title>Node26&#45;&gt;Node27</title>
<path fill="none" stroke="midnightblue" d="M323.197,-62.9826C331.812,-63.125 340.44,-63.2676 348.769,-63.4053"/>
<polygon fill="midnightblue" stroke="midnightblue" points="323.165,-59.4817 313.109,-62.8158 323.049,-66.4807 323.165,-59.4817"/>
</g>
<!-- Node29 -->
<g id="node5" class="node"><title>Node29</title>
<g id="a_node5"><a xlink:href="namespacemom__checksums.html#a797e807964197574c99d09f1d8e2456e" target="_top" xlink:title="mom_checksums::chksum\l_uv_3d">
<polygon fill="white" stroke="black" points="349,-0.5 349,-30.5 483,-30.5 483,-0.5 349,-0.5"/>
<text text-anchor="start" x="357" y="-18.5" font-family="Helvetica,sans-Serif" font-size="10.00">mom_checksums::chksum</text>
<text text-anchor="middle" x="416" y="-7.5" font-family="Helvetica,sans-Serif" font-size="10.00">_uv_3d</text>
</a>
</g>
</g>
<!-- Node28&#45;&gt;Node29 -->
<g id="edge4" class="edge"><title>Node28&#45;&gt;Node29</title>
<path fill="none" stroke="midnightblue" d="M323.197,-18.029C331.812,-17.7917 340.44,-17.554 348.769,-17.3245"/>
<polygon fill="midnightblue" stroke="midnightblue" points="323.008,-14.5328 313.109,-18.3069 323.201,-21.5301 323.008,-14.5328"/>
</g>
</g>
</svg>
