<?xml version="1.0" encoding="UTF-8" standalone="no"?>
<!DOCTYPE svg PUBLIC "-//W3C//DTD SVG 1.1//EN"
 "http://www.w3.org/Graphics/SVG/1.1/DTD/svg11.dtd">
<!-- Generated by graphviz version 2.38.0 (20140413.2041)
 -->
<!-- Title: user_tracer_example::user_initialize_tracer Pages: 1 -->
<svg width="731pt" height="258pt"
 viewBox="0.00 0.00 731.00 258.00" xmlns="http://www.w3.org/2000/svg" xmlns:xlink="http://www.w3.org/1999/xlink">
<g id="graph0" class="graph" transform="scale(1 1) rotate(0) translate(4 254)">
<title>user_tracer_example::user_initialize_tracer</title>
<polygon fill="white" stroke="none" points="-4,4 -4,-254 727,-254 727,4 -4,4"/>
<!-- Node2 -->
<g id="node1" class="node"><title>Node2</title>
<polygon fill="#bfbfbf" stroke="black" points="0,-109.5 0,-139.5 112,-139.5 112,-109.5 0,-109.5"/>
<text text-anchor="start" x="8" y="-127.5" font-family="Helvetica,sans-Serif" font-size="10.00">user_tracer_example</text>
<text text-anchor="middle" x="56" y="-116.5" font-family="Helvetica,sans-Serif" font-size="10.00">::user_initialize_tracer</text>
</g>
<!-- Node3 -->
<g id="node2" class="node"><title>Node3</title>
<g id="a_node2"><a xlink:href="namespacemom__tracer__registry.html#ac008525fee272a225a19998ae437b5bf" target="_top" xlink:title="This subroutine adds diagnostic arrays for a tracer that has previously been registered by a call to ...">
<polygon fill="white" stroke="black" points="312,-219.5 312,-249.5 435,-249.5 435,-219.5 312,-219.5"/>
<text text-anchor="start" x="320" y="-237.5" font-family="Helvetica,sans-Serif" font-size="10.00">mom_tracer_registry</text>
<text text-anchor="middle" x="373.5" y="-226.5" font-family="Helvetica,sans-Serif" font-size="10.00">::add_tracer_diagnostics</text>
</a>
</g>
</g>
<!-- Node2&#45;&gt;Node3 -->
<g id="edge1" class="edge"><title>Node2&#45;&gt;Node3</title>
<path fill="none" stroke="midnightblue" d="M69.0486,-139.522C84.9632,-158.193 114.876,-189.429 148,-204.5 196.249,-226.453 255.935,-233.605 301.634,-235.456"/>
<polygon fill="midnightblue" stroke="midnightblue" points="301.642,-238.958 311.752,-235.789 301.872,-231.962 301.642,-238.958"/>
</g>
<!-- Node4 -->
<g id="node3" class="node"><title>Node4</title>
<g id="a_node3"><a xlink:href="namespacemom__error__handler.html#a460cfb79a06c29fc249952c2a3710d67" target="_top" xlink:title="mom_error_handler::\lmom_error">
<polygon fill="white" stroke="black" points="475,-93.5 475,-123.5 581,-123.5 581,-93.5 475,-93.5"/>
<text text-anchor="start" x="483" y="-111.5" font-family="Helvetica,sans-Serif" font-size="10.00">mom_error_handler::</text>
<text text-anchor="middle" x="528" y="-100.5" font-family="Helvetica,sans-Serif" font-size="10.00">mom_error</text>
</a>
</g>
</g>
<!-- Node2&#45;&gt;Node4 -->
<g id="edge6" class="edge"><title>Node2&#45;&gt;Node4</title>
<path fill="none" stroke="midnightblue" d="M79.4062,-139.588C97.1531,-150.581 123.031,-164.548 148,-170.5 274.167,-200.576 314.306,-184.195 439,-148.5 456.369,-143.528 474.692,-135.664 490.095,-128.219"/>
<polygon fill="midnightblue" stroke="midnightblue" points="491.87,-131.246 499.274,-123.668 488.76,-124.975 491.87,-131.246"/>
</g>
<!-- Node6 -->
<g id="node5" class="node"><title>Node6</title>
<g id="a_node5"><a xlink:href="namespacemom__tracer__registry.html#a6210b799ee25a114d4b87bdfaa6d0c7a" target="_top" xlink:title="This subroutine adds open boundary condition concentrations for a tracer that has previously been reg...">
<polygon fill="white" stroke="black" points="148.5,-131.5 148.5,-161.5 271.5,-161.5 271.5,-131.5 148.5,-131.5"/>
<text text-anchor="start" x="156.5" y="-149.5" font-family="Helvetica,sans-Serif" font-size="10.00">mom_tracer_registry</text>
<text text-anchor="middle" x="210" y="-138.5" font-family="Helvetica,sans-Serif" font-size="10.00">::add_tracer_obc_values</text>
</a>
</g>
</g>
<!-- Node2&#45;&gt;Node6 -->
<g id="edge4" class="edge"><title>Node2&#45;&gt;Node6</title>
<path fill="none" stroke="midnightblue" d="M112.305,-132.505C120.725,-133.723 129.511,-134.995 138.206,-136.254"/>
<polygon fill="midnightblue" stroke="midnightblue" points="137.945,-139.752 148.344,-137.721 138.948,-132.824 137.945,-139.752"/>
</g>
<!-- Node7 -->
<g id="node6" class="node"><title>Node7</title>
<g id="a_node6"><a xlink:href="namespacemom__io.html#a23e82d1d89d9bb1c9bdf802ce80d4508" target="_top" xlink:title="This routine queries vardesc. ">
<polygon fill="white" stroke="black" points="149.5,-93 149.5,-112 270.5,-112 270.5,-93 149.5,-93"/>
<text text-anchor="middle" x="210" y="-100" font-family="Helvetica,sans-Serif" font-size="10.00">mom_io::query_vardesc</text>
</a>
</g>
</g>
<!-- Node2&#45;&gt;Node7 -->
<g id="edge7" class="edge"><title>Node2&#45;&gt;Node7</title>
<path fill="none" stroke="midnightblue" d="M112.305,-116.495C121.063,-115.228 130.218,-113.903 139.253,-112.595"/>
<polygon fill="midnightblue" stroke="midnightblue" points="139.982,-116.026 149.377,-111.13 138.979,-109.098 139.982,-116.026"/>
</g>
<!-- Node9 -->
<g id="node8" class="node"><title>Node9</title>
<g id="a_node8"><a xlink:href="namespacemom__diag__to__z.html#a6946a3316715041c5944df17db1aef74" target="_top" xlink:title="This subroutine registers a tracer to be output in depth space. ">
<polygon fill="white" stroke="black" points="148,-43.5 148,-73.5 272,-73.5 272,-43.5 148,-43.5"/>
<text text-anchor="start" x="156" y="-61.5" font-family="Helvetica,sans-Serif" font-size="10.00">mom_diag_to_z::register</text>
<text text-anchor="middle" x="210" y="-50.5" font-family="Helvetica,sans-Serif" font-size="10.00">_z_tracer</text>
</a>
</g>
</g>
<!-- Node2&#45;&gt;Node9 -->
<g id="edge10" class="edge"><title>Node2&#45;&gt;Node9</title>
<path fill="none" stroke="midnightblue" d="M89.7339,-109.424C107.002,-101.555 128.579,-91.8517 148,-83.5 152.677,-81.4886 157.571,-79.4214 162.464,-77.3785"/>
<polygon fill="midnightblue" stroke="midnightblue" points="163.921,-80.5636 171.818,-73.5008 161.24,-74.0972 163.921,-80.5636"/>
</g>
<!-- Node11 -->
<g id="node10" class="node"><title>Node11</title>
<g id="a_node10"><a xlink:href="namespacemom__sponge.html#af3da4a8b352c4130919d7bfedf1a5a3e" target="_top" xlink:title="mom_sponge::set_up\l_sponge_field">
<polygon fill="white" stroke="black" points="318.5,-0.5 318.5,-30.5 428.5,-30.5 428.5,-0.5 318.5,-0.5"/>
<text text-anchor="start" x="326.5" y="-18.5" font-family="Helvetica,sans-Serif" font-size="10.00">mom_sponge::set_up</text>
<text text-anchor="middle" x="373.5" y="-7.5" font-family="Helvetica,sans-Serif" font-size="10.00">_sponge_field</text>
</a>
</g>
</g>
<!-- Node2&#45;&gt;Node11 -->
<g id="edge13" class="edge"><title>Node2&#45;&gt;Node11</title>
<path fill="none" stroke="midnightblue" d="M66.8915,-109.306C81.6684,-88.0789 111.693,-50.2702 148,-33.5 198.162,-10.3305 261.351,-7.25547 307.901,-9.15047"/>
<polygon fill="midnightblue" stroke="midnightblue" points="308.004,-12.6597 318.165,-9.65917 308.35,-5.66833 308.004,-12.6597"/>
</g>
<!-- Node3&#45;&gt;Node4 -->
<g id="edge2" class="edge"><title>Node3&#45;&gt;Node4</title>
<path fill="none" stroke="midnightblue" d="M413.413,-219.413C422.205,-215.2 431.228,-210.192 439,-204.5 467.377,-183.718 493.762,-152.744 510.097,-131.638"/>
<polygon fill="midnightblue" stroke="midnightblue" points="512.995,-133.609 516.255,-123.529 507.42,-129.376 512.995,-133.609"/>
</g>
<!-- Node5 -->
<g id="node4" class="node"><title>Node5</title>
<g id="a_node4"><a xlink:href="namespacemom__error__handler.html#ad5f00a53059c72fe2332d1436c80ca71" target="_top" xlink:title="mom_error_handler::\lis_root_pe">
<polygon fill="white" stroke="black" points="617,-59.5 617,-89.5 723,-89.5 723,-59.5 617,-59.5"/>
<text text-anchor="start" x="625" y="-77.5" font-family="Helvetica,sans-Serif" font-size="10.00">mom_error_handler::</text>
<text text-anchor="middle" x="670" y="-66.5" font-family="Helvetica,sans-Serif" font-size="10.00">is_root_pe</text>
</a>
</g>
</g>
<!-- Node4&#45;&gt;Node5 -->
<g id="edge3" class="edge"><title>Node4&#45;&gt;Node5</title>
<path fill="none" stroke="midnightblue" d="M581.131,-95.8397C589.512,-93.8041 598.26,-91.6796 606.849,-89.5939"/>
<polygon fill="midnightblue" stroke="midnightblue" points="607.934,-92.9321 616.826,-87.1709 606.282,-86.1298 607.934,-92.9321"/>
</g>
<!-- Node6&#45;&gt;Node4 -->
<g id="edge5" class="edge"><title>Node6&#45;&gt;Node4</title>
<path fill="none" stroke="midnightblue" d="M271.732,-143.583C317.81,-140.852 382.623,-135.899 439,-127.5 447.333,-126.258 456.059,-124.697 464.643,-123.006"/>
<polygon fill="midnightblue" stroke="midnightblue" points="465.522,-126.399 474.622,-120.973 464.124,-119.54 465.522,-126.399"/>
</g>
<!-- Node8 -->
<g id="node7" class="node"><title>Node8</title>
<g id="a_node7"><a xlink:href="namespacemom__io.html#ac4bc408e8b38dbd669842753f26ebf88" target="_top" xlink:title="Copies a string. ">
<polygon fill="white" stroke="black" points="308,-99 308,-118 439,-118 439,-99 308,-99"/>
<text text-anchor="middle" x="373.5" y="-106" font-family="Helvetica,sans-Serif" font-size="10.00">mom_io::safe_string_copy</text>
</a>
</g>
</g>
<!-- Node7&#45;&gt;Node8 -->
<g id="edge8" class="edge"><title>Node7&#45;&gt;Node8</title>
<path fill="none" stroke="midnightblue" d="M270.678,-104.717C279.491,-105.045 288.665,-105.385 297.737,-105.722"/>
<polygon fill="midnightblue" stroke="midnightblue" points="297.789,-109.227 307.912,-106.1 298.049,-102.232 297.789,-109.227"/>
</g>
<!-- Node8&#45;&gt;Node4 -->
<g id="edge9" class="edge"><title>Node8&#45;&gt;Node4</title>
<path fill="none" stroke="midnightblue" d="M439.174,-108.5C447.6,-108.5 456.219,-108.5 464.607,-108.5"/>
<polygon fill="midnightblue" stroke="midnightblue" points="464.695,-112 474.695,-108.5 464.695,-105 464.695,-112"/>
</g>
<!-- Node10 -->
<g id="node9" class="node"><title>Node10</title>
<g id="a_node9"><a xlink:href="namespacemom__diag__to__z.html#adde57f2503f5c182af511fba0f4c83ea" target="_top" xlink:title="This subroutine registers a tracer to be output in depth space. ">
<polygon fill="white" stroke="black" points="311.5,-49.5 311.5,-79.5 435.5,-79.5 435.5,-49.5 311.5,-49.5"/>
<text text-anchor="start" x="319.5" y="-67.5" font-family="Helvetica,sans-Serif" font-size="10.00">mom_diag_to_z::register</text>
<text text-anchor="middle" x="373.5" y="-56.5" font-family="Helvetica,sans-Serif" font-size="10.00">_z_tracer_low</text>
</a>
</g>
</g>
<!-- Node9&#45;&gt;Node10 -->
<g id="edge11" class="edge"><title>Node9&#45;&gt;Node10</title>
<path fill="none" stroke="midnightblue" d="M272.056,-60.7683C281.603,-61.123 291.54,-61.4922 301.29,-61.8544"/>
<polygon fill="midnightblue" stroke="midnightblue" points="301.234,-65.3547 311.357,-62.2284 301.494,-58.3595 301.234,-65.3547"/>
</g>
<!-- Node10&#45;&gt;Node4 -->
<g id="edge12" class="edge"><title>Node10&#45;&gt;Node4</title>
<path fill="none" stroke="midnightblue" d="M426.555,-79.5192C439.001,-83.11 452.405,-86.9776 465.241,-90.681"/>
<polygon fill="midnightblue" stroke="midnightblue" points="464.342,-94.0644 474.921,-93.4738 466.283,-87.3387 464.342,-94.0644"/>
</g>
<!-- Node11&#45;&gt;Node4 -->
<g id="edge15" class="edge"><title>Node11&#45;&gt;Node4</title>
<path fill="none" stroke="midnightblue" d="M420.402,-30.57C426.792,-33.2425 433.163,-36.2302 439,-39.5 462.435,-52.627 486.244,-71.7197 503.176,-86.4952"/>
<polygon fill="midnightblue" stroke="midnightblue" points="501.103,-89.3348 510.905,-93.3568 505.751,-84.1002 501.103,-89.3348"/>
</g>
<!-- Node11&#45;&gt;Node5 -->
<g id="edge14" class="edge"><title>Node11&#45;&gt;Node5</title>
<path fill="none" stroke="midnightblue" d="M428.516,-26.3215C478.904,-36.4162 554.036,-51.4681 606.883,-62.0555"/>
<polygon fill="midnightblue" stroke="midnightblue" points="606.318,-65.5117 616.81,-64.0444 607.693,-58.6481 606.318,-65.5117"/>
</g>
</g>
</svg>
