<?xml version="1.0" encoding="UTF-8" standalone="no"?>
<!DOCTYPE svg PUBLIC "-//W3C//DTD SVG 1.1//EN"
 "http://www.w3.org/Graphics/SVG/1.1/DTD/svg11.dtd">
<!-- Generated by graphviz version 2.38.0 (20140413.2041)
 -->
<!-- Title: mom_document::doc_param_time Pages: 1 -->
<!--zoomable 138 -->
<svg id="main" version="1.1" xmlns="http://www.w3.org/2000/svg" xmlns:xlink="http://www.w3.org/1999/xlink" xml:space="preserve" onload="init(evt)">
<style type="text/css"><![CDATA[
.edge:hover path { stroke: red; }
.edge:hover polygon { stroke: red; fill: red; }
]]></style>
<script type="text/javascript"><![CDATA[
var edges = document.getElementsByTagName('g');
if (edges && edges.length) {
  for (var i=0;i<edges.length;i++) {
    if (edges[i].id.substr(0,4)=='edge') {
      edges[i].setAttribute('class','edge');
    }
  }
}
]]></script>
        <defs>
                <circle id="rim" cx="0" cy="0" r="7"/>
                <circle id="rim2" cx="0" cy="0" r="3.5"/>
                <g id="zoomPlus">
                        <use xlink:href="#rim" fill="#404040">
                                <set attributeName="fill" to="#808080" begin="zoomplus.mouseover" end="zoomplus.mouseout"/>
                        </use>
                        <path d="M-4,0h8M0,-4v8" fill="none" stroke="white" stroke-width="1.5" pointer-events="none"/>
                </g>
                <g id="zoomMin">
                        <use xlink:href="#rim" fill="#404040">
                                <set attributeName="fill" to="#808080" begin="zoomminus.mouseover" end="zoomminus.mouseout"/>
                        </use>
                        <path d="M-4,0h8" fill="none" stroke="white" stroke-width="1.5" pointer-events="none"/>
                </g>
                <g id="dirArrow">
                        <path fill="none" stroke="white" stroke-width="1.5" d="M0,-3.0v7 M-2.5,-0.5L0,-3.0L2.5,-0.5"/>
                </g>
               <g id="resetDef">
                       <use xlink:href="#rim2" fill="#404040">
                               <set attributeName="fill" to="#808080" begin="reset.mouseover" end="reset.mouseout"/>
                       </use>
               </g>
        </defs>

<script type="text/javascript">
var viewWidth = 924;
var viewHeight = 138;
var sectionId = 'dynsection-15';
</script>
<script xlink:href="svgpan.js"/>
<svg id="graph" class="graph">
<g id="viewport">
<title>mom_document::doc_param_time</title>
<polygon fill="white" stroke="none" points="-4,4 -4,-133.5 920,-133.5 920,4 -4,4"/>
<!-- Node136 -->
<g id="node1" class="node"><title>Node136</title>
<polygon fill="#bfbfbf" stroke="black" points="0,-66.5 0,-85.5 164,-85.5 164,-66.5 0,-66.5"/>
<text text-anchor="middle" x="82" y="-73.5" font-family="Helvetica,sans-Serif" font-size="10.00">mom_document::doc_param_time</text>
</g>
<!-- Node137 -->
<g id="node2" class="node"><title>Node137</title>
<g id="a_node2"><a xlink:href="namespacemom__error__handler.html#ad5f00a53059c72fe2332d1436c80ca71" target="_top" xlink:title="mom_error_handler::\lis_root_pe">
<polygon fill="white" stroke="black" points="810,-99 810,-129 916,-129 916,-99 810,-99"/>
<text text-anchor="start" x="818" y="-117" font-family="Helvetica,sans-Serif" font-size="10.00">mom_error_handler::</text>
<text text-anchor="middle" x="863" y="-106" font-family="Helvetica,sans-Serif" font-size="10.00">is_root_pe</text>
</a>
</g>
</g>
<!-- Node136&#45;&gt;Node137 -->
<g id="edge1" class="edge"><title>Node136&#45;&gt;Node137</title>
<path fill="none" stroke="midnightblue" d="M120.962,-85.5192C143.739,-90.8775 173.367,-97.2307 200,-101 418.482,-131.921 681.522,-123.78 799.457,-117.772"/>
<polygon fill="midnightblue" stroke="midnightblue" points="799.93,-121.252 809.734,-117.235 799.565,-114.262 799.93,-121.252"/>
</g>
<!-- Node138 -->
<g id="node3" class="node"><title>Node138</title>
<g id="a_node3"><a xlink:href="namespacemom__document.html#aa23ed2e58e74e88a71de374685ee11ec" target="_top" xlink:title="mom_document::mesghasbeendocumented">
<polygon fill="white" stroke="black" points="426,-88.5 426,-107.5 632,-107.5 632,-88.5 426,-88.5"/>
<text text-anchor="middle" x="529" y="-95.5" font-family="Helvetica,sans-Serif" font-size="10.00">mom_document::mesghasbeendocumented</text>
</a>
</g>
</g>
<!-- Node136&#45;&gt;Node138 -->
<g id="edge2" class="edge"><title>Node136&#45;&gt;Node138</title>
<path fill="none" stroke="midnightblue" d="M164.102,-80.0096C234.518,-83.4908 337.196,-88.567 415.544,-92.4404"/>
<polygon fill="midnightblue" stroke="midnightblue" points="415.784,-95.9564 425.945,-92.9546 416.13,-88.965 415.784,-95.9564"/>
</g>
<!-- Node140 -->
<g id="node5" class="node"><title>Node140</title>
<g id="a_node5"><a xlink:href="namespacemom__document.html#aab976b6c6c9c01833438d217fca228a4" target="_top" xlink:title="mom_document::open\l_doc_file">
<polygon fill="white" stroke="black" points="238.5,-39 238.5,-69 351.5,-69 351.5,-39 238.5,-39"/>
<text text-anchor="start" x="246.5" y="-57" font-family="Helvetica,sans-Serif" font-size="10.00">mom_document::open</text>
<text text-anchor="middle" x="295" y="-46" font-family="Helvetica,sans-Serif" font-size="10.00">_doc_file</text>
</a>
</g>
</g>
<!-- Node136&#45;&gt;Node140 -->
<g id="edge5" class="edge"><title>Node136&#45;&gt;Node140</title>
<path fill="none" stroke="midnightblue" d="M164.276,-67.5257C185.43,-65.3201 207.958,-62.9713 228.202,-60.8605"/>
<polygon fill="midnightblue" stroke="midnightblue" points="228.666,-64.3312 238.249,-59.8129 227.94,-57.3689 228.666,-64.3312"/>
</g>
<!-- Node142 -->
<g id="node7" class="node"><title>Node142</title>
<g id="a_node7"><a xlink:href="namespacemom__document.html#a22d84550b1affd1037328c5117496a65" target="_top" xlink:title="mom_document::writemessageanddesc">
<polygon fill="white" stroke="black" points="200,-0.5 200,-19.5 390,-19.5 390,-0.5 200,-0.5"/>
<text text-anchor="middle" x="295" y="-7.5" font-family="Helvetica,sans-Serif" font-size="10.00">mom_document::writemessageanddesc</text>
</a>
</g>
</g>
<!-- Node136&#45;&gt;Node142 -->
<g id="edge9" class="edge"><title>Node136&#45;&gt;Node142</title>
<path fill="none" stroke="midnightblue" d="M103.724,-66.3301C126.795,-55.885 165.397,-39.3528 200,-29 208.997,-26.3081 218.593,-23.8801 228.087,-21.7303"/>
<polygon fill="midnightblue" stroke="midnightblue" points="228.888,-25.138 237.915,-19.5913 227.399,-18.2982 228.888,-25.138"/>
</g>
<!-- Node139 -->
<g id="node4" class="node"><title>Node139</title>
<g id="a_node4"><a xlink:href="namespacemom__error__handler.html#a460cfb79a06c29fc249952c2a3710d67" target="_top" xlink:title="mom_error_handler::\lmom_error">
<polygon fill="white" stroke="black" points="668,-61 668,-91 774,-91 774,-61 668,-61"/>
<text text-anchor="start" x="676" y="-79" font-family="Helvetica,sans-Serif" font-size="10.00">mom_error_handler::</text>
<text text-anchor="middle" x="721" y="-68" font-family="Helvetica,sans-Serif" font-size="10.00">mom_error</text>
</a>
</g>
</g>
<!-- Node138&#45;&gt;Node139 -->
<g id="edge3" class="edge"><title>Node138&#45;&gt;Node139</title>
<path fill="none" stroke="midnightblue" d="M612.232,-88.4784C627.404,-86.7216 643.019,-84.9136 657.49,-83.238"/>
<polygon fill="midnightblue" stroke="midnightblue" points="658.272,-86.6709 667.803,-82.0439 657.467,-79.7174 658.272,-86.6709"/>
</g>
<!-- Node139&#45;&gt;Node137 -->
<g id="edge4" class="edge"><title>Node139&#45;&gt;Node137</title>
<path fill="none" stroke="midnightblue" d="M774.131,-90.1498C782.604,-92.4495 791.451,-94.8509 800.129,-97.2063"/>
<polygon fill="midnightblue" stroke="midnightblue" points="799.258,-100.597 809.826,-99.8384 801.092,-93.841 799.258,-100.597"/>
</g>
<!-- Node140&#45;&gt;Node139 -->
<g id="edge8" class="edge"><title>Node140&#45;&gt;Node139</title>
<path fill="none" stroke="midnightblue" d="M351.867,-56.8987C430.982,-61.0038 575.196,-68.4866 657.685,-72.7667"/>
<polygon fill="midnightblue" stroke="midnightblue" points="657.507,-76.2621 667.675,-73.285 657.87,-69.2715 657.507,-76.2621"/>
</g>
<!-- Node141 -->
<g id="node6" class="node"><title>Node141</title>
<g id="a_node6"><a xlink:href="namespacemom__document.html#a5f2661445a72a7d0f774677e91366db5" target="_top" xlink:title="mom_document::find\l_unused_unit_number">
<polygon fill="white" stroke="black" points="473,-1 473,-31 585,-31 585,-1 473,-1"/>
<text text-anchor="start" x="481" y="-19" font-family="Helvetica,sans-Serif" font-size="10.00">mom_document::find</text>
<text text-anchor="middle" x="529" y="-8" font-family="Helvetica,sans-Serif" font-size="10.00">_unused_unit_number</text>
</a>
</g>
</g>
<!-- Node140&#45;&gt;Node141 -->
<g id="edge6" class="edge"><title>Node140&#45;&gt;Node141</title>
<path fill="none" stroke="midnightblue" d="M351.57,-44.8981C385,-39.4224 427.721,-32.425 462.751,-26.6873"/>
<polygon fill="midnightblue" stroke="midnightblue" points="463.581,-30.0981 472.884,-25.0277 462.449,-23.1902 463.581,-30.0981"/>
</g>
<!-- Node141&#45;&gt;Node139 -->
<g id="edge7" class="edge"><title>Node141&#45;&gt;Node139</title>
<path fill="none" stroke="midnightblue" d="M582.807,-31.0676C598.666,-35.7174 616.078,-40.947 632,-46 643.539,-49.6619 655.87,-53.7531 667.538,-57.7077"/>
<polygon fill="midnightblue" stroke="midnightblue" points="666.557,-61.0711 677.152,-60.985 668.816,-54.4455 666.557,-61.0711"/>
</g>
</g>
</svg>
        <g id="navigator" transform="translate(0 0)" fill="#404254">
                <rect fill="#f2f5e9" fill-opacity="0.5" stroke="#606060" stroke-width=".5" x="0" y="0" width="60" height="60"/>
                <use id="zoomplus" xlink:href="#zoomPlus" x="17" y="9" onmousedown="handleZoom(evt,'in')"/>
                <use id="zoomminus" xlink:href="#zoomMin" x="42" y="9" onmousedown="handleZoom(evt,'out')"/>
                <use id="reset" xlink:href="#resetDef" x="30" y="36" onmousedown="handleReset()"/>
                <g id="arrowUp" xlink:href="#dirArrow" transform="translate(30 24)" onmousedown="handlePan(0,-1)">
                  <use xlink:href="#rim" fill="#404040">
                        <set attributeName="fill" to="#808080" begin="arrowUp.mouseover" end="arrowUp.mouseout"/>
                  </use>
                  <path fill="none" stroke="white" stroke-width="1.5" d="M0,-3.0v7 M-2.5,-0.5L0,-3.0L2.5,-0.5"/>
                </g>
                <g id="arrowRight" xlink:href="#dirArrow" transform="rotate(90) translate(36 -43)" onmousedown="handlePan(1,0)">
                  <use xlink:href="#rim" fill="#404040">
                        <set attributeName="fill" to="#808080" begin="arrowRight.mouseover" end="arrowRight.mouseout"/>
                  </use>
                  <path fill="none" stroke="white" stroke-width="1.5" d="M0,-3.0v7 M-2.5,-0.5L0,-3.0L2.5,-0.5"/>
                </g>
                <g id="arrowDown" xlink:href="#dirArrow" transform="rotate(180) translate(-30 -48)" onmousedown="handlePan(0,1)">
                  <use xlink:href="#rim" fill="#404040">
                        <set attributeName="fill" to="#808080" begin="arrowDown.mouseover" end="arrowDown.mouseout"/>
                  </use>
                  <path fill="none" stroke="white" stroke-width="1.5" d="M0,-3.0v7 M-2.5,-0.5L0,-3.0L2.5,-0.5"/>
                </g>
                <g id="arrowLeft" xlink:href="#dirArrow" transform="rotate(270) translate(-36 17)" onmousedown="handlePan(-1,0)">
                  <use xlink:href="#rim" fill="#404040">
                        <set attributeName="fill" to="#808080" begin="arrowLeft.mouseover" end="arrowLeft.mouseout"/>
                  </use>
                  <path fill="none" stroke="white" stroke-width="1.5" d="M0,-3.0v7 M-2.5,-0.5L0,-3.0L2.5,-0.5"/>
                </g>
        </g>
        <svg viewBox="0 0 15 15" width="100%" height="30px" preserveAspectRatio="xMaxYMin meet">
         <g id="arrow_out" transform="scale(0.3 0.3)">
          <a xlink:href="namespacemom__document_a1fe9f578d46ecf80dc2dbd72cea15b47_cgraph_org.svg" target="_base">
           <rect id="button" ry="5" rx="5" y="6" x="6" height="38" width="38"
                fill="#f2f5e9" fill-opacity="0.5" stroke="#606060" stroke-width="1.0"/>
           <path id="arrow"
             d="M 11.500037,31.436501 C 11.940474,20.09759 22.043105,11.32322 32.158766,21.979434 L 37.068811,17.246167 C 37.068811,17.246167 37.088388,32 37.088388,32 L 22.160133,31.978069 C 22.160133,31.978069 26.997745,27.140456 26.997745,27.140456 C 18.528582,18.264221 13.291696,25.230495 11.500037,31.436501 z"
             style="fill:#404040;"/>
          </a>
         </g>
        </svg>
</svg>
