<?xml version="1.0" encoding="UTF-8" standalone="no"?>
<!DOCTYPE svg PUBLIC "-//W3C//DTD SVG 1.1//EN"
 "http://www.w3.org/Graphics/SVG/1.1/DTD/svg11.dtd">
<!-- Generated by graphviz version 2.38.0 (20140413.2041)
 -->
<!-- Title: mom_diag_to_z::calculate_z_diag_fields Pages: 1 -->
<svg width="434pt" height="186pt"
 viewBox="0.00 0.00 434.00 186.00" xmlns="http://www.w3.org/2000/svg" xmlns:xlink="http://www.w3.org/1999/xlink">
<g id="graph0" class="graph" transform="scale(1 1) rotate(0) translate(4 182)">
<title>mom_diag_to_z::calculate_z_diag_fields</title>
<polygon fill="white" stroke="none" points="-4,4 -4,-182 430,-182 430,4 -4,4"/>
<!-- Node6 -->
<g id="node1" class="node"><title>Node6</title>
<polygon fill="#bfbfbf" stroke="black" points="0,-73.5 0,-103.5 131,-103.5 131,-73.5 0,-73.5"/>
<text text-anchor="start" x="8" y="-91.5" font-family="Helvetica,sans-Serif" font-size="10.00">mom_diag_to_z::calculate</text>
<text text-anchor="middle" x="65.5" y="-80.5" font-family="Helvetica,sans-Serif" font-size="10.00">_z_diag_fields</text>
</g>
<!-- Node7 -->
<g id="node2" class="node"><title>Node7</title>
<g id="a_node2"><a xlink:href="namespacemom__diag__to__z.html#a55f6203cfb483bb62c543f689ab30741" target="_top" xlink:title="This subroutine determines a limited slope for val to be advected with a piecewise limited scheme...">
<polygon fill="white" stroke="black" points="172,-147.5 172,-177.5 279,-177.5 279,-147.5 172,-147.5"/>
<text text-anchor="start" x="180" y="-165.5" font-family="Helvetica,sans-Serif" font-size="10.00">mom_diag_to_z::find</text>
<text text-anchor="middle" x="225.5" y="-154.5" font-family="Helvetica,sans-Serif" font-size="10.00">_limited_slope</text>
</a>
</g>
</g>
<!-- Node6&#45;&gt;Node7 -->
<g id="edge1" class="edge"><title>Node6&#45;&gt;Node7</title>
<path fill="none" stroke="midnightblue" d="M95.7168,-103.676C115.641,-113.866 142.716,-127.406 167,-138.5 170.605,-140.147 174.356,-141.814 178.138,-143.462"/>
<polygon fill="midnightblue" stroke="midnightblue" points="176.964,-146.767 187.534,-147.496 179.725,-140.335 176.964,-146.767"/>
</g>
<!-- Node8 -->
<g id="node3" class="node"><title>Node8</title>
<g id="a_node3"><a xlink:href="namespacemom__diag__to__z.html#a7bb6af99ccb5eb1daf7473663ca19aea" target="_top" xlink:title="This subroutine determines the layers bounded by interfaces e that overlap with the depth range betwe...">
<polygon fill="white" stroke="black" points="172,-98.5 172,-128.5 279,-128.5 279,-98.5 172,-98.5"/>
<text text-anchor="start" x="180" y="-116.5" font-family="Helvetica,sans-Serif" font-size="10.00">mom_diag_to_z::find</text>
<text text-anchor="middle" x="225.5" y="-105.5" font-family="Helvetica,sans-Serif" font-size="10.00">_overlap</text>
</a>
</g>
</g>
<!-- Node6&#45;&gt;Node8 -->
<g id="edge2" class="edge"><title>Node6&#45;&gt;Node8</title>
<path fill="none" stroke="midnightblue" d="M131.221,-98.7406C141.319,-100.339 151.74,-101.987 161.793,-103.578"/>
<polygon fill="midnightblue" stroke="midnightblue" points="161.274,-107.039 171.698,-105.145 162.368,-100.125 161.274,-107.039"/>
</g>
<!-- Node9 -->
<g id="node4" class="node"><title>Node9</title>
<g id="a_node4"><a xlink:href="namespacemom__diag__to__z.html#ac98bd25f8f745b287cff5452f8b12694" target="_top" xlink:title="mom_diag_to_z::global\l_z_mean">
<polygon fill="white" stroke="black" points="167,-49.5 167,-79.5 284,-79.5 284,-49.5 167,-49.5"/>
<text text-anchor="start" x="175" y="-67.5" font-family="Helvetica,sans-Serif" font-size="10.00">mom_diag_to_z::global</text>
<text text-anchor="middle" x="225.5" y="-56.5" font-family="Helvetica,sans-Serif" font-size="10.00">_z_mean</text>
</a>
</g>
</g>
<!-- Node6&#45;&gt;Node9 -->
<g id="edge3" class="edge"><title>Node6&#45;&gt;Node9</title>
<path fill="none" stroke="midnightblue" d="M131.221,-78.669C139.735,-77.3757 148.478,-76.0477 157.036,-74.7476"/>
<polygon fill="midnightblue" stroke="midnightblue" points="157.613,-78.2003 166.974,-73.2381 156.562,-71.2797 157.613,-78.2003"/>
</g>
<!-- Node10 -->
<g id="node5" class="node"><title>Node10</title>
<g id="a_node5"><a xlink:href="namespacemom__error__handler.html#a460cfb79a06c29fc249952c2a3710d67" target="_top" xlink:title="mom_error_handler::\lmom_error">
<polygon fill="white" stroke="black" points="172.5,-0.5 172.5,-30.5 278.5,-30.5 278.5,-0.5 172.5,-0.5"/>
<text text-anchor="start" x="180.5" y="-18.5" font-family="Helvetica,sans-Serif" font-size="10.00">mom_error_handler::</text>
<text text-anchor="middle" x="225.5" y="-7.5" font-family="Helvetica,sans-Serif" font-size="10.00">mom_error</text>
</a>
</g>
</g>
<!-- Node6&#45;&gt;Node10 -->
<g id="edge4" class="edge"><title>Node6&#45;&gt;Node10</title>
<path fill="none" stroke="midnightblue" d="M97.6025,-73.2953C117.389,-63.7093 143.601,-51.1703 167,-40.5 171.293,-38.5424 175.78,-36.531 180.274,-34.5401"/>
<polygon fill="midnightblue" stroke="midnightblue" points="181.699,-37.7366 189.444,-30.5064 178.881,-31.3291 181.699,-37.7366"/>
</g>
<!-- Node11 -->
<g id="node6" class="node"><title>Node11</title>
<g id="a_node6"><a xlink:href="namespacemom__error__handler.html#ad5f00a53059c72fe2332d1436c80ca71" target="_top" xlink:title="mom_error_handler::\lis_root_pe">
<polygon fill="white" stroke="black" points="320,-0.5 320,-30.5 426,-30.5 426,-0.5 320,-0.5"/>
<text text-anchor="start" x="328" y="-18.5" font-family="Helvetica,sans-Serif" font-size="10.00">mom_error_handler::</text>
<text text-anchor="middle" x="373" y="-7.5" font-family="Helvetica,sans-Serif" font-size="10.00">is_root_pe</text>
</a>
</g>
</g>
<!-- Node10&#45;&gt;Node11 -->
<g id="edge5" class="edge"><title>Node10&#45;&gt;Node11</title>
<path fill="none" stroke="midnightblue" d="M278.618,-15.5C288.648,-15.5 299.248,-15.5 309.565,-15.5"/>
<polygon fill="midnightblue" stroke="midnightblue" points="309.757,-19.0001 319.757,-15.5 309.757,-12.0001 309.757,-19.0001"/>
</g>
</g>
</svg>
