<?xml version="1.0" encoding="UTF-8" standalone="no"?>
<!DOCTYPE svg PUBLIC "-//W3C//DTD SVG 1.1//EN"
 "http://www.w3.org/Graphics/SVG/1.1/DTD/svg11.dtd">
<!-- Generated by graphviz version 2.38.0 (20140413.2041)
 -->
<!-- Title: mom_forcing_type::mom_forcing_chksum Pages: 1 -->
<svg width="541pt" height="125pt"
 viewBox="0.00 0.00 541.00 124.79" xmlns="http://www.w3.org/2000/svg" xmlns:xlink="http://www.w3.org/1999/xlink">
<g id="graph0" class="graph" transform="scale(1 1) rotate(0) translate(4 120.791)">
<title>mom_forcing_type::mom_forcing_chksum</title>
<polygon fill="white" stroke="none" points="-4,4 -4,-120.791 537,-120.791 537,4 -4,4"/>
<!-- Node68 -->
<g id="node1" class="node"><title>Node68</title>
<polygon fill="#bfbfbf" stroke="black" points="0,-52 0,-82 125,-82 125,-52 0,-52"/>
<text text-anchor="start" x="8" y="-70" font-family="Helvetica,sans-Serif" font-size="10.00">mom_forcing_type::mom</text>
<text text-anchor="middle" x="62.5" y="-59" font-family="Helvetica,sans-Serif" font-size="10.00">_forcing_chksum</text>
</g>
<!-- Node69 -->
<g id="node2" class="node"><title>Node69</title>
<g id="a_node2"><a xlink:href="MOM__driver_8F90.html#a08fffeb2d8e8acbf9ed4609be6d258c6" target="_top" xlink:title="mom_main">
<polygon fill="white" stroke="black" points="468,-73.5 468,-92.5 533,-92.5 533,-73.5 468,-73.5"/>
<text text-anchor="middle" x="500.5" y="-80.5" font-family="Helvetica,sans-Serif" font-size="10.00">mom_main</text>
</a>
</g>
</g>
<!-- Node68&#45;&gt;Node69 -->
<g id="edge1" class="edge"><title>Node68&#45;&gt;Node69</title>
<path fill="none" stroke="midnightblue" d="M131.53,-84.2047C141.377,-86.3574 151.42,-88.371 161,-90 279.973,-110.231 313.075,-127.513 432,-107 448.056,-104.231 465.355,-98.0109 478.42,-92.5973"/>
<polygon fill="midnightblue" stroke="midnightblue" points="132.296,-80.7896 121.772,-82.0147 130.763,-87.6197 132.296,-80.7896"/>
</g>
<!-- Node70 -->
<g id="node3" class="node"><title>Node70</title>
<g id="a_node3"><a xlink:href="namespacemom__ice__shelf.html#a3b0e0cc9f36c5197236cc05867b780df" target="_top" xlink:title="Calculates fluxes between the ocean and ice&#45;shelf using the three&#45;equations formulation (optional to ...">
<polygon fill="white" stroke="black" points="322,-68 322,-98 432,-98 432,-68 322,-68"/>
<text text-anchor="start" x="330" y="-86" font-family="Helvetica,sans-Serif" font-size="10.00">mom_ice_shelf::shelf</text>
<text text-anchor="middle" x="377" y="-75" font-family="Helvetica,sans-Serif" font-size="10.00">_calc_flux</text>
</a>
</g>
</g>
<!-- Node68&#45;&gt;Node70 -->
<g id="edge2" class="edge"><title>Node68&#45;&gt;Node70</title>
<path fill="none" stroke="midnightblue" d="M135.239,-70.673C192.091,-73.5839 270.294,-77.5879 321.95,-80.2326"/>
<polygon fill="midnightblue" stroke="midnightblue" points="135.406,-67.1771 125.24,-70.1611 135.048,-74.1679 135.406,-67.1771"/>
</g>
<!-- Node71 -->
<g id="node4" class="node"><title>Node71</title>
<g id="a_node4"><a xlink:href="namespacemom.html#a4c8332b095c6d295084089aa6b3b678a" target="_top" xlink:title="This subroutine orchestrates the time stepping of MOM. The adiabatic dynamics are stepped by calls to...">
<polygon fill="white" stroke="black" points="332,-29.5 332,-48.5 422,-48.5 422,-29.5 332,-29.5"/>
<text text-anchor="middle" x="377" y="-36.5" font-family="Helvetica,sans-Serif" font-size="10.00">mom::step_mom</text>
</a>
</g>
</g>
<!-- Node68&#45;&gt;Node71 -->
<g id="edge4" class="edge"><title>Node68&#45;&gt;Node71</title>
<path fill="none" stroke="midnightblue" d="M135.484,-60.5502C195.963,-55.1313 280.476,-47.5589 331.543,-42.9834"/>
<polygon fill="midnightblue" stroke="midnightblue" points="134.888,-57.0896 125.24,-61.4681 135.512,-64.0616 134.888,-57.0896"/>
</g>
<!-- Node72 -->
<g id="node5" class="node"><title>Node72</title>
<g id="a_node5"><a xlink:href="namespacemom.html#a02eac5c5c3ad33f0a786b3e357e31433" target="_top" xlink:title="MOM_step_thermo orchestrates the thermodynamic time stepping and vertical remapping, via calls to diabatic (or adiabatic) and ALE_main. ">
<polygon fill="white" stroke="black" points="161,-0.5 161,-19.5 286,-19.5 286,-0.5 161,-0.5"/>
<text text-anchor="middle" x="223.5" y="-7.5" font-family="Helvetica,sans-Serif" font-size="10.00">mom::step_mom_thermo</text>
</a>
</g>
</g>
<!-- Node68&#45;&gt;Node72 -->
<g id="edge6" class="edge"><title>Node68&#45;&gt;Node72</title>
<path fill="none" stroke="midnightblue" d="M115.32,-48.4229C142.117,-38.8165 173.708,-27.4915 195.619,-19.6365"/>
<polygon fill="midnightblue" stroke="midnightblue" points="113.924,-45.2053 105.692,-51.8747 116.286,-51.7947 113.924,-45.2053"/>
</g>
<!-- Node70&#45;&gt;Node69 -->
<g id="edge3" class="edge"><title>Node70&#45;&gt;Node69</title>
<path fill="none" stroke="midnightblue" d="M442.627,-83C451.374,-83 460.013,-83 467.815,-83"/>
<polygon fill="midnightblue" stroke="midnightblue" points="442.353,-79.5001 432.353,-83 442.353,-86.5001 442.353,-79.5001"/>
</g>
<!-- Node71&#45;&gt;Node69 -->
<g id="edge5" class="edge"><title>Node71&#45;&gt;Node69</title>
<path fill="none" stroke="midnightblue" d="M414.938,-51.9062C420.656,-53.9303 426.491,-56.0107 432,-58 445.87,-63.0081 461.294,-68.7109 473.894,-73.404"/>
<polygon fill="midnightblue" stroke="midnightblue" points="416.097,-48.6038 405.502,-48.5789 413.769,-55.2054 416.097,-48.6038"/>
</g>
<!-- Node72&#45;&gt;Node71 -->
<g id="edge7" class="edge"><title>Node72&#45;&gt;Node71</title>
<path fill="none" stroke="midnightblue" d="M284.711,-21.5256C300.461,-24.5403 317.147,-27.7343 331.885,-30.5555"/>
<polygon fill="midnightblue" stroke="midnightblue" points="285.006,-18.0186 274.527,-19.5761 283.69,-24.8938 285.006,-18.0186"/>
</g>
</g>
</svg>
