<?xml version="1.0" encoding="UTF-8" standalone="no"?>
<!DOCTYPE svg PUBLIC "-//W3C//DTD SVG 1.1//EN"
 "http://www.w3.org/Graphics/SVG/1.1/DTD/svg11.dtd">
<!-- Generated by graphviz version 2.38.0 (20140413.2041)
 -->
<!-- Title: mom_neutral_diffusion::interface_scalar Pages: 1 -->
<svg width="425pt" height="137pt"
 viewBox="0.00 0.00 425.00 137.00" xmlns="http://www.w3.org/2000/svg" xmlns:xlink="http://www.w3.org/1999/xlink">
<g id="graph0" class="graph" transform="scale(1 1) rotate(0) translate(4 133)">
<title>mom_neutral_diffusion::interface_scalar</title>
<polygon fill="white" stroke="none" points="-4,4 -4,-133 421,-133 421,4 -4,4"/>
<!-- Node60 -->
<g id="node1" class="node"><title>Node60</title>
<polygon fill="#bfbfbf" stroke="black" points="0,-24.5 0,-54.5 115,-54.5 115,-24.5 0,-24.5"/>
<text text-anchor="start" x="8" y="-42.5" font-family="Helvetica,sans-Serif" font-size="10.00">mom_neutral_diffusion</text>
<text text-anchor="middle" x="57.5" y="-31.5" font-family="Helvetica,sans-Serif" font-size="10.00">::interface_scalar</text>
</g>
<!-- Node61 -->
<g id="node2" class="node"><title>Node61</title>
<g id="a_node2"><a xlink:href="namespacemom__neutral__diffusion.html#ac211ae488cb6e3c6685df85d24ecd0dd" target="_top" xlink:title="Returns PLM slopes for a column where the slopes are the difference in value across each cell...">
<polygon fill="white" stroke="black" points="151,-49.5 151,-79.5 266,-79.5 266,-49.5 151,-49.5"/>
<text text-anchor="start" x="159" y="-67.5" font-family="Helvetica,sans-Serif" font-size="10.00">mom_neutral_diffusion</text>
<text text-anchor="middle" x="208.5" y="-56.5" font-family="Helvetica,sans-Serif" font-size="10.00">::plm_diff</text>
</a>
</g>
</g>
<!-- Node60&#45;&gt;Node61 -->
<g id="edge1" class="edge"><title>Node60&#45;&gt;Node61</title>
<path fill="none" stroke="midnightblue" d="M115.256,-49.0227C123.649,-50.4311 132.362,-51.893 140.933,-53.3311"/>
<polygon fill="midnightblue" stroke="midnightblue" points="140.461,-56.8007 150.902,-55.0037 141.619,-49.8972 140.461,-56.8007"/>
</g>
<!-- Node65 -->
<g id="node6" class="node"><title>Node65</title>
<g id="a_node6"><a xlink:href="namespacemom__neutral__diffusion.html#a87d3d020b56a98f3f0c143701f76c86e" target="_top" xlink:title="Returns the PPM quasi&#45;fourth order edge value at k+1/2 following equation 1.6 in Colella &amp; Woodward...">
<polygon fill="white" stroke="black" points="151,-0.5 151,-30.5 266,-30.5 266,-0.5 151,-0.5"/>
<text text-anchor="start" x="159" y="-18.5" font-family="Helvetica,sans-Serif" font-size="10.00">mom_neutral_diffusion</text>
<text text-anchor="middle" x="208.5" y="-7.5" font-family="Helvetica,sans-Serif" font-size="10.00">::ppm_edge</text>
</a>
</g>
</g>
<!-- Node60&#45;&gt;Node65 -->
<g id="edge5" class="edge"><title>Node60&#45;&gt;Node65</title>
<path fill="none" stroke="midnightblue" d="M115.256,-30.3582C123.649,-29.0062 132.362,-27.6028 140.933,-26.2222"/>
<polygon fill="midnightblue" stroke="midnightblue" points="141.586,-29.6622 150.902,-24.6164 140.473,-22.7513 141.586,-29.6622"/>
</g>
<!-- Node62 -->
<g id="node3" class="node"><title>Node62</title>
<g id="a_node3"><a xlink:href="namespacemom__neutral__diffusion.html#a1c5ac28d7c54581cdd872fe58ef0b204" target="_top" xlink:title="Returns the cell&#45;centered second&#45;order finite volume (unlimited PLM) slope using three consecutive ce...">
<polygon fill="white" stroke="black" points="302,-98.5 302,-128.5 417,-128.5 417,-98.5 302,-98.5"/>
<text text-anchor="start" x="310" y="-116.5" font-family="Helvetica,sans-Serif" font-size="10.00">mom_neutral_diffusion</text>
<text text-anchor="middle" x="359.5" y="-105.5" font-family="Helvetica,sans-Serif" font-size="10.00">::fv_diff</text>
</a>
</g>
</g>
<!-- Node61&#45;&gt;Node62 -->
<g id="edge2" class="edge"><title>Node61&#45;&gt;Node62</title>
<path fill="none" stroke="midnightblue" d="M255.421,-79.6014C270.503,-84.5615 287.428,-90.1274 303.136,-95.2929"/>
<polygon fill="midnightblue" stroke="midnightblue" points="302.138,-98.6492 312.731,-98.4484 304.325,-91.9995 302.138,-98.6492"/>
</g>
<!-- Node63 -->
<g id="node4" class="node"><title>Node63</title>
<g id="a_node4"><a xlink:href="namespacemom__neutral__diffusion.html#a6ed3814088af470ad6fc4a3a80926fd7" target="_top" xlink:title="Returns the cell&#45;centered second&#45;order weighted least squares slope using three consecutive cell widt...">
<polygon fill="white" stroke="black" points="302,-49.5 302,-79.5 417,-79.5 417,-49.5 302,-49.5"/>
<text text-anchor="start" x="310" y="-67.5" font-family="Helvetica,sans-Serif" font-size="10.00">mom_neutral_diffusion</text>
<text text-anchor="middle" x="359.5" y="-56.5" font-family="Helvetica,sans-Serif" font-size="10.00">::fvlsq_slope</text>
</a>
</g>
</g>
<!-- Node61&#45;&gt;Node63 -->
<g id="edge3" class="edge"><title>Node61&#45;&gt;Node63</title>
<path fill="none" stroke="midnightblue" d="M266.256,-64.5C274.558,-64.5 283.173,-64.5 291.654,-64.5"/>
<polygon fill="midnightblue" stroke="midnightblue" points="291.902,-68.0001 301.902,-64.5 291.902,-61.0001 291.902,-68.0001"/>
</g>
<!-- Node64 -->
<g id="node5" class="node"><title>Node64</title>
<g id="a_node5"><a xlink:href="namespacemom__neutral__diffusion.html#a118ace85483009d5b7a1841e3c745499" target="_top" xlink:title="A true signum function that returns either &#45;abs(a), when x&lt;0; or abs(a) when x&gt;0; or 0 when x=0...">
<polygon fill="white" stroke="black" points="302,-0.5 302,-30.5 417,-30.5 417,-0.5 302,-0.5"/>
<text text-anchor="start" x="310" y="-18.5" font-family="Helvetica,sans-Serif" font-size="10.00">mom_neutral_diffusion</text>
<text text-anchor="middle" x="359.5" y="-7.5" font-family="Helvetica,sans-Serif" font-size="10.00">::signum</text>
</a>
</g>
</g>
<!-- Node61&#45;&gt;Node64 -->
<g id="edge4" class="edge"><title>Node61&#45;&gt;Node64</title>
<path fill="none" stroke="midnightblue" d="M255.421,-49.3986C270.503,-44.4385 287.428,-38.8726 303.136,-33.7071"/>
<polygon fill="midnightblue" stroke="midnightblue" points="304.325,-37.0005 312.731,-30.5516 302.138,-30.3508 304.325,-37.0005"/>
</g>
</g>
</svg>
