<?xml version="1.0" encoding="UTF-8" standalone="no"?>
<!DOCTYPE svg PUBLIC "-//W3C//DTD SVG 1.1//EN"
 "http://www.w3.org/Graphics/SVG/1.1/DTD/svg11.dtd">
<!-- Generated by graphviz version 2.38.0 (20140413.2041)
 -->
<!-- Title: mom_diag_mediator::post_data_2d_low Pages: 1 -->
<svg width="264pt" height="39pt"
 viewBox="0.00 0.00 264.00 39.00" xmlns="http://www.w3.org/2000/svg" xmlns:xlink="http://www.w3.org/1999/xlink">
<g id="graph0" class="graph" transform="scale(1 1) rotate(0) translate(4 35)">
<title>mom_diag_mediator::post_data_2d_low</title>
<polygon fill="white" stroke="none" points="-4,4 -4,-35 260,-35 260,4 -4,4"/>
<!-- Node251 -->
<g id="node1" class="node"><title>Node251</title>
<polygon fill="#bfbfbf" stroke="black" points="0,-0.5 0,-30.5 110,-30.5 110,-0.5 0,-0.5"/>
<text text-anchor="start" x="8" y="-18.5" font-family="Helvetica,sans-Serif" font-size="10.00">mom_diag_mediator::</text>
<text text-anchor="middle" x="55" y="-7.5" font-family="Helvetica,sans-Serif" font-size="10.00">post_data_2d_low</text>
</g>
<!-- Node252 -->
<g id="node2" class="node"><title>Node252</title>
<g id="a_node2"><a xlink:href="namespacemom__diag__mediator.html#a2b87038d2cfd2f6709ecb9f4481e0e75" target="_top" xlink:title="mom_diag_mediator::\lpost_data_2d">
<polygon fill="white" stroke="black" points="146,-0.5 146,-30.5 256,-30.5 256,-0.5 146,-0.5"/>
<text text-anchor="start" x="154" y="-18.5" font-family="Helvetica,sans-Serif" font-size="10.00">mom_diag_mediator::</text>
<text text-anchor="middle" x="201" y="-7.5" font-family="Helvetica,sans-Serif" font-size="10.00">post_data_2d</text>
</a>
</g>
</g>
<!-- Node251&#45;&gt;Node252 -->
<g id="edge1" class="edge"><title>Node251&#45;&gt;Node252</title>
<path fill="none" stroke="midnightblue" d="M120.27,-15.5C128.75,-15.5 137.375,-15.5 145.667,-15.5"/>
<polygon fill="midnightblue" stroke="midnightblue" points="120.03,-12.0001 110.03,-15.5 120.03,-19.0001 120.03,-12.0001"/>
</g>
</g>
</svg>
