<?xml version="1.0" encoding="UTF-8" standalone="no"?>
<!DOCTYPE svg PUBLIC "-//W3C//DTD SVG 1.1//EN"
 "http://www.w3.org/Graphics/SVG/1.1/DTD/svg11.dtd">
<!-- Generated by graphviz version 2.38.0 (20140413.2041)
 -->
<!-- Title: user_shelf_init::user_update_shelf_mass Pages: 1 -->
<svg width="563pt" height="39pt"
 viewBox="0.00 0.00 563.00 39.00" xmlns="http://www.w3.org/2000/svg" xmlns:xlink="http://www.w3.org/1999/xlink">
<g id="graph0" class="graph" transform="scale(1 1) rotate(0) translate(4 35)">
<title>user_shelf_init::user_update_shelf_mass</title>
<polygon fill="white" stroke="none" points="-4,4 -4,-35 559,-35 559,4 -4,4"/>
<!-- Node13 -->
<g id="node1" class="node"><title>Node13</title>
<polygon fill="#bfbfbf" stroke="black" points="0,-0.5 0,-30.5 107,-30.5 107,-0.5 0,-0.5"/>
<text text-anchor="start" x="8" y="-18.5" font-family="Helvetica,sans-Serif" font-size="10.00">user_shelf_init::user</text>
<text text-anchor="middle" x="53.5" y="-7.5" font-family="Helvetica,sans-Serif" font-size="10.00">_update_shelf_mass</text>
</g>
<!-- Node14 -->
<g id="node2" class="node"><title>Node14</title>
<g id="a_node2"><a xlink:href="namespaceuser__shelf__init.html#a160ee7639522c12c10408f853ff4d897" target="_top" xlink:title="user_shelf_init::user\l_initialize_shelf_mass">
<polygon fill="white" stroke="black" points="143,-0.5 143,-30.5 256,-30.5 256,-0.5 143,-0.5"/>
<text text-anchor="start" x="151" y="-18.5" font-family="Helvetica,sans-Serif" font-size="10.00">user_shelf_init::user</text>
<text text-anchor="middle" x="199.5" y="-7.5" font-family="Helvetica,sans-Serif" font-size="10.00">_initialize_shelf_mass</text>
</a>
</g>
</g>
<!-- Node13&#45;&gt;Node14 -->
<g id="edge1" class="edge"><title>Node13&#45;&gt;Node14</title>
<path fill="none" stroke="midnightblue" d="M117.473,-15.5C125.905,-15.5 134.505,-15.5 142.8,-15.5"/>
<polygon fill="midnightblue" stroke="midnightblue" points="117.303,-12.0001 107.303,-15.5 117.303,-19.0001 117.303,-12.0001"/>
</g>
<!-- Node15 -->
<g id="node3" class="node"><title>Node15</title>
<g id="a_node3"><a xlink:href="namespaceuser__shelf__init.html#a489d62c2d76eef329b9e5b17c63ccc66" target="_top" xlink:title="user_shelf_init::user\l_init_ice_thickness">
<polygon fill="white" stroke="black" points="292,-0.5 292,-30.5 396,-30.5 396,-0.5 292,-0.5"/>
<text text-anchor="start" x="300" y="-18.5" font-family="Helvetica,sans-Serif" font-size="10.00">user_shelf_init::user</text>
<text text-anchor="middle" x="344" y="-7.5" font-family="Helvetica,sans-Serif" font-size="10.00">_init_ice_thickness</text>
</a>
</g>
</g>
<!-- Node14&#45;&gt;Node15 -->
<g id="edge2" class="edge"><title>Node14&#45;&gt;Node15</title>
<path fill="none" stroke="midnightblue" d="M266.005,-15.5C274.595,-15.5 283.297,-15.5 291.608,-15.5"/>
<polygon fill="midnightblue" stroke="midnightblue" points="266.002,-12.0001 256.002,-15.5 266.002,-19.0001 266.002,-12.0001"/>
</g>
<!-- Node16 -->
<g id="node4" class="node"><title>Node16</title>
<g id="a_node4"><a xlink:href="namespacemom__ice__shelf__initialize.html#ab040ec0f7f05b8b398ef9ae1cce704f9" target="_top" xlink:title="mom_ice_shelf_initialize\l::initialize_ice_thickness">
<polygon fill="white" stroke="black" points="432,-0.5 432,-30.5 555,-30.5 555,-0.5 432,-0.5"/>
<text text-anchor="start" x="440" y="-18.5" font-family="Helvetica,sans-Serif" font-size="10.00">mom_ice_shelf_initialize</text>
<text text-anchor="middle" x="493.5" y="-7.5" font-family="Helvetica,sans-Serif" font-size="10.00">::initialize_ice_thickness</text>
</a>
</g>
</g>
<!-- Node15&#45;&gt;Node16 -->
<g id="edge3" class="edge"><title>Node15&#45;&gt;Node16</title>
<path fill="none" stroke="midnightblue" d="M406.304,-15.5C414.724,-15.5 423.367,-15.5 431.776,-15.5"/>
<polygon fill="midnightblue" stroke="midnightblue" points="406.174,-12.0001 396.174,-15.5 406.174,-19.0001 406.174,-12.0001"/>
</g>
</g>
</svg>
