<?xml version="1.0" encoding="UTF-8" standalone="no"?>
<!DOCTYPE svg PUBLIC "-//W3C//DTD SVG 1.1//EN"
 "http://www.w3.org/Graphics/SVG/1.1/DTD/svg11.dtd">
<!-- Generated by graphviz version 2.38.0 (20140413.2041)
 -->
<!-- Title: mom_file_parser::overridewarninghasbeenissued Pages: 1 -->
<svg width="673pt" height="382pt"
 viewBox="0.00 0.00 673.00 382.00" xmlns="http://www.w3.org/2000/svg" xmlns:xlink="http://www.w3.org/1999/xlink">
<g id="graph0" class="graph" transform="scale(1 1) rotate(0) translate(4 378)">
<title>mom_file_parser::overridewarninghasbeenissued</title>
<polygon fill="white" stroke="none" points="-4,4 -4,-378 669,-378 669,4 -4,4"/>
<!-- Node272 -->
<g id="node1" class="node"><title>Node272</title>
<polygon fill="#bfbfbf" stroke="black" points="0,-177 0,-196 228,-196 228,-177 0,-177"/>
<text text-anchor="middle" x="114" y="-184" font-family="Helvetica,sans-Serif" font-size="10.00">mom_file_parser::overridewarninghasbeenissued</text>
</g>
<!-- Node273 -->
<g id="node2" class="node"><title>Node273</title>
<g id="a_node2"><a xlink:href="namespacemom__file__parser.html#af883df6020543889b25986d6ee9701f7" target="_top" xlink:title="mom_file_parser::get\l_variable_line">
<polygon fill="white" stroke="black" points="264,-171.5 264,-201.5 372,-201.5 372,-171.5 264,-171.5"/>
<text text-anchor="start" x="272" y="-189.5" font-family="Helvetica,sans-Serif" font-size="10.00">mom_file_parser::get</text>
<text text-anchor="middle" x="318" y="-178.5" font-family="Helvetica,sans-Serif" font-size="10.00">_variable_line</text>
</a>
</g>
</g>
<!-- Node272&#45;&gt;Node273 -->
<g id="edge1" class="edge"><title>Node272&#45;&gt;Node273</title>
<path fill="none" stroke="midnightblue" d="M238.24,-186.5C247.139,-186.5 255.795,-186.5 263.913,-186.5"/>
<polygon fill="midnightblue" stroke="midnightblue" points="238.106,-183 228.106,-186.5 238.106,-190 238.106,-183"/>
</g>
<!-- Node274 -->
<g id="node3" class="node"><title>Node274</title>
<g id="a_node3"><a xlink:href="namespacemom__file__parser.html#a14c84db15e417656105f7303ad0ac2a2" target="_top" xlink:title="mom_file_parser::read\l_param_char">
<polygon fill="white" stroke="black" points="408,-343.5 408,-373.5 521,-373.5 521,-343.5 408,-343.5"/>
<text text-anchor="start" x="416" y="-361.5" font-family="Helvetica,sans-Serif" font-size="10.00">mom_file_parser::read</text>
<text text-anchor="middle" x="464.5" y="-350.5" font-family="Helvetica,sans-Serif" font-size="10.00">_param_char</text>
</a>
</g>
</g>
<!-- Node273&#45;&gt;Node274 -->
<g id="edge2" class="edge"><title>Node273&#45;&gt;Node274</title>
<path fill="none" stroke="midnightblue" d="M328.219,-211.167C341.404,-243.441 368.498,-299.94 408,-334.5 411.871,-337.887 416.294,-340.857 420.915,-343.445"/>
<polygon fill="midnightblue" stroke="midnightblue" points="331.366,-209.607 324.429,-201.599 324.858,-212.185 331.366,-209.607"/>
</g>
<!-- Node276 -->
<g id="node5" class="node"><title>Node276</title>
<g id="a_node5"><a xlink:href="namespacemom__file__parser.html#a67808253e247b2542d0810e7c7f598f4" target="_top" xlink:title="mom_file_parser::read\l_param_char_array">
<polygon fill="white" stroke="black" points="408,-294.5 408,-324.5 521,-324.5 521,-294.5 408,-294.5"/>
<text text-anchor="start" x="416" y="-312.5" font-family="Helvetica,sans-Serif" font-size="10.00">mom_file_parser::read</text>
<text text-anchor="middle" x="464.5" y="-301.5" font-family="Helvetica,sans-Serif" font-size="10.00">_param_char_array</text>
</a>
</g>
</g>
<!-- Node273&#45;&gt;Node276 -->
<g id="edge4" class="edge"><title>Node273&#45;&gt;Node276</title>
<path fill="none" stroke="midnightblue" d="M335.374,-209.903C351.691,-231.824 378.512,-264.299 408,-285.5 412.603,-288.809 417.733,-291.79 422.964,-294.434"/>
<polygon fill="midnightblue" stroke="midnightblue" points="338.171,-207.799 329.449,-201.783 332.516,-211.924 338.171,-207.799"/>
</g>
<!-- Node278 -->
<g id="node7" class="node"><title>Node278</title>
<g id="a_node7"><a xlink:href="namespacemom__file__parser.html#a28352549cebdb1f8ed8db3655258d502" target="_top" xlink:title="mom_file_parser::read\l_param_int">
<polygon fill="white" stroke="black" points="408,-245.5 408,-275.5 521,-275.5 521,-245.5 408,-245.5"/>
<text text-anchor="start" x="416" y="-263.5" font-family="Helvetica,sans-Serif" font-size="10.00">mom_file_parser::read</text>
<text text-anchor="middle" x="464.5" y="-252.5" font-family="Helvetica,sans-Serif" font-size="10.00">_param_int</text>
</a>
</g>
</g>
<!-- Node273&#45;&gt;Node278 -->
<g id="edge6" class="edge"><title>Node273&#45;&gt;Node278</title>
<path fill="none" stroke="midnightblue" d="M353.026,-206.71C369.427,-216.167 389.509,-227.339 408,-236.5 414.114,-239.529 420.702,-242.568 427.128,-245.415"/>
<polygon fill="midnightblue" stroke="midnightblue" points="354.732,-203.653 344.327,-201.656 351.216,-209.706 354.732,-203.653"/>
</g>
<!-- Node280 -->
<g id="node9" class="node"><title>Node280</title>
<g id="a_node9"><a xlink:href="namespacemom__file__parser.html#a9f3cacd113743a19df607293b6c30ec7" target="_top" xlink:title="mom_file_parser::read\l_param_int_array">
<polygon fill="white" stroke="black" points="408,-196.5 408,-226.5 521,-226.5 521,-196.5 408,-196.5"/>
<text text-anchor="start" x="416" y="-214.5" font-family="Helvetica,sans-Serif" font-size="10.00">mom_file_parser::read</text>
<text text-anchor="middle" x="464.5" y="-203.5" font-family="Helvetica,sans-Serif" font-size="10.00">_param_int_array</text>
</a>
</g>
</g>
<!-- Node273&#45;&gt;Node280 -->
<g id="edge8" class="edge"><title>Node273&#45;&gt;Node280</title>
<path fill="none" stroke="midnightblue" d="M382.3,-197.452C390.827,-198.927 399.524,-200.431 407.904,-201.881"/>
<polygon fill="midnightblue" stroke="midnightblue" points="382.846,-193.994 372.396,-195.738 381.653,-200.892 382.846,-193.994"/>
</g>
<!-- Node282 -->
<g id="node11" class="node"><title>Node282</title>
<g id="a_node11"><a xlink:href="namespacemom__file__parser.html#ae12cfb8a4de90b0454683ba5810c79a2" target="_top" xlink:title="mom_file_parser::read\l_param_logical">
<polygon fill="white" stroke="black" points="408,-147.5 408,-177.5 521,-177.5 521,-147.5 408,-147.5"/>
<text text-anchor="start" x="416" y="-165.5" font-family="Helvetica,sans-Serif" font-size="10.00">mom_file_parser::read</text>
<text text-anchor="middle" x="464.5" y="-154.5" font-family="Helvetica,sans-Serif" font-size="10.00">_param_logical</text>
</a>
</g>
</g>
<!-- Node273&#45;&gt;Node282 -->
<g id="edge10" class="edge"><title>Node273&#45;&gt;Node282</title>
<path fill="none" stroke="midnightblue" d="M382.3,-175.987C390.827,-174.57 399.524,-173.126 407.904,-171.734"/>
<polygon fill="midnightblue" stroke="midnightblue" points="381.687,-172.54 372.396,-177.631 382.834,-179.446 381.687,-172.54"/>
</g>
<!-- Node284 -->
<g id="node13" class="node"><title>Node284</title>
<g id="a_node13"><a xlink:href="namespacemom__file__parser.html#ae390a91e4e858aa5dd3f88569aa9585e" target="_top" xlink:title="mom_file_parser::read\l_param_real">
<polygon fill="white" stroke="black" points="408,-98.5 408,-128.5 521,-128.5 521,-98.5 408,-98.5"/>
<text text-anchor="start" x="416" y="-116.5" font-family="Helvetica,sans-Serif" font-size="10.00">mom_file_parser::read</text>
<text text-anchor="middle" x="464.5" y="-105.5" font-family="Helvetica,sans-Serif" font-size="10.00">_param_real</text>
</a>
</g>
</g>
<!-- Node273&#45;&gt;Node284 -->
<g id="edge12" class="edge"><title>Node273&#45;&gt;Node284</title>
<path fill="none" stroke="midnightblue" d="M355.061,-166.295C371.128,-157.489 390.37,-147.211 408,-138.5 414.727,-135.176 421.991,-131.773 428.978,-128.59"/>
<polygon fill="midnightblue" stroke="midnightblue" points="353.073,-163.394 346.004,-171.286 356.451,-169.525 353.073,-163.394"/>
</g>
<!-- Node286 -->
<g id="node15" class="node"><title>Node286</title>
<g id="a_node15"><a xlink:href="namespacemom__file__parser.html#aea75f399368c1aa2215ba703f0639726" target="_top" xlink:title="mom_file_parser::read\l_param_real_array">
<polygon fill="white" stroke="black" points="408,-49.5 408,-79.5 521,-79.5 521,-49.5 408,-49.5"/>
<text text-anchor="start" x="416" y="-67.5" font-family="Helvetica,sans-Serif" font-size="10.00">mom_file_parser::read</text>
<text text-anchor="middle" x="464.5" y="-56.5" font-family="Helvetica,sans-Serif" font-size="10.00">_param_real_array</text>
</a>
</g>
</g>
<!-- Node273&#45;&gt;Node286 -->
<g id="edge14" class="edge"><title>Node273&#45;&gt;Node286</title>
<path fill="none" stroke="midnightblue" d="M336.041,-163.042C352.524,-141.661 379.184,-110.326 408,-89.5 413.053,-85.8478 418.725,-82.5512 424.463,-79.6402"/>
<polygon fill="midnightblue" stroke="midnightblue" points="333.068,-161.171 329.829,-171.259 338.651,-165.393 333.068,-161.171"/>
</g>
<!-- Node288 -->
<g id="node17" class="node"><title>Node288</title>
<g id="a_node17"><a xlink:href="namespacemom__file__parser.html#a799f1d8af038c5a64b7496018f03b590" target="_top" xlink:title="mom_file_parser::read\l_param_time">
<polygon fill="white" stroke="black" points="408,-0.5 408,-30.5 521,-30.5 521,-0.5 408,-0.5"/>
<text text-anchor="start" x="416" y="-18.5" font-family="Helvetica,sans-Serif" font-size="10.00">mom_file_parser::read</text>
<text text-anchor="middle" x="464.5" y="-7.5" font-family="Helvetica,sans-Serif" font-size="10.00">_param_time</text>
</a>
</g>
</g>
<!-- Node273&#45;&gt;Node288 -->
<g id="edge16" class="edge"><title>Node273&#45;&gt;Node288</title>
<path fill="none" stroke="midnightblue" d="M328.591,-161.764C342.031,-129.946 369.246,-74.7166 408,-40.5 412.278,-36.723 417.22,-33.4271 422.357,-30.5773"/>
<polygon fill="midnightblue" stroke="midnightblue" points="325.271,-160.635 324.714,-171.215 331.747,-163.292 325.271,-160.635"/>
</g>
<!-- Node275 -->
<g id="node4" class="node"><title>Node275</title>
<g id="a_node4"><a xlink:href="namespacemom__file__parser.html#a73ba84992b53a7898e3ea651da1847ed" target="_top" xlink:title="mom_file_parser::get\l_param_char">
<polygon fill="white" stroke="black" points="557,-343.5 557,-373.5 665,-373.5 665,-343.5 557,-343.5"/>
<text text-anchor="start" x="565" y="-361.5" font-family="Helvetica,sans-Serif" font-size="10.00">mom_file_parser::get</text>
<text text-anchor="middle" x="611" y="-350.5" font-family="Helvetica,sans-Serif" font-size="10.00">_param_char</text>
</a>
</g>
</g>
<!-- Node274&#45;&gt;Node275 -->
<g id="edge3" class="edge"><title>Node274&#45;&gt;Node275</title>
<path fill="none" stroke="midnightblue" d="M531.541,-358.5C539.952,-358.5 548.477,-358.5 556.654,-358.5"/>
<polygon fill="midnightblue" stroke="midnightblue" points="531.368,-355 521.367,-358.5 531.367,-362 531.368,-355"/>
</g>
<!-- Node277 -->
<g id="node6" class="node"><title>Node277</title>
<g id="a_node6"><a xlink:href="namespacemom__file__parser.html#aa3f8a251fb4f7bbae28b136ebc17a8f3" target="_top" xlink:title="mom_file_parser::get\l_param_char_array">
<polygon fill="white" stroke="black" points="557,-294.5 557,-324.5 665,-324.5 665,-294.5 557,-294.5"/>
<text text-anchor="start" x="565" y="-312.5" font-family="Helvetica,sans-Serif" font-size="10.00">mom_file_parser::get</text>
<text text-anchor="middle" x="611" y="-301.5" font-family="Helvetica,sans-Serif" font-size="10.00">_param_char_array</text>
</a>
</g>
</g>
<!-- Node276&#45;&gt;Node277 -->
<g id="edge5" class="edge"><title>Node276&#45;&gt;Node277</title>
<path fill="none" stroke="midnightblue" d="M531.541,-309.5C539.952,-309.5 548.477,-309.5 556.654,-309.5"/>
<polygon fill="midnightblue" stroke="midnightblue" points="531.368,-306 521.367,-309.5 531.367,-313 531.368,-306"/>
</g>
<!-- Node279 -->
<g id="node8" class="node"><title>Node279</title>
<g id="a_node8"><a xlink:href="namespacemom__file__parser.html#a797f8bbed6aae6cc7338c658cca42386" target="_top" xlink:title="mom_file_parser::get\l_param_int">
<polygon fill="white" stroke="black" points="557,-245.5 557,-275.5 665,-275.5 665,-245.5 557,-245.5"/>
<text text-anchor="start" x="565" y="-263.5" font-family="Helvetica,sans-Serif" font-size="10.00">mom_file_parser::get</text>
<text text-anchor="middle" x="611" y="-252.5" font-family="Helvetica,sans-Serif" font-size="10.00">_param_int</text>
</a>
</g>
</g>
<!-- Node278&#45;&gt;Node279 -->
<g id="edge7" class="edge"><title>Node278&#45;&gt;Node279</title>
<path fill="none" stroke="midnightblue" d="M531.541,-260.5C539.952,-260.5 548.477,-260.5 556.654,-260.5"/>
<polygon fill="midnightblue" stroke="midnightblue" points="531.368,-257 521.367,-260.5 531.367,-264 531.368,-257"/>
</g>
<!-- Node281 -->
<g id="node10" class="node"><title>Node281</title>
<g id="a_node10"><a xlink:href="namespacemom__file__parser.html#a6044e9a5add3d31c9c953a8a713fbb78" target="_top" xlink:title="mom_file_parser::get\l_param_int_array">
<polygon fill="white" stroke="black" points="557,-196.5 557,-226.5 665,-226.5 665,-196.5 557,-196.5"/>
<text text-anchor="start" x="565" y="-214.5" font-family="Helvetica,sans-Serif" font-size="10.00">mom_file_parser::get</text>
<text text-anchor="middle" x="611" y="-203.5" font-family="Helvetica,sans-Serif" font-size="10.00">_param_int_array</text>
</a>
</g>
</g>
<!-- Node280&#45;&gt;Node281 -->
<g id="edge9" class="edge"><title>Node280&#45;&gt;Node281</title>
<path fill="none" stroke="midnightblue" d="M531.541,-211.5C539.952,-211.5 548.477,-211.5 556.654,-211.5"/>
<polygon fill="midnightblue" stroke="midnightblue" points="531.368,-208 521.367,-211.5 531.367,-215 531.368,-208"/>
</g>
<!-- Node283 -->
<g id="node12" class="node"><title>Node283</title>
<g id="a_node12"><a xlink:href="namespacemom__file__parser.html#a94ff881b3a1fd1f0a013f52f0220810a" target="_top" xlink:title="mom_file_parser::get\l_param_logical">
<polygon fill="white" stroke="black" points="557,-147.5 557,-177.5 665,-177.5 665,-147.5 557,-147.5"/>
<text text-anchor="start" x="565" y="-165.5" font-family="Helvetica,sans-Serif" font-size="10.00">mom_file_parser::get</text>
<text text-anchor="middle" x="611" y="-154.5" font-family="Helvetica,sans-Serif" font-size="10.00">_param_logical</text>
</a>
</g>
</g>
<!-- Node282&#45;&gt;Node283 -->
<g id="edge11" class="edge"><title>Node282&#45;&gt;Node283</title>
<path fill="none" stroke="midnightblue" d="M531.541,-162.5C539.952,-162.5 548.477,-162.5 556.654,-162.5"/>
<polygon fill="midnightblue" stroke="midnightblue" points="531.368,-159 521.367,-162.5 531.367,-166 531.368,-159"/>
</g>
<!-- Node285 -->
<g id="node14" class="node"><title>Node285</title>
<g id="a_node14"><a xlink:href="namespacemom__file__parser.html#ad3ab0b86ed8dbac8c4ae556c24a6dd07" target="_top" xlink:title="mom_file_parser::get\l_param_real">
<polygon fill="white" stroke="black" points="557,-98.5 557,-128.5 665,-128.5 665,-98.5 557,-98.5"/>
<text text-anchor="start" x="565" y="-116.5" font-family="Helvetica,sans-Serif" font-size="10.00">mom_file_parser::get</text>
<text text-anchor="middle" x="611" y="-105.5" font-family="Helvetica,sans-Serif" font-size="10.00">_param_real</text>
</a>
</g>
</g>
<!-- Node284&#45;&gt;Node285 -->
<g id="edge13" class="edge"><title>Node284&#45;&gt;Node285</title>
<path fill="none" stroke="midnightblue" d="M531.541,-113.5C539.952,-113.5 548.477,-113.5 556.654,-113.5"/>
<polygon fill="midnightblue" stroke="midnightblue" points="531.368,-110 521.367,-113.5 531.367,-117 531.368,-110"/>
</g>
<!-- Node287 -->
<g id="node16" class="node"><title>Node287</title>
<g id="a_node16"><a xlink:href="namespacemom__file__parser.html#af43ea79dcb7ced6a6bf49d438d105f76" target="_top" xlink:title="mom_file_parser::get\l_param_real_array">
<polygon fill="white" stroke="black" points="557,-49.5 557,-79.5 665,-79.5 665,-49.5 557,-49.5"/>
<text text-anchor="start" x="565" y="-67.5" font-family="Helvetica,sans-Serif" font-size="10.00">mom_file_parser::get</text>
<text text-anchor="middle" x="611" y="-56.5" font-family="Helvetica,sans-Serif" font-size="10.00">_param_real_array</text>
</a>
</g>
</g>
<!-- Node286&#45;&gt;Node287 -->
<g id="edge15" class="edge"><title>Node286&#45;&gt;Node287</title>
<path fill="none" stroke="midnightblue" d="M531.541,-64.5C539.952,-64.5 548.477,-64.5 556.654,-64.5"/>
<polygon fill="midnightblue" stroke="midnightblue" points="531.368,-61.0001 521.367,-64.5 531.367,-68.0001 531.368,-61.0001"/>
</g>
<!-- Node289 -->
<g id="node18" class="node"><title>Node289</title>
<g id="a_node18"><a xlink:href="namespacemom__file__parser.html#afc249b1d8fb63bd4102b52c83030ce73" target="_top" xlink:title="mom_file_parser::get\l_param_time">
<polygon fill="white" stroke="black" points="557,-0.5 557,-30.5 665,-30.5 665,-0.5 557,-0.5"/>
<text text-anchor="start" x="565" y="-18.5" font-family="Helvetica,sans-Serif" font-size="10.00">mom_file_parser::get</text>
<text text-anchor="middle" x="611" y="-7.5" font-family="Helvetica,sans-Serif" font-size="10.00">_param_time</text>
</a>
</g>
</g>
<!-- Node288&#45;&gt;Node289 -->
<g id="edge17" class="edge"><title>Node288&#45;&gt;Node289</title>
<path fill="none" stroke="midnightblue" d="M531.541,-15.5C539.952,-15.5 548.477,-15.5 556.654,-15.5"/>
<polygon fill="midnightblue" stroke="midnightblue" points="531.368,-12.0001 521.367,-15.5 531.367,-19.0001 531.368,-12.0001"/>
</g>
</g>
</svg>
