<?xml version="1.0" encoding="UTF-8" standalone="no"?>
<!DOCTYPE svg PUBLIC "-//W3C//DTD SVG 1.1//EN"
 "http://www.w3.org/Graphics/SVG/1.1/DTD/svg11.dtd">
<!-- Generated by graphviz version 2.38.0 (20140413.2041)
 -->
<!-- Title: mom_file_parser::removecomments Pages: 1 -->
<svg width="907pt" height="78pt"
 viewBox="0.00 0.00 907.00 77.50" xmlns="http://www.w3.org/2000/svg" xmlns:xlink="http://www.w3.org/1999/xlink">
<g id="graph0" class="graph" transform="scale(1 1) rotate(0) translate(4 73.5)">
<title>mom_file_parser::removecomments</title>
<polygon fill="white" stroke="none" points="-4,4 -4,-73.5 903,-73.5 903,4 -4,4"/>
<!-- Node437 -->
<g id="node1" class="node"><title>Node437</title>
<polygon fill="#bfbfbf" stroke="black" points="0,-22.5 0,-41.5 173,-41.5 173,-22.5 0,-22.5"/>
<text text-anchor="middle" x="86.5" y="-29.5" font-family="Helvetica,sans-Serif" font-size="10.00">mom_file_parser::removecomments</text>
</g>
<!-- Node438 -->
<g id="node2" class="node"><title>Node438</title>
<g id="a_node2"><a xlink:href="namespacemom__file__parser.html#a7abfd98d7f0831fc0d1f3747a68f1be9" target="_top" xlink:title="mom_file_parser::populate\l_param_data">
<polygon fill="white" stroke="black" points="209,-17 209,-47 340,-47 340,-17 209,-17"/>
<text text-anchor="start" x="217" y="-35" font-family="Helvetica,sans-Serif" font-size="10.00">mom_file_parser::populate</text>
<text text-anchor="middle" x="274.5" y="-24" font-family="Helvetica,sans-Serif" font-size="10.00">_param_data</text>
</a>
</g>
</g>
<!-- Node437&#45;&gt;Node438 -->
<g id="edge1" class="edge"><title>Node437&#45;&gt;Node438</title>
<path fill="none" stroke="midnightblue" d="M183.308,-32C191.963,-32 200.586,-32 208.876,-32"/>
<polygon fill="midnightblue" stroke="midnightblue" points="183.15,-28.5001 173.15,-32 183.15,-35.5001 183.15,-28.5001"/>
</g>
<!-- Node439 -->
<g id="node3" class="node"><title>Node439</title>
<g id="a_node3"><a xlink:href="namespacemom__file__parser.html#abecae1b9386aafa17aec927af1f8c448" target="_top" xlink:title="mom_file_parser::open\l_param_file">
<polygon fill="white" stroke="black" points="376,-17 376,-47 492,-47 492,-17 376,-17"/>
<text text-anchor="start" x="384" y="-35" font-family="Helvetica,sans-Serif" font-size="10.00">mom_file_parser::open</text>
<text text-anchor="middle" x="434" y="-24" font-family="Helvetica,sans-Serif" font-size="10.00">_param_file</text>
</a>
</g>
</g>
<!-- Node438&#45;&gt;Node439 -->
<g id="edge2" class="edge"><title>Node438&#45;&gt;Node439</title>
<path fill="none" stroke="midnightblue" d="M350.132,-32C358.797,-32 367.529,-32 375.906,-32"/>
<polygon fill="midnightblue" stroke="midnightblue" points="350.016,-28.5001 340.016,-32 350.016,-35.5001 350.016,-28.5001"/>
</g>
<!-- Node440 -->
<g id="node4" class="node"><title>Node440</title>
<g id="a_node4"><a xlink:href="namespacemom__get__input.html#a299c5b9476662ef1a382e23a8d078143" target="_top" xlink:title="mom_get_input::get\l_mom_input">
<polygon fill="white" stroke="black" points="528,-17 528,-47 631,-47 631,-17 528,-17"/>
<text text-anchor="start" x="536" y="-35" font-family="Helvetica,sans-Serif" font-size="10.00">mom_get_input::get</text>
<text text-anchor="middle" x="579.5" y="-24" font-family="Helvetica,sans-Serif" font-size="10.00">_mom_input</text>
</a>
</g>
</g>
<!-- Node439&#45;&gt;Node440 -->
<g id="edge3" class="edge"><title>Node439&#45;&gt;Node440</title>
<path fill="none" stroke="midnightblue" d="M502.398,-32C510.878,-32 519.439,-32 527.606,-32"/>
<polygon fill="midnightblue" stroke="midnightblue" points="502.127,-28.5001 492.127,-32 502.127,-35.5001 502.127,-28.5001"/>
</g>
<!-- Node441 -->
<g id="node5" class="node"><title>Node441</title>
<g id="a_node5"><a xlink:href="namespaceocean__model__mod.html#a6b00b9a33be391bb23668abbfa4d99c6" target="_top" xlink:title="ocean_model_mod::ocean\l_model_flux_init">
<polygon fill="white" stroke="black" points="667,-39 667,-69 798,-69 798,-39 667,-39"/>
<text text-anchor="start" x="675" y="-57" font-family="Helvetica,sans-Serif" font-size="10.00">ocean_model_mod::ocean</text>
<text text-anchor="middle" x="732.5" y="-46" font-family="Helvetica,sans-Serif" font-size="10.00">_model_flux_init</text>
</a>
</g>
</g>
<!-- Node440&#45;&gt;Node441 -->
<g id="edge4" class="edge"><title>Node440&#45;&gt;Node441</title>
<path fill="none" stroke="midnightblue" d="M641.343,-40.8645C649.785,-42.0945 658.482,-43.3616 666.988,-44.601"/>
<polygon fill="midnightblue" stroke="midnightblue" points="641.601,-37.3653 631.201,-39.3869 640.592,-44.2921 641.601,-37.3653"/>
</g>
<!-- Node442 -->
<g id="node6" class="node"><title>Node442</title>
<g id="a_node6"><a xlink:href="namespacemom.html#a0be2869fef30e1e0604facfe1b41555d" target="_top" xlink:title="This subroutine initializes MOM. ">
<polygon fill="white" stroke="black" points="679,-0.5 679,-19.5 786,-19.5 786,-0.5 679,-0.5"/>
<text text-anchor="middle" x="732.5" y="-7.5" font-family="Helvetica,sans-Serif" font-size="10.00">mom::initialize_mom</text>
</a>
</g>
</g>
<!-- Node440&#45;&gt;Node442 -->
<g id="edge5" class="edge"><title>Node440&#45;&gt;Node442</title>
<path fill="none" stroke="midnightblue" d="M641.455,-23.1191C653.851,-21.3131 666.791,-19.4278 678.869,-17.6681"/>
<polygon fill="midnightblue" stroke="midnightblue" points="640.592,-19.7079 631.201,-24.6131 641.601,-26.6347 640.592,-19.7079"/>
</g>
<!-- Node443 -->
<g id="node7" class="node"><title>Node443</title>
<g id="a_node7"><a xlink:href="MOM__driver_8F90.html#a08fffeb2d8e8acbf9ed4609be6d258c6" target="_top" xlink:title="mom_main">
<polygon fill="white" stroke="black" points="834,-0.5 834,-19.5 899,-19.5 899,-0.5 834,-0.5"/>
<text text-anchor="middle" x="866.5" y="-7.5" font-family="Helvetica,sans-Serif" font-size="10.00">mom_main</text>
</a>
</g>
</g>
<!-- Node442&#45;&gt;Node443 -->
<g id="edge6" class="edge"><title>Node442&#45;&gt;Node443</title>
<path fill="none" stroke="midnightblue" d="M796.351,-10C809.288,-10 822.386,-10 833.652,-10"/>
<polygon fill="midnightblue" stroke="midnightblue" points="796.049,-6.5001 786.049,-10 796.049,-13.5001 796.049,-6.5001"/>
</g>
</g>
</svg>
