<?xml version="1.0" encoding="UTF-8" standalone="no"?>
<!DOCTYPE svg PUBLIC "-//W3C//DTD SVG 1.1//EN"
 "http://www.w3.org/Graphics/SVG/1.1/DTD/svg11.dtd">
<!-- Generated by graphviz version 2.38.0 (20140413.2041)
 -->
<!-- Title: mom_sponge::initialize_sponge Pages: 1 -->
<!--zoomable 307 -->
<svg id="main" version="1.1" xmlns="http://www.w3.org/2000/svg" xmlns:xlink="http://www.w3.org/1999/xlink" xml:space="preserve" onload="init(evt)">
<style type="text/css"><![CDATA[
.edge:hover path { stroke: red; }
.edge:hover polygon { stroke: red; fill: red; }
]]></style>
<script type="text/javascript"><![CDATA[
var edges = document.getElementsByTagName('g');
if (edges && edges.length) {
  for (var i=0;i<edges.length;i++) {
    if (edges[i].id.substr(0,4)=='edge') {
      edges[i].setAttribute('class','edge');
    }
  }
}
]]></script>
        <defs>
                <circle id="rim" cx="0" cy="0" r="7"/>
                <circle id="rim2" cx="0" cy="0" r="3.5"/>
                <g id="zoomPlus">
                        <use xlink:href="#rim" fill="#404040">
                                <set attributeName="fill" to="#808080" begin="zoomplus.mouseover" end="zoomplus.mouseout"/>
                        </use>
                        <path d="M-4,0h8M0,-4v8" fill="none" stroke="white" stroke-width="1.5" pointer-events="none"/>
                </g>
                <g id="zoomMin">
                        <use xlink:href="#rim" fill="#404040">
                                <set attributeName="fill" to="#808080" begin="zoomminus.mouseover" end="zoomminus.mouseout"/>
                        </use>
                        <path d="M-4,0h8" fill="none" stroke="white" stroke-width="1.5" pointer-events="none"/>
                </g>
                <g id="dirArrow">
                        <path fill="none" stroke="white" stroke-width="1.5" d="M0,-3.0v7 M-2.5,-0.5L0,-3.0L2.5,-0.5"/>
                </g>
               <g id="resetDef">
                       <use xlink:href="#rim2" fill="#404040">
                               <set attributeName="fill" to="#808080" begin="reset.mouseover" end="reset.mouseout"/>
                       </use>
               </g>
        </defs>

<script type="text/javascript">
var viewWidth = 702;
var viewHeight = 307;
var sectionId = 'dynsection-4';
</script>
<script xlink:href="svgpan.js"/>
<svg id="graph" class="graph">
<g id="viewport">
<title>mom_sponge::initialize_sponge</title>
<polygon fill="white" stroke="none" points="-4,4 -4,-303 698,-303 698,4 -4,4"/>
<!-- Node15 -->
<g id="node1" class="node"><title>Node15</title>
<polygon fill="#bfbfbf" stroke="black" points="0,-134 0,-164 116,-164 116,-134 0,-134"/>
<text text-anchor="start" x="8" y="-152" font-family="Helvetica,sans-Serif" font-size="10.00">mom_sponge::initialize</text>
<text text-anchor="middle" x="58" y="-141" font-family="Helvetica,sans-Serif" font-size="10.00">_sponge</text>
</g>
<!-- Node16 -->
<g id="node2" class="node"><title>Node16</title>
<g id="a_node2"><a xlink:href="namespacebfb__initialization.html#a03de1f1af12eab371cc0e4336a749ccf" target="_top" xlink:title="bfb_initialization\l::bfb_initialize_sponges\l_southonly">
<polygon fill="white" stroke="black" points="162.5,-257.5 162.5,-298.5 281.5,-298.5 281.5,-257.5 162.5,-257.5"/>
<text text-anchor="start" x="170.5" y="-286.5" font-family="Helvetica,sans-Serif" font-size="10.00">bfb_initialization</text>
<text text-anchor="start" x="170.5" y="-275.5" font-family="Helvetica,sans-Serif" font-size="10.00">::bfb_initialize_sponges</text>
<text text-anchor="middle" x="222" y="-264.5" font-family="Helvetica,sans-Serif" font-size="10.00">_southonly</text>
</a>
</g>
</g>
<!-- Node15&#45;&gt;Node16 -->
<g id="edge1" class="edge"><title>Node15&#45;&gt;Node16</title>
<path fill="none" stroke="midnightblue" d="M76.3388,-172.345C93.5559,-194.223 121.699,-226.669 152,-248 156.807,-251.384 162.055,-254.505 167.442,-257.351"/>
<polygon fill="midnightblue" stroke="midnightblue" points="78.963,-170.017 70.0805,-164.242 73.423,-174.296 78.963,-170.017"/>
</g>
<!-- Node20 -->
<g id="node6" class="node"><title>Node20</title>
<g id="a_node6"><a xlink:href="namespacedome2d__initialization.html#ab0df2b602fe1c83baa66ba03cc2c6dd4" target="_top" xlink:title="Set up sponges in 2d DOME configuration. ">
<polygon fill="white" stroke="black" points="152,-208 152,-238 292,-238 292,-208 152,-208"/>
<text text-anchor="start" x="160" y="-226" font-family="Helvetica,sans-Serif" font-size="10.00">dome2d_initialization</text>
<text text-anchor="middle" x="222" y="-215" font-family="Helvetica,sans-Serif" font-size="10.00">::dome2d_initialize_sponges</text>
</a>
</g>
</g>
<!-- Node15&#45;&gt;Node20 -->
<g id="edge5" class="edge"><title>Node15&#45;&gt;Node20</title>
<path fill="none" stroke="midnightblue" d="M93.6195,-169.307C110.845,-178.971 132.176,-190.289 152,-199 159.199,-202.163 166.958,-205.202 174.584,-207.991"/>
<polygon fill="midnightblue" stroke="midnightblue" points="94.932,-166.028 84.5076,-164.135 91.4767,-172.115 94.932,-166.028"/>
</g>
<!-- Node21 -->
<g id="node7" class="node"><title>Node21</title>
<g id="a_node7"><a xlink:href="namespacedome__initialization.html#a407c1b2429d1d5abd600d3d3cd35ac38" target="_top" xlink:title="This subroutine sets the inverse restoration time (Idamp), and ! the values towards which the interfa...">
<polygon fill="white" stroke="black" points="157.5,-159 157.5,-189 286.5,-189 286.5,-159 157.5,-159"/>
<text text-anchor="start" x="165.5" y="-177" font-family="Helvetica,sans-Serif" font-size="10.00">dome_initialization</text>
<text text-anchor="middle" x="222" y="-166" font-family="Helvetica,sans-Serif" font-size="10.00">::dome_initialize_sponges</text>
</a>
</g>
</g>
<!-- Node15&#45;&gt;Node21 -->
<g id="edge7" class="edge"><title>Node15&#45;&gt;Node21</title>
<path fill="none" stroke="midnightblue" d="M126.242,-159.377C136.495,-160.959 147.05,-162.588 157.226,-164.158"/>
<polygon fill="midnightblue" stroke="midnightblue" points="126.532,-155.88 116.115,-157.814 125.464,-162.798 126.532,-155.88"/>
</g>
<!-- Node22 -->
<g id="node8" class="node"><title>Node22</title>
<g id="a_node8"><a xlink:href="namespacemom__state__initialization.html#a99730b61ad00c449a56beff4d9e5ed0a" target="_top" xlink:title="This subroutine sets the inverse restoration time (Idamp), and the values towards which the interface...">
<polygon fill="white" stroke="black" points="161,-110 161,-140 283,-140 283,-110 161,-110"/>
<text text-anchor="start" x="169" y="-128" font-family="Helvetica,sans-Serif" font-size="10.00">mom_state_initialization</text>
<text text-anchor="middle" x="222" y="-117" font-family="Helvetica,sans-Serif" font-size="10.00">::initialize_sponges_file</text>
</a>
</g>
</g>
<!-- Node15&#45;&gt;Node22 -->
<g id="edge9" class="edge"><title>Node15&#45;&gt;Node22</title>
<path fill="none" stroke="midnightblue" d="M126.108,-139.058C137.62,-137.353 149.517,-135.59 160.833,-133.914"/>
<polygon fill="midnightblue" stroke="midnightblue" points="125.494,-135.611 116.115,-140.538 126.52,-142.535 125.494,-135.611"/>
</g>
<!-- Node23 -->
<g id="node9" class="node"><title>Node23</title>
<g id="a_node9"><a xlink:href="namespaceisomip__initialization.html#a672219a0070f4491fc1a8d9c20c6c1e4" target="_top" xlink:title="Sets up the the inverse restoration time (Idamp), and. ">
<polygon fill="white" stroke="black" points="155,-61 155,-91 289,-91 289,-61 155,-61"/>
<text text-anchor="start" x="163" y="-79" font-family="Helvetica,sans-Serif" font-size="10.00">isomip_initialization</text>
<text text-anchor="middle" x="222" y="-68" font-family="Helvetica,sans-Serif" font-size="10.00">::isomip_initialize_sponges</text>
</a>
</g>
</g>
<!-- Node15&#45;&gt;Node23 -->
<g id="edge11" class="edge"><title>Node15&#45;&gt;Node23</title>
<path fill="none" stroke="midnightblue" d="M94.8719,-129.112C111.928,-120.013 132.755,-109.411 152,-101 159.939,-97.5303 168.529,-94.1399 176.863,-91.0316"/>
<polygon fill="midnightblue" stroke="midnightblue" points="92.9622,-126.165 85.8181,-133.989 96.2819,-132.328 92.9622,-126.165"/>
</g>
<!-- Node24 -->
<g id="node10" class="node"><title>Node24</title>
<g id="a_node10"><a xlink:href="namespacephillips__initialization.html#ab288e8ab915b23a2def100493d7ff434" target="_top" xlink:title="Sets up the the inverse restoration time (Idamp), and. ">
<polygon fill="white" stroke="black" points="170.5,-0.5 170.5,-41.5 273.5,-41.5 273.5,-0.5 170.5,-0.5"/>
<text text-anchor="start" x="178.5" y="-29.5" font-family="Helvetica,sans-Serif" font-size="10.00">phillips_initialization</text>
<text text-anchor="start" x="178.5" y="-18.5" font-family="Helvetica,sans-Serif" font-size="10.00">::phillips_initialize</text>
<text text-anchor="middle" x="222" y="-7.5" font-family="Helvetica,sans-Serif" font-size="10.00">_sponges</text>
</a>
</g>
</g>
<!-- Node15&#45;&gt;Node24 -->
<g id="edge12" class="edge"><title>Node15&#45;&gt;Node24</title>
<path fill="none" stroke="midnightblue" d="M76.7858,-125.869C94.1387,-104.513 122.211,-73.0135 152,-52 157.688,-47.9879 163.978,-44.3083 170.377,-40.9956"/>
<polygon fill="midnightblue" stroke="midnightblue" points="73.9667,-123.791 70.463,-133.789 79.4373,-128.158 73.9667,-123.791"/>
</g>
<!-- Node17 -->
<g id="node3" class="node"><title>Node17</title>
<g id="a_node3"><a xlink:href="namespacemom__state__initialization.html#af4e854627c6572332ba3fd895f169321" target="_top" xlink:title="mom_state_initialization\l::mom_initialize_state">
<polygon fill="white" stroke="black" points="328,-159 328,-189 450,-189 450,-159 328,-159"/>
<text text-anchor="start" x="336" y="-177" font-family="Helvetica,sans-Serif" font-size="10.00">mom_state_initialization</text>
<text text-anchor="middle" x="389" y="-166" font-family="Helvetica,sans-Serif" font-size="10.00">::mom_initialize_state</text>
</a>
</g>
</g>
<!-- Node16&#45;&gt;Node17 -->
<g id="edge2" class="edge"><title>Node16&#45;&gt;Node17</title>
<path fill="none" stroke="midnightblue" d="M283.286,-252.858C286.267,-251.283 289.188,-249.66 292,-248 321.717,-230.452 352.757,-205.018 371.23,-189.003"/>
<polygon fill="midnightblue" stroke="midnightblue" points="281.56,-249.809 274.207,-257.437 284.712,-256.059 281.56,-249.809"/>
</g>
<!-- Node18 -->
<g id="node4" class="node"><title>Node18</title>
<g id="a_node4"><a xlink:href="namespacemom.html#a0be2869fef30e1e0604facfe1b41555d" target="_top" xlink:title="This subroutine initializes MOM. ">
<polygon fill="white" stroke="black" points="486,-164.5 486,-183.5 593,-183.5 593,-164.5 486,-164.5"/>
<text text-anchor="middle" x="539.5" y="-171.5" font-family="Helvetica,sans-Serif" font-size="10.00">mom::initialize_mom</text>
</a>
</g>
</g>
<!-- Node17&#45;&gt;Node18 -->
<g id="edge3" class="edge"><title>Node17&#45;&gt;Node18</title>
<path fill="none" stroke="midnightblue" d="M460.657,-174C469.116,-174 477.636,-174 485.779,-174"/>
<polygon fill="midnightblue" stroke="midnightblue" points="460.401,-170.5 450.401,-174 460.401,-177.5 460.401,-170.5"/>
</g>
<!-- Node19 -->
<g id="node5" class="node"><title>Node19</title>
<g id="a_node5"><a xlink:href="MOM__driver_8F90.html#a08fffeb2d8e8acbf9ed4609be6d258c6" target="_top" xlink:title="mom_main">
<polygon fill="white" stroke="black" points="629,-164.5 629,-183.5 694,-183.5 694,-164.5 629,-164.5"/>
<text text-anchor="middle" x="661.5" y="-171.5" font-family="Helvetica,sans-Serif" font-size="10.00">mom_main</text>
</a>
</g>
</g>
<!-- Node18&#45;&gt;Node19 -->
<g id="edge4" class="edge"><title>Node18&#45;&gt;Node19</title>
<path fill="none" stroke="midnightblue" d="M603.206,-174C612.134,-174 620.983,-174 628.958,-174"/>
<polygon fill="midnightblue" stroke="midnightblue" points="603.134,-170.5 593.134,-174 603.134,-177.5 603.134,-170.5"/>
</g>
<!-- Node20&#45;&gt;Node17 -->
<g id="edge6" class="edge"><title>Node20&#45;&gt;Node17</title>
<path fill="none" stroke="midnightblue" d="M283.501,-205.033C301.18,-199.783 320.313,-194.101 337.316,-189.052"/>
<polygon fill="midnightblue" stroke="midnightblue" points="282.442,-201.696 273.852,-207.899 284.434,-208.407 282.442,-201.696"/>
</g>
<!-- Node21&#45;&gt;Node17 -->
<g id="edge8" class="edge"><title>Node21&#45;&gt;Node17</title>
<path fill="none" stroke="midnightblue" d="M297.036,-174C307.362,-174 317.867,-174 327.894,-174"/>
<polygon fill="midnightblue" stroke="midnightblue" points="296.793,-170.5 286.793,-174 296.793,-177.5 296.793,-170.5"/>
</g>
<!-- Node22&#45;&gt;Node17 -->
<g id="edge10" class="edge"><title>Node22&#45;&gt;Node17</title>
<path fill="none" stroke="midnightblue" d="M283.501,-142.967C301.18,-148.217 320.313,-153.899 337.316,-158.948"/>
<polygon fill="midnightblue" stroke="midnightblue" points="284.434,-139.593 273.852,-140.101 282.442,-146.304 284.434,-139.593"/>
</g>
<!-- Node24&#45;&gt;Node17 -->
<g id="edge13" class="edge"><title>Node24&#45;&gt;Node17</title>
<path fill="none" stroke="midnightblue" d="M282.572,-45.4335C285.861,-47.4919 289.031,-49.6807 292,-52 331.717,-83.0272 364.634,-133.823 379.493,-158.951"/>
<polygon fill="midnightblue" stroke="midnightblue" points="284.058,-42.2501 273.646,-40.2893 280.563,-48.315 284.058,-42.2501"/>
</g>
</g>
</svg>
        <g id="navigator" transform="translate(0 0)" fill="#404254">
                <rect fill="#f2f5e9" fill-opacity="0.5" stroke="#606060" stroke-width=".5" x="0" y="0" width="60" height="60"/>
                <use id="zoomplus" xlink:href="#zoomPlus" x="17" y="9" onmousedown="handleZoom(evt,'in')"/>
                <use id="zoomminus" xlink:href="#zoomMin" x="42" y="9" onmousedown="handleZoom(evt,'out')"/>
                <use id="reset" xlink:href="#resetDef" x="30" y="36" onmousedown="handleReset()"/>
                <g id="arrowUp" xlink:href="#dirArrow" transform="translate(30 24)" onmousedown="handlePan(0,-1)">
                  <use xlink:href="#rim" fill="#404040">
                        <set attributeName="fill" to="#808080" begin="arrowUp.mouseover" end="arrowUp.mouseout"/>
                  </use>
                  <path fill="none" stroke="white" stroke-width="1.5" d="M0,-3.0v7 M-2.5,-0.5L0,-3.0L2.5,-0.5"/>
                </g>
                <g id="arrowRight" xlink:href="#dirArrow" transform="rotate(90) translate(36 -43)" onmousedown="handlePan(1,0)">
                  <use xlink:href="#rim" fill="#404040">
                        <set attributeName="fill" to="#808080" begin="arrowRight.mouseover" end="arrowRight.mouseout"/>
                  </use>
                  <path fill="none" stroke="white" stroke-width="1.5" d="M0,-3.0v7 M-2.5,-0.5L0,-3.0L2.5,-0.5"/>
                </g>
                <g id="arrowDown" xlink:href="#dirArrow" transform="rotate(180) translate(-30 -48)" onmousedown="handlePan(0,1)">
                  <use xlink:href="#rim" fill="#404040">
                        <set attributeName="fill" to="#808080" begin="arrowDown.mouseover" end="arrowDown.mouseout"/>
                  </use>
                  <path fill="none" stroke="white" stroke-width="1.5" d="M0,-3.0v7 M-2.5,-0.5L0,-3.0L2.5,-0.5"/>
                </g>
                <g id="arrowLeft" xlink:href="#dirArrow" transform="rotate(270) translate(-36 17)" onmousedown="handlePan(-1,0)">
                  <use xlink:href="#rim" fill="#404040">
                        <set attributeName="fill" to="#808080" begin="arrowLeft.mouseover" end="arrowLeft.mouseout"/>
                  </use>
                  <path fill="none" stroke="white" stroke-width="1.5" d="M0,-3.0v7 M-2.5,-0.5L0,-3.0L2.5,-0.5"/>
                </g>
        </g>
        <svg viewBox="0 0 15 15" width="100%" height="30px" preserveAspectRatio="xMaxYMin meet">
         <g id="arrow_out" transform="scale(0.3 0.3)">
          <a xlink:href="namespacemom__sponge_a61184539a8e8e9d27dd9071c509b68bf_icgraph_org.svg" target="_base">
           <rect id="button" ry="5" rx="5" y="6" x="6" height="38" width="38"
                fill="#f2f5e9" fill-opacity="0.5" stroke="#606060" stroke-width="1.0"/>
           <path id="arrow"
             d="M 11.500037,31.436501 C 11.940474,20.09759 22.043105,11.32322 32.158766,21.979434 L 37.068811,17.246167 C 37.068811,17.246167 37.088388,32 37.088388,32 L 22.160133,31.978069 C 22.160133,31.978069 26.997745,27.140456 26.997745,27.140456 C 18.528582,18.264221 13.291696,25.230495 11.500037,31.436501 z"
             style="fill:#404040;"/>
          </a>
         </g>
        </svg>
</svg>
