<?xml version="1.0" encoding="UTF-8" standalone="no"?>
<!DOCTYPE svg PUBLIC "-//W3C//DTD SVG 1.1//EN"
 "http://www.w3.org/Graphics/SVG/1.1/DTD/svg11.dtd">
<!-- Generated by graphviz version 2.38.0 (20140413.2041)
 -->
<!-- Title: mom_tracer_z_init::tracer_z_init Pages: 1 -->
<svg width="431pt" height="149pt"
 viewBox="0.00 0.00 431.00 149.00" xmlns="http://www.w3.org/2000/svg" xmlns:xlink="http://www.w3.org/1999/xlink">
<g id="graph0" class="graph" transform="scale(1 1) rotate(0) translate(4 145)">
<title>mom_tracer_z_init::tracer_z_init</title>
<polygon fill="white" stroke="none" points="-4,4 -4,-145 427,-145 427,4 -4,4"/>
<!-- Node17 -->
<g id="node1" class="node"><title>Node17</title>
<polygon fill="#bfbfbf" stroke="black" points="0,-55.5 0,-85.5 103,-85.5 103,-55.5 0,-55.5"/>
<text text-anchor="start" x="8" y="-73.5" font-family="Helvetica,sans-Serif" font-size="10.00">mom_tracer_z_init::</text>
<text text-anchor="middle" x="51.5" y="-62.5" font-family="Helvetica,sans-Serif" font-size="10.00">tracer_z_init</text>
</g>
<!-- Node18 -->
<g id="node2" class="node"><title>Node18</title>
<g id="a_node2"><a xlink:href="namespacemom__ocmip2__cfc.html#a403331f12c4b16682f42f284bf57f330" target="_top" xlink:title="This subroutine initializes a tracer array. ">
<polygon fill="white" stroke="black" points="139,-110.5 139,-140.5 252,-140.5 252,-110.5 139,-110.5"/>
<text text-anchor="start" x="147" y="-128.5" font-family="Helvetica,sans-Serif" font-size="10.00">mom_ocmip2_cfc::init</text>
<text text-anchor="middle" x="195.5" y="-117.5" font-family="Helvetica,sans-Serif" font-size="10.00">_tracer_cfc</text>
</a>
</g>
</g>
<!-- Node17&#45;&gt;Node18 -->
<g id="edge1" class="edge"><title>Node17&#45;&gt;Node18</title>
<path fill="none" stroke="midnightblue" d="M100.979,-89.2771C118.85,-96.199 138.845,-103.943 155.745,-110.489"/>
<polygon fill="midnightblue" stroke="midnightblue" points="101.891,-85.8771 91.3021,-85.529 99.363,-92.4046 101.891,-85.8771"/>
</g>
<!-- Node20 -->
<g id="node4" class="node"><title>Node20</title>
<g id="a_node4"><a xlink:href="namespaceideal__age__example.html#abec4db7c44f7a6d5c891a6d8a17a99b3" target="_top" xlink:title="ideal_age_example::\linitialize_ideal_age\l_tracer">
<polygon fill="white" stroke="black" points="142.5,-50 142.5,-91 248.5,-91 248.5,-50 142.5,-50"/>
<text text-anchor="start" x="150.5" y="-79" font-family="Helvetica,sans-Serif" font-size="10.00">ideal_age_example::</text>
<text text-anchor="start" x="150.5" y="-68" font-family="Helvetica,sans-Serif" font-size="10.00">initialize_ideal_age</text>
<text text-anchor="middle" x="195.5" y="-57" font-family="Helvetica,sans-Serif" font-size="10.00">_tracer</text>
</a>
</g>
</g>
<!-- Node17&#45;&gt;Node20 -->
<g id="edge3" class="edge"><title>Node17&#45;&gt;Node20</title>
<path fill="none" stroke="midnightblue" d="M113.545,-70.5C123.046,-70.5 132.789,-70.5 142.077,-70.5"/>
<polygon fill="midnightblue" stroke="midnightblue" points="113.364,-67.0001 103.364,-70.5 113.364,-74.0001 113.364,-67.0001"/>
</g>
<!-- Node21 -->
<g id="node5" class="node"><title>Node21</title>
<g id="a_node5"><a xlink:href="namespaceoil__tracer.html#a2bb5dd516d506706c1e67e1206e389b5" target="_top" xlink:title="oil_tracer::initialize\l_oil_tracer">
<polygon fill="white" stroke="black" points="146.5,-0.5 146.5,-30.5 244.5,-30.5 244.5,-0.5 146.5,-0.5"/>
<text text-anchor="start" x="154.5" y="-18.5" font-family="Helvetica,sans-Serif" font-size="10.00">oil_tracer::initialize</text>
<text text-anchor="middle" x="195.5" y="-7.5" font-family="Helvetica,sans-Serif" font-size="10.00">_oil_tracer</text>
</a>
</g>
</g>
<!-- Node17&#45;&gt;Node21 -->
<g id="edge4" class="edge"><title>Node17&#45;&gt;Node21</title>
<path fill="none" stroke="midnightblue" d="M100.979,-51.7229C118.85,-44.801 138.845,-37.0566 155.745,-30.5108"/>
<polygon fill="midnightblue" stroke="midnightblue" points="99.363,-48.5954 91.3021,-55.471 101.891,-55.1229 99.363,-48.5954"/>
</g>
<!-- Node19 -->
<g id="node3" class="node"><title>Node19</title>
<g id="a_node3"><a xlink:href="namespacemom__ocmip2__cfc.html#a0c916b2f0835bd79002803f246d2ef49" target="_top" xlink:title="This subroutine initializes the NTR tracer fields in tr(:,:,:,:) and it sets up the tracer output...">
<polygon fill="white" stroke="black" points="288,-110.5 288,-140.5 423,-140.5 423,-110.5 288,-110.5"/>
<text text-anchor="start" x="296" y="-128.5" font-family="Helvetica,sans-Serif" font-size="10.00">mom_ocmip2_cfc::initialize</text>
<text text-anchor="middle" x="355.5" y="-117.5" font-family="Helvetica,sans-Serif" font-size="10.00">_ocmip2_cfc</text>
</a>
</g>
</g>
<!-- Node18&#45;&gt;Node19 -->
<g id="edge2" class="edge"><title>Node18&#45;&gt;Node19</title>
<path fill="none" stroke="midnightblue" d="M262.377,-125.5C270.822,-125.5 279.473,-125.5 287.928,-125.5"/>
<polygon fill="midnightblue" stroke="midnightblue" points="262.205,-122 252.205,-125.5 262.205,-129 262.205,-122"/>
</g>
</g>
</svg>
