<?xml version="1.0" encoding="UTF-8" standalone="no"?>
<!DOCTYPE svg PUBLIC "-//W3C//DTD SVG 1.1//EN"
 "http://www.w3.org/Graphics/SVG/1.1/DTD/svg11.dtd">
<!-- Generated by graphviz version 2.38.0 (20140413.2041)
 -->
<!-- Title: p3m_functions::p3m_boundary_extrapolation Pages: 1 -->
<svg width="303pt" height="137pt"
 viewBox="0.00 0.00 303.00 137.00" xmlns="http://www.w3.org/2000/svg" xmlns:xlink="http://www.w3.org/1999/xlink">
<g id="graph0" class="graph" transform="scale(1 1) rotate(0) translate(4 133)">
<title>p3m_functions::p3m_boundary_extrapolation</title>
<polygon fill="white" stroke="none" points="-4,4 -4,-133 299,-133 299,4 -4,4"/>
<!-- Node36 -->
<g id="node1" class="node"><title>Node36</title>
<polygon fill="#bfbfbf" stroke="black" points="0,-49.5 0,-79.5 122,-79.5 122,-49.5 0,-49.5"/>
<text text-anchor="start" x="8" y="-67.5" font-family="Helvetica,sans-Serif" font-size="10.00">p3m_functions::p3m</text>
<text text-anchor="middle" x="61" y="-56.5" font-family="Helvetica,sans-Serif" font-size="10.00">_boundary_extrapolation</text>
</g>
<!-- Node37 -->
<g id="node2" class="node"><title>Node37</title>
<g id="a_node2"><a xlink:href="namespacep3m__functions.html#a073c1f3e8fabe99bdae91ef37e5161ee" target="_top" xlink:title="p3m_functions::build\l_cubic_interpolant">
<polygon fill="white" stroke="black" points="173,-98.5 173,-128.5 280,-128.5 280,-98.5 173,-98.5"/>
<text text-anchor="start" x="181" y="-116.5" font-family="Helvetica,sans-Serif" font-size="10.00">p3m_functions::build</text>
<text text-anchor="middle" x="226.5" y="-105.5" font-family="Helvetica,sans-Serif" font-size="10.00">_cubic_interpolant</text>
</a>
</g>
</g>
<!-- Node36&#45;&gt;Node37 -->
<g id="edge1" class="edge"><title>Node36&#45;&gt;Node37</title>
<path fill="none" stroke="midnightblue" d="M112.389,-79.6014C129.096,-84.6083 147.862,-90.2324 165.235,-95.439"/>
<polygon fill="midnightblue" stroke="midnightblue" points="164.693,-98.9302 175.277,-98.4484 166.703,-92.2249 164.693,-98.9302"/>
</g>
<!-- Node38 -->
<g id="node3" class="node"><title>Node38</title>
<g id="a_node3"><a xlink:href="namespacep3m__functions.html#a7c194c12772ac968650dc2072d5b32ba" target="_top" xlink:title="p3m_functions::is_cubic\l_monotonic">
<polygon fill="white" stroke="black" points="165.5,-49.5 165.5,-79.5 287.5,-79.5 287.5,-49.5 165.5,-49.5"/>
<text text-anchor="start" x="173.5" y="-67.5" font-family="Helvetica,sans-Serif" font-size="10.00">p3m_functions::is_cubic</text>
<text text-anchor="middle" x="226.5" y="-56.5" font-family="Helvetica,sans-Serif" font-size="10.00">_monotonic</text>
</a>
</g>
</g>
<!-- Node36&#45;&gt;Node38 -->
<g id="edge2" class="edge"><title>Node36&#45;&gt;Node38</title>
<path fill="none" stroke="midnightblue" d="M122.417,-64.5C133.033,-64.5 144.165,-64.5 155.027,-64.5"/>
<polygon fill="midnightblue" stroke="midnightblue" points="155.332,-68.0001 165.331,-64.5 155.331,-61.0001 155.332,-68.0001"/>
</g>
<!-- Node39 -->
<g id="node4" class="node"><title>Node39</title>
<g id="a_node4"><a xlink:href="namespacep3m__functions.html#adb96651fe725f11e90dec2b8509989b0" target="_top" xlink:title="p3m_functions::monotonize\l_cubic">
<polygon fill="white" stroke="black" points="158,-0.5 158,-30.5 295,-30.5 295,-0.5 158,-0.5"/>
<text text-anchor="start" x="166" y="-18.5" font-family="Helvetica,sans-Serif" font-size="10.00">p3m_functions::monotonize</text>
<text text-anchor="middle" x="226.5" y="-7.5" font-family="Helvetica,sans-Serif" font-size="10.00">_cubic</text>
</a>
</g>
</g>
<!-- Node36&#45;&gt;Node39 -->
<g id="edge3" class="edge"><title>Node36&#45;&gt;Node39</title>
<path fill="none" stroke="midnightblue" d="M112.389,-49.3986C129.096,-44.3917 147.862,-38.7676 165.235,-33.561"/>
<polygon fill="midnightblue" stroke="midnightblue" points="166.703,-36.7751 175.277,-30.5516 164.693,-30.0698 166.703,-36.7751"/>
</g>
</g>
</svg>
