<?xml version="1.0" encoding="UTF-8" standalone="no"?>
<!DOCTYPE svg PUBLIC "-//W3C//DTD SVG 1.1//EN"
 "http://www.w3.org/Graphics/SVG/1.1/DTD/svg11.dtd">
<!-- Generated by graphviz version 2.38.0 (20140413.2041)
 -->
<!-- Title: pseudo_salt_tracer::pseudo_salt_stock Pages: 1 -->
<svg width="533pt" height="39pt"
 viewBox="0.00 0.00 533.00 39.00" xmlns="http://www.w3.org/2000/svg" xmlns:xlink="http://www.w3.org/1999/xlink">
<g id="graph0" class="graph" transform="scale(1 1) rotate(0) translate(4 35)">
<title>pseudo_salt_tracer::pseudo_salt_stock</title>
<polygon fill="white" stroke="none" points="-4,4 -4,-35 529,-35 529,4 -4,4"/>
<!-- Node14 -->
<g id="node1" class="node"><title>Node14</title>
<polygon fill="#bfbfbf" stroke="black" points="0,-0.5 0,-30.5 104,-30.5 104,-0.5 0,-0.5"/>
<text text-anchor="start" x="8" y="-18.5" font-family="Helvetica,sans-Serif" font-size="10.00">pseudo_salt_tracer</text>
<text text-anchor="middle" x="52" y="-7.5" font-family="Helvetica,sans-Serif" font-size="10.00">::pseudo_salt_stock</text>
</g>
<!-- Node15 -->
<g id="node2" class="node"><title>Node15</title>
<g id="a_node2"><a xlink:href="namespacemom__tracer__flow__control.html#afd8526344e928c8c9505c921bf37447f" target="_top" xlink:title="This subroutine calls all registered tracer packages to enable them to add to the surface state retur...">
<polygon fill="white" stroke="black" points="140,-0.5 140,-30.5 266,-30.5 266,-0.5 140,-0.5"/>
<text text-anchor="start" x="148" y="-18.5" font-family="Helvetica,sans-Serif" font-size="10.00">mom_tracer_flow_control</text>
<text text-anchor="middle" x="203" y="-7.5" font-family="Helvetica,sans-Serif" font-size="10.00">::call_tracer_stocks</text>
</a>
</g>
</g>
<!-- Node14&#45;&gt;Node15 -->
<g id="edge1" class="edge"><title>Node14&#45;&gt;Node15</title>
<path fill="none" stroke="midnightblue" d="M114.379,-15.5C122.779,-15.5 131.408,-15.5 139.822,-15.5"/>
<polygon fill="midnightblue" stroke="midnightblue" points="114.277,-12.0001 104.277,-15.5 114.277,-19.0001 114.277,-12.0001"/>
</g>
<!-- Node16 -->
<g id="node3" class="node"><title>Node16</title>
<g id="a_node3"><a xlink:href="namespacemom__sum__output.html#aef94e597f85f3ee439b2ddc2b46a043a" target="_top" xlink:title="This subroutine calculates and writes the total model energy, the energy and mass of each layer...">
<polygon fill="white" stroke="black" points="302,-0.5 302,-30.5 424,-30.5 424,-0.5 302,-0.5"/>
<text text-anchor="start" x="310" y="-18.5" font-family="Helvetica,sans-Serif" font-size="10.00">mom_sum_output::write</text>
<text text-anchor="middle" x="363" y="-7.5" font-family="Helvetica,sans-Serif" font-size="10.00">_energy</text>
</a>
</g>
</g>
<!-- Node15&#45;&gt;Node16 -->
<g id="edge2" class="edge"><title>Node15&#45;&gt;Node16</title>
<path fill="none" stroke="midnightblue" d="M276.644,-15.5C285.065,-15.5 293.584,-15.5 301.813,-15.5"/>
<polygon fill="midnightblue" stroke="midnightblue" points="276.446,-12.0001 266.446,-15.5 276.446,-19.0001 276.446,-12.0001"/>
</g>
<!-- Node17 -->
<g id="node4" class="node"><title>Node17</title>
<g id="a_node4"><a xlink:href="MOM__driver_8F90.html#a08fffeb2d8e8acbf9ed4609be6d258c6" target="_top" xlink:title="mom_main">
<polygon fill="white" stroke="black" points="460,-6 460,-25 525,-25 525,-6 460,-6"/>
<text text-anchor="middle" x="492.5" y="-13" font-family="Helvetica,sans-Serif" font-size="10.00">mom_main</text>
</a>
</g>
</g>
<!-- Node16&#45;&gt;Node17 -->
<g id="edge3" class="edge"><title>Node16&#45;&gt;Node17</title>
<path fill="none" stroke="midnightblue" d="M434.193,-15.5C443.176,-15.5 451.986,-15.5 459.901,-15.5"/>
<polygon fill="midnightblue" stroke="midnightblue" points="434.017,-12.0001 424.017,-15.5 434.017,-19.0001 434.017,-12.0001"/>
</g>
</g>
</svg>
