<?xml version="1.0" encoding="UTF-8" standalone="no"?>
<!DOCTYPE svg PUBLIC "-//W3C//DTD SVG 1.1//EN"
 "http://www.w3.org/Graphics/SVG/1.1/DTD/svg11.dtd">
<!-- Generated by graphviz version 2.38.0 (20140413.2041)
 -->
<!-- Title: mom_file_parser::close_param_file Pages: 1 -->
<svg width="293pt" height="127pt"
 viewBox="0.00 0.00 293.00 126.50" xmlns="http://www.w3.org/2000/svg" xmlns:xlink="http://www.w3.org/1999/xlink">
<g id="graph0" class="graph" transform="scale(1 1) rotate(0) translate(4 122.5)">
<title>mom_file_parser::close_param_file</title>
<polygon fill="white" stroke="none" points="-4,4 -4,-122.5 289,-122.5 289,4 -4,4"/>
<!-- Node5 -->
<g id="node1" class="node"><title>Node5</title>
<polygon fill="#bfbfbf" stroke="black" points="0,-49.5 0,-79.5 118,-79.5 118,-49.5 0,-49.5"/>
<text text-anchor="start" x="8" y="-67.5" font-family="Helvetica,sans-Serif" font-size="10.00">mom_file_parser::close</text>
<text text-anchor="middle" x="59" y="-56.5" font-family="Helvetica,sans-Serif" font-size="10.00">_param_file</text>
</g>
<!-- Node6 -->
<g id="node2" class="node"><title>Node6</title>
<g id="a_node2"><a xlink:href="MOM__driver_8F90.html#a08fffeb2d8e8acbf9ed4609be6d258c6" target="_top" xlink:title="mom_main">
<polygon fill="white" stroke="black" points="187,-99 187,-118 252,-118 252,-99 187,-99"/>
<text text-anchor="middle" x="219.5" y="-106" font-family="Helvetica,sans-Serif" font-size="10.00">mom_main</text>
</a>
</g>
</g>
<!-- Node5&#45;&gt;Node6 -->
<g id="edge1" class="edge"><title>Node5&#45;&gt;Node6</title>
<path fill="none" stroke="midnightblue" d="M123.912,-82.242C145.555,-88.2502 168.785,-94.699 186.808,-99.7021"/>
<polygon fill="midnightblue" stroke="midnightblue" points="124.675,-78.8217 114.103,-79.5192 122.803,-85.5666 124.675,-78.8217"/>
</g>
<!-- Node7 -->
<g id="node3" class="node"><title>Node7</title>
<g id="a_node3"><a xlink:href="namespaceocean__model__mod.html#a6b00b9a33be391bb23668abbfa4d99c6" target="_top" xlink:title="ocean_model_mod::ocean\l_model_flux_init">
<polygon fill="white" stroke="black" points="154,-49.5 154,-79.5 285,-79.5 285,-49.5 154,-49.5"/>
<text text-anchor="start" x="162" y="-67.5" font-family="Helvetica,sans-Serif" font-size="10.00">ocean_model_mod::ocean</text>
<text text-anchor="middle" x="219.5" y="-56.5" font-family="Helvetica,sans-Serif" font-size="10.00">_model_flux_init</text>
</a>
</g>
</g>
<!-- Node5&#45;&gt;Node7 -->
<g id="edge2" class="edge"><title>Node5&#45;&gt;Node7</title>
<path fill="none" stroke="midnightblue" d="M128.371,-64.5C136.867,-64.5 145.533,-64.5 153.968,-64.5"/>
<polygon fill="midnightblue" stroke="midnightblue" points="128.12,-61.0001 118.12,-64.5 128.12,-68.0001 128.12,-61.0001"/>
</g>
<!-- Node8 -->
<g id="node4" class="node"><title>Node8</title>
<g id="a_node4"><a xlink:href="namespaceocean__model__mod.html#aced9c77abd80a4a509c7cc317af707a7" target="_top" xlink:title="ocean_model_mod::ocean\l_model_init">
<polygon fill="white" stroke="black" points="154,-0.5 154,-30.5 285,-30.5 285,-0.5 154,-0.5"/>
<text text-anchor="start" x="162" y="-18.5" font-family="Helvetica,sans-Serif" font-size="10.00">ocean_model_mod::ocean</text>
<text text-anchor="middle" x="219.5" y="-7.5" font-family="Helvetica,sans-Serif" font-size="10.00">_model_init</text>
</a>
</g>
</g>
<!-- Node5&#45;&gt;Node8 -->
<g id="edge3" class="edge"><title>Node5&#45;&gt;Node8</title>
<path fill="none" stroke="midnightblue" d="M118.59,-46.3871C135.44,-41.1778 153.63,-35.5543 169.813,-30.5516"/>
<polygon fill="midnightblue" stroke="midnightblue" points="117.369,-43.1011 108.849,-49.3986 119.436,-49.7888 117.369,-43.1011"/>
</g>
</g>
</svg>
