<?xml version="1.0" encoding="UTF-8" standalone="no"?>
<!DOCTYPE svg PUBLIC "-//W3C//DTD SVG 1.1//EN"
 "http://www.w3.org/Graphics/SVG/1.1/DTD/svg11.dtd">
<!-- Generated by graphviz version 2.38.0 (20140413.2041)
 -->
<!-- Title: mom_meke::step_forward_meke Pages: 1 -->
<svg width="570pt" height="116pt"
 viewBox="0.00 0.00 570.00 115.50" xmlns="http://www.w3.org/2000/svg" xmlns:xlink="http://www.w3.org/1999/xlink">
<g id="graph0" class="graph" transform="scale(1 1) rotate(0) translate(4 111.5)">
<title>mom_meke::step_forward_meke</title>
<polygon fill="white" stroke="none" points="-4,4 -4,-111.5 566,-111.5 566,4 -4,4"/>
<!-- Node38 -->
<g id="node1" class="node"><title>Node38</title>
<polygon fill="#bfbfbf" stroke="black" points="0,-50 0,-69 159,-69 159,-50 0,-50"/>
<text text-anchor="middle" x="79.5" y="-57" font-family="Helvetica,sans-Serif" font-size="10.00">mom_meke::step_forward_meke</text>
</g>
<!-- Node39 -->
<g id="node2" class="node"><title>Node39</title>
<g id="a_node2"><a xlink:href="namespacemom__meke.html#afc39c025706ccbcab39795b56a01d15c" target="_top" xlink:title="Calculates the equilibrium solutino where the source depends only on MEKE diffusivity and there is no...">
<polygon fill="white" stroke="black" points="199.5,-88 199.5,-107 348.5,-107 348.5,-88 199.5,-88"/>
<text text-anchor="middle" x="274" y="-95" font-family="Helvetica,sans-Serif" font-size="10.00">mom_meke::meke_equilibrium</text>
</a>
</g>
</g>
<!-- Node38&#45;&gt;Node39 -->
<g id="edge1" class="edge"><title>Node38&#45;&gt;Node39</title>
<path fill="none" stroke="midnightblue" d="M129.076,-69.089C155.165,-74.239 187.506,-80.6232 214.918,-86.0344"/>
<polygon fill="midnightblue" stroke="midnightblue" points="214.285,-89.477 224.773,-87.9799 215.641,-82.6095 214.285,-89.477"/>
</g>
<!-- Node41 -->
<g id="node4" class="node"><title>Node41</title>
<g id="a_node4"><a xlink:href="namespacemom__meke.html#aa5ed096f400a914e1e318fde1e880ffe" target="_top" xlink:title="Calculates the eddy mixing length scale and &#160;and &#160;functions that are ratios of either bottom or barot...">
<polygon fill="white" stroke="black" points="195,-50 195,-69 353,-69 353,-50 195,-50"/>
<text text-anchor="middle" x="274" y="-57" font-family="Helvetica,sans-Serif" font-size="10.00">mom_meke::meke_lengthscales</text>
</a>
</g>
</g>
<!-- Node38&#45;&gt;Node41 -->
<g id="edge3" class="edge"><title>Node38&#45;&gt;Node41</title>
<path fill="none" stroke="midnightblue" d="M159.075,-59.5C167.593,-59.5 176.303,-59.5 184.924,-59.5"/>
<polygon fill="midnightblue" stroke="midnightblue" points="184.988,-63.0001 194.988,-59.5 184.988,-56.0001 184.988,-63.0001"/>
</g>
<!-- Node42 -->
<g id="node5" class="node"><title>Node42</title>
<g id="a_node5"><a xlink:href="namespacemom__error__handler.html#a460cfb79a06c29fc249952c2a3710d67" target="_top" xlink:title="mom_error_handler::\lmom_error">
<polygon fill="white" stroke="black" points="221,-0.5 221,-30.5 327,-30.5 327,-0.5 221,-0.5"/>
<text text-anchor="start" x="229" y="-18.5" font-family="Helvetica,sans-Serif" font-size="10.00">mom_error_handler::</text>
<text text-anchor="middle" x="274" y="-7.5" font-family="Helvetica,sans-Serif" font-size="10.00">mom_error</text>
</a>
</g>
</g>
<!-- Node38&#45;&gt;Node42 -->
<g id="edge5" class="edge"><title>Node38&#45;&gt;Node42</title>
<path fill="none" stroke="midnightblue" d="M122.27,-49.9527C148.087,-44.0517 181.701,-36.3684 210.633,-29.7553"/>
<polygon fill="midnightblue" stroke="midnightblue" points="211.682,-33.1059 220.651,-27.4655 210.122,-26.2818 211.682,-33.1059"/>
</g>
<!-- Node40 -->
<g id="node3" class="node"><title>Node40</title>
<g id="a_node3"><a xlink:href="namespacemom__meke.html#a577e88a6514c7dfa9a05b1d5eff2b8c6" target="_top" xlink:title="Calculates the eddy mixing length scale and &#160;and &#160;functions that are ratios of either bottom or barot...">
<polygon fill="white" stroke="black" points="389,-69 389,-88 562,-88 562,-69 389,-69"/>
<text text-anchor="middle" x="475.5" y="-76" font-family="Helvetica,sans-Serif" font-size="10.00">mom_meke::meke_lengthscales_0d</text>
</a>
</g>
</g>
<!-- Node39&#45;&gt;Node40 -->
<g id="edge2" class="edge"><title>Node39&#45;&gt;Node40</title>
<path fill="none" stroke="midnightblue" d="M348.72,-90.4791C358.543,-89.5435 368.728,-88.5735 378.857,-87.6089"/>
<polygon fill="midnightblue" stroke="midnightblue" points="379.328,-91.0799 388.951,-86.6475 378.664,-84.1115 379.328,-91.0799"/>
</g>
<!-- Node41&#45;&gt;Node40 -->
<g id="edge4" class="edge"><title>Node41&#45;&gt;Node40</title>
<path fill="none" stroke="midnightblue" d="M353.275,-66.9548C361.67,-67.7543 370.279,-68.5742 378.847,-69.3902"/>
<polygon fill="midnightblue" stroke="midnightblue" points="378.584,-72.8809 388.871,-70.3448 379.248,-65.9124 378.584,-72.8809"/>
</g>
<!-- Node43 -->
<g id="node6" class="node"><title>Node43</title>
<g id="a_node6"><a xlink:href="namespacemom__error__handler.html#ad5f00a53059c72fe2332d1436c80ca71" target="_top" xlink:title="mom_error_handler::\lis_root_pe">
<polygon fill="white" stroke="black" points="422.5,-0.5 422.5,-30.5 528.5,-30.5 528.5,-0.5 422.5,-0.5"/>
<text text-anchor="start" x="430.5" y="-18.5" font-family="Helvetica,sans-Serif" font-size="10.00">mom_error_handler::</text>
<text text-anchor="middle" x="475.5" y="-7.5" font-family="Helvetica,sans-Serif" font-size="10.00">is_root_pe</text>
</a>
</g>
</g>
<!-- Node42&#45;&gt;Node43 -->
<g id="edge6" class="edge"><title>Node42&#45;&gt;Node43</title>
<path fill="none" stroke="midnightblue" d="M327.156,-15.5C353.158,-15.5 384.796,-15.5 412.08,-15.5"/>
<polygon fill="midnightblue" stroke="midnightblue" points="412.303,-19.0001 422.303,-15.5 412.303,-12.0001 412.303,-19.0001"/>
</g>
</g>
</svg>
