<?xml version="1.0" encoding="UTF-8" standalone="no"?>
<!DOCTYPE svg PUBLIC "-//W3C//DTD SVG 1.1//EN"
 "http://www.w3.org/Graphics/SVG/1.1/DTD/svg11.dtd">
<!-- Generated by graphviz version 2.38.0 (20140413.2041)
 -->
<!-- Title: mom_controlled_forcing::apply_ctrl_forcing Pages: 1 -->
<svg width="426pt" height="137pt"
 viewBox="0.00 0.00 426.00 137.00" xmlns="http://www.w3.org/2000/svg" xmlns:xlink="http://www.w3.org/1999/xlink">
<g id="graph0" class="graph" transform="scale(1 1) rotate(0) translate(4 133)">
<title>mom_controlled_forcing::apply_ctrl_forcing</title>
<polygon fill="white" stroke="none" points="-4,4 -4,-133 422,-133 422,4 -4,4"/>
<!-- Node0 -->
<g id="node1" class="node"><title>Node0</title>
<polygon fill="#bfbfbf" stroke="black" points="0,-49.5 0,-79.5 120,-79.5 120,-49.5 0,-49.5"/>
<text text-anchor="start" x="8" y="-67.5" font-family="Helvetica,sans-Serif" font-size="10.00">mom_controlled_forcing</text>
<text text-anchor="middle" x="60" y="-56.5" font-family="Helvetica,sans-Serif" font-size="10.00">::apply_ctrl_forcing</text>
</g>
<!-- Node1 -->
<g id="node2" class="node"><title>Node1</title>
<g id="a_node2"><a xlink:href="namespacemom__error__handler.html#a460cfb79a06c29fc249952c2a3710d67" target="_top" xlink:title="mom_error_handler::\lmom_error">
<polygon fill="white" stroke="black" points="163,-98.5 163,-128.5 269,-128.5 269,-98.5 163,-98.5"/>
<text text-anchor="start" x="171" y="-116.5" font-family="Helvetica,sans-Serif" font-size="10.00">mom_error_handler::</text>
<text text-anchor="middle" x="216" y="-105.5" font-family="Helvetica,sans-Serif" font-size="10.00">mom_error</text>
</a>
</g>
</g>
<!-- Node0&#45;&gt;Node1 -->
<g id="edge1" class="edge"><title>Node0&#45;&gt;Node1</title>
<path fill="none" stroke="midnightblue" d="M108.462,-79.6014C124.05,-84.5615 141.543,-90.1274 157.778,-95.2929"/>
<polygon fill="midnightblue" stroke="midnightblue" points="157.105,-98.7516 167.695,-98.4484 159.227,-92.0811 157.105,-98.7516"/>
</g>
<!-- Node3 -->
<g id="node4" class="node"><title>Node3</title>
<g id="a_node4"><a xlink:href="namespacemom__controlled__forcing.html#a610583f048e5478ad2cd608dd5de8e00" target="_top" xlink:title="This function maps rval into an integer in the range from 1 to num_period. ">
<polygon fill="white" stroke="black" points="156,-49.5 156,-79.5 276,-79.5 276,-49.5 156,-49.5"/>
<text text-anchor="start" x="164" y="-67.5" font-family="Helvetica,sans-Serif" font-size="10.00">mom_controlled_forcing</text>
<text text-anchor="middle" x="216" y="-56.5" font-family="Helvetica,sans-Serif" font-size="10.00">::periodic_int</text>
</a>
</g>
</g>
<!-- Node0&#45;&gt;Node3 -->
<g id="edge3" class="edge"><title>Node0&#45;&gt;Node3</title>
<path fill="none" stroke="midnightblue" d="M120.1,-64.5C128.422,-64.5 137.039,-64.5 145.533,-64.5"/>
<polygon fill="midnightblue" stroke="midnightblue" points="145.804,-68.0001 155.804,-64.5 145.804,-61.0001 145.804,-68.0001"/>
</g>
<!-- Node4 -->
<g id="node5" class="node"><title>Node4</title>
<g id="a_node5"><a xlink:href="namespacemom__controlled__forcing.html#a61d129cf3590af06823330a566d23fd6" target="_top" xlink:title="This function shifts rval by an integer multiple of num_period so that 0 &lt;= val_out &lt; num_period...">
<polygon fill="white" stroke="black" points="156,-0.5 156,-30.5 276,-30.5 276,-0.5 156,-0.5"/>
<text text-anchor="start" x="164" y="-18.5" font-family="Helvetica,sans-Serif" font-size="10.00">mom_controlled_forcing</text>
<text text-anchor="middle" x="216" y="-7.5" font-family="Helvetica,sans-Serif" font-size="10.00">::periodic_real</text>
</a>
</g>
</g>
<!-- Node0&#45;&gt;Node4 -->
<g id="edge4" class="edge"><title>Node0&#45;&gt;Node4</title>
<path fill="none" stroke="midnightblue" d="M108.462,-49.3986C124.05,-44.4385 141.543,-38.8726 157.778,-33.7071"/>
<polygon fill="midnightblue" stroke="midnightblue" points="159.227,-36.9189 167.695,-30.5516 157.105,-30.2484 159.227,-36.9189"/>
</g>
<!-- Node2 -->
<g id="node3" class="node"><title>Node2</title>
<g id="a_node3"><a xlink:href="namespacemom__error__handler.html#ad5f00a53059c72fe2332d1436c80ca71" target="_top" xlink:title="mom_error_handler::\lis_root_pe">
<polygon fill="white" stroke="black" points="312,-98.5 312,-128.5 418,-128.5 418,-98.5 312,-98.5"/>
<text text-anchor="start" x="320" y="-116.5" font-family="Helvetica,sans-Serif" font-size="10.00">mom_error_handler::</text>
<text text-anchor="middle" x="365" y="-105.5" font-family="Helvetica,sans-Serif" font-size="10.00">is_root_pe</text>
</a>
</g>
</g>
<!-- Node1&#45;&gt;Node2 -->
<g id="edge2" class="edge"><title>Node1&#45;&gt;Node2</title>
<path fill="none" stroke="midnightblue" d="M269.241,-113.5C279.747,-113.5 290.887,-113.5 301.697,-113.5"/>
<polygon fill="midnightblue" stroke="midnightblue" points="301.928,-117 311.928,-113.5 301.928,-110 301.928,-117"/>
</g>
</g>
</svg>
