<?xml version="1.0" encoding="UTF-8" standalone="no"?>
<!DOCTYPE svg PUBLIC "-//W3C//DTD SVG 1.1//EN"
 "http://www.w3.org/Graphics/SVG/1.1/DTD/svg11.dtd">
<!-- Generated by graphviz version 2.38.0 (20140413.2041)
 -->
<!-- Title: mom_file_parser::log_param_real Pages: 1 -->
<svg width="422pt" height="88pt"
 viewBox="0.00 0.00 422.00 88.00" xmlns="http://www.w3.org/2000/svg" xmlns:xlink="http://www.w3.org/1999/xlink">
<g id="graph0" class="graph" transform="scale(1 1) rotate(0) translate(4 84)">
<title>mom_file_parser::log_param_real</title>
<polygon fill="white" stroke="none" points="-4,4 -4,-84 418,-84 418,4 -4,4"/>
<!-- Node206 -->
<g id="node1" class="node"><title>Node206</title>
<polygon fill="#bfbfbf" stroke="black" points="0,-24.5 0,-54.5 107,-54.5 107,-24.5 0,-24.5"/>
<text text-anchor="start" x="8" y="-42.5" font-family="Helvetica,sans-Serif" font-size="10.00">mom_file_parser::log</text>
<text text-anchor="middle" x="53.5" y="-31.5" font-family="Helvetica,sans-Serif" font-size="10.00">_param_real</text>
</g>
<!-- Node207 -->
<g id="node2" class="node"><title>Node207</title>
<g id="a_node2"><a xlink:href="namespacemom__error__handler.html#ad5f00a53059c72fe2332d1436c80ca71" target="_top" xlink:title="mom_error_handler::\lis_root_pe">
<polygon fill="white" stroke="black" points="146.5,-49.5 146.5,-79.5 252.5,-79.5 252.5,-49.5 146.5,-49.5"/>
<text text-anchor="start" x="154.5" y="-67.5" font-family="Helvetica,sans-Serif" font-size="10.00">mom_error_handler::</text>
<text text-anchor="middle" x="199.5" y="-56.5" font-family="Helvetica,sans-Serif" font-size="10.00">is_root_pe</text>
</a>
</g>
</g>
<!-- Node206&#45;&gt;Node207 -->
<g id="edge1" class="edge"><title>Node206&#45;&gt;Node207</title>
<path fill="none" stroke="midnightblue" d="M107.303,-48.6671C116.715,-50.3013 126.6,-52.0174 136.247,-53.6923"/>
<polygon fill="midnightblue" stroke="midnightblue" points="135.734,-57.1553 146.185,-55.4175 136.931,-50.2585 135.734,-57.1553"/>
</g>
<!-- Node208 -->
<g id="node3" class="node"><title>Node208</title>
<g id="a_node3"><a xlink:href="namespacemom__string__functions.html#ab56b89fb51a387279afc68c85d30dca2" target="_top" xlink:title="mom_string_functions\l::left_real">
<polygon fill="white" stroke="black" points="143,-0.5 143,-30.5 256,-30.5 256,-0.5 143,-0.5"/>
<text text-anchor="start" x="151" y="-18.5" font-family="Helvetica,sans-Serif" font-size="10.00">mom_string_functions</text>
<text text-anchor="middle" x="199.5" y="-7.5" font-family="Helvetica,sans-Serif" font-size="10.00">::left_real</text>
</a>
</g>
</g>
<!-- Node206&#45;&gt;Node208 -->
<g id="edge2" class="edge"><title>Node206&#45;&gt;Node208</title>
<path fill="none" stroke="midnightblue" d="M107.303,-30.6996C115.61,-29.3149 124.286,-27.869 132.841,-26.4431"/>
<polygon fill="midnightblue" stroke="midnightblue" points="133.512,-29.8798 142.8,-24.7833 132.361,-22.975 133.512,-29.8798"/>
</g>
<!-- Node209 -->
<g id="node4" class="node"><title>Node209</title>
<g id="a_node4"><a xlink:href="namespacemom__string__functions.html#aec369a6ac0badc1dbd782a1668d2c7c3" target="_top" xlink:title="mom_string_functions\l::isformattedfloatequalto">
<polygon fill="white" stroke="black" points="292,-0.5 292,-30.5 414,-30.5 414,-0.5 292,-0.5"/>
<text text-anchor="start" x="300" y="-18.5" font-family="Helvetica,sans-Serif" font-size="10.00">mom_string_functions</text>
<text text-anchor="middle" x="353" y="-7.5" font-family="Helvetica,sans-Serif" font-size="10.00">::isformattedfloatequalto</text>
</a>
</g>
</g>
<!-- Node208&#45;&gt;Node209 -->
<g id="edge3" class="edge"><title>Node208&#45;&gt;Node209</title>
<path fill="none" stroke="midnightblue" d="M256.053,-15.5C264.429,-15.5 273.161,-15.5 281.796,-15.5"/>
<polygon fill="midnightblue" stroke="midnightblue" points="281.861,-19.0001 291.861,-15.5 281.861,-12.0001 281.861,-19.0001"/>
</g>
</g>
</svg>
