<?xml version="1.0" encoding="UTF-8" standalone="no"?>
<!DOCTYPE svg PUBLIC "-//W3C//DTD SVG 1.1//EN"
 "http://www.w3.org/Graphics/SVG/1.1/DTD/svg11.dtd">
<!-- Generated by graphviz version 2.38.0 (20140413.2041)
 -->
<!-- Title: coord_hycom::build_hycom1_column Pages: 1 -->
<svg width="453pt" height="39pt"
 viewBox="0.00 0.00 453.00 39.00" xmlns="http://www.w3.org/2000/svg" xmlns:xlink="http://www.w3.org/1999/xlink">
<g id="graph0" class="graph" transform="scale(1 1) rotate(0) translate(4 35)">
<title>coord_hycom::build_hycom1_column</title>
<polygon fill="white" stroke="none" points="-4,4 -4,-35 449,-35 449,4 -4,4"/>
<!-- Node33 -->
<g id="node1" class="node"><title>Node33</title>
<polygon fill="#bfbfbf" stroke="black" points="0,-0.5 0,-30.5 101,-30.5 101,-0.5 0,-0.5"/>
<text text-anchor="start" x="8" y="-18.5" font-family="Helvetica,sans-Serif" font-size="10.00">coord_hycom::build</text>
<text text-anchor="middle" x="50.5" y="-7.5" font-family="Helvetica,sans-Serif" font-size="10.00">_hycom1_column</text>
</g>
<!-- Node34 -->
<g id="node2" class="node"><title>Node34</title>
<g id="a_node2"><a xlink:href="namespacemom__regridding.html#ab3541b357806978862434ee19b1be774" target="_top" xlink:title="Builds a simple HyCOM&#45;like grid with the deepest location of potential density interpolated from the ...">
<polygon fill="white" stroke="black" points="137,-0.5 137,-30.5 249,-30.5 249,-0.5 137,-0.5"/>
<text text-anchor="start" x="145" y="-18.5" font-family="Helvetica,sans-Serif" font-size="10.00">mom_regridding::build</text>
<text text-anchor="middle" x="193" y="-7.5" font-family="Helvetica,sans-Serif" font-size="10.00">_grid_hycom1</text>
</a>
</g>
</g>
<!-- Node33&#45;&gt;Node34 -->
<g id="edge1" class="edge"><title>Node33&#45;&gt;Node34</title>
<path fill="none" stroke="midnightblue" d="M111.209,-15.5C119.662,-15.5 128.324,-15.5 136.69,-15.5"/>
<polygon fill="midnightblue" stroke="midnightblue" points="111.035,-12.0001 101.035,-15.5 111.035,-19.0001 111.035,-12.0001"/>
</g>
<!-- Node35 -->
<g id="node3" class="node"><title>Node35</title>
<g id="a_node3"><a xlink:href="namespacemom__regridding.html#ab354fe3423a39fef6f2b66f409b1682c" target="_top" xlink:title="mom_regridding::regridding_main">
<polygon fill="white" stroke="black" points="285,-6 285,-25 445,-25 445,-6 285,-6"/>
<text text-anchor="middle" x="365" y="-13" font-family="Helvetica,sans-Serif" font-size="10.00">mom_regridding::regridding_main</text>
</a>
</g>
</g>
<!-- Node34&#45;&gt;Node35 -->
<g id="edge2" class="edge"><title>Node34&#45;&gt;Node35</title>
<path fill="none" stroke="midnightblue" d="M259.211,-15.5C267.551,-15.5 276.161,-15.5 284.694,-15.5"/>
<polygon fill="midnightblue" stroke="midnightblue" points="259.194,-12.0001 249.194,-15.5 259.194,-19.0001 259.194,-12.0001"/>
</g>
</g>
</svg>
