<?xml version="1.0" encoding="UTF-8" standalone="no"?>
<!DOCTYPE svg PUBLIC "-//W3C//DTD SVG 1.1//EN"
 "http://www.w3.org/Graphics/SVG/1.1/DTD/svg11.dtd">
<!-- Generated by graphviz version 2.38.0 (20140413.2041)
 -->
<!-- Title: ocean_model_mod::ocean_model_flux_init Pages: 1 -->
<svg width="1329pt" height="426pt"
 viewBox="0.00 0.00 1329.00 425.50" xmlns="http://www.w3.org/2000/svg" xmlns:xlink="http://www.w3.org/1999/xlink">
<g id="graph0" class="graph" transform="scale(1 1) rotate(0) translate(4 421.5)">
<title>ocean_model_mod::ocean_model_flux_init</title>
<polygon fill="white" stroke="none" points="-4,4 -4,-421.5 1325,-421.5 1325,4 -4,4"/>
<!-- Node25 -->
<g id="node1" class="node"><title>Node25</title>
<polygon fill="#bfbfbf" stroke="black" points="0,-343 0,-373 131,-373 131,-343 0,-343"/>
<text text-anchor="start" x="8" y="-361" font-family="Helvetica,sans-Serif" font-size="10.00">ocean_model_mod::ocean</text>
<text text-anchor="middle" x="65.5" y="-350" font-family="Helvetica,sans-Serif" font-size="10.00">_model_flux_init</text>
</g>
<!-- Node26 -->
<g id="node2" class="node"><title>Node26</title>
<g id="a_node2"><a xlink:href="namespaceatmos__ocean__fluxes__mod.html#a2bde46287389f28af76f8794dd509475" target="_top" xlink:title="atmos_ocean_fluxes\l_mod::aof_set_coupler_flux">
<polygon fill="white" stroke="black" points="167,-387 167,-417 304,-417 304,-387 167,-387"/>
<text text-anchor="start" x="175" y="-405" font-family="Helvetica,sans-Serif" font-size="10.00">atmos_ocean_fluxes</text>
<text text-anchor="middle" x="235.5" y="-394" font-family="Helvetica,sans-Serif" font-size="10.00">_mod::aof_set_coupler_flux</text>
</a>
</g>
</g>
<!-- Node25&#45;&gt;Node26 -->
<g id="edge1" class="edge"><title>Node25&#45;&gt;Node26</title>
<path fill="none" stroke="midnightblue" d="M123.846,-373.019C137.825,-376.68 152.903,-380.629 167.295,-384.399"/>
<polygon fill="midnightblue" stroke="midnightblue" points="166.567,-387.826 177.127,-386.974 168.34,-381.054 166.567,-387.826"/>
</g>
<!-- Node27 -->
<g id="node3" class="node"><title>Node27</title>
<g id="a_node3"><a xlink:href="namespacemom__file__parser.html#a5b47aa31f8cffc5bf495f8d3f2e9c001" target="_top" xlink:title="mom_file_parser::close\l_param_file">
<polygon fill="white" stroke="black" points="498.5,-343 498.5,-373 616.5,-373 616.5,-343 498.5,-343"/>
<text text-anchor="start" x="506.5" y="-361" font-family="Helvetica,sans-Serif" font-size="10.00">mom_file_parser::close</text>
<text text-anchor="middle" x="557.5" y="-350" font-family="Helvetica,sans-Serif" font-size="10.00">_param_file</text>
</a>
</g>
</g>
<!-- Node25&#45;&gt;Node27 -->
<g id="edge2" class="edge"><title>Node25&#45;&gt;Node27</title>
<path fill="none" stroke="midnightblue" d="M131.063,-358C223.711,-358 393.607,-358 488.254,-358"/>
<polygon fill="midnightblue" stroke="midnightblue" points="488.293,-361.5 498.293,-358 488.293,-354.5 488.293,-361.5"/>
</g>
<!-- Node29 -->
<g id="node5" class="node"><title>Node29</title>
<g id="a_node5"><a xlink:href="namespacemom__get__input.html#a299c5b9476662ef1a382e23a8d078143" target="_top" xlink:title="mom_get_input::get\l_mom_input">
<polygon fill="white" stroke="black" points="184,-299 184,-329 287,-329 287,-299 184,-299"/>
<text text-anchor="start" x="192" y="-317" font-family="Helvetica,sans-Serif" font-size="10.00">mom_get_input::get</text>
<text text-anchor="middle" x="235.5" y="-306" font-family="Helvetica,sans-Serif" font-size="10.00">_mom_input</text>
</a>
</g>
</g>
<!-- Node25&#45;&gt;Node29 -->
<g id="edge4" class="edge"><title>Node25&#45;&gt;Node29</title>
<path fill="none" stroke="midnightblue" d="M123.846,-342.981C139.983,-338.754 157.585,-334.145 173.905,-329.87"/>
<polygon fill="midnightblue" stroke="midnightblue" points="175.089,-333.178 183.876,-327.259 173.316,-326.406 175.089,-333.178"/>
</g>
<!-- Node28 -->
<g id="node4" class="node"><title>Node28</title>
<g id="a_node4"><a xlink:href="namespacemom__error__handler.html#ad5f00a53059c72fe2332d1436c80ca71" target="_top" xlink:title="mom_error_handler::\lis_root_pe">
<polygon fill="white" stroke="black" points="939,-261 939,-291 1045,-291 1045,-261 939,-261"/>
<text text-anchor="start" x="947" y="-279" font-family="Helvetica,sans-Serif" font-size="10.00">mom_error_handler::</text>
<text text-anchor="middle" x="992" y="-268" font-family="Helvetica,sans-Serif" font-size="10.00">is_root_pe</text>
</a>
</g>
</g>
<!-- Node27&#45;&gt;Node28 -->
<g id="edge3" class="edge"><title>Node27&#45;&gt;Node28</title>
<path fill="none" stroke="midnightblue" d="M616.512,-356.509C676.441,-353.944 772.329,-346.968 853,-328 886.074,-320.223 921.94,-306.536 948.817,-295.156"/>
<polygon fill="midnightblue" stroke="midnightblue" points="950.486,-298.248 958.291,-291.083 947.721,-291.817 950.486,-298.248"/>
</g>
<!-- Node30 -->
<g id="node6" class="node"><title>Node30</title>
<g id="a_node6"><a xlink:href="namespacemom__error__handler.html#a460cfb79a06c29fc249952c2a3710d67" target="_top" xlink:title="mom_error_handler::\lmom_error">
<polygon fill="white" stroke="black" points="345,-299 345,-329 451,-329 451,-299 345,-299"/>
<text text-anchor="start" x="353" y="-317" font-family="Helvetica,sans-Serif" font-size="10.00">mom_error_handler::</text>
<text text-anchor="middle" x="398" y="-306" font-family="Helvetica,sans-Serif" font-size="10.00">mom_error</text>
</a>
</g>
</g>
<!-- Node29&#45;&gt;Node30 -->
<g id="edge5" class="edge"><title>Node29&#45;&gt;Node30</title>
<path fill="none" stroke="midnightblue" d="M287.283,-314C302.351,-314 319.027,-314 334.735,-314"/>
<polygon fill="midnightblue" stroke="midnightblue" points="334.89,-317.5 344.89,-314 334.89,-310.5 334.89,-317.5"/>
</g>
<!-- Node31 -->
<g id="node7" class="node"><title>Node31</title>
<g id="a_node7"><a xlink:href="namespacemom__file__parser.html#abecae1b9386aafa17aec927af1f8c448" target="_top" xlink:title="mom_file_parser::open\l_param_file">
<polygon fill="white" stroke="black" points="340,-250 340,-280 456,-280 456,-250 340,-250"/>
<text text-anchor="start" x="348" y="-268" font-family="Helvetica,sans-Serif" font-size="10.00">mom_file_parser::open</text>
<text text-anchor="middle" x="398" y="-257" font-family="Helvetica,sans-Serif" font-size="10.00">_param_file</text>
</a>
</g>
</g>
<!-- Node29&#45;&gt;Node31 -->
<g id="edge7" class="edge"><title>Node29&#45;&gt;Node31</title>
<path fill="none" stroke="midnightblue" d="M285.965,-298.899C302.365,-293.892 320.787,-288.268 337.841,-283.061"/>
<polygon fill="midnightblue" stroke="midnightblue" points="339.156,-286.319 347.698,-280.052 337.112,-279.624 339.156,-286.319"/>
</g>
<!-- Node30&#45;&gt;Node28 -->
<g id="edge6" class="edge"><title>Node30&#45;&gt;Node28</title>
<path fill="none" stroke="midnightblue" d="M451.089,-310.695C535.493,-305.336 707.387,-294.399 853,-285 877.732,-283.404 904.956,-281.631 928.641,-280.085"/>
<polygon fill="midnightblue" stroke="midnightblue" points="929.154,-283.559 938.904,-279.414 928.698,-276.574 929.154,-283.559"/>
</g>
<!-- Node31&#45;&gt;Node28 -->
<g id="edge8" class="edge"><title>Node31&#45;&gt;Node28</title>
<path fill="none" stroke="midnightblue" d="M456.032,-266.06C567.426,-268.13 813.1,-272.694 928.636,-274.841"/>
<polygon fill="midnightblue" stroke="midnightblue" points="928.67,-278.342 938.734,-275.029 928.801,-271.344 928.67,-278.342"/>
</g>
<!-- Node32 -->
<g id="node8" class="node"><title>Node32</title>
<g id="a_node8"><a xlink:href="namespacemom__file__parser.html#a7abfd98d7f0831fc0d1f3747a68f1be9" target="_top" xlink:title="mom_file_parser::populate\l_param_data">
<polygon fill="white" stroke="black" points="492,-128 492,-158 623,-158 623,-128 492,-128"/>
<text text-anchor="start" x="500" y="-146" font-family="Helvetica,sans-Serif" font-size="10.00">mom_file_parser::populate</text>
<text text-anchor="middle" x="557.5" y="-135" font-family="Helvetica,sans-Serif" font-size="10.00">_param_data</text>
</a>
</g>
</g>
<!-- Node31&#45;&gt;Node32 -->
<g id="edge9" class="edge"><title>Node31&#45;&gt;Node32</title>
<path fill="none" stroke="midnightblue" d="M418.629,-249.795C446.486,-228.217 497.602,-188.623 529.158,-164.179"/>
<polygon fill="midnightblue" stroke="midnightblue" points="531.356,-166.904 537.118,-158.013 527.069,-161.37 531.356,-166.904"/>
</g>
<!-- Node32&#45;&gt;Node28 -->
<g id="edge11" class="edge"><title>Node32&#45;&gt;Node28</title>
<path fill="none" stroke="midnightblue" d="M573.678,-158.275C592.144,-175.892 625.077,-204.306 659,-219 706.394,-239.529 846.44,-258.864 928.72,-268.881"/>
<polygon fill="midnightblue" stroke="midnightblue" points="928.356,-272.362 938.703,-270.085 929.194,-265.412 928.356,-272.362"/>
</g>
<!-- Node33 -->
<g id="node9" class="node"><title>Node33</title>
<g id="a_node9"><a xlink:href="namespacemom__file__parser.html#a99c426fd23fc4df0c4d05e33039e0a66" target="_top" xlink:title="mom_file_parser::closemultilinecomment">
<polygon fill="white" stroke="black" points="659,-152.5 659,-171.5 853,-171.5 853,-152.5 659,-152.5"/>
<text text-anchor="middle" x="756" y="-159.5" font-family="Helvetica,sans-Serif" font-size="10.00">mom_file_parser::closemultilinecomment</text>
</a>
</g>
</g>
<!-- Node32&#45;&gt;Node33 -->
<g id="edge10" class="edge"><title>Node32&#45;&gt;Node33</title>
<path fill="none" stroke="midnightblue" d="M623.114,-149.248C631.314,-150.041 639.871,-150.868 648.512,-151.703"/>
<polygon fill="midnightblue" stroke="midnightblue" points="648.39,-155.208 658.68,-152.687 649.064,-148.24 648.39,-155.208"/>
</g>
<!-- Node34 -->
<g id="node10" class="node"><title>Node34</title>
<g id="a_node10"><a xlink:href="namespacemom__file__parser.html#ab4b89d9420e174185db1c6aa3feb948b" target="_top" xlink:title="mom_file_parser::lastnoncommentnonblank">
<polygon fill="white" stroke="black" points="889,-76.5 889,-95.5 1095,-95.5 1095,-76.5 889,-76.5"/>
<text text-anchor="middle" x="992" y="-83.5" font-family="Helvetica,sans-Serif" font-size="10.00">mom_file_parser::lastnoncommentnonblank</text>
</a>
</g>
</g>
<!-- Node32&#45;&gt;Node34 -->
<g id="edge12" class="edge"><title>Node32&#45;&gt;Node34</title>
<path fill="none" stroke="midnightblue" d="M623.153,-134.818C682.835,-127.227 773.923,-115.545 853,-105 872.291,-102.427 893.09,-99.5948 912.543,-96.9198"/>
<polygon fill="midnightblue" stroke="midnightblue" points="913.149,-100.369 922.578,-95.5375 912.194,-93.4349 913.149,-100.369"/>
</g>
<!-- Node36 -->
<g id="node12" class="node"><title>Node36</title>
<g id="a_node12"><a xlink:href="namespacemom__file__parser.html#a476a2649ce161e38088588e07f7df130" target="_top" xlink:title="mom_file_parser::openmultilinecomment">
<polygon fill="white" stroke="black" points="896,-38.5 896,-57.5 1088,-57.5 1088,-38.5 896,-38.5"/>
<text text-anchor="middle" x="992" y="-45.5" font-family="Helvetica,sans-Serif" font-size="10.00">mom_file_parser::openmultilinecomment</text>
</a>
</g>
</g>
<!-- Node32&#45;&gt;Node36 -->
<g id="edge14" class="edge"><title>Node32&#45;&gt;Node36</title>
<path fill="none" stroke="midnightblue" d="M572.77,-127.697C590.844,-109.482 623.891,-79.908 659,-67 731.415,-40.376 818.7,-36.3712 885.595,-38.6254"/>
<polygon fill="midnightblue" stroke="midnightblue" points="885.602,-42.1282 895.731,-39.0198 885.875,-35.1335 885.602,-42.1282"/>
</g>
<!-- Node37 -->
<g id="node13" class="node"><title>Node37</title>
<g id="a_node13"><a xlink:href="namespacemom__file__parser.html#ae0b982cc161173a401291757a6677373" target="_top" xlink:title="mom_file_parser::removecomments">
<polygon fill="white" stroke="black" points="669.5,-76.5 669.5,-95.5 842.5,-95.5 842.5,-76.5 669.5,-76.5"/>
<text text-anchor="middle" x="756" y="-83.5" font-family="Helvetica,sans-Serif" font-size="10.00">mom_file_parser::removecomments</text>
</a>
</g>
</g>
<!-- Node32&#45;&gt;Node37 -->
<g id="edge16" class="edge"><title>Node32&#45;&gt;Node37</title>
<path fill="none" stroke="midnightblue" d="M602.315,-127.85C619.853,-121.987 640.298,-115.401 659,-110 673.617,-105.779 689.61,-101.606 704.278,-97.9533"/>
<polygon fill="midnightblue" stroke="midnightblue" points="705.314,-101.303 714.187,-95.5133 703.64,-94.5058 705.314,-101.303"/>
</g>
<!-- Node38 -->
<g id="node14" class="node"><title>Node38</title>
<g id="a_node14"><a xlink:href="namespacemom__file__parser.html#a9813087789e0924f363d7f67768c7f42" target="_top" xlink:title="mom_file_parser::replacetabs">
<polygon fill="white" stroke="black" points="683.5,-0.5 683.5,-19.5 828.5,-19.5 828.5,-0.5 683.5,-0.5"/>
<text text-anchor="middle" x="756" y="-7.5" font-family="Helvetica,sans-Serif" font-size="10.00">mom_file_parser::replacetabs</text>
</a>
</g>
</g>
<!-- Node32&#45;&gt;Node38 -->
<g id="edge18" class="edge"><title>Node32&#45;&gt;Node38</title>
<path fill="none" stroke="midnightblue" d="M568.212,-127.718C584.17,-103.903 618.268,-58.1655 659,-34 666.867,-29.3329 675.613,-25.5691 684.534,-22.5345"/>
<polygon fill="midnightblue" stroke="midnightblue" points="685.736,-25.8264 694.249,-19.5198 683.661,-19.1409 685.736,-25.8264"/>
</g>
<!-- Node39 -->
<g id="node15" class="node"><title>Node39</title>
<g id="a_node15"><a xlink:href="namespacemom__file__parser.html#a3ad322925f44e8cb48c4e652634f6f93" target="_top" xlink:title="mom_file_parser::simplifywhitespace">
<polygon fill="white" stroke="black" points="667,-190.5 667,-209.5 845,-209.5 845,-190.5 667,-190.5"/>
<text text-anchor="middle" x="756" y="-197.5" font-family="Helvetica,sans-Serif" font-size="10.00">mom_file_parser::simplifywhitespace</text>
</a>
</g>
</g>
<!-- Node32&#45;&gt;Node39 -->
<g id="edge19" class="edge"><title>Node32&#45;&gt;Node39</title>
<path fill="none" stroke="midnightblue" d="M593.83,-158.006C612.878,-165.675 636.94,-174.694 659,-181 668.556,-183.732 678.758,-186.207 688.811,-188.401"/>
<polygon fill="midnightblue" stroke="midnightblue" points="688.279,-191.866 698.786,-190.5 689.721,-185.016 688.279,-191.866"/>
</g>
<!-- Node35 -->
<g id="node11" class="node"><title>Node35</title>
<g id="a_node11"><a xlink:href="namespacemom__file__parser.html#a000fd0a0681f9e73481ef2663154df78" target="_top" xlink:title="mom_file_parser::lastnoncommentindex">
<polygon fill="white" stroke="black" points="1131,-57.5 1131,-76.5 1321,-76.5 1321,-57.5 1131,-57.5"/>
<text text-anchor="middle" x="1226" y="-64.5" font-family="Helvetica,sans-Serif" font-size="10.00">mom_file_parser::lastnoncommentindex</text>
</a>
</g>
</g>
<!-- Node34&#45;&gt;Node35 -->
<g id="edge13" class="edge"><title>Node34&#45;&gt;Node35</title>
<path fill="none" stroke="midnightblue" d="M1095.1,-77.6387C1103.66,-76.9374 1112.32,-76.2277 1120.9,-75.5252"/>
<polygon fill="midnightblue" stroke="midnightblue" points="1121.24,-79.0095 1130.92,-74.7048 1120.67,-72.0328 1121.24,-79.0095"/>
</g>
<!-- Node36&#45;&gt;Node35 -->
<g id="edge15" class="edge"><title>Node36&#45;&gt;Node35</title>
<path fill="none" stroke="midnightblue" d="M1088.03,-55.7828C1098.86,-56.6695 1109.94,-57.5768 1120.87,-58.4724"/>
<polygon fill="midnightblue" stroke="midnightblue" points="1120.61,-61.9627 1130.87,-59.2907 1121.18,-54.9861 1120.61,-61.9627"/>
</g>
<!-- Node37&#45;&gt;Node34 -->
<g id="edge17" class="edge"><title>Node37&#45;&gt;Node34</title>
<path fill="none" stroke="midnightblue" d="M842.804,-86C854.523,-86 866.693,-86 878.793,-86"/>
<polygon fill="midnightblue" stroke="midnightblue" points="878.931,-89.5001 888.931,-86 878.931,-82.5001 878.931,-89.5001"/>
</g>
<!-- Node39&#45;&gt;Node28 -->
<g id="edge20" class="edge"><title>Node39&#45;&gt;Node28</title>
<path fill="none" stroke="midnightblue" d="M799.826,-209.588C816.537,-213.62 835.781,-218.623 853,-224 884.125,-233.719 918.437,-246.638 945.06,-257.167"/>
<polygon fill="midnightblue" stroke="midnightblue" points="943.916,-260.479 954.501,-260.928 946.506,-253.976 943.916,-260.479"/>
</g>
</g>
</svg>
