<?xml version="1.0" encoding="UTF-8" standalone="no"?>
<!DOCTYPE svg PUBLIC "-//W3C//DTD SVG 1.1//EN"
 "http://www.w3.org/Graphics/SVG/1.1/DTD/svg11.dtd">
<!-- Generated by graphviz version 2.38.0 (20140413.2041)
 -->
<!-- Title: regrid_consts::coordinateunitss Pages: 1 -->
<!--zoomable 88 -->
<svg id="main" version="1.1" xmlns="http://www.w3.org/2000/svg" xmlns:xlink="http://www.w3.org/1999/xlink" xml:space="preserve" onload="init(evt)">
<style type="text/css"><![CDATA[
.edge:hover path { stroke: red; }
.edge:hover polygon { stroke: red; fill: red; }
]]></style>
<script type="text/javascript"><![CDATA[
var edges = document.getElementsByTagName('g');
if (edges && edges.length) {
  for (var i=0;i<edges.length;i++) {
    if (edges[i].id.substr(0,4)=='edge') {
      edges[i].setAttribute('class','edge');
    }
  }
}
]]></script>
        <defs>
                <circle id="rim" cx="0" cy="0" r="7"/>
                <circle id="rim2" cx="0" cy="0" r="3.5"/>
                <g id="zoomPlus">
                        <use xlink:href="#rim" fill="#404040">
                                <set attributeName="fill" to="#808080" begin="zoomplus.mouseover" end="zoomplus.mouseout"/>
                        </use>
                        <path d="M-4,0h8M0,-4v8" fill="none" stroke="white" stroke-width="1.5" pointer-events="none"/>
                </g>
                <g id="zoomMin">
                        <use xlink:href="#rim" fill="#404040">
                                <set attributeName="fill" to="#808080" begin="zoomminus.mouseover" end="zoomminus.mouseout"/>
                        </use>
                        <path d="M-4,0h8" fill="none" stroke="white" stroke-width="1.5" pointer-events="none"/>
                </g>
                <g id="dirArrow">
                        <path fill="none" stroke="white" stroke-width="1.5" d="M0,-3.0v7 M-2.5,-0.5L0,-3.0L2.5,-0.5"/>
                </g>
               <g id="resetDef">
                       <use xlink:href="#rim2" fill="#404040">
                               <set attributeName="fill" to="#808080" begin="reset.mouseover" end="reset.mouseout"/>
                       </use>
               </g>
        </defs>

<script type="text/javascript">
var viewWidth = 637;
var viewHeight = 88;
var sectionId = 'dynsection-4';
</script>
<script xlink:href="svgpan.js"/>
<svg id="graph" class="graph">
<g id="viewport">
<title>regrid_consts::coordinateunitss</title>
<polygon fill="white" stroke="none" points="-4,4 -4,-84 633,-84 633,4 -4,4"/>
<!-- Node16 -->
<g id="node1" class="node"><title>Node16</title>
<polygon fill="#bfbfbf" stroke="black" points="0,-36 0,-55 152,-55 152,-36 0,-36"/>
<text text-anchor="middle" x="76" y="-43" font-family="Helvetica,sans-Serif" font-size="10.00">regrid_consts::coordinateunitss</text>
</g>
<!-- Node17 -->
<g id="node2" class="node"><title>Node17</title>
<g id="a_node2"><a xlink:href="namespaceregrid__consts.html#a06ccba5b7b038bed853606a315df306a" target="_top" xlink:title="Parse a string parameter specifying the coordinate mode and return the appropriate enumerated integer...">
<polygon fill="white" stroke="black" points="188,-17 188,-36 338,-36 338,-17 188,-17"/>
<text text-anchor="middle" x="263" y="-24" font-family="Helvetica,sans-Serif" font-size="10.00">regrid_consts::coordinatemode</text>
</a>
</g>
</g>
<!-- Node16&#45;&gt;Node17 -->
<g id="edge1" class="edge"><title>Node16&#45;&gt;Node17</title>
<path fill="none" stroke="midnightblue" d="M152.247,-37.772C160.568,-36.9174 169.082,-36.043 177.506,-35.1777"/>
<polygon fill="midnightblue" stroke="midnightblue" points="178.129,-38.6322 187.72,-34.1288 177.414,-31.6689 178.129,-38.6322"/>
</g>
<!-- Node21 -->
<g id="node6" class="node"><title>Node21</title>
<g id="a_node6"><a xlink:href="namespaceregrid__consts.html#a66013f9050702cc9015336389c311a4b" target="_top" xlink:title="Returns a string with the coordinate units associated with the enumerated integer,. ">
<polygon fill="white" stroke="black" points="188.5,-55 188.5,-74 337.5,-74 337.5,-55 188.5,-55"/>
<text text-anchor="middle" x="263" y="-62" font-family="Helvetica,sans-Serif" font-size="10.00">regrid_consts::coordinateunitsi</text>
</a>
</g>
</g>
<!-- Node16&#45;&gt;Node21 -->
<g id="edge5" class="edge"><title>Node16&#45;&gt;Node21</title>
<path fill="none" stroke="midnightblue" d="M152.247,-53.228C160.803,-54.1068 169.563,-55.0065 178.221,-55.8956"/>
<polygon fill="midnightblue" stroke="midnightblue" points="178.013,-59.3926 188.318,-56.9327 178.728,-52.4293 178.013,-59.3926"/>
</g>
<!-- Node18 -->
<g id="node3" class="node"><title>Node18</title>
<g id="a_node3"><a xlink:href="namespacemom__error__handler.html#a460cfb79a06c29fc249952c2a3710d67" target="_top" xlink:title="mom_error_handler::\lmom_error">
<polygon fill="white" stroke="black" points="377.5,-49.5 377.5,-79.5 483.5,-79.5 483.5,-49.5 377.5,-49.5"/>
<text text-anchor="start" x="385.5" y="-67.5" font-family="Helvetica,sans-Serif" font-size="10.00">mom_error_handler::</text>
<text text-anchor="middle" x="430.5" y="-56.5" font-family="Helvetica,sans-Serif" font-size="10.00">mom_error</text>
</a>
</g>
</g>
<!-- Node17&#45;&gt;Node18 -->
<g id="edge2" class="edge"><title>Node17&#45;&gt;Node18</title>
<path fill="none" stroke="midnightblue" d="M305.763,-36.089C324.443,-40.3781 346.851,-45.5233 367.435,-50.2495"/>
<polygon fill="midnightblue" stroke="midnightblue" points="366.839,-53.7037 377.369,-52.5303 368.406,-46.8812 366.839,-53.7037"/>
</g>
<!-- Node20 -->
<g id="node5" class="node"><title>Node20</title>
<g id="a_node5"><a xlink:href="namespacemom__string__functions.html#aca148baf726de2f028b7e7baad3c85d4" target="_top" xlink:title="mom_string_functions\l::uppercase">
<polygon fill="white" stroke="black" points="374,-0.5 374,-30.5 487,-30.5 487,-0.5 374,-0.5"/>
<text text-anchor="start" x="382" y="-18.5" font-family="Helvetica,sans-Serif" font-size="10.00">mom_string_functions</text>
<text text-anchor="middle" x="430.5" y="-7.5" font-family="Helvetica,sans-Serif" font-size="10.00">::uppercase</text>
</a>
</g>
</g>
<!-- Node17&#45;&gt;Node20 -->
<g id="edge4" class="edge"><title>Node17&#45;&gt;Node20</title>
<path fill="none" stroke="midnightblue" d="M338.037,-21.5791C346.603,-21.0098 355.295,-20.432 363.74,-19.8707"/>
<polygon fill="midnightblue" stroke="midnightblue" points="364.149,-23.3514 373.894,-19.1958 363.684,-16.3668 364.149,-23.3514"/>
</g>
<!-- Node19 -->
<g id="node4" class="node"><title>Node19</title>
<g id="a_node4"><a xlink:href="namespacemom__error__handler.html#ad5f00a53059c72fe2332d1436c80ca71" target="_top" xlink:title="mom_error_handler::\lis_root_pe">
<polygon fill="white" stroke="black" points="523,-49.5 523,-79.5 629,-79.5 629,-49.5 523,-49.5"/>
<text text-anchor="start" x="531" y="-67.5" font-family="Helvetica,sans-Serif" font-size="10.00">mom_error_handler::</text>
<text text-anchor="middle" x="576" y="-56.5" font-family="Helvetica,sans-Serif" font-size="10.00">is_root_pe</text>
</a>
</g>
</g>
<!-- Node18&#45;&gt;Node19 -->
<g id="edge3" class="edge"><title>Node18&#45;&gt;Node19</title>
<path fill="none" stroke="midnightblue" d="M483.713,-64.5C493.011,-64.5 502.783,-64.5 512.337,-64.5"/>
<polygon fill="midnightblue" stroke="midnightblue" points="512.586,-68.0001 522.586,-64.5 512.586,-61.0001 512.586,-68.0001"/>
</g>
<!-- Node21&#45;&gt;Node18 -->
<g id="edge6" class="edge"><title>Node21&#45;&gt;Node18</title>
<path fill="none" stroke="midnightblue" d="M337.555,-64.5C347.55,-64.5 357.727,-64.5 367.491,-64.5"/>
<polygon fill="midnightblue" stroke="midnightblue" points="367.493,-68.0001 377.493,-64.5 367.493,-61.0001 367.493,-68.0001"/>
</g>
</g>
</svg>
        <g id="navigator" transform="translate(0 0)" fill="#404254">
                <rect fill="#f2f5e9" fill-opacity="0.5" stroke="#606060" stroke-width=".5" x="0" y="0" width="60" height="60"/>
                <use id="zoomplus" xlink:href="#zoomPlus" x="17" y="9" onmousedown="handleZoom(evt,'in')"/>
                <use id="zoomminus" xlink:href="#zoomMin" x="42" y="9" onmousedown="handleZoom(evt,'out')"/>
                <use id="reset" xlink:href="#resetDef" x="30" y="36" onmousedown="handleReset()"/>
                <g id="arrowUp" xlink:href="#dirArrow" transform="translate(30 24)" onmousedown="handlePan(0,-1)">
                  <use xlink:href="#rim" fill="#404040">
                        <set attributeName="fill" to="#808080" begin="arrowUp.mouseover" end="arrowUp.mouseout"/>
                  </use>
                  <path fill="none" stroke="white" stroke-width="1.5" d="M0,-3.0v7 M-2.5,-0.5L0,-3.0L2.5,-0.5"/>
                </g>
                <g id="arrowRight" xlink:href="#dirArrow" transform="rotate(90) translate(36 -43)" onmousedown="handlePan(1,0)">
                  <use xlink:href="#rim" fill="#404040">
                        <set attributeName="fill" to="#808080" begin="arrowRight.mouseover" end="arrowRight.mouseout"/>
                  </use>
                  <path fill="none" stroke="white" stroke-width="1.5" d="M0,-3.0v7 M-2.5,-0.5L0,-3.0L2.5,-0.5"/>
                </g>
                <g id="arrowDown" xlink:href="#dirArrow" transform="rotate(180) translate(-30 -48)" onmousedown="handlePan(0,1)">
                  <use xlink:href="#rim" fill="#404040">
                        <set attributeName="fill" to="#808080" begin="arrowDown.mouseover" end="arrowDown.mouseout"/>
                  </use>
                  <path fill="none" stroke="white" stroke-width="1.5" d="M0,-3.0v7 M-2.5,-0.5L0,-3.0L2.5,-0.5"/>
                </g>
                <g id="arrowLeft" xlink:href="#dirArrow" transform="rotate(270) translate(-36 17)" onmousedown="handlePan(-1,0)">
                  <use xlink:href="#rim" fill="#404040">
                        <set attributeName="fill" to="#808080" begin="arrowLeft.mouseover" end="arrowLeft.mouseout"/>
                  </use>
                  <path fill="none" stroke="white" stroke-width="1.5" d="M0,-3.0v7 M-2.5,-0.5L0,-3.0L2.5,-0.5"/>
                </g>
        </g>
        <svg viewBox="0 0 15 15" width="100%" height="30px" preserveAspectRatio="xMaxYMin meet">
         <g id="arrow_out" transform="scale(0.3 0.3)">
          <a xlink:href="namespaceregrid__consts_abb7bad7b33524d0373426750c48cb1c6_cgraph_org.svg" target="_base">
           <rect id="button" ry="5" rx="5" y="6" x="6" height="38" width="38"
                fill="#f2f5e9" fill-opacity="0.5" stroke="#606060" stroke-width="1.0"/>
           <path id="arrow"
             d="M 11.500037,31.436501 C 11.940474,20.09759 22.043105,11.32322 32.158766,21.979434 L 37.068811,17.246167 C 37.068811,17.246167 37.088388,32 37.088388,32 L 22.160133,31.978069 C 22.160133,31.978069 26.997745,27.140456 26.997745,27.140456 C 18.528582,18.264221 13.291696,25.230495 11.500037,31.436501 z"
             style="fill:#404040;"/>
          </a>
         </g>
        </svg>
</svg>
