<?xml version="1.0" encoding="UTF-8" standalone="no"?>
<!DOCTYPE svg PUBLIC "-//W3C//DTD SVG 1.1//EN"
 "http://www.w3.org/Graphics/SVG/1.1/DTD/svg11.dtd">
<!-- Generated by graphviz version 2.38.0 (20140413.2041)
 -->
<!-- Title: regrid_interp::interpolate_grid Pages: 1 -->
<svg width="785pt" height="88pt"
 viewBox="0.00 0.00 785.00 88.00" xmlns="http://www.w3.org/2000/svg" xmlns:xlink="http://www.w3.org/1999/xlink">
<g id="graph0" class="graph" transform="scale(1 1) rotate(0) translate(4 84)">
<title>regrid_interp::interpolate_grid</title>
<polygon fill="white" stroke="none" points="-4,4 -4,-84 781,-84 781,4 -4,4"/>
<!-- Node53 -->
<g id="node1" class="node"><title>Node53</title>
<polygon fill="#bfbfbf" stroke="black" points="0,-30 0,-49 142,-49 142,-30 0,-30"/>
<text text-anchor="middle" x="71" y="-37" font-family="Helvetica,sans-Serif" font-size="10.00">regrid_interp::interpolate_grid</text>
</g>
<!-- Node54 -->
<g id="node2" class="node"><title>Node54</title>
<g id="a_node2"><a xlink:href="namespaceregrid__interp.html#a4d634eff5836d643ef27129fc934853a" target="_top" xlink:title="regrid_interp::build\l_and_interpolate_grid">
<polygon fill="white" stroke="black" points="178,-24.5 178,-54.5 287,-54.5 287,-24.5 178,-24.5"/>
<text text-anchor="start" x="186" y="-42.5" font-family="Helvetica,sans-Serif" font-size="10.00">regrid_interp::build</text>
<text text-anchor="middle" x="232.5" y="-31.5" font-family="Helvetica,sans-Serif" font-size="10.00">_and_interpolate_grid</text>
</a>
</g>
</g>
<!-- Node53&#45;&gt;Node54 -->
<g id="edge1" class="edge"><title>Node53&#45;&gt;Node54</title>
<path fill="none" stroke="midnightblue" d="M152.464,-39.5C161.034,-39.5 169.592,-39.5 177.744,-39.5"/>
<polygon fill="midnightblue" stroke="midnightblue" points="152.423,-36.0001 142.423,-39.5 152.423,-43.0001 152.423,-36.0001"/>
</g>
<!-- Node55 -->
<g id="node3" class="node"><title>Node55</title>
<g id="a_node3"><a xlink:href="namespacecoord__hycom.html#a863abf3f62297588e4a3065fbf9333ea" target="_top" xlink:title="Build a HyCOM coordinate column. ">
<polygon fill="white" stroke="black" points="324.5,-49.5 324.5,-79.5 425.5,-79.5 425.5,-49.5 324.5,-49.5"/>
<text text-anchor="start" x="332.5" y="-67.5" font-family="Helvetica,sans-Serif" font-size="10.00">coord_hycom::build</text>
<text text-anchor="middle" x="375" y="-56.5" font-family="Helvetica,sans-Serif" font-size="10.00">_hycom1_column</text>
</a>
</g>
</g>
<!-- Node54&#45;&gt;Node55 -->
<g id="edge2" class="edge"><title>Node54&#45;&gt;Node55</title>
<path fill="none" stroke="midnightblue" d="M296.904,-50.7819C306.1,-52.4182 315.454,-54.0826 324.327,-55.6615"/>
<polygon fill="midnightblue" stroke="midnightblue" points="297.476,-47.3288 287.018,-49.0227 296.25,-54.2205 297.476,-47.3288"/>
</g>
<!-- Node58 -->
<g id="node6" class="node"><title>Node58</title>
<g id="a_node6"><a xlink:href="namespacecoord__rho.html#a6f5a56ba973e5e36820222a709614e40" target="_top" xlink:title="coord_rho::build_rho\l_column">
<polygon fill="white" stroke="black" points="323,-0.5 323,-30.5 427,-30.5 427,-0.5 323,-0.5"/>
<text text-anchor="start" x="331" y="-18.5" font-family="Helvetica,sans-Serif" font-size="10.00">coord_rho::build_rho</text>
<text text-anchor="middle" x="375" y="-7.5" font-family="Helvetica,sans-Serif" font-size="10.00">_column</text>
</a>
</g>
</g>
<!-- Node54&#45;&gt;Node58 -->
<g id="edge5" class="edge"><title>Node54&#45;&gt;Node58</title>
<path fill="none" stroke="midnightblue" d="M297.09,-28.6377C305.75,-27.1583 314.547,-25.6557 322.947,-24.2208"/>
<polygon fill="midnightblue" stroke="midnightblue" points="296.286,-25.2243 287.018,-30.3582 297.464,-32.1243 296.286,-25.2243"/>
</g>
<!-- Node56 -->
<g id="node4" class="node"><title>Node56</title>
<g id="a_node4"><a xlink:href="namespacemom__regridding.html#ab3541b357806978862434ee19b1be774" target="_top" xlink:title="Builds a simple HyCOM&#45;like grid with the deepest location of potential density interpolated from the ...">
<polygon fill="white" stroke="black" points="466,-49.5 466,-79.5 578,-79.5 578,-49.5 466,-49.5"/>
<text text-anchor="start" x="474" y="-67.5" font-family="Helvetica,sans-Serif" font-size="10.00">mom_regridding::build</text>
<text text-anchor="middle" x="522" y="-56.5" font-family="Helvetica,sans-Serif" font-size="10.00">_grid_hycom1</text>
</a>
</g>
</g>
<!-- Node55&#45;&gt;Node56 -->
<g id="edge3" class="edge"><title>Node55&#45;&gt;Node56</title>
<path fill="none" stroke="midnightblue" d="M436.027,-64.5C445.884,-64.5 456.059,-64.5 465.792,-64.5"/>
<polygon fill="midnightblue" stroke="midnightblue" points="435.901,-61.0001 425.901,-64.5 435.901,-68.0001 435.901,-61.0001"/>
</g>
<!-- Node57 -->
<g id="node5" class="node"><title>Node57</title>
<g id="a_node5"><a xlink:href="namespacemom__regridding.html#ab354fe3423a39fef6f2b66f409b1682c" target="_top" xlink:title="mom_regridding::regridding_main">
<polygon fill="white" stroke="black" points="617,-55 617,-74 777,-74 777,-55 617,-55"/>
<text text-anchor="middle" x="697" y="-62" font-family="Helvetica,sans-Serif" font-size="10.00">mom_regridding::regridding_main</text>
</a>
</g>
</g>
<!-- Node56&#45;&gt;Node57 -->
<g id="edge4" class="edge"><title>Node56&#45;&gt;Node57</title>
<path fill="none" stroke="midnightblue" d="M588.466,-64.5C597.695,-64.5 607.265,-64.5 616.719,-64.5"/>
<polygon fill="midnightblue" stroke="midnightblue" points="588.214,-61.0001 578.214,-64.5 588.214,-68.0001 588.214,-61.0001"/>
</g>
<!-- Node59 -->
<g id="node7" class="node"><title>Node59</title>
<g id="a_node7"><a xlink:href="namespacemom__diag__remap.html#a1fb71d2982777f33bcbf183187e1819b" target="_top" xlink:title="Build/update target vertical grids for diagnostic remapping. ">
<polygon fill="white" stroke="black" points="463,-0.5 463,-30.5 581,-30.5 581,-0.5 463,-0.5"/>
<text text-anchor="start" x="471" y="-18.5" font-family="Helvetica,sans-Serif" font-size="10.00">mom_diag_remap::diag</text>
<text text-anchor="middle" x="522" y="-7.5" font-family="Helvetica,sans-Serif" font-size="10.00">_remap_update</text>
</a>
</g>
</g>
<!-- Node58&#45;&gt;Node59 -->
<g id="edge6" class="edge"><title>Node58&#45;&gt;Node59</title>
<path fill="none" stroke="midnightblue" d="M437.33,-15.5C445.81,-15.5 454.5,-15.5 462.919,-15.5"/>
<polygon fill="midnightblue" stroke="midnightblue" points="437.122,-12.0001 427.122,-15.5 437.122,-19.0001 437.122,-12.0001"/>
</g>
</g>
</svg>
