<?xml version="1.0" encoding="UTF-8" standalone="no"?>
<!DOCTYPE svg PUBLIC "-//W3C//DTD SVG 1.1//EN"
 "http://www.w3.org/Graphics/SVG/1.1/DTD/svg11.dtd">
<!-- Generated by graphviz version 2.38.0 (20140413.2041)
 -->
<!-- Title: mom_lateral_mixing_coeffs::calc_resoln_function Pages: 1 -->
<!--zoomable 961 -->
<svg id="main" version="1.1" xmlns="http://www.w3.org/2000/svg" xmlns:xlink="http://www.w3.org/1999/xlink" xml:space="preserve" onload="init(evt)">
<style type="text/css"><![CDATA[
.edge:hover path { stroke: red; }
.edge:hover polygon { stroke: red; fill: red; }
]]></style>
<script type="text/javascript"><![CDATA[
var edges = document.getElementsByTagName('g');
if (edges && edges.length) {
  for (var i=0;i<edges.length;i++) {
    if (edges[i].id.substr(0,4)=='edge') {
      edges[i].setAttribute('class','edge');
    }
  }
}
]]></script>
        <defs>
                <circle id="rim" cx="0" cy="0" r="7"/>
                <circle id="rim2" cx="0" cy="0" r="3.5"/>
                <g id="zoomPlus">
                        <use xlink:href="#rim" fill="#404040">
                                <set attributeName="fill" to="#808080" begin="zoomplus.mouseover" end="zoomplus.mouseout"/>
                        </use>
                        <path d="M-4,0h8M0,-4v8" fill="none" stroke="white" stroke-width="1.5" pointer-events="none"/>
                </g>
                <g id="zoomMin">
                        <use xlink:href="#rim" fill="#404040">
                                <set attributeName="fill" to="#808080" begin="zoomminus.mouseover" end="zoomminus.mouseout"/>
                        </use>
                        <path d="M-4,0h8" fill="none" stroke="white" stroke-width="1.5" pointer-events="none"/>
                </g>
                <g id="dirArrow">
                        <path fill="none" stroke="white" stroke-width="1.5" d="M0,-3.0v7 M-2.5,-0.5L0,-3.0L2.5,-0.5"/>
                </g>
               <g id="resetDef">
                       <use xlink:href="#rim2" fill="#404040">
                               <set attributeName="fill" to="#808080" begin="reset.mouseover" end="reset.mouseout"/>
                       </use>
               </g>
        </defs>

<script type="text/javascript">
var viewWidth = 1241;
var viewHeight = 961;
var sectionId = 'dynsection-0';
</script>
<script xlink:href="svgpan.js"/>
<svg id="graph" class="graph">
<g id="viewport">
<title>mom_lateral_mixing_coeffs::calc_resoln_function</title>
<polygon fill="white" stroke="none" points="-4,4 -4,-956.5 1237,-956.5 1237,4 -4,4"/>
<!-- Node0 -->
<g id="node1" class="node"><title>Node0</title>
<polygon fill="#bfbfbf" stroke="black" points="0,-856 0,-897 104,-897 104,-856 0,-856"/>
<text text-anchor="start" x="8" y="-885" font-family="Helvetica,sans-Serif" font-size="10.00">mom_lateral_mixing</text>
<text text-anchor="start" x="8" y="-874" font-family="Helvetica,sans-Serif" font-size="10.00">_coeffs::calc_resoln</text>
<text text-anchor="middle" x="52" y="-863" font-family="Helvetica,sans-Serif" font-size="10.00">_function</text>
</g>
<!-- Node1 -->
<g id="node2" class="node"><title>Node1</title>
<g id="a_node2"><a xlink:href="namespacemom__error__handler.html#a460cfb79a06c29fc249952c2a3710d67" target="_top" xlink:title="mom_error_handler::\lmom_error">
<polygon fill="white" stroke="black" points="981,-654.5 981,-684.5 1087,-684.5 1087,-654.5 981,-654.5"/>
<text text-anchor="start" x="989" y="-672.5" font-family="Helvetica,sans-Serif" font-size="10.00">mom_error_handler::</text>
<text text-anchor="middle" x="1034" y="-661.5" font-family="Helvetica,sans-Serif" font-size="10.00">mom_error</text>
</a>
</g>
</g>
<!-- Node0&#45;&gt;Node1 -->
<g id="edge1" class="edge"><title>Node0&#45;&gt;Node1</title>
<path fill="none" stroke="midnightblue" d="M104.211,-896.468C166.667,-918.986 275.928,-952.5 373,-952.5 373,-952.5 373,-952.5 708,-952.5 822.706,-952.5 858.024,-920.699 941,-841.5 985.146,-799.364 1012.73,-731.317 1025.19,-694.72"/>
<polygon fill="midnightblue" stroke="midnightblue" points="1028.64,-695.45 1028.44,-684.857 1021.99,-693.259 1028.64,-695.45"/>
</g>
<!-- Node3 -->
<g id="node4" class="node"><title>Node3</title>
<g id="a_node4"><a xlink:href="namespacemom__diag__mediator.html#a0be5d1cbc6c6f8f63950ce7d9bc6455a" target="_top" xlink:title="mom_diag_mediator::\lquery_averaging_enabled">
<polygon fill="white" stroke="black" points="140.5,-812.5 140.5,-842.5 267.5,-842.5 267.5,-812.5 140.5,-812.5"/>
<text text-anchor="start" x="148.5" y="-830.5" font-family="Helvetica,sans-Serif" font-size="10.00">mom_diag_mediator::</text>
<text text-anchor="middle" x="204" y="-819.5" font-family="Helvetica,sans-Serif" font-size="10.00">query_averaging_enabled</text>
</a>
</g>
</g>
<!-- Node0&#45;&gt;Node3 -->
<g id="edge3" class="edge"><title>Node0&#45;&gt;Node3</title>
<path fill="none" stroke="midnightblue" d="M104.202,-859.774C118.131,-855.224 133.283,-850.274 147.441,-845.649"/>
<polygon fill="midnightblue" stroke="midnightblue" points="148.638,-848.94 157.057,-842.508 146.465,-842.286 148.638,-848.94"/>
</g>
<!-- Node4 -->
<g id="node5" class="node"><title>Node4</title>
<g id="a_node5"><a xlink:href="namespacemom__wave__speed.html#a72302e356c47c5055ba0b1a8714c772a" target="_top" xlink:title="Calculates the wave speed of the first baroclinic mode. ">
<polygon fill="white" stroke="black" points="140,-861.5 140,-891.5 268,-891.5 268,-861.5 140,-861.5"/>
<text text-anchor="start" x="148" y="-879.5" font-family="Helvetica,sans-Serif" font-size="10.00">mom_wave_speed::wave</text>
<text text-anchor="middle" x="204" y="-868.5" font-family="Helvetica,sans-Serif" font-size="10.00">_speed</text>
</a>
</g>
</g>
<!-- Node0&#45;&gt;Node4 -->
<g id="edge4" class="edge"><title>Node0&#45;&gt;Node4</title>
<path fill="none" stroke="midnightblue" d="M104.202,-876.5C112.437,-876.5 121.099,-876.5 129.731,-876.5"/>
<polygon fill="midnightblue" stroke="midnightblue" points="129.822,-880 139.822,-876.5 129.822,-873 129.822,-880"/>
</g>
<!-- Node2 -->
<g id="node3" class="node"><title>Node2</title>
<g id="a_node3"><a xlink:href="namespacemom__error__handler.html#ad5f00a53059c72fe2332d1436c80ca71" target="_top" xlink:title="mom_error_handler::\lis_root_pe">
<polygon fill="white" stroke="black" points="1127,-654.5 1127,-684.5 1233,-684.5 1233,-654.5 1127,-654.5"/>
<text text-anchor="start" x="1135" y="-672.5" font-family="Helvetica,sans-Serif" font-size="10.00">mom_error_handler::</text>
<text text-anchor="middle" x="1180" y="-661.5" font-family="Helvetica,sans-Serif" font-size="10.00">is_root_pe</text>
</a>
</g>
</g>
<!-- Node1&#45;&gt;Node2 -->
<g id="edge2" class="edge"><title>Node1&#45;&gt;Node2</title>
<path fill="none" stroke="midnightblue" d="M1087.39,-669.5C1096.94,-669.5 1106.99,-669.5 1116.79,-669.5"/>
<polygon fill="midnightblue" stroke="midnightblue" points="1116.89,-673 1126.89,-669.5 1116.89,-666 1116.89,-673"/>
</g>
<!-- Node4&#45;&gt;Node1 -->
<g id="edge5" class="edge"><title>Node4&#45;&gt;Node1</title>
<path fill="none" stroke="midnightblue" d="M268.288,-876.5C335.646,-876.5 445.345,-876.5 540,-876.5 540,-876.5 540,-876.5 708,-876.5 818.231,-876.5 852.403,-857.085 941,-791.5 976.666,-765.098 1005,-721.109 1020.36,-693.79"/>
<polygon fill="midnightblue" stroke="midnightblue" points="1023.51,-695.33 1025.24,-684.879 1017.37,-691.968 1023.51,-695.33"/>
</g>
<!-- Node5 -->
<g id="node6" class="node"><title>Node5</title>
<g id="a_node6"><a xlink:href="namespacemom__eos.html#a204529f8434a0322314e6ce2a9762436" target="_top" xlink:title="Calls the appropriate subroutine to calculate density derivatives for 1&#45;D array inputs. ">
<polygon fill="white" stroke="black" points="322,-629.5 322,-659.5 426,-659.5 426,-629.5 322,-629.5"/>
<text text-anchor="start" x="330" y="-647.5" font-family="Helvetica,sans-Serif" font-size="10.00">mom_eos::calculate</text>
<text text-anchor="middle" x="374" y="-636.5" font-family="Helvetica,sans-Serif" font-size="10.00">_density_derivs</text>
</a>
</g>
</g>
<!-- Node4&#45;&gt;Node5 -->
<g id="edge6" class="edge"><title>Node4&#45;&gt;Node5</title>
<path fill="none" stroke="midnightblue" d="M257.105,-861.441C261.12,-858.906 264.834,-855.949 268,-852.5 307.381,-809.592 276.646,-777.918 304,-726.5 315.832,-704.26 334.449,-682.607 349.365,-667.141"/>
<polygon fill="midnightblue" stroke="midnightblue" points="352.232,-669.22 356.772,-659.648 347.253,-664.299 352.232,-669.22"/>
</g>
<!-- Node6 -->
<g id="node7" class="node"><title>Node6</title>
<g id="a_node7"><a xlink:href="namespacemom__wave__speed.html#a57673d33027f1ef38330443123102301" target="_top" xlink:title="Solve a non&#45;symmetric tridiagonal problem with a scalar contribution to the leading diagonal...">
<polygon fill="white" stroke="black" points="308.5,-905 308.5,-924 439.5,-924 439.5,-905 308.5,-905"/>
<text text-anchor="middle" x="374" y="-912" font-family="Helvetica,sans-Serif" font-size="10.00">mom_wave_speed::tdma6</text>
</a>
</g>
</g>
<!-- Node4&#45;&gt;Node6 -->
<g id="edge8" class="edge"><title>Node4&#45;&gt;Node6</title>
<path fill="none" stroke="midnightblue" d="M268.035,-890.758C285.383,-894.682 304.006,-898.894 320.679,-902.665"/>
<polygon fill="midnightblue" stroke="midnightblue" points="320.253,-906.157 330.778,-904.95 321.797,-899.33 320.253,-906.157"/>
</g>
<!-- Node7 -->
<g id="node8" class="node"><title>Node7</title>
<g id="a_node8"><a xlink:href="namespacemom__remapping.html#a9ed32f0c2764a3ead9311670315dc26c" target="_top" xlink:title="Remaps column of values u0 on grid h0 to grid h1 assuming the top edge is aligned. ">
<polygon fill="white" stroke="black" points="304,-735.5 304,-765.5 444,-765.5 444,-735.5 304,-735.5"/>
<text text-anchor="start" x="312" y="-753.5" font-family="Helvetica,sans-Serif" font-size="10.00">mom_remapping::remapping</text>
<text text-anchor="middle" x="374" y="-742.5" font-family="Helvetica,sans-Serif" font-size="10.00">_core_h</text>
</a>
</g>
</g>
<!-- Node4&#45;&gt;Node7 -->
<g id="edge9" class="edge"><title>Node4&#45;&gt;Node7</title>
<path fill="none" stroke="midnightblue" d="M251.149,-861.45C257.004,-858.816 262.769,-855.834 268,-852.5 302.357,-830.602 334.86,-796.13 354.358,-773.42"/>
<polygon fill="midnightblue" stroke="midnightblue" points="357.157,-775.53 360.932,-765.631 351.807,-771.015 357.157,-775.53"/>
</g>
<!-- Node5&#45;&gt;Node1 -->
<g id="edge7" class="edge"><title>Node5&#45;&gt;Node1</title>
<path fill="none" stroke="midnightblue" d="M426.291,-636.856C526.304,-623.428 753.962,-600.124 941,-634.5 958.398,-637.698 976.769,-644.032 992.481,-650.444"/>
<polygon fill="midnightblue" stroke="midnightblue" points="991.314,-653.75 1001.89,-654.418 994.038,-647.302 991.314,-653.75"/>
</g>
<!-- Node7&#45;&gt;Node1 -->
<g id="edge52" class="edge"><title>Node7&#45;&gt;Node1</title>
<path fill="none" stroke="midnightblue" d="M391.246,-765.631C410.643,-782.563 444.892,-808.997 480,-819.5 606.244,-857.268 646.267,-825.594 776,-802.5 850.61,-789.219 875.035,-796.804 941,-759.5 971.086,-742.486 998.404,-713.173 1015.31,-692.636"/>
<polygon fill="midnightblue" stroke="midnightblue" points="1018.15,-694.69 1021.69,-684.703 1012.7,-690.304 1018.15,-694.69"/>
</g>
<!-- Node8 -->
<g id="node9" class="node"><title>Node8</title>
<g id="a_node9"><a xlink:href="namespacemom__remapping.html#a07d7276310f329f56560a1290bcb8b0a" target="_top" xlink:title="Creates polynomial reconstructions of u0 on the source grid h0. ">
<polygon fill="white" stroke="black" points="483.5,-294.5 483.5,-324.5 598.5,-324.5 598.5,-294.5 483.5,-294.5"/>
<text text-anchor="start" x="491.5" y="-312.5" font-family="Helvetica,sans-Serif" font-size="10.00">mom_remapping::build</text>
<text text-anchor="middle" x="541" y="-301.5" font-family="Helvetica,sans-Serif" font-size="10.00">_reconstructions_1d</text>
</a>
</g>
</g>
<!-- Node7&#45;&gt;Node8 -->
<g id="edge10" class="edge"><title>Node7&#45;&gt;Node8</title>
<path fill="none" stroke="midnightblue" d="M391.323,-735.403C407.022,-720.013 430.329,-694.734 444,-668.5 504.347,-552.698 529.279,-395.598 537.074,-334.892"/>
<polygon fill="midnightblue" stroke="midnightblue" points="540.579,-335.064 538.334,-324.71 533.632,-334.204 540.579,-335.064"/>
</g>
<!-- Node27 -->
<g id="node28" class="node"><title>Node27</title>
<g id="a_node28"><a xlink:href="namespacemom__remapping.html#a62666b08a892ba9e9ab5a4731a07b942" target="_top" xlink:title="Checks that edge values and reconstructions satisfy bounds. ">
<polygon fill="white" stroke="black" points="480.5,-779.5 480.5,-809.5 601.5,-809.5 601.5,-779.5 480.5,-779.5"/>
<text text-anchor="start" x="488.5" y="-797.5" font-family="Helvetica,sans-Serif" font-size="10.00">mom_remapping::check</text>
<text text-anchor="middle" x="541" y="-786.5" font-family="Helvetica,sans-Serif" font-size="10.00">_reconstructions_1d</text>
</a>
</g>
</g>
<!-- Node7&#45;&gt;Node27 -->
<g id="edge42" class="edge"><title>Node7&#45;&gt;Node27</title>
<path fill="none" stroke="midnightblue" d="M431.322,-765.519C444.92,-769.145 459.575,-773.053 473.587,-776.79"/>
<polygon fill="midnightblue" stroke="midnightblue" points="473.088,-780.279 483.652,-779.474 474.891,-773.515 473.088,-780.279"/>
</g>
<!-- Node28 -->
<g id="node29" class="node"><title>Node28</title>
<g id="a_node29"><a xlink:href="namespacemom__remapping.html#aac27eb299cd36293b458a51b60ac771f" target="_top" xlink:title="Remaps column of n0 values u0 on grid h0 to grid h1 with n1 cells by calculating the n0+n1+1 sub&#45;inte...">
<polygon fill="white" stroke="black" points="480,-653.5 480,-683.5 602,-683.5 602,-653.5 480,-653.5"/>
<text text-anchor="start" x="488" y="-671.5" font-family="Helvetica,sans-Serif" font-size="10.00">mom_remapping::remap</text>
<text text-anchor="middle" x="541" y="-660.5" font-family="Helvetica,sans-Serif" font-size="10.00">_via_sub_cells</text>
</a>
</g>
</g>
<!-- Node7&#45;&gt;Node28 -->
<g id="edge44" class="edge"><title>Node7&#45;&gt;Node28</title>
<path fill="none" stroke="midnightblue" d="M405.264,-735.46C432.044,-722.151 471.298,-702.643 500.537,-688.112"/>
<polygon fill="midnightblue" stroke="midnightblue" points="502.252,-691.168 509.649,-683.583 499.137,-684.9 502.252,-691.168"/>
</g>
<!-- Node30 -->
<g id="node31" class="node"><title>Node30</title>
<g id="a_node31"><a xlink:href="namespacemom__remapping.html#afe0efe65edb680f96fc5efe3d29a9217" target="_top" xlink:title="Measure totals and bounds on source grid. ">
<polygon fill="white" stroke="black" points="641,-741.5 641,-771.5 773,-771.5 773,-741.5 641,-741.5"/>
<text text-anchor="start" x="649" y="-759.5" font-family="Helvetica,sans-Serif" font-size="10.00">mom_remapping::measure</text>
<text text-anchor="middle" x="707" y="-748.5" font-family="Helvetica,sans-Serif" font-size="10.00">_input_bounds</text>
</a>
</g>
</g>
<!-- Node7&#45;&gt;Node30 -->
<g id="edge50" class="edge"><title>Node7&#45;&gt;Node30</title>
<path fill="none" stroke="midnightblue" d="M444.388,-751.758C498.909,-752.746 574.724,-754.12 630.709,-755.135"/>
<polygon fill="midnightblue" stroke="midnightblue" points="630.86,-758.638 640.922,-755.32 630.987,-751.64 630.86,-758.638"/>
</g>
<!-- Node31 -->
<g id="node32" class="node"><title>Node31</title>
<g id="a_node32"><a xlink:href="namespacemom__remapping.html#a5453aeefe69feaff159b67f3a4bd2366" target="_top" xlink:title="Measure totals and bounds on destination grid. ">
<polygon fill="white" stroke="black" points="641,-692.5 641,-722.5 773,-722.5 773,-692.5 641,-692.5"/>
<text text-anchor="start" x="649" y="-710.5" font-family="Helvetica,sans-Serif" font-size="10.00">mom_remapping::measure</text>
<text text-anchor="middle" x="707" y="-699.5" font-family="Helvetica,sans-Serif" font-size="10.00">_output_bounds</text>
</a>
</g>
</g>
<!-- Node7&#45;&gt;Node31 -->
<g id="edge51" class="edge"><title>Node7&#45;&gt;Node31</title>
<path fill="none" stroke="midnightblue" d="M444.388,-741.486C498.909,-734.403 574.724,-724.554 630.709,-717.281"/>
<polygon fill="midnightblue" stroke="midnightblue" points="631.456,-720.713 640.922,-715.954 630.555,-713.772 631.456,-720.713"/>
</g>
<!-- Node8&#45;&gt;Node1 -->
<g id="edge41" class="edge"><title>Node8&#45;&gt;Node1</title>
<path fill="none" stroke="midnightblue" d="M543.629,-324.549C548.882,-365.088 569.255,-477.047 638,-529.5 746.184,-612.045 820.013,-511.213 941,-573.5 973.614,-590.291 1001.19,-623.226 1017.41,-645.793"/>
<polygon fill="midnightblue" stroke="midnightblue" points="1014.66,-647.972 1023.26,-654.17 1020.4,-643.966 1014.66,-647.972"/>
</g>
<!-- Node9 -->
<g id="node10" class="node"><title>Node9</title>
<g id="a_node10"><a xlink:href="namespacepcm__functions.html#a273c33619766b17e1bea2f9bbc1d5e1b" target="_top" xlink:title="pcm_functions::pcm\l_reconstruction">
<polygon fill="white" stroke="black" points="654.5,-98.5 654.5,-128.5 759.5,-128.5 759.5,-98.5 654.5,-98.5"/>
<text text-anchor="start" x="662.5" y="-116.5" font-family="Helvetica,sans-Serif" font-size="10.00">pcm_functions::pcm</text>
<text text-anchor="middle" x="707" y="-105.5" font-family="Helvetica,sans-Serif" font-size="10.00">_reconstruction</text>
</a>
</g>
</g>
<!-- Node8&#45;&gt;Node9 -->
<g id="edge11" class="edge"><title>Node8&#45;&gt;Node9</title>
<path fill="none" stroke="midnightblue" d="M546.343,-294.49C556.676,-261.368 585.842,-181.478 638,-137.5 640.364,-135.506 642.906,-133.674 645.568,-131.991"/>
<polygon fill="midnightblue" stroke="midnightblue" points="647.351,-135.004 654.411,-127.104 643.966,-128.877 647.351,-135.004"/>
</g>
<!-- Node10 -->
<g id="node11" class="node"><title>Node10</title>
<g id="a_node11"><a xlink:href="namespaceplm__functions.html#abf6acfcb1bef51f0c1f8682de53782c4" target="_top" xlink:title="plm_functions::plm\l_reconstruction">
<polygon fill="white" stroke="black" points="657.5,-49.5 657.5,-79.5 756.5,-79.5 756.5,-49.5 657.5,-49.5"/>
<text text-anchor="start" x="665.5" y="-67.5" font-family="Helvetica,sans-Serif" font-size="10.00">plm_functions::plm</text>
<text text-anchor="middle" x="707" y="-56.5" font-family="Helvetica,sans-Serif" font-size="10.00">_reconstruction</text>
</a>
</g>
</g>
<!-- Node8&#45;&gt;Node10 -->
<g id="edge12" class="edge"><title>Node8&#45;&gt;Node10</title>
<path fill="none" stroke="midnightblue" d="M544.341,-294.225C551.212,-254.551 574.957,-147.248 638,-88.5 641.143,-85.5714 644.665,-82.9968 648.407,-80.7337"/>
<polygon fill="midnightblue" stroke="midnightblue" points="650.226,-83.7326 657.468,-75.999 646.984,-77.5286 650.226,-83.7326"/>
</g>
<!-- Node11 -->
<g id="node12" class="node"><title>Node11</title>
<g id="a_node12"><a xlink:href="namespaceplm__functions.html#a66dd52e70d72fb5830f9c4fb16efb2e8" target="_top" xlink:title="plm_functions::plm\l_boundary_extrapolation">
<polygon fill="white" stroke="black" points="646,-490.5 646,-520.5 768,-520.5 768,-490.5 646,-490.5"/>
<text text-anchor="start" x="654" y="-508.5" font-family="Helvetica,sans-Serif" font-size="10.00">plm_functions::plm</text>
<text text-anchor="middle" x="707" y="-497.5" font-family="Helvetica,sans-Serif" font-size="10.00">_boundary_extrapolation</text>
</a>
</g>
</g>
<!-- Node8&#45;&gt;Node11 -->
<g id="edge13" class="edge"><title>Node8&#45;&gt;Node11</title>
<path fill="none" stroke="midnightblue" d="M546.489,-324.621C557.028,-357.602 586.434,-436.555 638,-480.5 639.969,-482.178 642.06,-483.747 644.241,-485.215"/>
<polygon fill="midnightblue" stroke="midnightblue" points="642.638,-488.332 653.031,-490.386 646.187,-482.299 642.638,-488.332"/>
</g>
<!-- Node12 -->
<g id="node13" class="node"><title>Node12</title>
<g id="a_node13"><a xlink:href="namespaceppm__functions.html#a97e2144c7499aacd90858788f1312432" target="_top" xlink:title="Builds quadratic polynomials coefficients from cell mean and edge values. ">
<polygon fill="white" stroke="black" points="654.5,-147.5 654.5,-177.5 759.5,-177.5 759.5,-147.5 654.5,-147.5"/>
<text text-anchor="start" x="662.5" y="-165.5" font-family="Helvetica,sans-Serif" font-size="10.00">ppm_functions::ppm</text>
<text text-anchor="middle" x="707" y="-154.5" font-family="Helvetica,sans-Serif" font-size="10.00">_reconstruction</text>
</a>
</g>
</g>
<!-- Node8&#45;&gt;Node12 -->
<g id="edge14" class="edge"><title>Node8&#45;&gt;Node12</title>
<path fill="none" stroke="midnightblue" d="M549.972,-294.371C564.265,-268.635 596.662,-216.242 638,-186.5 640.334,-184.821 642.797,-183.249 645.346,-181.78"/>
<polygon fill="midnightblue" stroke="midnightblue" points="647.002,-184.864 654.287,-177.171 643.795,-178.642 647.002,-184.864"/>
</g>
<!-- Node16 -->
<g id="node17" class="node"><title>Node16</title>
<g id="a_node17"><a xlink:href="namespaceppm__functions.html#aaf88d77ece3a30843c730fd2d57c517f" target="_top" xlink:title="ppm_functions::ppm\l_boundary_extrapolation">
<polygon fill="white" stroke="black" points="646,-441.5 646,-471.5 768,-471.5 768,-441.5 646,-441.5"/>
<text text-anchor="start" x="654" y="-459.5" font-family="Helvetica,sans-Serif" font-size="10.00">ppm_functions::ppm</text>
<text text-anchor="middle" x="707" y="-448.5" font-family="Helvetica,sans-Serif" font-size="10.00">_boundary_extrapolation</text>
</a>
</g>
</g>
<!-- Node8&#45;&gt;Node16 -->
<g id="edge18" class="edge"><title>Node8&#45;&gt;Node16</title>
<path fill="none" stroke="midnightblue" d="M550.276,-324.856C564.794,-350.436 597.222,-401.88 638,-431.5 640.646,-433.422 643.456,-435.211 646.369,-436.875"/>
<polygon fill="midnightblue" stroke="midnightblue" points="644.865,-440.037 655.358,-441.498 648.066,-433.812 644.865,-440.037"/>
</g>
<!-- Node17 -->
<g id="node18" class="node"><title>Node17</title>
<g id="a_node18"><a xlink:href="namespaceregrid__edge__values.html#a2c2460b31b6de501eed3cb7db07a4be5" target="_top" xlink:title="regrid_edge_values\l::edge_values_implicit_h4">
<polygon fill="white" stroke="black" points="642.5,-343.5 642.5,-373.5 771.5,-373.5 771.5,-343.5 642.5,-343.5"/>
<text text-anchor="start" x="650.5" y="-361.5" font-family="Helvetica,sans-Serif" font-size="10.00">regrid_edge_values</text>
<text text-anchor="middle" x="707" y="-350.5" font-family="Helvetica,sans-Serif" font-size="10.00">::edge_values_implicit_h4</text>
</a>
</g>
</g>
<!-- Node8&#45;&gt;Node17 -->
<g id="edge19" class="edge"><title>Node8&#45;&gt;Node17</title>
<path fill="none" stroke="midnightblue" d="M592.544,-324.601C609.458,-329.655 628.477,-335.338 646.039,-340.585"/>
<polygon fill="midnightblue" stroke="midnightblue" points="645.04,-343.939 655.623,-343.448 647.044,-337.232 645.04,-343.939"/>
</g>
<!-- Node21 -->
<g id="node22" class="node"><title>Node21</title>
<g id="a_node22"><a xlink:href="namespaceregrid__edge__slopes.html#a378dcb603968664e58d65e8ed892ec69" target="_top" xlink:title="regrid_edge_slopes\l::edge_slopes_implicit_h3">
<polygon fill="white" stroke="black" points="642.5,-294.5 642.5,-324.5 771.5,-324.5 771.5,-294.5 642.5,-294.5"/>
<text text-anchor="start" x="650.5" y="-312.5" font-family="Helvetica,sans-Serif" font-size="10.00">regrid_edge_slopes</text>
<text text-anchor="middle" x="707" y="-301.5" font-family="Helvetica,sans-Serif" font-size="10.00">::edge_slopes_implicit_h3</text>
</a>
</g>
</g>
<!-- Node8&#45;&gt;Node21 -->
<g id="edge24" class="edge"><title>Node8&#45;&gt;Node21</title>
<path fill="none" stroke="midnightblue" d="M598.899,-309.5C609.665,-309.5 621.07,-309.5 632.268,-309.5"/>
<polygon fill="midnightblue" stroke="midnightblue" points="632.469,-313 642.469,-309.5 632.469,-306 632.469,-313"/>
</g>
<!-- Node22 -->
<g id="node23" class="node"><title>Node22</title>
<g id="a_node23"><a xlink:href="namespacepqm__functions.html#ada7e1a8d9d70b5b78b5e2dfddb5ffa43" target="_top" xlink:title="pqm_functions::pqm\l_reconstruction">
<polygon fill="white" stroke="black" points="654.5,-0.5 654.5,-30.5 759.5,-30.5 759.5,-0.5 654.5,-0.5"/>
<text text-anchor="start" x="662.5" y="-18.5" font-family="Helvetica,sans-Serif" font-size="10.00">pqm_functions::pqm</text>
<text text-anchor="middle" x="707" y="-7.5" font-family="Helvetica,sans-Serif" font-size="10.00">_reconstruction</text>
</a>
</g>
</g>
<!-- Node8&#45;&gt;Node22 -->
<g id="edge28" class="edge"><title>Node8&#45;&gt;Node22</title>
<path fill="none" stroke="midnightblue" d="M542.968,-294.277C546.658,-248.986 563.687,-113.64 638,-39.5 640.349,-37.1568 642.94,-35.0416 645.698,-33.1322"/>
<polygon fill="midnightblue" stroke="midnightblue" points="647.563,-36.0953 654.398,-27.9996 644.007,-30.0663 647.563,-36.0953"/>
</g>
<!-- Node24 -->
<g id="node25" class="node"><title>Node24</title>
<g id="a_node25"><a xlink:href="namespacepqm__functions.html#ae2c3bd1b82cddbe1bbb0e93e83d93e48" target="_top" xlink:title="pqm_functions::pqm\l_boundary_extrapolation_v1">
<polygon fill="white" stroke="black" points="638,-392.5 638,-422.5 776,-422.5 776,-392.5 638,-392.5"/>
<text text-anchor="start" x="646" y="-410.5" font-family="Helvetica,sans-Serif" font-size="10.00">pqm_functions::pqm</text>
<text text-anchor="middle" x="707" y="-399.5" font-family="Helvetica,sans-Serif" font-size="10.00">_boundary_extrapolation_v1</text>
</a>
</g>
</g>
<!-- Node8&#45;&gt;Node24 -->
<g id="edge32" class="edge"><title>Node8&#45;&gt;Node24</title>
<path fill="none" stroke="midnightblue" d="M558.616,-324.615C576.957,-340.682 607.885,-366.001 638,-382.5 641.89,-384.631 645.999,-386.65 650.192,-388.546"/>
<polygon fill="midnightblue" stroke="midnightblue" points="648.884,-391.793 659.455,-392.499 651.631,-385.355 648.884,-391.793"/>
</g>
<!-- Node25 -->
<g id="node26" class="node"><title>Node25</title>
<g id="a_node26"><a xlink:href="namespaceregrid__edge__values.html#a6c14843c556353d86f2efb4c7c74c9f5" target="_top" xlink:title="regrid_edge_values\l::edge_values_implicit_h6">
<polygon fill="white" stroke="black" points="642.5,-245.5 642.5,-275.5 771.5,-275.5 771.5,-245.5 642.5,-245.5"/>
<text text-anchor="start" x="650.5" y="-263.5" font-family="Helvetica,sans-Serif" font-size="10.00">regrid_edge_values</text>
<text text-anchor="middle" x="707" y="-252.5" font-family="Helvetica,sans-Serif" font-size="10.00">::edge_values_implicit_h6</text>
</a>
</g>
</g>
<!-- Node8&#45;&gt;Node25 -->
<g id="edge33" class="edge"><title>Node8&#45;&gt;Node25</title>
<path fill="none" stroke="midnightblue" d="M592.544,-294.399C609.458,-289.345 628.477,-283.662 646.039,-278.415"/>
<polygon fill="midnightblue" stroke="midnightblue" points="647.044,-281.768 655.623,-275.552 645.04,-275.061 647.044,-281.768"/>
</g>
<!-- Node26 -->
<g id="node27" class="node"><title>Node26</title>
<g id="a_node27"><a xlink:href="namespaceregrid__edge__slopes.html#a32fc906bf14cfb859703b4a1a7c46a9c" target="_top" xlink:title="regrid_edge_slopes\l::edge_slopes_implicit_h5">
<polygon fill="white" stroke="black" points="642.5,-196.5 642.5,-226.5 771.5,-226.5 771.5,-196.5 642.5,-196.5"/>
<text text-anchor="start" x="650.5" y="-214.5" font-family="Helvetica,sans-Serif" font-size="10.00">regrid_edge_slopes</text>
<text text-anchor="middle" x="707" y="-203.5" font-family="Helvetica,sans-Serif" font-size="10.00">::edge_slopes_implicit_h5</text>
</a>
</g>
</g>
<!-- Node8&#45;&gt;Node26 -->
<g id="edge37" class="edge"><title>Node8&#45;&gt;Node26</title>
<path fill="none" stroke="midnightblue" d="M558.204,-294.383C576.433,-278.032 607.495,-252.085 638,-235.5 641.214,-233.753 644.58,-232.092 648.021,-230.52"/>
<polygon fill="midnightblue" stroke="midnightblue" points="649.438,-233.721 657.255,-226.57 646.684,-227.285 649.438,-233.721"/>
</g>
<!-- Node13 -->
<g id="node14" class="node"><title>Node13</title>
<g id="a_node14"><a xlink:href="namespaceppm__functions.html#a89920c90b84f0b241c5a6d65fe2870b9" target="_top" xlink:title="Adjusts edge values using the standard PPM limiter (Colella &amp; Woodward, JCP 1984) after first checkin...">
<polygon fill="white" stroke="black" points="824,-101.5 824,-131.5 929,-131.5 929,-101.5 824,-101.5"/>
<text text-anchor="start" x="832" y="-119.5" font-family="Helvetica,sans-Serif" font-size="10.00">ppm_functions::ppm</text>
<text text-anchor="middle" x="876.5" y="-108.5" font-family="Helvetica,sans-Serif" font-size="10.00">_limiter_standard</text>
</a>
</g>
</g>
<!-- Node12&#45;&gt;Node13 -->
<g id="edge15" class="edge"><title>Node12&#45;&gt;Node13</title>
<path fill="none" stroke="midnightblue" d="M759.622,-148.323C776.816,-143.601 796.14,-138.294 814.007,-133.388"/>
<polygon fill="midnightblue" stroke="midnightblue" points="815.044,-136.733 823.76,-130.709 813.19,-129.982 815.044,-136.733"/>
</g>
<!-- Node14 -->
<g id="node15" class="node"><title>Node14</title>
<g id="a_node15"><a xlink:href="namespaceregrid__edge__values.html#aa204fe78ee22cae62f2b7f1bc76151a9" target="_top" xlink:title="regrid_edge_values\l::bound_edge_values">
<polygon fill="white" stroke="black" points="979.5,-101.5 979.5,-131.5 1088.5,-131.5 1088.5,-101.5 979.5,-101.5"/>
<text text-anchor="start" x="987.5" y="-119.5" font-family="Helvetica,sans-Serif" font-size="10.00">regrid_edge_values</text>
<text text-anchor="middle" x="1034" y="-108.5" font-family="Helvetica,sans-Serif" font-size="10.00">::bound_edge_values</text>
</a>
</g>
</g>
<!-- Node13&#45;&gt;Node14 -->
<g id="edge16" class="edge"><title>Node13&#45;&gt;Node14</title>
<path fill="none" stroke="midnightblue" d="M929.279,-116.5C942.093,-116.5 955.969,-116.5 969.279,-116.5"/>
<polygon fill="midnightblue" stroke="midnightblue" points="969.319,-120 979.319,-116.5 969.319,-113 969.319,-120"/>
</g>
<!-- Node15 -->
<g id="node16" class="node"><title>Node15</title>
<g id="a_node16"><a xlink:href="namespaceregrid__edge__values.html#acbdacbbf7212e538bb52a9729fc949a7" target="_top" xlink:title="regrid_edge_values\l::check_discontinuous\l_edge_values">
<polygon fill="white" stroke="black" points="977,-41 977,-82 1091,-82 1091,-41 977,-41"/>
<text text-anchor="start" x="985" y="-70" font-family="Helvetica,sans-Serif" font-size="10.00">regrid_edge_values</text>
<text text-anchor="start" x="985" y="-59" font-family="Helvetica,sans-Serif" font-size="10.00">::check_discontinuous</text>
<text text-anchor="middle" x="1034" y="-48" font-family="Helvetica,sans-Serif" font-size="10.00">_edge_values</text>
</a>
</g>
</g>
<!-- Node13&#45;&gt;Node15 -->
<g id="edge17" class="edge"><title>Node13&#45;&gt;Node15</title>
<path fill="none" stroke="midnightblue" d="M919.991,-101.471C934.512,-96.3349 951.115,-90.4625 967.042,-84.8291"/>
<polygon fill="midnightblue" stroke="midnightblue" points="968.587,-87.9954 976.847,-81.3611 966.252,-81.396 968.587,-87.9954"/>
</g>
<!-- Node18 -->
<g id="node19" class="node"><title>Node18</title>
<g id="a_node19"><a xlink:href="namespaceregrid__solvers.html#a8130a338b59de62b00f68da4204568ad" target="_top" xlink:title="regrid_solvers::solve\l_linear_system">
<polygon fill="white" stroke="black" points="823,-294.5 823,-324.5 930,-324.5 930,-294.5 823,-294.5"/>
<text text-anchor="start" x="831" y="-312.5" font-family="Helvetica,sans-Serif" font-size="10.00">regrid_solvers::solve</text>
<text text-anchor="middle" x="876.5" y="-301.5" font-family="Helvetica,sans-Serif" font-size="10.00">_linear_system</text>
</a>
</g>
</g>
<!-- Node17&#45;&gt;Node18 -->
<g id="edge20" class="edge"><title>Node17&#45;&gt;Node18</title>
<path fill="none" stroke="midnightblue" d="M759.622,-343.399C776.898,-338.345 796.322,-332.662 814.259,-327.415"/>
<polygon fill="midnightblue" stroke="midnightblue" points="815.433,-330.719 824.048,-324.552 813.468,-324 815.433,-330.719"/>
</g>
<!-- Node19 -->
<g id="node20" class="node"><title>Node19</title>
<g id="a_node20"><a xlink:href="namespacepolynomial__functions.html#aed77465c5ca9937dab06fdb5f94eba39" target="_top" xlink:title="polynomial_functions\l::evaluation_polynomial">
<polygon fill="white" stroke="black" points="817,-245.5 817,-275.5 936,-275.5 936,-245.5 817,-245.5"/>
<text text-anchor="start" x="825" y="-263.5" font-family="Helvetica,sans-Serif" font-size="10.00">polynomial_functions</text>
<text text-anchor="middle" x="876.5" y="-252.5" font-family="Helvetica,sans-Serif" font-size="10.00">::evaluation_polynomial</text>
</a>
</g>
</g>
<!-- Node17&#45;&gt;Node19 -->
<g id="edge22" class="edge"><title>Node17&#45;&gt;Node19</title>
<path fill="none" stroke="midnightblue" d="M759.116,-343.498C765.09,-340.667 770.873,-337.355 776,-333.5 797.599,-317.259 790.475,-300.838 812,-284.5 813.831,-283.111 815.751,-281.794 817.736,-280.546"/>
<polygon fill="midnightblue" stroke="midnightblue" points="819.747,-283.432 826.784,-275.512 816.344,-277.315 819.747,-283.432"/>
</g>
<!-- Node20 -->
<g id="node21" class="node"><title>Node20</title>
<g id="a_node21"><a xlink:href="namespaceregrid__solvers.html#a0d5c3cff8f31429b0a2c6d267e8b345d" target="_top" xlink:title="regrid_solvers::solve\l_tridiagonal_system">
<polygon fill="white" stroke="black" points="823,-343.5 823,-373.5 930,-373.5 930,-343.5 823,-343.5"/>
<text text-anchor="start" x="831" y="-361.5" font-family="Helvetica,sans-Serif" font-size="10.00">regrid_solvers::solve</text>
<text text-anchor="middle" x="876.5" y="-350.5" font-family="Helvetica,sans-Serif" font-size="10.00">_tridiagonal_system</text>
</a>
</g>
</g>
<!-- Node17&#45;&gt;Node20 -->
<g id="edge23" class="edge"><title>Node17&#45;&gt;Node20</title>
<path fill="none" stroke="midnightblue" d="M771.802,-358.5C785.211,-358.5 799.344,-358.5 812.714,-358.5"/>
<polygon fill="midnightblue" stroke="midnightblue" points="812.766,-362 822.766,-358.5 812.766,-355 812.766,-362"/>
</g>
<!-- Node18&#45;&gt;Node1 -->
<g id="edge21" class="edge"><title>Node18&#45;&gt;Node1</title>
<path fill="none" stroke="midnightblue" d="M930.057,-324.479C934.095,-327.031 937.827,-330.013 941,-333.5 1023.58,-424.246 1033.05,-582.177 1033.43,-643.819"/>
<polygon fill="midnightblue" stroke="midnightblue" points="1029.93,-644.163 1033.41,-654.17 1036.93,-644.177 1029.93,-644.163"/>
</g>
<!-- Node21&#45;&gt;Node18 -->
<g id="edge25" class="edge"><title>Node21&#45;&gt;Node18</title>
<path fill="none" stroke="midnightblue" d="M771.802,-309.5C785.211,-309.5 799.344,-309.5 812.714,-309.5"/>
<polygon fill="midnightblue" stroke="midnightblue" points="812.766,-313 822.766,-309.5 812.766,-306 812.766,-313"/>
</g>
<!-- Node21&#45;&gt;Node19 -->
<g id="edge26" class="edge"><title>Node21&#45;&gt;Node19</title>
<path fill="none" stroke="midnightblue" d="M759.622,-294.399C776.898,-289.345 796.322,-283.662 814.259,-278.415"/>
<polygon fill="midnightblue" stroke="midnightblue" points="815.433,-281.719 824.048,-275.552 813.468,-275 815.433,-281.719"/>
</g>
<!-- Node21&#45;&gt;Node20 -->
<g id="edge27" class="edge"><title>Node21&#45;&gt;Node20</title>
<path fill="none" stroke="midnightblue" d="M759.622,-324.601C776.898,-329.655 796.322,-335.338 814.259,-340.585"/>
<polygon fill="midnightblue" stroke="midnightblue" points="813.468,-344 824.048,-343.448 815.433,-337.281 813.468,-344"/>
</g>
<!-- Node23 -->
<g id="node24" class="node"><title>Node23</title>
<g id="a_node24"><a xlink:href="namespacepqm__functions.html#a0ce0d64922453de1312adec7b8746544" target="_top" xlink:title="pqm_functions::pqm\l_limiter">
<polygon fill="white" stroke="black" points="824,-46.5 824,-76.5 929,-76.5 929,-46.5 824,-46.5"/>
<text text-anchor="start" x="832" y="-64.5" font-family="Helvetica,sans-Serif" font-size="10.00">pqm_functions::pqm</text>
<text text-anchor="middle" x="876.5" y="-53.5" font-family="Helvetica,sans-Serif" font-size="10.00">_limiter</text>
</a>
</g>
</g>
<!-- Node22&#45;&gt;Node23 -->
<g id="edge29" class="edge"><title>Node22&#45;&gt;Node23</title>
<path fill="none" stroke="midnightblue" d="M759.622,-29.6769C776.816,-34.3988 796.14,-39.7056 814.007,-44.6123"/>
<polygon fill="midnightblue" stroke="midnightblue" points="813.19,-48.0175 823.76,-47.2908 815.044,-41.2674 813.19,-48.0175"/>
</g>
<!-- Node23&#45;&gt;Node14 -->
<g id="edge30" class="edge"><title>Node23&#45;&gt;Node14</title>
<path fill="none" stroke="midnightblue" d="M919.991,-76.529C938.847,-83.1982 961.213,-91.109 981.051,-98.1258"/>
<polygon fill="midnightblue" stroke="midnightblue" points="979.966,-101.454 990.56,-101.489 982.3,-94.8549 979.966,-101.454"/>
</g>
<!-- Node23&#45;&gt;Node15 -->
<g id="edge31" class="edge"><title>Node23&#45;&gt;Node15</title>
<path fill="none" stroke="midnightblue" d="M929.279,-61.5C941.22,-61.5 954.085,-61.5 966.553,-61.5"/>
<polygon fill="midnightblue" stroke="midnightblue" points="966.904,-65.0001 976.904,-61.5 966.904,-58.0001 966.904,-65.0001"/>
</g>
<!-- Node25&#45;&gt;Node18 -->
<g id="edge34" class="edge"><title>Node25&#45;&gt;Node18</title>
<path fill="none" stroke="midnightblue" d="M759.622,-275.601C776.898,-280.655 796.322,-286.338 814.259,-291.585"/>
<polygon fill="midnightblue" stroke="midnightblue" points="813.468,-295 824.048,-294.448 815.433,-288.281 813.468,-295"/>
</g>
<!-- Node25&#45;&gt;Node19 -->
<g id="edge35" class="edge"><title>Node25&#45;&gt;Node19</title>
<path fill="none" stroke="midnightblue" d="M771.802,-260.5C783.243,-260.5 795.212,-260.5 806.784,-260.5"/>
<polygon fill="midnightblue" stroke="midnightblue" points="806.828,-264 816.828,-260.5 806.828,-257 806.828,-264"/>
</g>
<!-- Node25&#45;&gt;Node20 -->
<g id="edge36" class="edge"><title>Node25&#45;&gt;Node20</title>
<path fill="none" stroke="midnightblue" d="M760.865,-275.528C766.216,-278.096 771.375,-281.069 776,-284.5 797.704,-300.6 790.587,-317.015 812,-333.5 814.41,-335.355 816.975,-337.09 819.64,-338.71"/>
<polygon fill="midnightblue" stroke="midnightblue" points="817.969,-341.785 828.424,-343.497 821.319,-335.638 817.969,-341.785"/>
</g>
<!-- Node26&#45;&gt;Node18 -->
<g id="edge38" class="edge"><title>Node26&#45;&gt;Node18</title>
<path fill="none" stroke="midnightblue" d="M760.865,-226.528C766.216,-229.096 771.375,-232.069 776,-235.5 797.704,-251.6 790.587,-268.015 812,-284.5 814.41,-286.355 816.975,-288.09 819.64,-289.71"/>
<polygon fill="midnightblue" stroke="midnightblue" points="817.969,-292.785 828.424,-294.497 821.319,-286.638 817.969,-292.785"/>
</g>
<!-- Node26&#45;&gt;Node19 -->
<g id="edge39" class="edge"><title>Node26&#45;&gt;Node19</title>
<path fill="none" stroke="midnightblue" d="M759.622,-226.601C776.898,-231.655 796.322,-237.338 814.259,-242.585"/>
<polygon fill="midnightblue" stroke="midnightblue" points="813.468,-246 824.048,-245.448 815.433,-239.281 813.468,-246"/>
</g>
<!-- Node26&#45;&gt;Node20 -->
<g id="edge40" class="edge"><title>Node26&#45;&gt;Node20</title>
<path fill="none" stroke="midnightblue" d="M764.257,-226.604C768.532,-229.127 772.526,-232.07 776,-235.5 809.019,-268.101 779.569,-300.314 812,-333.5 813.397,-334.93 814.886,-336.28 816.449,-337.554"/>
<polygon fill="midnightblue" stroke="midnightblue" points="814.574,-340.513 824.791,-343.317 818.552,-334.754 814.574,-340.513"/>
</g>
<!-- Node27&#45;&gt;Node1 -->
<g id="edge43" class="edge"><title>Node27&#45;&gt;Node1</title>
<path fill="none" stroke="midnightblue" d="M601.981,-796.961C649.756,-797.543 718.007,-795.277 776,-781.5 859.634,-761.632 950.194,-715.869 998.316,-689.398"/>
<polygon fill="midnightblue" stroke="midnightblue" points="1000.03,-692.447 1007.08,-684.532 996.636,-686.327 1000.03,-692.447"/>
</g>
<!-- Node28&#45;&gt;Node1 -->
<g id="edge47" class="edge"><title>Node28&#45;&gt;Node1</title>
<path fill="none" stroke="midnightblue" d="M602.084,-657.72C680.403,-645.307 821.484,-628.551 941,-644.5 952.92,-646.091 965.484,-648.792 977.367,-651.846"/>
<polygon fill="midnightblue" stroke="midnightblue" points="976.594,-655.262 987.16,-654.477 978.411,-648.502 976.594,-655.262"/>
</g>
<!-- Node29 -->
<g id="node30" class="node"><title>Node29</title>
<g id="a_node30"><a xlink:href="namespacemom__remapping.html#ac97371127053406c84be732a19eb6f9d" target="_top" xlink:title="Returns the average value of a reconstruction within a single source cell, i0, between the non&#45;dimens...">
<polygon fill="white" stroke="black" points="812,-654.5 812,-684.5 941,-684.5 941,-654.5 812,-654.5"/>
<text text-anchor="start" x="820" y="-672.5" font-family="Helvetica,sans-Serif" font-size="10.00">mom_remapping::average</text>
<text text-anchor="middle" x="876.5" y="-661.5" font-family="Helvetica,sans-Serif" font-size="10.00">_value_ppoly</text>
</a>
</g>
</g>
<!-- Node28&#45;&gt;Node29 -->
<g id="edge45" class="edge"><title>Node28&#45;&gt;Node29</title>
<path fill="none" stroke="midnightblue" d="M602.008,-668.68C657.939,-668.848 741.51,-669.098 801.542,-669.278"/>
<polygon fill="midnightblue" stroke="midnightblue" points="801.704,-672.779 811.714,-669.309 801.725,-665.779 801.704,-672.779"/>
</g>
<!-- Node28&#45;&gt;Node30 -->
<g id="edge48" class="edge"><title>Node28&#45;&gt;Node30</title>
<path fill="none" stroke="midnightblue" d="M561.347,-683.501C580.138,-697.551 609.872,-718.436 638,-732.5 641.552,-734.276 645.267,-735.98 649.051,-737.603"/>
<polygon fill="midnightblue" stroke="midnightblue" points="647.963,-740.939 658.545,-741.465 650.601,-734.455 647.963,-740.939"/>
</g>
<!-- Node28&#45;&gt;Node31 -->
<g id="edge49" class="edge"><title>Node28&#45;&gt;Node31</title>
<path fill="none" stroke="midnightblue" d="M602.136,-682.801C612.181,-685.189 622.699,-687.691 633.023,-690.146"/>
<polygon fill="midnightblue" stroke="midnightblue" points="632.302,-693.572 642.841,-692.48 633.922,-686.762 632.302,-693.572"/>
</g>
<!-- Node29&#45;&gt;Node1 -->
<g id="edge46" class="edge"><title>Node29&#45;&gt;Node1</title>
<path fill="none" stroke="midnightblue" d="M941.196,-669.5C950.805,-669.5 960.71,-669.5 970.298,-669.5"/>
<polygon fill="midnightblue" stroke="midnightblue" points="970.548,-673 980.548,-669.5 970.548,-666 970.548,-673"/>
</g>
</g>
</svg>
        <g id="navigator" transform="translate(0 0)" fill="#404254">
                <rect fill="#f2f5e9" fill-opacity="0.5" stroke="#606060" stroke-width=".5" x="0" y="0" width="60" height="60"/>
                <use id="zoomplus" xlink:href="#zoomPlus" x="17" y="9" onmousedown="handleZoom(evt,'in')"/>
                <use id="zoomminus" xlink:href="#zoomMin" x="42" y="9" onmousedown="handleZoom(evt,'out')"/>
                <use id="reset" xlink:href="#resetDef" x="30" y="36" onmousedown="handleReset()"/>
                <g id="arrowUp" xlink:href="#dirArrow" transform="translate(30 24)" onmousedown="handlePan(0,-1)">
                  <use xlink:href="#rim" fill="#404040">
                        <set attributeName="fill" to="#808080" begin="arrowUp.mouseover" end="arrowUp.mouseout"/>
                  </use>
                  <path fill="none" stroke="white" stroke-width="1.5" d="M0,-3.0v7 M-2.5,-0.5L0,-3.0L2.5,-0.5"/>
                </g>
                <g id="arrowRight" xlink:href="#dirArrow" transform="rotate(90) translate(36 -43)" onmousedown="handlePan(1,0)">
                  <use xlink:href="#rim" fill="#404040">
                        <set attributeName="fill" to="#808080" begin="arrowRight.mouseover" end="arrowRight.mouseout"/>
                  </use>
                  <path fill="none" stroke="white" stroke-width="1.5" d="M0,-3.0v7 M-2.5,-0.5L0,-3.0L2.5,-0.5"/>
                </g>
                <g id="arrowDown" xlink:href="#dirArrow" transform="rotate(180) translate(-30 -48)" onmousedown="handlePan(0,1)">
                  <use xlink:href="#rim" fill="#404040">
                        <set attributeName="fill" to="#808080" begin="arrowDown.mouseover" end="arrowDown.mouseout"/>
                  </use>
                  <path fill="none" stroke="white" stroke-width="1.5" d="M0,-3.0v7 M-2.5,-0.5L0,-3.0L2.5,-0.5"/>
                </g>
                <g id="arrowLeft" xlink:href="#dirArrow" transform="rotate(270) translate(-36 17)" onmousedown="handlePan(-1,0)">
                  <use xlink:href="#rim" fill="#404040">
                        <set attributeName="fill" to="#808080" begin="arrowLeft.mouseover" end="arrowLeft.mouseout"/>
                  </use>
                  <path fill="none" stroke="white" stroke-width="1.5" d="M0,-3.0v7 M-2.5,-0.5L0,-3.0L2.5,-0.5"/>
                </g>
        </g>
        <svg viewBox="0 0 15 15" width="100%" height="30px" preserveAspectRatio="xMaxYMin meet">
         <g id="arrow_out" transform="scale(0.3 0.3)">
          <a xlink:href="namespacemom__lateral__mixing__coeffs_af206bc656869b4fc27d4d7e8a15d438e_cgraph_org.svg" target="_base">
           <rect id="button" ry="5" rx="5" y="6" x="6" height="38" width="38"
                fill="#f2f5e9" fill-opacity="0.5" stroke="#606060" stroke-width="1.0"/>
           <path id="arrow"
             d="M 11.500037,31.436501 C 11.940474,20.09759 22.043105,11.32322 32.158766,21.979434 L 37.068811,17.246167 C 37.068811,17.246167 37.088388,32 37.088388,32 L 22.160133,31.978069 C 22.160133,31.978069 26.997745,27.140456 26.997745,27.140456 C 18.528582,18.264221 13.291696,25.230495 11.500037,31.436501 z"
             style="fill:#404040;"/>
          </a>
         </g>
        </svg>
</svg>
