<?xml version="1.0" encoding="UTF-8" standalone="no"?>
<!DOCTYPE svg PUBLIC "-//W3C//DTD SVG 1.1//EN"
 "http://www.w3.org/Graphics/SVG/1.1/DTD/svg11.dtd">
<!-- Generated by graphviz version 2.38.0 (20140413.2041)
 -->
<!-- Title: mom_vert_friction::updatecfltruncationvalue Pages: 1 -->
<svg width="316pt" height="39pt"
 viewBox="0.00 0.00 316.00 39.00" xmlns="http://www.w3.org/2000/svg" xmlns:xlink="http://www.w3.org/1999/xlink">
<g id="graph0" class="graph" transform="scale(1 1) rotate(0) translate(4 35)">
<title>mom_vert_friction::updatecfltruncationvalue</title>
<polygon fill="white" stroke="none" points="-4,4 -4,-35 312,-35 312,4 -4,4"/>
<!-- Node6 -->
<g id="node1" class="node"><title>Node6</title>
<polygon fill="#bfbfbf" stroke="black" points="0,-0.5 0,-30.5 122,-30.5 122,-0.5 0,-0.5"/>
<text text-anchor="start" x="8" y="-18.5" font-family="Helvetica,sans-Serif" font-size="10.00">mom_vert_friction::</text>
<text text-anchor="middle" x="61" y="-7.5" font-family="Helvetica,sans-Serif" font-size="10.00">updatecfltruncationvalue</text>
</g>
<!-- Node7 -->
<g id="node2" class="node"><title>Node7</title>
<g id="a_node2"><a xlink:href="namespacemom__dynamics__split__rk2.html#a81cce65643a8cf94979d68354a9a1979" target="_top" xlink:title="RK2 splitting for time stepping MOM adiabatic dynamics. ">
<polygon fill="white" stroke="black" points="158,-0.5 158,-30.5 308,-30.5 308,-0.5 158,-0.5"/>
<text text-anchor="start" x="166" y="-18.5" font-family="Helvetica,sans-Serif" font-size="10.00">mom_dynamics_split</text>
<text text-anchor="middle" x="233" y="-7.5" font-family="Helvetica,sans-Serif" font-size="10.00">_rk2::step_mom_dyn_split_rk2</text>
</a>
</g>
</g>
<!-- Node6&#45;&gt;Node7 -->
<g id="edge1" class="edge"><title>Node6&#45;&gt;Node7</title>
<path fill="none" stroke="midnightblue" d="M132.486,-15.5C140.84,-15.5 149.387,-15.5 157.791,-15.5"/>
<polygon fill="midnightblue" stroke="midnightblue" points="132.414,-12.0001 122.414,-15.5 132.414,-19.0001 132.414,-12.0001"/>
</g>
</g>
</svg>
