<?xml version="1.0" encoding="UTF-8" standalone="no"?>
<!DOCTYPE svg PUBLIC "-//W3C//DTD SVG 1.1//EN"
 "http://www.w3.org/Graphics/SVG/1.1/DTD/svg11.dtd">
<!-- Generated by graphviz version 2.38.0 (20140413.2041)
 -->
<!-- Title: mom_tracer_advect::advect_x Pages: 1 -->
<svg width="426pt" height="88pt"
 viewBox="0.00 0.00 426.00 88.00" xmlns="http://www.w3.org/2000/svg" xmlns:xlink="http://www.w3.org/1999/xlink">
<g id="graph0" class="graph" transform="scale(1 1) rotate(0) translate(4 84)">
<title>mom_tracer_advect::advect_x</title>
<polygon fill="white" stroke="none" points="-4,4 -4,-84 422,-84 422,4 -4,4"/>
<!-- Node10 -->
<g id="node1" class="node"><title>Node10</title>
<polygon fill="#bfbfbf" stroke="black" points="0,-24.5 0,-54.5 109,-54.5 109,-24.5 0,-24.5"/>
<text text-anchor="start" x="8" y="-42.5" font-family="Helvetica,sans-Serif" font-size="10.00">mom_tracer_advect::</text>
<text text-anchor="middle" x="54.5" y="-31.5" font-family="Helvetica,sans-Serif" font-size="10.00">advect_x</text>
</g>
<!-- Node11 -->
<g id="node2" class="node"><title>Node11</title>
<g id="a_node2"><a xlink:href="namespacemom__tracer__advect.html#a4c97e84c1a3c433d0c2e84b57926bc08" target="_top" xlink:title="This routine time steps the tracer concentration using a monotonic, conservative, weakly diffusive sc...">
<polygon fill="white" stroke="black" points="145,-24.5 145,-54.5 254,-54.5 254,-24.5 145,-24.5"/>
<text text-anchor="start" x="153" y="-42.5" font-family="Helvetica,sans-Serif" font-size="10.00">mom_tracer_advect::</text>
<text text-anchor="middle" x="199.5" y="-31.5" font-family="Helvetica,sans-Serif" font-size="10.00">advect_tracer</text>
</a>
</g>
</g>
<!-- Node10&#45;&gt;Node11 -->
<g id="edge1" class="edge"><title>Node10&#45;&gt;Node11</title>
<path fill="none" stroke="midnightblue" d="M119.324,-39.5C127.745,-39.5 136.31,-39.5 144.545,-39.5"/>
<polygon fill="midnightblue" stroke="midnightblue" points="119.155,-36.0001 109.155,-39.5 119.155,-43.0001 119.155,-36.0001"/>
</g>
<!-- Node12 -->
<g id="node3" class="node"><title>Node12</title>
<g id="a_node3"><a xlink:href="namespacemom__offline__main.html#ae85546d26ceb447742abe3c528cad2d7" target="_top" xlink:title="3D advection is done by doing flux&#45;limited nonlinear horizontal advection interspersed with an ALE re...">
<polygon fill="white" stroke="black" points="290,-49.5 290,-79.5 418,-79.5 418,-49.5 290,-49.5"/>
<text text-anchor="start" x="298" y="-67.5" font-family="Helvetica,sans-Serif" font-size="10.00">mom_offline_main::offline</text>
<text text-anchor="middle" x="354" y="-56.5" font-family="Helvetica,sans-Serif" font-size="10.00">_advection_ale</text>
</a>
</g>
</g>
<!-- Node11&#45;&gt;Node12 -->
<g id="edge2" class="edge"><title>Node11&#45;&gt;Node12</title>
<path fill="none" stroke="midnightblue" d="M264.39,-49.9737C272.796,-51.3519 281.409,-52.7638 289.804,-54.1401"/>
<polygon fill="midnightblue" stroke="midnightblue" points="264.7,-46.478 254.266,-48.3141 263.568,-53.3858 264.7,-46.478"/>
</g>
<!-- Node13 -->
<g id="node4" class="node"><title>Node13</title>
<g id="a_node4"><a xlink:href="namespacemom__offline__main.html#a312c47e83e64a6bdf064526f77a8a8ec" target="_top" xlink:title="In the case where the main advection routine did not converge, something needs to be done with the re...">
<polygon fill="white" stroke="black" points="290,-0.5 290,-30.5 418,-30.5 418,-0.5 290,-0.5"/>
<text text-anchor="start" x="298" y="-18.5" font-family="Helvetica,sans-Serif" font-size="10.00">mom_offline_main::offline</text>
<text text-anchor="middle" x="354" y="-7.5" font-family="Helvetica,sans-Serif" font-size="10.00">_redistribute_residual</text>
</a>
</g>
</g>
<!-- Node11&#45;&gt;Node13 -->
<g id="edge3" class="edge"><title>Node11&#45;&gt;Node13</title>
<path fill="none" stroke="midnightblue" d="M264.39,-29.4452C272.796,-28.1222 281.409,-26.7667 289.804,-25.4455"/>
<polygon fill="midnightblue" stroke="midnightblue" points="263.6,-26.0263 254.266,-31.0385 264.688,-32.9412 263.6,-26.0263"/>
</g>
</g>
</svg>
