<?xml version="1.0" encoding="UTF-8" standalone="no"?>
<!DOCTYPE svg PUBLIC "-//W3C//DTD SVG 1.1//EN"
 "http://www.w3.org/Graphics/SVG/1.1/DTD/svg11.dtd">
<!-- Generated by graphviz version 2.38.0 (20140413.2041)
 -->
<!-- Title: p1m_functions::p1m_interpolation Pages: 1 -->
<svg width="271pt" height="100pt"
 viewBox="0.00 0.00 271.00 99.50" xmlns="http://www.w3.org/2000/svg" xmlns:xlink="http://www.w3.org/1999/xlink">
<g id="graph0" class="graph" transform="scale(1 1) rotate(0) translate(4 95.5)">
<title>p1m_functions::p1m_interpolation</title>
<polygon fill="white" stroke="none" points="-4,4 -4,-95.5 267,-95.5 267,4 -4,4"/>
<!-- Node9 -->
<g id="node1" class="node"><title>Node9</title>
<polygon fill="#bfbfbf" stroke="black" points="0,-27.5 0,-57.5 105,-57.5 105,-27.5 0,-27.5"/>
<text text-anchor="start" x="8" y="-45.5" font-family="Helvetica,sans-Serif" font-size="10.00">p1m_functions::p1m</text>
<text text-anchor="middle" x="52.5" y="-34.5" font-family="Helvetica,sans-Serif" font-size="10.00">_interpolation</text>
</g>
<!-- Node10 -->
<g id="node2" class="node"><title>Node10</title>
<g id="a_node2"><a xlink:href="namespaceregrid__edge__values.html#a2d51073fc6e6639040566f966041fc06" target="_top" xlink:title="regrid_edge_values\l::average_discontinuous\l_edge_values">
<polygon fill="white" stroke="black" points="141,-50 141,-91 263,-91 263,-50 141,-50"/>
<text text-anchor="start" x="149" y="-79" font-family="Helvetica,sans-Serif" font-size="10.00">regrid_edge_values</text>
<text text-anchor="start" x="149" y="-68" font-family="Helvetica,sans-Serif" font-size="10.00">::average_discontinuous</text>
<text text-anchor="middle" x="202" y="-57" font-family="Helvetica,sans-Serif" font-size="10.00">_edge_values</text>
</a>
</g>
</g>
<!-- Node9&#45;&gt;Node10 -->
<g id="edge1" class="edge"><title>Node9&#45;&gt;Node10</title>
<path fill="none" stroke="midnightblue" d="M105.088,-52.293C113.388,-53.8686 122.101,-55.5225 130.749,-57.1642"/>
<polygon fill="midnightblue" stroke="midnightblue" points="130.366,-60.6539 140.843,-59.0804 131.671,-53.7767 130.366,-60.6539"/>
</g>
<!-- Node11 -->
<g id="node3" class="node"><title>Node11</title>
<g id="a_node3"><a xlink:href="namespaceregrid__edge__values.html#aa204fe78ee22cae62f2b7f1bc76151a9" target="_top" xlink:title="regrid_edge_values\l::bound_edge_values">
<polygon fill="white" stroke="black" points="147.5,-0.5 147.5,-30.5 256.5,-30.5 256.5,-0.5 147.5,-0.5"/>
<text text-anchor="start" x="155.5" y="-18.5" font-family="Helvetica,sans-Serif" font-size="10.00">regrid_edge_values</text>
<text text-anchor="middle" x="202" y="-7.5" font-family="Helvetica,sans-Serif" font-size="10.00">::bound_edge_values</text>
</a>
</g>
</g>
<!-- Node9&#45;&gt;Node11 -->
<g id="edge2" class="edge"><title>Node9&#45;&gt;Node11</title>
<path fill="none" stroke="midnightblue" d="M105.088,-33.0567C115.583,-31.1356 126.738,-29.0937 137.588,-27.1076"/>
<polygon fill="midnightblue" stroke="midnightblue" points="138.233,-30.5478 147.439,-25.3043 136.973,-23.6622 138.233,-30.5478"/>
</g>
</g>
</svg>
