<?xml version="1.0" encoding="UTF-8" standalone="no"?>
<!DOCTYPE svg PUBLIC "-//W3C//DTD SVG 1.1//EN"
 "http://www.w3.org/Graphics/SVG/1.1/DTD/svg11.dtd">
<!-- Generated by graphviz version 2.38.0 (20140413.2041)
 -->
<!-- Title: bfb_surface_forcing::bfb_buoyancy_forcing Pages: 1 -->
<svg width="410pt" height="88pt"
 viewBox="0.00 0.00 410.00 88.00" xmlns="http://www.w3.org/2000/svg" xmlns:xlink="http://www.w3.org/1999/xlink">
<g id="graph0" class="graph" transform="scale(1 1) rotate(0) translate(4 84)">
<title>bfb_surface_forcing::bfb_buoyancy_forcing</title>
<polygon fill="white" stroke="none" points="-4,4 -4,-84 406,-84 406,4 -4,4"/>
<!-- Node3 -->
<g id="node1" class="node"><title>Node3</title>
<polygon fill="#bfbfbf" stroke="black" points="0,-24.5 0,-54.5 118,-54.5 118,-24.5 0,-24.5"/>
<text text-anchor="start" x="8" y="-42.5" font-family="Helvetica,sans-Serif" font-size="10.00">bfb_surface_forcing</text>
<text text-anchor="middle" x="59" y="-31.5" font-family="Helvetica,sans-Serif" font-size="10.00">::bfb_buoyancy_forcing</text>
</g>
<!-- Node4 -->
<g id="node2" class="node"><title>Node4</title>
<g id="a_node2"><a xlink:href="namespacebfb__surface__forcing.html#ae4924d228712871f1e5e1228d1f617d0" target="_top" xlink:title="bfb_surface_forcing\l::alloc_if_needed">
<polygon fill="white" stroke="black" points="156,-49.5 156,-79.5 258,-79.5 258,-49.5 156,-49.5"/>
<text text-anchor="start" x="164" y="-67.5" font-family="Helvetica,sans-Serif" font-size="10.00">bfb_surface_forcing</text>
<text text-anchor="middle" x="207" y="-56.5" font-family="Helvetica,sans-Serif" font-size="10.00">::alloc_if_needed</text>
</a>
</g>
</g>
<!-- Node3&#45;&gt;Node4 -->
<g id="edge1" class="edge"><title>Node3&#45;&gt;Node4</title>
<path fill="none" stroke="midnightblue" d="M118.123,-49.4525C127.136,-50.9959 136.465,-52.5933 145.529,-54.1453"/>
<polygon fill="midnightblue" stroke="midnightblue" points="145.17,-57.6348 155.618,-55.8729 146.352,-50.7353 145.17,-57.6348"/>
</g>
<!-- Node5 -->
<g id="node3" class="node"><title>Node5</title>
<g id="a_node3"><a xlink:href="namespacemom__error__handler.html#a460cfb79a06c29fc249952c2a3710d67" target="_top" xlink:title="mom_error_handler::\lmom_error">
<polygon fill="white" stroke="black" points="154,-0.5 154,-30.5 260,-30.5 260,-0.5 154,-0.5"/>
<text text-anchor="start" x="162" y="-18.5" font-family="Helvetica,sans-Serif" font-size="10.00">mom_error_handler::</text>
<text text-anchor="middle" x="207" y="-7.5" font-family="Helvetica,sans-Serif" font-size="10.00">mom_error</text>
</a>
</g>
</g>
<!-- Node3&#45;&gt;Node5 -->
<g id="edge2" class="edge"><title>Node3&#45;&gt;Node5</title>
<path fill="none" stroke="midnightblue" d="M118.123,-29.9456C126.582,-28.5551 135.319,-27.1188 143.854,-25.7158"/>
<polygon fill="midnightblue" stroke="midnightblue" points="144.451,-29.1646 153.751,-24.0888 143.316,-22.2573 144.451,-29.1646"/>
</g>
<!-- Node6 -->
<g id="node4" class="node"><title>Node6</title>
<g id="a_node4"><a xlink:href="namespacemom__error__handler.html#ad5f00a53059c72fe2332d1436c80ca71" target="_top" xlink:title="mom_error_handler::\lis_root_pe">
<polygon fill="white" stroke="black" points="296,-0.5 296,-30.5 402,-30.5 402,-0.5 296,-0.5"/>
<text text-anchor="start" x="304" y="-18.5" font-family="Helvetica,sans-Serif" font-size="10.00">mom_error_handler::</text>
<text text-anchor="middle" x="349" y="-7.5" font-family="Helvetica,sans-Serif" font-size="10.00">is_root_pe</text>
</a>
</g>
</g>
<!-- Node5&#45;&gt;Node6 -->
<g id="edge3" class="edge"><title>Node5&#45;&gt;Node6</title>
<path fill="none" stroke="midnightblue" d="M260.131,-15.5C268.421,-15.5 277.07,-15.5 285.568,-15.5"/>
<polygon fill="midnightblue" stroke="midnightblue" points="285.826,-19.0001 295.826,-15.5 285.826,-12.0001 285.826,-19.0001"/>
</g>
</g>
</svg>
