<?xml version="1.0" encoding="UTF-8" standalone="no"?>
<!DOCTYPE svg PUBLIC "-//W3C//DTD SVG 1.1//EN"
 "http://www.w3.org/Graphics/SVG/1.1/DTD/svg11.dtd">
<!-- Generated by graphviz version 2.38.0 (20140413.2041)
 -->
<!-- Title: mom_remapping::setreconstructiontype Pages: 1 -->
<svg width="1292pt" height="171pt"
 viewBox="0.00 0.00 1292.00 170.50" xmlns="http://www.w3.org/2000/svg" xmlns:xlink="http://www.w3.org/1999/xlink">
<g id="graph0" class="graph" transform="scale(1 1) rotate(0) translate(4 166.5)">
<title>mom_remapping::setreconstructiontype</title>
<polygon fill="white" stroke="none" points="-4,4 -4,-166.5 1288,-166.5 1288,4 -4,4"/>
<!-- Node368 -->
<g id="node1" class="node"><title>Node368</title>
<polygon fill="#bfbfbf" stroke="black" points="0,-36 0,-55 188,-55 188,-36 0,-36"/>
<text text-anchor="middle" x="94" y="-43" font-family="Helvetica,sans-Serif" font-size="10.00">mom_remapping::setreconstructiontype</text>
</g>
<!-- Node369 -->
<g id="node2" class="node"><title>Node369</title>
<g id="a_node2"><a xlink:href="namespacemom__remapping.html#a9e811f89c505a4416ea0eec315769801" target="_top" xlink:title="Set parameters within remapping object. ">
<polygon fill="white" stroke="black" points="224,-30.5 224,-60.5 364,-60.5 364,-30.5 224,-30.5"/>
<text text-anchor="start" x="232" y="-48.5" font-family="Helvetica,sans-Serif" font-size="10.00">mom_remapping::remapping</text>
<text text-anchor="middle" x="294" y="-37.5" font-family="Helvetica,sans-Serif" font-size="10.00">_set_param</text>
</a>
</g>
</g>
<!-- Node368&#45;&gt;Node369 -->
<g id="edge1" class="edge"><title>Node368&#45;&gt;Node369</title>
<path fill="none" stroke="midnightblue" d="M198.369,-45.5C207.026,-45.5 215.638,-45.5 223.94,-45.5"/>
<polygon fill="midnightblue" stroke="midnightblue" points="198.202,-42.0001 188.202,-45.5 198.202,-49.0001 198.202,-42.0001"/>
</g>
<!-- Node370 -->
<g id="node3" class="node"><title>Node370</title>
<g id="a_node3"><a xlink:href="namespacemom__remapping.html#a6847e0c44ccb54fb72587677f90d95b6" target="_top" xlink:title="Constructor for remapping control structure. ">
<polygon fill="white" stroke="black" points="400,-30.5 400,-60.5 530,-60.5 530,-30.5 400,-30.5"/>
<text text-anchor="start" x="408" y="-48.5" font-family="Helvetica,sans-Serif" font-size="10.00">mom_remapping::initialize</text>
<text text-anchor="middle" x="465" y="-37.5" font-family="Helvetica,sans-Serif" font-size="10.00">_remapping</text>
</a>
</g>
</g>
<!-- Node369&#45;&gt;Node370 -->
<g id="edge2" class="edge"><title>Node369&#45;&gt;Node370</title>
<path fill="none" stroke="midnightblue" d="M374.503,-45.5C382.974,-45.5 391.513,-45.5 399.776,-45.5"/>
<polygon fill="midnightblue" stroke="midnightblue" points="374.226,-42.0001 364.226,-45.5 374.226,-49.0001 374.226,-42.0001"/>
</g>
<!-- Node371 -->
<g id="node4" class="node"><title>Node371</title>
<g id="a_node4"><a xlink:href="namespacemom__ale__sponge.html#a135d5ca4d0dff789bc6db5ac789b4142" target="_top" xlink:title="This subroutine determines the number of points which are within. ">
<polygon fill="white" stroke="black" points="569,-60.5 569,-90.5 703,-90.5 703,-60.5 569,-60.5"/>
<text text-anchor="start" x="577" y="-78.5" font-family="Helvetica,sans-Serif" font-size="10.00">mom_ale_sponge::initialize</text>
<text text-anchor="middle" x="636" y="-67.5" font-family="Helvetica,sans-Serif" font-size="10.00">_ale_sponge</text>
</a>
</g>
</g>
<!-- Node370&#45;&gt;Node371 -->
<g id="edge3" class="edge"><title>Node370&#45;&gt;Node371</title>
<path fill="none" stroke="midnightblue" d="M540.52,-58.7284C549.952,-60.4028 559.553,-62.107 568.842,-63.756"/>
<polygon fill="midnightblue" stroke="midnightblue" points="540.832,-55.2291 530.374,-56.9273 539.608,-62.1213 540.832,-55.2291"/>
</g>
<!-- Node378 -->
<g id="node11" class="node"><title>Node378</title>
<g id="a_node11"><a xlink:href="namespacemom__remapping.html#a5849f564453d5ed76fb4feffd41eca26" target="_top" xlink:title="Runs unit tests on remapping functions. Should only be called from a single/root thread Returns True ...">
<polygon fill="white" stroke="black" points="566,-0.5 566,-30.5 706,-30.5 706,-0.5 566,-0.5"/>
<text text-anchor="start" x="574" y="-18.5" font-family="Helvetica,sans-Serif" font-size="10.00">mom_remapping::remapping</text>
<text text-anchor="middle" x="636" y="-7.5" font-family="Helvetica,sans-Serif" font-size="10.00">_unit_tests</text>
</a>
</g>
</g>
<!-- Node370&#45;&gt;Node378 -->
<g id="edge11" class="edge"><title>Node370&#45;&gt;Node378</title>
<path fill="none" stroke="midnightblue" d="M540.239,-32.3215C548.715,-30.8168 557.331,-29.2873 565.739,-27.7948"/>
<polygon fill="midnightblue" stroke="midnightblue" points="539.608,-28.8787 530.374,-34.0727 540.832,-35.7709 539.608,-28.8787"/>
</g>
<!-- Node372 -->
<g id="node5" class="node"><title>Node372</title>
<g id="a_node5"><a xlink:href="namespacedense__water__initialization.html#ad2b426d6c4abc03ad3adf965cb9cf7f0" target="_top" xlink:title="Initialize the restoring sponges for the dense water experiment. ">
<polygon fill="white" stroke="black" points="748,-121 748,-162 876,-162 876,-121 748,-121"/>
<text text-anchor="start" x="756" y="-150" font-family="Helvetica,sans-Serif" font-size="10.00">dense_water_initialization</text>
<text text-anchor="start" x="756" y="-139" font-family="Helvetica,sans-Serif" font-size="10.00">::dense_water_initialize</text>
<text text-anchor="middle" x="812" y="-128" font-family="Helvetica,sans-Serif" font-size="10.00">_sponges</text>
</a>
</g>
</g>
<!-- Node371&#45;&gt;Node372 -->
<g id="edge4" class="edge"><title>Node371&#45;&gt;Node372</title>
<path fill="none" stroke="midnightblue" d="M686.384,-94.2319C708.344,-102.562 734.264,-112.393 756.762,-120.927"/>
<polygon fill="midnightblue" stroke="midnightblue" points="687.51,-90.9158 676.919,-90.6417 685.028,-97.4608 687.51,-90.9158"/>
</g>
<!-- Node376 -->
<g id="node9" class="node"><title>Node376</title>
<g id="a_node9"><a xlink:href="namespacedome2d__initialization.html#ab0df2b602fe1c83baa66ba03cc2c6dd4" target="_top" xlink:title="Set up sponges in 2d DOME configuration. ">
<polygon fill="white" stroke="black" points="742,-71.5 742,-101.5 882,-101.5 882,-71.5 742,-71.5"/>
<text text-anchor="start" x="750" y="-89.5" font-family="Helvetica,sans-Serif" font-size="10.00">dome2d_initialization</text>
<text text-anchor="middle" x="812" y="-78.5" font-family="Helvetica,sans-Serif" font-size="10.00">::dome2d_initialize_sponges</text>
</a>
</g>
</g>
<!-- Node371&#45;&gt;Node376 -->
<g id="edge8" class="edge"><title>Node371&#45;&gt;Node376</title>
<path fill="none" stroke="midnightblue" d="M713.413,-80.3307C722.832,-80.9262 732.42,-81.5323 741.726,-82.1206"/>
<polygon fill="midnightblue" stroke="midnightblue" points="713.479,-76.828 703.278,-79.69 713.038,-83.8141 713.479,-76.828"/>
</g>
<!-- Node377 -->
<g id="node10" class="node"><title>Node377</title>
<g id="a_node10"><a xlink:href="namespaceisomip__initialization.html#a672219a0070f4491fc1a8d9c20c6c1e4" target="_top" xlink:title="Sets up the the inverse restoration time (Idamp), and. ">
<polygon fill="white" stroke="black" points="745,-22.5 745,-52.5 879,-52.5 879,-22.5 745,-22.5"/>
<text text-anchor="start" x="753" y="-40.5" font-family="Helvetica,sans-Serif" font-size="10.00">isomip_initialization</text>
<text text-anchor="middle" x="812" y="-29.5" font-family="Helvetica,sans-Serif" font-size="10.00">::isomip_initialize_sponges</text>
</a>
</g>
</g>
<!-- Node371&#45;&gt;Node377 -->
<g id="edge10" class="edge"><title>Node371&#45;&gt;Node377</title>
<path fill="none" stroke="midnightblue" d="M713.293,-58.8383C723.828,-56.5375 734.576,-54.1903 744.906,-51.9343"/>
<polygon fill="midnightblue" stroke="midnightblue" points="712.301,-55.4723 703.278,-61.0254 713.795,-62.3111 712.301,-55.4723"/>
</g>
<!-- Node373 -->
<g id="node6" class="node"><title>Node373</title>
<g id="a_node6"><a xlink:href="namespacemom__state__initialization.html#af4e854627c6572332ba3fd895f169321" target="_top" xlink:title="mom_state_initialization\l::mom_initialize_state">
<polygon fill="white" stroke="black" points="918,-71.5 918,-101.5 1040,-101.5 1040,-71.5 918,-71.5"/>
<text text-anchor="start" x="926" y="-89.5" font-family="Helvetica,sans-Serif" font-size="10.00">mom_state_initialization</text>
<text text-anchor="middle" x="979" y="-78.5" font-family="Helvetica,sans-Serif" font-size="10.00">::mom_initialize_state</text>
</a>
</g>
</g>
<!-- Node372&#45;&gt;Node373 -->
<g id="edge5" class="edge"><title>Node372&#45;&gt;Node373</title>
<path fill="none" stroke="midnightblue" d="M884.469,-117.677C900.856,-112.215 917.834,-106.555 932.754,-101.582"/>
<polygon fill="midnightblue" stroke="midnightblue" points="883.289,-114.381 874.909,-120.864 885.503,-121.022 883.289,-114.381"/>
</g>
<!-- Node374 -->
<g id="node7" class="node"><title>Node374</title>
<g id="a_node7"><a xlink:href="namespacemom.html#a0be2869fef30e1e0604facfe1b41555d" target="_top" xlink:title="This subroutine initializes MOM. ">
<polygon fill="white" stroke="black" points="1076,-52 1076,-71 1183,-71 1183,-52 1076,-52"/>
<text text-anchor="middle" x="1129.5" y="-59" font-family="Helvetica,sans-Serif" font-size="10.00">mom::initialize_mom</text>
</a>
</g>
</g>
<!-- Node373&#45;&gt;Node374 -->
<g id="edge6" class="edge"><title>Node373&#45;&gt;Node374</title>
<path fill="none" stroke="midnightblue" d="M1050.38,-74.6518C1058.93,-73.2124 1067.55,-71.7615 1075.78,-70.3757"/>
<polygon fill="midnightblue" stroke="midnightblue" points="1049.68,-71.2199 1040.4,-76.3315 1050.84,-78.1228 1049.68,-71.2199"/>
</g>
<!-- Node375 -->
<g id="node8" class="node"><title>Node375</title>
<g id="a_node8"><a xlink:href="MOM__driver_8F90.html#a08fffeb2d8e8acbf9ed4609be6d258c6" target="_top" xlink:title="mom_main">
<polygon fill="white" stroke="black" points="1219,-52 1219,-71 1284,-71 1284,-52 1219,-52"/>
<text text-anchor="middle" x="1251.5" y="-59" font-family="Helvetica,sans-Serif" font-size="10.00">mom_main</text>
</a>
</g>
</g>
<!-- Node374&#45;&gt;Node375 -->
<g id="edge7" class="edge"><title>Node374&#45;&gt;Node375</title>
<path fill="none" stroke="midnightblue" d="M1193.21,-61.5C1202.13,-61.5 1210.98,-61.5 1218.96,-61.5"/>
<polygon fill="midnightblue" stroke="midnightblue" points="1193.13,-58.0001 1183.13,-61.5 1193.13,-65.0001 1193.13,-58.0001"/>
</g>
<!-- Node376&#45;&gt;Node373 -->
<g id="edge9" class="edge"><title>Node376&#45;&gt;Node373</title>
<path fill="none" stroke="midnightblue" d="M892.146,-86.5C900.813,-86.5 909.528,-86.5 917.91,-86.5"/>
<polygon fill="midnightblue" stroke="midnightblue" points="892.019,-83.0001 882.019,-86.5 892.019,-90.0001 892.019,-83.0001"/>
</g>
<!-- Node379 -->
<g id="node12" class="node"><title>Node379</title>
<g id="a_node12"><a xlink:href="namespacemom__unit__tests.html#a71f3a2080872634c14a25a9411b59fe0" target="_top" xlink:title="Calls unit tests for other modules. Note that if a unit test returns true, a FATAL error is triggered...">
<polygon fill="white" stroke="black" points="925,-0.5 925,-30.5 1033,-30.5 1033,-0.5 925,-0.5"/>
<text text-anchor="start" x="933" y="-18.5" font-family="Helvetica,sans-Serif" font-size="10.00">mom_unit_tests::unit</text>
<text text-anchor="middle" x="979" y="-7.5" font-family="Helvetica,sans-Serif" font-size="10.00">_tests</text>
</a>
</g>
</g>
<!-- Node378&#45;&gt;Node379 -->
<g id="edge12" class="edge"><title>Node378&#45;&gt;Node379</title>
<path fill="none" stroke="midnightblue" d="M716.319,-12.9929C724.985,-12.7907 733.678,-12.6189 742,-12.5 804.216,-11.6114 819.785,-11.5281 882,-12.5 895.922,-12.7175 910.975,-13.1122 924.941,-13.5455"/>
<polygon fill="midnightblue" stroke="midnightblue" points="716.093,-9.49727 706.182,-13.2427 716.266,-16.4951 716.093,-9.49727"/>
</g>
<!-- Node379&#45;&gt;Node374 -->
<g id="edge13" class="edge"><title>Node379&#45;&gt;Node374</title>
<path fill="none" stroke="midnightblue" d="M1038.38,-33.5827C1058.57,-39.8367 1080.4,-46.5995 1097.52,-51.9024"/>
<polygon fill="midnightblue" stroke="midnightblue" points="1039.21,-30.1778 1028.62,-30.5621 1037.14,-36.8644 1039.21,-30.1778"/>
</g>
</g>
</svg>
