<?xml version="1.0" encoding="UTF-8" standalone="no"?>
<!DOCTYPE svg PUBLIC "-//W3C//DTD SVG 1.1//EN"
 "http://www.w3.org/Graphics/SVG/1.1/DTD/svg11.dtd">
<!-- Generated by graphviz version 2.38.0 (20140413.2041)
 -->
<!-- Title: mom_diag_mediator::register_diag_field_expand_cmor Pages: 1 -->
<!--zoomable 346 -->
<svg id="main" version="1.1" xmlns="http://www.w3.org/2000/svg" xmlns:xlink="http://www.w3.org/1999/xlink" xml:space="preserve" onload="init(evt)">
<style type="text/css"><![CDATA[
.edge:hover path { stroke: red; }
.edge:hover polygon { stroke: red; fill: red; }
]]></style>
<script type="text/javascript"><![CDATA[
var edges = document.getElementsByTagName('g');
if (edges && edges.length) {
  for (var i=0;i<edges.length;i++) {
    if (edges[i].id.substr(0,4)=='edge') {
      edges[i].setAttribute('class','edge');
    }
  }
}
]]></script>
        <defs>
                <circle id="rim" cx="0" cy="0" r="7"/>
                <circle id="rim2" cx="0" cy="0" r="3.5"/>
                <g id="zoomPlus">
                        <use xlink:href="#rim" fill="#404040">
                                <set attributeName="fill" to="#808080" begin="zoomplus.mouseover" end="zoomplus.mouseout"/>
                        </use>
                        <path d="M-4,0h8M0,-4v8" fill="none" stroke="white" stroke-width="1.5" pointer-events="none"/>
                </g>
                <g id="zoomMin">
                        <use xlink:href="#rim" fill="#404040">
                                <set attributeName="fill" to="#808080" begin="zoomminus.mouseover" end="zoomminus.mouseout"/>
                        </use>
                        <path d="M-4,0h8" fill="none" stroke="white" stroke-width="1.5" pointer-events="none"/>
                </g>
                <g id="dirArrow">
                        <path fill="none" stroke="white" stroke-width="1.5" d="M0,-3.0v7 M-2.5,-0.5L0,-3.0L2.5,-0.5"/>
                </g>
               <g id="resetDef">
                       <use xlink:href="#rim2" fill="#404040">
                               <set attributeName="fill" to="#808080" begin="reset.mouseover" end="reset.mouseout"/>
                       </use>
               </g>
        </defs>

<script type="text/javascript">
var viewWidth = 840;
var viewHeight = 346;
var sectionId = 'dynsection-39';
</script>
<script xlink:href="svgpan.js"/>
<svg id="graph" class="graph">
<g id="viewport">
<title>mom_diag_mediator::register_diag_field_expand_cmor</title>
<polygon fill="white" stroke="none" points="-4,4 -4,-341.8 836,-341.8 836,4 -4,4"/>
<!-- Node331 -->
<g id="node1" class="node"><title>Node331</title>
<polygon fill="#bfbfbf" stroke="black" points="0,-99.5 0,-140.5 110,-140.5 110,-99.5 0,-99.5"/>
<text text-anchor="start" x="8" y="-128.5" font-family="Helvetica,sans-Serif" font-size="10.00">mom_diag_mediator::</text>
<text text-anchor="start" x="8" y="-117.5" font-family="Helvetica,sans-Serif" font-size="10.00">register_diag_field</text>
<text text-anchor="middle" x="55" y="-106.5" font-family="Helvetica,sans-Serif" font-size="10.00">_expand_cmor</text>
</g>
<!-- Node332 -->
<g id="node2" class="node"><title>Node332</title>
<g id="a_node2"><a xlink:href="namespacemom__diag__mediator.html#a8415b33a337b1fbc7535688eca85ab37" target="_top" xlink:title="Create a diagnostic type and attached to list. ">
<polygon fill="white" stroke="black" points="146,-236 146,-266 256,-266 256,-236 146,-236"/>
<text text-anchor="start" x="154" y="-254" font-family="Helvetica,sans-Serif" font-size="10.00">mom_diag_mediator::</text>
<text text-anchor="middle" x="201" y="-243" font-family="Helvetica,sans-Serif" font-size="10.00">add_diag_to_list</text>
</a>
</g>
</g>
<!-- Node331&#45;&gt;Node332 -->
<g id="edge1" class="edge"><title>Node331&#45;&gt;Node332</title>
<path fill="none" stroke="midnightblue" d="M78.8172,-140.757C105.235,-164.79 148.574,-204.217 175.633,-228.833"/>
<polygon fill="midnightblue" stroke="midnightblue" points="173.386,-231.521 183.139,-235.661 178.097,-226.343 173.386,-231.521"/>
</g>
<!-- Node336 -->
<g id="node6" class="node"><title>Node336</title>
<g id="a_node6"><a xlink:href="namespacemom__error__handler.html#ad5f00a53059c72fe2332d1436c80ca71" target="_top" xlink:title="mom_error_handler::\lis_root_pe">
<polygon fill="white" stroke="black" points="726,-127 726,-157 832,-157 832,-127 726,-127"/>
<text text-anchor="start" x="734" y="-145" font-family="Helvetica,sans-Serif" font-size="10.00">mom_error_handler::</text>
<text text-anchor="middle" x="779" y="-134" font-family="Helvetica,sans-Serif" font-size="10.00">is_root_pe</text>
</a>
</g>
</g>
<!-- Node331&#45;&gt;Node336 -->
<g id="edge12" class="edge"><title>Node331&#45;&gt;Node336</title>
<path fill="none" stroke="midnightblue" d="M110.25,-120C168.513,-120 263.808,-120 346,-120 346,-120 346,-120 494,-120 570.51,-120 658.268,-128.035 715.736,-134.393"/>
<polygon fill="midnightblue" stroke="midnightblue" points="715.422,-137.88 725.75,-135.518 716.204,-130.924 715.422,-137.88"/>
</g>
<!-- Node340 -->
<g id="node10" class="node"><title>Node340</title>
<g id="a_node10"><a xlink:href="namespacemom__diag__mediator.html#ae0f04c145cb120fc2ab6cbfe9f166392" target="_top" xlink:title="Attaches &quot;cell_methods&quot; attribute to a variable based on defaults for axes_grp or optional arguments...">
<polygon fill="white" stroke="black" points="438,-149 438,-179 548,-179 548,-149 438,-149"/>
<text text-anchor="start" x="446" y="-167" font-family="Helvetica,sans-Serif" font-size="10.00">mom_diag_mediator::</text>
<text text-anchor="middle" x="493" y="-156" font-family="Helvetica,sans-Serif" font-size="10.00">attach_cell_methods</text>
</a>
</g>
</g>
<!-- Node331&#45;&gt;Node340 -->
<g id="edge10" class="edge"><title>Node331&#45;&gt;Node340</title>
<path fill="none" stroke="midnightblue" d="M110.173,-129.036C121.962,-130.832 134.383,-132.594 146,-134 243.929,-145.848 358.001,-154.805 427.588,-159.727"/>
<polygon fill="midnightblue" stroke="midnightblue" points="427.724,-163.245 437.944,-160.453 428.214,-156.262 427.724,-163.245"/>
</g>
<!-- Node341 -->
<g id="node11" class="node"><title>Node341</title>
<g id="a_node11"><a xlink:href="namespacemom__diag__mediator.html#a65fe8d329cf5dbfd08c98874a7a64407" target="_top" xlink:title="Log a diagnostic to the available diagnostics file. ">
<polygon fill="white" stroke="black" points="146,-61 146,-91 256,-91 256,-61 146,-61"/>
<text text-anchor="start" x="154" y="-79" font-family="Helvetica,sans-Serif" font-size="10.00">mom_diag_mediator::</text>
<text text-anchor="middle" x="201" y="-68" font-family="Helvetica,sans-Serif" font-size="10.00">log_available_diag</text>
</a>
</g>
</g>
<!-- Node331&#45;&gt;Node341 -->
<g id="edge13" class="edge"><title>Node331&#45;&gt;Node341</title>
<path fill="none" stroke="midnightblue" d="M110.03,-103.491C120.19,-100.386 130.861,-97.1259 141.159,-93.9792"/>
<polygon fill="midnightblue" stroke="midnightblue" points="142.349,-97.2753 150.89,-91.0058 140.304,-90.5808 142.349,-97.2753"/>
</g>
<!-- Node343 -->
<g id="node13" class="node"><title>Node343</title>
<g id="a_node13"><a xlink:href="namespacemom__diag__mediator.html#aca4a32fea8dade9f51e076a56b9bad2b" target="_top" xlink:title="Returns an FMS id from register_diag_field_fms (the diag_manager routine) after expanding axes (axes&#45;...">
<polygon fill="white" stroke="black" points="146,-0.5 146,-41.5 256,-41.5 256,-0.5 146,-0.5"/>
<text text-anchor="start" x="154" y="-29.5" font-family="Helvetica,sans-Serif" font-size="10.00">mom_diag_mediator::</text>
<text text-anchor="start" x="154" y="-18.5" font-family="Helvetica,sans-Serif" font-size="10.00">register_diag_field</text>
<text text-anchor="middle" x="201" y="-7.5" font-family="Helvetica,sans-Serif" font-size="10.00">_expand_axes</text>
</a>
</g>
</g>
<!-- Node331&#45;&gt;Node343 -->
<g id="edge15" class="edge"><title>Node331&#45;&gt;Node343</title>
<path fill="none" stroke="midnightblue" d="M80.8744,-99.3429C98.5504,-85.0636 123.117,-66.0114 146,-51 148.119,-49.6102 150.306,-48.2215 152.531,-46.8454"/>
<polygon fill="midnightblue" stroke="midnightblue" points="154.462,-49.7688 161.239,-41.6251 150.863,-43.765 154.462,-49.7688"/>
</g>
<!-- Node333 -->
<g id="node3" class="node"><title>Node333</title>
<g id="a_node3"><a xlink:href="namespacemom__diag__mediator.html#a1b0bed2113a0c268eafd1bafbb48bd4f" target="_top" xlink:title="mom_diag_mediator::\lalloc_diag_with_id">
<polygon fill="white" stroke="black" points="292,-187 292,-217 402,-217 402,-187 292,-187"/>
<text text-anchor="start" x="300" y="-205" font-family="Helvetica,sans-Serif" font-size="10.00">mom_diag_mediator::</text>
<text text-anchor="middle" x="347" y="-194" font-family="Helvetica,sans-Serif" font-size="10.00">alloc_diag_with_id</text>
</a>
</g>
</g>
<!-- Node332&#45;&gt;Node333 -->
<g id="edge2" class="edge"><title>Node332&#45;&gt;Node333</title>
<path fill="none" stroke="midnightblue" d="M246.38,-235.899C260.751,-231.008 276.853,-225.529 291.851,-220.426"/>
<polygon fill="midnightblue" stroke="midnightblue" points="293.179,-223.671 301.519,-217.136 290.924,-217.044 293.179,-223.671"/>
</g>
<!-- Node334 -->
<g id="node4" class="node"><title>Node334</title>
<g id="a_node4"><a xlink:href="namespacemom__error__handler.html#a33bcd190d460095104954f2e654f9fe6" target="_top" xlink:title="Issues a FATAL error if the assertion fails, i.e. the first argument is false. ">
<polygon fill="white" stroke="black" points="440,-307 440,-337 546,-337 546,-307 440,-307"/>
<text text-anchor="start" x="448" y="-325" font-family="Helvetica,sans-Serif" font-size="10.00">mom_error_handler::</text>
<text text-anchor="middle" x="493" y="-314" font-family="Helvetica,sans-Serif" font-size="10.00">assert</text>
</a>
</g>
</g>
<!-- Node332&#45;&gt;Node334 -->
<g id="edge3" class="edge"><title>Node332&#45;&gt;Node334</title>
<path fill="none" stroke="midnightblue" d="M214.407,-266.198C230.22,-284.234 259.437,-313.332 292,-325 336.15,-340.82 389.38,-339.113 429.822,-333.969"/>
<polygon fill="midnightblue" stroke="midnightblue" points="430.385,-337.425 439.815,-332.596 429.432,-330.49 430.385,-337.425"/>
</g>
<!-- Node337 -->
<g id="node7" class="node"><title>Node337</title>
<g id="a_node7"><a xlink:href="namespacemom__diag__mediator.html#a3f7442639213320f7429e2288a79fda2" target="_top" xlink:title="Returns a new diagnostic id, it may be necessary to expand the diagnostics array. ...">
<polygon fill="white" stroke="black" points="292,-285 292,-315 402,-315 402,-285 292,-285"/>
<text text-anchor="start" x="300" y="-303" font-family="Helvetica,sans-Serif" font-size="10.00">mom_diag_mediator::</text>
<text text-anchor="middle" x="347" y="-292" font-family="Helvetica,sans-Serif" font-size="10.00">get_new_diag_id</text>
</a>
</g>
</g>
<!-- Node332&#45;&gt;Node337 -->
<g id="edge6" class="edge"><title>Node332&#45;&gt;Node337</title>
<path fill="none" stroke="midnightblue" d="M246.38,-266.101C260.751,-270.992 276.853,-276.471 291.851,-281.574"/>
<polygon fill="midnightblue" stroke="midnightblue" points="290.924,-284.956 301.519,-284.864 293.179,-278.329 290.924,-284.956"/>
</g>
<!-- Node339 -->
<g id="node9" class="node"><title>Node339</title>
<g id="a_node9"><a xlink:href="namespacemom__diag__mediator.html#a085f313357879a914af6450f2ab8ec79" target="_top" xlink:title="Associates the mask pointers within diag with the appropriate mask based on the axes group...">
<polygon fill="white" stroke="black" points="292,-236 292,-266 402,-266 402,-236 292,-236"/>
<text text-anchor="start" x="300" y="-254" font-family="Helvetica,sans-Serif" font-size="10.00">mom_diag_mediator::</text>
<text text-anchor="middle" x="347" y="-243" font-family="Helvetica,sans-Serif" font-size="10.00">set_diag_mask</text>
</a>
</g>
</g>
<!-- Node332&#45;&gt;Node339 -->
<g id="edge9" class="edge"><title>Node332&#45;&gt;Node339</title>
<path fill="none" stroke="midnightblue" d="M256.03,-251C264.314,-251 272.936,-251 281.42,-251"/>
<polygon fill="midnightblue" stroke="midnightblue" points="281.667,-254.5 291.667,-251 281.667,-247.5 281.667,-254.5"/>
</g>
<!-- Node335 -->
<g id="node5" class="node"><title>Node335</title>
<g id="a_node5"><a xlink:href="namespacemom__error__handler.html#a460cfb79a06c29fc249952c2a3710d67" target="_top" xlink:title="mom_error_handler::\lmom_error">
<polygon fill="white" stroke="black" points="584,-149 584,-179 690,-179 690,-149 584,-149"/>
<text text-anchor="start" x="592" y="-167" font-family="Helvetica,sans-Serif" font-size="10.00">mom_error_handler::</text>
<text text-anchor="middle" x="637" y="-156" font-family="Helvetica,sans-Serif" font-size="10.00">mom_error</text>
</a>
</g>
</g>
<!-- Node334&#45;&gt;Node335 -->
<g id="edge4" class="edge"><title>Node334&#45;&gt;Node335</title>
<path fill="none" stroke="midnightblue" d="M534.752,-306.993C539.469,-304.376 544.012,-301.387 548,-298 584.216,-267.249 611.261,-217.927 625.264,-188.474"/>
<polygon fill="midnightblue" stroke="midnightblue" points="628.484,-189.848 629.506,-179.302 622.131,-186.909 628.484,-189.848"/>
</g>
<!-- Node335&#45;&gt;Node336 -->
<g id="edge5" class="edge"><title>Node335&#45;&gt;Node336</title>
<path fill="none" stroke="midnightblue" d="M690.131,-155.808C698.512,-154.491 707.26,-153.116 715.849,-151.767"/>
<polygon fill="midnightblue" stroke="midnightblue" points="716.49,-155.209 725.826,-150.199 715.403,-148.294 716.49,-155.209"/>
</g>
<!-- Node337&#45;&gt;Node334 -->
<g id="edge7" class="edge"><title>Node337&#45;&gt;Node334</title>
<path fill="none" stroke="midnightblue" d="M402.03,-308.255C410.96,-309.619 420.283,-311.043 429.402,-312.436"/>
<polygon fill="midnightblue" stroke="midnightblue" points="429.164,-315.941 439.578,-313.991 430.222,-309.021 429.164,-315.941"/>
</g>
<!-- Node338 -->
<g id="node8" class="node"><title>Node338</title>
<g id="a_node8"><a xlink:href="namespacemom__diag__mediator.html#a883862f004e30bbc5211f38635511ba0" target="_top" xlink:title="Initializes a diag_type (used after allocating new memory) ">
<polygon fill="white" stroke="black" points="438,-258 438,-288 548,-288 548,-258 438,-258"/>
<text text-anchor="start" x="446" y="-276" font-family="Helvetica,sans-Serif" font-size="10.00">mom_diag_mediator::</text>
<text text-anchor="middle" x="493" y="-265" font-family="Helvetica,sans-Serif" font-size="10.00">initialize_diag_type</text>
</a>
</g>
</g>
<!-- Node337&#45;&gt;Node338 -->
<g id="edge8" class="edge"><title>Node337&#45;&gt;Node338</title>
<path fill="none" stroke="midnightblue" d="M402.03,-289.869C410.405,-288.299 419.126,-286.664 427.7,-285.056"/>
<polygon fill="midnightblue" stroke="midnightblue" points="428.484,-288.47 437.667,-283.187 427.193,-281.59 428.484,-288.47"/>
</g>
<!-- Node340&#45;&gt;Node335 -->
<g id="edge11" class="edge"><title>Node340&#45;&gt;Node335</title>
<path fill="none" stroke="midnightblue" d="M548.089,-164C556.447,-164 565.138,-164 573.659,-164"/>
<polygon fill="midnightblue" stroke="midnightblue" points="573.936,-167.5 583.935,-164 573.935,-160.5 573.936,-167.5"/>
</g>
<!-- Node342 -->
<g id="node12" class="node"><title>Node342</title>
<g id="a_node12"><a xlink:href="namespacemom__diag__mediator.html#ae002ca447acba252bf7bdc042e75a01e" target="_top" xlink:title="mom_diag_mediator::\ldescribe_option">
<polygon fill="white" stroke="black" points="292,-61 292,-91 402,-91 402,-61 292,-61"/>
<text text-anchor="start" x="300" y="-79" font-family="Helvetica,sans-Serif" font-size="10.00">mom_diag_mediator::</text>
<text text-anchor="middle" x="347" y="-68" font-family="Helvetica,sans-Serif" font-size="10.00">describe_option</text>
</a>
</g>
</g>
<!-- Node341&#45;&gt;Node342 -->
<g id="edge14" class="edge"><title>Node341&#45;&gt;Node342</title>
<path fill="none" stroke="midnightblue" d="M256.03,-76C264.314,-76 272.936,-76 281.42,-76"/>
<polygon fill="midnightblue" stroke="midnightblue" points="281.667,-79.5001 291.667,-76 281.667,-72.5001 281.667,-79.5001"/>
</g>
</g>
</svg>
        <g id="navigator" transform="translate(0 0)" fill="#404254">
                <rect fill="#f2f5e9" fill-opacity="0.5" stroke="#606060" stroke-width=".5" x="0" y="0" width="60" height="60"/>
                <use id="zoomplus" xlink:href="#zoomPlus" x="17" y="9" onmousedown="handleZoom(evt,'in')"/>
                <use id="zoomminus" xlink:href="#zoomMin" x="42" y="9" onmousedown="handleZoom(evt,'out')"/>
                <use id="reset" xlink:href="#resetDef" x="30" y="36" onmousedown="handleReset()"/>
                <g id="arrowUp" xlink:href="#dirArrow" transform="translate(30 24)" onmousedown="handlePan(0,-1)">
                  <use xlink:href="#rim" fill="#404040">
                        <set attributeName="fill" to="#808080" begin="arrowUp.mouseover" end="arrowUp.mouseout"/>
                  </use>
                  <path fill="none" stroke="white" stroke-width="1.5" d="M0,-3.0v7 M-2.5,-0.5L0,-3.0L2.5,-0.5"/>
                </g>
                <g id="arrowRight" xlink:href="#dirArrow" transform="rotate(90) translate(36 -43)" onmousedown="handlePan(1,0)">
                  <use xlink:href="#rim" fill="#404040">
                        <set attributeName="fill" to="#808080" begin="arrowRight.mouseover" end="arrowRight.mouseout"/>
                  </use>
                  <path fill="none" stroke="white" stroke-width="1.5" d="M0,-3.0v7 M-2.5,-0.5L0,-3.0L2.5,-0.5"/>
                </g>
                <g id="arrowDown" xlink:href="#dirArrow" transform="rotate(180) translate(-30 -48)" onmousedown="handlePan(0,1)">
                  <use xlink:href="#rim" fill="#404040">
                        <set attributeName="fill" to="#808080" begin="arrowDown.mouseover" end="arrowDown.mouseout"/>
                  </use>
                  <path fill="none" stroke="white" stroke-width="1.5" d="M0,-3.0v7 M-2.5,-0.5L0,-3.0L2.5,-0.5"/>
                </g>
                <g id="arrowLeft" xlink:href="#dirArrow" transform="rotate(270) translate(-36 17)" onmousedown="handlePan(-1,0)">
                  <use xlink:href="#rim" fill="#404040">
                        <set attributeName="fill" to="#808080" begin="arrowLeft.mouseover" end="arrowLeft.mouseout"/>
                  </use>
                  <path fill="none" stroke="white" stroke-width="1.5" d="M0,-3.0v7 M-2.5,-0.5L0,-3.0L2.5,-0.5"/>
                </g>
        </g>
        <svg viewBox="0 0 15 15" width="100%" height="30px" preserveAspectRatio="xMaxYMin meet">
         <g id="arrow_out" transform="scale(0.3 0.3)">
          <a xlink:href="namespacemom__diag__mediator_ae50b35cba800ac5fd8975929fd2b9f4a_cgraph_org.svg" target="_base">
           <rect id="button" ry="5" rx="5" y="6" x="6" height="38" width="38"
                fill="#f2f5e9" fill-opacity="0.5" stroke="#606060" stroke-width="1.0"/>
           <path id="arrow"
             d="M 11.500037,31.436501 C 11.940474,20.09759 22.043105,11.32322 32.158766,21.979434 L 37.068811,17.246167 C 37.068811,17.246167 37.088388,32 37.088388,32 L 22.160133,31.978069 C 22.160133,31.978069 26.997745,27.140456 26.997745,27.140456 C 18.528582,18.264221 13.291696,25.230495 11.500037,31.436501 z"
             style="fill:#404040;"/>
          </a>
         </g>
        </svg>
</svg>
