<?xml version="1.0" encoding="UTF-8" standalone="no"?>
<!DOCTYPE svg PUBLIC "-//W3C//DTD SVG 1.1//EN"
 "http://www.w3.org/Graphics/SVG/1.1/DTD/svg11.dtd">
<!-- Generated by graphviz version 2.38.0 (20140413.2041)
 -->
<!-- Title: mom_sponge::apply_sponge Pages: 1 -->
<svg width="592pt" height="137pt"
 viewBox="0.00 0.00 592.00 137.00" xmlns="http://www.w3.org/2000/svg" xmlns:xlink="http://www.w3.org/1999/xlink">
<g id="graph0" class="graph" transform="scale(1 1) rotate(0) translate(4 133)">
<title>mom_sponge::apply_sponge</title>
<polygon fill="white" stroke="none" points="-4,4 -4,-133 588,-133 588,4 -4,4"/>
<!-- Node0 -->
<g id="node1" class="node"><title>Node0</title>
<polygon fill="#bfbfbf" stroke="black" points="0,-79 0,-98 141,-98 141,-79 0,-79"/>
<text text-anchor="middle" x="70.5" y="-86" font-family="Helvetica,sans-Serif" font-size="10.00">mom_sponge::apply_sponge</text>
</g>
<!-- Node1 -->
<g id="node2" class="node"><title>Node1</title>
<g id="a_node2"><a xlink:href="namespacemom__spatial__means.html#a1268ed073db7e190a1d06fa72bd7a8de" target="_top" xlink:title="mom_spatial_means::\lglobal_i_mean">
<polygon fill="white" stroke="black" points="177,-50.5 177,-80.5 290,-80.5 290,-50.5 177,-50.5"/>
<text text-anchor="start" x="185" y="-68.5" font-family="Helvetica,sans-Serif" font-size="10.00">mom_spatial_means::</text>
<text text-anchor="middle" x="233.5" y="-57.5" font-family="Helvetica,sans-Serif" font-size="10.00">global_i_mean</text>
</a>
</g>
</g>
<!-- Node0&#45;&gt;Node1 -->
<g id="edge1" class="edge"><title>Node0&#45;&gt;Node1</title>
<path fill="none" stroke="midnightblue" d="M138.38,-78.9457C147.77,-77.6043 157.415,-76.2265 166.783,-74.8882"/>
<polygon fill="midnightblue" stroke="midnightblue" points="167.41,-78.3342 176.815,-73.4551 166.42,-71.4045 167.41,-78.3342"/>
</g>
<!-- Node2 -->
<g id="node3" class="node"><title>Node2</title>
<g id="a_node3"><a xlink:href="namespacemom__error__handler.html#a460cfb79a06c29fc249952c2a3710d67" target="_top" xlink:title="mom_error_handler::\lmom_error">
<polygon fill="white" stroke="black" points="331,-98.5 331,-128.5 437,-128.5 437,-98.5 331,-98.5"/>
<text text-anchor="start" x="339" y="-116.5" font-family="Helvetica,sans-Serif" font-size="10.00">mom_error_handler::</text>
<text text-anchor="middle" x="384" y="-105.5" font-family="Helvetica,sans-Serif" font-size="10.00">mom_error</text>
</a>
</g>
</g>
<!-- Node0&#45;&gt;Node2 -->
<g id="edge6" class="edge"><title>Node0&#45;&gt;Node2</title>
<path fill="none" stroke="midnightblue" d="M141.019,-94.0794C194.812,-98.3966 268.644,-104.322 320.563,-108.489"/>
<polygon fill="midnightblue" stroke="midnightblue" points="320.394,-111.987 330.642,-109.298 320.954,-105.009 320.394,-111.987"/>
</g>
<!-- Node1&#45;&gt;Node2 -->
<g id="edge2" class="edge"><title>Node1&#45;&gt;Node2</title>
<path fill="none" stroke="midnightblue" d="M281.079,-80.5558C295.592,-85.2469 311.751,-90.4701 326.847,-95.3497"/>
<polygon fill="midnightblue" stroke="midnightblue" points="325.995,-98.7523 336.586,-98.4976 328.148,-92.0916 325.995,-98.7523"/>
</g>
<!-- Node4 -->
<g id="node5" class="node"><title>Node4</title>
<g id="a_node5"><a xlink:href="namespacemom__coms.html#addf8caf9a58bed7059b5bb6660d73c4e" target="_top" xlink:title="mom_coms::query_efp\l_overflow_error">
<polygon fill="white" stroke="black" points="326,-49.5 326,-79.5 442,-79.5 442,-49.5 326,-49.5"/>
<text text-anchor="start" x="334" y="-67.5" font-family="Helvetica,sans-Serif" font-size="10.00">mom_coms::query_efp</text>
<text text-anchor="middle" x="384" y="-56.5" font-family="Helvetica,sans-Serif" font-size="10.00">_overflow_error</text>
</a>
</g>
</g>
<!-- Node1&#45;&gt;Node4 -->
<g id="edge4" class="edge"><title>Node1&#45;&gt;Node4</title>
<path fill="none" stroke="midnightblue" d="M290.218,-65.1248C298.618,-65.0682 307.356,-65.0094 315.963,-64.9514"/>
<polygon fill="midnightblue" stroke="midnightblue" points="316.003,-68.4513 325.979,-64.884 315.956,-61.4515 316.003,-68.4513"/>
</g>
<!-- Node5 -->
<g id="node6" class="node"><title>Node5</title>
<g id="a_node6"><a xlink:href="namespacemom__coms.html#a9a44466e43db89b2525996feedd11b7a" target="_top" xlink:title="mom_coms::reset_efp\l_overflow_error">
<polygon fill="white" stroke="black" points="327,-0.5 327,-30.5 441,-30.5 441,-0.5 327,-0.5"/>
<text text-anchor="start" x="335" y="-18.5" font-family="Helvetica,sans-Serif" font-size="10.00">mom_coms::reset_efp</text>
<text text-anchor="middle" x="384" y="-7.5" font-family="Helvetica,sans-Serif" font-size="10.00">_overflow_error</text>
</a>
</g>
</g>
<!-- Node1&#45;&gt;Node5 -->
<g id="edge5" class="edge"><title>Node1&#45;&gt;Node5</title>
<path fill="none" stroke="midnightblue" d="M279.055,-50.4984C294.549,-45.2815 312.108,-39.3692 328.326,-33.9087"/>
<polygon fill="midnightblue" stroke="midnightblue" points="329.86,-37.0855 338.22,-30.5774 327.626,-30.4514 329.86,-37.0855"/>
</g>
<!-- Node3 -->
<g id="node4" class="node"><title>Node3</title>
<g id="a_node4"><a xlink:href="namespacemom__error__handler.html#ad5f00a53059c72fe2332d1436c80ca71" target="_top" xlink:title="mom_error_handler::\lis_root_pe">
<polygon fill="white" stroke="black" points="478,-98.5 478,-128.5 584,-128.5 584,-98.5 478,-98.5"/>
<text text-anchor="start" x="486" y="-116.5" font-family="Helvetica,sans-Serif" font-size="10.00">mom_error_handler::</text>
<text text-anchor="middle" x="531" y="-105.5" font-family="Helvetica,sans-Serif" font-size="10.00">is_root_pe</text>
</a>
</g>
</g>
<!-- Node2&#45;&gt;Node3 -->
<g id="edge3" class="edge"><title>Node2&#45;&gt;Node3</title>
<path fill="none" stroke="midnightblue" d="M437.348,-113.5C447.204,-113.5 457.6,-113.5 467.725,-113.5"/>
<polygon fill="midnightblue" stroke="midnightblue" points="467.729,-117 477.729,-113.5 467.728,-110 467.729,-117"/>
</g>
</g>
</svg>
