<?xml version="1.0" encoding="UTF-8" standalone="no"?>
<!DOCTYPE svg PUBLIC "-//W3C//DTD SVG 1.1//EN"
 "http://www.w3.org/Graphics/SVG/1.1/DTD/svg11.dtd">
<!-- Generated by graphviz version 2.38.0 (20140413.2041)
 -->
<!-- Title: mom_legacy_barotropic::uhbt_to_ubt Pages: 1 -->
<svg width="440pt" height="61pt"
 viewBox="0.00 0.00 440.00 61.00" xmlns="http://www.w3.org/2000/svg" xmlns:xlink="http://www.w3.org/1999/xlink">
<g id="graph0" class="graph" transform="scale(1 1) rotate(0) translate(4 57)">
<title>mom_legacy_barotropic::uhbt_to_ubt</title>
<polygon fill="white" stroke="none" points="-4,4 -4,-57 436,-57 436,4 -4,4"/>
<!-- Node85 -->
<g id="node1" class="node"><title>Node85</title>
<polygon fill="#bfbfbf" stroke="black" points="0,-22.5 0,-52.5 120,-52.5 120,-22.5 0,-22.5"/>
<text text-anchor="start" x="8" y="-40.5" font-family="Helvetica,sans-Serif" font-size="10.00">mom_legacy_barotropic</text>
<text text-anchor="middle" x="60" y="-29.5" font-family="Helvetica,sans-Serif" font-size="10.00">::uhbt_to_ubt</text>
</g>
<!-- Node86 -->
<g id="node2" class="node"><title>Node86</title>
<g id="a_node2"><a xlink:href="namespacemom__legacy__barotropic.html#ae039a54a1c82e3f4f53539e5dc2de6ea" target="_top" xlink:title="mom_legacy_barotropic\l::legacy_btstep">
<polygon fill="white" stroke="black" points="312,-22.5 312,-52.5 432,-52.5 432,-22.5 312,-22.5"/>
<text text-anchor="start" x="320" y="-40.5" font-family="Helvetica,sans-Serif" font-size="10.00">mom_legacy_barotropic</text>
<text text-anchor="middle" x="372" y="-29.5" font-family="Helvetica,sans-Serif" font-size="10.00">::legacy_btstep</text>
</a>
</g>
</g>
<!-- Node85&#45;&gt;Node86 -->
<g id="edge1" class="edge"><title>Node85&#45;&gt;Node86</title>
<path fill="none" stroke="midnightblue" d="M130.172,-39.9392C138.867,-40.1708 147.64,-40.368 156,-40.5 209.327,-41.3418 222.673,-41.3418 276,-40.5 287.632,-40.3164 300.062,-40.0064 311.969,-39.6535"/>
<polygon fill="midnightblue" stroke="midnightblue" points="130.126,-36.4366 120.031,-39.6535 129.929,-43.4338 130.126,-36.4366"/>
</g>
<!-- Node87 -->
<g id="node3" class="node"><title>Node87</title>
<g id="a_node3"><a xlink:href="namespacemom__legacy__barotropic.html#a4ec7ded997089119e526b3c0542d21bb" target="_top" xlink:title="This subroutine sets up the private structure used to apply the open boundary conditions, as developed by Mehmet Ilicak. ">
<polygon fill="white" stroke="black" points="156,-0.5 156,-30.5 276,-30.5 276,-0.5 156,-0.5"/>
<text text-anchor="start" x="164" y="-18.5" font-family="Helvetica,sans-Serif" font-size="10.00">mom_legacy_barotropic</text>
<text text-anchor="middle" x="216" y="-7.5" font-family="Helvetica,sans-Serif" font-size="10.00">::set_up_bt_obc</text>
</a>
</g>
</g>
<!-- Node85&#45;&gt;Node87 -->
<g id="edge2" class="edge"><title>Node85&#45;&gt;Node87</title>
<path fill="none" stroke="midnightblue" d="M130.089,-27.6301C138.672,-26.4039 147.388,-25.1588 155.804,-23.9566"/>
<polygon fill="midnightblue" stroke="midnightblue" points="129.504,-24.178 120.1,-29.0571 130.494,-31.1077 129.504,-24.178"/>
</g>
<!-- Node87&#45;&gt;Node86 -->
<g id="edge3" class="edge"><title>Node87&#45;&gt;Node86</title>
<path fill="none" stroke="midnightblue" d="M286.089,-25.3699C294.672,-26.5961 303.388,-27.8412 311.804,-29.0434"/>
<polygon fill="midnightblue" stroke="midnightblue" points="286.494,-21.8923 276.1,-23.9429 285.504,-28.822 286.494,-21.8923"/>
</g>
</g>
</svg>
