<?xml version="1.0" encoding="UTF-8" standalone="no"?>
<!DOCTYPE svg PUBLIC "-//W3C//DTD SVG 1.1//EN"
 "http://www.w3.org/Graphics/SVG/1.1/DTD/svg11.dtd">
<!-- Generated by graphviz version 2.38.0 (20140413.2041)
 -->
<!-- Title: mom_surface_forcing::set_forcing Pages: 1 -->
<svg width="616pt" height="716pt"
 viewBox="0.00 0.00 616.00 716.00" xmlns="http://www.w3.org/2000/svg" xmlns:xlink="http://www.w3.org/1999/xlink">
<g id="graph0" class="graph" transform="scale(1 1) rotate(0) translate(4 712)">
<title>mom_surface_forcing::set_forcing</title>
<polygon fill="white" stroke="none" points="-4,4 -4,-712 612,-712 612,4 -4,4"/>
<!-- Node37 -->
<g id="node1" class="node"><title>Node37</title>
<polygon fill="#bfbfbf" stroke="black" points="0,-333.5 0,-363.5 110,-363.5 110,-333.5 0,-333.5"/>
<text text-anchor="start" x="8" y="-351.5" font-family="Helvetica,sans-Serif" font-size="10.00">mom_surface_forcing</text>
<text text-anchor="middle" x="55" y="-340.5" font-family="Helvetica,sans-Serif" font-size="10.00">::set_forcing</text>
</g>
<!-- Node38 -->
<g id="node2" class="node"><title>Node38</title>
<g id="a_node2"><a xlink:href="namespacemom__forcing__type.html#a4258a1dc8dc6733eb8269d771efe837d" target="_top" xlink:title="Conditionally allocate fields within the forcing type. ">
<polygon fill="white" stroke="black" points="329,-633.5 329,-663.5 466,-663.5 466,-633.5 329,-633.5"/>
<text text-anchor="start" x="337" y="-651.5" font-family="Helvetica,sans-Serif" font-size="10.00">mom_forcing_type::allocate</text>
<text text-anchor="middle" x="397.5" y="-640.5" font-family="Helvetica,sans-Serif" font-size="10.00">_forcing_type</text>
</a>
</g>
</g>
<!-- Node37&#45;&gt;Node38 -->
<g id="edge1" class="edge"><title>Node37&#45;&gt;Node38</title>
<path fill="none" stroke="midnightblue" d="M55.5202,-363.559C54.9001,-411.555 60.1582,-561.733 146,-629.5 193.999,-667.392 264.565,-669.476 318.579,-663.61"/>
<polygon fill="midnightblue" stroke="midnightblue" points="319.294,-667.05 328.806,-662.384 318.46,-660.099 319.294,-667.05"/>
</g>
<!-- Node40 -->
<g id="node4" class="node"><title>Node40</title>
<g id="a_node4"><a xlink:href="namespacemom__surface__forcing.html#ac7bf83a9b318dd6317a17c1f7df73314" target="_top" xlink:title="mom_surface_forcing\l::buoyancy_forcing_allocate">
<polygon fill="white" stroke="black" points="150.5,-677.5 150.5,-707.5 288.5,-707.5 288.5,-677.5 150.5,-677.5"/>
<text text-anchor="start" x="158.5" y="-695.5" font-family="Helvetica,sans-Serif" font-size="10.00">mom_surface_forcing</text>
<text text-anchor="middle" x="219.5" y="-684.5" font-family="Helvetica,sans-Serif" font-size="10.00">::buoyancy_forcing_allocate</text>
</a>
</g>
</g>
<!-- Node37&#45;&gt;Node40 -->
<g id="edge3" class="edge"><title>Node37&#45;&gt;Node40</title>
<path fill="none" stroke="midnightblue" d="M55.9463,-363.772C56.5895,-413.375 65.1793,-571.971 146,-662.5 149.232,-666.12 152.968,-669.314 157.006,-672.129"/>
<polygon fill="midnightblue" stroke="midnightblue" points="155.291,-675.183 165.653,-677.393 158.931,-669.203 155.291,-675.183"/>
</g>
<!-- Node41 -->
<g id="node5" class="node"><title>Node41</title>
<g id="a_node5"><a xlink:href="namespacemom__surface__forcing.html#a929d6245b6a4b93e964a6bf9de07040b" target="_top" xlink:title="mom_surface_forcing\l::buoyancy_forcing_const">
<polygon fill="white" stroke="black" points="155.5,-98.5 155.5,-128.5 283.5,-128.5 283.5,-98.5 155.5,-98.5"/>
<text text-anchor="start" x="163.5" y="-116.5" font-family="Helvetica,sans-Serif" font-size="10.00">mom_surface_forcing</text>
<text text-anchor="middle" x="219.5" y="-105.5" font-family="Helvetica,sans-Serif" font-size="10.00">::buoyancy_forcing_const</text>
</a>
</g>
</g>
<!-- Node37&#45;&gt;Node41 -->
<g id="edge5" class="edge"><title>Node37&#45;&gt;Node41</title>
<path fill="none" stroke="midnightblue" d="M58.1382,-333.295C64.346,-294.825 85.9117,-192.77 146,-137.5 147.275,-136.328 148.608,-135.212 149.991,-134.151"/>
<polygon fill="midnightblue" stroke="midnightblue" points="151.939,-137.059 158.385,-128.65 148.103,-131.204 151.939,-137.059"/>
</g>
<!-- Node42 -->
<g id="node6" class="node"><title>Node42</title>
<g id="a_node6"><a xlink:href="namespacemom__surface__forcing.html#aeef9bee72d56197748f5c8bb88c3f7b2" target="_top" xlink:title="mom_surface_forcing\l::buoyancy_forcing_from\l_data_override">
<polygon fill="white" stroke="black" points="157.5,-481 157.5,-522 281.5,-522 281.5,-481 157.5,-481"/>
<text text-anchor="start" x="165.5" y="-510" font-family="Helvetica,sans-Serif" font-size="10.00">mom_surface_forcing</text>
<text text-anchor="start" x="165.5" y="-499" font-family="Helvetica,sans-Serif" font-size="10.00">::buoyancy_forcing_from</text>
<text text-anchor="middle" x="219.5" y="-488" font-family="Helvetica,sans-Serif" font-size="10.00">_data_override</text>
</a>
</g>
</g>
<!-- Node37&#45;&gt;Node42 -->
<g id="edge6" class="edge"><title>Node37&#45;&gt;Node42</title>
<path fill="none" stroke="midnightblue" d="M63.609,-363.83C76.9998,-389.395 107.085,-440.939 146,-471.5 147.784,-472.901 149.644,-474.247 151.56,-475.539"/>
<polygon fill="midnightblue" stroke="midnightblue" points="149.919,-478.638 160.278,-480.861 153.566,-472.663 149.919,-478.638"/>
</g>
<!-- Node43 -->
<g id="node7" class="node"><title>Node43</title>
<g id="a_node7"><a xlink:href="namespacemom__error__handler.html#a9cda07a87815f0e5594066162b4345c3" target="_top" xlink:title="Writes a message about entering a subroutine if call tree reporting is active. ">
<polygon fill="white" stroke="black" points="344.5,-382.5 344.5,-412.5 450.5,-412.5 450.5,-382.5 344.5,-382.5"/>
<text text-anchor="start" x="352.5" y="-400.5" font-family="Helvetica,sans-Serif" font-size="10.00">mom_error_handler::</text>
<text text-anchor="middle" x="397.5" y="-389.5" font-family="Helvetica,sans-Serif" font-size="10.00">calltree_enter</text>
</a>
</g>
</g>
<!-- Node37&#45;&gt;Node43 -->
<g id="edge15" class="edge"><title>Node37&#45;&gt;Node43</title>
<path fill="none" stroke="midnightblue" d="M58.0858,-363.628C64.0421,-400.243 84.8359,-493.42 146,-531.5 201.463,-566.03 234.358,-560.303 293,-531.5 339.387,-508.716 370.876,-454.026 386.051,-421.999"/>
<polygon fill="midnightblue" stroke="midnightblue" points="389.26,-423.398 390.235,-412.848 382.894,-420.487 389.26,-423.398"/>
</g>
<!-- Node45 -->
<g id="node9" class="node"><title>Node45</title>
<g id="a_node9"><a xlink:href="namespacemom__surface__forcing.html#acca2bc9bf2a06c2ccfcacfe0686013d4" target="_top" xlink:title="mom_surface_forcing\l::buoyancy_forcing_from_files">
<polygon fill="white" stroke="black" points="146,-382.5 146,-412.5 293,-412.5 293,-382.5 146,-382.5"/>
<text text-anchor="start" x="154" y="-400.5" font-family="Helvetica,sans-Serif" font-size="10.00">mom_surface_forcing</text>
<text text-anchor="middle" x="219.5" y="-389.5" font-family="Helvetica,sans-Serif" font-size="10.00">::buoyancy_forcing_from_files</text>
</a>
</g>
</g>
<!-- Node37&#45;&gt;Node45 -->
<g id="edge9" class="edge"><title>Node37&#45;&gt;Node45</title>
<path fill="none" stroke="midnightblue" d="M106.081,-363.601C122.686,-368.608 141.337,-374.232 158.604,-379.439"/>
<polygon fill="midnightblue" stroke="midnightblue" points="157.999,-382.912 168.584,-382.448 160.02,-376.21 157.999,-382.912"/>
</g>
<!-- Node46 -->
<g id="node10" class="node"><title>Node46</title>
<g id="a_node10"><a xlink:href="namespacemom__error__handler.html#a88ea67781e2ed9b73ab7eac8ea5e8578" target="_top" xlink:title="Writes a message about leaving a subroutine if call tree reporting is active. ">
<polygon fill="white" stroke="black" points="344.5,-333.5 344.5,-363.5 450.5,-363.5 450.5,-333.5 344.5,-333.5"/>
<text text-anchor="start" x="352.5" y="-351.5" font-family="Helvetica,sans-Serif" font-size="10.00">mom_error_handler::</text>
<text text-anchor="middle" x="397.5" y="-340.5" font-family="Helvetica,sans-Serif" font-size="10.00">calltree_leave</text>
</a>
</g>
</g>
<!-- Node37&#45;&gt;Node46 -->
<g id="edge16" class="edge"><title>Node37&#45;&gt;Node46</title>
<path fill="none" stroke="midnightblue" d="M61.7435,-333.161C73.0143,-305.581 100.931,-248.368 146,-225.5 204.262,-195.937 233.769,-197.93 293,-225.5 336.607,-245.797 368.409,-294.514 384.537,-324.185"/>
<polygon fill="midnightblue" stroke="midnightblue" points="381.466,-325.865 389.217,-333.088 387.662,-322.608 381.466,-325.865"/>
</g>
<!-- Node47 -->
<g id="node11" class="node"><title>Node47</title>
<g id="a_node11"><a xlink:href="namespacemom__surface__forcing.html#a04a68cf8f709d78372dda5507a1223b7" target="_top" xlink:title="mom_surface_forcing\l::buoyancy_forcing_linear">
<polygon fill="white" stroke="black" points="155.5,-49.5 155.5,-79.5 283.5,-79.5 283.5,-49.5 155.5,-49.5"/>
<text text-anchor="start" x="163.5" y="-67.5" font-family="Helvetica,sans-Serif" font-size="10.00">mom_surface_forcing</text>
<text text-anchor="middle" x="219.5" y="-56.5" font-family="Helvetica,sans-Serif" font-size="10.00">::buoyancy_forcing_linear</text>
</a>
</g>
</g>
<!-- Node37&#45;&gt;Node47 -->
<g id="edge13" class="edge"><title>Node37&#45;&gt;Node47</title>
<path fill="none" stroke="midnightblue" d="M56.7351,-333.472C59.7049,-289.393 74.4206,-159.115 146,-88.5 147.091,-87.4234 148.232,-86.395 149.415,-85.4128"/>
<polygon fill="midnightblue" stroke="midnightblue" points="151.578,-88.1718 157.773,-79.577 147.57,-82.4325 151.578,-88.1718"/>
</g>
<!-- Node48 -->
<g id="node12" class="node"><title>Node48</title>
<g id="a_node12"><a xlink:href="namespacemom__surface__forcing.html#a34cd389230cf9a9a2a620f5da6530474" target="_top" xlink:title="mom_surface_forcing\l::buoyancy_forcing_zero">
<polygon fill="white" stroke="black" points="158,-0.5 158,-30.5 281,-30.5 281,-0.5 158,-0.5"/>
<text text-anchor="start" x="166" y="-18.5" font-family="Helvetica,sans-Serif" font-size="10.00">mom_surface_forcing</text>
<text text-anchor="middle" x="219.5" y="-7.5" font-family="Helvetica,sans-Serif" font-size="10.00">::buoyancy_forcing_zero</text>
</a>
</g>
</g>
<!-- Node37&#45;&gt;Node48 -->
<g id="edge14" class="edge"><title>Node37&#45;&gt;Node48</title>
<path fill="none" stroke="midnightblue" d="M55.7701,-333.228C55.8731,-283.668 62.9961,-125.569 146,-39.5 147.093,-38.3667 148.24,-37.2869 149.435,-36.2581"/>
<polygon fill="midnightblue" stroke="midnightblue" points="151.832,-38.8471 157.927,-30.181 147.758,-33.1547 151.832,-38.8471"/>
</g>
<!-- Node49 -->
<g id="node13" class="node"><title>Node49</title>
<g id="a_node13"><a xlink:href="namespacemom__surface__forcing.html#aa35a779a00dd1481216f8e9ece2d658c" target="_top" xlink:title="mom_surface_forcing\l::wind_forcing_1gyre">
<polygon fill="white" stroke="black" points="164.5,-333.5 164.5,-363.5 274.5,-363.5 274.5,-333.5 164.5,-333.5"/>
<text text-anchor="start" x="172.5" y="-351.5" font-family="Helvetica,sans-Serif" font-size="10.00">mom_surface_forcing</text>
<text text-anchor="middle" x="219.5" y="-340.5" font-family="Helvetica,sans-Serif" font-size="10.00">::wind_forcing_1gyre</text>
</a>
</g>
</g>
<!-- Node37&#45;&gt;Node49 -->
<g id="edge17" class="edge"><title>Node37&#45;&gt;Node49</title>
<path fill="none" stroke="midnightblue" d="M110.11,-348.5C124.152,-348.5 139.415,-348.5 153.936,-348.5"/>
<polygon fill="midnightblue" stroke="midnightblue" points="154.349,-352 164.349,-348.5 154.349,-345 154.349,-352"/>
</g>
<!-- Node50 -->
<g id="node14" class="node"><title>Node50</title>
<g id="a_node14"><a xlink:href="namespacemom__surface__forcing.html#adb45934fb80592e1b256e5a19ca375f2" target="_top" xlink:title="mom_surface_forcing\l::wind_forcing_2gyre">
<polygon fill="white" stroke="black" points="164.5,-284.5 164.5,-314.5 274.5,-314.5 274.5,-284.5 164.5,-284.5"/>
<text text-anchor="start" x="172.5" y="-302.5" font-family="Helvetica,sans-Serif" font-size="10.00">mom_surface_forcing</text>
<text text-anchor="middle" x="219.5" y="-291.5" font-family="Helvetica,sans-Serif" font-size="10.00">::wind_forcing_2gyre</text>
</a>
</g>
</g>
<!-- Node37&#45;&gt;Node50 -->
<g id="edge20" class="edge"><title>Node37&#45;&gt;Node50</title>
<path fill="none" stroke="midnightblue" d="M106.081,-333.399C122.686,-328.392 141.337,-322.768 158.604,-317.561"/>
<polygon fill="midnightblue" stroke="midnightblue" points="160.02,-320.79 168.584,-314.552 157.999,-314.088 160.02,-320.79"/>
</g>
<!-- Node51 -->
<g id="node15" class="node"><title>Node51</title>
<g id="a_node15"><a xlink:href="namespacemom__surface__forcing.html#a4ddc50ed40b1c13197acf1e465ca0abe" target="_top" xlink:title="mom_surface_forcing\l::wind_forcing_by_data\l_override">
<polygon fill="white" stroke="black" points="161,-579 161,-620 278,-620 278,-579 161,-579"/>
<text text-anchor="start" x="169" y="-608" font-family="Helvetica,sans-Serif" font-size="10.00">mom_surface_forcing</text>
<text text-anchor="start" x="169" y="-597" font-family="Helvetica,sans-Serif" font-size="10.00">::wind_forcing_by_data</text>
<text text-anchor="middle" x="219.5" y="-586" font-family="Helvetica,sans-Serif" font-size="10.00">_override</text>
</a>
</g>
</g>
<!-- Node37&#45;&gt;Node51 -->
<g id="edge23" class="edge"><title>Node37&#45;&gt;Node51</title>
<path fill="none" stroke="midnightblue" d="M58.4764,-363.601C65.4776,-401.89 88.7518,-504.015 146,-564.5 148.972,-567.64 152.285,-570.533 155.813,-573.192"/>
<polygon fill="midnightblue" stroke="midnightblue" points="154.129,-576.278 164.374,-578.978 158.049,-570.478 154.129,-576.278"/>
</g>
<!-- Node52 -->
<g id="node16" class="node"><title>Node52</title>
<g id="a_node16"><a xlink:href="namespacemom__surface__forcing.html#a20f66a7798d7d28348dac1d2c690ce99" target="_top" xlink:title="mom_surface_forcing\l::wind_forcing_const">
<polygon fill="white" stroke="black" points="164.5,-235.5 164.5,-265.5 274.5,-265.5 274.5,-235.5 164.5,-235.5"/>
<text text-anchor="start" x="172.5" y="-253.5" font-family="Helvetica,sans-Serif" font-size="10.00">mom_surface_forcing</text>
<text text-anchor="middle" x="219.5" y="-242.5" font-family="Helvetica,sans-Serif" font-size="10.00">::wind_forcing_const</text>
</a>
</g>
</g>
<!-- Node37&#45;&gt;Node52 -->
<g id="edge27" class="edge"><title>Node37&#45;&gt;Node52</title>
<path fill="none" stroke="midnightblue" d="M71.0296,-333.493C87.9781,-317.28 116.976,-291.612 146,-275.5 149.903,-273.333 154.028,-271.305 158.249,-269.417"/>
<polygon fill="midnightblue" stroke="midnightblue" points="159.721,-272.595 167.595,-265.505 157.019,-266.137 159.721,-272.595"/>
</g>
<!-- Node53 -->
<g id="node17" class="node"><title>Node53</title>
<g id="a_node17"><a xlink:href="namespacemom__surface__forcing.html#a3c2efab8f262459aa7de2c592d1a3b1e" target="_top" xlink:title="mom_surface_forcing\l::wind_forcing_from_file">
<polygon fill="white" stroke="black" points="159.5,-147.5 159.5,-177.5 279.5,-177.5 279.5,-147.5 159.5,-147.5"/>
<text text-anchor="start" x="167.5" y="-165.5" font-family="Helvetica,sans-Serif" font-size="10.00">mom_surface_forcing</text>
<text text-anchor="middle" x="219.5" y="-154.5" font-family="Helvetica,sans-Serif" font-size="10.00">::wind_forcing_from_file</text>
</a>
</g>
</g>
<!-- Node37&#45;&gt;Node53 -->
<g id="edge30" class="edge"><title>Node37&#45;&gt;Node53</title>
<path fill="none" stroke="midnightblue" d="M60.9209,-333.468C71.6453,-302.885 99.9235,-232.906 146,-192.5 150.396,-188.645 155.356,-185.239 160.567,-182.241"/>
<polygon fill="midnightblue" stroke="midnightblue" points="162.271,-185.299 169.519,-177.571 159.034,-179.093 162.271,-185.299"/>
</g>
<!-- Node55 -->
<g id="node19" class="node"><title>Node55</title>
<g id="a_node19"><a xlink:href="namespacemom__surface__forcing.html#a33a33acb23912c2c764502570518c2ad" target="_top" xlink:title="mom_surface_forcing\l::wind_forcing_gyres">
<polygon fill="white" stroke="black" points="164.5,-431.5 164.5,-461.5 274.5,-461.5 274.5,-431.5 164.5,-431.5"/>
<text text-anchor="start" x="172.5" y="-449.5" font-family="Helvetica,sans-Serif" font-size="10.00">mom_surface_forcing</text>
<text text-anchor="middle" x="219.5" y="-438.5" font-family="Helvetica,sans-Serif" font-size="10.00">::wind_forcing_gyres</text>
</a>
</g>
</g>
<!-- Node37&#45;&gt;Node55 -->
<g id="edge34" class="edge"><title>Node37&#45;&gt;Node55</title>
<path fill="none" stroke="midnightblue" d="M70.9521,-363.795C87.8327,-380.301 116.772,-406.384 146,-422.5 149.207,-424.269 152.567,-425.935 156.008,-427.5"/>
<polygon fill="midnightblue" stroke="midnightblue" points="154.687,-430.742 165.26,-431.41 157.411,-424.294 154.687,-430.742"/>
</g>
<!-- Node39 -->
<g id="node3" class="node"><title>Node39</title>
<g id="a_node3"><a xlink:href="MOM__forcing__type_8F90.html#aede7c3d8c91ec3e8a8a3b68824a5e9e8" target="_top" xlink:title="Allocates and zeroes&#45;out array. ">
<polygon fill="white" stroke="black" points="530,-639 530,-658 580,-658 580,-639 530,-639"/>
<text text-anchor="middle" x="555" y="-646" font-family="Helvetica,sans-Serif" font-size="10.00">myalloc</text>
</a>
</g>
</g>
<!-- Node38&#45;&gt;Node39 -->
<g id="edge2" class="edge"><title>Node38&#45;&gt;Node39</title>
<path fill="none" stroke="midnightblue" d="M466.252,-648.5C484.606,-648.5 503.715,-648.5 519.397,-648.5"/>
<polygon fill="midnightblue" stroke="midnightblue" points="519.655,-652 529.655,-648.5 519.655,-645 519.655,-652"/>
</g>
<!-- Node40&#45;&gt;Node38 -->
<g id="edge4" class="edge"><title>Node40&#45;&gt;Node38</title>
<path fill="none" stroke="midnightblue" d="M280.577,-677.481C295.363,-673.784 311.321,-669.795 326.53,-665.993"/>
<polygon fill="midnightblue" stroke="midnightblue" points="327.543,-669.347 336.395,-663.526 325.845,-662.556 327.543,-669.347"/>
</g>
<!-- Node42&#45;&gt;Node43 -->
<g id="edge7" class="edge"><title>Node42&#45;&gt;Node43</title>
<path fill="none" stroke="midnightblue" d="M274.214,-480.905C280.649,-477.962 287.044,-474.804 293,-471.5 320.672,-456.148 349.785,-434.804 370.061,-418.982"/>
<polygon fill="midnightblue" stroke="midnightblue" points="372.23,-421.729 377.912,-412.787 367.893,-416.234 372.23,-421.729"/>
</g>
<!-- Node44 -->
<g id="node8" class="node"><title>Node44</title>
<g id="a_node8"><a xlink:href="namespacemom__error__handler.html#ad5f00a53059c72fe2332d1436c80ca71" target="_top" xlink:title="mom_error_handler::\lis_root_pe">
<polygon fill="white" stroke="black" points="502,-358.5 502,-388.5 608,-388.5 608,-358.5 502,-358.5"/>
<text text-anchor="start" x="510" y="-376.5" font-family="Helvetica,sans-Serif" font-size="10.00">mom_error_handler::</text>
<text text-anchor="middle" x="555" y="-365.5" font-family="Helvetica,sans-Serif" font-size="10.00">is_root_pe</text>
</a>
</g>
</g>
<!-- Node43&#45;&gt;Node44 -->
<g id="edge8" class="edge"><title>Node43&#45;&gt;Node44</title>
<path fill="none" stroke="midnightblue" d="M450.712,-389.442C463.86,-387.412 478.104,-385.214 491.692,-383.117"/>
<polygon fill="midnightblue" stroke="midnightblue" points="492.577,-386.522 501.926,-381.537 491.509,-379.604 492.577,-386.522"/>
</g>
<!-- Node45&#45;&gt;Node43 -->
<g id="edge10" class="edge"><title>Node45&#45;&gt;Node43</title>
<path fill="none" stroke="midnightblue" d="M293.102,-397.5C306.835,-397.5 321.084,-397.5 334.456,-397.5"/>
<polygon fill="midnightblue" stroke="midnightblue" points="334.487,-401 344.487,-397.5 334.487,-394 334.487,-401"/>
</g>
<!-- Node45&#45;&gt;Node46 -->
<g id="edge11" class="edge"><title>Node45&#45;&gt;Node46</title>
<path fill="none" stroke="midnightblue" d="M274.742,-382.399C293.664,-377.13 315.041,-371.179 334.543,-365.749"/>
<polygon fill="midnightblue" stroke="midnightblue" points="335.551,-369.102 344.246,-363.048 333.674,-362.358 335.551,-369.102"/>
</g>
<!-- Node46&#45;&gt;Node44 -->
<g id="edge12" class="edge"><title>Node46&#45;&gt;Node44</title>
<path fill="none" stroke="midnightblue" d="M450.712,-356.894C463.86,-359.008 478.104,-361.298 491.692,-363.483"/>
<polygon fill="midnightblue" stroke="midnightblue" points="491.497,-366.996 501.926,-365.128 492.608,-360.085 491.497,-366.996"/>
</g>
<!-- Node49&#45;&gt;Node43 -->
<g id="edge18" class="edge"><title>Node49&#45;&gt;Node43</title>
<path fill="none" stroke="midnightblue" d="M274.742,-363.601C293.664,-368.87 315.041,-374.821 334.543,-380.251"/>
<polygon fill="midnightblue" stroke="midnightblue" points="333.674,-383.642 344.246,-382.952 335.551,-376.898 333.674,-383.642"/>
</g>
<!-- Node49&#45;&gt;Node46 -->
<g id="edge19" class="edge"><title>Node49&#45;&gt;Node46</title>
<path fill="none" stroke="midnightblue" d="M274.742,-348.5C293.492,-348.5 314.651,-348.5 334.008,-348.5"/>
<polygon fill="midnightblue" stroke="midnightblue" points="334.246,-352 344.246,-348.5 334.246,-345 334.246,-352"/>
</g>
<!-- Node50&#45;&gt;Node43 -->
<g id="edge21" class="edge"><title>Node50&#45;&gt;Node43</title>
<path fill="none" stroke="midnightblue" d="M274.62,-314.005C281.123,-316.927 287.425,-320.395 293,-324.5 314.762,-340.521 307.315,-357.375 329,-373.5 331.052,-375.026 333.21,-376.462 335.444,-377.812"/>
<polygon fill="midnightblue" stroke="midnightblue" points="333.904,-380.957 344.37,-382.605 337.215,-374.79 333.904,-380.957"/>
</g>
<!-- Node50&#45;&gt;Node46 -->
<g id="edge22" class="edge"><title>Node50&#45;&gt;Node46</title>
<path fill="none" stroke="midnightblue" d="M274.742,-314.601C293.664,-319.87 315.041,-325.821 334.543,-331.251"/>
<polygon fill="midnightblue" stroke="midnightblue" points="333.674,-334.642 344.246,-333.952 335.551,-327.898 333.674,-334.642"/>
</g>
<!-- Node51&#45;&gt;Node38 -->
<g id="edge25" class="edge"><title>Node51&#45;&gt;Node38</title>
<path fill="none" stroke="midnightblue" d="M278.129,-615.544C295.639,-620.419 314.977,-625.803 332.858,-630.782"/>
<polygon fill="midnightblue" stroke="midnightblue" points="332.049,-634.189 342.622,-633.5 333.927,-627.446 332.049,-634.189"/>
</g>
<!-- Node51&#45;&gt;Node43 -->
<g id="edge24" class="edge"><title>Node51&#45;&gt;Node43</title>
<path fill="none" stroke="midnightblue" d="M272.709,-578.808C279.958,-574.686 286.975,-569.923 293,-564.5 338.457,-523.584 371.01,-458.061 386.437,-422.471"/>
<polygon fill="midnightblue" stroke="midnightblue" points="389.83,-423.433 390.5,-412.859 383.382,-420.707 389.83,-423.433"/>
</g>
<!-- Node51&#45;&gt;Node46 -->
<g id="edge26" class="edge"><title>Node51&#45;&gt;Node46</title>
<path fill="none" stroke="midnightblue" d="M249.957,-578.712C265.012,-566.597 282.354,-550.062 293,-531.5 328.831,-469.024 281.507,-427.644 329,-373.5 331.009,-371.21 333.247,-369.13 335.652,-367.239"/>
<polygon fill="midnightblue" stroke="midnightblue" points="337.94,-369.925 344.387,-361.518 334.104,-364.07 337.94,-369.925"/>
</g>
<!-- Node52&#45;&gt;Node43 -->
<g id="edge28" class="edge"><title>Node52&#45;&gt;Node43</title>
<path fill="none" stroke="midnightblue" d="M274.727,-263.054C281.442,-266.297 287.771,-270.374 293,-275.5 326.137,-307.981 296.019,-340.861 329,-373.5 331.072,-375.55 333.33,-377.427 335.724,-379.143"/>
<polygon fill="midnightblue" stroke="midnightblue" points="333.947,-382.16 344.305,-384.386 337.597,-376.186 333.947,-382.16"/>
</g>
<!-- Node52&#45;&gt;Node46 -->
<g id="edge29" class="edge"><title>Node52&#45;&gt;Node46</title>
<path fill="none" stroke="midnightblue" d="M270.415,-265.622C278.129,-268.552 285.889,-271.86 293,-275.5 321.087,-289.879 350.207,-311.076 370.376,-326.928"/>
<polygon fill="midnightblue" stroke="midnightblue" points="368.442,-329.863 378.443,-333.36 372.806,-324.389 368.442,-329.863"/>
</g>
<!-- Node53&#45;&gt;Node43 -->
<g id="edge31" class="edge"><title>Node53&#45;&gt;Node43</title>
<path fill="none" stroke="midnightblue" d="M244.534,-177.544C260.606,-188.832 280.944,-205.704 293,-225.5 328.211,-283.318 283.66,-323.231 329,-373.5 331.03,-375.751 333.286,-377.791 335.706,-379.64"/>
<polygon fill="midnightblue" stroke="midnightblue" points="334.159,-382.804 344.476,-385.217 337.916,-376.898 334.159,-382.804"/>
</g>
<!-- Node53&#45;&gt;Node46 -->
<g id="edge33" class="edge"><title>Node53&#45;&gt;Node46</title>
<path fill="none" stroke="midnightblue" d="M268.422,-177.575C277.131,-181.594 285.743,-186.527 293,-192.5 337.766,-229.348 370.401,-290.593 386.073,-324.34"/>
<polygon fill="midnightblue" stroke="midnightblue" points="382.899,-325.816 390.214,-333.481 389.276,-322.927 382.899,-325.816"/>
</g>
<!-- Node54 -->
<g id="node18" class="node"><title>Node54</title>
<g id="a_node18"><a xlink:href="namespacemom__string__functions.html#aca148baf726de2f028b7e7baad3c85d4" target="_top" xlink:title="mom_string_functions\l::uppercase">
<polygon fill="white" stroke="black" points="341,-147.5 341,-177.5 454,-177.5 454,-147.5 341,-147.5"/>
<text text-anchor="start" x="349" y="-165.5" font-family="Helvetica,sans-Serif" font-size="10.00">mom_string_functions</text>
<text text-anchor="middle" x="397.5" y="-154.5" font-family="Helvetica,sans-Serif" font-size="10.00">::uppercase</text>
</a>
</g>
</g>
<!-- Node53&#45;&gt;Node54 -->
<g id="edge32" class="edge"><title>Node53&#45;&gt;Node54</title>
<path fill="none" stroke="midnightblue" d="M279.595,-162.5C295.969,-162.5 313.846,-162.5 330.583,-162.5"/>
<polygon fill="midnightblue" stroke="midnightblue" points="330.833,-166 340.833,-162.5 330.833,-159 330.833,-166"/>
</g>
<!-- Node55&#45;&gt;Node43 -->
<g id="edge35" class="edge"><title>Node55&#45;&gt;Node43</title>
<path fill="none" stroke="midnightblue" d="M274.742,-431.399C293.664,-426.13 315.041,-420.179 334.543,-414.749"/>
<polygon fill="midnightblue" stroke="midnightblue" points="335.551,-418.102 344.246,-412.048 333.674,-411.358 335.551,-418.102"/>
</g>
<!-- Node55&#45;&gt;Node46 -->
<g id="edge36" class="edge"><title>Node55&#45;&gt;Node46</title>
<path fill="none" stroke="midnightblue" d="M274.616,-432.79C281.12,-429.95 287.423,-426.553 293,-422.5 314.861,-406.614 307.421,-389.767 329,-373.5 331.465,-371.642 334.083,-369.909 336.801,-368.296"/>
<polygon fill="midnightblue" stroke="midnightblue" points="338.57,-371.32 345.76,-363.538 335.287,-365.137 338.57,-371.32"/>
</g>
</g>
</svg>
