<?xml version="1.0" encoding="UTF-8" standalone="no"?>
<!DOCTYPE svg PUBLIC "-//W3C//DTD SVG 1.1//EN"
 "http://www.w3.org/Graphics/SVG/1.1/DTD/svg11.dtd">
<!-- Generated by graphviz version 2.38.0 (20140413.2041)
 -->
<!-- Title: mom_internal_tides::propagate_corner_spread Pages: 1 -->
<svg width="415pt" height="39pt"
 viewBox="0.00 0.00 415.00 39.00" xmlns="http://www.w3.org/2000/svg" xmlns:xlink="http://www.w3.org/1999/xlink">
<g id="graph0" class="graph" transform="scale(1 1) rotate(0) translate(4 35)">
<title>mom_internal_tides::propagate_corner_spread</title>
<polygon fill="white" stroke="none" points="-4,4 -4,-35 411,-35 411,4 -4,4"/>
<!-- Node56 -->
<g id="node1" class="node"><title>Node56</title>
<polygon fill="#bfbfbf" stroke="black" points="0,-0.5 0,-30.5 132,-30.5 132,-0.5 0,-0.5"/>
<text text-anchor="start" x="8" y="-18.5" font-family="Helvetica,sans-Serif" font-size="10.00">mom_internal_tides</text>
<text text-anchor="middle" x="66" y="-7.5" font-family="Helvetica,sans-Serif" font-size="10.00">::propagate_corner_spread</text>
</g>
<!-- Node57 -->
<g id="node2" class="node"><title>Node57</title>
<g id="a_node2"><a xlink:href="namespacemom__internal__tides.html#a22caa92b67ed4077ce78eac34d15b14d" target="_top" xlink:title="This subroutine does refraction on the internal waves at a single frequency. ">
<polygon fill="white" stroke="black" points="168,-0.5 168,-30.5 269,-30.5 269,-0.5 168,-0.5"/>
<text text-anchor="start" x="176" y="-18.5" font-family="Helvetica,sans-Serif" font-size="10.00">mom_internal_tides</text>
<text text-anchor="middle" x="218.5" y="-7.5" font-family="Helvetica,sans-Serif" font-size="10.00">::propagate</text>
</a>
</g>
</g>
<!-- Node56&#45;&gt;Node57 -->
<g id="edge1" class="edge"><title>Node56&#45;&gt;Node57</title>
<path fill="none" stroke="midnightblue" d="M142.245,-15.5C150.88,-15.5 159.514,-15.5 167.694,-15.5"/>
<polygon fill="midnightblue" stroke="midnightblue" points="142.136,-12.0001 132.136,-15.5 142.136,-19.0001 142.136,-12.0001"/>
</g>
<!-- Node58 -->
<g id="node3" class="node"><title>Node58</title>
<g id="a_node3"><a xlink:href="namespacemom__internal__tides.html#a6cae26da43d0539e8ac959105cf125c2" target="_top" xlink:title="This subroutine calls other subroutines in this file that are needed to refract, propagate, and dissipate energy density of the internal tide. ">
<polygon fill="white" stroke="black" points="305,-0.5 305,-30.5 407,-30.5 407,-0.5 305,-0.5"/>
<text text-anchor="start" x="313" y="-18.5" font-family="Helvetica,sans-Serif" font-size="10.00">mom_internal_tides</text>
<text text-anchor="middle" x="356" y="-7.5" font-family="Helvetica,sans-Serif" font-size="10.00">::propagate_int_tide</text>
</a>
</g>
</g>
<!-- Node57&#45;&gt;Node58 -->
<g id="edge2" class="edge"><title>Node57&#45;&gt;Node58</title>
<path fill="none" stroke="midnightblue" d="M279.428,-15.5C287.923,-15.5 296.583,-15.5 304.867,-15.5"/>
<polygon fill="midnightblue" stroke="midnightblue" points="279.186,-12.0001 269.186,-15.5 279.186,-19.0001 279.186,-12.0001"/>
</g>
</g>
</svg>
