<?xml version="1.0" encoding="UTF-8" standalone="no"?>
<!DOCTYPE svg PUBLIC "-//W3C//DTD SVG 1.1//EN"
 "http://www.w3.org/Graphics/SVG/1.1/DTD/svg11.dtd">
<!-- Generated by graphviz version 2.38.0 (20140413.2041)
 -->
<!-- Title: mom::step_mom_thermo Pages: 1 -->
<svg width="360pt" height="28pt"
 viewBox="0.00 0.00 360.00 28.00" xmlns="http://www.w3.org/2000/svg" xmlns:xlink="http://www.w3.org/1999/xlink">
<g id="graph0" class="graph" transform="scale(1 1) rotate(0) translate(4 24)">
<title>mom::step_mom_thermo</title>
<polygon fill="white" stroke="none" points="-4,4 -4,-24 356,-24 356,4 -4,4"/>
<!-- Node426 -->
<g id="node1" class="node"><title>Node426</title>
<polygon fill="#bfbfbf" stroke="black" points="0,-0.5 0,-19.5 125,-19.5 125,-0.5 0,-0.5"/>
<text text-anchor="middle" x="62.5" y="-7.5" font-family="Helvetica,sans-Serif" font-size="10.00">mom::step_mom_thermo</text>
</g>
<!-- Node427 -->
<g id="node2" class="node"><title>Node427</title>
<g id="a_node2"><a xlink:href="namespacemom.html#a4c8332b095c6d295084089aa6b3b678a" target="_top" xlink:title="This subroutine orchestrates the time stepping of MOM. The adiabatic dynamics are stepped by calls to...">
<polygon fill="white" stroke="black" points="161,-0.5 161,-19.5 251,-19.5 251,-0.5 161,-0.5"/>
<text text-anchor="middle" x="206" y="-7.5" font-family="Helvetica,sans-Serif" font-size="10.00">mom::step_mom</text>
</a>
</g>
</g>
<!-- Node426&#45;&gt;Node427 -->
<g id="edge1" class="edge"><title>Node426&#45;&gt;Node427</title>
<path fill="none" stroke="midnightblue" d="M135.385,-10C144.121,-10 152.833,-10 160.989,-10"/>
<polygon fill="midnightblue" stroke="midnightblue" points="135.152,-6.5001 125.152,-10 135.152,-13.5001 135.152,-6.5001"/>
</g>
<!-- Node428 -->
<g id="node3" class="node"><title>Node428</title>
<g id="a_node3"><a xlink:href="MOM__driver_8F90.html#a08fffeb2d8e8acbf9ed4609be6d258c6" target="_top" xlink:title="mom_main">
<polygon fill="white" stroke="black" points="287,-0.5 287,-19.5 352,-19.5 352,-0.5 287,-0.5"/>
<text text-anchor="middle" x="319.5" y="-7.5" font-family="Helvetica,sans-Serif" font-size="10.00">mom_main</text>
</a>
</g>
</g>
<!-- Node427&#45;&gt;Node428 -->
<g id="edge2" class="edge"><title>Node427&#45;&gt;Node428</title>
<path fill="none" stroke="midnightblue" d="M261.26,-10C270.006,-10 278.8,-10 286.782,-10"/>
<polygon fill="midnightblue" stroke="midnightblue" points="261.068,-6.5001 251.068,-10 261.068,-13.5001 261.068,-6.5001"/>
</g>
</g>
</svg>
