<?xml version="1.0" encoding="UTF-8" standalone="no"?>
<!DOCTYPE svg PUBLIC "-//W3C//DTD SVG 1.1//EN"
 "http://www.w3.org/Graphics/SVG/1.1/DTD/svg11.dtd">
<!-- Generated by graphviz version 2.38.0 (20140413.2041)
 -->
<!-- Title: mom_restart::query_initialized_1d Pages: 1 -->
<svg width="534pt" height="61pt"
 viewBox="0.00 0.00 534.00 61.00" xmlns="http://www.w3.org/2000/svg" xmlns:xlink="http://www.w3.org/1999/xlink">
<g id="graph0" class="graph" transform="scale(1 1) rotate(0) translate(4 57)">
<title>mom_restart::query_initialized_1d</title>
<polygon fill="white" stroke="none" points="-4,4 -4,-57 530,-57 530,4 -4,4"/>
<!-- Node11 -->
<g id="node1" class="node"><title>Node11</title>
<polygon fill="#bfbfbf" stroke="black" points="0,-22.5 0,-52.5 101,-52.5 101,-22.5 0,-22.5"/>
<text text-anchor="start" x="8" y="-40.5" font-family="Helvetica,sans-Serif" font-size="10.00">mom_restart::query</text>
<text text-anchor="middle" x="50.5" y="-29.5" font-family="Helvetica,sans-Serif" font-size="10.00">_initialized_1d</text>
</g>
<!-- Node12 -->
<g id="node2" class="node"><title>Node12</title>
<g id="a_node2"><a xlink:href="namespacemom__error__handler.html#a460cfb79a06c29fc249952c2a3710d67" target="_top" xlink:title="mom_error_handler::\lmom_error">
<polygon fill="white" stroke="black" points="278,-22.5 278,-52.5 384,-52.5 384,-22.5 278,-22.5"/>
<text text-anchor="start" x="286" y="-40.5" font-family="Helvetica,sans-Serif" font-size="10.00">mom_error_handler::</text>
<text text-anchor="middle" x="331" y="-29.5" font-family="Helvetica,sans-Serif" font-size="10.00">mom_error</text>
</a>
</g>
</g>
<!-- Node11&#45;&gt;Node12 -->
<g id="edge1" class="edge"><title>Node11&#45;&gt;Node12</title>
<path fill="none" stroke="midnightblue" d="M101.224,-39.5395C112.954,-39.939 125.417,-40.2968 137,-40.5 183.659,-41.3183 195.34,-41.2951 242,-40.5 250.349,-40.3577 259.142,-40.1396 267.809,-39.8844"/>
<polygon fill="midnightblue" stroke="midnightblue" points="268.005,-43.3801 277.891,-39.5702 267.787,-36.3835 268.005,-43.3801"/>
</g>
<!-- Node14 -->
<g id="node4" class="node"><title>Node14</title>
<g id="a_node4"><a xlink:href="namespacemom__restart.html#a4b143fb18dab7c0825e426fbf9532623" target="_top" xlink:title="mom_restart::restart\l_error">
<polygon fill="white" stroke="black" points="137,-0.5 137,-30.5 242,-30.5 242,-0.5 137,-0.5"/>
<text text-anchor="start" x="145" y="-18.5" font-family="Helvetica,sans-Serif" font-size="10.00">mom_restart::restart</text>
<text text-anchor="middle" x="189.5" y="-7.5" font-family="Helvetica,sans-Serif" font-size="10.00">_error</text>
</a>
</g>
</g>
<!-- Node11&#45;&gt;Node14 -->
<g id="edge3" class="edge"><title>Node11&#45;&gt;Node14</title>
<path fill="none" stroke="midnightblue" d="M101.348,-29.4953C109.596,-28.1707 118.235,-26.7834 126.735,-25.4185"/>
<polygon fill="midnightblue" stroke="midnightblue" points="127.298,-28.8731 136.616,-23.8317 126.188,-21.9616 127.298,-28.8731"/>
</g>
<!-- Node13 -->
<g id="node3" class="node"><title>Node13</title>
<g id="a_node3"><a xlink:href="namespacemom__error__handler.html#ad5f00a53059c72fe2332d1436c80ca71" target="_top" xlink:title="mom_error_handler::\lis_root_pe">
<polygon fill="white" stroke="black" points="420,-22.5 420,-52.5 526,-52.5 526,-22.5 420,-22.5"/>
<text text-anchor="start" x="428" y="-40.5" font-family="Helvetica,sans-Serif" font-size="10.00">mom_error_handler::</text>
<text text-anchor="middle" x="473" y="-29.5" font-family="Helvetica,sans-Serif" font-size="10.00">is_root_pe</text>
</a>
</g>
</g>
<!-- Node12&#45;&gt;Node13 -->
<g id="edge2" class="edge"><title>Node12&#45;&gt;Node13</title>
<path fill="none" stroke="midnightblue" d="M384.131,-37.5C392.421,-37.5 401.07,-37.5 409.568,-37.5"/>
<polygon fill="midnightblue" stroke="midnightblue" points="409.826,-41.0001 419.826,-37.5 409.826,-34.0001 409.826,-41.0001"/>
</g>
<!-- Node14&#45;&gt;Node12 -->
<g id="edge4" class="edge"><title>Node14&#45;&gt;Node12</title>
<path fill="none" stroke="midnightblue" d="M242.048,-23.6295C250.416,-24.9491 259.16,-26.328 267.75,-27.6827"/>
<polygon fill="midnightblue" stroke="midnightblue" points="267.308,-31.1563 277.731,-29.2569 268.399,-24.2418 267.308,-31.1563"/>
</g>
</g>
</svg>
