<?xml version="1.0" encoding="UTF-8" standalone="no"?>
<!DOCTYPE svg PUBLIC "-//W3C//DTD SVG 1.1//EN"
 "http://www.w3.org/Graphics/SVG/1.1/DTD/svg11.dtd">
<!-- Generated by graphviz version 2.38.0 (20140413.2041)
 -->
<!-- Title: mom_forcing_type::extractfluxes1d Pages: 1 -->
<svg width="818pt" height="148pt"
 viewBox="0.00 0.00 818.00 148.00" xmlns="http://www.w3.org/2000/svg" xmlns:xlink="http://www.w3.org/1999/xlink">
<g id="graph0" class="graph" transform="scale(1 1) rotate(0) translate(4 144)">
<title>mom_forcing_type::extractfluxes1d</title>
<polygon fill="white" stroke="none" points="-4,4 -4,-144 814,-144 814,4 -4,4"/>
<!-- Node36 -->
<g id="node1" class="node"><title>Node36</title>
<polygon fill="#bfbfbf" stroke="black" points="0,-57.5 0,-76.5 170,-76.5 170,-57.5 0,-57.5"/>
<text text-anchor="middle" x="85" y="-64.5" font-family="Helvetica,sans-Serif" font-size="10.00">mom_forcing_type::extractfluxes1d</text>
</g>
<!-- Node37 -->
<g id="node2" class="node"><title>Node37</title>
<g id="a_node2"><a xlink:href="namespacemom__diabatic__aux.html#aed2e2c3c0c73c160399e7de6f84c2c7f" target="_top" xlink:title="Update the thickness, temperature, and salinity due to thermodynamic boundary forcing (contained in f...">
<polygon fill="white" stroke="black" points="452,-120.5 452,-139.5 667,-139.5 667,-120.5 452,-120.5"/>
<text text-anchor="middle" x="559.5" y="-127.5" font-family="Helvetica,sans-Serif" font-size="10.00">mom_diabatic_aux::applyboundaryfluxesinout</text>
</a>
</g>
</g>
<!-- Node36&#45;&gt;Node37 -->
<g id="edge1" class="edge"><title>Node36&#45;&gt;Node37</title>
<path fill="none" stroke="midnightblue" d="M141.185,-78.492C161.502,-82.4811 184.741,-86.7614 206,-90 290.026,-102.801 385.894,-113.424 456.419,-120.498"/>
<polygon fill="midnightblue" stroke="midnightblue" points="141.651,-75.0163 131.161,-76.5015 140.287,-81.8823 141.651,-75.0163"/>
</g>
<!-- Node39 -->
<g id="node4" class="node"><title>Node39</title>
<g id="a_node4"><a xlink:href="namespacemom__bulk__mixed__layer.html#af4ea9156c3759dd0328f0f994fe64e71" target="_top" xlink:title="This subroutine partially steps the bulk mixed layer model. The following processes are executed...">
<polygon fill="white" stroke="black" points="500,-71 500,-101 619,-101 619,-71 500,-71"/>
<text text-anchor="start" x="508" y="-89" font-family="Helvetica,sans-Serif" font-size="10.00">mom_bulk_mixed_layer</text>
<text text-anchor="middle" x="559.5" y="-78" font-family="Helvetica,sans-Serif" font-size="10.00">::bulkmixedlayer</text>
</a>
</g>
</g>
<!-- Node36&#45;&gt;Node39 -->
<g id="edge3" class="edge"><title>Node36&#45;&gt;Node39</title>
<path fill="none" stroke="midnightblue" d="M180.41,-70.7964C275.634,-74.6255 419.673,-80.4175 499.677,-83.6346"/>
<polygon fill="midnightblue" stroke="midnightblue" points="180.334,-67.2906 170.201,-70.3859 180.052,-74.2849 180.334,-67.2906"/>
</g>
<!-- Node40 -->
<g id="node5" class="node"><title>Node40</title>
<g id="a_node5"><a xlink:href="namespacemom__forcing__type.html#a6ded1dc1c125f54daf335b2c42792883" target="_top" xlink:title="This routine calculates surface buoyancy flux by adding up the heat, FW &amp; salt fluxes. These are actual fluxes, with units of stuff per time. Setting dt=1 in the call to extractFluxes routine allows us to get &quot;stuf per time&quot; rather than the time integrated fluxes needed in other routines that call extractFluxes. ">
<polygon fill="white" stroke="black" points="206,-38.5 206,-57.5 416,-57.5 416,-38.5 206,-38.5"/>
<text text-anchor="middle" x="311" y="-45.5" font-family="Helvetica,sans-Serif" font-size="10.00">mom_forcing_type::calculatebuoyancyflux1d</text>
</a>
</g>
</g>
<!-- Node36&#45;&gt;Node40 -->
<g id="edge5" class="edge"><title>Node36&#45;&gt;Node40</title>
<path fill="none" stroke="midnightblue" d="M180.261,-59.0046C188.702,-58.2886 197.282,-57.5609 205.8,-56.8384"/>
<polygon fill="midnightblue" stroke="midnightblue" points="179.715,-55.5383 170.047,-59.871 180.307,-62.5133 179.715,-55.5383"/>
</g>
<!-- Node42 -->
<g id="node7" class="node"><title>Node42</title>
<g id="a_node7"><a xlink:href="namespacemom__forcing__type.html#a6f249aced2e22622e4c2913b4c86b43f" target="_top" xlink:title="2d wrapper for 1d extract fluxes from surface fluxes type. This subroutine extracts fluxes from the s...">
<polygon fill="white" stroke="black" points="226,-0.5 226,-19.5 396,-19.5 396,-0.5 226,-0.5"/>
<text text-anchor="middle" x="311" y="-7.5" font-family="Helvetica,sans-Serif" font-size="10.00">mom_forcing_type::extractfluxes2d</text>
</a>
</g>
</g>
<!-- Node36&#45;&gt;Node42 -->
<g id="edge8" class="edge"><title>Node36&#45;&gt;Node42</title>
<path fill="none" stroke="midnightblue" d="M122.488,-54.1265C146.095,-46.127 177.609,-36.0589 206,-29 220.339,-25.435 235.943,-22.2333 250.6,-19.5189"/>
<polygon fill="midnightblue" stroke="midnightblue" points="121.215,-50.863 112.888,-57.4134 123.482,-57.4856 121.215,-50.863"/>
</g>
<!-- Node38 -->
<g id="node3" class="node"><title>Node38</title>
<g id="a_node3"><a xlink:href="namespacemom__diabatic__driver.html#af76fe90c618a04d7806bc53fe0f7a2a7" target="_top" xlink:title="This subroutine imposes the diapycnal mass fluxes and the accompanying diapycnal advection of momentu...">
<polygon fill="white" stroke="black" points="703,-71 703,-101 810,-101 810,-71 703,-71"/>
<text text-anchor="start" x="711" y="-89" font-family="Helvetica,sans-Serif" font-size="10.00">mom_diabatic_driver</text>
<text text-anchor="middle" x="756.5" y="-78" font-family="Helvetica,sans-Serif" font-size="10.00">::diabatic</text>
</a>
</g>
</g>
<!-- Node37&#45;&gt;Node38 -->
<g id="edge2" class="edge"><title>Node37&#45;&gt;Node38</title>
<path fill="none" stroke="midnightblue" d="M625.537,-118.634C639.271,-115.997 653.646,-113.06 667,-110 678.638,-107.334 691.053,-104.17 702.791,-101.028"/>
<polygon fill="midnightblue" stroke="midnightblue" points="624.849,-115.202 615.673,-120.499 626.15,-122.08 624.849,-115.202"/>
</g>
<!-- Node39&#45;&gt;Node38 -->
<g id="edge4" class="edge"><title>Node39&#45;&gt;Node38</title>
<path fill="none" stroke="midnightblue" d="M629.174,-86C653.315,-86 680.047,-86 702.68,-86"/>
<polygon fill="midnightblue" stroke="midnightblue" points="629.006,-82.5001 619.006,-86 629.006,-89.5001 629.006,-82.5001"/>
</g>
<!-- Node41 -->
<g id="node6" class="node"><title>Node41</title>
<g id="a_node6"><a xlink:href="namespacemom__forcing__type.html#a8318da970059fe577d2db0bb5f91cd6b" target="_top" xlink:title="Calculates surface buoyancy flux by adding up the heat, FW and salt fluxes, for 2d arrays...">
<polygon fill="white" stroke="black" points="454.5,-32.5 454.5,-51.5 664.5,-51.5 664.5,-32.5 454.5,-32.5"/>
<text text-anchor="middle" x="559.5" y="-39.5" font-family="Helvetica,sans-Serif" font-size="10.00">mom_forcing_type::calculatebuoyancyflux2d</text>
</a>
</g>
</g>
<!-- Node40&#45;&gt;Node41 -->
<g id="edge6" class="edge"><title>Node40&#45;&gt;Node41</title>
<path fill="none" stroke="midnightblue" d="M426.28,-45.2183C435.622,-44.9909 445.033,-44.7619 454.297,-44.5364"/>
<polygon fill="midnightblue" stroke="midnightblue" points="426.093,-41.7218 416.181,-45.4642 426.263,-48.7197 426.093,-41.7218"/>
</g>
<!-- Node41&#45;&gt;Node38 -->
<g id="edge7" class="edge"><title>Node41&#45;&gt;Node38</title>
<path fill="none" stroke="midnightblue" d="M629.739,-53.3279C642.188,-55.6554 655.012,-58.2446 667,-61 679.604,-63.897 693.092,-67.4636 705.642,-70.986"/>
<polygon fill="midnightblue" stroke="midnightblue" points="630.327,-49.8773 619.86,-51.5191 629.066,-56.7629 630.327,-49.8773"/>
</g>
</g>
</svg>
