<?xml version="1.0" encoding="UTF-8" standalone="no"?>
<!DOCTYPE svg PUBLIC "-//W3C//DTD SVG 1.1//EN"
 "http://www.w3.org/Graphics/SVG/1.1/DTD/svg11.dtd">
<!-- Generated by graphviz version 2.38.0 (20140413.2041)
 -->
<!-- Title: mom_diag_mediator::post_data_2d_low Pages: 1 -->
<svg width="544pt" height="61pt"
 viewBox="0.00 0.00 544.00 61.00" xmlns="http://www.w3.org/2000/svg" xmlns:xlink="http://www.w3.org/1999/xlink">
<g id="graph0" class="graph" transform="scale(1 1) rotate(0) translate(4 57)">
<title>mom_diag_mediator::post_data_2d_low</title>
<polygon fill="white" stroke="none" points="-4,4 -4,-57 540,-57 540,4 -4,4"/>
<!-- Node247 -->
<g id="node1" class="node"><title>Node247</title>
<polygon fill="#bfbfbf" stroke="black" points="0,-0.5 0,-30.5 110,-30.5 110,-0.5 0,-0.5"/>
<text text-anchor="start" x="8" y="-18.5" font-family="Helvetica,sans-Serif" font-size="10.00">mom_diag_mediator::</text>
<text text-anchor="middle" x="55" y="-7.5" font-family="Helvetica,sans-Serif" font-size="10.00">post_data_2d_low</text>
</g>
<!-- Node248 -->
<g id="node2" class="node"><title>Node248</title>
<g id="a_node2"><a xlink:href="namespacemom__error__handler.html#a33bcd190d460095104954f2e654f9fe6" target="_top" xlink:title="Issues a FATAL error if the assertion fails, i.e. the first argument is false. ">
<polygon fill="white" stroke="black" points="146,-22.5 146,-52.5 252,-52.5 252,-22.5 146,-22.5"/>
<text text-anchor="start" x="154" y="-40.5" font-family="Helvetica,sans-Serif" font-size="10.00">mom_error_handler::</text>
<text text-anchor="middle" x="199" y="-29.5" font-family="Helvetica,sans-Serif" font-size="10.00">assert</text>
</a>
</g>
</g>
<!-- Node247&#45;&gt;Node248 -->
<g id="edge1" class="edge"><title>Node247&#45;&gt;Node248</title>
<path fill="none" stroke="midnightblue" d="M110.089,-23.88C118.539,-25.1892 127.329,-26.5509 135.94,-27.885"/>
<polygon fill="midnightblue" stroke="midnightblue" points="135.517,-31.3613 145.935,-29.4337 136.589,-24.4438 135.517,-31.3613"/>
</g>
<!-- Node249 -->
<g id="node3" class="node"><title>Node249</title>
<g id="a_node3"><a xlink:href="namespacemom__error__handler.html#a460cfb79a06c29fc249952c2a3710d67" target="_top" xlink:title="mom_error_handler::\lmom_error">
<polygon fill="white" stroke="black" points="288,-0.5 288,-30.5 394,-30.5 394,-0.5 288,-0.5"/>
<text text-anchor="start" x="296" y="-18.5" font-family="Helvetica,sans-Serif" font-size="10.00">mom_error_handler::</text>
<text text-anchor="middle" x="341" y="-7.5" font-family="Helvetica,sans-Serif" font-size="10.00">mom_error</text>
</a>
</g>
</g>
<!-- Node247&#45;&gt;Node249 -->
<g id="edge4" class="edge"><title>Node247&#45;&gt;Node249</title>
<path fill="none" stroke="midnightblue" d="M110.252,-14.0995C122.036,-13.8498 134.435,-13.6285 146,-13.5 193.108,-12.9766 204.892,-12.9648 252,-13.5 260.347,-13.5948 269.139,-13.7403 277.805,-13.9104"/>
<polygon fill="midnightblue" stroke="midnightblue" points="277.816,-17.4113 287.887,-14.1199 277.962,-10.4128 277.816,-17.4113"/>
</g>
<!-- Node248&#45;&gt;Node249 -->
<g id="edge2" class="edge"><title>Node248&#45;&gt;Node249</title>
<path fill="none" stroke="midnightblue" d="M252.131,-29.308C260.512,-27.9909 269.26,-26.6162 277.849,-25.2667"/>
<polygon fill="midnightblue" stroke="midnightblue" points="278.49,-28.7089 287.826,-23.6988 277.403,-21.7937 278.49,-28.7089"/>
</g>
<!-- Node250 -->
<g id="node4" class="node"><title>Node250</title>
<g id="a_node4"><a xlink:href="namespacemom__error__handler.html#ad5f00a53059c72fe2332d1436c80ca71" target="_top" xlink:title="mom_error_handler::\lis_root_pe">
<polygon fill="white" stroke="black" points="430,-0.5 430,-30.5 536,-30.5 536,-0.5 430,-0.5"/>
<text text-anchor="start" x="438" y="-18.5" font-family="Helvetica,sans-Serif" font-size="10.00">mom_error_handler::</text>
<text text-anchor="middle" x="483" y="-7.5" font-family="Helvetica,sans-Serif" font-size="10.00">is_root_pe</text>
</a>
</g>
</g>
<!-- Node249&#45;&gt;Node250 -->
<g id="edge3" class="edge"><title>Node249&#45;&gt;Node250</title>
<path fill="none" stroke="midnightblue" d="M394.131,-15.5C402.421,-15.5 411.07,-15.5 419.568,-15.5"/>
<polygon fill="midnightblue" stroke="midnightblue" points="419.826,-19.0001 429.826,-15.5 419.826,-12.0001 419.826,-19.0001"/>
</g>
</g>
</svg>
