<?xml version="1.0" encoding="UTF-8" standalone="no"?>
<!DOCTYPE svg PUBLIC "-//W3C//DTD SVG 1.1//EN"
 "http://www.w3.org/Graphics/SVG/1.1/DTD/svg11.dtd">
<!-- Generated by graphviz version 2.38.0 (20140413.2041)
 -->
<!-- Title: mom_continuity_ppm::ppm_limit_pos Pages: 1 -->
<svg width="572pt" height="88pt"
 viewBox="0.00 0.00 572.00 88.00" xmlns="http://www.w3.org/2000/svg" xmlns:xlink="http://www.w3.org/1999/xlink">
<g id="graph0" class="graph" transform="scale(1 1) rotate(0) translate(4 84)">
<title>mom_continuity_ppm::ppm_limit_pos</title>
<polygon fill="white" stroke="none" points="-4,4 -4,-84 568,-84 568,4 -4,4"/>
<!-- Node61 -->
<g id="node1" class="node"><title>Node61</title>
<polygon fill="#bfbfbf" stroke="black" points="0,-24.5 0,-54.5 110,-54.5 110,-24.5 0,-24.5"/>
<text text-anchor="start" x="8" y="-42.5" font-family="Helvetica,sans-Serif" font-size="10.00">mom_continuity_ppm</text>
<text text-anchor="middle" x="55" y="-31.5" font-family="Helvetica,sans-Serif" font-size="10.00">::ppm_limit_pos</text>
</g>
<!-- Node62 -->
<g id="node2" class="node"><title>Node62</title>
<g id="a_node2"><a xlink:href="namespacemom__continuity__ppm.html#ad3b20d431c759531e827f1d426786884" target="_top" xlink:title="Calculates left/right edge values for PPM reconstruction. ">
<polygon fill="white" stroke="black" points="146,-49.5 146,-79.5 265,-79.5 265,-49.5 146,-49.5"/>
<text text-anchor="start" x="154" y="-67.5" font-family="Helvetica,sans-Serif" font-size="10.00">mom_continuity_ppm</text>
<text text-anchor="middle" x="205.5" y="-56.5" font-family="Helvetica,sans-Serif" font-size="10.00">::ppm_reconstruction_x</text>
</a>
</g>
</g>
<!-- Node61&#45;&gt;Node62 -->
<g id="edge1" class="edge"><title>Node61&#45;&gt;Node62</title>
<path fill="none" stroke="midnightblue" d="M120.041,-50.2814C128.665,-51.7332 137.477,-53.2166 145.998,-54.6512"/>
<polygon fill="midnightblue" stroke="midnightblue" points="120.474,-46.8051 110.032,-48.5963 119.312,-53.7079 120.474,-46.8051"/>
</g>
<!-- Node65 -->
<g id="node5" class="node"><title>Node65</title>
<g id="a_node5"><a xlink:href="namespacemom__continuity__ppm.html#ab3bd46a3a28be2c37952c84c3568ca09" target="_top" xlink:title="Calculates left/right edge values for PPM reconstruction. ">
<polygon fill="white" stroke="black" points="146,-0.5 146,-30.5 265,-30.5 265,-0.5 146,-0.5"/>
<text text-anchor="start" x="154" y="-18.5" font-family="Helvetica,sans-Serif" font-size="10.00">mom_continuity_ppm</text>
<text text-anchor="middle" x="205.5" y="-7.5" font-family="Helvetica,sans-Serif" font-size="10.00">::ppm_reconstruction_y</text>
</a>
</g>
</g>
<!-- Node61&#45;&gt;Node65 -->
<g id="edge4" class="edge"><title>Node61&#45;&gt;Node65</title>
<path fill="none" stroke="midnightblue" d="M120.041,-29.1499C128.665,-27.7561 137.477,-26.3321 145.998,-24.9549"/>
<polygon fill="midnightblue" stroke="midnightblue" points="119.345,-25.7168 110.032,-30.7676 120.462,-32.6272 119.345,-25.7168"/>
</g>
<!-- Node63 -->
<g id="node3" class="node"><title>Node63</title>
<g id="a_node3"><a xlink:href="namespacemom__continuity__ppm.html#aaee3d916bed27d4884d9473218c20fc9" target="_top" xlink:title="Calculates the mass or volume fluxes through the zonal faces, and other related quantities. ">
<polygon fill="white" stroke="black" points="304.5,-49.5 304.5,-79.5 414.5,-79.5 414.5,-49.5 304.5,-49.5"/>
<text text-anchor="start" x="312.5" y="-67.5" font-family="Helvetica,sans-Serif" font-size="10.00">mom_continuity_ppm</text>
<text text-anchor="middle" x="359.5" y="-56.5" font-family="Helvetica,sans-Serif" font-size="10.00">::zonal_mass_flux</text>
</a>
</g>
</g>
<!-- Node62&#45;&gt;Node63 -->
<g id="edge2" class="edge"><title>Node62&#45;&gt;Node63</title>
<path fill="none" stroke="midnightblue" d="M275.329,-64.5C285.066,-64.5 294.961,-64.5 304.367,-64.5"/>
<polygon fill="midnightblue" stroke="midnightblue" points="275.267,-61.0001 265.267,-64.5 275.267,-68.0001 275.267,-61.0001"/>
</g>
<!-- Node64 -->
<g id="node4" class="node"><title>Node64</title>
<g id="a_node4"><a xlink:href="namespacemom__continuity__ppm.html#a59586aae1668f03f3a78d58f5712cc0f" target="_top" xlink:title="Time steps the layer thicknesses, using a monotonically limit, directionally split PPM scheme...">
<polygon fill="white" stroke="black" points="454,-24.5 454,-54.5 564,-54.5 564,-24.5 454,-24.5"/>
<text text-anchor="start" x="462" y="-42.5" font-family="Helvetica,sans-Serif" font-size="10.00">mom_continuity_ppm</text>
<text text-anchor="middle" x="509" y="-31.5" font-family="Helvetica,sans-Serif" font-size="10.00">::continuity_ppm</text>
</a>
</g>
</g>
<!-- Node63&#45;&gt;Node64 -->
<g id="edge3" class="edge"><title>Node63&#45;&gt;Node64</title>
<path fill="none" stroke="midnightblue" d="M424.648,-53.6275C434.41,-51.9728 444.401,-50.2794 453.921,-48.666"/>
<polygon fill="midnightblue" stroke="midnightblue" points="423.86,-50.2109 414.586,-55.3329 425.03,-57.1125 423.86,-50.2109"/>
</g>
<!-- Node66 -->
<g id="node6" class="node"><title>Node66</title>
<g id="a_node6"><a xlink:href="namespacemom__continuity__ppm.html#ae326b8319da257f423f73a32a984b641" target="_top" xlink:title="Calculates the mass or volume fluxes through the meridional faces, and other related quantities...">
<polygon fill="white" stroke="black" points="301,-0.5 301,-30.5 418,-30.5 418,-0.5 301,-0.5"/>
<text text-anchor="start" x="309" y="-18.5" font-family="Helvetica,sans-Serif" font-size="10.00">mom_continuity_ppm</text>
<text text-anchor="middle" x="359.5" y="-7.5" font-family="Helvetica,sans-Serif" font-size="10.00">::meridional_mass_flux</text>
</a>
</g>
</g>
<!-- Node65&#45;&gt;Node66 -->
<g id="edge5" class="edge"><title>Node65&#45;&gt;Node66</title>
<path fill="none" stroke="midnightblue" d="M275.525,-15.5C284.005,-15.5 292.603,-15.5 300.89,-15.5"/>
<polygon fill="midnightblue" stroke="midnightblue" points="275.267,-12.0001 265.267,-15.5 275.267,-19.0001 275.267,-12.0001"/>
</g>
<!-- Node66&#45;&gt;Node64 -->
<g id="edge6" class="edge"><title>Node66&#45;&gt;Node64</title>
<path fill="none" stroke="midnightblue" d="M428.282,-26.529C436.789,-27.9131 445.402,-29.3146 453.666,-30.6591"/>
<polygon fill="midnightblue" stroke="midnightblue" points="428.805,-23.0681 418.373,-24.9166 427.681,-29.9772 428.805,-23.0681"/>
</g>
</g>
</svg>
