<?xml version="1.0" encoding="UTF-8" standalone="no"?>
<!DOCTYPE svg PUBLIC "-//W3C//DTD SVG 1.1//EN"
 "http://www.w3.org/Graphics/SVG/1.1/DTD/svg11.dtd">
<!-- Generated by graphviz version 2.38.0 (20140413.2041)
 -->
<!-- Title: mom_file_parser::openparameterblock Pages: 1 -->
<svg width="969pt" height="132pt"
 viewBox="0.00 0.00 969.00 132.00" xmlns="http://www.w3.org/2000/svg" xmlns:xlink="http://www.w3.org/1999/xlink">
<g id="graph0" class="graph" transform="scale(1 1) rotate(0) translate(4 128)">
<title>mom_file_parser::openparameterblock</title>
<polygon fill="white" stroke="none" points="-4,4 -4,-128 965,-128 965,4 -4,4"/>
<!-- Node263 -->
<g id="node1" class="node"><title>Node263</title>
<polygon fill="#bfbfbf" stroke="black" points="0,-44.5 0,-63.5 182,-63.5 182,-44.5 0,-44.5"/>
<text text-anchor="middle" x="91" y="-51.5" font-family="Helvetica,sans-Serif" font-size="10.00">mom_file_parser::openparameterblock</text>
</g>
<!-- Node264 -->
<g id="node2" class="node"><title>Node264</title>
<g id="a_node2"><a xlink:href="namespacebaroclinic__zone__initialization.html#a8a7c5063ad937041a281c8c9dd1465ec" target="_top" xlink:title="Reads the parameters unique to this module. ">
<polygon fill="white" stroke="black" points="218,-88 218,-118 358,-118 358,-88 218,-88"/>
<text text-anchor="start" x="226" y="-106" font-family="Helvetica,sans-Serif" font-size="10.00">baroclinic_zone_initialization</text>
<text text-anchor="middle" x="288" y="-95" font-family="Helvetica,sans-Serif" font-size="10.00">::bcz_params</text>
</a>
</g>
</g>
<!-- Node263&#45;&gt;Node264 -->
<g id="edge1" class="edge"><title>Node263&#45;&gt;Node264</title>
<path fill="none" stroke="midnightblue" d="M139.812,-66.0142C166.16,-72.635 199.115,-80.9161 227.159,-87.963"/>
<polygon fill="midnightblue" stroke="midnightblue" points="140.612,-62.6067 130.061,-63.564 138.906,-69.3956 140.612,-62.6067"/>
</g>
<!-- Node269 -->
<g id="node7" class="node"><title>Node269</title>
<g id="a_node7"><a xlink:href="namespacemom__diffconvection.html#ac36d9d7fd69e4422e7de01242094ff34" target="_top" xlink:title="mom_diffconvection\l::diffconvection_init">
<polygon fill="white" stroke="black" points="236,-39 236,-69 340,-69 340,-39 236,-39"/>
<text text-anchor="start" x="244" y="-57" font-family="Helvetica,sans-Serif" font-size="10.00">mom_diffconvection</text>
<text text-anchor="middle" x="288" y="-46" font-family="Helvetica,sans-Serif" font-size="10.00">::diffconvection_init</text>
</a>
</g>
</g>
<!-- Node263&#45;&gt;Node269 -->
<g id="edge6" class="edge"><title>Node263&#45;&gt;Node269</title>
<path fill="none" stroke="midnightblue" d="M192.484,-54C207.517,-54 222.455,-54 235.867,-54"/>
<polygon fill="midnightblue" stroke="midnightblue" points="192.08,-50.5001 182.08,-54 192.08,-57.5001 192.08,-50.5001"/>
</g>
<!-- Node270 -->
<g id="node8" class="node"><title>Node270</title>
<g id="a_node8"><a xlink:href="namespacemom__kpp.html#a9c834424b6e067e280928db3700ec77e" target="_top" xlink:title="Initialize the CVmix KPP module and set up diagnostics Returns True if KPP is to be used...">
<polygon fill="white" stroke="black" points="238.5,-0.5 238.5,-19.5 337.5,-19.5 337.5,-0.5 238.5,-0.5"/>
<text text-anchor="middle" x="288" y="-7.5" font-family="Helvetica,sans-Serif" font-size="10.00">mom_kpp::kpp_init</text>
</a>
</g>
</g>
<!-- Node263&#45;&gt;Node270 -->
<g id="edge7" class="edge"><title>Node263&#45;&gt;Node270</title>
<path fill="none" stroke="midnightblue" d="M144.225,-42.2159C175.703,-35.1131 215.275,-26.184 244.77,-19.5287"/>
<polygon fill="midnightblue" stroke="midnightblue" points="143.296,-38.8373 134.312,-44.4527 144.837,-45.6657 143.296,-38.8373"/>
</g>
<!-- Node265 -->
<g id="node3" class="node"><title>Node265</title>
<g id="a_node3"><a xlink:href="namespacebaroclinic__zone__initialization.html#aa5348a29c9f838cd0f61f50ff3148568" target="_top" xlink:title="Initialization of temperature and salinity with the baroclinic zone initial conditions. ">
<polygon fill="white" stroke="black" points="394,-82.5 394,-123.5 559,-123.5 559,-82.5 394,-82.5"/>
<text text-anchor="start" x="402" y="-111.5" font-family="Helvetica,sans-Serif" font-size="10.00">baroclinic_zone_initialization</text>
<text text-anchor="start" x="402" y="-100.5" font-family="Helvetica,sans-Serif" font-size="10.00">::baroclinic_zone_init_temperature</text>
<text text-anchor="middle" x="476.5" y="-89.5" font-family="Helvetica,sans-Serif" font-size="10.00">_salinity</text>
</a>
</g>
</g>
<!-- Node264&#45;&gt;Node265 -->
<g id="edge2" class="edge"><title>Node264&#45;&gt;Node265</title>
<path fill="none" stroke="midnightblue" d="M368.364,-103C376.791,-103 385.373,-103 393.826,-103"/>
<polygon fill="midnightblue" stroke="midnightblue" points="368.181,-99.5001 358.181,-103 368.181,-106.5 368.181,-99.5001"/>
</g>
<!-- Node266 -->
<g id="node4" class="node"><title>Node266</title>
<g id="a_node4"><a xlink:href="namespacemom__state__initialization.html#af4e854627c6572332ba3fd895f169321" target="_top" xlink:title="mom_state_initialization\l::mom_initialize_state">
<polygon fill="white" stroke="black" points="595,-88 595,-118 717,-118 717,-88 595,-88"/>
<text text-anchor="start" x="603" y="-106" font-family="Helvetica,sans-Serif" font-size="10.00">mom_state_initialization</text>
<text text-anchor="middle" x="656" y="-95" font-family="Helvetica,sans-Serif" font-size="10.00">::mom_initialize_state</text>
</a>
</g>
</g>
<!-- Node265&#45;&gt;Node266 -->
<g id="edge3" class="edge"><title>Node265&#45;&gt;Node266</title>
<path fill="none" stroke="midnightblue" d="M569.391,-103C578.043,-103 586.654,-103 594.897,-103"/>
<polygon fill="midnightblue" stroke="midnightblue" points="569.236,-99.5001 559.236,-103 569.236,-106.5 569.236,-99.5001"/>
</g>
<!-- Node267 -->
<g id="node5" class="node"><title>Node267</title>
<g id="a_node5"><a xlink:href="namespacemom.html#a0be2869fef30e1e0604facfe1b41555d" target="_top" xlink:title="This subroutine initializes MOM. ">
<polygon fill="white" stroke="black" points="753,-93.5 753,-112.5 860,-112.5 860,-93.5 753,-93.5"/>
<text text-anchor="middle" x="806.5" y="-100.5" font-family="Helvetica,sans-Serif" font-size="10.00">mom::initialize_mom</text>
</a>
</g>
</g>
<!-- Node266&#45;&gt;Node267 -->
<g id="edge4" class="edge"><title>Node266&#45;&gt;Node267</title>
<path fill="none" stroke="midnightblue" d="M727.657,-103C736.116,-103 744.636,-103 752.779,-103"/>
<polygon fill="midnightblue" stroke="midnightblue" points="727.401,-99.5001 717.401,-103 727.401,-106.5 727.401,-99.5001"/>
</g>
<!-- Node268 -->
<g id="node6" class="node"><title>Node268</title>
<g id="a_node6"><a xlink:href="MOM__driver_8F90.html#a08fffeb2d8e8acbf9ed4609be6d258c6" target="_top" xlink:title="mom_main">
<polygon fill="white" stroke="black" points="896,-93.5 896,-112.5 961,-112.5 961,-93.5 896,-93.5"/>
<text text-anchor="middle" x="928.5" y="-100.5" font-family="Helvetica,sans-Serif" font-size="10.00">mom_main</text>
</a>
</g>
</g>
<!-- Node267&#45;&gt;Node268 -->
<g id="edge5" class="edge"><title>Node267&#45;&gt;Node268</title>
<path fill="none" stroke="midnightblue" d="M870.206,-103C879.134,-103 887.983,-103 895.958,-103"/>
<polygon fill="midnightblue" stroke="midnightblue" points="870.134,-99.5001 860.134,-103 870.134,-106.5 870.134,-99.5001"/>
</g>
</g>
</svg>
