<?xml version="1.0" encoding="UTF-8" standalone="no"?>
<!DOCTYPE svg PUBLIC "-//W3C//DTD SVG 1.1//EN"
 "http://www.w3.org/Graphics/SVG/1.1/DTD/svg11.dtd">
<!-- Generated by graphviz version 2.38.0 (20140413.2041)
 -->
<!-- Title: mom_file_parser::read_param_int Pages: 1 -->
<svg width="671pt" height="192pt"
 viewBox="0.00 0.00 671.00 191.50" xmlns="http://www.w3.org/2000/svg" xmlns:xlink="http://www.w3.org/1999/xlink">
<g id="graph0" class="graph" transform="scale(1 1) rotate(0) translate(4 187.5)">
<title>mom_file_parser::read_param_int</title>
<polygon fill="white" stroke="none" points="-4,4 -4,-187.5 667,-187.5 667,4 -4,4"/>
<!-- Node380 -->
<g id="node1" class="node"><title>Node380</title>
<polygon fill="#bfbfbf" stroke="black" points="0,-71 0,-101 113,-101 113,-71 0,-71"/>
<text text-anchor="start" x="8" y="-89" font-family="Helvetica,sans-Serif" font-size="10.00">mom_file_parser::read</text>
<text text-anchor="middle" x="56.5" y="-78" font-family="Helvetica,sans-Serif" font-size="10.00">_param_int</text>
</g>
<!-- Node381 -->
<g id="node2" class="node"><title>Node381</title>
<g id="a_node2"><a xlink:href="namespacemom__file__parser.html#af883df6020543889b25986d6ee9701f7" target="_top" xlink:title="mom_file_parser::get\l_variable_line">
<polygon fill="white" stroke="black" points="149,-71 149,-101 257,-101 257,-71 149,-71"/>
<text text-anchor="start" x="157" y="-89" font-family="Helvetica,sans-Serif" font-size="10.00">mom_file_parser::get</text>
<text text-anchor="middle" x="203" y="-78" font-family="Helvetica,sans-Serif" font-size="10.00">_variable_line</text>
</a>
</g>
</g>
<!-- Node380&#45;&gt;Node381 -->
<g id="edge1" class="edge"><title>Node380&#45;&gt;Node381</title>
<path fill="none" stroke="midnightblue" d="M113.367,-86C121.611,-86 130.155,-86 138.538,-86"/>
<polygon fill="midnightblue" stroke="midnightblue" points="138.654,-89.5001 148.654,-86 138.654,-82.5001 138.654,-89.5001"/>
</g>
<!-- Node382 -->
<g id="node3" class="node"><title>Node382</title>
<g id="a_node3"><a xlink:href="namespacemom__file__parser.html#a7803aabff129cc7f56d4516bc24613f0" target="_top" xlink:title="mom_file_parser::flag\l_line_as_read">
<polygon fill="white" stroke="black" points="352,-153 352,-183 462,-183 462,-153 352,-153"/>
<text text-anchor="start" x="360" y="-171" font-family="Helvetica,sans-Serif" font-size="10.00">mom_file_parser::flag</text>
<text text-anchor="middle" x="407" y="-160" font-family="Helvetica,sans-Serif" font-size="10.00">_line_as_read</text>
</a>
</g>
</g>
<!-- Node381&#45;&gt;Node382 -->
<g id="edge2" class="edge"><title>Node381&#45;&gt;Node382</title>
<path fill="none" stroke="midnightblue" d="M226.174,-101.231C243.671,-112.677 269.041,-128.036 293,-138 308.443,-144.423 325.651,-149.819 341.889,-154.184"/>
<polygon fill="midnightblue" stroke="midnightblue" points="341.29,-157.644 351.849,-156.768 343.049,-150.869 341.29,-157.644"/>
</g>
<!-- Node383 -->
<g id="node4" class="node"><title>Node383</title>
<g id="a_node4"><a xlink:href="namespacemom__error__handler.html#ad5f00a53059c72fe2332d1436c80ca71" target="_top" xlink:title="mom_error_handler::\lis_root_pe">
<polygon fill="white" stroke="black" points="557,-71 557,-101 663,-101 663,-71 557,-71"/>
<text text-anchor="start" x="565" y="-89" font-family="Helvetica,sans-Serif" font-size="10.00">mom_error_handler::</text>
<text text-anchor="middle" x="610" y="-78" font-family="Helvetica,sans-Serif" font-size="10.00">is_root_pe</text>
</a>
</g>
</g>
<!-- Node381&#45;&gt;Node383 -->
<g id="edge3" class="edge"><title>Node381&#45;&gt;Node383</title>
<path fill="none" stroke="midnightblue" d="M257.359,-99.2942C269.031,-101.667 281.373,-103.773 293,-105 393.774,-115.637 420.239,-115.754 521,-105 529.378,-104.106 538.129,-102.746 546.726,-101.156"/>
<polygon fill="midnightblue" stroke="midnightblue" points="547.574,-104.556 556.714,-99.1976 546.228,-97.6869 547.574,-104.556"/>
</g>
<!-- Node384 -->
<g id="node5" class="node"><title>Node384</title>
<g id="a_node5"><a xlink:href="namespacemom__file__parser.html#a0c9bb1e76b09bc09bae5402e63bd0f99" target="_top" xlink:title="mom_file_parser::overridewarninghasbeenissued">
<polygon fill="white" stroke="black" points="293,-76.5 293,-95.5 521,-95.5 521,-76.5 293,-76.5"/>
<text text-anchor="middle" x="407" y="-83.5" font-family="Helvetica,sans-Serif" font-size="10.00">mom_file_parser::overridewarninghasbeenissued</text>
</a>
</g>
</g>
<!-- Node381&#45;&gt;Node384 -->
<g id="edge4" class="edge"><title>Node381&#45;&gt;Node384</title>
<path fill="none" stroke="midnightblue" d="M257.073,-86C265.141,-86 273.741,-86 282.582,-86"/>
<polygon fill="midnightblue" stroke="midnightblue" points="282.651,-89.5001 292.651,-86 282.651,-82.5001 282.651,-89.5001"/>
</g>
<!-- Node385 -->
<g id="node6" class="node"><title>Node385</title>
<g id="a_node6"><a xlink:href="namespacemom__file__parser.html#a73b11b969d303b1fc0ba5235c812fd05" target="_top" xlink:title="mom_file_parser::popblocklevel">
<polygon fill="white" stroke="black" points="330,-38.5 330,-57.5 484,-57.5 484,-38.5 330,-38.5"/>
<text text-anchor="middle" x="407" y="-45.5" font-family="Helvetica,sans-Serif" font-size="10.00">mom_file_parser::popblocklevel</text>
</a>
</g>
</g>
<!-- Node381&#45;&gt;Node385 -->
<g id="edge5" class="edge"><title>Node381&#45;&gt;Node385</title>
<path fill="none" stroke="midnightblue" d="M257.103,-74.266C268.902,-71.7699 281.36,-69.2199 293,-67 306.916,-64.3459 321.835,-61.6982 336.121,-59.2586"/>
<polygon fill="midnightblue" stroke="midnightblue" points="337.112,-62.6407 346.388,-57.5219 335.944,-55.7388 337.112,-62.6407"/>
</g>
<!-- Node386 -->
<g id="node7" class="node"><title>Node386</title>
<g id="a_node7"><a xlink:href="namespacemom__file__parser.html#a58777b0faf747d59a793b4e238919dc6" target="_top" xlink:title="mom_file_parser::pushblocklevel">
<polygon fill="white" stroke="black" points="327.5,-0.5 327.5,-19.5 486.5,-19.5 486.5,-0.5 327.5,-0.5"/>
<text text-anchor="middle" x="407" y="-7.5" font-family="Helvetica,sans-Serif" font-size="10.00">mom_file_parser::pushblocklevel</text>
</a>
</g>
</g>
<!-- Node381&#45;&gt;Node386 -->
<g id="edge7" class="edge"><title>Node381&#45;&gt;Node386</title>
<path fill="none" stroke="midnightblue" d="M222.572,-70.9069C239.784,-57.7299 266.636,-39.1683 293,-29 300.804,-25.99 309.093,-23.4562 317.497,-21.3234"/>
<polygon fill="midnightblue" stroke="midnightblue" points="318.458,-24.693 327.393,-18.9993 316.858,-17.8784 318.458,-24.693"/>
</g>
<!-- Node385&#45;&gt;Node383 -->
<g id="edge6" class="edge"><title>Node385&#45;&gt;Node383</title>
<path fill="none" stroke="midnightblue" d="M467.91,-57.5451C485.082,-60.4242 503.808,-63.7004 521,-67 529.476,-68.6267 538.39,-70.4356 547.158,-72.2725"/>
<polygon fill="midnightblue" stroke="midnightblue" points="546.456,-75.7015 556.965,-74.35 547.907,-68.8535 546.456,-75.7015"/>
</g>
</g>
</svg>
