<?xml version="1.0" encoding="UTF-8" standalone="no"?>
<!DOCTYPE svg PUBLIC "-//W3C//DTD SVG 1.1//EN"
 "http://www.w3.org/Graphics/SVG/1.1/DTD/svg11.dtd">
<!-- Generated by graphviz version 2.38.0 (20140413.2041)
 -->
<!-- Title: mom_eos::calculate_specific_vol_derivs Pages: 1 -->
<svg width="671pt" height="78pt"
 viewBox="0.00 0.00 671.00 77.50" xmlns="http://www.w3.org/2000/svg" xmlns:xlink="http://www.w3.org/1999/xlink">
<g id="graph0" class="graph" transform="scale(1 1) rotate(0) translate(4 73.5)">
<title>mom_eos::calculate_specific_vol_derivs</title>
<polygon fill="white" stroke="none" points="-4,4 -4,-73.5 667,-73.5 667,4 -4,4"/>
<!-- Node69 -->
<g id="node1" class="node"><title>Node69</title>
<polygon fill="#bfbfbf" stroke="black" points="0,-22.5 0,-52.5 105,-52.5 105,-22.5 0,-22.5"/>
<text text-anchor="start" x="8" y="-40.5" font-family="Helvetica,sans-Serif" font-size="10.00">mom_eos::calculate</text>
<text text-anchor="middle" x="52.5" y="-29.5" font-family="Helvetica,sans-Serif" font-size="10.00">_specific_vol_derivs</text>
</g>
<!-- Node70 -->
<g id="node2" class="node"><title>Node70</title>
<g id="a_node2"><a xlink:href="namespacemom__diabatic__aux.html#aed2e2c3c0c73c160399e7de6f84c2c7f" target="_top" xlink:title="Update the thickness, temperature, and salinity due to thermodynamic boundary forcing (contained in f...">
<polygon fill="white" stroke="black" points="305,-50 305,-69 520,-69 520,-50 305,-50"/>
<text text-anchor="middle" x="412.5" y="-57" font-family="Helvetica,sans-Serif" font-size="10.00">mom_diabatic_aux::applyboundaryfluxesinout</text>
</a>
</g>
</g>
<!-- Node69&#45;&gt;Node70 -->
<g id="edge1" class="edge"><title>Node69&#45;&gt;Node70</title>
<path fill="none" stroke="midnightblue" d="M115.259,-41.2953C167.316,-44.4943 242.991,-49.1447 304.824,-52.9445"/>
<polygon fill="midnightblue" stroke="midnightblue" points="115.37,-37.7955 105.174,-40.6755 114.94,-44.7824 115.37,-37.7955"/>
</g>
<!-- Node72 -->
<g id="node4" class="node"><title>Node72</title>
<g id="a_node4"><a xlink:href="namespacemom__diapyc__energy__req.html#ae781d0079acfadcd996aaff8d63957da" target="_top" xlink:title="This subroutine uses a substantially refactored tridiagonal equation for diapycnal mixing of temperat...">
<polygon fill="white" stroke="black" points="141,-0.5 141,-30.5 269,-30.5 269,-0.5 141,-0.5"/>
<text text-anchor="start" x="149" y="-18.5" font-family="Helvetica,sans-Serif" font-size="10.00">mom_diapyc_energy_req</text>
<text text-anchor="middle" x="205" y="-7.5" font-family="Helvetica,sans-Serif" font-size="10.00">::diapyc_energy_req_calc</text>
</a>
</g>
</g>
<!-- Node69&#45;&gt;Node72 -->
<g id="edge3" class="edge"><title>Node69&#45;&gt;Node72</title>
<path fill="none" stroke="midnightblue" d="M115.421,-28.4484C123.842,-27.2175 132.492,-25.953 140.932,-24.7192"/>
<polygon fill="midnightblue" stroke="midnightblue" points="114.682,-25.0191 105.294,-29.9288 115.695,-31.9455 114.682,-25.0191"/>
</g>
<!-- Node71 -->
<g id="node3" class="node"><title>Node71</title>
<g id="a_node3"><a xlink:href="namespacemom__diabatic__driver.html#af76fe90c618a04d7806bc53fe0f7a2a7" target="_top" xlink:title="This subroutine imposes the diapycnal mass fluxes and the accompanying diapycnal advection of momentu...">
<polygon fill="white" stroke="black" points="556,-22.5 556,-52.5 663,-52.5 663,-22.5 556,-22.5"/>
<text text-anchor="start" x="564" y="-40.5" font-family="Helvetica,sans-Serif" font-size="10.00">mom_diabatic_driver</text>
<text text-anchor="middle" x="609.5" y="-29.5" font-family="Helvetica,sans-Serif" font-size="10.00">::diabatic</text>
</a>
</g>
</g>
<!-- Node70&#45;&gt;Node71 -->
<g id="edge2" class="edge"><title>Node70&#45;&gt;Node71</title>
<path fill="none" stroke="midnightblue" d="M508.08,-48.8294C524.487,-46.9784 541.004,-45.1149 555.771,-43.4489"/>
<polygon fill="midnightblue" stroke="midnightblue" points="507.44,-45.3793 497.896,-49.9784 508.225,-52.3352 507.44,-45.3793"/>
</g>
<!-- Node73 -->
<g id="node5" class="node"><title>Node73</title>
<g id="a_node5"><a xlink:href="namespacemom__diapyc__energy__req.html#afe7d4fc70231c1812ffd38faef76558e" target="_top" xlink:title="mom_diapyc_energy_req\l::diapyc_energy_req_test">
<polygon fill="white" stroke="black" points="349.5,-0.5 349.5,-30.5 475.5,-30.5 475.5,-0.5 349.5,-0.5"/>
<text text-anchor="start" x="357.5" y="-18.5" font-family="Helvetica,sans-Serif" font-size="10.00">mom_diapyc_energy_req</text>
<text text-anchor="middle" x="412.5" y="-7.5" font-family="Helvetica,sans-Serif" font-size="10.00">::diapyc_energy_req_test</text>
</a>
</g>
</g>
<!-- Node72&#45;&gt;Node73 -->
<g id="edge4" class="edge"><title>Node72&#45;&gt;Node73</title>
<path fill="none" stroke="midnightblue" d="M279.084,-15.5C302.035,-15.5 327.146,-15.5 349.272,-15.5"/>
<polygon fill="midnightblue" stroke="midnightblue" points="279.053,-12.0001 269.053,-15.5 279.053,-19.0001 279.053,-12.0001"/>
</g>
<!-- Node73&#45;&gt;Node71 -->
<g id="edge5" class="edge"><title>Node73&#45;&gt;Node71</title>
<path fill="none" stroke="midnightblue" d="M485.863,-23.664C509.018,-26.2763 534.202,-29.1177 555.691,-31.5421"/>
<polygon fill="midnightblue" stroke="midnightblue" points="486.065,-20.1647 475.735,-22.5214 485.28,-27.1205 486.065,-20.1647"/>
</g>
</g>
</svg>
