<?xml version="1.0" encoding="UTF-8" standalone="no"?>
<!DOCTYPE svg PUBLIC "-//W3C//DTD SVG 1.1//EN"
 "http://www.w3.org/Graphics/SVG/1.1/DTD/svg11.dtd">
<!-- Generated by graphviz version 2.38.0 (20140413.2041)
 -->
<!-- Title: mom_checksums::chksum_error Pages: 1 -->
<svg width="509pt" height="319pt"
 viewBox="0.00 0.00 509.00 318.50" xmlns="http://www.w3.org/2000/svg" xmlns:xlink="http://www.w3.org/1999/xlink">
<g id="graph0" class="graph" transform="scale(1 1) rotate(0) translate(4 314.5)">
<title>mom_checksums::chksum_error</title>
<polygon fill="white" stroke="none" points="-4,4 -4,-314.5 505,-314.5 505,4 -4,4"/>
<!-- Node59 -->
<g id="node1" class="node"><title>Node59</title>
<polygon fill="#bfbfbf" stroke="black" points="0,-128 0,-158 134,-158 134,-128 0,-128"/>
<text text-anchor="start" x="8" y="-146" font-family="Helvetica,sans-Serif" font-size="10.00">mom_checksums::chksum</text>
<text text-anchor="middle" x="67" y="-135" font-family="Helvetica,sans-Serif" font-size="10.00">_error</text>
</g>
<!-- Node60 -->
<g id="node2" class="node"><title>Node60</title>
<g id="a_node2"><a xlink:href="namespacemom__checksums.html#aa256eac55b0236adf37d29e69fac3e01" target="_top" xlink:title="chksum_B_2d performs checksums on a 2d array staggered at corner points. ">
<polygon fill="white" stroke="black" points="170,-280.5 170,-299.5 331,-299.5 331,-280.5 170,-280.5"/>
<text text-anchor="middle" x="250.5" y="-287.5" font-family="Helvetica,sans-Serif" font-size="10.00">mom_checksums::chksum_b_2d</text>
</a>
</g>
</g>
<!-- Node59&#45;&gt;Node60 -->
<g id="edge1" class="edge"><title>Node59&#45;&gt;Node60</title>
<path fill="none" stroke="midnightblue" d="M82.7294,-166.706C100.417,-193.366 132.444,-236.284 170,-262 181.832,-270.102 196.256,-276.104 209.553,-280.427"/>
<polygon fill="midnightblue" stroke="midnightblue" points="85.4652,-164.493 77.0854,-158.009 79.5933,-168.303 85.4652,-164.493"/>
</g>
<!-- Node62 -->
<g id="node4" class="node"><title>Node62</title>
<g id="a_node4"><a xlink:href="namespacemom__checksums.html#aab4aaf5ade6f759a68f7f75d5d0f0671" target="_top" xlink:title="chksum_B_3d performs checksums on a 3d array staggered at corner points. ">
<polygon fill="white" stroke="black" points="170,-233.5 170,-252.5 331,-252.5 331,-233.5 170,-233.5"/>
<text text-anchor="middle" x="250.5" y="-240.5" font-family="Helvetica,sans-Serif" font-size="10.00">mom_checksums::chksum_b_3d</text>
</a>
</g>
</g>
<!-- Node59&#45;&gt;Node62 -->
<g id="edge3" class="edge"><title>Node59&#45;&gt;Node62</title>
<path fill="none" stroke="midnightblue" d="M92.0508,-164.733C111.77,-181.57 141.054,-204.414 170,-219 181.845,-224.969 195.444,-229.747 208.006,-233.42"/>
<polygon fill="midnightblue" stroke="midnightblue" points="94.3169,-162.065 84.4709,-158.153 89.7281,-167.351 94.3169,-162.065"/>
</g>
<!-- Node64 -->
<g id="node6" class="node"><title>Node64</title>
<g id="a_node6"><a xlink:href="namespacemom__checksums.html#a71c7ef9c5bf9454473221ba51cd9c8ea" target="_top" xlink:title="chksum_h_2d performs checksums on a 2d array staggered at tracer points. ">
<polygon fill="white" stroke="black" points="170,-190.5 170,-209.5 331,-209.5 331,-190.5 170,-190.5"/>
<text text-anchor="middle" x="250.5" y="-197.5" font-family="Helvetica,sans-Serif" font-size="10.00">mom_checksums::chksum_h_2d</text>
</a>
</g>
</g>
<!-- Node59&#45;&gt;Node64 -->
<g id="edge5" class="edge"><title>Node59&#45;&gt;Node64</title>
<path fill="none" stroke="midnightblue" d="M115.169,-161.941C132.282,-168.448 151.866,-175.478 170,-181 181.403,-184.473 193.883,-187.712 205.504,-190.497"/>
<polygon fill="midnightblue" stroke="midnightblue" points="115.998,-158.51 105.408,-158.186 113.484,-165.043 115.998,-158.51"/>
</g>
<!-- Node66 -->
<g id="node8" class="node"><title>Node66</title>
<g id="a_node8"><a xlink:href="namespacemom__checksums.html#ae02bd1af88b60e0461600287f702644d" target="_top" xlink:title="chksum_h_3d performs checksums on a 3d array staggered at tracer points. ">
<polygon fill="white" stroke="black" points="170,-152.5 170,-171.5 331,-171.5 331,-152.5 170,-152.5"/>
<text text-anchor="middle" x="250.5" y="-159.5" font-family="Helvetica,sans-Serif" font-size="10.00">mom_checksums::chksum_h_3d</text>
</a>
</g>
</g>
<!-- Node59&#45;&gt;Node66 -->
<g id="edge7" class="edge"><title>Node59&#45;&gt;Node66</title>
<path fill="none" stroke="midnightblue" d="M143.995,-150.955C152.562,-151.852 161.31,-152.768 169.921,-153.669"/>
<polygon fill="midnightblue" stroke="midnightblue" points="144.349,-147.473 134.039,-149.913 143.62,-154.435 144.349,-147.473"/>
</g>
<!-- Node68 -->
<g id="node10" class="node"><title>Node68</title>
<g id="a_node10"><a xlink:href="namespacemom__checksums.html#abb256b94ff03434f46796e2350a3e3b0" target="_top" xlink:title="chksum_u_2d performs checksums on a 2d array staggered at C&#45;grid u points. ">
<polygon fill="white" stroke="black" points="170,-114.5 170,-133.5 331,-133.5 331,-114.5 170,-114.5"/>
<text text-anchor="middle" x="250.5" y="-121.5" font-family="Helvetica,sans-Serif" font-size="10.00">mom_checksums::chksum_u_2d</text>
</a>
</g>
</g>
<!-- Node59&#45;&gt;Node68 -->
<g id="edge9" class="edge"><title>Node59&#45;&gt;Node68</title>
<path fill="none" stroke="midnightblue" d="M143.995,-135.045C152.562,-134.148 161.31,-133.232 169.921,-132.331"/>
<polygon fill="midnightblue" stroke="midnightblue" points="143.62,-131.565 134.039,-136.087 144.349,-138.527 143.62,-131.565"/>
</g>
<!-- Node70 -->
<g id="node12" class="node"><title>Node70</title>
<g id="a_node12"><a xlink:href="namespacemom__checksums.html#aa3d21cbcd2f604e5762b56a3d9197053" target="_top" xlink:title="chksum_u_3d performs checksums on a 3d array staggered at C&#45;grid u points. ">
<polygon fill="white" stroke="black" points="170,-38.5 170,-57.5 331,-57.5 331,-38.5 170,-38.5"/>
<text text-anchor="middle" x="250.5" y="-45.5" font-family="Helvetica,sans-Serif" font-size="10.00">mom_checksums::chksum_u_3d</text>
</a>
</g>
</g>
<!-- Node59&#45;&gt;Node70 -->
<g id="edge11" class="edge"><title>Node59&#45;&gt;Node70</title>
<path fill="none" stroke="midnightblue" d="M91.4734,-121.107C111.066,-103.976 140.463,-80.8143 170,-67 178.227,-63.1523 187.309,-60.041 196.305,-57.5383"/>
<polygon fill="midnightblue" stroke="midnightblue" points="89.0956,-118.538 83.9588,-127.804 93.753,-123.764 89.0956,-118.538"/>
</g>
<!-- Node72 -->
<g id="node14" class="node"><title>Node72</title>
<g id="a_node14"><a xlink:href="namespacemom__checksums.html#ab91c2c2d2ba5ce3d11f1fd9d51b87f3e" target="_top" xlink:title="chksum_v_2d performs checksums on a 2d array staggered at C&#45;grid v points. ">
<polygon fill="white" stroke="black" points="170,-76.5 170,-95.5 331,-95.5 331,-76.5 170,-76.5"/>
<text text-anchor="middle" x="250.5" y="-83.5" font-family="Helvetica,sans-Serif" font-size="10.00">mom_checksums::chksum_v_2d</text>
</a>
</g>
</g>
<!-- Node59&#45;&gt;Node72 -->
<g id="edge13" class="edge"><title>Node59&#45;&gt;Node72</title>
<path fill="none" stroke="midnightblue" d="M115.169,-124.059C132.282,-117.552 151.866,-110.522 170,-105 181.403,-101.527 193.883,-98.288 205.504,-95.5027"/>
<polygon fill="midnightblue" stroke="midnightblue" points="113.484,-120.957 105.408,-127.814 115.998,-127.49 113.484,-120.957"/>
</g>
<!-- Node73 -->
<g id="node15" class="node"><title>Node73</title>
<g id="a_node15"><a xlink:href="namespacemom__checksums.html#aa52c1e3c92ac97ab747b75644e7b4fe1" target="_top" xlink:title="chksum_v_3d performs checksums on a 3d array staggered at C&#45;grid v points. ">
<polygon fill="white" stroke="black" points="170,-0.5 170,-19.5 331,-19.5 331,-0.5 170,-0.5"/>
<text text-anchor="middle" x="250.5" y="-7.5" font-family="Helvetica,sans-Serif" font-size="10.00">mom_checksums::chksum_v_3d</text>
</a>
</g>
</g>
<!-- Node59&#45;&gt;Node73 -->
<g id="edge15" class="edge"><title>Node59&#45;&gt;Node73</title>
<path fill="none" stroke="midnightblue" d="M82.7956,-119.191C100.343,-93.0009 132.049,-51.6326 170,-29 176.46,-25.1477 183.652,-22.0761 190.997,-19.6271"/>
<polygon fill="midnightblue" stroke="midnightblue" points="79.7325,-117.48 77.1922,-127.766 85.5924,-121.309 79.7325,-117.48"/>
</g>
<!-- Node61 -->
<g id="node3" class="node"><title>Node61</title>
<g id="a_node3"><a xlink:href="namespacemom__checksums.html#a33a96580d54906fd7bbe9a699e7844da" target="_top" xlink:title="mom_checksums::chksum\l_pair_b_2d">
<polygon fill="white" stroke="black" points="367,-280 367,-310 501,-310 501,-280 367,-280"/>
<text text-anchor="start" x="375" y="-298" font-family="Helvetica,sans-Serif" font-size="10.00">mom_checksums::chksum</text>
<text text-anchor="middle" x="434" y="-287" font-family="Helvetica,sans-Serif" font-size="10.00">_pair_b_2d</text>
</a>
</g>
</g>
<!-- Node60&#45;&gt;Node61 -->
<g id="edge2" class="edge"><title>Node60&#45;&gt;Node61</title>
<path fill="none" stroke="midnightblue" d="M341.197,-292.471C349.812,-292.708 358.44,-292.946 366.769,-293.175"/>
<polygon fill="midnightblue" stroke="midnightblue" points="341.201,-288.97 331.109,-292.193 341.008,-295.967 341.201,-288.97"/>
</g>
<!-- Node63 -->
<g id="node5" class="node"><title>Node63</title>
<g id="a_node5"><a xlink:href="namespacemom__checksums.html#a75c6667ccb73ed731d2c44df7d572880" target="_top" xlink:title="mom_checksums::chksum\l_pair_b_3d">
<polygon fill="white" stroke="black" points="367,-231 367,-261 501,-261 501,-231 367,-231"/>
<text text-anchor="start" x="375" y="-249" font-family="Helvetica,sans-Serif" font-size="10.00">mom_checksums::chksum</text>
<text text-anchor="middle" x="434" y="-238" font-family="Helvetica,sans-Serif" font-size="10.00">_pair_b_3d</text>
</a>
</g>
</g>
<!-- Node62&#45;&gt;Node63 -->
<g id="edge4" class="edge"><title>Node62&#45;&gt;Node63</title>
<path fill="none" stroke="midnightblue" d="M341.197,-244.483C349.812,-244.625 358.44,-244.768 366.769,-244.905"/>
<polygon fill="midnightblue" stroke="midnightblue" points="341.165,-240.982 331.109,-244.316 341.049,-247.981 341.165,-240.982"/>
</g>
<!-- Node65 -->
<g id="node7" class="node"><title>Node65</title>
<g id="a_node7"><a xlink:href="namespacemom__checksums.html#a61d9c890e0d5f96f82775b52df020052" target="_top" xlink:title="mom_checksums::chksum\l_pair_h_2d">
<polygon fill="white" stroke="black" points="367,-182 367,-212 501,-212 501,-182 367,-182"/>
<text text-anchor="start" x="375" y="-200" font-family="Helvetica,sans-Serif" font-size="10.00">mom_checksums::chksum</text>
<text text-anchor="middle" x="434" y="-189" font-family="Helvetica,sans-Serif" font-size="10.00">_pair_h_2d</text>
</a>
</g>
</g>
<!-- Node64&#45;&gt;Node65 -->
<g id="edge6" class="edge"><title>Node64&#45;&gt;Node65</title>
<path fill="none" stroke="midnightblue" d="M341.197,-198.517C349.812,-198.375 358.44,-198.232 366.769,-198.095"/>
<polygon fill="midnightblue" stroke="midnightblue" points="341.049,-195.019 331.109,-198.684 341.165,-202.018 341.049,-195.019"/>
</g>
<!-- Node67 -->
<g id="node9" class="node"><title>Node67</title>
<g id="a_node9"><a xlink:href="namespacemom__checksums.html#a761c78d8efba4bf7dc6f1060c96e083c" target="_top" xlink:title="mom_checksums::chksum\l_pair_h_3d">
<polygon fill="white" stroke="black" points="367,-133 367,-163 501,-163 501,-133 367,-133"/>
<text text-anchor="start" x="375" y="-151" font-family="Helvetica,sans-Serif" font-size="10.00">mom_checksums::chksum</text>
<text text-anchor="middle" x="434" y="-140" font-family="Helvetica,sans-Serif" font-size="10.00">_pair_h_3d</text>
</a>
</g>
</g>
<!-- Node66&#45;&gt;Node67 -->
<g id="edge8" class="edge"><title>Node66&#45;&gt;Node67</title>
<path fill="none" stroke="midnightblue" d="M341.197,-155.081C349.812,-154.417 358.44,-153.751 366.769,-153.109"/>
<polygon fill="midnightblue" stroke="midnightblue" points="340.81,-151.601 331.109,-155.859 341.348,-158.58 340.81,-151.601"/>
</g>
<!-- Node69 -->
<g id="node11" class="node"><title>Node69</title>
<g id="a_node11"><a xlink:href="namespacemom__checksums.html#a6621f0877c0c44b62c2e7afe29362116" target="_top" xlink:title="mom_checksums::chksum\l_uv_2d">
<polygon fill="white" stroke="black" points="367,-77 367,-107 501,-107 501,-77 367,-77"/>
<text text-anchor="start" x="375" y="-95" font-family="Helvetica,sans-Serif" font-size="10.00">mom_checksums::chksum</text>
<text text-anchor="middle" x="434" y="-84" font-family="Helvetica,sans-Serif" font-size="10.00">_uv_2d</text>
</a>
</g>
</g>
<!-- Node68&#45;&gt;Node69 -->
<g id="edge10" class="edge"><title>Node68&#45;&gt;Node69</title>
<path fill="none" stroke="midnightblue" d="M315.591,-112.7C332.161,-109.779 350.032,-106.628 366.712,-103.687"/>
<polygon fill="midnightblue" stroke="midnightblue" points="314.705,-109.302 305.465,-114.486 315.92,-116.196 314.705,-109.302"/>
</g>
<!-- Node71 -->
<g id="node13" class="node"><title>Node71</title>
<g id="a_node13"><a xlink:href="namespacemom__checksums.html#a797e807964197574c99d09f1d8e2456e" target="_top" xlink:title="mom_checksums::chksum\l_uv_3d">
<polygon fill="white" stroke="black" points="367,-15 367,-45 501,-45 501,-15 367,-15"/>
<text text-anchor="start" x="375" y="-33" font-family="Helvetica,sans-Serif" font-size="10.00">mom_checksums::chksum</text>
<text text-anchor="middle" x="434" y="-22" font-family="Helvetica,sans-Serif" font-size="10.00">_uv_3d</text>
</a>
</g>
</g>
<!-- Node70&#45;&gt;Node71 -->
<g id="edge12" class="edge"><title>Node70&#45;&gt;Node71</title>
<path fill="none" stroke="midnightblue" d="M341.197,-39.1044C349.812,-38.25 358.44,-37.3944 366.769,-36.5683"/>
<polygon fill="midnightblue" stroke="midnightblue" points="340.714,-35.635 331.109,-40.1049 341.405,-42.6009 340.714,-35.635"/>
</g>
<!-- Node72&#45;&gt;Node69 -->
<g id="edge14" class="edge"><title>Node72&#45;&gt;Node69</title>
<path fill="none" stroke="midnightblue" d="M341.197,-88.9652C349.812,-89.25 358.44,-89.5352 366.769,-89.8106"/>
<polygon fill="midnightblue" stroke="midnightblue" points="341.219,-85.4641 331.109,-88.6317 340.987,-92.4603 341.219,-85.4641"/>
</g>
<!-- Node73&#45;&gt;Node71 -->
<g id="edge16" class="edge"><title>Node73&#45;&gt;Node71</title>
<path fill="none" stroke="midnightblue" d="M341.197,-19.884C349.812,-20.8333 358.44,-21.784 366.769,-22.7018"/>
<polygon fill="midnightblue" stroke="midnightblue" points="341.432,-16.3887 331.109,-18.7723 340.665,-23.3466 341.432,-16.3887"/>
</g>
</g>
</svg>
