<?xml version="1.0" encoding="UTF-8" standalone="no"?>
<!DOCTYPE svg PUBLIC "-//W3C//DTD SVG 1.1//EN"
 "http://www.w3.org/Graphics/SVG/1.1/DTD/svg11.dtd">
<!-- Generated by graphviz version 2.38.0 (20140413.2041)
 -->
<!-- Title: mom_dynamics_legacy_split::step_mom_dyn_legacy_split Pages: 1 -->
<svg width="781pt" height="379pt"
 viewBox="0.00 0.00 781.00 378.50" xmlns="http://www.w3.org/2000/svg" xmlns:xlink="http://www.w3.org/1999/xlink">
<g id="graph0" class="graph" transform="scale(1 1) rotate(0) translate(4 374.5)">
<title>mom_dynamics_legacy_split::step_mom_dyn_legacy_split</title>
<polygon fill="white" stroke="none" points="-4,4 -4,-374.5 777,-374.5 777,4 -4,4"/>
<!-- Node10 -->
<g id="node1" class="node"><title>Node10</title>
<polygon fill="#bfbfbf" stroke="black" points="0,-156 0,-197 119,-197 119,-156 0,-156"/>
<text text-anchor="start" x="8" y="-185" font-family="Helvetica,sans-Serif" font-size="10.00">mom_dynamics_legacy</text>
<text text-anchor="start" x="8" y="-174" font-family="Helvetica,sans-Serif" font-size="10.00">_split::step_mom_dyn</text>
<text text-anchor="middle" x="59.5" y="-163" font-family="Helvetica,sans-Serif" font-size="10.00">_legacy_split</text>
</g>
<!-- Node11 -->
<g id="node2" class="node"><title>Node11</title>
<g id="a_node2"><a xlink:href="namespacemom__continuity.html#a483dba08c6a9574d7fe814cadccd870e" target="_top" xlink:title="Time steps the layer thicknesses, using a monotonically limited, directionally split PPM scheme...">
<polygon fill="white" stroke="black" points="355,-351 355,-370 489,-370 489,-351 355,-351"/>
<text text-anchor="middle" x="422" y="-358" font-family="Helvetica,sans-Serif" font-size="10.00">mom_continuity::continuity</text>
</a>
</g>
</g>
<!-- Node10&#45;&gt;Node11 -->
<g id="edge1" class="edge"><title>Node10&#45;&gt;Node11</title>
<path fill="none" stroke="midnightblue" d="M68.532,-197.1C81.6562,-227.826 110.753,-285.081 155,-313.5 211.555,-349.824 288.164,-360.207 344.643,-362.31"/>
<polygon fill="midnightblue" stroke="midnightblue" points="344.847,-365.817 354.945,-362.611 345.052,-358.82 344.847,-365.817"/>
</g>
<!-- Node14 -->
<g id="node5" class="node"><title>Node14</title>
<g id="a_node5"><a xlink:href="namespacemom__coriolisadv.html#a48e46860dad5118d78c8cd7de964e71f" target="_top" xlink:title="Calculates the Coriolis and momentum advection contributions to the acceleration. ...">
<polygon fill="white" stroke="black" points="168,-285 168,-304 306,-304 306,-285 168,-285"/>
<text text-anchor="middle" x="237" y="-292" font-family="Helvetica,sans-Serif" font-size="10.00">mom_coriolisadv::coradcalc</text>
</a>
</g>
</g>
<!-- Node10&#45;&gt;Node14 -->
<g id="edge4" class="edge"><title>Node10&#45;&gt;Node14</title>
<path fill="none" stroke="midnightblue" d="M74.7227,-197.057C91.3637,-219.519 121.006,-254.909 155,-274.5 159.706,-277.212 164.772,-279.559 169.99,-281.589"/>
<polygon fill="midnightblue" stroke="midnightblue" points="168.91,-284.919 179.504,-284.912 171.218,-278.311 168.91,-284.919"/>
</g>
<!-- Node16 -->
<g id="node7" class="node"><title>Node16</title>
<g id="a_node7"><a xlink:href="namespacemom__legacy__barotropic.html#aaa2063f7d7fbe940bc5bd80117befaed" target="_top" xlink:title="mom_legacy_barotropic\l::legacy_set_dtbt">
<polygon fill="white" stroke="black" points="177,-235.5 177,-265.5 297,-265.5 297,-235.5 177,-235.5"/>
<text text-anchor="start" x="185" y="-253.5" font-family="Helvetica,sans-Serif" font-size="10.00">mom_legacy_barotropic</text>
<text text-anchor="middle" x="237" y="-242.5" font-family="Helvetica,sans-Serif" font-size="10.00">::legacy_set_dtbt</text>
</a>
</g>
</g>
<!-- Node10&#45;&gt;Node16 -->
<g id="edge7" class="edge"><title>Node10&#45;&gt;Node16</title>
<path fill="none" stroke="midnightblue" d="M96.5769,-197.143C113.9,-206.55 135.163,-217.372 155,-225.5 160.72,-227.843 166.743,-230.091 172.816,-232.211"/>
<polygon fill="midnightblue" stroke="midnightblue" points="171.77,-235.552 182.364,-235.432 174.008,-228.919 171.77,-235.552"/>
</g>
<!-- Node19 -->
<g id="node10" class="node"><title>Node19</title>
<g id="a_node10"><a xlink:href="namespacemom__checksum__packages.html#ad209641ecdd8dac3eae4b04e64e209ed" target="_top" xlink:title="mom_checksum_packages\l::mom_accel_chksum">
<polygon fill="white" stroke="black" points="169,-186.5 169,-216.5 305,-216.5 305,-186.5 169,-186.5"/>
<text text-anchor="start" x="177" y="-204.5" font-family="Helvetica,sans-Serif" font-size="10.00">mom_checksum_packages</text>
<text text-anchor="middle" x="237" y="-193.5" font-family="Helvetica,sans-Serif" font-size="10.00">::mom_accel_chksum</text>
</a>
</g>
</g>
<!-- Node10&#45;&gt;Node19 -->
<g id="edge10" class="edge"><title>Node10&#45;&gt;Node19</title>
<path fill="none" stroke="midnightblue" d="M119.427,-184.894C132.044,-186.691 145.556,-188.616 158.746,-190.495"/>
<polygon fill="midnightblue" stroke="midnightblue" points="158.356,-193.975 168.75,-191.92 159.343,-187.045 158.356,-193.975"/>
</g>
<!-- Node20 -->
<g id="node11" class="node"><title>Node20</title>
<g id="a_node11"><a xlink:href="namespacemom__open__boundary.html#a9d48e6925d93fa98cbf5bb73903f94be" target="_top" xlink:title="Applies zero values to 3d u,v fields on OBC segments. ">
<polygon fill="white" stroke="black" points="155,-137.5 155,-167.5 319,-167.5 319,-137.5 155,-137.5"/>
<text text-anchor="start" x="163" y="-155.5" font-family="Helvetica,sans-Serif" font-size="10.00">mom_open_boundary::</text>
<text text-anchor="middle" x="237" y="-144.5" font-family="Helvetica,sans-Serif" font-size="10.00">open_boundary_zero_normal_flow</text>
</a>
</g>
</g>
<!-- Node10&#45;&gt;Node20 -->
<g id="edge11" class="edge"><title>Node10&#45;&gt;Node20</title>
<path fill="none" stroke="midnightblue" d="M119.427,-168.442C127.586,-167.326 136.12,-166.159 144.698,-164.986"/>
<polygon fill="midnightblue" stroke="midnightblue" points="145.337,-168.431 154.77,-163.608 144.388,-161.496 145.337,-168.431"/>
</g>
<!-- Node21 -->
<g id="node12" class="node"><title>Node21</title>
<g id="a_node12"><a xlink:href="namespacemom__pressureforce.html#a9f010455182eeaa61c9f01caff250bf8" target="_top" xlink:title="A thin layer between the model and the Boussinesq and non&#45;Boussinesq pressure force routines...">
<polygon fill="white" stroke="black" points="182.5,-88.5 182.5,-118.5 291.5,-118.5 291.5,-88.5 182.5,-88.5"/>
<text text-anchor="start" x="190.5" y="-106.5" font-family="Helvetica,sans-Serif" font-size="10.00">mom_pressureforce::</text>
<text text-anchor="middle" x="237" y="-95.5" font-family="Helvetica,sans-Serif" font-size="10.00">pressureforce</text>
</a>
</g>
</g>
<!-- Node10&#45;&gt;Node21 -->
<g id="edge12" class="edge"><title>Node10&#45;&gt;Node21</title>
<path fill="none" stroke="midnightblue" d="M96.0891,-156C113.484,-146.514 134.946,-135.584 155,-127.5 160.713,-125.197 166.732,-123.003 172.802,-120.946"/>
<polygon fill="midnightblue" stroke="midnightblue" points="173.929,-124.26 182.348,-117.827 171.755,-117.606 173.929,-124.26"/>
</g>
<!-- Node22 -->
<g id="node13" class="node"><title>Node22</title>
<g id="a_node13"><a xlink:href="namespacemom__set__visc.html#afa97c345f1c4caaaf53b039d0b3fc9d8" target="_top" xlink:title="The following subroutine calculates the thickness of the surface boundary layer for applying an eleva...">
<polygon fill="white" stroke="black" points="159.5,-50 159.5,-69 314.5,-69 314.5,-50 159.5,-50"/>
<text text-anchor="middle" x="237" y="-57" font-family="Helvetica,sans-Serif" font-size="10.00">mom_set_visc::set_viscous_ml</text>
</a>
</g>
</g>
<!-- Node10&#45;&gt;Node22 -->
<g id="edge13" class="edge"><title>Node10&#45;&gt;Node22</title>
<path fill="none" stroke="midnightblue" d="M74.6805,-155.87C91.2837,-133.342 120.893,-97.8925 155,-78.5 158.92,-76.2712 163.088,-74.3035 167.387,-72.5662"/>
<polygon fill="midnightblue" stroke="midnightblue" points="168.734,-75.801 176.957,-69.1195 166.362,-69.2151 168.734,-75.801"/>
</g>
<!-- Node26 -->
<g id="node17" class="node"><title>Node26</title>
<g id="a_node17"><a xlink:href="namespacemom__boundary__update.html#af9005694e5b84a5dd5cbcdff7f69b93c" target="_top" xlink:title="Calls appropriate routine to update the open boundary conditions. ">
<polygon fill="white" stroke="black" points="178,-0.5 178,-30.5 296,-30.5 296,-0.5 178,-0.5"/>
<text text-anchor="start" x="186" y="-18.5" font-family="Helvetica,sans-Serif" font-size="10.00">mom_boundary_update</text>
<text text-anchor="middle" x="237" y="-7.5" font-family="Helvetica,sans-Serif" font-size="10.00">::update_obc_data</text>
</a>
</g>
</g>
<!-- Node10&#45;&gt;Node26 -->
<g id="edge19" class="edge"><title>Node10&#45;&gt;Node26</title>
<path fill="none" stroke="midnightblue" d="M69.496,-155.736C83.4777,-125.876 113.227,-71.0504 155,-40.5 159.199,-37.4294 163.782,-34.7302 168.563,-32.3583"/>
<polygon fill="midnightblue" stroke="midnightblue" points="170.235,-35.4457 177.954,-28.1888 167.394,-29.0479 170.235,-35.4457"/>
</g>
<!-- Node12 -->
<g id="node3" class="node"><title>Node12</title>
<g id="a_node3"><a xlink:href="namespacemom__error__handler.html#a460cfb79a06c29fc249952c2a3710d67" target="_top" xlink:title="mom_error_handler::\lmom_error">
<polygon fill="white" stroke="black" points="525,-219.5 525,-249.5 631,-249.5 631,-219.5 525,-219.5"/>
<text text-anchor="start" x="533" y="-237.5" font-family="Helvetica,sans-Serif" font-size="10.00">mom_error_handler::</text>
<text text-anchor="middle" x="578" y="-226.5" font-family="Helvetica,sans-Serif" font-size="10.00">mom_error</text>
</a>
</g>
</g>
<!-- Node11&#45;&gt;Node12 -->
<g id="edge2" class="edge"><title>Node11&#45;&gt;Node12</title>
<path fill="none" stroke="midnightblue" d="M459.555,-350.929C469.609,-347.332 480.168,-342.592 489,-336.5 519.592,-315.397 546.112,-281.191 561.828,-258.281"/>
<polygon fill="midnightblue" stroke="midnightblue" points="564.844,-260.068 567.5,-249.811 559.028,-256.173 564.844,-260.068"/>
</g>
<!-- Node13 -->
<g id="node4" class="node"><title>Node13</title>
<g id="a_node4"><a xlink:href="namespacemom__error__handler.html#ad5f00a53059c72fe2332d1436c80ca71" target="_top" xlink:title="mom_error_handler::\lis_root_pe">
<polygon fill="white" stroke="black" points="667,-219.5 667,-249.5 773,-249.5 773,-219.5 667,-219.5"/>
<text text-anchor="start" x="675" y="-237.5" font-family="Helvetica,sans-Serif" font-size="10.00">mom_error_handler::</text>
<text text-anchor="middle" x="720" y="-226.5" font-family="Helvetica,sans-Serif" font-size="10.00">is_root_pe</text>
</a>
</g>
</g>
<!-- Node12&#45;&gt;Node13 -->
<g id="edge3" class="edge"><title>Node12&#45;&gt;Node13</title>
<path fill="none" stroke="midnightblue" d="M631.131,-234.5C639.421,-234.5 648.07,-234.5 656.568,-234.5"/>
<polygon fill="midnightblue" stroke="midnightblue" points="656.826,-238 666.826,-234.5 656.826,-231 656.826,-238"/>
</g>
<!-- Node14&#45;&gt;Node12 -->
<g id="edge6" class="edge"><title>Node14&#45;&gt;Node12</title>
<path fill="none" stroke="midnightblue" d="M275.391,-304.019C325.545,-314.979 416.665,-328.477 489,-303.5 515.494,-294.352 540.094,-273.576 556.509,-257.198"/>
<polygon fill="midnightblue" stroke="midnightblue" points="559.442,-259.2 563.882,-249.581 554.412,-254.331 559.442,-259.2"/>
</g>
<!-- Node15 -->
<g id="node6" class="node"><title>Node15</title>
<g id="a_node6"><a xlink:href="namespacemom__coriolisadv.html#a8d9732ffd7debb051047934fe1551f97" target="_top" xlink:title="Calculates the acceleration due to the gradient of kinetic energy. ">
<polygon fill="white" stroke="black" points="359.5,-275 359.5,-294 484.5,-294 484.5,-275 359.5,-275"/>
<text text-anchor="middle" x="422" y="-282" font-family="Helvetica,sans-Serif" font-size="10.00">mom_coriolisadv::gradke</text>
</a>
</g>
</g>
<!-- Node14&#45;&gt;Node15 -->
<g id="edge5" class="edge"><title>Node14&#45;&gt;Node15</title>
<path fill="none" stroke="midnightblue" d="M306.142,-290.776C320.207,-290.008 335.061,-289.196 349.25,-288.421"/>
<polygon fill="midnightblue" stroke="midnightblue" points="349.649,-291.904 359.443,-287.864 349.267,-284.915 349.649,-291.904"/>
</g>
<!-- Node17 -->
<g id="node8" class="node"><title>Node17</title>
<g id="a_node8"><a xlink:href="namespacemom__legacy__barotropic.html#aa06249abf57a70498ab07eee534e5e52" target="_top" xlink:title="mom_legacy_barotropic\l::bt_cont_to_face_areas">
<polygon fill="white" stroke="black" points="361,-225.5 361,-255.5 483,-255.5 483,-225.5 361,-225.5"/>
<text text-anchor="start" x="369" y="-243.5" font-family="Helvetica,sans-Serif" font-size="10.00">mom_legacy_barotropic</text>
<text text-anchor="middle" x="422" y="-232.5" font-family="Helvetica,sans-Serif" font-size="10.00">::bt_cont_to_face_areas</text>
</a>
</g>
</g>
<!-- Node16&#45;&gt;Node17 -->
<g id="edge8" class="edge"><title>Node16&#45;&gt;Node17</title>
<path fill="none" stroke="midnightblue" d="M297.162,-247.267C314.184,-246.337 332.92,-245.313 350.553,-244.35"/>
<polygon fill="midnightblue" stroke="midnightblue" points="350.992,-247.831 360.786,-243.79 350.61,-240.841 350.992,-247.831"/>
</g>
<!-- Node18 -->
<g id="node9" class="node"><title>Node18</title>
<g id="a_node9"><a xlink:href="namespacemom__legacy__barotropic.html#ab334a4e8ef23ec6d784b24b6336d22f7" target="_top" xlink:title="mom_legacy_barotropic\l::find_face_areas">
<polygon fill="white" stroke="black" points="362,-176.5 362,-206.5 482,-206.5 482,-176.5 362,-176.5"/>
<text text-anchor="start" x="370" y="-194.5" font-family="Helvetica,sans-Serif" font-size="10.00">mom_legacy_barotropic</text>
<text text-anchor="middle" x="422" y="-183.5" font-family="Helvetica,sans-Serif" font-size="10.00">::find_face_areas</text>
</a>
</g>
</g>
<!-- Node16&#45;&gt;Node18 -->
<g id="edge9" class="edge"><title>Node16&#45;&gt;Node18</title>
<path fill="none" stroke="midnightblue" d="M287.315,-235.472C297.789,-232.227 308.77,-228.783 319,-225.5 334.527,-220.517 351.336,-214.975 366.743,-209.836"/>
<polygon fill="midnightblue" stroke="midnightblue" points="368.263,-213.018 376.637,-206.528 366.043,-206.38 368.263,-213.018"/>
</g>
<!-- Node22&#45;&gt;Node12 -->
<g id="edge14" class="edge"><title>Node22&#45;&gt;Node12</title>
<path fill="none" stroke="midnightblue" d="M299.65,-69.0263C306.482,-71.4951 313.095,-74.5989 319,-78.5 341.548,-93.3949 332.853,-112.015 355,-127.5 405.833,-163.043 433.715,-138.378 489,-166.5 512.958,-178.687 536.884,-197.729 553.727,-212.567"/>
<polygon fill="midnightblue" stroke="midnightblue" points="551.62,-215.379 561.395,-219.464 556.301,-210.174 551.62,-215.379"/>
</g>
<!-- Node23 -->
<g id="node14" class="node"><title>Node23</title>
<g id="a_node14"><a xlink:href="namespacemom__eos.html#a204529f8434a0322314e6ce2a9762436" target="_top" xlink:title="Calls the appropriate subroutine to calculate density derivatives for 1&#45;D array inputs. ">
<polygon fill="white" stroke="black" points="370,-88.5 370,-118.5 474,-118.5 474,-88.5 370,-88.5"/>
<text text-anchor="start" x="378" y="-106.5" font-family="Helvetica,sans-Serif" font-size="10.00">mom_eos::calculate</text>
<text text-anchor="middle" x="422" y="-95.5" font-family="Helvetica,sans-Serif" font-size="10.00">_density_derivs</text>
</a>
</g>
</g>
<!-- Node22&#45;&gt;Node23 -->
<g id="edge15" class="edge"><title>Node22&#45;&gt;Node23</title>
<path fill="none" stroke="midnightblue" d="M279.226,-69.0865C291.982,-72.0754 306.078,-75.4009 319,-78.5 332.34,-81.6992 346.649,-85.1773 360.205,-88.4941"/>
<polygon fill="midnightblue" stroke="midnightblue" points="359.373,-91.8936 369.918,-90.8744 361.039,-85.0948 359.373,-91.8936"/>
</g>
<!-- Node24 -->
<g id="node15" class="node"><title>Node24</title>
<g id="a_node15"><a xlink:href="namespacemom__set__visc.html#a21407595c202ddb14499af771b6f11e9" target="_top" xlink:title="This subroutine finds a thickness&#45;weighted value of v at the u&#45;points. ">
<polygon fill="white" stroke="black" points="355,-50 355,-69 489,-69 489,-50 355,-50"/>
<text text-anchor="middle" x="422" y="-57" font-family="Helvetica,sans-Serif" font-size="10.00">mom_set_visc::set_v_at_u</text>
</a>
</g>
</g>
<!-- Node22&#45;&gt;Node24 -->
<g id="edge17" class="edge"><title>Node22&#45;&gt;Node24</title>
<path fill="none" stroke="midnightblue" d="M314.548,-59.5C324.507,-59.5 334.709,-59.5 344.664,-59.5"/>
<polygon fill="midnightblue" stroke="midnightblue" points="344.929,-63.0001 354.929,-59.5 344.929,-56.0001 344.929,-63.0001"/>
</g>
<!-- Node25 -->
<g id="node16" class="node"><title>Node25</title>
<g id="a_node16"><a xlink:href="namespacemom__set__visc.html#a27ae4b202fb6449cef877d59bc91aa29" target="_top" xlink:title="This subroutine finds a thickness&#45;weighted value of u at the v&#45;points. ">
<polygon fill="white" stroke="black" points="355,-12 355,-31 489,-31 489,-12 355,-12"/>
<text text-anchor="middle" x="422" y="-19" font-family="Helvetica,sans-Serif" font-size="10.00">mom_set_visc::set_u_at_v</text>
</a>
</g>
</g>
<!-- Node22&#45;&gt;Node25 -->
<g id="edge18" class="edge"><title>Node22&#45;&gt;Node25</title>
<path fill="none" stroke="midnightblue" d="M284.179,-49.911C308.763,-44.8061 339.186,-38.4887 365.097,-33.1082"/>
<polygon fill="midnightblue" stroke="midnightblue" points="366.074,-36.4802 375.153,-31.0201 364.651,-29.6264 366.074,-36.4802"/>
</g>
<!-- Node23&#45;&gt;Node12 -->
<g id="edge16" class="edge"><title>Node23&#45;&gt;Node12</title>
<path fill="none" stroke="midnightblue" d="M463.626,-118.661C472.396,-122.819 481.329,-127.785 489,-133.5 518.47,-155.458 545.089,-188.792 561.147,-211.091"/>
<polygon fill="midnightblue" stroke="midnightblue" points="558.34,-213.183 566.966,-219.335 564.059,-209.147 558.34,-213.183"/>
</g>
</g>
</svg>
