<?xml version="1.0" encoding="UTF-8" standalone="no"?>
<!DOCTYPE svg PUBLIC "-//W3C//DTD SVG 1.1//EN"
 "http://www.w3.org/Graphics/SVG/1.1/DTD/svg11.dtd">
<!-- Generated by graphviz version 2.38.0 (20140413.2041)
 -->
<!-- Title: mom_ale::ale_main_offline Pages: 1 -->
<!--zoomable 242 -->
<svg id="main" version="1.1" xmlns="http://www.w3.org/2000/svg" xmlns:xlink="http://www.w3.org/1999/xlink" xml:space="preserve" onload="init(evt)">
<style type="text/css"><![CDATA[
.edge:hover path { stroke: red; }
.edge:hover polygon { stroke: red; fill: red; }
]]></style>
<script type="text/javascript"><![CDATA[
var edges = document.getElementsByTagName('g');
if (edges && edges.length) {
  for (var i=0;i<edges.length;i++) {
    if (edges[i].id.substr(0,4)=='edge') {
      edges[i].setAttribute('class','edge');
    }
  }
}
]]></script>
        <defs>
                <circle id="rim" cx="0" cy="0" r="7"/>
                <circle id="rim2" cx="0" cy="0" r="3.5"/>
                <g id="zoomPlus">
                        <use xlink:href="#rim" fill="#404040">
                                <set attributeName="fill" to="#808080" begin="zoomplus.mouseover" end="zoomplus.mouseout"/>
                        </use>
                        <path d="M-4,0h8M0,-4v8" fill="none" stroke="white" stroke-width="1.5" pointer-events="none"/>
                </g>
                <g id="zoomMin">
                        <use xlink:href="#rim" fill="#404040">
                                <set attributeName="fill" to="#808080" begin="zoomminus.mouseover" end="zoomminus.mouseout"/>
                        </use>
                        <path d="M-4,0h8" fill="none" stroke="white" stroke-width="1.5" pointer-events="none"/>
                </g>
                <g id="dirArrow">
                        <path fill="none" stroke="white" stroke-width="1.5" d="M0,-3.0v7 M-2.5,-0.5L0,-3.0L2.5,-0.5"/>
                </g>
               <g id="resetDef">
                       <use xlink:href="#rim2" fill="#404040">
                               <set attributeName="fill" to="#808080" begin="reset.mouseover" end="reset.mouseout"/>
                       </use>
               </g>
        </defs>

<script type="text/javascript">
var viewWidth = 571;
var viewHeight = 242;
var sectionId = 'dynsection-6';
</script>
<script xlink:href="svgpan.js"/>
<svg id="graph" class="graph">
<g id="viewport">
<title>mom_ale::ale_main_offline</title>
<polygon fill="white" stroke="none" points="-4,4 -4,-237.5 567,-237.5 567,4 -4,4"/>
<!-- Node38 -->
<g id="node1" class="node"><title>Node38</title>
<polygon fill="#bfbfbf" stroke="black" points="0,-98.5 0,-117.5 133,-117.5 133,-98.5 0,-98.5"/>
<text text-anchor="middle" x="66.5" y="-105.5" font-family="Helvetica,sans-Serif" font-size="10.00">mom_ale::ale_main_offline</text>
</g>
<!-- Node39 -->
<g id="node2" class="node"><title>Node39</title>
<g id="a_node2"><a xlink:href="namespacemom__ale.html#aa892ad9bccb3137ea1f662b317be2611" target="_top" xlink:title="Updates the weights for time filtering the new grid generated in regridding. ">
<polygon fill="white" stroke="black" points="169,-203 169,-233 279,-233 279,-203 169,-203"/>
<text text-anchor="start" x="177" y="-221" font-family="Helvetica,sans-Serif" font-size="10.00">mom_ale::ale_update</text>
<text text-anchor="middle" x="224" y="-210" font-family="Helvetica,sans-Serif" font-size="10.00">_regrid_weights</text>
</a>
</g>
</g>
<!-- Node38&#45;&gt;Node39 -->
<g id="edge1" class="edge"><title>Node38&#45;&gt;Node39</title>
<path fill="none" stroke="midnightblue" d="M78.6179,-117.74C96.8271,-133.463 134.447,-165 169,-188 174.033,-191.35 179.468,-194.68 184.884,-197.835"/>
<polygon fill="midnightblue" stroke="midnightblue" points="183.481,-201.063 193.906,-202.954 186.936,-194.975 183.481,-201.063"/>
</g>
<!-- Node40 -->
<g id="node3" class="node"><title>Node40</title>
<g id="a_node3"><a xlink:href="namespacemom__error__handler.html#a9cda07a87815f0e5594066162b4345c3" target="_top" xlink:title="Writes a message about entering a subroutine if call tree reporting is active. ">
<polygon fill="white" stroke="black" points="315,-145 315,-175 421,-175 421,-145 315,-145"/>
<text text-anchor="start" x="323" y="-163" font-family="Helvetica,sans-Serif" font-size="10.00">mom_error_handler::</text>
<text text-anchor="middle" x="368" y="-152" font-family="Helvetica,sans-Serif" font-size="10.00">calltree_enter</text>
</a>
</g>
</g>
<!-- Node38&#45;&gt;Node40 -->
<g id="edge2" class="edge"><title>Node38&#45;&gt;Node40</title>
<path fill="none" stroke="midnightblue" d="M83.3207,-117.57C102.714,-128.722 136.961,-146.569 169,-154 213.533,-164.329 265.204,-165.549 304.592,-164.335"/>
<polygon fill="midnightblue" stroke="midnightblue" points="304.722,-167.832 314.587,-163.967 304.465,-160.837 304.722,-167.832"/>
</g>
<!-- Node42 -->
<g id="node5" class="node"><title>Node42</title>
<g id="a_node5"><a xlink:href="namespacemom__error__handler.html#a88ea67781e2ed9b73ab7eac8ea5e8578" target="_top" xlink:title="Writes a message about leaving a subroutine if call tree reporting is active. ">
<polygon fill="white" stroke="black" points="315,-96 315,-126 421,-126 421,-96 315,-96"/>
<text text-anchor="start" x="323" y="-114" font-family="Helvetica,sans-Serif" font-size="10.00">mom_error_handler::</text>
<text text-anchor="middle" x="368" y="-103" font-family="Helvetica,sans-Serif" font-size="10.00">calltree_leave</text>
</a>
</g>
</g>
<!-- Node38&#45;&gt;Node42 -->
<g id="edge4" class="edge"><title>Node38&#45;&gt;Node42</title>
<path fill="none" stroke="midnightblue" d="M133.252,-105.437C175.008,-104.213 230.187,-103.338 279,-105 287.36,-105.285 296.159,-105.721 304.829,-106.231"/>
<polygon fill="midnightblue" stroke="midnightblue" points="304.715,-109.731 314.914,-106.86 305.151,-102.745 304.715,-109.731"/>
</g>
<!-- Node43 -->
<g id="node6" class="node"><title>Node43</title>
<g id="a_node6"><a xlink:href="namespacemom__error__handler.html#a34a02e601a60f03cb97a72fe25a32853" target="_top" xlink:title="Writes a message about reaching a milestone if call tree reporting is active. ">
<polygon fill="white" stroke="black" points="315,-47 315,-77 421,-77 421,-47 315,-47"/>
<text text-anchor="start" x="323" y="-65" font-family="Helvetica,sans-Serif" font-size="10.00">mom_error_handler::</text>
<text text-anchor="middle" x="368" y="-54" font-family="Helvetica,sans-Serif" font-size="10.00">calltree_waypoint</text>
</a>
</g>
</g>
<!-- Node38&#45;&gt;Node43 -->
<g id="edge6" class="edge"><title>Node38&#45;&gt;Node43</title>
<path fill="none" stroke="midnightblue" d="M129.557,-98.4688C180.798,-90.5987 253.189,-79.4801 304.541,-71.5931"/>
<polygon fill="midnightblue" stroke="midnightblue" points="305.165,-75.0383 314.518,-70.0607 304.102,-68.1194 305.165,-75.0383"/>
</g>
<!-- Node44 -->
<g id="node7" class="node"><title>Node44</title>
<g id="a_node7"><a xlink:href="namespacemom__ale.html#a9b511a4b61f92b735cef1129dff14bcb" target="_top" xlink:title="Check grid for negative thicknesses. ">
<polygon fill="white" stroke="black" points="169,-0.5 169,-19.5 279,-19.5 279,-0.5 169,-0.5"/>
<text text-anchor="middle" x="224" y="-7.5" font-family="Helvetica,sans-Serif" font-size="10.00">mom_ale::check_grid</text>
</a>
</g>
</g>
<!-- Node38&#45;&gt;Node44 -->
<g id="edge8" class="edge"><title>Node38&#45;&gt;Node44</title>
<path fill="none" stroke="midnightblue" d="M78.8262,-98.4972C97.0236,-83.5236 134.26,-54.0802 169,-34 175.412,-30.2939 182.501,-26.7695 189.377,-23.6192"/>
<polygon fill="midnightblue" stroke="midnightblue" points="190.803,-26.8156 198.535,-19.573 187.974,-20.4126 190.803,-26.8156"/>
</g>
<!-- Node45 -->
<g id="node8" class="node"><title>Node45</title>
<g id="a_node8"><a xlink:href="namespacemom__ale.html#af95685cdfb7505b09300795da2336dbe" target="_top" xlink:title="This routine takes care of remapping all variable between the old and the new grids. When velocity components need to be remapped, thicknesses at velocity points are taken to be arithmetic averages of tracer thicknesses. This routine is called during initialization of the model at time=0, to remap initiali conditions to the model grid. It is also called during a time step to update the state. ">
<polygon fill="white" stroke="black" points="172,-115 172,-145 276,-145 276,-115 172,-115"/>
<text text-anchor="start" x="180" y="-133" font-family="Helvetica,sans-Serif" font-size="10.00">mom_ale::remap_all</text>
<text text-anchor="middle" x="224" y="-122" font-family="Helvetica,sans-Serif" font-size="10.00">_state_vars</text>
</a>
</g>
</g>
<!-- Node38&#45;&gt;Node45 -->
<g id="edge9" class="edge"><title>Node38&#45;&gt;Node45</title>
<path fill="none" stroke="midnightblue" d="M133.446,-117.33C142.807,-118.654 152.403,-120.012 161.672,-121.323"/>
<polygon fill="midnightblue" stroke="midnightblue" points="161.183,-124.789 171.575,-122.724 162.164,-117.858 161.183,-124.789"/>
</g>
<!-- Node41 -->
<g id="node4" class="node"><title>Node41</title>
<g id="a_node4"><a xlink:href="namespacemom__error__handler.html#ad5f00a53059c72fe2332d1436c80ca71" target="_top" xlink:title="mom_error_handler::\lis_root_pe">
<polygon fill="white" stroke="black" points="457,-96 457,-126 563,-126 563,-96 457,-96"/>
<text text-anchor="start" x="465" y="-114" font-family="Helvetica,sans-Serif" font-size="10.00">mom_error_handler::</text>
<text text-anchor="middle" x="510" y="-103" font-family="Helvetica,sans-Serif" font-size="10.00">is_root_pe</text>
</a>
</g>
</g>
<!-- Node40&#45;&gt;Node41 -->
<g id="edge3" class="edge"><title>Node40&#45;&gt;Node41</title>
<path fill="none" stroke="midnightblue" d="M412.147,-144.899C425.986,-140.055 441.475,-134.634 455.938,-129.572"/>
<polygon fill="midnightblue" stroke="midnightblue" points="457.472,-132.743 465.755,-126.136 455.16,-126.136 457.472,-132.743"/>
</g>
<!-- Node42&#45;&gt;Node41 -->
<g id="edge5" class="edge"><title>Node42&#45;&gt;Node41</title>
<path fill="none" stroke="midnightblue" d="M421.131,-111C429.421,-111 438.07,-111 446.568,-111"/>
<polygon fill="midnightblue" stroke="midnightblue" points="446.826,-114.5 456.826,-111 446.826,-107.5 446.826,-114.5"/>
</g>
<!-- Node43&#45;&gt;Node41 -->
<g id="edge7" class="edge"><title>Node43&#45;&gt;Node41</title>
<path fill="none" stroke="midnightblue" d="M412.147,-77.1014C425.986,-81.9451 441.475,-87.3664 455.938,-92.4285"/>
<polygon fill="midnightblue" stroke="midnightblue" points="455.16,-95.864 465.755,-95.8641 457.472,-89.257 455.16,-95.864"/>
</g>
<!-- Node45&#45;&gt;Node40 -->
<g id="edge10" class="edge"><title>Node45&#45;&gt;Node40</title>
<path fill="none" stroke="midnightblue" d="M276.265,-140.831C285.581,-142.799 295.389,-144.871 304.976,-146.896"/>
<polygon fill="midnightblue" stroke="midnightblue" points="304.348,-150.341 314.855,-148.984 305.795,-143.492 304.348,-150.341"/>
</g>
<!-- Node45&#45;&gt;Node42 -->
<g id="edge12" class="edge"><title>Node45&#45;&gt;Node42</title>
<path fill="none" stroke="midnightblue" d="M276.265,-123.141C285.483,-121.907 295.183,-120.609 304.673,-119.34"/>
<polygon fill="midnightblue" stroke="midnightblue" points="305.408,-122.772 314.855,-117.977 304.479,-115.834 305.408,-122.772"/>
</g>
<!-- Node45&#45;&gt;Node43 -->
<g id="edge11" class="edge"><title>Node45&#45;&gt;Node43</title>
<path fill="none" stroke="midnightblue" d="M255.33,-114.963C272.744,-106.382 295.049,-95.4794 315,-86 318.149,-84.5038 321.411,-82.9673 324.695,-81.4295"/>
<polygon fill="midnightblue" stroke="midnightblue" points="326.351,-84.5196 333.938,-77.1249 323.395,-78.174 326.351,-84.5196"/>
</g>
</g>
</svg>
        <g id="navigator" transform="translate(0 0)" fill="#404254">
                <rect fill="#f2f5e9" fill-opacity="0.5" stroke="#606060" stroke-width=".5" x="0" y="0" width="60" height="60"/>
                <use id="zoomplus" xlink:href="#zoomPlus" x="17" y="9" onmousedown="handleZoom(evt,'in')"/>
                <use id="zoomminus" xlink:href="#zoomMin" x="42" y="9" onmousedown="handleZoom(evt,'out')"/>
                <use id="reset" xlink:href="#resetDef" x="30" y="36" onmousedown="handleReset()"/>
                <g id="arrowUp" xlink:href="#dirArrow" transform="translate(30 24)" onmousedown="handlePan(0,-1)">
                  <use xlink:href="#rim" fill="#404040">
                        <set attributeName="fill" to="#808080" begin="arrowUp.mouseover" end="arrowUp.mouseout"/>
                  </use>
                  <path fill="none" stroke="white" stroke-width="1.5" d="M0,-3.0v7 M-2.5,-0.5L0,-3.0L2.5,-0.5"/>
                </g>
                <g id="arrowRight" xlink:href="#dirArrow" transform="rotate(90) translate(36 -43)" onmousedown="handlePan(1,0)">
                  <use xlink:href="#rim" fill="#404040">
                        <set attributeName="fill" to="#808080" begin="arrowRight.mouseover" end="arrowRight.mouseout"/>
                  </use>
                  <path fill="none" stroke="white" stroke-width="1.5" d="M0,-3.0v7 M-2.5,-0.5L0,-3.0L2.5,-0.5"/>
                </g>
                <g id="arrowDown" xlink:href="#dirArrow" transform="rotate(180) translate(-30 -48)" onmousedown="handlePan(0,1)">
                  <use xlink:href="#rim" fill="#404040">
                        <set attributeName="fill" to="#808080" begin="arrowDown.mouseover" end="arrowDown.mouseout"/>
                  </use>
                  <path fill="none" stroke="white" stroke-width="1.5" d="M0,-3.0v7 M-2.5,-0.5L0,-3.0L2.5,-0.5"/>
                </g>
                <g id="arrowLeft" xlink:href="#dirArrow" transform="rotate(270) translate(-36 17)" onmousedown="handlePan(-1,0)">
                  <use xlink:href="#rim" fill="#404040">
                        <set attributeName="fill" to="#808080" begin="arrowLeft.mouseover" end="arrowLeft.mouseout"/>
                  </use>
                  <path fill="none" stroke="white" stroke-width="1.5" d="M0,-3.0v7 M-2.5,-0.5L0,-3.0L2.5,-0.5"/>
                </g>
        </g>
        <svg viewBox="0 0 15 15" width="100%" height="30px" preserveAspectRatio="xMaxYMin meet">
         <g id="arrow_out" transform="scale(0.3 0.3)">
          <a xlink:href="namespacemom__ale_a5a39781fe9a087c4ab8b4b2ea86ef05c_cgraph_org.svg" target="_base">
           <rect id="button" ry="5" rx="5" y="6" x="6" height="38" width="38"
                fill="#f2f5e9" fill-opacity="0.5" stroke="#606060" stroke-width="1.0"/>
           <path id="arrow"
             d="M 11.500037,31.436501 C 11.940474,20.09759 22.043105,11.32322 32.158766,21.979434 L 37.068811,17.246167 C 37.068811,17.246167 37.088388,32 37.088388,32 L 22.160133,31.978069 C 22.160133,31.978069 26.997745,27.140456 26.997745,27.140456 C 18.528582,18.264221 13.291696,25.230495 11.500037,31.436501 z"
             style="fill:#404040;"/>
          </a>
         </g>
        </svg>
</svg>
