<?xml version="1.0" encoding="UTF-8" standalone="no"?>
<!DOCTYPE svg PUBLIC "-//W3C//DTD SVG 1.1//EN"
 "http://www.w3.org/Graphics/SVG/1.1/DTD/svg11.dtd">
<!-- Generated by graphviz version 2.38.0 (20140413.2041)
 -->
<!-- Title: mom_verticalgrid::setverticalgridaxes Pages: 1 -->
<svg width="591pt" height="39pt"
 viewBox="0.00 0.00 591.00 39.00" xmlns="http://www.w3.org/2000/svg" xmlns:xlink="http://www.w3.org/1999/xlink">
<g id="graph0" class="graph" transform="scale(1 1) rotate(0) translate(4 35)">
<title>mom_verticalgrid::setverticalgridaxes</title>
<polygon fill="white" stroke="none" points="-4,4 -4,-35 587,-35 587,4 -4,4"/>
<!-- Node18 -->
<g id="node1" class="node"><title>Node18</title>
<polygon fill="#bfbfbf" stroke="black" points="0,-6 0,-25 179,-25 179,-6 0,-6"/>
<text text-anchor="middle" x="89.5" y="-13" font-family="Helvetica,sans-Serif" font-size="10.00">mom_verticalgrid::setverticalgridaxes</text>
</g>
<!-- Node19 -->
<g id="node2" class="node"><title>Node19</title>
<g id="a_node2"><a xlink:href="namespacemom__coord__initialization.html#a6e2f4c11bc99476ea9c64a9aceac3b81" target="_top" xlink:title="MOM_initialize_coord sets up time&#45;invariant quantities related to MOM6&#39;s vertical coordinate...">
<polygon fill="white" stroke="black" points="215,-0.5 215,-30.5 339,-30.5 339,-0.5 215,-0.5"/>
<text text-anchor="start" x="223" y="-18.5" font-family="Helvetica,sans-Serif" font-size="10.00">mom_coord_initialization</text>
<text text-anchor="middle" x="277" y="-7.5" font-family="Helvetica,sans-Serif" font-size="10.00">::mom_initialize_coord</text>
</a>
</g>
</g>
<!-- Node18&#45;&gt;Node19 -->
<g id="edge1" class="edge"><title>Node18&#45;&gt;Node19</title>
<path fill="none" stroke="midnightblue" d="M189.396,-15.5C198.09,-15.5 206.712,-15.5 214.954,-15.5"/>
<polygon fill="midnightblue" stroke="midnightblue" points="189.175,-12.0001 179.175,-15.5 189.175,-19.0001 189.175,-12.0001"/>
</g>
<!-- Node20 -->
<g id="node3" class="node"><title>Node20</title>
<g id="a_node3"><a xlink:href="namespacemom.html#a0be2869fef30e1e0604facfe1b41555d" target="_top" xlink:title="This subroutine initializes MOM. ">
<polygon fill="white" stroke="black" points="375,-6 375,-25 482,-25 482,-6 375,-6"/>
<text text-anchor="middle" x="428.5" y="-13" font-family="Helvetica,sans-Serif" font-size="10.00">mom::initialize_mom</text>
</a>
</g>
</g>
<!-- Node19&#45;&gt;Node20 -->
<g id="edge2" class="edge"><title>Node19&#45;&gt;Node20</title>
<path fill="none" stroke="midnightblue" d="M349.255,-15.5C357.834,-15.5 366.475,-15.5 374.725,-15.5"/>
<polygon fill="midnightblue" stroke="midnightblue" points="349.239,-12.0001 339.239,-15.5 349.239,-19.0001 349.239,-12.0001"/>
</g>
<!-- Node21 -->
<g id="node4" class="node"><title>Node21</title>
<g id="a_node4"><a xlink:href="MOM__driver_8F90.html#a08fffeb2d8e8acbf9ed4609be6d258c6" target="_top" xlink:title="mom_main">
<polygon fill="white" stroke="black" points="518,-6 518,-25 583,-25 583,-6 518,-6"/>
<text text-anchor="middle" x="550.5" y="-13" font-family="Helvetica,sans-Serif" font-size="10.00">mom_main</text>
</a>
</g>
</g>
<!-- Node20&#45;&gt;Node21 -->
<g id="edge3" class="edge"><title>Node20&#45;&gt;Node21</title>
<path fill="none" stroke="midnightblue" d="M492.206,-15.5C501.134,-15.5 509.983,-15.5 517.958,-15.5"/>
<polygon fill="midnightblue" stroke="midnightblue" points="492.134,-12.0001 482.134,-15.5 492.134,-19.0001 492.134,-12.0001"/>
</g>
</g>
</svg>
