<?xml version="1.0" encoding="UTF-8" standalone="no"?>
<!DOCTYPE svg PUBLIC "-//W3C//DTD SVG 1.1//EN"
 "http://www.w3.org/Graphics/SVG/1.1/DTD/svg11.dtd">
<!-- Generated by graphviz version 2.38.0 (20140413.2041)
 -->
<!-- Title: mom_tracer_registry::register_tracer Pages: 1 -->
<svg width="722pt" height="97pt"
 viewBox="0.00 0.00 722.00 96.69" xmlns="http://www.w3.org/2000/svg" xmlns:xlink="http://www.w3.org/1999/xlink">
<g id="graph0" class="graph" transform="scale(1 1) rotate(0) translate(4 92.6877)">
<title>mom_tracer_registry::register_tracer</title>
<polygon fill="white" stroke="none" points="-4,4 -4,-92.6877 718,-92.6877 718,4 -4,4"/>
<!-- Node37 -->
<g id="node1" class="node"><title>Node37</title>
<polygon fill="#bfbfbf" stroke="black" points="0,-44.5 0,-74.5 106,-74.5 106,-44.5 0,-44.5"/>
<text text-anchor="start" x="8" y="-62.5" font-family="Helvetica,sans-Serif" font-size="10.00">mom_tracer_registry</text>
<text text-anchor="middle" x="53" y="-51.5" font-family="Helvetica,sans-Serif" font-size="10.00">::register_tracer</text>
</g>
<!-- Node38 -->
<g id="node2" class="node"><title>Node38</title>
<g id="a_node2"><a xlink:href="namespacemom__error__handler.html#a460cfb79a06c29fc249952c2a3710d67" target="_top" xlink:title="mom_error_handler::\lmom_error">
<polygon fill="white" stroke="black" points="466,-44.5 466,-74.5 572,-74.5 572,-44.5 466,-44.5"/>
<text text-anchor="start" x="474" y="-62.5" font-family="Helvetica,sans-Serif" font-size="10.00">mom_error_handler::</text>
<text text-anchor="middle" x="519" y="-51.5" font-family="Helvetica,sans-Serif" font-size="10.00">mom_error</text>
</a>
</g>
</g>
<!-- Node37&#45;&gt;Node38 -->
<g id="edge1" class="edge"><title>Node37&#45;&gt;Node38</title>
<path fill="none" stroke="midnightblue" d="M106.286,-72.6976C117.964,-75.1101 130.344,-77.256 142,-78.5 269.277,-92.0836 302.723,-92.0836 430,-78.5 438.378,-77.6059 447.129,-76.2458 455.726,-74.6557"/>
<polygon fill="midnightblue" stroke="midnightblue" points="456.574,-78.0561 465.714,-72.6976 455.228,-71.1869 456.574,-78.0561"/>
</g>
<!-- Node40 -->
<g id="node4" class="node"><title>Node40</title>
<g id="a_node4"><a xlink:href="namespacemom__io.html#a23e82d1d89d9bb1c9bdf802ce80d4508" target="_top" xlink:title="This routine queries vardesc. ">
<polygon fill="white" stroke="black" points="142,-50 142,-69 263,-69 263,-50 142,-50"/>
<text text-anchor="middle" x="202.5" y="-57" font-family="Helvetica,sans-Serif" font-size="10.00">mom_io::query_vardesc</text>
</a>
</g>
</g>
<!-- Node37&#45;&gt;Node40 -->
<g id="edge3" class="edge"><title>Node37&#45;&gt;Node40</title>
<path fill="none" stroke="midnightblue" d="M106.003,-59.5C114.349,-59.5 123.103,-59.5 131.782,-59.5"/>
<polygon fill="midnightblue" stroke="midnightblue" points="131.908,-63.0001 141.908,-59.5 131.908,-56.0001 131.908,-63.0001"/>
</g>
<!-- Node42 -->
<g id="node6" class="node"><title>Node42</title>
<g id="a_node6"><a xlink:href="namespacemom__tracer__registry.html#a452937bf1f9d01a47d1a80793e317b33" target="_top" xlink:title="This routine include declares and sets the variable &quot;version&quot;. ">
<polygon fill="white" stroke="black" points="311.5,-0.5 311.5,-30.5 417.5,-30.5 417.5,-0.5 311.5,-0.5"/>
<text text-anchor="start" x="319.5" y="-18.5" font-family="Helvetica,sans-Serif" font-size="10.00">mom_tracer_registry</text>
<text text-anchor="middle" x="364.5" y="-7.5" font-family="Helvetica,sans-Serif" font-size="10.00">::tracer_registry_init</text>
</a>
</g>
</g>
<!-- Node37&#45;&gt;Node42 -->
<g id="edge6" class="edge"><title>Node37&#45;&gt;Node42</title>
<path fill="none" stroke="midnightblue" d="M106.418,-47.2813C118.089,-44.8129 130.432,-42.3967 142,-40.5 195.498,-31.7282 256.774,-25.0704 301.295,-20.8396"/>
<polygon fill="midnightblue" stroke="midnightblue" points="301.752,-24.3122 311.382,-19.8953 301.099,-17.3427 301.752,-24.3122"/>
</g>
<!-- Node39 -->
<g id="node3" class="node"><title>Node39</title>
<g id="a_node3"><a xlink:href="namespacemom__error__handler.html#ad5f00a53059c72fe2332d1436c80ca71" target="_top" xlink:title="mom_error_handler::\lis_root_pe">
<polygon fill="white" stroke="black" points="608,-22.5 608,-52.5 714,-52.5 714,-22.5 608,-22.5"/>
<text text-anchor="start" x="616" y="-40.5" font-family="Helvetica,sans-Serif" font-size="10.00">mom_error_handler::</text>
<text text-anchor="middle" x="661" y="-29.5" font-family="Helvetica,sans-Serif" font-size="10.00">is_root_pe</text>
</a>
</g>
</g>
<!-- Node38&#45;&gt;Node39 -->
<g id="edge2" class="edge"><title>Node38&#45;&gt;Node39</title>
<path fill="none" stroke="midnightblue" d="M572.131,-51.308C580.512,-49.9909 589.26,-48.6162 597.849,-47.2667"/>
<polygon fill="midnightblue" stroke="midnightblue" points="598.49,-50.7089 607.826,-45.6988 597.403,-43.7937 598.49,-50.7089"/>
</g>
<!-- Node41 -->
<g id="node5" class="node"><title>Node41</title>
<g id="a_node5"><a xlink:href="namespacemom__io.html#ac4bc408e8b38dbd669842753f26ebf88" target="_top" xlink:title="Copies a string. ">
<polygon fill="white" stroke="black" points="299,-50 299,-69 430,-69 430,-50 299,-50"/>
<text text-anchor="middle" x="364.5" y="-57" font-family="Helvetica,sans-Serif" font-size="10.00">mom_io::safe_string_copy</text>
</a>
</g>
</g>
<!-- Node40&#45;&gt;Node41 -->
<g id="edge4" class="edge"><title>Node40&#45;&gt;Node41</title>
<path fill="none" stroke="midnightblue" d="M263.078,-59.5C271.444,-59.5 280.129,-59.5 288.732,-59.5"/>
<polygon fill="midnightblue" stroke="midnightblue" points="288.771,-63.0001 298.771,-59.5 288.771,-56.0001 288.771,-63.0001"/>
</g>
<!-- Node41&#45;&gt;Node38 -->
<g id="edge5" class="edge"><title>Node41&#45;&gt;Node38</title>
<path fill="none" stroke="midnightblue" d="M430.174,-59.5C438.6,-59.5 447.219,-59.5 455.607,-59.5"/>
<polygon fill="midnightblue" stroke="midnightblue" points="455.695,-63.0001 465.695,-59.5 455.695,-56.0001 455.695,-63.0001"/>
</g>
<!-- Node42&#45;&gt;Node38 -->
<g id="edge8" class="edge"><title>Node42&#45;&gt;Node38</title>
<path fill="none" stroke="midnightblue" d="M417.555,-30.5192C430.001,-34.11 443.405,-37.9776 456.241,-41.681"/>
<polygon fill="midnightblue" stroke="midnightblue" points="455.342,-45.0644 465.921,-44.4738 457.283,-38.3387 455.342,-45.0644"/>
</g>
<!-- Node42&#45;&gt;Node39 -->
<g id="edge7" class="edge"><title>Node42&#45;&gt;Node39</title>
<path fill="none" stroke="midnightblue" d="M417.811,-19.4078C468.122,-23.1662 544.21,-28.8501 597.645,-32.8419"/>
<polygon fill="midnightblue" stroke="midnightblue" points="597.448,-36.3368 607.681,-33.5916 597.969,-29.3563 597.448,-36.3368"/>
</g>
</g>
</svg>
