<?xml version="1.0" encoding="UTF-8" standalone="no"?>
<!DOCTYPE svg PUBLIC "-//W3C//DTD SVG 1.1//EN"
 "http://www.w3.org/Graphics/SVG/1.1/DTD/svg11.dtd">
<!-- Generated by graphviz version 2.38.0 (20140413.2041)
 -->
<!-- Title: mom_open_boundary::obc_registry_init Pages: 1 -->
<svg width="826pt" height="39pt"
 viewBox="0.00 0.00 826.00 39.00" xmlns="http://www.w3.org/2000/svg" xmlns:xlink="http://www.w3.org/1999/xlink">
<g id="graph0" class="graph" transform="scale(1 1) rotate(0) translate(4 35)">
<title>mom_open_boundary::obc_registry_init</title>
<polygon fill="white" stroke="none" points="-4,4 -4,-35 822,-35 822,4 -4,4"/>
<!-- Node21 -->
<g id="node1" class="node"><title>Node21</title>
<polygon fill="#bfbfbf" stroke="black" points="0,-0.5 0,-30.5 116,-30.5 116,-0.5 0,-0.5"/>
<text text-anchor="start" x="8" y="-18.5" font-family="Helvetica,sans-Serif" font-size="10.00">mom_open_boundary::</text>
<text text-anchor="middle" x="58" y="-7.5" font-family="Helvetica,sans-Serif" font-size="10.00">obc_registry_init</text>
</g>
<!-- Node22 -->
<g id="node2" class="node"><title>Node22</title>
<g id="a_node2"><a xlink:href="namespacemom__open__boundary.html#a8e0e22d829c122134f039228c6f1c7fb" target="_top" xlink:title="register open boundary objects for boundary updates. ">
<polygon fill="white" stroke="black" points="152,-0.5 152,-30.5 268,-30.5 268,-0.5 152,-0.5"/>
<text text-anchor="start" x="160" y="-18.5" font-family="Helvetica,sans-Serif" font-size="10.00">mom_open_boundary::</text>
<text text-anchor="middle" x="210" y="-7.5" font-family="Helvetica,sans-Serif" font-size="10.00">register_obc</text>
</a>
</g>
</g>
<!-- Node21&#45;&gt;Node22 -->
<g id="edge1" class="edge"><title>Node21&#45;&gt;Node22</title>
<path fill="none" stroke="midnightblue" d="M126.311,-15.5C134.728,-15.5 143.277,-15.5 151.525,-15.5"/>
<polygon fill="midnightblue" stroke="midnightblue" points="126.137,-12.0001 116.136,-15.5 126.136,-19.0001 126.137,-12.0001"/>
</g>
<!-- Node23 -->
<g id="node3" class="node"><title>Node23</title>
<g id="a_node3"><a xlink:href="namespacemom__open__boundary.html#a05d15beca2ef2b44fb36d129166907fa" target="_top" xlink:title="Add file to OBC registry. ">
<polygon fill="white" stroke="black" points="304,-0.5 304,-30.5 420,-30.5 420,-0.5 304,-0.5"/>
<text text-anchor="start" x="312" y="-18.5" font-family="Helvetica,sans-Serif" font-size="10.00">mom_open_boundary::</text>
<text text-anchor="middle" x="362" y="-7.5" font-family="Helvetica,sans-Serif" font-size="10.00">register_file_obc</text>
</a>
</g>
</g>
<!-- Node22&#45;&gt;Node23 -->
<g id="edge2" class="edge"><title>Node22&#45;&gt;Node23</title>
<path fill="none" stroke="midnightblue" d="M278.311,-15.5C286.728,-15.5 295.277,-15.5 303.525,-15.5"/>
<polygon fill="midnightblue" stroke="midnightblue" points="278.137,-12.0001 268.136,-15.5 278.136,-19.0001 278.137,-12.0001"/>
</g>
<!-- Node24 -->
<g id="node4" class="node"><title>Node24</title>
<g id="a_node4"><a xlink:href="namespacemom__boundary__update.html#a455e3d4565a6023e3c144eefb9bafac5" target="_top" xlink:title="The following subroutines and associated definitions provide the machinery to register and call the s...">
<polygon fill="white" stroke="black" points="456,-0.5 456,-30.5 574,-30.5 574,-0.5 456,-0.5"/>
<text text-anchor="start" x="464" y="-18.5" font-family="Helvetica,sans-Serif" font-size="10.00">mom_boundary_update</text>
<text text-anchor="middle" x="515" y="-7.5" font-family="Helvetica,sans-Serif" font-size="10.00">::call_obc_register</text>
</a>
</g>
</g>
<!-- Node23&#45;&gt;Node24 -->
<g id="edge3" class="edge"><title>Node23&#45;&gt;Node24</title>
<path fill="none" stroke="midnightblue" d="M430.354,-15.5C438.852,-15.5 447.489,-15.5 455.829,-15.5"/>
<polygon fill="midnightblue" stroke="midnightblue" points="430.087,-12.0001 420.087,-15.5 430.087,-19.0001 430.087,-12.0001"/>
</g>
<!-- Node25 -->
<g id="node5" class="node"><title>Node25</title>
<g id="a_node5"><a xlink:href="namespacemom.html#a0be2869fef30e1e0604facfe1b41555d" target="_top" xlink:title="This subroutine initializes MOM. ">
<polygon fill="white" stroke="black" points="610,-6 610,-25 717,-25 717,-6 610,-6"/>
<text text-anchor="middle" x="663.5" y="-13" font-family="Helvetica,sans-Serif" font-size="10.00">mom::initialize_mom</text>
</a>
</g>
</g>
<!-- Node24&#45;&gt;Node25 -->
<g id="edge4" class="edge"><title>Node24&#45;&gt;Node25</title>
<path fill="none" stroke="midnightblue" d="M584.526,-15.5C592.95,-15.5 601.458,-15.5 609.602,-15.5"/>
<polygon fill="midnightblue" stroke="midnightblue" points="584.322,-12.0001 574.322,-15.5 584.322,-19.0001 584.322,-12.0001"/>
</g>
<!-- Node26 -->
<g id="node6" class="node"><title>Node26</title>
<g id="a_node6"><a xlink:href="MOM__driver_8F90.html#a08fffeb2d8e8acbf9ed4609be6d258c6" target="_top" xlink:title="mom_main">
<polygon fill="white" stroke="black" points="753,-6 753,-25 818,-25 818,-6 753,-6"/>
<text text-anchor="middle" x="785.5" y="-13" font-family="Helvetica,sans-Serif" font-size="10.00">mom_main</text>
</a>
</g>
</g>
<!-- Node25&#45;&gt;Node26 -->
<g id="edge5" class="edge"><title>Node25&#45;&gt;Node26</title>
<path fill="none" stroke="midnightblue" d="M727.206,-15.5C736.134,-15.5 744.983,-15.5 752.958,-15.5"/>
<polygon fill="midnightblue" stroke="midnightblue" points="727.134,-12.0001 717.134,-15.5 727.134,-19.0001 727.134,-12.0001"/>
</g>
</g>
</svg>
