<?xml version="1.0" encoding="UTF-8" standalone="no"?>
<!DOCTYPE svg PUBLIC "-//W3C//DTD SVG 1.1//EN"
 "http://www.w3.org/Graphics/SVG/1.1/DTD/svg11.dtd">
<!-- Generated by graphviz version 2.38.0 (20140413.2041)
 -->
<!-- Title: mom_remapping::remap_via_sub_cells Pages: 1 -->
<svg width="1133pt" height="239pt"
 viewBox="0.00 0.00 1133.00 239.00" xmlns="http://www.w3.org/2000/svg" xmlns:xlink="http://www.w3.org/1999/xlink">
<g id="graph0" class="graph" transform="scale(1 1) rotate(0) translate(4 235)">
<title>mom_remapping::remap_via_sub_cells</title>
<polygon fill="white" stroke="none" points="-4,4 -4,-235 1129,-235 1129,4 -4,4"/>
<!-- Node192 -->
<g id="node1" class="node"><title>Node192</title>
<polygon fill="#bfbfbf" stroke="black" points="0,-156.5 0,-186.5 122,-186.5 122,-156.5 0,-156.5"/>
<text text-anchor="start" x="8" y="-174.5" font-family="Helvetica,sans-Serif" font-size="10.00">mom_remapping::remap</text>
<text text-anchor="middle" x="61" y="-163.5" font-family="Helvetica,sans-Serif" font-size="10.00">_via_sub_cells</text>
</g>
<!-- Node193 -->
<g id="node2" class="node"><title>Node193</title>
<g id="a_node2"><a xlink:href="namespacemom__remapping.html#a9ed32f0c2764a3ead9311670315dc26c" target="_top" xlink:title="Remaps column of values u0 on grid h0 to grid h1 assuming the top edge is aligned. ">
<polygon fill="white" stroke="black" points="158,-96.5 158,-126.5 298,-126.5 298,-96.5 158,-96.5"/>
<text text-anchor="start" x="166" y="-114.5" font-family="Helvetica,sans-Serif" font-size="10.00">mom_remapping::remapping</text>
<text text-anchor="middle" x="228" y="-103.5" font-family="Helvetica,sans-Serif" font-size="10.00">_core_h</text>
</a>
</g>
</g>
<!-- Node192&#45;&gt;Node193 -->
<g id="edge1" class="edge"><title>Node192&#45;&gt;Node193</title>
<path fill="none" stroke="midnightblue" d="M113.342,-152.83C136.604,-144.371 163.74,-134.503 185.663,-126.532"/>
<polygon fill="midnightblue" stroke="midnightblue" points="111.838,-149.653 103.636,-156.359 114.231,-156.231 111.838,-149.653"/>
</g>
<!-- Node209 -->
<g id="node18" class="node"><title>Node209</title>
<g id="a_node18"><a xlink:href="namespacemom__remapping.html#a8b967872b8db2ac7d538991f7f255e56" target="_top" xlink:title="Remaps column of values u0 on grid h0 to implied grid h1 where the interfaces of h1 differ from those...">
<polygon fill="white" stroke="black" points="158,-156.5 158,-186.5 298,-186.5 298,-156.5 158,-156.5"/>
<text text-anchor="start" x="166" y="-174.5" font-family="Helvetica,sans-Serif" font-size="10.00">mom_remapping::remapping</text>
<text text-anchor="middle" x="228" y="-163.5" font-family="Helvetica,sans-Serif" font-size="10.00">_core_w</text>
</a>
</g>
</g>
<!-- Node192&#45;&gt;Node209 -->
<g id="edge19" class="edge"><title>Node192&#45;&gt;Node209</title>
<path fill="none" stroke="midnightblue" d="M132.24,-171.5C140.698,-171.5 149.331,-171.5 157.774,-171.5"/>
<polygon fill="midnightblue" stroke="midnightblue" points="132.036,-168 122.036,-171.5 132.036,-175 132.036,-168"/>
</g>
<!-- Node210 -->
<g id="node19" class="node"><title>Node210</title>
<g id="a_node19"><a xlink:href="namespacemom__remapping.html#a5849f564453d5ed76fb4feffd41eca26" target="_top" xlink:title="Runs unit tests on remapping functions. Should only be called from a single/root thread Returns True ...">
<polygon fill="white" stroke="black" points="334,-200.5 334,-230.5 474,-230.5 474,-200.5 334,-200.5"/>
<text text-anchor="start" x="342" y="-218.5" font-family="Helvetica,sans-Serif" font-size="10.00">mom_remapping::remapping</text>
<text text-anchor="middle" x="404" y="-207.5" font-family="Helvetica,sans-Serif" font-size="10.00">_unit_tests</text>
</a>
</g>
</g>
<!-- Node192&#45;&gt;Node210 -->
<g id="edge23" class="edge"><title>Node192&#45;&gt;Node210</title>
<path fill="none" stroke="midnightblue" d="M125.323,-188.883C136.162,-191.411 147.358,-193.747 158,-195.5 216.953,-205.208 284.699,-210.28 333.989,-212.882"/>
<polygon fill="midnightblue" stroke="midnightblue" points="126.038,-185.455 115.497,-186.518 124.4,-192.26 126.038,-185.455"/>
</g>
<!-- Node194 -->
<g id="node3" class="node"><title>Node194</title>
<g id="a_node3"><a xlink:href="namespacecoord__rho.html#a6f5a56ba973e5e36820222a709614e40" target="_top" xlink:title="coord_rho::build_rho\l_column">
<polygon fill="white" stroke="black" points="352,-96.5 352,-126.5 456,-126.5 456,-96.5 352,-96.5"/>
<text text-anchor="start" x="360" y="-114.5" font-family="Helvetica,sans-Serif" font-size="10.00">coord_rho::build_rho</text>
<text text-anchor="middle" x="404" y="-103.5" font-family="Helvetica,sans-Serif" font-size="10.00">_column</text>
</a>
</g>
</g>
<!-- Node193&#45;&gt;Node194 -->
<g id="edge2" class="edge"><title>Node193&#45;&gt;Node194</title>
<path fill="none" stroke="midnightblue" d="M308.198,-111.5C323,-111.5 338.107,-111.5 351.784,-111.5"/>
<polygon fill="midnightblue" stroke="midnightblue" points="308.019,-108 298.019,-111.5 308.019,-115 308.019,-108"/>
</g>
<!-- Node196 -->
<g id="node5" class="node"><title>Node196</title>
<g id="a_node5"><a xlink:href="namespacemom__wave__speed.html#a72302e356c47c5055ba0b1a8714c772a" target="_top" xlink:title="Calculates the wave speed of the first baroclinic mode. ">
<polygon fill="white" stroke="black" points="510,-3.5 510,-33.5 638,-33.5 638,-3.5 510,-3.5"/>
<text text-anchor="start" x="518" y="-21.5" font-family="Helvetica,sans-Serif" font-size="10.00">mom_wave_speed::wave</text>
<text text-anchor="middle" x="574" y="-10.5" font-family="Helvetica,sans-Serif" font-size="10.00">_speed</text>
</a>
</g>
</g>
<!-- Node193&#45;&gt;Node196 -->
<g id="edge4" class="edge"><title>Node193&#45;&gt;Node196</title>
<path fill="none" stroke="midnightblue" d="M252.15,-89.5853C272.136,-72.1341 302.66,-48.8201 334,-37.5 391.059,-16.89 460.617,-13.5893 509.946,-14.5689"/>
<polygon fill="midnightblue" stroke="midnightblue" points="249.633,-87.1411 244.515,-96.418 254.301,-92.3574 249.633,-87.1411"/>
</g>
<!-- Node203 -->
<g id="node12" class="node"><title>Node203</title>
<g id="a_node12"><a xlink:href="namespacemom__diag__remap.html#a4b76283906971bcb94e85c0ed25f4e7b" target="_top" xlink:title="Remap diagnostic field to alternative vertical grid. ">
<polygon fill="white" stroke="black" points="345,-47.5 345,-77.5 463,-77.5 463,-47.5 345,-47.5"/>
<text text-anchor="start" x="353" y="-65.5" font-family="Helvetica,sans-Serif" font-size="10.00">mom_diag_remap::diag</text>
<text text-anchor="middle" x="404" y="-54.5" font-family="Helvetica,sans-Serif" font-size="10.00">_remap_do_remap</text>
</a>
</g>
</g>
<!-- Node193&#45;&gt;Node203 -->
<g id="edge12" class="edge"><title>Node193&#45;&gt;Node203</title>
<path fill="none" stroke="midnightblue" d="M292.284,-93.6788C311.07,-88.3882 331.455,-82.6478 349.552,-77.5516"/>
<polygon fill="midnightblue" stroke="midnightblue" points="291.302,-90.3189 282.626,-96.3986 293.2,-97.0568 291.302,-90.3189"/>
</g>
<!-- Node204 -->
<g id="node13" class="node"><title>Node204</title>
<g id="a_node13"><a xlink:href="namespacemom__state__initialization.html#a71ee3c056ca59c1c3529a4ec22e09fe3" target="_top" xlink:title="Adjust the layer thicknesses by cutting away the top at the depth where the hydrostatic pressure matc...">
<polygon fill="white" stroke="black" points="343,-145.5 343,-175.5 465,-175.5 465,-145.5 343,-145.5"/>
<text text-anchor="start" x="351" y="-163.5" font-family="Helvetica,sans-Serif" font-size="10.00">mom_state_initialization</text>
<text text-anchor="middle" x="404" y="-152.5" font-family="Helvetica,sans-Serif" font-size="10.00">::cut_off_column_top</text>
</a>
</g>
</g>
<!-- Node193&#45;&gt;Node204 -->
<g id="edge13" class="edge"><title>Node193&#45;&gt;Node204</title>
<path fill="none" stroke="midnightblue" d="M292.284,-129.321C311.07,-134.612 331.455,-140.352 349.552,-145.448"/>
<polygon fill="midnightblue" stroke="midnightblue" points="293.2,-125.943 282.626,-126.601 291.302,-132.681 293.2,-125.943"/>
</g>
<!-- Node195 -->
<g id="node4" class="node"><title>Node195</title>
<g id="a_node4"><a xlink:href="namespacemom__diag__remap.html#a1fb71d2982777f33bcbf183187e1819b" target="_top" xlink:title="Build/update target vertical grids for diagnostic remapping. ">
<polygon fill="white" stroke="black" points="515,-58.5 515,-88.5 633,-88.5 633,-58.5 515,-58.5"/>
<text text-anchor="start" x="523" y="-76.5" font-family="Helvetica,sans-Serif" font-size="10.00">mom_diag_remap::diag</text>
<text text-anchor="middle" x="574" y="-65.5" font-family="Helvetica,sans-Serif" font-size="10.00">_remap_update</text>
</a>
</g>
</g>
<!-- Node194&#45;&gt;Node195 -->
<g id="edge3" class="edge"><title>Node194&#45;&gt;Node195</title>
<path fill="none" stroke="midnightblue" d="M466.523,-97.5841C482.343,-94.0057 499.311,-90.1677 514.949,-86.6307"/>
<polygon fill="midnightblue" stroke="midnightblue" points="465.3,-94.2723 456.318,-99.8923 466.844,-101.1 465.3,-94.2723"/>
</g>
<!-- Node197 -->
<g id="node6" class="node"><title>Node197</title>
<g id="a_node6"><a xlink:href="namespacemom__diagnostics.html#abb6644248c28ab2e952361bfec436063" target="_top" xlink:title="Diagnostics not more naturally calculated elsewhere are computed here. ">
<polygon fill="white" stroke="black" points="674,-0.5 674,-30.5 812,-30.5 812,-0.5 674,-0.5"/>
<text text-anchor="start" x="682" y="-18.5" font-family="Helvetica,sans-Serif" font-size="10.00">mom_diagnostics::calculate</text>
<text text-anchor="middle" x="743" y="-7.5" font-family="Helvetica,sans-Serif" font-size="10.00">_diagnostic_fields</text>
</a>
</g>
</g>
<!-- Node196&#45;&gt;Node197 -->
<g id="edge5" class="edge"><title>Node196&#45;&gt;Node197</title>
<path fill="none" stroke="midnightblue" d="M648.345,-17.1824C656.792,-17.0307 665.379,-16.8764 673.755,-16.726"/>
<polygon fill="midnightblue" stroke="midnightblue" points="648.071,-13.6867 638.136,-17.3658 648.197,-20.6856 648.071,-13.6867"/>
</g>
<!-- Node198 -->
<g id="node7" class="node"><title>Node198</title>
<g id="a_node7"><a xlink:href="namespacemom__lateral__mixing__coeffs.html#af206bc656869b4fc27d4d7e8a15d438e" target="_top" xlink:title="Calculates and stores the non&#45;dimensional resolution functions. ">
<polygon fill="white" stroke="black" points="691,-50 691,-91 795,-91 795,-50 691,-50"/>
<text text-anchor="start" x="699" y="-79" font-family="Helvetica,sans-Serif" font-size="10.00">mom_lateral_mixing</text>
<text text-anchor="start" x="699" y="-68" font-family="Helvetica,sans-Serif" font-size="10.00">_coeffs::calc_resoln</text>
<text text-anchor="middle" x="743" y="-57" font-family="Helvetica,sans-Serif" font-size="10.00">_function</text>
</a>
</g>
</g>
<!-- Node196&#45;&gt;Node198 -->
<g id="edge6" class="edge"><title>Node196&#45;&gt;Node198</title>
<path fill="none" stroke="midnightblue" d="M632.962,-36.5481C651.812,-42.4176 672.583,-48.8852 690.895,-54.587"/>
<polygon fill="midnightblue" stroke="midnightblue" points="633.892,-33.1719 623.303,-33.5406 631.811,-39.8554 633.892,-33.1719"/>
</g>
<!-- Node199 -->
<g id="node8" class="node"><title>Node199</title>
<g id="a_node8"><a xlink:href="namespacemom.html#a4c8332b095c6d295084089aa6b3b678a" target="_top" xlink:title="This subroutine orchestrates the time stepping of MOM. The adiabatic dynamics are stepped by calls to...">
<polygon fill="white" stroke="black" points="856.5,-93 856.5,-112 946.5,-112 946.5,-93 856.5,-93"/>
<text text-anchor="middle" x="901.5" y="-100" font-family="Helvetica,sans-Serif" font-size="10.00">mom::step_mom</text>
</a>
</g>
</g>
<!-- Node198&#45;&gt;Node199 -->
<g id="edge7" class="edge"><title>Node198&#45;&gt;Node199</title>
<path fill="none" stroke="midnightblue" d="M805.17,-83.0076C822.299,-86.51 840.576,-90.2471 856.496,-93.5024"/>
<polygon fill="midnightblue" stroke="midnightblue" points="805.742,-79.5523 795.244,-80.978 804.34,-86.4104 805.742,-79.5523"/>
</g>
<!-- Node201 -->
<g id="node10" class="node"><title>Node201</title>
<g id="a_node10"><a xlink:href="namespacemom.html#ad56e17a755c7078ccea29ccbae4d5803" target="_top" xlink:title="step_offline is the main driver for running tracers offline in MOM6. This has been primarily develope...">
<polygon fill="white" stroke="black" points="854,-55 854,-74 949,-74 949,-55 854,-55"/>
<text text-anchor="middle" x="901.5" y="-62" font-family="Helvetica,sans-Serif" font-size="10.00">mom::step_offline</text>
</a>
</g>
</g>
<!-- Node198&#45;&gt;Node201 -->
<g id="edge9" class="edge"><title>Node198&#45;&gt;Node201</title>
<path fill="none" stroke="midnightblue" d="M805.633,-68.1371C821.704,-67.5209 838.755,-66.8672 853.902,-66.2865"/>
<polygon fill="midnightblue" stroke="midnightblue" points="805.102,-64.6547 795.244,-68.5354 805.371,-71.6496 805.102,-64.6547"/>
</g>
<!-- Node200 -->
<g id="node9" class="node"><title>Node200</title>
<g id="a_node9"><a xlink:href="MOM__driver_8F90.html#a08fffeb2d8e8acbf9ed4609be6d258c6" target="_top" xlink:title="mom_main">
<polygon fill="white" stroke="black" points="1025.5,-96 1025.5,-115 1090.5,-115 1090.5,-96 1025.5,-96"/>
<text text-anchor="middle" x="1058" y="-103" font-family="Helvetica,sans-Serif" font-size="10.00">mom_main</text>
</a>
</g>
</g>
<!-- Node199&#45;&gt;Node200 -->
<g id="edge8" class="edge"><title>Node199&#45;&gt;Node200</title>
<path fill="none" stroke="midnightblue" d="M957.063,-103.559C979.978,-104.004 1005.81,-104.506 1025.48,-104.888"/>
<polygon fill="midnightblue" stroke="midnightblue" points="956.84,-100.055 946.773,-103.36 956.704,-107.053 956.84,-100.055"/>
</g>
<!-- Node201&#45;&gt;Node200 -->
<g id="edge10" class="edge"><title>Node201&#45;&gt;Node200</title>
<path fill="none" stroke="midnightblue" d="M948.253,-76.6415C973.053,-83.2228 1003.08,-91.1909 1025.29,-97.0855"/>
<polygon fill="midnightblue" stroke="midnightblue" points="948.897,-73.1914 938.334,-74.0093 947.101,-79.9572 948.897,-73.1914"/>
</g>
<!-- Node202 -->
<g id="node11" class="node"><title>Node202</title>
<g id="a_node11"><a xlink:href="namespaceocean__model__mod.html#ac9dc1795fc4799d6682f462857b42d62" target="_top" xlink:title="ocean_model_mod::update\l_ocean_model">
<polygon fill="white" stroke="black" points="991,-46.5 991,-76.5 1125,-76.5 1125,-46.5 991,-46.5"/>
<text text-anchor="start" x="999" y="-64.5" font-family="Helvetica,sans-Serif" font-size="10.00">ocean_model_mod::update</text>
<text text-anchor="middle" x="1058" y="-53.5" font-family="Helvetica,sans-Serif" font-size="10.00">_ocean_model</text>
</a>
</g>
</g>
<!-- Node201&#45;&gt;Node202 -->
<g id="edge11" class="edge"><title>Node201&#45;&gt;Node202</title>
<path fill="none" stroke="midnightblue" d="M959.296,-63.3972C969.519,-63.1987 980.257,-62.9902 990.721,-62.787"/>
<polygon fill="midnightblue" stroke="midnightblue" points="959.205,-59.8982 949.274,-63.5918 959.34,-66.8969 959.205,-59.8982"/>
</g>
<!-- Node205 -->
<g id="node14" class="node"><title>Node205</title>
<g id="a_node14"><a xlink:href="namespacemom__state__initialization.html#ac29cd3c6b5de2b36b9690d800ac98a09" target="_top" xlink:title="Adjust the layer thicknesses by cutting away the top of each model column at the depth where the hydr...">
<polygon fill="white" stroke="black" points="513,-107.5 513,-137.5 635,-137.5 635,-107.5 513,-107.5"/>
<text text-anchor="start" x="521" y="-125.5" font-family="Helvetica,sans-Serif" font-size="10.00">mom_state_initialization</text>
<text text-anchor="middle" x="574" y="-114.5" font-family="Helvetica,sans-Serif" font-size="10.00">::trim_for_ice</text>
</a>
</g>
</g>
<!-- Node204&#45;&gt;Node205 -->
<g id="edge14" class="edge"><title>Node204&#45;&gt;Node205</title>
<path fill="none" stroke="midnightblue" d="M475.144,-144.634C487.713,-141.791 500.708,-138.852 512.961,-136.08"/>
<polygon fill="midnightblue" stroke="midnightblue" points="474.159,-141.268 465.177,-146.888 475.703,-148.096 474.159,-141.268"/>
</g>
<!-- Node208 -->
<g id="node17" class="node"><title>Node208</title>
<g id="a_node17"><a xlink:href="namespacemom__state__initialization.html#a5c77bf2b0ea9d28e28b661a2a42d3f88" target="_top" xlink:title="Run simple unit tests. ">
<polygon fill="white" stroke="black" points="513,-156.5 513,-186.5 635,-186.5 635,-156.5 513,-156.5"/>
<text text-anchor="start" x="521" y="-174.5" font-family="Helvetica,sans-Serif" font-size="10.00">mom_state_initialization</text>
<text text-anchor="middle" x="574" y="-163.5" font-family="Helvetica,sans-Serif" font-size="10.00">::mom_state_init_tests</text>
</a>
</g>
</g>
<!-- Node204&#45;&gt;Node208 -->
<g id="edge18" class="edge"><title>Node204&#45;&gt;Node208</title>
<path fill="none" stroke="midnightblue" d="M475.517,-165.117C487.97,-165.933 500.829,-166.775 512.961,-167.569"/>
<polygon fill="midnightblue" stroke="midnightblue" points="475.385,-161.601 465.177,-164.44 474.927,-168.586 475.385,-161.601"/>
</g>
<!-- Node206 -->
<g id="node15" class="node"><title>Node206</title>
<g id="a_node15"><a xlink:href="namespacemom__state__initialization.html#af4e854627c6572332ba3fd895f169321" target="_top" xlink:title="mom_state_initialization\l::mom_initialize_state">
<polygon fill="white" stroke="black" points="682,-120.5 682,-150.5 804,-150.5 804,-120.5 682,-120.5"/>
<text text-anchor="start" x="690" y="-138.5" font-family="Helvetica,sans-Serif" font-size="10.00">mom_state_initialization</text>
<text text-anchor="middle" x="743" y="-127.5" font-family="Helvetica,sans-Serif" font-size="10.00">::mom_initialize_state</text>
</a>
</g>
</g>
<!-- Node205&#45;&gt;Node206 -->
<g id="edge15" class="edge"><title>Node205&#45;&gt;Node206</title>
<path fill="none" stroke="midnightblue" d="M645.359,-127.977C657.478,-128.92 669.977,-129.893 681.798,-130.814"/>
<polygon fill="midnightblue" stroke="midnightblue" points="645.532,-124.48 635.291,-127.193 644.989,-131.459 645.532,-124.48"/>
</g>
<!-- Node207 -->
<g id="node16" class="node"><title>Node207</title>
<g id="a_node16"><a xlink:href="namespacemom.html#a0be2869fef30e1e0604facfe1b41555d" target="_top" xlink:title="This subroutine initializes MOM. ">
<polygon fill="white" stroke="black" points="848,-131 848,-150 955,-150 955,-131 848,-131"/>
<text text-anchor="middle" x="901.5" y="-138" font-family="Helvetica,sans-Serif" font-size="10.00">mom::initialize_mom</text>
</a>
</g>
</g>
<!-- Node206&#45;&gt;Node207 -->
<g id="edge16" class="edge"><title>Node206&#45;&gt;Node207</title>
<path fill="none" stroke="midnightblue" d="M814.297,-137.746C825.542,-138.105 837.009,-138.472 847.755,-138.815"/>
<polygon fill="midnightblue" stroke="midnightblue" points="814.166,-134.24 804.059,-137.419 813.943,-141.236 814.166,-134.24"/>
</g>
<!-- Node207&#45;&gt;Node200 -->
<g id="edge17" class="edge"><title>Node207&#45;&gt;Node200</title>
<path fill="none" stroke="midnightblue" d="M954.504,-128.719C977.902,-123.419 1004.77,-117.332 1025.13,-112.72"/>
<polygon fill="midnightblue" stroke="midnightblue" points="953.697,-125.313 944.718,-130.936 955.244,-132.14 953.697,-125.313"/>
</g>
<!-- Node209&#45;&gt;Node210 -->
<g id="edge20" class="edge"><title>Node209&#45;&gt;Node210</title>
<path fill="none" stroke="midnightblue" d="M298.147,-188.985C313.181,-192.787 328.959,-196.777 343.578,-200.474"/>
<polygon fill="midnightblue" stroke="midnightblue" points="298.947,-185.578 288.394,-186.519 297.231,-192.364 298.947,-185.578"/>
</g>
<!-- Node211 -->
<g id="node20" class="node"><title>Node211</title>
<g id="a_node20"><a xlink:href="namespacemom__unit__tests.html#a71f3a2080872634c14a25a9411b59fe0" target="_top" xlink:title="Calls unit tests for other modules. Note that if a unit test returns true, a FATAL error is triggered...">
<polygon fill="white" stroke="black" points="689,-184.5 689,-214.5 797,-214.5 797,-184.5 689,-184.5"/>
<text text-anchor="start" x="697" y="-202.5" font-family="Helvetica,sans-Serif" font-size="10.00">mom_unit_tests::unit</text>
<text text-anchor="middle" x="743" y="-191.5" font-family="Helvetica,sans-Serif" font-size="10.00">_tests</text>
</a>
</g>
</g>
<!-- Node210&#45;&gt;Node211 -->
<g id="edge21" class="edge"><title>Node210&#45;&gt;Node211</title>
<path fill="none" stroke="midnightblue" d="M484.315,-211.734C547.38,-208.74 633.859,-204.634 688.839,-202.024"/>
<polygon fill="midnightblue" stroke="midnightblue" points="483.833,-208.253 474.01,-212.224 484.165,-215.245 483.833,-208.253"/>
</g>
<!-- Node211&#45;&gt;Node207 -->
<g id="edge22" class="edge"><title>Node211&#45;&gt;Node207</title>
<path fill="none" stroke="midnightblue" d="M793.584,-180.807C820.607,-170.62 852.922,-158.437 874.901,-150.151"/>
<polygon fill="midnightblue" stroke="midnightblue" points="792.019,-177.656 783.896,-184.459 794.488,-184.206 792.019,-177.656"/>
</g>
</g>
</svg>
