<?xml version="1.0" encoding="UTF-8" standalone="no"?>
<!DOCTYPE svg PUBLIC "-//W3C//DTD SVG 1.1//EN"
 "http://www.w3.org/Graphics/SVG/1.1/DTD/svg11.dtd">
<!-- Generated by graphviz version 2.38.0 (20140413.2041)
 -->
<!-- Title: mom_document::doc_function Pages: 1 -->
<svg width="737pt" height="61pt"
 viewBox="0.00 0.00 737.00 61.00" xmlns="http://www.w3.org/2000/svg" xmlns:xlink="http://www.w3.org/1999/xlink">
<g id="graph0" class="graph" transform="scale(1 1) rotate(0) translate(4 57)">
<title>mom_document::doc_function</title>
<polygon fill="white" stroke="none" points="-4,4 -4,-57 733,-57 733,4 -4,4"/>
<!-- Node26 -->
<g id="node1" class="node"><title>Node26</title>
<polygon fill="#bfbfbf" stroke="black" points="0,-6 0,-25 148,-25 148,-6 0,-6"/>
<text text-anchor="middle" x="74" y="-13" font-family="Helvetica,sans-Serif" font-size="10.00">mom_document::doc_function</text>
</g>
<!-- Node27 -->
<g id="node2" class="node"><title>Node27</title>
<g id="a_node2"><a xlink:href="namespacemom__document.html#aab976b6c6c9c01833438d217fca228a4" target="_top" xlink:title="mom_document::open\l_doc_file">
<polygon fill="white" stroke="black" points="184,-0.5 184,-30.5 297,-30.5 297,-0.5 184,-0.5"/>
<text text-anchor="start" x="192" y="-18.5" font-family="Helvetica,sans-Serif" font-size="10.00">mom_document::open</text>
<text text-anchor="middle" x="240.5" y="-7.5" font-family="Helvetica,sans-Serif" font-size="10.00">_doc_file</text>
</a>
</g>
</g>
<!-- Node26&#45;&gt;Node27 -->
<g id="edge1" class="edge"><title>Node26&#45;&gt;Node27</title>
<path fill="none" stroke="midnightblue" d="M148.11,-15.5C156.651,-15.5 165.324,-15.5 173.757,-15.5"/>
<polygon fill="midnightblue" stroke="midnightblue" points="173.897,-19.0001 183.897,-15.5 173.897,-12.0001 173.897,-19.0001"/>
</g>
<!-- Node28 -->
<g id="node3" class="node"><title>Node28</title>
<g id="a_node3"><a xlink:href="namespacemom__document.html#a5f2661445a72a7d0f774677e91366db5" target="_top" xlink:title="mom_document::find\l_unused_unit_number">
<polygon fill="white" stroke="black" points="333,-22.5 333,-52.5 445,-52.5 445,-22.5 333,-22.5"/>
<text text-anchor="start" x="341" y="-40.5" font-family="Helvetica,sans-Serif" font-size="10.00">mom_document::find</text>
<text text-anchor="middle" x="389" y="-29.5" font-family="Helvetica,sans-Serif" font-size="10.00">_unused_unit_number</text>
</a>
</g>
</g>
<!-- Node27&#45;&gt;Node28 -->
<g id="edge2" class="edge"><title>Node27&#45;&gt;Node28</title>
<path fill="none" stroke="midnightblue" d="M297.303,-23.88C305.672,-25.1368 314.364,-26.4421 322.906,-27.7248"/>
<polygon fill="midnightblue" stroke="midnightblue" points="322.428,-31.1921 332.836,-29.2161 323.467,-24.2697 322.428,-31.1921"/>
</g>
<!-- Node29 -->
<g id="node4" class="node"><title>Node29</title>
<g id="a_node4"><a xlink:href="namespacemom__error__handler.html#a460cfb79a06c29fc249952c2a3710d67" target="_top" xlink:title="mom_error_handler::\lmom_error">
<polygon fill="white" stroke="black" points="481,-0.5 481,-30.5 587,-30.5 587,-0.5 481,-0.5"/>
<text text-anchor="start" x="489" y="-18.5" font-family="Helvetica,sans-Serif" font-size="10.00">mom_error_handler::</text>
<text text-anchor="middle" x="534" y="-7.5" font-family="Helvetica,sans-Serif" font-size="10.00">mom_error</text>
</a>
</g>
</g>
<!-- Node27&#45;&gt;Node29 -->
<g id="edge5" class="edge"><title>Node27&#45;&gt;Node29</title>
<path fill="none" stroke="midnightblue" d="M297.142,-14.0894C308.978,-13.8438 321.402,-13.6267 333,-13.5 382.775,-12.9561 395.225,-12.9345 445,-13.5 453.347,-13.5948 462.139,-13.7403 470.805,-13.9104"/>
<polygon fill="midnightblue" stroke="midnightblue" points="470.816,-17.4113 480.887,-14.1199 470.962,-10.4128 470.816,-17.4113"/>
</g>
<!-- Node28&#45;&gt;Node29 -->
<g id="edge3" class="edge"><title>Node28&#45;&gt;Node29</title>
<path fill="none" stroke="midnightblue" d="M445.288,-28.9942C453.557,-27.722 462.132,-26.4028 470.538,-25.1096"/>
<polygon fill="midnightblue" stroke="midnightblue" points="471.323,-28.53 480.675,-23.55 470.259,-21.6114 471.323,-28.53"/>
</g>
<!-- Node30 -->
<g id="node5" class="node"><title>Node30</title>
<g id="a_node5"><a xlink:href="namespacemom__error__handler.html#ad5f00a53059c72fe2332d1436c80ca71" target="_top" xlink:title="mom_error_handler::\lis_root_pe">
<polygon fill="white" stroke="black" points="623,-0.5 623,-30.5 729,-30.5 729,-0.5 623,-0.5"/>
<text text-anchor="start" x="631" y="-18.5" font-family="Helvetica,sans-Serif" font-size="10.00">mom_error_handler::</text>
<text text-anchor="middle" x="676" y="-7.5" font-family="Helvetica,sans-Serif" font-size="10.00">is_root_pe</text>
</a>
</g>
</g>
<!-- Node29&#45;&gt;Node30 -->
<g id="edge4" class="edge"><title>Node29&#45;&gt;Node30</title>
<path fill="none" stroke="midnightblue" d="M587.131,-15.5C595.421,-15.5 604.07,-15.5 612.568,-15.5"/>
<polygon fill="midnightblue" stroke="midnightblue" points="612.826,-19.0001 622.826,-15.5 612.826,-12.0001 612.826,-19.0001"/>
</g>
</g>
</svg>
