<?xml version="1.0" encoding="UTF-8" standalone="no"?>
<!DOCTYPE svg PUBLIC "-//W3C//DTD SVG 1.1//EN"
 "http://www.w3.org/Graphics/SVG/1.1/DTD/svg11.dtd">
<!-- Generated by graphviz version 2.38.0 (20140413.2041)
 -->
<!-- Title: mom_remapping::build_reconstructions_1d Pages: 1 -->
<svg width="744pt" height="581pt"
 viewBox="0.00 0.00 744.00 581.28" xmlns="http://www.w3.org/2000/svg" xmlns:xlink="http://www.w3.org/1999/xlink">
<g id="graph0" class="graph" transform="scale(1 1) rotate(0) translate(4 577.276)">
<title>mom_remapping::build_reconstructions_1d</title>
<polygon fill="white" stroke="none" points="-4,4 -4,-577.276 740,-577.276 740,4 -4,4"/>
<!-- Node24 -->
<g id="node1" class="node"><title>Node24</title>
<polygon fill="#bfbfbf" stroke="black" points="0,-269.5 0,-299.5 115,-299.5 115,-269.5 0,-269.5"/>
<text text-anchor="start" x="8" y="-287.5" font-family="Helvetica,sans-Serif" font-size="10.00">mom_remapping::build</text>
<text text-anchor="middle" x="57.5" y="-276.5" font-family="Helvetica,sans-Serif" font-size="10.00">_reconstructions_1d</text>
</g>
<!-- Node25 -->
<g id="node2" class="node"><title>Node25</title>
<g id="a_node2"><a xlink:href="namespaceregrid__edge__slopes.html#a378dcb603968664e58d65e8ed892ec69" target="_top" xlink:title="regrid_edge_slopes\l::edge_slopes_implicit_h3">
<polygon fill="white" stroke="black" points="155.5,-392.5 155.5,-422.5 284.5,-422.5 284.5,-392.5 155.5,-392.5"/>
<text text-anchor="start" x="163.5" y="-410.5" font-family="Helvetica,sans-Serif" font-size="10.00">regrid_edge_slopes</text>
<text text-anchor="middle" x="220" y="-399.5" font-family="Helvetica,sans-Serif" font-size="10.00">::edge_slopes_implicit_h3</text>
</a>
</g>
</g>
<!-- Node24&#45;&gt;Node25 -->
<g id="edge1" class="edge"><title>Node24&#45;&gt;Node25</title>
<path fill="none" stroke="midnightblue" d="M69.008,-299.725C84.5799,-321.232 115.765,-360.45 151,-383.5 153.406,-385.074 155.928,-386.559 158.526,-387.958"/>
<polygon fill="midnightblue" stroke="midnightblue" points="157.068,-391.141 167.589,-392.388 160.142,-384.852 157.068,-391.141"/>
</g>
<!-- Node27 -->
<g id="node4" class="node"><title>Node27</title>
<g id="a_node4"><a xlink:href="namespacemom__error__handler.html#a460cfb79a06c29fc249952c2a3710d67" target="_top" xlink:title="mom_error_handler::\lmom_error">
<polygon fill="white" stroke="black" points="484,-512.5 484,-542.5 590,-542.5 590,-512.5 484,-512.5"/>
<text text-anchor="start" x="492" y="-530.5" font-family="Helvetica,sans-Serif" font-size="10.00">mom_error_handler::</text>
<text text-anchor="middle" x="537" y="-519.5" font-family="Helvetica,sans-Serif" font-size="10.00">mom_error</text>
</a>
</g>
</g>
<!-- Node24&#45;&gt;Node27 -->
<g id="edge19" class="edge"><title>Node24&#45;&gt;Node27</title>
<path fill="none" stroke="midnightblue" d="M58.7322,-299.551C60.3334,-344.117 71.845,-475.698 151,-530.5 251.003,-599.736 403.361,-569.029 483.119,-545.478"/>
<polygon fill="midnightblue" stroke="midnightblue" points="484.387,-548.751 492.944,-542.504 482.359,-542.052 484.387,-548.751"/>
</g>
<!-- Node31 -->
<g id="node8" class="node"><title>Node31</title>
<g id="a_node8"><a xlink:href="namespaceregrid__edge__slopes.html#a32fc906bf14cfb859703b4a1a7c46a9c" target="_top" xlink:title="regrid_edge_slopes\l::edge_slopes_implicit_h5">
<polygon fill="white" stroke="black" points="155.5,-343.5 155.5,-373.5 284.5,-373.5 284.5,-343.5 155.5,-343.5"/>
<text text-anchor="start" x="163.5" y="-361.5" font-family="Helvetica,sans-Serif" font-size="10.00">regrid_edge_slopes</text>
<text text-anchor="middle" x="220" y="-350.5" font-family="Helvetica,sans-Serif" font-size="10.00">::edge_slopes_implicit_h5</text>
</a>
</g>
</g>
<!-- Node24&#45;&gt;Node31 -->
<g id="edge7" class="edge"><title>Node24&#45;&gt;Node31</title>
<path fill="none" stroke="midnightblue" d="M83.8746,-299.613C102.163,-310.157 127.637,-324.139 151,-334.5 155.102,-336.319 159.389,-338.099 163.727,-339.816"/>
<polygon fill="midnightblue" stroke="midnightblue" points="162.668,-343.158 173.258,-343.463 165.169,-336.62 162.668,-343.158"/>
</g>
<!-- Node32 -->
<g id="node9" class="node"><title>Node32</title>
<g id="a_node9"><a xlink:href="namespaceregrid__edge__values.html#a2c2460b31b6de501eed3cb7db07a4be5" target="_top" xlink:title="regrid_edge_values\l::edge_values_implicit_h4">
<polygon fill="white" stroke="black" points="155.5,-490.5 155.5,-520.5 284.5,-520.5 284.5,-490.5 155.5,-490.5"/>
<text text-anchor="start" x="163.5" y="-508.5" font-family="Helvetica,sans-Serif" font-size="10.00">regrid_edge_values</text>
<text text-anchor="middle" x="220" y="-497.5" font-family="Helvetica,sans-Serif" font-size="10.00">::edge_values_implicit_h4</text>
</a>
</g>
</g>
<!-- Node24&#45;&gt;Node32 -->
<g id="edge11" class="edge"><title>Node24&#45;&gt;Node32</title>
<path fill="none" stroke="midnightblue" d="M61.4397,-299.717C69.2879,-336.316 94.1289,-430.034 151,-481.5 152.308,-482.684 153.679,-483.81 155.1,-484.882"/>
<polygon fill="midnightblue" stroke="midnightblue" points="153.425,-487.966 163.727,-490.437 157.215,-482.08 153.425,-487.966"/>
</g>
<!-- Node33 -->
<g id="node10" class="node"><title>Node33</title>
<g id="a_node10"><a xlink:href="namespaceregrid__edge__values.html#a6c14843c556353d86f2efb4c7c74c9f5" target="_top" xlink:title="regrid_edge_values\l::edge_values_implicit_h6">
<polygon fill="white" stroke="black" points="155.5,-441.5 155.5,-471.5 284.5,-471.5 284.5,-441.5 155.5,-441.5"/>
<text text-anchor="start" x="163.5" y="-459.5" font-family="Helvetica,sans-Serif" font-size="10.00">regrid_edge_values</text>
<text text-anchor="middle" x="220" y="-448.5" font-family="Helvetica,sans-Serif" font-size="10.00">::edge_values_implicit_h6</text>
</a>
</g>
</g>
<!-- Node24&#45;&gt;Node33 -->
<g id="edge15" class="edge"><title>Node24&#45;&gt;Node33</title>
<path fill="none" stroke="midnightblue" d="M64.0782,-299.868C75.6636,-329.698 105.136,-395.733 151,-432.5 152.746,-433.9 154.58,-435.221 156.48,-436.468"/>
<polygon fill="midnightblue" stroke="midnightblue" points="154.765,-439.519 165.178,-441.472 158.256,-433.451 154.765,-439.519"/>
</g>
<!-- Node34 -->
<g id="node11" class="node"><title>Node34</title>
<g id="a_node11"><a xlink:href="namespacepcm__functions.html#a273c33619766b17e1bea2f9bbc1d5e1b" target="_top" xlink:title="pcm_functions::pcm\l_reconstruction">
<polygon fill="white" stroke="black" points="167.5,-294.5 167.5,-324.5 272.5,-324.5 272.5,-294.5 167.5,-294.5"/>
<text text-anchor="start" x="175.5" y="-312.5" font-family="Helvetica,sans-Serif" font-size="10.00">pcm_functions::pcm</text>
<text text-anchor="middle" x="220" y="-301.5" font-family="Helvetica,sans-Serif" font-size="10.00">_reconstruction</text>
</a>
</g>
</g>
<!-- Node24&#45;&gt;Node34 -->
<g id="edge20" class="edge"><title>Node24&#45;&gt;Node34</title>
<path fill="none" stroke="midnightblue" d="M115.086,-293.314C128.812,-295.452 143.553,-297.748 157.494,-299.92"/>
<polygon fill="midnightblue" stroke="midnightblue" points="157.058,-303.394 167.478,-301.475 158.136,-296.477 157.058,-303.394"/>
</g>
<!-- Node35 -->
<g id="node12" class="node"><title>Node35</title>
<g id="a_node12"><a xlink:href="namespaceplm__functions.html#a66dd52e70d72fb5830f9c4fb16efb2e8" target="_top" xlink:title="plm_functions::plm\l_boundary_extrapolation">
<polygon fill="white" stroke="black" points="159,-245.5 159,-275.5 281,-275.5 281,-245.5 159,-245.5"/>
<text text-anchor="start" x="167" y="-263.5" font-family="Helvetica,sans-Serif" font-size="10.00">plm_functions::plm</text>
<text text-anchor="middle" x="220" y="-252.5" font-family="Helvetica,sans-Serif" font-size="10.00">_boundary_extrapolation</text>
</a>
</g>
</g>
<!-- Node24&#45;&gt;Node35 -->
<g id="edge21" class="edge"><title>Node24&#45;&gt;Node35</title>
<path fill="none" stroke="midnightblue" d="M115.086,-276.038C125.935,-274.416 137.417,-272.699 148.637,-271.022"/>
<polygon fill="midnightblue" stroke="midnightblue" points="149.47,-274.436 158.842,-269.496 148.435,-267.513 149.47,-274.436"/>
</g>
<!-- Node36 -->
<g id="node13" class="node"><title>Node36</title>
<g id="a_node13"><a xlink:href="namespaceplm__functions.html#abf6acfcb1bef51f0c1f8682de53782c4" target="_top" xlink:title="plm_functions::plm\l_reconstruction">
<polygon fill="white" stroke="black" points="170.5,-196.5 170.5,-226.5 269.5,-226.5 269.5,-196.5 170.5,-196.5"/>
<text text-anchor="start" x="178.5" y="-214.5" font-family="Helvetica,sans-Serif" font-size="10.00">plm_functions::plm</text>
<text text-anchor="middle" x="220" y="-203.5" font-family="Helvetica,sans-Serif" font-size="10.00">_reconstruction</text>
</a>
</g>
</g>
<!-- Node24&#45;&gt;Node36 -->
<g id="edge22" class="edge"><title>Node24&#45;&gt;Node36</title>
<path fill="none" stroke="midnightblue" d="M84.7015,-269.284C102.947,-259.023 128.032,-245.571 151,-235.5 155.11,-233.698 159.402,-231.93 163.744,-230.222"/>
<polygon fill="midnightblue" stroke="midnightblue" points="165.182,-233.42 173.281,-226.589 162.69,-226.879 165.182,-233.42"/>
</g>
<!-- Node37 -->
<g id="node14" class="node"><title>Node37</title>
<g id="a_node14"><a xlink:href="namespaceppm__functions.html#aaf88d77ece3a30843c730fd2d57c517f" target="_top" xlink:title="ppm_functions::ppm\l_boundary_extrapolation">
<polygon fill="white" stroke="black" points="159,-147.5 159,-177.5 281,-177.5 281,-147.5 159,-147.5"/>
<text text-anchor="start" x="167" y="-165.5" font-family="Helvetica,sans-Serif" font-size="10.00">ppm_functions::ppm</text>
<text text-anchor="middle" x="220" y="-154.5" font-family="Helvetica,sans-Serif" font-size="10.00">_boundary_extrapolation</text>
</a>
</g>
</g>
<!-- Node24&#45;&gt;Node37 -->
<g id="edge23" class="edge"><title>Node24&#45;&gt;Node37</title>
<path fill="none" stroke="midnightblue" d="M69.0437,-269.434C84.6591,-248.151 115.896,-209.337 151,-186.5 153.41,-184.932 155.936,-183.452 158.536,-182.057"/>
<polygon fill="midnightblue" stroke="midnightblue" points="160.15,-185.164 167.606,-177.637 157.083,-178.871 160.15,-185.164"/>
</g>
<!-- Node38 -->
<g id="node15" class="node"><title>Node38</title>
<g id="a_node15"><a xlink:href="namespaceppm__functions.html#a97e2144c7499aacd90858788f1312432" target="_top" xlink:title="Builds quadratic polynomials coefficients from cell mean and edge values. ">
<polygon fill="white" stroke="black" points="167.5,-98.5 167.5,-128.5 272.5,-128.5 272.5,-98.5 167.5,-98.5"/>
<text text-anchor="start" x="175.5" y="-116.5" font-family="Helvetica,sans-Serif" font-size="10.00">ppm_functions::ppm</text>
<text text-anchor="middle" x="220" y="-105.5" font-family="Helvetica,sans-Serif" font-size="10.00">_reconstruction</text>
</a>
</g>
</g>
<!-- Node24&#45;&gt;Node38 -->
<g id="edge24" class="edge"><title>Node24&#45;&gt;Node38</title>
<path fill="none" stroke="midnightblue" d="M64.1076,-269.236C75.7444,-239.608 105.303,-174.019 151,-137.5 153.292,-135.668 155.735,-133.971 158.281,-132.398"/>
<polygon fill="midnightblue" stroke="midnightblue" points="160.149,-135.367 167.268,-127.52 156.809,-129.214 160.149,-135.367"/>
</g>
<!-- Node42 -->
<g id="node19" class="node"><title>Node42</title>
<g id="a_node19"><a xlink:href="namespacepqm__functions.html#ae2c3bd1b82cddbe1bbb0e93e83d93e48" target="_top" xlink:title="pqm_functions::pqm\l_boundary_extrapolation_v1">
<polygon fill="white" stroke="black" points="151,-0.5 151,-30.5 289,-30.5 289,-0.5 151,-0.5"/>
<text text-anchor="start" x="159" y="-18.5" font-family="Helvetica,sans-Serif" font-size="10.00">pqm_functions::pqm</text>
<text text-anchor="middle" x="220" y="-7.5" font-family="Helvetica,sans-Serif" font-size="10.00">_boundary_extrapolation_v1</text>
</a>
</g>
</g>
<!-- Node24&#45;&gt;Node42 -->
<g id="edge28" class="edge"><title>Node24&#45;&gt;Node42</title>
<path fill="none" stroke="midnightblue" d="M59.841,-269.478C64.4089,-227.2 83.0835,-105.958 151,-39.5 152.091,-38.4329 153.231,-37.413 154.415,-36.4382"/>
<polygon fill="midnightblue" stroke="midnightblue" points="156.555,-39.2138 162.776,-30.6379 152.565,-33.4623 156.555,-39.2138"/>
</g>
<!-- Node43 -->
<g id="node20" class="node"><title>Node43</title>
<g id="a_node20"><a xlink:href="namespacepqm__functions.html#ada7e1a8d9d70b5b78b5e2dfddb5ffa43" target="_top" xlink:title="pqm_functions::pqm\l_reconstruction">
<polygon fill="white" stroke="black" points="167.5,-49.5 167.5,-79.5 272.5,-79.5 272.5,-49.5 167.5,-49.5"/>
<text text-anchor="start" x="175.5" y="-67.5" font-family="Helvetica,sans-Serif" font-size="10.00">pqm_functions::pqm</text>
<text text-anchor="middle" x="220" y="-56.5" font-family="Helvetica,sans-Serif" font-size="10.00">_reconstruction</text>
</a>
</g>
</g>
<!-- Node24&#45;&gt;Node43 -->
<g id="edge29" class="edge"><title>Node24&#45;&gt;Node43</title>
<path fill="none" stroke="midnightblue" d="M61.4637,-269.359C69.365,-232.943 94.3151,-139.697 151,-88.5 153.34,-86.3864 155.878,-84.4565 158.552,-82.6944"/>
<polygon fill="midnightblue" stroke="midnightblue" points="160.517,-85.6036 167.481,-77.6191 157.058,-79.5181 160.517,-85.6036"/>
</g>
<!-- Node26 -->
<g id="node3" class="node"><title>Node26</title>
<g id="a_node3"><a xlink:href="namespaceregrid__solvers.html#a8130a338b59de62b00f68da4204568ad" target="_top" xlink:title="regrid_solvers::solve\l_linear_system">
<polygon fill="white" stroke="black" points="331,-490.5 331,-520.5 438,-520.5 438,-490.5 331,-490.5"/>
<text text-anchor="start" x="339" y="-508.5" font-family="Helvetica,sans-Serif" font-size="10.00">regrid_solvers::solve</text>
<text text-anchor="middle" x="384.5" y="-497.5" font-family="Helvetica,sans-Serif" font-size="10.00">_linear_system</text>
</a>
</g>
</g>
<!-- Node25&#45;&gt;Node26 -->
<g id="edge2" class="edge"><title>Node25&#45;&gt;Node26</title>
<path fill="none" stroke="midnightblue" d="M272.116,-422.502C278.09,-425.333 283.873,-428.645 289,-432.5 310.599,-448.741 303.705,-464.862 325,-481.5 326.757,-482.873 328.604,-484.179 330.514,-485.42"/>
<polygon fill="midnightblue" stroke="midnightblue" points="328.816,-488.481 339.225,-490.454 332.318,-482.42 328.816,-488.481"/>
</g>
<!-- Node29 -->
<g id="node6" class="node"><title>Node29</title>
<g id="a_node6"><a xlink:href="namespacepolynomial__functions.html#aed77465c5ca9937dab06fdb5f94eba39" target="_top" xlink:title="polynomial_functions\l::evaluation_polynomial">
<polygon fill="white" stroke="black" points="325,-441.5 325,-471.5 444,-471.5 444,-441.5 325,-441.5"/>
<text text-anchor="start" x="333" y="-459.5" font-family="Helvetica,sans-Serif" font-size="10.00">polynomial_functions</text>
<text text-anchor="middle" x="384.5" y="-448.5" font-family="Helvetica,sans-Serif" font-size="10.00">::evaluation_polynomial</text>
</a>
</g>
</g>
<!-- Node25&#45;&gt;Node29 -->
<g id="edge5" class="edge"><title>Node25&#45;&gt;Node29</title>
<path fill="none" stroke="midnightblue" d="M271.081,-422.601C287.686,-427.608 306.337,-433.232 323.604,-438.439"/>
<polygon fill="midnightblue" stroke="midnightblue" points="322.999,-441.912 333.584,-441.448 325.02,-435.21 322.999,-441.912"/>
</g>
<!-- Node30 -->
<g id="node7" class="node"><title>Node30</title>
<g id="a_node7"><a xlink:href="namespaceregrid__solvers.html#a0d5c3cff8f31429b0a2c6d267e8b345d" target="_top" xlink:title="regrid_solvers::solve\l_tridiagonal_system">
<polygon fill="white" stroke="black" points="331,-392.5 331,-422.5 438,-422.5 438,-392.5 331,-392.5"/>
<text text-anchor="start" x="339" y="-410.5" font-family="Helvetica,sans-Serif" font-size="10.00">regrid_solvers::solve</text>
<text text-anchor="middle" x="384.5" y="-399.5" font-family="Helvetica,sans-Serif" font-size="10.00">_tridiagonal_system</text>
</a>
</g>
</g>
<!-- Node25&#45;&gt;Node30 -->
<g id="edge6" class="edge"><title>Node25&#45;&gt;Node30</title>
<path fill="none" stroke="midnightblue" d="M284.758,-407.5C296.587,-407.5 308.935,-407.5 320.733,-407.5"/>
<polygon fill="midnightblue" stroke="midnightblue" points="320.934,-411 330.934,-407.5 320.934,-404 320.934,-411"/>
</g>
<!-- Node26&#45;&gt;Node27 -->
<g id="edge3" class="edge"><title>Node26&#45;&gt;Node27</title>
<path fill="none" stroke="midnightblue" d="M438.138,-513.195C449.611,-514.872 461.857,-516.662 473.666,-518.388"/>
<polygon fill="midnightblue" stroke="midnightblue" points="473.499,-521.901 483.9,-519.884 474.512,-514.974 473.499,-521.901"/>
</g>
<!-- Node28 -->
<g id="node5" class="node"><title>Node28</title>
<g id="a_node5"><a xlink:href="namespacemom__error__handler.html#ad5f00a53059c72fe2332d1436c80ca71" target="_top" xlink:title="mom_error_handler::\lis_root_pe">
<polygon fill="white" stroke="black" points="630,-512.5 630,-542.5 736,-542.5 736,-512.5 630,-512.5"/>
<text text-anchor="start" x="638" y="-530.5" font-family="Helvetica,sans-Serif" font-size="10.00">mom_error_handler::</text>
<text text-anchor="middle" x="683" y="-519.5" font-family="Helvetica,sans-Serif" font-size="10.00">is_root_pe</text>
</a>
</g>
</g>
<!-- Node27&#45;&gt;Node28 -->
<g id="edge4" class="edge"><title>Node27&#45;&gt;Node28</title>
<path fill="none" stroke="midnightblue" d="M590.395,-527.5C599.944,-527.5 609.992,-527.5 619.792,-527.5"/>
<polygon fill="midnightblue" stroke="midnightblue" points="619.885,-531 629.885,-527.5 619.885,-524 619.885,-531"/>
</g>
<!-- Node31&#45;&gt;Node26 -->
<g id="edge8" class="edge"><title>Node31&#45;&gt;Node26</title>
<path fill="none" stroke="midnightblue" d="M275.947,-373.677C280.718,-376.43 285.176,-379.675 289,-383.5 321.806,-416.315 292.806,-448.084 325,-481.5 325.921,-482.456 326.886,-483.375 327.888,-484.259"/>
<polygon fill="midnightblue" stroke="midnightblue" points="326.067,-487.265 336.199,-490.364 330.211,-481.623 326.067,-487.265"/>
</g>
<!-- Node31&#45;&gt;Node29 -->
<g id="edge9" class="edge"><title>Node31&#45;&gt;Node29</title>
<path fill="none" stroke="midnightblue" d="M272.116,-373.502C278.09,-376.333 283.873,-379.645 289,-383.5 310.599,-399.741 303.705,-415.862 325,-432.5 326.757,-433.873 328.604,-435.179 330.514,-436.42"/>
<polygon fill="midnightblue" stroke="midnightblue" points="328.816,-439.481 339.225,-441.454 332.318,-433.42 328.816,-439.481"/>
</g>
<!-- Node31&#45;&gt;Node30 -->
<g id="edge10" class="edge"><title>Node31&#45;&gt;Node30</title>
<path fill="none" stroke="midnightblue" d="M271.081,-373.601C287.686,-378.608 306.337,-384.232 323.604,-389.439"/>
<polygon fill="midnightblue" stroke="midnightblue" points="322.999,-392.912 333.584,-392.448 325.02,-386.21 322.999,-392.912"/>
</g>
<!-- Node32&#45;&gt;Node26 -->
<g id="edge12" class="edge"><title>Node32&#45;&gt;Node26</title>
<path fill="none" stroke="midnightblue" d="M284.758,-505.5C296.587,-505.5 308.935,-505.5 320.733,-505.5"/>
<polygon fill="midnightblue" stroke="midnightblue" points="320.934,-509 330.934,-505.5 320.934,-502 320.934,-509"/>
</g>
<!-- Node32&#45;&gt;Node29 -->
<g id="edge13" class="edge"><title>Node32&#45;&gt;Node29</title>
<path fill="none" stroke="midnightblue" d="M271.081,-490.399C287.686,-485.392 306.337,-479.768 323.604,-474.561"/>
<polygon fill="midnightblue" stroke="midnightblue" points="325.02,-477.79 333.584,-471.552 322.999,-471.088 325.02,-477.79"/>
</g>
<!-- Node32&#45;&gt;Node30 -->
<g id="edge14" class="edge"><title>Node32&#45;&gt;Node30</title>
<path fill="none" stroke="midnightblue" d="M273.865,-490.472C279.216,-487.904 284.375,-484.931 289,-481.5 310.704,-465.4 303.827,-449.292 325,-432.5 327.082,-430.849 329.29,-429.287 331.581,-427.812"/>
<polygon fill="midnightblue" stroke="midnightblue" points="333.813,-430.567 340.743,-422.553 330.328,-424.496 333.813,-430.567"/>
</g>
<!-- Node33&#45;&gt;Node26 -->
<g id="edge16" class="edge"><title>Node33&#45;&gt;Node26</title>
<path fill="none" stroke="midnightblue" d="M271.081,-471.601C287.686,-476.608 306.337,-482.232 323.604,-487.439"/>
<polygon fill="midnightblue" stroke="midnightblue" points="322.999,-490.912 333.584,-490.448 325.02,-484.21 322.999,-490.912"/>
</g>
<!-- Node33&#45;&gt;Node29 -->
<g id="edge17" class="edge"><title>Node33&#45;&gt;Node29</title>
<path fill="none" stroke="midnightblue" d="M284.758,-456.5C294.591,-456.5 304.783,-456.5 314.719,-456.5"/>
<polygon fill="midnightblue" stroke="midnightblue" points="314.957,-460 324.957,-456.5 314.957,-453 314.957,-460"/>
</g>
<!-- Node33&#45;&gt;Node30 -->
<g id="edge18" class="edge"><title>Node33&#45;&gt;Node30</title>
<path fill="none" stroke="midnightblue" d="M271.081,-441.399C287.686,-436.392 306.337,-430.768 323.604,-425.561"/>
<polygon fill="midnightblue" stroke="midnightblue" points="325.02,-428.79 333.584,-422.552 322.999,-422.088 325.02,-428.79"/>
</g>
<!-- Node39 -->
<g id="node16" class="node"><title>Node39</title>
<g id="a_node16"><a xlink:href="namespaceppm__functions.html#a89920c90b84f0b241c5a6d65fe2870b9" target="_top" xlink:title="Adjusts edge values using the standard PPM limiter (Colella &amp; Woodward, JCP 1984) after first checkin...">
<polygon fill="white" stroke="black" points="332,-98.5 332,-128.5 437,-128.5 437,-98.5 332,-98.5"/>
<text text-anchor="start" x="340" y="-116.5" font-family="Helvetica,sans-Serif" font-size="10.00">ppm_functions::ppm</text>
<text text-anchor="middle" x="384.5" y="-105.5" font-family="Helvetica,sans-Serif" font-size="10.00">_limiter_standard</text>
</a>
</g>
</g>
<!-- Node38&#45;&gt;Node39 -->
<g id="edge25" class="edge"><title>Node38&#45;&gt;Node39</title>
<path fill="none" stroke="midnightblue" d="M272.863,-113.5C288.33,-113.5 305.44,-113.5 321.487,-113.5"/>
<polygon fill="midnightblue" stroke="midnightblue" points="321.851,-117 331.851,-113.5 321.851,-110 321.851,-117"/>
</g>
<!-- Node40 -->
<g id="node17" class="node"><title>Node40</title>
<g id="a_node17"><a xlink:href="namespaceregrid__edge__values.html#aa204fe78ee22cae62f2b7f1bc76151a9" target="_top" xlink:title="regrid_edge_values\l::bound_edge_values">
<polygon fill="white" stroke="black" points="482.5,-46.5 482.5,-76.5 591.5,-76.5 591.5,-46.5 482.5,-46.5"/>
<text text-anchor="start" x="490.5" y="-64.5" font-family="Helvetica,sans-Serif" font-size="10.00">regrid_edge_values</text>
<text text-anchor="middle" x="537" y="-53.5" font-family="Helvetica,sans-Serif" font-size="10.00">::bound_edge_values</text>
</a>
</g>
</g>
<!-- Node39&#45;&gt;Node40 -->
<g id="edge26" class="edge"><title>Node39&#45;&gt;Node40</title>
<path fill="none" stroke="midnightblue" d="M429.031,-98.4594C445.878,-92.6385 465.322,-85.9205 482.973,-79.8216"/>
<polygon fill="midnightblue" stroke="midnightblue" points="484.258,-83.0806 492.567,-76.5068 481.972,-76.4644 484.258,-83.0806"/>
</g>
<!-- Node41 -->
<g id="node18" class="node"><title>Node41</title>
<g id="a_node18"><a xlink:href="namespaceregrid__edge__values.html#acbdacbbf7212e538bb52a9729fc949a7" target="_top" xlink:title="regrid_edge_values\l::check_discontinuous\l_edge_values">
<polygon fill="white" stroke="black" points="480,-96 480,-137 594,-137 594,-96 480,-96"/>
<text text-anchor="start" x="488" y="-125" font-family="Helvetica,sans-Serif" font-size="10.00">regrid_edge_values</text>
<text text-anchor="start" x="488" y="-114" font-family="Helvetica,sans-Serif" font-size="10.00">::check_discontinuous</text>
<text text-anchor="middle" x="537" y="-103" font-family="Helvetica,sans-Serif" font-size="10.00">_edge_values</text>
</a>
</g>
</g>
<!-- Node39&#45;&gt;Node41 -->
<g id="edge27" class="edge"><title>Node39&#45;&gt;Node41</title>
<path fill="none" stroke="midnightblue" d="M437.294,-114.532C447.732,-114.741 458.84,-114.962 469.695,-115.178"/>
<polygon fill="midnightblue" stroke="midnightblue" points="469.928,-118.684 479.996,-115.384 470.068,-111.685 469.928,-118.684"/>
</g>
<!-- Node44 -->
<g id="node21" class="node"><title>Node44</title>
<g id="a_node21"><a xlink:href="namespacepqm__functions.html#a0ce0d64922453de1312adec7b8746544" target="_top" xlink:title="pqm_functions::pqm\l_limiter">
<polygon fill="white" stroke="black" points="332,-49.5 332,-79.5 437,-79.5 437,-49.5 332,-49.5"/>
<text text-anchor="start" x="340" y="-67.5" font-family="Helvetica,sans-Serif" font-size="10.00">pqm_functions::pqm</text>
<text text-anchor="middle" x="384.5" y="-56.5" font-family="Helvetica,sans-Serif" font-size="10.00">_limiter</text>
</a>
</g>
</g>
<!-- Node43&#45;&gt;Node44 -->
<g id="edge30" class="edge"><title>Node43&#45;&gt;Node44</title>
<path fill="none" stroke="midnightblue" d="M272.863,-64.5C288.33,-64.5 305.44,-64.5 321.487,-64.5"/>
<polygon fill="midnightblue" stroke="midnightblue" points="321.851,-68.0001 331.851,-64.5 321.851,-61.0001 321.851,-68.0001"/>
</g>
<!-- Node44&#45;&gt;Node40 -->
<g id="edge31" class="edge"><title>Node44&#45;&gt;Node40</title>
<path fill="none" stroke="midnightblue" d="M437.294,-63.4676C448.539,-63.2434 460.561,-63.0038 472.208,-62.7716"/>
<polygon fill="midnightblue" stroke="midnightblue" points="472.39,-66.2688 482.318,-62.5701 472.251,-59.2702 472.39,-66.2688"/>
</g>
<!-- Node44&#45;&gt;Node41 -->
<g id="edge32" class="edge"><title>Node44&#45;&gt;Node41</title>
<path fill="none" stroke="midnightblue" d="M429.031,-79.5406C441.939,-84.0005 456.371,-88.987 470.354,-93.8182"/>
<polygon fill="midnightblue" stroke="midnightblue" points="469.343,-97.1719 479.938,-97.1296 471.629,-90.5557 469.343,-97.1719"/>
</g>
</g>
</svg>
