<?xml version="1.0" encoding="UTF-8" standalone="no"?>
<!DOCTYPE svg PUBLIC "-//W3C//DTD SVG 1.1//EN"
 "http://www.w3.org/Graphics/SVG/1.1/DTD/svg11.dtd">
<!-- Generated by graphviz version 2.38.0 (20140413.2041)
 -->
<!-- Title: mom_ale::ale_remap_scalar Pages: 1 -->
<svg width="721pt" height="88pt"
 viewBox="0.00 0.00 721.00 88.00" xmlns="http://www.w3.org/2000/svg" xmlns:xlink="http://www.w3.org/1999/xlink">
<g id="graph0" class="graph" transform="scale(1 1) rotate(0) translate(4 84)">
<title>mom_ale::ale_remap_scalar</title>
<polygon fill="white" stroke="none" points="-4,4 -4,-84 717,-84 717,4 -4,4"/>
<!-- Node104 -->
<g id="node1" class="node"><title>Node104</title>
<polygon fill="#bfbfbf" stroke="black" points="0,-24.5 0,-54.5 107,-54.5 107,-24.5 0,-24.5"/>
<text text-anchor="start" x="8" y="-42.5" font-family="Helvetica,sans-Serif" font-size="10.00">mom_ale::ale_remap</text>
<text text-anchor="middle" x="53.5" y="-31.5" font-family="Helvetica,sans-Serif" font-size="10.00">_scalar</text>
</g>
<!-- Node105 -->
<g id="node2" class="node"><title>Node105</title>
<g id="a_node2"><a xlink:href="namespacemom__ale.html#a1e8b6f82cdc9d20abf0506b3ab7004b6" target="_top" xlink:title="Regrid/remap stored fields used for offline tracer integrations. These input fields are assumed to ha...">
<polygon fill="white" stroke="black" points="173.5,-49.5 173.5,-79.5 280.5,-79.5 280.5,-49.5 173.5,-49.5"/>
<text text-anchor="start" x="181.5" y="-67.5" font-family="Helvetica,sans-Serif" font-size="10.00">mom_ale::ale_offline</text>
<text text-anchor="middle" x="227" y="-56.5" font-family="Helvetica,sans-Serif" font-size="10.00">_inputs</text>
</a>
</g>
</g>
<!-- Node104&#45;&gt;Node105 -->
<g id="edge1" class="edge"><title>Node104&#45;&gt;Node105</title>
<path fill="none" stroke="midnightblue" d="M117.384,-48.6668C135.76,-51.3454 155.646,-54.2443 173.319,-56.8206"/>
<polygon fill="midnightblue" stroke="midnightblue" points="117.755,-45.184 107.355,-47.2048 116.746,-52.1108 117.755,-45.184"/>
</g>
<!-- Node106 -->
<g id="node3" class="node"><title>Node106</title>
<g id="a_node3"><a xlink:href="namespacemom__state__initialization.html#ab28dbceb8938600e7c0bc15380cef89a" target="_top" xlink:title="This subroutine determines the isopycnal or other coordinate interfaces and layer potential temperatu...">
<polygon fill="white" stroke="black" points="143,-0.5 143,-30.5 311,-30.5 311,-0.5 143,-0.5"/>
<text text-anchor="start" x="151" y="-18.5" font-family="Helvetica,sans-Serif" font-size="10.00">mom_state_initialization</text>
<text text-anchor="middle" x="227" y="-7.5" font-family="Helvetica,sans-Serif" font-size="10.00">::mom_temp_salt_initialize_from_z</text>
</a>
</g>
</g>
<!-- Node104&#45;&gt;Node106 -->
<g id="edge2" class="edge"><title>Node104&#45;&gt;Node106</title>
<path fill="none" stroke="midnightblue" d="M117.284,-30.7139C125.568,-29.5546 134.161,-28.3521 142.721,-27.1542"/>
<polygon fill="midnightblue" stroke="midnightblue" points="116.773,-27.2512 107.355,-32.1034 117.744,-34.1836 116.773,-27.2512"/>
</g>
<!-- Node107 -->
<g id="node4" class="node"><title>Node107</title>
<g id="a_node4"><a xlink:href="namespacemom__state__initialization.html#af4e854627c6572332ba3fd895f169321" target="_top" xlink:title="mom_state_initialization\l::mom_initialize_state">
<polygon fill="white" stroke="black" points="347,-0.5 347,-30.5 469,-30.5 469,-0.5 347,-0.5"/>
<text text-anchor="start" x="355" y="-18.5" font-family="Helvetica,sans-Serif" font-size="10.00">mom_state_initialization</text>
<text text-anchor="middle" x="408" y="-7.5" font-family="Helvetica,sans-Serif" font-size="10.00">::mom_initialize_state</text>
</a>
</g>
</g>
<!-- Node106&#45;&gt;Node107 -->
<g id="edge3" class="edge"><title>Node106&#45;&gt;Node107</title>
<path fill="none" stroke="midnightblue" d="M321.397,-15.5C330.07,-15.5 338.695,-15.5 346.944,-15.5"/>
<polygon fill="midnightblue" stroke="midnightblue" points="321.212,-12.0001 311.212,-15.5 321.212,-19.0001 321.212,-12.0001"/>
</g>
<!-- Node108 -->
<g id="node5" class="node"><title>Node108</title>
<g id="a_node5"><a xlink:href="namespacemom.html#a0be2869fef30e1e0604facfe1b41555d" target="_top" xlink:title="This subroutine initializes MOM. ">
<polygon fill="white" stroke="black" points="505,-6 505,-25 612,-25 612,-6 505,-6"/>
<text text-anchor="middle" x="558.5" y="-13" font-family="Helvetica,sans-Serif" font-size="10.00">mom::initialize_mom</text>
</a>
</g>
</g>
<!-- Node107&#45;&gt;Node108 -->
<g id="edge4" class="edge"><title>Node107&#45;&gt;Node108</title>
<path fill="none" stroke="midnightblue" d="M479.657,-15.5C488.116,-15.5 496.636,-15.5 504.779,-15.5"/>
<polygon fill="midnightblue" stroke="midnightblue" points="479.401,-12.0001 469.401,-15.5 479.401,-19.0001 479.401,-12.0001"/>
</g>
<!-- Node109 -->
<g id="node6" class="node"><title>Node109</title>
<g id="a_node6"><a xlink:href="MOM__driver_8F90.html#a08fffeb2d8e8acbf9ed4609be6d258c6" target="_top" xlink:title="mom_main">
<polygon fill="white" stroke="black" points="648,-6 648,-25 713,-25 713,-6 648,-6"/>
<text text-anchor="middle" x="680.5" y="-13" font-family="Helvetica,sans-Serif" font-size="10.00">mom_main</text>
</a>
</g>
</g>
<!-- Node108&#45;&gt;Node109 -->
<g id="edge5" class="edge"><title>Node108&#45;&gt;Node109</title>
<path fill="none" stroke="midnightblue" d="M622.206,-15.5C631.134,-15.5 639.983,-15.5 647.958,-15.5"/>
<polygon fill="midnightblue" stroke="midnightblue" points="622.134,-12.0001 612.134,-15.5 622.134,-19.0001 622.134,-12.0001"/>
</g>
</g>
</svg>
