<?xml version="1.0" encoding="UTF-8" standalone="no"?>
<!DOCTYPE svg PUBLIC "-//W3C//DTD SVG 1.1//EN"
 "http://www.w3.org/Graphics/SVG/1.1/DTD/svg11.dtd">
<!-- Generated by graphviz version 2.38.0 (20140413.2041)
 -->
<!-- Title: mom::step_offline Pages: 1 -->
<svg width="273pt" height="78pt"
 viewBox="0.00 0.00 273.00 77.50" xmlns="http://www.w3.org/2000/svg" xmlns:xlink="http://www.w3.org/1999/xlink">
<g id="graph0" class="graph" transform="scale(1 1) rotate(0) translate(4 73.5)">
<title>mom::step_offline</title>
<polygon fill="white" stroke="none" points="-4,4 -4,-73.5 269,-73.5 269,4 -4,4"/>
<!-- Node471 -->
<g id="node1" class="node"><title>Node471</title>
<polygon fill="#bfbfbf" stroke="black" points="0,-28 0,-47 95,-47 95,-28 0,-28"/>
<text text-anchor="middle" x="47.5" y="-35" font-family="Helvetica,sans-Serif" font-size="10.00">mom::step_offline</text>
</g>
<!-- Node472 -->
<g id="node2" class="node"><title>Node472</title>
<g id="a_node2"><a xlink:href="MOM__driver_8F90.html#a08fffeb2d8e8acbf9ed4609be6d258c6" target="_top" xlink:title="mom_main">
<polygon fill="white" stroke="black" points="165.5,-50 165.5,-69 230.5,-69 230.5,-50 165.5,-50"/>
<text text-anchor="middle" x="198" y="-57" font-family="Helvetica,sans-Serif" font-size="10.00">mom_main</text>
</a>
</g>
</g>
<!-- Node471&#45;&gt;Node472 -->
<g id="edge1" class="edge"><title>Node471&#45;&gt;Node472</title>
<path fill="none" stroke="midnightblue" d="M105.186,-45.8979C125.503,-48.9079 147.683,-52.1937 165.152,-54.7817"/>
<polygon fill="midnightblue" stroke="midnightblue" points="105.484,-42.4039 95.0789,-44.4006 104.458,-49.3284 105.484,-42.4039"/>
</g>
<!-- Node473 -->
<g id="node3" class="node"><title>Node473</title>
<g id="a_node3"><a xlink:href="namespaceocean__model__mod.html#ac9dc1795fc4799d6682f462857b42d62" target="_top" xlink:title="ocean_model_mod::update\l_ocean_model">
<polygon fill="white" stroke="black" points="131,-0.5 131,-30.5 265,-30.5 265,-0.5 131,-0.5"/>
<text text-anchor="start" x="139" y="-18.5" font-family="Helvetica,sans-Serif" font-size="10.00">ocean_model_mod::update</text>
<text text-anchor="middle" x="198" y="-7.5" font-family="Helvetica,sans-Serif" font-size="10.00">_ocean_model</text>
</a>
</g>
</g>
<!-- Node471&#45;&gt;Node473 -->
<g id="edge2" class="edge"><title>Node471&#45;&gt;Node473</title>
<path fill="none" stroke="midnightblue" d="M105.109,-29.1135C113.486,-27.8724 122.182,-26.5841 130.735,-25.3171"/>
<polygon fill="midnightblue" stroke="midnightblue" points="104.458,-25.6716 95.0789,-30.5994 105.484,-32.5961 104.458,-25.6716"/>
</g>
</g>
</svg>
