<?xml version="1.0" encoding="UTF-8" standalone="no"?>
<!DOCTYPE svg PUBLIC "-//W3C//DTD SVG 1.1//EN"
 "http://www.w3.org/Graphics/SVG/1.1/DTD/svg11.dtd">
<!-- Generated by graphviz version 2.38.0 (20140413.2041)
 -->
<!-- Title: mom_coms::reset_efp_overflow_error Pages: 1 -->
<svg width="591pt" height="88pt"
 viewBox="0.00 0.00 591.00 88.00" xmlns="http://www.w3.org/2000/svg" xmlns:xlink="http://www.w3.org/1999/xlink">
<g id="graph0" class="graph" transform="scale(1 1) rotate(0) translate(4 84)">
<title>mom_coms::reset_efp_overflow_error</title>
<polygon fill="white" stroke="none" points="-4,4 -4,-84 587,-84 587,4 -4,4"/>
<!-- Node109 -->
<g id="node1" class="node"><title>Node109</title>
<polygon fill="#bfbfbf" stroke="black" points="0,-24.5 0,-54.5 114,-54.5 114,-24.5 0,-24.5"/>
<text text-anchor="start" x="8" y="-42.5" font-family="Helvetica,sans-Serif" font-size="10.00">mom_coms::reset_efp</text>
<text text-anchor="middle" x="57" y="-31.5" font-family="Helvetica,sans-Serif" font-size="10.00">_overflow_error</text>
</g>
<!-- Node110 -->
<g id="node2" class="node"><title>Node110</title>
<g id="a_node2"><a xlink:href="namespacemom__spatial__means.html#a1268ed073db7e190a1d06fa72bd7a8de" target="_top" xlink:title="mom_spatial_means::\lglobal_i_mean">
<polygon fill="white" stroke="black" points="150,-49.5 150,-79.5 263,-79.5 263,-49.5 150,-49.5"/>
<text text-anchor="start" x="158" y="-67.5" font-family="Helvetica,sans-Serif" font-size="10.00">mom_spatial_means::</text>
<text text-anchor="middle" x="206.5" y="-56.5" font-family="Helvetica,sans-Serif" font-size="10.00">global_i_mean</text>
</a>
</g>
</g>
<!-- Node109&#45;&gt;Node110 -->
<g id="edge1" class="edge"><title>Node109&#45;&gt;Node110</title>
<path fill="none" stroke="midnightblue" d="M124.197,-50.7198C132.804,-52.1787 141.551,-53.6611 149.96,-55.0864"/>
<polygon fill="midnightblue" stroke="midnightblue" points="124.628,-47.2431 114.184,-49.0227 123.459,-54.1447 124.628,-47.2431"/>
</g>
<!-- Node113 -->
<g id="node5" class="node"><title>Node113</title>
<g id="a_node5"><a xlink:href="namespacemom__spatial__means.html#a0862005dff883cfbd1b9ffc1ef15cdbf" target="_top" xlink:title="mom_spatial_means::\lglobal_j_mean">
<polygon fill="white" stroke="black" points="150,-0.5 150,-30.5 263,-30.5 263,-0.5 150,-0.5"/>
<text text-anchor="start" x="158" y="-18.5" font-family="Helvetica,sans-Serif" font-size="10.00">mom_spatial_means::</text>
<text text-anchor="middle" x="206.5" y="-7.5" font-family="Helvetica,sans-Serif" font-size="10.00">global_j_mean</text>
</a>
</g>
</g>
<!-- Node109&#45;&gt;Node113 -->
<g id="edge4" class="edge"><title>Node109&#45;&gt;Node113</title>
<path fill="none" stroke="midnightblue" d="M124.197,-28.729C132.804,-27.3285 141.551,-25.9053 149.96,-24.537"/>
<polygon fill="midnightblue" stroke="midnightblue" points="123.492,-25.2975 114.184,-30.3582 124.617,-32.2067 123.492,-25.2975"/>
</g>
<!-- Node111 -->
<g id="node3" class="node"><title>Node111</title>
<g id="a_node3"><a xlink:href="namespacemom__sponge.html#afc5fe4db356e9e93696c909cd2c4d7ba" target="_top" xlink:title="mom_sponge::apply_sponge">
<polygon fill="white" stroke="black" points="299,-55 299,-74 440,-74 440,-55 299,-55"/>
<text text-anchor="middle" x="369.5" y="-62" font-family="Helvetica,sans-Serif" font-size="10.00">mom_sponge::apply_sponge</text>
</a>
</g>
</g>
<!-- Node110&#45;&gt;Node111 -->
<g id="edge2" class="edge"><title>Node110&#45;&gt;Node111</title>
<path fill="none" stroke="midnightblue" d="M273.441,-64.5C281.816,-64.5 290.408,-64.5 298.84,-64.5"/>
<polygon fill="midnightblue" stroke="midnightblue" points="273.358,-61.0001 263.358,-64.5 273.358,-68.0001 273.358,-61.0001"/>
</g>
<!-- Node112 -->
<g id="node4" class="node"><title>Node112</title>
<g id="a_node4"><a xlink:href="namespacemom__diabatic__driver.html#af76fe90c618a04d7806bc53fe0f7a2a7" target="_top" xlink:title="This subroutine imposes the diapycnal mass fluxes and the accompanying diapycnal advection of momentu...">
<polygon fill="white" stroke="black" points="476,-49.5 476,-79.5 583,-79.5 583,-49.5 476,-49.5"/>
<text text-anchor="start" x="484" y="-67.5" font-family="Helvetica,sans-Serif" font-size="10.00">mom_diabatic_driver</text>
<text text-anchor="middle" x="529.5" y="-56.5" font-family="Helvetica,sans-Serif" font-size="10.00">::diabatic</text>
</a>
</g>
</g>
<!-- Node111&#45;&gt;Node112 -->
<g id="edge3" class="edge"><title>Node111&#45;&gt;Node112</title>
<path fill="none" stroke="midnightblue" d="M450.348,-64.5C458.956,-64.5 467.551,-64.5 475.724,-64.5"/>
<polygon fill="midnightblue" stroke="midnightblue" points="450.261,-61.0001 440.261,-64.5 450.261,-68.0001 450.261,-61.0001"/>
</g>
</g>
</svg>
