<?xml version="1.0" encoding="UTF-8" standalone="no"?>
<!DOCTYPE svg PUBLIC "-//W3C//DTD SVG 1.1//EN"
 "http://www.w3.org/Graphics/SVG/1.1/DTD/svg11.dtd">
<!-- Generated by graphviz version 2.38.0 (20140413.2041)
 -->
<!-- Title: mom_barotropic::set_up_bt_obc Pages: 1 -->
<svg width="403pt" height="137pt"
 viewBox="0.00 0.00 403.00 137.00" xmlns="http://www.w3.org/2000/svg" xmlns:xlink="http://www.w3.org/1999/xlink">
<g id="graph0" class="graph" transform="scale(1 1) rotate(0) translate(4 133)">
<title>mom_barotropic::set_up_bt_obc</title>
<polygon fill="white" stroke="none" points="-4,4 -4,-133 399,-133 399,4 -4,4"/>
<!-- Node98 -->
<g id="node1" class="node"><title>Node98</title>
<polygon fill="#bfbfbf" stroke="black" points="0,-49.5 0,-79.5 106,-79.5 106,-49.5 0,-49.5"/>
<text text-anchor="start" x="8" y="-67.5" font-family="Helvetica,sans-Serif" font-size="10.00">mom_barotropic::set</text>
<text text-anchor="middle" x="53" y="-56.5" font-family="Helvetica,sans-Serif" font-size="10.00">_up_bt_obc</text>
</g>
<!-- Node99 -->
<g id="node2" class="node"><title>Node99</title>
<g id="a_node2"><a xlink:href="namespacemom__error__handler.html#a460cfb79a06c29fc249952c2a3710d67" target="_top" xlink:title="mom_error_handler::\lmom_error">
<polygon fill="white" stroke="black" points="144.5,-98.5 144.5,-128.5 250.5,-128.5 250.5,-98.5 144.5,-98.5"/>
<text text-anchor="start" x="152.5" y="-116.5" font-family="Helvetica,sans-Serif" font-size="10.00">mom_error_handler::</text>
<text text-anchor="middle" x="197.5" y="-105.5" font-family="Helvetica,sans-Serif" font-size="10.00">mom_error</text>
</a>
</g>
</g>
<!-- Node98&#45;&gt;Node99 -->
<g id="edge1" class="edge"><title>Node98&#45;&gt;Node99</title>
<path fill="none" stroke="midnightblue" d="M97.9175,-79.6014C112.139,-84.4917 128.073,-89.9707 142.915,-95.0744"/>
<polygon fill="midnightblue" stroke="midnightblue" points="141.888,-98.4221 152.482,-98.3641 144.164,-91.8025 141.888,-98.4221"/>
</g>
<!-- Node101 -->
<g id="node4" class="node"><title>Node101</title>
<g id="a_node4"><a xlink:href="namespacemom__barotropic.html#a0311f0f3d4e27f4017582d6a8c01298c" target="_top" xlink:title="This function inverts the transport function to determine the barotopic velocity that is consistent w...">
<polygon fill="white" stroke="black" points="142,-49.5 142,-79.5 253,-79.5 253,-49.5 142,-49.5"/>
<text text-anchor="start" x="150" y="-67.5" font-family="Helvetica,sans-Serif" font-size="10.00">mom_barotropic::uhbt</text>
<text text-anchor="middle" x="197.5" y="-56.5" font-family="Helvetica,sans-Serif" font-size="10.00">_to_ubt</text>
</a>
</g>
</g>
<!-- Node98&#45;&gt;Node101 -->
<g id="edge3" class="edge"><title>Node98&#45;&gt;Node101</title>
<path fill="none" stroke="midnightblue" d="M106.253,-64.5C114.497,-64.5 123.108,-64.5 131.598,-64.5"/>
<polygon fill="midnightblue" stroke="midnightblue" points="131.861,-68.0001 141.861,-64.5 131.861,-61.0001 131.861,-68.0001"/>
</g>
<!-- Node102 -->
<g id="node5" class="node"><title>Node102</title>
<g id="a_node5"><a xlink:href="namespacemom__barotropic.html#aeed3e618781611b448105a122e1a358c" target="_top" xlink:title="This function inverts the transport function to determine the barotopic velocity that is consistent w...">
<polygon fill="white" stroke="black" points="142,-0.5 142,-30.5 253,-30.5 253,-0.5 142,-0.5"/>
<text text-anchor="start" x="150" y="-18.5" font-family="Helvetica,sans-Serif" font-size="10.00">mom_barotropic::vhbt</text>
<text text-anchor="middle" x="197.5" y="-7.5" font-family="Helvetica,sans-Serif" font-size="10.00">_to_vbt</text>
</a>
</g>
</g>
<!-- Node98&#45;&gt;Node102 -->
<g id="edge4" class="edge"><title>Node98&#45;&gt;Node102</title>
<path fill="none" stroke="midnightblue" d="M97.9175,-49.3986C112.139,-44.5083 128.073,-39.0293 142.915,-33.9256"/>
<polygon fill="midnightblue" stroke="midnightblue" points="144.164,-37.1975 152.482,-30.6359 141.888,-30.5779 144.164,-37.1975"/>
</g>
<!-- Node100 -->
<g id="node3" class="node"><title>Node100</title>
<g id="a_node3"><a xlink:href="namespacemom__error__handler.html#ad5f00a53059c72fe2332d1436c80ca71" target="_top" xlink:title="mom_error_handler::\lis_root_pe">
<polygon fill="white" stroke="black" points="289,-98.5 289,-128.5 395,-128.5 395,-98.5 289,-98.5"/>
<text text-anchor="start" x="297" y="-116.5" font-family="Helvetica,sans-Serif" font-size="10.00">mom_error_handler::</text>
<text text-anchor="middle" x="342" y="-105.5" font-family="Helvetica,sans-Serif" font-size="10.00">is_root_pe</text>
</a>
</g>
</g>
<!-- Node99&#45;&gt;Node100 -->
<g id="edge2" class="edge"><title>Node99&#45;&gt;Node100</title>
<path fill="none" stroke="midnightblue" d="M250.753,-113.5C259.853,-113.5 269.399,-113.5 278.735,-113.5"/>
<polygon fill="midnightblue" stroke="midnightblue" points="278.754,-117 288.754,-113.5 278.754,-110 278.754,-117"/>
</g>
</g>
</svg>
