<?xml version="1.0" encoding="UTF-8" standalone="no"?>
<!DOCTYPE svg PUBLIC "-//W3C//DTD SVG 1.1//EN"
 "http://www.w3.org/Graphics/SVG/1.1/DTD/svg11.dtd">
<!-- Generated by graphviz version 2.38.0 (20140413.2041)
 -->
<!-- Title: mom_grid_initialize::set_grid_metrics_spherical Pages: 1 -->
<svg width="684pt" height="39pt"
 viewBox="0.00 0.00 684.00 39.00" xmlns="http://www.w3.org/2000/svg" xmlns:xlink="http://www.w3.org/1999/xlink">
<g id="graph0" class="graph" transform="scale(1 1) rotate(0) translate(4 35)">
<title>mom_grid_initialize::set_grid_metrics_spherical</title>
<polygon fill="white" stroke="none" points="-4,4 -4,-35 680,-35 680,4 -4,4"/>
<!-- Node145 -->
<g id="node1" class="node"><title>Node145</title>
<polygon fill="#bfbfbf" stroke="black" points="0,-0.5 0,-30.5 139,-30.5 139,-0.5 0,-0.5"/>
<text text-anchor="start" x="8" y="-18.5" font-family="Helvetica,sans-Serif" font-size="10.00">mom_grid_initialize</text>
<text text-anchor="middle" x="69.5" y="-7.5" font-family="Helvetica,sans-Serif" font-size="10.00">::set_grid_metrics_spherical</text>
</g>
<!-- Node146 -->
<g id="node2" class="node"><title>Node146</title>
<g id="a_node2"><a xlink:href="namespacemom__grid__initialize.html#a235a9712823e2f78e4958e8d681b6ba4" target="_top" xlink:title="set_grid_metrics is used to set the primary values in the model&#39;s horizontal grid. The bathymetry, land&#45;sea mask and any restricted channel widths are not known yet, so these are set later. ">
<polygon fill="white" stroke="black" points="175,-0.5 175,-30.5 275,-30.5 275,-0.5 175,-0.5"/>
<text text-anchor="start" x="183" y="-18.5" font-family="Helvetica,sans-Serif" font-size="10.00">mom_grid_initialize</text>
<text text-anchor="middle" x="225" y="-7.5" font-family="Helvetica,sans-Serif" font-size="10.00">::set_grid_metrics</text>
</a>
</g>
</g>
<!-- Node145&#45;&gt;Node146 -->
<g id="edge1" class="edge"><title>Node145&#45;&gt;Node146</title>
<path fill="none" stroke="midnightblue" d="M149.308,-15.5C157.954,-15.5 166.565,-15.5 174.702,-15.5"/>
<polygon fill="midnightblue" stroke="midnightblue" points="149.169,-12.0001 139.169,-15.5 149.169,-19.0001 149.169,-12.0001"/>
</g>
<!-- Node147 -->
<g id="node3" class="node"><title>Node147</title>
<g id="a_node3"><a xlink:href="namespacemom__fixed__initialization.html#a6c1c054d9cda9f1bd11abba748614c92" target="_top" xlink:title="MOM_initialize_fixed sets up time&#45;invariant quantities related to MOM6&#39;s horizontal grid...">
<polygon fill="white" stroke="black" points="311,-0.5 311,-30.5 432,-30.5 432,-0.5 311,-0.5"/>
<text text-anchor="start" x="319" y="-18.5" font-family="Helvetica,sans-Serif" font-size="10.00">mom_fixed_initialization</text>
<text text-anchor="middle" x="371.5" y="-7.5" font-family="Helvetica,sans-Serif" font-size="10.00">::mom_initialize_fixed</text>
</a>
</g>
</g>
<!-- Node146&#45;&gt;Node147 -->
<g id="edge2" class="edge"><title>Node146&#45;&gt;Node147</title>
<path fill="none" stroke="midnightblue" d="M285.433,-15.5C293.844,-15.5 302.494,-15.5 310.908,-15.5"/>
<polygon fill="midnightblue" stroke="midnightblue" points="285.325,-12.0001 275.325,-15.5 285.325,-19.0001 285.325,-12.0001"/>
</g>
<!-- Node148 -->
<g id="node4" class="node"><title>Node148</title>
<g id="a_node4"><a xlink:href="namespacemom.html#a0be2869fef30e1e0604facfe1b41555d" target="_top" xlink:title="This subroutine initializes MOM. ">
<polygon fill="white" stroke="black" points="468,-6 468,-25 575,-25 575,-6 468,-6"/>
<text text-anchor="middle" x="521.5" y="-13" font-family="Helvetica,sans-Serif" font-size="10.00">mom::initialize_mom</text>
</a>
</g>
</g>
<!-- Node147&#45;&gt;Node148 -->
<g id="edge3" class="edge"><title>Node147&#45;&gt;Node148</title>
<path fill="none" stroke="midnightblue" d="M442.522,-15.5C450.979,-15.5 459.505,-15.5 467.658,-15.5"/>
<polygon fill="midnightblue" stroke="midnightblue" points="442.271,-12.0001 432.271,-15.5 442.271,-19.0001 442.271,-12.0001"/>
</g>
<!-- Node149 -->
<g id="node5" class="node"><title>Node149</title>
<g id="a_node5"><a xlink:href="MOM__driver_8F90.html#a08fffeb2d8e8acbf9ed4609be6d258c6" target="_top" xlink:title="mom_main">
<polygon fill="white" stroke="black" points="611,-6 611,-25 676,-25 676,-6 611,-6"/>
<text text-anchor="middle" x="643.5" y="-13" font-family="Helvetica,sans-Serif" font-size="10.00">mom_main</text>
</a>
</g>
</g>
<!-- Node148&#45;&gt;Node149 -->
<g id="edge4" class="edge"><title>Node148&#45;&gt;Node149</title>
<path fill="none" stroke="midnightblue" d="M585.206,-15.5C594.134,-15.5 602.983,-15.5 610.958,-15.5"/>
<polygon fill="midnightblue" stroke="midnightblue" points="585.134,-12.0001 575.134,-15.5 585.134,-19.0001 585.134,-12.0001"/>
</g>
</g>
</svg>
