<?xml version="1.0" encoding="UTF-8" standalone="no"?>
<!DOCTYPE svg PUBLIC "-//W3C//DTD SVG 1.1//EN"
 "http://www.w3.org/Graphics/SVG/1.1/DTD/svg11.dtd">
<!-- Generated by graphviz version 2.38.0 (20140413.2041)
 -->
<!-- Title: p3m_functions::monotonize_cubic Pages: 1 -->
<!--zoomable 88 -->
<svg id="main" version="1.1" xmlns="http://www.w3.org/2000/svg" xmlns:xlink="http://www.w3.org/1999/xlink" xml:space="preserve" onload="init(evt)">
<style type="text/css"><![CDATA[
.edge:hover path { stroke: red; }
.edge:hover polygon { stroke: red; fill: red; }
]]></style>
<script type="text/javascript"><![CDATA[
var edges = document.getElementsByTagName('g');
if (edges && edges.length) {
  for (var i=0;i<edges.length;i++) {
    if (edges[i].id.substr(0,4)=='edge') {
      edges[i].setAttribute('class','edge');
    }
  }
}
]]></script>
        <defs>
                <circle id="rim" cx="0" cy="0" r="7"/>
                <circle id="rim2" cx="0" cy="0" r="3.5"/>
                <g id="zoomPlus">
                        <use xlink:href="#rim" fill="#404040">
                                <set attributeName="fill" to="#808080" begin="zoomplus.mouseover" end="zoomplus.mouseout"/>
                        </use>
                        <path d="M-4,0h8M0,-4v8" fill="none" stroke="white" stroke-width="1.5" pointer-events="none"/>
                </g>
                <g id="zoomMin">
                        <use xlink:href="#rim" fill="#404040">
                                <set attributeName="fill" to="#808080" begin="zoomminus.mouseover" end="zoomminus.mouseout"/>
                        </use>
                        <path d="M-4,0h8" fill="none" stroke="white" stroke-width="1.5" pointer-events="none"/>
                </g>
                <g id="dirArrow">
                        <path fill="none" stroke="white" stroke-width="1.5" d="M0,-3.0v7 M-2.5,-0.5L0,-3.0L2.5,-0.5"/>
                </g>
               <g id="resetDef">
                       <use xlink:href="#rim2" fill="#404040">
                               <set attributeName="fill" to="#808080" begin="reset.mouseover" end="reset.mouseout"/>
                       </use>
               </g>
        </defs>

<script type="text/javascript">
var viewWidth = 1233;
var viewHeight = 88;
var sectionId = 'dynsection-2';
</script>
<script xlink:href="svgpan.js"/>
<svg id="graph" class="graph">
<g id="viewport">
<title>p3m_functions::monotonize_cubic</title>
<polygon fill="white" stroke="none" points="-4,4 -4,-84 1229,-84 1229,4 -4,4"/>
<!-- Node25 -->
<g id="node1" class="node"><title>Node25</title>
<polygon fill="#bfbfbf" stroke="black" points="0,-24.5 0,-54.5 137,-54.5 137,-24.5 0,-24.5"/>
<text text-anchor="start" x="8" y="-42.5" font-family="Helvetica,sans-Serif" font-size="10.00">p3m_functions::monotonize</text>
<text text-anchor="middle" x="68.5" y="-31.5" font-family="Helvetica,sans-Serif" font-size="10.00">_cubic</text>
</g>
<!-- Node26 -->
<g id="node2" class="node"><title>Node26</title>
<g id="a_node2"><a xlink:href="namespacep3m__functions.html#a1c48a9ed2f3ee6a192f99cbded1298ce" target="_top" xlink:title="p3m_functions::p3m\l_boundary_extrapolation">
<polygon fill="white" stroke="black" points="314,-49.5 314,-79.5 436,-79.5 436,-49.5 314,-49.5"/>
<text text-anchor="start" x="322" y="-67.5" font-family="Helvetica,sans-Serif" font-size="10.00">p3m_functions::p3m</text>
<text text-anchor="middle" x="375" y="-56.5" font-family="Helvetica,sans-Serif" font-size="10.00">_boundary_extrapolation</text>
</a>
</g>
</g>
<!-- Node25&#45;&gt;Node26 -->
<g id="edge1" class="edge"><title>Node25&#45;&gt;Node26</title>
<path fill="none" stroke="midnightblue" d="M147.224,-45.8813C199.021,-50.1339 266.095,-55.6408 313.829,-59.5599"/>
<polygon fill="midnightblue" stroke="midnightblue" points="147.331,-42.3784 137.078,-45.0483 146.758,-49.3549 147.331,-42.3784"/>
</g>
<!-- Node34 -->
<g id="node10" class="node"><title>Node34</title>
<g id="a_node10"><a xlink:href="namespacep3m__functions.html#a377fa3f7b5caf101d47fa0d4c9b84f64" target="_top" xlink:title="p3m_functions::p3m\l_limiter">
<polygon fill="white" stroke="black" points="173,-2.5 173,-32.5 278,-32.5 278,-2.5 173,-2.5"/>
<text text-anchor="start" x="181" y="-20.5" font-family="Helvetica,sans-Serif" font-size="10.00">p3m_functions::p3m</text>
<text text-anchor="middle" x="225.5" y="-9.5" font-family="Helvetica,sans-Serif" font-size="10.00">_limiter</text>
</a>
</g>
</g>
<!-- Node25&#45;&gt;Node34 -->
<g id="edge9" class="edge"><title>Node25&#45;&gt;Node34</title>
<path fill="none" stroke="midnightblue" d="M147.134,-28.4809C155.759,-27.2568 164.381,-26.033 172.574,-24.8701"/>
<polygon fill="midnightblue" stroke="midnightblue" points="146.443,-25.0439 137.034,-29.9145 147.427,-31.9744 146.443,-25.0439"/>
</g>
<!-- Node27 -->
<g id="node3" class="node"><title>Node27</title>
<g id="a_node3"><a xlink:href="namespaceregrid__interp.html#a1dfc0e2c1924dddd25b9102ec2ecf06e" target="_top" xlink:title="Given the set of target values and cell densities, this routine builds an interpolated profile for th...">
<polygon fill="white" stroke="black" points="472,-24.5 472,-54.5 590,-54.5 590,-24.5 472,-24.5"/>
<text text-anchor="start" x="480" y="-42.5" font-family="Helvetica,sans-Serif" font-size="10.00">regrid_interp::regridding</text>
<text text-anchor="middle" x="531" y="-31.5" font-family="Helvetica,sans-Serif" font-size="10.00">_set_ppolys</text>
</a>
</g>
</g>
<!-- Node26&#45;&gt;Node27 -->
<g id="edge2" class="edge"><title>Node26&#45;&gt;Node27</title>
<path fill="none" stroke="midnightblue" d="M446.335,-53.082C454.843,-51.7008 463.46,-50.3019 471.767,-48.9534"/>
<polygon fill="midnightblue" stroke="midnightblue" points="445.733,-49.6338 436.423,-54.6911 446.855,-56.5434 445.733,-49.6338"/>
</g>
<!-- Node28 -->
<g id="node4" class="node"><title>Node28</title>
<g id="a_node4"><a xlink:href="namespaceregrid__interp.html#a4d634eff5836d643ef27129fc934853a" target="_top" xlink:title="regrid_interp::build\l_and_interpolate_grid">
<polygon fill="white" stroke="black" points="626,-24.5 626,-54.5 735,-54.5 735,-24.5 626,-24.5"/>
<text text-anchor="start" x="634" y="-42.5" font-family="Helvetica,sans-Serif" font-size="10.00">regrid_interp::build</text>
<text text-anchor="middle" x="680.5" y="-31.5" font-family="Helvetica,sans-Serif" font-size="10.00">_and_interpolate_grid</text>
</a>
</g>
</g>
<!-- Node27&#45;&gt;Node28 -->
<g id="edge3" class="edge"><title>Node27&#45;&gt;Node28</title>
<path fill="none" stroke="midnightblue" d="M600.318,-39.5C608.917,-39.5 617.616,-39.5 625.943,-39.5"/>
<polygon fill="midnightblue" stroke="midnightblue" points="600.296,-36.0001 590.296,-39.5 600.296,-43.0001 600.296,-36.0001"/>
</g>
<!-- Node29 -->
<g id="node5" class="node"><title>Node29</title>
<g id="a_node5"><a xlink:href="namespacecoord__hycom.html#a863abf3f62297588e4a3065fbf9333ea" target="_top" xlink:title="Build a HyCOM coordinate column. ">
<polygon fill="white" stroke="black" points="772.5,-49.5 772.5,-79.5 873.5,-79.5 873.5,-49.5 772.5,-49.5"/>
<text text-anchor="start" x="780.5" y="-67.5" font-family="Helvetica,sans-Serif" font-size="10.00">coord_hycom::build</text>
<text text-anchor="middle" x="823" y="-56.5" font-family="Helvetica,sans-Serif" font-size="10.00">_hycom1_column</text>
</a>
</g>
</g>
<!-- Node28&#45;&gt;Node29 -->
<g id="edge4" class="edge"><title>Node28&#45;&gt;Node29</title>
<path fill="none" stroke="midnightblue" d="M744.904,-50.7819C754.1,-52.4182 763.454,-54.0826 772.327,-55.6615"/>
<polygon fill="midnightblue" stroke="midnightblue" points="745.476,-47.3288 735.018,-49.0227 744.25,-54.2205 745.476,-47.3288"/>
</g>
<!-- Node32 -->
<g id="node8" class="node"><title>Node32</title>
<g id="a_node8"><a xlink:href="namespacecoord__rho.html#a6f5a56ba973e5e36820222a709614e40" target="_top" xlink:title="coord_rho::build_rho\l_column">
<polygon fill="white" stroke="black" points="771,-0.5 771,-30.5 875,-30.5 875,-0.5 771,-0.5"/>
<text text-anchor="start" x="779" y="-18.5" font-family="Helvetica,sans-Serif" font-size="10.00">coord_rho::build_rho</text>
<text text-anchor="middle" x="823" y="-7.5" font-family="Helvetica,sans-Serif" font-size="10.00">_column</text>
</a>
</g>
</g>
<!-- Node28&#45;&gt;Node32 -->
<g id="edge7" class="edge"><title>Node28&#45;&gt;Node32</title>
<path fill="none" stroke="midnightblue" d="M745.09,-28.6377C753.75,-27.1583 762.547,-25.6557 770.947,-24.2208"/>
<polygon fill="midnightblue" stroke="midnightblue" points="744.286,-25.2243 735.018,-30.3582 745.464,-32.1243 744.286,-25.2243"/>
</g>
<!-- Node30 -->
<g id="node6" class="node"><title>Node30</title>
<g id="a_node6"><a xlink:href="namespacemom__regridding.html#ab3541b357806978862434ee19b1be774" target="_top" xlink:title="Builds a simple HyCOM&#45;like grid with the deepest location of potential density interpolated from the ...">
<polygon fill="white" stroke="black" points="914,-49.5 914,-79.5 1026,-79.5 1026,-49.5 914,-49.5"/>
<text text-anchor="start" x="922" y="-67.5" font-family="Helvetica,sans-Serif" font-size="10.00">mom_regridding::build</text>
<text text-anchor="middle" x="970" y="-56.5" font-family="Helvetica,sans-Serif" font-size="10.00">_grid_hycom1</text>
</a>
</g>
</g>
<!-- Node29&#45;&gt;Node30 -->
<g id="edge5" class="edge"><title>Node29&#45;&gt;Node30</title>
<path fill="none" stroke="midnightblue" d="M884.027,-64.5C893.884,-64.5 904.059,-64.5 913.792,-64.5"/>
<polygon fill="midnightblue" stroke="midnightblue" points="883.901,-61.0001 873.901,-64.5 883.901,-68.0001 883.901,-61.0001"/>
</g>
<!-- Node31 -->
<g id="node7" class="node"><title>Node31</title>
<g id="a_node7"><a xlink:href="namespacemom__regridding.html#ab354fe3423a39fef6f2b66f409b1682c" target="_top" xlink:title="mom_regridding::regridding_main">
<polygon fill="white" stroke="black" points="1065,-55 1065,-74 1225,-74 1225,-55 1065,-55"/>
<text text-anchor="middle" x="1145" y="-62" font-family="Helvetica,sans-Serif" font-size="10.00">mom_regridding::regridding_main</text>
</a>
</g>
</g>
<!-- Node30&#45;&gt;Node31 -->
<g id="edge6" class="edge"><title>Node30&#45;&gt;Node31</title>
<path fill="none" stroke="midnightblue" d="M1036.47,-64.5C1045.7,-64.5 1055.26,-64.5 1064.72,-64.5"/>
<polygon fill="midnightblue" stroke="midnightblue" points="1036.21,-61.0001 1026.21,-64.5 1036.21,-68.0001 1036.21,-61.0001"/>
</g>
<!-- Node33 -->
<g id="node9" class="node"><title>Node33</title>
<g id="a_node9"><a xlink:href="namespacemom__diag__remap.html#a1fb71d2982777f33bcbf183187e1819b" target="_top" xlink:title="Build/update target vertical grids for diagnostic remapping. ">
<polygon fill="white" stroke="black" points="911,-0.5 911,-30.5 1029,-30.5 1029,-0.5 911,-0.5"/>
<text text-anchor="start" x="919" y="-18.5" font-family="Helvetica,sans-Serif" font-size="10.00">mom_diag_remap::diag</text>
<text text-anchor="middle" x="970" y="-7.5" font-family="Helvetica,sans-Serif" font-size="10.00">_remap_update</text>
</a>
</g>
</g>
<!-- Node32&#45;&gt;Node33 -->
<g id="edge8" class="edge"><title>Node32&#45;&gt;Node33</title>
<path fill="none" stroke="midnightblue" d="M885.33,-15.5C893.81,-15.5 902.5,-15.5 910.919,-15.5"/>
<polygon fill="midnightblue" stroke="midnightblue" points="885.122,-12.0001 875.122,-15.5 885.122,-19.0001 885.122,-12.0001"/>
</g>
<!-- Node35 -->
<g id="node11" class="node"><title>Node35</title>
<g id="a_node11"><a xlink:href="namespacep3m__functions.html#a1769b4b4ced88bbd9f28e348a7bdeabc" target="_top" xlink:title="p3m_functions::p3m\l_interpolation">
<polygon fill="white" stroke="black" points="322.5,-0.5 322.5,-30.5 427.5,-30.5 427.5,-0.5 322.5,-0.5"/>
<text text-anchor="start" x="330.5" y="-18.5" font-family="Helvetica,sans-Serif" font-size="10.00">p3m_functions::p3m</text>
<text text-anchor="middle" x="375" y="-7.5" font-family="Helvetica,sans-Serif" font-size="10.00">_interpolation</text>
</a>
</g>
</g>
<!-- Node34&#45;&gt;Node35 -->
<g id="edge10" class="edge"><title>Node34&#45;&gt;Node35</title>
<path fill="none" stroke="midnightblue" d="M288.306,-16.662C299.582,-16.5091 311.242,-16.351 322.191,-16.2025"/>
<polygon fill="midnightblue" stroke="midnightblue" points="288.04,-13.1651 278.088,-16.8005 288.135,-20.1645 288.04,-13.1651"/>
</g>
<!-- Node35&#45;&gt;Node27 -->
<g id="edge11" class="edge"><title>Node35&#45;&gt;Node27</title>
<path fill="none" stroke="midnightblue" d="M437.844,-25.138C449.049,-26.8842 460.699,-28.6998 471.795,-30.429"/>
<polygon fill="midnightblue" stroke="midnightblue" points="438.128,-21.6401 427.708,-23.5584 437.05,-28.5566 438.128,-21.6401"/>
</g>
</g>
</svg>
        <g id="navigator" transform="translate(0 0)" fill="#404254">
                <rect fill="#f2f5e9" fill-opacity="0.5" stroke="#606060" stroke-width=".5" x="0" y="0" width="60" height="60"/>
                <use id="zoomplus" xlink:href="#zoomPlus" x="17" y="9" onmousedown="handleZoom(evt,'in')"/>
                <use id="zoomminus" xlink:href="#zoomMin" x="42" y="9" onmousedown="handleZoom(evt,'out')"/>
                <use id="reset" xlink:href="#resetDef" x="30" y="36" onmousedown="handleReset()"/>
                <g id="arrowUp" xlink:href="#dirArrow" transform="translate(30 24)" onmousedown="handlePan(0,-1)">
                  <use xlink:href="#rim" fill="#404040">
                        <set attributeName="fill" to="#808080" begin="arrowUp.mouseover" end="arrowUp.mouseout"/>
                  </use>
                  <path fill="none" stroke="white" stroke-width="1.5" d="M0,-3.0v7 M-2.5,-0.5L0,-3.0L2.5,-0.5"/>
                </g>
                <g id="arrowRight" xlink:href="#dirArrow" transform="rotate(90) translate(36 -43)" onmousedown="handlePan(1,0)">
                  <use xlink:href="#rim" fill="#404040">
                        <set attributeName="fill" to="#808080" begin="arrowRight.mouseover" end="arrowRight.mouseout"/>
                  </use>
                  <path fill="none" stroke="white" stroke-width="1.5" d="M0,-3.0v7 M-2.5,-0.5L0,-3.0L2.5,-0.5"/>
                </g>
                <g id="arrowDown" xlink:href="#dirArrow" transform="rotate(180) translate(-30 -48)" onmousedown="handlePan(0,1)">
                  <use xlink:href="#rim" fill="#404040">
                        <set attributeName="fill" to="#808080" begin="arrowDown.mouseover" end="arrowDown.mouseout"/>
                  </use>
                  <path fill="none" stroke="white" stroke-width="1.5" d="M0,-3.0v7 M-2.5,-0.5L0,-3.0L2.5,-0.5"/>
                </g>
                <g id="arrowLeft" xlink:href="#dirArrow" transform="rotate(270) translate(-36 17)" onmousedown="handlePan(-1,0)">
                  <use xlink:href="#rim" fill="#404040">
                        <set attributeName="fill" to="#808080" begin="arrowLeft.mouseover" end="arrowLeft.mouseout"/>
                  </use>
                  <path fill="none" stroke="white" stroke-width="1.5" d="M0,-3.0v7 M-2.5,-0.5L0,-3.0L2.5,-0.5"/>
                </g>
        </g>
        <svg viewBox="0 0 15 15" width="100%" height="30px" preserveAspectRatio="xMaxYMin meet">
         <g id="arrow_out" transform="scale(0.3 0.3)">
          <a xlink:href="namespacep3m__functions_adb96651fe725f11e90dec2b8509989b0_icgraph_org.svg" target="_base">
           <rect id="button" ry="5" rx="5" y="6" x="6" height="38" width="38"
                fill="#f2f5e9" fill-opacity="0.5" stroke="#606060" stroke-width="1.0"/>
           <path id="arrow"
             d="M 11.500037,31.436501 C 11.940474,20.09759 22.043105,11.32322 32.158766,21.979434 L 37.068811,17.246167 C 37.068811,17.246167 37.088388,32 37.088388,32 L 22.160133,31.978069 C 22.160133,31.978069 26.997745,27.140456 26.997745,27.140456 C 18.528582,18.264221 13.291696,25.230495 11.500037,31.436501 z"
             style="fill:#404040;"/>
          </a>
         </g>
        </svg>
</svg>
