<?xml version="1.0" encoding="UTF-8" standalone="no"?>
<!DOCTYPE svg PUBLIC "-//W3C//DTD SVG 1.1//EN"
 "http://www.w3.org/Graphics/SVG/1.1/DTD/svg11.dtd">
<!-- Generated by graphviz version 2.38.0 (20140413.2041)
 -->
<!-- Title: mom_neutral_diffusion::neutral_surface_flux Pages: 1 -->
<svg width="576pt" height="214pt"
 viewBox="0.00 0.00 576.00 214.00" xmlns="http://www.w3.org/2000/svg" xmlns:xlink="http://www.w3.org/1999/xlink">
<g id="graph0" class="graph" transform="scale(1 1) rotate(0) translate(4 210)">
<title>mom_neutral_diffusion::neutral_surface_flux</title>
<polygon fill="white" stroke="none" points="-4,4 -4,-210 572,-210 572,4 -4,4"/>
<!-- Node158 -->
<g id="node1" class="node"><title>Node158</title>
<polygon fill="#bfbfbf" stroke="black" points="0,-44.5 0,-74.5 115,-74.5 115,-44.5 0,-44.5"/>
<text text-anchor="start" x="8" y="-62.5" font-family="Helvetica,sans-Serif" font-size="10.00">mom_neutral_diffusion</text>
<text text-anchor="middle" x="57.5" y="-51.5" font-family="Helvetica,sans-Serif" font-size="10.00">::neutral_surface_flux</text>
</g>
<!-- Node159 -->
<g id="node2" class="node"><title>Node159</title>
<g id="a_node2"><a xlink:href="namespacemom__neutral__diffusion.html#afbc54a4e2f34af5d72c18dc96e354af7" target="_top" xlink:title="Returns interface scalar, Si, for a column of layer values, S. ">
<polygon fill="white" stroke="black" points="151,-88.5 151,-118.5 266,-118.5 266,-88.5 151,-88.5"/>
<text text-anchor="start" x="159" y="-106.5" font-family="Helvetica,sans-Serif" font-size="10.00">mom_neutral_diffusion</text>
<text text-anchor="middle" x="208.5" y="-95.5" font-family="Helvetica,sans-Serif" font-size="10.00">::interface_scalar</text>
</a>
</g>
</g>
<!-- Node158&#45;&gt;Node159 -->
<g id="edge1" class="edge"><title>Node158&#45;&gt;Node159</title>
<path fill="none" stroke="midnightblue" d="M109.361,-74.5192C121.401,-78.0748 134.361,-81.9018 146.789,-85.5721"/>
<polygon fill="midnightblue" stroke="midnightblue" points="146.034,-88.9983 156.616,-88.4738 148.016,-82.2849 146.034,-88.9983"/>
</g>
<!-- Node163 -->
<g id="node6" class="node"><title>Node163</title>
<g id="a_node6"><a xlink:href="namespacemom__neutral__diffusion.html#a118ace85483009d5b7a1841e3c745499" target="_top" xlink:title="A true signum function that returns either &#45;abs(a), when x&lt;0; or abs(a) when x&gt;0; or 0 when x=0...">
<polygon fill="white" stroke="black" points="453,-66.5 453,-96.5 568,-96.5 568,-66.5 453,-66.5"/>
<text text-anchor="start" x="461" y="-84.5" font-family="Helvetica,sans-Serif" font-size="10.00">mom_neutral_diffusion</text>
<text text-anchor="middle" x="510.5" y="-73.5" font-family="Helvetica,sans-Serif" font-size="10.00">::signum</text>
</a>
</g>
</g>
<!-- Node158&#45;&gt;Node163 -->
<g id="edge8" class="edge"><title>Node158&#45;&gt;Node163</title>
<path fill="none" stroke="midnightblue" d="M115.163,-62.264C198.454,-66.327 353.65,-73.8976 442.483,-78.2309"/>
<polygon fill="midnightblue" stroke="midnightblue" points="442.556,-81.7385 452.714,-78.73 442.897,-74.7468 442.556,-81.7385"/>
</g>
<!-- Node165 -->
<g id="node8" class="node"><title>Node165</title>
<g id="a_node8"><a xlink:href="namespacemom__neutral__diffusion.html#a6931d9a07d09aa5d76d5abd2e47a54df" target="_top" xlink:title="Returns the average of a PPM reconstruction between two fractional positions. ">
<polygon fill="white" stroke="black" points="151,-0.5 151,-30.5 266,-30.5 266,-0.5 151,-0.5"/>
<text text-anchor="start" x="159" y="-18.5" font-family="Helvetica,sans-Serif" font-size="10.00">mom_neutral_diffusion</text>
<text text-anchor="middle" x="208.5" y="-7.5" font-family="Helvetica,sans-Serif" font-size="10.00">::ppm_ave</text>
</a>
</g>
</g>
<!-- Node158&#45;&gt;Node165 -->
<g id="edge7" class="edge"><title>Node158&#45;&gt;Node165</title>
<path fill="none" stroke="midnightblue" d="M109.361,-44.4808C121.401,-40.9252 134.361,-37.0982 146.789,-33.4279"/>
<polygon fill="midnightblue" stroke="midnightblue" points="148.016,-36.7151 156.616,-30.5262 146.034,-30.0017 148.016,-36.7151"/>
</g>
<!-- Node160 -->
<g id="node3" class="node"><title>Node160</title>
<g id="a_node3"><a xlink:href="namespacemom__neutral__diffusion.html#ac211ae488cb6e3c6685df85d24ecd0dd" target="_top" xlink:title="Returns PLM slopes for a column where the slopes are the difference in value across each cell...">
<polygon fill="white" stroke="black" points="302,-137.5 302,-167.5 417,-167.5 417,-137.5 302,-137.5"/>
<text text-anchor="start" x="310" y="-155.5" font-family="Helvetica,sans-Serif" font-size="10.00">mom_neutral_diffusion</text>
<text text-anchor="middle" x="359.5" y="-144.5" font-family="Helvetica,sans-Serif" font-size="10.00">::plm_diff</text>
</a>
</g>
</g>
<!-- Node159&#45;&gt;Node160 -->
<g id="edge2" class="edge"><title>Node159&#45;&gt;Node160</title>
<path fill="none" stroke="midnightblue" d="M255.421,-118.601C270.503,-123.562 287.428,-129.127 303.136,-134.293"/>
<polygon fill="midnightblue" stroke="midnightblue" points="302.138,-137.649 312.731,-137.448 304.325,-131 302.138,-137.649"/>
</g>
<!-- Node164 -->
<g id="node7" class="node"><title>Node164</title>
<g id="a_node7"><a xlink:href="namespacemom__neutral__diffusion.html#a87d3d020b56a98f3f0c143701f76c86e" target="_top" xlink:title="Returns the PPM quasi&#45;fourth order edge value at k+1/2 following equation 1.6 in Colella &amp; Woodward...">
<polygon fill="white" stroke="black" points="302,-88.5 302,-118.5 417,-118.5 417,-88.5 302,-88.5"/>
<text text-anchor="start" x="310" y="-106.5" font-family="Helvetica,sans-Serif" font-size="10.00">mom_neutral_diffusion</text>
<text text-anchor="middle" x="359.5" y="-95.5" font-family="Helvetica,sans-Serif" font-size="10.00">::ppm_edge</text>
</a>
</g>
</g>
<!-- Node159&#45;&gt;Node164 -->
<g id="edge6" class="edge"><title>Node159&#45;&gt;Node164</title>
<path fill="none" stroke="midnightblue" d="M266.256,-103.5C274.558,-103.5 283.173,-103.5 291.654,-103.5"/>
<polygon fill="midnightblue" stroke="midnightblue" points="291.902,-107 301.902,-103.5 291.902,-100 291.902,-107"/>
</g>
<!-- Node161 -->
<g id="node4" class="node"><title>Node161</title>
<g id="a_node4"><a xlink:href="namespacemom__neutral__diffusion.html#a1c5ac28d7c54581cdd872fe58ef0b204" target="_top" xlink:title="Returns the cell&#45;centered second&#45;order finite volume (unlimited PLM) slope using three consecutive ce...">
<polygon fill="white" stroke="black" points="453,-175.5 453,-205.5 568,-205.5 568,-175.5 453,-175.5"/>
<text text-anchor="start" x="461" y="-193.5" font-family="Helvetica,sans-Serif" font-size="10.00">mom_neutral_diffusion</text>
<text text-anchor="middle" x="510.5" y="-182.5" font-family="Helvetica,sans-Serif" font-size="10.00">::fv_diff</text>
</a>
</g>
</g>
<!-- Node160&#45;&gt;Node161 -->
<g id="edge3" class="edge"><title>Node160&#45;&gt;Node161</title>
<path fill="none" stroke="midnightblue" d="M417.256,-166.975C425.649,-169.115 434.362,-171.337 442.933,-173.523"/>
<polygon fill="midnightblue" stroke="midnightblue" points="442.347,-176.986 452.902,-176.066 444.077,-170.203 442.347,-176.986"/>
</g>
<!-- Node162 -->
<g id="node5" class="node"><title>Node162</title>
<g id="a_node5"><a xlink:href="namespacemom__neutral__diffusion.html#a6ed3814088af470ad6fc4a3a80926fd7" target="_top" xlink:title="Returns the cell&#45;centered second&#45;order weighted least squares slope using three consecutive cell widt...">
<polygon fill="white" stroke="black" points="453,-126.5 453,-156.5 568,-156.5 568,-126.5 453,-126.5"/>
<text text-anchor="start" x="461" y="-144.5" font-family="Helvetica,sans-Serif" font-size="10.00">mom_neutral_diffusion</text>
<text text-anchor="middle" x="510.5" y="-133.5" font-family="Helvetica,sans-Serif" font-size="10.00">::fvlsq_slope</text>
</a>
</g>
</g>
<!-- Node160&#45;&gt;Node162 -->
<g id="edge4" class="edge"><title>Node160&#45;&gt;Node162</title>
<path fill="none" stroke="midnightblue" d="M417.256,-148.31C425.558,-147.697 434.173,-147.061 442.654,-146.435"/>
<polygon fill="midnightblue" stroke="midnightblue" points="443.187,-149.905 452.902,-145.678 442.672,-142.924 443.187,-149.905"/>
</g>
<!-- Node160&#45;&gt;Node163 -->
<g id="edge5" class="edge"><title>Node160&#45;&gt;Node163</title>
<path fill="none" stroke="midnightblue" d="M395.272,-137.408C402.482,-134.197 410.009,-130.783 417,-127.5 434.778,-119.152 454.272,-109.528 470.761,-101.248"/>
<polygon fill="midnightblue" stroke="midnightblue" points="472.732,-104.175 480.087,-96.5484 469.582,-97.9235 472.732,-104.175"/>
</g>
</g>
</svg>
