<?xml version="1.0" encoding="UTF-8" standalone="no"?>
<!DOCTYPE svg PUBLIC "-//W3C//DTD SVG 1.1//EN"
 "http://www.w3.org/Graphics/SVG/1.1/DTD/svg11.dtd">
<!-- Generated by graphviz version 2.38.0 (20140413.2041)
 -->
<!-- Title: mom_continuity_ppm::merid_flux_layer Pages: 1 -->
<svg width="718pt" height="95pt"
 viewBox="0.00 0.00 718.00 95.45" xmlns="http://www.w3.org/2000/svg" xmlns:xlink="http://www.w3.org/1999/xlink">
<g id="graph0" class="graph" transform="scale(1 1) rotate(0) translate(4 91.4544)">
<title>mom_continuity_ppm::merid_flux_layer</title>
<polygon fill="white" stroke="none" points="-4,4 -4,-91.4544 714,-91.4544 714,4 -4,4"/>
<!-- Node31 -->
<g id="node1" class="node"><title>Node31</title>
<polygon fill="#bfbfbf" stroke="black" points="0,-12.9544 0,-42.9544 110,-42.9544 110,-12.9544 0,-12.9544"/>
<text text-anchor="start" x="8" y="-30.9544" font-family="Helvetica,sans-Serif" font-size="10.00">mom_continuity_ppm</text>
<text text-anchor="middle" x="55" y="-19.9544" font-family="Helvetica,sans-Serif" font-size="10.00">::merid_flux_layer</text>
</g>
<!-- Node32 -->
<g id="node2" class="node"><title>Node32</title>
<g id="a_node2"><a xlink:href="namespacemom__continuity__ppm.html#a1a09c28286ea6568eb1a25e91d481f60" target="_top" xlink:title="Returns the barotropic velocity adjustment that gives the desired barotropic (layer&#45;summed) transport...">
<polygon fill="white" stroke="black" points="146,-56.9544 146,-86.9544 265,-86.9544 265,-56.9544 146,-56.9544"/>
<text text-anchor="start" x="154" y="-74.9544" font-family="Helvetica,sans-Serif" font-size="10.00">mom_continuity_ppm</text>
<text text-anchor="middle" x="205.5" y="-63.9544" font-family="Helvetica,sans-Serif" font-size="10.00">::meridional_flux_adjust</text>
</a>
</g>
</g>
<!-- Node31&#45;&gt;Node32 -->
<g id="edge1" class="edge"><title>Node31&#45;&gt;Node32</title>
<path fill="none" stroke="midnightblue" d="M116.483,-45.8751C128.869,-49.5452 141.785,-53.3723 153.787,-56.9282"/>
<polygon fill="midnightblue" stroke="midnightblue" points="117.272,-42.4588 106.69,-42.9736 115.284,-49.1704 117.272,-42.4588"/>
</g>
<!-- Node33 -->
<g id="node3" class="node"><title>Node33</title>
<g id="a_node3"><a xlink:href="namespacemom__continuity__ppm.html#ae326b8319da257f423f73a32a984b641" target="_top" xlink:title="Calculates the mass or volume fluxes through the meridional faces, and other related quantities...">
<polygon fill="white" stroke="black" points="447,-15.9544 447,-45.9544 564,-45.9544 564,-15.9544 447,-15.9544"/>
<text text-anchor="start" x="455" y="-33.9544" font-family="Helvetica,sans-Serif" font-size="10.00">mom_continuity_ppm</text>
<text text-anchor="middle" x="505.5" y="-22.9544" font-family="Helvetica,sans-Serif" font-size="10.00">::meridional_mass_flux</text>
</a>
</g>
</g>
<!-- Node31&#45;&gt;Node33 -->
<g id="edge6" class="edge"><title>Node31&#45;&gt;Node33</title>
<path fill="none" stroke="midnightblue" d="M120.22,-16.5855C191.522,-5.67823 309.901,7.32817 411,-5.95438 426.494,-7.98996 443.07,-11.8459 457.897,-15.9309"/>
<polygon fill="midnightblue" stroke="midnightblue" points="119.388,-13.1729 110.049,-18.1761 120.47,-20.0889 119.388,-13.1729"/>
</g>
<!-- Node35 -->
<g id="node5" class="node"><title>Node35</title>
<g id="a_node5"><a xlink:href="namespacemom__continuity__ppm.html#ac0a93898960aef838a55a8ef4f926aa1" target="_top" xlink:title="Sets of a structure that describes the meridional barotropic volume or mass fluxes as a function of b...">
<polygon fill="white" stroke="black" points="301,-15.9544 301,-45.9544 411,-45.9544 411,-15.9544 301,-15.9544"/>
<text text-anchor="start" x="309" y="-33.9544" font-family="Helvetica,sans-Serif" font-size="10.00">mom_continuity_ppm</text>
<text text-anchor="middle" x="356" y="-22.9544" font-family="Helvetica,sans-Serif" font-size="10.00">::set_merid_bt_cont</text>
</a>
</g>
</g>
<!-- Node31&#45;&gt;Node35 -->
<g id="edge7" class="edge"><title>Node31&#45;&gt;Node35</title>
<path fill="none" stroke="midnightblue" d="M120.26,-28.5991C174.056,-29.1389 249.969,-29.9006 300.752,-30.4101"/>
<polygon fill="midnightblue" stroke="midnightblue" points="120.181,-25.0983 110.147,-28.4977 120.111,-32.0979 120.181,-25.0983"/>
</g>
<!-- Node32&#45;&gt;Node33 -->
<g id="edge2" class="edge"><title>Node32&#45;&gt;Node33</title>
<path fill="none" stroke="midnightblue" d="M275.148,-69.1355C315.013,-66.7802 366.08,-62.5312 411,-54.9544 424.551,-52.6687 439.014,-49.3849 452.414,-45.9769"/>
<polygon fill="midnightblue" stroke="midnightblue" points="274.79,-65.6501 265.003,-69.7085 275.185,-72.639 274.79,-65.6501"/>
</g>
<!-- Node32&#45;&gt;Node35 -->
<g id="edge4" class="edge"><title>Node32&#45;&gt;Node35</title>
<path fill="none" stroke="midnightblue" d="M270.772,-54.2092C280.7,-51.4683 290.869,-48.6605 300.554,-45.9866"/>
<polygon fill="midnightblue" stroke="midnightblue" points="269.661,-50.8851 260.953,-56.9203 271.524,-57.6326 269.661,-50.8851"/>
</g>
<!-- Node34 -->
<g id="node4" class="node"><title>Node34</title>
<g id="a_node4"><a xlink:href="namespacemom__continuity__ppm.html#a59586aae1668f03f3a78d58f5712cc0f" target="_top" xlink:title="Time steps the layer thicknesses, using a monotonically limit, directionally split PPM scheme...">
<polygon fill="white" stroke="black" points="600,-15.9544 600,-45.9544 710,-45.9544 710,-15.9544 600,-15.9544"/>
<text text-anchor="start" x="608" y="-33.9544" font-family="Helvetica,sans-Serif" font-size="10.00">mom_continuity_ppm</text>
<text text-anchor="middle" x="655" y="-22.9544" font-family="Helvetica,sans-Serif" font-size="10.00">::continuity_ppm</text>
</a>
</g>
</g>
<!-- Node33&#45;&gt;Node34 -->
<g id="edge3" class="edge"><title>Node33&#45;&gt;Node34</title>
<path fill="none" stroke="midnightblue" d="M574.56,-30.9544C582.976,-30.9544 591.492,-30.9544 599.666,-30.9544"/>
<polygon fill="midnightblue" stroke="midnightblue" points="574.373,-27.4545 564.373,-30.9544 574.373,-34.4545 574.373,-27.4545"/>
</g>
<!-- Node35&#45;&gt;Node33 -->
<g id="edge5" class="edge"><title>Node35&#45;&gt;Node33</title>
<path fill="none" stroke="midnightblue" d="M421.357,-30.9544C429.872,-30.9544 438.557,-30.9544 446.948,-30.9544"/>
<polygon fill="midnightblue" stroke="midnightblue" points="421.086,-27.4545 411.086,-30.9544 421.086,-34.4545 421.086,-27.4545"/>
</g>
</g>
</svg>
