<?xml version="1.0" encoding="UTF-8" standalone="no"?>
<!DOCTYPE svg PUBLIC "-//W3C//DTD SVG 1.1//EN"
 "http://www.w3.org/Graphics/SVG/1.1/DTD/svg11.dtd">
<!-- Generated by graphviz version 2.38.0 (20140413.2041)
 -->
<!-- Title: mom_file_parser::log_param_char Pages: 1 -->
<svg width="259pt" height="88pt"
 viewBox="0.00 0.00 259.00 88.00" xmlns="http://www.w3.org/2000/svg" xmlns:xlink="http://www.w3.org/1999/xlink">
<g id="graph0" class="graph" transform="scale(1 1) rotate(0) translate(4 84)">
<title>mom_file_parser::log_param_char</title>
<polygon fill="white" stroke="none" points="-4,4 -4,-84 255,-84 255,4 -4,4"/>
<!-- Node191 -->
<g id="node1" class="node"><title>Node191</title>
<polygon fill="#bfbfbf" stroke="black" points="0,-24.5 0,-54.5 107,-54.5 107,-24.5 0,-24.5"/>
<text text-anchor="start" x="8" y="-42.5" font-family="Helvetica,sans-Serif" font-size="10.00">mom_file_parser::log</text>
<text text-anchor="middle" x="53.5" y="-31.5" font-family="Helvetica,sans-Serif" font-size="10.00">_param_char</text>
</g>
<!-- Node192 -->
<g id="node2" class="node"><title>Node192</title>
<g id="a_node2"><a xlink:href="namespacemom__file__parser.html#a73ba84992b53a7898e3ea651da1847ed" target="_top" xlink:title="mom_file_parser::get\l_param_char">
<polygon fill="white" stroke="black" points="143,-49.5 143,-79.5 251,-79.5 251,-49.5 143,-49.5"/>
<text text-anchor="start" x="151" y="-67.5" font-family="Helvetica,sans-Serif" font-size="10.00">mom_file_parser::get</text>
<text text-anchor="middle" x="197" y="-56.5" font-family="Helvetica,sans-Serif" font-size="10.00">_param_char</text>
</a>
</g>
</g>
<!-- Node191&#45;&gt;Node192 -->
<g id="edge1" class="edge"><title>Node191&#45;&gt;Node192</title>
<path fill="none" stroke="midnightblue" d="M117.136,-50.5665C125.699,-52.0793 134.422,-53.6204 142.795,-55.0998"/>
<polygon fill="midnightblue" stroke="midnightblue" points="117.646,-47.1024 107.189,-48.8091 116.428,-53.9956 117.646,-47.1024"/>
</g>
<!-- Node193 -->
<g id="node3" class="node"><title>Node193</title>
<g id="a_node3"><a xlink:href="namespacemom__file__parser.html#aa3f8a251fb4f7bbae28b136ebc17a8f3" target="_top" xlink:title="mom_file_parser::get\l_param_char_array">
<polygon fill="white" stroke="black" points="143,-0.5 143,-30.5 251,-30.5 251,-0.5 143,-0.5"/>
<text text-anchor="start" x="151" y="-18.5" font-family="Helvetica,sans-Serif" font-size="10.00">mom_file_parser::get</text>
<text text-anchor="middle" x="197" y="-7.5" font-family="Helvetica,sans-Serif" font-size="10.00">_param_char_array</text>
</a>
</g>
</g>
<!-- Node191&#45;&gt;Node193 -->
<g id="edge2" class="edge"><title>Node191&#45;&gt;Node193</title>
<path fill="none" stroke="midnightblue" d="M117.136,-28.8762C125.699,-27.4239 134.422,-25.9444 142.795,-24.5242"/>
<polygon fill="midnightblue" stroke="midnightblue" points="116.463,-25.4403 107.189,-30.5633 117.634,-32.3417 116.463,-25.4403"/>
</g>
</g>
</svg>
