<?xml version="1.0" encoding="UTF-8" standalone="no"?>
<!DOCTYPE svg PUBLIC "-//W3C//DTD SVG 1.1//EN"
 "http://www.w3.org/Graphics/SVG/1.1/DTD/svg11.dtd">
<!-- Generated by graphviz version 2.38.0 (20140413.2041)
 -->
<!-- Title: mom_wave_speed::wave_speed_init Pages: 1 -->
<svg width="293pt" height="88pt"
 viewBox="0.00 0.00 293.00 88.00" xmlns="http://www.w3.org/2000/svg" xmlns:xlink="http://www.w3.org/1999/xlink">
<g id="graph0" class="graph" transform="scale(1 1) rotate(0) translate(4 84)">
<title>mom_wave_speed::wave_speed_init</title>
<polygon fill="white" stroke="none" points="-4,4 -4,-84 289,-84 289,4 -4,4"/>
<!-- Node52 -->
<g id="node1" class="node"><title>Node52</title>
<polygon fill="#bfbfbf" stroke="black" points="0,-24.5 0,-54.5 128,-54.5 128,-24.5 0,-24.5"/>
<text text-anchor="start" x="8" y="-42.5" font-family="Helvetica,sans-Serif" font-size="10.00">mom_wave_speed::wave</text>
<text text-anchor="middle" x="64" y="-31.5" font-family="Helvetica,sans-Serif" font-size="10.00">_speed_init</text>
</g>
<!-- Node53 -->
<g id="node2" class="node"><title>Node53</title>
<g id="a_node2"><a xlink:href="namespacemom__diagnostics.html#ab2108574e351f6deb812da3faf437278" target="_top" xlink:title="mom_diagnostics::mom\l_diagnostics_init">
<polygon fill="white" stroke="black" points="164,-49.5 164,-79.5 285,-79.5 285,-49.5 164,-49.5"/>
<text text-anchor="start" x="172" y="-67.5" font-family="Helvetica,sans-Serif" font-size="10.00">mom_diagnostics::mom</text>
<text text-anchor="middle" x="224.5" y="-56.5" font-family="Helvetica,sans-Serif" font-size="10.00">_diagnostics_init</text>
</a>
</g>
</g>
<!-- Node52&#45;&gt;Node53 -->
<g id="edge1" class="edge"><title>Node52&#45;&gt;Node53</title>
<path fill="none" stroke="midnightblue" d="M138.172,-51.0413C146.812,-52.4041 155.549,-53.7822 163.969,-55.1102"/>
<polygon fill="midnightblue" stroke="midnightblue" points="138.522,-47.5533 128.099,-49.4525 137.431,-54.4679 138.522,-47.5533"/>
</g>
<!-- Node54 -->
<g id="node3" class="node"><title>Node54</title>
<g id="a_node3"><a xlink:href="namespacemom__lateral__mixing__coeffs.html#aeb658054e8d4d723dff397f8ae186e4a" target="_top" xlink:title="Initializes the variables mixing coefficients container. ">
<polygon fill="white" stroke="black" points="172.5,-0.5 172.5,-30.5 276.5,-30.5 276.5,-0.5 172.5,-0.5"/>
<text text-anchor="start" x="180.5" y="-18.5" font-family="Helvetica,sans-Serif" font-size="10.00">mom_lateral_mixing</text>
<text text-anchor="middle" x="224.5" y="-7.5" font-family="Helvetica,sans-Serif" font-size="10.00">_coeffs::varmix_init</text>
</a>
</g>
</g>
<!-- Node52&#45;&gt;Node54 -->
<g id="edge2" class="edge"><title>Node52&#45;&gt;Node54</title>
<path fill="none" stroke="midnightblue" d="M138.168,-28.4209C149.705,-26.674 161.415,-24.901 172.311,-23.2509"/>
<polygon fill="midnightblue" stroke="midnightblue" points="137.462,-24.9878 128.099,-29.9456 138.51,-31.9089 137.462,-24.9878"/>
</g>
</g>
</svg>
