<?xml version="1.0" encoding="UTF-8" standalone="no"?>
<!DOCTYPE svg PUBLIC "-//W3C//DTD SVG 1.1//EN"
 "http://www.w3.org/Graphics/SVG/1.1/DTD/svg11.dtd">
<!-- Generated by graphviz version 2.38.0 (20140413.2041)
 -->
<!-- Title: mom_file_parser::openmultilinecomment Pages: 1 -->
<svg width="926pt" height="78pt"
 viewBox="0.00 0.00 926.00 77.50" xmlns="http://www.w3.org/2000/svg" xmlns:xlink="http://www.w3.org/1999/xlink">
<g id="graph0" class="graph" transform="scale(1 1) rotate(0) translate(4 73.5)">
<title>mom_file_parser::openmultilinecomment</title>
<polygon fill="white" stroke="none" points="-4,4 -4,-73.5 922,-73.5 922,4 -4,4"/>
<!-- Node248 -->
<g id="node1" class="node"><title>Node248</title>
<polygon fill="#bfbfbf" stroke="black" points="0,-22.5 0,-41.5 192,-41.5 192,-22.5 0,-22.5"/>
<text text-anchor="middle" x="96" y="-29.5" font-family="Helvetica,sans-Serif" font-size="10.00">mom_file_parser::openmultilinecomment</text>
</g>
<!-- Node249 -->
<g id="node2" class="node"><title>Node249</title>
<g id="a_node2"><a xlink:href="namespacemom__file__parser.html#a7abfd98d7f0831fc0d1f3747a68f1be9" target="_top" xlink:title="mom_file_parser::populate\l_param_data">
<polygon fill="white" stroke="black" points="228,-17 228,-47 359,-47 359,-17 228,-17"/>
<text text-anchor="start" x="236" y="-35" font-family="Helvetica,sans-Serif" font-size="10.00">mom_file_parser::populate</text>
<text text-anchor="middle" x="293.5" y="-24" font-family="Helvetica,sans-Serif" font-size="10.00">_param_data</text>
</a>
</g>
</g>
<!-- Node248&#45;&gt;Node249 -->
<g id="edge1" class="edge"><title>Node248&#45;&gt;Node249</title>
<path fill="none" stroke="midnightblue" d="M202.411,-32C211.114,-32 219.736,-32 227.998,-32"/>
<polygon fill="midnightblue" stroke="midnightblue" points="202.173,-28.5001 192.173,-32 202.173,-35.5001 202.173,-28.5001"/>
</g>
<!-- Node250 -->
<g id="node3" class="node"><title>Node250</title>
<g id="a_node3"><a xlink:href="namespacemom__file__parser.html#abecae1b9386aafa17aec927af1f8c448" target="_top" xlink:title="mom_file_parser::open\l_param_file">
<polygon fill="white" stroke="black" points="395,-17 395,-47 511,-47 511,-17 395,-17"/>
<text text-anchor="start" x="403" y="-35" font-family="Helvetica,sans-Serif" font-size="10.00">mom_file_parser::open</text>
<text text-anchor="middle" x="453" y="-24" font-family="Helvetica,sans-Serif" font-size="10.00">_param_file</text>
</a>
</g>
</g>
<!-- Node249&#45;&gt;Node250 -->
<g id="edge2" class="edge"><title>Node249&#45;&gt;Node250</title>
<path fill="none" stroke="midnightblue" d="M369.132,-32C377.797,-32 386.529,-32 394.906,-32"/>
<polygon fill="midnightblue" stroke="midnightblue" points="369.016,-28.5001 359.016,-32 369.016,-35.5001 369.016,-28.5001"/>
</g>
<!-- Node251 -->
<g id="node4" class="node"><title>Node251</title>
<g id="a_node4"><a xlink:href="namespacemom__get__input.html#a299c5b9476662ef1a382e23a8d078143" target="_top" xlink:title="mom_get_input::get\l_mom_input">
<polygon fill="white" stroke="black" points="547,-17 547,-47 650,-47 650,-17 547,-17"/>
<text text-anchor="start" x="555" y="-35" font-family="Helvetica,sans-Serif" font-size="10.00">mom_get_input::get</text>
<text text-anchor="middle" x="598.5" y="-24" font-family="Helvetica,sans-Serif" font-size="10.00">_mom_input</text>
</a>
</g>
</g>
<!-- Node250&#45;&gt;Node251 -->
<g id="edge3" class="edge"><title>Node250&#45;&gt;Node251</title>
<path fill="none" stroke="midnightblue" d="M521.398,-32C529.878,-32 538.439,-32 546.606,-32"/>
<polygon fill="midnightblue" stroke="midnightblue" points="521.127,-28.5001 511.127,-32 521.127,-35.5001 521.127,-28.5001"/>
</g>
<!-- Node252 -->
<g id="node5" class="node"><title>Node252</title>
<g id="a_node5"><a xlink:href="namespaceocean__model__mod.html#a6b00b9a33be391bb23668abbfa4d99c6" target="_top" xlink:title="ocean_model_mod::ocean\l_model_flux_init">
<polygon fill="white" stroke="black" points="686,-39 686,-69 817,-69 817,-39 686,-39"/>
<text text-anchor="start" x="694" y="-57" font-family="Helvetica,sans-Serif" font-size="10.00">ocean_model_mod::ocean</text>
<text text-anchor="middle" x="751.5" y="-46" font-family="Helvetica,sans-Serif" font-size="10.00">_model_flux_init</text>
</a>
</g>
</g>
<!-- Node251&#45;&gt;Node252 -->
<g id="edge4" class="edge"><title>Node251&#45;&gt;Node252</title>
<path fill="none" stroke="midnightblue" d="M660.343,-40.8645C668.785,-42.0945 677.482,-43.3616 685.988,-44.601"/>
<polygon fill="midnightblue" stroke="midnightblue" points="660.601,-37.3653 650.201,-39.3869 659.592,-44.2921 660.601,-37.3653"/>
</g>
<!-- Node253 -->
<g id="node6" class="node"><title>Node253</title>
<g id="a_node6"><a xlink:href="namespacemom.html#a0be2869fef30e1e0604facfe1b41555d" target="_top" xlink:title="This subroutine initializes MOM. ">
<polygon fill="white" stroke="black" points="698,-0.5 698,-19.5 805,-19.5 805,-0.5 698,-0.5"/>
<text text-anchor="middle" x="751.5" y="-7.5" font-family="Helvetica,sans-Serif" font-size="10.00">mom::initialize_mom</text>
</a>
</g>
</g>
<!-- Node251&#45;&gt;Node253 -->
<g id="edge5" class="edge"><title>Node251&#45;&gt;Node253</title>
<path fill="none" stroke="midnightblue" d="M660.455,-23.1191C672.851,-21.3131 685.791,-19.4278 697.869,-17.6681"/>
<polygon fill="midnightblue" stroke="midnightblue" points="659.592,-19.7079 650.201,-24.6131 660.601,-26.6347 659.592,-19.7079"/>
</g>
<!-- Node254 -->
<g id="node7" class="node"><title>Node254</title>
<g id="a_node7"><a xlink:href="MOM__driver_8F90.html#a08fffeb2d8e8acbf9ed4609be6d258c6" target="_top" xlink:title="mom_main">
<polygon fill="white" stroke="black" points="853,-0.5 853,-19.5 918,-19.5 918,-0.5 853,-0.5"/>
<text text-anchor="middle" x="885.5" y="-7.5" font-family="Helvetica,sans-Serif" font-size="10.00">mom_main</text>
</a>
</g>
</g>
<!-- Node253&#45;&gt;Node254 -->
<g id="edge6" class="edge"><title>Node253&#45;&gt;Node254</title>
<path fill="none" stroke="midnightblue" d="M815.351,-10C828.288,-10 841.386,-10 852.652,-10"/>
<polygon fill="midnightblue" stroke="midnightblue" points="815.049,-6.5001 805.049,-10 815.049,-13.5001 815.049,-6.5001"/>
</g>
</g>
</svg>
