<?xml version="1.0" encoding="UTF-8" standalone="no"?>
<!DOCTYPE svg PUBLIC "-//W3C//DTD SVG 1.1//EN"
 "http://www.w3.org/Graphics/SVG/1.1/DTD/svg11.dtd">
<!-- Generated by graphviz version 2.38.0 (20140413.2041)
 -->
<!-- Title: mom_neutral_diffusion::neutral_diffusion Pages: 1 -->
<svg width="727pt" height="214pt"
 viewBox="0.00 0.00 727.00 214.00" xmlns="http://www.w3.org/2000/svg" xmlns:xlink="http://www.w3.org/1999/xlink">
<g id="graph0" class="graph" transform="scale(1 1) rotate(0) translate(4 210)">
<title>mom_neutral_diffusion::neutral_diffusion</title>
<polygon fill="white" stroke="none" points="-4,4 -4,-210 723,-210 723,4 -4,4"/>
<!-- Node85 -->
<g id="node1" class="node"><title>Node85</title>
<polygon fill="#bfbfbf" stroke="black" points="0,-44.5 0,-74.5 115,-74.5 115,-44.5 0,-44.5"/>
<text text-anchor="start" x="8" y="-62.5" font-family="Helvetica,sans-Serif" font-size="10.00">mom_neutral_diffusion</text>
<text text-anchor="middle" x="57.5" y="-51.5" font-family="Helvetica,sans-Serif" font-size="10.00">::neutral_diffusion</text>
</g>
<!-- Node86 -->
<g id="node2" class="node"><title>Node86</title>
<g id="a_node2"><a xlink:href="namespacemom__neutral__diffusion.html#a626e0189b03bbbf36c33cfa52e4f098d" target="_top" xlink:title="Returns a single column of neutral diffusion fluxes of a tracer. ">
<polygon fill="white" stroke="black" points="151,-44.5 151,-74.5 266,-74.5 266,-44.5 151,-44.5"/>
<text text-anchor="start" x="159" y="-62.5" font-family="Helvetica,sans-Serif" font-size="10.00">mom_neutral_diffusion</text>
<text text-anchor="middle" x="208.5" y="-51.5" font-family="Helvetica,sans-Serif" font-size="10.00">::neutral_surface_flux</text>
</a>
</g>
</g>
<!-- Node85&#45;&gt;Node86 -->
<g id="edge1" class="edge"><title>Node85&#45;&gt;Node86</title>
<path fill="none" stroke="midnightblue" d="M115.256,-59.5C123.558,-59.5 132.173,-59.5 140.654,-59.5"/>
<polygon fill="midnightblue" stroke="midnightblue" points="140.902,-63.0001 150.902,-59.5 140.902,-56.0001 140.902,-63.0001"/>
</g>
<!-- Node87 -->
<g id="node3" class="node"><title>Node87</title>
<g id="a_node3"><a xlink:href="namespacemom__neutral__diffusion.html#afbc54a4e2f34af5d72c18dc96e354af7" target="_top" xlink:title="Returns interface scalar, Si, for a column of layer values, S. ">
<polygon fill="white" stroke="black" points="302,-88.5 302,-118.5 417,-118.5 417,-88.5 302,-88.5"/>
<text text-anchor="start" x="310" y="-106.5" font-family="Helvetica,sans-Serif" font-size="10.00">mom_neutral_diffusion</text>
<text text-anchor="middle" x="359.5" y="-95.5" font-family="Helvetica,sans-Serif" font-size="10.00">::interface_scalar</text>
</a>
</g>
</g>
<!-- Node86&#45;&gt;Node87 -->
<g id="edge2" class="edge"><title>Node86&#45;&gt;Node87</title>
<path fill="none" stroke="midnightblue" d="M260.361,-74.5192C272.401,-78.0748 285.361,-81.9018 297.789,-85.5721"/>
<polygon fill="midnightblue" stroke="midnightblue" points="297.034,-88.9983 307.616,-88.4738 299.016,-82.2849 297.034,-88.9983"/>
</g>
<!-- Node91 -->
<g id="node7" class="node"><title>Node91</title>
<g id="a_node7"><a xlink:href="namespacemom__neutral__diffusion.html#a118ace85483009d5b7a1841e3c745499" target="_top" xlink:title="A true signum function that returns either &#45;abs(a), when x&lt;0; or abs(a) when x&gt;0; or 0 when x=0...">
<polygon fill="white" stroke="black" points="604,-66.5 604,-96.5 719,-96.5 719,-66.5 604,-66.5"/>
<text text-anchor="start" x="612" y="-84.5" font-family="Helvetica,sans-Serif" font-size="10.00">mom_neutral_diffusion</text>
<text text-anchor="middle" x="661.5" y="-73.5" font-family="Helvetica,sans-Serif" font-size="10.00">::signum</text>
</a>
</g>
</g>
<!-- Node86&#45;&gt;Node91 -->
<g id="edge8" class="edge"><title>Node86&#45;&gt;Node91</title>
<path fill="none" stroke="midnightblue" d="M266.163,-62.264C349.454,-66.327 504.65,-73.8976 593.483,-78.2309"/>
<polygon fill="midnightblue" stroke="midnightblue" points="593.556,-81.7385 603.714,-78.73 593.897,-74.7468 593.556,-81.7385"/>
</g>
<!-- Node93 -->
<g id="node9" class="node"><title>Node93</title>
<g id="a_node9"><a xlink:href="namespacemom__neutral__diffusion.html#a6931d9a07d09aa5d76d5abd2e47a54df" target="_top" xlink:title="Returns the average of a PPM reconstruction between two fractional positions. ">
<polygon fill="white" stroke="black" points="302,-0.5 302,-30.5 417,-30.5 417,-0.5 302,-0.5"/>
<text text-anchor="start" x="310" y="-18.5" font-family="Helvetica,sans-Serif" font-size="10.00">mom_neutral_diffusion</text>
<text text-anchor="middle" x="359.5" y="-7.5" font-family="Helvetica,sans-Serif" font-size="10.00">::ppm_ave</text>
</a>
</g>
</g>
<!-- Node86&#45;&gt;Node93 -->
<g id="edge9" class="edge"><title>Node86&#45;&gt;Node93</title>
<path fill="none" stroke="midnightblue" d="M260.361,-44.4808C272.401,-40.9252 285.361,-37.0982 297.789,-33.4279"/>
<polygon fill="midnightblue" stroke="midnightblue" points="299.016,-36.7151 307.616,-30.5262 297.034,-30.0017 299.016,-36.7151"/>
</g>
<!-- Node88 -->
<g id="node4" class="node"><title>Node88</title>
<g id="a_node4"><a xlink:href="namespacemom__neutral__diffusion.html#ac211ae488cb6e3c6685df85d24ecd0dd" target="_top" xlink:title="Returns PLM slopes for a column where the slopes are the difference in value across each cell...">
<polygon fill="white" stroke="black" points="453,-137.5 453,-167.5 568,-167.5 568,-137.5 453,-137.5"/>
<text text-anchor="start" x="461" y="-155.5" font-family="Helvetica,sans-Serif" font-size="10.00">mom_neutral_diffusion</text>
<text text-anchor="middle" x="510.5" y="-144.5" font-family="Helvetica,sans-Serif" font-size="10.00">::plm_diff</text>
</a>
</g>
</g>
<!-- Node87&#45;&gt;Node88 -->
<g id="edge3" class="edge"><title>Node87&#45;&gt;Node88</title>
<path fill="none" stroke="midnightblue" d="M406.421,-118.601C421.503,-123.562 438.428,-129.127 454.136,-134.293"/>
<polygon fill="midnightblue" stroke="midnightblue" points="453.138,-137.649 463.731,-137.448 455.325,-131 453.138,-137.649"/>
</g>
<!-- Node92 -->
<g id="node8" class="node"><title>Node92</title>
<g id="a_node8"><a xlink:href="namespacemom__neutral__diffusion.html#a87d3d020b56a98f3f0c143701f76c86e" target="_top" xlink:title="Returns the PPM quasi&#45;fourth order edge value at k+1/2 following equation 1.6 in Colella &amp; Woodward...">
<polygon fill="white" stroke="black" points="453,-88.5 453,-118.5 568,-118.5 568,-88.5 453,-88.5"/>
<text text-anchor="start" x="461" y="-106.5" font-family="Helvetica,sans-Serif" font-size="10.00">mom_neutral_diffusion</text>
<text text-anchor="middle" x="510.5" y="-95.5" font-family="Helvetica,sans-Serif" font-size="10.00">::ppm_edge</text>
</a>
</g>
</g>
<!-- Node87&#45;&gt;Node92 -->
<g id="edge7" class="edge"><title>Node87&#45;&gt;Node92</title>
<path fill="none" stroke="midnightblue" d="M417.256,-103.5C425.558,-103.5 434.173,-103.5 442.654,-103.5"/>
<polygon fill="midnightblue" stroke="midnightblue" points="442.902,-107 452.902,-103.5 442.902,-100 442.902,-107"/>
</g>
<!-- Node89 -->
<g id="node5" class="node"><title>Node89</title>
<g id="a_node5"><a xlink:href="namespacemom__neutral__diffusion.html#a1c5ac28d7c54581cdd872fe58ef0b204" target="_top" xlink:title="Returns the cell&#45;centered second&#45;order finite volume (unlimited PLM) slope using three consecutive ce...">
<polygon fill="white" stroke="black" points="604,-175.5 604,-205.5 719,-205.5 719,-175.5 604,-175.5"/>
<text text-anchor="start" x="612" y="-193.5" font-family="Helvetica,sans-Serif" font-size="10.00">mom_neutral_diffusion</text>
<text text-anchor="middle" x="661.5" y="-182.5" font-family="Helvetica,sans-Serif" font-size="10.00">::fv_diff</text>
</a>
</g>
</g>
<!-- Node88&#45;&gt;Node89 -->
<g id="edge4" class="edge"><title>Node88&#45;&gt;Node89</title>
<path fill="none" stroke="midnightblue" d="M568.256,-166.975C576.649,-169.115 585.362,-171.337 593.933,-173.523"/>
<polygon fill="midnightblue" stroke="midnightblue" points="593.347,-176.986 603.902,-176.066 595.077,-170.203 593.347,-176.986"/>
</g>
<!-- Node90 -->
<g id="node6" class="node"><title>Node90</title>
<g id="a_node6"><a xlink:href="namespacemom__neutral__diffusion.html#a6ed3814088af470ad6fc4a3a80926fd7" target="_top" xlink:title="Returns the cell&#45;centered second&#45;order weighted least squares slope using three consecutive cell widt...">
<polygon fill="white" stroke="black" points="604,-126.5 604,-156.5 719,-156.5 719,-126.5 604,-126.5"/>
<text text-anchor="start" x="612" y="-144.5" font-family="Helvetica,sans-Serif" font-size="10.00">mom_neutral_diffusion</text>
<text text-anchor="middle" x="661.5" y="-133.5" font-family="Helvetica,sans-Serif" font-size="10.00">::fvlsq_slope</text>
</a>
</g>
</g>
<!-- Node88&#45;&gt;Node90 -->
<g id="edge5" class="edge"><title>Node88&#45;&gt;Node90</title>
<path fill="none" stroke="midnightblue" d="M568.256,-148.31C576.558,-147.697 585.173,-147.061 593.654,-146.435"/>
<polygon fill="midnightblue" stroke="midnightblue" points="594.187,-149.905 603.902,-145.678 593.672,-142.924 594.187,-149.905"/>
</g>
<!-- Node88&#45;&gt;Node91 -->
<g id="edge6" class="edge"><title>Node88&#45;&gt;Node91</title>
<path fill="none" stroke="midnightblue" d="M546.272,-137.408C553.482,-134.197 561.009,-130.783 568,-127.5 585.778,-119.152 605.272,-109.528 621.761,-101.248"/>
<polygon fill="midnightblue" stroke="midnightblue" points="623.732,-104.175 631.087,-96.5484 620.582,-97.9235 623.732,-104.175"/>
</g>
</g>
</svg>
