<?xml version="1.0" encoding="UTF-8" standalone="no"?>
<!DOCTYPE svg PUBLIC "-//W3C//DTD SVG 1.1//EN"
 "http://www.w3.org/Graphics/SVG/1.1/DTD/svg11.dtd">
<!-- Generated by graphviz version 2.38.0 (20140413.2041)
 -->
<!-- Title: rossby_front_2d_initialization::hml Pages: 1 -->
<svg width="753pt" height="170pt"
 viewBox="0.00 0.00 753.00 170.00" xmlns="http://www.w3.org/2000/svg" xmlns:xlink="http://www.w3.org/1999/xlink">
<g id="graph0" class="graph" transform="scale(1 1) rotate(0) translate(4 166)">
<title>rossby_front_2d_initialization::hml</title>
<polygon fill="white" stroke="none" points="-4,4 -4,-166 749,-166 749,4 -4,4"/>
<!-- Node9 -->
<g id="node1" class="node"><title>Node9</title>
<polygon fill="#bfbfbf" stroke="black" points="0,-71.5 0,-90.5 164,-90.5 164,-71.5 0,-71.5"/>
<text text-anchor="middle" x="82" y="-78.5" font-family="Helvetica,sans-Serif" font-size="10.00">rossby_front_2d_initialization::hml</text>
</g>
<!-- Node10 -->
<g id="node2" class="node"><title>Node10</title>
<g id="a_node2"><a xlink:href="namespacerossby__front__2d__initialization.html#ab490a4f15755ef97420badc32419a14d" target="_top" xlink:title="Initialization of temperature and salinity in the Rossby front test. ">
<polygon fill="white" stroke="black" points="200,-120.5 200,-161.5 343,-161.5 343,-120.5 200,-120.5"/>
<text text-anchor="start" x="208" y="-149.5" font-family="Helvetica,sans-Serif" font-size="10.00">rossby_front_2d_initialization</text>
<text text-anchor="start" x="208" y="-138.5" font-family="Helvetica,sans-Serif" font-size="10.00">::rossby_front_initialize</text>
<text text-anchor="middle" x="271.5" y="-127.5" font-family="Helvetica,sans-Serif" font-size="10.00">_temperature_salinity</text>
</a>
</g>
</g>
<!-- Node9&#45;&gt;Node10 -->
<g id="edge1" class="edge"><title>Node9&#45;&gt;Node10</title>
<path fill="none" stroke="midnightblue" d="M122.312,-93.5797C146.645,-101.366 178.466,-111.549 206.38,-120.482"/>
<polygon fill="midnightblue" stroke="midnightblue" points="123.301,-90.2215 112.71,-90.5072 121.167,-96.8885 123.301,-90.2215"/>
</g>
<!-- Node11 -->
<g id="node3" class="node"><title>Node11</title>
<g id="a_node3"><a xlink:href="namespacerossby__front__2d__initialization.html#a5bb2f6319c079e75f6f2f8201105f082" target="_top" xlink:title="Initialization of thicknesses in 2D Rossby front test. ">
<polygon fill="white" stroke="black" points="200,-60.5 200,-101.5 343,-101.5 343,-60.5 200,-60.5"/>
<text text-anchor="start" x="208" y="-89.5" font-family="Helvetica,sans-Serif" font-size="10.00">rossby_front_2d_initialization</text>
<text text-anchor="start" x="208" y="-78.5" font-family="Helvetica,sans-Serif" font-size="10.00">::rossby_front_initialize</text>
<text text-anchor="middle" x="271.5" y="-67.5" font-family="Helvetica,sans-Serif" font-size="10.00">_thickness</text>
</a>
</g>
</g>
<!-- Node9&#45;&gt;Node11 -->
<g id="edge2" class="edge"><title>Node9&#45;&gt;Node11</title>
<path fill="none" stroke="midnightblue" d="M174.219,-81C182.822,-81 191.453,-81 199.823,-81"/>
<polygon fill="midnightblue" stroke="midnightblue" points="174.15,-77.5001 164.15,-81 174.15,-84.5001 174.15,-77.5001"/>
</g>
<!-- Node12 -->
<g id="node4" class="node"><title>Node12</title>
<g id="a_node4"><a xlink:href="namespacerossby__front__2d__initialization.html#ae2ab8919c882f7b3f0da46758f0b33bf" target="_top" xlink:title="Initialization of u and v in the Rossby front test. ">
<polygon fill="white" stroke="black" points="200,-0.5 200,-41.5 343,-41.5 343,-0.5 200,-0.5"/>
<text text-anchor="start" x="208" y="-29.5" font-family="Helvetica,sans-Serif" font-size="10.00">rossby_front_2d_initialization</text>
<text text-anchor="start" x="208" y="-18.5" font-family="Helvetica,sans-Serif" font-size="10.00">::rossby_front_initialize</text>
<text text-anchor="middle" x="271.5" y="-7.5" font-family="Helvetica,sans-Serif" font-size="10.00">_velocity</text>
</a>
</g>
</g>
<!-- Node9&#45;&gt;Node12 -->
<g id="edge3" class="edge"><title>Node9&#45;&gt;Node12</title>
<path fill="none" stroke="midnightblue" d="M122.312,-68.4203C146.645,-60.6336 178.466,-50.451 206.38,-41.5184"/>
<polygon fill="midnightblue" stroke="midnightblue" points="121.167,-65.1115 112.71,-71.4928 123.301,-71.7785 121.167,-65.1115"/>
</g>
<!-- Node13 -->
<g id="node5" class="node"><title>Node13</title>
<g id="a_node5"><a xlink:href="namespacemom__state__initialization.html#af4e854627c6572332ba3fd895f169321" target="_top" xlink:title="mom_state_initialization\l::mom_initialize_state">
<polygon fill="white" stroke="black" points="379,-6 379,-36 501,-36 501,-6 379,-6"/>
<text text-anchor="start" x="387" y="-24" font-family="Helvetica,sans-Serif" font-size="10.00">mom_state_initialization</text>
<text text-anchor="middle" x="440" y="-13" font-family="Helvetica,sans-Serif" font-size="10.00">::mom_initialize_state</text>
</a>
</g>
</g>
<!-- Node12&#45;&gt;Node13 -->
<g id="edge4" class="edge"><title>Node12&#45;&gt;Node13</title>
<path fill="none" stroke="midnightblue" d="M353.193,-21C361.815,-21 370.473,-21 378.798,-21"/>
<polygon fill="midnightblue" stroke="midnightblue" points="353.111,-17.5001 343.111,-21 353.111,-24.5001 353.111,-17.5001"/>
</g>
<!-- Node14 -->
<g id="node6" class="node"><title>Node14</title>
<g id="a_node6"><a xlink:href="namespacemom.html#a0be2869fef30e1e0604facfe1b41555d" target="_top" xlink:title="This subroutine initializes MOM. ">
<polygon fill="white" stroke="black" points="537,-11.5 537,-30.5 644,-30.5 644,-11.5 537,-11.5"/>
<text text-anchor="middle" x="590.5" y="-18.5" font-family="Helvetica,sans-Serif" font-size="10.00">mom::initialize_mom</text>
</a>
</g>
</g>
<!-- Node13&#45;&gt;Node14 -->
<g id="edge5" class="edge"><title>Node13&#45;&gt;Node14</title>
<path fill="none" stroke="midnightblue" d="M511.657,-21C520.116,-21 528.636,-21 536.779,-21"/>
<polygon fill="midnightblue" stroke="midnightblue" points="511.401,-17.5001 501.401,-21 511.401,-24.5001 511.401,-17.5001"/>
</g>
<!-- Node15 -->
<g id="node7" class="node"><title>Node15</title>
<g id="a_node7"><a xlink:href="MOM__driver_8F90.html#a08fffeb2d8e8acbf9ed4609be6d258c6" target="_top" xlink:title="mom_main">
<polygon fill="white" stroke="black" points="680,-11.5 680,-30.5 745,-30.5 745,-11.5 680,-11.5"/>
<text text-anchor="middle" x="712.5" y="-18.5" font-family="Helvetica,sans-Serif" font-size="10.00">mom_main</text>
</a>
</g>
</g>
<!-- Node14&#45;&gt;Node15 -->
<g id="edge6" class="edge"><title>Node14&#45;&gt;Node15</title>
<path fill="none" stroke="midnightblue" d="M654.206,-21C663.134,-21 671.983,-21 679.958,-21"/>
<polygon fill="midnightblue" stroke="midnightblue" points="654.134,-17.5001 644.134,-21 654.134,-24.5001 654.134,-17.5001"/>
</g>
</g>
</svg>
