<?xml version="1.0" encoding="UTF-8" standalone="no"?>
<!DOCTYPE svg PUBLIC "-//W3C//DTD SVG 1.1//EN"
 "http://www.w3.org/Graphics/SVG/1.1/DTD/svg11.dtd">
<!-- Generated by graphviz version 2.38.0 (20140413.2041)
 -->
<!-- Title: mom_diag_mediator::describe_option Pages: 1 -->
<svg width="1062pt" height="411pt"
 viewBox="0.00 0.00 1062.00 411.00" xmlns="http://www.w3.org/2000/svg" xmlns:xlink="http://www.w3.org/1999/xlink">
<g id="graph0" class="graph" transform="scale(1 1) rotate(0) translate(4 407)">
<title>mom_diag_mediator::describe_option</title>
<polygon fill="white" stroke="none" points="-4,4 -4,-407 1058,-407 1058,4 -4,4"/>
<!-- Node68 -->
<g id="node1" class="node"><title>Node68</title>
<polygon fill="#bfbfbf" stroke="black" points="0,-85.5 0,-115.5 110,-115.5 110,-85.5 0,-85.5"/>
<text text-anchor="start" x="8" y="-103.5" font-family="Helvetica,sans-Serif" font-size="10.00">mom_diag_mediator::</text>
<text text-anchor="middle" x="55" y="-92.5" font-family="Helvetica,sans-Serif" font-size="10.00">describe_option</text>
</g>
<!-- Node69 -->
<g id="node2" class="node"><title>Node69</title>
<g id="a_node2"><a xlink:href="namespacemom__diag__mediator.html#a65fe8d329cf5dbfd08c98874a7a64407" target="_top" xlink:title="Log a diagnostic to the available diagnostics file. ">
<polygon fill="white" stroke="black" points="146,-85.5 146,-115.5 256,-115.5 256,-85.5 146,-85.5"/>
<text text-anchor="start" x="154" y="-103.5" font-family="Helvetica,sans-Serif" font-size="10.00">mom_diag_mediator::</text>
<text text-anchor="middle" x="201" y="-92.5" font-family="Helvetica,sans-Serif" font-size="10.00">log_available_diag</text>
</a>
</g>
</g>
<!-- Node68&#45;&gt;Node69 -->
<g id="edge1" class="edge"><title>Node68&#45;&gt;Node69</title>
<path fill="none" stroke="midnightblue" d="M120.27,-100.5C128.75,-100.5 137.375,-100.5 145.667,-100.5"/>
<polygon fill="midnightblue" stroke="midnightblue" points="120.03,-97.0001 110.03,-100.5 120.03,-104 120.03,-97.0001"/>
</g>
<!-- Node70 -->
<g id="node3" class="node"><title>Node70</title>
<g id="a_node3"><a xlink:href="namespacemom__diag__mediator.html#ae50b35cba800ac5fd8975929fd2b9f4a" target="_top" xlink:title="Returns True if either the native of CMOr version of the diagnostic were registered. Updates &#39;dm_id&#39; after calling register_diag_field_expand_axes() for both native and CMOR variants of the field. ">
<polygon fill="white" stroke="black" points="292,-140 292,-181 402,-181 402,-140 292,-140"/>
<text text-anchor="start" x="300" y="-169" font-family="Helvetica,sans-Serif" font-size="10.00">mom_diag_mediator::</text>
<text text-anchor="start" x="300" y="-158" font-family="Helvetica,sans-Serif" font-size="10.00">register_diag_field</text>
<text text-anchor="middle" x="347" y="-147" font-family="Helvetica,sans-Serif" font-size="10.00">_expand_cmor</text>
</a>
</g>
</g>
<!-- Node69&#45;&gt;Node70 -->
<g id="edge2" class="edge"><title>Node69&#45;&gt;Node70</title>
<path fill="none" stroke="midnightblue" d="M247.753,-119.564C263.319,-126.05 280.782,-133.326 296.62,-139.925"/>
<polygon fill="midnightblue" stroke="midnightblue" points="248.914,-116.256 238.337,-115.641 246.222,-122.718 248.914,-116.256"/>
</g>
<!-- Node83 -->
<g id="node16" class="node"><title>Node83</title>
<g id="a_node16"><a xlink:href="namespacemom__diag__mediator.html#afb4254e1cfbbcfc43028f14915173f80" target="_top" xlink:title="mom_diag_mediator::\lregister_scalar_field">
<polygon fill="white" stroke="black" points="292,-85.5 292,-115.5 402,-115.5 402,-85.5 292,-85.5"/>
<text text-anchor="start" x="300" y="-103.5" font-family="Helvetica,sans-Serif" font-size="10.00">mom_diag_mediator::</text>
<text text-anchor="middle" x="347" y="-92.5" font-family="Helvetica,sans-Serif" font-size="10.00">register_scalar_field</text>
</a>
</g>
</g>
<!-- Node69&#45;&gt;Node83 -->
<g id="edge15" class="edge"><title>Node69&#45;&gt;Node83</title>
<path fill="none" stroke="midnightblue" d="M266.27,-100.5C274.75,-100.5 283.375,-100.5 291.667,-100.5"/>
<polygon fill="midnightblue" stroke="midnightblue" points="266.03,-97.0001 256.03,-100.5 266.03,-104 266.03,-97.0001"/>
</g>
<!-- Node84 -->
<g id="node17" class="node"><title>Node84</title>
<g id="a_node17"><a xlink:href="namespacemom__diag__mediator.html#abe591ed2565e9f026c5be055bc2fc0b7" target="_top" xlink:title="Registers a static diagnostic, returning an integer handle. ">
<polygon fill="white" stroke="black" points="292,-26.5 292,-56.5 402,-56.5 402,-26.5 292,-26.5"/>
<text text-anchor="start" x="300" y="-44.5" font-family="Helvetica,sans-Serif" font-size="10.00">mom_diag_mediator::</text>
<text text-anchor="middle" x="347" y="-33.5" font-family="Helvetica,sans-Serif" font-size="10.00">register_static_field</text>
</a>
</g>
</g>
<!-- Node69&#45;&gt;Node84 -->
<g id="edge16" class="edge"><title>Node69&#45;&gt;Node84</title>
<path fill="none" stroke="midnightblue" d="M248.154,-81.5896C267.949,-73.4792 290.749,-64.1377 309.357,-56.5134"/>
<polygon fill="midnightblue" stroke="midnightblue" points="246.636,-78.4291 238.71,-85.4592 249.29,-84.9065 246.636,-78.4291"/>
</g>
<!-- Node71 -->
<g id="node4" class="node"><title>Node71</title>
<g id="a_node4"><a xlink:href="namespacemom__diag__mediator.html#aa791f75f899ae9b7cd4756165a9c2a1b" target="_top" xlink:title="Returns the &quot;diag_mediator&quot; handle for a group (native, CMOR, z&#45;coord, ...) of diagnostics derived fr...">
<polygon fill="white" stroke="black" points="465,-186.5 465,-216.5 575,-216.5 575,-186.5 465,-186.5"/>
<text text-anchor="start" x="473" y="-204.5" font-family="Helvetica,sans-Serif" font-size="10.00">mom_diag_mediator::</text>
<text text-anchor="middle" x="520" y="-193.5" font-family="Helvetica,sans-Serif" font-size="10.00">register_diag_field</text>
</a>
</g>
</g>
<!-- Node70&#45;&gt;Node71 -->
<g id="edge3" class="edge"><title>Node70&#45;&gt;Node71</title>
<path fill="none" stroke="midnightblue" d="M412.171,-175.886C429.552,-180.053 448.19,-184.522 464.953,-188.541"/>
<polygon fill="midnightblue" stroke="midnightblue" points="412.646,-172.401 402.105,-173.473 411.014,-179.208 412.646,-172.401"/>
</g>
<!-- Node72 -->
<g id="node5" class="node"><title>Node72</title>
<g id="a_node5"><a xlink:href="namespacemom__ale.html#a994efb3c62fc5f63da2617f29cbd6be1" target="_top" xlink:title="Initialize diagnostics for the ALE module. ">
<polygon fill="white" stroke="black" points="662,-372.5 662,-402.5 775,-402.5 775,-372.5 662,-372.5"/>
<text text-anchor="start" x="670" y="-390.5" font-family="Helvetica,sans-Serif" font-size="10.00">mom_ale::ale_register</text>
<text text-anchor="middle" x="718.5" y="-379.5" font-family="Helvetica,sans-Serif" font-size="10.00">_diags</text>
</a>
</g>
</g>
<!-- Node71&#45;&gt;Node72 -->
<g id="edge4" class="edge"><title>Node71&#45;&gt;Node72</title>
<path fill="none" stroke="midnightblue" d="M532.442,-226.001C550.149,-261.291 587.489,-326.171 638,-362.5 645.165,-367.653 653.429,-371.77 661.862,-375.052"/>
<polygon fill="midnightblue" stroke="midnightblue" points="535.516,-224.32 527.974,-216.88 529.23,-227.4 535.516,-224.32"/>
</g>
<!-- Node73 -->
<g id="node6" class="node"><title>Node73</title>
<g id="a_node6"><a xlink:href="namespacemom__coriolisadv.html#ad3ce07f23ce7b484a5a9e0c0abe8b1cd" target="_top" xlink:title="Initializes the control structure for coriolisadv_cs. ">
<polygon fill="white" stroke="black" points="638,-334 638,-353 799,-353 799,-334 638,-334"/>
<text text-anchor="middle" x="718.5" y="-341" font-family="Helvetica,sans-Serif" font-size="10.00">mom_coriolisadv::coriolisadv_init</text>
</a>
</g>
</g>
<!-- Node71&#45;&gt;Node73 -->
<g id="edge5" class="edge"><title>Node71&#45;&gt;Node73</title>
<path fill="none" stroke="midnightblue" d="M536.848,-225.083C556.996,-253.166 594.444,-299.417 638,-324.5 644.764,-328.395 652.29,-331.493 659.941,-333.958"/>
<polygon fill="midnightblue" stroke="midnightblue" points="539.54,-222.826 530.928,-216.653 533.811,-226.848 539.54,-222.826"/>
</g>
<!-- Node74 -->
<g id="node7" class="node"><title>Node74</title>
<g id="a_node7"><a xlink:href="namespacemom__diag__mediator.html#a21267e25d12fa3e5d2540d2a299d2d2c" target="_top" xlink:title="Registers a diagnostic using the information encapsulated in the vardesc type argument and returns an...">
<polygon fill="white" stroke="black" points="663.5,-284.5 663.5,-314.5 773.5,-314.5 773.5,-284.5 663.5,-284.5"/>
<text text-anchor="start" x="671.5" y="-302.5" font-family="Helvetica,sans-Serif" font-size="10.00">mom_diag_mediator::</text>
<text text-anchor="middle" x="718.5" y="-291.5" font-family="Helvetica,sans-Serif" font-size="10.00">ocean_register_diag</text>
</a>
</g>
</g>
<!-- Node71&#45;&gt;Node74 -->
<g id="edge6" class="edge"><title>Node71&#45;&gt;Node74</title>
<path fill="none" stroke="midnightblue" d="M549.418,-222.567C572.375,-238.806 606.016,-260.887 638,-275.5 645.999,-279.155 654.7,-282.431 663.314,-285.3"/>
<polygon fill="midnightblue" stroke="midnightblue" points="551.336,-219.635 541.168,-216.657 547.259,-225.326 551.336,-219.635"/>
</g>
<!-- Node76 -->
<g id="node9" class="node"><title>Node76</title>
<g id="a_node9"><a xlink:href="namespacemom__diapyc__energy__req.html#aa0ce122f4dc6d9a6ec9e17996484bb76" target="_top" xlink:title="mom_diapyc_energy_req\l::diapyc_energy_req_init">
<polygon fill="white" stroke="black" points="656,-235.5 656,-265.5 781,-265.5 781,-235.5 656,-235.5"/>
<text text-anchor="start" x="664" y="-253.5" font-family="Helvetica,sans-Serif" font-size="10.00">mom_diapyc_energy_req</text>
<text text-anchor="middle" x="718.5" y="-242.5" font-family="Helvetica,sans-Serif" font-size="10.00">::diapyc_energy_req_init</text>
</a>
</g>
</g>
<!-- Node71&#45;&gt;Node76 -->
<g id="edge8" class="edge"><title>Node71&#45;&gt;Node76</title>
<path fill="none" stroke="midnightblue" d="M584.972,-217.452C608.198,-223.244 634.347,-229.765 657.242,-235.474"/>
<polygon fill="midnightblue" stroke="midnightblue" points="585.764,-214.043 575.215,-215.019 584.071,-220.835 585.764,-214.043"/>
</g>
<!-- Node77 -->
<g id="node10" class="node"><title>Node77</title>
<g id="a_node10"><a xlink:href="namespacemom__diffconvection.html#ac36d9d7fd69e4422e7de01242094ff34" target="_top" xlink:title="mom_diffconvection\l::diffconvection_init">
<polygon fill="white" stroke="black" points="666.5,-186.5 666.5,-216.5 770.5,-216.5 770.5,-186.5 666.5,-186.5"/>
<text text-anchor="start" x="674.5" y="-204.5" font-family="Helvetica,sans-Serif" font-size="10.00">mom_diffconvection</text>
<text text-anchor="middle" x="718.5" y="-193.5" font-family="Helvetica,sans-Serif" font-size="10.00">::diffconvection_init</text>
</a>
</g>
</g>
<!-- Node71&#45;&gt;Node77 -->
<g id="edge9" class="edge"><title>Node71&#45;&gt;Node77</title>
<path fill="none" stroke="midnightblue" d="M585.433,-201.5C611.63,-201.5 641.48,-201.5 666.167,-201.5"/>
<polygon fill="midnightblue" stroke="midnightblue" points="585.215,-198 575.215,-201.5 585.215,-205 585.215,-198"/>
</g>
<!-- Node78 -->
<g id="node11" class="node"><title>Node78</title>
<g id="a_node11"><a xlink:href="namespacemom__int__tide__input.html#a29a707637da633ccee155b53557b5f17" target="_top" xlink:title="mom_int_tide_input\l::int_tide_input_init">
<polygon fill="white" stroke="black" points="668,-137.5 668,-167.5 769,-167.5 769,-137.5 668,-137.5"/>
<text text-anchor="start" x="676" y="-155.5" font-family="Helvetica,sans-Serif" font-size="10.00">mom_int_tide_input</text>
<text text-anchor="middle" x="718.5" y="-144.5" font-family="Helvetica,sans-Serif" font-size="10.00">::int_tide_input_init</text>
</a>
</g>
</g>
<!-- Node71&#45;&gt;Node78 -->
<g id="edge10" class="edge"><title>Node71&#45;&gt;Node78</title>
<path fill="none" stroke="midnightblue" d="M584.933,-185.557C611.842,-178.847 642.679,-171.158 667.836,-164.884"/>
<polygon fill="midnightblue" stroke="midnightblue" points="584.071,-182.165 575.215,-187.981 585.764,-188.957 584.071,-182.165"/>
</g>
<!-- Node79 -->
<g id="node12" class="node"><title>Node79</title>
<g id="a_node12"><a xlink:href="namespacemom__kpp.html#a9c834424b6e067e280928db3700ec77e" target="_top" xlink:title="Initialize the CVmix KPP module and set up diagnostics Returns True if KPP is to be used...">
<polygon fill="white" stroke="black" points="669,-99 669,-118 768,-118 768,-99 669,-99"/>
<text text-anchor="middle" x="718.5" y="-106" font-family="Helvetica,sans-Serif" font-size="10.00">mom_kpp::kpp_init</text>
</a>
</g>
</g>
<!-- Node71&#45;&gt;Node79 -->
<g id="edge11" class="edge"><title>Node71&#45;&gt;Node79</title>
<path fill="none" stroke="midnightblue" d="M549.28,-180.329C572.16,-164.093 605.765,-142.21 638,-128.5 647.823,-124.322 658.713,-120.876 669.203,-118.091"/>
<polygon fill="midnightblue" stroke="midnightblue" points="547.131,-177.563 541.061,-186.246 551.221,-183.244 547.131,-177.563"/>
</g>
<!-- Node80 -->
<g id="node13" class="node"><title>Node80</title>
<g id="a_node13"><a xlink:href="namespacemom__neutral__diffusion.html#a87cf821c52ac1111493d4168f0a91d17" target="_top" xlink:title="Diagnostic handles for neutral diffusion tendencies. ">
<polygon fill="white" stroke="black" points="651,-49.5 651,-79.5 786,-79.5 786,-49.5 651,-49.5"/>
<text text-anchor="start" x="659" y="-67.5" font-family="Helvetica,sans-Serif" font-size="10.00">mom_neutral_diffusion</text>
<text text-anchor="middle" x="718.5" y="-56.5" font-family="Helvetica,sans-Serif" font-size="10.00">::neutral_diffusion_diag_init</text>
</a>
</g>
</g>
<!-- Node71&#45;&gt;Node80 -->
<g id="edge12" class="edge"><title>Node71&#45;&gt;Node80</title>
<path fill="none" stroke="midnightblue" d="M539.582,-178.202C560.865,-152.97 597.99,-113.164 638,-89.5 644.476,-85.6699 651.601,-82.3642 658.844,-79.528"/>
<polygon fill="midnightblue" stroke="midnightblue" points="536.677,-176.223 532.991,-186.156 542.067,-180.689 536.677,-176.223"/>
</g>
<!-- Node75 -->
<g id="node8" class="node"><title>Node75</title>
<g id="a_node8"><a xlink:href="namespacemom__diag__to__z.html#a90526b2f59f94c6af2f525a221029772" target="_top" xlink:title="This subroutine registers a tracer to be output in depth space. ">
<polygon fill="white" stroke="black" points="835,-284.5 835,-314.5 953,-314.5 953,-284.5 835,-284.5"/>
<text text-anchor="start" x="843" y="-302.5" font-family="Helvetica,sans-Serif" font-size="10.00">mom_diag_to_z::ocean</text>
<text text-anchor="middle" x="894" y="-291.5" font-family="Helvetica,sans-Serif" font-size="10.00">_register_diag_with_z</text>
</a>
</g>
</g>
<!-- Node74&#45;&gt;Node75 -->
<g id="edge7" class="edge"><title>Node74&#45;&gt;Node75</title>
<path fill="none" stroke="midnightblue" d="M784.111,-299.5C800.759,-299.5 818.572,-299.5 834.868,-299.5"/>
<polygon fill="midnightblue" stroke="midnightblue" points="783.92,-296 773.92,-299.5 783.92,-303 783.92,-296"/>
</g>
<!-- Node81 -->
<g id="node14" class="node"><title>Node81</title>
<g id="a_node14"><a xlink:href="namespacemom.html#a0be2869fef30e1e0604facfe1b41555d" target="_top" xlink:title="This subroutine initializes MOM. ">
<polygon fill="white" stroke="black" points="840.5,-55 840.5,-74 947.5,-74 947.5,-55 840.5,-55"/>
<text text-anchor="middle" x="894" y="-62" font-family="Helvetica,sans-Serif" font-size="10.00">mom::initialize_mom</text>
</a>
</g>
</g>
<!-- Node80&#45;&gt;Node81 -->
<g id="edge13" class="edge"><title>Node80&#45;&gt;Node81</title>
<path fill="none" stroke="midnightblue" d="M796.296,-64.5C811.171,-64.5 826.441,-64.5 840.326,-64.5"/>
<polygon fill="midnightblue" stroke="midnightblue" points="796.083,-61.0001 786.083,-64.5 796.083,-68.0001 796.083,-61.0001"/>
</g>
<!-- Node82 -->
<g id="node15" class="node"><title>Node82</title>
<g id="a_node15"><a xlink:href="MOM__driver_8F90.html#a08fffeb2d8e8acbf9ed4609be6d258c6" target="_top" xlink:title="mom_main">
<polygon fill="white" stroke="black" points="989,-55 989,-74 1054,-74 1054,-55 989,-55"/>
<text text-anchor="middle" x="1021.5" y="-62" font-family="Helvetica,sans-Serif" font-size="10.00">mom_main</text>
</a>
</g>
</g>
<!-- Node81&#45;&gt;Node82 -->
<g id="edge14" class="edge"><title>Node81&#45;&gt;Node82</title>
<path fill="none" stroke="midnightblue" d="M958.06,-64.5C968.738,-64.5 979.404,-64.5 988.821,-64.5"/>
<polygon fill="midnightblue" stroke="midnightblue" points="957.86,-61.0001 947.86,-64.5 957.86,-68.0001 957.86,-61.0001"/>
</g>
<!-- Node85 -->
<g id="node18" class="node"><title>Node85</title>
<g id="a_node18"><a xlink:href="namespacemom__geothermal.html#a0abbb7953860e3357bbd3d35f46fd851" target="_top" xlink:title="mom_geothermal::geothermal_init">
<polygon fill="white" stroke="black" points="438,-12 438,-31 602,-31 602,-12 438,-12"/>
<text text-anchor="middle" x="520" y="-19" font-family="Helvetica,sans-Serif" font-size="10.00">mom_geothermal::geothermal_init</text>
</a>
</g>
</g>
<!-- Node84&#45;&gt;Node85 -->
<g id="edge17" class="edge"><title>Node84&#45;&gt;Node85</title>
<path fill="none" stroke="midnightblue" d="M412.14,-33.9983C420.504,-33.02 429.159,-32.0077 437.757,-31.0021"/>
<polygon fill="midnightblue" stroke="midnightblue" points="411.631,-30.5338 402.105,-35.1719 412.444,-37.4864 411.631,-30.5338"/>
</g>
<!-- Node86 -->
<g id="node19" class="node"><title>Node86</title>
<g id="a_node19"><a xlink:href="namespacemom__diabatic__driver.html#afa0b30bd6f0e080bcacbd6dcb15ff990" target="_top" xlink:title="This routine initializes the diabatic driver module. ">
<polygon fill="white" stroke="black" points="665,-0.5 665,-30.5 772,-30.5 772,-0.5 665,-0.5"/>
<text text-anchor="start" x="673" y="-18.5" font-family="Helvetica,sans-Serif" font-size="10.00">mom_diabatic_driver</text>
<text text-anchor="middle" x="718.5" y="-7.5" font-family="Helvetica,sans-Serif" font-size="10.00">::diabatic_driver_init</text>
</a>
</g>
</g>
<!-- Node85&#45;&gt;Node86 -->
<g id="edge18" class="edge"><title>Node85&#45;&gt;Node86</title>
<path fill="none" stroke="midnightblue" d="M612.085,-18.7188C630.22,-18.165 648.684,-17.6013 664.985,-17.1035"/>
<polygon fill="midnightblue" stroke="midnightblue" points="611.947,-15.2213 602.059,-19.0249 612.161,-22.218 611.947,-15.2213"/>
</g>
</g>
</svg>
