<?xml version="1.0" encoding="UTF-8" standalone="no"?>
<!DOCTYPE svg PUBLIC "-//W3C//DTD SVG 1.1//EN"
 "http://www.w3.org/Graphics/SVG/1.1/DTD/svg11.dtd">
<!-- Generated by graphviz version 2.38.0 (20140413.2041)
 -->
<!-- Title: user_shelf_init::user_initialize_shelf_mass Pages: 1 -->
<svg width="264pt" height="88pt"
 viewBox="0.00 0.00 264.00 88.00" xmlns="http://www.w3.org/2000/svg" xmlns:xlink="http://www.w3.org/1999/xlink">
<g id="graph0" class="graph" transform="scale(1 1) rotate(0) translate(4 84)">
<title>user_shelf_init::user_initialize_shelf_mass</title>
<polygon fill="white" stroke="none" points="-4,4 -4,-84 260,-84 260,4 -4,4"/>
<!-- Node6 -->
<g id="node1" class="node"><title>Node6</title>
<polygon fill="#bfbfbf" stroke="black" points="0,-24.5 0,-54.5 113,-54.5 113,-24.5 0,-24.5"/>
<text text-anchor="start" x="8" y="-42.5" font-family="Helvetica,sans-Serif" font-size="10.00">user_shelf_init::user</text>
<text text-anchor="middle" x="56.5" y="-31.5" font-family="Helvetica,sans-Serif" font-size="10.00">_initialize_shelf_mass</text>
</g>
<!-- Node7 -->
<g id="node2" class="node"><title>Node7</title>
<g id="a_node2"><a xlink:href="namespaceuser__shelf__init.html#abd99438d24c4a57aa3fbab3b067a7c81" target="_top" xlink:title="user_shelf_init::user\l_update_shelf_mass">
<polygon fill="white" stroke="black" points="149,-49.5 149,-79.5 256,-79.5 256,-49.5 149,-49.5"/>
<text text-anchor="start" x="157" y="-67.5" font-family="Helvetica,sans-Serif" font-size="10.00">user_shelf_init::user</text>
<text text-anchor="middle" x="202.5" y="-56.5" font-family="Helvetica,sans-Serif" font-size="10.00">_update_shelf_mass</text>
</a>
</g>
</g>
<!-- Node6&#45;&gt;Node7 -->
<g id="edge1" class="edge"><title>Node6&#45;&gt;Node7</title>
<path fill="none" stroke="midnightblue" d="M113.174,-49.1657C121.593,-50.6273 130.326,-52.1435 138.88,-53.6285"/>
<polygon fill="midnightblue" stroke="midnightblue" points="138.358,-57.0901 148.809,-55.3523 139.555,-50.1932 138.358,-57.0901"/>
</g>
<!-- Node8 -->
<g id="node3" class="node"><title>Node8</title>
<g id="a_node3"><a xlink:href="namespaceuser__shelf__init.html#a04dc4958214e8b07da385f8be785d706" target="_top" xlink:title="user_shelf_init::write\l_user_log">
<polygon fill="white" stroke="black" points="149,-0.5 149,-30.5 256,-30.5 256,-0.5 149,-0.5"/>
<text text-anchor="start" x="157" y="-18.5" font-family="Helvetica,sans-Serif" font-size="10.00">user_shelf_init::write</text>
<text text-anchor="middle" x="202.5" y="-7.5" font-family="Helvetica,sans-Serif" font-size="10.00">_user_log</text>
</a>
</g>
</g>
<!-- Node6&#45;&gt;Node8 -->
<g id="edge2" class="edge"><title>Node6&#45;&gt;Node8</title>
<path fill="none" stroke="midnightblue" d="M113.174,-30.221C121.593,-28.8178 130.326,-27.3623 138.88,-25.9367"/>
<polygon fill="midnightblue" stroke="midnightblue" points="139.52,-29.3783 148.809,-24.2818 138.37,-22.4735 139.52,-29.3783"/>
</g>
</g>
</svg>
