<?xml version="1.0" encoding="UTF-8" standalone="no"?>
<!DOCTYPE svg PUBLIC "-//W3C//DTD SVG 1.1//EN"
 "http://www.w3.org/Graphics/SVG/1.1/DTD/svg11.dtd">
<!-- Generated by graphviz version 2.38.0 (20140413.2041)
 -->
<!-- Title: mom_ice_shelf::update_od_ffrac Pages: 1 -->
<svg width="373pt" height="39pt"
 viewBox="0.00 0.00 373.00 39.00" xmlns="http://www.w3.org/2000/svg" xmlns:xlink="http://www.w3.org/1999/xlink">
<g id="graph0" class="graph" transform="scale(1 1) rotate(0) translate(4 35)">
<title>mom_ice_shelf::update_od_ffrac</title>
<polygon fill="white" stroke="none" points="-4,4 -4,-35 369,-35 369,4 -4,4"/>
<!-- Node414 -->
<g id="node1" class="node"><title>Node414</title>
<polygon fill="#bfbfbf" stroke="black" points="0,-0.5 0,-30.5 118,-30.5 118,-0.5 0,-0.5"/>
<text text-anchor="start" x="8" y="-18.5" font-family="Helvetica,sans-Serif" font-size="10.00">mom_ice_shelf::update</text>
<text text-anchor="middle" x="59" y="-7.5" font-family="Helvetica,sans-Serif" font-size="10.00">_od_ffrac</text>
</g>
<!-- Node415 -->
<g id="node2" class="node"><title>Node415</title>
<g id="a_node2"><a xlink:href="namespacemom__ice__shelf.html#a3b0e0cc9f36c5197236cc05867b780df" target="_top" xlink:title="Calculates fluxes between the ocean and ice&#45;shelf using the three&#45;equations formulation (optional to ...">
<polygon fill="white" stroke="black" points="154,-0.5 154,-30.5 264,-30.5 264,-0.5 154,-0.5"/>
<text text-anchor="start" x="162" y="-18.5" font-family="Helvetica,sans-Serif" font-size="10.00">mom_ice_shelf::shelf</text>
<text text-anchor="middle" x="209" y="-7.5" font-family="Helvetica,sans-Serif" font-size="10.00">_calc_flux</text>
</a>
</g>
</g>
<!-- Node414&#45;&gt;Node415 -->
<g id="edge1" class="edge"><title>Node414&#45;&gt;Node415</title>
<path fill="none" stroke="midnightblue" d="M128.151,-15.5C136.807,-15.5 145.569,-15.5 153.962,-15.5"/>
<polygon fill="midnightblue" stroke="midnightblue" points="128.069,-12.0001 118.069,-15.5 128.069,-19.0001 128.069,-12.0001"/>
</g>
<!-- Node416 -->
<g id="node3" class="node"><title>Node416</title>
<g id="a_node3"><a xlink:href="MOM__driver_8F90.html#a08fffeb2d8e8acbf9ed4609be6d258c6" target="_top" xlink:title="mom_main">
<polygon fill="white" stroke="black" points="300,-6 300,-25 365,-25 365,-6 300,-6"/>
<text text-anchor="middle" x="332.5" y="-13" font-family="Helvetica,sans-Serif" font-size="10.00">mom_main</text>
</a>
</g>
</g>
<!-- Node415&#45;&gt;Node416 -->
<g id="edge2" class="edge"><title>Node415&#45;&gt;Node416</title>
<path fill="none" stroke="midnightblue" d="M274.627,-15.5C283.374,-15.5 292.013,-15.5 299.815,-15.5"/>
<polygon fill="midnightblue" stroke="midnightblue" points="274.353,-12.0001 264.353,-15.5 274.353,-19.0001 274.353,-12.0001"/>
</g>
</g>
</svg>
