<?xml version="1.0" encoding="UTF-8" standalone="no"?>
<!DOCTYPE svg PUBLIC "-//W3C//DTD SVG 1.1//EN"
 "http://www.w3.org/Graphics/SVG/1.1/DTD/svg11.dtd">
<!-- Generated by graphviz version 2.38.0 (20140413.2041)
 -->
<!-- Title: mom_surface_forcing::wind_forcing_by_data_override Pages: 1 -->
<svg width="372pt" height="50pt"
 viewBox="0.00 0.00 372.00 50.00" xmlns="http://www.w3.org/2000/svg" xmlns:xlink="http://www.w3.org/1999/xlink">
<g id="graph0" class="graph" transform="scale(1 1) rotate(0) translate(4 46)">
<title>mom_surface_forcing::wind_forcing_by_data_override</title>
<polygon fill="white" stroke="none" points="-4,4 -4,-46 368,-46 368,4 -4,4"/>
<!-- Node83 -->
<g id="node1" class="node"><title>Node83</title>
<polygon fill="#bfbfbf" stroke="black" points="0,-0.5 0,-41.5 117,-41.5 117,-0.5 0,-0.5"/>
<text text-anchor="start" x="8" y="-29.5" font-family="Helvetica,sans-Serif" font-size="10.00">mom_surface_forcing</text>
<text text-anchor="start" x="8" y="-18.5" font-family="Helvetica,sans-Serif" font-size="10.00">::wind_forcing_by_data</text>
<text text-anchor="middle" x="58.5" y="-7.5" font-family="Helvetica,sans-Serif" font-size="10.00">_override</text>
</g>
<!-- Node84 -->
<g id="node2" class="node"><title>Node84</title>
<g id="a_node2"><a xlink:href="namespacemom__surface__forcing.html#a82bece05671a4155b220fb57fd4cfcc0" target="_top" xlink:title="mom_surface_forcing\l::set_forcing">
<polygon fill="white" stroke="black" points="153,-6 153,-36 263,-36 263,-6 153,-6"/>
<text text-anchor="start" x="161" y="-24" font-family="Helvetica,sans-Serif" font-size="10.00">mom_surface_forcing</text>
<text text-anchor="middle" x="208" y="-13" font-family="Helvetica,sans-Serif" font-size="10.00">::set_forcing</text>
</a>
</g>
</g>
<!-- Node83&#45;&gt;Node84 -->
<g id="edge1" class="edge"><title>Node83&#45;&gt;Node84</title>
<path fill="none" stroke="midnightblue" d="M127.56,-21C135.976,-21 144.492,-21 152.666,-21"/>
<polygon fill="midnightblue" stroke="midnightblue" points="127.373,-17.5001 117.373,-21 127.373,-24.5001 127.373,-17.5001"/>
</g>
<!-- Node85 -->
<g id="node3" class="node"><title>Node85</title>
<g id="a_node3"><a xlink:href="MOM__driver_8F90.html#a08fffeb2d8e8acbf9ed4609be6d258c6" target="_top" xlink:title="mom_main">
<polygon fill="white" stroke="black" points="299,-11.5 299,-30.5 364,-30.5 364,-11.5 299,-11.5"/>
<text text-anchor="middle" x="331.5" y="-18.5" font-family="Helvetica,sans-Serif" font-size="10.00">mom_main</text>
</a>
</g>
</g>
<!-- Node84&#45;&gt;Node85 -->
<g id="edge2" class="edge"><title>Node84&#45;&gt;Node85</title>
<path fill="none" stroke="midnightblue" d="M273.627,-21C282.374,-21 291.013,-21 298.815,-21"/>
<polygon fill="midnightblue" stroke="midnightblue" points="273.353,-17.5001 263.353,-21 273.353,-24.5001 273.353,-17.5001"/>
</g>
</g>
</svg>
