<?xml version="1.0" encoding="UTF-8" standalone="no"?>
<!DOCTYPE svg PUBLIC "-//W3C//DTD SVG 1.1//EN"
 "http://www.w3.org/Graphics/SVG/1.1/DTD/svg11.dtd">
<!-- Generated by graphviz version 2.38.0 (20140413.2041)
 -->
<!-- Title: mom_error_handler::calltree_waypoint Pages: 1 -->
<svg width="904pt" height="557pt"
 viewBox="0.00 0.00 904.00 556.78" xmlns="http://www.w3.org/2000/svg" xmlns:xlink="http://www.w3.org/1999/xlink">
<g id="graph0" class="graph" transform="scale(1 1) rotate(0) translate(4 552.775)">
<title>mom_error_handler::calltree_waypoint</title>
<polygon fill="white" stroke="none" points="-4,4 -4,-552.775 900,-552.775 900,4 -4,4"/>
<!-- Node169 -->
<g id="node1" class="node"><title>Node169</title>
<polygon fill="#bfbfbf" stroke="black" points="0,-267.5 0,-297.5 106,-297.5 106,-267.5 0,-267.5"/>
<text text-anchor="start" x="8" y="-285.5" font-family="Helvetica,sans-Serif" font-size="10.00">mom_error_handler::</text>
<text text-anchor="middle" x="53" y="-274.5" font-family="Helvetica,sans-Serif" font-size="10.00">calltree_waypoint</text>
</g>
<!-- Node170 -->
<g id="node2" class="node"><title>Node170</title>
<g id="a_node2"><a xlink:href="namespacemom__ale.html#a85ced017378248ea6db867aa03220a1d" target="_top" xlink:title="Takes care of (1) building a new grid and (2) remapping all variables between the old grid and the ne...">
<polygon fill="white" stroke="black" points="344,-525 344,-544 445,-544 445,-525 344,-525"/>
<text text-anchor="middle" x="394.5" y="-532" font-family="Helvetica,sans-Serif" font-size="10.00">mom_ale::ale_main</text>
</a>
</g>
</g>
<!-- Node169&#45;&gt;Node170 -->
<g id="edge1" class="edge"><title>Node169&#45;&gt;Node170</title>
<path fill="none" stroke="midnightblue" d="M55.4812,-307.814C59.7924,-356.089 76.6037,-460.91 142,-510.5 200.016,-554.494 288.541,-551.524 343.615,-543.999"/>
<polygon fill="midnightblue" stroke="midnightblue" points="58.9527,-307.312 54.6842,-297.615 51.974,-307.857 58.9527,-307.312"/>
</g>
<!-- Node171 -->
<g id="node3" class="node"><title>Node171</title>
<g id="a_node3"><a xlink:href="namespacemom__ale.html#a5a39781fe9a087c4ab8b4b2ea86ef05c" target="_top" xlink:title="Takes care of (1) building a new grid and (2) remapping all variables between the old grid and the ne...">
<polygon fill="white" stroke="black" points="328,-449 328,-468 461,-468 461,-449 328,-449"/>
<text text-anchor="middle" x="394.5" y="-456" font-family="Helvetica,sans-Serif" font-size="10.00">mom_ale::ale_main_offline</text>
</a>
</g>
</g>
<!-- Node169&#45;&gt;Node171 -->
<g id="edge2" class="edge"><title>Node169&#45;&gt;Node171</title>
<path fill="none" stroke="midnightblue" d="M62.2558,-307.232C74.3394,-339.277 100.075,-394.257 142,-421.5 197.325,-457.45 273.803,-464.03 327.86,-463.283"/>
<polygon fill="midnightblue" stroke="midnightblue" points="65.5004,-305.912 58.8091,-297.697 58.9174,-308.292 65.5004,-305.912"/>
</g>
<!-- Node173 -->
<g id="node5" class="node"><title>Node173</title>
<g id="a_node5"><a xlink:href="namespacemom__ale.html#a1e8b6f82cdc9d20abf0506b3ab7004b6" target="_top" xlink:title="Regrid/remap stored fields used for offline tracer integrations. These input fields are assumed to ha...">
<polygon fill="white" stroke="black" points="341,-301.5 341,-331.5 448,-331.5 448,-301.5 341,-301.5"/>
<text text-anchor="start" x="349" y="-319.5" font-family="Helvetica,sans-Serif" font-size="10.00">mom_ale::ale_offline</text>
<text text-anchor="middle" x="394.5" y="-308.5" font-family="Helvetica,sans-Serif" font-size="10.00">_inputs</text>
</a>
</g>
</g>
<!-- Node169&#45;&gt;Node173 -->
<g id="edge4" class="edge"><title>Node169&#45;&gt;Node173</title>
<path fill="none" stroke="midnightblue" d="M116.113,-293.004C124.792,-294.29 133.609,-295.5 142,-296.5 210.502,-304.66 289.911,-310.35 340.877,-313.52"/>
<polygon fill="midnightblue" stroke="midnightblue" points="116.435,-289.513 106.022,-291.468 115.382,-296.433 116.435,-289.513"/>
</g>
<!-- Node174 -->
<g id="node6" class="node"><title>Node174</title>
<g id="a_node6"><a xlink:href="namespacemom__ale.html#a785da1afa50677a8b9e6125e100028ce" target="_top" xlink:title="Remaps all tracers from h onto h_target. This is intended to be called when tracers are done offline...">
<polygon fill="white" stroke="black" points="341,-399.5 341,-429.5 448,-429.5 448,-399.5 341,-399.5"/>
<text text-anchor="start" x="349" y="-417.5" font-family="Helvetica,sans-Serif" font-size="10.00">mom_ale::ale_offline</text>
<text text-anchor="middle" x="394.5" y="-406.5" font-family="Helvetica,sans-Serif" font-size="10.00">_tracer_final</text>
</a>
</g>
</g>
<!-- Node169&#45;&gt;Node174 -->
<g id="edge5" class="edge"><title>Node169&#45;&gt;Node174</title>
<path fill="none" stroke="midnightblue" d="M65.7996,-306.784C79.9437,-332.94 106.285,-373.374 142,-392.5 204.015,-425.71 287.126,-425.925 340.504,-421.464"/>
<polygon fill="midnightblue" stroke="midnightblue" points="68.8729,-305.107 61.1458,-297.859 62.6661,-308.344 68.8729,-305.107"/>
</g>
<!-- Node176 -->
<g id="node8" class="node"><title>Node176</title>
<g id="a_node8"><a xlink:href="MOM__driver_8F90.html#a08fffeb2d8e8acbf9ed4609be6d258c6" target="_top" xlink:title="mom_main">
<polygon fill="white" stroke="black" points="831,-366 831,-385 896,-385 896,-366 831,-366"/>
<text text-anchor="middle" x="863.5" y="-373" font-family="Helvetica,sans-Serif" font-size="10.00">mom_main</text>
</a>
</g>
</g>
<!-- Node169&#45;&gt;Node176 -->
<g id="edge12" class="edge"><title>Node169&#45;&gt;Node176</title>
<path fill="none" stroke="midnightblue" d="M59.1976,-307.636C68.5642,-346.137 92.1325,-419.071 142,-455.5 233.451,-522.307 280.247,-496.5 393.5,-496.5 393.5,-496.5 393.5,-496.5 562,-496.5 680.949,-496.5 808.463,-413.91 849.199,-385.197"/>
<polygon fill="midnightblue" stroke="midnightblue" points="62.5759,-306.709 56.9223,-297.748 55.7542,-308.279 62.5759,-306.709"/>
</g>
<!-- Node178 -->
<g id="node10" class="node"><title>Node178</title>
<g id="a_node10"><a xlink:href="namespacemom__diabatic__driver.html#af76fe90c618a04d7806bc53fe0f7a2a7" target="_top" xlink:title="This subroutine imposes the diapycnal mass fluxes and the accompanying diapycnal advection of momentu...">
<polygon fill="white" stroke="black" points="163.5,-147.5 163.5,-177.5 270.5,-177.5 270.5,-147.5 163.5,-147.5"/>
<text text-anchor="start" x="171.5" y="-165.5" font-family="Helvetica,sans-Serif" font-size="10.00">mom_diabatic_driver</text>
<text text-anchor="middle" x="217" y="-154.5" font-family="Helvetica,sans-Serif" font-size="10.00">::diabatic</text>
</a>
</g>
</g>
<!-- Node169&#45;&gt;Node178 -->
<g id="edge9" class="edge"><title>Node169&#45;&gt;Node178</title>
<path fill="none" stroke="midnightblue" d="M70.1806,-259.247C86.1746,-237.849 112.479,-206.619 142,-187.5 148.488,-183.298 155.755,-179.728 163.133,-176.717"/>
<polygon fill="midnightblue" stroke="midnightblue" points="67.2441,-257.334 64.1755,-267.475 72.8982,-261.461 67.2441,-257.334"/>
</g>
<!-- Node179 -->
<g id="node11" class="node"><title>Node179</title>
<g id="a_node11"><a xlink:href="namespacemom.html#a0be2869fef30e1e0604facfe1b41555d" target="_top" xlink:title="This subroutine initializes MOM. ">
<polygon fill="white" stroke="black" points="674.5,-322 674.5,-341 781.5,-341 781.5,-322 674.5,-322"/>
<text text-anchor="middle" x="728" y="-329" font-family="Helvetica,sans-Serif" font-size="10.00">mom::initialize_mom</text>
</a>
</g>
</g>
<!-- Node169&#45;&gt;Node179 -->
<g id="edge10" class="edge"><title>Node169&#45;&gt;Node179</title>
<path fill="none" stroke="midnightblue" d="M116.54,-281.693C196.551,-281.199 339.344,-282.125 461,-292.5 535.641,-298.865 621.246,-312.579 674.728,-321.925"/>
<polygon fill="midnightblue" stroke="midnightblue" points="116.125,-278.196 106.151,-281.768 116.176,-285.196 116.125,-278.196"/>
</g>
<!-- Node180 -->
<g id="node12" class="node"><title>Node180</title>
<g id="a_node12"><a xlink:href="namespacemom__ale.html#af95685cdfb7505b09300795da2336dbe" target="_top" xlink:title="This routine takes care of remapping all variable between the old and the new grids. When velocity components need to be remapped, thicknesses at velocity points are taken to be arithmetic averages of tracer thicknesses. This routine is called during initialization of the model at time=0, to remap initiali conditions to the model grid. It is also called during a time step to update the state. ">
<polygon fill="white" stroke="black" points="165,-352.5 165,-382.5 269,-382.5 269,-352.5 165,-352.5"/>
<text text-anchor="start" x="173" y="-370.5" font-family="Helvetica,sans-Serif" font-size="10.00">mom_ale::remap_all</text>
<text text-anchor="middle" x="217" y="-359.5" font-family="Helvetica,sans-Serif" font-size="10.00">_state_vars</text>
</a>
</g>
</g>
<!-- Node169&#45;&gt;Node180 -->
<g id="edge13" class="edge"><title>Node169&#45;&gt;Node180</title>
<path fill="none" stroke="midnightblue" d="M86.5242,-302.922C102.912,-312.901 123.241,-324.815 142,-334.5 154.124,-340.76 167.685,-347.013 179.852,-352.367"/>
<polygon fill="midnightblue" stroke="midnightblue" points="88.2136,-299.852 77.8601,-297.604 84.5514,-305.818 88.2136,-299.852"/>
</g>
<!-- Node183 -->
<g id="node15" class="node"><title>Node183</title>
<g id="a_node15"><a xlink:href="namespacemom__set__diffusivity.html#a8b1f646393f0ec717ca690e4f04d96e8" target="_top" xlink:title="mom_set_diffusivity\l::set_diffusivity">
<polygon fill="white" stroke="black" points="165,-98.5 165,-128.5 269,-128.5 269,-98.5 165,-98.5"/>
<text text-anchor="start" x="173" y="-116.5" font-family="Helvetica,sans-Serif" font-size="10.00">mom_set_diffusivity</text>
<text text-anchor="middle" x="217" y="-105.5" font-family="Helvetica,sans-Serif" font-size="10.00">::set_diffusivity</text>
</a>
</g>
</g>
<!-- Node169&#45;&gt;Node183 -->
<g id="edge21" class="edge"><title>Node169&#45;&gt;Node183</title>
<path fill="none" stroke="midnightblue" d="M62.7066,-257.772C75.2899,-225.531 101.578,-169.489 142,-137.5 148.672,-132.22 156.542,-128.085 164.616,-124.851"/>
<polygon fill="midnightblue" stroke="midnightblue" points="59.3512,-256.751 59.1022,-267.343 65.902,-259.218 59.3512,-256.751"/>
</g>
<!-- Node184 -->
<g id="node16" class="node"><title>Node184</title>
<g id="a_node16"><a xlink:href="namespacemom.html#a4c8332b095c6d295084089aa6b3b678a" target="_top" xlink:title="This subroutine orchestrates the time stepping of MOM. The adiabatic dynamics are stepped by calls to...">
<polygon fill="white" stroke="black" points="349.5,-225 349.5,-244 439.5,-244 439.5,-225 349.5,-225"/>
<text text-anchor="middle" x="394.5" y="-232" font-family="Helvetica,sans-Serif" font-size="10.00">mom::step_mom</text>
</a>
</g>
</g>
<!-- Node169&#45;&gt;Node184 -->
<g id="edge22" class="edge"><title>Node169&#45;&gt;Node184</title>
<path fill="none" stroke="midnightblue" d="M116.17,-272.423C124.84,-271.072 133.64,-269.73 142,-268.5 214.579,-257.822 299.135,-246.652 349.387,-240.146"/>
<polygon fill="midnightblue" stroke="midnightblue" points="115.421,-268.998 106.086,-274.007 116.507,-275.913 115.421,-268.998"/>
</g>
<!-- Node185 -->
<g id="node17" class="node"><title>Node185</title>
<g id="a_node17"><a xlink:href="namespacemom__dynamics__split__rk2.html#a81cce65643a8cf94979d68354a9a1979" target="_top" xlink:title="RK2 splitting for time stepping MOM adiabatic dynamics. ">
<polygon fill="white" stroke="black" points="142,-49.5 142,-79.5 292,-79.5 292,-49.5 142,-49.5"/>
<text text-anchor="start" x="150" y="-67.5" font-family="Helvetica,sans-Serif" font-size="10.00">mom_dynamics_split</text>
<text text-anchor="middle" x="217" y="-56.5" font-family="Helvetica,sans-Serif" font-size="10.00">_rk2::step_mom_dyn_split_rk2</text>
</a>
</g>
</g>
<!-- Node169&#45;&gt;Node185 -->
<g id="edge24" class="edge"><title>Node169&#45;&gt;Node185</title>
<path fill="none" stroke="midnightblue" d="M58.5858,-257.43C67.4078,-216.284 90.611,-134.423 142,-88.5 145.827,-85.0802 150.148,-82.1468 154.733,-79.6308"/>
<polygon fill="midnightblue" stroke="midnightblue" points="55.1151,-256.934 56.5554,-267.43 61.9752,-258.326 55.1151,-256.934"/>
</g>
<!-- Node186 -->
<g id="node18" class="node"><title>Node186</title>
<g id="a_node18"><a xlink:href="namespacemom.html#a02eac5c5c3ad33f0a786b3e357e31433" target="_top" xlink:title="MOM_step_thermo orchestrates the thermodynamic time stepping and vertical remapping, via calls to diabatic (or adiabatic) and ALE_main. ">
<polygon fill="white" stroke="black" points="154.5,-197 154.5,-216 279.5,-216 279.5,-197 154.5,-197"/>
<text text-anchor="middle" x="217" y="-204" font-family="Helvetica,sans-Serif" font-size="10.00">mom::step_mom_thermo</text>
</a>
</g>
</g>
<!-- Node169&#45;&gt;Node186 -->
<g id="edge25" class="edge"><title>Node169&#45;&gt;Node186</title>
<path fill="none" stroke="midnightblue" d="M85.0724,-261.861C101.525,-251.527 122.345,-239.364 142,-230.5 154.435,-224.892 168.577,-219.973 181.142,-216.073"/>
<polygon fill="midnightblue" stroke="midnightblue" points="82.9658,-259.054 76.4168,-267.382 86.73,-264.955 82.9658,-259.054"/>
</g>
<!-- Node187 -->
<g id="node19" class="node"><title>Node187</title>
<g id="a_node19"><a xlink:href="namespacemom__tracer__hor__diff.html#a069e22612062290389c2630c7f90ede2" target="_top" xlink:title="Compute along&#45;coordinate diffusion of all tracers using the diffusivity in CSKhTr, or using space&#45;dependent diffusivity. Multiple iterations are used (if necessary) so that there is no limit on the acceptable time increment. ">
<polygon fill="white" stroke="black" points="164,-0.5 164,-30.5 270,-30.5 270,-0.5 164,-0.5"/>
<text text-anchor="start" x="172" y="-18.5" font-family="Helvetica,sans-Serif" font-size="10.00">mom_tracer_hor_diff</text>
<text text-anchor="middle" x="217" y="-7.5" font-family="Helvetica,sans-Serif" font-size="10.00">::tracer_hordiff</text>
</a>
</g>
</g>
<!-- Node169&#45;&gt;Node187 -->
<g id="edge27" class="edge"><title>Node169&#45;&gt;Node187</title>
<path fill="none" stroke="midnightblue" d="M55.9853,-257.169C61.1802,-208.176 79.4692,-99.9505 142,-39.5 148.118,-33.586 155.706,-29.1293 163.67,-25.7708"/>
<polygon fill="midnightblue" stroke="midnightblue" points="52.4919,-256.933 55.0178,-267.222 59.4597,-257.604 52.4919,-256.933"/>
</g>
<!-- Node172 -->
<g id="node4" class="node"><title>Node172</title>
<g id="a_node4"><a xlink:href="namespacemom__offline__main.html#ae85546d26ceb447742abe3c528cad2d7" target="_top" xlink:title="3D advection is done by doing flux&#45;limited nonlinear horizontal advection interspersed with an ALE re...">
<polygon fill="white" stroke="black" points="497,-437.5 497,-467.5 625,-467.5 625,-437.5 497,-437.5"/>
<text text-anchor="start" x="505" y="-455.5" font-family="Helvetica,sans-Serif" font-size="10.00">mom_offline_main::offline</text>
<text text-anchor="middle" x="561" y="-444.5" font-family="Helvetica,sans-Serif" font-size="10.00">_advection_ale</text>
</a>
</g>
</g>
<!-- Node171&#45;&gt;Node172 -->
<g id="edge3" class="edge"><title>Node171&#45;&gt;Node172</title>
<path fill="none" stroke="midnightblue" d="M471.706,-455.72C480.16,-455.412 488.699,-455.101 496.964,-454.799"/>
<polygon fill="midnightblue" stroke="midnightblue" points="471.326,-452.232 461.461,-456.094 471.582,-459.227 471.326,-452.232"/>
</g>
<!-- Node175 -->
<g id="node7" class="node"><title>Node175</title>
<g id="a_node7"><a xlink:href="namespacemom.html#ad56e17a755c7078ccea29ccbae4d5803" target="_top" xlink:title="step_offline is the main driver for running tracers offline in MOM6. This has been primarily develope...">
<polygon fill="white" stroke="black" points="513.5,-399 513.5,-418 608.5,-418 608.5,-399 513.5,-399"/>
<text text-anchor="middle" x="561" y="-406" font-family="Helvetica,sans-Serif" font-size="10.00">mom::step_offline</text>
</a>
</g>
</g>
<!-- Node174&#45;&gt;Node175 -->
<g id="edge6" class="edge"><title>Node174&#45;&gt;Node175</title>
<path fill="none" stroke="midnightblue" d="M458.023,-412.22C476.366,-411.55 496.099,-410.831 513.274,-410.204"/>
<polygon fill="midnightblue" stroke="midnightblue" points="457.867,-408.723 448.001,-412.585 458.122,-415.718 457.867,-408.723"/>
</g>
<!-- Node175&#45;&gt;Node176 -->
<g id="edge7" class="edge"><title>Node175&#45;&gt;Node176</title>
<path fill="none" stroke="midnightblue" d="M619.016,-411.583C666.548,-412.955 735.804,-412.162 795,-400.5 811.307,-397.287 828.889,-390.665 842.02,-385.043"/>
<polygon fill="midnightblue" stroke="midnightblue" points="619.027,-408.082 608.917,-411.25 618.796,-415.078 619.027,-408.082"/>
</g>
<!-- Node177 -->
<g id="node9" class="node"><title>Node177</title>
<g id="a_node9"><a xlink:href="namespaceocean__model__mod.html#ac9dc1795fc4799d6682f462857b42d62" target="_top" xlink:title="ocean_model_mod::update\l_ocean_model">
<polygon fill="white" stroke="black" points="661,-360.5 661,-390.5 795,-390.5 795,-360.5 661,-360.5"/>
<text text-anchor="start" x="669" y="-378.5" font-family="Helvetica,sans-Serif" font-size="10.00">ocean_model_mod::update</text>
<text text-anchor="middle" x="728" y="-367.5" font-family="Helvetica,sans-Serif" font-size="10.00">_ocean_model</text>
</a>
</g>
</g>
<!-- Node175&#45;&gt;Node177 -->
<g id="edge8" class="edge"><title>Node175&#45;&gt;Node177</title>
<path fill="none" stroke="midnightblue" d="M618.964,-397.107C632.498,-394.4 647.049,-391.49 660.95,-388.71"/>
<polygon fill="midnightblue" stroke="midnightblue" points="617.96,-393.739 608.841,-399.132 619.333,-400.603 617.96,-393.739"/>
</g>
<!-- Node179&#45;&gt;Node176 -->
<g id="edge11" class="edge"><title>Node179&#45;&gt;Node176</title>
<path fill="none" stroke="midnightblue" d="M771.416,-344.029C779.278,-346.443 787.403,-349 795,-351.5 808.823,-356.049 824.11,-361.453 836.635,-365.98"/>
<polygon fill="midnightblue" stroke="midnightblue" points="772.245,-340.623 761.659,-341.063 770.209,-347.32 772.245,-340.623"/>
</g>
<!-- Node180&#45;&gt;Node170 -->
<g id="edge14" class="edge"><title>Node180&#45;&gt;Node170</title>
<path fill="none" stroke="midnightblue" d="M239.793,-390.196C261.674,-412.766 296.557,-448.163 328,-477.5 346.297,-494.571 368.406,-513.47 381.69,-524.648"/>
<polygon fill="midnightblue" stroke="midnightblue" points="242.09,-387.536 232.623,-382.779 237.057,-392.401 242.09,-387.536"/>
</g>
<!-- Node180&#45;&gt;Node171 -->
<g id="edge15" class="edge"><title>Node180&#45;&gt;Node171</title>
<path fill="none" stroke="midnightblue" d="M245.245,-388.645C266.729,-404.477 297.976,-425.696 328,-439.5 336.068,-443.21 345.031,-446.376 353.672,-449"/>
<polygon fill="midnightblue" stroke="midnightblue" points="247.337,-385.838 237.232,-382.655 243.146,-391.445 247.337,-385.838"/>
</g>
<!-- Node180&#45;&gt;Node173 -->
<g id="edge16" class="edge"><title>Node180&#45;&gt;Node173</title>
<path fill="none" stroke="midnightblue" d="M279.052,-349.758C299.445,-343.832 321.965,-337.288 341.595,-331.584"/>
<polygon fill="midnightblue" stroke="midnightblue" points="277.86,-346.46 269.234,-352.612 279.813,-353.182 277.86,-346.46"/>
</g>
<!-- Node180&#45;&gt;Node174 -->
<g id="edge17" class="edge"><title>Node180&#45;&gt;Node174</title>
<path fill="none" stroke="midnightblue" d="M278.963,-383.826C299.169,-389.238 321.471,-395.21 340.984,-400.436"/>
<polygon fill="midnightblue" stroke="midnightblue" points="279.799,-380.427 269.234,-381.221 277.988,-387.189 279.799,-380.427"/>
</g>
<!-- Node181 -->
<g id="node13" class="node"><title>Node181</title>
<g id="a_node13"><a xlink:href="namespacemom__ale.html#ad53be6973c41ac37ea0abc7b3e045b4d" target="_top" xlink:title="For a state&#45;based coordinate, accelerate the process of regridding by repeatedly applying the grid ca...">
<polygon fill="white" stroke="black" points="342.5,-350.5 342.5,-380.5 446.5,-380.5 446.5,-350.5 342.5,-350.5"/>
<text text-anchor="start" x="350.5" y="-368.5" font-family="Helvetica,sans-Serif" font-size="10.00">mom_ale::ale_regrid</text>
<text text-anchor="middle" x="394.5" y="-357.5" font-family="Helvetica,sans-Serif" font-size="10.00">_accelerated</text>
</a>
</g>
</g>
<!-- Node180&#45;&gt;Node181 -->
<g id="edge18" class="edge"><title>Node180&#45;&gt;Node181</title>
<path fill="none" stroke="midnightblue" d="M279.422,-366.8C299.928,-366.566 322.549,-366.309 342.203,-366.085"/>
<polygon fill="midnightblue" stroke="midnightblue" points="279.193,-363.302 269.234,-366.916 279.273,-370.302 279.193,-363.302"/>
</g>
<!-- Node182 -->
<g id="node14" class="node"><title>Node182</title>
<g id="a_node14"><a xlink:href="namespacemom__state__initialization.html#af4e854627c6572332ba3fd895f169321" target="_top" xlink:title="mom_state_initialization\l::mom_initialize_state">
<polygon fill="white" stroke="black" points="500,-327.5 500,-357.5 622,-357.5 622,-327.5 500,-327.5"/>
<text text-anchor="start" x="508" y="-345.5" font-family="Helvetica,sans-Serif" font-size="10.00">mom_state_initialization</text>
<text text-anchor="middle" x="561" y="-334.5" font-family="Helvetica,sans-Serif" font-size="10.00">::mom_initialize_state</text>
</a>
</g>
</g>
<!-- Node181&#45;&gt;Node182 -->
<g id="edge19" class="edge"><title>Node181&#45;&gt;Node182</title>
<path fill="none" stroke="midnightblue" d="M456.748,-356.936C470.87,-354.962 485.877,-352.864 499.948,-350.896"/>
<polygon fill="midnightblue" stroke="midnightblue" points="456.066,-353.498 446.647,-358.349 457.035,-360.43 456.066,-353.498"/>
</g>
<!-- Node182&#45;&gt;Node179 -->
<g id="edge20" class="edge"><title>Node182&#45;&gt;Node179</title>
<path fill="none" stroke="midnightblue" d="M632.214,-337.819C646.344,-336.877 660.967,-335.902 674.373,-335.008"/>
<polygon fill="midnightblue" stroke="midnightblue" points="631.781,-334.34 622.036,-338.498 632.246,-341.325 631.781,-334.34"/>
</g>
<!-- Node184&#45;&gt;Node176 -->
<g id="edge23" class="edge"><title>Node184&#45;&gt;Node176</title>
<path fill="none" stroke="midnightblue" d="M450.01,-234.036C530.806,-235.686 684.666,-247.965 795,-312.5 819.906,-327.068 843.159,-352.296 854.77,-365.991"/>
<polygon fill="midnightblue" stroke="midnightblue" points="449.632,-230.53 439.579,-233.875 449.524,-237.529 449.632,-230.53"/>
</g>
<!-- Node186&#45;&gt;Node184 -->
<g id="edge26" class="edge"><title>Node186&#45;&gt;Node184</title>
<path fill="none" stroke="midnightblue" d="M287.947,-217.66C308.669,-220.966 330.774,-224.493 349.373,-227.46"/>
<polygon fill="midnightblue" stroke="midnightblue" points="288.333,-214.177 277.906,-216.058 287.23,-221.09 288.333,-214.177"/>
</g>
</g>
</svg>
