<?xml version="1.0" encoding="UTF-8" standalone="no"?>
<!DOCTYPE svg PUBLIC "-//W3C//DTD SVG 1.1//EN"
 "http://www.w3.org/Graphics/SVG/1.1/DTD/svg11.dtd">
<!-- Generated by graphviz version 2.38.0 (20140413.2041)
 -->
<!-- Title: mom_internal_tides::ppm_reconstruction_y Pages: 1 -->
<svg width="539pt" height="39pt"
 viewBox="0.00 0.00 539.00 39.00" xmlns="http://www.w3.org/2000/svg" xmlns:xlink="http://www.w3.org/1999/xlink">
<g id="graph0" class="graph" transform="scale(1 1) rotate(0) translate(4 35)">
<title>mom_internal_tides::ppm_reconstruction_y</title>
<polygon fill="white" stroke="none" points="-4,4 -4,-35 535,-35 535,4 -4,4"/>
<!-- Node38 -->
<g id="node1" class="node"><title>Node38</title>
<polygon fill="#bfbfbf" stroke="black" points="0,-0.5 0,-30.5 119,-30.5 119,-0.5 0,-0.5"/>
<text text-anchor="start" x="8" y="-18.5" font-family="Helvetica,sans-Serif" font-size="10.00">mom_internal_tides</text>
<text text-anchor="middle" x="59.5" y="-7.5" font-family="Helvetica,sans-Serif" font-size="10.00">::ppm_reconstruction_y</text>
</g>
<!-- Node39 -->
<g id="node2" class="node"><title>Node39</title>
<g id="a_node2"><a xlink:href="namespacemom__internal__tides.html#a5f63667c6d87b8ae6d51076ea2942aca" target="_top" xlink:title="mom_internal_tides\l::propagate_y">
<polygon fill="white" stroke="black" points="155,-0.5 155,-30.5 256,-30.5 256,-0.5 155,-0.5"/>
<text text-anchor="start" x="163" y="-18.5" font-family="Helvetica,sans-Serif" font-size="10.00">mom_internal_tides</text>
<text text-anchor="middle" x="205.5" y="-7.5" font-family="Helvetica,sans-Serif" font-size="10.00">::propagate_y</text>
</a>
</g>
</g>
<!-- Node38&#45;&gt;Node39 -->
<g id="edge1" class="edge"><title>Node38&#45;&gt;Node39</title>
<path fill="none" stroke="midnightblue" d="M129.146,-15.5C137.779,-15.5 146.477,-15.5 154.742,-15.5"/>
<polygon fill="midnightblue" stroke="midnightblue" points="129.07,-12.0001 119.07,-15.5 129.07,-19.0001 129.07,-12.0001"/>
</g>
<!-- Node40 -->
<g id="node3" class="node"><title>Node40</title>
<g id="a_node3"><a xlink:href="namespacemom__internal__tides.html#a22caa92b67ed4077ce78eac34d15b14d" target="_top" xlink:title="This subroutine does refraction on the internal waves at a single frequency. ">
<polygon fill="white" stroke="black" points="292,-0.5 292,-30.5 393,-30.5 393,-0.5 292,-0.5"/>
<text text-anchor="start" x="300" y="-18.5" font-family="Helvetica,sans-Serif" font-size="10.00">mom_internal_tides</text>
<text text-anchor="middle" x="342.5" y="-7.5" font-family="Helvetica,sans-Serif" font-size="10.00">::propagate</text>
</a>
</g>
</g>
<!-- Node39&#45;&gt;Node40 -->
<g id="edge2" class="edge"><title>Node39&#45;&gt;Node40</title>
<path fill="none" stroke="midnightblue" d="M266.207,-15.5C274.67,-15.5 283.299,-15.5 291.552,-15.5"/>
<polygon fill="midnightblue" stroke="midnightblue" points="266.002,-12.0001 256.002,-15.5 266.002,-19.0001 266.002,-12.0001"/>
</g>
<!-- Node41 -->
<g id="node4" class="node"><title>Node41</title>
<g id="a_node4"><a xlink:href="namespacemom__internal__tides.html#a6cae26da43d0539e8ac959105cf125c2" target="_top" xlink:title="This subroutine calls other subroutines in this file that are needed to refract, propagate, and dissipate energy density of the internal tide. ">
<polygon fill="white" stroke="black" points="429,-0.5 429,-30.5 531,-30.5 531,-0.5 429,-0.5"/>
<text text-anchor="start" x="437" y="-18.5" font-family="Helvetica,sans-Serif" font-size="10.00">mom_internal_tides</text>
<text text-anchor="middle" x="480" y="-7.5" font-family="Helvetica,sans-Serif" font-size="10.00">::propagate_int_tide</text>
</a>
</g>
</g>
<!-- Node40&#45;&gt;Node41 -->
<g id="edge3" class="edge"><title>Node40&#45;&gt;Node41</title>
<path fill="none" stroke="midnightblue" d="M403.428,-15.5C411.923,-15.5 420.583,-15.5 428.867,-15.5"/>
<polygon fill="midnightblue" stroke="midnightblue" points="403.186,-12.0001 393.186,-15.5 403.186,-19.0001 403.186,-12.0001"/>
</g>
</g>
</svg>
