<?xml version="1.0" encoding="UTF-8" standalone="no"?>
<!DOCTYPE svg PUBLIC "-//W3C//DTD SVG 1.1//EN"
 "http://www.w3.org/Graphics/SVG/1.1/DTD/svg11.dtd">
<!-- Generated by graphviz version 2.38.0 (20140413.2041)
 -->
<!-- Title: pqm_functions::pqm_limiter Pages: 1 -->
<svg width="1433pt" height="282pt"
 viewBox="0.00 0.00 1433.00 282.00" xmlns="http://www.w3.org/2000/svg" xmlns:xlink="http://www.w3.org/1999/xlink">
<g id="graph0" class="graph" transform="scale(1 1) rotate(0) translate(4 278)">
<title>pqm_functions::pqm_limiter</title>
<polygon fill="white" stroke="none" points="-4,4 -4,-278 1429,-278 1429,4 -4,4"/>
<!-- Node32 -->
<g id="node1" class="node"><title>Node32</title>
<polygon fill="#bfbfbf" stroke="black" points="0,-73.5 0,-103.5 105,-103.5 105,-73.5 0,-73.5"/>
<text text-anchor="start" x="8" y="-91.5" font-family="Helvetica,sans-Serif" font-size="10.00">pqm_functions::pqm</text>
<text text-anchor="middle" x="52.5" y="-80.5" font-family="Helvetica,sans-Serif" font-size="10.00">_limiter</text>
</g>
<!-- Node33 -->
<g id="node2" class="node"><title>Node33</title>
<g id="a_node2"><a xlink:href="namespacepqm__functions.html#ada7e1a8d9d70b5b78b5e2dfddb5ffa43" target="_top" xlink:title="pqm_functions::pqm\l_reconstruction">
<polygon fill="white" stroke="black" points="141,-73.5 141,-103.5 246,-103.5 246,-73.5 141,-73.5"/>
<text text-anchor="start" x="149" y="-91.5" font-family="Helvetica,sans-Serif" font-size="10.00">pqm_functions::pqm</text>
<text text-anchor="middle" x="193.5" y="-80.5" font-family="Helvetica,sans-Serif" font-size="10.00">_reconstruction</text>
</a>
</g>
</g>
<!-- Node32&#45;&gt;Node33 -->
<g id="edge1" class="edge"><title>Node32&#45;&gt;Node33</title>
<path fill="none" stroke="midnightblue" d="M115.441,-88.5C123.878,-88.5 132.466,-88.5 140.698,-88.5"/>
<polygon fill="midnightblue" stroke="midnightblue" points="115.259,-85.0001 105.258,-88.5 115.258,-92.0001 115.259,-85.0001"/>
</g>
<!-- Node34 -->
<g id="node3" class="node"><title>Node34</title>
<g id="a_node3"><a xlink:href="namespacemom__remapping.html#a07d7276310f329f56560a1290bcb8b0a" target="_top" xlink:title="Creates polynomial reconstructions of u0 on the source grid h0. ">
<polygon fill="white" stroke="black" points="283.5,-98.5 283.5,-128.5 398.5,-128.5 398.5,-98.5 283.5,-98.5"/>
<text text-anchor="start" x="291.5" y="-116.5" font-family="Helvetica,sans-Serif" font-size="10.00">mom_remapping::build</text>
<text text-anchor="middle" x="341" y="-105.5" font-family="Helvetica,sans-Serif" font-size="10.00">_reconstructions_1d</text>
</a>
</g>
</g>
<!-- Node33&#45;&gt;Node34 -->
<g id="edge2" class="edge"><title>Node33&#45;&gt;Node34</title>
<path fill="none" stroke="midnightblue" d="M256.146,-99.0921C265.06,-100.624 274.202,-102.195 283.02,-103.71"/>
<polygon fill="midnightblue" stroke="midnightblue" points="256.656,-95.6285 246.208,-97.3845 255.47,-102.527 256.656,-95.6285"/>
</g>
<!-- Node54 -->
<g id="node23" class="node"><title>Node54</title>
<g id="a_node23"><a xlink:href="namespaceregrid__interp.html#a1dfc0e2c1924dddd25b9102ec2ecf06e" target="_top" xlink:title="Given the set of target values and cell densities, this routine builds an interpolated profile for th...">
<polygon fill="white" stroke="black" points="282,-49.5 282,-79.5 400,-79.5 400,-49.5 282,-49.5"/>
<text text-anchor="start" x="290" y="-67.5" font-family="Helvetica,sans-Serif" font-size="10.00">regrid_interp::regridding</text>
<text text-anchor="middle" x="341" y="-56.5" font-family="Helvetica,sans-Serif" font-size="10.00">_set_ppolys</text>
</a>
</g>
</g>
<!-- Node33&#45;&gt;Node54 -->
<g id="edge25" class="edge"><title>Node33&#45;&gt;Node54</title>
<path fill="none" stroke="midnightblue" d="M256.079,-78.3427C264.594,-76.9381 273.319,-75.499 281.771,-74.1048"/>
<polygon fill="midnightblue" stroke="midnightblue" points="255.505,-74.89 246.208,-79.9709 256.644,-81.7967 255.505,-74.89"/>
</g>
<!-- Node35 -->
<g id="node4" class="node"><title>Node35</title>
<g id="a_node4"><a xlink:href="namespacemom__remapping.html#a9ed32f0c2764a3ead9311670315dc26c" target="_top" xlink:title="Remaps column of values u0 on grid h0 to grid h1 assuming the top edge is aligned. ">
<polygon fill="white" stroke="black" points="436,-98.5 436,-128.5 576,-128.5 576,-98.5 436,-98.5"/>
<text text-anchor="start" x="444" y="-116.5" font-family="Helvetica,sans-Serif" font-size="10.00">mom_remapping::remapping</text>
<text text-anchor="middle" x="506" y="-105.5" font-family="Helvetica,sans-Serif" font-size="10.00">_core_h</text>
</a>
</g>
</g>
<!-- Node34&#45;&gt;Node35 -->
<g id="edge3" class="edge"><title>Node34&#45;&gt;Node35</title>
<path fill="none" stroke="midnightblue" d="M408.589,-113.5C417.595,-113.5 426.853,-113.5 435.902,-113.5"/>
<polygon fill="midnightblue" stroke="midnightblue" points="408.552,-110 398.552,-113.5 408.552,-117 408.552,-110"/>
</g>
<!-- Node51 -->
<g id="node20" class="node"><title>Node51</title>
<g id="a_node20"><a xlink:href="namespacemom__remapping.html#a8b967872b8db2ac7d538991f7f255e56" target="_top" xlink:title="Remaps column of values u0 on grid h0 to implied grid h1 where the interfaces of h1 differ from those...">
<polygon fill="white" stroke="black" points="436,-193.5 436,-223.5 576,-223.5 576,-193.5 436,-193.5"/>
<text text-anchor="start" x="444" y="-211.5" font-family="Helvetica,sans-Serif" font-size="10.00">mom_remapping::remapping</text>
<text text-anchor="middle" x="506" y="-200.5" font-family="Helvetica,sans-Serif" font-size="10.00">_core_w</text>
</a>
</g>
</g>
<!-- Node34&#45;&gt;Node51 -->
<g id="edge21" class="edge"><title>Node34&#45;&gt;Node51</title>
<path fill="none" stroke="midnightblue" d="M376.482,-133.597C407.132,-151.461 451.268,-177.184 479.024,-193.36"/>
<polygon fill="midnightblue" stroke="midnightblue" points="378.23,-130.565 367.828,-128.553 374.705,-136.612 378.23,-130.565"/>
</g>
<!-- Node36 -->
<g id="node5" class="node"><title>Node36</title>
<g id="a_node5"><a xlink:href="namespacecoord__rho.html#a6f5a56ba973e5e36820222a709614e40" target="_top" xlink:title="coord_rho::build_rho\l_column">
<polygon fill="white" stroke="black" points="630,-49.5 630,-79.5 734,-79.5 734,-49.5 630,-49.5"/>
<text text-anchor="start" x="638" y="-67.5" font-family="Helvetica,sans-Serif" font-size="10.00">coord_rho::build_rho</text>
<text text-anchor="middle" x="682" y="-56.5" font-family="Helvetica,sans-Serif" font-size="10.00">_column</text>
</a>
</g>
</g>
<!-- Node35&#45;&gt;Node36 -->
<g id="edge4" class="edge"><title>Node35&#45;&gt;Node36</title>
<path fill="none" stroke="midnightblue" d="M570.384,-95.6504C589.972,-90.1343 611.288,-84.1316 629.932,-78.8811"/>
<polygon fill="midnightblue" stroke="midnightblue" points="569.302,-92.3189 560.626,-98.3986 571.2,-99.0568 569.302,-92.3189"/>
</g>
<!-- Node38 -->
<g id="node7" class="node"><title>Node38</title>
<g id="a_node7"><a xlink:href="namespacemom__state__initialization.html#a71ee3c056ca59c1c3529a4ec22e09fe3" target="_top" xlink:title="Adjust the layer thicknesses by cutting away the top at the depth where the hydrostatic pressure matc...">
<polygon fill="white" stroke="black" points="621,-142.5 621,-172.5 743,-172.5 743,-142.5 621,-142.5"/>
<text text-anchor="start" x="629" y="-160.5" font-family="Helvetica,sans-Serif" font-size="10.00">mom_state_initialization</text>
<text text-anchor="middle" x="682" y="-149.5" font-family="Helvetica,sans-Serif" font-size="10.00">::cut_off_column_top</text>
</a>
</g>
</g>
<!-- Node35&#45;&gt;Node38 -->
<g id="edge6" class="edge"><title>Node35&#45;&gt;Node38</title>
<path fill="none" stroke="midnightblue" d="M576.147,-130.985C591.181,-134.787 606.959,-138.777 621.578,-142.474"/>
<polygon fill="midnightblue" stroke="midnightblue" points="576.947,-127.578 566.394,-128.519 575.231,-134.364 576.947,-127.578"/>
</g>
<!-- Node44 -->
<g id="node13" class="node"><title>Node44</title>
<g id="a_node13"><a xlink:href="namespacemom__diag__remap.html#a4b76283906971bcb94e85c0ed25f4e7b" target="_top" xlink:title="Remap diagnostic field to alternative vertical grid. ">
<polygon fill="white" stroke="black" points="623,-191.5 623,-221.5 741,-221.5 741,-191.5 623,-191.5"/>
<text text-anchor="start" x="631" y="-209.5" font-family="Helvetica,sans-Serif" font-size="10.00">mom_diag_remap::diag</text>
<text text-anchor="middle" x="682" y="-198.5" font-family="Helvetica,sans-Serif" font-size="10.00">_remap_do_remap</text>
</a>
</g>
</g>
<!-- Node35&#45;&gt;Node44 -->
<g id="edge12" class="edge"><title>Node35&#45;&gt;Node44</title>
<path fill="none" stroke="midnightblue" d="M535.753,-134.671C556.282,-149.14 584.941,-168.055 612,-181.5 619.188,-185.072 627.018,-188.4 634.737,-191.387"/>
<polygon fill="midnightblue" stroke="midnightblue" points="537.655,-131.729 527.481,-128.772 533.59,-137.428 537.655,-131.729"/>
</g>
<!-- Node45 -->
<g id="node14" class="node"><title>Node45</title>
<g id="a_node14"><a xlink:href="namespacemom__wave__speed.html#a72302e356c47c5055ba0b1a8714c772a" target="_top" xlink:title="Calculates the wave speed of the first baroclinic mode. ">
<polygon fill="white" stroke="black" points="788,-98.5 788,-128.5 916,-128.5 916,-98.5 788,-98.5"/>
<text text-anchor="start" x="796" y="-116.5" font-family="Helvetica,sans-Serif" font-size="10.00">mom_wave_speed::wave</text>
<text text-anchor="middle" x="852" y="-105.5" font-family="Helvetica,sans-Serif" font-size="10.00">_speed</text>
</a>
</g>
</g>
<!-- Node35&#45;&gt;Node45 -->
<g id="edge13" class="edge"><title>Node35&#45;&gt;Node45</title>
<path fill="none" stroke="midnightblue" d="M586.218,-113.5C647.505,-113.5 731.22,-113.5 787.992,-113.5"/>
<polygon fill="midnightblue" stroke="midnightblue" points="586.2,-110 576.2,-113.5 586.2,-117 586.2,-110"/>
</g>
<!-- Node37 -->
<g id="node6" class="node"><title>Node37</title>
<g id="a_node6"><a xlink:href="namespacemom__diag__remap.html#a1fb71d2982777f33bcbf183187e1819b" target="_top" xlink:title="Build/update target vertical grids for diagnostic remapping. ">
<polygon fill="white" stroke="black" points="793,-49.5 793,-79.5 911,-79.5 911,-49.5 793,-49.5"/>
<text text-anchor="start" x="801" y="-67.5" font-family="Helvetica,sans-Serif" font-size="10.00">mom_diag_remap::diag</text>
<text text-anchor="middle" x="852" y="-56.5" font-family="Helvetica,sans-Serif" font-size="10.00">_remap_update</text>
</a>
</g>
</g>
<!-- Node36&#45;&gt;Node37 -->
<g id="edge5" class="edge"><title>Node36&#45;&gt;Node37</title>
<path fill="none" stroke="midnightblue" d="M744.523,-64.5C760.343,-64.5 777.311,-64.5 792.949,-64.5"/>
<polygon fill="midnightblue" stroke="midnightblue" points="744.318,-61.0001 734.318,-64.5 744.318,-68.0001 744.318,-61.0001"/>
</g>
<!-- Node39 -->
<g id="node8" class="node"><title>Node39</title>
<g id="a_node8"><a xlink:href="namespacemom__state__initialization.html#a5c77bf2b0ea9d28e28b661a2a42d3f88" target="_top" xlink:title="Run simple unit tests. ">
<polygon fill="white" stroke="black" points="791,-147.5 791,-177.5 913,-177.5 913,-147.5 791,-147.5"/>
<text text-anchor="start" x="799" y="-165.5" font-family="Helvetica,sans-Serif" font-size="10.00">mom_state_initialization</text>
<text text-anchor="middle" x="852" y="-154.5" font-family="Helvetica,sans-Serif" font-size="10.00">::mom_state_init_tests</text>
</a>
</g>
</g>
<!-- Node38&#45;&gt;Node39 -->
<g id="edge7" class="edge"><title>Node38&#45;&gt;Node39</title>
<path fill="none" stroke="midnightblue" d="M753.517,-159.599C765.97,-159.969 778.829,-160.352 790.961,-160.713"/>
<polygon fill="midnightblue" stroke="midnightblue" points="753.277,-156.09 743.177,-159.291 753.069,-163.087 753.277,-156.09"/>
</g>
<!-- Node40 -->
<g id="node9" class="node"><title>Node40</title>
<g id="a_node9"><a xlink:href="namespacemom__state__initialization.html#ac29cd3c6b5de2b36b9690d800ac98a09" target="_top" xlink:title="Adjust the layer thicknesses by cutting away the top of each model column at the depth where the hydr...">
<polygon fill="white" stroke="black" points="791,-196.5 791,-226.5 913,-226.5 913,-196.5 791,-196.5"/>
<text text-anchor="start" x="799" y="-214.5" font-family="Helvetica,sans-Serif" font-size="10.00">mom_state_initialization</text>
<text text-anchor="middle" x="852" y="-203.5" font-family="Helvetica,sans-Serif" font-size="10.00">::trim_for_ice</text>
</a>
</g>
</g>
<!-- Node38&#45;&gt;Node40 -->
<g id="edge8" class="edge"><title>Node38&#45;&gt;Node40</title>
<path fill="none" stroke="midnightblue" d="M739.557,-175.679C760.556,-182.429 784.126,-190.005 804.163,-196.445"/>
<polygon fill="midnightblue" stroke="midnightblue" points="740.389,-172.27 729.797,-172.542 738.247,-178.934 740.389,-172.27"/>
</g>
<!-- Node41 -->
<g id="node10" class="node"><title>Node41</title>
<g id="a_node10"><a xlink:href="namespacemom__state__initialization.html#af4e854627c6572332ba3fd895f169321" target="_top" xlink:title="mom_state_initialization\l::mom_initialize_state">
<polygon fill="white" stroke="black" points="971,-194.5 971,-224.5 1093,-224.5 1093,-194.5 971,-194.5"/>
<text text-anchor="start" x="979" y="-212.5" font-family="Helvetica,sans-Serif" font-size="10.00">mom_state_initialization</text>
<text text-anchor="middle" x="1032" y="-201.5" font-family="Helvetica,sans-Serif" font-size="10.00">::mom_initialize_state</text>
</a>
</g>
</g>
<!-- Node40&#45;&gt;Node41 -->
<g id="edge9" class="edge"><title>Node40&#45;&gt;Node41</title>
<path fill="none" stroke="midnightblue" d="M923.426,-210.709C939.1,-210.533 955.58,-210.347 970.799,-210.176"/>
<polygon fill="midnightblue" stroke="midnightblue" points="923.223,-207.211 913.263,-210.823 923.301,-214.21 923.223,-207.211"/>
</g>
<!-- Node42 -->
<g id="node11" class="node"><title>Node42</title>
<g id="a_node11"><a xlink:href="namespacemom.html#a0be2869fef30e1e0604facfe1b41555d" target="_top" xlink:title="This subroutine initializes MOM. ">
<polygon fill="white" stroke="black" points="1148,-200 1148,-219 1255,-219 1255,-200 1148,-200"/>
<text text-anchor="middle" x="1201.5" y="-207" font-family="Helvetica,sans-Serif" font-size="10.00">mom::initialize_mom</text>
</a>
</g>
</g>
<!-- Node41&#45;&gt;Node42 -->
<g id="edge10" class="edge"><title>Node41&#45;&gt;Node42</title>
<path fill="none" stroke="midnightblue" d="M1103.62,-209.5C1118.45,-209.5 1133.84,-209.5 1147.88,-209.5"/>
<polygon fill="midnightblue" stroke="midnightblue" points="1103.47,-206 1093.47,-209.5 1103.47,-213 1103.47,-206"/>
</g>
<!-- Node43 -->
<g id="node12" class="node"><title>Node43</title>
<g id="a_node12"><a xlink:href="MOM__driver_8F90.html#a08fffeb2d8e8acbf9ed4609be6d258c6" target="_top" xlink:title="mom_main">
<polygon fill="white" stroke="black" points="1325.5,-139 1325.5,-158 1390.5,-158 1390.5,-139 1325.5,-139"/>
<text text-anchor="middle" x="1358" y="-146" font-family="Helvetica,sans-Serif" font-size="10.00">mom_main</text>
</a>
</g>
</g>
<!-- Node42&#45;&gt;Node43 -->
<g id="edge11" class="edge"><title>Node42&#45;&gt;Node43</title>
<path fill="none" stroke="midnightblue" d="M1236.01,-196.268C1265.18,-184.754 1306.74,-168.344 1332.77,-158.065"/>
<polygon fill="midnightblue" stroke="midnightblue" points="1234.66,-193.041 1226.64,-199.969 1237.23,-199.552 1234.66,-193.041"/>
</g>
<!-- Node46 -->
<g id="node15" class="node"><title>Node46</title>
<g id="a_node15"><a xlink:href="namespacemom__lateral__mixing__coeffs.html#af206bc656869b4fc27d4d7e8a15d438e" target="_top" xlink:title="Calculates and stores the non&#45;dimensional resolution functions. ">
<polygon fill="white" stroke="black" points="980,-85 980,-126 1084,-126 1084,-85 980,-85"/>
<text text-anchor="start" x="988" y="-114" font-family="Helvetica,sans-Serif" font-size="10.00">mom_lateral_mixing</text>
<text text-anchor="start" x="988" y="-103" font-family="Helvetica,sans-Serif" font-size="10.00">_coeffs::calc_resoln</text>
<text text-anchor="middle" x="1032" y="-92" font-family="Helvetica,sans-Serif" font-size="10.00">_function</text>
</a>
</g>
</g>
<!-- Node45&#45;&gt;Node46 -->
<g id="edge14" class="edge"><title>Node45&#45;&gt;Node46</title>
<path fill="none" stroke="midnightblue" d="M926.189,-110.211C944.196,-109.401 963.095,-108.552 979.808,-107.801"/>
<polygon fill="midnightblue" stroke="midnightblue" points="925.839,-106.723 916.007,-110.668 926.154,-113.716 925.839,-106.723"/>
</g>
<!-- Node50 -->
<g id="node19" class="node"><title>Node50</title>
<g id="a_node19"><a xlink:href="namespacemom__diagnostics.html#abb6644248c28ab2e952361bfec436063" target="_top" xlink:title="Diagnostics not more naturally calculated elsewhere are computed here. ">
<polygon fill="white" stroke="black" points="963,-145.5 963,-175.5 1101,-175.5 1101,-145.5 963,-145.5"/>
<text text-anchor="start" x="971" y="-163.5" font-family="Helvetica,sans-Serif" font-size="10.00">mom_diagnostics::calculate</text>
<text text-anchor="middle" x="1032" y="-152.5" font-family="Helvetica,sans-Serif" font-size="10.00">_diagnostic_fields</text>
</a>
</g>
</g>
<!-- Node45&#45;&gt;Node50 -->
<g id="edge20" class="edge"><title>Node45&#45;&gt;Node50</title>
<path fill="none" stroke="midnightblue" d="M919.617,-131.09C937.547,-135.824 956.773,-140.901 974.119,-145.481"/>
<polygon fill="midnightblue" stroke="midnightblue" points="920.372,-127.669 909.81,-128.5 918.585,-134.437 920.372,-127.669"/>
</g>
<!-- Node47 -->
<g id="node16" class="node"><title>Node47</title>
<g id="a_node16"><a xlink:href="namespacemom.html#a4c8332b095c6d295084089aa6b3b678a" target="_top" xlink:title="This subroutine orchestrates the time stepping of MOM. The adiabatic dynamics are stepped by calls to...">
<polygon fill="white" stroke="black" points="1156.5,-137 1156.5,-156 1246.5,-156 1246.5,-137 1156.5,-137"/>
<text text-anchor="middle" x="1201.5" y="-144" font-family="Helvetica,sans-Serif" font-size="10.00">mom::step_mom</text>
</a>
</g>
</g>
<!-- Node46&#45;&gt;Node47 -->
<g id="edge15" class="edge"><title>Node46&#45;&gt;Node47</title>
<path fill="none" stroke="midnightblue" d="M1094.01,-120.433C1116.58,-125.958 1141.53,-132.066 1161.61,-136.98"/>
<polygon fill="midnightblue" stroke="midnightblue" points="1094.71,-117.002 1084.17,-118.024 1093.05,-123.801 1094.71,-117.002"/>
</g>
<!-- Node48 -->
<g id="node17" class="node"><title>Node48</title>
<g id="a_node17"><a xlink:href="namespacemom.html#ad56e17a755c7078ccea29ccbae4d5803" target="_top" xlink:title="step_offline is the main driver for running tracers offline in MOM6. This has been primarily develope...">
<polygon fill="white" stroke="black" points="1154,-96 1154,-115 1249,-115 1249,-96 1154,-96"/>
<text text-anchor="middle" x="1201.5" y="-103" font-family="Helvetica,sans-Serif" font-size="10.00">mom::step_offline</text>
</a>
</g>
</g>
<!-- Node46&#45;&gt;Node48 -->
<g id="edge17" class="edge"><title>Node46&#45;&gt;Node48</title>
<path fill="none" stroke="midnightblue" d="M1094.28,-105.5C1113.97,-105.5 1135.46,-105.5 1153.92,-105.5"/>
<polygon fill="midnightblue" stroke="midnightblue" points="1094.17,-102 1084.17,-105.5 1094.17,-109 1094.17,-102"/>
</g>
<!-- Node47&#45;&gt;Node43 -->
<g id="edge16" class="edge"><title>Node47&#45;&gt;Node43</title>
<path fill="none" stroke="midnightblue" d="M1257.06,-147.206C1279.98,-147.503 1305.81,-147.837 1325.48,-148.092"/>
<polygon fill="midnightblue" stroke="midnightblue" points="1256.82,-143.703 1246.77,-147.073 1256.73,-150.702 1256.82,-143.703"/>
</g>
<!-- Node48&#45;&gt;Node43 -->
<g id="edge18" class="edge"><title>Node48&#45;&gt;Node43</title>
<path fill="none" stroke="midnightblue" d="M1246.48,-117.739C1271.66,-124.749 1302.68,-133.381 1325.44,-139.716"/>
<polygon fill="midnightblue" stroke="midnightblue" points="1247.36,-114.353 1236.79,-115.043 1245.48,-121.096 1247.36,-114.353"/>
</g>
<!-- Node49 -->
<g id="node18" class="node"><title>Node49</title>
<g id="a_node18"><a xlink:href="namespaceocean__model__mod.html#ac9dc1795fc4799d6682f462857b42d62" target="_top" xlink:title="ocean_model_mod::update\l_ocean_model">
<polygon fill="white" stroke="black" points="1291,-89.5 1291,-119.5 1425,-119.5 1425,-89.5 1291,-89.5"/>
<text text-anchor="start" x="1299" y="-107.5" font-family="Helvetica,sans-Serif" font-size="10.00">ocean_model_mod::update</text>
<text text-anchor="middle" x="1358" y="-96.5" font-family="Helvetica,sans-Serif" font-size="10.00">_ocean_model</text>
</a>
</g>
</g>
<!-- Node48&#45;&gt;Node49 -->
<g id="edge19" class="edge"><title>Node48&#45;&gt;Node49</title>
<path fill="none" stroke="midnightblue" d="M1259.3,-105.132C1269.52,-105.066 1280.26,-104.997 1290.72,-104.929"/>
<polygon fill="midnightblue" stroke="midnightblue" points="1259.25,-101.633 1249.27,-105.197 1259.3,-108.632 1259.25,-101.633"/>
</g>
<!-- Node52 -->
<g id="node21" class="node"><title>Node52</title>
<g id="a_node21"><a xlink:href="namespacemom__remapping.html#a5849f564453d5ed76fb4feffd41eca26" target="_top" xlink:title="Runs unit tests on remapping functions. Should only be called from a single/root thread Returns True ...">
<polygon fill="white" stroke="black" points="612,-240.5 612,-270.5 752,-270.5 752,-240.5 612,-240.5"/>
<text text-anchor="start" x="620" y="-258.5" font-family="Helvetica,sans-Serif" font-size="10.00">mom_remapping::remapping</text>
<text text-anchor="middle" x="682" y="-247.5" font-family="Helvetica,sans-Serif" font-size="10.00">_unit_tests</text>
</a>
</g>
</g>
<!-- Node51&#45;&gt;Node52 -->
<g id="edge22" class="edge"><title>Node51&#45;&gt;Node52</title>
<path fill="none" stroke="midnightblue" d="M572.607,-226.222C589.995,-230.918 608.598,-235.943 625.398,-240.481"/>
<polygon fill="midnightblue" stroke="midnightblue" points="573.1,-222.729 562.533,-223.5 571.274,-229.487 573.1,-222.729"/>
</g>
<!-- Node53 -->
<g id="node22" class="node"><title>Node53</title>
<g id="a_node22"><a xlink:href="namespacemom__unit__tests.html#a71f3a2080872634c14a25a9411b59fe0" target="_top" xlink:title="Calls unit tests for other modules. Note that if a unit test returns true, a FATAL error is triggered...">
<polygon fill="white" stroke="black" points="978,-243.5 978,-273.5 1086,-273.5 1086,-243.5 978,-243.5"/>
<text text-anchor="start" x="986" y="-261.5" font-family="Helvetica,sans-Serif" font-size="10.00">mom_unit_tests::unit</text>
<text text-anchor="middle" x="1032" y="-250.5" font-family="Helvetica,sans-Serif" font-size="10.00">_tests</text>
</a>
</g>
</g>
<!-- Node52&#45;&gt;Node53 -->
<g id="edge23" class="edge"><title>Node52&#45;&gt;Node53</title>
<path fill="none" stroke="midnightblue" d="M762.528,-256.186C828.516,-256.754 920.518,-257.548 977.878,-258.042"/>
<polygon fill="midnightblue" stroke="midnightblue" points="762.2,-252.683 752.17,-256.096 762.139,-259.682 762.2,-252.683"/>
</g>
<!-- Node53&#45;&gt;Node42 -->
<g id="edge24" class="edge"><title>Node53&#45;&gt;Node42</title>
<path fill="none" stroke="midnightblue" d="M1094.38,-240.543C1119.33,-233.246 1147.13,-225.112 1168.02,-219.002"/>
<polygon fill="midnightblue" stroke="midnightblue" points="1093.24,-237.232 1084.62,-243.399 1095.2,-243.95 1093.24,-237.232"/>
</g>
<!-- Node55 -->
<g id="node24" class="node"><title>Node55</title>
<g id="a_node24"><a xlink:href="namespaceregrid__interp.html#a4d634eff5836d643ef27129fc934853a" target="_top" xlink:title="regrid_interp::build\l_and_interpolate_grid">
<polygon fill="white" stroke="black" points="451.5,-49.5 451.5,-79.5 560.5,-79.5 560.5,-49.5 451.5,-49.5"/>
<text text-anchor="start" x="459.5" y="-67.5" font-family="Helvetica,sans-Serif" font-size="10.00">regrid_interp::build</text>
<text text-anchor="middle" x="506" y="-56.5" font-family="Helvetica,sans-Serif" font-size="10.00">_and_interpolate_grid</text>
</a>
</g>
</g>
<!-- Node54&#45;&gt;Node55 -->
<g id="edge26" class="edge"><title>Node54&#45;&gt;Node55</title>
<path fill="none" stroke="midnightblue" d="M410.665,-64.5C424.265,-64.5 438.353,-64.5 451.365,-64.5"/>
<polygon fill="midnightblue" stroke="midnightblue" points="410.386,-61.0001 400.386,-64.5 410.386,-68.0001 410.386,-61.0001"/>
</g>
<!-- Node55&#45;&gt;Node36 -->
<g id="edge30" class="edge"><title>Node55&#45;&gt;Node36</title>
<path fill="none" stroke="midnightblue" d="M570.653,-64.5C590.167,-64.5 611.373,-64.5 629.932,-64.5"/>
<polygon fill="midnightblue" stroke="midnightblue" points="570.626,-61.0001 560.626,-64.5 570.625,-68.0001 570.626,-61.0001"/>
</g>
<!-- Node56 -->
<g id="node25" class="node"><title>Node56</title>
<g id="a_node25"><a xlink:href="namespacecoord__hycom.html#a863abf3f62297588e4a3065fbf9333ea" target="_top" xlink:title="Build a HyCOM coordinate column. ">
<polygon fill="white" stroke="black" points="631.5,-0.5 631.5,-30.5 732.5,-30.5 732.5,-0.5 631.5,-0.5"/>
<text text-anchor="start" x="639.5" y="-18.5" font-family="Helvetica,sans-Serif" font-size="10.00">coord_hycom::build</text>
<text text-anchor="middle" x="682" y="-7.5" font-family="Helvetica,sans-Serif" font-size="10.00">_hycom1_column</text>
</a>
</g>
</g>
<!-- Node55&#45;&gt;Node56 -->
<g id="edge27" class="edge"><title>Node55&#45;&gt;Node56</title>
<path fill="none" stroke="midnightblue" d="M570.335,-46.6644C590.454,-40.9986 612.401,-34.8182 631.406,-29.4661"/>
<polygon fill="midnightblue" stroke="midnightblue" points="569.302,-43.3189 560.626,-49.3986 571.2,-50.0568 569.302,-43.3189"/>
</g>
<!-- Node57 -->
<g id="node26" class="node"><title>Node57</title>
<g id="a_node26"><a xlink:href="namespacemom__regridding.html#ab3541b357806978862434ee19b1be774" target="_top" xlink:title="Builds a simple HyCOM&#45;like grid with the deepest location of potential density interpolated from the ...">
<polygon fill="white" stroke="black" points="796,-0.5 796,-30.5 908,-30.5 908,-0.5 796,-0.5"/>
<text text-anchor="start" x="804" y="-18.5" font-family="Helvetica,sans-Serif" font-size="10.00">mom_regridding::build</text>
<text text-anchor="middle" x="852" y="-7.5" font-family="Helvetica,sans-Serif" font-size="10.00">_grid_hycom1</text>
</a>
</g>
</g>
<!-- Node56&#45;&gt;Node57 -->
<g id="edge28" class="edge"><title>Node56&#45;&gt;Node57</title>
<path fill="none" stroke="midnightblue" d="M743.416,-15.5C760.566,-15.5 779.143,-15.5 795.957,-15.5"/>
<polygon fill="midnightblue" stroke="midnightblue" points="742.951,-12.0001 732.951,-15.5 742.951,-19.0001 742.951,-12.0001"/>
</g>
<!-- Node58 -->
<g id="node27" class="node"><title>Node58</title>
<g id="a_node27"><a xlink:href="namespacemom__regridding.html#ab354fe3423a39fef6f2b66f409b1682c" target="_top" xlink:title="mom_regridding::regridding_main">
<polygon fill="white" stroke="black" points="952,-6 952,-25 1112,-25 1112,-6 952,-6"/>
<text text-anchor="middle" x="1032" y="-13" font-family="Helvetica,sans-Serif" font-size="10.00">mom_regridding::regridding_main</text>
</a>
</g>
</g>
<!-- Node57&#45;&gt;Node58 -->
<g id="edge29" class="edge"><title>Node57&#45;&gt;Node58</title>
<path fill="none" stroke="midnightblue" d="M918.554,-15.5C929.386,-15.5 940.716,-15.5 951.839,-15.5"/>
<polygon fill="midnightblue" stroke="midnightblue" points="918.345,-12.0001 908.345,-15.5 918.345,-19.0001 918.345,-12.0001"/>
</g>
</g>
</svg>
