<?xml version="1.0" encoding="UTF-8" standalone="no"?>
<!DOCTYPE svg PUBLIC "-//W3C//DTD SVG 1.1//EN"
 "http://www.w3.org/Graphics/SVG/1.1/DTD/svg11.dtd">
<!-- Generated by graphviz version 2.38.0 (20140413.2041)
 -->
<!-- Title: mom_ice_shelf_initialize::initialize_ice_thickness_from_file Pages: 1 -->
<svg width="415pt" height="88pt"
 viewBox="0.00 0.00 415.00 88.00" xmlns="http://www.w3.org/2000/svg" xmlns:xlink="http://www.w3.org/1999/xlink">
<g id="graph0" class="graph" transform="scale(1 1) rotate(0) translate(4 84)">
<title>mom_ice_shelf_initialize::initialize_ice_thickness_from_file</title>
<polygon fill="white" stroke="none" points="-4,4 -4,-84 411,-84 411,4 -4,4"/>
<!-- Node16 -->
<g id="node1" class="node"><title>Node16</title>
<polygon fill="#bfbfbf" stroke="black" points="0,-19 0,-60 123,-60 123,-19 0,-19"/>
<text text-anchor="start" x="8" y="-48" font-family="Helvetica,sans-Serif" font-size="10.00">mom_ice_shelf_initialize</text>
<text text-anchor="start" x="8" y="-37" font-family="Helvetica,sans-Serif" font-size="10.00">::initialize_ice_thickness</text>
<text text-anchor="middle" x="61.5" y="-26" font-family="Helvetica,sans-Serif" font-size="10.00">_from_file</text>
</g>
<!-- Node17 -->
<g id="node2" class="node"><title>Node17</title>
<g id="a_node2"><a xlink:href="namespacemom__error__handler.html#a460cfb79a06c29fc249952c2a3710d67" target="_top" xlink:title="mom_error_handler::\lmom_error">
<polygon fill="white" stroke="black" points="159,-49.5 159,-79.5 265,-79.5 265,-49.5 159,-49.5"/>
<text text-anchor="start" x="167" y="-67.5" font-family="Helvetica,sans-Serif" font-size="10.00">mom_error_handler::</text>
<text text-anchor="middle" x="212" y="-56.5" font-family="Helvetica,sans-Serif" font-size="10.00">mom_error</text>
</a>
</g>
</g>
<!-- Node16&#45;&gt;Node17 -->
<g id="edge1" class="edge"><title>Node16&#45;&gt;Node17</title>
<path fill="none" stroke="midnightblue" d="M123.329,-49.7406C131.643,-51.1402 140.189,-52.579 148.532,-53.9835"/>
<polygon fill="midnightblue" stroke="midnightblue" points="148.135,-57.4659 158.578,-55.6747 149.297,-50.563 148.135,-57.4659"/>
</g>
<!-- Node19 -->
<g id="node4" class="node"><title>Node19</title>
<g id="a_node4"><a xlink:href="namespacemom__error__handler.html#a1c462df7b61f1296407b4af51dfeceab" target="_top" xlink:title="mom_error_handler::\lmom_mesg">
<polygon fill="white" stroke="black" points="159,-0.5 159,-30.5 265,-30.5 265,-0.5 159,-0.5"/>
<text text-anchor="start" x="167" y="-18.5" font-family="Helvetica,sans-Serif" font-size="10.00">mom_error_handler::</text>
<text text-anchor="middle" x="212" y="-7.5" font-family="Helvetica,sans-Serif" font-size="10.00">mom_mesg</text>
</a>
</g>
</g>
<!-- Node16&#45;&gt;Node19 -->
<g id="edge3" class="edge"><title>Node16&#45;&gt;Node19</title>
<path fill="none" stroke="midnightblue" d="M123.329,-29.669C131.643,-28.3254 140.189,-26.9442 148.532,-25.5959"/>
<polygon fill="midnightblue" stroke="midnightblue" points="149.264,-29.023 158.578,-23.9723 148.147,-22.1127 149.264,-29.023"/>
</g>
<!-- Node18 -->
<g id="node3" class="node"><title>Node18</title>
<g id="a_node3"><a xlink:href="namespacemom__error__handler.html#ad5f00a53059c72fe2332d1436c80ca71" target="_top" xlink:title="mom_error_handler::\lis_root_pe">
<polygon fill="white" stroke="black" points="301,-24.5 301,-54.5 407,-54.5 407,-24.5 301,-24.5"/>
<text text-anchor="start" x="309" y="-42.5" font-family="Helvetica,sans-Serif" font-size="10.00">mom_error_handler::</text>
<text text-anchor="middle" x="354" y="-31.5" font-family="Helvetica,sans-Serif" font-size="10.00">is_root_pe</text>
</a>
</g>
</g>
<!-- Node17&#45;&gt;Node18 -->
<g id="edge2" class="edge"><title>Node17&#45;&gt;Node18</title>
<path fill="none" stroke="midnightblue" d="M265.131,-55.1909C273.512,-53.6942 282.26,-52.1321 290.849,-50.5985"/>
<polygon fill="midnightblue" stroke="midnightblue" points="291.597,-54.0203 300.826,-48.8169 290.366,-47.1293 291.597,-54.0203"/>
</g>
<!-- Node19&#45;&gt;Node18 -->
<g id="edge4" class="edge"><title>Node19&#45;&gt;Node18</title>
<path fill="none" stroke="midnightblue" d="M265.131,-24.4367C273.512,-25.8736 282.26,-27.3732 290.849,-28.8455"/>
<polygon fill="midnightblue" stroke="midnightblue" points="290.378,-32.3158 300.826,-30.5558 291.561,-25.4164 290.378,-32.3158"/>
</g>
</g>
</svg>
