<?xml version="1.0" encoding="UTF-8" standalone="no"?>
<!DOCTYPE svg PUBLIC "-//W3C//DTD SVG 1.1//EN"
 "http://www.w3.org/Graphics/SVG/1.1/DTD/svg11.dtd">
<!-- Generated by graphviz version 2.38.0 (20140413.2041)
 -->
<!-- Title: mom_checksums::chksum_uv_2d Pages: 1 -->
<!--zoomable 263 -->
<svg id="main" version="1.1" xmlns="http://www.w3.org/2000/svg" xmlns:xlink="http://www.w3.org/1999/xlink" xml:space="preserve" onload="init(evt)">
<style type="text/css"><![CDATA[
.edge:hover path { stroke: red; }
.edge:hover polygon { stroke: red; fill: red; }
]]></style>
<script type="text/javascript"><![CDATA[
var edges = document.getElementsByTagName('g');
if (edges && edges.length) {
  for (var i=0;i<edges.length;i++) {
    if (edges[i].id.substr(0,4)=='edge') {
      edges[i].setAttribute('class','edge');
    }
  }
}
]]></script>
        <defs>
                <circle id="rim" cx="0" cy="0" r="7"/>
                <circle id="rim2" cx="0" cy="0" r="3.5"/>
                <g id="zoomPlus">
                        <use xlink:href="#rim" fill="#404040">
                                <set attributeName="fill" to="#808080" begin="zoomplus.mouseover" end="zoomplus.mouseout"/>
                        </use>
                        <path d="M-4,0h8M0,-4v8" fill="none" stroke="white" stroke-width="1.5" pointer-events="none"/>
                </g>
                <g id="zoomMin">
                        <use xlink:href="#rim" fill="#404040">
                                <set attributeName="fill" to="#808080" begin="zoomminus.mouseover" end="zoomminus.mouseout"/>
                        </use>
                        <path d="M-4,0h8" fill="none" stroke="white" stroke-width="1.5" pointer-events="none"/>
                </g>
                <g id="dirArrow">
                        <path fill="none" stroke="white" stroke-width="1.5" d="M0,-3.0v7 M-2.5,-0.5L0,-3.0L2.5,-0.5"/>
                </g>
               <g id="resetDef">
                       <use xlink:href="#rim2" fill="#404040">
                               <set attributeName="fill" to="#808080" begin="reset.mouseover" end="reset.mouseout"/>
                       </use>
               </g>
        </defs>

<script type="text/javascript">
var viewWidth = 651;
var viewHeight = 263;
var sectionId = 'dynsection-20';
</script>
<script xlink:href="svgpan.js"/>
<svg id="graph" class="graph">
<g id="viewport">
<title>mom_checksums::chksum_uv_2d</title>
<polygon fill="white" stroke="none" points="-4,4 -4,-259 647,-259 647,4 -4,4"/>
<!-- Node140 -->
<g id="node1" class="node"><title>Node140</title>
<polygon fill="#bfbfbf" stroke="black" points="0,-103.5 0,-133.5 134,-133.5 134,-103.5 0,-103.5"/>
<text text-anchor="start" x="8" y="-121.5" font-family="Helvetica,sans-Serif" font-size="10.00">mom_checksums::chksum</text>
<text text-anchor="middle" x="67" y="-110.5" font-family="Helvetica,sans-Serif" font-size="10.00">_uv_2d</text>
</g>
<!-- Node141 -->
<g id="node2" class="node"><title>Node141</title>
<g id="a_node2"><a xlink:href="namespacemom__checksums.html#abb256b94ff03434f46796e2350a3e3b0" target="_top" xlink:title="chksum_u_2d performs checksums on a 2d array staggered at C&#45;grid u points. ">
<polygon fill="white" stroke="black" points="170,-89 170,-108 331,-108 331,-89 170,-89"/>
<text text-anchor="middle" x="250.5" y="-96" font-family="Helvetica,sans-Serif" font-size="10.00">mom_checksums::chksum_u_2d</text>
</a>
</g>
</g>
<!-- Node140&#45;&gt;Node141 -->
<g id="edge1" class="edge"><title>Node140&#45;&gt;Node141</title>
<path fill="none" stroke="midnightblue" d="M134.039,-111.223C142.417,-110.3 151.099,-109.343 159.769,-108.388"/>
<polygon fill="midnightblue" stroke="midnightblue" points="160.365,-111.843 169.921,-107.269 159.598,-104.885 160.365,-111.843"/>
</g>
<!-- Node148 -->
<g id="node9" class="node"><title>Node148</title>
<g id="a_node9"><a xlink:href="namespacemom__checksums.html#ab91c2c2d2ba5ce3d11f1fd9d51b87f3e" target="_top" xlink:title="chksum_v_2d performs checksums on a 2d array staggered at C&#45;grid v points. ">
<polygon fill="white" stroke="black" points="170,-130 170,-149 331,-149 331,-130 170,-130"/>
<text text-anchor="middle" x="250.5" y="-137" font-family="Helvetica,sans-Serif" font-size="10.00">mom_checksums::chksum_v_2d</text>
</a>
</g>
</g>
<!-- Node140&#45;&gt;Node148 -->
<g id="edge8" class="edge"><title>Node140&#45;&gt;Node148</title>
<path fill="none" stroke="midnightblue" d="M134.039,-126.141C142.417,-127.11 151.099,-128.115 159.769,-129.118"/>
<polygon fill="midnightblue" stroke="midnightblue" points="159.585,-132.62 169.921,-130.293 160.39,-125.666 159.585,-132.62"/>
</g>
<!-- Node142 -->
<g id="node3" class="node"><title>Node142</title>
<g id="a_node3"><a xlink:href="namespacemom__checksums.html#a1e347f41f6888fd746c4ec1cd5578439" target="_top" xlink:title="mom_checksums::chk\l_sum_msg_nsew">
<polygon fill="white" stroke="black" points="376,-175.5 376,-205.5 492,-205.5 492,-175.5 376,-175.5"/>
<text text-anchor="start" x="384" y="-193.5" font-family="Helvetica,sans-Serif" font-size="10.00">mom_checksums::chk</text>
<text text-anchor="middle" x="434" y="-182.5" font-family="Helvetica,sans-Serif" font-size="10.00">_sum_msg_nsew</text>
</a>
</g>
</g>
<!-- Node141&#45;&gt;Node142 -->
<g id="edge2" class="edge"><title>Node141&#45;&gt;Node142</title>
<path fill="none" stroke="midnightblue" d="M304.463,-108.06C313.769,-111.13 323.018,-115.175 331,-120.5 352.596,-134.908 345.989,-151.252 367,-166.5 368.884,-167.867 370.854,-169.164 372.887,-170.393"/>
<polygon fill="midnightblue" stroke="midnightblue" points="371.665,-173.71 382.131,-175.36 374.978,-167.544 371.665,-173.71"/>
</g>
<!-- Node143 -->
<g id="node4" class="node"><title>Node143</title>
<g id="a_node4"><a xlink:href="namespacemom__checksums.html#ad6f5c2fe02a8e6d6cd3abe5b1f87348f" target="_top" xlink:title="mom_checksums::chk\l_sum_msg_w">
<polygon fill="white" stroke="black" points="376,-0.5 376,-30.5 492,-30.5 492,-0.5 376,-0.5"/>
<text text-anchor="start" x="384" y="-18.5" font-family="Helvetica,sans-Serif" font-size="10.00">mom_checksums::chk</text>
<text text-anchor="middle" x="434" y="-7.5" font-family="Helvetica,sans-Serif" font-size="10.00">_sum_msg_w</text>
</a>
</g>
</g>
<!-- Node141&#45;&gt;Node143 -->
<g id="edge3" class="edge"><title>Node141&#45;&gt;Node143</title>
<path fill="none" stroke="midnightblue" d="M269.232,-88.8758C291.671,-76.8645 331.662,-56.0159 367,-40.5 371.717,-38.4288 376.665,-36.3635 381.641,-34.3581"/>
<polygon fill="midnightblue" stroke="midnightblue" points="383.174,-37.5161 391.191,-30.5896 380.604,-31.0047 383.174,-37.5161"/>
</g>
<!-- Node144 -->
<g id="node5" class="node"><title>Node144</title>
<g id="a_node5"><a xlink:href="namespacemom__checksums.html#a6400a8423305b77e4aed5d1cb4c24520" target="_top" xlink:title="mom_checksums::chksum\l_error">
<polygon fill="white" stroke="black" points="367,-126.5 367,-156.5 501,-156.5 501,-126.5 367,-126.5"/>
<text text-anchor="start" x="375" y="-144.5" font-family="Helvetica,sans-Serif" font-size="10.00">mom_checksums::chksum</text>
<text text-anchor="middle" x="434" y="-133.5" font-family="Helvetica,sans-Serif" font-size="10.00">_error</text>
</a>
</g>
</g>
<!-- Node141&#45;&gt;Node144 -->
<g id="edge4" class="edge"><title>Node141&#45;&gt;Node144</title>
<path fill="none" stroke="midnightblue" d="M291.781,-108.043C311.793,-112.784 336.607,-118.663 359.825,-124.164"/>
<polygon fill="midnightblue" stroke="midnightblue" points="359.122,-127.594 369.659,-126.494 360.736,-120.783 359.122,-127.594"/>
</g>
<!-- Node145 -->
<g id="node6" class="node"><title>Node145</title>
<g id="a_node6"><a xlink:href="MOM__checksums_8F90.html#a11889addbbd6d0919cf61aa07fd30ae8" target="_top" xlink:title="subchk">
<polygon fill="white" stroke="black" points="410,-88 410,-107 458,-107 458,-88 410,-88"/>
<text text-anchor="middle" x="434" y="-95" font-family="Helvetica,sans-Serif" font-size="10.00">subchk</text>
</a>
</g>
</g>
<!-- Node141&#45;&gt;Node145 -->
<g id="edge5" class="edge"><title>Node141&#45;&gt;Node145</title>
<path fill="none" stroke="midnightblue" d="M331.109,-98.0614C355.218,-97.9286 380.393,-97.7898 399.687,-97.6835"/>
<polygon fill="midnightblue" stroke="midnightblue" points="399.776,-101.183 409.756,-97.6281 399.737,-94.1833 399.776,-101.183"/>
</g>
<!-- Node146 -->
<g id="node7" class="node"><title>Node146</title>
<g id="a_node7"><a xlink:href="MOM__checksums_8F90.html#aa1b37a18ca6028d099f6e8444c734697" target="_top" xlink:title="substats">
<polygon fill="white" stroke="black" points="407,-50 407,-69 461,-69 461,-50 407,-50"/>
<text text-anchor="middle" x="434" y="-57" font-family="Helvetica,sans-Serif" font-size="10.00">substats</text>
</a>
</g>
</g>
<!-- Node141&#45;&gt;Node146 -->
<g id="edge6" class="edge"><title>Node141&#45;&gt;Node146</title>
<path fill="none" stroke="midnightblue" d="M295.9,-88.9595C326.931,-82.2916 367.847,-73.4999 396.88,-67.2613"/>
<polygon fill="midnightblue" stroke="midnightblue" points="397.957,-70.6099 406.998,-65.0871 396.486,-63.7661 397.957,-70.6099"/>
</g>
<!-- Node147 -->
<g id="node8" class="node"><title>Node147</title>
<g id="a_node8"><a xlink:href="namespacemom__error__handler.html#ad5f00a53059c72fe2332d1436c80ca71" target="_top" xlink:title="mom_error_handler::\lis_root_pe">
<polygon fill="white" stroke="black" points="537,-44.5 537,-74.5 643,-74.5 643,-44.5 537,-44.5"/>
<text text-anchor="start" x="545" y="-62.5" font-family="Helvetica,sans-Serif" font-size="10.00">mom_error_handler::</text>
<text text-anchor="middle" x="590" y="-51.5" font-family="Helvetica,sans-Serif" font-size="10.00">is_root_pe</text>
</a>
</g>
</g>
<!-- Node146&#45;&gt;Node147 -->
<g id="edge7" class="edge"><title>Node146&#45;&gt;Node147</title>
<path fill="none" stroke="midnightblue" d="M461.124,-59.5C479.139,-59.5 503.88,-59.5 526.802,-59.5"/>
<polygon fill="midnightblue" stroke="midnightblue" points="526.831,-63.0001 536.831,-59.5 526.831,-56.0001 526.831,-63.0001"/>
</g>
<!-- Node148&#45;&gt;Node142 -->
<g id="edge13" class="edge"><title>Node148&#45;&gt;Node142</title>
<path fill="none" stroke="midnightblue" d="M285.639,-149.093C309.246,-155.726 341.363,-164.751 369.589,-172.682"/>
<polygon fill="midnightblue" stroke="midnightblue" points="368.816,-176.1 379.39,-175.436 370.709,-169.361 368.816,-176.1"/>
</g>
<!-- Node148&#45;&gt;Node144 -->
<g id="edge9" class="edge"><title>Node148&#45;&gt;Node144</title>
<path fill="none" stroke="midnightblue" d="M331.109,-140.377C339.573,-140.471 348.169,-140.565 356.595,-140.658"/>
<polygon fill="midnightblue" stroke="midnightblue" points="356.731,-144.16 366.769,-140.77 356.808,-137.16 356.731,-144.16"/>
</g>
<!-- Node148&#45;&gt;Node145 -->
<g id="edge11" class="edge"><title>Node148&#45;&gt;Node145</title>
<path fill="none" stroke="midnightblue" d="M292.685,-129.97C325.15,-122.457 369.823,-112.119 399.969,-105.143"/>
<polygon fill="midnightblue" stroke="midnightblue" points="401.029,-108.491 409.983,-102.826 399.451,-101.671 401.029,-108.491"/>
</g>
<!-- Node148&#45;&gt;Node146 -->
<g id="edge10" class="edge"><title>Node148&#45;&gt;Node146</title>
<path fill="none" stroke="midnightblue" d="M302.447,-129.933C312.339,-126.844 322.319,-122.794 331,-117.5 351.139,-105.217 346.925,-90.8867 367,-78.5 376.057,-72.9119 386.82,-68.9108 397,-66.0694"/>
<polygon fill="midnightblue" stroke="midnightblue" points="398.045,-69.416 406.9,-63.5987 396.35,-62.6243 398.045,-69.416"/>
</g>
<!-- Node149 -->
<g id="node10" class="node"><title>Node149</title>
<g id="a_node10"><a xlink:href="namespacemom__checksums.html#a61968e3bc24b9a98f2a062ada53c14bf" target="_top" xlink:title="mom_checksums::chk\l_sum_msg_s">
<polygon fill="white" stroke="black" points="376,-224.5 376,-254.5 492,-254.5 492,-224.5 376,-224.5"/>
<text text-anchor="start" x="384" y="-242.5" font-family="Helvetica,sans-Serif" font-size="10.00">mom_checksums::chk</text>
<text text-anchor="middle" x="434" y="-231.5" font-family="Helvetica,sans-Serif" font-size="10.00">_sum_msg_s</text>
</a>
</g>
</g>
<!-- Node148&#45;&gt;Node149 -->
<g id="edge12" class="edge"><title>Node148&#45;&gt;Node149</title>
<path fill="none" stroke="midnightblue" d="M264.067,-149.196C284.67,-164.757 327.316,-195.572 367,-215.5 370.516,-217.265 374.193,-218.967 377.937,-220.593"/>
<polygon fill="midnightblue" stroke="midnightblue" points="376.743,-223.887 387.322,-224.472 379.417,-217.417 376.743,-223.887"/>
</g>
</g>
</svg>
        <g id="navigator" transform="translate(0 0)" fill="#404254">
                <rect fill="#f2f5e9" fill-opacity="0.5" stroke="#606060" stroke-width=".5" x="0" y="0" width="60" height="60"/>
                <use id="zoomplus" xlink:href="#zoomPlus" x="17" y="9" onmousedown="handleZoom(evt,'in')"/>
                <use id="zoomminus" xlink:href="#zoomMin" x="42" y="9" onmousedown="handleZoom(evt,'out')"/>
                <use id="reset" xlink:href="#resetDef" x="30" y="36" onmousedown="handleReset()"/>
                <g id="arrowUp" xlink:href="#dirArrow" transform="translate(30 24)" onmousedown="handlePan(0,-1)">
                  <use xlink:href="#rim" fill="#404040">
                        <set attributeName="fill" to="#808080" begin="arrowUp.mouseover" end="arrowUp.mouseout"/>
                  </use>
                  <path fill="none" stroke="white" stroke-width="1.5" d="M0,-3.0v7 M-2.5,-0.5L0,-3.0L2.5,-0.5"/>
                </g>
                <g id="arrowRight" xlink:href="#dirArrow" transform="rotate(90) translate(36 -43)" onmousedown="handlePan(1,0)">
                  <use xlink:href="#rim" fill="#404040">
                        <set attributeName="fill" to="#808080" begin="arrowRight.mouseover" end="arrowRight.mouseout"/>
                  </use>
                  <path fill="none" stroke="white" stroke-width="1.5" d="M0,-3.0v7 M-2.5,-0.5L0,-3.0L2.5,-0.5"/>
                </g>
                <g id="arrowDown" xlink:href="#dirArrow" transform="rotate(180) translate(-30 -48)" onmousedown="handlePan(0,1)">
                  <use xlink:href="#rim" fill="#404040">
                        <set attributeName="fill" to="#808080" begin="arrowDown.mouseover" end="arrowDown.mouseout"/>
                  </use>
                  <path fill="none" stroke="white" stroke-width="1.5" d="M0,-3.0v7 M-2.5,-0.5L0,-3.0L2.5,-0.5"/>
                </g>
                <g id="arrowLeft" xlink:href="#dirArrow" transform="rotate(270) translate(-36 17)" onmousedown="handlePan(-1,0)">
                  <use xlink:href="#rim" fill="#404040">
                        <set attributeName="fill" to="#808080" begin="arrowLeft.mouseover" end="arrowLeft.mouseout"/>
                  </use>
                  <path fill="none" stroke="white" stroke-width="1.5" d="M0,-3.0v7 M-2.5,-0.5L0,-3.0L2.5,-0.5"/>
                </g>
        </g>
        <svg viewBox="0 0 15 15" width="100%" height="30px" preserveAspectRatio="xMaxYMin meet">
         <g id="arrow_out" transform="scale(0.3 0.3)">
          <a xlink:href="namespacemom__checksums_a6621f0877c0c44b62c2e7afe29362116_cgraph_org.svg" target="_base">
           <rect id="button" ry="5" rx="5" y="6" x="6" height="38" width="38"
                fill="#f2f5e9" fill-opacity="0.5" stroke="#606060" stroke-width="1.0"/>
           <path id="arrow"
             d="M 11.500037,31.436501 C 11.940474,20.09759 22.043105,11.32322 32.158766,21.979434 L 37.068811,17.246167 C 37.068811,17.246167 37.088388,32 37.088388,32 L 22.160133,31.978069 C 22.160133,31.978069 26.997745,27.140456 26.997745,27.140456 C 18.528582,18.264221 13.291696,25.230495 11.500037,31.436501 z"
             style="fill:#404040;"/>
          </a>
         </g>
        </svg>
</svg>
