<?xml version="1.0" encoding="UTF-8" standalone="no"?>
<!DOCTYPE svg PUBLIC "-//W3C//DTD SVG 1.1//EN"
 "http://www.w3.org/Graphics/SVG/1.1/DTD/svg11.dtd">
<!-- Generated by graphviz version 2.38.0 (20140413.2041)
 -->
<!-- Title: mom_checksum_packages::mom_state_stats Pages: 1 -->
<svg width="428pt" height="61pt"
 viewBox="0.00 0.00 428.00 61.00" xmlns="http://www.w3.org/2000/svg" xmlns:xlink="http://www.w3.org/1999/xlink">
<g id="graph0" class="graph" transform="scale(1 1) rotate(0) translate(4 57)">
<title>mom_checksum_packages::mom_state_stats</title>
<polygon fill="white" stroke="none" points="-4,4 -4,-57 424,-57 424,4 -4,4"/>
<!-- Node10 -->
<g id="node1" class="node"><title>Node10</title>
<polygon fill="#bfbfbf" stroke="black" points="0,-22.5 0,-52.5 136,-52.5 136,-22.5 0,-22.5"/>
<text text-anchor="start" x="8" y="-40.5" font-family="Helvetica,sans-Serif" font-size="10.00">mom_checksum_packages</text>
<text text-anchor="middle" x="68" y="-29.5" font-family="Helvetica,sans-Serif" font-size="10.00">::mom_state_stats</text>
</g>
<!-- Node11 -->
<g id="node2" class="node"><title>Node11</title>
<g id="a_node2"><a xlink:href="namespacemom__error__handler.html#ad5f00a53059c72fe2332d1436c80ca71" target="_top" xlink:title="mom_error_handler::\lis_root_pe">
<polygon fill="white" stroke="black" points="314,-22.5 314,-52.5 420,-52.5 420,-22.5 314,-22.5"/>
<text text-anchor="start" x="322" y="-40.5" font-family="Helvetica,sans-Serif" font-size="10.00">mom_error_handler::</text>
<text text-anchor="middle" x="367" y="-29.5" font-family="Helvetica,sans-Serif" font-size="10.00">is_root_pe</text>
</a>
</g>
</g>
<!-- Node10&#45;&gt;Node11 -->
<g id="edge1" class="edge"><title>Node10&#45;&gt;Node11</title>
<path fill="none" stroke="midnightblue" d="M136.035,-39.7353C148.01,-40.054 160.373,-40.3307 172,-40.5 219.106,-41.1859 230.896,-41.3027 278,-40.5 286.349,-40.3577 295.142,-40.1396 303.809,-39.8844"/>
<polygon fill="midnightblue" stroke="midnightblue" points="304.005,-43.3801 313.891,-39.5702 303.787,-36.3835 304.005,-43.3801"/>
</g>
<!-- Node12 -->
<g id="node3" class="node"><title>Node12</title>
<g id="a_node3"><a xlink:href="namespacemom__error__handler.html#a1c462df7b61f1296407b4af51dfeceab" target="_top" xlink:title="mom_error_handler::\lmom_mesg">
<polygon fill="white" stroke="black" points="172,-0.5 172,-30.5 278,-30.5 278,-0.5 172,-0.5"/>
<text text-anchor="start" x="180" y="-18.5" font-family="Helvetica,sans-Serif" font-size="10.00">mom_error_handler::</text>
<text text-anchor="middle" x="225" y="-7.5" font-family="Helvetica,sans-Serif" font-size="10.00">mom_mesg</text>
</a>
</g>
</g>
<!-- Node10&#45;&gt;Node12 -->
<g id="edge2" class="edge"><title>Node10&#45;&gt;Node12</title>
<path fill="none" stroke="midnightblue" d="M136.084,-27.9784C144.576,-26.7731 153.239,-25.5436 161.653,-24.3493"/>
<polygon fill="midnightblue" stroke="midnightblue" points="162.357,-27.7846 171.765,-22.9139 161.373,-20.854 162.357,-27.7846"/>
</g>
<!-- Node12&#45;&gt;Node11 -->
<g id="edge3" class="edge"><title>Node12&#45;&gt;Node11</title>
<path fill="none" stroke="midnightblue" d="M278.131,-23.692C286.512,-25.0091 295.26,-26.3838 303.849,-27.7333"/>
<polygon fill="midnightblue" stroke="midnightblue" points="303.403,-31.2063 313.826,-29.3012 304.49,-24.2911 303.403,-31.2063"/>
</g>
</g>
</svg>
