<?xml version="1.0" encoding="UTF-8" standalone="no"?>
<!DOCTYPE svg PUBLIC "-//W3C//DTD SVG 1.1//EN"
 "http://www.w3.org/Graphics/SVG/1.1/DTD/svg11.dtd">
<!-- Generated by graphviz version 2.38.0 (20140413.2041)
 -->
<!-- Title: mom_neutral_diffusion::find_neutral_surface_positions Pages: 1 -->
<svg width="280pt" height="100pt"
 viewBox="0.00 0.00 280.00 99.50" xmlns="http://www.w3.org/2000/svg" xmlns:xlink="http://www.w3.org/1999/xlink">
<g id="graph0" class="graph" transform="scale(1 1) rotate(0) translate(4 95.5)">
<title>mom_neutral_diffusion::find_neutral_surface_positions</title>
<polygon fill="white" stroke="none" points="-4,4 -4,-95.5 276,-95.5 276,4 -4,4"/>
<!-- Node24 -->
<g id="node1" class="node"><title>Node24</title>
<polygon fill="#bfbfbf" stroke="black" points="0,-27.5 0,-68.5 115,-68.5 115,-27.5 0,-27.5"/>
<text text-anchor="start" x="8" y="-56.5" font-family="Helvetica,sans-Serif" font-size="10.00">mom_neutral_diffusion</text>
<text text-anchor="start" x="8" y="-45.5" font-family="Helvetica,sans-Serif" font-size="10.00">::find_neutral_surface</text>
<text text-anchor="middle" x="57.5" y="-34.5" font-family="Helvetica,sans-Serif" font-size="10.00">_positions</text>
</g>
<!-- Node25 -->
<g id="node2" class="node"><title>Node25</title>
<g id="a_node2"><a xlink:href="namespacemom__neutral__diffusion.html#a6a30ebbb70dd95dade154d1253393952" target="_top" xlink:title="Converts non&#45;dimensional position within a layer to absolute position (for debugging) ...">
<polygon fill="white" stroke="black" points="154,-61 154,-91 269,-91 269,-61 154,-61"/>
<text text-anchor="start" x="162" y="-79" font-family="Helvetica,sans-Serif" font-size="10.00">mom_neutral_diffusion</text>
<text text-anchor="middle" x="211.5" y="-68" font-family="Helvetica,sans-Serif" font-size="10.00">::absolute_position</text>
</a>
</g>
</g>
<!-- Node24&#45;&gt;Node25 -->
<g id="edge1" class="edge"><title>Node24&#45;&gt;Node25</title>
<path fill="none" stroke="midnightblue" d="M115.099,-58.4262C124.496,-60.1571 134.317,-61.9662 143.933,-63.7376"/>
<polygon fill="midnightblue" stroke="midnightblue" points="143.385,-67.1955 153.854,-65.5651 144.653,-60.3113 143.385,-67.1955"/>
</g>
<!-- Node26 -->
<g id="node3" class="node"><title>Node26</title>
<g id="a_node3"><a xlink:href="namespacemom__neutral__diffusion.html#a666836e70bdae7ef4ec271246cf91993" target="_top" xlink:title="Returns the non&#45;dimensional position between Pneg and Ppos where the interpolated density difference ...">
<polygon fill="white" stroke="black" points="151,-0.5 151,-41.5 272,-41.5 272,-0.5 151,-0.5"/>
<text text-anchor="start" x="159" y="-29.5" font-family="Helvetica,sans-Serif" font-size="10.00">mom_neutral_diffusion</text>
<text text-anchor="start" x="159" y="-18.5" font-family="Helvetica,sans-Serif" font-size="10.00">::interpolate_for_nondim</text>
<text text-anchor="middle" x="211.5" y="-7.5" font-family="Helvetica,sans-Serif" font-size="10.00">_position</text>
</a>
</g>
</g>
<!-- Node24&#45;&gt;Node26 -->
<g id="edge2" class="edge"><title>Node24&#45;&gt;Node26</title>
<path fill="none" stroke="midnightblue" d="M115.099,-37.9462C123.471,-36.4591 132.18,-34.9121 140.78,-33.3844"/>
<polygon fill="midnightblue" stroke="midnightblue" points="141.567,-36.7996 150.801,-31.6045 140.342,-29.9075 141.567,-36.7996"/>
</g>
</g>
</svg>
