<?xml version="1.0" encoding="UTF-8" standalone="no"?>
<!DOCTYPE svg PUBLIC "-//W3C//DTD SVG 1.1//EN"
 "http://www.w3.org/Graphics/SVG/1.1/DTD/svg11.dtd">
<!-- Generated by graphviz version 2.38.0 (20140413.2041)
 -->
<!-- Title: mom_tracer_flow_control::call_tracer_stocks Pages: 1 -->
<svg width="914pt" height="340pt"
 viewBox="0.00 0.00 914.00 339.68" xmlns="http://www.w3.org/2000/svg" xmlns:xlink="http://www.w3.org/1999/xlink">
<g id="graph0" class="graph" transform="scale(1 1) rotate(0) translate(4 335.677)">
<title>mom_tracer_flow_control::call_tracer_stocks</title>
<polygon fill="white" stroke="none" points="-4,4 -4,-335.677 910,-335.677 910,4 -4,4"/>
<!-- Node17 -->
<g id="node1" class="node"><title>Node17</title>
<polygon fill="#bfbfbf" stroke="black" points="0,-137.716 0,-167.716 126,-167.716 126,-137.716 0,-137.716"/>
<text text-anchor="start" x="8" y="-155.716" font-family="Helvetica,sans-Serif" font-size="10.00">mom_tracer_flow_control</text>
<text text-anchor="middle" x="63" y="-144.716" font-family="Helvetica,sans-Serif" font-size="10.00">::call_tracer_stocks</text>
</g>
<!-- Node18 -->
<g id="node2" class="node"><title>Node18</title>
<g id="a_node2"><a xlink:href="namespaceadvection__test__tracer.html#a1e3884b030df6c5107380b4ddd2fbce2" target="_top" xlink:title="advection_test_tracer\l::advection_test_stock">
<polygon fill="white" stroke="black" points="169.5,-260.716 169.5,-290.716 285.5,-290.716 285.5,-260.716 169.5,-260.716"/>
<text text-anchor="start" x="177.5" y="-278.716" font-family="Helvetica,sans-Serif" font-size="10.00">advection_test_tracer</text>
<text text-anchor="middle" x="227.5" y="-267.716" font-family="Helvetica,sans-Serif" font-size="10.00">::advection_test_stock</text>
</a>
</g>
</g>
<!-- Node17&#45;&gt;Node18 -->
<g id="edge1" class="edge"><title>Node17&#45;&gt;Node18</title>
<path fill="none" stroke="midnightblue" d="M75.3941,-167.824C92.2098,-189.188 125.633,-228.234 162,-251.716 164.447,-253.296 167.012,-254.792 169.652,-256.207"/>
<polygon fill="midnightblue" stroke="midnightblue" points="168.325,-259.455 178.846,-260.705 171.401,-253.167 168.325,-259.455"/>
</g>
<!-- Node21 -->
<g id="node5" class="node"><title>Node21</title>
<g id="a_node5"><a xlink:href="namespacemom__error__handler.html#a460cfb79a06c29fc249952c2a3710d67" target="_top" xlink:title="mom_error_handler::\lmom_error">
<polygon fill="white" stroke="black" points="658,-138.716 658,-168.716 764,-168.716 764,-138.716 658,-138.716"/>
<text text-anchor="start" x="666" y="-156.716" font-family="Helvetica,sans-Serif" font-size="10.00">mom_error_handler::</text>
<text text-anchor="middle" x="711" y="-145.716" font-family="Helvetica,sans-Serif" font-size="10.00">mom_error</text>
</a>
</g>
</g>
<!-- Node17&#45;&gt;Node21 -->
<g id="edge9" class="edge"><title>Node17&#45;&gt;Node21</title>
<path fill="none" stroke="midnightblue" d="M68.6947,-168.098C79.3152,-199.831 108.519,-271.986 162,-300.716 345.121,-399.088 598.722,-235.383 682.165,-174.836"/>
<polygon fill="midnightblue" stroke="midnightblue" points="684.383,-177.55 690.374,-168.811 680.241,-171.906 684.383,-177.55"/>
</g>
<!-- Node23 -->
<g id="node7" class="node"><title>Node23</title>
<g id="a_node7"><a xlink:href="namespaceregional__dyes.html#a0641ff9c663bcfacdd597a79f63d15e0" target="_top" xlink:title="regional_dyes::dye\l_stock">
<polygon fill="white" stroke="black" points="178.5,-211.716 178.5,-241.716 276.5,-241.716 276.5,-211.716 178.5,-211.716"/>
<text text-anchor="start" x="186.5" y="-229.716" font-family="Helvetica,sans-Serif" font-size="10.00">regional_dyes::dye</text>
<text text-anchor="middle" x="227.5" y="-218.716" font-family="Helvetica,sans-Serif" font-size="10.00">_stock</text>
</a>
</g>
</g>
<!-- Node17&#45;&gt;Node23 -->
<g id="edge6" class="edge"><title>Node17&#45;&gt;Node23</title>
<path fill="none" stroke="midnightblue" d="M91.4678,-167.809C110.89,-178.213 137.693,-192.036 162,-202.716 166.047,-204.495 170.272,-206.26 174.538,-207.98"/>
<polygon fill="midnightblue" stroke="midnightblue" points="173.305,-211.255 183.892,-211.657 175.866,-204.741 173.305,-211.255"/>
</g>
<!-- Node24 -->
<g id="node8" class="node"><title>Node24</title>
<g id="a_node8"><a xlink:href="namespaceideal__age__example.html#a2300d82e30802a3127f4a63277d37776" target="_top" xlink:title="ideal_age_example::\lideal_age_stock">
<polygon fill="white" stroke="black" points="174.5,-162.716 174.5,-192.716 280.5,-192.716 280.5,-162.716 174.5,-162.716"/>
<text text-anchor="start" x="182.5" y="-180.716" font-family="Helvetica,sans-Serif" font-size="10.00">ideal_age_example::</text>
<text text-anchor="middle" x="227.5" y="-169.716" font-family="Helvetica,sans-Serif" font-size="10.00">ideal_age_stock</text>
</a>
</g>
</g>
<!-- Node17&#45;&gt;Node24 -->
<g id="edge7" class="edge"><title>Node17&#45;&gt;Node24</title>
<path fill="none" stroke="midnightblue" d="M126.362,-162.31C138.739,-164.214 151.734,-166.214 164.112,-168.118"/>
<polygon fill="midnightblue" stroke="midnightblue" points="163.921,-171.63 174.337,-169.691 164.985,-164.711 163.921,-171.63"/>
</g>
<!-- Node25 -->
<g id="node9" class="node"><title>Node25</title>
<g id="a_node9"><a xlink:href="namespacemom__ocmip2__cfc.html#ac3c9967ff09b37934eb5ef51535e7ee3" target="_top" xlink:title="This function calculates the mass&#45;weighted integral of all tracer stocks, returning the number of sto...">
<polygon fill="white" stroke="black" points="162,-113.716 162,-143.716 293,-143.716 293,-113.716 162,-113.716"/>
<text text-anchor="start" x="170" y="-131.716" font-family="Helvetica,sans-Serif" font-size="10.00">mom_ocmip2_cfc::ocmip2</text>
<text text-anchor="middle" x="227.5" y="-120.716" font-family="Helvetica,sans-Serif" font-size="10.00">_cfc_stock</text>
</a>
</g>
</g>
<!-- Node17&#45;&gt;Node25 -->
<g id="edge10" class="edge"><title>Node17&#45;&gt;Node25</title>
<path fill="none" stroke="midnightblue" d="M126.362,-143.506C134.725,-142.271 143.371,-140.994 151.917,-139.731"/>
<polygon fill="midnightblue" stroke="midnightblue" points="152.5,-143.183 161.882,-138.26 151.478,-136.258 152.5,-143.183"/>
</g>
<!-- Node26 -->
<g id="node10" class="node"><title>Node26</title>
<g id="a_node10"><a xlink:href="namespaceoil__tracer.html#ac8964b16549dba8fc850e4af15af8029" target="_top" xlink:title="oil_tracer::oil_stock">
<polygon fill="white" stroke="black" points="177,-75.2162 177,-94.2162 278,-94.2162 278,-75.2162 177,-75.2162"/>
<text text-anchor="middle" x="227.5" y="-82.2162" font-family="Helvetica,sans-Serif" font-size="10.00">oil_tracer::oil_stock</text>
</a>
</g>
</g>
<!-- Node17&#45;&gt;Node26 -->
<g id="edge12" class="edge"><title>Node17&#45;&gt;Node26</title>
<path fill="none" stroke="midnightblue" d="M91.7822,-137.674C111.123,-127.561 137.702,-114.367 162,-104.716 168.515,-102.128 175.506,-99.6584 182.395,-97.3922"/>
<polygon fill="midnightblue" stroke="midnightblue" points="183.878,-100.593 192.347,-94.228 181.757,-93.9225 183.878,-100.593"/>
</g>
<!-- Node27 -->
<g id="node11" class="node"><title>Node27</title>
<g id="a_node11"><a xlink:href="namespacepseudo__salt__tracer.html#a282f3c84b7e7ccdaa6d9344342705a6e" target="_top" xlink:title="pseudo_salt_tracer\l::pseudo_salt_stock">
<polygon fill="white" stroke="black" points="175.5,-25.7162 175.5,-55.7162 279.5,-55.7162 279.5,-25.7162 175.5,-25.7162"/>
<text text-anchor="start" x="183.5" y="-43.7162" font-family="Helvetica,sans-Serif" font-size="10.00">pseudo_salt_tracer</text>
<text text-anchor="middle" x="227.5" y="-32.7162" font-family="Helvetica,sans-Serif" font-size="10.00">::pseudo_salt_stock</text>
</a>
</g>
</g>
<!-- Node17&#45;&gt;Node27 -->
<g id="edge13" class="edge"><title>Node17&#45;&gt;Node27</title>
<path fill="none" stroke="midnightblue" d="M77.6295,-137.676C95.4591,-118.741 128.402,-86.2178 162,-65.7162 165.213,-63.7554 168.607,-61.9 172.088,-60.1536"/>
<polygon fill="midnightblue" stroke="midnightblue" points="173.862,-63.1879 181.444,-55.7876 170.902,-56.8445 173.862,-63.1879"/>
</g>
<!-- Node28 -->
<g id="node12" class="node"><title>Node28</title>
<g id="a_node12"><a xlink:href="namespacemom__tracer__flow__control.html#ad43ea30fa52fcb930db39037f5d7e6b9" target="_top" xlink:title="This routine stores the stocks and does error handling for call_tracer_stocks. ">
<polygon fill="white" stroke="black" points="329,-26.7162 329,-56.7162 455,-56.7162 455,-26.7162 329,-26.7162"/>
<text text-anchor="start" x="337" y="-44.7162" font-family="Helvetica,sans-Serif" font-size="10.00">mom_tracer_flow_control</text>
<text text-anchor="middle" x="392" y="-33.7162" font-family="Helvetica,sans-Serif" font-size="10.00">::store_stocks</text>
</a>
</g>
</g>
<!-- Node17&#45;&gt;Node28 -->
<g id="edge15" class="edge"><title>Node17&#45;&gt;Node28</title>
<path fill="none" stroke="midnightblue" d="M69.4027,-137.529C80.9706,-107.633 111.286,-41.7922 162,-15.7162 220.924,14.5816 299.434,-5.19498 347.537,-22.9422"/>
<polygon fill="midnightblue" stroke="midnightblue" points="346.439,-26.2693 357.03,-26.5643 348.935,-19.7292 346.439,-26.2693"/>
</g>
<!-- Node19 -->
<g id="node3" class="node"><title>Node19</title>
<g id="a_node3"><a xlink:href="namespacemom__io.html#a23e82d1d89d9bb1c9bdf802ce80d4508" target="_top" xlink:title="This routine queries vardesc. ">
<polygon fill="white" stroke="black" points="331.5,-144.216 331.5,-163.216 452.5,-163.216 452.5,-144.216 331.5,-144.216"/>
<text text-anchor="middle" x="392" y="-151.216" font-family="Helvetica,sans-Serif" font-size="10.00">mom_io::query_vardesc</text>
</a>
</g>
</g>
<!-- Node18&#45;&gt;Node19 -->
<g id="edge2" class="edge"><title>Node18&#45;&gt;Node19</title>
<path fill="none" stroke="midnightblue" d="M276.138,-260.68C282.007,-258.057 287.772,-255.073 293,-251.716 327.7,-229.435 359.862,-193.063 377.332,-171.455"/>
<polygon fill="midnightblue" stroke="midnightblue" points="380.216,-173.45 383.684,-163.439 374.73,-169.102 380.216,-173.45"/>
</g>
<!-- Node20 -->
<g id="node4" class="node"><title>Node20</title>
<g id="a_node4"><a xlink:href="namespacemom__io.html#ac4bc408e8b38dbd669842753f26ebf88" target="_top" xlink:title="Copies a string. ">
<polygon fill="white" stroke="black" points="491,-144.216 491,-163.216 622,-163.216 622,-144.216 491,-144.216"/>
<text text-anchor="middle" x="556.5" y="-151.216" font-family="Helvetica,sans-Serif" font-size="10.00">mom_io::safe_string_copy</text>
</a>
</g>
</g>
<!-- Node19&#45;&gt;Node20 -->
<g id="edge3" class="edge"><title>Node19&#45;&gt;Node20</title>
<path fill="none" stroke="midnightblue" d="M452.586,-153.716C461.766,-153.716 471.344,-153.716 480.803,-153.716"/>
<polygon fill="midnightblue" stroke="midnightblue" points="480.995,-157.216 490.995,-153.716 480.995,-150.216 480.995,-157.216"/>
</g>
<!-- Node20&#45;&gt;Node21 -->
<g id="edge4" class="edge"><title>Node20&#45;&gt;Node21</title>
<path fill="none" stroke="midnightblue" d="M622.174,-153.716C630.6,-153.716 639.219,-153.716 647.607,-153.716"/>
<polygon fill="midnightblue" stroke="midnightblue" points="647.695,-157.216 657.695,-153.716 647.695,-150.216 647.695,-157.216"/>
</g>
<!-- Node22 -->
<g id="node6" class="node"><title>Node22</title>
<g id="a_node6"><a xlink:href="namespacemom__error__handler.html#ad5f00a53059c72fe2332d1436c80ca71" target="_top" xlink:title="mom_error_handler::\lis_root_pe">
<polygon fill="white" stroke="black" points="800,-138.716 800,-168.716 906,-168.716 906,-138.716 800,-138.716"/>
<text text-anchor="start" x="808" y="-156.716" font-family="Helvetica,sans-Serif" font-size="10.00">mom_error_handler::</text>
<text text-anchor="middle" x="853" y="-145.716" font-family="Helvetica,sans-Serif" font-size="10.00">is_root_pe</text>
</a>
</g>
</g>
<!-- Node21&#45;&gt;Node22 -->
<g id="edge5" class="edge"><title>Node21&#45;&gt;Node22</title>
<path fill="none" stroke="midnightblue" d="M764.131,-153.716C772.421,-153.716 781.07,-153.716 789.568,-153.716"/>
<polygon fill="midnightblue" stroke="midnightblue" points="789.826,-157.216 799.826,-153.716 789.826,-150.216 789.826,-157.216"/>
</g>
<!-- Node24&#45;&gt;Node19 -->
<g id="edge8" class="edge"><title>Node24&#45;&gt;Node19</title>
<path fill="none" stroke="midnightblue" d="M280.81,-169.99C293.675,-168.09 307.653,-166.026 321.198,-164.025"/>
<polygon fill="midnightblue" stroke="midnightblue" points="322.065,-167.435 331.446,-162.512 321.042,-160.511 322.065,-167.435"/>
</g>
<!-- Node25&#45;&gt;Node19 -->
<g id="edge11" class="edge"><title>Node25&#45;&gt;Node19</title>
<path fill="none" stroke="midnightblue" d="M293.191,-138.669C302.421,-140.089 311.948,-141.554 321.269,-142.988"/>
<polygon fill="midnightblue" stroke="midnightblue" points="320.863,-146.467 331.279,-144.528 321.927,-139.548 320.863,-146.467"/>
</g>
<!-- Node27&#45;&gt;Node19 -->
<g id="edge14" class="edge"><title>Node27&#45;&gt;Node19</title>
<path fill="none" stroke="midnightblue" d="M273.574,-55.7572C280.281,-58.6814 286.962,-62.0082 293,-65.7162 325.565,-85.7148 357.378,-117.107 375.542,-136.493"/>
<polygon fill="midnightblue" stroke="midnightblue" points="373.104,-139.013 382.453,-143.998 378.253,-134.271 373.104,-139.013"/>
</g>
<!-- Node28&#45;&gt;Node21 -->
<g id="edge16" class="edge"><title>Node28&#45;&gt;Node21</title>
<path fill="none" stroke="midnightblue" d="M435.752,-56.821C493.342,-77.1681 595.758,-113.353 657.819,-135.28"/>
<polygon fill="midnightblue" stroke="midnightblue" points="656.825,-138.641 667.42,-138.672 659.157,-132.041 656.825,-138.641"/>
</g>
</g>
</svg>
