<?xml version="1.0" encoding="UTF-8" standalone="no"?>
<!DOCTYPE svg PUBLIC "-//W3C//DTD SVG 1.1//EN"
 "http://www.w3.org/Graphics/SVG/1.1/DTD/svg11.dtd">
<!-- Generated by graphviz version 2.38.0 (20140413.2041)
 -->
<!-- Title: mom_pressureforce_afv::pressureforce_afv_nonbouss Pages: 1 -->
<svg width="464pt" height="137pt"
 viewBox="0.00 0.00 464.00 137.00" xmlns="http://www.w3.org/2000/svg" xmlns:xlink="http://www.w3.org/1999/xlink">
<g id="graph0" class="graph" transform="scale(1 1) rotate(0) translate(4 133)">
<title>mom_pressureforce_afv::pressureforce_afv_nonbouss</title>
<polygon fill="white" stroke="none" points="-4,4 -4,-133 460,-133 460,4 -4,4"/>
<!-- Node23 -->
<g id="node1" class="node"><title>Node23</title>
<polygon fill="#bfbfbf" stroke="black" points="0,-49.5 0,-79.5 148,-79.5 148,-49.5 0,-49.5"/>
<text text-anchor="start" x="8" y="-67.5" font-family="Helvetica,sans-Serif" font-size="10.00">mom_pressureforce_afv</text>
<text text-anchor="middle" x="74" y="-56.5" font-family="Helvetica,sans-Serif" font-size="10.00">::pressureforce_afv_nonbouss</text>
</g>
<!-- Node24 -->
<g id="node2" class="node"><title>Node24</title>
<g id="a_node2"><a xlink:href="namespacemom__tidal__forcing.html#ab88c76dce908a227ab2bfa42f4869fe7" target="_top" xlink:title="This subroutine calculates the geopotential anomalies that drive the tides, including self&#45;attraction...">
<polygon fill="white" stroke="black" points="198,-98.5 198,-128.5 300,-128.5 300,-98.5 198,-98.5"/>
<text text-anchor="start" x="206" y="-116.5" font-family="Helvetica,sans-Serif" font-size="10.00">mom_tidal_forcing::</text>
<text text-anchor="middle" x="249" y="-105.5" font-family="Helvetica,sans-Serif" font-size="10.00">calc_tidal_forcing</text>
</a>
</g>
</g>
<!-- Node23&#45;&gt;Node24 -->
<g id="edge1" class="edge"><title>Node23&#45;&gt;Node24</title>
<path fill="none" stroke="midnightblue" d="M128.317,-79.6014C147.257,-84.9659 168.698,-91.0388 188.148,-96.5476"/>
<polygon fill="midnightblue" stroke="midnightblue" points="187.238,-99.9276 197.813,-99.2853 189.146,-93.1925 187.238,-99.9276"/>
</g>
<!-- Node25 -->
<g id="node3" class="node"><title>Node25</title>
<g id="a_node3"><a xlink:href="namespacemom__error__handler.html#a460cfb79a06c29fc249952c2a3710d67" target="_top" xlink:title="mom_error_handler::\lmom_error">
<polygon fill="white" stroke="black" points="196,-49.5 196,-79.5 302,-79.5 302,-49.5 196,-49.5"/>
<text text-anchor="start" x="204" y="-67.5" font-family="Helvetica,sans-Serif" font-size="10.00">mom_error_handler::</text>
<text text-anchor="middle" x="249" y="-56.5" font-family="Helvetica,sans-Serif" font-size="10.00">mom_error</text>
</a>
</g>
</g>
<!-- Node23&#45;&gt;Node25 -->
<g id="edge2" class="edge"><title>Node23&#45;&gt;Node25</title>
<path fill="none" stroke="midnightblue" d="M148.117,-64.5C160.653,-64.5 173.573,-64.5 185.79,-64.5"/>
<polygon fill="midnightblue" stroke="midnightblue" points="185.862,-68.0001 195.862,-64.5 185.862,-61.0001 185.862,-68.0001"/>
</g>
<!-- Node27 -->
<g id="node5" class="node"><title>Node27</title>
<g id="a_node5"><a xlink:href="namespacemom__pressureforce__mont.html#aac4ff359115d0f17df8118cc648dcabd" target="_top" xlink:title="Determines the partial derivative of the acceleration due to pressure forces with the column mass...">
<polygon fill="white" stroke="black" points="184,-0.5 184,-30.5 314,-30.5 314,-0.5 184,-0.5"/>
<text text-anchor="start" x="192" y="-18.5" font-family="Helvetica,sans-Serif" font-size="10.00">mom_pressureforce_mont</text>
<text text-anchor="middle" x="249" y="-7.5" font-family="Helvetica,sans-Serif" font-size="10.00">::set_pbce_nonbouss</text>
</a>
</g>
</g>
<!-- Node23&#45;&gt;Node27 -->
<g id="edge4" class="edge"><title>Node23&#45;&gt;Node27</title>
<path fill="none" stroke="midnightblue" d="M128.317,-49.3986C146.242,-44.3215 166.408,-38.6098 185.006,-33.3423"/>
<polygon fill="midnightblue" stroke="midnightblue" points="186.191,-36.6443 194.859,-30.5516 184.283,-29.9093 186.191,-36.6443"/>
</g>
<!-- Node26 -->
<g id="node4" class="node"><title>Node26</title>
<g id="a_node4"><a xlink:href="namespacemom__error__handler.html#ad5f00a53059c72fe2332d1436c80ca71" target="_top" xlink:title="mom_error_handler::\lis_root_pe">
<polygon fill="white" stroke="black" points="350,-49.5 350,-79.5 456,-79.5 456,-49.5 350,-49.5"/>
<text text-anchor="start" x="358" y="-67.5" font-family="Helvetica,sans-Serif" font-size="10.00">mom_error_handler::</text>
<text text-anchor="middle" x="403" y="-56.5" font-family="Helvetica,sans-Serif" font-size="10.00">is_root_pe</text>
</a>
</g>
</g>
<!-- Node25&#45;&gt;Node26 -->
<g id="edge3" class="edge"><title>Node25&#45;&gt;Node26</title>
<path fill="none" stroke="midnightblue" d="M302.31,-64.5C314.319,-64.5 327.205,-64.5 339.593,-64.5"/>
<polygon fill="midnightblue" stroke="midnightblue" points="339.851,-68.0001 349.851,-64.5 339.851,-61.0001 339.851,-68.0001"/>
</g>
</g>
</svg>
