<?xml version="1.0" encoding="UTF-8" standalone="no"?>
<!DOCTYPE svg PUBLIC "-//W3C//DTD SVG 1.1//EN"
 "http://www.w3.org/Graphics/SVG/1.1/DTD/svg11.dtd">
<!-- Generated by graphviz version 2.38.0 (20140413.2041)
 -->
<!-- Title: mom_barotropic::set_dtbt Pages: 1 -->
<svg width="433pt" height="186pt"
 viewBox="0.00 0.00 433.00 186.00" xmlns="http://www.w3.org/2000/svg" xmlns:xlink="http://www.w3.org/1999/xlink">
<g id="graph0" class="graph" transform="scale(1 1) rotate(0) translate(4 182)">
<title>mom_barotropic::set_dtbt</title>
<polygon fill="white" stroke="none" points="-4,4 -4,-182 429,-182 429,4 -4,4"/>
<!-- Node85 -->
<g id="node1" class="node"><title>Node85</title>
<polygon fill="#bfbfbf" stroke="black" points="0,-79 0,-98 128,-98 128,-79 0,-79"/>
<text text-anchor="middle" x="64" y="-86" font-family="Helvetica,sans-Serif" font-size="10.00">mom_barotropic::set_dtbt</text>
</g>
<!-- Node86 -->
<g id="node2" class="node"><title>Node86</title>
<g id="a_node2"><a xlink:href="namespacemom__barotropic.html#a69af48d24759b679d0431f09dc9da503" target="_top" xlink:title="This subroutine uses the BTCL types to find typical or maximum face areas, which can then be used for...">
<polygon fill="white" stroke="black" points="170,-147.5 170,-177.5 277,-177.5 277,-147.5 170,-147.5"/>
<text text-anchor="start" x="178" y="-165.5" font-family="Helvetica,sans-Serif" font-size="10.00">mom_barotropic::bt</text>
<text text-anchor="middle" x="223.5" y="-154.5" font-family="Helvetica,sans-Serif" font-size="10.00">_cont_to_face_areas</text>
</a>
</g>
</g>
<!-- Node85&#45;&gt;Node86 -->
<g id="edge1" class="edge"><title>Node85&#45;&gt;Node86</title>
<path fill="none" stroke="midnightblue" d="M83.0388,-98.1475C102.725,-108.549 135.276,-125.379 164,-138.5 167.604,-140.146 171.355,-141.806 175.139,-143.441"/>
<polygon fill="midnightblue" stroke="midnightblue" points="173.978,-146.751 184.551,-147.438 176.714,-140.308 173.978,-146.751"/>
</g>
<!-- Node87 -->
<g id="node3" class="node"><title>Node87</title>
<g id="a_node3"><a xlink:href="namespacemom__barotropic.html#a75ff2563aedd553f2799c1cfc320129e" target="_top" xlink:title="This subroutine determines the open face areas of cells for calculating the barotropic transport...">
<polygon fill="white" stroke="black" points="169.5,-98.5 169.5,-128.5 277.5,-128.5 277.5,-98.5 169.5,-98.5"/>
<text text-anchor="start" x="177.5" y="-116.5" font-family="Helvetica,sans-Serif" font-size="10.00">mom_barotropic::find</text>
<text text-anchor="middle" x="223.5" y="-105.5" font-family="Helvetica,sans-Serif" font-size="10.00">_face_areas</text>
</a>
</g>
</g>
<!-- Node85&#45;&gt;Node87 -->
<g id="edge2" class="edge"><title>Node85&#45;&gt;Node87</title>
<path fill="none" stroke="midnightblue" d="M124.993,-98.0227C136.175,-99.7976 147.892,-101.658 159.171,-103.448"/>
<polygon fill="midnightblue" stroke="midnightblue" points="158.952,-106.957 169.377,-105.068 160.049,-100.043 158.952,-106.957"/>
</g>
<!-- Node88 -->
<g id="node4" class="node"><title>Node88</title>
<g id="a_node4"><a xlink:href="namespacemom__error__handler.html#a460cfb79a06c29fc249952c2a3710d67" target="_top" xlink:title="mom_error_handler::\lmom_error">
<polygon fill="white" stroke="black" points="170.5,-49.5 170.5,-79.5 276.5,-79.5 276.5,-49.5 170.5,-49.5"/>
<text text-anchor="start" x="178.5" y="-67.5" font-family="Helvetica,sans-Serif" font-size="10.00">mom_error_handler::</text>
<text text-anchor="middle" x="223.5" y="-56.5" font-family="Helvetica,sans-Serif" font-size="10.00">mom_error</text>
</a>
</g>
</g>
<!-- Node85&#45;&gt;Node88 -->
<g id="edge3" class="edge"><title>Node85&#45;&gt;Node88</title>
<path fill="none" stroke="midnightblue" d="M127.701,-78.9456C138.362,-77.321 149.433,-75.634 160.087,-74.0105"/>
<polygon fill="midnightblue" stroke="midnightblue" points="160.788,-77.4441 170.147,-72.4776 159.734,-70.524 160.788,-77.4441"/>
</g>
<!-- Node90 -->
<g id="node6" class="node"><title>Node90</title>
<g id="a_node6"><a xlink:href="namespacemom__tidal__forcing.html#a0a1564c68489a35802c626a07f4629d7" target="_top" xlink:title="This subroutine calculates returns the partial derivative of the local geopotential height with the i...">
<polygon fill="white" stroke="black" points="164,-0.5 164,-30.5 283,-30.5 283,-0.5 164,-0.5"/>
<text text-anchor="start" x="172" y="-18.5" font-family="Helvetica,sans-Serif" font-size="10.00">mom_tidal_forcing::</text>
<text text-anchor="middle" x="223.5" y="-7.5" font-family="Helvetica,sans-Serif" font-size="10.00">tidal_forcing_sensitivity</text>
</a>
</g>
</g>
<!-- Node85&#45;&gt;Node90 -->
<g id="edge5" class="edge"><title>Node85&#45;&gt;Node90</title>
<path fill="none" stroke="midnightblue" d="M84.2208,-78.8449C104.074,-68.9513 136.017,-53.2544 164,-40.5 168.296,-38.5417 172.789,-36.5404 177.293,-34.5649"/>
<polygon fill="midnightblue" stroke="midnightblue" points="178.716,-37.7627 186.494,-30.5683 175.927,-31.3422 178.716,-37.7627"/>
</g>
<!-- Node89 -->
<g id="node5" class="node"><title>Node89</title>
<g id="a_node5"><a xlink:href="namespacemom__error__handler.html#ad5f00a53059c72fe2332d1436c80ca71" target="_top" xlink:title="mom_error_handler::\lis_root_pe">
<polygon fill="white" stroke="black" points="319,-49.5 319,-79.5 425,-79.5 425,-49.5 319,-49.5"/>
<text text-anchor="start" x="327" y="-67.5" font-family="Helvetica,sans-Serif" font-size="10.00">mom_error_handler::</text>
<text text-anchor="middle" x="372" y="-56.5" font-family="Helvetica,sans-Serif" font-size="10.00">is_root_pe</text>
</a>
</g>
</g>
<!-- Node88&#45;&gt;Node89 -->
<g id="edge4" class="edge"><title>Node88&#45;&gt;Node89</title>
<path fill="none" stroke="midnightblue" d="M276.563,-64.5C286.909,-64.5 297.872,-64.5 308.524,-64.5"/>
<polygon fill="midnightblue" stroke="midnightblue" points="308.611,-68.0001 318.611,-64.5 308.611,-61.0001 308.611,-68.0001"/>
</g>
</g>
</svg>
