<?xml version="1.0" encoding="UTF-8" standalone="no"?>
<!DOCTYPE svg PUBLIC "-//W3C//DTD SVG 1.1//EN"
 "http://www.w3.org/Graphics/SVG/1.1/DTD/svg11.dtd">
<!-- Generated by graphviz version 2.38.0 (20140413.2041)
 -->
<!-- Title: mom_entrain_diffusive::entrain_diffusive_end Pages: 1 -->
<svg width="266pt" height="39pt"
 viewBox="0.00 0.00 266.00 39.00" xmlns="http://www.w3.org/2000/svg" xmlns:xlink="http://www.w3.org/1999/xlink">
<g id="graph0" class="graph" transform="scale(1 1) rotate(0) translate(4 35)">
<title>mom_entrain_diffusive::entrain_diffusive_end</title>
<polygon fill="white" stroke="none" points="-4,4 -4,-35 262,-35 262,4 -4,4"/>
<!-- Node15 -->
<g id="node1" class="node"><title>Node15</title>
<polygon fill="#bfbfbf" stroke="black" points="0,-0.5 0,-30.5 115,-30.5 115,-0.5 0,-0.5"/>
<text text-anchor="start" x="8" y="-18.5" font-family="Helvetica,sans-Serif" font-size="10.00">mom_entrain_diffusive</text>
<text text-anchor="middle" x="57.5" y="-7.5" font-family="Helvetica,sans-Serif" font-size="10.00">::entrain_diffusive_end</text>
</g>
<!-- Node16 -->
<g id="node2" class="node"><title>Node16</title>
<g id="a_node2"><a xlink:href="namespacemom__diabatic__driver.html#a6eac8317c3b569e414fb5a6678afc598" target="_top" xlink:title="Routine to close the diabatic driver module. ">
<polygon fill="white" stroke="black" points="151,-0.5 151,-30.5 258,-30.5 258,-0.5 151,-0.5"/>
<text text-anchor="start" x="159" y="-18.5" font-family="Helvetica,sans-Serif" font-size="10.00">mom_diabatic_driver</text>
<text text-anchor="middle" x="204.5" y="-7.5" font-family="Helvetica,sans-Serif" font-size="10.00">::diabatic_driver_end</text>
</a>
</g>
</g>
<!-- Node15&#45;&gt;Node16 -->
<g id="edge1" class="edge"><title>Node15&#45;&gt;Node16</title>
<path fill="none" stroke="midnightblue" d="M125.546,-15.5C133.936,-15.5 142.424,-15.5 150.557,-15.5"/>
<polygon fill="midnightblue" stroke="midnightblue" points="125.392,-12.0001 115.392,-15.5 125.392,-19.0001 125.392,-12.0001"/>
</g>
</g>
</svg>
