<?xml version="1.0" encoding="UTF-8" standalone="no"?>
<!DOCTYPE svg PUBLIC "-//W3C//DTD SVG 1.1//EN"
 "http://www.w3.org/Graphics/SVG/1.1/DTD/svg11.dtd">
<!-- Generated by graphviz version 2.38.0 (20140413.2041)
 -->
<!-- Title: mom_debugging::check_column_integrals Pages: 1 -->
<svg width="271pt" height="39pt"
 viewBox="0.00 0.00 271.00 39.00" xmlns="http://www.w3.org/2000/svg" xmlns:xlink="http://www.w3.org/1999/xlink">
<g id="graph0" class="graph" transform="scale(1 1) rotate(0) translate(4 35)">
<title>mom_debugging::check_column_integrals</title>
<polygon fill="white" stroke="none" points="-4,4 -4,-35 267,-35 267,4 -4,4"/>
<!-- Node3 -->
<g id="node1" class="node"><title>Node3</title>
<polygon fill="#bfbfbf" stroke="black" points="0,-0.5 0,-30.5 120,-30.5 120,-0.5 0,-0.5"/>
<text text-anchor="start" x="8" y="-18.5" font-family="Helvetica,sans-Serif" font-size="10.00">mom_debugging::check</text>
<text text-anchor="middle" x="60" y="-7.5" font-family="Helvetica,sans-Serif" font-size="10.00">_column_integrals</text>
</g>
<!-- Node4 -->
<g id="node2" class="node"><title>Node4</title>
<g id="a_node2"><a xlink:href="namespacemom__ale.html#a1e8b6f82cdc9d20abf0506b3ab7004b6" target="_top" xlink:title="Regrid/remap stored fields used for offline tracer integrations. These input fields are assumed to ha...">
<polygon fill="white" stroke="black" points="156,-0.5 156,-30.5 263,-30.5 263,-0.5 156,-0.5"/>
<text text-anchor="start" x="164" y="-18.5" font-family="Helvetica,sans-Serif" font-size="10.00">mom_ale::ale_offline</text>
<text text-anchor="middle" x="209.5" y="-7.5" font-family="Helvetica,sans-Serif" font-size="10.00">_inputs</text>
</a>
</g>
</g>
<!-- Node3&#45;&gt;Node4 -->
<g id="edge1" class="edge"><title>Node3&#45;&gt;Node4</title>
<path fill="none" stroke="midnightblue" d="M130.39,-15.5C138.845,-15.5 147.377,-15.5 155.539,-15.5"/>
<polygon fill="midnightblue" stroke="midnightblue" points="130.144,-12.0001 120.144,-15.5 130.144,-19.0001 130.144,-12.0001"/>
</g>
</g>
</svg>
