<?xml version="1.0" encoding="UTF-8" standalone="no"?>
<!DOCTYPE svg PUBLIC "-//W3C//DTD SVG 1.1//EN"
 "http://www.w3.org/Graphics/SVG/1.1/DTD/svg11.dtd">
<!-- Generated by graphviz version 2.38.0 (20140413.2041)
 -->
<!-- Title: phillips_initialization::phillips_initialize_sponges Pages: 1 -->
<svg width="547pt" height="50pt"
 viewBox="0.00 0.00 547.00 50.00" xmlns="http://www.w3.org/2000/svg" xmlns:xlink="http://www.w3.org/1999/xlink">
<g id="graph0" class="graph" transform="scale(1 1) rotate(0) translate(4 46)">
<title>phillips_initialization::phillips_initialize_sponges</title>
<polygon fill="white" stroke="none" points="-4,4 -4,-46 543,-46 543,4 -4,4"/>
<!-- Node0 -->
<g id="node1" class="node"><title>Node0</title>
<polygon fill="#bfbfbf" stroke="black" points="0,-0.5 0,-41.5 103,-41.5 103,-0.5 0,-0.5"/>
<text text-anchor="start" x="8" y="-29.5" font-family="Helvetica,sans-Serif" font-size="10.00">phillips_initialization</text>
<text text-anchor="start" x="8" y="-18.5" font-family="Helvetica,sans-Serif" font-size="10.00">::phillips_initialize</text>
<text text-anchor="middle" x="51.5" y="-7.5" font-family="Helvetica,sans-Serif" font-size="10.00">_sponges</text>
</g>
<!-- Node1 -->
<g id="node2" class="node"><title>Node1</title>
<g id="a_node2"><a xlink:href="namespacemom__sponge.html#a61184539a8e8e9d27dd9071c509b68bf" target="_top" xlink:title="mom_sponge::initialize\l_sponge">
<polygon fill="white" stroke="black" points="139,-6 139,-36 255,-36 255,-6 139,-6"/>
<text text-anchor="start" x="147" y="-24" font-family="Helvetica,sans-Serif" font-size="10.00">mom_sponge::initialize</text>
<text text-anchor="middle" x="197" y="-13" font-family="Helvetica,sans-Serif" font-size="10.00">_sponge</text>
</a>
</g>
</g>
<!-- Node0&#45;&gt;Node1 -->
<g id="edge1" class="edge"><title>Node0&#45;&gt;Node1</title>
<path fill="none" stroke="midnightblue" d="M103.093,-21C111.239,-21 119.785,-21 128.256,-21"/>
<polygon fill="midnightblue" stroke="midnightblue" points="128.52,-24.5001 138.52,-21 128.52,-17.5001 128.52,-24.5001"/>
</g>
<!-- Node2 -->
<g id="node3" class="node"><title>Node2</title>
<g id="a_node3"><a xlink:href="namespacemom__error__handler.html#a460cfb79a06c29fc249952c2a3710d67" target="_top" xlink:title="mom_error_handler::\lmom_error">
<polygon fill="white" stroke="black" points="291,-6 291,-36 397,-36 397,-6 291,-6"/>
<text text-anchor="start" x="299" y="-24" font-family="Helvetica,sans-Serif" font-size="10.00">mom_error_handler::</text>
<text text-anchor="middle" x="344" y="-13" font-family="Helvetica,sans-Serif" font-size="10.00">mom_error</text>
</a>
</g>
</g>
<!-- Node1&#45;&gt;Node2 -->
<g id="edge2" class="edge"><title>Node1&#45;&gt;Node2</title>
<path fill="none" stroke="midnightblue" d="M255.308,-21C263.637,-21 272.246,-21 280.669,-21"/>
<polygon fill="midnightblue" stroke="midnightblue" points="280.818,-24.5001 290.818,-21 280.818,-17.5001 280.818,-24.5001"/>
</g>
<!-- Node3 -->
<g id="node4" class="node"><title>Node3</title>
<g id="a_node4"><a xlink:href="namespacemom__error__handler.html#ad5f00a53059c72fe2332d1436c80ca71" target="_top" xlink:title="mom_error_handler::\lis_root_pe">
<polygon fill="white" stroke="black" points="433,-6 433,-36 539,-36 539,-6 433,-6"/>
<text text-anchor="start" x="441" y="-24" font-family="Helvetica,sans-Serif" font-size="10.00">mom_error_handler::</text>
<text text-anchor="middle" x="486" y="-13" font-family="Helvetica,sans-Serif" font-size="10.00">is_root_pe</text>
</a>
</g>
</g>
<!-- Node2&#45;&gt;Node3 -->
<g id="edge3" class="edge"><title>Node2&#45;&gt;Node3</title>
<path fill="none" stroke="midnightblue" d="M397.131,-21C405.421,-21 414.07,-21 422.568,-21"/>
<polygon fill="midnightblue" stroke="midnightblue" points="422.826,-24.5001 432.826,-21 422.826,-17.5001 422.826,-24.5001"/>
</g>
</g>
</svg>
