<?xml version="1.0" encoding="UTF-8" standalone="no"?>
<!DOCTYPE svg PUBLIC "-//W3C//DTD SVG 1.1//EN"
 "http://www.w3.org/Graphics/SVG/1.1/DTD/svg11.dtd">
<!-- Generated by graphviz version 2.38.0 (20140413.2041)
 -->
<!-- Title: mom_string_functions::left_int Pages: 1 -->
<svg width="834pt" height="129pt"
 viewBox="0.00 0.00 834.00 129.00" xmlns="http://www.w3.org/2000/svg" xmlns:xlink="http://www.w3.org/1999/xlink">
<g id="graph0" class="graph" transform="scale(1 1) rotate(0) translate(4 125)">
<title>mom_string_functions::left_int</title>
<polygon fill="white" stroke="none" points="-4,4 -4,-125 830,-125 830,4 -4,4"/>
<!-- Node55 -->
<g id="node1" class="node"><title>Node55</title>
<polygon fill="#bfbfbf" stroke="black" points="0,-46.5 0,-76.5 113,-76.5 113,-46.5 0,-46.5"/>
<text text-anchor="start" x="8" y="-64.5" font-family="Helvetica,sans-Serif" font-size="10.00">mom_string_functions</text>
<text text-anchor="middle" x="56.5" y="-53.5" font-family="Helvetica,sans-Serif" font-size="10.00">::left_int</text>
</g>
<!-- Node56 -->
<g id="node2" class="node"><title>Node56</title>
<g id="a_node2"><a xlink:href="namespacemom__string__functions.html#a0db6538cb622d0f20a577b07cb545f2e" target="_top" xlink:title="mom_string_functions\l::left_ints">
<polygon fill="white" stroke="black" points="149,-90.5 149,-120.5 262,-120.5 262,-90.5 149,-90.5"/>
<text text-anchor="start" x="157" y="-108.5" font-family="Helvetica,sans-Serif" font-size="10.00">mom_string_functions</text>
<text text-anchor="middle" x="205.5" y="-97.5" font-family="Helvetica,sans-Serif" font-size="10.00">::left_ints</text>
</a>
</g>
</g>
<!-- Node55&#45;&gt;Node56 -->
<g id="edge1" class="edge"><title>Node55&#45;&gt;Node56</title>
<path fill="none" stroke="midnightblue" d="M117.317,-79.4045C129.509,-83.0538 142.222,-86.859 154.049,-90.3991"/>
<polygon fill="midnightblue" stroke="midnightblue" points="118.262,-76.0338 107.678,-76.5192 116.254,-82.7398 118.262,-76.0338"/>
</g>
<!-- Node57 -->
<g id="node3" class="node"><title>Node57</title>
<g id="a_node3"><a xlink:href="namespacemom__string__functions.html#a7b7aa802a4da2021801267f6c6f890bf" target="_top" xlink:title="Returns true if a unit test of string_functions fails. ">
<polygon fill="white" stroke="black" points="298,-49.5 298,-79.5 438,-79.5 438,-49.5 298,-49.5"/>
<text text-anchor="start" x="306" y="-67.5" font-family="Helvetica,sans-Serif" font-size="10.00">mom_string_functions</text>
<text text-anchor="middle" x="368" y="-56.5" font-family="Helvetica,sans-Serif" font-size="10.00">::string_functions_unit_tests</text>
</a>
</g>
</g>
<!-- Node55&#45;&gt;Node57 -->
<g id="edge10" class="edge"><title>Node55&#45;&gt;Node57</title>
<path fill="none" stroke="midnightblue" d="M123.507,-62.1398C174.84,-62.6374 245.854,-63.3257 297.946,-63.8307"/>
<polygon fill="midnightblue" stroke="midnightblue" points="123.223,-58.637 113.19,-62.0398 123.155,-65.6367 123.223,-58.637"/>
</g>
<!-- Node61 -->
<g id="node7" class="node"><title>Node61</title>
<g id="a_node7"><a xlink:href="namespacemom__string__functions.html#a07fa1b92ce5c4c4336bb45c5a89fa548" target="_top" xlink:title="mom_string_functions\l::left_reals">
<polygon fill="white" stroke="black" points="149,-2.5 149,-32.5 262,-32.5 262,-2.5 149,-2.5"/>
<text text-anchor="start" x="157" y="-20.5" font-family="Helvetica,sans-Serif" font-size="10.00">mom_string_functions</text>
<text text-anchor="middle" x="205.5" y="-9.5" font-family="Helvetica,sans-Serif" font-size="10.00">::left_reals</text>
</a>
</g>
</g>
<!-- Node55&#45;&gt;Node61 -->
<g id="edge6" class="edge"><title>Node55&#45;&gt;Node61</title>
<path fill="none" stroke="midnightblue" d="M117.317,-43.5955C129.509,-39.9462 142.222,-36.141 154.049,-32.6009"/>
<polygon fill="midnightblue" stroke="midnightblue" points="116.254,-40.2602 107.678,-46.4808 118.262,-46.9662 116.254,-40.2602"/>
</g>
<!-- Node56&#45;&gt;Node57 -->
<g id="edge2" class="edge"><title>Node56&#45;&gt;Node57</title>
<path fill="none" stroke="midnightblue" d="M272.083,-88.7467C284.021,-85.6971 296.407,-82.533 308.136,-79.5368"/>
<polygon fill="midnightblue" stroke="midnightblue" points="271.007,-85.409 262.185,-91.2753 272.74,-92.1912 271.007,-85.409"/>
</g>
<!-- Node58 -->
<g id="node4" class="node"><title>Node58</title>
<g id="a_node4"><a xlink:href="namespacemom__unit__tests.html#a71f3a2080872634c14a25a9411b59fe0" target="_top" xlink:title="Calls unit tests for other modules. Note that if a unit test returns true, a FATAL error is triggered...">
<polygon fill="white" stroke="black" points="474,-49.5 474,-79.5 582,-79.5 582,-49.5 474,-49.5"/>
<text text-anchor="start" x="482" y="-67.5" font-family="Helvetica,sans-Serif" font-size="10.00">mom_unit_tests::unit</text>
<text text-anchor="middle" x="528" y="-56.5" font-family="Helvetica,sans-Serif" font-size="10.00">_tests</text>
</a>
</g>
</g>
<!-- Node57&#45;&gt;Node58 -->
<g id="edge3" class="edge"><title>Node57&#45;&gt;Node58</title>
<path fill="none" stroke="midnightblue" d="M448.422,-64.5C457.062,-64.5 465.695,-64.5 473.908,-64.5"/>
<polygon fill="midnightblue" stroke="midnightblue" points="448.301,-61.0001 438.301,-64.5 448.301,-68.0001 448.301,-61.0001"/>
</g>
<!-- Node59 -->
<g id="node5" class="node"><title>Node59</title>
<g id="a_node5"><a xlink:href="namespacemom.html#a0be2869fef30e1e0604facfe1b41555d" target="_top" xlink:title="This subroutine initializes MOM. ">
<polygon fill="white" stroke="black" points="618,-55 618,-74 725,-74 725,-55 618,-55"/>
<text text-anchor="middle" x="671.5" y="-62" font-family="Helvetica,sans-Serif" font-size="10.00">mom::initialize_mom</text>
</a>
</g>
</g>
<!-- Node58&#45;&gt;Node59 -->
<g id="edge4" class="edge"><title>Node58&#45;&gt;Node59</title>
<path fill="none" stroke="midnightblue" d="M592.294,-64.5C600.742,-64.5 609.335,-64.5 617.581,-64.5"/>
<polygon fill="midnightblue" stroke="midnightblue" points="592.092,-61.0001 582.092,-64.5 592.092,-68.0001 592.092,-61.0001"/>
</g>
<!-- Node60 -->
<g id="node6" class="node"><title>Node60</title>
<g id="a_node6"><a xlink:href="MOM__driver_8F90.html#a08fffeb2d8e8acbf9ed4609be6d258c6" target="_top" xlink:title="mom_main">
<polygon fill="white" stroke="black" points="761,-55 761,-74 826,-74 826,-55 761,-55"/>
<text text-anchor="middle" x="793.5" y="-62" font-family="Helvetica,sans-Serif" font-size="10.00">mom_main</text>
</a>
</g>
</g>
<!-- Node59&#45;&gt;Node60 -->
<g id="edge5" class="edge"><title>Node59&#45;&gt;Node60</title>
<path fill="none" stroke="midnightblue" d="M735.206,-64.5C744.134,-64.5 752.983,-64.5 760.958,-64.5"/>
<polygon fill="midnightblue" stroke="midnightblue" points="735.134,-61.0001 725.134,-64.5 735.134,-68.0001 735.134,-61.0001"/>
</g>
<!-- Node61&#45;&gt;Node57 -->
<g id="edge9" class="edge"><title>Node61&#45;&gt;Node57</title>
<path fill="none" stroke="midnightblue" d="M267.467,-35.3533C283.377,-40.0121 300.361,-44.9856 315.712,-49.481"/>
<polygon fill="midnightblue" stroke="midnightblue" points="268.305,-31.9518 257.724,-32.5003 266.338,-38.6697 268.305,-31.9518"/>
</g>
<!-- Node62 -->
<g id="node8" class="node"><title>Node62</title>
<g id="a_node8"><a xlink:href="namespacemom__file__parser.html#aa368e3cc6595a4f7b84560e1ffbb3ac6" target="_top" xlink:title="mom_file_parser::log\l_param_real_array">
<polygon fill="white" stroke="black" points="314.5,-0.5 314.5,-30.5 421.5,-30.5 421.5,-0.5 314.5,-0.5"/>
<text text-anchor="start" x="322.5" y="-18.5" font-family="Helvetica,sans-Serif" font-size="10.00">mom_file_parser::log</text>
<text text-anchor="middle" x="368" y="-7.5" font-family="Helvetica,sans-Serif" font-size="10.00">_param_real_array</text>
</a>
</g>
</g>
<!-- Node61&#45;&gt;Node62 -->
<g id="edge7" class="edge"><title>Node61&#45;&gt;Node62</title>
<path fill="none" stroke="midnightblue" d="M272.264,-16.6805C286.29,-16.5057 300.927,-16.3233 314.383,-16.1557"/>
<polygon fill="midnightblue" stroke="midnightblue" points="272.14,-13.1817 262.185,-16.8061 272.228,-20.1811 272.14,-13.1817"/>
</g>
<!-- Node63 -->
<g id="node9" class="node"><title>Node63</title>
<g id="a_node9"><a xlink:href="namespacemom__file__parser.html#af43ea79dcb7ced6a6bf49d438d105f76" target="_top" xlink:title="mom_file_parser::get\l_param_real_array">
<polygon fill="white" stroke="black" points="474,-0.5 474,-30.5 582,-30.5 582,-0.5 474,-0.5"/>
<text text-anchor="start" x="482" y="-18.5" font-family="Helvetica,sans-Serif" font-size="10.00">mom_file_parser::get</text>
<text text-anchor="middle" x="528" y="-7.5" font-family="Helvetica,sans-Serif" font-size="10.00">_param_real_array</text>
</a>
</g>
</g>
<!-- Node62&#45;&gt;Node63 -->
<g id="edge8" class="edge"><title>Node62&#45;&gt;Node63</title>
<path fill="none" stroke="midnightblue" d="M431.627,-15.5C445.591,-15.5 460.268,-15.5 473.81,-15.5"/>
<polygon fill="midnightblue" stroke="midnightblue" points="431.612,-12.0001 421.612,-15.5 431.612,-19.0001 431.612,-12.0001"/>
</g>
</g>
</svg>
