<?xml version="1.0" encoding="UTF-8" standalone="no"?>
<!DOCTYPE svg PUBLIC "-//W3C//DTD SVG 1.1//EN"
 "http://www.w3.org/Graphics/SVG/1.1/DTD/svg11.dtd">
<!-- Generated by graphviz version 2.38.0 (20140413.2041)
 -->
<!-- Title: mom_remapping::check_reconstructions_1d Pages: 1 -->
<svg width="1132pt" height="239pt"
 viewBox="0.00 0.00 1132.00 239.00" xmlns="http://www.w3.org/2000/svg" xmlns:xlink="http://www.w3.org/1999/xlink">
<g id="graph0" class="graph" transform="scale(1 1) rotate(0) translate(4 235)">
<title>mom_remapping::check_reconstructions_1d</title>
<polygon fill="white" stroke="none" points="-4,4 -4,-235 1128,-235 1128,4 -4,4"/>
<!-- Node74 -->
<g id="node1" class="node"><title>Node74</title>
<polygon fill="#bfbfbf" stroke="black" points="0,-132.5 0,-162.5 121,-162.5 121,-132.5 0,-132.5"/>
<text text-anchor="start" x="8" y="-150.5" font-family="Helvetica,sans-Serif" font-size="10.00">mom_remapping::check</text>
<text text-anchor="middle" x="60.5" y="-139.5" font-family="Helvetica,sans-Serif" font-size="10.00">_reconstructions_1d</text>
</g>
<!-- Node75 -->
<g id="node2" class="node"><title>Node75</title>
<g id="a_node2"><a xlink:href="namespacemom__remapping.html#a9ed32f0c2764a3ead9311670315dc26c" target="_top" xlink:title="Remaps column of values u0 on grid h0 to grid h1 assuming the top edge is aligned. ">
<polygon fill="white" stroke="black" points="157,-96.5 157,-126.5 297,-126.5 297,-96.5 157,-96.5"/>
<text text-anchor="start" x="165" y="-114.5" font-family="Helvetica,sans-Serif" font-size="10.00">mom_remapping::remapping</text>
<text text-anchor="middle" x="227" y="-103.5" font-family="Helvetica,sans-Serif" font-size="10.00">_core_h</text>
</a>
</g>
</g>
<!-- Node74&#45;&gt;Node75 -->
<g id="edge1" class="edge"><title>Node74&#45;&gt;Node75</title>
<path fill="none" stroke="midnightblue" d="M131.329,-132.218C139.918,-130.339 148.693,-128.418 157.266,-126.542"/>
<polygon fill="midnightblue" stroke="midnightblue" points="130.374,-128.844 121.354,-134.401 131.871,-135.682 130.374,-128.844"/>
</g>
<!-- Node91 -->
<g id="node18" class="node"><title>Node91</title>
<g id="a_node18"><a xlink:href="namespacemom__remapping.html#a8b967872b8db2ac7d538991f7f255e56" target="_top" xlink:title="Remaps column of values u0 on grid h0 to implied grid h1 where the interfaces of h1 differ from those...">
<polygon fill="white" stroke="black" points="157,-169.5 157,-199.5 297,-199.5 297,-169.5 157,-169.5"/>
<text text-anchor="start" x="165" y="-187.5" font-family="Helvetica,sans-Serif" font-size="10.00">mom_remapping::remapping</text>
<text text-anchor="middle" x="227" y="-176.5" font-family="Helvetica,sans-Serif" font-size="10.00">_core_w</text>
</a>
</g>
</g>
<!-- Node74&#45;&gt;Node91 -->
<g id="edge19" class="edge"><title>Node74&#45;&gt;Node91</title>
<path fill="none" stroke="midnightblue" d="M131.293,-163.198C140.553,-165.281 150.028,-167.412 159.234,-169.483"/>
<polygon fill="midnightblue" stroke="midnightblue" points="131.878,-159.742 121.354,-160.963 130.342,-166.572 131.878,-159.742"/>
</g>
<!-- Node76 -->
<g id="node3" class="node"><title>Node76</title>
<g id="a_node3"><a xlink:href="namespacecoord__rho.html#a6f5a56ba973e5e36820222a709614e40" target="_top" xlink:title="coord_rho::build_rho\l_column">
<polygon fill="white" stroke="black" points="351,-96.5 351,-126.5 455,-126.5 455,-96.5 351,-96.5"/>
<text text-anchor="start" x="359" y="-114.5" font-family="Helvetica,sans-Serif" font-size="10.00">coord_rho::build_rho</text>
<text text-anchor="middle" x="403" y="-103.5" font-family="Helvetica,sans-Serif" font-size="10.00">_column</text>
</a>
</g>
</g>
<!-- Node75&#45;&gt;Node76 -->
<g id="edge2" class="edge"><title>Node75&#45;&gt;Node76</title>
<path fill="none" stroke="midnightblue" d="M307.198,-111.5C322,-111.5 337.107,-111.5 350.784,-111.5"/>
<polygon fill="midnightblue" stroke="midnightblue" points="307.019,-108 297.019,-111.5 307.019,-115 307.019,-108"/>
</g>
<!-- Node78 -->
<g id="node5" class="node"><title>Node78</title>
<g id="a_node5"><a xlink:href="namespacemom__wave__speed.html#a72302e356c47c5055ba0b1a8714c772a" target="_top" xlink:title="Calculates the wave speed of the first baroclinic mode. ">
<polygon fill="white" stroke="black" points="509,-3.5 509,-33.5 637,-33.5 637,-3.5 509,-3.5"/>
<text text-anchor="start" x="517" y="-21.5" font-family="Helvetica,sans-Serif" font-size="10.00">mom_wave_speed::wave</text>
<text text-anchor="middle" x="573" y="-10.5" font-family="Helvetica,sans-Serif" font-size="10.00">_speed</text>
</a>
</g>
</g>
<!-- Node75&#45;&gt;Node78 -->
<g id="edge4" class="edge"><title>Node75&#45;&gt;Node78</title>
<path fill="none" stroke="midnightblue" d="M251.15,-89.5853C271.136,-72.1341 301.66,-48.8201 333,-37.5 390.059,-16.89 459.617,-13.5893 508.946,-14.5689"/>
<polygon fill="midnightblue" stroke="midnightblue" points="248.633,-87.1411 243.515,-96.418 253.301,-92.3574 248.633,-87.1411"/>
</g>
<!-- Node85 -->
<g id="node12" class="node"><title>Node85</title>
<g id="a_node12"><a xlink:href="namespacemom__diag__remap.html#a4b76283906971bcb94e85c0ed25f4e7b" target="_top" xlink:title="Remap diagnostic field to alternative vertical grid. ">
<polygon fill="white" stroke="black" points="344,-47.5 344,-77.5 462,-77.5 462,-47.5 344,-47.5"/>
<text text-anchor="start" x="352" y="-65.5" font-family="Helvetica,sans-Serif" font-size="10.00">mom_diag_remap::diag</text>
<text text-anchor="middle" x="403" y="-54.5" font-family="Helvetica,sans-Serif" font-size="10.00">_remap_do_remap</text>
</a>
</g>
</g>
<!-- Node75&#45;&gt;Node85 -->
<g id="edge12" class="edge"><title>Node75&#45;&gt;Node85</title>
<path fill="none" stroke="midnightblue" d="M291.284,-93.6788C310.07,-88.3882 330.455,-82.6478 348.552,-77.5516"/>
<polygon fill="midnightblue" stroke="midnightblue" points="290.302,-90.3189 281.626,-96.3986 292.2,-97.0568 290.302,-90.3189"/>
</g>
<!-- Node86 -->
<g id="node13" class="node"><title>Node86</title>
<g id="a_node13"><a xlink:href="namespacemom__state__initialization.html#a71ee3c056ca59c1c3529a4ec22e09fe3" target="_top" xlink:title="Adjust the layer thicknesses by cutting away the top at the depth where the hydrostatic pressure matc...">
<polygon fill="white" stroke="black" points="342,-145.5 342,-175.5 464,-175.5 464,-145.5 342,-145.5"/>
<text text-anchor="start" x="350" y="-163.5" font-family="Helvetica,sans-Serif" font-size="10.00">mom_state_initialization</text>
<text text-anchor="middle" x="403" y="-152.5" font-family="Helvetica,sans-Serif" font-size="10.00">::cut_off_column_top</text>
</a>
</g>
</g>
<!-- Node75&#45;&gt;Node86 -->
<g id="edge13" class="edge"><title>Node75&#45;&gt;Node86</title>
<path fill="none" stroke="midnightblue" d="M291.284,-129.321C310.07,-134.612 330.455,-140.352 348.552,-145.448"/>
<polygon fill="midnightblue" stroke="midnightblue" points="292.2,-125.943 281.626,-126.601 290.302,-132.681 292.2,-125.943"/>
</g>
<!-- Node77 -->
<g id="node4" class="node"><title>Node77</title>
<g id="a_node4"><a xlink:href="namespacemom__diag__remap.html#a1fb71d2982777f33bcbf183187e1819b" target="_top" xlink:title="Build/update target vertical grids for diagnostic remapping. ">
<polygon fill="white" stroke="black" points="514,-58.5 514,-88.5 632,-88.5 632,-58.5 514,-58.5"/>
<text text-anchor="start" x="522" y="-76.5" font-family="Helvetica,sans-Serif" font-size="10.00">mom_diag_remap::diag</text>
<text text-anchor="middle" x="573" y="-65.5" font-family="Helvetica,sans-Serif" font-size="10.00">_remap_update</text>
</a>
</g>
</g>
<!-- Node76&#45;&gt;Node77 -->
<g id="edge3" class="edge"><title>Node76&#45;&gt;Node77</title>
<path fill="none" stroke="midnightblue" d="M465.523,-97.5841C481.343,-94.0057 498.311,-90.1677 513.949,-86.6307"/>
<polygon fill="midnightblue" stroke="midnightblue" points="464.3,-94.2723 455.318,-99.8923 465.844,-101.1 464.3,-94.2723"/>
</g>
<!-- Node79 -->
<g id="node6" class="node"><title>Node79</title>
<g id="a_node6"><a xlink:href="namespacemom__diagnostics.html#abb6644248c28ab2e952361bfec436063" target="_top" xlink:title="Diagnostics not more naturally calculated elsewhere are computed here. ">
<polygon fill="white" stroke="black" points="673,-0.5 673,-30.5 811,-30.5 811,-0.5 673,-0.5"/>
<text text-anchor="start" x="681" y="-18.5" font-family="Helvetica,sans-Serif" font-size="10.00">mom_diagnostics::calculate</text>
<text text-anchor="middle" x="742" y="-7.5" font-family="Helvetica,sans-Serif" font-size="10.00">_diagnostic_fields</text>
</a>
</g>
</g>
<!-- Node78&#45;&gt;Node79 -->
<g id="edge5" class="edge"><title>Node78&#45;&gt;Node79</title>
<path fill="none" stroke="midnightblue" d="M647.345,-17.1824C655.792,-17.0307 664.379,-16.8764 672.755,-16.726"/>
<polygon fill="midnightblue" stroke="midnightblue" points="647.071,-13.6867 637.136,-17.3658 647.197,-20.6856 647.071,-13.6867"/>
</g>
<!-- Node80 -->
<g id="node7" class="node"><title>Node80</title>
<g id="a_node7"><a xlink:href="namespacemom__lateral__mixing__coeffs.html#af206bc656869b4fc27d4d7e8a15d438e" target="_top" xlink:title="Calculates and stores the non&#45;dimensional resolution functions. ">
<polygon fill="white" stroke="black" points="690,-50 690,-91 794,-91 794,-50 690,-50"/>
<text text-anchor="start" x="698" y="-79" font-family="Helvetica,sans-Serif" font-size="10.00">mom_lateral_mixing</text>
<text text-anchor="start" x="698" y="-68" font-family="Helvetica,sans-Serif" font-size="10.00">_coeffs::calc_resoln</text>
<text text-anchor="middle" x="742" y="-57" font-family="Helvetica,sans-Serif" font-size="10.00">_function</text>
</a>
</g>
</g>
<!-- Node78&#45;&gt;Node80 -->
<g id="edge6" class="edge"><title>Node78&#45;&gt;Node80</title>
<path fill="none" stroke="midnightblue" d="M631.962,-36.5481C650.812,-42.4176 671.583,-48.8852 689.895,-54.587"/>
<polygon fill="midnightblue" stroke="midnightblue" points="632.892,-33.1719 622.303,-33.5406 630.811,-39.8554 632.892,-33.1719"/>
</g>
<!-- Node81 -->
<g id="node8" class="node"><title>Node81</title>
<g id="a_node8"><a xlink:href="namespacemom.html#a4c8332b095c6d295084089aa6b3b678a" target="_top" xlink:title="This subroutine orchestrates the time stepping of MOM. The adiabatic dynamics are stepped by calls to...">
<polygon fill="white" stroke="black" points="855.5,-93 855.5,-112 945.5,-112 945.5,-93 855.5,-93"/>
<text text-anchor="middle" x="900.5" y="-100" font-family="Helvetica,sans-Serif" font-size="10.00">mom::step_mom</text>
</a>
</g>
</g>
<!-- Node80&#45;&gt;Node81 -->
<g id="edge7" class="edge"><title>Node80&#45;&gt;Node81</title>
<path fill="none" stroke="midnightblue" d="M804.17,-83.0076C821.299,-86.51 839.576,-90.2471 855.496,-93.5024"/>
<polygon fill="midnightblue" stroke="midnightblue" points="804.742,-79.5523 794.244,-80.978 803.34,-86.4104 804.742,-79.5523"/>
</g>
<!-- Node83 -->
<g id="node10" class="node"><title>Node83</title>
<g id="a_node10"><a xlink:href="namespacemom.html#ad56e17a755c7078ccea29ccbae4d5803" target="_top" xlink:title="step_offline is the main driver for running tracers offline in MOM6. This has been primarily develope...">
<polygon fill="white" stroke="black" points="853,-55 853,-74 948,-74 948,-55 853,-55"/>
<text text-anchor="middle" x="900.5" y="-62" font-family="Helvetica,sans-Serif" font-size="10.00">mom::step_offline</text>
</a>
</g>
</g>
<!-- Node80&#45;&gt;Node83 -->
<g id="edge9" class="edge"><title>Node80&#45;&gt;Node83</title>
<path fill="none" stroke="midnightblue" d="M804.633,-68.1371C820.704,-67.5209 837.755,-66.8672 852.902,-66.2865"/>
<polygon fill="midnightblue" stroke="midnightblue" points="804.102,-64.6547 794.244,-68.5354 804.371,-71.6496 804.102,-64.6547"/>
</g>
<!-- Node82 -->
<g id="node9" class="node"><title>Node82</title>
<g id="a_node9"><a xlink:href="MOM__driver_8F90.html#a08fffeb2d8e8acbf9ed4609be6d258c6" target="_top" xlink:title="mom_main">
<polygon fill="white" stroke="black" points="1024.5,-96 1024.5,-115 1089.5,-115 1089.5,-96 1024.5,-96"/>
<text text-anchor="middle" x="1057" y="-103" font-family="Helvetica,sans-Serif" font-size="10.00">mom_main</text>
</a>
</g>
</g>
<!-- Node81&#45;&gt;Node82 -->
<g id="edge8" class="edge"><title>Node81&#45;&gt;Node82</title>
<path fill="none" stroke="midnightblue" d="M956.063,-103.559C978.978,-104.004 1004.81,-104.506 1024.48,-104.888"/>
<polygon fill="midnightblue" stroke="midnightblue" points="955.84,-100.055 945.773,-103.36 955.704,-107.053 955.84,-100.055"/>
</g>
<!-- Node83&#45;&gt;Node82 -->
<g id="edge10" class="edge"><title>Node83&#45;&gt;Node82</title>
<path fill="none" stroke="midnightblue" d="M947.253,-76.6415C972.053,-83.2228 1002.08,-91.1909 1024.29,-97.0855"/>
<polygon fill="midnightblue" stroke="midnightblue" points="947.897,-73.1914 937.334,-74.0093 946.101,-79.9572 947.897,-73.1914"/>
</g>
<!-- Node84 -->
<g id="node11" class="node"><title>Node84</title>
<g id="a_node11"><a xlink:href="namespaceocean__model__mod.html#ac9dc1795fc4799d6682f462857b42d62" target="_top" xlink:title="ocean_model_mod::update\l_ocean_model">
<polygon fill="white" stroke="black" points="990,-46.5 990,-76.5 1124,-76.5 1124,-46.5 990,-46.5"/>
<text text-anchor="start" x="998" y="-64.5" font-family="Helvetica,sans-Serif" font-size="10.00">ocean_model_mod::update</text>
<text text-anchor="middle" x="1057" y="-53.5" font-family="Helvetica,sans-Serif" font-size="10.00">_ocean_model</text>
</a>
</g>
</g>
<!-- Node83&#45;&gt;Node84 -->
<g id="edge11" class="edge"><title>Node83&#45;&gt;Node84</title>
<path fill="none" stroke="midnightblue" d="M958.296,-63.3972C968.519,-63.1987 979.257,-62.9902 989.721,-62.787"/>
<polygon fill="midnightblue" stroke="midnightblue" points="958.205,-59.8982 948.274,-63.5918 958.34,-66.8969 958.205,-59.8982"/>
</g>
<!-- Node87 -->
<g id="node14" class="node"><title>Node87</title>
<g id="a_node14"><a xlink:href="namespacemom__state__initialization.html#ac29cd3c6b5de2b36b9690d800ac98a09" target="_top" xlink:title="Adjust the layer thicknesses by cutting away the top of each model column at the depth where the hydr...">
<polygon fill="white" stroke="black" points="512,-107.5 512,-137.5 634,-137.5 634,-107.5 512,-107.5"/>
<text text-anchor="start" x="520" y="-125.5" font-family="Helvetica,sans-Serif" font-size="10.00">mom_state_initialization</text>
<text text-anchor="middle" x="573" y="-114.5" font-family="Helvetica,sans-Serif" font-size="10.00">::trim_for_ice</text>
</a>
</g>
</g>
<!-- Node86&#45;&gt;Node87 -->
<g id="edge14" class="edge"><title>Node86&#45;&gt;Node87</title>
<path fill="none" stroke="midnightblue" d="M474.144,-144.634C486.713,-141.791 499.708,-138.852 511.961,-136.08"/>
<polygon fill="midnightblue" stroke="midnightblue" points="473.159,-141.268 464.177,-146.888 474.703,-148.096 473.159,-141.268"/>
</g>
<!-- Node90 -->
<g id="node17" class="node"><title>Node90</title>
<g id="a_node17"><a xlink:href="namespacemom__state__initialization.html#a5c77bf2b0ea9d28e28b661a2a42d3f88" target="_top" xlink:title="Run simple unit tests. ">
<polygon fill="white" stroke="black" points="512,-156.5 512,-186.5 634,-186.5 634,-156.5 512,-156.5"/>
<text text-anchor="start" x="520" y="-174.5" font-family="Helvetica,sans-Serif" font-size="10.00">mom_state_initialization</text>
<text text-anchor="middle" x="573" y="-163.5" font-family="Helvetica,sans-Serif" font-size="10.00">::mom_state_init_tests</text>
</a>
</g>
</g>
<!-- Node86&#45;&gt;Node90 -->
<g id="edge18" class="edge"><title>Node86&#45;&gt;Node90</title>
<path fill="none" stroke="midnightblue" d="M474.517,-165.117C486.97,-165.933 499.829,-166.775 511.961,-167.569"/>
<polygon fill="midnightblue" stroke="midnightblue" points="474.385,-161.601 464.177,-164.44 473.927,-168.586 474.385,-161.601"/>
</g>
<!-- Node88 -->
<g id="node15" class="node"><title>Node88</title>
<g id="a_node15"><a xlink:href="namespacemom__state__initialization.html#af4e854627c6572332ba3fd895f169321" target="_top" xlink:title="mom_state_initialization\l::mom_initialize_state">
<polygon fill="white" stroke="black" points="681,-120.5 681,-150.5 803,-150.5 803,-120.5 681,-120.5"/>
<text text-anchor="start" x="689" y="-138.5" font-family="Helvetica,sans-Serif" font-size="10.00">mom_state_initialization</text>
<text text-anchor="middle" x="742" y="-127.5" font-family="Helvetica,sans-Serif" font-size="10.00">::mom_initialize_state</text>
</a>
</g>
</g>
<!-- Node87&#45;&gt;Node88 -->
<g id="edge15" class="edge"><title>Node87&#45;&gt;Node88</title>
<path fill="none" stroke="midnightblue" d="M644.359,-127.977C656.478,-128.92 668.977,-129.893 680.798,-130.814"/>
<polygon fill="midnightblue" stroke="midnightblue" points="644.532,-124.48 634.291,-127.193 643.989,-131.459 644.532,-124.48"/>
</g>
<!-- Node89 -->
<g id="node16" class="node"><title>Node89</title>
<g id="a_node16"><a xlink:href="namespacemom.html#a0be2869fef30e1e0604facfe1b41555d" target="_top" xlink:title="This subroutine initializes MOM. ">
<polygon fill="white" stroke="black" points="847,-131 847,-150 954,-150 954,-131 847,-131"/>
<text text-anchor="middle" x="900.5" y="-138" font-family="Helvetica,sans-Serif" font-size="10.00">mom::initialize_mom</text>
</a>
</g>
</g>
<!-- Node88&#45;&gt;Node89 -->
<g id="edge16" class="edge"><title>Node88&#45;&gt;Node89</title>
<path fill="none" stroke="midnightblue" d="M813.297,-137.746C824.542,-138.105 836.009,-138.472 846.755,-138.815"/>
<polygon fill="midnightblue" stroke="midnightblue" points="813.166,-134.24 803.059,-137.419 812.943,-141.236 813.166,-134.24"/>
</g>
<!-- Node89&#45;&gt;Node82 -->
<g id="edge17" class="edge"><title>Node89&#45;&gt;Node82</title>
<path fill="none" stroke="midnightblue" d="M953.504,-128.719C976.902,-123.419 1003.77,-117.332 1024.13,-112.72"/>
<polygon fill="midnightblue" stroke="midnightblue" points="952.697,-125.313 943.718,-130.936 954.244,-132.14 952.697,-125.313"/>
</g>
<!-- Node92 -->
<g id="node19" class="node"><title>Node92</title>
<g id="a_node19"><a xlink:href="namespacemom__remapping.html#a5849f564453d5ed76fb4feffd41eca26" target="_top" xlink:title="Runs unit tests on remapping functions. Should only be called from a single/root thread Returns True ...">
<polygon fill="white" stroke="black" points="333,-200.5 333,-230.5 473,-230.5 473,-200.5 333,-200.5"/>
<text text-anchor="start" x="341" y="-218.5" font-family="Helvetica,sans-Serif" font-size="10.00">mom_remapping::remapping</text>
<text text-anchor="middle" x="403" y="-207.5" font-family="Helvetica,sans-Serif" font-size="10.00">_unit_tests</text>
</a>
</g>
</g>
<!-- Node91&#45;&gt;Node92 -->
<g id="edge20" class="edge"><title>Node91&#45;&gt;Node92</title>
<path fill="none" stroke="midnightblue" d="M307.035,-198.581C315.625,-200.111 324.319,-201.66 332.779,-203.168"/>
<polygon fill="midnightblue" stroke="midnightblue" points="307.478,-195.105 297.019,-196.797 306.25,-201.996 307.478,-195.105"/>
</g>
<!-- Node93 -->
<g id="node20" class="node"><title>Node93</title>
<g id="a_node20"><a xlink:href="namespacemom__unit__tests.html#a71f3a2080872634c14a25a9411b59fe0" target="_top" xlink:title="Calls unit tests for other modules. Note that if a unit test returns true, a FATAL error is triggered...">
<polygon fill="white" stroke="black" points="688,-184.5 688,-214.5 796,-214.5 796,-184.5 688,-184.5"/>
<text text-anchor="start" x="696" y="-202.5" font-family="Helvetica,sans-Serif" font-size="10.00">mom_unit_tests::unit</text>
<text text-anchor="middle" x="742" y="-191.5" font-family="Helvetica,sans-Serif" font-size="10.00">_tests</text>
</a>
</g>
</g>
<!-- Node92&#45;&gt;Node93 -->
<g id="edge21" class="edge"><title>Node92&#45;&gt;Node93</title>
<path fill="none" stroke="midnightblue" d="M483.315,-211.734C546.38,-208.74 632.859,-204.634 687.839,-202.024"/>
<polygon fill="midnightblue" stroke="midnightblue" points="482.833,-208.253 473.01,-212.224 483.165,-215.245 482.833,-208.253"/>
</g>
<!-- Node93&#45;&gt;Node89 -->
<g id="edge22" class="edge"><title>Node93&#45;&gt;Node89</title>
<path fill="none" stroke="midnightblue" d="M792.584,-180.807C819.607,-170.62 851.922,-158.437 873.901,-150.151"/>
<polygon fill="midnightblue" stroke="midnightblue" points="791.019,-177.656 782.896,-184.459 793.488,-184.206 791.019,-177.656"/>
</g>
</g>
</svg>
