<?xml version="1.0" encoding="UTF-8" standalone="no"?>
<!DOCTYPE svg PUBLIC "-//W3C//DTD SVG 1.1//EN"
 "http://www.w3.org/Graphics/SVG/1.1/DTD/svg11.dtd">
<!-- Generated by graphviz version 2.38.0 (20140413.2041)
 -->
<!-- Title: mom_diapyc_energy_req::diapyc_energy_req_test Pages: 1 -->
<svg width="885pt" height="222pt"
 viewBox="0.00 0.00 885.00 222.14" xmlns="http://www.w3.org/2000/svg" xmlns:xlink="http://www.w3.org/1999/xlink">
<g id="graph0" class="graph" transform="scale(1 1) rotate(0) translate(4 218.142)">
<title>mom_diapyc_energy_req::diapyc_energy_req_test</title>
<polygon fill="white" stroke="none" points="-4,4 -4,-218.142 881,-218.142 881,4 -4,4"/>
<!-- Node29 -->
<g id="node1" class="node"><title>Node29</title>
<polygon fill="#bfbfbf" stroke="black" points="0,-23 0,-53 126,-53 126,-23 0,-23"/>
<text text-anchor="start" x="8" y="-41" font-family="Helvetica,sans-Serif" font-size="10.00">mom_diapyc_energy_req</text>
<text text-anchor="middle" x="63" y="-30" font-family="Helvetica,sans-Serif" font-size="10.00">::diapyc_energy_req_test</text>
</g>
<!-- Node30 -->
<g id="node2" class="node"><title>Node30</title>
<g id="a_node2"><a xlink:href="namespacemom__diapyc__energy__req.html#ae781d0079acfadcd996aaff8d63957da" target="_top" xlink:title="This subroutine uses a substantially refactored tridiagonal equation for diapycnal mixing of temperat...">
<polygon fill="white" stroke="black" points="162,-116 162,-146 290,-146 290,-116 162,-116"/>
<text text-anchor="start" x="170" y="-134" font-family="Helvetica,sans-Serif" font-size="10.00">mom_diapyc_energy_req</text>
<text text-anchor="middle" x="226" y="-123" font-family="Helvetica,sans-Serif" font-size="10.00">::diapyc_energy_req_calc</text>
</a>
</g>
</g>
<!-- Node29&#45;&gt;Node30 -->
<g id="edge1" class="edge"><title>Node29&#45;&gt;Node30</title>
<path fill="none" stroke="midnightblue" d="M90.2258,-53.149C117.358,-68.8217 159.887,-93.3883 189.903,-110.727"/>
<polygon fill="midnightblue" stroke="midnightblue" points="188.376,-113.886 198.785,-115.857 191.877,-107.825 188.376,-113.886"/>
</g>
<!-- Node32 -->
<g id="node4" class="node"><title>Node32</title>
<g id="a_node4"><a xlink:href="namespacemom__error__handler.html#a460cfb79a06c29fc249952c2a3710d67" target="_top" xlink:title="mom_error_handler::\lmom_error">
<polygon fill="white" stroke="black" points="629,-48 629,-78 735,-78 735,-48 629,-48"/>
<text text-anchor="start" x="637" y="-66" font-family="Helvetica,sans-Serif" font-size="10.00">mom_error_handler::</text>
<text text-anchor="middle" x="682" y="-55" font-family="Helvetica,sans-Serif" font-size="10.00">mom_error</text>
</a>
</g>
</g>
<!-- Node29&#45;&gt;Node32 -->
<g id="edge11" class="edge"><title>Node29&#45;&gt;Node32</title>
<path fill="none" stroke="midnightblue" d="M126.327,-39.589C225.272,-42.2581 424.363,-48.2248 593,-57 601.354,-57.4347 610.149,-57.957 618.817,-58.5099"/>
<polygon fill="midnightblue" stroke="midnightblue" points="618.693,-62.0092 628.9,-59.1694 619.15,-55.0241 618.693,-62.0092"/>
</g>
<!-- Node33 -->
<g id="node5" class="node"><title>Node33</title>
<g id="a_node5"><a xlink:href="namespacemom__error__handler.html#ad5f00a53059c72fe2332d1436c80ca71" target="_top" xlink:title="mom_error_handler::\lis_root_pe">
<polygon fill="white" stroke="black" points="771,-16 771,-46 877,-46 877,-16 771,-16"/>
<text text-anchor="start" x="779" y="-34" font-family="Helvetica,sans-Serif" font-size="10.00">mom_error_handler::</text>
<text text-anchor="middle" x="824" y="-23" font-family="Helvetica,sans-Serif" font-size="10.00">is_root_pe</text>
</a>
</g>
</g>
<!-- Node29&#45;&gt;Node33 -->
<g id="edge10" class="edge"><title>Node29&#45;&gt;Node33</title>
<path fill="none" stroke="midnightblue" d="M126.065,-26.3405C191.003,-15.1702 296.031,-0 387.5,-0 387.5,-0 387.5,-0 541,-0 617.084,-0 704.027,-11.2875 761.021,-20.2404"/>
<polygon fill="midnightblue" stroke="midnightblue" points="760.528,-23.7059 770.954,-21.8248 761.63,-16.7932 760.528,-23.7059"/>
</g>
<!-- Node31 -->
<g id="node3" class="node"><title>Node31</title>
<g id="a_node3"><a xlink:href="namespacemom__eos.html#ab6ed65d2df376be9bbea2050f50fe46e" target="_top" xlink:title="Calls the appropriate subroutine to calculate specific volume derivatives for an array. ">
<polygon fill="white" stroke="black" points="487.5,-162 487.5,-192 592.5,-192 592.5,-162 487.5,-162"/>
<text text-anchor="start" x="495.5" y="-180" font-family="Helvetica,sans-Serif" font-size="10.00">mom_eos::calculate</text>
<text text-anchor="middle" x="540" y="-169" font-family="Helvetica,sans-Serif" font-size="10.00">_specific_vol_derivs</text>
</a>
</g>
</g>
<!-- Node30&#45;&gt;Node31 -->
<g id="edge2" class="edge"><title>Node30&#45;&gt;Node31</title>
<path fill="none" stroke="midnightblue" d="M240.979,-146.228C258.705,-164.296 291.18,-193.425 326,-205 380.786,-223.213 447.194,-209.163 491.138,-195.208"/>
<polygon fill="midnightblue" stroke="midnightblue" points="492.305,-198.509 500.709,-192.057 490.116,-191.86 492.305,-198.509"/>
</g>
<!-- Node34 -->
<g id="node6" class="node"><title>Node34</title>
<g id="a_node6"><a xlink:href="namespacemom__diapyc__energy__req.html#a7a3fbef0d9b211d5993f2ce89f3cf93e" target="_top" xlink:title="This subroutine calculates the change in potential energy and or derivatives for several changes in a...">
<polygon fill="white" stroke="black" points="326,-165 326,-195 451,-195 451,-165 326,-165"/>
<text text-anchor="start" x="334" y="-183" font-family="Helvetica,sans-Serif" font-size="10.00">mom_diapyc_energy_req</text>
<text text-anchor="middle" x="388.5" y="-172" font-family="Helvetica,sans-Serif" font-size="10.00">::find_pe_chg</text>
</a>
</g>
</g>
<!-- Node30&#45;&gt;Node34 -->
<g id="edge5" class="edge"><title>Node30&#45;&gt;Node34</title>
<path fill="none" stroke="midnightblue" d="M276.465,-146.101C292.865,-151.108 311.287,-156.732 328.341,-161.939"/>
<polygon fill="midnightblue" stroke="midnightblue" points="327.612,-165.376 338.198,-164.948 329.656,-158.681 327.612,-165.376"/>
</g>
<!-- Node35 -->
<g id="node7" class="node"><title>Node35</title>
<g id="a_node7"><a xlink:href="namespacemom__diapyc__energy__req.html#ab30595bc6f14a3b356519645ed7b8828" target="_top" xlink:title="This subroutine calculates the change in potential energy and or derivatives for several changes in a...">
<polygon fill="white" stroke="black" points="326,-116 326,-146 451,-146 451,-116 326,-116"/>
<text text-anchor="start" x="334" y="-134" font-family="Helvetica,sans-Serif" font-size="10.00">mom_diapyc_energy_req</text>
<text text-anchor="middle" x="388.5" y="-123" font-family="Helvetica,sans-Serif" font-size="10.00">::find_pe_chg_orig</text>
</a>
</g>
</g>
<!-- Node30&#45;&gt;Node35 -->
<g id="edge6" class="edge"><title>Node30&#45;&gt;Node35</title>
<path fill="none" stroke="midnightblue" d="M290.434,-131C298.719,-131 307.254,-131 315.665,-131"/>
<polygon fill="midnightblue" stroke="midnightblue" points="315.837,-134.5 325.837,-131 315.837,-127.5 315.837,-134.5"/>
</g>
<!-- Node36 -->
<g id="node8" class="node"><title>Node36</title>
<g id="a_node8"><a xlink:href="namespacemom__diag__mediator.html#ab5b75b68fa1742ce312c371f4b2c6ac1" target="_top" xlink:title="mom_diag_mediator::\lpost_data_1d_k">
<polygon fill="white" stroke="black" points="333.5,-67 333.5,-97 443.5,-97 443.5,-67 333.5,-67"/>
<text text-anchor="start" x="341.5" y="-85" font-family="Helvetica,sans-Serif" font-size="10.00">mom_diag_mediator::</text>
<text text-anchor="middle" x="388.5" y="-74" font-family="Helvetica,sans-Serif" font-size="10.00">post_data_1d_k</text>
</a>
</g>
</g>
<!-- Node30&#45;&gt;Node36 -->
<g id="edge7" class="edge"><title>Node30&#45;&gt;Node36</title>
<path fill="none" stroke="midnightblue" d="M276.465,-115.899C292.865,-110.892 311.287,-105.268 328.341,-100.061"/>
<polygon fill="midnightblue" stroke="midnightblue" points="329.656,-103.319 338.198,-97.0516 327.612,-96.6241 329.656,-103.319"/>
</g>
<!-- Node31&#45;&gt;Node32 -->
<g id="edge3" class="edge"><title>Node31&#45;&gt;Node32</title>
<path fill="none" stroke="midnightblue" d="M559.591,-161.862C583.858,-142.102 626.494,-107.383 654.237,-84.7925"/>
<polygon fill="midnightblue" stroke="midnightblue" points="656.788,-87.2293 662.332,-78.2009 652.368,-81.8012 656.788,-87.2293"/>
</g>
<!-- Node32&#45;&gt;Node33 -->
<g id="edge4" class="edge"><title>Node32&#45;&gt;Node33</title>
<path fill="none" stroke="midnightblue" d="M735.131,-51.0844C743.512,-49.1686 752.26,-47.1691 760.849,-45.206"/>
<polygon fill="midnightblue" stroke="midnightblue" points="761.857,-48.5659 770.826,-42.9256 760.297,-41.7419 761.857,-48.5659"/>
</g>
<!-- Node37 -->
<g id="node9" class="node"><title>Node37</title>
<g id="a_node9"><a xlink:href="namespacemom__error__handler.html#a33bcd190d460095104954f2e654f9fe6" target="_top" xlink:title="Issues a FATAL error if the assertion fails, i.e. the first argument is false. ">
<polygon fill="white" stroke="black" points="487,-67 487,-97 593,-97 593,-67 487,-67"/>
<text text-anchor="start" x="495" y="-85" font-family="Helvetica,sans-Serif" font-size="10.00">mom_error_handler::</text>
<text text-anchor="middle" x="540" y="-74" font-family="Helvetica,sans-Serif" font-size="10.00">assert</text>
</a>
</g>
</g>
<!-- Node36&#45;&gt;Node37 -->
<g id="edge8" class="edge"><title>Node36&#45;&gt;Node37</title>
<path fill="none" stroke="midnightblue" d="M443.896,-82C454.525,-82 465.748,-82 476.613,-82"/>
<polygon fill="midnightblue" stroke="midnightblue" points="476.889,-85.5001 486.889,-82 476.889,-78.5001 476.889,-85.5001"/>
</g>
<!-- Node37&#45;&gt;Node32 -->
<g id="edge9" class="edge"><title>Node37&#45;&gt;Node32</title>
<path fill="none" stroke="midnightblue" d="M593.131,-74.9251C601.512,-73.7876 610.26,-72.6004 618.849,-71.4348"/>
<polygon fill="midnightblue" stroke="midnightblue" points="619.387,-74.8939 628.826,-70.0808 618.446,-67.9575 619.387,-74.8939"/>
</g>
</g>
</svg>
