<?xml version="1.0" encoding="UTF-8" standalone="no"?>
<!DOCTYPE svg PUBLIC "-//W3C//DTD SVG 1.1//EN"
 "http://www.w3.org/Graphics/SVG/1.1/DTD/svg11.dtd">
<!-- Generated by graphviz version 2.38.0 (20140413.2041)
 -->
<!-- Title: mom_open_boundary::radiation_open_bdry_conds Pages: 1 -->
<svg width="295pt" height="100pt"
 viewBox="0.00 0.00 295.00 99.50" xmlns="http://www.w3.org/2000/svg" xmlns:xlink="http://www.w3.org/1999/xlink">
<g id="graph0" class="graph" transform="scale(1 1) rotate(0) translate(4 95.5)">
<title>mom_open_boundary::radiation_open_bdry_conds</title>
<polygon fill="white" stroke="none" points="-4,4 -4,-95.5 291,-95.5 291,4 -4,4"/>
<!-- Node92 -->
<g id="node1" class="node"><title>Node92</title>
<polygon fill="#bfbfbf" stroke="black" points="0,-33 0,-63 135,-63 135,-33 0,-33"/>
<text text-anchor="start" x="8" y="-51" font-family="Helvetica,sans-Serif" font-size="10.00">mom_open_boundary::</text>
<text text-anchor="middle" x="67.5" y="-40" font-family="Helvetica,sans-Serif" font-size="10.00">radiation_open_bdry_conds</text>
</g>
<!-- Node93 -->
<g id="node2" class="node"><title>Node93</title>
<g id="a_node2"><a xlink:href="namespacemom__open__boundary.html#a151df14c3b8b1094ddf8f44c86493fd5" target="_top" xlink:title="Calculate the tangential gradient of the normal flow at the boundary q&#45;points. ">
<polygon fill="white" stroke="black" points="171,-61 171,-91 287,-91 287,-61 171,-61"/>
<text text-anchor="start" x="179" y="-79" font-family="Helvetica,sans-Serif" font-size="10.00">mom_open_boundary::</text>
<text text-anchor="middle" x="229" y="-68" font-family="Helvetica,sans-Serif" font-size="10.00">gradient_at_q_points</text>
</a>
</g>
</g>
<!-- Node92&#45;&gt;Node93 -->
<g id="edge1" class="edge"><title>Node92&#45;&gt;Node93</title>
<path fill="none" stroke="midnightblue" d="M135.218,-59.7123C143.593,-61.1825 152.166,-62.6874 160.552,-64.1596"/>
<polygon fill="midnightblue" stroke="midnightblue" points="160.209,-67.6528 170.663,-65.9346 161.419,-60.7582 160.209,-67.6528"/>
</g>
<!-- Node94 -->
<g id="node3" class="node"><title>Node94</title>
<g id="a_node3"><a xlink:href="namespacemom__open__boundary.html#a11acc9ede6f2b975bfc6b849a2603b46" target="_top" xlink:title="Applies OBC values stored in segments to 3d u,v fields. ">
<polygon fill="white" stroke="black" points="171,-0.5 171,-41.5 287,-41.5 287,-0.5 171,-0.5"/>
<text text-anchor="start" x="179" y="-29.5" font-family="Helvetica,sans-Serif" font-size="10.00">mom_open_boundary::</text>
<text text-anchor="start" x="179" y="-18.5" font-family="Helvetica,sans-Serif" font-size="10.00">open_boundary_apply</text>
<text text-anchor="middle" x="229" y="-7.5" font-family="Helvetica,sans-Serif" font-size="10.00">_normal_flow</text>
</a>
</g>
</g>
<!-- Node92&#45;&gt;Node94 -->
<g id="edge2" class="edge"><title>Node92&#45;&gt;Node94</title>
<path fill="none" stroke="midnightblue" d="M135.218,-36.706C143.593,-35.2883 152.166,-33.8372 160.552,-32.4176"/>
<polygon fill="midnightblue" stroke="midnightblue" points="161.388,-35.8259 170.663,-30.7059 160.219,-28.9241 161.388,-35.8259"/>
</g>
</g>
</svg>
