<?xml version="1.0" encoding="UTF-8" standalone="no"?>
<!DOCTYPE svg PUBLIC "-//W3C//DTD SVG 1.1//EN"
 "http://www.w3.org/Graphics/SVG/1.1/DTD/svg11.dtd">
<!-- Generated by graphviz version 2.38.0 (20140413.2041)
 -->
<!-- Title: mom_eos_wright::int_spec_vol_dp_wright Pages: 1 -->
<!--zoomable 186 -->
<svg id="main" version="1.1" xmlns="http://www.w3.org/2000/svg" xmlns:xlink="http://www.w3.org/1999/xlink" xml:space="preserve" onload="init(evt)">
<style type="text/css"><![CDATA[
.edge:hover path { stroke: red; }
.edge:hover polygon { stroke: red; fill: red; }
]]></style>
<script type="text/javascript"><![CDATA[
var edges = document.getElementsByTagName('g');
if (edges && edges.length) {
  for (var i=0;i<edges.length;i++) {
    if (edges[i].id.substr(0,4)=='edge') {
      edges[i].setAttribute('class','edge');
    }
  }
}
]]></script>
        <defs>
                <circle id="rim" cx="0" cy="0" r="7"/>
                <circle id="rim2" cx="0" cy="0" r="3.5"/>
                <g id="zoomPlus">
                        <use xlink:href="#rim" fill="#404040">
                                <set attributeName="fill" to="#808080" begin="zoomplus.mouseover" end="zoomplus.mouseout"/>
                        </use>
                        <path d="M-4,0h8M0,-4v8" fill="none" stroke="white" stroke-width="1.5" pointer-events="none"/>
                </g>
                <g id="zoomMin">
                        <use xlink:href="#rim" fill="#404040">
                                <set attributeName="fill" to="#808080" begin="zoomminus.mouseover" end="zoomminus.mouseout"/>
                        </use>
                        <path d="M-4,0h8" fill="none" stroke="white" stroke-width="1.5" pointer-events="none"/>
                </g>
                <g id="dirArrow">
                        <path fill="none" stroke="white" stroke-width="1.5" d="M0,-3.0v7 M-2.5,-0.5L0,-3.0L2.5,-0.5"/>
                </g>
               <g id="resetDef">
                       <use xlink:href="#rim2" fill="#404040">
                               <set attributeName="fill" to="#808080" begin="reset.mouseover" end="reset.mouseout"/>
                       </use>
               </g>
        </defs>

<script type="text/javascript">
var viewWidth = 861;
var viewHeight = 186;
var sectionId = 'dynsection-3';
</script>
<script xlink:href="svgpan.js"/>
<svg id="graph" class="graph">
<g id="viewport">
<title>mom_eos_wright::int_spec_vol_dp_wright</title>
<polygon fill="white" stroke="none" points="-4,4 -4,-182 857,-182 857,4 -4,4"/>
<!-- Node16 -->
<g id="node1" class="node"><title>Node16</title>
<polygon fill="#bfbfbf" stroke="black" points="0,-73.5 0,-103.5 108,-103.5 108,-73.5 0,-73.5"/>
<text text-anchor="start" x="8" y="-91.5" font-family="Helvetica,sans-Serif" font-size="10.00">mom_eos_wright::int</text>
<text text-anchor="middle" x="54" y="-80.5" font-family="Helvetica,sans-Serif" font-size="10.00">_spec_vol_dp_wright</text>
</g>
<!-- Node17 -->
<g id="node2" class="node"><title>Node17</title>
<g id="a_node2"><a xlink:href="namespacemom__eos.html#a0670589d5ab62b8925545cee7eb33680" target="_top" xlink:title="Calls the appropriate subroutine to alculate analytical and nearly&#45;analytical integrals in pressure a...">
<polygon fill="white" stroke="black" points="144,-73.5 144,-103.5 259,-103.5 259,-73.5 144,-73.5"/>
<text text-anchor="start" x="152" y="-91.5" font-family="Helvetica,sans-Serif" font-size="10.00">mom_eos::int_specific</text>
<text text-anchor="middle" x="201.5" y="-80.5" font-family="Helvetica,sans-Serif" font-size="10.00">_vol_dp</text>
</a>
</g>
</g>
<!-- Node16&#45;&gt;Node17 -->
<g id="edge1" class="edge"><title>Node16&#45;&gt;Node17</title>
<path fill="none" stroke="midnightblue" d="M118.485,-88.5C126.884,-88.5 135.451,-88.5 143.728,-88.5"/>
<polygon fill="midnightblue" stroke="midnightblue" points="118.353,-85.0001 108.353,-88.5 118.353,-92.0001 118.353,-85.0001"/>
</g>
<!-- Node18 -->
<g id="node3" class="node"><title>Node18</title>
<g id="a_node3"><a xlink:href="namespacemom__state__initialization.html#a490293ea820ae030d11f659c2ee8c85f" target="_top" xlink:title="mom_state_initialization\l::convert_thickness">
<polygon fill="white" stroke="black" points="312,-147.5 312,-177.5 434,-177.5 434,-147.5 312,-147.5"/>
<text text-anchor="start" x="320" y="-165.5" font-family="Helvetica,sans-Serif" font-size="10.00">mom_state_initialization</text>
<text text-anchor="middle" x="373" y="-154.5" font-family="Helvetica,sans-Serif" font-size="10.00">::convert_thickness</text>
</a>
</g>
</g>
<!-- Node17&#45;&gt;Node18 -->
<g id="edge2" class="edge"><title>Node17&#45;&gt;Node18</title>
<path fill="none" stroke="midnightblue" d="M236.434,-108.892C253.598,-118.672 274.987,-130.066 295,-138.5 302.613,-141.708 310.807,-144.713 318.909,-147.437"/>
<polygon fill="midnightblue" stroke="midnightblue" points="237.778,-105.626 227.369,-103.653 234.276,-111.687 237.778,-105.626"/>
</g>
<!-- Node22 -->
<g id="node7" class="node"><title>Node22</title>
<g id="a_node7"><a xlink:href="namespacemom__interface__heights.html#afbd50f85cffbd290c630c8241f3fc9df" target="_top" xlink:title="mom_interface_heights\l::find_eta_2d">
<polygon fill="white" stroke="black" points="314,-98.5 314,-128.5 432,-128.5 432,-98.5 314,-98.5"/>
<text text-anchor="start" x="322" y="-116.5" font-family="Helvetica,sans-Serif" font-size="10.00">mom_interface_heights</text>
<text text-anchor="middle" x="373" y="-105.5" font-family="Helvetica,sans-Serif" font-size="10.00">::find_eta_2d</text>
</a>
</g>
</g>
<!-- Node17&#45;&gt;Node22 -->
<g id="edge6" class="edge"><title>Node17&#45;&gt;Node22</title>
<path fill="none" stroke="midnightblue" d="M269.424,-98.3707C284.089,-100.534 299.5,-102.807 313.792,-104.915"/>
<polygon fill="midnightblue" stroke="midnightblue" points="269.816,-94.8909 259.413,-96.8942 268.795,-101.816 269.816,-94.8909"/>
</g>
<!-- Node23 -->
<g id="node8" class="node"><title>Node23</title>
<g id="a_node8"><a xlink:href="namespacemom__interface__heights.html#a914e07fc2e023e8a0f31fd840ad19f13" target="_top" xlink:title="mom_interface_heights\l::find_eta_3d">
<polygon fill="white" stroke="black" points="314,-49.5 314,-79.5 432,-79.5 432,-49.5 314,-49.5"/>
<text text-anchor="start" x="322" y="-67.5" font-family="Helvetica,sans-Serif" font-size="10.00">mom_interface_heights</text>
<text text-anchor="middle" x="373" y="-56.5" font-family="Helvetica,sans-Serif" font-size="10.00">::find_eta_3d</text>
</a>
</g>
</g>
<!-- Node17&#45;&gt;Node23 -->
<g id="edge7" class="edge"><title>Node17&#45;&gt;Node23</title>
<path fill="none" stroke="midnightblue" d="M269.424,-79.0241C284.089,-76.9476 299.5,-74.7654 313.792,-72.7419"/>
<polygon fill="midnightblue" stroke="midnightblue" points="268.823,-75.5741 259.413,-80.4416 269.805,-82.505 268.823,-75.5741"/>
</g>
<!-- Node24 -->
<g id="node9" class="node"><title>Node24</title>
<g id="a_node9"><a xlink:href="namespacemom__pressureforce__mont.html#af536642cd29fc7ad6465c4f277ff0764" target="_top" xlink:title="Non&#45;Boussinesq Montgomery&#45;potential form of pressure gradient. ">
<polygon fill="white" stroke="black" points="295,-0.5 295,-30.5 451,-30.5 451,-0.5 295,-0.5"/>
<text text-anchor="start" x="303" y="-18.5" font-family="Helvetica,sans-Serif" font-size="10.00">mom_pressureforce_mont</text>
<text text-anchor="middle" x="373" y="-7.5" font-family="Helvetica,sans-Serif" font-size="10.00">::pressureforce_mont_nonbouss</text>
</a>
</g>
</g>
<!-- Node17&#45;&gt;Node24 -->
<g id="edge8" class="edge"><title>Node17&#45;&gt;Node24</title>
<path fill="none" stroke="midnightblue" d="M237.672,-68.5074C254.675,-59.2964 275.566,-48.6319 295,-40.5 303.428,-36.9735 312.54,-33.6261 321.445,-30.5942"/>
<polygon fill="midnightblue" stroke="midnightblue" points="235.745,-65.5723 228.66,-73.4498 239.111,-71.7099 235.745,-65.5723"/>
</g>
<!-- Node19 -->
<g id="node4" class="node"><title>Node19</title>
<g id="a_node4"><a xlink:href="namespacemom__state__initialization.html#af4e854627c6572332ba3fd895f169321" target="_top" xlink:title="mom_state_initialization\l::mom_initialize_state">
<polygon fill="white" stroke="black" points="487,-147.5 487,-177.5 609,-177.5 609,-147.5 487,-147.5"/>
<text text-anchor="start" x="495" y="-165.5" font-family="Helvetica,sans-Serif" font-size="10.00">mom_state_initialization</text>
<text text-anchor="middle" x="548" y="-154.5" font-family="Helvetica,sans-Serif" font-size="10.00">::mom_initialize_state</text>
</a>
</g>
</g>
<!-- Node18&#45;&gt;Node19 -->
<g id="edge3" class="edge"><title>Node18&#45;&gt;Node19</title>
<path fill="none" stroke="midnightblue" d="M444.18,-162.5C458.309,-162.5 473.04,-162.5 486.792,-162.5"/>
<polygon fill="midnightblue" stroke="midnightblue" points="444.022,-159 434.021,-162.5 444.021,-166 444.022,-159"/>
</g>
<!-- Node20 -->
<g id="node5" class="node"><title>Node20</title>
<g id="a_node5"><a xlink:href="namespacemom.html#a0be2869fef30e1e0604facfe1b41555d" target="_top" xlink:title="This subroutine initializes MOM. ">
<polygon fill="white" stroke="black" points="645,-153 645,-172 752,-172 752,-153 645,-153"/>
<text text-anchor="middle" x="698.5" y="-160" font-family="Helvetica,sans-Serif" font-size="10.00">mom::initialize_mom</text>
</a>
</g>
</g>
<!-- Node19&#45;&gt;Node20 -->
<g id="edge4" class="edge"><title>Node19&#45;&gt;Node20</title>
<path fill="none" stroke="midnightblue" d="M619.657,-162.5C628.116,-162.5 636.636,-162.5 644.779,-162.5"/>
<polygon fill="midnightblue" stroke="midnightblue" points="619.401,-159 609.401,-162.5 619.401,-166 619.401,-159"/>
</g>
<!-- Node21 -->
<g id="node6" class="node"><title>Node21</title>
<g id="a_node6"><a xlink:href="MOM__driver_8F90.html#a08fffeb2d8e8acbf9ed4609be6d258c6" target="_top" xlink:title="mom_main">
<polygon fill="white" stroke="black" points="788,-153 788,-172 853,-172 853,-153 788,-153"/>
<text text-anchor="middle" x="820.5" y="-160" font-family="Helvetica,sans-Serif" font-size="10.00">mom_main</text>
</a>
</g>
</g>
<!-- Node20&#45;&gt;Node21 -->
<g id="edge5" class="edge"><title>Node20&#45;&gt;Node21</title>
<path fill="none" stroke="midnightblue" d="M762.206,-162.5C771.134,-162.5 779.983,-162.5 787.958,-162.5"/>
<polygon fill="midnightblue" stroke="midnightblue" points="762.134,-159 752.134,-162.5 762.134,-166 762.134,-159"/>
</g>
</g>
</svg>
        <g id="navigator" transform="translate(0 0)" fill="#404254">
                <rect fill="#f2f5e9" fill-opacity="0.5" stroke="#606060" stroke-width=".5" x="0" y="0" width="60" height="60"/>
                <use id="zoomplus" xlink:href="#zoomPlus" x="17" y="9" onmousedown="handleZoom(evt,'in')"/>
                <use id="zoomminus" xlink:href="#zoomMin" x="42" y="9" onmousedown="handleZoom(evt,'out')"/>
                <use id="reset" xlink:href="#resetDef" x="30" y="36" onmousedown="handleReset()"/>
                <g id="arrowUp" xlink:href="#dirArrow" transform="translate(30 24)" onmousedown="handlePan(0,-1)">
                  <use xlink:href="#rim" fill="#404040">
                        <set attributeName="fill" to="#808080" begin="arrowUp.mouseover" end="arrowUp.mouseout"/>
                  </use>
                  <path fill="none" stroke="white" stroke-width="1.5" d="M0,-3.0v7 M-2.5,-0.5L0,-3.0L2.5,-0.5"/>
                </g>
                <g id="arrowRight" xlink:href="#dirArrow" transform="rotate(90) translate(36 -43)" onmousedown="handlePan(1,0)">
                  <use xlink:href="#rim" fill="#404040">
                        <set attributeName="fill" to="#808080" begin="arrowRight.mouseover" end="arrowRight.mouseout"/>
                  </use>
                  <path fill="none" stroke="white" stroke-width="1.5" d="M0,-3.0v7 M-2.5,-0.5L0,-3.0L2.5,-0.5"/>
                </g>
                <g id="arrowDown" xlink:href="#dirArrow" transform="rotate(180) translate(-30 -48)" onmousedown="handlePan(0,1)">
                  <use xlink:href="#rim" fill="#404040">
                        <set attributeName="fill" to="#808080" begin="arrowDown.mouseover" end="arrowDown.mouseout"/>
                  </use>
                  <path fill="none" stroke="white" stroke-width="1.5" d="M0,-3.0v7 M-2.5,-0.5L0,-3.0L2.5,-0.5"/>
                </g>
                <g id="arrowLeft" xlink:href="#dirArrow" transform="rotate(270) translate(-36 17)" onmousedown="handlePan(-1,0)">
                  <use xlink:href="#rim" fill="#404040">
                        <set attributeName="fill" to="#808080" begin="arrowLeft.mouseover" end="arrowLeft.mouseout"/>
                  </use>
                  <path fill="none" stroke="white" stroke-width="1.5" d="M0,-3.0v7 M-2.5,-0.5L0,-3.0L2.5,-0.5"/>
                </g>
        </g>
        <svg viewBox="0 0 15 15" width="100%" height="30px" preserveAspectRatio="xMaxYMin meet">
         <g id="arrow_out" transform="scale(0.3 0.3)">
          <a xlink:href="namespacemom__eos__wright_aeebb566af08f2b00a35d391395e62750_icgraph_org.svg" target="_base">
           <rect id="button" ry="5" rx="5" y="6" x="6" height="38" width="38"
                fill="#f2f5e9" fill-opacity="0.5" stroke="#606060" stroke-width="1.0"/>
           <path id="arrow"
             d="M 11.500037,31.436501 C 11.940474,20.09759 22.043105,11.32322 32.158766,21.979434 L 37.068811,17.246167 C 37.068811,17.246167 37.088388,32 37.088388,32 L 22.160133,31.978069 C 22.160133,31.978069 26.997745,27.140456 26.997745,27.140456 C 18.528582,18.264221 13.291696,25.230495 11.500037,31.436501 z"
             style="fill:#404040;"/>
          </a>
         </g>
        </svg>
</svg>
