<?xml version="1.0" encoding="UTF-8" standalone="no"?>
<!DOCTYPE svg PUBLIC "-//W3C//DTD SVG 1.1//EN"
 "http://www.w3.org/Graphics/SVG/1.1/DTD/svg11.dtd">
<!-- Generated by graphviz version 2.38.0 (20140413.2041)
 -->
<!-- Title: mom_tracer_registry::lock_tracer_registry Pages: 1 -->
<svg width="360pt" height="39pt"
 viewBox="0.00 0.00 360.00 39.00" xmlns="http://www.w3.org/2000/svg" xmlns:xlink="http://www.w3.org/1999/xlink">
<g id="graph0" class="graph" transform="scale(1 1) rotate(0) translate(4 35)">
<title>mom_tracer_registry::lock_tracer_registry</title>
<polygon fill="white" stroke="none" points="-4,4 -4,-35 356,-35 356,4 -4,4"/>
<!-- Node24 -->
<g id="node1" class="node"><title>Node24</title>
<polygon fill="#bfbfbf" stroke="black" points="0,-0.5 0,-30.5 108,-30.5 108,-0.5 0,-0.5"/>
<text text-anchor="start" x="8" y="-18.5" font-family="Helvetica,sans-Serif" font-size="10.00">mom_tracer_registry</text>
<text text-anchor="middle" x="54" y="-7.5" font-family="Helvetica,sans-Serif" font-size="10.00">::lock_tracer_registry</text>
</g>
<!-- Node25 -->
<g id="node2" class="node"><title>Node25</title>
<g id="a_node2"><a xlink:href="namespacemom.html#a0be2869fef30e1e0604facfe1b41555d" target="_top" xlink:title="This subroutine initializes MOM. ">
<polygon fill="white" stroke="black" points="144,-6 144,-25 251,-25 251,-6 144,-6"/>
<text text-anchor="middle" x="197.5" y="-13" font-family="Helvetica,sans-Serif" font-size="10.00">mom::initialize_mom</text>
</a>
</g>
</g>
<!-- Node24&#45;&gt;Node25 -->
<g id="edge1" class="edge"><title>Node24&#45;&gt;Node25</title>
<path fill="none" stroke="midnightblue" d="M118.294,-15.5C126.742,-15.5 135.335,-15.5 143.581,-15.5"/>
<polygon fill="midnightblue" stroke="midnightblue" points="118.092,-12.0001 108.092,-15.5 118.092,-19.0001 118.092,-12.0001"/>
</g>
<!-- Node26 -->
<g id="node3" class="node"><title>Node26</title>
<g id="a_node3"><a xlink:href="MOM__driver_8F90.html#a08fffeb2d8e8acbf9ed4609be6d258c6" target="_top" xlink:title="mom_main">
<polygon fill="white" stroke="black" points="287,-6 287,-25 352,-25 352,-6 287,-6"/>
<text text-anchor="middle" x="319.5" y="-13" font-family="Helvetica,sans-Serif" font-size="10.00">mom_main</text>
</a>
</g>
</g>
<!-- Node25&#45;&gt;Node26 -->
<g id="edge2" class="edge"><title>Node25&#45;&gt;Node26</title>
<path fill="none" stroke="midnightblue" d="M261.206,-15.5C270.134,-15.5 278.983,-15.5 286.958,-15.5"/>
<polygon fill="midnightblue" stroke="midnightblue" points="261.134,-12.0001 251.134,-15.5 261.134,-19.0001 261.134,-12.0001"/>
</g>
</g>
</svg>
