<?xml version="1.0" encoding="UTF-8" standalone="no"?>
<!DOCTYPE svg PUBLIC "-//W3C//DTD SVG 1.1//EN"
 "http://www.w3.org/Graphics/SVG/1.1/DTD/svg11.dtd">
<!-- Generated by graphviz version 2.38.0 (20140413.2041)
 -->
<!-- Title: rossby_front_2d_initialization::ypseudo Pages: 1 -->
<svg width="932pt" height="170pt"
 viewBox="0.00 0.00 932.00 170.00" xmlns="http://www.w3.org/2000/svg" xmlns:xlink="http://www.w3.org/1999/xlink">
<g id="graph0" class="graph" transform="scale(1 1) rotate(0) translate(4 166)">
<title>rossby_front_2d_initialization::ypseudo</title>
<polygon fill="white" stroke="none" points="-4,4 -4,-166 928,-166 928,4 -4,4"/>
<!-- Node36 -->
<g id="node1" class="node"><title>Node36</title>
<polygon fill="#bfbfbf" stroke="black" points="0,-96 0,-126 143,-126 143,-96 0,-96"/>
<text text-anchor="start" x="8" y="-114" font-family="Helvetica,sans-Serif" font-size="10.00">rossby_front_2d_initialization</text>
<text text-anchor="middle" x="71.5" y="-103" font-family="Helvetica,sans-Serif" font-size="10.00">::ypseudo</text>
</g>
<!-- Node37 -->
<g id="node2" class="node"><title>Node37</title>
<g id="a_node2"><a xlink:href="namespacerossby__front__2d__initialization.html#a587a5f5c3f4694558d3d5206840ccab2" target="_top" xlink:title="Analytic prescription of mixed layer temperature gradient in 2d Rossby front test. ">
<polygon fill="white" stroke="black" points="189.5,-122 189.5,-152 332.5,-152 332.5,-122 189.5,-122"/>
<text text-anchor="start" x="197.5" y="-140" font-family="Helvetica,sans-Serif" font-size="10.00">rossby_front_2d_initialization</text>
<text text-anchor="middle" x="261" y="-129" font-family="Helvetica,sans-Serif" font-size="10.00">::dtdy</text>
</a>
</g>
</g>
<!-- Node36&#45;&gt;Node37 -->
<g id="edge1" class="edge"><title>Node36&#45;&gt;Node37</title>
<path fill="none" stroke="midnightblue" d="M153.17,-122.186C165.241,-123.86 177.606,-125.575 189.445,-127.216"/>
<polygon fill="midnightblue" stroke="midnightblue" points="153.505,-118.699 143.119,-120.792 152.543,-125.633 153.505,-118.699"/>
</g>
<!-- Node42 -->
<g id="node7" class="node"><title>Node42</title>
<g id="a_node7"><a xlink:href="namespacerossby__front__2d__initialization.html#aa10adb0378184432ecaa78eb339c6c5a" target="_top" xlink:title="Analytic prescription of mixed layer depth in 2d Rossby front test. ">
<polygon fill="white" stroke="black" points="179,-75.5 179,-94.5 343,-94.5 343,-75.5 179,-75.5"/>
<text text-anchor="middle" x="261" y="-82.5" font-family="Helvetica,sans-Serif" font-size="10.00">rossby_front_2d_initialization::hml</text>
</a>
</g>
</g>
<!-- Node36&#45;&gt;Node42 -->
<g id="edge6" class="edge"><title>Node36&#45;&gt;Node42</title>
<path fill="none" stroke="midnightblue" d="M153.21,-99.8082C165.903,-98.0481 178.921,-96.243 191.309,-94.5252"/>
<polygon fill="midnightblue" stroke="midnightblue" points="152.543,-96.3671 143.119,-101.208 153.505,-103.301 152.543,-96.3671"/>
</g>
<!-- Node38 -->
<g id="node3" class="node"><title>Node38</title>
<g id="a_node3"><a xlink:href="namespacerossby__front__2d__initialization.html#ae2ab8919c882f7b3f0da46758f0b33bf" target="_top" xlink:title="Initialization of u and v in the Rossby front test. ">
<polygon fill="white" stroke="black" points="379,-120.5 379,-161.5 522,-161.5 522,-120.5 379,-120.5"/>
<text text-anchor="start" x="387" y="-149.5" font-family="Helvetica,sans-Serif" font-size="10.00">rossby_front_2d_initialization</text>
<text text-anchor="start" x="387" y="-138.5" font-family="Helvetica,sans-Serif" font-size="10.00">::rossby_front_initialize</text>
<text text-anchor="middle" x="450.5" y="-127.5" font-family="Helvetica,sans-Serif" font-size="10.00">_velocity</text>
</a>
</g>
</g>
<!-- Node37&#45;&gt;Node38 -->
<g id="edge2" class="edge"><title>Node37&#45;&gt;Node38</title>
<path fill="none" stroke="midnightblue" d="M342.67,-138.721C354.741,-138.978 367.106,-139.242 378.945,-139.495"/>
<polygon fill="midnightblue" stroke="midnightblue" points="342.691,-135.221 332.619,-138.507 342.542,-142.219 342.691,-135.221"/>
</g>
<!-- Node39 -->
<g id="node4" class="node"><title>Node39</title>
<g id="a_node4"><a xlink:href="namespacemom__state__initialization.html#af4e854627c6572332ba3fd895f169321" target="_top" xlink:title="mom_state_initialization\l::mom_initialize_state">
<polygon fill="white" stroke="black" points="558,-126 558,-156 680,-156 680,-126 558,-126"/>
<text text-anchor="start" x="566" y="-144" font-family="Helvetica,sans-Serif" font-size="10.00">mom_state_initialization</text>
<text text-anchor="middle" x="619" y="-133" font-family="Helvetica,sans-Serif" font-size="10.00">::mom_initialize_state</text>
</a>
</g>
</g>
<!-- Node38&#45;&gt;Node39 -->
<g id="edge3" class="edge"><title>Node38&#45;&gt;Node39</title>
<path fill="none" stroke="midnightblue" d="M532.193,-141C540.815,-141 549.473,-141 557.798,-141"/>
<polygon fill="midnightblue" stroke="midnightblue" points="532.111,-137.5 522.111,-141 532.111,-144.5 532.111,-137.5"/>
</g>
<!-- Node40 -->
<g id="node5" class="node"><title>Node40</title>
<g id="a_node5"><a xlink:href="namespacemom.html#a0be2869fef30e1e0604facfe1b41555d" target="_top" xlink:title="This subroutine initializes MOM. ">
<polygon fill="white" stroke="black" points="716,-131.5 716,-150.5 823,-150.5 823,-131.5 716,-131.5"/>
<text text-anchor="middle" x="769.5" y="-138.5" font-family="Helvetica,sans-Serif" font-size="10.00">mom::initialize_mom</text>
</a>
</g>
</g>
<!-- Node39&#45;&gt;Node40 -->
<g id="edge4" class="edge"><title>Node39&#45;&gt;Node40</title>
<path fill="none" stroke="midnightblue" d="M690.657,-141C699.116,-141 707.636,-141 715.779,-141"/>
<polygon fill="midnightblue" stroke="midnightblue" points="690.401,-137.5 680.401,-141 690.401,-144.5 690.401,-137.5"/>
</g>
<!-- Node41 -->
<g id="node6" class="node"><title>Node41</title>
<g id="a_node6"><a xlink:href="MOM__driver_8F90.html#a08fffeb2d8e8acbf9ed4609be6d258c6" target="_top" xlink:title="mom_main">
<polygon fill="white" stroke="black" points="859,-131.5 859,-150.5 924,-150.5 924,-131.5 859,-131.5"/>
<text text-anchor="middle" x="891.5" y="-138.5" font-family="Helvetica,sans-Serif" font-size="10.00">mom_main</text>
</a>
</g>
</g>
<!-- Node40&#45;&gt;Node41 -->
<g id="edge5" class="edge"><title>Node40&#45;&gt;Node41</title>
<path fill="none" stroke="midnightblue" d="M833.206,-141C842.134,-141 850.983,-141 858.958,-141"/>
<polygon fill="midnightblue" stroke="midnightblue" points="833.134,-137.5 823.134,-141 833.134,-144.5 833.134,-137.5"/>
</g>
<!-- Node42&#45;&gt;Node38 -->
<g id="edge9" class="edge"><title>Node42&#45;&gt;Node38</title>
<path fill="none" stroke="midnightblue" d="M303.867,-97.5042C326.503,-104.265 355.031,-112.785 380.824,-120.489"/>
<polygon fill="midnightblue" stroke="midnightblue" points="304.816,-94.1349 294.232,-94.6267 302.813,-100.842 304.816,-94.1349"/>
</g>
<!-- Node43 -->
<g id="node8" class="node"><title>Node43</title>
<g id="a_node8"><a xlink:href="namespacerossby__front__2d__initialization.html#ab490a4f15755ef97420badc32419a14d" target="_top" xlink:title="Initialization of temperature and salinity in the Rossby front test. ">
<polygon fill="white" stroke="black" points="379,-60.5 379,-101.5 522,-101.5 522,-60.5 379,-60.5"/>
<text text-anchor="start" x="387" y="-89.5" font-family="Helvetica,sans-Serif" font-size="10.00">rossby_front_2d_initialization</text>
<text text-anchor="start" x="387" y="-78.5" font-family="Helvetica,sans-Serif" font-size="10.00">::rossby_front_initialize</text>
<text text-anchor="middle" x="450.5" y="-67.5" font-family="Helvetica,sans-Serif" font-size="10.00">_temperature_salinity</text>
</a>
</g>
</g>
<!-- Node42&#45;&gt;Node43 -->
<g id="edge7" class="edge"><title>Node42&#45;&gt;Node43</title>
<path fill="none" stroke="midnightblue" d="M353.219,-83.054C361.822,-82.8705 370.453,-82.6863 378.823,-82.5078"/>
<polygon fill="midnightblue" stroke="midnightblue" points="353.073,-79.5562 343.15,-83.2688 353.222,-86.5546 353.073,-79.5562"/>
</g>
<!-- Node44 -->
<g id="node9" class="node"><title>Node44</title>
<g id="a_node9"><a xlink:href="namespacerossby__front__2d__initialization.html#a5bb2f6319c079e75f6f2f8201105f082" target="_top" xlink:title="Initialization of thicknesses in 2D Rossby front test. ">
<polygon fill="white" stroke="black" points="379,-0.5 379,-41.5 522,-41.5 522,-0.5 379,-0.5"/>
<text text-anchor="start" x="387" y="-29.5" font-family="Helvetica,sans-Serif" font-size="10.00">rossby_front_2d_initialization</text>
<text text-anchor="start" x="387" y="-18.5" font-family="Helvetica,sans-Serif" font-size="10.00">::rossby_front_initialize</text>
<text text-anchor="middle" x="450.5" y="-7.5" font-family="Helvetica,sans-Serif" font-size="10.00">_thickness</text>
</a>
</g>
</g>
<!-- Node42&#45;&gt;Node44 -->
<g id="edge8" class="edge"><title>Node42&#45;&gt;Node44</title>
<path fill="none" stroke="midnightblue" d="M299.797,-72.0986C325.476,-63.3337 359.986,-51.5542 389.4,-41.5141"/>
<polygon fill="midnightblue" stroke="midnightblue" points="298.404,-68.8758 290.071,-75.4186 300.665,-75.5005 298.404,-68.8758"/>
</g>
</g>
</svg>
