<?xml version="1.0" encoding="UTF-8" standalone="no"?>
<!DOCTYPE svg PUBLIC "-//W3C//DTD SVG 1.1//EN"
 "http://www.w3.org/Graphics/SVG/1.1/DTD/svg11.dtd">
<!-- Generated by graphviz version 2.38.0 (20140413.2041)
 -->
<!-- Title: mom_file_parser::get_variable_line Pages: 1 -->
<svg width="522pt" height="192pt"
 viewBox="0.00 0.00 522.00 191.50" xmlns="http://www.w3.org/2000/svg" xmlns:xlink="http://www.w3.org/1999/xlink">
<g id="graph0" class="graph" transform="scale(1 1) rotate(0) translate(4 187.5)">
<title>mom_file_parser::get_variable_line</title>
<polygon fill="white" stroke="none" points="-4,4 -4,-187.5 518,-187.5 518,4 -4,4"/>
<!-- Node145 -->
<g id="node1" class="node"><title>Node145</title>
<polygon fill="#bfbfbf" stroke="black" points="0,-71 0,-101 108,-101 108,-71 0,-71"/>
<text text-anchor="start" x="8" y="-89" font-family="Helvetica,sans-Serif" font-size="10.00">mom_file_parser::get</text>
<text text-anchor="middle" x="54" y="-78" font-family="Helvetica,sans-Serif" font-size="10.00">_variable_line</text>
</g>
<!-- Node146 -->
<g id="node2" class="node"><title>Node146</title>
<g id="a_node2"><a xlink:href="namespacemom__file__parser.html#a7803aabff129cc7f56d4516bc24613f0" target="_top" xlink:title="mom_file_parser::flag\l_line_as_read">
<polygon fill="white" stroke="black" points="203,-153 203,-183 313,-183 313,-153 203,-153"/>
<text text-anchor="start" x="211" y="-171" font-family="Helvetica,sans-Serif" font-size="10.00">mom_file_parser::flag</text>
<text text-anchor="middle" x="258" y="-160" font-family="Helvetica,sans-Serif" font-size="10.00">_line_as_read</text>
</a>
</g>
</g>
<!-- Node145&#45;&gt;Node146 -->
<g id="edge1" class="edge"><title>Node145&#45;&gt;Node146</title>
<path fill="none" stroke="midnightblue" d="M77.1738,-101.231C94.6705,-112.677 120.041,-128.036 144,-138 159.443,-144.423 176.651,-149.819 192.889,-154.184"/>
<polygon fill="midnightblue" stroke="midnightblue" points="192.29,-157.644 202.849,-156.768 194.049,-150.869 192.29,-157.644"/>
</g>
<!-- Node147 -->
<g id="node3" class="node"><title>Node147</title>
<g id="a_node3"><a xlink:href="namespacemom__error__handler.html#ad5f00a53059c72fe2332d1436c80ca71" target="_top" xlink:title="mom_error_handler::\lis_root_pe">
<polygon fill="white" stroke="black" points="408,-71 408,-101 514,-101 514,-71 408,-71"/>
<text text-anchor="start" x="416" y="-89" font-family="Helvetica,sans-Serif" font-size="10.00">mom_error_handler::</text>
<text text-anchor="middle" x="461" y="-78" font-family="Helvetica,sans-Serif" font-size="10.00">is_root_pe</text>
</a>
</g>
</g>
<!-- Node145&#45;&gt;Node147 -->
<g id="edge2" class="edge"><title>Node145&#45;&gt;Node147</title>
<path fill="none" stroke="midnightblue" d="M108.359,-99.2942C120.031,-101.667 132.373,-103.773 144,-105 244.774,-115.637 271.239,-115.754 372,-105 380.378,-104.106 389.129,-102.746 397.726,-101.156"/>
<polygon fill="midnightblue" stroke="midnightblue" points="398.574,-104.556 407.714,-99.1976 397.228,-97.6869 398.574,-104.556"/>
</g>
<!-- Node148 -->
<g id="node4" class="node"><title>Node148</title>
<g id="a_node4"><a xlink:href="namespacemom__file__parser.html#a0c9bb1e76b09bc09bae5402e63bd0f99" target="_top" xlink:title="mom_file_parser::overridewarninghasbeenissued">
<polygon fill="white" stroke="black" points="144,-76.5 144,-95.5 372,-95.5 372,-76.5 144,-76.5"/>
<text text-anchor="middle" x="258" y="-83.5" font-family="Helvetica,sans-Serif" font-size="10.00">mom_file_parser::overridewarninghasbeenissued</text>
</a>
</g>
</g>
<!-- Node145&#45;&gt;Node148 -->
<g id="edge3" class="edge"><title>Node145&#45;&gt;Node148</title>
<path fill="none" stroke="midnightblue" d="M108.073,-86C116.141,-86 124.741,-86 133.582,-86"/>
<polygon fill="midnightblue" stroke="midnightblue" points="133.651,-89.5001 143.651,-86 133.651,-82.5001 133.651,-89.5001"/>
</g>
<!-- Node149 -->
<g id="node5" class="node"><title>Node149</title>
<g id="a_node5"><a xlink:href="namespacemom__file__parser.html#a73b11b969d303b1fc0ba5235c812fd05" target="_top" xlink:title="mom_file_parser::popblocklevel">
<polygon fill="white" stroke="black" points="181,-38.5 181,-57.5 335,-57.5 335,-38.5 181,-38.5"/>
<text text-anchor="middle" x="258" y="-45.5" font-family="Helvetica,sans-Serif" font-size="10.00">mom_file_parser::popblocklevel</text>
</a>
</g>
</g>
<!-- Node145&#45;&gt;Node149 -->
<g id="edge4" class="edge"><title>Node145&#45;&gt;Node149</title>
<path fill="none" stroke="midnightblue" d="M108.103,-74.266C119.902,-71.7699 132.36,-69.2199 144,-67 157.916,-64.3459 172.835,-61.6982 187.121,-59.2586"/>
<polygon fill="midnightblue" stroke="midnightblue" points="188.112,-62.6407 197.388,-57.5219 186.944,-55.7388 188.112,-62.6407"/>
</g>
<!-- Node150 -->
<g id="node6" class="node"><title>Node150</title>
<g id="a_node6"><a xlink:href="namespacemom__file__parser.html#a58777b0faf747d59a793b4e238919dc6" target="_top" xlink:title="mom_file_parser::pushblocklevel">
<polygon fill="white" stroke="black" points="178.5,-0.5 178.5,-19.5 337.5,-19.5 337.5,-0.5 178.5,-0.5"/>
<text text-anchor="middle" x="258" y="-7.5" font-family="Helvetica,sans-Serif" font-size="10.00">mom_file_parser::pushblocklevel</text>
</a>
</g>
</g>
<!-- Node145&#45;&gt;Node150 -->
<g id="edge6" class="edge"><title>Node145&#45;&gt;Node150</title>
<path fill="none" stroke="midnightblue" d="M73.5718,-70.9069C90.7841,-57.7299 117.636,-39.1683 144,-29 151.804,-25.99 160.093,-23.4562 168.497,-21.3234"/>
<polygon fill="midnightblue" stroke="midnightblue" points="169.458,-24.693 178.393,-18.9993 167.858,-17.8784 169.458,-24.693"/>
</g>
<!-- Node149&#45;&gt;Node147 -->
<g id="edge5" class="edge"><title>Node149&#45;&gt;Node147</title>
<path fill="none" stroke="midnightblue" d="M318.91,-57.5451C336.082,-60.4242 354.808,-63.7004 372,-67 380.476,-68.6267 389.39,-70.4356 398.158,-72.2725"/>
<polygon fill="midnightblue" stroke="midnightblue" points="397.456,-75.7015 407.965,-74.35 398.907,-68.8535 397.456,-75.7015"/>
</g>
</g>
</svg>
