<?xml version="1.0" encoding="UTF-8" standalone="no"?>
<!DOCTYPE svg PUBLIC "-//W3C//DTD SVG 1.1//EN"
 "http://www.w3.org/Graphics/SVG/1.1/DTD/svg11.dtd">
<!-- Generated by graphviz version 2.38.0 (20140413.2041)
 -->
<!-- Title: mom_kappa_shear::calculate_projected_state Pages: 1 -->
<svg width="472pt" height="39pt"
 viewBox="0.00 0.00 472.00 39.00" xmlns="http://www.w3.org/2000/svg" xmlns:xlink="http://www.w3.org/1999/xlink">
<g id="graph0" class="graph" transform="scale(1 1) rotate(0) translate(4 35)">
<title>mom_kappa_shear::calculate_projected_state</title>
<polygon fill="white" stroke="none" points="-4,4 -4,-35 468,-35 468,4 -4,4"/>
<!-- Node9 -->
<g id="node1" class="node"><title>Node9</title>
<polygon fill="#bfbfbf" stroke="black" points="0,-0.5 0,-30.5 144,-30.5 144,-0.5 0,-0.5"/>
<text text-anchor="start" x="8" y="-18.5" font-family="Helvetica,sans-Serif" font-size="10.00">mom_kappa_shear::calculate</text>
<text text-anchor="middle" x="72" y="-7.5" font-family="Helvetica,sans-Serif" font-size="10.00">_projected_state</text>
</g>
<!-- Node10 -->
<g id="node2" class="node"><title>Node10</title>
<g id="a_node2"><a xlink:href="namespacemom__kappa__shear.html#a84a0a23b1cb6df3e8613fdd7853cb495" target="_top" xlink:title="Subroutine for calculating diffusivity and TKE. ">
<polygon fill="white" stroke="black" points="180,-0.5 180,-30.5 324,-30.5 324,-0.5 180,-0.5"/>
<text text-anchor="start" x="188" y="-18.5" font-family="Helvetica,sans-Serif" font-size="10.00">mom_kappa_shear::calculate</text>
<text text-anchor="middle" x="252" y="-7.5" font-family="Helvetica,sans-Serif" font-size="10.00">_kappa_shear</text>
</a>
</g>
</g>
<!-- Node9&#45;&gt;Node10 -->
<g id="edge1" class="edge"><title>Node9&#45;&gt;Node10</title>
<path fill="none" stroke="midnightblue" d="M154.17,-15.5C162.789,-15.5 171.506,-15.5 179.995,-15.5"/>
<polygon fill="midnightblue" stroke="midnightblue" points="154.118,-12.0001 144.118,-15.5 154.118,-19.0001 154.118,-12.0001"/>
</g>
<!-- Node11 -->
<g id="node3" class="node"><title>Node11</title>
<g id="a_node3"><a xlink:href="namespacemom__set__diffusivity.html#a8b1f646393f0ec717ca690e4f04d96e8" target="_top" xlink:title="mom_set_diffusivity\l::set_diffusivity">
<polygon fill="white" stroke="black" points="360,-0.5 360,-30.5 464,-30.5 464,-0.5 360,-0.5"/>
<text text-anchor="start" x="368" y="-18.5" font-family="Helvetica,sans-Serif" font-size="10.00">mom_set_diffusivity</text>
<text text-anchor="middle" x="412" y="-7.5" font-family="Helvetica,sans-Serif" font-size="10.00">::set_diffusivity</text>
</a>
</g>
</g>
<!-- Node10&#45;&gt;Node11 -->
<g id="edge2" class="edge"><title>Node10&#45;&gt;Node11</title>
<path fill="none" stroke="midnightblue" d="M334.265,-15.5C342.896,-15.5 351.49,-15.5 359.635,-15.5"/>
<polygon fill="midnightblue" stroke="midnightblue" points="334.142,-12.0001 324.142,-15.5 334.142,-19.0001 334.142,-12.0001"/>
</g>
</g>
</svg>
