<?xml version="1.0" encoding="UTF-8" standalone="no"?>
<!DOCTYPE svg PUBLIC "-//W3C//DTD SVG 1.1//EN"
 "http://www.w3.org/Graphics/SVG/1.1/DTD/svg11.dtd">
<!-- Generated by graphviz version 2.38.0 (20140413.2041)
 -->
<!-- Title: ppm_functions::ppm_limiter_standard Pages: 1 -->
<svg width="263pt" height="100pt"
 viewBox="0.00 0.00 263.00 99.50" xmlns="http://www.w3.org/2000/svg" xmlns:xlink="http://www.w3.org/1999/xlink">
<g id="graph0" class="graph" transform="scale(1 1) rotate(0) translate(4 95.5)">
<title>ppm_functions::ppm_limiter_standard</title>
<polygon fill="white" stroke="none" points="-4,4 -4,-95.5 259,-95.5 259,4 -4,4"/>
<!-- Node28 -->
<g id="node1" class="node"><title>Node28</title>
<polygon fill="#bfbfbf" stroke="black" points="0,-33 0,-63 105,-63 105,-33 0,-33"/>
<text text-anchor="start" x="8" y="-51" font-family="Helvetica,sans-Serif" font-size="10.00">ppm_functions::ppm</text>
<text text-anchor="middle" x="52.5" y="-40" font-family="Helvetica,sans-Serif" font-size="10.00">_limiter_standard</text>
</g>
<!-- Node29 -->
<g id="node2" class="node"><title>Node29</title>
<g id="a_node2"><a xlink:href="namespaceregrid__edge__values.html#aa204fe78ee22cae62f2b7f1bc76151a9" target="_top" xlink:title="regrid_edge_values\l::bound_edge_values">
<polygon fill="white" stroke="black" points="143.5,-61 143.5,-91 252.5,-91 252.5,-61 143.5,-61"/>
<text text-anchor="start" x="151.5" y="-79" font-family="Helvetica,sans-Serif" font-size="10.00">regrid_edge_values</text>
<text text-anchor="middle" x="198" y="-68" font-family="Helvetica,sans-Serif" font-size="10.00">::bound_edge_values</text>
</a>
</g>
</g>
<!-- Node28&#45;&gt;Node29 -->
<g id="edge1" class="edge"><title>Node28&#45;&gt;Node29</title>
<path fill="none" stroke="midnightblue" d="M105.307,-58.1086C114.386,-59.8802 123.928,-61.7421 133.286,-63.5679"/>
<polygon fill="midnightblue" stroke="midnightblue" points="132.851,-67.0491 143.336,-65.529 134.192,-60.1786 132.851,-67.0491"/>
</g>
<!-- Node30 -->
<g id="node3" class="node"><title>Node30</title>
<g id="a_node3"><a xlink:href="namespaceregrid__edge__values.html#acbdacbbf7212e538bb52a9729fc949a7" target="_top" xlink:title="regrid_edge_values\l::check_discontinuous\l_edge_values">
<polygon fill="white" stroke="black" points="141,-0.5 141,-41.5 255,-41.5 255,-0.5 141,-0.5"/>
<text text-anchor="start" x="149" y="-29.5" font-family="Helvetica,sans-Serif" font-size="10.00">regrid_edge_values</text>
<text text-anchor="start" x="149" y="-18.5" font-family="Helvetica,sans-Serif" font-size="10.00">::check_discontinuous</text>
<text text-anchor="middle" x="198" y="-7.5" font-family="Helvetica,sans-Serif" font-size="10.00">_edge_values</text>
</a>
</g>
</g>
<!-- Node28&#45;&gt;Node30 -->
<g id="edge2" class="edge"><title>Node28&#45;&gt;Node30</title>
<path fill="none" stroke="midnightblue" d="M105.307,-38.2524C113.616,-36.689 122.313,-35.0527 130.901,-33.4368"/>
<polygon fill="midnightblue" stroke="midnightblue" points="131.722,-36.8437 140.903,-31.5549 130.428,-29.9644 131.722,-36.8437"/>
</g>
</g>
</svg>
