<?xml version="1.0" encoding="UTF-8" standalone="no"?>
<!DOCTYPE svg PUBLIC "-//W3C//DTD SVG 1.1//EN"
 "http://www.w3.org/Graphics/SVG/1.1/DTD/svg11.dtd">
<!-- Generated by graphviz version 2.38.0 (20140413.2041)
 -->
<!-- Title: mom_io::create_file Pages: 1 -->
<svg width="305pt" height="66pt"
 viewBox="0.00 0.00 305.00 66.00" xmlns="http://www.w3.org/2000/svg" xmlns:xlink="http://www.w3.org/1999/xlink">
<g id="graph0" class="graph" transform="scale(1 1) rotate(0) translate(4 62)">
<title>mom_io::create_file</title>
<polygon fill="white" stroke="none" points="-4,4 -4,-62 301,-62 301,4 -4,4"/>
<!-- Node3 -->
<g id="node1" class="node"><title>Node3</title>
<polygon fill="#bfbfbf" stroke="black" points="0,-19.5 0,-38.5 102,-38.5 102,-19.5 0,-19.5"/>
<text text-anchor="middle" x="51" y="-26.5" font-family="Helvetica,sans-Serif" font-size="10.00">mom_io::create_file</text>
</g>
<!-- Node4 -->
<g id="node2" class="node"><title>Node4</title>
<g id="a_node2"><a xlink:href="namespacemom__ale.html#a8a784e56b0acbcda92f7af471d2c980d" target="_top" xlink:title="Write the vertical coordinate information into a file. This subroutine writes out a file containing a...">
<polygon fill="white" stroke="black" points="138,-38.5 138,-57.5 297,-57.5 297,-38.5 138,-38.5"/>
<text text-anchor="middle" x="217.5" y="-45.5" font-family="Helvetica,sans-Serif" font-size="10.00">mom_ale::ale_writecoordinatefile</text>
</a>
</g>
</g>
<!-- Node3&#45;&gt;Node4 -->
<g id="edge1" class="edge"><title>Node3&#45;&gt;Node4</title>
<path fill="none" stroke="midnightblue" d="M112.211,-35.9545C120.531,-36.9155 129.176,-37.9139 137.769,-38.9065"/>
<polygon fill="midnightblue" stroke="midnightblue" points="112.585,-32.4745 102.249,-34.8039 111.782,-39.4282 112.585,-32.4745"/>
</g>
<!-- Node5 -->
<g id="node3" class="node"><title>Node5</title>
<g id="a_node3"><a xlink:href="namespacemom__io.html#ac15e7cf282a5b17192ffb7561537cb8c" target="_top" xlink:title="This routine opens an existing NetCDF file for output. If it does not find the file, a new file is created. It also sets up structures that describe this file and the variables that will later be written to this file. ">
<polygon fill="white" stroke="black" points="165.5,-0.5 165.5,-19.5 269.5,-19.5 269.5,-0.5 165.5,-0.5"/>
<text text-anchor="middle" x="217.5" y="-7.5" font-family="Helvetica,sans-Serif" font-size="10.00">mom_io::reopen_file</text>
</a>
</g>
</g>
<!-- Node3&#45;&gt;Node5 -->
<g id="edge2" class="edge"><title>Node3&#45;&gt;Node5</title>
<path fill="none" stroke="midnightblue" d="M112.324,-22.0324C129.759,-20.0188 148.611,-17.8413 165.423,-15.8995"/>
<polygon fill="midnightblue" stroke="midnightblue" points="111.782,-18.5718 102.249,-23.1961 112.585,-25.5255 111.782,-18.5718"/>
</g>
</g>
</svg>
