<?xml version="1.0" encoding="UTF-8" standalone="no"?>
<!DOCTYPE svg PUBLIC "-//W3C//DTD SVG 1.1//EN"
 "http://www.w3.org/Graphics/SVG/1.1/DTD/svg11.dtd">
<!-- Generated by graphviz version 2.38.0 (20140413.2041)
 -->
<!-- Title: mom_pressureforce_mont::set_pbce_nonbouss Pages: 1 -->
<svg width="488pt" height="88pt"
 viewBox="0.00 0.00 488.00 88.00" xmlns="http://www.w3.org/2000/svg" xmlns:xlink="http://www.w3.org/1999/xlink">
<g id="graph0" class="graph" transform="scale(1 1) rotate(0) translate(4 84)">
<title>mom_pressureforce_mont::set_pbce_nonbouss</title>
<polygon fill="white" stroke="none" points="-4,4 -4,-84 484,-84 484,4 -4,4"/>
<!-- Node31 -->
<g id="node1" class="node"><title>Node31</title>
<polygon fill="#bfbfbf" stroke="black" points="0,-24.5 0,-54.5 130,-54.5 130,-24.5 0,-24.5"/>
<text text-anchor="start" x="8" y="-42.5" font-family="Helvetica,sans-Serif" font-size="10.00">mom_pressureforce_mont</text>
<text text-anchor="middle" x="65" y="-31.5" font-family="Helvetica,sans-Serif" font-size="10.00">::set_pbce_nonbouss</text>
</g>
<!-- Node32 -->
<g id="node2" class="node"><title>Node32</title>
<g id="a_node2"><a xlink:href="namespacemom__pressureforce__afv.html#ac872477c8b86d0997199db68a8969466" target="_top" xlink:title="Non&#45;Boussinesq analytically&#45;integrated finite volume form of pressure gradient. ">
<polygon fill="white" stroke="black" points="170,-49.5 170,-79.5 318,-79.5 318,-49.5 170,-49.5"/>
<text text-anchor="start" x="178" y="-67.5" font-family="Helvetica,sans-Serif" font-size="10.00">mom_pressureforce_afv</text>
<text text-anchor="middle" x="244" y="-56.5" font-family="Helvetica,sans-Serif" font-size="10.00">::pressureforce_afv_nonbouss</text>
</a>
</g>
</g>
<!-- Node31&#45;&gt;Node32 -->
<g id="edge1" class="edge"><title>Node31&#45;&gt;Node32</title>
<path fill="none" stroke="midnightblue" d="M140.227,-49.984C149.997,-51.364 160.006,-52.7778 169.761,-54.1555"/>
<polygon fill="midnightblue" stroke="midnightblue" points="140.543,-46.494 130.151,-48.5609 139.564,-53.4252 140.543,-46.494"/>
</g>
<!-- Node34 -->
<g id="node4" class="node"><title>Node34</title>
<g id="a_node4"><a xlink:href="namespacemom__pressureforce__mont.html#af536642cd29fc7ad6465c4f277ff0764" target="_top" xlink:title="Non&#45;Boussinesq Montgomery&#45;potential form of pressure gradient. ">
<polygon fill="white" stroke="black" points="166,-0.5 166,-30.5 322,-30.5 322,-0.5 166,-0.5"/>
<text text-anchor="start" x="174" y="-18.5" font-family="Helvetica,sans-Serif" font-size="10.00">mom_pressureforce_mont</text>
<text text-anchor="middle" x="244" y="-7.5" font-family="Helvetica,sans-Serif" font-size="10.00">::pressureforce_mont_nonbouss</text>
</a>
</g>
</g>
<!-- Node31&#45;&gt;Node34 -->
<g id="edge3" class="edge"><title>Node31&#45;&gt;Node34</title>
<path fill="none" stroke="midnightblue" d="M140.319,-29.4228C148.744,-28.2805 157.345,-27.1143 165.805,-25.9671"/>
<polygon fill="midnightblue" stroke="midnightblue" points="139.59,-25.9895 130.151,-30.8015 140.531,-32.9261 139.59,-25.9895"/>
</g>
<!-- Node33 -->
<g id="node3" class="node"><title>Node33</title>
<g id="a_node3"><a xlink:href="namespacemom__pressureforce__afv.html#aa3fa5f17809b17fc1c065fb5ba6a11dc" target="_top" xlink:title="Thin interface between the model and the Boussinesq and non&#45;Boussinesq pressure force routines...">
<polygon fill="white" stroke="black" points="358,-49.5 358,-79.5 480,-79.5 480,-49.5 358,-49.5"/>
<text text-anchor="start" x="366" y="-67.5" font-family="Helvetica,sans-Serif" font-size="10.00">mom_pressureforce_afv</text>
<text text-anchor="middle" x="419" y="-56.5" font-family="Helvetica,sans-Serif" font-size="10.00">::pressureforce_afv</text>
</a>
</g>
</g>
<!-- Node32&#45;&gt;Node33 -->
<g id="edge2" class="edge"><title>Node32&#45;&gt;Node33</title>
<path fill="none" stroke="midnightblue" d="M328.137,-64.5C338.198,-64.5 348.319,-64.5 357.956,-64.5"/>
<polygon fill="midnightblue" stroke="midnightblue" points="328.117,-61.0001 318.117,-64.5 328.117,-68.0001 328.117,-61.0001"/>
</g>
</g>
</svg>
