<?xml version="1.0" encoding="UTF-8" standalone="no"?>
<!DOCTYPE svg PUBLIC "-//W3C//DTD SVG 1.1//EN"
 "http://www.w3.org/Graphics/SVG/1.1/DTD/svg11.dtd">
<!-- Generated by graphviz version 2.38.0 (20140413.2041)
 -->
<!-- Title: mom_diag_mediator::query_averaging_enabled Pages: 1 -->
<!--zoomable 312 -->
<svg id="main" version="1.1" xmlns="http://www.w3.org/2000/svg" xmlns:xlink="http://www.w3.org/1999/xlink" xml:space="preserve" onload="init(evt)">
<style type="text/css"><![CDATA[
.edge:hover path { stroke: red; }
.edge:hover polygon { stroke: red; fill: red; }
]]></style>
<script type="text/javascript"><![CDATA[
var edges = document.getElementsByTagName('g');
if (edges && edges.length) {
  for (var i=0;i<edges.length;i++) {
    if (edges[i].id.substr(0,4)=='edge') {
      edges[i].setAttribute('class','edge');
    }
  }
}
]]></script>
        <defs>
                <circle id="rim" cx="0" cy="0" r="7"/>
                <circle id="rim2" cx="0" cy="0" r="3.5"/>
                <g id="zoomPlus">
                        <use xlink:href="#rim" fill="#404040">
                                <set attributeName="fill" to="#808080" begin="zoomplus.mouseover" end="zoomplus.mouseout"/>
                        </use>
                        <path d="M-4,0h8M0,-4v8" fill="none" stroke="white" stroke-width="1.5" pointer-events="none"/>
                </g>
                <g id="zoomMin">
                        <use xlink:href="#rim" fill="#404040">
                                <set attributeName="fill" to="#808080" begin="zoomminus.mouseover" end="zoomminus.mouseout"/>
                        </use>
                        <path d="M-4,0h8" fill="none" stroke="white" stroke-width="1.5" pointer-events="none"/>
                </g>
                <g id="dirArrow">
                        <path fill="none" stroke="white" stroke-width="1.5" d="M0,-3.0v7 M-2.5,-0.5L0,-3.0L2.5,-0.5"/>
                </g>
               <g id="resetDef">
                       <use xlink:href="#rim2" fill="#404040">
                               <set attributeName="fill" to="#808080" begin="reset.mouseover" end="reset.mouseout"/>
                       </use>
               </g>
        </defs>

<script type="text/javascript">
var viewWidth = 640;
var viewHeight = 312;
var sectionId = 'dynsection-35';
</script>
<script xlink:href="svgpan.js"/>
<svg id="graph" class="graph">
<g id="viewport">
<title>mom_diag_mediator::query_averaging_enabled</title>
<polygon fill="white" stroke="none" points="-4,4 -4,-307.5 636,-307.5 636,4 -4,4"/>
<!-- Node278 -->
<g id="node1" class="node"><title>Node278</title>
<polygon fill="#bfbfbf" stroke="black" points="0,-120.5 0,-150.5 127,-150.5 127,-120.5 0,-120.5"/>
<text text-anchor="start" x="8" y="-138.5" font-family="Helvetica,sans-Serif" font-size="10.00">mom_diag_mediator::</text>
<text text-anchor="middle" x="63.5" y="-127.5" font-family="Helvetica,sans-Serif" font-size="10.00">query_averaging_enabled</text>
</g>
<!-- Node279 -->
<g id="node2" class="node"><title>Node279</title>
<g id="a_node2"><a xlink:href="namespacemom__lateral__mixing__coeffs.html#af206bc656869b4fc27d4d7e8a15d438e" target="_top" xlink:title="Calculates and stores the non&#45;dimensional resolution functions. ">
<polygon fill="white" stroke="black" points="176.5,-262 176.5,-303 280.5,-303 280.5,-262 176.5,-262"/>
<text text-anchor="start" x="184.5" y="-291" font-family="Helvetica,sans-Serif" font-size="10.00">mom_lateral_mixing</text>
<text text-anchor="start" x="184.5" y="-280" font-family="Helvetica,sans-Serif" font-size="10.00">_coeffs::calc_resoln</text>
<text text-anchor="middle" x="228.5" y="-269" font-family="Helvetica,sans-Serif" font-size="10.00">_function</text>
</a>
</g>
</g>
<!-- Node278&#45;&gt;Node279 -->
<g id="edge1" class="edge"><title>Node278&#45;&gt;Node279</title>
<path fill="none" stroke="midnightblue" d="M81.2924,-159.09C99.4367,-183.396 130.187,-221.327 163,-247.5 169.574,-252.743 177.045,-257.61 184.514,-261.944"/>
<polygon fill="midnightblue" stroke="midnightblue" points="83.9404,-156.783 75.1975,-150.798 78.3003,-160.929 83.9404,-156.783"/>
</g>
<!-- Node284 -->
<g id="node7" class="node"><title>Node284</title>
<g id="a_node7"><a xlink:href="namespacemom__lateral__mixing__coeffs.html#a8abf768b636e96aafa9544287624523e" target="_top" xlink:title="Calculates and stores functions of isopycnal slopes, e.g. Sx, Sy, S*N, mostly used in the Visbeck et ...">
<polygon fill="white" stroke="black" points="344,-165 344,-206 448,-206 448,-165 344,-165"/>
<text text-anchor="start" x="352" y="-194" font-family="Helvetica,sans-Serif" font-size="10.00">mom_lateral_mixing</text>
<text text-anchor="start" x="352" y="-183" font-family="Helvetica,sans-Serif" font-size="10.00">_coeffs::calc_slope</text>
<text text-anchor="middle" x="396" y="-172" font-family="Helvetica,sans-Serif" font-size="10.00">_functions</text>
</a>
</g>
</g>
<!-- Node278&#45;&gt;Node284 -->
<g id="edge7" class="edge"><title>Node278&#45;&gt;Node284</title>
<path fill="none" stroke="midnightblue" d="M84.1632,-158.2C102.381,-177.356 131.373,-203.384 163,-214.5 222.74,-235.497 295.822,-220.135 343.802,-204.93"/>
<polygon fill="midnightblue" stroke="midnightblue" points="86.6227,-155.705 77.2679,-150.731 81.4791,-160.453 86.6227,-155.705"/>
</g>
<!-- Node285 -->
<g id="node8" class="node"><title>Node285</title>
<g id="a_node8"><a xlink:href="namespacemom__lateral__mixing__coeffs.html#ae625fee7e36d68e290b3af57697d0afe" target="_top" xlink:title="Calculates factors used when setting diffusivity coefficients similar to Visbeck et al...">
<polygon fill="white" stroke="black" points="172.5,-164 172.5,-205 284.5,-205 284.5,-164 172.5,-164"/>
<text text-anchor="start" x="180.5" y="-193" font-family="Helvetica,sans-Serif" font-size="10.00">mom_lateral_mixing</text>
<text text-anchor="start" x="180.5" y="-182" font-family="Helvetica,sans-Serif" font-size="10.00">_coeffs::calc_visbeck</text>
<text text-anchor="middle" x="228.5" y="-171" font-family="Helvetica,sans-Serif" font-size="10.00">_coeffs</text>
</a>
</g>
</g>
<!-- Node278&#45;&gt;Node285 -->
<g id="edge8" class="edge"><title>Node278&#45;&gt;Node285</title>
<path fill="none" stroke="midnightblue" d="M124.336,-153.488C140.032,-158.206 156.884,-163.272 172.324,-167.913"/>
<polygon fill="midnightblue" stroke="midnightblue" points="125.32,-150.129 114.735,-150.601 123.304,-156.832 125.32,-150.129"/>
</g>
<!-- Node286 -->
<g id="node9" class="node"><title>Node286</title>
<g id="a_node9"><a xlink:href="namespacemom__diabatic__driver.html#af76fe90c618a04d7806bc53fe0f7a2a7" target="_top" xlink:title="This subroutine imposes the diapycnal mass fluxes and the accompanying diapycnal advection of momentu...">
<polygon fill="white" stroke="black" points="342.5,-112.5 342.5,-142.5 449.5,-142.5 449.5,-112.5 342.5,-112.5"/>
<text text-anchor="start" x="350.5" y="-130.5" font-family="Helvetica,sans-Serif" font-size="10.00">mom_diabatic_driver</text>
<text text-anchor="middle" x="396" y="-119.5" font-family="Helvetica,sans-Serif" font-size="10.00">::diabatic</text>
</a>
</g>
</g>
<!-- Node278&#45;&gt;Node286 -->
<g id="edge10" class="edge"><title>Node278&#45;&gt;Node286</title>
<path fill="none" stroke="midnightblue" d="M137.171,-133.741C199.248,-132.238 287.057,-130.113 342.499,-128.771"/>
<polygon fill="midnightblue" stroke="midnightblue" points="136.965,-130.245 127.053,-133.986 137.135,-137.243 136.965,-130.245"/>
</g>
<!-- Node287 -->
<g id="node10" class="node"><title>Node287</title>
<g id="a_node10"><a xlink:href="namespacemom__forcing__type.html#aa685fdcd5863af264335aa60b5b4c210" target="_top" xlink:title="Offer buoyancy forcing fields for diagnostics for those fields registered as part of register_forcing...">
<polygon fill="white" stroke="black" points="330,-58.5 330,-88.5 462,-88.5 462,-58.5 330,-58.5"/>
<text text-anchor="start" x="338" y="-76.5" font-family="Helvetica,sans-Serif" font-size="10.00">mom_forcing_type::forcing</text>
<text text-anchor="middle" x="396" y="-65.5" font-family="Helvetica,sans-Serif" font-size="10.00">_diagnostics</text>
</a>
</g>
</g>
<!-- Node278&#45;&gt;Node287 -->
<g id="edge11" class="edge"><title>Node278&#45;&gt;Node287</title>
<path fill="none" stroke="midnightblue" d="M92.2764,-114.311C111.122,-101.274 137.214,-85.7219 163,-78.5 217.797,-63.1531 282.754,-63.2195 329.977,-66.3626"/>
<polygon fill="midnightblue" stroke="midnightblue" points="90.0164,-111.624 83.8978,-120.273 94.0748,-117.327 90.0164,-111.624"/>
</g>
<!-- Node288 -->
<g id="node11" class="node"><title>Node288</title>
<g id="a_node11"><a xlink:href="namespacemom__forcing__type.html#ab19017105329a14ad5130e2f2aa8e475" target="_top" xlink:title="Offer mechanical forcing fields for diagnostics for those fields registered as part of register_forci...">
<polygon fill="white" stroke="black" points="165,-0.5 165,-30.5 292,-30.5 292,-0.5 165,-0.5"/>
<text text-anchor="start" x="173" y="-18.5" font-family="Helvetica,sans-Serif" font-size="10.00">mom_forcing_type::mech</text>
<text text-anchor="middle" x="228.5" y="-7.5" font-family="Helvetica,sans-Serif" font-size="10.00">_forcing_diags</text>
</a>
</g>
</g>
<!-- Node278&#45;&gt;Node288 -->
<g id="edge13" class="edge"><title>Node278&#45;&gt;Node288</title>
<path fill="none" stroke="midnightblue" d="M85.2838,-112.956C104.19,-93.3619 133.561,-65.1194 163,-45.5 171.324,-39.9524 180.838,-34.912 189.955,-30.6133"/>
<polygon fill="midnightblue" stroke="midnightblue" points="82.6902,-110.604 78.3322,-120.261 87.7613,-115.43 82.6902,-110.604"/>
</g>
<!-- Node289 -->
<g id="node12" class="node"><title>Node289</title>
<g id="a_node12"><a xlink:href="namespacemom__opacity.html#aefadc7465f74c0cab731cf1adf5f3a57" target="_top" xlink:title="mom_opacity::set_opacity">
<polygon fill="white" stroke="black" points="163,-88 163,-107 294,-107 294,-88 163,-88"/>
<text text-anchor="middle" x="228.5" y="-95" font-family="Helvetica,sans-Serif" font-size="10.00">mom_opacity::set_opacity</text>
</a>
</g>
</g>
<!-- Node278&#45;&gt;Node289 -->
<g id="edge15" class="edge"><title>Node278&#45;&gt;Node289</title>
<path fill="none" stroke="midnightblue" d="M136.97,-118.605C153.955,-114.646 171.469,-110.563 186.513,-107.055"/>
<polygon fill="midnightblue" stroke="midnightblue" points="135.998,-115.238 127.054,-120.917 137.587,-122.055 135.998,-115.238"/>
</g>
<!-- Node280 -->
<g id="node3" class="node"><title>Node280</title>
<g id="a_node3"><a xlink:href="namespacemom.html#a4c8332b095c6d295084089aa6b3b678a" target="_top" xlink:title="This subroutine orchestrates the time stepping of MOM. The adiabatic dynamics are stepped by calls to...">
<polygon fill="white" stroke="black" points="351,-230 351,-249 441,-249 441,-230 351,-230"/>
<text text-anchor="middle" x="396" y="-237" font-family="Helvetica,sans-Serif" font-size="10.00">mom::step_mom</text>
</a>
</g>
</g>
<!-- Node279&#45;&gt;Node280 -->
<g id="edge2" class="edge"><title>Node279&#45;&gt;Node280</title>
<path fill="none" stroke="midnightblue" d="M290.445,-266.665C313.239,-260.743 338.411,-254.203 358.343,-249.024"/>
<polygon fill="midnightblue" stroke="midnightblue" points="289.304,-263.345 280.506,-269.248 291.065,-270.12 289.304,-263.345"/>
</g>
<!-- Node282 -->
<g id="node5" class="node"><title>Node282</title>
<g id="a_node5"><a xlink:href="namespacemom.html#ad56e17a755c7078ccea29ccbae4d5803" target="_top" xlink:title="step_offline is the main driver for running tracers offline in MOM6. This has been primarily develope...">
<polygon fill="white" stroke="black" points="348.5,-271 348.5,-290 443.5,-290 443.5,-271 348.5,-271"/>
<text text-anchor="middle" x="396" y="-278" font-family="Helvetica,sans-Serif" font-size="10.00">mom::step_offline</text>
</a>
</g>
</g>
<!-- Node279&#45;&gt;Node282 -->
<g id="edge4" class="edge"><title>Node279&#45;&gt;Node282</title>
<path fill="none" stroke="midnightblue" d="M290.615,-281.761C309.709,-281.531 330.456,-281.28 348.386,-281.063"/>
<polygon fill="midnightblue" stroke="midnightblue" points="290.463,-278.263 280.506,-281.884 290.547,-285.262 290.463,-278.263"/>
</g>
<!-- Node281 -->
<g id="node4" class="node"><title>Node281</title>
<g id="a_node4"><a xlink:href="MOM__driver_8F90.html#a08fffeb2d8e8acbf9ed4609be6d258c6" target="_top" xlink:title="mom_main">
<polygon fill="white" stroke="black" points="532.5,-145 532.5,-164 597.5,-164 597.5,-145 532.5,-145"/>
<text text-anchor="middle" x="565" y="-152" font-family="Helvetica,sans-Serif" font-size="10.00">mom_main</text>
</a>
</g>
</g>
<!-- Node280&#45;&gt;Node281 -->
<g id="edge3" class="edge"><title>Node280&#45;&gt;Node281</title>
<path fill="none" stroke="midnightblue" d="M435.885,-226.48C444.605,-223.193 453.722,-219.461 462,-215.5 494.757,-199.824 530.684,-176.871 549.94,-164.055"/>
<polygon fill="midnightblue" stroke="midnightblue" points="434.466,-223.273 426.274,-229.991 436.867,-229.848 434.466,-223.273"/>
</g>
<!-- Node282&#45;&gt;Node281 -->
<g id="edge5" class="edge"><title>Node282&#45;&gt;Node281</title>
<path fill="none" stroke="midnightblue" d="M444.655,-267.295C450.699,-264.786 456.637,-261.868 462,-258.5 504.192,-232.005 541.85,-184.701 556.967,-164.304"/>
<polygon fill="midnightblue" stroke="midnightblue" points="443.246,-264.086 435.139,-270.908 445.73,-270.63 443.246,-264.086"/>
</g>
<!-- Node283 -->
<g id="node6" class="node"><title>Node283</title>
<g id="a_node6"><a xlink:href="namespaceocean__model__mod.html#ac9dc1795fc4799d6682f462857b42d62" target="_top" xlink:title="ocean_model_mod::update\l_ocean_model">
<polygon fill="white" stroke="black" points="498,-265.5 498,-295.5 632,-295.5 632,-265.5 498,-265.5"/>
<text text-anchor="start" x="506" y="-283.5" font-family="Helvetica,sans-Serif" font-size="10.00">ocean_model_mod::update</text>
<text text-anchor="middle" x="565" y="-272.5" font-family="Helvetica,sans-Serif" font-size="10.00">_ocean_model</text>
</a>
</g>
</g>
<!-- Node282&#45;&gt;Node283 -->
<g id="edge6" class="edge"><title>Node282&#45;&gt;Node283</title>
<path fill="none" stroke="midnightblue" d="M453.618,-280.5C467.805,-280.5 483.152,-280.5 497.761,-280.5"/>
<polygon fill="midnightblue" stroke="midnightblue" points="453.519,-277 443.519,-280.5 453.519,-284 453.519,-277"/>
</g>
<!-- Node285&#45;&gt;Node284 -->
<g id="edge9" class="edge"><title>Node285&#45;&gt;Node284</title>
<path fill="none" stroke="midnightblue" d="M294.624,-184.893C310.946,-184.992 328.228,-185.097 343.766,-185.19"/>
<polygon fill="midnightblue" stroke="midnightblue" points="294.63,-181.394 284.609,-184.833 294.588,-188.393 294.63,-181.394"/>
</g>
<!-- Node287&#45;&gt;Node281 -->
<g id="edge12" class="edge"><title>Node287&#45;&gt;Node281</title>
<path fill="none" stroke="midnightblue" d="M441.022,-92.7697C448.066,-95.9595 455.254,-99.2782 462,-102.5 491.595,-116.634 525.413,-134.15 545.716,-144.817"/>
<polygon fill="midnightblue" stroke="midnightblue" points="442.117,-89.4247 431.561,-88.521 439.249,-95.8104 442.117,-89.4247"/>
</g>
<!-- Node288&#45;&gt;Node281 -->
<g id="edge14" class="edge"><title>Node288&#45;&gt;Node281</title>
<path fill="none" stroke="midnightblue" d="M302.306,-13.8104C350.086,-15.5128 412.63,-23.2468 462,-48.5 507.475,-71.7605 544.151,-123.374 558.021,-144.841"/>
<polygon fill="midnightblue" stroke="midnightblue" points="302.13,-10.3044 292.038,-13.5285 301.938,-17.3017 302.13,-10.3044"/>
</g>
<!-- Node289&#45;&gt;Node286 -->
<g id="edge16" class="edge"><title>Node289&#45;&gt;Node286</title>
<path fill="none" stroke="midnightblue" d="M292.417,-108.905C308.905,-111.894 326.51,-115.085 342.398,-117.965"/>
<polygon fill="midnightblue" stroke="midnightblue" points="292.784,-105.414 282.32,-107.075 291.536,-112.302 292.784,-105.414"/>
</g>
</g>
</svg>
        <g id="navigator" transform="translate(0 0)" fill="#404254">
                <rect fill="#f2f5e9" fill-opacity="0.5" stroke="#606060" stroke-width=".5" x="0" y="0" width="60" height="60"/>
                <use id="zoomplus" xlink:href="#zoomPlus" x="17" y="9" onmousedown="handleZoom(evt,'in')"/>
                <use id="zoomminus" xlink:href="#zoomMin" x="42" y="9" onmousedown="handleZoom(evt,'out')"/>
                <use id="reset" xlink:href="#resetDef" x="30" y="36" onmousedown="handleReset()"/>
                <g id="arrowUp" xlink:href="#dirArrow" transform="translate(30 24)" onmousedown="handlePan(0,-1)">
                  <use xlink:href="#rim" fill="#404040">
                        <set attributeName="fill" to="#808080" begin="arrowUp.mouseover" end="arrowUp.mouseout"/>
                  </use>
                  <path fill="none" stroke="white" stroke-width="1.5" d="M0,-3.0v7 M-2.5,-0.5L0,-3.0L2.5,-0.5"/>
                </g>
                <g id="arrowRight" xlink:href="#dirArrow" transform="rotate(90) translate(36 -43)" onmousedown="handlePan(1,0)">
                  <use xlink:href="#rim" fill="#404040">
                        <set attributeName="fill" to="#808080" begin="arrowRight.mouseover" end="arrowRight.mouseout"/>
                  </use>
                  <path fill="none" stroke="white" stroke-width="1.5" d="M0,-3.0v7 M-2.5,-0.5L0,-3.0L2.5,-0.5"/>
                </g>
                <g id="arrowDown" xlink:href="#dirArrow" transform="rotate(180) translate(-30 -48)" onmousedown="handlePan(0,1)">
                  <use xlink:href="#rim" fill="#404040">
                        <set attributeName="fill" to="#808080" begin="arrowDown.mouseover" end="arrowDown.mouseout"/>
                  </use>
                  <path fill="none" stroke="white" stroke-width="1.5" d="M0,-3.0v7 M-2.5,-0.5L0,-3.0L2.5,-0.5"/>
                </g>
                <g id="arrowLeft" xlink:href="#dirArrow" transform="rotate(270) translate(-36 17)" onmousedown="handlePan(-1,0)">
                  <use xlink:href="#rim" fill="#404040">
                        <set attributeName="fill" to="#808080" begin="arrowLeft.mouseover" end="arrowLeft.mouseout"/>
                  </use>
                  <path fill="none" stroke="white" stroke-width="1.5" d="M0,-3.0v7 M-2.5,-0.5L0,-3.0L2.5,-0.5"/>
                </g>
        </g>
        <svg viewBox="0 0 15 15" width="100%" height="30px" preserveAspectRatio="xMaxYMin meet">
         <g id="arrow_out" transform="scale(0.3 0.3)">
          <a xlink:href="namespacemom__diag__mediator_a0be5d1cbc6c6f8f63950ce7d9bc6455a_icgraph_org.svg" target="_base">
           <rect id="button" ry="5" rx="5" y="6" x="6" height="38" width="38"
                fill="#f2f5e9" fill-opacity="0.5" stroke="#606060" stroke-width="1.0"/>
           <path id="arrow"
             d="M 11.500037,31.436501 C 11.940474,20.09759 22.043105,11.32322 32.158766,21.979434 L 37.068811,17.246167 C 37.068811,17.246167 37.088388,32 37.088388,32 L 22.160133,31.978069 C 22.160133,31.978069 26.997745,27.140456 26.997745,27.140456 C 18.528582,18.264221 13.291696,25.230495 11.500037,31.436501 z"
             style="fill:#404040;"/>
          </a>
         </g>
        </svg>
</svg>
