<?xml version="1.0" encoding="UTF-8" standalone="no"?>
<!DOCTYPE svg PUBLIC "-//W3C//DTD SVG 1.1//EN"
 "http://www.w3.org/Graphics/SVG/1.1/DTD/svg11.dtd">
<!-- Generated by graphviz version 2.38.0 (20140413.2041)
 -->
<!-- Title: mom_file_parser::flag_line_as_read Pages: 1 -->
<!--zoomable 382 -->
<svg id="main" version="1.1" xmlns="http://www.w3.org/2000/svg" xmlns:xlink="http://www.w3.org/1999/xlink" xml:space="preserve" onload="init(evt)">
<style type="text/css"><![CDATA[
.edge:hover path { stroke: red; }
.edge:hover polygon { stroke: red; fill: red; }
]]></style>
<script type="text/javascript"><![CDATA[
var edges = document.getElementsByTagName('g');
if (edges && edges.length) {
  for (var i=0;i<edges.length;i++) {
    if (edges[i].id.substr(0,4)=='edge') {
      edges[i].setAttribute('class','edge');
    }
  }
}
]]></script>
        <defs>
                <circle id="rim" cx="0" cy="0" r="7"/>
                <circle id="rim2" cx="0" cy="0" r="3.5"/>
                <g id="zoomPlus">
                        <use xlink:href="#rim" fill="#404040">
                                <set attributeName="fill" to="#808080" begin="zoomplus.mouseover" end="zoomplus.mouseout"/>
                        </use>
                        <path d="M-4,0h8M0,-4v8" fill="none" stroke="white" stroke-width="1.5" pointer-events="none"/>
                </g>
                <g id="zoomMin">
                        <use xlink:href="#rim" fill="#404040">
                                <set attributeName="fill" to="#808080" begin="zoomminus.mouseover" end="zoomminus.mouseout"/>
                        </use>
                        <path d="M-4,0h8" fill="none" stroke="white" stroke-width="1.5" pointer-events="none"/>
                </g>
                <g id="dirArrow">
                        <path fill="none" stroke="white" stroke-width="1.5" d="M0,-3.0v7 M-2.5,-0.5L0,-3.0L2.5,-0.5"/>
                </g>
               <g id="resetDef">
                       <use xlink:href="#rim2" fill="#404040">
                               <set attributeName="fill" to="#808080" begin="reset.mouseover" end="reset.mouseout"/>
                       </use>
               </g>
        </defs>

<script type="text/javascript">
var viewWidth = 555;
var viewHeight = 382;
var sectionId = 'dynsection-7';
</script>
<script xlink:href="svgpan.js"/>
<svg id="graph" class="graph">
<g id="viewport">
<title>mom_file_parser::flag_line_as_read</title>
<polygon fill="white" stroke="none" points="-4,4 -4,-378 551,-378 551,4 -4,4"/>
<!-- Node38 -->
<g id="node1" class="node"><title>Node38</title>
<polygon fill="#bfbfbf" stroke="black" points="0,-171.5 0,-201.5 110,-201.5 110,-171.5 0,-171.5"/>
<text text-anchor="start" x="8" y="-189.5" font-family="Helvetica,sans-Serif" font-size="10.00">mom_file_parser::flag</text>
<text text-anchor="middle" x="55" y="-178.5" font-family="Helvetica,sans-Serif" font-size="10.00">_line_as_read</text>
</g>
<!-- Node39 -->
<g id="node2" class="node"><title>Node39</title>
<g id="a_node2"><a xlink:href="namespacemom__file__parser.html#af883df6020543889b25986d6ee9701f7" target="_top" xlink:title="mom_file_parser::get\l_variable_line">
<polygon fill="white" stroke="black" points="146,-171.5 146,-201.5 254,-201.5 254,-171.5 146,-171.5"/>
<text text-anchor="start" x="154" y="-189.5" font-family="Helvetica,sans-Serif" font-size="10.00">mom_file_parser::get</text>
<text text-anchor="middle" x="200" y="-178.5" font-family="Helvetica,sans-Serif" font-size="10.00">_variable_line</text>
</a>
</g>
</g>
<!-- Node38&#45;&gt;Node39 -->
<g id="edge1" class="edge"><title>Node38&#45;&gt;Node39</title>
<path fill="none" stroke="midnightblue" d="M120.066,-186.5C128.671,-186.5 137.42,-186.5 145.809,-186.5"/>
<polygon fill="midnightblue" stroke="midnightblue" points="120.062,-183 110.062,-186.5 120.062,-190 120.062,-183"/>
</g>
<!-- Node40 -->
<g id="node3" class="node"><title>Node40</title>
<g id="a_node3"><a xlink:href="namespacemom__file__parser.html#a28352549cebdb1f8ed8db3655258d502" target="_top" xlink:title="mom_file_parser::read\l_param_int">
<polygon fill="white" stroke="black" points="290,-343.5 290,-373.5 403,-373.5 403,-343.5 290,-343.5"/>
<text text-anchor="start" x="298" y="-361.5" font-family="Helvetica,sans-Serif" font-size="10.00">mom_file_parser::read</text>
<text text-anchor="middle" x="346.5" y="-350.5" font-family="Helvetica,sans-Serif" font-size="10.00">_param_int</text>
</a>
</g>
</g>
<!-- Node39&#45;&gt;Node40 -->
<g id="edge2" class="edge"><title>Node39&#45;&gt;Node40</title>
<path fill="none" stroke="midnightblue" d="M210.219,-211.167C223.404,-243.441 250.498,-299.94 290,-334.5 293.871,-337.887 298.294,-340.857 302.915,-343.445"/>
<polygon fill="midnightblue" stroke="midnightblue" points="213.366,-209.607 206.429,-201.599 206.858,-212.185 213.366,-209.607"/>
</g>
<!-- Node42 -->
<g id="node5" class="node"><title>Node42</title>
<g id="a_node5"><a xlink:href="namespacemom__file__parser.html#a9f3cacd113743a19df607293b6c30ec7" target="_top" xlink:title="mom_file_parser::read\l_param_int_array">
<polygon fill="white" stroke="black" points="290,-294.5 290,-324.5 403,-324.5 403,-294.5 290,-294.5"/>
<text text-anchor="start" x="298" y="-312.5" font-family="Helvetica,sans-Serif" font-size="10.00">mom_file_parser::read</text>
<text text-anchor="middle" x="346.5" y="-301.5" font-family="Helvetica,sans-Serif" font-size="10.00">_param_int_array</text>
</a>
</g>
</g>
<!-- Node39&#45;&gt;Node42 -->
<g id="edge4" class="edge"><title>Node39&#45;&gt;Node42</title>
<path fill="none" stroke="midnightblue" d="M217.374,-209.903C233.691,-231.824 260.512,-264.299 290,-285.5 294.603,-288.809 299.733,-291.79 304.964,-294.434"/>
<polygon fill="midnightblue" stroke="midnightblue" points="220.171,-207.799 211.449,-201.783 214.516,-211.924 220.171,-207.799"/>
</g>
<!-- Node44 -->
<g id="node7" class="node"><title>Node44</title>
<g id="a_node7"><a xlink:href="namespacemom__file__parser.html#ae390a91e4e858aa5dd3f88569aa9585e" target="_top" xlink:title="mom_file_parser::read\l_param_real">
<polygon fill="white" stroke="black" points="290,-245.5 290,-275.5 403,-275.5 403,-245.5 290,-245.5"/>
<text text-anchor="start" x="298" y="-263.5" font-family="Helvetica,sans-Serif" font-size="10.00">mom_file_parser::read</text>
<text text-anchor="middle" x="346.5" y="-252.5" font-family="Helvetica,sans-Serif" font-size="10.00">_param_real</text>
</a>
</g>
</g>
<!-- Node39&#45;&gt;Node44 -->
<g id="edge6" class="edge"><title>Node39&#45;&gt;Node44</title>
<path fill="none" stroke="midnightblue" d="M235.026,-206.71C251.427,-216.167 271.509,-227.339 290,-236.5 296.114,-239.529 302.702,-242.568 309.128,-245.415"/>
<polygon fill="midnightblue" stroke="midnightblue" points="236.732,-203.653 226.327,-201.656 233.216,-209.706 236.732,-203.653"/>
</g>
<!-- Node46 -->
<g id="node9" class="node"><title>Node46</title>
<g id="a_node9"><a xlink:href="namespacemom__file__parser.html#aea75f399368c1aa2215ba703f0639726" target="_top" xlink:title="mom_file_parser::read\l_param_real_array">
<polygon fill="white" stroke="black" points="290,-196.5 290,-226.5 403,-226.5 403,-196.5 290,-196.5"/>
<text text-anchor="start" x="298" y="-214.5" font-family="Helvetica,sans-Serif" font-size="10.00">mom_file_parser::read</text>
<text text-anchor="middle" x="346.5" y="-203.5" font-family="Helvetica,sans-Serif" font-size="10.00">_param_real_array</text>
</a>
</g>
</g>
<!-- Node39&#45;&gt;Node46 -->
<g id="edge8" class="edge"><title>Node39&#45;&gt;Node46</title>
<path fill="none" stroke="midnightblue" d="M264.3,-197.452C272.827,-198.927 281.524,-200.431 289.904,-201.881"/>
<polygon fill="midnightblue" stroke="midnightblue" points="264.846,-193.994 254.396,-195.738 263.653,-200.892 264.846,-193.994"/>
</g>
<!-- Node48 -->
<g id="node11" class="node"><title>Node48</title>
<g id="a_node11"><a xlink:href="namespacemom__file__parser.html#a14c84db15e417656105f7303ad0ac2a2" target="_top" xlink:title="mom_file_parser::read\l_param_char">
<polygon fill="white" stroke="black" points="290,-147.5 290,-177.5 403,-177.5 403,-147.5 290,-147.5"/>
<text text-anchor="start" x="298" y="-165.5" font-family="Helvetica,sans-Serif" font-size="10.00">mom_file_parser::read</text>
<text text-anchor="middle" x="346.5" y="-154.5" font-family="Helvetica,sans-Serif" font-size="10.00">_param_char</text>
</a>
</g>
</g>
<!-- Node39&#45;&gt;Node48 -->
<g id="edge10" class="edge"><title>Node39&#45;&gt;Node48</title>
<path fill="none" stroke="midnightblue" d="M264.3,-175.987C272.827,-174.57 281.524,-173.126 289.904,-171.734"/>
<polygon fill="midnightblue" stroke="midnightblue" points="263.687,-172.54 254.396,-177.631 264.834,-179.446 263.687,-172.54"/>
</g>
<!-- Node50 -->
<g id="node13" class="node"><title>Node50</title>
<g id="a_node13"><a xlink:href="namespacemom__file__parser.html#a67808253e247b2542d0810e7c7f598f4" target="_top" xlink:title="mom_file_parser::read\l_param_char_array">
<polygon fill="white" stroke="black" points="290,-98.5 290,-128.5 403,-128.5 403,-98.5 290,-98.5"/>
<text text-anchor="start" x="298" y="-116.5" font-family="Helvetica,sans-Serif" font-size="10.00">mom_file_parser::read</text>
<text text-anchor="middle" x="346.5" y="-105.5" font-family="Helvetica,sans-Serif" font-size="10.00">_param_char_array</text>
</a>
</g>
</g>
<!-- Node39&#45;&gt;Node50 -->
<g id="edge12" class="edge"><title>Node39&#45;&gt;Node50</title>
<path fill="none" stroke="midnightblue" d="M237.061,-166.295C253.128,-157.489 272.37,-147.211 290,-138.5 296.727,-135.176 303.991,-131.773 310.978,-128.59"/>
<polygon fill="midnightblue" stroke="midnightblue" points="235.073,-163.394 228.004,-171.286 238.451,-169.525 235.073,-163.394"/>
</g>
<!-- Node52 -->
<g id="node15" class="node"><title>Node52</title>
<g id="a_node15"><a xlink:href="namespacemom__file__parser.html#ae12cfb8a4de90b0454683ba5810c79a2" target="_top" xlink:title="mom_file_parser::read\l_param_logical">
<polygon fill="white" stroke="black" points="290,-49.5 290,-79.5 403,-79.5 403,-49.5 290,-49.5"/>
<text text-anchor="start" x="298" y="-67.5" font-family="Helvetica,sans-Serif" font-size="10.00">mom_file_parser::read</text>
<text text-anchor="middle" x="346.5" y="-56.5" font-family="Helvetica,sans-Serif" font-size="10.00">_param_logical</text>
</a>
</g>
</g>
<!-- Node39&#45;&gt;Node52 -->
<g id="edge14" class="edge"><title>Node39&#45;&gt;Node52</title>
<path fill="none" stroke="midnightblue" d="M218.041,-163.042C234.524,-141.661 261.184,-110.326 290,-89.5 295.053,-85.8478 300.725,-82.5512 306.463,-79.6402"/>
<polygon fill="midnightblue" stroke="midnightblue" points="215.068,-161.171 211.829,-171.259 220.651,-165.393 215.068,-161.171"/>
</g>
<!-- Node54 -->
<g id="node17" class="node"><title>Node54</title>
<g id="a_node17"><a xlink:href="namespacemom__file__parser.html#a799f1d8af038c5a64b7496018f03b590" target="_top" xlink:title="mom_file_parser::read\l_param_time">
<polygon fill="white" stroke="black" points="290,-0.5 290,-30.5 403,-30.5 403,-0.5 290,-0.5"/>
<text text-anchor="start" x="298" y="-18.5" font-family="Helvetica,sans-Serif" font-size="10.00">mom_file_parser::read</text>
<text text-anchor="middle" x="346.5" y="-7.5" font-family="Helvetica,sans-Serif" font-size="10.00">_param_time</text>
</a>
</g>
</g>
<!-- Node39&#45;&gt;Node54 -->
<g id="edge16" class="edge"><title>Node39&#45;&gt;Node54</title>
<path fill="none" stroke="midnightblue" d="M210.591,-161.764C224.031,-129.946 251.246,-74.7166 290,-40.5 294.278,-36.723 299.22,-33.4271 304.357,-30.5773"/>
<polygon fill="midnightblue" stroke="midnightblue" points="207.271,-160.635 206.714,-171.215 213.747,-163.292 207.271,-160.635"/>
</g>
<!-- Node41 -->
<g id="node4" class="node"><title>Node41</title>
<g id="a_node4"><a xlink:href="namespacemom__file__parser.html#a797f8bbed6aae6cc7338c658cca42386" target="_top" xlink:title="mom_file_parser::get\l_param_int">
<polygon fill="white" stroke="black" points="439,-343.5 439,-373.5 547,-373.5 547,-343.5 439,-343.5"/>
<text text-anchor="start" x="447" y="-361.5" font-family="Helvetica,sans-Serif" font-size="10.00">mom_file_parser::get</text>
<text text-anchor="middle" x="493" y="-350.5" font-family="Helvetica,sans-Serif" font-size="10.00">_param_int</text>
</a>
</g>
</g>
<!-- Node40&#45;&gt;Node41 -->
<g id="edge3" class="edge"><title>Node40&#45;&gt;Node41</title>
<path fill="none" stroke="midnightblue" d="M413.541,-358.5C421.952,-358.5 430.477,-358.5 438.654,-358.5"/>
<polygon fill="midnightblue" stroke="midnightblue" points="413.368,-355 403.367,-358.5 413.367,-362 413.368,-355"/>
</g>
<!-- Node43 -->
<g id="node6" class="node"><title>Node43</title>
<g id="a_node6"><a xlink:href="namespacemom__file__parser.html#a6044e9a5add3d31c9c953a8a713fbb78" target="_top" xlink:title="mom_file_parser::get\l_param_int_array">
<polygon fill="white" stroke="black" points="439,-294.5 439,-324.5 547,-324.5 547,-294.5 439,-294.5"/>
<text text-anchor="start" x="447" y="-312.5" font-family="Helvetica,sans-Serif" font-size="10.00">mom_file_parser::get</text>
<text text-anchor="middle" x="493" y="-301.5" font-family="Helvetica,sans-Serif" font-size="10.00">_param_int_array</text>
</a>
</g>
</g>
<!-- Node42&#45;&gt;Node43 -->
<g id="edge5" class="edge"><title>Node42&#45;&gt;Node43</title>
<path fill="none" stroke="midnightblue" d="M413.541,-309.5C421.952,-309.5 430.477,-309.5 438.654,-309.5"/>
<polygon fill="midnightblue" stroke="midnightblue" points="413.368,-306 403.367,-309.5 413.367,-313 413.368,-306"/>
</g>
<!-- Node45 -->
<g id="node8" class="node"><title>Node45</title>
<g id="a_node8"><a xlink:href="namespacemom__file__parser.html#ad3ab0b86ed8dbac8c4ae556c24a6dd07" target="_top" xlink:title="mom_file_parser::get\l_param_real">
<polygon fill="white" stroke="black" points="439,-245.5 439,-275.5 547,-275.5 547,-245.5 439,-245.5"/>
<text text-anchor="start" x="447" y="-263.5" font-family="Helvetica,sans-Serif" font-size="10.00">mom_file_parser::get</text>
<text text-anchor="middle" x="493" y="-252.5" font-family="Helvetica,sans-Serif" font-size="10.00">_param_real</text>
</a>
</g>
</g>
<!-- Node44&#45;&gt;Node45 -->
<g id="edge7" class="edge"><title>Node44&#45;&gt;Node45</title>
<path fill="none" stroke="midnightblue" d="M413.541,-260.5C421.952,-260.5 430.477,-260.5 438.654,-260.5"/>
<polygon fill="midnightblue" stroke="midnightblue" points="413.368,-257 403.367,-260.5 413.367,-264 413.368,-257"/>
</g>
<!-- Node47 -->
<g id="node10" class="node"><title>Node47</title>
<g id="a_node10"><a xlink:href="namespacemom__file__parser.html#af43ea79dcb7ced6a6bf49d438d105f76" target="_top" xlink:title="mom_file_parser::get\l_param_real_array">
<polygon fill="white" stroke="black" points="439,-196.5 439,-226.5 547,-226.5 547,-196.5 439,-196.5"/>
<text text-anchor="start" x="447" y="-214.5" font-family="Helvetica,sans-Serif" font-size="10.00">mom_file_parser::get</text>
<text text-anchor="middle" x="493" y="-203.5" font-family="Helvetica,sans-Serif" font-size="10.00">_param_real_array</text>
</a>
</g>
</g>
<!-- Node46&#45;&gt;Node47 -->
<g id="edge9" class="edge"><title>Node46&#45;&gt;Node47</title>
<path fill="none" stroke="midnightblue" d="M413.541,-211.5C421.952,-211.5 430.477,-211.5 438.654,-211.5"/>
<polygon fill="midnightblue" stroke="midnightblue" points="413.368,-208 403.367,-211.5 413.367,-215 413.368,-208"/>
</g>
<!-- Node49 -->
<g id="node12" class="node"><title>Node49</title>
<g id="a_node12"><a xlink:href="namespacemom__file__parser.html#a73ba84992b53a7898e3ea651da1847ed" target="_top" xlink:title="mom_file_parser::get\l_param_char">
<polygon fill="white" stroke="black" points="439,-147.5 439,-177.5 547,-177.5 547,-147.5 439,-147.5"/>
<text text-anchor="start" x="447" y="-165.5" font-family="Helvetica,sans-Serif" font-size="10.00">mom_file_parser::get</text>
<text text-anchor="middle" x="493" y="-154.5" font-family="Helvetica,sans-Serif" font-size="10.00">_param_char</text>
</a>
</g>
</g>
<!-- Node48&#45;&gt;Node49 -->
<g id="edge11" class="edge"><title>Node48&#45;&gt;Node49</title>
<path fill="none" stroke="midnightblue" d="M413.541,-162.5C421.952,-162.5 430.477,-162.5 438.654,-162.5"/>
<polygon fill="midnightblue" stroke="midnightblue" points="413.368,-159 403.367,-162.5 413.367,-166 413.368,-159"/>
</g>
<!-- Node51 -->
<g id="node14" class="node"><title>Node51</title>
<g id="a_node14"><a xlink:href="namespacemom__file__parser.html#aa3f8a251fb4f7bbae28b136ebc17a8f3" target="_top" xlink:title="mom_file_parser::get\l_param_char_array">
<polygon fill="white" stroke="black" points="439,-98.5 439,-128.5 547,-128.5 547,-98.5 439,-98.5"/>
<text text-anchor="start" x="447" y="-116.5" font-family="Helvetica,sans-Serif" font-size="10.00">mom_file_parser::get</text>
<text text-anchor="middle" x="493" y="-105.5" font-family="Helvetica,sans-Serif" font-size="10.00">_param_char_array</text>
</a>
</g>
</g>
<!-- Node50&#45;&gt;Node51 -->
<g id="edge13" class="edge"><title>Node50&#45;&gt;Node51</title>
<path fill="none" stroke="midnightblue" d="M413.541,-113.5C421.952,-113.5 430.477,-113.5 438.654,-113.5"/>
<polygon fill="midnightblue" stroke="midnightblue" points="413.368,-110 403.367,-113.5 413.367,-117 413.368,-110"/>
</g>
<!-- Node53 -->
<g id="node16" class="node"><title>Node53</title>
<g id="a_node16"><a xlink:href="namespacemom__file__parser.html#a94ff881b3a1fd1f0a013f52f0220810a" target="_top" xlink:title="mom_file_parser::get\l_param_logical">
<polygon fill="white" stroke="black" points="439,-49.5 439,-79.5 547,-79.5 547,-49.5 439,-49.5"/>
<text text-anchor="start" x="447" y="-67.5" font-family="Helvetica,sans-Serif" font-size="10.00">mom_file_parser::get</text>
<text text-anchor="middle" x="493" y="-56.5" font-family="Helvetica,sans-Serif" font-size="10.00">_param_logical</text>
</a>
</g>
</g>
<!-- Node52&#45;&gt;Node53 -->
<g id="edge15" class="edge"><title>Node52&#45;&gt;Node53</title>
<path fill="none" stroke="midnightblue" d="M413.541,-64.5C421.952,-64.5 430.477,-64.5 438.654,-64.5"/>
<polygon fill="midnightblue" stroke="midnightblue" points="413.368,-61.0001 403.367,-64.5 413.367,-68.0001 413.368,-61.0001"/>
</g>
<!-- Node55 -->
<g id="node18" class="node"><title>Node55</title>
<g id="a_node18"><a xlink:href="namespacemom__file__parser.html#afc249b1d8fb63bd4102b52c83030ce73" target="_top" xlink:title="mom_file_parser::get\l_param_time">
<polygon fill="white" stroke="black" points="439,-0.5 439,-30.5 547,-30.5 547,-0.5 439,-0.5"/>
<text text-anchor="start" x="447" y="-18.5" font-family="Helvetica,sans-Serif" font-size="10.00">mom_file_parser::get</text>
<text text-anchor="middle" x="493" y="-7.5" font-family="Helvetica,sans-Serif" font-size="10.00">_param_time</text>
</a>
</g>
</g>
<!-- Node54&#45;&gt;Node55 -->
<g id="edge17" class="edge"><title>Node54&#45;&gt;Node55</title>
<path fill="none" stroke="midnightblue" d="M413.541,-15.5C421.952,-15.5 430.477,-15.5 438.654,-15.5"/>
<polygon fill="midnightblue" stroke="midnightblue" points="413.368,-12.0001 403.367,-15.5 413.367,-19.0001 413.368,-12.0001"/>
</g>
</g>
</svg>
        <g id="navigator" transform="translate(0 0)" fill="#404254">
                <rect fill="#f2f5e9" fill-opacity="0.5" stroke="#606060" stroke-width=".5" x="0" y="0" width="60" height="60"/>
                <use id="zoomplus" xlink:href="#zoomPlus" x="17" y="9" onmousedown="handleZoom(evt,'in')"/>
                <use id="zoomminus" xlink:href="#zoomMin" x="42" y="9" onmousedown="handleZoom(evt,'out')"/>
                <use id="reset" xlink:href="#resetDef" x="30" y="36" onmousedown="handleReset()"/>
                <g id="arrowUp" xlink:href="#dirArrow" transform="translate(30 24)" onmousedown="handlePan(0,-1)">
                  <use xlink:href="#rim" fill="#404040">
                        <set attributeName="fill" to="#808080" begin="arrowUp.mouseover" end="arrowUp.mouseout"/>
                  </use>
                  <path fill="none" stroke="white" stroke-width="1.5" d="M0,-3.0v7 M-2.5,-0.5L0,-3.0L2.5,-0.5"/>
                </g>
                <g id="arrowRight" xlink:href="#dirArrow" transform="rotate(90) translate(36 -43)" onmousedown="handlePan(1,0)">
                  <use xlink:href="#rim" fill="#404040">
                        <set attributeName="fill" to="#808080" begin="arrowRight.mouseover" end="arrowRight.mouseout"/>
                  </use>
                  <path fill="none" stroke="white" stroke-width="1.5" d="M0,-3.0v7 M-2.5,-0.5L0,-3.0L2.5,-0.5"/>
                </g>
                <g id="arrowDown" xlink:href="#dirArrow" transform="rotate(180) translate(-30 -48)" onmousedown="handlePan(0,1)">
                  <use xlink:href="#rim" fill="#404040">
                        <set attributeName="fill" to="#808080" begin="arrowDown.mouseover" end="arrowDown.mouseout"/>
                  </use>
                  <path fill="none" stroke="white" stroke-width="1.5" d="M0,-3.0v7 M-2.5,-0.5L0,-3.0L2.5,-0.5"/>
                </g>
                <g id="arrowLeft" xlink:href="#dirArrow" transform="rotate(270) translate(-36 17)" onmousedown="handlePan(-1,0)">
                  <use xlink:href="#rim" fill="#404040">
                        <set attributeName="fill" to="#808080" begin="arrowLeft.mouseover" end="arrowLeft.mouseout"/>
                  </use>
                  <path fill="none" stroke="white" stroke-width="1.5" d="M0,-3.0v7 M-2.5,-0.5L0,-3.0L2.5,-0.5"/>
                </g>
        </g>
        <svg viewBox="0 0 15 15" width="100%" height="30px" preserveAspectRatio="xMaxYMin meet">
         <g id="arrow_out" transform="scale(0.3 0.3)">
          <a xlink:href="namespacemom__file__parser_a7803aabff129cc7f56d4516bc24613f0_icgraph_org.svg" target="_base">
           <rect id="button" ry="5" rx="5" y="6" x="6" height="38" width="38"
                fill="#f2f5e9" fill-opacity="0.5" stroke="#606060" stroke-width="1.0"/>
           <path id="arrow"
             d="M 11.500037,31.436501 C 11.940474,20.09759 22.043105,11.32322 32.158766,21.979434 L 37.068811,17.246167 C 37.068811,17.246167 37.088388,32 37.088388,32 L 22.160133,31.978069 C 22.160133,31.978069 26.997745,27.140456 26.997745,27.140456 C 18.528582,18.264221 13.291696,25.230495 11.500037,31.436501 z"
             style="fill:#404040;"/>
          </a>
         </g>
        </svg>
</svg>
