<?xml version="1.0" encoding="UTF-8" standalone="no"?>
<!DOCTYPE svg PUBLIC "-//W3C//DTD SVG 1.1//EN"
 "http://www.w3.org/Graphics/SVG/1.1/DTD/svg11.dtd">
<!-- Generated by graphviz version 2.38.0 (20140413.2041)
 -->
<!-- Title: mom_document::doc_param_int_array Pages: 1 -->
<svg width="900pt" height="242pt"
 viewBox="0.00 0.00 900.00 241.50" xmlns="http://www.w3.org/2000/svg" xmlns:xlink="http://www.w3.org/1999/xlink">
<g id="graph0" class="graph" transform="scale(1 1) rotate(0) translate(4 237.5)">
<title>mom_document::doc_param_int_array</title>
<polygon fill="white" stroke="none" points="-4,4 -4,-237.5 896,-237.5 896,4 -4,4"/>
<!-- Node75 -->
<g id="node1" class="node"><title>Node75</title>
<polygon fill="#bfbfbf" stroke="black" points="0,-102 0,-132 140,-132 140,-102 0,-102"/>
<text text-anchor="start" x="8" y="-120" font-family="Helvetica,sans-Serif" font-size="10.00">mom_document::doc_param</text>
<text text-anchor="middle" x="70" y="-109" font-family="Helvetica,sans-Serif" font-size="10.00">_int_array</text>
</g>
<!-- Node76 -->
<g id="node2" class="node"><title>Node76</title>
<g id="a_node2"><a xlink:href="namespacemom__document.html#aadc9c21a3f71a85107454b8080d6ec5c" target="_top" xlink:title="mom_document::define\l_string">
<polygon fill="white" stroke="black" points="211.5,-203 211.5,-233 330.5,-233 330.5,-203 211.5,-203"/>
<text text-anchor="start" x="219.5" y="-221" font-family="Helvetica,sans-Serif" font-size="10.00">mom_document::define</text>
<text text-anchor="middle" x="271" y="-210" font-family="Helvetica,sans-Serif" font-size="10.00">_string</text>
</a>
</g>
</g>
<!-- Node75&#45;&gt;Node76 -->
<g id="edge1" class="edge"><title>Node75&#45;&gt;Node76</title>
<path fill="none" stroke="midnightblue" d="M87.585,-132.02C107.301,-149.123 141.848,-176.787 176,-193 183.98,-196.789 192.624,-200.073 201.327,-202.9"/>
<polygon fill="midnightblue" stroke="midnightblue" points="200.56,-206.326 211.147,-205.901 202.606,-199.631 200.56,-206.326"/>
</g>
<!-- Node77 -->
<g id="node3" class="node"><title>Node77</title>
<g id="a_node3"><a xlink:href="namespacemom__document.html#a546c1393f07adc49a43fe5f6af171730" target="_top" xlink:title="mom_document::int_string">
<polygon fill="white" stroke="black" points="205,-164.5 205,-183.5 337,-183.5 337,-164.5 205,-164.5"/>
<text text-anchor="middle" x="271" y="-171.5" font-family="Helvetica,sans-Serif" font-size="10.00">mom_document::int_string</text>
</a>
</g>
</g>
<!-- Node75&#45;&gt;Node77 -->
<g id="edge2" class="edge"><title>Node75&#45;&gt;Node77</title>
<path fill="none" stroke="midnightblue" d="M116.837,-132.002C135.168,-137.846 156.519,-144.456 176,-150 190.479,-154.12 206.305,-158.289 220.773,-161.97"/>
<polygon fill="midnightblue" stroke="midnightblue" points="219.987,-165.381 230.539,-164.434 221.699,-158.594 219.987,-165.381"/>
</g>
<!-- Node78 -->
<g id="node4" class="node"><title>Node78</title>
<g id="a_node4"><a xlink:href="namespacemom__error__handler.html#ad5f00a53059c72fe2332d1436c80ca71" target="_top" xlink:title="mom_error_handler::\lis_root_pe">
<polygon fill="white" stroke="black" points="786,-99 786,-129 892,-129 892,-99 786,-99"/>
<text text-anchor="start" x="794" y="-117" font-family="Helvetica,sans-Serif" font-size="10.00">mom_error_handler::</text>
<text text-anchor="middle" x="839" y="-106" font-family="Helvetica,sans-Serif" font-size="10.00">is_root_pe</text>
</a>
</g>
</g>
<!-- Node75&#45;&gt;Node78 -->
<g id="edge3" class="edge"><title>Node75&#45;&gt;Node78</title>
<path fill="none" stroke="midnightblue" d="M140.172,-120.762C152.116,-121.278 164.415,-121.724 176,-122 396.292,-127.242 657.904,-120.146 775.404,-116.252"/>
<polygon fill="midnightblue" stroke="midnightblue" points="775.767,-119.742 785.644,-115.908 775.532,-112.746 775.767,-119.742"/>
</g>
<!-- Node79 -->
<g id="node5" class="node"><title>Node79</title>
<g id="a_node5"><a xlink:href="namespacemom__document.html#aa23ed2e58e74e88a71de374685ee11ec" target="_top" xlink:title="mom_document::mesghasbeendocumented">
<polygon fill="white" stroke="black" points="402,-88.5 402,-107.5 608,-107.5 608,-88.5 402,-88.5"/>
<text text-anchor="middle" x="505" y="-95.5" font-family="Helvetica,sans-Serif" font-size="10.00">mom_document::mesghasbeendocumented</text>
</a>
</g>
</g>
<!-- Node75&#45;&gt;Node79 -->
<g id="edge4" class="edge"><title>Node75&#45;&gt;Node79</title>
<path fill="none" stroke="midnightblue" d="M140.089,-113.968C207.75,-110.999 311.993,-106.425 391.596,-102.932"/>
<polygon fill="midnightblue" stroke="midnightblue" points="391.833,-106.425 401.669,-102.49 391.526,-99.4321 391.833,-106.425"/>
</g>
<!-- Node81 -->
<g id="node7" class="node"><title>Node81</title>
<g id="a_node7"><a xlink:href="namespacemom__document.html#aab976b6c6c9c01833438d217fca228a4" target="_top" xlink:title="mom_document::open\l_doc_file">
<polygon fill="white" stroke="black" points="214.5,-39 214.5,-69 327.5,-69 327.5,-39 214.5,-39"/>
<text text-anchor="start" x="222.5" y="-57" font-family="Helvetica,sans-Serif" font-size="10.00">mom_document::open</text>
<text text-anchor="middle" x="271" y="-46" font-family="Helvetica,sans-Serif" font-size="10.00">_doc_file</text>
</a>
</g>
</g>
<!-- Node75&#45;&gt;Node81 -->
<g id="edge7" class="edge"><title>Node75&#45;&gt;Node81</title>
<path fill="none" stroke="midnightblue" d="M118.413,-101.99C146.713,-93.0306 182.842,-81.5927 212.73,-72.1307"/>
<polygon fill="midnightblue" stroke="midnightblue" points="214.129,-75.3591 222.606,-69.0041 212.016,-68.6856 214.129,-75.3591"/>
</g>
<!-- Node83 -->
<g id="node9" class="node"><title>Node83</title>
<g id="a_node9"><a xlink:href="namespacemom__document.html#a22d84550b1affd1037328c5117496a65" target="_top" xlink:title="mom_document::writemessageanddesc">
<polygon fill="white" stroke="black" points="176,-0.5 176,-19.5 366,-19.5 366,-0.5 176,-0.5"/>
<text text-anchor="middle" x="271" y="-7.5" font-family="Helvetica,sans-Serif" font-size="10.00">mom_document::writemessageanddesc</text>
</a>
</g>
</g>
<!-- Node75&#45;&gt;Node83 -->
<g id="edge11" class="edge"><title>Node75&#45;&gt;Node83</title>
<path fill="none" stroke="midnightblue" d="M84.3019,-101.908C102.795,-81.9383 138.279,-47.1513 176,-29 181.19,-26.5026 186.694,-24.3331 192.332,-22.4487"/>
<polygon fill="midnightblue" stroke="midnightblue" points="193.364,-25.7933 201.916,-19.5387 191.33,-19.0952 193.364,-25.7933"/>
</g>
<!-- Node80 -->
<g id="node6" class="node"><title>Node80</title>
<g id="a_node6"><a xlink:href="namespacemom__error__handler.html#a460cfb79a06c29fc249952c2a3710d67" target="_top" xlink:title="mom_error_handler::\lmom_error">
<polygon fill="white" stroke="black" points="644,-61 644,-91 750,-91 750,-61 644,-61"/>
<text text-anchor="start" x="652" y="-79" font-family="Helvetica,sans-Serif" font-size="10.00">mom_error_handler::</text>
<text text-anchor="middle" x="697" y="-68" font-family="Helvetica,sans-Serif" font-size="10.00">mom_error</text>
</a>
</g>
</g>
<!-- Node79&#45;&gt;Node80 -->
<g id="edge5" class="edge"><title>Node79&#45;&gt;Node80</title>
<path fill="none" stroke="midnightblue" d="M588.232,-88.4784C603.404,-86.7216 619.019,-84.9136 633.49,-83.238"/>
<polygon fill="midnightblue" stroke="midnightblue" points="634.272,-86.6709 643.803,-82.0439 633.467,-79.7174 634.272,-86.6709"/>
</g>
<!-- Node80&#45;&gt;Node78 -->
<g id="edge6" class="edge"><title>Node80&#45;&gt;Node78</title>
<path fill="none" stroke="midnightblue" d="M750.131,-90.1498C758.604,-92.4495 767.451,-94.8509 776.129,-97.2063"/>
<polygon fill="midnightblue" stroke="midnightblue" points="775.258,-100.597 785.826,-99.8384 777.092,-93.841 775.258,-100.597"/>
</g>
<!-- Node81&#45;&gt;Node80 -->
<g id="edge10" class="edge"><title>Node81&#45;&gt;Node80</title>
<path fill="none" stroke="midnightblue" d="M327.867,-56.8987C406.982,-61.0038 551.196,-68.4866 633.685,-72.7667"/>
<polygon fill="midnightblue" stroke="midnightblue" points="633.507,-76.2621 643.675,-73.285 633.87,-69.2715 633.507,-76.2621"/>
</g>
<!-- Node82 -->
<g id="node8" class="node"><title>Node82</title>
<g id="a_node8"><a xlink:href="namespacemom__document.html#a5f2661445a72a7d0f774677e91366db5" target="_top" xlink:title="mom_document::find\l_unused_unit_number">
<polygon fill="white" stroke="black" points="449,-1 449,-31 561,-31 561,-1 449,-1"/>
<text text-anchor="start" x="457" y="-19" font-family="Helvetica,sans-Serif" font-size="10.00">mom_document::find</text>
<text text-anchor="middle" x="505" y="-8" font-family="Helvetica,sans-Serif" font-size="10.00">_unused_unit_number</text>
</a>
</g>
</g>
<!-- Node81&#45;&gt;Node82 -->
<g id="edge8" class="edge"><title>Node81&#45;&gt;Node82</title>
<path fill="none" stroke="midnightblue" d="M327.57,-44.8981C361,-39.4224 403.721,-32.425 438.751,-26.6873"/>
<polygon fill="midnightblue" stroke="midnightblue" points="439.581,-30.0981 448.884,-25.0277 438.449,-23.1902 439.581,-30.0981"/>
</g>
<!-- Node82&#45;&gt;Node80 -->
<g id="edge9" class="edge"><title>Node82&#45;&gt;Node80</title>
<path fill="none" stroke="midnightblue" d="M558.807,-31.0676C574.666,-35.7174 592.078,-40.947 608,-46 619.539,-49.6619 631.87,-53.7531 643.538,-57.7077"/>
<polygon fill="midnightblue" stroke="midnightblue" points="642.557,-61.0711 653.152,-60.985 644.816,-54.4455 642.557,-61.0711"/>
</g>
</g>
</svg>
