<?xml version="1.0" encoding="UTF-8" standalone="no"?>
<!DOCTYPE svg PUBLIC "-//W3C//DTD SVG 1.1//EN"
 "http://www.w3.org/Graphics/SVG/1.1/DTD/svg11.dtd">
<!-- Generated by graphviz version 2.38.0 (20140413.2041)
 -->
<!-- Title: mom_legacy_barotropic::find_vhbt Pages: 1 -->
<svg width="440pt" height="61pt"
 viewBox="0.00 0.00 440.00 61.00" xmlns="http://www.w3.org/2000/svg" xmlns:xlink="http://www.w3.org/1999/xlink">
<g id="graph0" class="graph" transform="scale(1 1) rotate(0) translate(4 57)">
<title>mom_legacy_barotropic::find_vhbt</title>
<polygon fill="white" stroke="none" points="-4,4 -4,-57 436,-57 436,4 -4,4"/>
<!-- Node28 -->
<g id="node1" class="node"><title>Node28</title>
<polygon fill="#bfbfbf" stroke="black" points="0,-0.5 0,-30.5 120,-30.5 120,-0.5 0,-0.5"/>
<text text-anchor="start" x="8" y="-18.5" font-family="Helvetica,sans-Serif" font-size="10.00">mom_legacy_barotropic</text>
<text text-anchor="middle" x="60" y="-7.5" font-family="Helvetica,sans-Serif" font-size="10.00">::find_vhbt</text>
</g>
<!-- Node29 -->
<g id="node2" class="node"><title>Node29</title>
<g id="a_node2"><a xlink:href="namespacemom__legacy__barotropic.html#a272a849d7cde70c0da337ad5ebdc0f62" target="_top" xlink:title="This subroutine applies the open boundary conditions on barotropic velocities and mass transports...">
<polygon fill="white" stroke="black" points="156,-22.5 156,-52.5 276,-52.5 276,-22.5 156,-22.5"/>
<text text-anchor="start" x="164" y="-40.5" font-family="Helvetica,sans-Serif" font-size="10.00">mom_legacy_barotropic</text>
<text text-anchor="middle" x="216" y="-29.5" font-family="Helvetica,sans-Serif" font-size="10.00">::apply_velocity_obcs</text>
</a>
</g>
</g>
<!-- Node28&#45;&gt;Node29 -->
<g id="edge1" class="edge"><title>Node28&#45;&gt;Node29</title>
<path fill="none" stroke="midnightblue" d="M130.089,-25.3699C138.672,-26.5961 147.388,-27.8412 155.804,-29.0434"/>
<polygon fill="midnightblue" stroke="midnightblue" points="130.494,-21.8923 120.1,-23.9429 129.504,-28.822 130.494,-21.8923"/>
</g>
<!-- Node30 -->
<g id="node3" class="node"><title>Node30</title>
<g id="a_node3"><a xlink:href="namespacemom__legacy__barotropic.html#ae039a54a1c82e3f4f53539e5dc2de6ea" target="_top" xlink:title="mom_legacy_barotropic\l::legacy_btstep">
<polygon fill="white" stroke="black" points="312,-0.5 312,-30.5 432,-30.5 432,-0.5 312,-0.5"/>
<text text-anchor="start" x="320" y="-18.5" font-family="Helvetica,sans-Serif" font-size="10.00">mom_legacy_barotropic</text>
<text text-anchor="middle" x="372" y="-7.5" font-family="Helvetica,sans-Serif" font-size="10.00">::legacy_btstep</text>
</a>
</g>
</g>
<!-- Node28&#45;&gt;Node30 -->
<g id="edge3" class="edge"><title>Node28&#45;&gt;Node30</title>
<path fill="none" stroke="midnightblue" d="M130.176,-13.8738C138.87,-13.7195 147.641,-13.588 156,-13.5 209.33,-12.9387 222.67,-12.9387 276,-13.5 287.63,-13.6224 300.059,-13.8291 311.965,-14.0643"/>
<polygon fill="midnightblue" stroke="midnightblue" points="129.968,-10.377 120.035,-14.0643 130.099,-17.3758 129.968,-10.377"/>
</g>
<!-- Node29&#45;&gt;Node30 -->
<g id="edge2" class="edge"><title>Node29&#45;&gt;Node30</title>
<path fill="none" stroke="midnightblue" d="M286.089,-27.6301C294.672,-26.4039 303.388,-25.1588 311.804,-23.9566"/>
<polygon fill="midnightblue" stroke="midnightblue" points="285.504,-24.178 276.1,-29.0571 286.494,-31.1077 285.504,-24.178"/>
</g>
</g>
</svg>
