<?xml version="1.0" encoding="UTF-8" standalone="no"?>
<!DOCTYPE svg PUBLIC "-//W3C//DTD SVG 1.1//EN"
 "http://www.w3.org/Graphics/SVG/1.1/DTD/svg11.dtd">
<!-- Generated by graphviz version 2.38.0 (20140413.2041)
 -->
<!-- Title: mom_barotropic::find_uhbt Pages: 1 -->
<svg width="447pt" height="56pt"
 viewBox="0.00 0.00 447.00 55.50" xmlns="http://www.w3.org/2000/svg" xmlns:xlink="http://www.w3.org/1999/xlink">
<g id="graph0" class="graph" transform="scale(1 1) rotate(0) translate(4 51.5)">
<title>mom_barotropic::find_uhbt</title>
<polygon fill="white" stroke="none" points="-4,4 -4,-51.5 443,-51.5 443,4 -4,4"/>
<!-- Node71 -->
<g id="node1" class="node"><title>Node71</title>
<polygon fill="#bfbfbf" stroke="black" points="0,-0.5 0,-19.5 132,-19.5 132,-0.5 0,-0.5"/>
<text text-anchor="middle" x="66" y="-7.5" font-family="Helvetica,sans-Serif" font-size="10.00">mom_barotropic::find_uhbt</text>
</g>
<!-- Node72 -->
<g id="node2" class="node"><title>Node72</title>
<g id="a_node2"><a xlink:href="namespacemom__barotropic.html#a1f34ad960c893916f0703db07badc57c" target="_top" xlink:title="The following 4 subroutines apply the open boundary conditions. This subroutine applies the open boun...">
<polygon fill="white" stroke="black" points="168,-17 168,-47 284,-47 284,-17 168,-17"/>
<text text-anchor="start" x="176" y="-35" font-family="Helvetica,sans-Serif" font-size="10.00">mom_barotropic::apply</text>
<text text-anchor="middle" x="226" y="-24" font-family="Helvetica,sans-Serif" font-size="10.00">_velocity_obcs</text>
</a>
</g>
</g>
<!-- Node71&#45;&gt;Node72 -->
<g id="edge1" class="edge"><title>Node71&#45;&gt;Node72</title>
<path fill="none" stroke="midnightblue" d="M142.15,-20.464C150.69,-21.6531 159.29,-22.8505 167.55,-24.0006"/>
<polygon fill="midnightblue" stroke="midnightblue" points="142.564,-16.9879 132.177,-19.0753 141.599,-23.921 142.564,-16.9879"/>
</g>
<!-- Node73 -->
<g id="node3" class="node"><title>Node73</title>
<g id="a_node3"><a xlink:href="namespacemom__barotropic.html#a98cdf3c559146cc9485fcb9daa4cdbca" target="_top" xlink:title="This subroutine time steps the barotropic equations explicitly. For gravity waves, anything between a forwards&#45;backwards scheme and a simulated backwards Euler scheme is used, with bebt between 0.0 and 1.0 determining the scheme. In practice, bebt must be of order 0.2 or greater. A forwards&#45;backwards treatment of the Coriolis terms is always used. ">
<polygon fill="white" stroke="black" points="320,-0.5 320,-19.5 439,-19.5 439,-0.5 320,-0.5"/>
<text text-anchor="middle" x="379.5" y="-7.5" font-family="Helvetica,sans-Serif" font-size="10.00">mom_barotropic::btstep</text>
</a>
</g>
</g>
<!-- Node71&#45;&gt;Node73 -->
<g id="edge3" class="edge"><title>Node71&#45;&gt;Node73</title>
<path fill="none" stroke="midnightblue" d="M142.316,-8.34457C150.977,-8.20287 159.681,-8.08236 168,-8 219.553,-7.48962 232.447,-7.45453 284,-8 295.568,-8.1224 307.932,-8.32907 319.775,-8.5643"/>
<polygon fill="midnightblue" stroke="midnightblue" points="142.132,-4.84712 132.195,-8.51962 142.254,-11.8461 142.132,-4.84712"/>
</g>
<!-- Node72&#45;&gt;Node73 -->
<g id="edge2" class="edge"><title>Node72&#45;&gt;Node73</title>
<path fill="none" stroke="midnightblue" d="M294.224,-22.2381C302.778,-20.9959 311.479,-19.7324 319.884,-18.5119"/>
<polygon fill="midnightblue" stroke="midnightblue" points="293.669,-18.7819 284.276,-23.6827 294.675,-25.7093 293.669,-18.7819"/>
</g>
</g>
</svg>
