<?xml version="1.0" encoding="UTF-8" standalone="no"?>
<!DOCTYPE svg PUBLIC "-//W3C//DTD SVG 1.1//EN"
 "http://www.w3.org/Graphics/SVG/1.1/DTD/svg11.dtd">
<!-- Generated by graphviz version 2.38.0 (20140413.2041)
 -->
<!-- Title: mom_diag_mediator::initialize_diag_type Pages: 1 -->
<!--zoomable 362 -->
<svg id="main" version="1.1" xmlns="http://www.w3.org/2000/svg" xmlns:xlink="http://www.w3.org/1999/xlink" xml:space="preserve" onload="init(evt)">
<style type="text/css"><![CDATA[
.edge:hover path { stroke: red; }
.edge:hover polygon { stroke: red; fill: red; }
]]></style>
<script type="text/javascript"><![CDATA[
var edges = document.getElementsByTagName('g');
if (edges && edges.length) {
  for (var i=0;i<edges.length;i++) {
    if (edges[i].id.substr(0,4)=='edge') {
      edges[i].setAttribute('class','edge');
    }
  }
}
]]></script>
        <defs>
                <circle id="rim" cx="0" cy="0" r="7"/>
                <circle id="rim2" cx="0" cy="0" r="3.5"/>
                <g id="zoomPlus">
                        <use xlink:href="#rim" fill="#404040">
                                <set attributeName="fill" to="#808080" begin="zoomplus.mouseover" end="zoomplus.mouseout"/>
                        </use>
                        <path d="M-4,0h8M0,-4v8" fill="none" stroke="white" stroke-width="1.5" pointer-events="none"/>
                </g>
                <g id="zoomMin">
                        <use xlink:href="#rim" fill="#404040">
                                <set attributeName="fill" to="#808080" begin="zoomminus.mouseover" end="zoomminus.mouseout"/>
                        </use>
                        <path d="M-4,0h8" fill="none" stroke="white" stroke-width="1.5" pointer-events="none"/>
                </g>
                <g id="dirArrow">
                        <path fill="none" stroke="white" stroke-width="1.5" d="M0,-3.0v7 M-2.5,-0.5L0,-3.0L2.5,-0.5"/>
                </g>
               <g id="resetDef">
                       <use xlink:href="#rim2" fill="#404040">
                               <set attributeName="fill" to="#808080" begin="reset.mouseover" end="reset.mouseout"/>
                       </use>
               </g>
        </defs>

<script type="text/javascript">
var viewWidth = 1208;
var viewHeight = 362;
var sectionId = 'dynsection-19';
</script>
<script xlink:href="svgpan.js"/>
<svg id="graph" class="graph">
<g id="viewport">
<title>mom_diag_mediator::initialize_diag_type</title>
<polygon fill="white" stroke="none" points="-4,4 -4,-358 1204,-358 1204,4 -4,4"/>
<!-- Node168 -->
<g id="node1" class="node"><title>Node168</title>
<polygon fill="#bfbfbf" stroke="black" points="0,-136.5 0,-166.5 110,-166.5 110,-136.5 0,-136.5"/>
<text text-anchor="start" x="8" y="-154.5" font-family="Helvetica,sans-Serif" font-size="10.00">mom_diag_mediator::</text>
<text text-anchor="middle" x="55" y="-143.5" font-family="Helvetica,sans-Serif" font-size="10.00">initialize_diag_type</text>
</g>
<!-- Node169 -->
<g id="node2" class="node"><title>Node169</title>
<g id="a_node2"><a xlink:href="namespacemom__diag__mediator.html#a03785b401557ffdf08cd45b735e4486f" target="_top" xlink:title="diag_mediator_init initializes the MOM diag_mediator and opens the available diagnostics file...">
<polygon fill="white" stroke="black" points="146,-161.5 146,-191.5 256,-191.5 256,-161.5 146,-161.5"/>
<text text-anchor="start" x="154" y="-179.5" font-family="Helvetica,sans-Serif" font-size="10.00">mom_diag_mediator::</text>
<text text-anchor="middle" x="201" y="-168.5" font-family="Helvetica,sans-Serif" font-size="10.00">diag_mediator_init</text>
</a>
</g>
</g>
<!-- Node168&#45;&gt;Node169 -->
<g id="edge1" class="edge"><title>Node168&#45;&gt;Node169</title>
<path fill="none" stroke="midnightblue" d="M119.991,-162.609C128.561,-164.097 137.284,-165.612 145.667,-167.067"/>
<polygon fill="midnightblue" stroke="midnightblue" points="120.481,-159.142 110.03,-160.88 119.284,-166.039 120.481,-159.142"/>
</g>
<!-- Node170 -->
<g id="node3" class="node"><title>Node170</title>
<g id="a_node3"><a xlink:href="namespacemom__diag__mediator.html#a3f7442639213320f7429e2288a79fda2" target="_top" xlink:title="Returns a new diagnostic id, it may be necessary to expand the diagnostics array. ...">
<polygon fill="white" stroke="black" points="146,-112.5 146,-142.5 256,-142.5 256,-112.5 146,-112.5"/>
<text text-anchor="start" x="154" y="-130.5" font-family="Helvetica,sans-Serif" font-size="10.00">mom_diag_mediator::</text>
<text text-anchor="middle" x="201" y="-119.5" font-family="Helvetica,sans-Serif" font-size="10.00">get_new_diag_id</text>
</a>
</g>
</g>
<!-- Node168&#45;&gt;Node170 -->
<g id="edge2" class="edge"><title>Node168&#45;&gt;Node170</title>
<path fill="none" stroke="midnightblue" d="M119.991,-140.835C128.561,-139.407 137.284,-137.953 145.667,-136.555"/>
<polygon fill="midnightblue" stroke="midnightblue" points="119.318,-137.399 110.03,-142.495 120.469,-144.303 119.318,-137.399"/>
</g>
<!-- Node171 -->
<g id="node4" class="node"><title>Node171</title>
<g id="a_node4"><a xlink:href="namespacemom__diag__mediator.html#a8415b33a337b1fbc7535688eca85ab37" target="_top" xlink:title="Create a diagnostic type and attached to list. ">
<polygon fill="white" stroke="black" points="292,-161.5 292,-191.5 402,-191.5 402,-161.5 292,-161.5"/>
<text text-anchor="start" x="300" y="-179.5" font-family="Helvetica,sans-Serif" font-size="10.00">mom_diag_mediator::</text>
<text text-anchor="middle" x="347" y="-168.5" font-family="Helvetica,sans-Serif" font-size="10.00">add_diag_to_list</text>
</a>
</g>
</g>
<!-- Node170&#45;&gt;Node171 -->
<g id="edge3" class="edge"><title>Node170&#45;&gt;Node171</title>
<path fill="none" stroke="midnightblue" d="M256.043,-145.89C271.036,-150.992 287.14,-156.471 301.519,-161.364"/>
<polygon fill="midnightblue" stroke="midnightblue" points="256.974,-142.509 246.38,-142.601 254.719,-149.136 256.974,-142.509"/>
</g>
<!-- Node185 -->
<g id="node18" class="node"><title>Node185</title>
<g id="a_node18"><a xlink:href="namespacemom__diag__mediator.html#afb4254e1cfbbcfc43028f14915173f80" target="_top" xlink:title="mom_diag_mediator::\lregister_scalar_field">
<polygon fill="white" stroke="black" points="292,-112.5 292,-142.5 402,-142.5 402,-112.5 292,-112.5"/>
<text text-anchor="start" x="300" y="-130.5" font-family="Helvetica,sans-Serif" font-size="10.00">mom_diag_mediator::</text>
<text text-anchor="middle" x="347" y="-119.5" font-family="Helvetica,sans-Serif" font-size="10.00">register_scalar_field</text>
</a>
</g>
</g>
<!-- Node170&#45;&gt;Node185 -->
<g id="edge17" class="edge"><title>Node170&#45;&gt;Node185</title>
<path fill="none" stroke="midnightblue" d="M266.27,-127.5C274.75,-127.5 283.375,-127.5 291.667,-127.5"/>
<polygon fill="midnightblue" stroke="midnightblue" points="266.03,-124 256.03,-127.5 266.03,-131 266.03,-124"/>
</g>
<!-- Node186 -->
<g id="node19" class="node"><title>Node186</title>
<g id="a_node19"><a xlink:href="namespacemom__diag__mediator.html#abe591ed2565e9f026c5be055bc2fc0b7" target="_top" xlink:title="Registers a static diagnostic, returning an integer handle. ">
<polygon fill="white" stroke="black" points="292,-63.5 292,-93.5 402,-93.5 402,-63.5 292,-63.5"/>
<text text-anchor="start" x="300" y="-81.5" font-family="Helvetica,sans-Serif" font-size="10.00">mom_diag_mediator::</text>
<text text-anchor="middle" x="347" y="-70.5" font-family="Helvetica,sans-Serif" font-size="10.00">register_static_field</text>
</a>
</g>
</g>
<!-- Node170&#45;&gt;Node186 -->
<g id="edge18" class="edge"><title>Node170&#45;&gt;Node186</title>
<path fill="none" stroke="midnightblue" d="M256.043,-109.11C271.036,-104.008 287.14,-98.5289 301.519,-93.6359"/>
<polygon fill="midnightblue" stroke="midnightblue" points="254.719,-105.864 246.38,-112.399 256.974,-112.491 254.719,-105.864"/>
</g>
<!-- Node172 -->
<g id="node5" class="node"><title>Node172</title>
<g id="a_node5"><a xlink:href="namespacemom__diag__mediator.html#ae50b35cba800ac5fd8975929fd2b9f4a" target="_top" xlink:title="Returns True if either the native of CMOr version of the diagnostic were registered. Updates &#39;dm_id&#39; after calling register_diag_field_expand_axes() for both native and CMOR variants of the field. ">
<polygon fill="white" stroke="black" points="465,-156 465,-197 575,-197 575,-156 465,-156"/>
<text text-anchor="start" x="473" y="-185" font-family="Helvetica,sans-Serif" font-size="10.00">mom_diag_mediator::</text>
<text text-anchor="start" x="473" y="-174" font-family="Helvetica,sans-Serif" font-size="10.00">register_diag_field</text>
<text text-anchor="middle" x="520" y="-163" font-family="Helvetica,sans-Serif" font-size="10.00">_expand_cmor</text>
</a>
</g>
</g>
<!-- Node171&#45;&gt;Node172 -->
<g id="edge4" class="edge"><title>Node171&#45;&gt;Node172</title>
<path fill="none" stroke="midnightblue" d="M412.171,-176.5C429.552,-176.5 448.19,-176.5 464.953,-176.5"/>
<polygon fill="midnightblue" stroke="midnightblue" points="412.106,-173 402.105,-176.5 412.105,-180 412.106,-173"/>
</g>
<!-- Node173 -->
<g id="node6" class="node"><title>Node173</title>
<g id="a_node6"><a xlink:href="namespacemom__diag__mediator.html#aa791f75f899ae9b7cd4756165a9c2a1b" target="_top" xlink:title="Returns the &quot;diag_mediator&quot; handle for a group (native, CMOR, z&#45;coord, ...) of diagnostics derived fr...">
<polygon fill="white" stroke="black" points="638,-161.5 638,-191.5 748,-191.5 748,-161.5 638,-161.5"/>
<text text-anchor="start" x="646" y="-179.5" font-family="Helvetica,sans-Serif" font-size="10.00">mom_diag_mediator::</text>
<text text-anchor="middle" x="693" y="-168.5" font-family="Helvetica,sans-Serif" font-size="10.00">register_diag_field</text>
</a>
</g>
</g>
<!-- Node172&#45;&gt;Node173 -->
<g id="edge5" class="edge"><title>Node172&#45;&gt;Node173</title>
<path fill="none" stroke="midnightblue" d="M585.171,-176.5C602.552,-176.5 621.19,-176.5 637.953,-176.5"/>
<polygon fill="midnightblue" stroke="midnightblue" points="585.106,-173 575.105,-176.5 585.105,-180 585.106,-173"/>
</g>
<!-- Node174 -->
<g id="node7" class="node"><title>Node174</title>
<g id="a_node7"><a xlink:href="namespacemom__ale.html#a994efb3c62fc5f63da2617f29cbd6be1" target="_top" xlink:title="Initialize diagnostics for the ALE module. ">
<polygon fill="white" stroke="black" points="808,-323.5 808,-353.5 921,-353.5 921,-323.5 808,-323.5"/>
<text text-anchor="start" x="816" y="-341.5" font-family="Helvetica,sans-Serif" font-size="10.00">mom_ale::ale_register</text>
<text text-anchor="middle" x="864.5" y="-330.5" font-family="Helvetica,sans-Serif" font-size="10.00">_diags</text>
</a>
</g>
</g>
<!-- Node173&#45;&gt;Node174 -->
<g id="edge6" class="edge"><title>Node173&#45;&gt;Node174</title>
<path fill="none" stroke="midnightblue" d="M703.979,-201.272C717.587,-231.989 744.835,-283.904 784,-313.5 791.041,-318.821 799.241,-323.026 807.647,-326.344"/>
<polygon fill="midnightblue" stroke="midnightblue" points="707.045,-199.542 699.889,-191.73 700.611,-202.3 707.045,-199.542"/>
</g>
<!-- Node175 -->
<g id="node8" class="node"><title>Node175</title>
<g id="a_node8"><a xlink:href="namespacemom__coriolisadv.html#ad3ce07f23ce7b484a5a9e0c0abe8b1cd" target="_top" xlink:title="Initializes the control structure for coriolisadv_cs. ">
<polygon fill="white" stroke="black" points="784,-285 784,-304 945,-304 945,-285 784,-285"/>
<text text-anchor="middle" x="864.5" y="-292" font-family="Helvetica,sans-Serif" font-size="10.00">mom_coriolisadv::coriolisadv_init</text>
</a>
</g>
</g>
<!-- Node173&#45;&gt;Node175 -->
<g id="edge7" class="edge"><title>Node173&#45;&gt;Node175</title>
<path fill="none" stroke="midnightblue" d="M709.041,-199.937C724.919,-222.735 752.047,-256.615 784,-275.5 790.597,-279.399 797.948,-282.498 805.442,-284.962"/>
<polygon fill="midnightblue" stroke="midnightblue" points="711.835,-197.82 703.328,-191.505 706.04,-201.747 711.835,-197.82"/>
</g>
<!-- Node176 -->
<g id="node9" class="node"><title>Node176</title>
<g id="a_node9"><a xlink:href="namespacemom__diag__mediator.html#a21267e25d12fa3e5d2540d2a299d2d2c" target="_top" xlink:title="Registers a diagnostic using the information encapsulated in the vardesc type argument and returns an...">
<polygon fill="white" stroke="black" points="809.5,-235.5 809.5,-265.5 919.5,-265.5 919.5,-235.5 809.5,-235.5"/>
<text text-anchor="start" x="817.5" y="-253.5" font-family="Helvetica,sans-Serif" font-size="10.00">mom_diag_mediator::</text>
<text text-anchor="middle" x="864.5" y="-242.5" font-family="Helvetica,sans-Serif" font-size="10.00">ocean_register_diag</text>
</a>
</g>
</g>
<!-- Node173&#45;&gt;Node176 -->
<g id="edge8" class="edge"><title>Node173&#45;&gt;Node176</title>
<path fill="none" stroke="midnightblue" d="M726.566,-196.813C743.301,-206.672 764.276,-218.158 784,-226.5 792.1,-229.926 800.853,-233.082 809.489,-235.902"/>
<polygon fill="midnightblue" stroke="midnightblue" points="728.118,-193.663 717.74,-191.533 724.525,-199.67 728.118,-193.663"/>
</g>
<!-- Node178 -->
<g id="node11" class="node"><title>Node178</title>
<g id="a_node11"><a xlink:href="namespacemom__diapyc__energy__req.html#aa0ce122f4dc6d9a6ec9e17996484bb76" target="_top" xlink:title="mom_diapyc_energy_req\l::diapyc_energy_req_init">
<polygon fill="white" stroke="black" points="802,-186.5 802,-216.5 927,-216.5 927,-186.5 802,-186.5"/>
<text text-anchor="start" x="810" y="-204.5" font-family="Helvetica,sans-Serif" font-size="10.00">mom_diapyc_energy_req</text>
<text text-anchor="middle" x="864.5" y="-193.5" font-family="Helvetica,sans-Serif" font-size="10.00">::diapyc_energy_req_init</text>
</a>
</g>
</g>
<!-- Node173&#45;&gt;Node178 -->
<g id="edge10" class="edge"><title>Node173&#45;&gt;Node178</title>
<path fill="none" stroke="midnightblue" d="M758.341,-185.99C772.645,-188.1 787.773,-190.331 801.961,-192.423"/>
<polygon fill="midnightblue" stroke="midnightblue" points="758.501,-182.476 748.097,-184.479 757.479,-189.401 758.501,-182.476"/>
</g>
<!-- Node179 -->
<g id="node12" class="node"><title>Node179</title>
<g id="a_node12"><a xlink:href="namespacemom__diffconvection.html#ac36d9d7fd69e4422e7de01242094ff34" target="_top" xlink:title="mom_diffconvection\l::diffconvection_init">
<polygon fill="white" stroke="black" points="812.5,-137.5 812.5,-167.5 916.5,-167.5 916.5,-137.5 812.5,-137.5"/>
<text text-anchor="start" x="820.5" y="-155.5" font-family="Helvetica,sans-Serif" font-size="10.00">mom_diffconvection</text>
<text text-anchor="middle" x="864.5" y="-144.5" font-family="Helvetica,sans-Serif" font-size="10.00">::diffconvection_init</text>
</a>
</g>
</g>
<!-- Node173&#45;&gt;Node179 -->
<g id="edge11" class="edge"><title>Node173&#45;&gt;Node179</title>
<path fill="none" stroke="midnightblue" d="M758.405,-167.381C776.205,-164.86 795.278,-162.16 812.224,-159.76"/>
<polygon fill="midnightblue" stroke="midnightblue" points="757.507,-163.973 748.097,-168.84 758.489,-170.904 757.507,-163.973"/>
</g>
<!-- Node180 -->
<g id="node13" class="node"><title>Node180</title>
<g id="a_node13"><a xlink:href="namespacemom__int__tide__input.html#a29a707637da633ccee155b53557b5f17" target="_top" xlink:title="mom_int_tide_input\l::int_tide_input_init">
<polygon fill="white" stroke="black" points="814,-88.5 814,-118.5 915,-118.5 915,-88.5 814,-88.5"/>
<text text-anchor="start" x="822" y="-106.5" font-family="Helvetica,sans-Serif" font-size="10.00">mom_int_tide_input</text>
<text text-anchor="middle" x="864.5" y="-95.5" font-family="Helvetica,sans-Serif" font-size="10.00">::int_tide_input_init</text>
</a>
</g>
</g>
<!-- Node173&#45;&gt;Node180 -->
<g id="edge12" class="edge"><title>Node173&#45;&gt;Node180</title>
<path fill="none" stroke="midnightblue" d="M727.324,-156.222C743.952,-146.662 764.61,-135.604 784,-127.5 793.445,-123.553 803.765,-119.949 813.75,-116.802"/>
<polygon fill="midnightblue" stroke="midnightblue" points="725.408,-153.288 718.535,-161.351 728.936,-159.334 725.408,-153.288"/>
</g>
<!-- Node181 -->
<g id="node14" class="node"><title>Node181</title>
<g id="a_node14"><a xlink:href="namespacemom__kpp.html#a9c834424b6e067e280928db3700ec77e" target="_top" xlink:title="Initialize the CVmix KPP module and set up diagnostics Returns True if KPP is to be used...">
<polygon fill="white" stroke="black" points="815,-50 815,-69 914,-69 914,-50 815,-50"/>
<text text-anchor="middle" x="864.5" y="-57" font-family="Helvetica,sans-Serif" font-size="10.00">mom_kpp::kpp_init</text>
</a>
</g>
</g>
<!-- Node173&#45;&gt;Node181 -->
<g id="edge13" class="edge"><title>Node173&#45;&gt;Node181</title>
<path fill="none" stroke="midnightblue" d="M709.361,-152.927C725.316,-130.366 752.352,-97.0967 784,-78.5 793.298,-73.0361 804.083,-69.1418 814.651,-66.3668"/>
<polygon fill="midnightblue" stroke="midnightblue" points="706.394,-151.065 703.608,-161.286 712.161,-155.033 706.394,-151.065"/>
</g>
<!-- Node182 -->
<g id="node15" class="node"><title>Node182</title>
<g id="a_node15"><a xlink:href="namespacemom__neutral__diffusion.html#a87cf821c52ac1111493d4168f0a91d17" target="_top" xlink:title="Diagnostic handles for neutral diffusion tendencies. ">
<polygon fill="white" stroke="black" points="797,-0.5 797,-30.5 932,-30.5 932,-0.5 797,-0.5"/>
<text text-anchor="start" x="805" y="-18.5" font-family="Helvetica,sans-Serif" font-size="10.00">mom_neutral_diffusion</text>
<text text-anchor="middle" x="864.5" y="-7.5" font-family="Helvetica,sans-Serif" font-size="10.00">::neutral_diffusion_diag_init</text>
</a>
</g>
</g>
<!-- Node173&#45;&gt;Node182 -->
<g id="edge14" class="edge"><title>Node173&#45;&gt;Node182</title>
<path fill="none" stroke="midnightblue" d="M712.151,-152.955C722.948,-138.631 736.699,-119.816 748,-102.5 765.415,-75.8162 759.118,-60.4043 784,-40.5 788.858,-36.6137 794.327,-33.3276 800.065,-30.5497"/>
<polygon fill="midnightblue" stroke="midnightblue" points="709.12,-151.16 705.858,-161.241 714.694,-155.394 709.12,-151.16"/>
</g>
<!-- Node177 -->
<g id="node10" class="node"><title>Node177</title>
<g id="a_node10"><a xlink:href="namespacemom__diag__to__z.html#a90526b2f59f94c6af2f525a221029772" target="_top" xlink:title="This subroutine registers a tracer to be output in depth space. ">
<polygon fill="white" stroke="black" points="981,-235.5 981,-265.5 1099,-265.5 1099,-235.5 981,-235.5"/>
<text text-anchor="start" x="989" y="-253.5" font-family="Helvetica,sans-Serif" font-size="10.00">mom_diag_to_z::ocean</text>
<text text-anchor="middle" x="1040" y="-242.5" font-family="Helvetica,sans-Serif" font-size="10.00">_register_diag_with_z</text>
</a>
</g>
</g>
<!-- Node176&#45;&gt;Node177 -->
<g id="edge9" class="edge"><title>Node176&#45;&gt;Node177</title>
<path fill="none" stroke="midnightblue" d="M930.111,-250.5C946.759,-250.5 964.572,-250.5 980.868,-250.5"/>
<polygon fill="midnightblue" stroke="midnightblue" points="929.92,-247 919.92,-250.5 929.92,-254 929.92,-247"/>
</g>
<!-- Node183 -->
<g id="node16" class="node"><title>Node183</title>
<g id="a_node16"><a xlink:href="namespacemom.html#a0be2869fef30e1e0604facfe1b41555d" target="_top" xlink:title="This subroutine initializes MOM. ">
<polygon fill="white" stroke="black" points="986.5,-6 986.5,-25 1093.5,-25 1093.5,-6 986.5,-6"/>
<text text-anchor="middle" x="1040" y="-13" font-family="Helvetica,sans-Serif" font-size="10.00">mom::initialize_mom</text>
</a>
</g>
</g>
<!-- Node182&#45;&gt;Node183 -->
<g id="edge15" class="edge"><title>Node182&#45;&gt;Node183</title>
<path fill="none" stroke="midnightblue" d="M942.296,-15.5C957.171,-15.5 972.441,-15.5 986.326,-15.5"/>
<polygon fill="midnightblue" stroke="midnightblue" points="942.083,-12.0001 932.083,-15.5 942.083,-19.0001 942.083,-12.0001"/>
</g>
<!-- Node184 -->
<g id="node17" class="node"><title>Node184</title>
<g id="a_node17"><a xlink:href="MOM__driver_8F90.html#a08fffeb2d8e8acbf9ed4609be6d258c6" target="_top" xlink:title="mom_main">
<polygon fill="white" stroke="black" points="1135,-6 1135,-25 1200,-25 1200,-6 1135,-6"/>
<text text-anchor="middle" x="1167.5" y="-13" font-family="Helvetica,sans-Serif" font-size="10.00">mom_main</text>
</a>
</g>
</g>
<!-- Node183&#45;&gt;Node184 -->
<g id="edge16" class="edge"><title>Node183&#45;&gt;Node184</title>
<path fill="none" stroke="midnightblue" d="M1104.06,-15.5C1114.74,-15.5 1125.4,-15.5 1134.82,-15.5"/>
<polygon fill="midnightblue" stroke="midnightblue" points="1103.86,-12.0001 1093.86,-15.5 1103.86,-19.0001 1103.86,-12.0001"/>
</g>
<!-- Node187 -->
<g id="node20" class="node"><title>Node187</title>
<g id="a_node20"><a xlink:href="namespacemom__geothermal.html#a0abbb7953860e3357bbd3d35f46fd851" target="_top" xlink:title="mom_geothermal::geothermal_init">
<polygon fill="white" stroke="black" points="438,-69 438,-88 602,-88 602,-69 438,-69"/>
<text text-anchor="middle" x="520" y="-76" font-family="Helvetica,sans-Serif" font-size="10.00">mom_geothermal::geothermal_init</text>
</a>
</g>
</g>
<!-- Node186&#45;&gt;Node187 -->
<g id="edge19" class="edge"><title>Node186&#45;&gt;Node187</title>
<path fill="none" stroke="midnightblue" d="M412.14,-78.5C420.504,-78.5 429.159,-78.5 437.757,-78.5"/>
<polygon fill="midnightblue" stroke="midnightblue" points="412.106,-75.0001 402.105,-78.5 412.105,-82.0001 412.106,-75.0001"/>
</g>
<!-- Node188 -->
<g id="node21" class="node"><title>Node188</title>
<g id="a_node21"><a xlink:href="namespacemom__diabatic__driver.html#afa0b30bd6f0e080bcacbd6dcb15ff990" target="_top" xlink:title="This routine initializes the diabatic driver module. ">
<polygon fill="white" stroke="black" points="639.5,-63.5 639.5,-93.5 746.5,-93.5 746.5,-63.5 639.5,-63.5"/>
<text text-anchor="start" x="647.5" y="-81.5" font-family="Helvetica,sans-Serif" font-size="10.00">mom_diabatic_driver</text>
<text text-anchor="middle" x="693" y="-70.5" font-family="Helvetica,sans-Serif" font-size="10.00">::diabatic_driver_init</text>
</a>
</g>
</g>
<!-- Node187&#45;&gt;Node188 -->
<g id="edge20" class="edge"><title>Node187&#45;&gt;Node188</title>
<path fill="none" stroke="midnightblue" d="M612.275,-78.5C621.505,-78.5 630.646,-78.5 639.264,-78.5"/>
<polygon fill="midnightblue" stroke="midnightblue" points="612.243,-75.0001 602.243,-78.5 612.243,-82.0001 612.243,-75.0001"/>
</g>
</g>
</svg>
        <g id="navigator" transform="translate(0 0)" fill="#404254">
                <rect fill="#f2f5e9" fill-opacity="0.5" stroke="#606060" stroke-width=".5" x="0" y="0" width="60" height="60"/>
                <use id="zoomplus" xlink:href="#zoomPlus" x="17" y="9" onmousedown="handleZoom(evt,'in')"/>
                <use id="zoomminus" xlink:href="#zoomMin" x="42" y="9" onmousedown="handleZoom(evt,'out')"/>
                <use id="reset" xlink:href="#resetDef" x="30" y="36" onmousedown="handleReset()"/>
                <g id="arrowUp" xlink:href="#dirArrow" transform="translate(30 24)" onmousedown="handlePan(0,-1)">
                  <use xlink:href="#rim" fill="#404040">
                        <set attributeName="fill" to="#808080" begin="arrowUp.mouseover" end="arrowUp.mouseout"/>
                  </use>
                  <path fill="none" stroke="white" stroke-width="1.5" d="M0,-3.0v7 M-2.5,-0.5L0,-3.0L2.5,-0.5"/>
                </g>
                <g id="arrowRight" xlink:href="#dirArrow" transform="rotate(90) translate(36 -43)" onmousedown="handlePan(1,0)">
                  <use xlink:href="#rim" fill="#404040">
                        <set attributeName="fill" to="#808080" begin="arrowRight.mouseover" end="arrowRight.mouseout"/>
                  </use>
                  <path fill="none" stroke="white" stroke-width="1.5" d="M0,-3.0v7 M-2.5,-0.5L0,-3.0L2.5,-0.5"/>
                </g>
                <g id="arrowDown" xlink:href="#dirArrow" transform="rotate(180) translate(-30 -48)" onmousedown="handlePan(0,1)">
                  <use xlink:href="#rim" fill="#404040">
                        <set attributeName="fill" to="#808080" begin="arrowDown.mouseover" end="arrowDown.mouseout"/>
                  </use>
                  <path fill="none" stroke="white" stroke-width="1.5" d="M0,-3.0v7 M-2.5,-0.5L0,-3.0L2.5,-0.5"/>
                </g>
                <g id="arrowLeft" xlink:href="#dirArrow" transform="rotate(270) translate(-36 17)" onmousedown="handlePan(-1,0)">
                  <use xlink:href="#rim" fill="#404040">
                        <set attributeName="fill" to="#808080" begin="arrowLeft.mouseover" end="arrowLeft.mouseout"/>
                  </use>
                  <path fill="none" stroke="white" stroke-width="1.5" d="M0,-3.0v7 M-2.5,-0.5L0,-3.0L2.5,-0.5"/>
                </g>
        </g>
        <svg viewBox="0 0 15 15" width="100%" height="30px" preserveAspectRatio="xMaxYMin meet">
         <g id="arrow_out" transform="scale(0.3 0.3)">
          <a xlink:href="namespacemom__diag__mediator_a883862f004e30bbc5211f38635511ba0_icgraph_org.svg" target="_base">
           <rect id="button" ry="5" rx="5" y="6" x="6" height="38" width="38"
                fill="#f2f5e9" fill-opacity="0.5" stroke="#606060" stroke-width="1.0"/>
           <path id="arrow"
             d="M 11.500037,31.436501 C 11.940474,20.09759 22.043105,11.32322 32.158766,21.979434 L 37.068811,17.246167 C 37.068811,17.246167 37.088388,32 37.088388,32 L 22.160133,31.978069 C 22.160133,31.978069 26.997745,27.140456 26.997745,27.140456 C 18.528582,18.264221 13.291696,25.230495 11.500037,31.436501 z"
             style="fill:#404040;"/>
          </a>
         </g>
        </svg>
</svg>
