<?xml version="1.0" encoding="UTF-8" standalone="no"?>
<!DOCTYPE svg PUBLIC "-//W3C//DTD SVG 1.1//EN"
 "http://www.w3.org/Graphics/SVG/1.1/DTD/svg11.dtd">
<!-- Generated by graphviz version 2.38.0 (20140413.2041)
 -->
<!-- Title: mom_eos::calculate_compress Pages: 1 -->
<svg width="459pt" height="235pt"
 viewBox="0.00 0.00 459.00 235.00" xmlns="http://www.w3.org/2000/svg" xmlns:xlink="http://www.w3.org/1999/xlink">
<g id="graph0" class="graph" transform="scale(1 1) rotate(0) translate(4 231)">
<title>mom_eos::calculate_compress</title>
<polygon fill="white" stroke="none" points="-4,4 -4,-231 455,-231 455,4 -4,4"/>
<!-- Node0 -->
<g id="node1" class="node"><title>Node0</title>
<polygon fill="#bfbfbf" stroke="black" points="0,-98.5 0,-128.5 104,-128.5 104,-98.5 0,-98.5"/>
<text text-anchor="start" x="8" y="-116.5" font-family="Helvetica,sans-Serif" font-size="10.00">mom_eos::calculate</text>
<text text-anchor="middle" x="52" y="-105.5" font-family="Helvetica,sans-Serif" font-size="10.00">_compress</text>
</g>
<!-- Node1 -->
<g id="node2" class="node"><title>Node1</title>
<g id="a_node2"><a xlink:href="namespacemom__eos__linear.html#a2d051ebfb3ee1ef96888c74c09a1a6ca" target="_top" xlink:title="This subroutine computes the in situ density of sea water (rho) and the compressibility (drho/dp == C...">
<polygon fill="white" stroke="black" points="144,-196.5 144,-226.5 277,-226.5 277,-196.5 144,-196.5"/>
<text text-anchor="start" x="152" y="-214.5" font-family="Helvetica,sans-Serif" font-size="10.00">mom_eos_linear::calculate</text>
<text text-anchor="middle" x="210.5" y="-203.5" font-family="Helvetica,sans-Serif" font-size="10.00">_compress_linear</text>
</a>
</g>
</g>
<!-- Node0&#45;&gt;Node1 -->
<g id="edge1" class="edge"><title>Node0&#45;&gt;Node1</title>
<path fill="none" stroke="midnightblue" d="M67.3927,-128.756C83.6573,-145.228 111.585,-171.281 140,-187.5 143.03,-189.229 146.205,-190.863 149.459,-192.402"/>
<polygon fill="midnightblue" stroke="midnightblue" points="148.223,-195.681 158.787,-196.487 151.031,-189.269 148.223,-195.681"/>
</g>
<!-- Node2 -->
<g id="node3" class="node"><title>Node2</title>
<g id="a_node3"><a xlink:href="namespacemom__eos__nemo.html#ab9441b5fdd50f09a5bac70012def0ea7" target="_top" xlink:title="mom_eos_nemo::calculate\l_compress_nemo">
<polygon fill="white" stroke="black" points="143.5,-147.5 143.5,-177.5 277.5,-177.5 277.5,-147.5 143.5,-147.5"/>
<text text-anchor="start" x="151.5" y="-165.5" font-family="Helvetica,sans-Serif" font-size="10.00">mom_eos_nemo::calculate</text>
<text text-anchor="middle" x="210.5" y="-154.5" font-family="Helvetica,sans-Serif" font-size="10.00">_compress_nemo</text>
</a>
</g>
</g>
<!-- Node0&#45;&gt;Node2 -->
<g id="edge2" class="edge"><title>Node0&#45;&gt;Node2</title>
<path fill="none" stroke="midnightblue" d="M101.232,-128.601C117.223,-133.608 135.186,-139.232 151.815,-144.439"/>
<polygon fill="midnightblue" stroke="midnightblue" points="150.838,-147.801 161.427,-147.448 152.93,-141.12 150.838,-147.801"/>
</g>
<!-- Node4 -->
<g id="node5" class="node"><title>Node4</title>
<g id="a_node5"><a xlink:href="namespacemom__eos__unesco.html#a4a125f4eb70d4b2517dadd2f9446f261" target="_top" xlink:title="This subroutine computes the in situ density of sea water (rho) and the compressibility (drho/dp == C...">
<polygon fill="white" stroke="black" points="140,-98.5 140,-128.5 281,-128.5 281,-98.5 140,-98.5"/>
<text text-anchor="start" x="148" y="-116.5" font-family="Helvetica,sans-Serif" font-size="10.00">mom_eos_unesco::calculate</text>
<text text-anchor="middle" x="210.5" y="-105.5" font-family="Helvetica,sans-Serif" font-size="10.00">_compress_unesco</text>
</a>
</g>
</g>
<!-- Node0&#45;&gt;Node4 -->
<g id="edge4" class="edge"><title>Node0&#45;&gt;Node4</title>
<path fill="none" stroke="midnightblue" d="M104.244,-113.5C112.445,-113.5 121.098,-113.5 129.774,-113.5"/>
<polygon fill="midnightblue" stroke="midnightblue" points="129.945,-117 139.945,-113.5 129.945,-110 129.945,-117"/>
</g>
<!-- Node5 -->
<g id="node6" class="node"><title>Node5</title>
<g id="a_node6"><a xlink:href="namespacemom__eos__wright.html#ab5610ab6dd25f488ff5821dcbde78e0d" target="_top" xlink:title="This subroutine computes the in situ density of sea water (rho in units of kg/m^3) and the compressib...">
<polygon fill="white" stroke="black" points="142.5,-49.5 142.5,-79.5 278.5,-79.5 278.5,-49.5 142.5,-49.5"/>
<text text-anchor="start" x="150.5" y="-67.5" font-family="Helvetica,sans-Serif" font-size="10.00">mom_eos_wright::calculate</text>
<text text-anchor="middle" x="210.5" y="-56.5" font-family="Helvetica,sans-Serif" font-size="10.00">_compress_wright</text>
</a>
</g>
</g>
<!-- Node0&#45;&gt;Node5 -->
<g id="edge5" class="edge"><title>Node0&#45;&gt;Node5</title>
<path fill="none" stroke="midnightblue" d="M101.232,-98.3986C117.223,-93.3917 135.186,-87.7676 151.815,-82.561"/>
<polygon fill="midnightblue" stroke="midnightblue" points="152.93,-85.8797 161.427,-79.5516 150.838,-79.1995 152.93,-85.8797"/>
</g>
<!-- Node6 -->
<g id="node7" class="node"><title>Node6</title>
<g id="a_node7"><a xlink:href="namespacemom__error__handler.html#a460cfb79a06c29fc249952c2a3710d67" target="_top" xlink:title="mom_error_handler::\lmom_error">
<polygon fill="white" stroke="black" points="157.5,-0.5 157.5,-30.5 263.5,-30.5 263.5,-0.5 157.5,-0.5"/>
<text text-anchor="start" x="165.5" y="-18.5" font-family="Helvetica,sans-Serif" font-size="10.00">mom_error_handler::</text>
<text text-anchor="middle" x="210.5" y="-7.5" font-family="Helvetica,sans-Serif" font-size="10.00">mom_error</text>
</a>
</g>
</g>
<!-- Node0&#45;&gt;Node6 -->
<g id="edge6" class="edge"><title>Node0&#45;&gt;Node6</title>
<path fill="none" stroke="midnightblue" d="M67.7705,-98.2362C84.1457,-82.0419 111.966,-56.615 140,-40.5 143.627,-38.4151 147.458,-36.4556 151.383,-34.6234"/>
<polygon fill="midnightblue" stroke="midnightblue" points="152.889,-37.7848 160.657,-30.58 150.092,-31.368 152.889,-37.7848"/>
</g>
<!-- Node3 -->
<g id="node4" class="node"><title>Node3</title>
<g id="a_node4"><a xlink:href="namespacemom__eos__nemo.html#a6889819926cf3d89725e2987740ff922" target="_top" xlink:title="This subroutine computes the in situ density of sea water (rho in units of kg/m^3) from absolute sali...">
<polygon fill="white" stroke="black" points="317,-147.5 317,-177.5 451,-177.5 451,-147.5 317,-147.5"/>
<text text-anchor="start" x="325" y="-165.5" font-family="Helvetica,sans-Serif" font-size="10.00">mom_eos_nemo::calculate</text>
<text text-anchor="middle" x="384" y="-154.5" font-family="Helvetica,sans-Serif" font-size="10.00">_density_array_nemo</text>
</a>
</g>
</g>
<!-- Node2&#45;&gt;Node3 -->
<g id="edge3" class="edge"><title>Node2&#45;&gt;Node3</title>
<path fill="none" stroke="midnightblue" d="M277.806,-162.5C287.321,-162.5 297.172,-162.5 306.857,-162.5"/>
<polygon fill="midnightblue" stroke="midnightblue" points="306.87,-166 316.87,-162.5 306.87,-159 306.87,-166"/>
</g>
<!-- Node7 -->
<g id="node8" class="node"><title>Node7</title>
<g id="a_node8"><a xlink:href="namespacemom__error__handler.html#ad5f00a53059c72fe2332d1436c80ca71" target="_top" xlink:title="mom_error_handler::\lis_root_pe">
<polygon fill="white" stroke="black" points="331,-0.5 331,-30.5 437,-30.5 437,-0.5 331,-0.5"/>
<text text-anchor="start" x="339" y="-18.5" font-family="Helvetica,sans-Serif" font-size="10.00">mom_error_handler::</text>
<text text-anchor="middle" x="384" y="-7.5" font-family="Helvetica,sans-Serif" font-size="10.00">is_root_pe</text>
</a>
</g>
</g>
<!-- Node6&#45;&gt;Node7 -->
<g id="edge7" class="edge"><title>Node6&#45;&gt;Node7</title>
<path fill="none" stroke="midnightblue" d="M263.888,-15.5C281.84,-15.5 302.104,-15.5 320.76,-15.5"/>
<polygon fill="midnightblue" stroke="midnightblue" points="320.933,-19.0001 330.933,-15.5 320.933,-12.0001 320.933,-19.0001"/>
</g>
</g>
</svg>
