<?xml version="1.0" encoding="UTF-8" standalone="no"?>
<!DOCTYPE svg PUBLIC "-//W3C//DTD SVG 1.1//EN"
 "http://www.w3.org/Graphics/SVG/1.1/DTD/svg11.dtd">
<!-- Generated by graphviz version 2.38.0 (20140413.2041)
 -->
<!-- Title: meso_surface_forcing::meso_buoyancy_forcing Pages: 1 -->
<svg width="427pt" height="88pt"
 viewBox="0.00 0.00 427.00 88.00" xmlns="http://www.w3.org/2000/svg" xmlns:xlink="http://www.w3.org/1999/xlink">
<g id="graph0" class="graph" transform="scale(1 1) rotate(0) translate(4 84)">
<title>meso_surface_forcing::meso_buoyancy_forcing</title>
<polygon fill="white" stroke="none" points="-4,4 -4,-84 423,-84 423,4 -4,4"/>
<!-- Node3 -->
<g id="node1" class="node"><title>Node3</title>
<polygon fill="#bfbfbf" stroke="black" points="0,-24.5 0,-54.5 128,-54.5 128,-24.5 0,-24.5"/>
<text text-anchor="start" x="8" y="-42.5" font-family="Helvetica,sans-Serif" font-size="10.00">meso_surface_forcing</text>
<text text-anchor="middle" x="64" y="-31.5" font-family="Helvetica,sans-Serif" font-size="10.00">::meso_buoyancy_forcing</text>
</g>
<!-- Node4 -->
<g id="node2" class="node"><title>Node4</title>
<g id="a_node2"><a xlink:href="namespacemeso__surface__forcing.html#ad6f45f712bcc3263394fd0f016ceeae2" target="_top" xlink:title="meso_surface_forcing\l::alloc_if_needed">
<polygon fill="white" stroke="black" points="164,-49.5 164,-79.5 277,-79.5 277,-49.5 164,-49.5"/>
<text text-anchor="start" x="172" y="-67.5" font-family="Helvetica,sans-Serif" font-size="10.00">meso_surface_forcing</text>
<text text-anchor="middle" x="220.5" y="-56.5" font-family="Helvetica,sans-Serif" font-size="10.00">::alloc_if_needed</text>
</a>
</g>
</g>
<!-- Node3&#45;&gt;Node4 -->
<g id="edge1" class="edge"><title>Node3&#45;&gt;Node4</title>
<path fill="none" stroke="midnightblue" d="M128.287,-49.7406C136.792,-51.1169 145.531,-52.5309 154.073,-53.913"/>
<polygon fill="midnightblue" stroke="midnightblue" points="153.552,-57.3743 163.983,-55.5166 154.67,-50.4642 153.552,-57.3743"/>
</g>
<!-- Node5 -->
<g id="node3" class="node"><title>Node5</title>
<g id="a_node3"><a xlink:href="namespacemom__error__handler.html#a460cfb79a06c29fc249952c2a3710d67" target="_top" xlink:title="mom_error_handler::\lmom_error">
<polygon fill="white" stroke="black" points="167.5,-0.5 167.5,-30.5 273.5,-30.5 273.5,-0.5 167.5,-0.5"/>
<text text-anchor="start" x="175.5" y="-18.5" font-family="Helvetica,sans-Serif" font-size="10.00">mom_error_handler::</text>
<text text-anchor="middle" x="220.5" y="-7.5" font-family="Helvetica,sans-Serif" font-size="10.00">mom_error</text>
</a>
</g>
</g>
<!-- Node3&#45;&gt;Node5 -->
<g id="edge2" class="edge"><title>Node3&#45;&gt;Node5</title>
<path fill="none" stroke="midnightblue" d="M128.287,-29.669C137.834,-28.186 147.675,-26.6573 157.201,-25.1775"/>
<polygon fill="midnightblue" stroke="midnightblue" points="158.041,-28.5891 167.385,-23.5955 156.966,-21.6721 158.041,-28.5891"/>
</g>
<!-- Node6 -->
<g id="node4" class="node"><title>Node6</title>
<g id="a_node4"><a xlink:href="namespacemom__error__handler.html#ad5f00a53059c72fe2332d1436c80ca71" target="_top" xlink:title="mom_error_handler::\lis_root_pe">
<polygon fill="white" stroke="black" points="313,-0.5 313,-30.5 419,-30.5 419,-0.5 313,-0.5"/>
<text text-anchor="start" x="321" y="-18.5" font-family="Helvetica,sans-Serif" font-size="10.00">mom_error_handler::</text>
<text text-anchor="middle" x="366" y="-7.5" font-family="Helvetica,sans-Serif" font-size="10.00">is_root_pe</text>
</a>
</g>
</g>
<!-- Node5&#45;&gt;Node6 -->
<g id="edge3" class="edge"><title>Node5&#45;&gt;Node6</title>
<path fill="none" stroke="midnightblue" d="M273.713,-15.5C283.011,-15.5 292.783,-15.5 302.337,-15.5"/>
<polygon fill="midnightblue" stroke="midnightblue" points="302.586,-19.0001 312.586,-15.5 302.586,-12.0001 302.586,-19.0001"/>
</g>
</g>
</svg>
