<?xml version="1.0" encoding="UTF-8" standalone="no"?>
<!DOCTYPE svg PUBLIC "-//W3C//DTD SVG 1.1//EN"
 "http://www.w3.org/Graphics/SVG/1.1/DTD/svg11.dtd">
<!-- Generated by graphviz version 2.38.0 (20140413.2041)
 -->
<!-- Title: mom_ale_sponge::set_up_ale_sponge_field Pages: 1 -->
<svg width="699pt" height="149pt"
 viewBox="0.00 0.00 699.00 148.50" xmlns="http://www.w3.org/2000/svg" xmlns:xlink="http://www.w3.org/1999/xlink">
<g id="graph0" class="graph" transform="scale(1 1) rotate(0) translate(4 144.5)">
<title>mom_ale_sponge::set_up_ale_sponge_field</title>
<polygon fill="white" stroke="none" points="-4,4 -4,-144.5 695,-144.5 695,4 -4,4"/>
<!-- Node24 -->
<g id="node1" class="node"><title>Node24</title>
<polygon fill="#bfbfbf" stroke="black" points="0,-49.5 0,-79.5 113,-79.5 113,-49.5 0,-49.5"/>
<text text-anchor="start" x="8" y="-67.5" font-family="Helvetica,sans-Serif" font-size="10.00">mom_ale_sponge::set</text>
<text text-anchor="middle" x="56.5" y="-56.5" font-family="Helvetica,sans-Serif" font-size="10.00">_up_ale_sponge_field</text>
</g>
<!-- Node25 -->
<g id="node2" class="node"><title>Node25</title>
<g id="a_node2"><a xlink:href="namespacedense__water__initialization.html#ad2b426d6c4abc03ad3adf965cb9cf7f0" target="_top" xlink:title="Initialize the restoring sponges for the dense water experiment. ">
<polygon fill="white" stroke="black" points="155,-99 155,-140 283,-140 283,-99 155,-99"/>
<text text-anchor="start" x="163" y="-128" font-family="Helvetica,sans-Serif" font-size="10.00">dense_water_initialization</text>
<text text-anchor="start" x="163" y="-117" font-family="Helvetica,sans-Serif" font-size="10.00">::dense_water_initialize</text>
<text text-anchor="middle" x="219" y="-106" font-family="Helvetica,sans-Serif" font-size="10.00">_sponges</text>
</a>
</g>
</g>
<!-- Node24&#45;&gt;Node25 -->
<g id="edge1" class="edge"><title>Node24&#45;&gt;Node25</title>
<path fill="none" stroke="midnightblue" d="M111.02,-82.84C126.073,-87.9985 142.543,-93.6424 157.95,-98.9223"/>
<polygon fill="midnightblue" stroke="midnightblue" points="111.952,-79.4598 101.357,-79.529 109.683,-86.0818 111.952,-79.4598"/>
</g>
<!-- Node29 -->
<g id="node6" class="node"><title>Node29</title>
<g id="a_node6"><a xlink:href="namespacedome2d__initialization.html#ab0df2b602fe1c83baa66ba03cc2c6dd4" target="_top" xlink:title="Set up sponges in 2d DOME configuration. ">
<polygon fill="white" stroke="black" points="149,-49.5 149,-79.5 289,-79.5 289,-49.5 149,-49.5"/>
<text text-anchor="start" x="157" y="-67.5" font-family="Helvetica,sans-Serif" font-size="10.00">dome2d_initialization</text>
<text text-anchor="middle" x="219" y="-56.5" font-family="Helvetica,sans-Serif" font-size="10.00">::dome2d_initialize_sponges</text>
</a>
</g>
</g>
<!-- Node24&#45;&gt;Node29 -->
<g id="edge5" class="edge"><title>Node24&#45;&gt;Node29</title>
<path fill="none" stroke="midnightblue" d="M123.317,-64.5C131.734,-64.5 140.369,-64.5 148.837,-64.5"/>
<polygon fill="midnightblue" stroke="midnightblue" points="123.185,-61.0001 113.185,-64.5 123.185,-68.0001 123.185,-61.0001"/>
</g>
<!-- Node30 -->
<g id="node7" class="node"><title>Node30</title>
<g id="a_node7"><a xlink:href="namespaceisomip__initialization.html#a672219a0070f4491fc1a8d9c20c6c1e4" target="_top" xlink:title="Sets up the the inverse restoration time (Idamp), and. ">
<polygon fill="white" stroke="black" points="152,-0.5 152,-30.5 286,-30.5 286,-0.5 152,-0.5"/>
<text text-anchor="start" x="160" y="-18.5" font-family="Helvetica,sans-Serif" font-size="10.00">isomip_initialization</text>
<text text-anchor="middle" x="219" y="-7.5" font-family="Helvetica,sans-Serif" font-size="10.00">::isomip_initialize_sponges</text>
</a>
</g>
</g>
<!-- Node24&#45;&gt;Node30 -->
<g id="edge7" class="edge"><title>Node24&#45;&gt;Node30</title>
<path fill="none" stroke="midnightblue" d="M116.829,-46.3871C133.892,-41.1778 152.312,-35.5543 168.698,-30.5516"/>
<polygon fill="midnightblue" stroke="midnightblue" points="115.507,-43.1311 106.965,-49.3986 117.551,-49.8261 115.507,-43.1311"/>
</g>
<!-- Node26 -->
<g id="node3" class="node"><title>Node26</title>
<g id="a_node3"><a xlink:href="namespacemom__state__initialization.html#af4e854627c6572332ba3fd895f169321" target="_top" xlink:title="mom_state_initialization\l::mom_initialize_state">
<polygon fill="white" stroke="black" points="325,-76.5 325,-106.5 447,-106.5 447,-76.5 325,-76.5"/>
<text text-anchor="start" x="333" y="-94.5" font-family="Helvetica,sans-Serif" font-size="10.00">mom_state_initialization</text>
<text text-anchor="middle" x="386" y="-83.5" font-family="Helvetica,sans-Serif" font-size="10.00">::mom_initialize_state</text>
</a>
</g>
</g>
<!-- Node25&#45;&gt;Node26 -->
<g id="edge2" class="edge"><title>Node25&#45;&gt;Node26</title>
<path fill="none" stroke="midnightblue" d="M293.333,-107.056C303.864,-105.269 314.597,-103.447 324.833,-101.71"/>
<polygon fill="midnightblue" stroke="midnightblue" points="292.595,-103.631 283.321,-108.755 293.766,-110.532 292.595,-103.631"/>
</g>
<!-- Node27 -->
<g id="node4" class="node"><title>Node27</title>
<g id="a_node4"><a xlink:href="namespacemom.html#a0be2869fef30e1e0604facfe1b41555d" target="_top" xlink:title="This subroutine initializes MOM. ">
<polygon fill="white" stroke="black" points="483,-82 483,-101 590,-101 590,-82 483,-82"/>
<text text-anchor="middle" x="536.5" y="-89" font-family="Helvetica,sans-Serif" font-size="10.00">mom::initialize_mom</text>
</a>
</g>
</g>
<!-- Node26&#45;&gt;Node27 -->
<g id="edge3" class="edge"><title>Node26&#45;&gt;Node27</title>
<path fill="none" stroke="midnightblue" d="M457.657,-91.5C466.116,-91.5 474.636,-91.5 482.779,-91.5"/>
<polygon fill="midnightblue" stroke="midnightblue" points="457.401,-88.0001 447.401,-91.5 457.401,-95.0001 457.401,-88.0001"/>
</g>
<!-- Node28 -->
<g id="node5" class="node"><title>Node28</title>
<g id="a_node5"><a xlink:href="MOM__driver_8F90.html#a08fffeb2d8e8acbf9ed4609be6d258c6" target="_top" xlink:title="mom_main">
<polygon fill="white" stroke="black" points="626,-82 626,-101 691,-101 691,-82 626,-82"/>
<text text-anchor="middle" x="658.5" y="-89" font-family="Helvetica,sans-Serif" font-size="10.00">mom_main</text>
</a>
</g>
</g>
<!-- Node27&#45;&gt;Node28 -->
<g id="edge4" class="edge"><title>Node27&#45;&gt;Node28</title>
<path fill="none" stroke="midnightblue" d="M600.206,-91.5C609.134,-91.5 617.983,-91.5 625.958,-91.5"/>
<polygon fill="midnightblue" stroke="midnightblue" points="600.134,-88.0001 590.134,-91.5 600.134,-95.0001 600.134,-88.0001"/>
</g>
<!-- Node29&#45;&gt;Node26 -->
<g id="edge6" class="edge"><title>Node29&#45;&gt;Node26</title>
<path fill="none" stroke="midnightblue" d="M299.146,-77.4512C307.813,-78.8693 316.528,-80.2955 324.91,-81.667"/>
<polygon fill="midnightblue" stroke="midnightblue" points="299.453,-73.9549 289.019,-75.794 298.322,-80.863 299.453,-73.9549"/>
</g>
</g>
</svg>
