<?xml version="1.0" encoding="UTF-8" standalone="no"?>
<!DOCTYPE svg PUBLIC "-//W3C//DTD SVG 1.1//EN"
 "http://www.w3.org/Graphics/SVG/1.1/DTD/svg11.dtd">
<!-- Generated by graphviz version 2.38.0 (20140413.2041)
 -->
<!-- Title: mom_dyn_horgrid::adcroft_reciprocal Pages: 1 -->
<svg width="845pt" height="88pt"
 viewBox="0.00 0.00 845.00 88.00" xmlns="http://www.w3.org/2000/svg" xmlns:xlink="http://www.w3.org/1999/xlink">
<g id="graph0" class="graph" transform="scale(1 1) rotate(0) translate(4 84)">
<title>mom_dyn_horgrid::adcroft_reciprocal</title>
<polygon fill="white" stroke="none" points="-4,4 -4,-84 841,-84 841,4 -4,4"/>
<!-- Node1 -->
<g id="node1" class="node"><title>Node1</title>
<polygon fill="#bfbfbf" stroke="black" points="0,-24.5 0,-54.5 130,-54.5 130,-24.5 0,-24.5"/>
<text text-anchor="start" x="8" y="-42.5" font-family="Helvetica,sans-Serif" font-size="10.00">mom_dyn_horgrid::adcroft</text>
<text text-anchor="middle" x="65" y="-31.5" font-family="Helvetica,sans-Serif" font-size="10.00">_reciprocal</text>
</g>
<!-- Node2 -->
<g id="node2" class="node"><title>Node2</title>
<g id="a_node2"><a xlink:href="namespacemom__dyn__horgrid.html#aefa448039e24b26fe06f9251848b6aac" target="_top" xlink:title="set_derived_dyn_horgrid calculates metric terms that are derived from other metrics. ">
<polygon fill="white" stroke="black" points="166,-24.5 166,-54.5 279,-54.5 279,-24.5 166,-24.5"/>
<text text-anchor="start" x="174" y="-42.5" font-family="Helvetica,sans-Serif" font-size="10.00">mom_dyn_horgrid::set</text>
<text text-anchor="middle" x="222.5" y="-31.5" font-family="Helvetica,sans-Serif" font-size="10.00">_derived_dyn_horgrid</text>
</a>
</g>
</g>
<!-- Node1&#45;&gt;Node2 -->
<g id="edge1" class="edge"><title>Node1&#45;&gt;Node2</title>
<path fill="none" stroke="midnightblue" d="M140.247,-39.5C148.897,-39.5 157.605,-39.5 165.941,-39.5"/>
<polygon fill="midnightblue" stroke="midnightblue" points="140.146,-36.0001 130.146,-39.5 140.146,-43.0001 140.146,-36.0001"/>
</g>
<!-- Node3 -->
<g id="node3" class="node"><title>Node3</title>
<g id="a_node3"><a xlink:href="namespacemom__transcribe__grid.html#a426ae345ad289eabaf68aeff02019753" target="_top" xlink:title="Copies information from an ocean_grid_type into a dynamic (shared) horizontal grid type...">
<polygon fill="white" stroke="black" points="451,-49.5 451,-79.5 593,-79.5 593,-49.5 451,-49.5"/>
<text text-anchor="start" x="459" y="-67.5" font-family="Helvetica,sans-Serif" font-size="10.00">mom_transcribe_grid</text>
<text text-anchor="middle" x="522" y="-56.5" font-family="Helvetica,sans-Serif" font-size="10.00">::copy_mom_grid_to_dyngrid</text>
</a>
</g>
</g>
<!-- Node2&#45;&gt;Node3 -->
<g id="edge2" class="edge"><title>Node2&#45;&gt;Node3</title>
<path fill="none" stroke="midnightblue" d="M289.374,-45.0357C337.306,-49.0636 402.101,-54.5085 450.971,-58.6152"/>
<polygon fill="midnightblue" stroke="midnightblue" points="289.366,-41.5227 279.108,-44.173 288.78,-48.4982 289.366,-41.5227"/>
</g>
<!-- Node6 -->
<g id="node6" class="node"><title>Node6</title>
<g id="a_node6"><a xlink:href="namespacemom__grid__initialize.html#a235a9712823e2f78e4958e8d681b6ba4" target="_top" xlink:title="set_grid_metrics is used to set the primary values in the model&#39;s horizontal grid. The bathymetry, land&#45;sea mask and any restricted channel widths are not known yet, so these are set later. ">
<polygon fill="white" stroke="black" points="315,-2.5 315,-32.5 415,-32.5 415,-2.5 315,-2.5"/>
<text text-anchor="start" x="323" y="-20.5" font-family="Helvetica,sans-Serif" font-size="10.00">mom_grid_initialize</text>
<text text-anchor="middle" x="365" y="-9.5" font-family="Helvetica,sans-Serif" font-size="10.00">::set_grid_metrics</text>
</a>
</g>
</g>
<!-- Node2&#45;&gt;Node6 -->
<g id="edge5" class="edge"><title>Node2&#45;&gt;Node6</title>
<path fill="none" stroke="midnightblue" d="M289.102,-29.2277C297.747,-27.8741 306.486,-26.5058 314.792,-25.2052"/>
<polygon fill="midnightblue" stroke="midnightblue" points="288.367,-25.8001 279.029,-30.805 289.45,-32.7158 288.367,-25.8001"/>
</g>
<!-- Node4 -->
<g id="node4" class="node"><title>Node4</title>
<g id="a_node4"><a xlink:href="namespacemom.html#a0be2869fef30e1e0604facfe1b41555d" target="_top" xlink:title="This subroutine initializes MOM. ">
<polygon fill="white" stroke="black" points="629,-30 629,-49 736,-49 736,-30 629,-30"/>
<text text-anchor="middle" x="682.5" y="-37" font-family="Helvetica,sans-Serif" font-size="10.00">mom::initialize_mom</text>
</a>
</g>
</g>
<!-- Node3&#45;&gt;Node4 -->
<g id="edge3" class="edge"><title>Node3&#45;&gt;Node4</title>
<path fill="none" stroke="midnightblue" d="M603.528,-51.7984C612.132,-50.4413 620.715,-49.0875 628.873,-47.8008"/>
<polygon fill="midnightblue" stroke="midnightblue" points="602.776,-48.3737 593.443,-53.389 603.867,-55.2882 602.776,-48.3737"/>
</g>
<!-- Node5 -->
<g id="node5" class="node"><title>Node5</title>
<g id="a_node5"><a xlink:href="MOM__driver_8F90.html#a08fffeb2d8e8acbf9ed4609be6d258c6" target="_top" xlink:title="mom_main">
<polygon fill="white" stroke="black" points="772,-30 772,-49 837,-49 837,-30 772,-30"/>
<text text-anchor="middle" x="804.5" y="-37" font-family="Helvetica,sans-Serif" font-size="10.00">mom_main</text>
</a>
</g>
</g>
<!-- Node4&#45;&gt;Node5 -->
<g id="edge4" class="edge"><title>Node4&#45;&gt;Node5</title>
<path fill="none" stroke="midnightblue" d="M746.206,-39.5C755.134,-39.5 763.983,-39.5 771.958,-39.5"/>
<polygon fill="midnightblue" stroke="midnightblue" points="746.134,-36.0001 736.134,-39.5 746.134,-43.0001 746.134,-36.0001"/>
</g>
<!-- Node7 -->
<g id="node7" class="node"><title>Node7</title>
<g id="a_node7"><a xlink:href="namespacemom__fixed__initialization.html#a6c1c054d9cda9f1bd11abba748614c92" target="_top" xlink:title="MOM_initialize_fixed sets up time&#45;invariant quantities related to MOM6&#39;s horizontal grid...">
<polygon fill="white" stroke="black" points="461.5,-0.5 461.5,-30.5 582.5,-30.5 582.5,-0.5 461.5,-0.5"/>
<text text-anchor="start" x="469.5" y="-18.5" font-family="Helvetica,sans-Serif" font-size="10.00">mom_fixed_initialization</text>
<text text-anchor="middle" x="522" y="-7.5" font-family="Helvetica,sans-Serif" font-size="10.00">::mom_initialize_fixed</text>
</a>
</g>
</g>
<!-- Node6&#45;&gt;Node7 -->
<g id="edge6" class="edge"><title>Node6&#45;&gt;Node7</title>
<path fill="none" stroke="midnightblue" d="M425.265,-16.7353C437.107,-16.5825 449.552,-16.4219 461.405,-16.269"/>
<polygon fill="midnightblue" stroke="midnightblue" points="424.997,-13.2384 415.043,-16.8672 425.087,-20.2378 424.997,-13.2384"/>
</g>
<!-- Node7&#45;&gt;Node4 -->
<g id="edge7" class="edge"><title>Node7&#45;&gt;Node4</title>
<path fill="none" stroke="midnightblue" d="M592.935,-26.0895C604.966,-27.9113 617.288,-29.777 628.77,-31.5156"/>
<polygon fill="midnightblue" stroke="midnightblue" points="593.333,-22.61 582.922,-24.5734 592.285,-29.5311 593.333,-22.61"/>
</g>
</g>
</svg>
