<?xml version="1.0" encoding="UTF-8" standalone="no"?>
<!DOCTYPE svg PUBLIC "-//W3C//DTD SVG 1.1//EN"
 "http://www.w3.org/Graphics/SVG/1.1/DTD/svg11.dtd">
<!-- Generated by graphviz version 2.38.0 (20140413.2041)
 -->
<!-- Title: mom_ale::ale_offline_tracer_final Pages: 1 -->
<svg width="416pt" height="78pt"
 viewBox="0.00 0.00 416.00 77.50" xmlns="http://www.w3.org/2000/svg" xmlns:xlink="http://www.w3.org/1999/xlink">
<g id="graph0" class="graph" transform="scale(1 1) rotate(0) translate(4 73.5)">
<title>mom_ale::ale_offline_tracer_final</title>
<polygon fill="white" stroke="none" points="-4,4 -4,-73.5 412,-73.5 412,4 -4,4"/>
<!-- Node69 -->
<g id="node1" class="node"><title>Node69</title>
<polygon fill="#bfbfbf" stroke="black" points="0,-22.5 0,-52.5 107,-52.5 107,-22.5 0,-22.5"/>
<text text-anchor="start" x="8" y="-40.5" font-family="Helvetica,sans-Serif" font-size="10.00">mom_ale::ale_offline</text>
<text text-anchor="middle" x="53.5" y="-29.5" font-family="Helvetica,sans-Serif" font-size="10.00">_tracer_final</text>
</g>
<!-- Node70 -->
<g id="node2" class="node"><title>Node70</title>
<g id="a_node2"><a xlink:href="namespacemom.html#ad56e17a755c7078ccea29ccbae4d5803" target="_top" xlink:title="step_offline is the main driver for running tracers offline in MOM6. This has been primarily develope...">
<polygon fill="white" stroke="black" points="143,-28 143,-47 238,-47 238,-28 143,-28"/>
<text text-anchor="middle" x="190.5" y="-35" font-family="Helvetica,sans-Serif" font-size="10.00">mom::step_offline</text>
</a>
</g>
</g>
<!-- Node69&#45;&gt;Node70 -->
<g id="edge1" class="edge"><title>Node69&#45;&gt;Node70</title>
<path fill="none" stroke="midnightblue" d="M117.194,-37.5C125.88,-37.5 134.673,-37.5 142.993,-37.5"/>
<polygon fill="midnightblue" stroke="midnightblue" points="117.081,-34.0001 107.081,-37.5 117.081,-41.0001 117.081,-34.0001"/>
</g>
<!-- Node71 -->
<g id="node3" class="node"><title>Node71</title>
<g id="a_node3"><a xlink:href="MOM__driver_8F90.html#a08fffeb2d8e8acbf9ed4609be6d258c6" target="_top" xlink:title="mom_main">
<polygon fill="white" stroke="black" points="308.5,-50 308.5,-69 373.5,-69 373.5,-50 308.5,-50"/>
<text text-anchor="middle" x="341" y="-57" font-family="Helvetica,sans-Serif" font-size="10.00">mom_main</text>
</a>
</g>
</g>
<!-- Node70&#45;&gt;Node71 -->
<g id="edge2" class="edge"><title>Node70&#45;&gt;Node71</title>
<path fill="none" stroke="midnightblue" d="M248.186,-45.8979C268.503,-48.9079 290.683,-52.1937 308.152,-54.7817"/>
<polygon fill="midnightblue" stroke="midnightblue" points="248.484,-42.4039 238.079,-44.4006 247.458,-49.3284 248.484,-42.4039"/>
</g>
<!-- Node72 -->
<g id="node4" class="node"><title>Node72</title>
<g id="a_node4"><a xlink:href="namespaceocean__model__mod.html#ac9dc1795fc4799d6682f462857b42d62" target="_top" xlink:title="ocean_model_mod::update\l_ocean_model">
<polygon fill="white" stroke="black" points="274,-0.5 274,-30.5 408,-30.5 408,-0.5 274,-0.5"/>
<text text-anchor="start" x="282" y="-18.5" font-family="Helvetica,sans-Serif" font-size="10.00">ocean_model_mod::update</text>
<text text-anchor="middle" x="341" y="-7.5" font-family="Helvetica,sans-Serif" font-size="10.00">_ocean_model</text>
</a>
</g>
</g>
<!-- Node70&#45;&gt;Node72 -->
<g id="edge3" class="edge"><title>Node70&#45;&gt;Node72</title>
<path fill="none" stroke="midnightblue" d="M248.109,-29.1135C256.486,-27.8724 265.182,-26.5841 273.735,-25.3171"/>
<polygon fill="midnightblue" stroke="midnightblue" points="247.458,-25.6716 238.079,-30.5994 248.484,-32.5961 247.458,-25.6716"/>
</g>
</g>
</svg>
