<?xml version="1.0" encoding="UTF-8" standalone="no"?>
<!DOCTYPE svg PUBLIC "-//W3C//DTD SVG 1.1//EN"
 "http://www.w3.org/Graphics/SVG/1.1/DTD/svg11.dtd">
<!-- Generated by graphviz version 2.38.0 (20140413.2041)
 -->
<!-- Title: mom_regularize_layers::find_deficit_ratios Pages: 1 -->
<svg width="574pt" height="39pt"
 viewBox="0.00 0.00 574.00 39.00" xmlns="http://www.w3.org/2000/svg" xmlns:xlink="http://www.w3.org/1999/xlink">
<g id="graph0" class="graph" transform="scale(1 1) rotate(0) translate(4 35)">
<title>mom_regularize_layers::find_deficit_ratios</title>
<polygon fill="white" stroke="none" points="-4,4 -4,-35 570,-35 570,4 -4,4"/>
<!-- Node1 -->
<g id="node1" class="node"><title>Node1</title>
<polygon fill="#bfbfbf" stroke="black" points="0,-0.5 0,-30.5 117,-30.5 117,-0.5 0,-0.5"/>
<text text-anchor="start" x="8" y="-18.5" font-family="Helvetica,sans-Serif" font-size="10.00">mom_regularize_layers</text>
<text text-anchor="middle" x="58.5" y="-7.5" font-family="Helvetica,sans-Serif" font-size="10.00">::find_deficit_ratios</text>
</g>
<!-- Node2 -->
<g id="node2" class="node"><title>Node2</title>
<g id="a_node2"><a xlink:href="namespacemom__regularize__layers.html#af8738e3c92f1d19b3f2269cb97f7eaf7" target="_top" xlink:title="This subroutine ensures that there is a degree of horizontal smoothness in the depths of the near&#45;sur...">
<polygon fill="white" stroke="black" points="153,-0.5 153,-30.5 270,-30.5 270,-0.5 153,-0.5"/>
<text text-anchor="start" x="161" y="-18.5" font-family="Helvetica,sans-Serif" font-size="10.00">mom_regularize_layers</text>
<text text-anchor="middle" x="211.5" y="-7.5" font-family="Helvetica,sans-Serif" font-size="10.00">::regularize_surface</text>
</a>
</g>
</g>
<!-- Node1&#45;&gt;Node2 -->
<g id="edge1" class="edge"><title>Node1&#45;&gt;Node2</title>
<path fill="none" stroke="midnightblue" d="M127.052,-15.5C135.678,-15.5 144.444,-15.5 152.893,-15.5"/>
<polygon fill="midnightblue" stroke="midnightblue" points="127.017,-12.0001 117.017,-15.5 127.017,-19.0001 127.017,-12.0001"/>
</g>
<!-- Node3 -->
<g id="node3" class="node"><title>Node3</title>
<g id="a_node3"><a xlink:href="namespacemom__regularize__layers.html#a32e5e07fe85a2f1861fe05f60576fe59" target="_top" xlink:title="This subroutine partially steps the bulk mixed layer model. The following processes are executed...">
<polygon fill="white" stroke="black" points="306,-0.5 306,-30.5 423,-30.5 423,-0.5 306,-0.5"/>
<text text-anchor="start" x="314" y="-18.5" font-family="Helvetica,sans-Serif" font-size="10.00">mom_regularize_layers</text>
<text text-anchor="middle" x="364.5" y="-7.5" font-family="Helvetica,sans-Serif" font-size="10.00">::regularize_layers</text>
</a>
</g>
</g>
<!-- Node2&#45;&gt;Node3 -->
<g id="edge2" class="edge"><title>Node2&#45;&gt;Node3</title>
<path fill="none" stroke="midnightblue" d="M280.052,-15.5C288.678,-15.5 297.444,-15.5 305.893,-15.5"/>
<polygon fill="midnightblue" stroke="midnightblue" points="280.017,-12.0001 270.017,-15.5 280.017,-19.0001 280.017,-12.0001"/>
</g>
<!-- Node4 -->
<g id="node4" class="node"><title>Node4</title>
<g id="a_node4"><a xlink:href="namespacemom__diabatic__driver.html#af76fe90c618a04d7806bc53fe0f7a2a7" target="_top" xlink:title="This subroutine imposes the diapycnal mass fluxes and the accompanying diapycnal advection of momentu...">
<polygon fill="white" stroke="black" points="459,-0.5 459,-30.5 566,-30.5 566,-0.5 459,-0.5"/>
<text text-anchor="start" x="467" y="-18.5" font-family="Helvetica,sans-Serif" font-size="10.00">mom_diabatic_driver</text>
<text text-anchor="middle" x="512.5" y="-7.5" font-family="Helvetica,sans-Serif" font-size="10.00">::diabatic</text>
</a>
</g>
</g>
<!-- Node3&#45;&gt;Node4 -->
<g id="edge3" class="edge"><title>Node3&#45;&gt;Node4</title>
<path fill="none" stroke="midnightblue" d="M433.26,-15.5C441.89,-15.5 450.618,-15.5 458.958,-15.5"/>
<polygon fill="midnightblue" stroke="midnightblue" points="433.203,-12.0001 423.203,-15.5 433.203,-19.0001 433.203,-12.0001"/>
</g>
</g>
</svg>
