<?xml version="1.0" encoding="UTF-8" standalone="no"?>
<!DOCTYPE svg PUBLIC "-//W3C//DTD SVG 1.1//EN"
 "http://www.w3.org/Graphics/SVG/1.1/DTD/svg11.dtd">
<!-- Generated by graphviz version 2.38.0 (20140413.2041)
 -->
<!-- Title: mom_diag_mediator::register_static_field Pages: 1 -->
<svg width="694pt" height="215pt"
 viewBox="0.00 0.00 694.00 215.00" xmlns="http://www.w3.org/2000/svg" xmlns:xlink="http://www.w3.org/1999/xlink">
<g id="graph0" class="graph" transform="scale(1 1) rotate(0) translate(4 211)">
<title>mom_diag_mediator::register_static_field</title>
<polygon fill="white" stroke="none" points="-4,4 -4,-211 690,-211 690,4 -4,4"/>
<!-- Node367 -->
<g id="node1" class="node"><title>Node367</title>
<polygon fill="#bfbfbf" stroke="black" points="0,-88.5 0,-118.5 110,-118.5 110,-88.5 0,-88.5"/>
<text text-anchor="start" x="8" y="-106.5" font-family="Helvetica,sans-Serif" font-size="10.00">mom_diag_mediator::</text>
<text text-anchor="middle" x="55" y="-95.5" font-family="Helvetica,sans-Serif" font-size="10.00">register_static_field</text>
</g>
<!-- Node368 -->
<g id="node2" class="node"><title>Node368</title>
<g id="a_node2"><a xlink:href="namespacemom__diag__mediator.html#a1b0bed2113a0c268eafd1bafbb48bd4f" target="_top" xlink:title="mom_diag_mediator::\lalloc_diag_with_id">
<polygon fill="white" stroke="black" points="146,-176.5 146,-206.5 256,-206.5 256,-176.5 146,-176.5"/>
<text text-anchor="start" x="154" y="-194.5" font-family="Helvetica,sans-Serif" font-size="10.00">mom_diag_mediator::</text>
<text text-anchor="middle" x="201" y="-183.5" font-family="Helvetica,sans-Serif" font-size="10.00">alloc_diag_with_id</text>
</a>
</g>
</g>
<!-- Node367&#45;&gt;Node368 -->
<g id="edge1" class="edge"><title>Node367&#45;&gt;Node368</title>
<path fill="none" stroke="midnightblue" d="M78.6754,-118.697C96.7201,-130.648 122.719,-147.552 146,-161.5 151.494,-164.792 157.363,-168.18 163.134,-171.441"/>
<polygon fill="midnightblue" stroke="midnightblue" points="161.616,-174.602 172.053,-176.428 165.033,-168.493 161.616,-174.602"/>
</g>
<!-- Node369 -->
<g id="node3" class="node"><title>Node369</title>
<g id="a_node3"><a xlink:href="namespacemom__error__handler.html#a33bcd190d460095104954f2e654f9fe6" target="_top" xlink:title="Issues a FATAL error if the assertion fails, i.e. the first argument is false. ">
<polygon fill="white" stroke="black" points="294,-137.5 294,-167.5 400,-167.5 400,-137.5 294,-137.5"/>
<text text-anchor="start" x="302" y="-155.5" font-family="Helvetica,sans-Serif" font-size="10.00">mom_error_handler::</text>
<text text-anchor="middle" x="347" y="-144.5" font-family="Helvetica,sans-Serif" font-size="10.00">assert</text>
</a>
</g>
</g>
<!-- Node367&#45;&gt;Node369 -->
<g id="edge2" class="edge"><title>Node367&#45;&gt;Node369</title>
<path fill="none" stroke="midnightblue" d="M107.595,-118.549C120.09,-121.835 133.461,-125.056 146,-127.5 191.814,-136.429 244.184,-142.84 283.839,-146.933"/>
<polygon fill="midnightblue" stroke="midnightblue" points="283.592,-150.426 293.894,-147.95 284.296,-143.462 283.592,-150.426"/>
</g>
<!-- Node371 -->
<g id="node5" class="node"><title>Node371</title>
<g id="a_node5"><a xlink:href="namespacemom__error__handler.html#ad5f00a53059c72fe2332d1436c80ca71" target="_top" xlink:title="mom_error_handler::\lis_root_pe">
<polygon fill="white" stroke="black" points="580,-78.5 580,-108.5 686,-108.5 686,-78.5 580,-78.5"/>
<text text-anchor="start" x="588" y="-96.5" font-family="Helvetica,sans-Serif" font-size="10.00">mom_error_handler::</text>
<text text-anchor="middle" x="633" y="-85.5" font-family="Helvetica,sans-Serif" font-size="10.00">is_root_pe</text>
</a>
</g>
</g>
<!-- Node367&#45;&gt;Node371 -->
<g id="edge8" class="edge"><title>Node367&#45;&gt;Node371</title>
<path fill="none" stroke="midnightblue" d="M100.823,-88.4782C115.093,-84.3932 131.057,-80.5369 146,-78.5 297.162,-57.8954 477.107,-73.8584 569.86,-85.0275"/>
<polygon fill="midnightblue" stroke="midnightblue" points="569.566,-88.5175 579.917,-86.2612 570.418,-81.5696 569.566,-88.5175"/>
</g>
<!-- Node372 -->
<g id="node6" class="node"><title>Node372</title>
<g id="a_node6"><a xlink:href="namespacemom__diag__mediator.html#a3f7442639213320f7429e2288a79fda2" target="_top" xlink:title="Returns a new diagnostic id, it may be necessary to expand the diagnostics array. ...">
<polygon fill="white" stroke="black" points="146,-88.5 146,-118.5 256,-118.5 256,-88.5 146,-88.5"/>
<text text-anchor="start" x="154" y="-106.5" font-family="Helvetica,sans-Serif" font-size="10.00">mom_diag_mediator::</text>
<text text-anchor="middle" x="201" y="-95.5" font-family="Helvetica,sans-Serif" font-size="10.00">get_new_diag_id</text>
</a>
</g>
</g>
<!-- Node367&#45;&gt;Node372 -->
<g id="edge5" class="edge"><title>Node367&#45;&gt;Node372</title>
<path fill="none" stroke="midnightblue" d="M110.03,-103.5C118.314,-103.5 126.936,-103.5 135.42,-103.5"/>
<polygon fill="midnightblue" stroke="midnightblue" points="135.667,-107 145.667,-103.5 135.667,-100 135.667,-107"/>
</g>
<!-- Node374 -->
<g id="node8" class="node"><title>Node374</title>
<g id="a_node8"><a xlink:href="namespacemom__diag__mediator.html#a65fe8d329cf5dbfd08c98874a7a64407" target="_top" xlink:title="Log a diagnostic to the available diagnostics file. ">
<polygon fill="white" stroke="black" points="146,-0.5 146,-30.5 256,-30.5 256,-0.5 146,-0.5"/>
<text text-anchor="start" x="154" y="-18.5" font-family="Helvetica,sans-Serif" font-size="10.00">mom_diag_mediator::</text>
<text text-anchor="middle" x="201" y="-7.5" font-family="Helvetica,sans-Serif" font-size="10.00">log_available_diag</text>
</a>
</g>
</g>
<!-- Node367&#45;&gt;Node374 -->
<g id="edge9" class="edge"><title>Node367&#45;&gt;Node374</title>
<path fill="none" stroke="midnightblue" d="M78.6754,-88.3027C96.7201,-76.3516 122.719,-59.4481 146,-45.5 151.494,-42.2084 157.363,-38.8199 163.134,-35.559"/>
<polygon fill="midnightblue" stroke="midnightblue" points="165.033,-38.5073 172.053,-30.5717 161.616,-32.3976 165.033,-38.5073"/>
</g>
<!-- Node370 -->
<g id="node4" class="node"><title>Node370</title>
<g id="a_node4"><a xlink:href="namespacemom__error__handler.html#a460cfb79a06c29fc249952c2a3710d67" target="_top" xlink:title="mom_error_handler::\lmom_error">
<polygon fill="white" stroke="black" points="438,-112.5 438,-142.5 544,-142.5 544,-112.5 438,-112.5"/>
<text text-anchor="start" x="446" y="-130.5" font-family="Helvetica,sans-Serif" font-size="10.00">mom_error_handler::</text>
<text text-anchor="middle" x="491" y="-119.5" font-family="Helvetica,sans-Serif" font-size="10.00">mom_error</text>
</a>
</g>
</g>
<!-- Node369&#45;&gt;Node370 -->
<g id="edge3" class="edge"><title>Node369&#45;&gt;Node370</title>
<path fill="none" stroke="midnightblue" d="M400.069,-143.333C409.137,-141.736 418.65,-140.062 427.954,-138.424"/>
<polygon fill="midnightblue" stroke="midnightblue" points="428.695,-141.847 437.937,-136.666 427.482,-134.953 428.695,-141.847"/>
</g>
<!-- Node370&#45;&gt;Node371 -->
<g id="edge4" class="edge"><title>Node370&#45;&gt;Node371</title>
<path fill="none" stroke="midnightblue" d="M544.131,-114.84C552.512,-112.804 561.26,-110.68 569.849,-108.594"/>
<polygon fill="midnightblue" stroke="midnightblue" points="570.934,-111.932 579.826,-106.171 569.282,-105.13 570.934,-111.932"/>
</g>
<!-- Node372&#45;&gt;Node369 -->
<g id="edge6" class="edge"><title>Node372&#45;&gt;Node369</title>
<path fill="none" stroke="midnightblue" d="M246.38,-118.601C260.751,-123.492 276.853,-128.971 291.851,-134.074"/>
<polygon fill="midnightblue" stroke="midnightblue" points="290.924,-137.456 301.519,-137.364 293.179,-130.829 290.924,-137.456"/>
</g>
<!-- Node373 -->
<g id="node7" class="node"><title>Node373</title>
<g id="a_node7"><a xlink:href="namespacemom__diag__mediator.html#a883862f004e30bbc5211f38635511ba0" target="_top" xlink:title="Initializes a diag_type (used after allocating new memory) ">
<polygon fill="white" stroke="black" points="292,-88.5 292,-118.5 402,-118.5 402,-88.5 292,-88.5"/>
<text text-anchor="start" x="300" y="-106.5" font-family="Helvetica,sans-Serif" font-size="10.00">mom_diag_mediator::</text>
<text text-anchor="middle" x="347" y="-95.5" font-family="Helvetica,sans-Serif" font-size="10.00">initialize_diag_type</text>
</a>
</g>
</g>
<!-- Node372&#45;&gt;Node373 -->
<g id="edge7" class="edge"><title>Node372&#45;&gt;Node373</title>
<path fill="none" stroke="midnightblue" d="M256.03,-103.5C264.314,-103.5 272.936,-103.5 281.42,-103.5"/>
<polygon fill="midnightblue" stroke="midnightblue" points="281.667,-107 291.667,-103.5 281.667,-100 281.667,-107"/>
</g>
<!-- Node375 -->
<g id="node9" class="node"><title>Node375</title>
<g id="a_node9"><a xlink:href="namespacemom__diag__mediator.html#ae002ca447acba252bf7bdc042e75a01e" target="_top" xlink:title="mom_diag_mediator::\ldescribe_option">
<polygon fill="white" stroke="black" points="292,-0.5 292,-30.5 402,-30.5 402,-0.5 292,-0.5"/>
<text text-anchor="start" x="300" y="-18.5" font-family="Helvetica,sans-Serif" font-size="10.00">mom_diag_mediator::</text>
<text text-anchor="middle" x="347" y="-7.5" font-family="Helvetica,sans-Serif" font-size="10.00">describe_option</text>
</a>
</g>
</g>
<!-- Node374&#45;&gt;Node375 -->
<g id="edge10" class="edge"><title>Node374&#45;&gt;Node375</title>
<path fill="none" stroke="midnightblue" d="M256.03,-15.5C264.314,-15.5 272.936,-15.5 281.42,-15.5"/>
<polygon fill="midnightblue" stroke="midnightblue" points="281.667,-19.0001 291.667,-15.5 281.667,-12.0001 281.667,-19.0001"/>
</g>
</g>
</svg>
