<?xml version="1.0" encoding="UTF-8" standalone="no"?>
<!DOCTYPE svg PUBLIC "-//W3C//DTD SVG 1.1//EN"
 "http://www.w3.org/Graphics/SVG/1.1/DTD/svg11.dtd">
<!-- Generated by graphviz version 2.38.0 (20140413.2041)
 -->
<!-- Title: mom_dynamics_unsplit_rk2::step_mom_dyn_unsplit_rk2 Pages: 1 -->
<svg width="823pt" height="340pt"
 viewBox="0.00 0.00 823.00 339.82" xmlns="http://www.w3.org/2000/svg" xmlns:xlink="http://www.w3.org/1999/xlink">
<g id="graph0" class="graph" transform="scale(1 1) rotate(0) translate(4 335.821)">
<title>mom_dynamics_unsplit_rk2::step_mom_dyn_unsplit_rk2</title>
<polygon fill="white" stroke="none" points="-4,4 -4,-335.821 819,-335.821 819,4 -4,4"/>
<!-- Node6 -->
<g id="node1" class="node"><title>Node6</title>
<polygon fill="#bfbfbf" stroke="black" points="0,-161.5 0,-191.5 161,-191.5 161,-161.5 0,-161.5"/>
<text text-anchor="start" x="8" y="-179.5" font-family="Helvetica,sans-Serif" font-size="10.00">mom_dynamics_unsplit</text>
<text text-anchor="middle" x="80.5" y="-168.5" font-family="Helvetica,sans-Serif" font-size="10.00">_rk2::step_mom_dyn_unsplit_rk2</text>
</g>
<!-- Node7 -->
<g id="node2" class="node"><title>Node7</title>
<g id="a_node2"><a xlink:href="namespacemom__continuity.html#a483dba08c6a9574d7fe814cadccd870e" target="_top" xlink:title="Time steps the layer thicknesses, using a monotonically limited, directionally split PPM scheme...">
<polygon fill="white" stroke="black" points="397,-312 397,-331 531,-331 531,-312 397,-312"/>
<text text-anchor="middle" x="464" y="-319" font-family="Helvetica,sans-Serif" font-size="10.00">mom_continuity::continuity</text>
</a>
</g>
</g>
<!-- Node6&#45;&gt;Node7 -->
<g id="edge1" class="edge"><title>Node6&#45;&gt;Node7</title>
<path fill="none" stroke="midnightblue" d="M89.9278,-191.54C106.38,-219.232 145.698,-277.713 197,-302.5 256.162,-331.084 331.476,-333.815 386.853,-330.573"/>
<polygon fill="midnightblue" stroke="midnightblue" points="387.206,-334.057 396.952,-329.903 386.742,-327.073 387.206,-334.057"/>
</g>
<!-- Node10 -->
<g id="node5" class="node"><title>Node10</title>
<g id="a_node5"><a xlink:href="namespacemom__coriolisadv.html#a48e46860dad5118d78c8cd7de964e71f" target="_top" xlink:title="Calculates the Coriolis and momentum advection contributions to the acceleration. ...">
<polygon fill="white" stroke="black" points="210,-274 210,-293 348,-293 348,-274 210,-274"/>
<text text-anchor="middle" x="279" y="-281" font-family="Helvetica,sans-Serif" font-size="10.00">mom_coriolisadv::coradcalc</text>
</a>
</g>
</g>
<!-- Node6&#45;&gt;Node10 -->
<g id="edge4" class="edge"><title>Node6&#45;&gt;Node10</title>
<path fill="none" stroke="midnightblue" d="M98.7034,-191.73C120.286,-210.13 159.082,-240.922 197,-259.5 206.187,-264.001 216.38,-267.831 226.35,-271.022"/>
<polygon fill="midnightblue" stroke="midnightblue" points="225.615,-274.456 236.2,-274 227.641,-267.755 225.615,-274.456"/>
</g>
<!-- Node12 -->
<g id="node7" class="node"><title>Node12</title>
<g id="a_node7"><a xlink:href="namespacemom__hor__visc.html#a9f553282bddb798335a3c7aa8f49bd76" target="_top" xlink:title="This subroutine determines the acceleration due to the horizontal viscosity. A combination of biharmo...">
<polygon fill="white" stroke="black" points="400,-186.5 400,-216.5 528,-216.5 528,-186.5 400,-186.5"/>
<text text-anchor="start" x="408" y="-204.5" font-family="Helvetica,sans-Serif" font-size="10.00">mom_hor_visc::horizontal</text>
<text text-anchor="middle" x="464" y="-193.5" font-family="Helvetica,sans-Serif" font-size="10.00">_viscosity</text>
</a>
</g>
</g>
<!-- Node6&#45;&gt;Node12 -->
<g id="edge7" class="edge"><title>Node6&#45;&gt;Node12</title>
<path fill="none" stroke="midnightblue" d="M108.497,-191.635C131.287,-203.494 165.196,-219.033 197,-225.5 268.427,-240.025 288.597,-233.903 361,-225.5 373.548,-224.044 386.793,-221.612 399.434,-218.84"/>
<polygon fill="midnightblue" stroke="midnightblue" points="400.449,-222.199 409.417,-216.557 398.889,-215.375 400.449,-222.199"/>
</g>
<!-- Node13 -->
<g id="node8" class="node"><title>Node13</title>
<g id="a_node8"><a xlink:href="namespacemom__checksum__packages.html#ad209641ecdd8dac3eae4b04e64e209ed" target="_top" xlink:title="mom_checksum_packages\l::mom_accel_chksum">
<polygon fill="white" stroke="black" points="211,-186.5 211,-216.5 347,-216.5 347,-186.5 211,-186.5"/>
<text text-anchor="start" x="219" y="-204.5" font-family="Helvetica,sans-Serif" font-size="10.00">mom_checksum_packages</text>
<text text-anchor="middle" x="279" y="-193.5" font-family="Helvetica,sans-Serif" font-size="10.00">::mom_accel_chksum</text>
</a>
</g>
</g>
<!-- Node6&#45;&gt;Node13 -->
<g id="edge9" class="edge"><title>Node6&#45;&gt;Node13</title>
<path fill="none" stroke="midnightblue" d="M161.141,-186.632C174.152,-188.288 187.616,-190.001 200.573,-191.649"/>
<polygon fill="midnightblue" stroke="midnightblue" points="200.475,-195.165 210.837,-192.955 201.359,-188.221 200.475,-195.165"/>
</g>
<!-- Node14 -->
<g id="node9" class="node"><title>Node14</title>
<g id="a_node9"><a xlink:href="namespacemom__open__boundary.html#a9d48e6925d93fa98cbf5bb73903f94be" target="_top" xlink:title="Applies zero values to 3d u,v fields on OBC segments. ">
<polygon fill="white" stroke="black" points="197,-137.5 197,-167.5 361,-167.5 361,-137.5 197,-137.5"/>
<text text-anchor="start" x="205" y="-155.5" font-family="Helvetica,sans-Serif" font-size="10.00">mom_open_boundary::</text>
<text text-anchor="middle" x="279" y="-144.5" font-family="Helvetica,sans-Serif" font-size="10.00">open_boundary_zero_normal_flow</text>
</a>
</g>
</g>
<!-- Node6&#45;&gt;Node14 -->
<g id="edge10" class="edge"><title>Node6&#45;&gt;Node14</title>
<path fill="none" stroke="midnightblue" d="M161.141,-166.773C169.628,-165.736 178.308,-164.676 186.914,-163.625"/>
<polygon fill="midnightblue" stroke="midnightblue" points="187.466,-167.084 196.968,-162.397 186.617,-160.135 187.466,-167.084"/>
</g>
<!-- Node15 -->
<g id="node10" class="node"><title>Node15</title>
<g id="a_node10"><a xlink:href="namespacemom__pressureforce.html#a9f010455182eeaa61c9f01caff250bf8" target="_top" xlink:title="A thin layer between the model and the Boussinesq and non&#45;Boussinesq pressure force routines...">
<polygon fill="white" stroke="black" points="224.5,-88.5 224.5,-118.5 333.5,-118.5 333.5,-88.5 224.5,-88.5"/>
<text text-anchor="start" x="232.5" y="-106.5" font-family="Helvetica,sans-Serif" font-size="10.00">mom_pressureforce::</text>
<text text-anchor="middle" x="279" y="-95.5" font-family="Helvetica,sans-Serif" font-size="10.00">pressureforce</text>
</a>
</g>
</g>
<!-- Node6&#45;&gt;Node15 -->
<g id="edge11" class="edge"><title>Node6&#45;&gt;Node15</title>
<path fill="none" stroke="midnightblue" d="M114.463,-161.338C137.356,-151.101 168.708,-137.656 197,-127.5 202.571,-125.5 208.399,-123.534 214.264,-121.641"/>
<polygon fill="midnightblue" stroke="midnightblue" points="215.646,-124.876 224.131,-118.532 213.542,-118.2 215.646,-124.876"/>
</g>
<!-- Node16 -->
<g id="node11" class="node"><title>Node16</title>
<g id="a_node11"><a xlink:href="namespacemom__set__visc.html#afa97c345f1c4caaaf53b039d0b3fc9d8" target="_top" xlink:title="The following subroutine calculates the thickness of the surface boundary layer for applying an eleva...">
<polygon fill="white" stroke="black" points="201.5,-50 201.5,-69 356.5,-69 356.5,-50 201.5,-50"/>
<text text-anchor="middle" x="279" y="-57" font-family="Helvetica,sans-Serif" font-size="10.00">mom_set_visc::set_viscous_ml</text>
</a>
</g>
</g>
<!-- Node6&#45;&gt;Node16 -->
<g id="edge12" class="edge"><title>Node6&#45;&gt;Node16</title>
<path fill="none" stroke="midnightblue" d="M94.8191,-161.352C114.803,-139.603 154.733,-99.8112 197,-78.5 201.637,-76.162 206.569,-74.1059 211.622,-72.2987"/>
<polygon fill="midnightblue" stroke="midnightblue" points="213.006,-75.5298 221.443,-69.1214 210.851,-68.8697 213.006,-75.5298"/>
</g>
<!-- Node20 -->
<g id="node15" class="node"><title>Node20</title>
<g id="a_node15"><a xlink:href="namespacemom__boundary__update.html#af9005694e5b84a5dd5cbcdff7f69b93c" target="_top" xlink:title="Calls appropriate routine to update the open boundary conditions. ">
<polygon fill="white" stroke="black" points="220,-0.5 220,-30.5 338,-30.5 338,-0.5 220,-0.5"/>
<text text-anchor="start" x="228" y="-18.5" font-family="Helvetica,sans-Serif" font-size="10.00">mom_boundary_update</text>
<text text-anchor="middle" x="279" y="-7.5" font-family="Helvetica,sans-Serif" font-size="10.00">::update_obc_data</text>
</a>
</g>
</g>
<!-- Node6&#45;&gt;Node20 -->
<g id="edge18" class="edge"><title>Node6&#45;&gt;Node20</title>
<path fill="none" stroke="midnightblue" d="M90.2376,-161.39C107.206,-133.373 147.35,-73.2456 197,-40.5 201.267,-37.6855 205.868,-35.1746 210.633,-32.9366"/>
<polygon fill="midnightblue" stroke="midnightblue" points="212.128,-36.1038 219.953,-28.9612 209.382,-29.665 212.128,-36.1038"/>
</g>
<!-- Node8 -->
<g id="node3" class="node"><title>Node8</title>
<g id="a_node3"><a xlink:href="namespacemom__error__handler.html#a460cfb79a06c29fc249952c2a3710d67" target="_top" xlink:title="mom_error_handler::\lmom_error">
<polygon fill="white" stroke="black" points="567,-186.5 567,-216.5 673,-216.5 673,-186.5 567,-186.5"/>
<text text-anchor="start" x="575" y="-204.5" font-family="Helvetica,sans-Serif" font-size="10.00">mom_error_handler::</text>
<text text-anchor="middle" x="620" y="-193.5" font-family="Helvetica,sans-Serif" font-size="10.00">mom_error</text>
</a>
</g>
</g>
<!-- Node7&#45;&gt;Node8 -->
<g id="edge2" class="edge"><title>Node7&#45;&gt;Node8</title>
<path fill="none" stroke="midnightblue" d="M501.095,-311.879C511.25,-308.263 521.976,-303.526 531,-297.5 560.415,-277.856 586.743,-246.369 602.771,-224.85"/>
<polygon fill="midnightblue" stroke="midnightblue" points="605.735,-226.725 608.791,-216.581 600.076,-222.606 605.735,-226.725"/>
</g>
<!-- Node9 -->
<g id="node4" class="node"><title>Node9</title>
<g id="a_node4"><a xlink:href="namespacemom__error__handler.html#ad5f00a53059c72fe2332d1436c80ca71" target="_top" xlink:title="mom_error_handler::\lis_root_pe">
<polygon fill="white" stroke="black" points="709,-186.5 709,-216.5 815,-216.5 815,-186.5 709,-186.5"/>
<text text-anchor="start" x="717" y="-204.5" font-family="Helvetica,sans-Serif" font-size="10.00">mom_error_handler::</text>
<text text-anchor="middle" x="762" y="-193.5" font-family="Helvetica,sans-Serif" font-size="10.00">is_root_pe</text>
</a>
</g>
</g>
<!-- Node8&#45;&gt;Node9 -->
<g id="edge3" class="edge"><title>Node8&#45;&gt;Node9</title>
<path fill="none" stroke="midnightblue" d="M673.131,-201.5C681.421,-201.5 690.07,-201.5 698.568,-201.5"/>
<polygon fill="midnightblue" stroke="midnightblue" points="698.826,-205 708.826,-201.5 698.826,-198 698.826,-205"/>
</g>
<!-- Node10&#45;&gt;Node8 -->
<g id="edge6" class="edge"><title>Node10&#45;&gt;Node8</title>
<path fill="none" stroke="midnightblue" d="M348.127,-288.11C399.828,-289.312 471.852,-285.986 531,-264.5 555.586,-255.569 579.457,-237.72 596.119,-223.294"/>
<polygon fill="midnightblue" stroke="midnightblue" points="598.557,-225.809 603.691,-216.541 593.898,-220.584 598.557,-225.809"/>
</g>
<!-- Node11 -->
<g id="node6" class="node"><title>Node11</title>
<g id="a_node6"><a xlink:href="namespacemom__coriolisadv.html#a8d9732ffd7debb051047934fe1551f97" target="_top" xlink:title="Calculates the acceleration due to the gradient of kinetic energy. ">
<polygon fill="white" stroke="black" points="401.5,-236 401.5,-255 526.5,-255 526.5,-236 401.5,-236"/>
<text text-anchor="middle" x="464" y="-243" font-family="Helvetica,sans-Serif" font-size="10.00">mom_coriolisadv::gradke</text>
</a>
</g>
</g>
<!-- Node10&#45;&gt;Node11 -->
<g id="edge5" class="edge"><title>Node10&#45;&gt;Node11</title>
<path fill="none" stroke="midnightblue" d="M326.179,-273.911C350.763,-268.806 381.186,-262.489 407.097,-257.108"/>
<polygon fill="midnightblue" stroke="midnightblue" points="408.074,-260.48 417.153,-255.02 406.651,-253.626 408.074,-260.48"/>
</g>
<!-- Node12&#45;&gt;Node8 -->
<g id="edge8" class="edge"><title>Node12&#45;&gt;Node8</title>
<path fill="none" stroke="midnightblue" d="M528.082,-201.5C537.476,-201.5 547.156,-201.5 556.537,-201.5"/>
<polygon fill="midnightblue" stroke="midnightblue" points="556.572,-205 566.572,-201.5 556.572,-198 556.572,-205"/>
</g>
<!-- Node16&#45;&gt;Node8 -->
<g id="edge13" class="edge"><title>Node16&#45;&gt;Node8</title>
<path fill="none" stroke="midnightblue" d="M342.175,-69.0181C348.84,-71.4907 355.269,-74.5977 361,-78.5 384.234,-94.3212 374.41,-113.772 397,-130.5 410.207,-140.28 496.054,-166.24 557.028,-183.906"/>
<polygon fill="midnightblue" stroke="midnightblue" points="556.384,-187.363 566.963,-186.775 558.326,-180.638 556.384,-187.363"/>
</g>
<!-- Node17 -->
<g id="node12" class="node"><title>Node17</title>
<g id="a_node12"><a xlink:href="namespacemom__eos.html#a204529f8434a0322314e6ce2a9762436" target="_top" xlink:title="Calls the appropriate subroutine to calculate density derivatives for 1&#45;D array inputs. ">
<polygon fill="white" stroke="black" points="412,-91.5 412,-121.5 516,-121.5 516,-91.5 412,-91.5"/>
<text text-anchor="start" x="420" y="-109.5" font-family="Helvetica,sans-Serif" font-size="10.00">mom_eos::calculate</text>
<text text-anchor="middle" x="464" y="-98.5" font-family="Helvetica,sans-Serif" font-size="10.00">_density_derivs</text>
</a>
</g>
</g>
<!-- Node16&#45;&gt;Node17 -->
<g id="edge14" class="edge"><title>Node16&#45;&gt;Node17</title>
<path fill="none" stroke="midnightblue" d="M322.114,-69.0626C334.65,-71.9944 348.402,-75.2944 361,-78.5 374.39,-81.9069 388.719,-85.7298 402.28,-89.4299"/>
<polygon fill="midnightblue" stroke="midnightblue" points="401.424,-92.8244 411.994,-92.0947 403.276,-86.0738 401.424,-92.8244"/>
</g>
<!-- Node18 -->
<g id="node13" class="node"><title>Node18</title>
<g id="a_node13"><a xlink:href="namespacemom__set__visc.html#a21407595c202ddb14499af771b6f11e9" target="_top" xlink:title="This subroutine finds a thickness&#45;weighted value of v at the u&#45;points. ">
<polygon fill="white" stroke="black" points="397,-51 397,-70 531,-70 531,-51 397,-51"/>
<text text-anchor="middle" x="464" y="-58" font-family="Helvetica,sans-Serif" font-size="10.00">mom_set_visc::set_v_at_u</text>
</a>
</g>
</g>
<!-- Node16&#45;&gt;Node18 -->
<g id="edge16" class="edge"><title>Node16&#45;&gt;Node18</title>
<path fill="none" stroke="midnightblue" d="M356.548,-59.9183C366.507,-59.9727 376.709,-60.0285 386.664,-60.0829"/>
<polygon fill="midnightblue" stroke="midnightblue" points="386.91,-63.5842 396.929,-60.139 386.948,-56.5843 386.91,-63.5842"/>
</g>
<!-- Node19 -->
<g id="node14" class="node"><title>Node19</title>
<g id="a_node14"><a xlink:href="namespacemom__set__visc.html#a27ae4b202fb6449cef877d59bc91aa29" target="_top" xlink:title="This subroutine finds a thickness&#45;weighted value of u at the v&#45;points. ">
<polygon fill="white" stroke="black" points="397,-13 397,-32 531,-32 531,-13 397,-13"/>
<text text-anchor="middle" x="464" y="-20" font-family="Helvetica,sans-Serif" font-size="10.00">mom_set_visc::set_u_at_v</text>
</a>
</g>
</g>
<!-- Node16&#45;&gt;Node19 -->
<g id="edge17" class="edge"><title>Node16&#45;&gt;Node19</title>
<path fill="none" stroke="midnightblue" d="M327.127,-49.9716C351.154,-45.1136 380.568,-39.1666 405.876,-34.0497"/>
<polygon fill="midnightblue" stroke="midnightblue" points="406.607,-37.4728 415.715,-32.0604 405.22,-30.6116 406.607,-37.4728"/>
</g>
<!-- Node17&#45;&gt;Node8 -->
<g id="edge15" class="edge"><title>Node17&#45;&gt;Node8</title>
<path fill="none" stroke="midnightblue" d="M498.817,-121.538C509.327,-126.57 520.82,-132.448 531,-138.5 552.042,-151.01 574.46,-167.105 591.403,-179.895"/>
<polygon fill="midnightblue" stroke="midnightblue" points="589.654,-182.963 599.727,-186.246 593.899,-177.398 589.654,-182.963"/>
</g>
</g>
</svg>
