<?xml version="1.0" encoding="UTF-8" standalone="no"?>
<!DOCTYPE svg PUBLIC "-//W3C//DTD SVG 1.1//EN"
 "http://www.w3.org/Graphics/SVG/1.1/DTD/svg11.dtd">
<!-- Generated by graphviz version 2.38.0 (20140413.2041)
 -->
<!-- Title: mom_diag_mediator::post_data_1d_k Pages: 1 -->
<svg width="544pt" height="39pt"
 viewBox="0.00 0.00 544.00 39.00" xmlns="http://www.w3.org/2000/svg" xmlns:xlink="http://www.w3.org/1999/xlink">
<g id="graph0" class="graph" transform="scale(1 1) rotate(0) translate(4 35)">
<title>mom_diag_mediator::post_data_1d_k</title>
<polygon fill="white" stroke="none" points="-4,4 -4,-35 540,-35 540,4 -4,4"/>
<!-- Node233 -->
<g id="node1" class="node"><title>Node233</title>
<polygon fill="#bfbfbf" stroke="black" points="0,-0.5 0,-30.5 110,-30.5 110,-0.5 0,-0.5"/>
<text text-anchor="start" x="8" y="-18.5" font-family="Helvetica,sans-Serif" font-size="10.00">mom_diag_mediator::</text>
<text text-anchor="middle" x="55" y="-7.5" font-family="Helvetica,sans-Serif" font-size="10.00">post_data_1d_k</text>
</g>
<!-- Node234 -->
<g id="node2" class="node"><title>Node234</title>
<g id="a_node2"><a xlink:href="namespacemom__error__handler.html#a33bcd190d460095104954f2e654f9fe6" target="_top" xlink:title="Issues a FATAL error if the assertion fails, i.e. the first argument is false. ">
<polygon fill="white" stroke="black" points="146,-0.5 146,-30.5 252,-30.5 252,-0.5 146,-0.5"/>
<text text-anchor="start" x="154" y="-18.5" font-family="Helvetica,sans-Serif" font-size="10.00">mom_error_handler::</text>
<text text-anchor="middle" x="199" y="-7.5" font-family="Helvetica,sans-Serif" font-size="10.00">assert</text>
</a>
</g>
</g>
<!-- Node233&#45;&gt;Node234 -->
<g id="edge1" class="edge"><title>Node233&#45;&gt;Node234</title>
<path fill="none" stroke="midnightblue" d="M110.089,-15.5C118.447,-15.5 127.138,-15.5 135.659,-15.5"/>
<polygon fill="midnightblue" stroke="midnightblue" points="135.936,-19.0001 145.935,-15.5 135.935,-12.0001 135.936,-19.0001"/>
</g>
<!-- Node235 -->
<g id="node3" class="node"><title>Node235</title>
<g id="a_node3"><a xlink:href="namespacemom__error__handler.html#a460cfb79a06c29fc249952c2a3710d67" target="_top" xlink:title="mom_error_handler::\lmom_error">
<polygon fill="white" stroke="black" points="288,-0.5 288,-30.5 394,-30.5 394,-0.5 288,-0.5"/>
<text text-anchor="start" x="296" y="-18.5" font-family="Helvetica,sans-Serif" font-size="10.00">mom_error_handler::</text>
<text text-anchor="middle" x="341" y="-7.5" font-family="Helvetica,sans-Serif" font-size="10.00">mom_error</text>
</a>
</g>
</g>
<!-- Node234&#45;&gt;Node235 -->
<g id="edge2" class="edge"><title>Node234&#45;&gt;Node235</title>
<path fill="none" stroke="midnightblue" d="M252.131,-15.5C260.421,-15.5 269.07,-15.5 277.568,-15.5"/>
<polygon fill="midnightblue" stroke="midnightblue" points="277.826,-19.0001 287.826,-15.5 277.826,-12.0001 277.826,-19.0001"/>
</g>
<!-- Node236 -->
<g id="node4" class="node"><title>Node236</title>
<g id="a_node4"><a xlink:href="namespacemom__error__handler.html#ad5f00a53059c72fe2332d1436c80ca71" target="_top" xlink:title="mom_error_handler::\lis_root_pe">
<polygon fill="white" stroke="black" points="430,-0.5 430,-30.5 536,-30.5 536,-0.5 430,-0.5"/>
<text text-anchor="start" x="438" y="-18.5" font-family="Helvetica,sans-Serif" font-size="10.00">mom_error_handler::</text>
<text text-anchor="middle" x="483" y="-7.5" font-family="Helvetica,sans-Serif" font-size="10.00">is_root_pe</text>
</a>
</g>
</g>
<!-- Node235&#45;&gt;Node236 -->
<g id="edge3" class="edge"><title>Node235&#45;&gt;Node236</title>
<path fill="none" stroke="midnightblue" d="M394.131,-15.5C402.421,-15.5 411.07,-15.5 419.568,-15.5"/>
<polygon fill="midnightblue" stroke="midnightblue" points="419.826,-19.0001 429.826,-15.5 419.826,-12.0001 419.826,-19.0001"/>
</g>
</g>
</svg>
