<?xml version="1.0" encoding="UTF-8" standalone="no"?>
<!DOCTYPE svg PUBLIC "-//W3C//DTD SVG 1.1//EN"
 "http://www.w3.org/Graphics/SVG/1.1/DTD/svg11.dtd">
<!-- Generated by graphviz version 2.38.0 (20140413.2041)
 -->
<!-- Title: mom::post_integrated_diagnostics Pages: 1 -->
<svg width="346pt" height="39pt"
 viewBox="0.00 0.00 346.00 39.00" xmlns="http://www.w3.org/2000/svg" xmlns:xlink="http://www.w3.org/1999/xlink">
<g id="graph0" class="graph" transform="scale(1 1) rotate(0) translate(4 35)">
<title>mom::post_integrated_diagnostics</title>
<polygon fill="white" stroke="none" points="-4,4 -4,-35 342,-35 342,4 -4,4"/>
<!-- Node316 -->
<g id="node1" class="node"><title>Node316</title>
<polygon fill="#bfbfbf" stroke="black" points="0,-0.5 0,-30.5 111,-30.5 111,-0.5 0,-0.5"/>
<text text-anchor="start" x="8" y="-18.5" font-family="Helvetica,sans-Serif" font-size="10.00">mom::post_integrated</text>
<text text-anchor="middle" x="55.5" y="-7.5" font-family="Helvetica,sans-Serif" font-size="10.00">_diagnostics</text>
</g>
<!-- Node317 -->
<g id="node2" class="node"><title>Node317</title>
<g id="a_node2"><a xlink:href="namespacemom.html#a4c8332b095c6d295084089aa6b3b678a" target="_top" xlink:title="This subroutine orchestrates the time stepping of MOM. The adiabatic dynamics are stepped by calls to...">
<polygon fill="white" stroke="black" points="147,-6 147,-25 237,-25 237,-6 147,-6"/>
<text text-anchor="middle" x="192" y="-13" font-family="Helvetica,sans-Serif" font-size="10.00">mom::step_mom</text>
</a>
</g>
</g>
<!-- Node316&#45;&gt;Node317 -->
<g id="edge1" class="edge"><title>Node316&#45;&gt;Node317</title>
<path fill="none" stroke="midnightblue" d="M121.24,-15.5C129.837,-15.5 138.49,-15.5 146.634,-15.5"/>
<polygon fill="midnightblue" stroke="midnightblue" points="121.206,-12.0001 111.206,-15.5 121.206,-19.0001 121.206,-12.0001"/>
</g>
<!-- Node318 -->
<g id="node3" class="node"><title>Node318</title>
<g id="a_node3"><a xlink:href="MOM__driver_8F90.html#a08fffeb2d8e8acbf9ed4609be6d258c6" target="_top" xlink:title="mom_main">
<polygon fill="white" stroke="black" points="273,-6 273,-25 338,-25 338,-6 273,-6"/>
<text text-anchor="middle" x="305.5" y="-13" font-family="Helvetica,sans-Serif" font-size="10.00">mom_main</text>
</a>
</g>
</g>
<!-- Node317&#45;&gt;Node318 -->
<g id="edge2" class="edge"><title>Node317&#45;&gt;Node318</title>
<path fill="none" stroke="midnightblue" d="M247.26,-15.5C256.006,-15.5 264.8,-15.5 272.782,-15.5"/>
<polygon fill="midnightblue" stroke="midnightblue" points="247.068,-12.0001 237.068,-15.5 247.068,-19.0001 247.068,-12.0001"/>
</g>
</g>
</svg>
