<?xml version="1.0" encoding="UTF-8" standalone="no"?>
<!DOCTYPE svg PUBLIC "-//W3C//DTD SVG 1.1//EN"
 "http://www.w3.org/Graphics/SVG/1.1/DTD/svg11.dtd">
<!-- Generated by graphviz version 2.38.0 (20140413.2041)
 -->
<!-- Title: mom_open_boundary::open_boundary_zero_normal_flow Pages: 1 -->
<svg width="369pt" height="198pt"
 viewBox="0.00 0.00 369.00 197.50" xmlns="http://www.w3.org/2000/svg" xmlns:xlink="http://www.w3.org/1999/xlink">
<g id="graph0" class="graph" transform="scale(1 1) rotate(0) translate(4 193.5)">
<title>mom_open_boundary::open_boundary_zero_normal_flow</title>
<polygon fill="white" stroke="none" points="-4,4 -4,-193.5 365,-193.5 365,4 -4,4"/>
<!-- Node71 -->
<g id="node1" class="node"><title>Node71</title>
<polygon fill="#bfbfbf" stroke="black" points="0,-73.5 0,-103.5 164,-103.5 164,-73.5 0,-73.5"/>
<text text-anchor="start" x="8" y="-91.5" font-family="Helvetica,sans-Serif" font-size="10.00">mom_open_boundary::</text>
<text text-anchor="middle" x="82" y="-80.5" font-family="Helvetica,sans-Serif" font-size="10.00">open_boundary_zero_normal_flow</text>
</g>
<!-- Node72 -->
<g id="node2" class="node"><title>Node72</title>
<g id="a_node2"><a xlink:href="namespacemom__dynamics__legacy__split.html#ae34fe0561f87dc05c2fad64bf6d5a1ee" target="_top" xlink:title="mom_dynamics_legacy\l_split::step_mom_dyn\l_legacy_split">
<polygon fill="white" stroke="black" points="221,-148 221,-189 340,-189 340,-148 221,-148"/>
<text text-anchor="start" x="229" y="-177" font-family="Helvetica,sans-Serif" font-size="10.00">mom_dynamics_legacy</text>
<text text-anchor="start" x="229" y="-166" font-family="Helvetica,sans-Serif" font-size="10.00">_split::step_mom_dyn</text>
<text text-anchor="middle" x="280.5" y="-155" font-family="Helvetica,sans-Serif" font-size="10.00">_legacy_split</text>
</a>
</g>
</g>
<!-- Node71&#45;&gt;Node72 -->
<g id="edge1" class="edge"><title>Node71&#45;&gt;Node72</title>
<path fill="none" stroke="midnightblue" d="M126.518,-107.625C148.461,-117.133 175.542,-128.664 200,-138.5 207.802,-141.637 216.07,-144.865 224.211,-147.987"/>
<polygon fill="midnightblue" stroke="midnightblue" points="127.706,-104.325 117.139,-103.548 124.915,-110.744 127.706,-104.325"/>
</g>
<!-- Node73 -->
<g id="node3" class="node"><title>Node73</title>
<g id="a_node3"><a xlink:href="namespacemom__dynamics__split__rk2.html#a81cce65643a8cf94979d68354a9a1979" target="_top" xlink:title="RK2 splitting for time stepping MOM adiabatic dynamics. ">
<polygon fill="white" stroke="black" points="205.5,-98.5 205.5,-128.5 355.5,-128.5 355.5,-98.5 205.5,-98.5"/>
<text text-anchor="start" x="213.5" y="-116.5" font-family="Helvetica,sans-Serif" font-size="10.00">mom_dynamics_split</text>
<text text-anchor="middle" x="280.5" y="-105.5" font-family="Helvetica,sans-Serif" font-size="10.00">_rk2::step_mom_dyn_split_rk2</text>
</a>
</g>
</g>
<!-- Node71&#45;&gt;Node73 -->
<g id="edge2" class="edge"><title>Node71&#45;&gt;Node73</title>
<path fill="none" stroke="midnightblue" d="M174.032,-100.082C184.486,-101.412 195.049,-102.756 205.245,-104.053"/>
<polygon fill="midnightblue" stroke="midnightblue" points="174.42,-96.603 164.059,-98.8128 173.537,-103.547 174.42,-96.603"/>
</g>
<!-- Node74 -->
<g id="node4" class="node"><title>Node74</title>
<g id="a_node4"><a xlink:href="namespacemom__dynamics__unsplit.html#a53a72861e61f049479fdec46ea11227b" target="_top" xlink:title="mom_dynamics_unsplit\l::step_mom_dyn_unsplit">
<polygon fill="white" stroke="black" points="219,-49.5 219,-79.5 342,-79.5 342,-49.5 219,-49.5"/>
<text text-anchor="start" x="227" y="-67.5" font-family="Helvetica,sans-Serif" font-size="10.00">mom_dynamics_unsplit</text>
<text text-anchor="middle" x="280.5" y="-56.5" font-family="Helvetica,sans-Serif" font-size="10.00">::step_mom_dyn_unsplit</text>
</a>
</g>
</g>
<!-- Node71&#45;&gt;Node74 -->
<g id="edge3" class="edge"><title>Node71&#45;&gt;Node74</title>
<path fill="none" stroke="midnightblue" d="M174.415,-77.3348C189.45,-75.4985 204.699,-73.636 218.745,-71.9204"/>
<polygon fill="midnightblue" stroke="midnightblue" points="173.56,-73.9131 164.059,-78.5997 174.409,-80.8615 173.56,-73.9131"/>
</g>
<!-- Node75 -->
<g id="node5" class="node"><title>Node75</title>
<g id="a_node5"><a xlink:href="namespacemom__dynamics__unsplit__rk2.html#ae10d75d92c1ec7783df7e5d8965b86a0" target="_top" xlink:title="mom_dynamics_unsplit\l_rk2::step_mom_dyn_unsplit_rk2">
<polygon fill="white" stroke="black" points="200,-0.5 200,-30.5 361,-30.5 361,-0.5 200,-0.5"/>
<text text-anchor="start" x="208" y="-18.5" font-family="Helvetica,sans-Serif" font-size="10.00">mom_dynamics_unsplit</text>
<text text-anchor="middle" x="280.5" y="-7.5" font-family="Helvetica,sans-Serif" font-size="10.00">_rk2::step_mom_dyn_unsplit_rk2</text>
</a>
</g>
</g>
<!-- Node71&#45;&gt;Node75 -->
<g id="edge4" class="edge"><title>Node71&#45;&gt;Node75</title>
<path fill="none" stroke="midnightblue" d="M126.843,-69.4831C148.662,-60.2835 175.54,-49.3454 200,-40.5 209.388,-37.105 219.491,-33.7239 229.241,-30.5959"/>
<polygon fill="midnightblue" stroke="midnightblue" points="125.352,-66.3135 117.513,-73.4407 128.086,-72.7578 125.352,-66.3135"/>
</g>
</g>
</svg>
