<?xml version="1.0" encoding="UTF-8" standalone="no"?>
<!DOCTYPE svg PUBLIC "-//W3C//DTD SVG 1.1//EN"
 "http://www.w3.org/Graphics/SVG/1.1/DTD/svg11.dtd">
<!-- Generated by graphviz version 2.38.0 (20140413.2041)
 -->
<!-- Title: mom_remapping::remapbyprojection Pages: 1 -->
<svg width="746pt" height="39pt"
 viewBox="0.00 0.00 746.00 39.00" xmlns="http://www.w3.org/2000/svg" xmlns:xlink="http://www.w3.org/1999/xlink">
<g id="graph0" class="graph" transform="scale(1 1) rotate(0) translate(4 35)">
<title>mom_remapping::remapbyprojection</title>
<polygon fill="white" stroke="none" points="-4,4 -4,-35 742,-35 742,4 -4,4"/>
<!-- Node225 -->
<g id="node1" class="node"><title>Node225</title>
<polygon fill="#bfbfbf" stroke="black" points="0,-6 0,-25 174,-25 174,-6 0,-6"/>
<text text-anchor="middle" x="87" y="-13" font-family="Helvetica,sans-Serif" font-size="10.00">mom_remapping::remapbyprojection</text>
</g>
<!-- Node226 -->
<g id="node2" class="node"><title>Node226</title>
<g id="a_node2"><a xlink:href="namespacemom__remapping.html#a5849f564453d5ed76fb4feffd41eca26" target="_top" xlink:title="Runs unit tests on remapping functions. Should only be called from a single/root thread Returns True ...">
<polygon fill="white" stroke="black" points="210,-0.5 210,-30.5 350,-30.5 350,-0.5 210,-0.5"/>
<text text-anchor="start" x="218" y="-18.5" font-family="Helvetica,sans-Serif" font-size="10.00">mom_remapping::remapping</text>
<text text-anchor="middle" x="280" y="-7.5" font-family="Helvetica,sans-Serif" font-size="10.00">_unit_tests</text>
</a>
</g>
</g>
<!-- Node225&#45;&gt;Node226 -->
<g id="edge1" class="edge"><title>Node225&#45;&gt;Node226</title>
<path fill="none" stroke="midnightblue" d="M184.141,-15.5C192.79,-15.5 201.433,-15.5 209.784,-15.5"/>
<polygon fill="midnightblue" stroke="midnightblue" points="184.001,-12.0001 174.001,-15.5 184.001,-19.0001 184.001,-12.0001"/>
</g>
<!-- Node227 -->
<g id="node3" class="node"><title>Node227</title>
<g id="a_node3"><a xlink:href="namespacemom__unit__tests.html#a71f3a2080872634c14a25a9411b59fe0" target="_top" xlink:title="Calls unit tests for other modules. Note that if a unit test returns true, a FATAL error is triggered...">
<polygon fill="white" stroke="black" points="386,-0.5 386,-30.5 494,-30.5 494,-0.5 386,-0.5"/>
<text text-anchor="start" x="394" y="-18.5" font-family="Helvetica,sans-Serif" font-size="10.00">mom_unit_tests::unit</text>
<text text-anchor="middle" x="440" y="-7.5" font-family="Helvetica,sans-Serif" font-size="10.00">_tests</text>
</a>
</g>
</g>
<!-- Node226&#45;&gt;Node227 -->
<g id="edge2" class="edge"><title>Node226&#45;&gt;Node227</title>
<path fill="none" stroke="midnightblue" d="M360.422,-15.5C369.062,-15.5 377.695,-15.5 385.908,-15.5"/>
<polygon fill="midnightblue" stroke="midnightblue" points="360.301,-12.0001 350.301,-15.5 360.301,-19.0001 360.301,-12.0001"/>
</g>
<!-- Node228 -->
<g id="node4" class="node"><title>Node228</title>
<g id="a_node4"><a xlink:href="namespacemom.html#a0be2869fef30e1e0604facfe1b41555d" target="_top" xlink:title="This subroutine initializes MOM. ">
<polygon fill="white" stroke="black" points="530,-6 530,-25 637,-25 637,-6 530,-6"/>
<text text-anchor="middle" x="583.5" y="-13" font-family="Helvetica,sans-Serif" font-size="10.00">mom::initialize_mom</text>
</a>
</g>
</g>
<!-- Node227&#45;&gt;Node228 -->
<g id="edge3" class="edge"><title>Node227&#45;&gt;Node228</title>
<path fill="none" stroke="midnightblue" d="M504.294,-15.5C512.742,-15.5 521.335,-15.5 529.581,-15.5"/>
<polygon fill="midnightblue" stroke="midnightblue" points="504.092,-12.0001 494.092,-15.5 504.092,-19.0001 504.092,-12.0001"/>
</g>
<!-- Node229 -->
<g id="node5" class="node"><title>Node229</title>
<g id="a_node5"><a xlink:href="MOM__driver_8F90.html#a08fffeb2d8e8acbf9ed4609be6d258c6" target="_top" xlink:title="mom_main">
<polygon fill="white" stroke="black" points="673,-6 673,-25 738,-25 738,-6 673,-6"/>
<text text-anchor="middle" x="705.5" y="-13" font-family="Helvetica,sans-Serif" font-size="10.00">mom_main</text>
</a>
</g>
</g>
<!-- Node228&#45;&gt;Node229 -->
<g id="edge4" class="edge"><title>Node228&#45;&gt;Node229</title>
<path fill="none" stroke="midnightblue" d="M647.206,-15.5C656.134,-15.5 664.983,-15.5 672.958,-15.5"/>
<polygon fill="midnightblue" stroke="midnightblue" points="647.134,-12.0001 637.134,-15.5 647.134,-19.0001 647.134,-12.0001"/>
</g>
</g>
</svg>
