<?xml version="1.0" encoding="UTF-8" standalone="no"?>
<!DOCTYPE svg PUBLIC "-//W3C//DTD SVG 1.1//EN"
 "http://www.w3.org/Graphics/SVG/1.1/DTD/svg11.dtd">
<!-- Generated by graphviz version 2.38.0 (20140413.2041)
 -->
<!-- Title: bfb_initialization::write_bfb_log Pages: 1 -->
<svg width="653pt" height="100pt"
 viewBox="0.00 0.00 653.00 99.50" xmlns="http://www.w3.org/2000/svg" xmlns:xlink="http://www.w3.org/1999/xlink">
<g id="graph0" class="graph" transform="scale(1 1) rotate(0) translate(4 95.5)">
<title>bfb_initialization::write_bfb_log</title>
<polygon fill="white" stroke="none" points="-4,4 -4,-95.5 649,-95.5 649,4 -4,4"/>
<!-- Node16 -->
<g id="node1" class="node"><title>Node16</title>
<polygon fill="#bfbfbf" stroke="black" points="0,-27.5 0,-57.5 86,-57.5 86,-27.5 0,-27.5"/>
<text text-anchor="start" x="8" y="-45.5" font-family="Helvetica,sans-Serif" font-size="10.00">bfb_initialization</text>
<text text-anchor="middle" x="43" y="-34.5" font-family="Helvetica,sans-Serif" font-size="10.00">::write_bfb_log</text>
</g>
<!-- Node17 -->
<g id="node2" class="node"><title>Node17</title>
<g id="a_node2"><a xlink:href="namespacebfb__initialization.html#a03de1f1af12eab371cc0e4336a749ccf" target="_top" xlink:title="bfb_initialization\l::bfb_initialize_sponges\l_southonly">
<polygon fill="white" stroke="black" points="122,-50 122,-91 241,-91 241,-50 122,-50"/>
<text text-anchor="start" x="130" y="-79" font-family="Helvetica,sans-Serif" font-size="10.00">bfb_initialization</text>
<text text-anchor="start" x="130" y="-68" font-family="Helvetica,sans-Serif" font-size="10.00">::bfb_initialize_sponges</text>
<text text-anchor="middle" x="181.5" y="-57" font-family="Helvetica,sans-Serif" font-size="10.00">_southonly</text>
</a>
</g>
</g>
<!-- Node16&#45;&gt;Node17 -->
<g id="edge1" class="edge"><title>Node16&#45;&gt;Node17</title>
<path fill="none" stroke="midnightblue" d="M96.0953,-53.1862C104.486,-54.9075 113.223,-56.6996 121.758,-58.4503"/>
<polygon fill="midnightblue" stroke="midnightblue" points="96.5677,-49.7103 86.0683,-51.1294 95.161,-56.5675 96.5677,-49.7103"/>
</g>
<!-- Node21 -->
<g id="node6" class="node"><title>Node21</title>
<g id="a_node6"><a xlink:href="namespacebfb__initialization.html#a681cb69f1a6fe142e5baa6aee5f57060" target="_top" xlink:title="bfb_initialization\l::bfb_set_coord">
<polygon fill="white" stroke="black" points="138.5,-0.5 138.5,-30.5 224.5,-30.5 224.5,-0.5 138.5,-0.5"/>
<text text-anchor="start" x="146.5" y="-18.5" font-family="Helvetica,sans-Serif" font-size="10.00">bfb_initialization</text>
<text text-anchor="middle" x="181.5" y="-7.5" font-family="Helvetica,sans-Serif" font-size="10.00">::bfb_set_coord</text>
</a>
</g>
</g>
<!-- Node16&#45;&gt;Node21 -->
<g id="edge5" class="edge"><title>Node16&#45;&gt;Node21</title>
<path fill="none" stroke="midnightblue" d="M96.0415,-32.2061C110.022,-29.4408 124.965,-26.485 138.336,-23.8402"/>
<polygon fill="midnightblue" stroke="midnightblue" points="95.1991,-28.8048 86.0683,-34.1788 96.5574,-35.6718 95.1991,-28.8048"/>
</g>
<!-- Node18 -->
<g id="node3" class="node"><title>Node18</title>
<g id="a_node3"><a xlink:href="namespacemom__state__initialization.html#af4e854627c6572332ba3fd895f169321" target="_top" xlink:title="mom_state_initialization\l::mom_initialize_state">
<polygon fill="white" stroke="black" points="278,-53.5 278,-83.5 400,-83.5 400,-53.5 278,-53.5"/>
<text text-anchor="start" x="286" y="-71.5" font-family="Helvetica,sans-Serif" font-size="10.00">mom_state_initialization</text>
<text text-anchor="middle" x="339" y="-60.5" font-family="Helvetica,sans-Serif" font-size="10.00">::mom_initialize_state</text>
</a>
</g>
</g>
<!-- Node17&#45;&gt;Node18 -->
<g id="edge2" class="edge"><title>Node17&#45;&gt;Node18</title>
<path fill="none" stroke="midnightblue" d="M251.499,-69.6126C260.279,-69.4996 269.21,-69.3848 277.836,-69.2738"/>
<polygon fill="midnightblue" stroke="midnightblue" points="251.242,-66.1155 241.288,-69.7439 251.332,-73.1149 251.242,-66.1155"/>
</g>
<!-- Node19 -->
<g id="node4" class="node"><title>Node19</title>
<g id="a_node4"><a xlink:href="namespacemom.html#a0be2869fef30e1e0604facfe1b41555d" target="_top" xlink:title="This subroutine initializes MOM. ">
<polygon fill="white" stroke="black" points="437,-34 437,-53 544,-53 544,-34 437,-34"/>
<text text-anchor="middle" x="490.5" y="-41" font-family="Helvetica,sans-Serif" font-size="10.00">mom::initialize_mom</text>
</a>
</g>
</g>
<!-- Node18&#45;&gt;Node19 -->
<g id="edge3" class="edge"><title>Node18&#45;&gt;Node19</title>
<path fill="none" stroke="midnightblue" d="M410.304,-56.7436C419.151,-55.264 428.082,-53.7706 436.598,-52.3465"/>
<polygon fill="midnightblue" stroke="midnightblue" points="409.662,-53.3021 400.376,-58.4036 410.817,-60.2062 409.662,-53.3021"/>
</g>
<!-- Node20 -->
<g id="node5" class="node"><title>Node20</title>
<g id="a_node5"><a xlink:href="MOM__driver_8F90.html#a08fffeb2d8e8acbf9ed4609be6d258c6" target="_top" xlink:title="mom_main">
<polygon fill="white" stroke="black" points="580,-34 580,-53 645,-53 645,-34 580,-34"/>
<text text-anchor="middle" x="612.5" y="-41" font-family="Helvetica,sans-Serif" font-size="10.00">mom_main</text>
</a>
</g>
</g>
<!-- Node19&#45;&gt;Node20 -->
<g id="edge4" class="edge"><title>Node19&#45;&gt;Node20</title>
<path fill="none" stroke="midnightblue" d="M554.206,-43.5C563.134,-43.5 571.983,-43.5 579.958,-43.5"/>
<polygon fill="midnightblue" stroke="midnightblue" points="554.134,-40.0001 544.134,-43.5 554.134,-47.0001 554.134,-40.0001"/>
</g>
<!-- Node22 -->
<g id="node7" class="node"><title>Node22</title>
<g id="a_node7"><a xlink:href="namespacemom__coord__initialization.html#a6e2f4c11bc99476ea9c64a9aceac3b81" target="_top" xlink:title="MOM_initialize_coord sets up time&#45;invariant quantities related to MOM6&#39;s vertical coordinate...">
<polygon fill="white" stroke="black" points="277,-3.5 277,-33.5 401,-33.5 401,-3.5 277,-3.5"/>
<text text-anchor="start" x="285" y="-21.5" font-family="Helvetica,sans-Serif" font-size="10.00">mom_coord_initialization</text>
<text text-anchor="middle" x="339" y="-10.5" font-family="Helvetica,sans-Serif" font-size="10.00">::mom_initialize_coord</text>
</a>
</g>
</g>
<!-- Node21&#45;&gt;Node22 -->
<g id="edge6" class="edge"><title>Node21&#45;&gt;Node22</title>
<path fill="none" stroke="midnightblue" d="M234.682,-16.5067C248.231,-16.7681 262.945,-17.052 276.908,-17.3214"/>
<polygon fill="midnightblue" stroke="midnightblue" points="234.646,-13.0055 224.581,-16.3118 234.511,-20.0042 234.646,-13.0055"/>
</g>
<!-- Node22&#45;&gt;Node19 -->
<g id="edge7" class="edge"><title>Node22&#45;&gt;Node19</title>
<path fill="none" stroke="midnightblue" d="M411.255,-30.4155C419.834,-31.8502 428.475,-33.2952 436.725,-34.6747"/>
<polygon fill="midnightblue" stroke="midnightblue" points="411.679,-26.9379 401.239,-28.7406 410.524,-33.8421 411.679,-26.9379"/>
</g>
</g>
</svg>
