<?xml version="1.0" encoding="UTF-8" standalone="no"?>
<!DOCTYPE svg PUBLIC "-//W3C//DTD SVG 1.1//EN"
 "http://www.w3.org/Graphics/SVG/1.1/DTD/svg11.dtd">
<!-- Generated by graphviz version 2.38.0 (20140413.2041)
 -->
<!-- Title: mom_regridding::check_remapping_grid Pages: 1 -->
<svg width="564pt" height="39pt"
 viewBox="0.00 0.00 564.00 39.00" xmlns="http://www.w3.org/2000/svg" xmlns:xlink="http://www.w3.org/1999/xlink">
<g id="graph0" class="graph" transform="scale(1 1) rotate(0) translate(4 35)">
<title>mom_regridding::check_remapping_grid</title>
<polygon fill="white" stroke="none" points="-4,4 -4,-35 560,-35 560,4 -4,4"/>
<!-- Node95 -->
<g id="node1" class="node"><title>Node95</title>
<polygon fill="#bfbfbf" stroke="black" points="0,-0.5 0,-30.5 118,-30.5 118,-0.5 0,-0.5"/>
<text text-anchor="start" x="8" y="-18.5" font-family="Helvetica,sans-Serif" font-size="10.00">mom_regridding::check</text>
<text text-anchor="middle" x="59" y="-7.5" font-family="Helvetica,sans-Serif" font-size="10.00">_remapping_grid</text>
</g>
<!-- Node96 -->
<g id="node2" class="node"><title>Node96</title>
<g id="a_node2"><a xlink:href="namespacemom__regridding.html#ab2a6be87039f49176d91a494126d8430" target="_top" xlink:title="Check that the total thickness of new and old grids are consistent. ">
<polygon fill="white" stroke="black" points="154,-0.5 154,-30.5 272,-30.5 272,-0.5 154,-0.5"/>
<text text-anchor="start" x="162" y="-18.5" font-family="Helvetica,sans-Serif" font-size="10.00">mom_regridding::check</text>
<text text-anchor="middle" x="213" y="-7.5" font-family="Helvetica,sans-Serif" font-size="10.00">_grid_column</text>
</a>
</g>
</g>
<!-- Node95&#45;&gt;Node96 -->
<g id="edge1" class="edge"><title>Node95&#45;&gt;Node96</title>
<path fill="none" stroke="midnightblue" d="M118.332,-15.5C126.606,-15.5 135.175,-15.5 143.617,-15.5"/>
<polygon fill="midnightblue" stroke="midnightblue" points="143.824,-19.0001 153.824,-15.5 143.824,-12.0001 143.824,-19.0001"/>
</g>
<!-- Node97 -->
<g id="node3" class="node"><title>Node97</title>
<g id="a_node3"><a xlink:href="namespacemom__error__handler.html#a460cfb79a06c29fc249952c2a3710d67" target="_top" xlink:title="mom_error_handler::\lmom_error">
<polygon fill="white" stroke="black" points="308,-0.5 308,-30.5 414,-30.5 414,-0.5 308,-0.5"/>
<text text-anchor="start" x="316" y="-18.5" font-family="Helvetica,sans-Serif" font-size="10.00">mom_error_handler::</text>
<text text-anchor="middle" x="361" y="-7.5" font-family="Helvetica,sans-Serif" font-size="10.00">mom_error</text>
</a>
</g>
</g>
<!-- Node96&#45;&gt;Node97 -->
<g id="edge2" class="edge"><title>Node96&#45;&gt;Node97</title>
<path fill="none" stroke="midnightblue" d="M272.123,-15.5C280.49,-15.5 289.129,-15.5 297.576,-15.5"/>
<polygon fill="midnightblue" stroke="midnightblue" points="297.751,-19.0001 307.751,-15.5 297.751,-12.0001 297.751,-19.0001"/>
</g>
<!-- Node98 -->
<g id="node4" class="node"><title>Node98</title>
<g id="a_node4"><a xlink:href="namespacemom__error__handler.html#ad5f00a53059c72fe2332d1436c80ca71" target="_top" xlink:title="mom_error_handler::\lis_root_pe">
<polygon fill="white" stroke="black" points="450,-0.5 450,-30.5 556,-30.5 556,-0.5 450,-0.5"/>
<text text-anchor="start" x="458" y="-18.5" font-family="Helvetica,sans-Serif" font-size="10.00">mom_error_handler::</text>
<text text-anchor="middle" x="503" y="-7.5" font-family="Helvetica,sans-Serif" font-size="10.00">is_root_pe</text>
</a>
</g>
</g>
<!-- Node97&#45;&gt;Node98 -->
<g id="edge3" class="edge"><title>Node97&#45;&gt;Node98</title>
<path fill="none" stroke="midnightblue" d="M414.131,-15.5C422.421,-15.5 431.07,-15.5 439.568,-15.5"/>
<polygon fill="midnightblue" stroke="midnightblue" points="439.826,-19.0001 449.826,-15.5 439.826,-12.0001 439.826,-19.0001"/>
</g>
</g>
</svg>
