<?xml version="1.0" encoding="UTF-8" standalone="no"?>
<!DOCTYPE svg PUBLIC "-//W3C//DTD SVG 1.1//EN"
 "http://www.w3.org/Graphics/SVG/1.1/DTD/svg11.dtd">
<!-- Generated by graphviz version 2.38.0 (20140413.2041)
 -->
<!-- Title: mom_remapping::average_value_ppoly Pages: 1 -->
<svg width="1298pt" height="239pt"
 viewBox="0.00 0.00 1298.00 239.00" xmlns="http://www.w3.org/2000/svg" xmlns:xlink="http://www.w3.org/1999/xlink">
<g id="graph0" class="graph" transform="scale(1 1) rotate(0) translate(4 235)">
<title>mom_remapping::average_value_ppoly</title>
<polygon fill="white" stroke="none" points="-4,4 -4,-235 1294,-235 1294,4 -4,4"/>
<!-- Node3 -->
<g id="node1" class="node"><title>Node3</title>
<polygon fill="#bfbfbf" stroke="black" points="0,-156.5 0,-186.5 129,-186.5 129,-156.5 0,-156.5"/>
<text text-anchor="start" x="8" y="-174.5" font-family="Helvetica,sans-Serif" font-size="10.00">mom_remapping::average</text>
<text text-anchor="middle" x="64.5" y="-163.5" font-family="Helvetica,sans-Serif" font-size="10.00">_value_ppoly</text>
</g>
<!-- Node4 -->
<g id="node2" class="node"><title>Node4</title>
<g id="a_node2"><a xlink:href="namespacemom__remapping.html#aac27eb299cd36293b458a51b60ac771f" target="_top" xlink:title="Remaps column of n0 values u0 on grid h0 to grid h1 with n1 cells by calculating the n0+n1+1 sub&#45;inte...">
<polygon fill="white" stroke="black" points="165,-156.5 165,-186.5 287,-186.5 287,-156.5 165,-156.5"/>
<text text-anchor="start" x="173" y="-174.5" font-family="Helvetica,sans-Serif" font-size="10.00">mom_remapping::remap</text>
<text text-anchor="middle" x="226" y="-163.5" font-family="Helvetica,sans-Serif" font-size="10.00">_via_sub_cells</text>
</a>
</g>
</g>
<!-- Node3&#45;&gt;Node4 -->
<g id="edge1" class="edge"><title>Node3&#45;&gt;Node4</title>
<path fill="none" stroke="midnightblue" d="M139.695,-171.5C148.144,-171.5 156.677,-171.5 164.911,-171.5"/>
<polygon fill="midnightblue" stroke="midnightblue" points="139.456,-168 129.456,-171.5 139.456,-175 139.456,-168"/>
</g>
<!-- Node5 -->
<g id="node3" class="node"><title>Node5</title>
<g id="a_node3"><a xlink:href="namespacemom__remapping.html#a9ed32f0c2764a3ead9311670315dc26c" target="_top" xlink:title="Remaps column of values u0 on grid h0 to grid h1 assuming the top edge is aligned. ">
<polygon fill="white" stroke="black" points="323,-96.5 323,-126.5 463,-126.5 463,-96.5 323,-96.5"/>
<text text-anchor="start" x="331" y="-114.5" font-family="Helvetica,sans-Serif" font-size="10.00">mom_remapping::remapping</text>
<text text-anchor="middle" x="393" y="-103.5" font-family="Helvetica,sans-Serif" font-size="10.00">_core_h</text>
</a>
</g>
</g>
<!-- Node4&#45;&gt;Node5 -->
<g id="edge2" class="edge"><title>Node4&#45;&gt;Node5</title>
<path fill="none" stroke="midnightblue" d="M278.342,-152.83C301.604,-144.371 328.74,-134.503 350.663,-126.532"/>
<polygon fill="midnightblue" stroke="midnightblue" points="276.838,-149.653 268.636,-156.359 279.231,-156.231 276.838,-149.653"/>
</g>
<!-- Node21 -->
<g id="node19" class="node"><title>Node21</title>
<g id="a_node19"><a xlink:href="namespacemom__remapping.html#a8b967872b8db2ac7d538991f7f255e56" target="_top" xlink:title="Remaps column of values u0 on grid h0 to implied grid h1 where the interfaces of h1 differ from those...">
<polygon fill="white" stroke="black" points="323,-156.5 323,-186.5 463,-186.5 463,-156.5 323,-156.5"/>
<text text-anchor="start" x="331" y="-174.5" font-family="Helvetica,sans-Serif" font-size="10.00">mom_remapping::remapping</text>
<text text-anchor="middle" x="393" y="-163.5" font-family="Helvetica,sans-Serif" font-size="10.00">_core_w</text>
</a>
</g>
</g>
<!-- Node4&#45;&gt;Node21 -->
<g id="edge20" class="edge"><title>Node4&#45;&gt;Node21</title>
<path fill="none" stroke="midnightblue" d="M297.24,-171.5C305.698,-171.5 314.331,-171.5 322.774,-171.5"/>
<polygon fill="midnightblue" stroke="midnightblue" points="297.036,-168 287.036,-171.5 297.036,-175 297.036,-168"/>
</g>
<!-- Node22 -->
<g id="node20" class="node"><title>Node22</title>
<g id="a_node20"><a xlink:href="namespacemom__remapping.html#a5849f564453d5ed76fb4feffd41eca26" target="_top" xlink:title="Runs unit tests on remapping functions. Should only be called from a single/root thread Returns True ...">
<polygon fill="white" stroke="black" points="499,-200.5 499,-230.5 639,-230.5 639,-200.5 499,-200.5"/>
<text text-anchor="start" x="507" y="-218.5" font-family="Helvetica,sans-Serif" font-size="10.00">mom_remapping::remapping</text>
<text text-anchor="middle" x="569" y="-207.5" font-family="Helvetica,sans-Serif" font-size="10.00">_unit_tests</text>
</a>
</g>
</g>
<!-- Node4&#45;&gt;Node22 -->
<g id="edge24" class="edge"><title>Node4&#45;&gt;Node22</title>
<path fill="none" stroke="midnightblue" d="M290.323,-188.883C301.162,-191.411 312.358,-193.747 323,-195.5 381.953,-205.208 449.699,-210.28 498.989,-212.882"/>
<polygon fill="midnightblue" stroke="midnightblue" points="291.038,-185.455 280.497,-186.518 289.4,-192.26 291.038,-185.455"/>
</g>
<!-- Node6 -->
<g id="node4" class="node"><title>Node6</title>
<g id="a_node4"><a xlink:href="namespacecoord__rho.html#a6f5a56ba973e5e36820222a709614e40" target="_top" xlink:title="coord_rho::build_rho\l_column">
<polygon fill="white" stroke="black" points="517,-96.5 517,-126.5 621,-126.5 621,-96.5 517,-96.5"/>
<text text-anchor="start" x="525" y="-114.5" font-family="Helvetica,sans-Serif" font-size="10.00">coord_rho::build_rho</text>
<text text-anchor="middle" x="569" y="-103.5" font-family="Helvetica,sans-Serif" font-size="10.00">_column</text>
</a>
</g>
</g>
<!-- Node5&#45;&gt;Node6 -->
<g id="edge3" class="edge"><title>Node5&#45;&gt;Node6</title>
<path fill="none" stroke="midnightblue" d="M473.198,-111.5C488,-111.5 503.107,-111.5 516.784,-111.5"/>
<polygon fill="midnightblue" stroke="midnightblue" points="473.019,-108 463.019,-111.5 473.019,-115 473.019,-108"/>
</g>
<!-- Node8 -->
<g id="node6" class="node"><title>Node8</title>
<g id="a_node6"><a xlink:href="namespacemom__wave__speed.html#a72302e356c47c5055ba0b1a8714c772a" target="_top" xlink:title="Calculates the wave speed of the first baroclinic mode. ">
<polygon fill="white" stroke="black" points="675,-3.5 675,-33.5 803,-33.5 803,-3.5 675,-3.5"/>
<text text-anchor="start" x="683" y="-21.5" font-family="Helvetica,sans-Serif" font-size="10.00">mom_wave_speed::wave</text>
<text text-anchor="middle" x="739" y="-10.5" font-family="Helvetica,sans-Serif" font-size="10.00">_speed</text>
</a>
</g>
</g>
<!-- Node5&#45;&gt;Node8 -->
<g id="edge5" class="edge"><title>Node5&#45;&gt;Node8</title>
<path fill="none" stroke="midnightblue" d="M417.15,-89.5853C437.136,-72.1341 467.66,-48.8201 499,-37.5 556.059,-16.89 625.617,-13.5893 674.946,-14.5689"/>
<polygon fill="midnightblue" stroke="midnightblue" points="414.633,-87.1411 409.515,-96.418 419.301,-92.3574 414.633,-87.1411"/>
</g>
<!-- Node15 -->
<g id="node13" class="node"><title>Node15</title>
<g id="a_node13"><a xlink:href="namespacemom__diag__remap.html#a4b76283906971bcb94e85c0ed25f4e7b" target="_top" xlink:title="Remap diagnostic field to alternative vertical grid. ">
<polygon fill="white" stroke="black" points="510,-47.5 510,-77.5 628,-77.5 628,-47.5 510,-47.5"/>
<text text-anchor="start" x="518" y="-65.5" font-family="Helvetica,sans-Serif" font-size="10.00">mom_diag_remap::diag</text>
<text text-anchor="middle" x="569" y="-54.5" font-family="Helvetica,sans-Serif" font-size="10.00">_remap_do_remap</text>
</a>
</g>
</g>
<!-- Node5&#45;&gt;Node15 -->
<g id="edge13" class="edge"><title>Node5&#45;&gt;Node15</title>
<path fill="none" stroke="midnightblue" d="M457.284,-93.6788C476.07,-88.3882 496.455,-82.6478 514.552,-77.5516"/>
<polygon fill="midnightblue" stroke="midnightblue" points="456.302,-90.3189 447.626,-96.3986 458.2,-97.0568 456.302,-90.3189"/>
</g>
<!-- Node16 -->
<g id="node14" class="node"><title>Node16</title>
<g id="a_node14"><a xlink:href="namespacemom__state__initialization.html#a71ee3c056ca59c1c3529a4ec22e09fe3" target="_top" xlink:title="Adjust the layer thicknesses by cutting away the top at the depth where the hydrostatic pressure matc...">
<polygon fill="white" stroke="black" points="508,-145.5 508,-175.5 630,-175.5 630,-145.5 508,-145.5"/>
<text text-anchor="start" x="516" y="-163.5" font-family="Helvetica,sans-Serif" font-size="10.00">mom_state_initialization</text>
<text text-anchor="middle" x="569" y="-152.5" font-family="Helvetica,sans-Serif" font-size="10.00">::cut_off_column_top</text>
</a>
</g>
</g>
<!-- Node5&#45;&gt;Node16 -->
<g id="edge14" class="edge"><title>Node5&#45;&gt;Node16</title>
<path fill="none" stroke="midnightblue" d="M457.284,-129.321C476.07,-134.612 496.455,-140.352 514.552,-145.448"/>
<polygon fill="midnightblue" stroke="midnightblue" points="458.2,-125.943 447.626,-126.601 456.302,-132.681 458.2,-125.943"/>
</g>
<!-- Node7 -->
<g id="node5" class="node"><title>Node7</title>
<g id="a_node5"><a xlink:href="namespacemom__diag__remap.html#a1fb71d2982777f33bcbf183187e1819b" target="_top" xlink:title="Build/update target vertical grids for diagnostic remapping. ">
<polygon fill="white" stroke="black" points="680,-58.5 680,-88.5 798,-88.5 798,-58.5 680,-58.5"/>
<text text-anchor="start" x="688" y="-76.5" font-family="Helvetica,sans-Serif" font-size="10.00">mom_diag_remap::diag</text>
<text text-anchor="middle" x="739" y="-65.5" font-family="Helvetica,sans-Serif" font-size="10.00">_remap_update</text>
</a>
</g>
</g>
<!-- Node6&#45;&gt;Node7 -->
<g id="edge4" class="edge"><title>Node6&#45;&gt;Node7</title>
<path fill="none" stroke="midnightblue" d="M631.523,-97.5841C647.343,-94.0057 664.311,-90.1677 679.949,-86.6307"/>
<polygon fill="midnightblue" stroke="midnightblue" points="630.3,-94.2723 621.318,-99.8923 631.844,-101.1 630.3,-94.2723"/>
</g>
<!-- Node9 -->
<g id="node7" class="node"><title>Node9</title>
<g id="a_node7"><a xlink:href="namespacemom__diagnostics.html#abb6644248c28ab2e952361bfec436063" target="_top" xlink:title="Diagnostics not more naturally calculated elsewhere are computed here. ">
<polygon fill="white" stroke="black" points="839,-0.5 839,-30.5 977,-30.5 977,-0.5 839,-0.5"/>
<text text-anchor="start" x="847" y="-18.5" font-family="Helvetica,sans-Serif" font-size="10.00">mom_diagnostics::calculate</text>
<text text-anchor="middle" x="908" y="-7.5" font-family="Helvetica,sans-Serif" font-size="10.00">_diagnostic_fields</text>
</a>
</g>
</g>
<!-- Node8&#45;&gt;Node9 -->
<g id="edge6" class="edge"><title>Node8&#45;&gt;Node9</title>
<path fill="none" stroke="midnightblue" d="M813.345,-17.1824C821.792,-17.0307 830.379,-16.8764 838.755,-16.726"/>
<polygon fill="midnightblue" stroke="midnightblue" points="813.071,-13.6867 803.136,-17.3658 813.197,-20.6856 813.071,-13.6867"/>
</g>
<!-- Node10 -->
<g id="node8" class="node"><title>Node10</title>
<g id="a_node8"><a xlink:href="namespacemom__lateral__mixing__coeffs.html#af206bc656869b4fc27d4d7e8a15d438e" target="_top" xlink:title="Calculates and stores the non&#45;dimensional resolution functions. ">
<polygon fill="white" stroke="black" points="856,-50 856,-91 960,-91 960,-50 856,-50"/>
<text text-anchor="start" x="864" y="-79" font-family="Helvetica,sans-Serif" font-size="10.00">mom_lateral_mixing</text>
<text text-anchor="start" x="864" y="-68" font-family="Helvetica,sans-Serif" font-size="10.00">_coeffs::calc_resoln</text>
<text text-anchor="middle" x="908" y="-57" font-family="Helvetica,sans-Serif" font-size="10.00">_function</text>
</a>
</g>
</g>
<!-- Node8&#45;&gt;Node10 -->
<g id="edge7" class="edge"><title>Node8&#45;&gt;Node10</title>
<path fill="none" stroke="midnightblue" d="M797.962,-36.5481C816.812,-42.4176 837.583,-48.8852 855.895,-54.587"/>
<polygon fill="midnightblue" stroke="midnightblue" points="798.892,-33.1719 788.303,-33.5406 796.811,-39.8554 798.892,-33.1719"/>
</g>
<!-- Node11 -->
<g id="node9" class="node"><title>Node11</title>
<g id="a_node9"><a xlink:href="namespacemom.html#a4c8332b095c6d295084089aa6b3b678a" target="_top" xlink:title="This subroutine orchestrates the time stepping of MOM. The adiabatic dynamics are stepped by calls to...">
<polygon fill="white" stroke="black" points="1021.5,-93 1021.5,-112 1111.5,-112 1111.5,-93 1021.5,-93"/>
<text text-anchor="middle" x="1066.5" y="-100" font-family="Helvetica,sans-Serif" font-size="10.00">mom::step_mom</text>
</a>
</g>
</g>
<!-- Node10&#45;&gt;Node11 -->
<g id="edge8" class="edge"><title>Node10&#45;&gt;Node11</title>
<path fill="none" stroke="midnightblue" d="M970.17,-83.0076C987.299,-86.51 1005.58,-90.2471 1021.5,-93.5024"/>
<polygon fill="midnightblue" stroke="midnightblue" points="970.742,-79.5523 960.244,-80.978 969.34,-86.4104 970.742,-79.5523"/>
</g>
<!-- Node13 -->
<g id="node11" class="node"><title>Node13</title>
<g id="a_node11"><a xlink:href="namespacemom.html#ad56e17a755c7078ccea29ccbae4d5803" target="_top" xlink:title="step_offline is the main driver for running tracers offline in MOM6. This has been primarily develope...">
<polygon fill="white" stroke="black" points="1019,-55 1019,-74 1114,-74 1114,-55 1019,-55"/>
<text text-anchor="middle" x="1066.5" y="-62" font-family="Helvetica,sans-Serif" font-size="10.00">mom::step_offline</text>
</a>
</g>
</g>
<!-- Node10&#45;&gt;Node13 -->
<g id="edge10" class="edge"><title>Node10&#45;&gt;Node13</title>
<path fill="none" stroke="midnightblue" d="M970.633,-68.1371C986.704,-67.5209 1003.75,-66.8672 1018.9,-66.2865"/>
<polygon fill="midnightblue" stroke="midnightblue" points="970.102,-64.6547 960.244,-68.5354 970.371,-71.6496 970.102,-64.6547"/>
</g>
<!-- Node12 -->
<g id="node10" class="node"><title>Node12</title>
<g id="a_node10"><a xlink:href="MOM__driver_8F90.html#a08fffeb2d8e8acbf9ed4609be6d258c6" target="_top" xlink:title="mom_main">
<polygon fill="white" stroke="black" points="1190.5,-96 1190.5,-115 1255.5,-115 1255.5,-96 1190.5,-96"/>
<text text-anchor="middle" x="1223" y="-103" font-family="Helvetica,sans-Serif" font-size="10.00">mom_main</text>
</a>
</g>
</g>
<!-- Node11&#45;&gt;Node12 -->
<g id="edge9" class="edge"><title>Node11&#45;&gt;Node12</title>
<path fill="none" stroke="midnightblue" d="M1122.06,-103.559C1144.98,-104.004 1170.81,-104.506 1190.48,-104.888"/>
<polygon fill="midnightblue" stroke="midnightblue" points="1121.84,-100.055 1111.77,-103.36 1121.7,-107.053 1121.84,-100.055"/>
</g>
<!-- Node13&#45;&gt;Node12 -->
<g id="edge11" class="edge"><title>Node13&#45;&gt;Node12</title>
<path fill="none" stroke="midnightblue" d="M1113.25,-76.6415C1138.05,-83.2228 1168.08,-91.1909 1190.29,-97.0855"/>
<polygon fill="midnightblue" stroke="midnightblue" points="1113.9,-73.1914 1103.33,-74.0093 1112.1,-79.9572 1113.9,-73.1914"/>
</g>
<!-- Node14 -->
<g id="node12" class="node"><title>Node14</title>
<g id="a_node12"><a xlink:href="namespaceocean__model__mod.html#ac9dc1795fc4799d6682f462857b42d62" target="_top" xlink:title="ocean_model_mod::update\l_ocean_model">
<polygon fill="white" stroke="black" points="1156,-46.5 1156,-76.5 1290,-76.5 1290,-46.5 1156,-46.5"/>
<text text-anchor="start" x="1164" y="-64.5" font-family="Helvetica,sans-Serif" font-size="10.00">ocean_model_mod::update</text>
<text text-anchor="middle" x="1223" y="-53.5" font-family="Helvetica,sans-Serif" font-size="10.00">_ocean_model</text>
</a>
</g>
</g>
<!-- Node13&#45;&gt;Node14 -->
<g id="edge12" class="edge"><title>Node13&#45;&gt;Node14</title>
<path fill="none" stroke="midnightblue" d="M1124.3,-63.3972C1134.52,-63.1987 1145.26,-62.9902 1155.72,-62.787"/>
<polygon fill="midnightblue" stroke="midnightblue" points="1124.2,-59.8982 1114.27,-63.5918 1124.34,-66.8969 1124.2,-59.8982"/>
</g>
<!-- Node17 -->
<g id="node15" class="node"><title>Node17</title>
<g id="a_node15"><a xlink:href="namespacemom__state__initialization.html#ac29cd3c6b5de2b36b9690d800ac98a09" target="_top" xlink:title="Adjust the layer thicknesses by cutting away the top of each model column at the depth where the hydr...">
<polygon fill="white" stroke="black" points="678,-107.5 678,-137.5 800,-137.5 800,-107.5 678,-107.5"/>
<text text-anchor="start" x="686" y="-125.5" font-family="Helvetica,sans-Serif" font-size="10.00">mom_state_initialization</text>
<text text-anchor="middle" x="739" y="-114.5" font-family="Helvetica,sans-Serif" font-size="10.00">::trim_for_ice</text>
</a>
</g>
</g>
<!-- Node16&#45;&gt;Node17 -->
<g id="edge15" class="edge"><title>Node16&#45;&gt;Node17</title>
<path fill="none" stroke="midnightblue" d="M640.144,-144.634C652.713,-141.791 665.708,-138.852 677.961,-136.08"/>
<polygon fill="midnightblue" stroke="midnightblue" points="639.159,-141.268 630.177,-146.888 640.703,-148.096 639.159,-141.268"/>
</g>
<!-- Node20 -->
<g id="node18" class="node"><title>Node20</title>
<g id="a_node18"><a xlink:href="namespacemom__state__initialization.html#a5c77bf2b0ea9d28e28b661a2a42d3f88" target="_top" xlink:title="Run simple unit tests. ">
<polygon fill="white" stroke="black" points="678,-156.5 678,-186.5 800,-186.5 800,-156.5 678,-156.5"/>
<text text-anchor="start" x="686" y="-174.5" font-family="Helvetica,sans-Serif" font-size="10.00">mom_state_initialization</text>
<text text-anchor="middle" x="739" y="-163.5" font-family="Helvetica,sans-Serif" font-size="10.00">::mom_state_init_tests</text>
</a>
</g>
</g>
<!-- Node16&#45;&gt;Node20 -->
<g id="edge19" class="edge"><title>Node16&#45;&gt;Node20</title>
<path fill="none" stroke="midnightblue" d="M640.517,-165.117C652.97,-165.933 665.829,-166.775 677.961,-167.569"/>
<polygon fill="midnightblue" stroke="midnightblue" points="640.385,-161.601 630.177,-164.44 639.927,-168.586 640.385,-161.601"/>
</g>
<!-- Node18 -->
<g id="node16" class="node"><title>Node18</title>
<g id="a_node16"><a xlink:href="namespacemom__state__initialization.html#af4e854627c6572332ba3fd895f169321" target="_top" xlink:title="mom_state_initialization\l::mom_initialize_state">
<polygon fill="white" stroke="black" points="847,-120.5 847,-150.5 969,-150.5 969,-120.5 847,-120.5"/>
<text text-anchor="start" x="855" y="-138.5" font-family="Helvetica,sans-Serif" font-size="10.00">mom_state_initialization</text>
<text text-anchor="middle" x="908" y="-127.5" font-family="Helvetica,sans-Serif" font-size="10.00">::mom_initialize_state</text>
</a>
</g>
</g>
<!-- Node17&#45;&gt;Node18 -->
<g id="edge16" class="edge"><title>Node17&#45;&gt;Node18</title>
<path fill="none" stroke="midnightblue" d="M810.359,-127.977C822.478,-128.92 834.977,-129.893 846.798,-130.814"/>
<polygon fill="midnightblue" stroke="midnightblue" points="810.532,-124.48 800.291,-127.193 809.989,-131.459 810.532,-124.48"/>
</g>
<!-- Node19 -->
<g id="node17" class="node"><title>Node19</title>
<g id="a_node17"><a xlink:href="namespacemom.html#a0be2869fef30e1e0604facfe1b41555d" target="_top" xlink:title="This subroutine initializes MOM. ">
<polygon fill="white" stroke="black" points="1013,-131 1013,-150 1120,-150 1120,-131 1013,-131"/>
<text text-anchor="middle" x="1066.5" y="-138" font-family="Helvetica,sans-Serif" font-size="10.00">mom::initialize_mom</text>
</a>
</g>
</g>
<!-- Node18&#45;&gt;Node19 -->
<g id="edge17" class="edge"><title>Node18&#45;&gt;Node19</title>
<path fill="none" stroke="midnightblue" d="M979.297,-137.746C990.542,-138.105 1002.01,-138.472 1012.75,-138.815"/>
<polygon fill="midnightblue" stroke="midnightblue" points="979.166,-134.24 969.059,-137.419 978.943,-141.236 979.166,-134.24"/>
</g>
<!-- Node19&#45;&gt;Node12 -->
<g id="edge18" class="edge"><title>Node19&#45;&gt;Node12</title>
<path fill="none" stroke="midnightblue" d="M1119.5,-128.719C1142.9,-123.419 1169.77,-117.332 1190.13,-112.72"/>
<polygon fill="midnightblue" stroke="midnightblue" points="1118.7,-125.313 1109.72,-130.936 1120.24,-132.14 1118.7,-125.313"/>
</g>
<!-- Node21&#45;&gt;Node22 -->
<g id="edge21" class="edge"><title>Node21&#45;&gt;Node22</title>
<path fill="none" stroke="midnightblue" d="M463.147,-188.985C478.181,-192.787 493.959,-196.777 508.578,-200.474"/>
<polygon fill="midnightblue" stroke="midnightblue" points="463.947,-185.578 453.394,-186.519 462.231,-192.364 463.947,-185.578"/>
</g>
<!-- Node23 -->
<g id="node21" class="node"><title>Node23</title>
<g id="a_node21"><a xlink:href="namespacemom__unit__tests.html#a71f3a2080872634c14a25a9411b59fe0" target="_top" xlink:title="Calls unit tests for other modules. Note that if a unit test returns true, a FATAL error is triggered...">
<polygon fill="white" stroke="black" points="854,-184.5 854,-214.5 962,-214.5 962,-184.5 854,-184.5"/>
<text text-anchor="start" x="862" y="-202.5" font-family="Helvetica,sans-Serif" font-size="10.00">mom_unit_tests::unit</text>
<text text-anchor="middle" x="908" y="-191.5" font-family="Helvetica,sans-Serif" font-size="10.00">_tests</text>
</a>
</g>
</g>
<!-- Node22&#45;&gt;Node23 -->
<g id="edge22" class="edge"><title>Node22&#45;&gt;Node23</title>
<path fill="none" stroke="midnightblue" d="M649.315,-211.734C712.38,-208.74 798.859,-204.634 853.839,-202.024"/>
<polygon fill="midnightblue" stroke="midnightblue" points="648.833,-208.253 639.01,-212.224 649.165,-215.245 648.833,-208.253"/>
</g>
<!-- Node23&#45;&gt;Node19 -->
<g id="edge23" class="edge"><title>Node23&#45;&gt;Node19</title>
<path fill="none" stroke="midnightblue" d="M958.584,-180.807C985.607,-170.62 1017.92,-158.437 1039.9,-150.151"/>
<polygon fill="midnightblue" stroke="midnightblue" points="957.019,-177.656 948.896,-184.459 959.488,-184.206 957.019,-177.656"/>
</g>
</g>
</svg>
