<?xml version="1.0" encoding="UTF-8" standalone="no"?>
<!DOCTYPE svg PUBLIC "-//W3C//DTD SVG 1.1//EN"
 "http://www.w3.org/Graphics/SVG/1.1/DTD/svg11.dtd">
<!-- Generated by graphviz version 2.38.0 (20140413.2041)
 -->
<!-- Title: mom_legacy_barotropic::find_face_areas Pages: 1 -->
<svg width="440pt" height="119pt"
 viewBox="0.00 0.00 440.00 118.50" xmlns="http://www.w3.org/2000/svg" xmlns:xlink="http://www.w3.org/1999/xlink">
<g id="graph0" class="graph" transform="scale(1 1) rotate(0) translate(4 114.5)">
<title>mom_legacy_barotropic::find_face_areas</title>
<polygon fill="white" stroke="none" points="-4,4 -4,-114.5 436,-114.5 436,4 -4,4"/>
<!-- Node18 -->
<g id="node1" class="node"><title>Node18</title>
<polygon fill="#bfbfbf" stroke="black" points="0,-55 0,-85 120,-85 120,-55 0,-55"/>
<text text-anchor="start" x="8" y="-73" font-family="Helvetica,sans-Serif" font-size="10.00">mom_legacy_barotropic</text>
<text text-anchor="middle" x="60" y="-62" font-family="Helvetica,sans-Serif" font-size="10.00">::find_face_areas</text>
</g>
<!-- Node19 -->
<g id="node2" class="node"><title>Node19</title>
<g id="a_node2"><a xlink:href="namespacemom__legacy__barotropic.html#aa9771b1e4e725afa95ab8ada8538a064" target="_top" xlink:title="mom_legacy_barotropic\l::legacy_barotropic_init">
<polygon fill="white" stroke="black" points="312,-80 312,-110 432,-110 432,-80 312,-80"/>
<text text-anchor="start" x="320" y="-98" font-family="Helvetica,sans-Serif" font-size="10.00">mom_legacy_barotropic</text>
<text text-anchor="middle" x="372" y="-87" font-family="Helvetica,sans-Serif" font-size="10.00">::legacy_barotropic_init</text>
</a>
</g>
</g>
<!-- Node18&#45;&gt;Node19 -->
<g id="edge1" class="edge"><title>Node18&#45;&gt;Node19</title>
<path fill="none" stroke="midnightblue" d="M118.109,-87.5636C130.486,-90.6548 143.588,-93.3942 156,-95 208.38,-101.777 268.542,-101.062 311.879,-99.067"/>
<polygon fill="midnightblue" stroke="midnightblue" points="118.925,-84.1595 108.366,-85.0241 117.16,-90.9332 118.925,-84.1595"/>
</g>
<!-- Node20 -->
<g id="node3" class="node"><title>Node20</title>
<g id="a_node3"><a xlink:href="namespacemom__legacy__barotropic.html#ae039a54a1c82e3f4f53539e5dc2de6ea" target="_top" xlink:title="mom_legacy_barotropic\l::legacy_btstep">
<polygon fill="white" stroke="black" points="156,-55 156,-85 276,-85 276,-55 156,-55"/>
<text text-anchor="start" x="164" y="-73" font-family="Helvetica,sans-Serif" font-size="10.00">mom_legacy_barotropic</text>
<text text-anchor="middle" x="216" y="-62" font-family="Helvetica,sans-Serif" font-size="10.00">::legacy_btstep</text>
</a>
</g>
</g>
<!-- Node18&#45;&gt;Node20 -->
<g id="edge2" class="edge"><title>Node18&#45;&gt;Node20</title>
<path fill="none" stroke="midnightblue" d="M130.369,-70C138.862,-70 147.48,-70 155.804,-70"/>
<polygon fill="midnightblue" stroke="midnightblue" points="130.1,-66.5001 120.1,-70 130.1,-73.5001 130.1,-66.5001"/>
</g>
<!-- Node21 -->
<g id="node4" class="node"><title>Node21</title>
<g id="a_node4"><a xlink:href="namespacemom__legacy__barotropic.html#aaa2063f7d7fbe940bc5bd80117befaed" target="_top" xlink:title="mom_legacy_barotropic\l::legacy_set_dtbt">
<polygon fill="white" stroke="black" points="156,-6 156,-36 276,-36 276,-6 156,-6"/>
<text text-anchor="start" x="164" y="-24" font-family="Helvetica,sans-Serif" font-size="10.00">mom_legacy_barotropic</text>
<text text-anchor="middle" x="216" y="-13" font-family="Helvetica,sans-Serif" font-size="10.00">::legacy_set_dtbt</text>
</a>
</g>
</g>
<!-- Node18&#45;&gt;Node21 -->
<g id="edge3" class="edge"><title>Node18&#45;&gt;Node21</title>
<path fill="none" stroke="midnightblue" d="M118.386,-51.7409C134.629,-46.5727 152.119,-41.0076 167.695,-36.0516"/>
<polygon fill="midnightblue" stroke="midnightblue" points="116.93,-48.5312 108.462,-54.8986 119.052,-55.2017 116.93,-48.5312"/>
</g>
<!-- Node21&#45;&gt;Node19 -->
<g id="edge5" class="edge"><title>Node21&#45;&gt;Node19</title>
<path fill="none" stroke="midnightblue" d="M264.974,-40.0519C268.724,-41.6818 272.436,-43.3421 276,-45 299.321,-55.8483 325.105,-69.5302 343.919,-79.8383"/>
<polygon fill="midnightblue" stroke="midnightblue" points="266.209,-36.7739 255.637,-36.0812 263.47,-43.2156 266.209,-36.7739"/>
</g>
<!-- Node22 -->
<g id="node5" class="node"><title>Node22</title>
<g id="a_node5"><a xlink:href="namespacemom__dynamics__legacy__split.html#ae34fe0561f87dc05c2fad64bf6d5a1ee" target="_top" xlink:title="mom_dynamics_legacy\l_split::step_mom_dyn\l_legacy_split">
<polygon fill="white" stroke="black" points="312.5,-0.5 312.5,-41.5 431.5,-41.5 431.5,-0.5 312.5,-0.5"/>
<text text-anchor="start" x="320.5" y="-29.5" font-family="Helvetica,sans-Serif" font-size="10.00">mom_dynamics_legacy</text>
<text text-anchor="start" x="320.5" y="-18.5" font-family="Helvetica,sans-Serif" font-size="10.00">_split::step_mom_dyn</text>
<text text-anchor="middle" x="372" y="-7.5" font-family="Helvetica,sans-Serif" font-size="10.00">_legacy_split</text>
</a>
</g>
</g>
<!-- Node21&#45;&gt;Node22 -->
<g id="edge4" class="edge"><title>Node21&#45;&gt;Node22</title>
<path fill="none" stroke="midnightblue" d="M286.235,-21C294.944,-21 303.787,-21 312.312,-21"/>
<polygon fill="midnightblue" stroke="midnightblue" points="286.1,-17.5001 276.1,-21 286.1,-24.5001 286.1,-17.5001"/>
</g>
</g>
</svg>
