<?xml version="1.0" encoding="UTF-8" standalone="no"?>
<!DOCTYPE svg PUBLIC "-//W3C//DTD SVG 1.1//EN"
 "http://www.w3.org/Graphics/SVG/1.1/DTD/svg11.dtd">
<!-- Generated by graphviz version 2.38.0 (20140413.2041)
 -->
<!-- Title: mom_barotropic::uhbt_to_ubt Pages: 1 -->
<svg width="416pt" height="39pt"
 viewBox="0.00 0.00 416.00 39.00" xmlns="http://www.w3.org/2000/svg" xmlns:xlink="http://www.w3.org/1999/xlink">
<g id="graph0" class="graph" transform="scale(1 1) rotate(0) translate(4 35)">
<title>mom_barotropic::uhbt_to_ubt</title>
<polygon fill="white" stroke="none" points="-4,4 -4,-35 412,-35 412,4 -4,4"/>
<!-- Node110 -->
<g id="node1" class="node"><title>Node110</title>
<polygon fill="#bfbfbf" stroke="black" points="0,-0.5 0,-30.5 111,-30.5 111,-0.5 0,-0.5"/>
<text text-anchor="start" x="8" y="-18.5" font-family="Helvetica,sans-Serif" font-size="10.00">mom_barotropic::uhbt</text>
<text text-anchor="middle" x="55.5" y="-7.5" font-family="Helvetica,sans-Serif" font-size="10.00">_to_ubt</text>
</g>
<!-- Node111 -->
<g id="node2" class="node"><title>Node111</title>
<g id="a_node2"><a xlink:href="namespacemom__barotropic.html#ac261a5f080961d455a9b806d2c0d63f7" target="_top" xlink:title="This subroutine sets up the private structure used to apply the open boundary conditions, as developed by Mehmet Ilicak. ">
<polygon fill="white" stroke="black" points="147,-0.5 147,-30.5 253,-30.5 253,-0.5 147,-0.5"/>
<text text-anchor="start" x="155" y="-18.5" font-family="Helvetica,sans-Serif" font-size="10.00">mom_barotropic::set</text>
<text text-anchor="middle" x="200" y="-7.5" font-family="Helvetica,sans-Serif" font-size="10.00">_up_bt_obc</text>
</a>
</g>
</g>
<!-- Node110&#45;&gt;Node111 -->
<g id="edge1" class="edge"><title>Node110&#45;&gt;Node111</title>
<path fill="none" stroke="midnightblue" d="M121.384,-15.5C129.819,-15.5 138.374,-15.5 146.571,-15.5"/>
<polygon fill="midnightblue" stroke="midnightblue" points="121.187,-12.0001 111.187,-15.5 121.187,-19.0001 121.187,-12.0001"/>
</g>
<!-- Node112 -->
<g id="node3" class="node"><title>Node112</title>
<g id="a_node3"><a xlink:href="namespacemom__barotropic.html#a98cdf3c559146cc9485fcb9daa4cdbca" target="_top" xlink:title="This subroutine time steps the barotropic equations explicitly. For gravity waves, anything between a forwards&#45;backwards scheme and a simulated backwards Euler scheme is used, with bebt between 0.0 and 1.0 determining the scheme. In practice, bebt must be of order 0.2 or greater. A forwards&#45;backwards treatment of the Coriolis terms is always used. ">
<polygon fill="white" stroke="black" points="289,-6 289,-25 408,-25 408,-6 289,-6"/>
<text text-anchor="middle" x="348.5" y="-13" font-family="Helvetica,sans-Serif" font-size="10.00">mom_barotropic::btstep</text>
</a>
</g>
</g>
<!-- Node111&#45;&gt;Node112 -->
<g id="edge2" class="edge"><title>Node111&#45;&gt;Node112</title>
<path fill="none" stroke="midnightblue" d="M263.282,-15.5C271.767,-15.5 280.453,-15.5 288.871,-15.5"/>
<polygon fill="midnightblue" stroke="midnightblue" points="263.063,-12.0001 253.063,-15.5 263.063,-19.0001 263.063,-12.0001"/>
</g>
</g>
</svg>
