<?xml version="1.0" encoding="UTF-8" standalone="no"?>
<!DOCTYPE svg PUBLIC "-//W3C//DTD SVG 1.1//EN"
 "http://www.w3.org/Graphics/SVG/1.1/DTD/svg11.dtd">
<!-- Generated by graphviz version 2.38.0 (20140413.2041)
 -->
<!-- Title: mom_geothermal::geothermal_init Pages: 1 -->
<svg width="894pt" height="260pt"
 viewBox="0.00 0.00 894.00 260.40" xmlns="http://www.w3.org/2000/svg" xmlns:xlink="http://www.w3.org/1999/xlink">
<g id="graph0" class="graph" transform="scale(1 1) rotate(0) translate(4 256.403)">
<title>mom_geothermal::geothermal_init</title>
<polygon fill="white" stroke="none" points="-4,4 -4,-256.403 890,-256.403 890,4 -4,4"/>
<!-- Node8 -->
<g id="node1" class="node"><title>Node8</title>
<polygon fill="#bfbfbf" stroke="black" points="0,-183.386 0,-202.386 164,-202.386 164,-183.386 0,-183.386"/>
<text text-anchor="middle" x="82" y="-190.386" font-family="Helvetica,sans-Serif" font-size="10.00">mom_geothermal::geothermal_init</text>
</g>
<!-- Node9 -->
<g id="node2" class="node"><title>Node9</title>
<g id="a_node2"><a xlink:href="namespacemom__error__handler.html#a460cfb79a06c29fc249952c2a3710d67" target="_top" xlink:title="mom_error_handler::\lmom_error">
<polygon fill="white" stroke="black" points="638,-108.886 638,-138.886 744,-138.886 744,-108.886 638,-108.886"/>
<text text-anchor="start" x="646" y="-126.886" font-family="Helvetica,sans-Serif" font-size="10.00">mom_error_handler::</text>
<text text-anchor="middle" x="691" y="-115.886" font-family="Helvetica,sans-Serif" font-size="10.00">mom_error</text>
</a>
</g>
</g>
<!-- Node8&#45;&gt;Node9 -->
<g id="edge1" class="edge"><title>Node8&#45;&gt;Node9</title>
<path fill="none" stroke="midnightblue" d="M111.258,-202.462C191.93,-228.109 428.637,-291.517 602,-216.886 634.48,-202.904 660.574,-170.387 675.677,-147.77"/>
<polygon fill="midnightblue" stroke="midnightblue" points="678.814,-149.363 681.282,-139.06 672.927,-145.575 678.814,-149.363"/>
</g>
<!-- Node11 -->
<g id="node4" class="node"><title>Node11</title>
<g id="a_node4"><a xlink:href="namespacemom__diag__mediator.html#abe591ed2565e9f026c5be055bc2fc0b7" target="_top" xlink:title="Registers a static diagnostic, returning an integer handle. ">
<polygon fill="white" stroke="black" points="200,-111.886 200,-141.886 310,-141.886 310,-111.886 200,-111.886"/>
<text text-anchor="start" x="208" y="-129.886" font-family="Helvetica,sans-Serif" font-size="10.00">mom_diag_mediator::</text>
<text text-anchor="middle" x="255" y="-118.886" font-family="Helvetica,sans-Serif" font-size="10.00">register_static_field</text>
</a>
</g>
</g>
<!-- Node8&#45;&gt;Node11 -->
<g id="edge3" class="edge"><title>Node8&#45;&gt;Node11</title>
<path fill="none" stroke="midnightblue" d="M107.865,-183.289C133.3,-173.472 173.487,-157.962 205.285,-145.689"/>
<polygon fill="midnightblue" stroke="midnightblue" points="206.79,-148.86 214.859,-141.994 204.269,-142.329 206.79,-148.86"/>
</g>
<!-- Node10 -->
<g id="node3" class="node"><title>Node10</title>
<g id="a_node3"><a xlink:href="namespacemom__error__handler.html#ad5f00a53059c72fe2332d1436c80ca71" target="_top" xlink:title="mom_error_handler::\lis_root_pe">
<polygon fill="white" stroke="black" points="780,-52.8864 780,-82.8864 886,-82.8864 886,-52.8864 780,-52.8864"/>
<text text-anchor="start" x="788" y="-70.8864" font-family="Helvetica,sans-Serif" font-size="10.00">mom_error_handler::</text>
<text text-anchor="middle" x="833" y="-59.8864" font-family="Helvetica,sans-Serif" font-size="10.00">is_root_pe</text>
</a>
</g>
</g>
<!-- Node9&#45;&gt;Node10 -->
<g id="edge2" class="edge"><title>Node9&#45;&gt;Node10</title>
<path fill="none" stroke="midnightblue" d="M729.517,-108.879C746.466,-102.1 766.678,-94.0151 784.656,-86.8239"/>
<polygon fill="midnightblue" stroke="midnightblue" points="786.394,-89.8984 794.379,-82.9348 783.794,-83.3991 786.394,-89.8984"/>
</g>
<!-- Node11&#45;&gt;Node10 -->
<g id="edge10" class="edge"><title>Node11&#45;&gt;Node10</title>
<path fill="none" stroke="midnightblue" d="M264.649,-111.603C278.454,-88.9636 307.848,-47.4152 346,-30.8864 494.334,33.3764 691.926,-18.8772 782.654,-49.5343"/>
<polygon fill="midnightblue" stroke="midnightblue" points="781.544,-52.8536 792.138,-52.7928 783.818,-46.2334 781.544,-52.8536"/>
</g>
<!-- Node12 -->
<g id="node5" class="node"><title>Node12</title>
<g id="a_node5"><a xlink:href="namespacemom__diag__mediator.html#a1b0bed2113a0c268eafd1bafbb48bd4f" target="_top" xlink:title="mom_diag_mediator::\lalloc_diag_with_id">
<polygon fill="white" stroke="black" points="346,-89.8864 346,-119.886 456,-119.886 456,-89.8864 346,-89.8864"/>
<text text-anchor="start" x="354" y="-107.886" font-family="Helvetica,sans-Serif" font-size="10.00">mom_diag_mediator::</text>
<text text-anchor="middle" x="401" y="-96.8864" font-family="Helvetica,sans-Serif" font-size="10.00">alloc_diag_with_id</text>
</a>
</g>
</g>
<!-- Node11&#45;&gt;Node12 -->
<g id="edge4" class="edge"><title>Node11&#45;&gt;Node12</title>
<path fill="none" stroke="midnightblue" d="M310.03,-118.632C318.405,-117.352 327.126,-116.02 335.7,-114.71"/>
<polygon fill="midnightblue" stroke="midnightblue" points="336.311,-118.157 345.667,-113.187 335.253,-111.238 336.311,-118.157"/>
</g>
<!-- Node13 -->
<g id="node6" class="node"><title>Node13</title>
<g id="a_node6"><a xlink:href="namespacemom__error__handler.html#a33bcd190d460095104954f2e654f9fe6" target="_top" xlink:title="Issues a FATAL error if the assertion fails, i.e. the first argument is false. ">
<polygon fill="white" stroke="black" points="494,-108.886 494,-138.886 600,-138.886 600,-108.886 494,-108.886"/>
<text text-anchor="start" x="502" y="-126.886" font-family="Helvetica,sans-Serif" font-size="10.00">mom_error_handler::</text>
<text text-anchor="middle" x="547" y="-115.886" font-family="Helvetica,sans-Serif" font-size="10.00">assert</text>
</a>
</g>
</g>
<!-- Node11&#45;&gt;Node13 -->
<g id="edge5" class="edge"><title>Node11&#45;&gt;Node13</title>
<path fill="none" stroke="midnightblue" d="M310.337,-128.537C350.566,-129.489 406.711,-130.254 456,-128.886 464.865,-128.64 474.216,-128.258 483.403,-127.812"/>
<polygon fill="midnightblue" stroke="midnightblue" points="483.863,-131.293 493.671,-127.286 483.505,-124.303 483.863,-131.293"/>
</g>
<!-- Node14 -->
<g id="node7" class="node"><title>Node14</title>
<g id="a_node7"><a xlink:href="namespacemom__diag__mediator.html#a3f7442639213320f7429e2288a79fda2" target="_top" xlink:title="Returns a new diagnostic id, it may be necessary to expand the diagnostics array. ...">
<polygon fill="white" stroke="black" points="346,-40.8864 346,-70.8864 456,-70.8864 456,-40.8864 346,-40.8864"/>
<text text-anchor="start" x="354" y="-58.8864" font-family="Helvetica,sans-Serif" font-size="10.00">mom_diag_mediator::</text>
<text text-anchor="middle" x="401" y="-47.8864" font-family="Helvetica,sans-Serif" font-size="10.00">get_new_diag_id</text>
</a>
</g>
</g>
<!-- Node11&#45;&gt;Node14 -->
<g id="edge7" class="edge"><title>Node11&#45;&gt;Node14</title>
<path fill="none" stroke="midnightblue" d="M283.743,-111.821C301.42,-102.366 324.887,-90.0785 346,-79.8864 349.289,-78.2989 352.706,-76.6889 356.154,-75.0933"/>
<polygon fill="midnightblue" stroke="midnightblue" points="357.637,-78.2639 365.282,-70.9288 354.732,-71.8953 357.637,-78.2639"/>
</g>
<!-- Node16 -->
<g id="node9" class="node"><title>Node16</title>
<g id="a_node9"><a xlink:href="namespacemom__diag__mediator.html#a65fe8d329cf5dbfd08c98874a7a64407" target="_top" xlink:title="Log a diagnostic to the available diagnostics file. ">
<polygon fill="white" stroke="black" points="346,-177.886 346,-207.886 456,-207.886 456,-177.886 346,-177.886"/>
<text text-anchor="start" x="354" y="-195.886" font-family="Helvetica,sans-Serif" font-size="10.00">mom_diag_mediator::</text>
<text text-anchor="middle" x="401" y="-184.886" font-family="Helvetica,sans-Serif" font-size="10.00">log_available_diag</text>
</a>
</g>
</g>
<!-- Node11&#45;&gt;Node16 -->
<g id="edge11" class="edge"><title>Node11&#45;&gt;Node16</title>
<path fill="none" stroke="midnightblue" d="M289.037,-142.028C309.525,-151.419 336.038,-163.57 358.01,-173.641"/>
<polygon fill="midnightblue" stroke="midnightblue" points="356.568,-176.83 367.117,-177.815 359.485,-170.467 356.568,-176.83"/>
</g>
<!-- Node13&#45;&gt;Node9 -->
<g id="edge6" class="edge"><title>Node13&#45;&gt;Node9</title>
<path fill="none" stroke="midnightblue" d="M600.069,-123.886C609.041,-123.886 618.447,-123.886 627.657,-123.886"/>
<polygon fill="midnightblue" stroke="midnightblue" points="627.937,-127.386 637.937,-123.886 627.937,-120.386 627.937,-127.386"/>
</g>
<!-- Node14&#45;&gt;Node13 -->
<g id="edge8" class="edge"><title>Node14&#45;&gt;Node13</title>
<path fill="none" stroke="midnightblue" d="M436.365,-70.9344C442.904,-73.8614 449.678,-76.9372 456,-79.8864 472.577,-87.6192 490.724,-96.4246 506.352,-104.116"/>
<polygon fill="midnightblue" stroke="midnightblue" points="505.205,-107.453 515.721,-108.742 508.304,-101.176 505.205,-107.453"/>
</g>
<!-- Node15 -->
<g id="node8" class="node"><title>Node15</title>
<g id="a_node8"><a xlink:href="namespacemom__diag__mediator.html#a883862f004e30bbc5211f38635511ba0" target="_top" xlink:title="Initializes a diag_type (used after allocating new memory) ">
<polygon fill="white" stroke="black" points="492,-40.8864 492,-70.8864 602,-70.8864 602,-40.8864 492,-40.8864"/>
<text text-anchor="start" x="500" y="-58.8864" font-family="Helvetica,sans-Serif" font-size="10.00">mom_diag_mediator::</text>
<text text-anchor="middle" x="547" y="-47.8864" font-family="Helvetica,sans-Serif" font-size="10.00">initialize_diag_type</text>
</a>
</g>
</g>
<!-- Node14&#45;&gt;Node15 -->
<g id="edge9" class="edge"><title>Node14&#45;&gt;Node15</title>
<path fill="none" stroke="midnightblue" d="M456.03,-55.8864C464.314,-55.8864 472.936,-55.8864 481.42,-55.8864"/>
<polygon fill="midnightblue" stroke="midnightblue" points="481.667,-59.3865 491.667,-55.8864 481.667,-52.3865 481.667,-59.3865"/>
</g>
<!-- Node17 -->
<g id="node10" class="node"><title>Node17</title>
<g id="a_node10"><a xlink:href="namespacemom__diag__mediator.html#ae002ca447acba252bf7bdc042e75a01e" target="_top" xlink:title="mom_diag_mediator::\ldescribe_option">
<polygon fill="white" stroke="black" points="492,-177.886 492,-207.886 602,-207.886 602,-177.886 492,-177.886"/>
<text text-anchor="start" x="500" y="-195.886" font-family="Helvetica,sans-Serif" font-size="10.00">mom_diag_mediator::</text>
<text text-anchor="middle" x="547" y="-184.886" font-family="Helvetica,sans-Serif" font-size="10.00">describe_option</text>
</a>
</g>
</g>
<!-- Node16&#45;&gt;Node17 -->
<g id="edge12" class="edge"><title>Node16&#45;&gt;Node17</title>
<path fill="none" stroke="midnightblue" d="M456.03,-192.886C464.314,-192.886 472.936,-192.886 481.42,-192.886"/>
<polygon fill="midnightblue" stroke="midnightblue" points="481.667,-196.386 491.667,-192.886 481.667,-189.386 481.667,-196.386"/>
</g>
</g>
</svg>
