<?xml version="1.0" encoding="UTF-8" standalone="no"?>
<!DOCTYPE svg PUBLIC "-//W3C//DTD SVG 1.1//EN"
 "http://www.w3.org/Graphics/SVG/1.1/DTD/svg11.dtd">
<!-- Generated by graphviz version 2.38.0 (20140413.2041)
 -->
<!-- Title: mom_document::define_string Pages: 1 -->
<svg width="327pt" height="302pt"
 viewBox="0.00 0.00 327.00 301.50" xmlns="http://www.w3.org/2000/svg" xmlns:xlink="http://www.w3.org/1999/xlink">
<g id="graph0" class="graph" transform="scale(1 1) rotate(0) translate(4 297.5)">
<title>mom_document::define_string</title>
<polygon fill="white" stroke="none" points="-4,4 -4,-297.5 323,-297.5 323,4 -4,4"/>
<!-- Node1 -->
<g id="node1" class="node"><title>Node1</title>
<polygon fill="#bfbfbf" stroke="black" points="0,-137.5 0,-167.5 119,-167.5 119,-137.5 0,-137.5"/>
<text text-anchor="start" x="8" y="-155.5" font-family="Helvetica,sans-Serif" font-size="10.00">mom_document::define</text>
<text text-anchor="middle" x="59.5" y="-144.5" font-family="Helvetica,sans-Serif" font-size="10.00">_string</text>
</g>
<!-- Node2 -->
<g id="node2" class="node"><title>Node2</title>
<g id="a_node2"><a xlink:href="namespacemom__document.html#aeef6510f5e76c23d9a9a9c587f62d4d9" target="_top" xlink:title="mom_document::doc_param_char">
<polygon fill="white" stroke="black" points="155,-274 155,-293 319,-293 319,-274 155,-274"/>
<text text-anchor="middle" x="237" y="-281" font-family="Helvetica,sans-Serif" font-size="10.00">mom_document::doc_param_char</text>
</a>
</g>
</g>
<!-- Node1&#45;&gt;Node2 -->
<g id="edge1" class="edge"><title>Node1&#45;&gt;Node2</title>
<path fill="none" stroke="midnightblue" d="M74.3372,-176.685C90.3852,-202.484 119.267,-242.584 155,-264.5 161.279,-268.351 168.272,-271.422 175.444,-273.871"/>
<polygon fill="midnightblue" stroke="midnightblue" points="77.1865,-174.633 69.0165,-167.888 71.1968,-178.256 77.1865,-174.633"/>
</g>
<!-- Node3 -->
<g id="node3" class="node"><title>Node3</title>
<g id="a_node3"><a xlink:href="namespacemom__document.html#a14995c64ee277f19aa10b957431aa4c1" target="_top" xlink:title="mom_document::doc_param_int">
<polygon fill="white" stroke="black" points="159,-236 159,-255 315,-255 315,-236 159,-236"/>
<text text-anchor="middle" x="237" y="-243" font-family="Helvetica,sans-Serif" font-size="10.00">mom_document::doc_param_int</text>
</a>
</g>
</g>
<!-- Node1&#45;&gt;Node3 -->
<g id="edge2" class="edge"><title>Node1&#45;&gt;Node3</title>
<path fill="none" stroke="midnightblue" d="M83.0949,-174.862C101.126,-191.479 127.792,-213.445 155,-226.5 163.074,-230.374 171.988,-233.486 180.862,-235.978"/>
<polygon fill="midnightblue" stroke="midnightblue" points="85.1252,-171.966 75.4473,-167.655 80.3242,-177.06 85.1252,-171.966"/>
</g>
<!-- Node4 -->
<g id="node4" class="node"><title>Node4</title>
<g id="a_node4"><a xlink:href="namespacemom__document.html#a3ce71018037d66ba8f51d860bedbdcbb" target="_top" xlink:title="mom_document::doc_param\l_int_array">
<polygon fill="white" stroke="black" points="167,-186.5 167,-216.5 307,-216.5 307,-186.5 167,-186.5"/>
<text text-anchor="start" x="175" y="-204.5" font-family="Helvetica,sans-Serif" font-size="10.00">mom_document::doc_param</text>
<text text-anchor="middle" x="237" y="-193.5" font-family="Helvetica,sans-Serif" font-size="10.00">_int_array</text>
</a>
</g>
</g>
<!-- Node1&#45;&gt;Node4 -->
<g id="edge3" class="edge"><title>Node1&#45;&gt;Node4</title>
<path fill="none" stroke="midnightblue" d="M124.329,-170.321C143.278,-175.612 163.838,-181.352 182.091,-186.448"/>
<polygon fill="midnightblue" stroke="midnightblue" points="125.161,-166.92 114.588,-167.601 123.278,-173.662 125.161,-166.92"/>
</g>
<!-- Node5 -->
<g id="node5" class="node"><title>Node5</title>
<g id="a_node5"><a xlink:href="namespacemom__document.html#ae29b615a7c566d9da64ade24864805b2" target="_top" xlink:title="mom_document::doc_param\l_logical">
<polygon fill="white" stroke="black" points="167,-137.5 167,-167.5 307,-167.5 307,-137.5 167,-137.5"/>
<text text-anchor="start" x="175" y="-155.5" font-family="Helvetica,sans-Serif" font-size="10.00">mom_document::doc_param</text>
<text text-anchor="middle" x="237" y="-144.5" font-family="Helvetica,sans-Serif" font-size="10.00">_logical</text>
</a>
</g>
</g>
<!-- Node1&#45;&gt;Node5 -->
<g id="edge4" class="edge"><title>Node1&#45;&gt;Node5</title>
<path fill="none" stroke="midnightblue" d="M129.59,-152.5C141.859,-152.5 154.638,-152.5 166.906,-152.5"/>
<polygon fill="midnightblue" stroke="midnightblue" points="129.427,-149 119.427,-152.5 129.427,-156 129.427,-149"/>
</g>
<!-- Node6 -->
<g id="node6" class="node"><title>Node6</title>
<g id="a_node6"><a xlink:href="namespacemom__document.html#a9792937a5eb8f9a2a58c7b816520470d" target="_top" xlink:title="mom_document::doc_param\l_logical_array">
<polygon fill="white" stroke="black" points="167,-88.5 167,-118.5 307,-118.5 307,-88.5 167,-88.5"/>
<text text-anchor="start" x="175" y="-106.5" font-family="Helvetica,sans-Serif" font-size="10.00">mom_document::doc_param</text>
<text text-anchor="middle" x="237" y="-95.5" font-family="Helvetica,sans-Serif" font-size="10.00">_logical_array</text>
</a>
</g>
</g>
<!-- Node1&#45;&gt;Node6 -->
<g id="edge5" class="edge"><title>Node1&#45;&gt;Node6</title>
<path fill="none" stroke="midnightblue" d="M124.329,-134.679C143.278,-129.388 163.838,-123.648 182.091,-118.552"/>
<polygon fill="midnightblue" stroke="midnightblue" points="123.278,-131.338 114.588,-137.399 125.161,-138.08 123.278,-131.338"/>
</g>
<!-- Node7 -->
<g id="node7" class="node"><title>Node7</title>
<g id="a_node7"><a xlink:href="namespacemom__document.html#aae79ba23b83e7e2be3dcc46f50ee0f69" target="_top" xlink:title="mom_document::doc_param_real">
<polygon fill="white" stroke="black" points="156.5,-50 156.5,-69 317.5,-69 317.5,-50 156.5,-50"/>
<text text-anchor="middle" x="237" y="-57" font-family="Helvetica,sans-Serif" font-size="10.00">mom_document::doc_param_real</text>
</a>
</g>
</g>
<!-- Node1&#45;&gt;Node7 -->
<g id="edge6" class="edge"><title>Node1&#45;&gt;Node7</title>
<path fill="none" stroke="midnightblue" d="M83.5181,-130.247C101.595,-113.943 128.126,-92.4783 155,-79.5 163.87,-75.2166 173.742,-71.7976 183.459,-69.086"/>
<polygon fill="midnightblue" stroke="midnightblue" points="80.8186,-127.975 75.8366,-137.326 85.5622,-133.123 80.8186,-127.975"/>
</g>
<!-- Node8 -->
<g id="node8" class="node"><title>Node8</title>
<g id="a_node8"><a xlink:href="namespacemom__document.html#a09ce71cb5106c9abb604c07b98e62863" target="_top" xlink:title="mom_document::doc_param\l_real_array">
<polygon fill="white" stroke="black" points="167,-0.5 167,-30.5 307,-30.5 307,-0.5 167,-0.5"/>
<text text-anchor="start" x="175" y="-18.5" font-family="Helvetica,sans-Serif" font-size="10.00">mom_document::doc_param</text>
<text text-anchor="middle" x="237" y="-7.5" font-family="Helvetica,sans-Serif" font-size="10.00">_real_array</text>
</a>
</g>
</g>
<!-- Node1&#45;&gt;Node8 -->
<g id="edge7" class="edge"><title>Node1&#45;&gt;Node8</title>
<path fill="none" stroke="midnightblue" d="M74.6332,-128.779C90.9388,-103.385 120.044,-63.6351 155,-40.5 160.768,-36.6824 167.149,-33.4239 173.722,-30.6479"/>
<polygon fill="midnightblue" stroke="midnightblue" points="71.5583,-127.095 69.2178,-137.428 77.4912,-130.81 71.5583,-127.095"/>
</g>
</g>
</svg>
