<?xml version="1.0" encoding="UTF-8" standalone="no"?>
<!DOCTYPE svg PUBLIC "-//W3C//DTD SVG 1.1//EN"
 "http://www.w3.org/Graphics/SVG/1.1/DTD/svg11.dtd">
<!-- Generated by graphviz version 2.38.0 (20140413.2041)
 -->
<!-- Title: mom_state_initialization::mom_temp_salt_initialize_from_z Pages: 1 -->
<svg width="578pt" height="39pt"
 viewBox="0.00 0.00 578.00 39.00" xmlns="http://www.w3.org/2000/svg" xmlns:xlink="http://www.w3.org/1999/xlink">
<g id="graph0" class="graph" transform="scale(1 1) rotate(0) translate(4 35)">
<title>mom_state_initialization::mom_temp_salt_initialize_from_z</title>
<polygon fill="white" stroke="none" points="-4,4 -4,-35 574,-35 574,4 -4,4"/>
<!-- Node309 -->
<g id="node1" class="node"><title>Node309</title>
<polygon fill="#bfbfbf" stroke="black" points="0,-0.5 0,-30.5 168,-30.5 168,-0.5 0,-0.5"/>
<text text-anchor="start" x="8" y="-18.5" font-family="Helvetica,sans-Serif" font-size="10.00">mom_state_initialization</text>
<text text-anchor="middle" x="84" y="-7.5" font-family="Helvetica,sans-Serif" font-size="10.00">::mom_temp_salt_initialize_from_z</text>
</g>
<!-- Node310 -->
<g id="node2" class="node"><title>Node310</title>
<g id="a_node2"><a xlink:href="namespacemom__state__initialization.html#af4e854627c6572332ba3fd895f169321" target="_top" xlink:title="mom_state_initialization\l::mom_initialize_state">
<polygon fill="white" stroke="black" points="204,-0.5 204,-30.5 326,-30.5 326,-0.5 204,-0.5"/>
<text text-anchor="start" x="212" y="-18.5" font-family="Helvetica,sans-Serif" font-size="10.00">mom_state_initialization</text>
<text text-anchor="middle" x="265" y="-7.5" font-family="Helvetica,sans-Serif" font-size="10.00">::mom_initialize_state</text>
</a>
</g>
</g>
<!-- Node309&#45;&gt;Node310 -->
<g id="edge1" class="edge"><title>Node309&#45;&gt;Node310</title>
<path fill="none" stroke="midnightblue" d="M178.397,-15.5C187.07,-15.5 195.695,-15.5 203.944,-15.5"/>
<polygon fill="midnightblue" stroke="midnightblue" points="178.212,-12.0001 168.212,-15.5 178.212,-19.0001 178.212,-12.0001"/>
</g>
<!-- Node311 -->
<g id="node3" class="node"><title>Node311</title>
<g id="a_node3"><a xlink:href="namespacemom.html#a0be2869fef30e1e0604facfe1b41555d" target="_top" xlink:title="This subroutine initializes MOM. ">
<polygon fill="white" stroke="black" points="362,-6 362,-25 469,-25 469,-6 362,-6"/>
<text text-anchor="middle" x="415.5" y="-13" font-family="Helvetica,sans-Serif" font-size="10.00">mom::initialize_mom</text>
</a>
</g>
</g>
<!-- Node310&#45;&gt;Node311 -->
<g id="edge2" class="edge"><title>Node310&#45;&gt;Node311</title>
<path fill="none" stroke="midnightblue" d="M336.657,-15.5C345.116,-15.5 353.636,-15.5 361.779,-15.5"/>
<polygon fill="midnightblue" stroke="midnightblue" points="336.401,-12.0001 326.401,-15.5 336.401,-19.0001 336.401,-12.0001"/>
</g>
<!-- Node312 -->
<g id="node4" class="node"><title>Node312</title>
<g id="a_node4"><a xlink:href="MOM__driver_8F90.html#a08fffeb2d8e8acbf9ed4609be6d258c6" target="_top" xlink:title="mom_main">
<polygon fill="white" stroke="black" points="505,-6 505,-25 570,-25 570,-6 505,-6"/>
<text text-anchor="middle" x="537.5" y="-13" font-family="Helvetica,sans-Serif" font-size="10.00">mom_main</text>
</a>
</g>
</g>
<!-- Node311&#45;&gt;Node312 -->
<g id="edge3" class="edge"><title>Node311&#45;&gt;Node312</title>
<path fill="none" stroke="midnightblue" d="M479.206,-15.5C488.134,-15.5 496.983,-15.5 504.958,-15.5"/>
<polygon fill="midnightblue" stroke="midnightblue" points="479.134,-12.0001 469.134,-15.5 479.134,-19.0001 479.134,-12.0001"/>
</g>
</g>
</svg>
