<?xml version="1.0" encoding="UTF-8" standalone="no"?>
<!DOCTYPE svg PUBLIC "-//W3C//DTD SVG 1.1//EN"
 "http://www.w3.org/Graphics/SVG/1.1/DTD/svg11.dtd">
<!-- Generated by graphviz version 2.38.0 (20140413.2041)
 -->
<!-- Title: polynomial_functions::evaluation_polynomial Pages: 1 -->
<svg width="1517pt" height="281pt"
 viewBox="0.00 0.00 1517.00 281.00" xmlns="http://www.w3.org/2000/svg" xmlns:xlink="http://www.w3.org/1999/xlink">
<g id="graph0" class="graph" transform="scale(1 1) rotate(0) translate(4 277)">
<title>polynomial_functions::evaluation_polynomial</title>
<polygon fill="white" stroke="none" points="-4,4 -4,-277 1513,-277 1513,4 -4,4"/>
<!-- Node1 -->
<g id="node1" class="node"><title>Node1</title>
<polygon fill="#bfbfbf" stroke="black" points="0,-144.5 0,-174.5 119,-174.5 119,-144.5 0,-144.5"/>
<text text-anchor="start" x="8" y="-162.5" font-family="Helvetica,sans-Serif" font-size="10.00">polynomial_functions</text>
<text text-anchor="middle" x="59.5" y="-151.5" font-family="Helvetica,sans-Serif" font-size="10.00">::evaluation_polynomial</text>
</g>
<!-- Node2 -->
<g id="node2" class="node"><title>Node2</title>
<g id="a_node2"><a xlink:href="namespaceregrid__edge__slopes.html#a378dcb603968664e58d65e8ed892ec69" target="_top" xlink:title="regrid_edge_slopes\l::edge_slopes_implicit_h3">
<polygon fill="white" stroke="black" points="155,-193.5 155,-223.5 284,-223.5 284,-193.5 155,-193.5"/>
<text text-anchor="start" x="163" y="-211.5" font-family="Helvetica,sans-Serif" font-size="10.00">regrid_edge_slopes</text>
<text text-anchor="middle" x="219.5" y="-200.5" font-family="Helvetica,sans-Serif" font-size="10.00">::edge_slopes_implicit_h3</text>
</a>
</g>
</g>
<!-- Node1&#45;&gt;Node2 -->
<g id="edge1" class="edge"><title>Node1&#45;&gt;Node2</title>
<path fill="none" stroke="midnightblue" d="M118.905,-177.613C135.702,-182.822 153.835,-188.446 169.966,-193.448"/>
<polygon fill="midnightblue" stroke="midnightblue" points="119.782,-174.221 109.194,-174.601 117.709,-180.907 119.782,-174.221"/>
</g>
<!-- Node28 -->
<g id="node28" class="node"><title>Node28</title>
<g id="a_node28"><a xlink:href="namespaceregrid__edge__slopes.html#a32fc906bf14cfb859703b4a1a7c46a9c" target="_top" xlink:title="regrid_edge_slopes\l::edge_slopes_implicit_h5">
<polygon fill="white" stroke="black" points="155,-95.5 155,-125.5 284,-125.5 284,-95.5 155,-95.5"/>
<text text-anchor="start" x="163" y="-113.5" font-family="Helvetica,sans-Serif" font-size="10.00">regrid_edge_slopes</text>
<text text-anchor="middle" x="219.5" y="-102.5" font-family="Helvetica,sans-Serif" font-size="10.00">::edge_slopes_implicit_h5</text>
</a>
</g>
</g>
<!-- Node1&#45;&gt;Node28 -->
<g id="edge31" class="edge"><title>Node1&#45;&gt;Node28</title>
<path fill="none" stroke="midnightblue" d="M118.905,-141.387C135.702,-136.178 153.835,-130.554 169.966,-125.552"/>
<polygon fill="midnightblue" stroke="midnightblue" points="117.709,-138.093 109.194,-144.399 119.782,-144.779 117.709,-138.093"/>
</g>
<!-- Node29 -->
<g id="node29" class="node"><title>Node29</title>
<g id="a_node29"><a xlink:href="namespaceregrid__edge__values.html#ae035eeac02b037af753339993eeb2a00" target="_top" xlink:title="regrid_edge_values\l::edge_values_explicit_h4">
<polygon fill="white" stroke="black" points="155,-144.5 155,-174.5 284,-174.5 284,-144.5 155,-144.5"/>
<text text-anchor="start" x="163" y="-162.5" font-family="Helvetica,sans-Serif" font-size="10.00">regrid_edge_values</text>
<text text-anchor="middle" x="219.5" y="-151.5" font-family="Helvetica,sans-Serif" font-size="10.00">::edge_values_explicit_h4</text>
</a>
</g>
</g>
<!-- Node1&#45;&gt;Node29 -->
<g id="edge34" class="edge"><title>Node1&#45;&gt;Node29</title>
<path fill="none" stroke="midnightblue" d="M129.506,-159.5C137.929,-159.5 146.507,-159.5 154.847,-159.5"/>
<polygon fill="midnightblue" stroke="midnightblue" points="129.333,-156 119.333,-159.5 129.333,-163 129.333,-156"/>
</g>
<!-- Node30 -->
<g id="node30" class="node"><title>Node30</title>
<g id="a_node30"><a xlink:href="namespaceregrid__edge__values.html#a2c2460b31b6de501eed3cb7db07a4be5" target="_top" xlink:title="regrid_edge_values\l::edge_values_implicit_h4">
<polygon fill="white" stroke="black" points="155,-46.5 155,-76.5 284,-76.5 284,-46.5 155,-46.5"/>
<text text-anchor="start" x="163" y="-64.5" font-family="Helvetica,sans-Serif" font-size="10.00">regrid_edge_values</text>
<text text-anchor="middle" x="219.5" y="-53.5" font-family="Helvetica,sans-Serif" font-size="10.00">::edge_values_implicit_h4</text>
</a>
</g>
</g>
<!-- Node1&#45;&gt;Node30 -->
<g id="edge35" class="edge"><title>Node1&#45;&gt;Node30</title>
<path fill="none" stroke="midnightblue" d="M84.2726,-137.549C102.56,-121.523 129.02,-100.129 155,-85.5 160.751,-82.2617 167.024,-79.2918 173.316,-76.6277"/>
<polygon fill="midnightblue" stroke="midnightblue" points="81.6173,-135.227 76.4765,-144.491 86.2724,-140.455 81.6173,-135.227"/>
</g>
<!-- Node32 -->
<g id="node32" class="node"><title>Node32</title>
<g id="a_node32"><a xlink:href="namespaceregrid__edge__values.html#a6c14843c556353d86f2efb4c7c74c9f5" target="_top" xlink:title="regrid_edge_values\l::edge_values_implicit_h6">
<polygon fill="white" stroke="black" points="155,-242.5 155,-272.5 284,-272.5 284,-242.5 155,-242.5"/>
<text text-anchor="start" x="163" y="-260.5" font-family="Helvetica,sans-Serif" font-size="10.00">regrid_edge_values</text>
<text text-anchor="middle" x="219.5" y="-249.5" font-family="Helvetica,sans-Serif" font-size="10.00">::edge_values_implicit_h6</text>
</a>
</g>
</g>
<!-- Node1&#45;&gt;Node32 -->
<g id="edge39" class="edge"><title>Node1&#45;&gt;Node32</title>
<path fill="none" stroke="midnightblue" d="M84.2726,-181.451C102.56,-197.477 129.02,-218.871 155,-233.5 160.751,-236.738 167.024,-239.708 173.316,-242.372"/>
<polygon fill="midnightblue" stroke="midnightblue" points="86.2724,-178.545 76.4765,-174.509 81.6173,-183.773 86.2724,-178.545"/>
</g>
<!-- Node3 -->
<g id="node3" class="node"><title>Node3</title>
<g id="a_node3"><a xlink:href="namespacemom__remapping.html#a07d7276310f329f56560a1290bcb8b0a" target="_top" xlink:title="Creates polynomial reconstructions of u0 on the source grid h0. ">
<polygon fill="white" stroke="black" points="344.5,-96.5 344.5,-126.5 459.5,-126.5 459.5,-96.5 344.5,-96.5"/>
<text text-anchor="start" x="352.5" y="-114.5" font-family="Helvetica,sans-Serif" font-size="10.00">mom_remapping::build</text>
<text text-anchor="middle" x="402" y="-103.5" font-family="Helvetica,sans-Serif" font-size="10.00">_reconstructions_1d</text>
</a>
</g>
</g>
<!-- Node2&#45;&gt;Node3 -->
<g id="edge2" class="edge"><title>Node2&#45;&gt;Node3</title>
<path fill="none" stroke="midnightblue" d="M273.051,-189.574C276.793,-187.941 280.476,-186.244 284,-184.5 318.976,-167.189 356.845,-142.327 379.744,-126.549"/>
<polygon fill="midnightblue" stroke="midnightblue" points="271.562,-186.402 263.687,-193.489 274.263,-192.86 271.562,-186.402"/>
</g>
<!-- Node23 -->
<g id="node23" class="node"><title>Node23</title>
<g id="a_node23"><a xlink:href="namespaceregrid__interp.html#a1dfc0e2c1924dddd25b9102ec2ecf06e" target="_top" xlink:title="Given the set of target values and cell densities, this routine builds an interpolated profile for th...">
<polygon fill="white" stroke="black" points="343,-192.5 343,-222.5 461,-222.5 461,-192.5 343,-192.5"/>
<text text-anchor="start" x="351" y="-210.5" font-family="Helvetica,sans-Serif" font-size="10.00">regrid_interp::regridding</text>
<text text-anchor="middle" x="402" y="-199.5" font-family="Helvetica,sans-Serif" font-size="10.00">_set_ppolys</text>
</a>
</g>
</g>
<!-- Node2&#45;&gt;Node23 -->
<g id="edge25" class="edge"><title>Node2&#45;&gt;Node23</title>
<path fill="none" stroke="midnightblue" d="M294.57,-208.09C310.635,-208.001 327.407,-207.908 342.759,-207.823"/>
<polygon fill="midnightblue" stroke="midnightblue" points="294.118,-204.592 284.138,-208.147 294.157,-211.592 294.118,-204.592"/>
</g>
<!-- Node4 -->
<g id="node4" class="node"><title>Node4</title>
<g id="a_node4"><a xlink:href="namespacemom__remapping.html#a9ed32f0c2764a3ead9311670315dc26c" target="_top" xlink:title="Remaps column of values u0 on grid h0 to grid h1 assuming the top edge is aligned. ">
<polygon fill="white" stroke="black" points="520,-98.5 520,-128.5 660,-128.5 660,-98.5 520,-98.5"/>
<text text-anchor="start" x="528" y="-116.5" font-family="Helvetica,sans-Serif" font-size="10.00">mom_remapping::remapping</text>
<text text-anchor="middle" x="590" y="-105.5" font-family="Helvetica,sans-Serif" font-size="10.00">_core_h</text>
</a>
</g>
</g>
<!-- Node3&#45;&gt;Node4 -->
<g id="edge3" class="edge"><title>Node3&#45;&gt;Node4</title>
<path fill="none" stroke="midnightblue" d="M469.567,-112.216C485.912,-112.392 503.446,-112.58 519.907,-112.757"/>
<polygon fill="midnightblue" stroke="midnightblue" points="469.601,-108.716 459.564,-112.108 469.525,-115.716 469.601,-108.716"/>
</g>
<!-- Node20 -->
<g id="node20" class="node"><title>Node20</title>
<g id="a_node20"><a xlink:href="namespacemom__remapping.html#a8b967872b8db2ac7d538991f7f255e56" target="_top" xlink:title="Remaps column of values u0 on grid h0 to implied grid h1 where the interfaces of h1 differ from those...">
<polygon fill="white" stroke="black" points="520,-25.5 520,-55.5 660,-55.5 660,-25.5 520,-25.5"/>
<text text-anchor="start" x="528" y="-43.5" font-family="Helvetica,sans-Serif" font-size="10.00">mom_remapping::remapping</text>
<text text-anchor="middle" x="590" y="-32.5" font-family="Helvetica,sans-Serif" font-size="10.00">_core_w</text>
</a>
</g>
</g>
<!-- Node3&#45;&gt;Node20 -->
<g id="edge21" class="edge"><title>Node3&#45;&gt;Node20</title>
<path fill="none" stroke="midnightblue" d="M452.027,-92.7853C482.495,-81.1551 521.142,-66.4027 549.611,-55.5356"/>
<polygon fill="midnightblue" stroke="midnightblue" points="450.54,-89.6066 442.446,-96.4427 453.037,-96.1463 450.54,-89.6066"/>
</g>
<!-- Node5 -->
<g id="node5" class="node"><title>Node5</title>
<g id="a_node5"><a xlink:href="namespacecoord__rho.html#a6f5a56ba973e5e36820222a709614e40" target="_top" xlink:title="coord_rho::build_rho\l_column">
<polygon fill="white" stroke="black" points="714,-191.5 714,-221.5 818,-221.5 818,-191.5 714,-191.5"/>
<text text-anchor="start" x="722" y="-209.5" font-family="Helvetica,sans-Serif" font-size="10.00">coord_rho::build_rho</text>
<text text-anchor="middle" x="766" y="-198.5" font-family="Helvetica,sans-Serif" font-size="10.00">_column</text>
</a>
</g>
</g>
<!-- Node4&#45;&gt;Node5 -->
<g id="edge4" class="edge"><title>Node4&#45;&gt;Node5</title>
<path fill="none" stroke="midnightblue" d="M626.498,-133.515C646.763,-144.839 672.699,-159.16 696,-171.5 708.582,-178.164 722.575,-185.31 734.653,-191.396"/>
<polygon fill="midnightblue" stroke="midnightblue" points="628.051,-130.374 617.616,-128.541 624.631,-136.481 628.051,-130.374"/>
</g>
<!-- Node7 -->
<g id="node7" class="node"><title>Node7</title>
<g id="a_node7"><a xlink:href="namespacemom__state__initialization.html#a71ee3c056ca59c1c3529a4ec22e09fe3" target="_top" xlink:title="Adjust the layer thicknesses by cutting away the top at the depth where the hydrostatic pressure matc...">
<polygon fill="white" stroke="black" points="705,-49.5 705,-79.5 827,-79.5 827,-49.5 705,-49.5"/>
<text text-anchor="start" x="713" y="-67.5" font-family="Helvetica,sans-Serif" font-size="10.00">mom_state_initialization</text>
<text text-anchor="middle" x="766" y="-56.5" font-family="Helvetica,sans-Serif" font-size="10.00">::cut_off_column_top</text>
</a>
</g>
</g>
<!-- Node4&#45;&gt;Node7 -->
<g id="edge6" class="edge"><title>Node4&#45;&gt;Node7</title>
<path fill="none" stroke="midnightblue" d="M654.284,-95.6788C673.07,-90.3882 693.455,-84.6478 711.552,-79.5516"/>
<polygon fill="midnightblue" stroke="midnightblue" points="653.302,-92.3189 644.626,-98.3986 655.2,-99.0568 653.302,-92.3189"/>
</g>
<!-- Node13 -->
<g id="node13" class="node"><title>Node13</title>
<g id="a_node13"><a xlink:href="namespacemom__diag__remap.html#a4b76283906971bcb94e85c0ed25f4e7b" target="_top" xlink:title="Remap diagnostic field to alternative vertical grid. ">
<polygon fill="white" stroke="black" points="707,-98.5 707,-128.5 825,-128.5 825,-98.5 707,-98.5"/>
<text text-anchor="start" x="715" y="-116.5" font-family="Helvetica,sans-Serif" font-size="10.00">mom_diag_remap::diag</text>
<text text-anchor="middle" x="766" y="-105.5" font-family="Helvetica,sans-Serif" font-size="10.00">_remap_do_remap</text>
</a>
</g>
</g>
<!-- Node4&#45;&gt;Node13 -->
<g id="edge12" class="edge"><title>Node4&#45;&gt;Node13</title>
<path fill="none" stroke="midnightblue" d="M670.324,-113.5C682.676,-113.5 695.236,-113.5 706.998,-113.5"/>
<polygon fill="midnightblue" stroke="midnightblue" points="670.019,-110 660.019,-113.5 670.019,-117 670.019,-110"/>
</g>
<!-- Node14 -->
<g id="node14" class="node"><title>Node14</title>
<g id="a_node14"><a xlink:href="namespacemom__wave__speed.html#a72302e356c47c5055ba0b1a8714c772a" target="_top" xlink:title="Calculates the wave speed of the first baroclinic mode. ">
<polygon fill="white" stroke="black" points="872,-142.5 872,-172.5 1000,-172.5 1000,-142.5 872,-142.5"/>
<text text-anchor="start" x="880" y="-160.5" font-family="Helvetica,sans-Serif" font-size="10.00">mom_wave_speed::wave</text>
<text text-anchor="middle" x="936" y="-149.5" font-family="Helvetica,sans-Serif" font-size="10.00">_speed</text>
</a>
</g>
</g>
<!-- Node4&#45;&gt;Node14 -->
<g id="edge13" class="edge"><title>Node4&#45;&gt;Node14</title>
<path fill="none" stroke="midnightblue" d="M656.823,-130.813C669.741,-133.745 683.241,-136.486 696,-138.5 755.206,-147.844 823.426,-152.688 871.787,-155.138"/>
<polygon fill="midnightblue" stroke="midnightblue" points="657.614,-127.403 647.081,-128.543 656.026,-134.221 657.614,-127.403"/>
</g>
<!-- Node6 -->
<g id="node6" class="node"><title>Node6</title>
<g id="a_node6"><a xlink:href="namespacemom__diag__remap.html#a1fb71d2982777f33bcbf183187e1819b" target="_top" xlink:title="Build/update target vertical grids for diagnostic remapping. ">
<polygon fill="white" stroke="black" points="877,-191.5 877,-221.5 995,-221.5 995,-191.5 877,-191.5"/>
<text text-anchor="start" x="885" y="-209.5" font-family="Helvetica,sans-Serif" font-size="10.00">mom_diag_remap::diag</text>
<text text-anchor="middle" x="936" y="-198.5" font-family="Helvetica,sans-Serif" font-size="10.00">_remap_update</text>
</a>
</g>
</g>
<!-- Node5&#45;&gt;Node6 -->
<g id="edge5" class="edge"><title>Node5&#45;&gt;Node6</title>
<path fill="none" stroke="midnightblue" d="M828.523,-206.5C844.343,-206.5 861.311,-206.5 876.949,-206.5"/>
<polygon fill="midnightblue" stroke="midnightblue" points="828.318,-203 818.318,-206.5 828.318,-210 828.318,-203"/>
</g>
<!-- Node8 -->
<g id="node8" class="node"><title>Node8</title>
<g id="a_node8"><a xlink:href="namespacemom__state__initialization.html#a5c77bf2b0ea9d28e28b661a2a42d3f88" target="_top" xlink:title="Run simple unit tests. ">
<polygon fill="white" stroke="black" points="875,-44.5 875,-74.5 997,-74.5 997,-44.5 875,-44.5"/>
<text text-anchor="start" x="883" y="-62.5" font-family="Helvetica,sans-Serif" font-size="10.00">mom_state_initialization</text>
<text text-anchor="middle" x="936" y="-51.5" font-family="Helvetica,sans-Serif" font-size="10.00">::mom_state_init_tests</text>
</a>
</g>
</g>
<!-- Node7&#45;&gt;Node8 -->
<g id="edge7" class="edge"><title>Node7&#45;&gt;Node8</title>
<path fill="none" stroke="midnightblue" d="M837.517,-62.4013C849.97,-62.0306 862.829,-61.6479 874.961,-61.2869"/>
<polygon fill="midnightblue" stroke="midnightblue" points="837.069,-58.913 827.177,-62.709 837.277,-65.9099 837.069,-58.913"/>
</g>
<!-- Node9 -->
<g id="node9" class="node"><title>Node9</title>
<g id="a_node9"><a xlink:href="namespacemom__state__initialization.html#ac29cd3c6b5de2b36b9690d800ac98a09" target="_top" xlink:title="Adjust the layer thicknesses by cutting away the top of each model column at the depth where the hydr...">
<polygon fill="white" stroke="black" points="875,-93.5 875,-123.5 997,-123.5 997,-93.5 875,-93.5"/>
<text text-anchor="start" x="883" y="-111.5" font-family="Helvetica,sans-Serif" font-size="10.00">mom_state_initialization</text>
<text text-anchor="middle" x="936" y="-100.5" font-family="Helvetica,sans-Serif" font-size="10.00">::trim_for_ice</text>
</a>
</g>
</g>
<!-- Node7&#45;&gt;Node9 -->
<g id="edge8" class="edge"><title>Node7&#45;&gt;Node9</title>
<path fill="none" stroke="midnightblue" d="M834.178,-82.0941C848.569,-85.8632 863.647,-89.8122 877.627,-93.4738"/>
<polygon fill="midnightblue" stroke="midnightblue" points="834.907,-78.6671 824.346,-79.5192 833.133,-85.4387 834.907,-78.6671"/>
</g>
<!-- Node10 -->
<g id="node10" class="node"><title>Node10</title>
<g id="a_node10"><a xlink:href="namespacemom__state__initialization.html#af4e854627c6572332ba3fd895f169321" target="_top" xlink:title="mom_state_initialization\l::mom_initialize_state">
<polygon fill="white" stroke="black" points="1055,-72.5 1055,-102.5 1177,-102.5 1177,-72.5 1055,-72.5"/>
<text text-anchor="start" x="1063" y="-90.5" font-family="Helvetica,sans-Serif" font-size="10.00">mom_state_initialization</text>
<text text-anchor="middle" x="1116" y="-79.5" font-family="Helvetica,sans-Serif" font-size="10.00">::mom_initialize_state</text>
</a>
</g>
</g>
<!-- Node9&#45;&gt;Node10 -->
<g id="edge9" class="edge"><title>Node9&#45;&gt;Node10</title>
<path fill="none" stroke="midnightblue" d="M1007.43,-100.191C1023.1,-98.3421 1039.58,-96.3979 1054.8,-94.6023"/>
<polygon fill="midnightblue" stroke="midnightblue" points="1006.78,-96.7427 997.263,-101.39 1007.6,-103.695 1006.78,-96.7427"/>
</g>
<!-- Node11 -->
<g id="node11" class="node"><title>Node11</title>
<g id="a_node11"><a xlink:href="namespacemom.html#a0be2869fef30e1e0604facfe1b41555d" target="_top" xlink:title="This subroutine initializes MOM. ">
<polygon fill="white" stroke="black" points="1232,-72 1232,-91 1339,-91 1339,-72 1232,-72"/>
<text text-anchor="middle" x="1285.5" y="-79" font-family="Helvetica,sans-Serif" font-size="10.00">mom::initialize_mom</text>
</a>
</g>
</g>
<!-- Node10&#45;&gt;Node11 -->
<g id="edge10" class="edge"><title>Node10&#45;&gt;Node11</title>
<path fill="none" stroke="midnightblue" d="M1187.62,-84.9702C1202.45,-84.439 1217.84,-83.8877 1231.88,-83.3851"/>
<polygon fill="midnightblue" stroke="midnightblue" points="1187.34,-81.478 1177.47,-85.3339 1187.59,-88.4735 1187.34,-81.478"/>
</g>
<!-- Node12 -->
<g id="node12" class="node"><title>Node12</title>
<g id="a_node12"><a xlink:href="MOM__driver_8F90.html#a08fffeb2d8e8acbf9ed4609be6d258c6" target="_top" xlink:title="mom_main">
<polygon fill="white" stroke="black" points="1409.5,-107 1409.5,-126 1474.5,-126 1474.5,-107 1409.5,-107"/>
<text text-anchor="middle" x="1442" y="-114" font-family="Helvetica,sans-Serif" font-size="10.00">mom_main</text>
</a>
</g>
</g>
<!-- Node11&#45;&gt;Node12 -->
<g id="edge11" class="edge"><title>Node11&#45;&gt;Node12</title>
<path fill="none" stroke="midnightblue" d="M1338.5,-93.2808C1361.9,-98.5813 1388.77,-104.668 1409.13,-109.28"/>
<polygon fill="midnightblue" stroke="midnightblue" points="1339.24,-89.8599 1328.72,-91.0639 1337.7,-96.6869 1339.24,-89.8599"/>
</g>
<!-- Node15 -->
<g id="node15" class="node"><title>Node15</title>
<g id="a_node15"><a xlink:href="namespacemom__lateral__mixing__coeffs.html#af206bc656869b4fc27d4d7e8a15d438e" target="_top" xlink:title="Calculates and stores the non&#45;dimensional resolution functions. ">
<polygon fill="white" stroke="black" points="1064,-131 1064,-172 1168,-172 1168,-131 1064,-131"/>
<text text-anchor="start" x="1072" y="-160" font-family="Helvetica,sans-Serif" font-size="10.00">mom_lateral_mixing</text>
<text text-anchor="start" x="1072" y="-149" font-family="Helvetica,sans-Serif" font-size="10.00">_coeffs::calc_resoln</text>
<text text-anchor="middle" x="1116" y="-138" font-family="Helvetica,sans-Serif" font-size="10.00">_function</text>
</a>
</g>
</g>
<!-- Node14&#45;&gt;Node15 -->
<g id="edge14" class="edge"><title>Node14&#45;&gt;Node15</title>
<path fill="none" stroke="midnightblue" d="M1010.19,-155.033C1028.2,-154.426 1047.09,-153.789 1063.81,-153.226"/>
<polygon fill="midnightblue" stroke="midnightblue" points="1009.88,-151.541 1000.01,-155.376 1010.12,-158.537 1009.88,-151.541"/>
</g>
<!-- Node19 -->
<g id="node19" class="node"><title>Node19</title>
<g id="a_node19"><a xlink:href="namespacemom__diagnostics.html#abb6644248c28ab2e952361bfec436063" target="_top" xlink:title="Diagnostics not more naturally calculated elsewhere are computed here. ">
<polygon fill="white" stroke="black" points="1047,-191.5 1047,-221.5 1185,-221.5 1185,-191.5 1047,-191.5"/>
<text text-anchor="start" x="1055" y="-209.5" font-family="Helvetica,sans-Serif" font-size="10.00">mom_diagnostics::calculate</text>
<text text-anchor="middle" x="1116" y="-198.5" font-family="Helvetica,sans-Serif" font-size="10.00">_diagnostic_fields</text>
</a>
</g>
</g>
<!-- Node14&#45;&gt;Node19 -->
<g id="edge20" class="edge"><title>Node14&#45;&gt;Node19</title>
<path fill="none" stroke="midnightblue" d="M1001.74,-175.321C1020.96,-180.612 1041.81,-186.352 1060.32,-191.448"/>
<polygon fill="midnightblue" stroke="midnightblue" points="1002.43,-171.881 991.858,-172.601 1000.57,-178.63 1002.43,-171.881"/>
</g>
<!-- Node16 -->
<g id="node16" class="node"><title>Node16</title>
<g id="a_node16"><a xlink:href="namespacemom.html#a4c8332b095c6d295084089aa6b3b678a" target="_top" xlink:title="This subroutine orchestrates the time stepping of MOM. The adiabatic dynamics are stepped by calls to...">
<polygon fill="white" stroke="black" points="1240.5,-110 1240.5,-129 1330.5,-129 1330.5,-110 1240.5,-110"/>
<text text-anchor="middle" x="1285.5" y="-117" font-family="Helvetica,sans-Serif" font-size="10.00">mom::step_mom</text>
</a>
</g>
</g>
<!-- Node15&#45;&gt;Node16 -->
<g id="edge15" class="edge"><title>Node15&#45;&gt;Node16</title>
<path fill="none" stroke="midnightblue" d="M1178.11,-139.824C1198.76,-135.881 1221.38,-131.559 1240.44,-127.918"/>
<polygon fill="midnightblue" stroke="midnightblue" points="1177.33,-136.411 1168.17,-141.725 1178.64,-143.286 1177.33,-136.411"/>
</g>
<!-- Node17 -->
<g id="node17" class="node"><title>Node17</title>
<g id="a_node17"><a xlink:href="namespacemom.html#ad56e17a755c7078ccea29ccbae4d5803" target="_top" xlink:title="step_offline is the main driver for running tracers offline in MOM6. This has been primarily develope...">
<polygon fill="white" stroke="black" points="1238,-148 1238,-167 1333,-167 1333,-148 1238,-148"/>
<text text-anchor="middle" x="1285.5" y="-155" font-family="Helvetica,sans-Serif" font-size="10.00">mom::step_offline</text>
</a>
</g>
</g>
<!-- Node15&#45;&gt;Node17 -->
<g id="edge17" class="edge"><title>Node15&#45;&gt;Node17</title>
<path fill="none" stroke="midnightblue" d="M1178.28,-153.695C1197.97,-154.401 1219.46,-155.17 1237.92,-155.832"/>
<polygon fill="midnightblue" stroke="midnightblue" points="1178.28,-150.193 1168.17,-153.333 1178.03,-157.189 1178.28,-150.193"/>
</g>
<!-- Node16&#45;&gt;Node12 -->
<g id="edge16" class="edge"><title>Node16&#45;&gt;Node12</title>
<path fill="none" stroke="midnightblue" d="M1341.06,-118.441C1363.98,-117.996 1389.81,-117.494 1409.48,-117.112"/>
<polygon fill="midnightblue" stroke="midnightblue" points="1340.7,-114.947 1330.77,-118.64 1340.84,-121.945 1340.7,-114.947"/>
</g>
<!-- Node17&#45;&gt;Node12 -->
<g id="edge18" class="edge"><title>Node17&#45;&gt;Node12</title>
<path fill="none" stroke="midnightblue" d="M1332.25,-145.358C1357.05,-138.777 1387.08,-130.809 1409.29,-124.914"/>
<polygon fill="midnightblue" stroke="midnightblue" points="1331.1,-142.043 1322.33,-147.991 1332.9,-148.809 1331.1,-142.043"/>
</g>
<!-- Node18 -->
<g id="node18" class="node"><title>Node18</title>
<g id="a_node18"><a xlink:href="namespaceocean__model__mod.html#ac9dc1795fc4799d6682f462857b42d62" target="_top" xlink:title="ocean_model_mod::update\l_ocean_model">
<polygon fill="white" stroke="black" points="1375,-145.5 1375,-175.5 1509,-175.5 1509,-145.5 1375,-145.5"/>
<text text-anchor="start" x="1383" y="-163.5" font-family="Helvetica,sans-Serif" font-size="10.00">ocean_model_mod::update</text>
<text text-anchor="middle" x="1442" y="-152.5" font-family="Helvetica,sans-Serif" font-size="10.00">_ocean_model</text>
</a>
</g>
</g>
<!-- Node17&#45;&gt;Node18 -->
<g id="edge19" class="edge"><title>Node17&#45;&gt;Node18</title>
<path fill="none" stroke="midnightblue" d="M1343.3,-158.603C1353.52,-158.801 1364.26,-159.01 1374.72,-159.213"/>
<polygon fill="midnightblue" stroke="midnightblue" points="1343.34,-155.103 1333.27,-158.408 1343.2,-162.102 1343.34,-155.103"/>
</g>
<!-- Node21 -->
<g id="node21" class="node"><title>Node21</title>
<g id="a_node21"><a xlink:href="namespacemom__remapping.html#a5849f564453d5ed76fb4feffd41eca26" target="_top" xlink:title="Runs unit tests on remapping functions. Should only be called from a single/root thread Returns True ...">
<polygon fill="white" stroke="black" points="696,-0.5 696,-30.5 836,-30.5 836,-0.5 696,-0.5"/>
<text text-anchor="start" x="704" y="-18.5" font-family="Helvetica,sans-Serif" font-size="10.00">mom_remapping::remapping</text>
<text text-anchor="middle" x="766" y="-7.5" font-family="Helvetica,sans-Serif" font-size="10.00">_unit_tests</text>
</a>
</g>
</g>
<!-- Node20&#45;&gt;Node21 -->
<g id="edge22" class="edge"><title>Node20&#45;&gt;Node21</title>
<path fill="none" stroke="midnightblue" d="M670.035,-29.1444C678.625,-27.9102 687.319,-26.661 695.779,-25.4455"/>
<polygon fill="midnightblue" stroke="midnightblue" points="669.42,-25.6967 660.019,-30.5834 670.415,-32.6256 669.42,-25.6967"/>
</g>
<!-- Node22 -->
<g id="node22" class="node"><title>Node22</title>
<g id="a_node22"><a xlink:href="namespacemom__unit__tests.html#a71f3a2080872634c14a25a9411b59fe0" target="_top" xlink:title="Calls unit tests for other modules. Note that if a unit test returns true, a FATAL error is triggered...">
<polygon fill="white" stroke="black" points="1062,-5.5 1062,-35.5 1170,-35.5 1170,-5.5 1062,-5.5"/>
<text text-anchor="start" x="1070" y="-23.5" font-family="Helvetica,sans-Serif" font-size="10.00">mom_unit_tests::unit</text>
<text text-anchor="middle" x="1116" y="-12.5" font-family="Helvetica,sans-Serif" font-size="10.00">_tests</text>
</a>
</g>
</g>
<!-- Node21&#45;&gt;Node22 -->
<g id="edge23" class="edge"><title>Node21&#45;&gt;Node22</title>
<path fill="none" stroke="midnightblue" d="M846.528,-16.6426C912.516,-17.5907 1004.52,-18.9126 1061.88,-19.7368"/>
<polygon fill="midnightblue" stroke="midnightblue" points="846.219,-13.1379 836.17,-16.4938 846.118,-20.1372 846.219,-13.1379"/>
</g>
<!-- Node22&#45;&gt;Node11 -->
<g id="edge24" class="edge"><title>Node22&#45;&gt;Node11</title>
<path fill="none" stroke="midnightblue" d="M1167.82,-39.009C1197.63,-49.8622 1234.04,-63.1246 1258.18,-71.9153"/>
<polygon fill="midnightblue" stroke="midnightblue" points="1169,-35.7119 1158.4,-35.5787 1166.6,-42.2894 1169,-35.7119"/>
</g>
<!-- Node24 -->
<g id="node24" class="node"><title>Node24</title>
<g id="a_node24"><a xlink:href="namespaceregrid__interp.html#a4d634eff5836d643ef27129fc934853a" target="_top" xlink:title="regrid_interp::build\l_and_interpolate_grid">
<polygon fill="white" stroke="black" points="535.5,-192.5 535.5,-222.5 644.5,-222.5 644.5,-192.5 535.5,-192.5"/>
<text text-anchor="start" x="543.5" y="-210.5" font-family="Helvetica,sans-Serif" font-size="10.00">regrid_interp::build</text>
<text text-anchor="middle" x="590" y="-199.5" font-family="Helvetica,sans-Serif" font-size="10.00">_and_interpolate_grid</text>
</a>
</g>
</g>
<!-- Node23&#45;&gt;Node24 -->
<g id="edge26" class="edge"><title>Node23&#45;&gt;Node24</title>
<path fill="none" stroke="midnightblue" d="M471.304,-207.5C492.463,-207.5 515.459,-207.5 535.465,-207.5"/>
<polygon fill="midnightblue" stroke="midnightblue" points="471.087,-204 461.086,-207.5 471.086,-211 471.087,-204"/>
</g>
<!-- Node24&#45;&gt;Node5 -->
<g id="edge30" class="edge"><title>Node24&#45;&gt;Node5</title>
<path fill="none" stroke="midnightblue" d="M654.653,-207.134C674.167,-207.022 695.373,-206.9 713.932,-206.793"/>
<polygon fill="midnightblue" stroke="midnightblue" points="654.605,-203.634 644.626,-207.192 654.646,-210.634 654.605,-203.634"/>
</g>
<!-- Node25 -->
<g id="node25" class="node"><title>Node25</title>
<g id="a_node25"><a xlink:href="namespacecoord__hycom.html#a863abf3f62297588e4a3065fbf9333ea" target="_top" xlink:title="Build a HyCOM coordinate column. ">
<polygon fill="white" stroke="black" points="715.5,-240.5 715.5,-270.5 816.5,-270.5 816.5,-240.5 715.5,-240.5"/>
<text text-anchor="start" x="723.5" y="-258.5" font-family="Helvetica,sans-Serif" font-size="10.00">coord_hycom::build</text>
<text text-anchor="middle" x="766" y="-247.5" font-family="Helvetica,sans-Serif" font-size="10.00">_hycom1_column</text>
</a>
</g>
</g>
<!-- Node24&#45;&gt;Node25 -->
<g id="edge27" class="edge"><title>Node24&#45;&gt;Node25</title>
<path fill="none" stroke="midnightblue" d="M654.335,-224.972C674.454,-230.522 696.401,-236.576 715.406,-241.819"/>
<polygon fill="midnightblue" stroke="midnightblue" points="655.196,-221.579 644.626,-222.293 653.335,-228.327 655.196,-221.579"/>
</g>
<!-- Node26 -->
<g id="node26" class="node"><title>Node26</title>
<g id="a_node26"><a xlink:href="namespacemom__regridding.html#ab3541b357806978862434ee19b1be774" target="_top" xlink:title="Builds a simple HyCOM&#45;like grid with the deepest location of potential density interpolated from the ...">
<polygon fill="white" stroke="black" points="880,-240.5 880,-270.5 992,-270.5 992,-240.5 880,-240.5"/>
<text text-anchor="start" x="888" y="-258.5" font-family="Helvetica,sans-Serif" font-size="10.00">mom_regridding::build</text>
<text text-anchor="middle" x="936" y="-247.5" font-family="Helvetica,sans-Serif" font-size="10.00">_grid_hycom1</text>
</a>
</g>
</g>
<!-- Node25&#45;&gt;Node26 -->
<g id="edge28" class="edge"><title>Node25&#45;&gt;Node26</title>
<path fill="none" stroke="midnightblue" d="M827.416,-255.5C844.566,-255.5 863.143,-255.5 879.957,-255.5"/>
<polygon fill="midnightblue" stroke="midnightblue" points="826.951,-252 816.951,-255.5 826.951,-259 826.951,-252"/>
</g>
<!-- Node27 -->
<g id="node27" class="node"><title>Node27</title>
<g id="a_node27"><a xlink:href="namespacemom__regridding.html#ab354fe3423a39fef6f2b66f409b1682c" target="_top" xlink:title="mom_regridding::regridding_main">
<polygon fill="white" stroke="black" points="1036,-246 1036,-265 1196,-265 1196,-246 1036,-246"/>
<text text-anchor="middle" x="1116" y="-253" font-family="Helvetica,sans-Serif" font-size="10.00">mom_regridding::regridding_main</text>
</a>
</g>
</g>
<!-- Node26&#45;&gt;Node27 -->
<g id="edge29" class="edge"><title>Node26&#45;&gt;Node27</title>
<path fill="none" stroke="midnightblue" d="M1002.55,-255.5C1013.39,-255.5 1024.72,-255.5 1035.84,-255.5"/>
<polygon fill="midnightblue" stroke="midnightblue" points="1002.34,-252 992.345,-255.5 1002.34,-259 1002.34,-252"/>
</g>
<!-- Node28&#45;&gt;Node3 -->
<g id="edge32" class="edge"><title>Node28&#45;&gt;Node3</title>
<path fill="none" stroke="midnightblue" d="M294.38,-110.909C311.023,-111.002 328.435,-111.098 344.248,-111.186"/>
<polygon fill="midnightblue" stroke="midnightblue" points="294.157,-107.408 284.138,-110.853 294.118,-114.408 294.157,-107.408"/>
</g>
<!-- Node28&#45;&gt;Node23 -->
<g id="edge33" class="edge"><title>Node28&#45;&gt;Node23</title>
<path fill="none" stroke="midnightblue" d="M271.403,-129.61C275.707,-131.506 279.956,-133.479 284,-135.5 318.564,-152.769 356.236,-177.015 379.241,-192.492"/>
<polygon fill="midnightblue" stroke="midnightblue" points="272.527,-126.285 261.955,-125.596 269.79,-132.727 272.527,-126.285"/>
</g>
<!-- Node30&#45;&gt;Node3 -->
<g id="edge37" class="edge"><title>Node30&#45;&gt;Node3</title>
<path fill="none" stroke="midnightblue" d="M284.447,-79.2138C304.751,-84.8383 327.002,-91.0019 346.571,-96.4226"/>
<polygon fill="midnightblue" stroke="midnightblue" points="285.227,-75.7983 274.656,-76.5016 283.359,-82.5443 285.227,-75.7983"/>
</g>
<!-- Node30&#45;&gt;Node23 -->
<g id="edge38" class="edge"><title>Node30&#45;&gt;Node23</title>
<path fill="none" stroke="midnightblue" d="M278.421,-81.5805C280.353,-82.8171 282.221,-84.1225 284,-85.5 305.94,-102.483 301.438,-115.879 320,-136.5 339.016,-157.626 364.006,-178.695 381.172,-192.327"/>
<polygon fill="midnightblue" stroke="midnightblue" points="280.033,-78.471 269.606,-76.5904 276.585,-84.5626 280.033,-78.471"/>
</g>
<!-- Node31 -->
<g id="node31" class="node"><title>Node31</title>
<g id="a_node31"><a xlink:href="namespacemom__ale.html#aea1b73dedf1ae5f3db9fa0a6aa6ebaa0" target="_top" xlink:title="Use ppm reconstruction for pressure gradient (determine edge values) By using a PPM (limited piecewis...">
<polygon fill="white" stroke="black" points="320,-52 320,-71 484,-71 484,-52 320,-52"/>
<text text-anchor="middle" x="402" y="-59" font-family="Helvetica,sans-Serif" font-size="10.00">mom_ale::pressure_gradient_ppm</text>
</a>
</g>
</g>
<!-- Node30&#45;&gt;Node31 -->
<g id="edge36" class="edge"><title>Node30&#45;&gt;Node31</title>
<path fill="none" stroke="midnightblue" d="M294.312,-61.5C302.75,-61.5 311.387,-61.5 319.914,-61.5"/>
<polygon fill="midnightblue" stroke="midnightblue" points="294.138,-58.0001 284.138,-61.5 294.138,-65.0001 294.138,-58.0001"/>
</g>
<!-- Node32&#45;&gt;Node3 -->
<g id="edge40" class="edge"><title>Node32&#45;&gt;Node3</title>
<path fill="none" stroke="midnightblue" d="M278.405,-237.398C280.341,-236.168 282.214,-234.869 284,-233.5 305.732,-216.84 301.656,-203.83 320,-183.5 339.285,-162.127 364.451,-140.584 381.58,-126.708"/>
<polygon fill="midnightblue" stroke="midnightblue" points="276.572,-234.413 269.575,-242.369 280.006,-240.513 276.572,-234.413"/>
</g>
<!-- Node32&#45;&gt;Node23 -->
<g id="edge41" class="edge"><title>Node32&#45;&gt;Node23</title>
<path fill="none" stroke="midnightblue" d="M284.447,-239.786C304.751,-234.162 327.002,-227.998 346.571,-222.577"/>
<polygon fill="midnightblue" stroke="midnightblue" points="283.359,-236.456 274.656,-242.498 285.227,-243.202 283.359,-236.456"/>
</g>
</g>
</svg>
