<?xml version="1.0" encoding="UTF-8" standalone="no"?>
<!DOCTYPE svg PUBLIC "-//W3C//DTD SVG 1.1//EN"
 "http://www.w3.org/Graphics/SVG/1.1/DTD/svg11.dtd">
<!-- Generated by graphviz version 2.38.0 (20140413.2041)
 -->
<!-- Title: mom_coord_initialization::set_coord_from_ts_ref Pages: 1 -->
<svg width="416pt" height="88pt"
 viewBox="0.00 0.00 416.00 88.00" xmlns="http://www.w3.org/2000/svg" xmlns:xlink="http://www.w3.org/1999/xlink">
<g id="graph0" class="graph" transform="scale(1 1) rotate(0) translate(4 84)">
<title>mom_coord_initialization::set_coord_from_ts_ref</title>
<polygon fill="white" stroke="none" points="-4,4 -4,-84 412,-84 412,4 -4,4"/>
<!-- Node64 -->
<g id="node1" class="node"><title>Node64</title>
<polygon fill="#bfbfbf" stroke="black" points="0,-24.5 0,-54.5 124,-54.5 124,-24.5 0,-24.5"/>
<text text-anchor="start" x="8" y="-42.5" font-family="Helvetica,sans-Serif" font-size="10.00">mom_coord_initialization</text>
<text text-anchor="middle" x="62" y="-31.5" font-family="Helvetica,sans-Serif" font-size="10.00">::set_coord_from_ts_ref</text>
</g>
<!-- Node65 -->
<g id="node2" class="node"><title>Node65</title>
<g id="a_node2"><a xlink:href="namespacemom__error__handler.html#a9cda07a87815f0e5594066162b4345c3" target="_top" xlink:title="Writes a message about entering a subroutine if call tree reporting is active. ">
<polygon fill="white" stroke="black" points="160,-49.5 160,-79.5 266,-79.5 266,-49.5 160,-49.5"/>
<text text-anchor="start" x="168" y="-67.5" font-family="Helvetica,sans-Serif" font-size="10.00">mom_error_handler::</text>
<text text-anchor="middle" x="213" y="-56.5" font-family="Helvetica,sans-Serif" font-size="10.00">calltree_enter</text>
</a>
</g>
</g>
<!-- Node64&#45;&gt;Node65 -->
<g id="edge1" class="edge"><title>Node64&#45;&gt;Node65</title>
<path fill="none" stroke="midnightblue" d="M124.034,-49.7406C132.583,-51.175 141.377,-52.6505 149.945,-54.088"/>
<polygon fill="midnightblue" stroke="midnightblue" points="149.429,-57.5504 159.871,-55.7535 150.588,-50.6469 149.429,-57.5504"/>
</g>
<!-- Node67 -->
<g id="node4" class="node"><title>Node67</title>
<g id="a_node4"><a xlink:href="namespacemom__error__handler.html#a88ea67781e2ed9b73ab7eac8ea5e8578" target="_top" xlink:title="Writes a message about leaving a subroutine if call tree reporting is active. ">
<polygon fill="white" stroke="black" points="160,-0.5 160,-30.5 266,-30.5 266,-0.5 160,-0.5"/>
<text text-anchor="start" x="168" y="-18.5" font-family="Helvetica,sans-Serif" font-size="10.00">mom_error_handler::</text>
<text text-anchor="middle" x="213" y="-7.5" font-family="Helvetica,sans-Serif" font-size="10.00">calltree_leave</text>
</a>
</g>
</g>
<!-- Node64&#45;&gt;Node67 -->
<g id="edge3" class="edge"><title>Node64&#45;&gt;Node67</title>
<path fill="none" stroke="midnightblue" d="M124.034,-29.669C132.583,-28.292 141.377,-26.8755 149.945,-25.4955"/>
<polygon fill="midnightblue" stroke="midnightblue" points="150.555,-28.9425 159.871,-23.8967 149.441,-22.0315 150.555,-28.9425"/>
</g>
<!-- Node66 -->
<g id="node3" class="node"><title>Node66</title>
<g id="a_node3"><a xlink:href="namespacemom__error__handler.html#ad5f00a53059c72fe2332d1436c80ca71" target="_top" xlink:title="mom_error_handler::\lis_root_pe">
<polygon fill="white" stroke="black" points="302,-24.5 302,-54.5 408,-54.5 408,-24.5 302,-24.5"/>
<text text-anchor="start" x="310" y="-42.5" font-family="Helvetica,sans-Serif" font-size="10.00">mom_error_handler::</text>
<text text-anchor="middle" x="355" y="-31.5" font-family="Helvetica,sans-Serif" font-size="10.00">is_root_pe</text>
</a>
</g>
</g>
<!-- Node65&#45;&gt;Node66 -->
<g id="edge2" class="edge"><title>Node65&#45;&gt;Node66</title>
<path fill="none" stroke="midnightblue" d="M266.131,-55.1909C274.512,-53.6942 283.26,-52.1321 291.849,-50.5985"/>
<polygon fill="midnightblue" stroke="midnightblue" points="292.597,-54.0203 301.826,-48.8169 291.366,-47.1293 292.597,-54.0203"/>
</g>
<!-- Node67&#45;&gt;Node66 -->
<g id="edge4" class="edge"><title>Node67&#45;&gt;Node66</title>
<path fill="none" stroke="midnightblue" d="M266.131,-24.4367C274.512,-25.8736 283.26,-27.3732 291.849,-28.8455"/>
<polygon fill="midnightblue" stroke="midnightblue" points="291.378,-32.3158 301.826,-30.5558 292.561,-25.4164 291.378,-32.3158"/>
</g>
</g>
</svg>
