<?xml version="1.0" encoding="UTF-8" standalone="no"?>
<!DOCTYPE svg PUBLIC "-//W3C//DTD SVG 1.1//EN"
 "http://www.w3.org/Graphics/SVG/1.1/DTD/svg11.dtd">
<!-- Generated by graphviz version 2.38.0 (20140413.2041)
 -->
<!-- Title: mom_coms::efp_to_real Pages: 1 -->
<svg width="394pt" height="127pt"
 viewBox="0.00 0.00 394.00 127.00" xmlns="http://www.w3.org/2000/svg" xmlns:xlink="http://www.w3.org/1999/xlink">
<g id="graph0" class="graph" transform="scale(1 1) rotate(0) translate(4 123)">
<title>mom_coms::efp_to_real</title>
<polygon fill="white" stroke="none" points="-4,4 -4,-123 390,-123 390,4 -4,4"/>
<!-- Node29 -->
<g id="node1" class="node"><title>Node29</title>
<polygon fill="#bfbfbf" stroke="black" points="0,-50 0,-69 122,-69 122,-50 0,-50"/>
<text text-anchor="middle" x="61" y="-57" font-family="Helvetica,sans-Serif" font-size="10.00">mom_coms::efp_to_real</text>
</g>
<!-- Node30 -->
<g id="node2" class="node"><title>Node30</title>
<g id="a_node2"><a xlink:href="namespacemom__coms.html#a6cbcab29d87b134dcd5c4bdb922b4344" target="_top" xlink:title="mom_coms::efp_list\l_sum_across_pes">
<polygon fill="white" stroke="black" points="169,-88.5 169,-118.5 274,-118.5 274,-88.5 169,-88.5"/>
<text text-anchor="start" x="177" y="-106.5" font-family="Helvetica,sans-Serif" font-size="10.00">mom_coms::efp_list</text>
<text text-anchor="middle" x="221.5" y="-95.5" font-family="Helvetica,sans-Serif" font-size="10.00">_sum_across_pes</text>
</a>
</g>
</g>
<!-- Node29&#45;&gt;Node30 -->
<g id="edge1" class="edge"><title>Node29&#45;&gt;Node30</title>
<path fill="none" stroke="midnightblue" d="M106.185,-71.7657C125.585,-77.1515 148.498,-83.5122 168.697,-89.1194"/>
<polygon fill="midnightblue" stroke="midnightblue" points="106.964,-68.3498 96.3921,-69.0473 105.092,-75.0948 106.964,-68.3498"/>
</g>
<!-- Node31 -->
<g id="node3" class="node"><title>Node31</title>
<g id="a_node3"><a xlink:href="namespacemom__coms.html#a8f23ba3eaaf03101afa61c339fac805b" target="_top" xlink:title="mom_coms::efp_real_diff">
<polygon fill="white" stroke="black" points="158,-50 158,-69 285,-69 285,-50 158,-50"/>
<text text-anchor="middle" x="221.5" y="-57" font-family="Helvetica,sans-Serif" font-size="10.00">mom_coms::efp_real_diff</text>
</a>
</g>
</g>
<!-- Node29&#45;&gt;Node31 -->
<g id="edge2" class="edge"><title>Node29&#45;&gt;Node31</title>
<path fill="none" stroke="midnightblue" d="M132.583,-59.5C141.027,-59.5 149.605,-59.5 157.925,-59.5"/>
<polygon fill="midnightblue" stroke="midnightblue" points="132.374,-56.0001 122.374,-59.5 132.374,-63.0001 132.374,-56.0001"/>
</g>
<!-- Node32 -->
<g id="node4" class="node"><title>Node32</title>
<g id="a_node4"><a xlink:href="namespacemom__sum__output.html#aef94e597f85f3ee439b2ddc2b46a043a" target="_top" xlink:title="This subroutine calculates and writes the total model energy, the energy and mass of each layer...">
<polygon fill="white" stroke="black" points="160.5,-0.5 160.5,-30.5 282.5,-30.5 282.5,-0.5 160.5,-0.5"/>
<text text-anchor="start" x="168.5" y="-18.5" font-family="Helvetica,sans-Serif" font-size="10.00">mom_sum_output::write</text>
<text text-anchor="middle" x="221.5" y="-7.5" font-family="Helvetica,sans-Serif" font-size="10.00">_energy</text>
</a>
</g>
</g>
<!-- Node29&#45;&gt;Node32 -->
<g id="edge3" class="edge"><title>Node29&#45;&gt;Node32</title>
<path fill="none" stroke="midnightblue" d="M106.092,-47.2598C124.728,-42.0866 146.616,-36.0103 166.23,-30.5654"/>
<polygon fill="midnightblue" stroke="midnightblue" points="105.092,-43.9052 96.3921,-49.9527 106.964,-50.6502 105.092,-43.9052"/>
</g>
<!-- Node33 -->
<g id="node5" class="node"><title>Node33</title>
<g id="a_node5"><a xlink:href="MOM__driver_8F90.html#a08fffeb2d8e8acbf9ed4609be6d258c6" target="_top" xlink:title="mom_main">
<polygon fill="white" stroke="black" points="321,-6 321,-25 386,-25 386,-6 321,-6"/>
<text text-anchor="middle" x="353.5" y="-13" font-family="Helvetica,sans-Serif" font-size="10.00">mom_main</text>
</a>
</g>
</g>
<!-- Node32&#45;&gt;Node33 -->
<g id="edge4" class="edge"><title>Node32&#45;&gt;Node33</title>
<path fill="none" stroke="midnightblue" d="M292.758,-15.5C302.531,-15.5 312.145,-15.5 320.708,-15.5"/>
<polygon fill="midnightblue" stroke="midnightblue" points="292.553,-12.0001 282.553,-15.5 292.553,-19.0001 292.553,-12.0001"/>
</g>
</g>
</svg>
