<?xml version="1.0" encoding="UTF-8" standalone="no"?>
<!DOCTYPE svg PUBLIC "-//W3C//DTD SVG 1.1//EN"
 "http://www.w3.org/Graphics/SVG/1.1/DTD/svg11.dtd">
<!-- Generated by graphviz version 2.38.0 (20140413.2041)
 -->
<!-- Title: mom_wave_structure::tridiag_solver Pages: 1 -->
<svg width="402pt" height="39pt"
 viewBox="0.00 0.00 402.00 39.00" xmlns="http://www.w3.org/2000/svg" xmlns:xlink="http://www.w3.org/1999/xlink">
<g id="graph0" class="graph" transform="scale(1 1) rotate(0) translate(4 35)">
<title>mom_wave_structure::tridiag_solver</title>
<polygon fill="white" stroke="none" points="-4,4 -4,-35 398,-35 398,4 -4,4"/>
<!-- Node3 -->
<g id="node1" class="node"><title>Node3</title>
<polygon fill="#bfbfbf" stroke="black" points="0,-0.5 0,-30.5 110,-30.5 110,-0.5 0,-0.5"/>
<text text-anchor="start" x="8" y="-18.5" font-family="Helvetica,sans-Serif" font-size="10.00">mom_wave_structure</text>
<text text-anchor="middle" x="55" y="-7.5" font-family="Helvetica,sans-Serif" font-size="10.00">::tridiag_solver</text>
</g>
<!-- Node4 -->
<g id="node2" class="node"><title>Node4</title>
<g id="a_node2"><a xlink:href="namespacemom__wave__structure.html#a6dab6eaab930bb622d4462d5f51f8ab4" target="_top" xlink:title="This subroutine determines the internal wave velocity structure for any mode. ">
<polygon fill="white" stroke="black" points="146,-0.5 146,-30.5 256,-30.5 256,-0.5 146,-0.5"/>
<text text-anchor="start" x="154" y="-18.5" font-family="Helvetica,sans-Serif" font-size="10.00">mom_wave_structure</text>
<text text-anchor="middle" x="201" y="-7.5" font-family="Helvetica,sans-Serif" font-size="10.00">::wave_structure</text>
</a>
</g>
</g>
<!-- Node3&#45;&gt;Node4 -->
<g id="edge1" class="edge"><title>Node3&#45;&gt;Node4</title>
<path fill="none" stroke="midnightblue" d="M120.27,-15.5C128.75,-15.5 137.375,-15.5 145.667,-15.5"/>
<polygon fill="midnightblue" stroke="midnightblue" points="120.03,-12.0001 110.03,-15.5 120.03,-19.0001 120.03,-12.0001"/>
</g>
<!-- Node5 -->
<g id="node3" class="node"><title>Node5</title>
<g id="a_node3"><a xlink:href="namespacemom__internal__tides.html#a6cae26da43d0539e8ac959105cf125c2" target="_top" xlink:title="This subroutine calls other subroutines in this file that are needed to refract, propagate, and dissipate energy density of the internal tide. ">
<polygon fill="white" stroke="black" points="292,-0.5 292,-30.5 394,-30.5 394,-0.5 292,-0.5"/>
<text text-anchor="start" x="300" y="-18.5" font-family="Helvetica,sans-Serif" font-size="10.00">mom_internal_tides</text>
<text text-anchor="middle" x="343" y="-7.5" font-family="Helvetica,sans-Serif" font-size="10.00">::propagate_int_tide</text>
</a>
</g>
</g>
<!-- Node4&#45;&gt;Node5 -->
<g id="edge2" class="edge"><title>Node4&#45;&gt;Node5</title>
<path fill="none" stroke="midnightblue" d="M266.393,-15.5C274.881,-15.5 283.48,-15.5 291.685,-15.5"/>
<polygon fill="midnightblue" stroke="midnightblue" points="266.128,-12.0001 256.128,-15.5 266.128,-19.0001 266.128,-12.0001"/>
</g>
</g>
</svg>
