<?xml version="1.0" encoding="UTF-8" standalone="no"?>
<!DOCTYPE svg PUBLIC "-//W3C//DTD SVG 1.1//EN"
 "http://www.w3.org/Graphics/SVG/1.1/DTD/svg11.dtd">
<!-- Generated by graphviz version 2.38.0 (20140413.2041)
 -->
<!-- Title: mom_io::modify_vardesc Pages: 1 -->
<!--zoomable 897 -->
<svg id="main" version="1.1" xmlns="http://www.w3.org/2000/svg" xmlns:xlink="http://www.w3.org/1999/xlink" xml:space="preserve" onload="init(evt)">
<style type="text/css"><![CDATA[
.edge:hover path { stroke: red; }
.edge:hover polygon { stroke: red; fill: red; }
]]></style>
<script type="text/javascript"><![CDATA[
var edges = document.getElementsByTagName('g');
if (edges && edges.length) {
  for (var i=0;i<edges.length;i++) {
    if (edges[i].id.substr(0,4)=='edge') {
      edges[i].setAttribute('class','edge');
    }
  }
}
]]></script>
        <defs>
                <circle id="rim" cx="0" cy="0" r="7"/>
                <circle id="rim2" cx="0" cy="0" r="3.5"/>
                <g id="zoomPlus">
                        <use xlink:href="#rim" fill="#404040">
                                <set attributeName="fill" to="#808080" begin="zoomplus.mouseover" end="zoomplus.mouseout"/>
                        </use>
                        <path d="M-4,0h8M0,-4v8" fill="none" stroke="white" stroke-width="1.5" pointer-events="none"/>
                </g>
                <g id="zoomMin">
                        <use xlink:href="#rim" fill="#404040">
                                <set attributeName="fill" to="#808080" begin="zoomminus.mouseover" end="zoomminus.mouseout"/>
                        </use>
                        <path d="M-4,0h8" fill="none" stroke="white" stroke-width="1.5" pointer-events="none"/>
                </g>
                <g id="dirArrow">
                        <path fill="none" stroke="white" stroke-width="1.5" d="M0,-3.0v7 M-2.5,-0.5L0,-3.0L2.5,-0.5"/>
                </g>
               <g id="resetDef">
                       <use xlink:href="#rim2" fill="#404040">
                               <set attributeName="fill" to="#808080" begin="reset.mouseover" end="reset.mouseout"/>
                       </use>
               </g>
        </defs>

<script type="text/javascript">
var viewWidth = 883;
var viewHeight = 897;
var sectionId = 'dynsection-4';
</script>
<script xlink:href="svgpan.js"/>
<svg id="graph" class="graph">
<g id="viewport">
<title>mom_io::modify_vardesc</title>
<polygon fill="white" stroke="none" points="-4,4 -4,-892.5 879,-892.5 879,4 -4,4"/>
<!-- Node14 -->
<g id="node1" class="node"><title>Node14</title>
<polygon fill="#bfbfbf" stroke="black" points="0,-480.5 0,-499.5 126,-499.5 126,-480.5 0,-480.5"/>
<text text-anchor="middle" x="63" y="-487.5" font-family="Helvetica,sans-Serif" font-size="10.00">mom_io::modify_vardesc</text>
</g>
<!-- Node15 -->
<g id="node2" class="node"><title>Node15</title>
<g id="a_node2"><a xlink:href="namespacemom__diag__to__z.html#a90526b2f59f94c6af2f525a221029772" target="_top" xlink:title="This subroutine registers a tracer to be output in depth space. ">
<polygon fill="white" stroke="black" points="162,-497 162,-527 280,-527 280,-497 162,-497"/>
<text text-anchor="start" x="170" y="-515" font-family="Helvetica,sans-Serif" font-size="10.00">mom_diag_to_z::ocean</text>
<text text-anchor="middle" x="221" y="-504" font-family="Helvetica,sans-Serif" font-size="10.00">_register_diag_with_z</text>
</a>
</g>
</g>
<!-- Node14&#45;&gt;Node15 -->
<g id="edge1" class="edge"><title>Node14&#45;&gt;Node15</title>
<path fill="none" stroke="midnightblue" d="M136.164,-500.177C144.793,-501.394 153.517,-502.624 161.912,-503.808"/>
<polygon fill="midnightblue" stroke="midnightblue" points="136.494,-496.689 126.104,-498.758 135.517,-503.62 136.494,-496.689"/>
</g>
<!-- Node16 -->
<g id="node3" class="node"><title>Node16</title>
<g id="a_node3"><a xlink:href="namespacemom__io.html#a39c3ccc06bb1a6e446af2ee9010eba16" target="_top" xlink:title="Returns a vardesc type whose elements have been filled with the provided fields. The argument name is...">
<polygon fill="white" stroke="black" points="172.5,-458.5 172.5,-477.5 269.5,-477.5 269.5,-458.5 172.5,-458.5"/>
<text text-anchor="middle" x="221" y="-465.5" font-family="Helvetica,sans-Serif" font-size="10.00">mom_io::var_desc</text>
</a>
</g>
</g>
<!-- Node14&#45;&gt;Node16 -->
<g id="edge2" class="edge"><title>Node14&#45;&gt;Node16</title>
<path fill="none" stroke="midnightblue" d="M136.237,-479.813C148.383,-478.1 160.717,-476.36 172.052,-474.762"/>
<polygon fill="midnightblue" stroke="midnightblue" points="135.517,-476.38 126.104,-481.242 136.494,-483.311 135.517,-476.38"/>
</g>
<!-- Node17 -->
<g id="node4" class="node"><title>Node17</title>
<g id="a_node4"><a xlink:href="namespacemom__barotropic.html#a28fa2e7600a471735c3b827ac08ed94b" target="_top" xlink:title="This subroutine is used to register any fields from MOM_barotropic.F90 that should be written to or r...">
<polygon fill="white" stroke="black" points="323,-858 323,-888 448,-888 448,-858 323,-858"/>
<text text-anchor="start" x="331" y="-876" font-family="Helvetica,sans-Serif" font-size="10.00">mom_barotropic::register</text>
<text text-anchor="middle" x="385.5" y="-865" font-family="Helvetica,sans-Serif" font-size="10.00">_barotropic_restarts</text>
</a>
</g>
</g>
<!-- Node16&#45;&gt;Node17 -->
<g id="edge3" class="edge"><title>Node16&#45;&gt;Node17</title>
<path fill="none" stroke="midnightblue" d="M275.743,-483.498C277.283,-484.874 278.712,-486.371 280,-488 380.01,-614.477 216.303,-722.276 316,-849 318.727,-852.466 321.989,-855.433 325.588,-857.973"/>
<polygon fill="midnightblue" stroke="midnightblue" points="277.455,-480.425 267.248,-477.583 273.455,-486.17 277.455,-480.425"/>
</g>
<!-- Node18 -->
<g id="node5" class="node"><title>Node18</title>
<g id="a_node5"><a xlink:href="namespacemom__coord__initialization.html#a45fb62504679264febbaa0617332ecc1" target="_top" xlink:title="This subroutine writes out a file containing any available data related to the vertical grid used by ...">
<polygon fill="white" stroke="black" points="323.5,-809 323.5,-839 447.5,-839 447.5,-809 323.5,-809"/>
<text text-anchor="start" x="331.5" y="-827" font-family="Helvetica,sans-Serif" font-size="10.00">mom_coord_initialization</text>
<text text-anchor="middle" x="385.5" y="-816" font-family="Helvetica,sans-Serif" font-size="10.00">::write_vertgrid_file</text>
</a>
</g>
</g>
<!-- Node16&#45;&gt;Node18 -->
<g id="edge4" class="edge"><title>Node16&#45;&gt;Node18</title>
<path fill="none" stroke="midnightblue" d="M275.711,-483.524C277.26,-484.892 278.699,-486.381 280,-488 367.424,-596.819 228.845,-690.966 316,-800 318.754,-803.445 322.035,-806.397 325.648,-808.926"/>
<polygon fill="midnightblue" stroke="midnightblue" points="277.402,-480.438 267.185,-477.634 273.423,-486.197 277.402,-480.438"/>
</g>
<!-- Node22 -->
<g id="node9" class="node"><title>Node22</title>
<g id="a_node9"><a xlink:href="namespacemom__shared__initialization.html#abef3d6e722e67f47ebdd3f989b9e90b8" target="_top" xlink:title="Write out a file describing the topography, Coriolis parameter, grid locations and various other fixe...">
<polygon fill="white" stroke="black" points="316,-760 316,-790 455,-790 455,-760 316,-760"/>
<text text-anchor="start" x="324" y="-778" font-family="Helvetica,sans-Serif" font-size="10.00">mom_shared_initialization</text>
<text text-anchor="middle" x="385.5" y="-767" font-family="Helvetica,sans-Serif" font-size="10.00">::write_ocean_geometry_file</text>
</a>
</g>
</g>
<!-- Node16&#45;&gt;Node22 -->
<g id="edge8" class="edge"><title>Node16&#45;&gt;Node22</title>
<path fill="none" stroke="midnightblue" d="M275.169,-483.144C276.919,-484.616 278.542,-486.23 280,-488 353.324,-577.03 246.329,-653.083 316,-745 320.627,-751.104 326.76,-755.989 333.458,-759.891"/>
<polygon fill="midnightblue" stroke="midnightblue" points="277.063,-480.2 266.801,-477.563 273.179,-486.024 277.063,-480.2"/>
</g>
<!-- Node24 -->
<g id="node11" class="node"><title>Node24</title>
<g id="a_node11"><a xlink:href="namespacemom__meke.html#a1900316331157e48f1a6029bac63fbd0" target="_top" xlink:title="Allocates memory and register restart fields for the MOM_MEKE module. ">
<polygon fill="white" stroke="black" points="499.5,-711 499.5,-741 622.5,-741 622.5,-711 499.5,-711"/>
<text text-anchor="start" x="507.5" y="-729" font-family="Helvetica,sans-Serif" font-size="10.00">mom_meke::meke_alloc</text>
<text text-anchor="middle" x="561" y="-718" font-family="Helvetica,sans-Serif" font-size="10.00">_register_restart</text>
</a>
</g>
</g>
<!-- Node16&#45;&gt;Node24 -->
<g id="edge11" class="edge"><title>Node16&#45;&gt;Node24</title>
<path fill="none" stroke="midnightblue" d="M275.008,-483.113C276.813,-484.593 278.49,-486.217 280,-488 342.332,-561.599 245.502,-636.181 316,-702 364.459,-747.243 444.269,-746.318 499.346,-738.655"/>
<polygon fill="midnightblue" stroke="midnightblue" points="276.693,-480.033 266.403,-477.507 272.872,-485.898 276.693,-480.033"/>
</g>
<!-- Node25 -->
<g id="node12" class="node"><title>Node25</title>
<g id="a_node12"><a xlink:href="namespacemom__mixed__layer__restrat.html#aea597553dfa98cc7c972784f476ad3fc" target="_top" xlink:title="Allocate and register fields in the mixed layer restratification structure for restarts. ">
<polygon fill="white" stroke="black" points="491,-650.5 491,-691.5 631,-691.5 631,-650.5 491,-650.5"/>
<text text-anchor="start" x="499" y="-679.5" font-family="Helvetica,sans-Serif" font-size="10.00">mom_mixed_layer_restrat</text>
<text text-anchor="start" x="499" y="-668.5" font-family="Helvetica,sans-Serif" font-size="10.00">::mixedlayer_restrat_register</text>
<text text-anchor="middle" x="561" y="-657.5" font-family="Helvetica,sans-Serif" font-size="10.00">_restarts</text>
</a>
</g>
</g>
<!-- Node16&#45;&gt;Node25 -->
<g id="edge13" class="edge"><title>Node16&#45;&gt;Node25</title>
<path fill="none" stroke="midnightblue" d="M274.954,-483.16C276.773,-484.627 278.468,-486.236 280,-488 335.201,-551.582 251.05,-620.416 316,-674 366.652,-715.788 445.416,-705.874 499.682,-691.546"/>
<polygon fill="midnightblue" stroke="midnightblue" points="276.607,-480.061 266.303,-477.593 272.819,-485.948 276.607,-480.061"/>
</g>
<!-- Node26 -->
<g id="node13" class="node"><title>Node26</title>
<g id="a_node13"><a xlink:href="namespacemom__diabatic__driver.html#afa0b30bd6f0e080bcacbd6dcb15ff990" target="_top" xlink:title="This routine initializes the diabatic driver module. ">
<polygon fill="white" stroke="black" points="332,-634 332,-664 439,-664 439,-634 332,-634"/>
<text text-anchor="start" x="340" y="-652" font-family="Helvetica,sans-Serif" font-size="10.00">mom_diabatic_driver</text>
<text text-anchor="middle" x="385.5" y="-641" font-family="Helvetica,sans-Serif" font-size="10.00">::diabatic_driver_init</text>
</a>
</g>
</g>
<!-- Node16&#45;&gt;Node26 -->
<g id="edge15" class="edge"><title>Node16&#45;&gt;Node26</title>
<path fill="none" stroke="midnightblue" d="M274.128,-482.816C276.24,-484.375 278.215,-486.097 280,-488 321.311,-532.037 276.5,-573.332 316,-619 321.266,-625.088 327.999,-629.987 335.179,-633.915"/>
<polygon fill="midnightblue" stroke="midnightblue" points="275.79,-479.732 265.416,-477.582 272.185,-485.732 275.79,-479.732"/>
</g>
<!-- Node27 -->
<g id="node14" class="node"><title>Node27</title>
<g id="a_node14"><a xlink:href="namespacemom__set__visc.html#ae2d9d9f74c1e9aec56257cfad372b0fd" target="_top" xlink:title="This subroutine is used to register any fields associated with the vertvisc_type. ...">
<polygon fill="white" stroke="black" points="499.5,-596 499.5,-626 622.5,-626 622.5,-596 499.5,-596"/>
<text text-anchor="start" x="507.5" y="-614" font-family="Helvetica,sans-Serif" font-size="10.00">mom_set_visc::set_visc</text>
<text text-anchor="middle" x="561" y="-603" font-family="Helvetica,sans-Serif" font-size="10.00">_register_restarts</text>
</a>
</g>
</g>
<!-- Node16&#45;&gt;Node27 -->
<g id="edge16" class="edge"><title>Node16&#45;&gt;Node27</title>
<path fill="none" stroke="midnightblue" d="M273.704,-482.843C275.952,-484.395 278.07,-486.108 280,-488 313.137,-520.481 279.355,-557.535 316,-586 367.789,-626.229 445.567,-627.104 499.325,-621.416"/>
<polygon fill="midnightblue" stroke="midnightblue" points="274.925,-479.512 264.5,-477.625 271.473,-485.602 274.925,-479.512"/>
</g>
<!-- Node28 -->
<g id="node15" class="node"><title>Node28</title>
<g id="a_node15"><a xlink:href="namespaceadvection__test__tracer.html#a6cc3e00a5d5cb9e31339c784eb966c91" target="_top" xlink:title="advection_test_tracer\l::register_advection\l_test_tracer">
<polygon fill="white" stroke="black" points="330.5,-535.5 330.5,-576.5 440.5,-576.5 440.5,-535.5 330.5,-535.5"/>
<text text-anchor="start" x="338.5" y="-564.5" font-family="Helvetica,sans-Serif" font-size="10.00">advection_test_tracer</text>
<text text-anchor="start" x="338.5" y="-553.5" font-family="Helvetica,sans-Serif" font-size="10.00">::register_advection</text>
<text text-anchor="middle" x="385.5" y="-542.5" font-family="Helvetica,sans-Serif" font-size="10.00">_test_tracer</text>
</a>
</g>
</g>
<!-- Node16&#45;&gt;Node28 -->
<g id="edge18" class="edge"><title>Node16&#45;&gt;Node28</title>
<path fill="none" stroke="midnightblue" d="M267.884,-481.455C272.112,-483.391 276.221,-485.566 280,-488 299.558,-500.598 296.966,-512.623 316,-526 320.886,-529.434 326.228,-532.602 331.704,-535.49"/>
<polygon fill="midnightblue" stroke="midnightblue" points="269.099,-478.171 258.52,-477.594 266.431,-484.642 269.099,-478.171"/>
</g>
<!-- Node29 -->
<g id="node16" class="node"><title>Node29</title>
<g id="a_node16"><a xlink:href="namespaceboundary__impulse__tracer.html#a8c333281de8a3f7a255a0da4187427ad" target="_top" xlink:title="Read in runtime options and add boundary impulse tracer to tracer registry. ">
<polygon fill="white" stroke="black" points="316,-475.5 316,-516.5 455,-516.5 455,-475.5 316,-475.5"/>
<text text-anchor="start" x="324" y="-504.5" font-family="Helvetica,sans-Serif" font-size="10.00">boundary_impulse_tracer</text>
<text text-anchor="start" x="324" y="-493.5" font-family="Helvetica,sans-Serif" font-size="10.00">::register_boundary_impulse</text>
<text text-anchor="middle" x="385.5" y="-482.5" font-family="Helvetica,sans-Serif" font-size="10.00">_tracer</text>
</a>
</g>
</g>
<!-- Node16&#45;&gt;Node29 -->
<g id="edge19" class="edge"><title>Node16&#45;&gt;Node29</title>
<path fill="none" stroke="midnightblue" d="M279.91,-477.978C291.564,-479.986 303.917,-482.115 315.894,-484.179"/>
<polygon fill="midnightblue" stroke="midnightblue" points="280.326,-474.498 269.876,-476.249 279.137,-481.397 280.326,-474.498"/>
</g>
<!-- Node30 -->
<g id="node17" class="node"><title>Node30</title>
<g id="a_node17"><a xlink:href="namespacedome__tracer.html#a2a6918ef09b8674c6ad56f80dfc370ff" target="_top" xlink:title="dome_tracer::register\l_dome_tracer">
<polygon fill="white" stroke="black" points="331,-426 331,-456 440,-456 440,-426 331,-426"/>
<text text-anchor="start" x="339" y="-444" font-family="Helvetica,sans-Serif" font-size="10.00">dome_tracer::register</text>
<text text-anchor="middle" x="385.5" y="-433" font-family="Helvetica,sans-Serif" font-size="10.00">_dome_tracer</text>
</a>
</g>
</g>
<!-- Node16&#45;&gt;Node30 -->
<g id="edge20" class="edge"><title>Node16&#45;&gt;Node30</title>
<path fill="none" stroke="midnightblue" d="M280.011,-458.361C296.626,-455.601 314.657,-452.605 330.989,-449.891"/>
<polygon fill="midnightblue" stroke="midnightblue" points="279.168,-454.953 269.876,-460.045 280.315,-461.859 279.168,-454.953"/>
</g>
<!-- Node31 -->
<g id="node18" class="node"><title>Node31</title>
<g id="a_node18"><a xlink:href="namespaceregional__dyes.html#af9da6e5dbe58dedce4ede6f0533fe702" target="_top" xlink:title="regional_dyes::register\l_dye_tracer">
<polygon fill="white" stroke="black" points="328,-377 328,-407 443,-407 443,-377 328,-377"/>
<text text-anchor="start" x="336" y="-395" font-family="Helvetica,sans-Serif" font-size="10.00">regional_dyes::register</text>
<text text-anchor="middle" x="385.5" y="-384" font-family="Helvetica,sans-Serif" font-size="10.00">_dye_tracer</text>
</a>
</g>
</g>
<!-- Node16&#45;&gt;Node31 -->
<g id="edge21" class="edge"><title>Node16&#45;&gt;Node31</title>
<path fill="none" stroke="midnightblue" d="M246.682,-453.309C265.352,-442.518 291.819,-427.901 316,-417 323.733,-413.514 332.11,-410.14 340.264,-407.059"/>
<polygon fill="midnightblue" stroke="midnightblue" points="244.807,-450.35 237.935,-458.414 248.336,-456.396 244.807,-450.35"/>
</g>
<!-- Node32 -->
<g id="node19" class="node"><title>Node32</title>
<g id="a_node19"><a xlink:href="namespaceideal__age__example.html#a58d550a02148b87b1d1ce979fcaf6c00" target="_top" xlink:title="ideal_age_example::\lregister_ideal_age_tracer">
<polygon fill="white" stroke="black" points="323,-328 323,-358 448,-358 448,-328 323,-328"/>
<text text-anchor="start" x="331" y="-346" font-family="Helvetica,sans-Serif" font-size="10.00">ideal_age_example::</text>
<text text-anchor="middle" x="385.5" y="-335" font-family="Helvetica,sans-Serif" font-size="10.00">register_ideal_age_tracer</text>
</a>
</g>
</g>
<!-- Node16&#45;&gt;Node32 -->
<g id="edge22" class="edge"><title>Node16&#45;&gt;Node32</title>
<path fill="none" stroke="midnightblue" d="M234.594,-450.157C251.022,-428.066 281.737,-390.602 316,-368 321.706,-364.236 328.053,-360.947 334.517,-358.101"/>
<polygon fill="midnightblue" stroke="midnightblue" points="231.699,-448.188 228.646,-458.333 237.359,-452.306 231.699,-448.188"/>
</g>
<!-- Node33 -->
<g id="node20" class="node"><title>Node33</title>
<g id="a_node20"><a xlink:href="namespaceisomip__tracer.html#a7d66fe5ba12076654324a7e7d8ab2e4f" target="_top" xlink:title="This subroutine is used to register tracer fields. ">
<polygon fill="white" stroke="black" points="329,-279 329,-309 442,-309 442,-279 329,-279"/>
<text text-anchor="start" x="337" y="-297" font-family="Helvetica,sans-Serif" font-size="10.00">isomip_tracer::register</text>
<text text-anchor="middle" x="385.5" y="-286" font-family="Helvetica,sans-Serif" font-size="10.00">_isomip_tracer</text>
</a>
</g>
</g>
<!-- Node16&#45;&gt;Node33 -->
<g id="edge23" class="edge"><title>Node16&#45;&gt;Node33</title>
<path fill="none" stroke="midnightblue" d="M229.13,-449.127C241.889,-417.782 271.519,-354.894 316,-319 320.729,-315.184 326.093,-311.92 331.687,-309.135"/>
<polygon fill="midnightblue" stroke="midnightblue" points="225.861,-447.876 225.453,-458.463 232.374,-450.441 225.861,-447.876"/>
</g>
<!-- Node34 -->
<g id="node21" class="node"><title>Node34</title>
<g id="a_node21"><a xlink:href="namespacemom__ocmip2__cfc.html#ac04494ce35222c8583a7ee7589e1cf13" target="_top" xlink:title="mom_ocmip2_cfc::register\l_ocmip2_cfc">
<polygon fill="white" stroke="black" points="319.5,-230 319.5,-260 451.5,-260 451.5,-230 319.5,-230"/>
<text text-anchor="start" x="327.5" y="-248" font-family="Helvetica,sans-Serif" font-size="10.00">mom_ocmip2_cfc::register</text>
<text text-anchor="middle" x="385.5" y="-237" font-family="Helvetica,sans-Serif" font-size="10.00">_ocmip2_cfc</text>
</a>
</g>
</g>
<!-- Node16&#45;&gt;Node34 -->
<g id="edge24" class="edge"><title>Node16&#45;&gt;Node34</title>
<path fill="none" stroke="midnightblue" d="M226.097,-448.258C235.266,-408.868 261.088,-320.014 316,-270 320.212,-266.164 325.059,-262.904 330.189,-260.136"/>
<polygon fill="midnightblue" stroke="midnightblue" points="222.643,-447.668 223.899,-458.188 229.477,-449.181 222.643,-447.668"/>
</g>
<!-- Node35 -->
<g id="node22" class="node"><title>Node35</title>
<g id="a_node22"><a xlink:href="namespaceoil__tracer.html#ae9bef348e3fea3af157e841a0c9f6aeb" target="_top" xlink:title="oil_tracer::register\l_oil_tracer">
<polygon fill="white" stroke="black" points="338,-181 338,-211 433,-211 433,-181 338,-181"/>
<text text-anchor="start" x="346" y="-199" font-family="Helvetica,sans-Serif" font-size="10.00">oil_tracer::register</text>
<text text-anchor="middle" x="385.5" y="-188" font-family="Helvetica,sans-Serif" font-size="10.00">_oil_tracer</text>
</a>
</g>
</g>
<!-- Node16&#45;&gt;Node35 -->
<g id="edge25" class="edge"><title>Node16&#45;&gt;Node35</title>
<path fill="none" stroke="midnightblue" d="M223.984,-448.279C229.659,-402.119 250.052,-286.051 316,-221 322.129,-214.955 329.835,-210.357 337.848,-206.864"/>
<polygon fill="midnightblue" stroke="midnightblue" points="220.482,-448.106 222.84,-458.435 227.438,-448.889 220.482,-448.106"/>
</g>
<!-- Node36 -->
<g id="node23" class="node"><title>Node36</title>
<g id="a_node23"><a xlink:href="namespacepseudo__salt__tracer.html#a147eabcabc9a787c01310dd67a5bab08" target="_top" xlink:title="pseudo_salt_tracer\l::register_pseudo_salt\l_tracer">
<polygon fill="white" stroke="black" points="329,-120.5 329,-161.5 442,-161.5 442,-120.5 329,-120.5"/>
<text text-anchor="start" x="337" y="-149.5" font-family="Helvetica,sans-Serif" font-size="10.00">pseudo_salt_tracer</text>
<text text-anchor="start" x="337" y="-138.5" font-family="Helvetica,sans-Serif" font-size="10.00">::register_pseudo_salt</text>
<text text-anchor="middle" x="385.5" y="-127.5" font-family="Helvetica,sans-Serif" font-size="10.00">_tracer</text>
</a>
</g>
</g>
<!-- Node16&#45;&gt;Node36 -->
<g id="edge26" class="edge"><title>Node16&#45;&gt;Node36</title>
<path fill="none" stroke="midnightblue" d="M222.893,-448.331C226.248,-396.629 242.067,-255.172 316,-172 319.729,-167.805 324.138,-164.144 328.893,-160.957"/>
<polygon fill="midnightblue" stroke="midnightblue" points="219.39,-448.277 222.326,-458.457 226.379,-448.669 219.39,-448.277"/>
</g>
<!-- Node37 -->
<g id="node24" class="node"><title>Node37</title>
<g id="a_node24"><a xlink:href="namespaceuser__tracer__example.html#a71efc349b3fbeb6f4cb2155de1f8bbe5" target="_top" xlink:title="user_tracer_example\l::user_register_tracer\l_example">
<polygon fill="white" stroke="black" points="331,-60.5 331,-101.5 440,-101.5 440,-60.5 331,-60.5"/>
<text text-anchor="start" x="339" y="-89.5" font-family="Helvetica,sans-Serif" font-size="10.00">user_tracer_example</text>
<text text-anchor="start" x="339" y="-78.5" font-family="Helvetica,sans-Serif" font-size="10.00">::user_register_tracer</text>
<text text-anchor="middle" x="385.5" y="-67.5" font-family="Helvetica,sans-Serif" font-size="10.00">_example</text>
</a>
</g>
</g>
<!-- Node16&#45;&gt;Node37 -->
<g id="edge27" class="edge"><title>Node16&#45;&gt;Node37</title>
<path fill="none" stroke="midnightblue" d="M221.542,-448.258C221.238,-389.544 228.109,-213.725 316,-111 320.136,-106.166 325.198,-102.084 330.68,-98.6421"/>
<polygon fill="midnightblue" stroke="midnightblue" points="218.044,-448.431 221.677,-458.383 225.044,-448.338 218.044,-448.431"/>
</g>
<!-- Node38 -->
<g id="node25" class="node"><title>Node38</title>
<g id="a_node25"><a xlink:href="namespacemom__controlled__forcing.html#a8bfffde62f6a555439eba94884a1fc2e" target="_top" xlink:title="This subroutine is used to allocate and register any fields in this module that should be written to ...">
<polygon fill="white" stroke="black" points="325.5,-0.5 325.5,-41.5 445.5,-41.5 445.5,-0.5 325.5,-0.5"/>
<text text-anchor="start" x="333.5" y="-29.5" font-family="Helvetica,sans-Serif" font-size="10.00">mom_controlled_forcing</text>
<text text-anchor="start" x="333.5" y="-18.5" font-family="Helvetica,sans-Serif" font-size="10.00">::register_ctrl_forcing</text>
<text text-anchor="middle" x="385.5" y="-7.5" font-family="Helvetica,sans-Serif" font-size="10.00">_restarts</text>
</a>
</g>
</g>
<!-- Node16&#45;&gt;Node38 -->
<g id="edge28" class="edge"><title>Node16&#45;&gt;Node38</title>
<path fill="none" stroke="midnightblue" d="M224.105,-448.105C232.319,-373.803 264.331,-113.622 316,-51 318.892,-47.495 322.274,-44.3877 325.957,-41.6348"/>
<polygon fill="midnightblue" stroke="midnightblue" points="220.59,-448.057 222.992,-458.376 227.549,-448.811 220.59,-448.057"/>
</g>
<!-- Node19 -->
<g id="node6" class="node"><title>Node19</title>
<g id="a_node6"><a xlink:href="namespacemom__coord__initialization.html#a6e2f4c11bc99476ea9c64a9aceac3b81" target="_top" xlink:title="MOM_initialize_coord sets up time&#45;invariant quantities related to MOM6&#39;s vertical coordinate...">
<polygon fill="white" stroke="black" points="499,-809 499,-839 623,-839 623,-809 499,-809"/>
<text text-anchor="start" x="507" y="-827" font-family="Helvetica,sans-Serif" font-size="10.00">mom_coord_initialization</text>
<text text-anchor="middle" x="561" y="-816" font-family="Helvetica,sans-Serif" font-size="10.00">::mom_initialize_coord</text>
</a>
</g>
</g>
<!-- Node18&#45;&gt;Node19 -->
<g id="edge5" class="edge"><title>Node18&#45;&gt;Node19</title>
<path fill="none" stroke="midnightblue" d="M457.923,-824C471.493,-824 485.58,-824 498.798,-824"/>
<polygon fill="midnightblue" stroke="midnightblue" points="457.67,-820.5 447.67,-824 457.67,-827.5 457.67,-820.5"/>
</g>
<!-- Node20 -->
<g id="node7" class="node"><title>Node20</title>
<g id="a_node7"><a xlink:href="namespacemom.html#a0be2869fef30e1e0604facfe1b41555d" target="_top" xlink:title="This subroutine initializes MOM. ">
<polygon fill="white" stroke="black" points="667,-716.5 667,-735.5 774,-735.5 774,-716.5 667,-716.5"/>
<text text-anchor="middle" x="720.5" y="-723.5" font-family="Helvetica,sans-Serif" font-size="10.00">mom::initialize_mom</text>
</a>
</g>
</g>
<!-- Node19&#45;&gt;Node20 -->
<g id="edge6" class="edge"><title>Node19&#45;&gt;Node20</title>
<path fill="none" stroke="midnightblue" d="M621.591,-804.853C624.826,-803.326 627.984,-801.709 631,-800 663.061,-781.831 694.754,-751.551 710.045,-735.956"/>
<polygon fill="midnightblue" stroke="midnightblue" points="620.076,-801.695 612.32,-808.912 622.884,-808.107 620.076,-801.695"/>
</g>
<!-- Node21 -->
<g id="node8" class="node"><title>Node21</title>
<g id="a_node8"><a xlink:href="MOM__driver_8F90.html#a08fffeb2d8e8acbf9ed4609be6d258c6" target="_top" xlink:title="mom_main">
<polygon fill="white" stroke="black" points="810,-716.5 810,-735.5 875,-735.5 875,-716.5 810,-716.5"/>
<text text-anchor="middle" x="842.5" y="-723.5" font-family="Helvetica,sans-Serif" font-size="10.00">mom_main</text>
</a>
</g>
</g>
<!-- Node20&#45;&gt;Node21 -->
<g id="edge7" class="edge"><title>Node20&#45;&gt;Node21</title>
<path fill="none" stroke="midnightblue" d="M784.206,-726C793.134,-726 801.983,-726 809.958,-726"/>
<polygon fill="midnightblue" stroke="midnightblue" points="784.134,-722.5 774.134,-726 784.134,-729.5 784.134,-722.5"/>
</g>
<!-- Node23 -->
<g id="node10" class="node"><title>Node23</title>
<g id="a_node10"><a xlink:href="namespacemom__fixed__initialization.html#a6c1c054d9cda9f1bd11abba748614c92" target="_top" xlink:title="MOM_initialize_fixed sets up time&#45;invariant quantities related to MOM6&#39;s horizontal grid...">
<polygon fill="white" stroke="black" points="500.5,-760 500.5,-790 621.5,-790 621.5,-760 500.5,-760"/>
<text text-anchor="start" x="508.5" y="-778" font-family="Helvetica,sans-Serif" font-size="10.00">mom_fixed_initialization</text>
<text text-anchor="middle" x="561" y="-767" font-family="Helvetica,sans-Serif" font-size="10.00">::mom_initialize_fixed</text>
</a>
</g>
</g>
<!-- Node22&#45;&gt;Node23 -->
<g id="edge9" class="edge"><title>Node22&#45;&gt;Node23</title>
<path fill="none" stroke="midnightblue" d="M465.338,-775C477.103,-775 489.063,-775 500.344,-775"/>
<polygon fill="midnightblue" stroke="midnightblue" points="465.072,-771.5 455.072,-775 465.072,-778.5 465.072,-771.5"/>
</g>
<!-- Node23&#45;&gt;Node20 -->
<g id="edge10" class="edge"><title>Node23&#45;&gt;Node20</title>
<path fill="none" stroke="midnightblue" d="M620.306,-756.86C643.517,-749.639 669.273,-741.626 688.722,-735.575"/>
<polygon fill="midnightblue" stroke="midnightblue" points="619.049,-753.586 610.54,-759.899 621.129,-760.27 619.049,-753.586"/>
</g>
<!-- Node24&#45;&gt;Node20 -->
<g id="edge12" class="edge"><title>Node24&#45;&gt;Node20</title>
<path fill="none" stroke="midnightblue" d="M633.233,-726C644.585,-726 656.148,-726 666.966,-726"/>
<polygon fill="midnightblue" stroke="midnightblue" points="632.894,-722.5 622.894,-726 632.894,-729.5 632.894,-722.5"/>
</g>
<!-- Node25&#45;&gt;Node20 -->
<g id="edge14" class="edge"><title>Node25&#45;&gt;Node20</title>
<path fill="none" stroke="midnightblue" d="M630.659,-694.976C652.407,-702.571 675.198,-710.53 692.251,-716.484"/>
<polygon fill="midnightblue" stroke="midnightblue" points="631.69,-691.629 621.095,-691.636 629.382,-698.238 631.69,-691.629"/>
</g>
<!-- Node27&#45;&gt;Node20 -->
<g id="edge17" class="edge"><title>Node27&#45;&gt;Node20</title>
<path fill="none" stroke="midnightblue" d="M612.699,-630.542C619.047,-633.706 625.303,-637.205 631,-641 664.686,-663.441 697.119,-699.393 711.603,-716.439"/>
<polygon fill="midnightblue" stroke="midnightblue" points="613.926,-627.25 603.388,-626.149 610.939,-633.581 613.926,-627.25"/>
</g>
</g>
</svg>
        <g id="navigator" transform="translate(0 0)" fill="#404254">
                <rect fill="#f2f5e9" fill-opacity="0.5" stroke="#606060" stroke-width=".5" x="0" y="0" width="60" height="60"/>
                <use id="zoomplus" xlink:href="#zoomPlus" x="17" y="9" onmousedown="handleZoom(evt,'in')"/>
                <use id="zoomminus" xlink:href="#zoomMin" x="42" y="9" onmousedown="handleZoom(evt,'out')"/>
                <use id="reset" xlink:href="#resetDef" x="30" y="36" onmousedown="handleReset()"/>
                <g id="arrowUp" xlink:href="#dirArrow" transform="translate(30 24)" onmousedown="handlePan(0,-1)">
                  <use xlink:href="#rim" fill="#404040">
                        <set attributeName="fill" to="#808080" begin="arrowUp.mouseover" end="arrowUp.mouseout"/>
                  </use>
                  <path fill="none" stroke="white" stroke-width="1.5" d="M0,-3.0v7 M-2.5,-0.5L0,-3.0L2.5,-0.5"/>
                </g>
                <g id="arrowRight" xlink:href="#dirArrow" transform="rotate(90) translate(36 -43)" onmousedown="handlePan(1,0)">
                  <use xlink:href="#rim" fill="#404040">
                        <set attributeName="fill" to="#808080" begin="arrowRight.mouseover" end="arrowRight.mouseout"/>
                  </use>
                  <path fill="none" stroke="white" stroke-width="1.5" d="M0,-3.0v7 M-2.5,-0.5L0,-3.0L2.5,-0.5"/>
                </g>
                <g id="arrowDown" xlink:href="#dirArrow" transform="rotate(180) translate(-30 -48)" onmousedown="handlePan(0,1)">
                  <use xlink:href="#rim" fill="#404040">
                        <set attributeName="fill" to="#808080" begin="arrowDown.mouseover" end="arrowDown.mouseout"/>
                  </use>
                  <path fill="none" stroke="white" stroke-width="1.5" d="M0,-3.0v7 M-2.5,-0.5L0,-3.0L2.5,-0.5"/>
                </g>
                <g id="arrowLeft" xlink:href="#dirArrow" transform="rotate(270) translate(-36 17)" onmousedown="handlePan(-1,0)">
                  <use xlink:href="#rim" fill="#404040">
                        <set attributeName="fill" to="#808080" begin="arrowLeft.mouseover" end="arrowLeft.mouseout"/>
                  </use>
                  <path fill="none" stroke="white" stroke-width="1.5" d="M0,-3.0v7 M-2.5,-0.5L0,-3.0L2.5,-0.5"/>
                </g>
        </g>
        <svg viewBox="0 0 15 15" width="100%" height="30px" preserveAspectRatio="xMaxYMin meet">
         <g id="arrow_out" transform="scale(0.3 0.3)">
          <a xlink:href="namespacemom__io_af96b29cb8410d557e8e452b81586223b_icgraph_org.svg" target="_base">
           <rect id="button" ry="5" rx="5" y="6" x="6" height="38" width="38"
                fill="#f2f5e9" fill-opacity="0.5" stroke="#606060" stroke-width="1.0"/>
           <path id="arrow"
             d="M 11.500037,31.436501 C 11.940474,20.09759 22.043105,11.32322 32.158766,21.979434 L 37.068811,17.246167 C 37.068811,17.246167 37.088388,32 37.088388,32 L 22.160133,31.978069 C 22.160133,31.978069 26.997745,27.140456 26.997745,27.140456 C 18.528582,18.264221 13.291696,25.230495 11.500037,31.436501 z"
             style="fill:#404040;"/>
          </a>
         </g>
        </svg>
</svg>
