<?xml version="1.0" encoding="UTF-8" standalone="no"?>
<!DOCTYPE svg PUBLIC "-//W3C//DTD SVG 1.1//EN"
 "http://www.w3.org/Graphics/SVG/1.1/DTD/svg11.dtd">
<!-- Generated by graphviz version 2.38.0 (20140413.2041)
 -->
<!-- Title: mom_set_visc::set_viscous_bbl Pages: 1 -->
<svg width="619pt" height="154pt"
 viewBox="0.00 0.00 619.00 153.50" xmlns="http://www.w3.org/2000/svg" xmlns:xlink="http://www.w3.org/1999/xlink">
<g id="graph0" class="graph" transform="scale(1 1) rotate(0) translate(4 149.5)">
<title>mom_set_visc::set_viscous_bbl</title>
<polygon fill="white" stroke="none" points="-4,4 -4,-149.5 615,-149.5 615,4 -4,4"/>
<!-- Node34 -->
<g id="node1" class="node"><title>Node34</title>
<polygon fill="#bfbfbf" stroke="black" points="0,-57.5 0,-76.5 157,-76.5 157,-57.5 0,-57.5"/>
<text text-anchor="middle" x="78.5" y="-64.5" font-family="Helvetica,sans-Serif" font-size="10.00">mom_set_visc::set_viscous_bbl</text>
</g>
<!-- Node35 -->
<g id="node2" class="node"><title>Node35</title>
<g id="a_node2"><a xlink:href="namespacemom__eos.html#a204529f8434a0322314e6ce2a9762436" target="_top" xlink:title="Calls the appropriate subroutine to calculate density derivatives for 1&#45;D array inputs. ">
<polygon fill="white" stroke="black" points="208,-115 208,-145 312,-145 312,-115 208,-115"/>
<text text-anchor="start" x="216" y="-133" font-family="Helvetica,sans-Serif" font-size="10.00">mom_eos::calculate</text>
<text text-anchor="middle" x="260" y="-122" font-family="Helvetica,sans-Serif" font-size="10.00">_density_derivs</text>
</a>
</g>
</g>
<!-- Node34&#45;&gt;Node35 -->
<g id="edge1" class="edge"><title>Node34&#45;&gt;Node35</title>
<path fill="none" stroke="midnightblue" d="M106.762,-76.5683C133.071,-85.802 173.601,-100.027 206.229,-111.479"/>
<polygon fill="midnightblue" stroke="midnightblue" points="205.482,-114.926 216.077,-114.935 207.8,-108.321 205.482,-114.926"/>
</g>
<!-- Node36 -->
<g id="node3" class="node"><title>Node36</title>
<g id="a_node3"><a xlink:href="namespacemom__error__handler.html#a460cfb79a06c29fc249952c2a3710d67" target="_top" xlink:title="mom_error_handler::\lmom_error">
<polygon fill="white" stroke="black" points="363,-93 363,-123 469,-123 469,-93 363,-93"/>
<text text-anchor="start" x="371" y="-111" font-family="Helvetica,sans-Serif" font-size="10.00">mom_error_handler::</text>
<text text-anchor="middle" x="416" y="-100" font-family="Helvetica,sans-Serif" font-size="10.00">mom_error</text>
</a>
</g>
</g>
<!-- Node34&#45;&gt;Node36 -->
<g id="edge4" class="edge"><title>Node34&#45;&gt;Node36</title>
<path fill="none" stroke="midnightblue" d="M157.314,-76.5093C216.813,-83.7804 297.743,-93.6705 352.929,-100.415"/>
<polygon fill="midnightblue" stroke="midnightblue" points="352.573,-103.897 362.923,-101.636 353.422,-96.9487 352.573,-103.897"/>
</g>
<!-- Node38 -->
<g id="node5" class="node"><title>Node38</title>
<g id="a_node5"><a xlink:href="namespacemom__set__visc.html#a27ae4b202fb6449cef877d59bc91aa29" target="_top" xlink:title="This subroutine finds a thickness&#45;weighted value of u at the v&#45;points. ">
<polygon fill="white" stroke="black" points="193,-38.5 193,-57.5 327,-57.5 327,-38.5 193,-38.5"/>
<text text-anchor="middle" x="260" y="-45.5" font-family="Helvetica,sans-Serif" font-size="10.00">mom_set_visc::set_u_at_v</text>
</a>
</g>
</g>
<!-- Node34&#45;&gt;Node38 -->
<g id="edge5" class="edge"><title>Node34&#45;&gt;Node38</title>
<path fill="none" stroke="midnightblue" d="M157.187,-58.7768C165.607,-57.8856 174.172,-56.979 182.577,-56.0894"/>
<polygon fill="midnightblue" stroke="midnightblue" points="183.154,-59.548 192.73,-55.0147 182.417,-52.5868 183.154,-59.548"/>
</g>
<!-- Node39 -->
<g id="node6" class="node"><title>Node39</title>
<g id="a_node6"><a xlink:href="namespacemom__set__visc.html#a21407595c202ddb14499af771b6f11e9" target="_top" xlink:title="This subroutine finds a thickness&#45;weighted value of v at the u&#45;points. ">
<polygon fill="white" stroke="black" points="193,-0.5 193,-19.5 327,-19.5 327,-0.5 193,-0.5"/>
<text text-anchor="middle" x="260" y="-7.5" font-family="Helvetica,sans-Serif" font-size="10.00">mom_set_visc::set_v_at_u</text>
</a>
</g>
</g>
<!-- Node34&#45;&gt;Node39 -->
<g id="edge6" class="edge"><title>Node34&#45;&gt;Node39</title>
<path fill="none" stroke="midnightblue" d="M106.915,-57.4554C129.837,-49.5633 163.436,-38.1998 193,-29 200.045,-26.8078 207.539,-24.5654 214.855,-22.4251"/>
<polygon fill="midnightblue" stroke="midnightblue" points="216.031,-25.7286 224.662,-19.584 214.083,-19.0051 216.031,-25.7286"/>
</g>
<!-- Node35&#45;&gt;Node36 -->
<g id="edge2" class="edge"><title>Node35&#45;&gt;Node36</title>
<path fill="none" stroke="midnightblue" d="M312.28,-122.674C325.249,-120.822 339.317,-118.812 352.762,-116.891"/>
<polygon fill="midnightblue" stroke="midnightblue" points="353.488,-120.323 362.893,-115.444 352.498,-113.393 353.488,-120.323"/>
</g>
<!-- Node37 -->
<g id="node4" class="node"><title>Node37</title>
<g id="a_node4"><a xlink:href="namespacemom__error__handler.html#ad5f00a53059c72fe2332d1436c80ca71" target="_top" xlink:title="mom_error_handler::\lis_root_pe">
<polygon fill="white" stroke="black" points="505,-93 505,-123 611,-123 611,-93 505,-93"/>
<text text-anchor="start" x="513" y="-111" font-family="Helvetica,sans-Serif" font-size="10.00">mom_error_handler::</text>
<text text-anchor="middle" x="558" y="-100" font-family="Helvetica,sans-Serif" font-size="10.00">is_root_pe</text>
</a>
</g>
</g>
<!-- Node36&#45;&gt;Node37 -->
<g id="edge3" class="edge"><title>Node36&#45;&gt;Node37</title>
<path fill="none" stroke="midnightblue" d="M469.131,-108C477.421,-108 486.07,-108 494.568,-108"/>
<polygon fill="midnightblue" stroke="midnightblue" points="494.826,-111.5 504.826,-108 494.826,-104.5 494.826,-111.5"/>
</g>
</g>
</svg>
