<?xml version="1.0" encoding="UTF-8" standalone="no"?>
<!DOCTYPE svg PUBLIC "-//W3C//DTD SVG 1.1//EN"
 "http://www.w3.org/Graphics/SVG/1.1/DTD/svg11.dtd">
<!-- Generated by graphviz version 2.38.0 (20140413.2041)
 -->
<!-- Title: mom_io::var_desc Pages: 1 -->
<svg width="718pt" height="53pt"
 viewBox="0.00 0.00 718.00 52.50" xmlns="http://www.w3.org/2000/svg" xmlns:xlink="http://www.w3.org/1999/xlink">
<g id="graph0" class="graph" transform="scale(1 1) rotate(0) translate(4 48.5)">
<title>mom_io::var_desc</title>
<polygon fill="white" stroke="none" points="-4,4 -4,-48.5 714,-48.5 714,4 -4,4"/>
<!-- Node150 -->
<g id="node1" class="node"><title>Node150</title>
<polygon fill="#bfbfbf" stroke="black" points="0,-6 0,-25 97,-25 97,-6 0,-6"/>
<text text-anchor="middle" x="48.5" y="-13" font-family="Helvetica,sans-Serif" font-size="10.00">mom_io::var_desc</text>
</g>
<!-- Node151 -->
<g id="node2" class="node"><title>Node151</title>
<g id="a_node2"><a xlink:href="namespacemom__io.html#af96b29cb8410d557e8e452b81586223b" target="_top" xlink:title="This routine modifies the named elements of a vardesc type. All arguments are optional, except the vardesc type to be modified. ">
<polygon fill="white" stroke="black" points="133,-25 133,-44 259,-44 259,-25 133,-25"/>
<text text-anchor="middle" x="196" y="-32" font-family="Helvetica,sans-Serif" font-size="10.00">mom_io::modify_vardesc</text>
</a>
</g>
</g>
<!-- Node150&#45;&gt;Node151 -->
<g id="edge1" class="edge"><title>Node150&#45;&gt;Node151</title>
<path fill="none" stroke="midnightblue" d="M97.1421,-21.7213C105.363,-22.7948 114.071,-23.9319 122.769,-25.0678"/>
<polygon fill="midnightblue" stroke="midnightblue" points="122.576,-28.5723 132.945,-26.3967 123.483,-21.6312 122.576,-28.5723"/>
</g>
<!-- Node152 -->
<g id="node3" class="node"><title>Node152</title>
<g id="a_node3"><a xlink:href="namespacemom__io.html#ac4bc408e8b38dbd669842753f26ebf88" target="_top" xlink:title="Copies a string. ">
<polygon fill="white" stroke="black" points="295,-6 295,-25 426,-25 426,-6 295,-6"/>
<text text-anchor="middle" x="360.5" y="-13" font-family="Helvetica,sans-Serif" font-size="10.00">mom_io::safe_string_copy</text>
</a>
</g>
</g>
<!-- Node150&#45;&gt;Node152 -->
<g id="edge5" class="edge"><title>Node150&#45;&gt;Node152</title>
<path fill="none" stroke="midnightblue" d="M97.2581,-15.5C147.246,-15.5 226.424,-15.5 284.711,-15.5"/>
<polygon fill="midnightblue" stroke="midnightblue" points="284.974,-19.0001 294.974,-15.5 284.974,-12.0001 284.974,-19.0001"/>
</g>
<!-- Node151&#45;&gt;Node152 -->
<g id="edge2" class="edge"><title>Node151&#45;&gt;Node152</title>
<path fill="none" stroke="midnightblue" d="M259.362,-27.2084C267.725,-26.2306 276.371,-25.2197 284.917,-24.2205"/>
<polygon fill="midnightblue" stroke="midnightblue" points="285.356,-27.6931 294.882,-23.0554 284.543,-20.7405 285.356,-27.6931"/>
</g>
<!-- Node153 -->
<g id="node4" class="node"><title>Node153</title>
<g id="a_node4"><a xlink:href="namespacemom__error__handler.html#a460cfb79a06c29fc249952c2a3710d67" target="_top" xlink:title="mom_error_handler::\lmom_error">
<polygon fill="white" stroke="black" points="462,-0.5 462,-30.5 568,-30.5 568,-0.5 462,-0.5"/>
<text text-anchor="start" x="470" y="-18.5" font-family="Helvetica,sans-Serif" font-size="10.00">mom_error_handler::</text>
<text text-anchor="middle" x="515" y="-7.5" font-family="Helvetica,sans-Serif" font-size="10.00">mom_error</text>
</a>
</g>
</g>
<!-- Node152&#45;&gt;Node153 -->
<g id="edge3" class="edge"><title>Node152&#45;&gt;Node153</title>
<path fill="none" stroke="midnightblue" d="M426.174,-15.5C434.6,-15.5 443.219,-15.5 451.607,-15.5"/>
<polygon fill="midnightblue" stroke="midnightblue" points="451.695,-19.0001 461.695,-15.5 451.695,-12.0001 451.695,-19.0001"/>
</g>
<!-- Node154 -->
<g id="node5" class="node"><title>Node154</title>
<g id="a_node5"><a xlink:href="namespacemom__error__handler.html#ad5f00a53059c72fe2332d1436c80ca71" target="_top" xlink:title="mom_error_handler::\lis_root_pe">
<polygon fill="white" stroke="black" points="604,-0.5 604,-30.5 710,-30.5 710,-0.5 604,-0.5"/>
<text text-anchor="start" x="612" y="-18.5" font-family="Helvetica,sans-Serif" font-size="10.00">mom_error_handler::</text>
<text text-anchor="middle" x="657" y="-7.5" font-family="Helvetica,sans-Serif" font-size="10.00">is_root_pe</text>
</a>
</g>
</g>
<!-- Node153&#45;&gt;Node154 -->
<g id="edge4" class="edge"><title>Node153&#45;&gt;Node154</title>
<path fill="none" stroke="midnightblue" d="M568.131,-15.5C576.421,-15.5 585.07,-15.5 593.568,-15.5"/>
<polygon fill="midnightblue" stroke="midnightblue" points="593.826,-19.0001 603.826,-15.5 593.826,-12.0001 593.826,-19.0001"/>
</g>
</g>
</svg>
