<?xml version="1.0" encoding="UTF-8" standalone="no"?>
<!DOCTYPE svg PUBLIC "-//W3C//DTD SVG 1.1//EN"
 "http://www.w3.org/Graphics/SVG/1.1/DTD/svg11.dtd">
<!-- Generated by graphviz version 2.38.0 (20140413.2041)
 -->
<!-- Title: mom_neutral_diffusion::interface_scalar Pages: 1 -->
<svg width="842pt" height="141pt"
 viewBox="0.00 0.00 842.00 140.50" xmlns="http://www.w3.org/2000/svg" xmlns:xlink="http://www.w3.org/1999/xlink">
<g id="graph0" class="graph" transform="scale(1 1) rotate(0) translate(4 136.5)">
<title>mom_neutral_diffusion::interface_scalar</title>
<polygon fill="white" stroke="none" points="-4,4 -4,-136.5 838,-136.5 838,4 -4,4"/>
<!-- Node66 -->
<g id="node1" class="node"><title>Node66</title>
<polygon fill="#bfbfbf" stroke="black" points="0,-41.5 0,-71.5 115,-71.5 115,-41.5 0,-41.5"/>
<text text-anchor="start" x="8" y="-59.5" font-family="Helvetica,sans-Serif" font-size="10.00">mom_neutral_diffusion</text>
<text text-anchor="middle" x="57.5" y="-48.5" font-family="Helvetica,sans-Serif" font-size="10.00">::interface_scalar</text>
</g>
<!-- Node67 -->
<g id="node2" class="node"><title>Node67</title>
<g id="a_node2"><a xlink:href="namespacemom__neutral__diffusion.html#a53d5e3f8d7610b60644aaa9f44fd854e" target="_top" xlink:title="Calculate remapping factors for u/v columns used to map adjoining columns to a shared coordinate spac...">
<polygon fill="white" stroke="black" points="151,-91 151,-132 268,-132 268,-91 151,-91"/>
<text text-anchor="start" x="159" y="-120" font-family="Helvetica,sans-Serif" font-size="10.00">mom_neutral_diffusion</text>
<text text-anchor="start" x="159" y="-109" font-family="Helvetica,sans-Serif" font-size="10.00">::neutral_diffusion_calc</text>
<text text-anchor="middle" x="209.5" y="-98" font-family="Helvetica,sans-Serif" font-size="10.00">_coeffs</text>
</a>
</g>
</g>
<!-- Node66&#45;&gt;Node67 -->
<g id="edge1" class="edge"><title>Node66&#45;&gt;Node67</title>
<path fill="none" stroke="midnightblue" d="M108.921,-74.9875C122.88,-80.106 138.117,-85.6927 152.379,-90.9223"/>
<polygon fill="midnightblue" stroke="midnightblue" points="110.082,-71.6855 99.4882,-71.529 107.672,-78.2577 110.082,-71.6855"/>
</g>
<!-- Node69 -->
<g id="node4" class="node"><title>Node69</title>
<g id="a_node4"><a xlink:href="namespacemom__neutral__diffusion.html#a6f91c93a6363fb39395796420f25fad2" target="_top" xlink:title="Returns true if unit tests of neutral_diffusion functions fail. Otherwise returns false...">
<polygon fill="white" stroke="black" points="304,-0.5 304,-30.5 446,-30.5 446,-0.5 304,-0.5"/>
<text text-anchor="start" x="312" y="-18.5" font-family="Helvetica,sans-Serif" font-size="10.00">mom_neutral_diffusion</text>
<text text-anchor="middle" x="375" y="-7.5" font-family="Helvetica,sans-Serif" font-size="10.00">::neutral_diffusion_unit_tests</text>
</a>
</g>
</g>
<!-- Node66&#45;&gt;Node69 -->
<g id="edge3" class="edge"><title>Node66&#45;&gt;Node69</title>
<path fill="none" stroke="midnightblue" d="M116.812,-38.9192C128.071,-36.0435 139.837,-33.3909 151,-31.5 201.707,-22.9108 259.663,-18.9266 303.781,-17.0814"/>
<polygon fill="midnightblue" stroke="midnightblue" points="115.851,-35.5528 107.076,-41.4901 117.638,-42.3208 115.851,-35.5528"/>
</g>
<!-- Node73 -->
<g id="node8" class="node"><title>Node73</title>
<g id="a_node8"><a xlink:href="namespacemom__neutral__diffusion.html#a626e0189b03bbbf36c33cfa52e4f098d" target="_top" xlink:title="Returns a single column of neutral diffusion fluxes of a tracer. ">
<polygon fill="white" stroke="black" points="152,-41.5 152,-71.5 267,-71.5 267,-41.5 152,-41.5"/>
<text text-anchor="start" x="160" y="-59.5" font-family="Helvetica,sans-Serif" font-size="10.00">mom_neutral_diffusion</text>
<text text-anchor="middle" x="209.5" y="-48.5" font-family="Helvetica,sans-Serif" font-size="10.00">::neutral_surface_flux</text>
</a>
</g>
</g>
<!-- Node66&#45;&gt;Node73 -->
<g id="edge7" class="edge"><title>Node66&#45;&gt;Node73</title>
<path fill="none" stroke="midnightblue" d="M125.416,-56.5C134.194,-56.5 143.122,-56.5 151.711,-56.5"/>
<polygon fill="midnightblue" stroke="midnightblue" points="125.209,-53.0001 115.209,-56.5 125.209,-60.0001 125.209,-53.0001"/>
</g>
<!-- Node68 -->
<g id="node3" class="node"><title>Node68</title>
<g id="a_node3"><a xlink:href="namespacemom__tracer__hor__diff.html#a069e22612062290389c2630c7f90ede2" target="_top" xlink:title="Compute along&#45;coordinate diffusion of all tracers using the diffusivity in CSKhTr, or using space&#45;dependent diffusivity. Multiple iterations are used (if necessary) so that there is no limit on the acceptable time increment. ">
<polygon fill="white" stroke="black" points="483,-50.5 483,-80.5 589,-80.5 589,-50.5 483,-50.5"/>
<text text-anchor="start" x="491" y="-68.5" font-family="Helvetica,sans-Serif" font-size="10.00">mom_tracer_hor_diff</text>
<text text-anchor="middle" x="536" y="-57.5" font-family="Helvetica,sans-Serif" font-size="10.00">::tracer_hordiff</text>
</a>
</g>
</g>
<!-- Node67&#45;&gt;Node68 -->
<g id="edge2" class="edge"><title>Node67&#45;&gt;Node68</title>
<path fill="none" stroke="midnightblue" d="M278.575,-108.214C325.83,-105.185 390.09,-99.5742 446,-89.5 458.757,-87.2013 472.352,-83.9546 484.976,-80.5898"/>
<polygon fill="midnightblue" stroke="midnightblue" points="278.222,-104.729 268.457,-108.84 278.654,-111.716 278.222,-104.729"/>
</g>
<!-- Node70 -->
<g id="node5" class="node"><title>Node70</title>
<g id="a_node5"><a xlink:href="namespacemom__unit__tests.html#a71f3a2080872634c14a25a9411b59fe0" target="_top" xlink:title="Calls unit tests for other modules. Note that if a unit test returns true, a FATAL error is triggered...">
<polygon fill="white" stroke="black" points="482,-0.5 482,-30.5 590,-30.5 590,-0.5 482,-0.5"/>
<text text-anchor="start" x="490" y="-18.5" font-family="Helvetica,sans-Serif" font-size="10.00">mom_unit_tests::unit</text>
<text text-anchor="middle" x="536" y="-7.5" font-family="Helvetica,sans-Serif" font-size="10.00">_tests</text>
</a>
</g>
</g>
<!-- Node69&#45;&gt;Node70 -->
<g id="edge4" class="edge"><title>Node69&#45;&gt;Node70</title>
<path fill="none" stroke="midnightblue" d="M456.353,-15.5C465.016,-15.5 473.665,-15.5 481.89,-15.5"/>
<polygon fill="midnightblue" stroke="midnightblue" points="456.203,-12.0001 446.203,-15.5 456.203,-19.0001 456.203,-12.0001"/>
</g>
<!-- Node71 -->
<g id="node6" class="node"><title>Node71</title>
<g id="a_node6"><a xlink:href="namespacemom.html#a0be2869fef30e1e0604facfe1b41555d" target="_top" xlink:title="This subroutine initializes MOM. ">
<polygon fill="white" stroke="black" points="626,-6 626,-25 733,-25 733,-6 626,-6"/>
<text text-anchor="middle" x="679.5" y="-13" font-family="Helvetica,sans-Serif" font-size="10.00">mom::initialize_mom</text>
</a>
</g>
</g>
<!-- Node70&#45;&gt;Node71 -->
<g id="edge5" class="edge"><title>Node70&#45;&gt;Node71</title>
<path fill="none" stroke="midnightblue" d="M600.294,-15.5C608.742,-15.5 617.335,-15.5 625.581,-15.5"/>
<polygon fill="midnightblue" stroke="midnightblue" points="600.092,-12.0001 590.092,-15.5 600.092,-19.0001 600.092,-12.0001"/>
</g>
<!-- Node72 -->
<g id="node7" class="node"><title>Node72</title>
<g id="a_node7"><a xlink:href="MOM__driver_8F90.html#a08fffeb2d8e8acbf9ed4609be6d258c6" target="_top" xlink:title="mom_main">
<polygon fill="white" stroke="black" points="769,-6 769,-25 834,-25 834,-6 769,-6"/>
<text text-anchor="middle" x="801.5" y="-13" font-family="Helvetica,sans-Serif" font-size="10.00">mom_main</text>
</a>
</g>
</g>
<!-- Node71&#45;&gt;Node72 -->
<g id="edge6" class="edge"><title>Node71&#45;&gt;Node72</title>
<path fill="none" stroke="midnightblue" d="M743.206,-15.5C752.134,-15.5 760.983,-15.5 768.958,-15.5"/>
<polygon fill="midnightblue" stroke="midnightblue" points="743.134,-12.0001 733.134,-15.5 743.134,-19.0001 743.134,-12.0001"/>
</g>
<!-- Node73&#45;&gt;Node69 -->
<g id="edge10" class="edge"><title>Node73&#45;&gt;Node69</title>
<path fill="none" stroke="midnightblue" d="M276.944,-39.8382C289.218,-36.7604 301.969,-33.5629 314.036,-30.5368"/>
<polygon fill="midnightblue" stroke="midnightblue" points="276.074,-36.448 267.226,-42.2753 277.777,-43.2377 276.074,-36.448"/>
</g>
<!-- Node74 -->
<g id="node9" class="node"><title>Node74</title>
<g id="a_node9"><a xlink:href="namespacemom__neutral__diffusion.html#a0aa7d320b2d623791e7de7d879930a64" target="_top" xlink:title="Update tracer concentration due to neutral diffusion; layer thickness unchanged by this update...">
<polygon fill="white" stroke="black" points="317.5,-50.5 317.5,-80.5 432.5,-80.5 432.5,-50.5 317.5,-50.5"/>
<text text-anchor="start" x="325.5" y="-68.5" font-family="Helvetica,sans-Serif" font-size="10.00">mom_neutral_diffusion</text>
<text text-anchor="middle" x="375" y="-57.5" font-family="Helvetica,sans-Serif" font-size="10.00">::neutral_diffusion</text>
</a>
</g>
</g>
<!-- Node73&#45;&gt;Node74 -->
<g id="edge8" class="edge"><title>Node73&#45;&gt;Node74</title>
<path fill="none" stroke="midnightblue" d="M277.273,-60.1756C290.584,-60.9083 304.444,-61.6712 317.375,-62.383"/>
<polygon fill="midnightblue" stroke="midnightblue" points="277.403,-56.6775 267.226,-59.6225 277.018,-63.6669 277.403,-56.6775"/>
</g>
<!-- Node74&#45;&gt;Node68 -->
<g id="edge9" class="edge"><title>Node74&#45;&gt;Node68</title>
<path fill="none" stroke="midnightblue" d="M442.664,-65.5C456.112,-65.5 470.064,-65.5 482.924,-65.5"/>
<polygon fill="midnightblue" stroke="midnightblue" points="442.505,-62.0001 432.505,-65.5 442.505,-69.0001 442.505,-62.0001"/>
</g>
</g>
</svg>
