<?xml version="1.0" encoding="UTF-8" standalone="no"?>
<!DOCTYPE svg PUBLIC "-//W3C//DTD SVG 1.1//EN"
 "http://www.w3.org/Graphics/SVG/1.1/DTD/svg11.dtd">
<!-- Generated by graphviz version 2.38.0 (20140413.2041)
 -->
<!-- Title: mom_file_parser::read_param_char Pages: 1 -->
<svg width="676pt" height="192pt"
 viewBox="0.00 0.00 676.00 191.50" xmlns="http://www.w3.org/2000/svg" xmlns:xlink="http://www.w3.org/1999/xlink">
<g id="graph0" class="graph" transform="scale(1 1) rotate(0) translate(4 187.5)">
<title>mom_file_parser::read_param_char</title>
<polygon fill="white" stroke="none" points="-4,4 -4,-187.5 672,-187.5 672,4 -4,4"/>
<!-- Node360 -->
<g id="node1" class="node"><title>Node360</title>
<polygon fill="#bfbfbf" stroke="black" points="0,-46 0,-76 113,-76 113,-46 0,-46"/>
<text text-anchor="start" x="8" y="-64" font-family="Helvetica,sans-Serif" font-size="10.00">mom_file_parser::read</text>
<text text-anchor="middle" x="56.5" y="-53" font-family="Helvetica,sans-Serif" font-size="10.00">_param_char</text>
</g>
<!-- Node361 -->
<g id="node2" class="node"><title>Node361</title>
<g id="a_node2"><a xlink:href="namespacemom__file__parser.html#af883df6020543889b25986d6ee9701f7" target="_top" xlink:title="mom_file_parser::get\l_variable_line">
<polygon fill="white" stroke="black" points="151.5,-71 151.5,-101 259.5,-101 259.5,-71 151.5,-71"/>
<text text-anchor="start" x="159.5" y="-89" font-family="Helvetica,sans-Serif" font-size="10.00">mom_file_parser::get</text>
<text text-anchor="middle" x="205.5" y="-78" font-family="Helvetica,sans-Serif" font-size="10.00">_variable_line</text>
</a>
</g>
</g>
<!-- Node360&#45;&gt;Node361 -->
<g id="edge1" class="edge"><title>Node360&#45;&gt;Node361</title>
<path fill="none" stroke="midnightblue" d="M113.074,-70.4514C122.269,-72.0152 131.863,-73.6468 141.231,-75.2399"/>
<polygon fill="midnightblue" stroke="midnightblue" points="140.832,-78.7222 151.277,-76.9485 142.005,-71.8213 140.832,-78.7222"/>
</g>
<!-- Node367 -->
<g id="node8" class="node"><title>Node367</title>
<g id="a_node8"><a xlink:href="namespacemom__file__parser.html#a416b4a2a5b52f526ad1815f3e5a4739e" target="_top" xlink:title="mom_file_parser::strip\l_quotes">
<polygon fill="white" stroke="black" points="149,-22 149,-52 262,-52 262,-22 149,-22"/>
<text text-anchor="start" x="157" y="-40" font-family="Helvetica,sans-Serif" font-size="10.00">mom_file_parser::strip</text>
<text text-anchor="middle" x="205.5" y="-29" font-family="Helvetica,sans-Serif" font-size="10.00">_quotes</text>
</a>
</g>
</g>
<!-- Node360&#45;&gt;Node367 -->
<g id="edge8" class="edge"><title>Node360&#45;&gt;Node367</title>
<path fill="none" stroke="midnightblue" d="M113.074,-51.9266C121.489,-50.5528 130.238,-49.1244 138.842,-47.7197"/>
<polygon fill="midnightblue" stroke="midnightblue" points="139.542,-51.1519 148.847,-46.0862 138.414,-44.2433 139.542,-51.1519"/>
</g>
<!-- Node362 -->
<g id="node3" class="node"><title>Node362</title>
<g id="a_node3"><a xlink:href="namespacemom__file__parser.html#a7803aabff129cc7f56d4516bc24613f0" target="_top" xlink:title="mom_file_parser::flag\l_line_as_read">
<polygon fill="white" stroke="black" points="357,-153 357,-183 467,-183 467,-153 357,-153"/>
<text text-anchor="start" x="365" y="-171" font-family="Helvetica,sans-Serif" font-size="10.00">mom_file_parser::flag</text>
<text text-anchor="middle" x="412" y="-160" font-family="Helvetica,sans-Serif" font-size="10.00">_line_as_read</text>
</a>
</g>
</g>
<!-- Node361&#45;&gt;Node362 -->
<g id="edge2" class="edge"><title>Node361&#45;&gt;Node362</title>
<path fill="none" stroke="midnightblue" d="M229.358,-101.195C247.379,-112.622 273.477,-127.973 298,-138 313.481,-144.33 330.703,-149.693 346.941,-154.056"/>
<polygon fill="midnightblue" stroke="midnightblue" points="346.342,-157.516 356.901,-156.643 348.102,-150.741 346.342,-157.516"/>
</g>
<!-- Node363 -->
<g id="node4" class="node"><title>Node363</title>
<g id="a_node4"><a xlink:href="namespacemom__error__handler.html#ad5f00a53059c72fe2332d1436c80ca71" target="_top" xlink:title="mom_error_handler::\lis_root_pe">
<polygon fill="white" stroke="black" points="562,-71 562,-101 668,-101 668,-71 562,-71"/>
<text text-anchor="start" x="570" y="-89" font-family="Helvetica,sans-Serif" font-size="10.00">mom_error_handler::</text>
<text text-anchor="middle" x="615" y="-78" font-family="Helvetica,sans-Serif" font-size="10.00">is_root_pe</text>
</a>
</g>
</g>
<!-- Node361&#45;&gt;Node363 -->
<g id="edge3" class="edge"><title>Node361&#45;&gt;Node363</title>
<path fill="none" stroke="midnightblue" d="M259.918,-99.0048C272.343,-101.496 285.573,-103.723 298,-105 398.803,-115.355 425.239,-115.754 526,-105 534.378,-104.106 543.129,-102.746 551.726,-101.156"/>
<polygon fill="midnightblue" stroke="midnightblue" points="552.574,-104.556 561.714,-99.1976 551.228,-97.6869 552.574,-104.556"/>
</g>
<!-- Node364 -->
<g id="node5" class="node"><title>Node364</title>
<g id="a_node5"><a xlink:href="namespacemom__file__parser.html#a0c9bb1e76b09bc09bae5402e63bd0f99" target="_top" xlink:title="mom_file_parser::overridewarninghasbeenissued">
<polygon fill="white" stroke="black" points="298,-76.5 298,-95.5 526,-95.5 526,-76.5 298,-76.5"/>
<text text-anchor="middle" x="412" y="-83.5" font-family="Helvetica,sans-Serif" font-size="10.00">mom_file_parser::overridewarninghasbeenissued</text>
</a>
</g>
</g>
<!-- Node361&#45;&gt;Node364 -->
<g id="edge4" class="edge"><title>Node361&#45;&gt;Node364</title>
<path fill="none" stroke="midnightblue" d="M259.696,-86C268.48,-86 277.896,-86 287.577,-86"/>
<polygon fill="midnightblue" stroke="midnightblue" points="287.746,-89.5001 297.746,-86 287.746,-82.5001 287.746,-89.5001"/>
</g>
<!-- Node365 -->
<g id="node6" class="node"><title>Node365</title>
<g id="a_node6"><a xlink:href="namespacemom__file__parser.html#a73b11b969d303b1fc0ba5235c812fd05" target="_top" xlink:title="mom_file_parser::popblocklevel">
<polygon fill="white" stroke="black" points="335,-38.5 335,-57.5 489,-57.5 489,-38.5 335,-38.5"/>
<text text-anchor="middle" x="412" y="-45.5" font-family="Helvetica,sans-Serif" font-size="10.00">mom_file_parser::popblocklevel</text>
</a>
</g>
</g>
<!-- Node361&#45;&gt;Node365 -->
<g id="edge5" class="edge"><title>Node361&#45;&gt;Node365</title>
<path fill="none" stroke="midnightblue" d="M259.654,-74.6049C272.21,-72.0124 285.563,-69.3361 298,-67 312.138,-64.3445 327.305,-61.6732 341.792,-59.2069"/>
<polygon fill="midnightblue" stroke="midnightblue" points="342.414,-62.6515 351.692,-57.5349 341.249,-55.7492 342.414,-62.6515"/>
</g>
<!-- Node366 -->
<g id="node7" class="node"><title>Node366</title>
<g id="a_node7"><a xlink:href="namespacemom__file__parser.html#a58777b0faf747d59a793b4e238919dc6" target="_top" xlink:title="mom_file_parser::pushblocklevel">
<polygon fill="white" stroke="black" points="332.5,-0.5 332.5,-19.5 491.5,-19.5 491.5,-0.5 332.5,-0.5"/>
<text text-anchor="middle" x="412" y="-7.5" font-family="Helvetica,sans-Serif" font-size="10.00">mom_file_parser::pushblocklevel</text>
</a>
</g>
</g>
<!-- Node361&#45;&gt;Node366 -->
<g id="edge7" class="edge"><title>Node361&#45;&gt;Node366</title>
<path fill="none" stroke="midnightblue" d="M244.044,-70.9701C250.214,-67.9729 256.413,-64.6203 262,-61 279.966,-49.3591 278.692,-38.2461 298,-29 305.756,-25.2855 314.116,-22.2838 322.653,-19.8599"/>
<polygon fill="midnightblue" stroke="midnightblue" points="323.535,-23.2471 332.345,-17.3617 321.788,-16.4686 323.535,-23.2471"/>
</g>
<!-- Node365&#45;&gt;Node363 -->
<g id="edge6" class="edge"><title>Node365&#45;&gt;Node363</title>
<path fill="none" stroke="midnightblue" d="M472.91,-57.5451C490.082,-60.4242 508.808,-63.7004 526,-67 534.476,-68.6267 543.39,-70.4356 552.158,-72.2725"/>
<polygon fill="midnightblue" stroke="midnightblue" points="551.456,-75.7015 561.965,-74.35 552.907,-68.8535 551.456,-75.7015"/>
</g>
</g>
</svg>
