<?xml version="1.0" encoding="UTF-8" standalone="no"?>
<!DOCTYPE svg PUBLIC "-//W3C//DTD SVG 1.1//EN"
 "http://www.w3.org/Graphics/SVG/1.1/DTD/svg11.dtd">
<!-- Generated by graphviz version 2.38.0 (20140413.2041)
 -->
<!-- Title: mom_domains::do_group_pass Pages: 1 -->
<!--zoomable 208 -->
<svg id="main" version="1.1" xmlns="http://www.w3.org/2000/svg" xmlns:xlink="http://www.w3.org/1999/xlink" xml:space="preserve" onload="init(evt)">
<style type="text/css"><![CDATA[
.edge:hover path { stroke: red; }
.edge:hover polygon { stroke: red; fill: red; }
]]></style>
<script type="text/javascript"><![CDATA[
var edges = document.getElementsByTagName('g');
if (edges && edges.length) {
  for (var i=0;i<edges.length;i++) {
    if (edges[i].id.substr(0,4)=='edge') {
      edges[i].setAttribute('class','edge');
    }
  }
}
]]></script>
        <defs>
                <circle id="rim" cx="0" cy="0" r="7"/>
                <circle id="rim2" cx="0" cy="0" r="3.5"/>
                <g id="zoomPlus">
                        <use xlink:href="#rim" fill="#404040">
                                <set attributeName="fill" to="#808080" begin="zoomplus.mouseover" end="zoomplus.mouseout"/>
                        </use>
                        <path d="M-4,0h8M0,-4v8" fill="none" stroke="white" stroke-width="1.5" pointer-events="none"/>
                </g>
                <g id="zoomMin">
                        <use xlink:href="#rim" fill="#404040">
                                <set attributeName="fill" to="#808080" begin="zoomminus.mouseover" end="zoomminus.mouseout"/>
                        </use>
                        <path d="M-4,0h8" fill="none" stroke="white" stroke-width="1.5" pointer-events="none"/>
                </g>
                <g id="dirArrow">
                        <path fill="none" stroke="white" stroke-width="1.5" d="M0,-3.0v7 M-2.5,-0.5L0,-3.0L2.5,-0.5"/>
                </g>
               <g id="resetDef">
                       <use xlink:href="#rim2" fill="#404040">
                               <set attributeName="fill" to="#808080" begin="reset.mouseover" end="reset.mouseout"/>
                       </use>
               </g>
        </defs>

<script type="text/javascript">
var viewWidth = 723;
var viewHeight = 208;
var sectionId = 'dynsection-3';
</script>
<script xlink:href="svgpan.js"/>
<svg id="graph" class="graph">
<g id="viewport">
<title>mom_domains::do_group_pass</title>
<polygon fill="white" stroke="none" points="-4,4 -4,-204 719,-204 719,4 -4,4"/>
<!-- Node24 -->
<g id="node1" class="node"><title>Node24</title>
<polygon fill="#bfbfbf" stroke="black" points="0,-52 0,-71 152,-71 152,-52 0,-52"/>
<text text-anchor="middle" x="76" y="-59" font-family="Helvetica,sans-Serif" font-size="10.00">mom_domains::do_group_pass</text>
</g>
<!-- Node25 -->
<g id="node2" class="node"><title>Node25</title>
<g id="a_node2"><a xlink:href="namespacemom__tracer__advect.html#a4c97e84c1a3c433d0c2e84b57926bc08" target="_top" xlink:title="This routine time steps the tracer concentration using a monotonic, conservative, weakly diffusive sc...">
<polygon fill="white" stroke="black" points="193,-120.5 193,-150.5 302,-150.5 302,-120.5 193,-120.5"/>
<text text-anchor="start" x="201" y="-138.5" font-family="Helvetica,sans-Serif" font-size="10.00">mom_tracer_advect::</text>
<text text-anchor="middle" x="247.5" y="-127.5" font-family="Helvetica,sans-Serif" font-size="10.00">advect_tracer</text>
</a>
</g>
</g>
<!-- Node24&#45;&gt;Node25 -->
<g id="edge1" class="edge"><title>Node24&#45;&gt;Node25</title>
<path fill="none" stroke="midnightblue" d="M107.94,-75.2754C130.182,-85.1497 160.903,-98.7297 188,-110.5 195.496,-113.756 203.547,-117.219 211.205,-120.497"/>
<polygon fill="midnightblue" stroke="midnightblue" points="109.221,-72.015 98.6615,-71.1531 106.379,-78.412 109.221,-72.015"/>
</g>
<!-- Node28 -->
<g id="node5" class="node"><title>Node28</title>
<g id="a_node5"><a xlink:href="namespacemom__ale.html#ad53be6973c41ac37ea0abc7b3e045b4d" target="_top" xlink:title="For a state&#45;based coordinate, accelerate the process of regridding by repeatedly applying the grid ca...">
<polygon fill="white" stroke="black" points="195.5,-71.5 195.5,-101.5 299.5,-101.5 299.5,-71.5 195.5,-71.5"/>
<text text-anchor="start" x="203.5" y="-89.5" font-family="Helvetica,sans-Serif" font-size="10.00">mom_ale::ale_regrid</text>
<text text-anchor="middle" x="247.5" y="-78.5" font-family="Helvetica,sans-Serif" font-size="10.00">_accelerated</text>
</a>
</g>
</g>
<!-- Node24&#45;&gt;Node28 -->
<g id="edge4" class="edge"><title>Node24&#45;&gt;Node28</title>
<path fill="none" stroke="midnightblue" d="M151.673,-72.5138C166.403,-74.6862 181.544,-76.9195 195.283,-78.9459"/>
<polygon fill="midnightblue" stroke="midnightblue" points="151.968,-69.0194 141.564,-71.0227 150.946,-75.9445 151.968,-69.0194"/>
</g>
<!-- Node32 -->
<g id="node9" class="node"><title>Node32</title>
<g id="a_node9"><a xlink:href="namespacemom__bulk__mixed__layer.html#af4ea9156c3759dd0328f0f994fe64e71" target="_top" xlink:title="This subroutine partially steps the bulk mixed layer model. The following processes are executed...">
<polygon fill="white" stroke="black" points="188,-22.5 188,-52.5 307,-52.5 307,-22.5 188,-22.5"/>
<text text-anchor="start" x="196" y="-40.5" font-family="Helvetica,sans-Serif" font-size="10.00">mom_bulk_mixed_layer</text>
<text text-anchor="middle" x="247.5" y="-29.5" font-family="Helvetica,sans-Serif" font-size="10.00">::bulkmixedlayer</text>
</a>
</g>
</g>
<!-- Node24&#45;&gt;Node32 -->
<g id="edge8" class="edge"><title>Node24&#45;&gt;Node32</title>
<path fill="none" stroke="midnightblue" d="M154.63,-50.5081C165.76,-48.9323 177.054,-47.3331 187.738,-45.8202"/>
<polygon fill="midnightblue" stroke="midnightblue" points="153.888,-47.0781 144.478,-51.9456 154.87,-54.009 153.888,-47.0781"/>
</g>
<!-- Node33 -->
<g id="node10" class="node"><title>Node33</title>
<g id="a_node10"><a xlink:href="namespacemom__diabatic__driver.html#af76fe90c618a04d7806bc53fe0f7a2a7" target="_top" xlink:title="This subroutine imposes the diapycnal mass fluxes and the accompanying diapycnal advection of momentu...">
<polygon fill="white" stroke="black" points="353.5,-0.5 353.5,-30.5 460.5,-30.5 460.5,-0.5 353.5,-0.5"/>
<text text-anchor="start" x="361.5" y="-18.5" font-family="Helvetica,sans-Serif" font-size="10.00">mom_diabatic_driver</text>
<text text-anchor="middle" x="407" y="-7.5" font-family="Helvetica,sans-Serif" font-size="10.00">::diabatic</text>
</a>
</g>
</g>
<!-- Node24&#45;&gt;Node33 -->
<g id="edge10" class="edge"><title>Node24&#45;&gt;Node33</title>
<path fill="none" stroke="midnightblue" d="M101.747,-46.98C123.601,-35.0524 156.759,-19.0888 188,-12.5 243.554,-0.783466 308.85,-3.82721 353.399,-8.35659"/>
<polygon fill="midnightblue" stroke="midnightblue" points="99.8504,-44.0307 92.831,-51.9666 103.267,-50.1401 99.8504,-44.0307"/>
</g>
<!-- Node26 -->
<g id="node3" class="node"><title>Node26</title>
<g id="a_node3"><a xlink:href="namespacemom__offline__main.html#ae85546d26ceb447742abe3c528cad2d7" target="_top" xlink:title="3D advection is done by doing flux&#45;limited nonlinear horizontal advection interspersed with an ALE re...">
<polygon fill="white" stroke="black" points="343,-169.5 343,-199.5 471,-199.5 471,-169.5 343,-169.5"/>
<text text-anchor="start" x="351" y="-187.5" font-family="Helvetica,sans-Serif" font-size="10.00">mom_offline_main::offline</text>
<text text-anchor="middle" x="407" y="-176.5" font-family="Helvetica,sans-Serif" font-size="10.00">_advection_ale</text>
</a>
</g>
</g>
<!-- Node25&#45;&gt;Node26 -->
<g id="edge2" class="edge"><title>Node25&#45;&gt;Node26</title>
<path fill="none" stroke="midnightblue" d="M306.72,-153.613C323.464,-158.822 341.54,-164.446 357.62,-169.448"/>
<polygon fill="midnightblue" stroke="midnightblue" points="307.629,-150.23 297.04,-150.601 305.549,-156.914 307.629,-150.23"/>
</g>
<!-- Node27 -->
<g id="node4" class="node"><title>Node27</title>
<g id="a_node4"><a xlink:href="namespacemom__offline__main.html#a312c47e83e64a6bdf064526f77a8a8ec" target="_top" xlink:title="In the case where the main advection routine did not converge, something needs to be done with the re...">
<polygon fill="white" stroke="black" points="343,-120.5 343,-150.5 471,-150.5 471,-120.5 343,-120.5"/>
<text text-anchor="start" x="351" y="-138.5" font-family="Helvetica,sans-Serif" font-size="10.00">mom_offline_main::offline</text>
<text text-anchor="middle" x="407" y="-127.5" font-family="Helvetica,sans-Serif" font-size="10.00">_redistribute_residual</text>
</a>
</g>
</g>
<!-- Node25&#45;&gt;Node27 -->
<g id="edge3" class="edge"><title>Node25&#45;&gt;Node27</title>
<path fill="none" stroke="midnightblue" d="M312.571,-135.5C322.604,-135.5 332.968,-135.5 342.978,-135.5"/>
<polygon fill="midnightblue" stroke="midnightblue" points="312.262,-132 302.262,-135.5 312.262,-139 312.262,-132"/>
</g>
<!-- Node29 -->
<g id="node6" class="node"><title>Node29</title>
<g id="a_node6"><a xlink:href="namespacemom__state__initialization.html#af4e854627c6572332ba3fd895f169321" target="_top" xlink:title="mom_state_initialization\l::mom_initialize_state">
<polygon fill="white" stroke="black" points="346,-71.5 346,-101.5 468,-101.5 468,-71.5 346,-71.5"/>
<text text-anchor="start" x="354" y="-89.5" font-family="Helvetica,sans-Serif" font-size="10.00">mom_state_initialization</text>
<text text-anchor="middle" x="407" y="-78.5" font-family="Helvetica,sans-Serif" font-size="10.00">::mom_initialize_state</text>
</a>
</g>
</g>
<!-- Node28&#45;&gt;Node29 -->
<g id="edge5" class="edge"><title>Node28&#45;&gt;Node29</title>
<path fill="none" stroke="midnightblue" d="M309.847,-86.5C321.66,-86.5 334.023,-86.5 345.799,-86.5"/>
<polygon fill="midnightblue" stroke="midnightblue" points="309.636,-83.0001 299.636,-86.5 309.636,-90.0001 309.636,-83.0001"/>
</g>
<!-- Node30 -->
<g id="node7" class="node"><title>Node30</title>
<g id="a_node7"><a xlink:href="namespacemom.html#a0be2869fef30e1e0604facfe1b41555d" target="_top" xlink:title="This subroutine initializes MOM. ">
<polygon fill="white" stroke="black" points="507,-77 507,-96 614,-96 614,-77 507,-77"/>
<text text-anchor="middle" x="560.5" y="-84" font-family="Helvetica,sans-Serif" font-size="10.00">mom::initialize_mom</text>
</a>
</g>
</g>
<!-- Node29&#45;&gt;Node30 -->
<g id="edge6" class="edge"><title>Node29&#45;&gt;Node30</title>
<path fill="none" stroke="midnightblue" d="M478.538,-86.5C488.028,-86.5 497.627,-86.5 506.737,-86.5"/>
<polygon fill="midnightblue" stroke="midnightblue" points="478.312,-83.0001 468.312,-86.5 478.312,-90.0001 478.312,-83.0001"/>
</g>
<!-- Node31 -->
<g id="node8" class="node"><title>Node31</title>
<g id="a_node8"><a xlink:href="MOM__driver_8F90.html#a08fffeb2d8e8acbf9ed4609be6d258c6" target="_top" xlink:title="mom_main">
<polygon fill="white" stroke="black" points="650,-77 650,-96 715,-96 715,-77 650,-77"/>
<text text-anchor="middle" x="682.5" y="-84" font-family="Helvetica,sans-Serif" font-size="10.00">mom_main</text>
</a>
</g>
</g>
<!-- Node30&#45;&gt;Node31 -->
<g id="edge7" class="edge"><title>Node30&#45;&gt;Node31</title>
<path fill="none" stroke="midnightblue" d="M624.206,-86.5C633.134,-86.5 641.983,-86.5 649.958,-86.5"/>
<polygon fill="midnightblue" stroke="midnightblue" points="624.134,-83.0001 614.134,-86.5 624.134,-90.0001 624.134,-83.0001"/>
</g>
<!-- Node32&#45;&gt;Node33 -->
<g id="edge9" class="edge"><title>Node32&#45;&gt;Node33</title>
<path fill="none" stroke="midnightblue" d="M317.203,-27.9033C329.295,-26.2143 341.709,-24.4804 353.278,-22.8644"/>
<polygon fill="midnightblue" stroke="midnightblue" points="316.567,-24.4582 307.147,-29.308 317.535,-31.3909 316.567,-24.4582"/>
</g>
</g>
</svg>
        <g id="navigator" transform="translate(0 0)" fill="#404254">
                <rect fill="#f2f5e9" fill-opacity="0.5" stroke="#606060" stroke-width=".5" x="0" y="0" width="60" height="60"/>
                <use id="zoomplus" xlink:href="#zoomPlus" x="17" y="9" onmousedown="handleZoom(evt,'in')"/>
                <use id="zoomminus" xlink:href="#zoomMin" x="42" y="9" onmousedown="handleZoom(evt,'out')"/>
                <use id="reset" xlink:href="#resetDef" x="30" y="36" onmousedown="handleReset()"/>
                <g id="arrowUp" xlink:href="#dirArrow" transform="translate(30 24)" onmousedown="handlePan(0,-1)">
                  <use xlink:href="#rim" fill="#404040">
                        <set attributeName="fill" to="#808080" begin="arrowUp.mouseover" end="arrowUp.mouseout"/>
                  </use>
                  <path fill="none" stroke="white" stroke-width="1.5" d="M0,-3.0v7 M-2.5,-0.5L0,-3.0L2.5,-0.5"/>
                </g>
                <g id="arrowRight" xlink:href="#dirArrow" transform="rotate(90) translate(36 -43)" onmousedown="handlePan(1,0)">
                  <use xlink:href="#rim" fill="#404040">
                        <set attributeName="fill" to="#808080" begin="arrowRight.mouseover" end="arrowRight.mouseout"/>
                  </use>
                  <path fill="none" stroke="white" stroke-width="1.5" d="M0,-3.0v7 M-2.5,-0.5L0,-3.0L2.5,-0.5"/>
                </g>
                <g id="arrowDown" xlink:href="#dirArrow" transform="rotate(180) translate(-30 -48)" onmousedown="handlePan(0,1)">
                  <use xlink:href="#rim" fill="#404040">
                        <set attributeName="fill" to="#808080" begin="arrowDown.mouseover" end="arrowDown.mouseout"/>
                  </use>
                  <path fill="none" stroke="white" stroke-width="1.5" d="M0,-3.0v7 M-2.5,-0.5L0,-3.0L2.5,-0.5"/>
                </g>
                <g id="arrowLeft" xlink:href="#dirArrow" transform="rotate(270) translate(-36 17)" onmousedown="handlePan(-1,0)">
                  <use xlink:href="#rim" fill="#404040">
                        <set attributeName="fill" to="#808080" begin="arrowLeft.mouseover" end="arrowLeft.mouseout"/>
                  </use>
                  <path fill="none" stroke="white" stroke-width="1.5" d="M0,-3.0v7 M-2.5,-0.5L0,-3.0L2.5,-0.5"/>
                </g>
        </g>
        <svg viewBox="0 0 15 15" width="100%" height="30px" preserveAspectRatio="xMaxYMin meet">
         <g id="arrow_out" transform="scale(0.3 0.3)">
          <a xlink:href="namespacemom__domains_ac90ecdd1f8397352dfa996ae7198b0ef_icgraph_org.svg" target="_base">
           <rect id="button" ry="5" rx="5" y="6" x="6" height="38" width="38"
                fill="#f2f5e9" fill-opacity="0.5" stroke="#606060" stroke-width="1.0"/>
           <path id="arrow"
             d="M 11.500037,31.436501 C 11.940474,20.09759 22.043105,11.32322 32.158766,21.979434 L 37.068811,17.246167 C 37.068811,17.246167 37.088388,32 37.088388,32 L 22.160133,31.978069 C 22.160133,31.978069 26.997745,27.140456 26.997745,27.140456 C 18.528582,18.264221 13.291696,25.230495 11.500037,31.436501 z"
             style="fill:#404040;"/>
          </a>
         </g>
        </svg>
</svg>
