<?xml version="1.0" encoding="UTF-8" standalone="no"?>
<!DOCTYPE svg PUBLIC "-//W3C//DTD SVG 1.1//EN"
 "http://www.w3.org/Graphics/SVG/1.1/DTD/svg11.dtd">
<!-- Generated by graphviz version 2.38.0 (20140413.2041)
 -->
<!-- Title: regrid_consts::coordinatemode Pages: 1 -->
<svg width="346pt" height="274pt"
 viewBox="0.00 0.00 346.00 273.50" xmlns="http://www.w3.org/2000/svg" xmlns:xlink="http://www.w3.org/1999/xlink">
<g id="graph0" class="graph" transform="scale(1 1) rotate(0) translate(4 269.5)">
<title>regrid_consts::coordinatemode</title>
<polygon fill="white" stroke="none" points="-4,4 -4,-269.5 342,-269.5 342,4 -4,4"/>
<!-- Node4 -->
<g id="node1" class="node"><title>Node4</title>
<polygon fill="#bfbfbf" stroke="black" points="0,-128 0,-147 150,-147 150,-128 0,-128"/>
<text text-anchor="middle" x="75" y="-135" font-family="Helvetica,sans-Serif" font-size="10.00">regrid_consts::coordinatemode</text>
</g>
<!-- Node5 -->
<g id="node2" class="node"><title>Node5</title>
<g id="a_node2"><a xlink:href="namespaceregrid__consts.html#abb7bad7b33524d0373426750c48cb1c6" target="_top" xlink:title="Returns a string with the coordinate units associated with the string defining the coordinate mode...">
<polygon fill="white" stroke="black" points="186,-246 186,-265 338,-265 338,-246 186,-246"/>
<text text-anchor="middle" x="262" y="-253" font-family="Helvetica,sans-Serif" font-size="10.00">regrid_consts::coordinateunitss</text>
</a>
</g>
</g>
<!-- Node4&#45;&gt;Node5 -->
<g id="edge1" class="edge"><title>Node4&#45;&gt;Node5</title>
<path fill="none" stroke="midnightblue" d="M90.2616,-154.722C109.632,-176.974 146.41,-215.36 186,-236.5 193.228,-240.359 201.269,-243.458 209.327,-245.94"/>
<polygon fill="midnightblue" stroke="midnightblue" points="92.8729,-152.39 83.7206,-147.053 87.547,-156.932 92.8729,-152.39"/>
</g>
<!-- Node6 -->
<g id="node3" class="node"><title>Node6</title>
<g id="a_node3"><a xlink:href="namespacemom__diag__remap.html#ac557898257c62be5c83415bfb60797bd" target="_top" xlink:title="Configure the vertical axes for a diagnostic remapping control structure. Reads a configuration param...">
<polygon fill="white" stroke="black" points="202,-196.5 202,-226.5 322,-226.5 322,-196.5 202,-196.5"/>
<text text-anchor="start" x="210" y="-214.5" font-family="Helvetica,sans-Serif" font-size="10.00">mom_diag_remap::diag</text>
<text text-anchor="middle" x="262" y="-203.5" font-family="Helvetica,sans-Serif" font-size="10.00">_remap_configure_axes</text>
</a>
</g>
</g>
<!-- Node4&#45;&gt;Node6 -->
<g id="edge2" class="edge"><title>Node4&#45;&gt;Node6</title>
<path fill="none" stroke="midnightblue" d="M104.283,-151.462C126.273,-162.046 157.699,-176.583 186,-187.5 194.036,-190.6 202.659,-193.627 211.093,-196.431"/>
<polygon fill="midnightblue" stroke="midnightblue" points="105.706,-148.262 95.1807,-147.047 102.651,-154.56 105.706,-148.262"/>
</g>
<!-- Node7 -->
<g id="node4" class="node"><title>Node7</title>
<g id="a_node4"><a xlink:href="namespacemom__diag__remap.html#a4b76283906971bcb94e85c0ed25f4e7b" target="_top" xlink:title="Remap diagnostic field to alternative vertical grid. ">
<polygon fill="white" stroke="black" points="203,-147.5 203,-177.5 321,-177.5 321,-147.5 203,-147.5"/>
<text text-anchor="start" x="211" y="-165.5" font-family="Helvetica,sans-Serif" font-size="10.00">mom_diag_remap::diag</text>
<text text-anchor="middle" x="262" y="-154.5" font-family="Helvetica,sans-Serif" font-size="10.00">_remap_do_remap</text>
</a>
</g>
</g>
<!-- Node4&#45;&gt;Node7 -->
<g id="edge3" class="edge"><title>Node4&#45;&gt;Node7</title>
<path fill="none" stroke="midnightblue" d="M156.59,-148.39C172.12,-150.489 188.106,-152.649 202.756,-154.629"/>
<polygon fill="midnightblue" stroke="midnightblue" points="156.847,-144.894 146.468,-147.023 155.909,-151.83 156.847,-144.894"/>
</g>
<!-- Node8 -->
<g id="node5" class="node"><title>Node8</title>
<g id="a_node5"><a xlink:href="namespacemom__diag__remap.html#a0607b4ad01c1d80f181aa7450ba4f703" target="_top" xlink:title="Initialize a diagnostic remapping type with the given vertical coordinate. ">
<polygon fill="white" stroke="black" points="203,-98.5 203,-128.5 321,-128.5 321,-98.5 203,-98.5"/>
<text text-anchor="start" x="211" y="-116.5" font-family="Helvetica,sans-Serif" font-size="10.00">mom_diag_remap::diag</text>
<text text-anchor="middle" x="262" y="-105.5" font-family="Helvetica,sans-Serif" font-size="10.00">_remap_init</text>
</a>
</g>
</g>
<!-- Node4&#45;&gt;Node8 -->
<g id="edge4" class="edge"><title>Node4&#45;&gt;Node8</title>
<path fill="none" stroke="midnightblue" d="M159.455,-126.673C174.101,-124.773 189.053,-122.834 202.822,-121.047"/>
<polygon fill="midnightblue" stroke="midnightblue" points="158.849,-123.223 149.383,-127.98 159.75,-130.164 158.849,-123.223"/>
</g>
<!-- Node9 -->
<g id="node6" class="node"><title>Node9</title>
<g id="a_node6"><a xlink:href="namespacemom__diag__remap.html#a1fb71d2982777f33bcbf183187e1819b" target="_top" xlink:title="Build/update target vertical grids for diagnostic remapping. ">
<polygon fill="white" stroke="black" points="203,-49.5 203,-79.5 321,-79.5 321,-49.5 203,-49.5"/>
<text text-anchor="start" x="211" y="-67.5" font-family="Helvetica,sans-Serif" font-size="10.00">mom_diag_remap::diag</text>
<text text-anchor="middle" x="262" y="-56.5" font-family="Helvetica,sans-Serif" font-size="10.00">_remap_update</text>
</a>
</g>
</g>
<!-- Node4&#45;&gt;Node9 -->
<g id="edge5" class="edge"><title>Node4&#45;&gt;Node9</title>
<path fill="none" stroke="midnightblue" d="M105.586,-123.729C127.56,-113.712 158.381,-100.105 186,-89.5 194.841,-86.1054 204.365,-82.7245 213.561,-79.5966"/>
<polygon fill="midnightblue" stroke="midnightblue" points="104.081,-120.568 96.4505,-127.918 106.999,-126.931 104.081,-120.568"/>
</g>
<!-- Node10 -->
<g id="node7" class="node"><title>Node10</title>
<g id="a_node7"><a xlink:href="namespaceregrid__consts.html#ab231ec7fa57aa5630c057ecbf9fbb95d" target="_top" xlink:title="Returns true if the coordinate is dependent on the state density, returns false otherwise. ">
<polygon fill="white" stroke="black" points="210.5,-0.5 210.5,-30.5 313.5,-30.5 313.5,-0.5 210.5,-0.5"/>
<text text-anchor="start" x="218.5" y="-18.5" font-family="Helvetica,sans-Serif" font-size="10.00">regrid_consts::state</text>
<text text-anchor="middle" x="262" y="-7.5" font-family="Helvetica,sans-Serif" font-size="10.00">_dependent_char</text>
</a>
</g>
</g>
<!-- Node4&#45;&gt;Node10 -->
<g id="edge6" class="edge"><title>Node4&#45;&gt;Node10</title>
<path fill="none" stroke="midnightblue" d="M91.1825,-120.418C111.047,-99.0072 147.842,-62.4601 186,-40.5 193.494,-36.1869 201.842,-32.4827 210.17,-29.3487"/>
<polygon fill="midnightblue" stroke="midnightblue" points="88.5834,-118.074 84.4304,-127.821 93.7552,-122.791 88.5834,-118.074"/>
</g>
</g>
</svg>
