<?xml version="1.0" encoding="UTF-8" standalone="no"?>
<!DOCTYPE svg PUBLIC "-//W3C//DTD SVG 1.1//EN"
 "http://www.w3.org/Graphics/SVG/1.1/DTD/svg11.dtd">
<!-- Generated by graphviz version 2.38.0 (20140413.2041)
 -->
<!-- Title: mom_diag_remap::horizontally_average_diag_field Pages: 1 -->
<svg width="595pt" height="39pt"
 viewBox="0.00 0.00 595.00 39.00" xmlns="http://www.w3.org/2000/svg" xmlns:xlink="http://www.w3.org/1999/xlink">
<g id="graph0" class="graph" transform="scale(1 1) rotate(0) translate(4 35)">
<title>mom_diag_remap::horizontally_average_diag_field</title>
<polygon fill="white" stroke="none" points="-4,4 -4,-35 591,-35 591,4 -4,4"/>
<!-- Node114 -->
<g id="node1" class="node"><title>Node114</title>
<polygon fill="#bfbfbf" stroke="black" points="0,-0.5 0,-30.5 149,-30.5 149,-0.5 0,-0.5"/>
<text text-anchor="start" x="8" y="-18.5" font-family="Helvetica,sans-Serif" font-size="10.00">mom_diag_remap::horizontally</text>
<text text-anchor="middle" x="74.5" y="-7.5" font-family="Helvetica,sans-Serif" font-size="10.00">_average_diag_field</text>
</g>
<!-- Node115 -->
<g id="node2" class="node"><title>Node115</title>
<g id="a_node2"><a xlink:href="namespacemom__diag__mediator.html#ab41a1779c5edb50aa7256477cef952ae" target="_top" xlink:title="Post the horizontally area&#45;averaged diagnostic. ">
<polygon fill="white" stroke="black" points="185,-0.5 185,-30.5 295,-30.5 295,-0.5 185,-0.5"/>
<text text-anchor="start" x="193" y="-18.5" font-family="Helvetica,sans-Serif" font-size="10.00">mom_diag_mediator::</text>
<text text-anchor="middle" x="240" y="-7.5" font-family="Helvetica,sans-Serif" font-size="10.00">post_xy_average</text>
</a>
</g>
</g>
<!-- Node114&#45;&gt;Node115 -->
<g id="edge1" class="edge"><title>Node114&#45;&gt;Node115</title>
<path fill="none" stroke="midnightblue" d="M159.307,-15.5C167.994,-15.5 176.649,-15.5 184.881,-15.5"/>
<polygon fill="midnightblue" stroke="midnightblue" points="159.119,-12.0001 149.119,-15.5 159.119,-19.0001 159.119,-12.0001"/>
</g>
<!-- Node116 -->
<g id="node3" class="node"><title>Node116</title>
<g id="a_node3"><a xlink:href="namespacemom__diag__mediator.html#ae11cae949c3f8cf68d2c70f656aa9c54" target="_top" xlink:title="mom_diag_mediator::\lpost_data_3d_low">
<polygon fill="white" stroke="black" points="331,-0.5 331,-30.5 441,-30.5 441,-0.5 331,-0.5"/>
<text text-anchor="start" x="339" y="-18.5" font-family="Helvetica,sans-Serif" font-size="10.00">mom_diag_mediator::</text>
<text text-anchor="middle" x="386" y="-7.5" font-family="Helvetica,sans-Serif" font-size="10.00">post_data_3d_low</text>
</a>
</g>
</g>
<!-- Node115&#45;&gt;Node116 -->
<g id="edge2" class="edge"><title>Node115&#45;&gt;Node116</title>
<path fill="none" stroke="midnightblue" d="M305.27,-15.5C313.75,-15.5 322.375,-15.5 330.667,-15.5"/>
<polygon fill="midnightblue" stroke="midnightblue" points="305.03,-12.0001 295.03,-15.5 305.03,-19.0001 305.03,-12.0001"/>
</g>
<!-- Node117 -->
<g id="node4" class="node"><title>Node117</title>
<g id="a_node4"><a xlink:href="namespacemom__diag__mediator.html#a70116fa6034dcf977a8bdcb4d81f9207" target="_top" xlink:title="mom_diag_mediator::\lpost_data_3d">
<polygon fill="white" stroke="black" points="477,-0.5 477,-30.5 587,-30.5 587,-0.5 477,-0.5"/>
<text text-anchor="start" x="485" y="-18.5" font-family="Helvetica,sans-Serif" font-size="10.00">mom_diag_mediator::</text>
<text text-anchor="middle" x="532" y="-7.5" font-family="Helvetica,sans-Serif" font-size="10.00">post_data_3d</text>
</a>
</g>
</g>
<!-- Node116&#45;&gt;Node117 -->
<g id="edge3" class="edge"><title>Node116&#45;&gt;Node117</title>
<path fill="none" stroke="midnightblue" d="M451.27,-15.5C459.75,-15.5 468.375,-15.5 476.667,-15.5"/>
<polygon fill="midnightblue" stroke="midnightblue" points="451.03,-12.0001 441.03,-15.5 451.03,-19.0001 451.03,-12.0001"/>
</g>
</g>
</svg>
