<?xml version="1.0" encoding="UTF-8" standalone="no"?>
<!DOCTYPE svg PUBLIC "-//W3C//DTD SVG 1.1//EN"
 "http://www.w3.org/Graphics/SVG/1.1/DTD/svg11.dtd">
<!-- Generated by graphviz version 2.38.0 (20140413.2041)
 -->
<!-- Title: mom_grid_initialize::grid_metrics_chksum Pages: 1 -->
<svg width="661pt" height="39pt"
 viewBox="0.00 0.00 661.00 39.00" xmlns="http://www.w3.org/2000/svg" xmlns:xlink="http://www.w3.org/1999/xlink">
<g id="graph0" class="graph" transform="scale(1 1) rotate(0) translate(4 35)">
<title>mom_grid_initialize::grid_metrics_chksum</title>
<polygon fill="white" stroke="none" points="-4,4 -4,-35 657,-35 657,4 -4,4"/>
<!-- Node60 -->
<g id="node1" class="node"><title>Node60</title>
<polygon fill="#bfbfbf" stroke="black" points="0,-0.5 0,-30.5 116,-30.5 116,-0.5 0,-0.5"/>
<text text-anchor="start" x="8" y="-18.5" font-family="Helvetica,sans-Serif" font-size="10.00">mom_grid_initialize</text>
<text text-anchor="middle" x="58" y="-7.5" font-family="Helvetica,sans-Serif" font-size="10.00">::grid_metrics_chksum</text>
</g>
<!-- Node61 -->
<g id="node2" class="node"><title>Node61</title>
<g id="a_node2"><a xlink:href="namespacemom__grid__initialize.html#a235a9712823e2f78e4958e8d681b6ba4" target="_top" xlink:title="set_grid_metrics is used to set the primary values in the model&#39;s horizontal grid. The bathymetry, land&#45;sea mask and any restricted channel widths are not known yet, so these are set later. ">
<polygon fill="white" stroke="black" points="152,-0.5 152,-30.5 252,-30.5 252,-0.5 152,-0.5"/>
<text text-anchor="start" x="160" y="-18.5" font-family="Helvetica,sans-Serif" font-size="10.00">mom_grid_initialize</text>
<text text-anchor="middle" x="202" y="-7.5" font-family="Helvetica,sans-Serif" font-size="10.00">::set_grid_metrics</text>
</a>
</g>
</g>
<!-- Node60&#45;&gt;Node61 -->
<g id="edge1" class="edge"><title>Node60&#45;&gt;Node61</title>
<path fill="none" stroke="midnightblue" d="M126.59,-15.5C135.04,-15.5 143.554,-15.5 151.653,-15.5"/>
<polygon fill="midnightblue" stroke="midnightblue" points="126.348,-12.0001 116.348,-15.5 126.347,-19.0001 126.348,-12.0001"/>
</g>
<!-- Node62 -->
<g id="node3" class="node"><title>Node62</title>
<g id="a_node3"><a xlink:href="namespacemom__fixed__initialization.html#a6c1c054d9cda9f1bd11abba748614c92" target="_top" xlink:title="MOM_initialize_fixed sets up time&#45;invariant quantities related to MOM6&#39;s horizontal grid...">
<polygon fill="white" stroke="black" points="288,-0.5 288,-30.5 409,-30.5 409,-0.5 288,-0.5"/>
<text text-anchor="start" x="296" y="-18.5" font-family="Helvetica,sans-Serif" font-size="10.00">mom_fixed_initialization</text>
<text text-anchor="middle" x="348.5" y="-7.5" font-family="Helvetica,sans-Serif" font-size="10.00">::mom_initialize_fixed</text>
</a>
</g>
</g>
<!-- Node61&#45;&gt;Node62 -->
<g id="edge2" class="edge"><title>Node61&#45;&gt;Node62</title>
<path fill="none" stroke="midnightblue" d="M262.433,-15.5C270.844,-15.5 279.494,-15.5 287.908,-15.5"/>
<polygon fill="midnightblue" stroke="midnightblue" points="262.325,-12.0001 252.325,-15.5 262.325,-19.0001 262.325,-12.0001"/>
</g>
<!-- Node63 -->
<g id="node4" class="node"><title>Node63</title>
<g id="a_node4"><a xlink:href="namespacemom.html#a0be2869fef30e1e0604facfe1b41555d" target="_top" xlink:title="This subroutine initializes MOM. ">
<polygon fill="white" stroke="black" points="445,-6 445,-25 552,-25 552,-6 445,-6"/>
<text text-anchor="middle" x="498.5" y="-13" font-family="Helvetica,sans-Serif" font-size="10.00">mom::initialize_mom</text>
</a>
</g>
</g>
<!-- Node62&#45;&gt;Node63 -->
<g id="edge3" class="edge"><title>Node62&#45;&gt;Node63</title>
<path fill="none" stroke="midnightblue" d="M419.522,-15.5C427.979,-15.5 436.505,-15.5 444.658,-15.5"/>
<polygon fill="midnightblue" stroke="midnightblue" points="419.271,-12.0001 409.271,-15.5 419.271,-19.0001 419.271,-12.0001"/>
</g>
<!-- Node64 -->
<g id="node5" class="node"><title>Node64</title>
<g id="a_node5"><a xlink:href="MOM__driver_8F90.html#a08fffeb2d8e8acbf9ed4609be6d258c6" target="_top" xlink:title="mom_main">
<polygon fill="white" stroke="black" points="588,-6 588,-25 653,-25 653,-6 588,-6"/>
<text text-anchor="middle" x="620.5" y="-13" font-family="Helvetica,sans-Serif" font-size="10.00">mom_main</text>
</a>
</g>
</g>
<!-- Node63&#45;&gt;Node64 -->
<g id="edge4" class="edge"><title>Node63&#45;&gt;Node64</title>
<path fill="none" stroke="midnightblue" d="M562.206,-15.5C571.134,-15.5 579.983,-15.5 587.958,-15.5"/>
<polygon fill="midnightblue" stroke="midnightblue" points="562.134,-12.0001 552.134,-15.5 562.134,-19.0001 562.134,-12.0001"/>
</g>
</g>
</svg>
