<?xml version="1.0" encoding="UTF-8" standalone="no"?>
<!DOCTYPE svg PUBLIC "-//W3C//DTD SVG 1.1//EN"
 "http://www.w3.org/Graphics/SVG/1.1/DTD/svg11.dtd">
<!-- Generated by graphviz version 2.38.0 (20140413.2041)
 -->
<!-- Title: dome_initialization::dome_initialize_topography Pages: 1 -->
<svg width="723pt" height="39pt"
 viewBox="0.00 0.00 723.00 39.00" xmlns="http://www.w3.org/2000/svg" xmlns:xlink="http://www.w3.org/1999/xlink">
<g id="graph0" class="graph" transform="scale(1 1) rotate(0) translate(4 35)">
<title>dome_initialization::dome_initialize_topography</title>
<polygon fill="white" stroke="none" points="-4,4 -4,-35 719,-35 719,4 -4,4"/>
<!-- Node16 -->
<g id="node1" class="node"><title>Node16</title>
<polygon fill="#bfbfbf" stroke="black" points="0,-0.5 0,-30.5 140,-30.5 140,-0.5 0,-0.5"/>
<text text-anchor="start" x="8" y="-18.5" font-family="Helvetica,sans-Serif" font-size="10.00">dome_initialization</text>
<text text-anchor="middle" x="70" y="-7.5" font-family="Helvetica,sans-Serif" font-size="10.00">::dome_initialize_topography</text>
</g>
<!-- Node17 -->
<g id="node2" class="node"><title>Node17</title>
<g id="a_node2"><a xlink:href="namespacemom__fixed__initialization.html#a4f19c092d796f0cbb036c96575299b11" target="_top" xlink:title="MOM_initialize_topography makes the appropriate call to set up the bathymetry. ">
<polygon fill="white" stroke="black" points="176,-0.5 176,-30.5 314,-30.5 314,-0.5 176,-0.5"/>
<text text-anchor="start" x="184" y="-18.5" font-family="Helvetica,sans-Serif" font-size="10.00">mom_fixed_initialization</text>
<text text-anchor="middle" x="245" y="-7.5" font-family="Helvetica,sans-Serif" font-size="10.00">::mom_initialize_topography</text>
</a>
</g>
</g>
<!-- Node16&#45;&gt;Node17 -->
<g id="edge1" class="edge"><title>Node16&#45;&gt;Node17</title>
<path fill="none" stroke="midnightblue" d="M150.564,-15.5C158.976,-15.5 167.475,-15.5 175.742,-15.5"/>
<polygon fill="midnightblue" stroke="midnightblue" points="150.369,-12.0001 140.369,-15.5 150.369,-19.0001 150.369,-12.0001"/>
</g>
<!-- Node18 -->
<g id="node3" class="node"><title>Node18</title>
<g id="a_node3"><a xlink:href="namespacemom__fixed__initialization.html#a6c1c054d9cda9f1bd11abba748614c92" target="_top" xlink:title="MOM_initialize_fixed sets up time&#45;invariant quantities related to MOM6&#39;s horizontal grid...">
<polygon fill="white" stroke="black" points="350,-0.5 350,-30.5 471,-30.5 471,-0.5 350,-0.5"/>
<text text-anchor="start" x="358" y="-18.5" font-family="Helvetica,sans-Serif" font-size="10.00">mom_fixed_initialization</text>
<text text-anchor="middle" x="410.5" y="-7.5" font-family="Helvetica,sans-Serif" font-size="10.00">::mom_initialize_fixed</text>
</a>
</g>
</g>
<!-- Node17&#45;&gt;Node18 -->
<g id="edge2" class="edge"><title>Node17&#45;&gt;Node18</title>
<path fill="none" stroke="midnightblue" d="M324.427,-15.5C333.014,-15.5 341.651,-15.5 349.956,-15.5"/>
<polygon fill="midnightblue" stroke="midnightblue" points="324.391,-12.0001 314.391,-15.5 324.391,-19.0001 324.391,-12.0001"/>
</g>
<!-- Node19 -->
<g id="node4" class="node"><title>Node19</title>
<g id="a_node4"><a xlink:href="namespacemom.html#a0be2869fef30e1e0604facfe1b41555d" target="_top" xlink:title="This subroutine initializes MOM. ">
<polygon fill="white" stroke="black" points="507,-6 507,-25 614,-25 614,-6 507,-6"/>
<text text-anchor="middle" x="560.5" y="-13" font-family="Helvetica,sans-Serif" font-size="10.00">mom::initialize_mom</text>
</a>
</g>
</g>
<!-- Node18&#45;&gt;Node19 -->
<g id="edge3" class="edge"><title>Node18&#45;&gt;Node19</title>
<path fill="none" stroke="midnightblue" d="M481.522,-15.5C489.979,-15.5 498.505,-15.5 506.658,-15.5"/>
<polygon fill="midnightblue" stroke="midnightblue" points="481.271,-12.0001 471.271,-15.5 481.271,-19.0001 481.271,-12.0001"/>
</g>
<!-- Node20 -->
<g id="node5" class="node"><title>Node20</title>
<g id="a_node5"><a xlink:href="MOM__driver_8F90.html#a08fffeb2d8e8acbf9ed4609be6d258c6" target="_top" xlink:title="mom_main">
<polygon fill="white" stroke="black" points="650,-6 650,-25 715,-25 715,-6 650,-6"/>
<text text-anchor="middle" x="682.5" y="-13" font-family="Helvetica,sans-Serif" font-size="10.00">mom_main</text>
</a>
</g>
</g>
<!-- Node19&#45;&gt;Node20 -->
<g id="edge4" class="edge"><title>Node19&#45;&gt;Node20</title>
<path fill="none" stroke="midnightblue" d="M624.206,-15.5C633.134,-15.5 641.983,-15.5 649.958,-15.5"/>
<polygon fill="midnightblue" stroke="midnightblue" points="624.134,-12.0001 614.134,-15.5 624.134,-19.0001 624.134,-12.0001"/>
</g>
</g>
</svg>
