<?xml version="1.0" encoding="UTF-8" standalone="no"?>
<!DOCTYPE svg PUBLIC "-//W3C//DTD SVG 1.1//EN"
 "http://www.w3.org/Graphics/SVG/1.1/DTD/svg11.dtd">
<!-- Generated by graphviz version 2.38.0 (20140413.2041)
 -->
<!-- Title: mom_neutral_diffusion::neutral_diffusion_diag_init Pages: 1 -->
<!--zoomable 346 -->
<svg id="main" version="1.1" xmlns="http://www.w3.org/2000/svg" xmlns:xlink="http://www.w3.org/1999/xlink" xml:space="preserve" onload="init(evt)">
<style type="text/css"><![CDATA[
.edge:hover path { stroke: red; }
.edge:hover polygon { stroke: red; fill: red; }
]]></style>
<script type="text/javascript"><![CDATA[
var edges = document.getElementsByTagName('g');
if (edges && edges.length) {
  for (var i=0;i<edges.length;i++) {
    if (edges[i].id.substr(0,4)=='edge') {
      edges[i].setAttribute('class','edge');
    }
  }
}
]]></script>
        <defs>
                <circle id="rim" cx="0" cy="0" r="7"/>
                <circle id="rim2" cx="0" cy="0" r="3.5"/>
                <g id="zoomPlus">
                        <use xlink:href="#rim" fill="#404040">
                                <set attributeName="fill" to="#808080" begin="zoomplus.mouseover" end="zoomplus.mouseout"/>
                        </use>
                        <path d="M-4,0h8M0,-4v8" fill="none" stroke="white" stroke-width="1.5" pointer-events="none"/>
                </g>
                <g id="zoomMin">
                        <use xlink:href="#rim" fill="#404040">
                                <set attributeName="fill" to="#808080" begin="zoomminus.mouseover" end="zoomminus.mouseout"/>
                        </use>
                        <path d="M-4,0h8" fill="none" stroke="white" stroke-width="1.5" pointer-events="none"/>
                </g>
                <g id="dirArrow">
                        <path fill="none" stroke="white" stroke-width="1.5" d="M0,-3.0v7 M-2.5,-0.5L0,-3.0L2.5,-0.5"/>
                </g>
               <g id="resetDef">
                       <use xlink:href="#rim2" fill="#404040">
                               <set attributeName="fill" to="#808080" begin="reset.mouseover" end="reset.mouseout"/>
                       </use>
               </g>
        </defs>

<script type="text/javascript">
var viewWidth = 1157;
var viewHeight = 346;
var sectionId = 'dynsection-15';
</script>
<script xlink:href="svgpan.js"/>
<svg id="graph" class="graph">
<g id="viewport">
<title>mom_neutral_diffusion::neutral_diffusion_diag_init</title>
<polygon fill="white" stroke="none" points="-4,4 -4,-341.8 1153,-341.8 1153,4 -4,4"/>
<!-- Node111 -->
<g id="node1" class="node"><title>Node111</title>
<polygon fill="#bfbfbf" stroke="black" points="0,-105 0,-135 135,-135 135,-105 0,-105"/>
<text text-anchor="start" x="8" y="-123" font-family="Helvetica,sans-Serif" font-size="10.00">mom_neutral_diffusion</text>
<text text-anchor="middle" x="67.5" y="-112" font-family="Helvetica,sans-Serif" font-size="10.00">::neutral_diffusion_diag_init</text>
</g>
<!-- Node112 -->
<g id="node2" class="node"><title>Node112</title>
<g id="a_node2"><a xlink:href="namespacemom__diag__mediator.html#aa791f75f899ae9b7cd4756165a9c2a1b" target="_top" xlink:title="Returns the &quot;diag_mediator&quot; handle for a group (native, CMOR, z&#45;coord, ...) of diagnostics derived fr...">
<polygon fill="white" stroke="black" points="171,-105 171,-135 281,-135 281,-105 171,-105"/>
<text text-anchor="start" x="179" y="-123" font-family="Helvetica,sans-Serif" font-size="10.00">mom_diag_mediator::</text>
<text text-anchor="middle" x="226" y="-112" font-family="Helvetica,sans-Serif" font-size="10.00">register_diag_field</text>
</a>
</g>
</g>
<!-- Node111&#45;&gt;Node112 -->
<g id="edge1" class="edge"><title>Node111&#45;&gt;Node112</title>
<path fill="none" stroke="midnightblue" d="M135.324,-120C143.711,-120 152.277,-120 160.625,-120"/>
<polygon fill="midnightblue" stroke="midnightblue" points="160.674,-123.5 170.674,-120 160.674,-116.5 160.674,-123.5"/>
</g>
<!-- Node113 -->
<g id="node3" class="node"><title>Node113</title>
<g id="a_node3"><a xlink:href="namespacemom__diag__mediator.html#ae50b35cba800ac5fd8975929fd2b9f4a" target="_top" xlink:title="Returns True if either the native of CMOr version of the diagnostic were registered. Updates &#39;dm_id&#39; after calling register_diag_field_expand_axes() for both native and CMOR variants of the field. ">
<polygon fill="white" stroke="black" points="317,-99.5 317,-140.5 427,-140.5 427,-99.5 317,-99.5"/>
<text text-anchor="start" x="325" y="-128.5" font-family="Helvetica,sans-Serif" font-size="10.00">mom_diag_mediator::</text>
<text text-anchor="start" x="325" y="-117.5" font-family="Helvetica,sans-Serif" font-size="10.00">register_diag_field</text>
<text text-anchor="middle" x="372" y="-106.5" font-family="Helvetica,sans-Serif" font-size="10.00">_expand_cmor</text>
</a>
</g>
</g>
<!-- Node112&#45;&gt;Node113 -->
<g id="edge2" class="edge"><title>Node112&#45;&gt;Node113</title>
<path fill="none" stroke="midnightblue" d="M281.03,-120C289.314,-120 297.936,-120 306.42,-120"/>
<polygon fill="midnightblue" stroke="midnightblue" points="306.667,-123.5 316.667,-120 306.667,-116.5 306.667,-123.5"/>
</g>
<!-- Node114 -->
<g id="node4" class="node"><title>Node114</title>
<g id="a_node4"><a xlink:href="namespacemom__diag__mediator.html#a8415b33a337b1fbc7535688eca85ab37" target="_top" xlink:title="Create a diagnostic type and attached to list. ">
<polygon fill="white" stroke="black" points="463,-236 463,-266 573,-266 573,-236 463,-236"/>
<text text-anchor="start" x="471" y="-254" font-family="Helvetica,sans-Serif" font-size="10.00">mom_diag_mediator::</text>
<text text-anchor="middle" x="518" y="-243" font-family="Helvetica,sans-Serif" font-size="10.00">add_diag_to_list</text>
</a>
</g>
</g>
<!-- Node113&#45;&gt;Node114 -->
<g id="edge3" class="edge"><title>Node113&#45;&gt;Node114</title>
<path fill="none" stroke="midnightblue" d="M395.817,-140.757C422.235,-164.79 465.574,-204.217 492.633,-228.833"/>
<polygon fill="midnightblue" stroke="midnightblue" points="490.386,-231.521 500.139,-235.661 495.097,-226.343 490.386,-231.521"/>
</g>
<!-- Node118 -->
<g id="node8" class="node"><title>Node118</title>
<g id="a_node8"><a xlink:href="namespacemom__error__handler.html#ad5f00a53059c72fe2332d1436c80ca71" target="_top" xlink:title="mom_error_handler::\lis_root_pe">
<polygon fill="white" stroke="black" points="1043,-127 1043,-157 1149,-157 1149,-127 1043,-127"/>
<text text-anchor="start" x="1051" y="-145" font-family="Helvetica,sans-Serif" font-size="10.00">mom_error_handler::</text>
<text text-anchor="middle" x="1096" y="-134" font-family="Helvetica,sans-Serif" font-size="10.00">is_root_pe</text>
</a>
</g>
</g>
<!-- Node113&#45;&gt;Node118 -->
<g id="edge14" class="edge"><title>Node113&#45;&gt;Node118</title>
<path fill="none" stroke="midnightblue" d="M427.25,-120C485.513,-120 580.808,-120 663,-120 663,-120 663,-120 811,-120 887.51,-120 975.268,-128.035 1032.74,-134.393"/>
<polygon fill="midnightblue" stroke="midnightblue" points="1032.42,-137.88 1042.75,-135.518 1033.2,-130.924 1032.42,-137.88"/>
</g>
<!-- Node122 -->
<g id="node12" class="node"><title>Node122</title>
<g id="a_node12"><a xlink:href="namespacemom__diag__mediator.html#ae0f04c145cb120fc2ab6cbfe9f166392" target="_top" xlink:title="Attaches &quot;cell_methods&quot; attribute to a variable based on defaults for axes_grp or optional arguments...">
<polygon fill="white" stroke="black" points="755,-149 755,-179 865,-179 865,-149 755,-149"/>
<text text-anchor="start" x="763" y="-167" font-family="Helvetica,sans-Serif" font-size="10.00">mom_diag_mediator::</text>
<text text-anchor="middle" x="810" y="-156" font-family="Helvetica,sans-Serif" font-size="10.00">attach_cell_methods</text>
</a>
</g>
</g>
<!-- Node113&#45;&gt;Node122 -->
<g id="edge12" class="edge"><title>Node113&#45;&gt;Node122</title>
<path fill="none" stroke="midnightblue" d="M427.173,-129.036C438.962,-130.832 451.383,-132.594 463,-134 560.929,-145.848 675.001,-154.805 744.588,-159.727"/>
<polygon fill="midnightblue" stroke="midnightblue" points="744.724,-163.245 754.944,-160.453 745.214,-156.262 744.724,-163.245"/>
</g>
<!-- Node123 -->
<g id="node13" class="node"><title>Node123</title>
<g id="a_node13"><a xlink:href="namespacemom__diag__mediator.html#a65fe8d329cf5dbfd08c98874a7a64407" target="_top" xlink:title="Log a diagnostic to the available diagnostics file. ">
<polygon fill="white" stroke="black" points="463,-61 463,-91 573,-91 573,-61 463,-61"/>
<text text-anchor="start" x="471" y="-79" font-family="Helvetica,sans-Serif" font-size="10.00">mom_diag_mediator::</text>
<text text-anchor="middle" x="518" y="-68" font-family="Helvetica,sans-Serif" font-size="10.00">log_available_diag</text>
</a>
</g>
</g>
<!-- Node113&#45;&gt;Node123 -->
<g id="edge15" class="edge"><title>Node113&#45;&gt;Node123</title>
<path fill="none" stroke="midnightblue" d="M427.03,-103.491C437.19,-100.386 447.861,-97.1259 458.159,-93.9792"/>
<polygon fill="midnightblue" stroke="midnightblue" points="459.349,-97.2753 467.89,-91.0058 457.304,-90.5808 459.349,-97.2753"/>
</g>
<!-- Node125 -->
<g id="node15" class="node"><title>Node125</title>
<g id="a_node15"><a xlink:href="namespacemom__diag__mediator.html#aca4a32fea8dade9f51e076a56b9bad2b" target="_top" xlink:title="Returns an FMS id from register_diag_field_fms (the diag_manager routine) after expanding axes (axes&#45;...">
<polygon fill="white" stroke="black" points="463,-0.5 463,-41.5 573,-41.5 573,-0.5 463,-0.5"/>
<text text-anchor="start" x="471" y="-29.5" font-family="Helvetica,sans-Serif" font-size="10.00">mom_diag_mediator::</text>
<text text-anchor="start" x="471" y="-18.5" font-family="Helvetica,sans-Serif" font-size="10.00">register_diag_field</text>
<text text-anchor="middle" x="518" y="-7.5" font-family="Helvetica,sans-Serif" font-size="10.00">_expand_axes</text>
</a>
</g>
</g>
<!-- Node113&#45;&gt;Node125 -->
<g id="edge17" class="edge"><title>Node113&#45;&gt;Node125</title>
<path fill="none" stroke="midnightblue" d="M397.874,-99.3429C415.55,-85.0636 440.117,-66.0114 463,-51 465.119,-49.6102 467.306,-48.2215 469.531,-46.8454"/>
<polygon fill="midnightblue" stroke="midnightblue" points="471.462,-49.7688 478.239,-41.6251 467.863,-43.765 471.462,-49.7688"/>
</g>
<!-- Node115 -->
<g id="node5" class="node"><title>Node115</title>
<g id="a_node5"><a xlink:href="namespacemom__diag__mediator.html#a1b0bed2113a0c268eafd1bafbb48bd4f" target="_top" xlink:title="mom_diag_mediator::\lalloc_diag_with_id">
<polygon fill="white" stroke="black" points="609,-187 609,-217 719,-217 719,-187 609,-187"/>
<text text-anchor="start" x="617" y="-205" font-family="Helvetica,sans-Serif" font-size="10.00">mom_diag_mediator::</text>
<text text-anchor="middle" x="664" y="-194" font-family="Helvetica,sans-Serif" font-size="10.00">alloc_diag_with_id</text>
</a>
</g>
</g>
<!-- Node114&#45;&gt;Node115 -->
<g id="edge4" class="edge"><title>Node114&#45;&gt;Node115</title>
<path fill="none" stroke="midnightblue" d="M563.38,-235.899C577.751,-231.008 593.853,-225.529 608.851,-220.426"/>
<polygon fill="midnightblue" stroke="midnightblue" points="610.179,-223.671 618.519,-217.136 607.924,-217.044 610.179,-223.671"/>
</g>
<!-- Node116 -->
<g id="node6" class="node"><title>Node116</title>
<g id="a_node6"><a xlink:href="namespacemom__error__handler.html#a33bcd190d460095104954f2e654f9fe6" target="_top" xlink:title="Issues a FATAL error if the assertion fails, i.e. the first argument is false. ">
<polygon fill="white" stroke="black" points="757,-307 757,-337 863,-337 863,-307 757,-307"/>
<text text-anchor="start" x="765" y="-325" font-family="Helvetica,sans-Serif" font-size="10.00">mom_error_handler::</text>
<text text-anchor="middle" x="810" y="-314" font-family="Helvetica,sans-Serif" font-size="10.00">assert</text>
</a>
</g>
</g>
<!-- Node114&#45;&gt;Node116 -->
<g id="edge5" class="edge"><title>Node114&#45;&gt;Node116</title>
<path fill="none" stroke="midnightblue" d="M531.407,-266.198C547.22,-284.234 576.437,-313.332 609,-325 653.15,-340.82 706.38,-339.113 746.822,-333.969"/>
<polygon fill="midnightblue" stroke="midnightblue" points="747.385,-337.425 756.815,-332.596 746.432,-330.49 747.385,-337.425"/>
</g>
<!-- Node119 -->
<g id="node9" class="node"><title>Node119</title>
<g id="a_node9"><a xlink:href="namespacemom__diag__mediator.html#a3f7442639213320f7429e2288a79fda2" target="_top" xlink:title="Returns a new diagnostic id, it may be necessary to expand the diagnostics array. ...">
<polygon fill="white" stroke="black" points="609,-285 609,-315 719,-315 719,-285 609,-285"/>
<text text-anchor="start" x="617" y="-303" font-family="Helvetica,sans-Serif" font-size="10.00">mom_diag_mediator::</text>
<text text-anchor="middle" x="664" y="-292" font-family="Helvetica,sans-Serif" font-size="10.00">get_new_diag_id</text>
</a>
</g>
</g>
<!-- Node114&#45;&gt;Node119 -->
<g id="edge8" class="edge"><title>Node114&#45;&gt;Node119</title>
<path fill="none" stroke="midnightblue" d="M563.38,-266.101C577.751,-270.992 593.853,-276.471 608.851,-281.574"/>
<polygon fill="midnightblue" stroke="midnightblue" points="607.924,-284.956 618.519,-284.864 610.179,-278.329 607.924,-284.956"/>
</g>
<!-- Node121 -->
<g id="node11" class="node"><title>Node121</title>
<g id="a_node11"><a xlink:href="namespacemom__diag__mediator.html#a085f313357879a914af6450f2ab8ec79" target="_top" xlink:title="Associates the mask pointers within diag with the appropriate mask based on the axes group...">
<polygon fill="white" stroke="black" points="609,-236 609,-266 719,-266 719,-236 609,-236"/>
<text text-anchor="start" x="617" y="-254" font-family="Helvetica,sans-Serif" font-size="10.00">mom_diag_mediator::</text>
<text text-anchor="middle" x="664" y="-243" font-family="Helvetica,sans-Serif" font-size="10.00">set_diag_mask</text>
</a>
</g>
</g>
<!-- Node114&#45;&gt;Node121 -->
<g id="edge11" class="edge"><title>Node114&#45;&gt;Node121</title>
<path fill="none" stroke="midnightblue" d="M573.03,-251C581.314,-251 589.936,-251 598.42,-251"/>
<polygon fill="midnightblue" stroke="midnightblue" points="598.667,-254.5 608.667,-251 598.667,-247.5 598.667,-254.5"/>
</g>
<!-- Node117 -->
<g id="node7" class="node"><title>Node117</title>
<g id="a_node7"><a xlink:href="namespacemom__error__handler.html#a460cfb79a06c29fc249952c2a3710d67" target="_top" xlink:title="mom_error_handler::\lmom_error">
<polygon fill="white" stroke="black" points="901,-149 901,-179 1007,-179 1007,-149 901,-149"/>
<text text-anchor="start" x="909" y="-167" font-family="Helvetica,sans-Serif" font-size="10.00">mom_error_handler::</text>
<text text-anchor="middle" x="954" y="-156" font-family="Helvetica,sans-Serif" font-size="10.00">mom_error</text>
</a>
</g>
</g>
<!-- Node116&#45;&gt;Node117 -->
<g id="edge6" class="edge"><title>Node116&#45;&gt;Node117</title>
<path fill="none" stroke="midnightblue" d="M851.752,-306.993C856.469,-304.376 861.012,-301.387 865,-298 901.216,-267.249 928.261,-217.927 942.264,-188.474"/>
<polygon fill="midnightblue" stroke="midnightblue" points="945.484,-189.848 946.506,-179.302 939.131,-186.909 945.484,-189.848"/>
</g>
<!-- Node117&#45;&gt;Node118 -->
<g id="edge7" class="edge"><title>Node117&#45;&gt;Node118</title>
<path fill="none" stroke="midnightblue" d="M1007.13,-155.808C1015.51,-154.491 1024.26,-153.116 1032.85,-151.767"/>
<polygon fill="midnightblue" stroke="midnightblue" points="1033.49,-155.209 1042.83,-150.199 1032.4,-148.294 1033.49,-155.209"/>
</g>
<!-- Node119&#45;&gt;Node116 -->
<g id="edge9" class="edge"><title>Node119&#45;&gt;Node116</title>
<path fill="none" stroke="midnightblue" d="M719.03,-308.255C727.96,-309.619 737.283,-311.043 746.402,-312.436"/>
<polygon fill="midnightblue" stroke="midnightblue" points="746.164,-315.941 756.578,-313.991 747.222,-309.021 746.164,-315.941"/>
</g>
<!-- Node120 -->
<g id="node10" class="node"><title>Node120</title>
<g id="a_node10"><a xlink:href="namespacemom__diag__mediator.html#a883862f004e30bbc5211f38635511ba0" target="_top" xlink:title="Initializes a diag_type (used after allocating new memory) ">
<polygon fill="white" stroke="black" points="755,-258 755,-288 865,-288 865,-258 755,-258"/>
<text text-anchor="start" x="763" y="-276" font-family="Helvetica,sans-Serif" font-size="10.00">mom_diag_mediator::</text>
<text text-anchor="middle" x="810" y="-265" font-family="Helvetica,sans-Serif" font-size="10.00">initialize_diag_type</text>
</a>
</g>
</g>
<!-- Node119&#45;&gt;Node120 -->
<g id="edge10" class="edge"><title>Node119&#45;&gt;Node120</title>
<path fill="none" stroke="midnightblue" d="M719.03,-289.869C727.405,-288.299 736.126,-286.664 744.7,-285.056"/>
<polygon fill="midnightblue" stroke="midnightblue" points="745.484,-288.47 754.667,-283.187 744.193,-281.59 745.484,-288.47"/>
</g>
<!-- Node122&#45;&gt;Node117 -->
<g id="edge13" class="edge"><title>Node122&#45;&gt;Node117</title>
<path fill="none" stroke="midnightblue" d="M865.089,-164C873.447,-164 882.138,-164 890.659,-164"/>
<polygon fill="midnightblue" stroke="midnightblue" points="890.936,-167.5 900.935,-164 890.935,-160.5 890.936,-167.5"/>
</g>
<!-- Node124 -->
<g id="node14" class="node"><title>Node124</title>
<g id="a_node14"><a xlink:href="namespacemom__diag__mediator.html#ae002ca447acba252bf7bdc042e75a01e" target="_top" xlink:title="mom_diag_mediator::\ldescribe_option">
<polygon fill="white" stroke="black" points="609,-61 609,-91 719,-91 719,-61 609,-61"/>
<text text-anchor="start" x="617" y="-79" font-family="Helvetica,sans-Serif" font-size="10.00">mom_diag_mediator::</text>
<text text-anchor="middle" x="664" y="-68" font-family="Helvetica,sans-Serif" font-size="10.00">describe_option</text>
</a>
</g>
</g>
<!-- Node123&#45;&gt;Node124 -->
<g id="edge16" class="edge"><title>Node123&#45;&gt;Node124</title>
<path fill="none" stroke="midnightblue" d="M573.03,-76C581.314,-76 589.936,-76 598.42,-76"/>
<polygon fill="midnightblue" stroke="midnightblue" points="598.667,-79.5001 608.667,-76 598.667,-72.5001 598.667,-79.5001"/>
</g>
</g>
</svg>
        <g id="navigator" transform="translate(0 0)" fill="#404254">
                <rect fill="#f2f5e9" fill-opacity="0.5" stroke="#606060" stroke-width=".5" x="0" y="0" width="60" height="60"/>
                <use id="zoomplus" xlink:href="#zoomPlus" x="17" y="9" onmousedown="handleZoom(evt,'in')"/>
                <use id="zoomminus" xlink:href="#zoomMin" x="42" y="9" onmousedown="handleZoom(evt,'out')"/>
                <use id="reset" xlink:href="#resetDef" x="30" y="36" onmousedown="handleReset()"/>
                <g id="arrowUp" xlink:href="#dirArrow" transform="translate(30 24)" onmousedown="handlePan(0,-1)">
                  <use xlink:href="#rim" fill="#404040">
                        <set attributeName="fill" to="#808080" begin="arrowUp.mouseover" end="arrowUp.mouseout"/>
                  </use>
                  <path fill="none" stroke="white" stroke-width="1.5" d="M0,-3.0v7 M-2.5,-0.5L0,-3.0L2.5,-0.5"/>
                </g>
                <g id="arrowRight" xlink:href="#dirArrow" transform="rotate(90) translate(36 -43)" onmousedown="handlePan(1,0)">
                  <use xlink:href="#rim" fill="#404040">
                        <set attributeName="fill" to="#808080" begin="arrowRight.mouseover" end="arrowRight.mouseout"/>
                  </use>
                  <path fill="none" stroke="white" stroke-width="1.5" d="M0,-3.0v7 M-2.5,-0.5L0,-3.0L2.5,-0.5"/>
                </g>
                <g id="arrowDown" xlink:href="#dirArrow" transform="rotate(180) translate(-30 -48)" onmousedown="handlePan(0,1)">
                  <use xlink:href="#rim" fill="#404040">
                        <set attributeName="fill" to="#808080" begin="arrowDown.mouseover" end="arrowDown.mouseout"/>
                  </use>
                  <path fill="none" stroke="white" stroke-width="1.5" d="M0,-3.0v7 M-2.5,-0.5L0,-3.0L2.5,-0.5"/>
                </g>
                <g id="arrowLeft" xlink:href="#dirArrow" transform="rotate(270) translate(-36 17)" onmousedown="handlePan(-1,0)">
                  <use xlink:href="#rim" fill="#404040">
                        <set attributeName="fill" to="#808080" begin="arrowLeft.mouseover" end="arrowLeft.mouseout"/>
                  </use>
                  <path fill="none" stroke="white" stroke-width="1.5" d="M0,-3.0v7 M-2.5,-0.5L0,-3.0L2.5,-0.5"/>
                </g>
        </g>
        <svg viewBox="0 0 15 15" width="100%" height="30px" preserveAspectRatio="xMaxYMin meet">
         <g id="arrow_out" transform="scale(0.3 0.3)">
          <a xlink:href="namespacemom__neutral__diffusion_a87cf821c52ac1111493d4168f0a91d17_cgraph_org.svg" target="_base">
           <rect id="button" ry="5" rx="5" y="6" x="6" height="38" width="38"
                fill="#f2f5e9" fill-opacity="0.5" stroke="#606060" stroke-width="1.0"/>
           <path id="arrow"
             d="M 11.500037,31.436501 C 11.940474,20.09759 22.043105,11.32322 32.158766,21.979434 L 37.068811,17.246167 C 37.068811,17.246167 37.088388,32 37.088388,32 L 22.160133,31.978069 C 22.160133,31.978069 26.997745,27.140456 26.997745,27.140456 C 18.528582,18.264221 13.291696,25.230495 11.500037,31.436501 z"
             style="fill:#404040;"/>
          </a>
         </g>
        </svg>
</svg>
