<?xml version="1.0" encoding="UTF-8" standalone="no"?>
<!DOCTYPE svg PUBLIC "-//W3C//DTD SVG 1.1//EN"
 "http://www.w3.org/Graphics/SVG/1.1/DTD/svg11.dtd">
<!-- Generated by graphviz version 2.38.0 (20140413.2041)
 -->
<!-- Title: mom_thickness_diffuse::vert_fill_ts Pages: 1 -->
<svg width="667pt" height="137pt"
 viewBox="0.00 0.00 667.00 137.00" xmlns="http://www.w3.org/2000/svg" xmlns:xlink="http://www.w3.org/1999/xlink">
<g id="graph0" class="graph" transform="scale(1 1) rotate(0) translate(4 133)">
<title>mom_thickness_diffuse::vert_fill_ts</title>
<polygon fill="white" stroke="none" points="-4,4 -4,-133 663,-133 663,4 -4,4"/>
<!-- Node42 -->
<g id="node1" class="node"><title>Node42</title>
<polygon fill="#bfbfbf" stroke="black" points="0,-49.5 0,-79.5 120,-79.5 120,-49.5 0,-49.5"/>
<text text-anchor="start" x="8" y="-67.5" font-family="Helvetica,sans-Serif" font-size="10.00">mom_thickness_diffuse</text>
<text text-anchor="middle" x="60" y="-56.5" font-family="Helvetica,sans-Serif" font-size="10.00">::vert_fill_ts</text>
</g>
<!-- Node43 -->
<g id="node2" class="node"><title>Node43</title>
<g id="a_node2"><a xlink:href="namespacemom__set__diffusivity.html#a8b1f646393f0ec717ca690e4f04d96e8" target="_top" xlink:title="mom_set_diffusivity\l::set_diffusivity">
<polygon fill="white" stroke="black" points="164,-98.5 164,-128.5 268,-128.5 268,-98.5 164,-98.5"/>
<text text-anchor="start" x="172" y="-116.5" font-family="Helvetica,sans-Serif" font-size="10.00">mom_set_diffusivity</text>
<text text-anchor="middle" x="216" y="-105.5" font-family="Helvetica,sans-Serif" font-size="10.00">::set_diffusivity</text>
</a>
</g>
</g>
<!-- Node42&#45;&gt;Node43 -->
<g id="edge1" class="edge"><title>Node42&#45;&gt;Node43</title>
<path fill="none" stroke="midnightblue" d="M118.386,-82.7591C134.629,-87.9273 152.119,-93.4924 167.695,-98.4484"/>
<polygon fill="midnightblue" stroke="midnightblue" points="119.052,-79.2983 108.462,-79.6014 116.93,-85.9688 119.052,-79.2983"/>
</g>
<!-- Node44 -->
<g id="node3" class="node"><title>Node44</title>
<g id="a_node3"><a xlink:href="namespacemom__int__tide__input.html#a085f75d081e7a3091ad5bdfe91858714" target="_top" xlink:title="mom_int_tide_input\l::set_int_tide_input">
<polygon fill="white" stroke="black" points="165.5,-49.5 165.5,-79.5 266.5,-79.5 266.5,-49.5 165.5,-49.5"/>
<text text-anchor="start" x="173.5" y="-67.5" font-family="Helvetica,sans-Serif" font-size="10.00">mom_int_tide_input</text>
<text text-anchor="middle" x="216" y="-56.5" font-family="Helvetica,sans-Serif" font-size="10.00">::set_int_tide_input</text>
</a>
</g>
</g>
<!-- Node42&#45;&gt;Node44 -->
<g id="edge2" class="edge"><title>Node42&#45;&gt;Node44</title>
<path fill="none" stroke="midnightblue" d="M130.365,-64.5C142.149,-64.5 154.173,-64.5 165.32,-64.5"/>
<polygon fill="midnightblue" stroke="midnightblue" points="130.1,-61.0001 120.1,-64.5 130.1,-68.0001 130.1,-61.0001"/>
</g>
<!-- Node45 -->
<g id="node4" class="node"><title>Node45</title>
<g id="a_node4"><a xlink:href="namespacemom__thickness__diffuse.html#a6124aede8bd3c29c433090de1619235b" target="_top" xlink:title="Calculates parameterized layer transports for use in the continuity equation. Fluxes are limited to g...">
<polygon fill="white" stroke="black" points="156,-0.5 156,-30.5 276,-30.5 276,-0.5 156,-0.5"/>
<text text-anchor="start" x="164" y="-18.5" font-family="Helvetica,sans-Serif" font-size="10.00">mom_thickness_diffuse</text>
<text text-anchor="middle" x="216" y="-7.5" font-family="Helvetica,sans-Serif" font-size="10.00">::thickness_diffuse_full</text>
</a>
</g>
</g>
<!-- Node42&#45;&gt;Node45 -->
<g id="edge3" class="edge"><title>Node42&#45;&gt;Node45</title>
<path fill="none" stroke="midnightblue" d="M118.386,-46.2409C134.629,-41.0727 152.119,-35.5076 167.695,-30.5516"/>
<polygon fill="midnightblue" stroke="midnightblue" points="116.93,-43.0312 108.462,-49.3986 119.052,-49.7017 116.93,-43.0312"/>
</g>
<!-- Node46 -->
<g id="node5" class="node"><title>Node46</title>
<g id="a_node5"><a xlink:href="namespacemom__thickness__diffuse.html#a9506f374762ce6d5d12424a9314fad2f" target="_top" xlink:title="Calculates thickness diffusion coefficients and applies thickness diffusion to layer thicknesses...">
<polygon fill="white" stroke="black" points="312,-0.5 312,-30.5 432,-30.5 432,-0.5 312,-0.5"/>
<text text-anchor="start" x="320" y="-18.5" font-family="Helvetica,sans-Serif" font-size="10.00">mom_thickness_diffuse</text>
<text text-anchor="middle" x="372" y="-7.5" font-family="Helvetica,sans-Serif" font-size="10.00">::thickness_diffuse</text>
</a>
</g>
</g>
<!-- Node45&#45;&gt;Node46 -->
<g id="edge4" class="edge"><title>Node45&#45;&gt;Node46</title>
<path fill="none" stroke="midnightblue" d="M286.369,-15.5C294.862,-15.5 303.48,-15.5 311.804,-15.5"/>
<polygon fill="midnightblue" stroke="midnightblue" points="286.1,-12.0001 276.1,-15.5 286.1,-19.0001 286.1,-12.0001"/>
</g>
<!-- Node47 -->
<g id="node6" class="node"><title>Node47</title>
<g id="a_node6"><a xlink:href="namespacemom.html#a4c8332b095c6d295084089aa6b3b678a" target="_top" xlink:title="This subroutine orchestrates the time stepping of MOM. The adiabatic dynamics are stepped by calls to...">
<polygon fill="white" stroke="black" points="468,-6 468,-25 558,-25 558,-6 468,-6"/>
<text text-anchor="middle" x="513" y="-13" font-family="Helvetica,sans-Serif" font-size="10.00">mom::step_mom</text>
</a>
</g>
</g>
<!-- Node46&#45;&gt;Node47 -->
<g id="edge5" class="edge"><title>Node46&#45;&gt;Node47</title>
<path fill="none" stroke="midnightblue" d="M442.502,-15.5C451.177,-15.5 459.851,-15.5 467.985,-15.5"/>
<polygon fill="midnightblue" stroke="midnightblue" points="442.352,-12.0001 432.352,-15.5 442.352,-19.0001 442.352,-12.0001"/>
</g>
<!-- Node48 -->
<g id="node7" class="node"><title>Node48</title>
<g id="a_node7"><a xlink:href="MOM__driver_8F90.html#a08fffeb2d8e8acbf9ed4609be6d258c6" target="_top" xlink:title="mom_main">
<polygon fill="white" stroke="black" points="594,-6 594,-25 659,-25 659,-6 594,-6"/>
<text text-anchor="middle" x="626.5" y="-13" font-family="Helvetica,sans-Serif" font-size="10.00">mom_main</text>
</a>
</g>
</g>
<!-- Node47&#45;&gt;Node48 -->
<g id="edge6" class="edge"><title>Node47&#45;&gt;Node48</title>
<path fill="none" stroke="midnightblue" d="M568.26,-15.5C577.006,-15.5 585.8,-15.5 593.782,-15.5"/>
<polygon fill="midnightblue" stroke="midnightblue" points="568.068,-12.0001 558.068,-15.5 568.068,-19.0001 568.068,-12.0001"/>
</g>
</g>
</svg>
