<?xml version="1.0" encoding="UTF-8" standalone="no"?>
<!DOCTYPE svg PUBLIC "-//W3C//DTD SVG 1.1//EN"
 "http://www.w3.org/Graphics/SVG/1.1/DTD/svg11.dtd">
<!-- Generated by graphviz version 2.38.0 (20140413.2041)
 -->
<!-- Title: mom_regridding::end_regridding Pages: 1 -->
<svg width="277pt" height="235pt"
 viewBox="0.00 0.00 277.00 235.00" xmlns="http://www.w3.org/2000/svg" xmlns:xlink="http://www.w3.org/1999/xlink">
<g id="graph0" class="graph" transform="scale(1 1) rotate(0) translate(4 231)">
<title>mom_regridding::end_regridding</title>
<polygon fill="white" stroke="none" points="-4,4 -4,-231 273,-231 273,4 -4,4"/>
<!-- Node107 -->
<g id="node1" class="node"><title>Node107</title>
<polygon fill="#bfbfbf" stroke="black" points="0,-98.5 0,-128.5 107,-128.5 107,-98.5 0,-98.5"/>
<text text-anchor="start" x="8" y="-116.5" font-family="Helvetica,sans-Serif" font-size="10.00">mom_regridding::end</text>
<text text-anchor="middle" x="53.5" y="-105.5" font-family="Helvetica,sans-Serif" font-size="10.00">_regridding</text>
</g>
<!-- Node108 -->
<g id="node2" class="node"><title>Node108</title>
<g id="a_node2"><a xlink:href="namespacecoord__adapt.html#a92e88dea18cc4b3adef844f58a8fc0ff" target="_top" xlink:title="Clean up the coordinate control structure. ">
<polygon fill="white" stroke="black" points="145.5,-196.5 145.5,-226.5 266.5,-226.5 266.5,-196.5 145.5,-196.5"/>
<text text-anchor="start" x="153.5" y="-214.5" font-family="Helvetica,sans-Serif" font-size="10.00">coord_adapt::end_coord</text>
<text text-anchor="middle" x="206" y="-203.5" font-family="Helvetica,sans-Serif" font-size="10.00">_adapt</text>
</a>
</g>
</g>
<!-- Node107&#45;&gt;Node108 -->
<g id="edge1" class="edge"><title>Node107&#45;&gt;Node108</title>
<path fill="none" stroke="midnightblue" d="M69.3077,-128.54C85.9988,-144.824 114.536,-170.712 143,-187.5 145.784,-189.142 148.7,-190.712 151.687,-192.205"/>
<polygon fill="midnightblue" stroke="midnightblue" points="150.255,-195.399 160.797,-196.455 153.214,-189.056 150.255,-195.399"/>
</g>
<!-- Node109 -->
<g id="node3" class="node"><title>Node109</title>
<g id="a_node3"><a xlink:href="namespacecoord__hycom.html#a30900d0417dacf88c60419208a8818e4" target="_top" xlink:title="coord_hycom::end_coord\l_hycom">
<polygon fill="white" stroke="black" points="143,-147.5 143,-177.5 269,-177.5 269,-147.5 143,-147.5"/>
<text text-anchor="start" x="151" y="-165.5" font-family="Helvetica,sans-Serif" font-size="10.00">coord_hycom::end_coord</text>
<text text-anchor="middle" x="206" y="-154.5" font-family="Helvetica,sans-Serif" font-size="10.00">_hycom</text>
</a>
</g>
</g>
<!-- Node107&#45;&gt;Node109 -->
<g id="edge2" class="edge"><title>Node107&#45;&gt;Node109</title>
<path fill="none" stroke="midnightblue" d="M100.883,-128.601C116.118,-133.562 133.213,-139.127 149.078,-144.293"/>
<polygon fill="midnightblue" stroke="midnightblue" points="148.178,-147.681 158.77,-147.448 150.345,-141.024 148.178,-147.681"/>
</g>
<!-- Node110 -->
<g id="node4" class="node"><title>Node110</title>
<g id="a_node4"><a xlink:href="namespacecoord__sigma.html#ac2489166e8a1e3e891b2e05df3b8d422" target="_top" xlink:title="coord_sigma::end_coord\l_sigma">
<polygon fill="white" stroke="black" points="144.5,-98.5 144.5,-128.5 267.5,-128.5 267.5,-98.5 144.5,-98.5"/>
<text text-anchor="start" x="152.5" y="-116.5" font-family="Helvetica,sans-Serif" font-size="10.00">coord_sigma::end_coord</text>
<text text-anchor="middle" x="206" y="-105.5" font-family="Helvetica,sans-Serif" font-size="10.00">_sigma</text>
</a>
</g>
</g>
<!-- Node107&#45;&gt;Node110 -->
<g id="edge3" class="edge"><title>Node107&#45;&gt;Node110</title>
<path fill="none" stroke="midnightblue" d="M107.138,-113.5C115.883,-113.5 125.078,-113.5 134.185,-113.5"/>
<polygon fill="midnightblue" stroke="midnightblue" points="134.403,-117 144.403,-113.5 134.403,-110 134.403,-117"/>
</g>
<!-- Node111 -->
<g id="node5" class="node"><title>Node111</title>
<g id="a_node5"><a xlink:href="namespacecoord__slight.html#af5e8c8c13ad380620be3d8907738ed38" target="_top" xlink:title="coord_slight::end_coord\l_slight">
<polygon fill="white" stroke="black" points="146,-49.5 146,-79.5 266,-79.5 266,-49.5 146,-49.5"/>
<text text-anchor="start" x="154" y="-67.5" font-family="Helvetica,sans-Serif" font-size="10.00">coord_slight::end_coord</text>
<text text-anchor="middle" x="206" y="-56.5" font-family="Helvetica,sans-Serif" font-size="10.00">_slight</text>
</a>
</g>
</g>
<!-- Node107&#45;&gt;Node111 -->
<g id="edge4" class="edge"><title>Node107&#45;&gt;Node111</title>
<path fill="none" stroke="midnightblue" d="M100.883,-98.3986C116.118,-93.4385 133.213,-87.8726 149.078,-82.7071"/>
<polygon fill="midnightblue" stroke="midnightblue" points="150.345,-85.9756 158.77,-79.5516 148.178,-79.3195 150.345,-85.9756"/>
</g>
<!-- Node112 -->
<g id="node6" class="node"><title>Node112</title>
<g id="a_node6"><a xlink:href="namespacecoord__zlike.html#ad51a91fb635a0a5c29fa40bc2534f7b4" target="_top" xlink:title="coord_zlike::end_coord\l_zlike">
<polygon fill="white" stroke="black" points="147.5,-0.5 147.5,-30.5 264.5,-30.5 264.5,-0.5 147.5,-0.5"/>
<text text-anchor="start" x="155.5" y="-18.5" font-family="Helvetica,sans-Serif" font-size="10.00">coord_zlike::end_coord</text>
<text text-anchor="middle" x="206" y="-7.5" font-family="Helvetica,sans-Serif" font-size="10.00">_zlike</text>
</a>
</g>
</g>
<!-- Node107&#45;&gt;Node112 -->
<g id="edge5" class="edge"><title>Node107&#45;&gt;Node112</title>
<path fill="none" stroke="midnightblue" d="M69.6966,-98.4612C86.5008,-82.4592 114.925,-57.1956 143,-40.5 146.233,-38.5776 149.64,-36.7413 153.127,-35.0001"/>
<polygon fill="midnightblue" stroke="midnightblue" points="154.905,-38.0322 162.475,-30.6193 151.935,-31.6937 154.905,-38.0322"/>
</g>
</g>
</svg>
