<?xml version="1.0" encoding="UTF-8" standalone="no"?>
<!DOCTYPE svg PUBLIC "-//W3C//DTD SVG 1.1//EN"
 "http://www.w3.org/Graphics/SVG/1.1/DTD/svg11.dtd">
<!-- Generated by graphviz version 2.38.0 (20140413.2041)
 -->
<!-- Title: ocean_model_mod::ocean_model_restart Pages: 1 -->
<svg width="731pt" height="154pt"
 viewBox="0.00 0.00 731.00 154.00" xmlns="http://www.w3.org/2000/svg" xmlns:xlink="http://www.w3.org/1999/xlink">
<g id="graph0" class="graph" transform="scale(1 1) rotate(0) translate(4 150)">
<title>ocean_model_mod::ocean_model_restart</title>
<polygon fill="white" stroke="none" points="-4,4 -4,-150 727,-150 727,4 -4,4"/>
<!-- Node61 -->
<g id="node1" class="node"><title>Node61</title>
<polygon fill="#bfbfbf" stroke="black" points="0,-66.5 0,-96.5 131,-96.5 131,-66.5 0,-66.5"/>
<text text-anchor="start" x="8" y="-84.5" font-family="Helvetica,sans-Serif" font-size="10.00">ocean_model_mod::ocean</text>
<text text-anchor="middle" x="65.5" y="-73.5" font-family="Helvetica,sans-Serif" font-size="10.00">_model_restart</text>
</g>
<!-- Node62 -->
<g id="node2" class="node"><title>Node62</title>
<g id="a_node2"><a xlink:href="namespacemom__surface__forcing.html#a938b99b53ae2b01b468c9c4eaeb595d2" target="_top" xlink:title="mom_surface_forcing\l::forcing_save_restart">
<polygon fill="white" stroke="black" points="177,-115.5 177,-145.5 288,-145.5 288,-115.5 177,-115.5"/>
<text text-anchor="start" x="185" y="-133.5" font-family="Helvetica,sans-Serif" font-size="10.00">mom_surface_forcing</text>
<text text-anchor="middle" x="232.5" y="-122.5" font-family="Helvetica,sans-Serif" font-size="10.00">::forcing_save_restart</text>
</a>
</g>
</g>
<!-- Node61&#45;&gt;Node62 -->
<g id="edge1" class="edge"><title>Node61&#45;&gt;Node62</title>
<path fill="none" stroke="midnightblue" d="M117.352,-96.6014C134.369,-101.655 153.504,-107.338 171.173,-112.585"/>
<polygon fill="midnightblue" stroke="midnightblue" points="170.233,-115.957 180.816,-115.448 172.226,-109.246 170.233,-115.957"/>
</g>
<!-- Node63 -->
<g id="node3" class="node"><title>Node63</title>
<g id="a_node3"><a xlink:href="namespacemom__ice__shelf.html#a40ae01bbe3155191647f2150903dda69" target="_top" xlink:title="Save the ice shelf restart file. ">
<polygon fill="white" stroke="black" points="181.5,-66.5 181.5,-96.5 283.5,-96.5 283.5,-66.5 181.5,-66.5"/>
<text text-anchor="start" x="189.5" y="-84.5" font-family="Helvetica,sans-Serif" font-size="10.00">mom_ice_shelf::ice</text>
<text text-anchor="middle" x="232.5" y="-73.5" font-family="Helvetica,sans-Serif" font-size="10.00">_shelf_save_restart</text>
</a>
</g>
</g>
<!-- Node61&#45;&gt;Node63 -->
<g id="edge2" class="edge"><title>Node61&#45;&gt;Node63</title>
<path fill="none" stroke="midnightblue" d="M131.239,-81.5C144.418,-81.5 158.232,-81.5 171.248,-81.5"/>
<polygon fill="midnightblue" stroke="midnightblue" points="171.488,-85.0001 181.488,-81.5 171.488,-78.0001 171.488,-85.0001"/>
</g>
<!-- Node64 -->
<g id="node4" class="node"><title>Node64</title>
<g id="a_node4"><a xlink:href="namespacemom__restart.html#ab88b83af8a7dc731b70bc534325ba2b4" target="_top" xlink:title="mom_restart::save_restart">
<polygon fill="white" stroke="black" points="167,-28 167,-47 298,-47 298,-28 167,-28"/>
<text text-anchor="middle" x="232.5" y="-35" font-family="Helvetica,sans-Serif" font-size="10.00">mom_restart::save_restart</text>
</a>
</g>
</g>
<!-- Node61&#45;&gt;Node64 -->
<g id="edge3" class="edge"><title>Node61&#45;&gt;Node64</title>
<path fill="none" stroke="midnightblue" d="M122.822,-66.4808C143.333,-61.0112 166.253,-54.8993 185.737,-49.7036"/>
<polygon fill="midnightblue" stroke="midnightblue" points="186.821,-53.0368 195.581,-47.0783 185.017,-46.2732 186.821,-53.0368"/>
</g>
<!-- Node65 -->
<g id="node5" class="node"><title>Node65</title>
<g id="a_node5"><a xlink:href="namespacemom__error__handler.html#a460cfb79a06c29fc249952c2a3710d67" target="_top" xlink:title="mom_error_handler::\lmom_error">
<polygon fill="white" stroke="black" points="475,-22.5 475,-52.5 581,-52.5 581,-22.5 475,-22.5"/>
<text text-anchor="start" x="483" y="-40.5" font-family="Helvetica,sans-Serif" font-size="10.00">mom_error_handler::</text>
<text text-anchor="middle" x="528" y="-29.5" font-family="Helvetica,sans-Serif" font-size="10.00">mom_error</text>
</a>
</g>
</g>
<!-- Node64&#45;&gt;Node65 -->
<g id="edge4" class="edge"><title>Node64&#45;&gt;Node65</title>
<path fill="none" stroke="midnightblue" d="M298.099,-39.7132C310.035,-40.0412 322.393,-40.3268 334,-40.5 380.661,-41.1963 392.34,-41.2951 439,-40.5 447.349,-40.3577 456.142,-40.1396 464.809,-39.8844"/>
<polygon fill="midnightblue" stroke="midnightblue" points="465.005,-43.3801 474.891,-39.5702 464.787,-36.3835 465.005,-43.3801"/>
</g>
<!-- Node67 -->
<g id="node7" class="node"><title>Node67</title>
<g id="a_node7"><a xlink:href="namespacemom__restart.html#a4b143fb18dab7c0825e426fbf9532623" target="_top" xlink:title="mom_restart::restart\l_error">
<polygon fill="white" stroke="black" points="334,-0.5 334,-30.5 439,-30.5 439,-0.5 334,-0.5"/>
<text text-anchor="start" x="342" y="-18.5" font-family="Helvetica,sans-Serif" font-size="10.00">mom_restart::restart</text>
<text text-anchor="middle" x="386.5" y="-7.5" font-family="Helvetica,sans-Serif" font-size="10.00">_error</text>
</a>
</g>
</g>
<!-- Node64&#45;&gt;Node67 -->
<g id="edge6" class="edge"><title>Node64&#45;&gt;Node67</title>
<path fill="none" stroke="midnightblue" d="M298.403,-28.1062C306.778,-26.894 315.337,-25.6552 323.661,-24.4504"/>
<polygon fill="midnightblue" stroke="midnightblue" points="324.275,-27.8981 333.67,-23.0017 323.272,-20.9703 324.275,-27.8981"/>
</g>
<!-- Node66 -->
<g id="node6" class="node"><title>Node66</title>
<g id="a_node6"><a xlink:href="namespacemom__error__handler.html#ad5f00a53059c72fe2332d1436c80ca71" target="_top" xlink:title="mom_error_handler::\lis_root_pe">
<polygon fill="white" stroke="black" points="617,-22.5 617,-52.5 723,-52.5 723,-22.5 617,-22.5"/>
<text text-anchor="start" x="625" y="-40.5" font-family="Helvetica,sans-Serif" font-size="10.00">mom_error_handler::</text>
<text text-anchor="middle" x="670" y="-29.5" font-family="Helvetica,sans-Serif" font-size="10.00">is_root_pe</text>
</a>
</g>
</g>
<!-- Node65&#45;&gt;Node66 -->
<g id="edge5" class="edge"><title>Node65&#45;&gt;Node66</title>
<path fill="none" stroke="midnightblue" d="M581.131,-37.5C589.421,-37.5 598.07,-37.5 606.568,-37.5"/>
<polygon fill="midnightblue" stroke="midnightblue" points="606.826,-41.0001 616.826,-37.5 606.826,-34.0001 606.826,-41.0001"/>
</g>
<!-- Node67&#45;&gt;Node65 -->
<g id="edge7" class="edge"><title>Node67&#45;&gt;Node65</title>
<path fill="none" stroke="midnightblue" d="M439.048,-23.6295C447.416,-24.9491 456.16,-26.328 464.75,-27.6827"/>
<polygon fill="midnightblue" stroke="midnightblue" points="464.308,-31.1563 474.731,-29.2569 465.399,-24.2418 464.308,-31.1563"/>
</g>
</g>
</svg>
