<?xml version="1.0" encoding="UTF-8" standalone="no"?>
<!DOCTYPE svg PUBLIC "-//W3C//DTD SVG 1.1//EN"
 "http://www.w3.org/Graphics/SVG/1.1/DTD/svg11.dtd">
<!-- Generated by graphviz version 2.38.0 (20140413.2041)
 -->
<!-- Title: mom_eos::int_density_dz_generic_plm_analytic Pages: 1 -->
<svg width="483pt" height="39pt"
 viewBox="0.00 0.00 483.00 39.00" xmlns="http://www.w3.org/2000/svg" xmlns:xlink="http://www.w3.org/1999/xlink">
<g id="graph0" class="graph" transform="scale(1 1) rotate(0) translate(4 35)">
<title>mom_eos::int_density_dz_generic_plm_analytic</title>
<polygon fill="white" stroke="none" points="-4,4 -4,-35 479,-35 479,4 -4,4"/>
<!-- Node156 -->
<g id="node1" class="node"><title>Node156</title>
<polygon fill="#bfbfbf" stroke="black" points="0,-0.5 0,-30.5 129,-30.5 129,-0.5 0,-0.5"/>
<text text-anchor="start" x="8" y="-18.5" font-family="Helvetica,sans-Serif" font-size="10.00">mom_eos::int_density</text>
<text text-anchor="middle" x="64.5" y="-7.5" font-family="Helvetica,sans-Serif" font-size="10.00">_dz_generic_plm_analytic</text>
</g>
<!-- Node157 -->
<g id="node2" class="node"><title>Node157</title>
<g id="a_node2"><a xlink:href="namespacemom__eos.html#ace0d2cee7ffdada464ea5b38cbb93b07" target="_top" xlink:title="mom_eos::compute_integral\l_bilinear">
<polygon fill="white" stroke="black" points="165,-0.5 165,-30.5 305,-30.5 305,-0.5 165,-0.5"/>
<text text-anchor="start" x="173" y="-18.5" font-family="Helvetica,sans-Serif" font-size="10.00">mom_eos::compute_integral</text>
<text text-anchor="middle" x="235" y="-7.5" font-family="Helvetica,sans-Serif" font-size="10.00">_bilinear</text>
</a>
</g>
</g>
<!-- Node156&#45;&gt;Node157 -->
<g id="edge1" class="edge"><title>Node156&#45;&gt;Node157</title>
<path fill="none" stroke="midnightblue" d="M129.203,-15.5C137.576,-15.5 146.237,-15.5 154.828,-15.5"/>
<polygon fill="midnightblue" stroke="midnightblue" points="154.859,-19.0001 164.859,-15.5 154.859,-12.0001 154.859,-19.0001"/>
</g>
<!-- Node158 -->
<g id="node3" class="node"><title>Node158</title>
<g id="a_node3"><a xlink:href="namespacemom__eos.html#ad8afb464fcc660fccfcbd9c06a43f16c" target="_top" xlink:title="mom_eos::evaluate_shape\l_bilinear">
<polygon fill="white" stroke="black" points="341,-0.5 341,-30.5 475,-30.5 475,-0.5 341,-0.5"/>
<text text-anchor="start" x="349" y="-18.5" font-family="Helvetica,sans-Serif" font-size="10.00">mom_eos::evaluate_shape</text>
<text text-anchor="middle" x="408" y="-7.5" font-family="Helvetica,sans-Serif" font-size="10.00">_bilinear</text>
</a>
</g>
</g>
<!-- Node157&#45;&gt;Node158 -->
<g id="edge2" class="edge"><title>Node157&#45;&gt;Node158</title>
<path fill="none" stroke="midnightblue" d="M305.059,-15.5C313.429,-15.5 322.016,-15.5 330.485,-15.5"/>
<polygon fill="midnightblue" stroke="midnightblue" points="330.733,-19.0001 340.733,-15.5 330.733,-12.0001 330.733,-19.0001"/>
</g>
</g>
</svg>
