<?xml version="1.0" encoding="UTF-8" standalone="no"?>
<!DOCTYPE svg PUBLIC "-//W3C//DTD SVG 1.1//EN"
 "http://www.w3.org/Graphics/SVG/1.1/DTD/svg11.dtd">
<!-- Generated by graphviz version 2.38.0 (20140413.2041)
 -->
<!-- Title: mom_io::var_desc Pages: 1 -->
<!--zoomable 897 -->
<svg id="main" version="1.1" xmlns="http://www.w3.org/2000/svg" xmlns:xlink="http://www.w3.org/1999/xlink" xml:space="preserve" onload="init(evt)">
<style type="text/css"><![CDATA[
.edge:hover path { stroke: red; }
.edge:hover polygon { stroke: red; fill: red; }
]]></style>
<script type="text/javascript"><![CDATA[
var edges = document.getElementsByTagName('g');
if (edges && edges.length) {
  for (var i=0;i<edges.length;i++) {
    if (edges[i].id.substr(0,4)=='edge') {
      edges[i].setAttribute('class','edge');
    }
  }
}
]]></script>
        <defs>
                <circle id="rim" cx="0" cy="0" r="7"/>
                <circle id="rim2" cx="0" cy="0" r="3.5"/>
                <g id="zoomPlus">
                        <use xlink:href="#rim" fill="#404040">
                                <set attributeName="fill" to="#808080" begin="zoomplus.mouseover" end="zoomplus.mouseout"/>
                        </use>
                        <path d="M-4,0h8M0,-4v8" fill="none" stroke="white" stroke-width="1.5" pointer-events="none"/>
                </g>
                <g id="zoomMin">
                        <use xlink:href="#rim" fill="#404040">
                                <set attributeName="fill" to="#808080" begin="zoomminus.mouseover" end="zoomminus.mouseout"/>
                        </use>
                        <path d="M-4,0h8" fill="none" stroke="white" stroke-width="1.5" pointer-events="none"/>
                </g>
                <g id="dirArrow">
                        <path fill="none" stroke="white" stroke-width="1.5" d="M0,-3.0v7 M-2.5,-0.5L0,-3.0L2.5,-0.5"/>
                </g>
               <g id="resetDef">
                       <use xlink:href="#rim2" fill="#404040">
                               <set attributeName="fill" to="#808080" begin="reset.mouseover" end="reset.mouseout"/>
                       </use>
               </g>
        </defs>

<script type="text/javascript">
var viewWidth = 700;
var viewHeight = 897;
var sectionId = 'dynsection-13';
</script>
<script xlink:href="svgpan.js"/>
<svg id="graph" class="graph">
<g id="viewport">
<title>mom_io::var_desc</title>
<polygon fill="white" stroke="none" points="-4,4 -4,-893 696,-893 696,4 -4,4"/>
<!-- Node155 -->
<g id="node1" class="node"><title>Node155</title>
<polygon fill="#bfbfbf" stroke="black" points="0,-434 0,-453 97,-453 97,-434 0,-434"/>
<text text-anchor="middle" x="48.5" y="-441" font-family="Helvetica,sans-Serif" font-size="10.00">mom_io::var_desc</text>
</g>
<!-- Node156 -->
<g id="node2" class="node"><title>Node156</title>
<g id="a_node2"><a xlink:href="namespacemom__diabatic__driver.html#afa0b30bd6f0e080bcacbd6dcb15ff990" target="_top" xlink:title="This routine initializes the diabatic driver module. ">
<polygon fill="white" stroke="black" points="149,-858.5 149,-888.5 256,-888.5 256,-858.5 149,-858.5"/>
<text text-anchor="start" x="157" y="-876.5" font-family="Helvetica,sans-Serif" font-size="10.00">mom_diabatic_driver</text>
<text text-anchor="middle" x="202.5" y="-865.5" font-family="Helvetica,sans-Serif" font-size="10.00">::diabatic_driver_init</text>
</a>
</g>
</g>
<!-- Node155&#45;&gt;Node156 -->
<g id="edge1" class="edge"><title>Node155&#45;&gt;Node156</title>
<path fill="none" stroke="midnightblue" d="M51.2637,-463.484C58.0118,-535.907 84.2926,-783.501 133,-843.5 137.91,-849.548 144.281,-854.409 151.158,-858.307"/>
<polygon fill="midnightblue" stroke="midnightblue" points="54.7089,-462.722 50.3178,-453.08 47.7377,-463.356 54.7089,-462.722"/>
</g>
<!-- Node157 -->
<g id="node3" class="node"><title>Node157</title>
<g id="a_node3"><a xlink:href="namespacemom__meke.html#a1900316331157e48f1a6029bac63fbd0" target="_top" xlink:title="Allocates memory and register restart fields for the MOM_MEKE module. ">
<polygon fill="white" stroke="black" points="316.5,-676.5 316.5,-706.5 439.5,-706.5 439.5,-676.5 316.5,-676.5"/>
<text text-anchor="start" x="324.5" y="-694.5" font-family="Helvetica,sans-Serif" font-size="10.00">mom_meke::meke_alloc</text>
<text text-anchor="middle" x="378" y="-683.5" font-family="Helvetica,sans-Serif" font-size="10.00">_register_restart</text>
</a>
</g>
</g>
<!-- Node155&#45;&gt;Node157 -->
<g id="edge2" class="edge"><title>Node155&#45;&gt;Node157</title>
<path fill="none" stroke="midnightblue" d="M51.0057,-463.284C56.665,-531.76 79.1502,-756.819 133,-799.5 181.415,-837.873 215.093,-823.543 272,-799.5 317.047,-780.468 352.309,-731.614 368.046,-706.66"/>
<polygon fill="midnightblue" stroke="midnightblue" points="54.4726,-462.729 50.1896,-453.038 47.4946,-463.284 54.4726,-462.729"/>
</g>
<!-- Node160 -->
<g id="node6" class="node"><title>Node160</title>
<g id="a_node6"><a xlink:href="namespacemom__mixed__layer__restrat.html#aea597553dfa98cc7c972784f476ad3fc" target="_top" xlink:title="Allocate and register fields in the mixed layer restratification structure for restarts. ">
<polygon fill="white" stroke="black" points="308,-478 308,-519 448,-519 448,-478 308,-478"/>
<text text-anchor="start" x="316" y="-507" font-family="Helvetica,sans-Serif" font-size="10.00">mom_mixed_layer_restrat</text>
<text text-anchor="start" x="316" y="-496" font-family="Helvetica,sans-Serif" font-size="10.00">::mixedlayer_restrat_register</text>
<text text-anchor="middle" x="378" y="-485" font-family="Helvetica,sans-Serif" font-size="10.00">_restarts</text>
</a>
</g>
</g>
<!-- Node155&#45;&gt;Node160 -->
<g id="edge5" class="edge"><title>Node155&#45;&gt;Node160</title>
<path fill="none" stroke="midnightblue" d="M51.4279,-463.471C58.1777,-528.722 83.0884,-733.674 133,-772.5 181.761,-810.432 221.729,-808.408 272,-772.5 312.144,-743.826 290.669,-713.689 308,-667.5 328.263,-613.498 354.589,-550.862 368.116,-519.163"/>
<polygon fill="midnightblue" stroke="midnightblue" points="54.8878,-462.895 50.407,-453.295 47.9228,-463.594 54.8878,-462.895"/>
</g>
<!-- Node161 -->
<g id="node7" class="node"><title>Node161</title>
<g id="a_node7"><a xlink:href="namespaceadvection__test__tracer.html#a6cc3e00a5d5cb9e31339c784eb966c91" target="_top" xlink:title="advection_test_tracer\l::register_advection\l_test_tracer">
<polygon fill="white" stroke="black" points="147.5,-722 147.5,-763 257.5,-763 257.5,-722 147.5,-722"/>
<text text-anchor="start" x="155.5" y="-751" font-family="Helvetica,sans-Serif" font-size="10.00">advection_test_tracer</text>
<text text-anchor="start" x="155.5" y="-740" font-family="Helvetica,sans-Serif" font-size="10.00">::register_advection</text>
<text text-anchor="middle" x="202.5" y="-729" font-family="Helvetica,sans-Serif" font-size="10.00">_test_tracer</text>
</a>
</g>
</g>
<!-- Node155&#45;&gt;Node161 -->
<g id="edge7" class="edge"><title>Node155&#45;&gt;Node161</title>
<path fill="none" stroke="midnightblue" d="M50.2198,-463.316C53.0105,-511.877 66.6211,-638.251 133,-712.5 137.067,-717.049 141.949,-720.939 147.211,-724.258"/>
<polygon fill="midnightblue" stroke="midnightblue" points="53.71,-463.026 49.7356,-453.205 46.718,-463.361 53.71,-463.026"/>
</g>
<!-- Node162 -->
<g id="node8" class="node"><title>Node162</title>
<g id="a_node8"><a xlink:href="namespacemom__barotropic.html#a28fa2e7600a471735c3b827ac08ed94b" target="_top" xlink:title="This subroutine is used to register any fields from MOM_barotropic.F90 that should be written to or r...">
<polygon fill="white" stroke="black" points="140,-672.5 140,-702.5 265,-702.5 265,-672.5 140,-672.5"/>
<text text-anchor="start" x="148" y="-690.5" font-family="Helvetica,sans-Serif" font-size="10.00">mom_barotropic::register</text>
<text text-anchor="middle" x="202.5" y="-679.5" font-family="Helvetica,sans-Serif" font-size="10.00">_barotropic_restarts</text>
</a>
</g>
</g>
<!-- Node155&#45;&gt;Node162 -->
<g id="edge8" class="edge"><title>Node155&#45;&gt;Node162</title>
<path fill="none" stroke="midnightblue" d="M51.5924,-463.511C57.0776,-506.006 75.6644,-605.98 133,-662.5 136.877,-666.322 141.384,-669.565 146.2,-672.316"/>
<polygon fill="midnightblue" stroke="midnightblue" points="55.0413,-462.871 50.3943,-453.35 48.0894,-463.691 55.0413,-462.871"/>
</g>
<!-- Node163 -->
<g id="node9" class="node"><title>Node163</title>
<g id="a_node9"><a xlink:href="namespaceboundary__impulse__tracer.html#a8c333281de8a3f7a255a0da4187427ad" target="_top" xlink:title="Read in runtime options and add boundary impulse tracer to tracer registry. ">
<polygon fill="white" stroke="black" points="133,-612 133,-653 272,-653 272,-612 133,-612"/>
<text text-anchor="start" x="141" y="-641" font-family="Helvetica,sans-Serif" font-size="10.00">boundary_impulse_tracer</text>
<text text-anchor="start" x="141" y="-630" font-family="Helvetica,sans-Serif" font-size="10.00">::register_boundary_impulse</text>
<text text-anchor="middle" x="202.5" y="-619" font-family="Helvetica,sans-Serif" font-size="10.00">_tracer</text>
</a>
</g>
</g>
<!-- Node155&#45;&gt;Node163 -->
<g id="edge9" class="edge"><title>Node155&#45;&gt;Node163</title>
<path fill="none" stroke="midnightblue" d="M55.0033,-462.857C65.2433,-495.685 90.1628,-562.592 133,-602.5 136.705,-605.951 140.87,-609.047 145.271,-611.816"/>
<polygon fill="midnightblue" stroke="midnightblue" points="58.3091,-461.695 52.0887,-453.119 51.603,-463.702 58.3091,-461.695"/>
</g>
<!-- Node164 -->
<g id="node10" class="node"><title>Node164</title>
<g id="a_node10"><a xlink:href="namespacemom__controlled__forcing.html#a8bfffde62f6a555439eba94884a1fc2e" target="_top" xlink:title="This subroutine is used to allocate and register any fields in this module that should be written to ...">
<polygon fill="white" stroke="black" points="142.5,-552 142.5,-593 262.5,-593 262.5,-552 142.5,-552"/>
<text text-anchor="start" x="150.5" y="-581" font-family="Helvetica,sans-Serif" font-size="10.00">mom_controlled_forcing</text>
<text text-anchor="start" x="150.5" y="-570" font-family="Helvetica,sans-Serif" font-size="10.00">::register_ctrl_forcing</text>
<text text-anchor="middle" x="202.5" y="-559" font-family="Helvetica,sans-Serif" font-size="10.00">_restarts</text>
</a>
</g>
</g>
<!-- Node155&#45;&gt;Node164 -->
<g id="edge10" class="edge"><title>Node155&#45;&gt;Node164</title>
<path fill="none" stroke="midnightblue" d="M61.105,-461.82C75.6446,-483.534 102.399,-519.647 133,-542.5 137.577,-545.918 142.604,-549.048 147.792,-551.886"/>
<polygon fill="midnightblue" stroke="midnightblue" points="63.8813,-459.67 55.4797,-453.216 58.0223,-463.501 63.8813,-459.67"/>
</g>
<!-- Node165 -->
<g id="node11" class="node"><title>Node165</title>
<g id="a_node11"><a xlink:href="namespacedome__tracer.html#a2a6918ef09b8674c6ad56f80dfc370ff" target="_top" xlink:title="dome_tracer::register\l_dome_tracer">
<polygon fill="white" stroke="black" points="148,-502.5 148,-532.5 257,-532.5 257,-502.5 148,-502.5"/>
<text text-anchor="start" x="156" y="-520.5" font-family="Helvetica,sans-Serif" font-size="10.00">dome_tracer::register</text>
<text text-anchor="middle" x="202.5" y="-509.5" font-family="Helvetica,sans-Serif" font-size="10.00">_dome_tracer</text>
</a>
</g>
</g>
<!-- Node155&#45;&gt;Node165 -->
<g id="edge11" class="edge"><title>Node155&#45;&gt;Node165</title>
<path fill="none" stroke="midnightblue" d="M71.8843,-458.605C88.3184,-469.267 111.442,-483.396 133,-493.5 139.846,-496.709 147.246,-499.731 154.564,-502.479"/>
<polygon fill="midnightblue" stroke="midnightblue" points="73.7728,-455.658 63.4949,-453.086 69.9255,-461.506 73.7728,-455.658"/>
</g>
<!-- Node166 -->
<g id="node12" class="node"><title>Node166</title>
<g id="a_node12"><a xlink:href="namespaceregional__dyes.html#af9da6e5dbe58dedce4ede6f0533fe702" target="_top" xlink:title="regional_dyes::register\l_dye_tracer">
<polygon fill="white" stroke="black" points="145,-453.5 145,-483.5 260,-483.5 260,-453.5 145,-453.5"/>
<text text-anchor="start" x="153" y="-471.5" font-family="Helvetica,sans-Serif" font-size="10.00">regional_dyes::register</text>
<text text-anchor="middle" x="202.5" y="-460.5" font-family="Helvetica,sans-Serif" font-size="10.00">_dye_tracer</text>
</a>
</g>
</g>
<!-- Node155&#45;&gt;Node166 -->
<g id="edge12" class="edge"><title>Node155&#45;&gt;Node166</title>
<path fill="none" stroke="midnightblue" d="M107.339,-453.013C119.663,-455.04 132.664,-457.178 144.94,-459.197"/>
<polygon fill="midnightblue" stroke="midnightblue" points="107.612,-449.511 97.1767,-451.342 106.476,-456.418 107.612,-449.511"/>
</g>
<!-- Node167 -->
<g id="node13" class="node"><title>Node167</title>
<g id="a_node13"><a xlink:href="namespaceideal__age__example.html#a58d550a02148b87b1d1ce979fcaf6c00" target="_top" xlink:title="ideal_age_example::\lregister_ideal_age_tracer">
<polygon fill="white" stroke="black" points="140,-404.5 140,-434.5 265,-434.5 265,-404.5 140,-404.5"/>
<text text-anchor="start" x="148" y="-422.5" font-family="Helvetica,sans-Serif" font-size="10.00">ideal_age_example::</text>
<text text-anchor="middle" x="202.5" y="-411.5" font-family="Helvetica,sans-Serif" font-size="10.00">register_ideal_age_tracer</text>
</a>
</g>
</g>
<!-- Node155&#45;&gt;Node167 -->
<g id="edge13" class="edge"><title>Node155&#45;&gt;Node167</title>
<path fill="none" stroke="midnightblue" d="M107.197,-434.39C117.841,-432.709 128.995,-430.948 139.754,-429.249"/>
<polygon fill="midnightblue" stroke="midnightblue" points="106.508,-430.955 97.1767,-435.972 107.6,-437.87 106.508,-430.955"/>
</g>
<!-- Node168 -->
<g id="node14" class="node"><title>Node168</title>
<g id="a_node14"><a xlink:href="namespaceisomip__tracer.html#a7d66fe5ba12076654324a7e7d8ab2e4f" target="_top" xlink:title="This subroutine is used to register tracer fields. ">
<polygon fill="white" stroke="black" points="146,-355.5 146,-385.5 259,-385.5 259,-355.5 146,-355.5"/>
<text text-anchor="start" x="154" y="-373.5" font-family="Helvetica,sans-Serif" font-size="10.00">isomip_tracer::register</text>
<text text-anchor="middle" x="202.5" y="-362.5" font-family="Helvetica,sans-Serif" font-size="10.00">_isomip_tracer</text>
</a>
</g>
</g>
<!-- Node155&#45;&gt;Node168 -->
<g id="edge14" class="edge"><title>Node155&#45;&gt;Node168</title>
<path fill="none" stroke="midnightblue" d="M73.3587,-428.317C89.7493,-418.256 112.219,-405.178 133,-395.5 140.574,-391.973 148.796,-388.602 156.828,-385.543"/>
<polygon fill="midnightblue" stroke="midnightblue" points="71.1139,-425.591 64.4695,-433.843 74.8099,-431.536 71.1139,-425.591"/>
</g>
<!-- Node169 -->
<g id="node15" class="node"><title>Node169</title>
<g id="a_node15"><a xlink:href="namespacemom__ocmip2__cfc.html#ac04494ce35222c8583a7ee7589e1cf13" target="_top" xlink:title="mom_ocmip2_cfc::register\l_ocmip2_cfc">
<polygon fill="white" stroke="black" points="136.5,-306.5 136.5,-336.5 268.5,-336.5 268.5,-306.5 136.5,-306.5"/>
<text text-anchor="start" x="144.5" y="-324.5" font-family="Helvetica,sans-Serif" font-size="10.00">mom_ocmip2_cfc::register</text>
<text text-anchor="middle" x="202.5" y="-313.5" font-family="Helvetica,sans-Serif" font-size="10.00">_ocmip2_cfc</text>
</a>
</g>
</g>
<!-- Node155&#45;&gt;Node169 -->
<g id="edge15" class="edge"><title>Node155&#45;&gt;Node169</title>
<path fill="none" stroke="midnightblue" d="M60.9543,-425.236C75.3461,-403.653 101.955,-367.967 133,-346.5 138.519,-342.684 144.688,-339.376 151.003,-336.53"/>
<polygon fill="midnightblue" stroke="midnightblue" points="57.904,-423.507 55.393,-433.8 63.7748,-427.319 57.904,-423.507"/>
</g>
<!-- Node170 -->
<g id="node16" class="node"><title>Node170</title>
<g id="a_node16"><a xlink:href="namespaceoil__tracer.html#ae9bef348e3fea3af157e841a0c9f6aeb" target="_top" xlink:title="oil_tracer::register\l_oil_tracer">
<polygon fill="white" stroke="black" points="155,-257.5 155,-287.5 250,-287.5 250,-257.5 155,-257.5"/>
<text text-anchor="start" x="163" y="-275.5" font-family="Helvetica,sans-Serif" font-size="10.00">oil_tracer::register</text>
<text text-anchor="middle" x="202.5" y="-264.5" font-family="Helvetica,sans-Serif" font-size="10.00">_oil_tracer</text>
</a>
</g>
</g>
<!-- Node155&#45;&gt;Node170 -->
<g id="edge16" class="edge"><title>Node155&#45;&gt;Node170</title>
<path fill="none" stroke="midnightblue" d="M55.6471,-424.159C66.4419,-393.174 91.6673,-332.357 133,-297.5 139.387,-292.113 147.034,-287.843 154.866,-284.47"/>
<polygon fill="midnightblue" stroke="midnightblue" points="52.2807,-423.19 52.4279,-433.784 58.9192,-425.41 52.2807,-423.19"/>
</g>
<!-- Node171 -->
<g id="node17" class="node"><title>Node171</title>
<g id="a_node17"><a xlink:href="namespacepseudo__salt__tracer.html#a147eabcabc9a787c01310dd67a5bab08" target="_top" xlink:title="pseudo_salt_tracer\l::register_pseudo_salt\l_tracer">
<polygon fill="white" stroke="black" points="146,-197 146,-238 259,-238 259,-197 146,-197"/>
<text text-anchor="start" x="154" y="-226" font-family="Helvetica,sans-Serif" font-size="10.00">pseudo_salt_tracer</text>
<text text-anchor="start" x="154" y="-215" font-family="Helvetica,sans-Serif" font-size="10.00">::register_pseudo_salt</text>
<text text-anchor="middle" x="202.5" y="-204" font-family="Helvetica,sans-Serif" font-size="10.00">_tracer</text>
</a>
</g>
</g>
<!-- Node155&#45;&gt;Node171 -->
<g id="edge17" class="edge"><title>Node155&#45;&gt;Node171</title>
<path fill="none" stroke="midnightblue" d="M53.0388,-423.625C60.8594,-385.082 83.0337,-299.496 133,-248.5 136.837,-244.584 141.259,-241.118 145.97,-238.061"/>
<polygon fill="midnightblue" stroke="midnightblue" points="49.5747,-423.106 51.1294,-433.586 56.4496,-424.423 49.5747,-423.106"/>
</g>
<!-- Node172 -->
<g id="node18" class="node"><title>Node172</title>
<g id="a_node18"><a xlink:href="namespacemom__set__visc.html#ae2d9d9f74c1e9aec56257cfad372b0fd" target="_top" xlink:title="This subroutine is used to register any fields associated with the vertvisc_type. ...">
<polygon fill="white" stroke="black" points="316.5,-153.5 316.5,-183.5 439.5,-183.5 439.5,-153.5 316.5,-153.5"/>
<text text-anchor="start" x="324.5" y="-171.5" font-family="Helvetica,sans-Serif" font-size="10.00">mom_set_visc::set_visc</text>
<text text-anchor="middle" x="378" y="-160.5" font-family="Helvetica,sans-Serif" font-size="10.00">_register_restarts</text>
</a>
</g>
</g>
<!-- Node155&#45;&gt;Node172 -->
<g id="edge18" class="edge"><title>Node155&#45;&gt;Node172</title>
<path fill="none" stroke="midnightblue" d="M49.1578,-423.5C49.5163,-374.187 57.9988,-246.507 133,-187.5 184.509,-146.975 262.531,-148.388 316.415,-155.913"/>
<polygon fill="midnightblue" stroke="midnightblue" points="45.6588,-423.788 49.1981,-433.774 52.6587,-423.76 45.6588,-423.788"/>
</g>
<!-- Node173 -->
<g id="node19" class="node"><title>Node173</title>
<g id="a_node19"><a xlink:href="namespaceuser__tracer__example.html#a71efc349b3fbeb6f4cb2155de1f8bbe5" target="_top" xlink:title="user_tracer_example\l::user_register_tracer\l_example">
<polygon fill="white" stroke="black" points="148,-99 148,-140 257,-140 257,-99 148,-99"/>
<text text-anchor="start" x="156" y="-128" font-family="Helvetica,sans-Serif" font-size="10.00">user_tracer_example</text>
<text text-anchor="start" x="156" y="-117" font-family="Helvetica,sans-Serif" font-size="10.00">::user_register_tracer</text>
<text text-anchor="middle" x="202.5" y="-106" font-family="Helvetica,sans-Serif" font-size="10.00">_example</text>
</a>
</g>
</g>
<!-- Node155&#45;&gt;Node173 -->
<g id="edge20" class="edge"><title>Node155&#45;&gt;Node173</title>
<path fill="none" stroke="midnightblue" d="M50.0078,-423.515C52.3036,-372.764 64.8532,-237.094 133,-154.5 137.59,-148.937 143.291,-144.164 149.431,-140.095"/>
<polygon fill="midnightblue" stroke="midnightblue" points="46.5009,-423.643 49.6365,-433.763 53.4963,-423.897 46.5009,-423.643"/>
</g>
<!-- Node174 -->
<g id="node20" class="node"><title>Node174</title>
<g id="a_node20"><a xlink:href="namespacemom__shared__initialization.html#abef3d6e722e67f47ebdd3f989b9e90b8" target="_top" xlink:title="Write out a file describing the topography, Coriolis parameter, grid locations and various other fixe...">
<polygon fill="white" stroke="black" points="133,-49.5 133,-79.5 272,-79.5 272,-49.5 133,-49.5"/>
<text text-anchor="start" x="141" y="-67.5" font-family="Helvetica,sans-Serif" font-size="10.00">mom_shared_initialization</text>
<text text-anchor="middle" x="202.5" y="-56.5" font-family="Helvetica,sans-Serif" font-size="10.00">::write_ocean_geometry_file</text>
</a>
</g>
</g>
<!-- Node155&#45;&gt;Node174 -->
<g id="edge21" class="edge"><title>Node155&#45;&gt;Node174</title>
<path fill="none" stroke="midnightblue" d="M51.6613,-424.011C59.4019,-357.459 87.712,-140.489 133,-89.5 136.447,-85.6192 140.547,-82.3403 145.002,-79.5699"/>
<polygon fill="midnightblue" stroke="midnightblue" points="48.179,-423.658 50.5251,-433.99 55.134,-424.45 48.179,-423.658"/>
</g>
<!-- Node176 -->
<g id="node22" class="node"><title>Node176</title>
<g id="a_node22"><a xlink:href="namespacemom__coord__initialization.html#a45fb62504679264febbaa0617332ecc1" target="_top" xlink:title="This subroutine writes out a file containing any available data related to the vertical grid used by ...">
<polygon fill="white" stroke="black" points="140.5,-0.5 140.5,-30.5 264.5,-30.5 264.5,-0.5 140.5,-0.5"/>
<text text-anchor="start" x="148.5" y="-18.5" font-family="Helvetica,sans-Serif" font-size="10.00">mom_coord_initialization</text>
<text text-anchor="middle" x="202.5" y="-7.5" font-family="Helvetica,sans-Serif" font-size="10.00">::write_vertgrid_file</text>
</a>
</g>
</g>
<!-- Node155&#45;&gt;Node176 -->
<g id="edge24" class="edge"><title>Node155&#45;&gt;Node176</title>
<path fill="none" stroke="midnightblue" d="M51.0484,-423.644C57.1164,-350.646 81.5183,-98.3392 133,-39.5 135.987,-36.0859 139.489,-33.1574 143.301,-30.6455"/>
<polygon fill="midnightblue" stroke="midnightblue" points="47.5476,-423.513 50.2306,-433.763 54.5249,-424.077 47.5476,-423.513"/>
</g>
<!-- Node158 -->
<g id="node4" class="node"><title>Node158</title>
<g id="a_node4"><a xlink:href="namespacemom.html#a0be2869fef30e1e0604facfe1b41555d" target="_top" xlink:title="This subroutine initializes MOM. ">
<polygon fill="white" stroke="black" points="484,-159 484,-178 591,-178 591,-159 484,-159"/>
<text text-anchor="middle" x="537.5" y="-166" font-family="Helvetica,sans-Serif" font-size="10.00">mom::initialize_mom</text>
</a>
</g>
</g>
<!-- Node157&#45;&gt;Node158 -->
<g id="edge3" class="edge"><title>Node157&#45;&gt;Node158</title>
<path fill="none" stroke="midnightblue" d="M390.939,-666.761C405.814,-635.226 431.302,-578.761 448,-528.5 493.25,-392.295 526.82,-220.215 534.723,-178.114"/>
<polygon fill="midnightblue" stroke="midnightblue" points="387.639,-665.55 386.507,-676.084 393.961,-668.555 387.639,-665.55"/>
</g>
<!-- Node159 -->
<g id="node5" class="node"><title>Node159</title>
<g id="a_node5"><a xlink:href="MOM__driver_8F90.html#a08fffeb2d8e8acbf9ed4609be6d258c6" target="_top" xlink:title="mom_main">
<polygon fill="white" stroke="black" points="627,-159 627,-178 692,-178 692,-159 627,-159"/>
<text text-anchor="middle" x="659.5" y="-166" font-family="Helvetica,sans-Serif" font-size="10.00">mom_main</text>
</a>
</g>
</g>
<!-- Node158&#45;&gt;Node159 -->
<g id="edge4" class="edge"><title>Node158&#45;&gt;Node159</title>
<path fill="none" stroke="midnightblue" d="M601.206,-168.5C610.134,-168.5 618.983,-168.5 626.958,-168.5"/>
<polygon fill="midnightblue" stroke="midnightblue" points="601.134,-165 591.134,-168.5 601.134,-172 601.134,-165"/>
</g>
<!-- Node160&#45;&gt;Node158 -->
<g id="edge6" class="edge"><title>Node160&#45;&gt;Node158</title>
<path fill="none" stroke="midnightblue" d="M393.293,-468.554C427.201,-397.507 511.217,-221.473 531.862,-178.217"/>
<polygon fill="midnightblue" stroke="midnightblue" points="390.001,-467.325 388.852,-477.857 396.318,-470.34 390.001,-467.325"/>
</g>
<!-- Node172&#45;&gt;Node158 -->
<g id="edge19" class="edge"><title>Node172&#45;&gt;Node158</title>
<path fill="none" stroke="midnightblue" d="M450.233,-168.5C461.585,-168.5 473.148,-168.5 483.966,-168.5"/>
<polygon fill="midnightblue" stroke="midnightblue" points="449.894,-165 439.894,-168.5 449.894,-172 449.894,-165"/>
</g>
<!-- Node175 -->
<g id="node21" class="node"><title>Node175</title>
<g id="a_node21"><a xlink:href="namespacemom__fixed__initialization.html#a6c1c054d9cda9f1bd11abba748614c92" target="_top" xlink:title="MOM_initialize_fixed sets up time&#45;invariant quantities related to MOM6&#39;s horizontal grid...">
<polygon fill="white" stroke="black" points="317.5,-77.5 317.5,-107.5 438.5,-107.5 438.5,-77.5 317.5,-77.5"/>
<text text-anchor="start" x="325.5" y="-95.5" font-family="Helvetica,sans-Serif" font-size="10.00">mom_fixed_initialization</text>
<text text-anchor="middle" x="378" y="-84.5" font-family="Helvetica,sans-Serif" font-size="10.00">::mom_initialize_fixed</text>
</a>
</g>
</g>
<!-- Node174&#45;&gt;Node175 -->
<g id="edge22" class="edge"><title>Node174&#45;&gt;Node175</title>
<path fill="none" stroke="midnightblue" d="M281.982,-77.1656C293.861,-79.0828 305.949,-81.0336 317.344,-82.8726"/>
<polygon fill="midnightblue" stroke="midnightblue" points="282.502,-73.7044 272.072,-75.5663 281.386,-80.6149 282.502,-73.7044"/>
</g>
<!-- Node175&#45;&gt;Node158 -->
<g id="edge23" class="edge"><title>Node175&#45;&gt;Node158</title>
<path fill="none" stroke="midnightblue" d="M419.392,-111.991C450.47,-126.987 492.093,-147.072 516.433,-158.817"/>
<polygon fill="midnightblue" stroke="midnightblue" points="420.644,-108.709 410.117,-107.515 417.602,-115.013 420.644,-108.709"/>
</g>
<!-- Node177 -->
<g id="node23" class="node"><title>Node177</title>
<g id="a_node23"><a xlink:href="namespacemom__coord__initialization.html#a6e2f4c11bc99476ea9c64a9aceac3b81" target="_top" xlink:title="MOM_initialize_coord sets up time&#45;invariant quantities related to MOM6&#39;s vertical coordinate...">
<polygon fill="white" stroke="black" points="316,-14.5 316,-44.5 440,-44.5 440,-14.5 316,-14.5"/>
<text text-anchor="start" x="324" y="-32.5" font-family="Helvetica,sans-Serif" font-size="10.00">mom_coord_initialization</text>
<text text-anchor="middle" x="378" y="-21.5" font-family="Helvetica,sans-Serif" font-size="10.00">::mom_initialize_coord</text>
</a>
</g>
</g>
<!-- Node176&#45;&gt;Node177 -->
<g id="edge25" class="edge"><title>Node176&#45;&gt;Node177</title>
<path fill="none" stroke="midnightblue" d="M274.923,-21.2632C288.493,-22.3582 302.58,-23.4949 315.798,-24.5615"/>
<polygon fill="midnightblue" stroke="midnightblue" points="274.919,-17.7516 264.67,-20.4359 274.356,-24.7289 274.919,-17.7516"/>
</g>
<!-- Node177&#45;&gt;Node158 -->
<g id="edge26" class="edge"><title>Node177&#45;&gt;Node158</title>
<path fill="none" stroke="midnightblue" d="M420.611,-49.3593C430.022,-54.6671 439.682,-60.8101 448,-67.5 483.426,-95.9918 516.232,-139.68 529.854,-158.882"/>
<polygon fill="midnightblue" stroke="midnightblue" points="422.176,-46.2265 411.717,-44.5358 418.839,-52.3799 422.176,-46.2265"/>
</g>
</g>
</svg>
        <g id="navigator" transform="translate(0 0)" fill="#404254">
                <rect fill="#f2f5e9" fill-opacity="0.5" stroke="#606060" stroke-width=".5" x="0" y="0" width="60" height="60"/>
                <use id="zoomplus" xlink:href="#zoomPlus" x="17" y="9" onmousedown="handleZoom(evt,'in')"/>
                <use id="zoomminus" xlink:href="#zoomMin" x="42" y="9" onmousedown="handleZoom(evt,'out')"/>
                <use id="reset" xlink:href="#resetDef" x="30" y="36" onmousedown="handleReset()"/>
                <g id="arrowUp" xlink:href="#dirArrow" transform="translate(30 24)" onmousedown="handlePan(0,-1)">
                  <use xlink:href="#rim" fill="#404040">
                        <set attributeName="fill" to="#808080" begin="arrowUp.mouseover" end="arrowUp.mouseout"/>
                  </use>
                  <path fill="none" stroke="white" stroke-width="1.5" d="M0,-3.0v7 M-2.5,-0.5L0,-3.0L2.5,-0.5"/>
                </g>
                <g id="arrowRight" xlink:href="#dirArrow" transform="rotate(90) translate(36 -43)" onmousedown="handlePan(1,0)">
                  <use xlink:href="#rim" fill="#404040">
                        <set attributeName="fill" to="#808080" begin="arrowRight.mouseover" end="arrowRight.mouseout"/>
                  </use>
                  <path fill="none" stroke="white" stroke-width="1.5" d="M0,-3.0v7 M-2.5,-0.5L0,-3.0L2.5,-0.5"/>
                </g>
                <g id="arrowDown" xlink:href="#dirArrow" transform="rotate(180) translate(-30 -48)" onmousedown="handlePan(0,1)">
                  <use xlink:href="#rim" fill="#404040">
                        <set attributeName="fill" to="#808080" begin="arrowDown.mouseover" end="arrowDown.mouseout"/>
                  </use>
                  <path fill="none" stroke="white" stroke-width="1.5" d="M0,-3.0v7 M-2.5,-0.5L0,-3.0L2.5,-0.5"/>
                </g>
                <g id="arrowLeft" xlink:href="#dirArrow" transform="rotate(270) translate(-36 17)" onmousedown="handlePan(-1,0)">
                  <use xlink:href="#rim" fill="#404040">
                        <set attributeName="fill" to="#808080" begin="arrowLeft.mouseover" end="arrowLeft.mouseout"/>
                  </use>
                  <path fill="none" stroke="white" stroke-width="1.5" d="M0,-3.0v7 M-2.5,-0.5L0,-3.0L2.5,-0.5"/>
                </g>
        </g>
        <svg viewBox="0 0 15 15" width="100%" height="30px" preserveAspectRatio="xMaxYMin meet">
         <g id="arrow_out" transform="scale(0.3 0.3)">
          <a xlink:href="namespacemom__io_a39c3ccc06bb1a6e446af2ee9010eba16_icgraph_org.svg" target="_base">
           <rect id="button" ry="5" rx="5" y="6" x="6" height="38" width="38"
                fill="#f2f5e9" fill-opacity="0.5" stroke="#606060" stroke-width="1.0"/>
           <path id="arrow"
             d="M 11.500037,31.436501 C 11.940474,20.09759 22.043105,11.32322 32.158766,21.979434 L 37.068811,17.246167 C 37.068811,17.246167 37.088388,32 37.088388,32 L 22.160133,31.978069 C 22.160133,31.978069 26.997745,27.140456 26.997745,27.140456 C 18.528582,18.264221 13.291696,25.230495 11.500037,31.436501 z"
             style="fill:#404040;"/>
          </a>
         </g>
        </svg>
</svg>
