<?xml version="1.0" encoding="UTF-8" standalone="no"?>
<!DOCTYPE svg PUBLIC "-//W3C//DTD SVG 1.1//EN"
 "http://www.w3.org/Graphics/SVG/1.1/DTD/svg11.dtd">
<!-- Generated by graphviz version 2.38.0 (20140413.2041)
 -->
<!-- Title: mom_diag_mediator::ocean_register_diag Pages: 1 -->
<svg width="1164pt" height="431pt"
 viewBox="0.00 0.00 1164.00 430.50" xmlns="http://www.w3.org/2000/svg" xmlns:xlink="http://www.w3.org/1999/xlink">
<g id="graph0" class="graph" transform="scale(1 1) rotate(0) translate(4 426.5)">
<title>mom_diag_mediator::ocean_register_diag</title>
<polygon fill="white" stroke="none" points="-4,4 -4,-426.5 1160,-426.5 1160,4 -4,4"/>
<!-- Node209 -->
<g id="node1" class="node"><title>Node209</title>
<polygon fill="#bfbfbf" stroke="black" points="0,-369.5 0,-399.5 110,-399.5 110,-369.5 0,-369.5"/>
<text text-anchor="start" x="8" y="-387.5" font-family="Helvetica,sans-Serif" font-size="10.00">mom_diag_mediator::</text>
<text text-anchor="middle" x="55" y="-376.5" font-family="Helvetica,sans-Serif" font-size="10.00">ocean_register_diag</text>
</g>
<!-- Node210 -->
<g id="node2" class="node"><title>Node210</title>
<g id="a_node2"><a xlink:href="namespacemom__error__handler.html#a460cfb79a06c29fc249952c2a3710d67" target="_top" xlink:title="mom_error_handler::\lmom_error">
<polygon fill="white" stroke="black" points="908,-325.5 908,-355.5 1014,-355.5 1014,-325.5 908,-325.5"/>
<text text-anchor="start" x="916" y="-343.5" font-family="Helvetica,sans-Serif" font-size="10.00">mom_error_handler::</text>
<text text-anchor="middle" x="961" y="-332.5" font-family="Helvetica,sans-Serif" font-size="10.00">mom_error</text>
</a>
</g>
</g>
<!-- Node209&#45;&gt;Node210 -->
<g id="edge1" class="edge"><title>Node209&#45;&gt;Node210</title>
<path fill="none" stroke="midnightblue" d="M110.061,-397.034C121.858,-399.454 134.31,-401.771 146,-403.5 243.743,-417.954 268.694,-422.5 367.5,-422.5 367.5,-422.5 367.5,-422.5 672,-422.5 762.397,-422.5 786.417,-414.606 872,-385.5 890.741,-379.127 910.461,-369.359 926.472,-360.551"/>
<polygon fill="midnightblue" stroke="midnightblue" points="928.436,-363.462 935.435,-355.509 925.004,-357.362 928.436,-363.462"/>
</g>
<!-- Node212 -->
<g id="node4" class="node"><title>Node212</title>
<g id="a_node4"><a xlink:href="namespacemom__io.html#a23e82d1d89d9bb1c9bdf802ce80d4508" target="_top" xlink:title="This routine queries vardesc. ">
<polygon fill="white" stroke="black" points="146,-375 146,-394 267,-394 267,-375 146,-375"/>
<text text-anchor="middle" x="206.5" y="-382" font-family="Helvetica,sans-Serif" font-size="10.00">mom_io::query_vardesc</text>
</a>
</g>
</g>
<!-- Node209&#45;&gt;Node212 -->
<g id="edge3" class="edge"><title>Node209&#45;&gt;Node212</title>
<path fill="none" stroke="midnightblue" d="M110.396,-384.5C118.587,-384.5 127.131,-384.5 135.591,-384.5"/>
<polygon fill="midnightblue" stroke="midnightblue" points="135.841,-388 145.841,-384.5 135.841,-381 135.841,-388"/>
</g>
<!-- Node214 -->
<g id="node6" class="node"><title>Node214</title>
<g id="a_node6"><a xlink:href="namespacemom__diag__mediator.html#aa791f75f899ae9b7cd4756165a9c2a1b" target="_top" xlink:title="Returns the &quot;diag_mediator&quot; handle for a group (native, CMOR, z&#45;coord, ...) of diagnostics derived fr...">
<polygon fill="white" stroke="black" points="151.5,-216.5 151.5,-246.5 261.5,-246.5 261.5,-216.5 151.5,-216.5"/>
<text text-anchor="start" x="159.5" y="-234.5" font-family="Helvetica,sans-Serif" font-size="10.00">mom_diag_mediator::</text>
<text text-anchor="middle" x="206.5" y="-223.5" font-family="Helvetica,sans-Serif" font-size="10.00">register_diag_field</text>
</a>
</g>
</g>
<!-- Node209&#45;&gt;Node214 -->
<g id="edge6" class="edge"><title>Node209&#45;&gt;Node214</title>
<path fill="none" stroke="midnightblue" d="M70.8812,-369.27C97.2986,-342.235 152.506,-285.734 183.385,-254.133"/>
<polygon fill="midnightblue" stroke="midnightblue" points="186.194,-256.267 190.679,-246.668 181.187,-251.374 186.194,-256.267"/>
</g>
<!-- Node211 -->
<g id="node3" class="node"><title>Node211</title>
<g id="a_node3"><a xlink:href="namespacemom__error__handler.html#ad5f00a53059c72fe2332d1436c80ca71" target="_top" xlink:title="mom_error_handler::\lis_root_pe">
<polygon fill="white" stroke="black" points="1050,-214.5 1050,-244.5 1156,-244.5 1156,-214.5 1050,-214.5"/>
<text text-anchor="start" x="1058" y="-232.5" font-family="Helvetica,sans-Serif" font-size="10.00">mom_error_handler::</text>
<text text-anchor="middle" x="1103" y="-221.5" font-family="Helvetica,sans-Serif" font-size="10.00">is_root_pe</text>
</a>
</g>
</g>
<!-- Node210&#45;&gt;Node211 -->
<g id="edge2" class="edge"><title>Node210&#45;&gt;Node211</title>
<path fill="none" stroke="midnightblue" d="M981.173,-325.299C1005.47,-306.035 1047.49,-272.719 1075.02,-250.894"/>
<polygon fill="midnightblue" stroke="midnightblue" points="1077.4,-253.473 1083.06,-244.518 1073.05,-247.988 1077.4,-253.473"/>
</g>
<!-- Node213 -->
<g id="node5" class="node"><title>Node213</title>
<g id="a_node5"><a xlink:href="namespacemom__io.html#ac4bc408e8b38dbd669842753f26ebf88" target="_top" xlink:title="Copies a string. ">
<polygon fill="white" stroke="black" points="303,-375 303,-394 434,-394 434,-375 303,-375"/>
<text text-anchor="middle" x="368.5" y="-382" font-family="Helvetica,sans-Serif" font-size="10.00">mom_io::safe_string_copy</text>
</a>
</g>
</g>
<!-- Node212&#45;&gt;Node213 -->
<g id="edge4" class="edge"><title>Node212&#45;&gt;Node213</title>
<path fill="none" stroke="midnightblue" d="M267.078,-384.5C275.444,-384.5 284.129,-384.5 292.732,-384.5"/>
<polygon fill="midnightblue" stroke="midnightblue" points="292.771,-388 302.771,-384.5 292.771,-381 292.771,-388"/>
</g>
<!-- Node213&#45;&gt;Node210 -->
<g id="edge5" class="edge"><title>Node213&#45;&gt;Node210</title>
<path fill="none" stroke="midnightblue" d="M434.199,-386.575C530.321,-388.611 716.249,-388.52 872,-364.5 881.977,-362.961 892.443,-360.701 902.534,-358.173"/>
<polygon fill="midnightblue" stroke="midnightblue" points="903.681,-361.491 912.469,-355.573 901.909,-354.719 903.681,-361.491"/>
</g>
<!-- Node215 -->
<g id="node7" class="node"><title>Node215</title>
<g id="a_node7"><a xlink:href="namespacemom__diag__mediator.html#ae50b35cba800ac5fd8975929fd2b9f4a" target="_top" xlink:title="Returns True if either the native of CMOr version of the diagnostic were registered. Updates &#39;dm_id&#39; after calling register_diag_field_expand_axes() for both native and CMOR variants of the field. ">
<polygon fill="white" stroke="black" points="313.5,-145 313.5,-186 423.5,-186 423.5,-145 313.5,-145"/>
<text text-anchor="start" x="321.5" y="-174" font-family="Helvetica,sans-Serif" font-size="10.00">mom_diag_mediator::</text>
<text text-anchor="start" x="321.5" y="-163" font-family="Helvetica,sans-Serif" font-size="10.00">register_diag_field</text>
<text text-anchor="middle" x="368.5" y="-152" font-family="Helvetica,sans-Serif" font-size="10.00">_expand_cmor</text>
</a>
</g>
</g>
<!-- Node214&#45;&gt;Node215 -->
<g id="edge7" class="edge"><title>Node214&#45;&gt;Node215</title>
<path fill="none" stroke="midnightblue" d="M244.207,-216.358C263.174,-208.534 286.787,-198.794 308.257,-189.938"/>
<polygon fill="midnightblue" stroke="midnightblue" points="309.716,-193.122 317.626,-186.073 307.046,-186.651 309.716,-193.122"/>
</g>
<!-- Node215&#45;&gt;Node211 -->
<g id="edge11" class="edge"><title>Node215&#45;&gt;Node211</title>
<path fill="none" stroke="midnightblue" d="M423.678,-152.133C483.557,-138.551 583.048,-119.5 670,-119.5 670,-119.5 670,-119.5 818,-119.5 916.014,-119.5 1020.99,-177.176 1071.46,-209.001"/>
<polygon fill="midnightblue" stroke="midnightblue" points="1069.64,-211.99 1079.94,-214.436 1073.41,-206.095 1069.64,-211.99"/>
</g>
<!-- Node216 -->
<g id="node8" class="node"><title>Node216</title>
<g id="a_node8"><a xlink:href="namespacemom__diag__mediator.html#aca4a32fea8dade9f51e076a56b9bad2b" target="_top" xlink:title="Returns an FMS id from register_diag_field_fms (the diag_manager routine) after expanding axes (axes&#45;...">
<polygon fill="white" stroke="black" points="470,-50 470,-91 580,-91 580,-50 470,-50"/>
<text text-anchor="start" x="478" y="-79" font-family="Helvetica,sans-Serif" font-size="10.00">mom_diag_mediator::</text>
<text text-anchor="start" x="478" y="-68" font-family="Helvetica,sans-Serif" font-size="10.00">register_diag_field</text>
<text text-anchor="middle" x="525" y="-57" font-family="Helvetica,sans-Serif" font-size="10.00">_expand_axes</text>
</a>
</g>
</g>
<!-- Node215&#45;&gt;Node216 -->
<g id="edge8" class="edge"><title>Node215&#45;&gt;Node216</title>
<path fill="none" stroke="midnightblue" d="M403.024,-144.886C426.105,-130.695 456.95,-111.728 481.717,-96.4992"/>
<polygon fill="midnightblue" stroke="midnightblue" points="483.856,-99.2928 490.541,-91.0734 480.189,-93.3298 483.856,-99.2928"/>
</g>
<!-- Node217 -->
<g id="node9" class="node"><title>Node217</title>
<g id="a_node9"><a xlink:href="namespacemom__diag__mediator.html#ae0f04c145cb120fc2ab6cbfe9f166392" target="_top" xlink:title="Attaches &quot;cell_methods&quot; attribute to a variable based on defaults for axes_grp or optional arguments...">
<polygon fill="white" stroke="black" points="762,-325.5 762,-355.5 872,-355.5 872,-325.5 762,-325.5"/>
<text text-anchor="start" x="770" y="-343.5" font-family="Helvetica,sans-Serif" font-size="10.00">mom_diag_mediator::</text>
<text text-anchor="middle" x="817" y="-332.5" font-family="Helvetica,sans-Serif" font-size="10.00">attach_cell_methods</text>
</a>
</g>
</g>
<!-- Node215&#45;&gt;Node217 -->
<g id="edge9" class="edge"><title>Node215&#45;&gt;Node217</title>
<path fill="none" stroke="midnightblue" d="M396.003,-186.016C415.82,-200.907 443.886,-221.064 470,-236.5 532.115,-273.216 547.242,-285.621 616,-307.5 660.269,-321.587 712.063,-329.92 751.851,-334.689"/>
<polygon fill="midnightblue" stroke="midnightblue" points="751.62,-338.185 761.955,-335.854 752.422,-331.231 751.62,-338.185"/>
</g>
<!-- Node218 -->
<g id="node10" class="node"><title>Node218</title>
<g id="a_node10"><a xlink:href="namespacemom__diag__mediator.html#a65fe8d329cf5dbfd08c98874a7a64407" target="_top" xlink:title="Log a diagnostic to the available diagnostics file. ">
<polygon fill="white" stroke="black" points="470,-0.5 470,-30.5 580,-30.5 580,-0.5 470,-0.5"/>
<text text-anchor="start" x="478" y="-18.5" font-family="Helvetica,sans-Serif" font-size="10.00">mom_diag_mediator::</text>
<text text-anchor="middle" x="525" y="-7.5" font-family="Helvetica,sans-Serif" font-size="10.00">log_available_diag</text>
</a>
</g>
</g>
<!-- Node215&#45;&gt;Node218 -->
<g id="edge12" class="edge"><title>Node215&#45;&gt;Node218</title>
<path fill="none" stroke="midnightblue" d="M381.788,-144.892C398.744,-117.907 431.612,-70.5156 470,-40.5 472.065,-38.8853 474.251,-37.345 476.515,-35.8804"/>
<polygon fill="midnightblue" stroke="midnightblue" points="478.665,-38.6774 485.531,-30.6081 475.132,-32.6347 478.665,-38.6774"/>
</g>
<!-- Node220 -->
<g id="node12" class="node"><title>Node220</title>
<g id="a_node12"><a xlink:href="namespacemom__diag__mediator.html#a8415b33a337b1fbc7535688eca85ab37" target="_top" xlink:title="Create a diagnostic type and attached to list. ">
<polygon fill="white" stroke="black" points="470,-197.5 470,-227.5 580,-227.5 580,-197.5 470,-197.5"/>
<text text-anchor="start" x="478" y="-215.5" font-family="Helvetica,sans-Serif" font-size="10.00">mom_diag_mediator::</text>
<text text-anchor="middle" x="525" y="-204.5" font-family="Helvetica,sans-Serif" font-size="10.00">add_diag_to_list</text>
</a>
</g>
</g>
<!-- Node215&#45;&gt;Node220 -->
<g id="edge14" class="edge"><title>Node215&#45;&gt;Node220</title>
<path fill="none" stroke="midnightblue" d="M423.537,-181.938C436.911,-186.007 451.309,-190.387 464.91,-194.524"/>
<polygon fill="midnightblue" stroke="midnightblue" points="464.061,-197.925 474.647,-197.487 466.099,-191.228 464.061,-197.925"/>
</g>
<!-- Node217&#45;&gt;Node210 -->
<g id="edge10" class="edge"><title>Node217&#45;&gt;Node210</title>
<path fill="none" stroke="midnightblue" d="M872.089,-340.5C880.447,-340.5 889.138,-340.5 897.659,-340.5"/>
<polygon fill="midnightblue" stroke="midnightblue" points="897.936,-344 907.935,-340.5 897.935,-337 897.936,-344"/>
</g>
<!-- Node219 -->
<g id="node11" class="node"><title>Node219</title>
<g id="a_node11"><a xlink:href="namespacemom__diag__mediator.html#ae002ca447acba252bf7bdc042e75a01e" target="_top" xlink:title="mom_diag_mediator::\ldescribe_option">
<polygon fill="white" stroke="black" points="616,-0.5 616,-30.5 726,-30.5 726,-0.5 616,-0.5"/>
<text text-anchor="start" x="624" y="-18.5" font-family="Helvetica,sans-Serif" font-size="10.00">mom_diag_mediator::</text>
<text text-anchor="middle" x="671" y="-7.5" font-family="Helvetica,sans-Serif" font-size="10.00">describe_option</text>
</a>
</g>
</g>
<!-- Node218&#45;&gt;Node219 -->
<g id="edge13" class="edge"><title>Node218&#45;&gt;Node219</title>
<path fill="none" stroke="midnightblue" d="M580.03,-15.5C588.314,-15.5 596.936,-15.5 605.42,-15.5"/>
<polygon fill="midnightblue" stroke="midnightblue" points="605.667,-19.0001 615.667,-15.5 605.667,-12.0001 605.667,-19.0001"/>
</g>
<!-- Node221 -->
<g id="node13" class="node"><title>Node221</title>
<g id="a_node13"><a xlink:href="namespacemom__diag__mediator.html#a1b0bed2113a0c268eafd1bafbb48bd4f" target="_top" xlink:title="mom_diag_mediator::\lalloc_diag_with_id">
<polygon fill="white" stroke="black" points="616,-197.5 616,-227.5 726,-227.5 726,-197.5 616,-197.5"/>
<text text-anchor="start" x="624" y="-215.5" font-family="Helvetica,sans-Serif" font-size="10.00">mom_diag_mediator::</text>
<text text-anchor="middle" x="671" y="-204.5" font-family="Helvetica,sans-Serif" font-size="10.00">alloc_diag_with_id</text>
</a>
</g>
</g>
<!-- Node220&#45;&gt;Node221 -->
<g id="edge15" class="edge"><title>Node220&#45;&gt;Node221</title>
<path fill="none" stroke="midnightblue" d="M580.03,-212.5C588.314,-212.5 596.936,-212.5 605.42,-212.5"/>
<polygon fill="midnightblue" stroke="midnightblue" points="605.667,-216 615.667,-212.5 605.667,-209 605.667,-216"/>
</g>
<!-- Node222 -->
<g id="node14" class="node"><title>Node222</title>
<g id="a_node14"><a xlink:href="namespacemom__error__handler.html#a33bcd190d460095104954f2e654f9fe6" target="_top" xlink:title="Issues a FATAL error if the assertion fails, i.e. the first argument is false. ">
<polygon fill="white" stroke="black" points="764,-276.5 764,-306.5 870,-306.5 870,-276.5 764,-276.5"/>
<text text-anchor="start" x="772" y="-294.5" font-family="Helvetica,sans-Serif" font-size="10.00">mom_error_handler::</text>
<text text-anchor="middle" x="817" y="-283.5" font-family="Helvetica,sans-Serif" font-size="10.00">assert</text>
</a>
</g>
</g>
<!-- Node220&#45;&gt;Node222 -->
<g id="edge16" class="edge"><title>Node220&#45;&gt;Node222</title>
<path fill="none" stroke="midnightblue" d="M538.792,-227.647C554.771,-245.305 583.94,-273.588 616,-285.5 659.978,-301.84 713.217,-302.609 753.707,-299.689"/>
<polygon fill="midnightblue" stroke="midnightblue" points="754.029,-303.174 763.712,-298.874 753.461,-296.197 754.029,-303.174"/>
</g>
<!-- Node223 -->
<g id="node15" class="node"><title>Node223</title>
<g id="a_node15"><a xlink:href="namespacemom__diag__mediator.html#a3f7442639213320f7429e2288a79fda2" target="_top" xlink:title="Returns a new diagnostic id, it may be necessary to expand the diagnostics array. ...">
<polygon fill="white" stroke="black" points="616,-246.5 616,-276.5 726,-276.5 726,-246.5 616,-246.5"/>
<text text-anchor="start" x="624" y="-264.5" font-family="Helvetica,sans-Serif" font-size="10.00">mom_diag_mediator::</text>
<text text-anchor="middle" x="671" y="-253.5" font-family="Helvetica,sans-Serif" font-size="10.00">get_new_diag_id</text>
</a>
</g>
</g>
<!-- Node220&#45;&gt;Node223 -->
<g id="edge18" class="edge"><title>Node220&#45;&gt;Node223</title>
<path fill="none" stroke="midnightblue" d="M570.38,-227.601C584.751,-232.492 600.853,-237.971 615.851,-243.074"/>
<polygon fill="midnightblue" stroke="midnightblue" points="614.924,-246.456 625.519,-246.364 617.179,-239.829 614.924,-246.456"/>
</g>
<!-- Node225 -->
<g id="node17" class="node"><title>Node225</title>
<g id="a_node17"><a xlink:href="namespacemom__diag__mediator.html#a085f313357879a914af6450f2ab8ec79" target="_top" xlink:title="Associates the mask pointers within diag with the appropriate mask based on the axes group...">
<polygon fill="white" stroke="black" points="616,-148.5 616,-178.5 726,-178.5 726,-148.5 616,-148.5"/>
<text text-anchor="start" x="624" y="-166.5" font-family="Helvetica,sans-Serif" font-size="10.00">mom_diag_mediator::</text>
<text text-anchor="middle" x="671" y="-155.5" font-family="Helvetica,sans-Serif" font-size="10.00">set_diag_mask</text>
</a>
</g>
</g>
<!-- Node220&#45;&gt;Node225 -->
<g id="edge21" class="edge"><title>Node220&#45;&gt;Node225</title>
<path fill="none" stroke="midnightblue" d="M570.38,-197.399C584.751,-192.508 600.853,-187.029 615.851,-181.926"/>
<polygon fill="midnightblue" stroke="midnightblue" points="617.179,-185.171 625.519,-178.636 614.924,-178.544 617.179,-185.171"/>
</g>
<!-- Node222&#45;&gt;Node210 -->
<g id="edge17" class="edge"><title>Node222&#45;&gt;Node210</title>
<path fill="none" stroke="midnightblue" d="M861.763,-306.601C875.935,-311.492 891.813,-316.971 906.603,-322.074"/>
<polygon fill="midnightblue" stroke="midnightblue" points="905.542,-325.411 916.137,-325.364 907.825,-318.793 905.542,-325.411"/>
</g>
<!-- Node223&#45;&gt;Node222 -->
<g id="edge19" class="edge"><title>Node223&#45;&gt;Node222</title>
<path fill="none" stroke="midnightblue" d="M726.03,-272.756C735.056,-274.637 744.484,-276.601 753.696,-278.52"/>
<polygon fill="midnightblue" stroke="midnightblue" points="753.075,-281.966 763.578,-280.579 754.502,-275.113 753.075,-281.966"/>
</g>
<!-- Node224 -->
<g id="node16" class="node"><title>Node224</title>
<g id="a_node16"><a xlink:href="namespacemom__diag__mediator.html#a883862f004e30bbc5211f38635511ba0" target="_top" xlink:title="Initializes a diag_type (used after allocating new memory) ">
<polygon fill="white" stroke="black" points="762,-227.5 762,-257.5 872,-257.5 872,-227.5 762,-227.5"/>
<text text-anchor="start" x="770" y="-245.5" font-family="Helvetica,sans-Serif" font-size="10.00">mom_diag_mediator::</text>
<text text-anchor="middle" x="817" y="-234.5" font-family="Helvetica,sans-Serif" font-size="10.00">initialize_diag_type</text>
</a>
</g>
</g>
<!-- Node223&#45;&gt;Node224 -->
<g id="edge20" class="edge"><title>Node223&#45;&gt;Node224</title>
<path fill="none" stroke="midnightblue" d="M726.03,-254.371C734.405,-253.266 743.126,-252.115 751.7,-250.984"/>
<polygon fill="midnightblue" stroke="midnightblue" points="752.211,-254.447 761.667,-249.669 751.295,-247.507 752.211,-254.447"/>
</g>
</g>
</svg>
