<?xml version="1.0" encoding="UTF-8" standalone="no"?>
<!DOCTYPE svg PUBLIC "-//W3C//DTD SVG 1.1//EN"
 "http://www.w3.org/Graphics/SVG/1.1/DTD/svg11.dtd">
<!-- Generated by graphviz version 2.38.0 (20140413.2041)
 -->
<!-- Title: mom_open_boundary::setup_u_point_obc Pages: 1 -->
<!--zoomable 204 -->
<svg id="main" version="1.1" xmlns="http://www.w3.org/2000/svg" xmlns:xlink="http://www.w3.org/1999/xlink" xml:space="preserve" onload="init(evt)">
<style type="text/css"><![CDATA[
.edge:hover path { stroke: red; }
.edge:hover polygon { stroke: red; fill: red; }
]]></style>
<script type="text/javascript"><![CDATA[
var edges = document.getElementsByTagName('g');
if (edges && edges.length) {
  for (var i=0;i<edges.length;i++) {
    if (edges[i].id.substr(0,4)=='edge') {
      edges[i].setAttribute('class','edge');
    }
  }
}
]]></script>
        <defs>
                <circle id="rim" cx="0" cy="0" r="7"/>
                <circle id="rim2" cx="0" cy="0" r="3.5"/>
                <g id="zoomPlus">
                        <use xlink:href="#rim" fill="#404040">
                                <set attributeName="fill" to="#808080" begin="zoomplus.mouseover" end="zoomplus.mouseout"/>
                        </use>
                        <path d="M-4,0h8M0,-4v8" fill="none" stroke="white" stroke-width="1.5" pointer-events="none"/>
                </g>
                <g id="zoomMin">
                        <use xlink:href="#rim" fill="#404040">
                                <set attributeName="fill" to="#808080" begin="zoomminus.mouseover" end="zoomminus.mouseout"/>
                        </use>
                        <path d="M-4,0h8" fill="none" stroke="white" stroke-width="1.5" pointer-events="none"/>
                </g>
                <g id="dirArrow">
                        <path fill="none" stroke="white" stroke-width="1.5" d="M0,-3.0v7 M-2.5,-0.5L0,-3.0L2.5,-0.5"/>
                </g>
               <g id="resetDef">
                       <use xlink:href="#rim2" fill="#404040">
                               <set attributeName="fill" to="#808080" begin="reset.mouseover" end="reset.mouseout"/>
                       </use>
               </g>
        </defs>

<script type="text/javascript">
var viewWidth = 731;
var viewHeight = 204;
var sectionId = 'dynsection-24';
</script>
<script xlink:href="svgpan.js"/>
<svg id="graph" class="graph">
<g id="viewport">
<title>mom_open_boundary::setup_u_point_obc</title>
<polygon fill="white" stroke="none" points="-4,4 -4,-199.5 727,-199.5 727,4 -4,4"/>
<!-- Node120 -->
<g id="node1" class="node"><title>Node120</title>
<polygon fill="#bfbfbf" stroke="black" points="0,-99 0,-129 116,-129 116,-99 0,-99"/>
<text text-anchor="start" x="8" y="-117" font-family="Helvetica,sans-Serif" font-size="10.00">mom_open_boundary::</text>
<text text-anchor="middle" x="58" y="-106" font-family="Helvetica,sans-Serif" font-size="10.00">setup_u_point_obc</text>
</g>
<!-- Node121 -->
<g id="node2" class="node"><title>Node121</title>
<g id="a_node2"><a xlink:href="namespacemom__open__boundary.html#aa7f532a65dd8ae4db981f2ef4791fc56" target="_top" xlink:title="Allocate segment data fields. ">
<polygon fill="white" stroke="black" points="152,-165 152,-195 290,-195 290,-165 152,-165"/>
<text text-anchor="start" x="160" y="-183" font-family="Helvetica,sans-Serif" font-size="10.00">mom_open_boundary::</text>
<text text-anchor="middle" x="221" y="-172" font-family="Helvetica,sans-Serif" font-size="10.00">allocate_obc_segment_data</text>
</a>
</g>
</g>
<!-- Node120&#45;&gt;Node121 -->
<g id="edge1" class="edge"><title>Node120&#45;&gt;Node121</title>
<path fill="none" stroke="midnightblue" d="M95.9367,-129.142C119.049,-138.616 149.017,-150.901 173.709,-161.024"/>
<polygon fill="midnightblue" stroke="midnightblue" points="172.655,-164.374 183.235,-164.929 175.31,-157.897 172.655,-164.374"/>
</g>
<!-- Node122 -->
<g id="node3" class="node"><title>Node122</title>
<g id="a_node3"><a xlink:href="namespacemom__error__handler.html#a460cfb79a06c29fc249952c2a3710d67" target="_top" xlink:title="mom_error_handler::\lmom_error">
<polygon fill="white" stroke="black" points="475,-83 475,-113 581,-113 581,-83 475,-83"/>
<text text-anchor="start" x="483" y="-101" font-family="Helvetica,sans-Serif" font-size="10.00">mom_error_handler::</text>
<text text-anchor="middle" x="528" y="-90" font-family="Helvetica,sans-Serif" font-size="10.00">mom_error</text>
</a>
</g>
</g>
<!-- Node120&#45;&gt;Node122 -->
<g id="edge2" class="edge"><title>Node120&#45;&gt;Node122</title>
<path fill="none" stroke="midnightblue" d="M116.045,-116.131C127.926,-116.493 140.37,-116.812 152,-117 279.589,-119.057 311.9,-120.342 439,-109 447.377,-108.252 456.186,-107.323 464.861,-106.324"/>
<polygon fill="midnightblue" stroke="midnightblue" points="465.432,-109.78 474.949,-105.125 464.606,-102.829 465.432,-109.78"/>
</g>
<!-- Node124 -->
<g id="node5" class="node"><title>Node124</title>
<g id="a_node5"><a xlink:href="namespacemom__open__boundary.html#ad40be6b6ce4c94040b7de59bde9be77f" target="_top" xlink:title="Parse an OBC_SEGMENT_%%% string. ">
<polygon fill="white" stroke="black" points="163,-77 163,-107 279,-107 279,-77 163,-77"/>
<text text-anchor="start" x="171" y="-95" font-family="Helvetica,sans-Serif" font-size="10.00">mom_open_boundary::</text>
<text text-anchor="middle" x="221" y="-84" font-family="Helvetica,sans-Serif" font-size="10.00">parse_segment_str</text>
</a>
</g>
</g>
<!-- Node120&#45;&gt;Node124 -->
<g id="edge4" class="edge"><title>Node120&#45;&gt;Node124</title>
<path fill="none" stroke="midnightblue" d="M116.216,-106.182C128.079,-104.561 140.68,-102.839 152.86,-101.174"/>
<polygon fill="midnightblue" stroke="midnightblue" points="153.534,-104.615 162.968,-99.7931 152.587,-97.6793 153.534,-104.615"/>
</g>
<!-- Node127 -->
<g id="node8" class="node"><title>Node127</title>
<g id="a_node8"><a xlink:href="namespacemom__open__boundary.html#ac357a1fb341db3aaffdfeca2eacab60b" target="_top" xlink:title="mom_open_boundary::\lsetup_segment_indices">
<polygon fill="white" stroke="black" points="161.5,-28 161.5,-58 280.5,-58 280.5,-28 161.5,-28"/>
<text text-anchor="start" x="169.5" y="-46" font-family="Helvetica,sans-Serif" font-size="10.00">mom_open_boundary::</text>
<text text-anchor="middle" x="221" y="-35" font-family="Helvetica,sans-Serif" font-size="10.00">setup_segment_indices</text>
</a>
</g>
</g>
<!-- Node120&#45;&gt;Node127 -->
<g id="edge9" class="edge"><title>Node120&#45;&gt;Node127</title>
<path fill="none" stroke="midnightblue" d="M87.5328,-98.8969C105.747,-89.5043 129.989,-77.4577 152,-68 156.984,-65.8586 162.218,-63.7292 167.477,-61.6686"/>
<polygon fill="midnightblue" stroke="midnightblue" points="168.838,-64.8953 176.921,-58.046 166.331,-58.3596 168.838,-64.8953"/>
</g>
<!-- Node123 -->
<g id="node4" class="node"><title>Node123</title>
<g id="a_node4"><a xlink:href="namespacemom__error__handler.html#ad5f00a53059c72fe2332d1436c80ca71" target="_top" xlink:title="mom_error_handler::\lis_root_pe">
<polygon fill="white" stroke="black" points="617,-83 617,-113 723,-113 723,-83 617,-83"/>
<text text-anchor="start" x="625" y="-101" font-family="Helvetica,sans-Serif" font-size="10.00">mom_error_handler::</text>
<text text-anchor="middle" x="670" y="-90" font-family="Helvetica,sans-Serif" font-size="10.00">is_root_pe</text>
</a>
</g>
</g>
<!-- Node122&#45;&gt;Node123 -->
<g id="edge3" class="edge"><title>Node122&#45;&gt;Node123</title>
<path fill="none" stroke="midnightblue" d="M581.131,-98C589.421,-98 598.07,-98 606.568,-98"/>
<polygon fill="midnightblue" stroke="midnightblue" points="606.826,-101.5 616.826,-98 606.826,-94.5001 606.826,-101.5"/>
</g>
<!-- Node124&#45;&gt;Node122 -->
<g id="edge8" class="edge"><title>Node124&#45;&gt;Node122</title>
<path fill="none" stroke="midnightblue" d="M279.01,-93.1215C331.815,-94.1603 410.18,-95.7019 464.632,-96.7731"/>
<polygon fill="midnightblue" stroke="midnightblue" points="464.782,-100.277 474.849,-96.9741 464.92,-93.278 464.782,-100.277"/>
</g>
<!-- Node125 -->
<g id="node6" class="node"><title>Node125</title>
<g id="a_node6"><a xlink:href="namespacemom__string__functions.html#aad76dee92b69dab4488da049fe11cdb8" target="_top" xlink:title="Returns the string corresponding to the nth word in the argument or &quot;&quot; if the string is not long enou...">
<polygon fill="white" stroke="black" points="326,-39 326,-69 439,-69 439,-39 326,-39"/>
<text text-anchor="start" x="334" y="-57" font-family="Helvetica,sans-Serif" font-size="10.00">mom_string_functions</text>
<text text-anchor="middle" x="382.5" y="-46" font-family="Helvetica,sans-Serif" font-size="10.00">::extract_word</text>
</a>
</g>
</g>
<!-- Node124&#45;&gt;Node125 -->
<g id="edge5" class="edge"><title>Node124&#45;&gt;Node125</title>
<path fill="none" stroke="midnightblue" d="M279.133,-78.3885C291.005,-75.56 303.605,-72.558 315.758,-69.6626"/>
<polygon fill="midnightblue" stroke="midnightblue" points="316.919,-72.9842 325.835,-67.2618 315.296,-66.1747 316.919,-72.9842"/>
</g>
<!-- Node126 -->
<g id="node7" class="node"><title>Node126</title>
<g id="a_node7"><a xlink:href="MOM__open__boundary_8F90.html#a0793b1a5746e6ead6bff50c3a52cae90" target="_top" xlink:title="interpret_int_expr">
<polygon fill="white" stroke="black" points="336.5,-0.5 336.5,-19.5 428.5,-19.5 428.5,-0.5 336.5,-0.5"/>
<text text-anchor="middle" x="382.5" y="-7.5" font-family="Helvetica,sans-Serif" font-size="10.00">interpret_int_expr</text>
</a>
</g>
</g>
<!-- Node124&#45;&gt;Node126 -->
<g id="edge6" class="edge"><title>Node124&#45;&gt;Node126</title>
<path fill="none" stroke="midnightblue" d="M273.431,-76.9188C279.223,-74.3353 284.877,-71.3738 290,-68 309.701,-55.0266 306.238,-41.8801 326,-29 329.082,-26.9911 332.4,-25.1709 335.825,-23.526"/>
<polygon fill="midnightblue" stroke="midnightblue" points="337.24,-26.7273 345.054,-19.5724 334.484,-20.2928 337.24,-26.7273"/>
</g>
<!-- Node126&#45;&gt;Node122 -->
<g id="edge7" class="edge"><title>Node126&#45;&gt;Node122</title>
<path fill="none" stroke="midnightblue" d="M417.433,-19.5975C424.744,-22.2156 432.287,-25.3554 439,-29 462.753,-41.8963 486.697,-61.1723 503.599,-76.0752"/>
<polygon fill="midnightblue" stroke="midnightblue" points="501.521,-78.9133 511.299,-82.9927 506.199,-73.706 501.521,-78.9133"/>
</g>
</g>
</svg>
        <g id="navigator" transform="translate(0 0)" fill="#404254">
                <rect fill="#f2f5e9" fill-opacity="0.5" stroke="#606060" stroke-width=".5" x="0" y="0" width="60" height="60"/>
                <use id="zoomplus" xlink:href="#zoomPlus" x="17" y="9" onmousedown="handleZoom(evt,'in')"/>
                <use id="zoomminus" xlink:href="#zoomMin" x="42" y="9" onmousedown="handleZoom(evt,'out')"/>
                <use id="reset" xlink:href="#resetDef" x="30" y="36" onmousedown="handleReset()"/>
                <g id="arrowUp" xlink:href="#dirArrow" transform="translate(30 24)" onmousedown="handlePan(0,-1)">
                  <use xlink:href="#rim" fill="#404040">
                        <set attributeName="fill" to="#808080" begin="arrowUp.mouseover" end="arrowUp.mouseout"/>
                  </use>
                  <path fill="none" stroke="white" stroke-width="1.5" d="M0,-3.0v7 M-2.5,-0.5L0,-3.0L2.5,-0.5"/>
                </g>
                <g id="arrowRight" xlink:href="#dirArrow" transform="rotate(90) translate(36 -43)" onmousedown="handlePan(1,0)">
                  <use xlink:href="#rim" fill="#404040">
                        <set attributeName="fill" to="#808080" begin="arrowRight.mouseover" end="arrowRight.mouseout"/>
                  </use>
                  <path fill="none" stroke="white" stroke-width="1.5" d="M0,-3.0v7 M-2.5,-0.5L0,-3.0L2.5,-0.5"/>
                </g>
                <g id="arrowDown" xlink:href="#dirArrow" transform="rotate(180) translate(-30 -48)" onmousedown="handlePan(0,1)">
                  <use xlink:href="#rim" fill="#404040">
                        <set attributeName="fill" to="#808080" begin="arrowDown.mouseover" end="arrowDown.mouseout"/>
                  </use>
                  <path fill="none" stroke="white" stroke-width="1.5" d="M0,-3.0v7 M-2.5,-0.5L0,-3.0L2.5,-0.5"/>
                </g>
                <g id="arrowLeft" xlink:href="#dirArrow" transform="rotate(270) translate(-36 17)" onmousedown="handlePan(-1,0)">
                  <use xlink:href="#rim" fill="#404040">
                        <set attributeName="fill" to="#808080" begin="arrowLeft.mouseover" end="arrowLeft.mouseout"/>
                  </use>
                  <path fill="none" stroke="white" stroke-width="1.5" d="M0,-3.0v7 M-2.5,-0.5L0,-3.0L2.5,-0.5"/>
                </g>
        </g>
        <svg viewBox="0 0 15 15" width="100%" height="30px" preserveAspectRatio="xMaxYMin meet">
         <g id="arrow_out" transform="scale(0.3 0.3)">
          <a xlink:href="namespacemom__open__boundary_ab7c14cc1f67490ff9326c35471fb7ef7_cgraph_org.svg" target="_base">
           <rect id="button" ry="5" rx="5" y="6" x="6" height="38" width="38"
                fill="#f2f5e9" fill-opacity="0.5" stroke="#606060" stroke-width="1.0"/>
           <path id="arrow"
             d="M 11.500037,31.436501 C 11.940474,20.09759 22.043105,11.32322 32.158766,21.979434 L 37.068811,17.246167 C 37.068811,17.246167 37.088388,32 37.088388,32 L 22.160133,31.978069 C 22.160133,31.978069 26.997745,27.140456 26.997745,27.140456 C 18.528582,18.264221 13.291696,25.230495 11.500037,31.436501 z"
             style="fill:#404040;"/>
          </a>
         </g>
        </svg>
</svg>
