<?xml version="1.0" encoding="UTF-8" standalone="no"?>
<!DOCTYPE svg PUBLIC "-//W3C//DTD SVG 1.1//EN"
 "http://www.w3.org/Graphics/SVG/1.1/DTD/svg11.dtd">
<!-- Generated by graphviz version 2.38.0 (20140413.2041)
 -->
<!-- Title: mom_meke::meke_lengthscales_0d Pages: 1 -->
<svg width="797pt" height="66pt"
 viewBox="0.00 0.00 797.00 66.00" xmlns="http://www.w3.org/2000/svg" xmlns:xlink="http://www.w3.org/1999/xlink">
<g id="graph0" class="graph" transform="scale(1 1) rotate(0) translate(4 62)">
<title>mom_meke::meke_lengthscales_0d</title>
<polygon fill="white" stroke="none" points="-4,4 -4,-62 793,-62 793,4 -4,4"/>
<!-- Node32 -->
<g id="node1" class="node"><title>Node32</title>
<polygon fill="#bfbfbf" stroke="black" points="0,-19.5 0,-38.5 173,-38.5 173,-19.5 0,-19.5"/>
<text text-anchor="middle" x="86.5" y="-26.5" font-family="Helvetica,sans-Serif" font-size="10.00">mom_meke::meke_lengthscales_0d</text>
</g>
<!-- Node33 -->
<g id="node2" class="node"><title>Node33</title>
<g id="a_node2"><a xlink:href="namespacemom__meke.html#afc39c025706ccbcab39795b56a01d15c" target="_top" xlink:title="Calculates the equilibrium solutino where the source depends only on MEKE diffusivity and there is no...">
<polygon fill="white" stroke="black" points="213.5,-38.5 213.5,-57.5 362.5,-57.5 362.5,-38.5 213.5,-38.5"/>
<text text-anchor="middle" x="288" y="-45.5" font-family="Helvetica,sans-Serif" font-size="10.00">mom_meke::meke_equilibrium</text>
</a>
</g>
</g>
<!-- Node32&#45;&gt;Node33 -->
<g id="edge1" class="edge"><title>Node32&#45;&gt;Node33</title>
<path fill="none" stroke="midnightblue" d="M183.292,-38.1231C193.353,-39.0813 203.469,-40.0446 213.227,-40.974"/>
<polygon fill="midnightblue" stroke="midnightblue" points="183.551,-34.6319 173.264,-37.168 182.887,-41.6004 183.551,-34.6319"/>
</g>
<!-- Node37 -->
<g id="node6" class="node"><title>Node37</title>
<g id="a_node6"><a xlink:href="namespacemom__meke.html#aa5ed096f400a914e1e318fde1e880ffe" target="_top" xlink:title="Calculates the eddy mixing length scale and &#160;and &#160;functions that are ratios of either bottom or barot...">
<polygon fill="white" stroke="black" points="209,-0.5 209,-19.5 367,-19.5 367,-0.5 209,-0.5"/>
<text text-anchor="middle" x="288" y="-7.5" font-family="Helvetica,sans-Serif" font-size="10.00">mom_meke::meke_lengthscales</text>
</a>
</g>
</g>
<!-- Node32&#45;&gt;Node37 -->
<g id="edge5" class="edge"><title>Node32&#45;&gt;Node37</title>
<path fill="none" stroke="midnightblue" d="M183.292,-19.8769C191.863,-19.0607 200.473,-18.2407 208.868,-17.4411"/>
<polygon fill="midnightblue" stroke="midnightblue" points="182.887,-16.3996 173.264,-20.832 183.551,-23.3681 182.887,-16.3996"/>
</g>
<!-- Node34 -->
<g id="node3" class="node"><title>Node34</title>
<g id="a_node3"><a xlink:href="namespacemom__meke.html#adff303c8c542ec848294078e4b3bc010" target="_top" xlink:title="Integrates forward&#45;in&#45;time the MEKE eddy energy equation. See MEKE equations. ">
<polygon fill="white" stroke="black" points="403,-19.5 403,-38.5 562,-38.5 562,-19.5 403,-19.5"/>
<text text-anchor="middle" x="482.5" y="-26.5" font-family="Helvetica,sans-Serif" font-size="10.00">mom_meke::step_forward_meke</text>
</a>
</g>
</g>
<!-- Node33&#45;&gt;Node34 -->
<g id="edge2" class="edge"><title>Node33&#45;&gt;Node34</title>
<path fill="none" stroke="midnightblue" d="M372.567,-39.7519C382.613,-38.7603 392.846,-37.7503 402.819,-36.7659"/>
<polygon fill="midnightblue" stroke="midnightblue" points="372.208,-36.2702 362.6,-40.7356 372.895,-43.2363 372.208,-36.2702"/>
</g>
<!-- Node35 -->
<g id="node4" class="node"><title>Node35</title>
<g id="a_node4"><a xlink:href="namespacemom.html#a4c8332b095c6d295084089aa6b3b678a" target="_top" xlink:title="This subroutine orchestrates the time stepping of MOM. The adiabatic dynamics are stepped by calls to...">
<polygon fill="white" stroke="black" points="598,-19.5 598,-38.5 688,-38.5 688,-19.5 598,-19.5"/>
<text text-anchor="middle" x="643" y="-26.5" font-family="Helvetica,sans-Serif" font-size="10.00">mom::step_mom</text>
</a>
</g>
</g>
<!-- Node34&#45;&gt;Node35 -->
<g id="edge3" class="edge"><title>Node34&#45;&gt;Node35</title>
<path fill="none" stroke="midnightblue" d="M572.335,-29C581.196,-29 589.894,-29 597.979,-29"/>
<polygon fill="midnightblue" stroke="midnightblue" points="572.286,-25.5001 562.286,-29 572.286,-32.5001 572.286,-25.5001"/>
</g>
<!-- Node36 -->
<g id="node5" class="node"><title>Node36</title>
<g id="a_node5"><a xlink:href="MOM__driver_8F90.html#a08fffeb2d8e8acbf9ed4609be6d258c6" target="_top" xlink:title="mom_main">
<polygon fill="white" stroke="black" points="724,-19.5 724,-38.5 789,-38.5 789,-19.5 724,-19.5"/>
<text text-anchor="middle" x="756.5" y="-26.5" font-family="Helvetica,sans-Serif" font-size="10.00">mom_main</text>
</a>
</g>
</g>
<!-- Node35&#45;&gt;Node36 -->
<g id="edge4" class="edge"><title>Node35&#45;&gt;Node36</title>
<path fill="none" stroke="midnightblue" d="M698.26,-29C707.006,-29 715.8,-29 723.782,-29"/>
<polygon fill="midnightblue" stroke="midnightblue" points="698.068,-25.5001 688.068,-29 698.068,-32.5001 698.068,-25.5001"/>
</g>
<!-- Node37&#45;&gt;Node34 -->
<g id="edge6" class="edge"><title>Node37&#45;&gt;Node34</title>
<path fill="none" stroke="midnightblue" d="M377.03,-18.6886C385.605,-19.535 394.268,-20.3901 402.744,-21.2266"/>
<polygon fill="midnightblue" stroke="midnightblue" points="377.315,-15.1999 367.02,-17.7006 376.627,-22.166 377.315,-15.1999"/>
</g>
</g>
</svg>
