<?xml version="1.0" encoding="UTF-8" standalone="no"?>
<!DOCTYPE svg PUBLIC "-//W3C//DTD SVG 1.1//EN"
 "http://www.w3.org/Graphics/SVG/1.1/DTD/svg11.dtd">
<!-- Generated by graphviz version 2.38.0 (20140413.2041)
 -->
<!-- Title: mom_diabatic_driver::diabatic_driver_end Pages: 1 -->
<svg width="285pt" height="127pt"
 viewBox="0.00 0.00 285.00 126.50" xmlns="http://www.w3.org/2000/svg" xmlns:xlink="http://www.w3.org/1999/xlink">
<g id="graph0" class="graph" transform="scale(1 1) rotate(0) translate(4 122.5)">
<title>mom_diabatic_driver::diabatic_driver_end</title>
<polygon fill="white" stroke="none" points="-4,4 -4,-122.5 281,-122.5 281,4 -4,4"/>
<!-- Node79 -->
<g id="node1" class="node"><title>Node79</title>
<polygon fill="#bfbfbf" stroke="black" points="0,-39 0,-69 107,-69 107,-39 0,-39"/>
<text text-anchor="start" x="8" y="-57" font-family="Helvetica,sans-Serif" font-size="10.00">mom_diabatic_driver</text>
<text text-anchor="middle" x="53.5" y="-46" font-family="Helvetica,sans-Serif" font-size="10.00">::diabatic_driver_end</text>
</g>
<!-- Node80 -->
<g id="node2" class="node"><title>Node80</title>
<g id="a_node2"><a xlink:href="namespacemom__diffconvection.html#a2e5f3122de47a0de9b88dbbb6866e17c" target="_top" xlink:title="mom_diffconvection\l::diffconvection_end">
<polygon fill="white" stroke="black" points="158,-88 158,-118 262,-118 262,-88 158,-88"/>
<text text-anchor="start" x="166" y="-106" font-family="Helvetica,sans-Serif" font-size="10.00">mom_diffconvection</text>
<text text-anchor="middle" x="210" y="-95" font-family="Helvetica,sans-Serif" font-size="10.00">::diffconvection_end</text>
</a>
</g>
</g>
<!-- Node79&#45;&gt;Node80 -->
<g id="edge1" class="edge"><title>Node79&#45;&gt;Node80</title>
<path fill="none" stroke="midnightblue" d="M102.116,-69.1014C117.755,-74.0615 135.305,-79.6274 151.592,-84.7929"/>
<polygon fill="midnightblue" stroke="midnightblue" points="150.951,-88.2615 161.541,-87.9484 153.067,-81.589 150.951,-88.2615"/>
</g>
<!-- Node81 -->
<g id="node3" class="node"><title>Node81</title>
<g id="a_node3"><a xlink:href="namespacemom__entrain__diffusive.html#a0e71b47abe1e1889f4b687139615ca14" target="_top" xlink:title="mom_entrain_diffusive\l::entrain_diffusive_end">
<polygon fill="white" stroke="black" points="152.5,-39 152.5,-69 267.5,-69 267.5,-39 152.5,-39"/>
<text text-anchor="start" x="160.5" y="-57" font-family="Helvetica,sans-Serif" font-size="10.00">mom_entrain_diffusive</text>
<text text-anchor="middle" x="210" y="-46" font-family="Helvetica,sans-Serif" font-size="10.00">::entrain_diffusive_end</text>
</a>
</g>
</g>
<!-- Node79&#45;&gt;Node81 -->
<g id="edge2" class="edge"><title>Node79&#45;&gt;Node81</title>
<path fill="none" stroke="midnightblue" d="M107.238,-54C118.462,-54 130.455,-54 142.127,-54"/>
<polygon fill="midnightblue" stroke="midnightblue" points="142.274,-57.5001 152.274,-54 142.274,-50.5001 142.274,-57.5001"/>
</g>
<!-- Node82 -->
<g id="node4" class="node"><title>Node82</title>
<g id="a_node4"><a xlink:href="namespacemom__opacity.html#ab5c0caabbf8a806a95bcc416da673841" target="_top" xlink:title="mom_opacity::opacity_end">
<polygon fill="white" stroke="black" points="143,-0.5 143,-19.5 277,-19.5 277,-0.5 143,-0.5"/>
<text text-anchor="middle" x="210" y="-7.5" font-family="Helvetica,sans-Serif" font-size="10.00">mom_opacity::opacity_end</text>
</a>
</g>
</g>
<!-- Node79&#45;&gt;Node82 -->
<g id="edge3" class="edge"><title>Node79&#45;&gt;Node82</title>
<path fill="none" stroke="midnightblue" d="M107.238,-38.9808C126.268,-33.5613 147.511,-27.5114 165.646,-22.3468"/>
<polygon fill="midnightblue" stroke="midnightblue" points="166.708,-25.6835 175.367,-19.5783 164.791,-18.9512 166.708,-25.6835"/>
</g>
</g>
</svg>
