<?xml version="1.0" encoding="UTF-8" standalone="no"?>
<!DOCTYPE svg PUBLIC "-//W3C//DTD SVG 1.1//EN"
 "http://www.w3.org/Graphics/SVG/1.1/DTD/svg11.dtd">
<!-- Generated by graphviz version 2.38.0 (20140413.2041)
 -->
<!-- Title: mom_dynamics_unsplit::step_mom_dyn_unsplit Pages: 1 -->
<svg width="785pt" height="342pt"
 viewBox="0.00 0.00 785.00 341.65" xmlns="http://www.w3.org/2000/svg" xmlns:xlink="http://www.w3.org/1999/xlink">
<g id="graph0" class="graph" transform="scale(1 1) rotate(0) translate(4 337.651)">
<title>mom_dynamics_unsplit::step_mom_dyn_unsplit</title>
<polygon fill="white" stroke="none" points="-4,4 -4,-337.651 781,-337.651 781,4 -4,4"/>
<!-- Node6 -->
<g id="node1" class="node"><title>Node6</title>
<polygon fill="#bfbfbf" stroke="black" points="0,-161.5 0,-191.5 123,-191.5 123,-161.5 0,-161.5"/>
<text text-anchor="start" x="8" y="-179.5" font-family="Helvetica,sans-Serif" font-size="10.00">mom_dynamics_unsplit</text>
<text text-anchor="middle" x="61.5" y="-168.5" font-family="Helvetica,sans-Serif" font-size="10.00">::step_mom_dyn_unsplit</text>
</g>
<!-- Node7 -->
<g id="node2" class="node"><title>Node7</title>
<g id="a_node2"><a xlink:href="namespacemom__continuity.html#a483dba08c6a9574d7fe814cadccd870e" target="_top" xlink:title="Time steps the layer thicknesses, using a monotonically limited, directionally split PPM scheme...">
<polygon fill="white" stroke="black" points="359,-312 359,-331 493,-331 493,-312 359,-312"/>
<text text-anchor="middle" x="426" y="-319" font-family="Helvetica,sans-Serif" font-size="10.00">mom_continuity::continuity</text>
</a>
</g>
</g>
<!-- Node6&#45;&gt;Node7 -->
<g id="edge1" class="edge"><title>Node6&#45;&gt;Node7</title>
<path fill="none" stroke="midnightblue" d="M69.0442,-191.916C81.7564,-219.684 112.671,-277.535 159,-302.5 217.897,-334.238 295.058,-336.199 351.098,-331.888"/>
<polygon fill="midnightblue" stroke="midnightblue" points="351.641,-335.354 361.307,-331.015 351.045,-328.379 351.641,-335.354"/>
</g>
<!-- Node10 -->
<g id="node5" class="node"><title>Node10</title>
<g id="a_node5"><a xlink:href="namespacemom__coriolisadv.html#a48e46860dad5118d78c8cd7de964e71f" target="_top" xlink:title="Calculates the Coriolis and momentum advection contributions to the acceleration. ...">
<polygon fill="white" stroke="black" points="172,-274 172,-293 310,-293 310,-274 172,-274"/>
<text text-anchor="middle" x="241" y="-281" font-family="Helvetica,sans-Serif" font-size="10.00">mom_coriolisadv::coradcalc</text>
</a>
</g>
</g>
<!-- Node6&#45;&gt;Node10 -->
<g id="edge4" class="edge"><title>Node6&#45;&gt;Node10</title>
<path fill="none" stroke="midnightblue" d="M76.0725,-191.567C93.5391,-210.092 125.63,-241.305 159,-259.5 167.315,-264.034 176.588,-267.807 185.808,-270.915"/>
<polygon fill="midnightblue" stroke="midnightblue" points="184.764,-274.256 195.354,-273.918 186.864,-267.579 184.764,-274.256"/>
</g>
<!-- Node12 -->
<g id="node7" class="node"><title>Node12</title>
<g id="a_node7"><a xlink:href="namespacemom__hor__visc.html#a9f553282bddb798335a3c7aa8f49bd76" target="_top" xlink:title="This subroutine determines the acceleration due to the horizontal viscosity. A combination of biharmo...">
<polygon fill="white" stroke="black" points="362,-186.5 362,-216.5 490,-216.5 490,-186.5 362,-186.5"/>
<text text-anchor="start" x="370" y="-204.5" font-family="Helvetica,sans-Serif" font-size="10.00">mom_hor_visc::horizontal</text>
<text text-anchor="middle" x="426" y="-193.5" font-family="Helvetica,sans-Serif" font-size="10.00">_viscosity</text>
</a>
</g>
</g>
<!-- Node6&#45;&gt;Node12 -->
<g id="edge7" class="edge"><title>Node6&#45;&gt;Node12</title>
<path fill="none" stroke="midnightblue" d="M84.7128,-191.609C103.549,-203.453 131.773,-218.983 159,-225.5 226.605,-241.681 306.254,-230.679 360.654,-218.783"/>
<polygon fill="midnightblue" stroke="midnightblue" points="361.526,-222.174 370.51,-216.558 359.984,-215.346 361.526,-222.174"/>
</g>
<!-- Node13 -->
<g id="node8" class="node"><title>Node13</title>
<g id="a_node8"><a xlink:href="namespacemom__checksum__packages.html#ad209641ecdd8dac3eae4b04e64e209ed" target="_top" xlink:title="mom_checksum_packages\l::mom_accel_chksum">
<polygon fill="white" stroke="black" points="173,-186.5 173,-216.5 309,-216.5 309,-186.5 173,-186.5"/>
<text text-anchor="start" x="181" y="-204.5" font-family="Helvetica,sans-Serif" font-size="10.00">mom_checksum_packages</text>
<text text-anchor="middle" x="241" y="-193.5" font-family="Helvetica,sans-Serif" font-size="10.00">::mom_accel_chksum</text>
</a>
</g>
</g>
<!-- Node6&#45;&gt;Node13 -->
<g id="edge9" class="edge"><title>Node6&#45;&gt;Node13</title>
<path fill="none" stroke="midnightblue" d="M123.089,-185.034C135.894,-186.837 149.571,-188.764 162.893,-190.64"/>
<polygon fill="midnightblue" stroke="midnightblue" points="162.599,-194.133 172.99,-192.062 163.576,-187.201 162.599,-194.133"/>
</g>
<!-- Node14 -->
<g id="node9" class="node"><title>Node14</title>
<g id="a_node9"><a xlink:href="namespacemom__open__boundary.html#a9d48e6925d93fa98cbf5bb73903f94be" target="_top" xlink:title="Applies zero values to 3d u,v fields on OBC segments. ">
<polygon fill="white" stroke="black" points="159,-137.5 159,-167.5 323,-167.5 323,-137.5 159,-137.5"/>
<text text-anchor="start" x="167" y="-155.5" font-family="Helvetica,sans-Serif" font-size="10.00">mom_open_boundary::</text>
<text text-anchor="middle" x="241" y="-144.5" font-family="Helvetica,sans-Serif" font-size="10.00">open_boundary_zero_normal_flow</text>
</a>
</g>
</g>
<!-- Node6&#45;&gt;Node14 -->
<g id="edge10" class="edge"><title>Node6&#45;&gt;Node14</title>
<path fill="none" stroke="midnightblue" d="M123.089,-168.308C131.48,-167.173 140.247,-165.988 149.042,-164.799"/>
<polygon fill="midnightblue" stroke="midnightblue" points="149.525,-168.265 158.965,-163.457 148.587,-161.328 149.525,-168.265"/>
</g>
<!-- Node15 -->
<g id="node10" class="node"><title>Node15</title>
<g id="a_node10"><a xlink:href="namespacemom__pressureforce.html#a9f010455182eeaa61c9f01caff250bf8" target="_top" xlink:title="A thin layer between the model and the Boussinesq and non&#45;Boussinesq pressure force routines...">
<polygon fill="white" stroke="black" points="186.5,-88.5 186.5,-118.5 295.5,-118.5 295.5,-88.5 186.5,-88.5"/>
<text text-anchor="start" x="194.5" y="-106.5" font-family="Helvetica,sans-Serif" font-size="10.00">mom_pressureforce::</text>
<text text-anchor="middle" x="241" y="-95.5" font-family="Helvetica,sans-Serif" font-size="10.00">pressureforce</text>
</a>
</g>
</g>
<!-- Node6&#45;&gt;Node15 -->
<g id="edge11" class="edge"><title>Node6&#45;&gt;Node15</title>
<path fill="none" stroke="midnightblue" d="M88.9311,-161.43C107.992,-150.974 134.561,-137.232 159,-127.5 164.723,-125.221 170.748,-123.044 176.823,-120.997"/>
<polygon fill="midnightblue" stroke="midnightblue" points="177.946,-124.312 186.373,-117.89 175.78,-117.655 177.946,-124.312"/>
</g>
<!-- Node16 -->
<g id="node11" class="node"><title>Node16</title>
<g id="a_node11"><a xlink:href="namespacemom__set__visc.html#afa97c345f1c4caaaf53b039d0b3fc9d8" target="_top" xlink:title="The following subroutine calculates the thickness of the surface boundary layer for applying an eleva...">
<polygon fill="white" stroke="black" points="163.5,-50 163.5,-69 318.5,-69 318.5,-50 163.5,-50"/>
<text text-anchor="middle" x="241" y="-57" font-family="Helvetica,sans-Serif" font-size="10.00">mom_set_visc::set_viscous_ml</text>
</a>
</g>
</g>
<!-- Node6&#45;&gt;Node16 -->
<g id="edge12" class="edge"><title>Node6&#45;&gt;Node16</title>
<path fill="none" stroke="midnightblue" d="M73.0569,-161.282C89.0418,-139.447 121.526,-99.5478 159,-78.5 163.004,-76.2509 167.264,-74.2673 171.653,-72.5181"/>
<polygon fill="midnightblue" stroke="midnightblue" points="173.167,-75.6946 181.42,-69.0509 170.825,-69.0979 173.167,-75.6946"/>
</g>
<!-- Node20 -->
<g id="node15" class="node"><title>Node20</title>
<g id="a_node15"><a xlink:href="namespacemom__boundary__update.html#af9005694e5b84a5dd5cbcdff7f69b93c" target="_top" xlink:title="Calls appropriate routine to update the open boundary conditions. ">
<polygon fill="white" stroke="black" points="182,-0.5 182,-30.5 300,-30.5 300,-0.5 182,-0.5"/>
<text text-anchor="start" x="190" y="-18.5" font-family="Helvetica,sans-Serif" font-size="10.00">mom_boundary_update</text>
<text text-anchor="middle" x="241" y="-7.5" font-family="Helvetica,sans-Serif" font-size="10.00">::update_obc_data</text>
</a>
</g>
</g>
<!-- Node6&#45;&gt;Node20 -->
<g id="edge18" class="edge"><title>Node6&#45;&gt;Node20</title>
<path fill="none" stroke="midnightblue" d="M69.1353,-161.361C82.2045,-133.296 113.971,-73.0919 159,-40.5 163.214,-37.4502 167.808,-34.7659 172.597,-32.4045"/>
<polygon fill="midnightblue" stroke="midnightblue" points="174.267,-35.4932 181.999,-28.2498 171.437,-29.0905 174.267,-35.4932"/>
</g>
<!-- Node8 -->
<g id="node3" class="node"><title>Node8</title>
<g id="a_node3"><a xlink:href="namespacemom__error__handler.html#a460cfb79a06c29fc249952c2a3710d67" target="_top" xlink:title="mom_error_handler::\lmom_error">
<polygon fill="white" stroke="black" points="529,-186.5 529,-216.5 635,-216.5 635,-186.5 529,-186.5"/>
<text text-anchor="start" x="537" y="-204.5" font-family="Helvetica,sans-Serif" font-size="10.00">mom_error_handler::</text>
<text text-anchor="middle" x="582" y="-193.5" font-family="Helvetica,sans-Serif" font-size="10.00">mom_error</text>
</a>
</g>
</g>
<!-- Node7&#45;&gt;Node8 -->
<g id="edge2" class="edge"><title>Node7&#45;&gt;Node8</title>
<path fill="none" stroke="midnightblue" d="M463.095,-311.879C473.25,-308.263 483.976,-303.526 493,-297.5 522.415,-277.856 548.743,-246.369 564.771,-224.85"/>
<polygon fill="midnightblue" stroke="midnightblue" points="567.735,-226.725 570.791,-216.581 562.076,-222.606 567.735,-226.725"/>
</g>
<!-- Node9 -->
<g id="node4" class="node"><title>Node9</title>
<g id="a_node4"><a xlink:href="namespacemom__error__handler.html#ad5f00a53059c72fe2332d1436c80ca71" target="_top" xlink:title="mom_error_handler::\lis_root_pe">
<polygon fill="white" stroke="black" points="671,-186.5 671,-216.5 777,-216.5 777,-186.5 671,-186.5"/>
<text text-anchor="start" x="679" y="-204.5" font-family="Helvetica,sans-Serif" font-size="10.00">mom_error_handler::</text>
<text text-anchor="middle" x="724" y="-193.5" font-family="Helvetica,sans-Serif" font-size="10.00">is_root_pe</text>
</a>
</g>
</g>
<!-- Node8&#45;&gt;Node9 -->
<g id="edge3" class="edge"><title>Node8&#45;&gt;Node9</title>
<path fill="none" stroke="midnightblue" d="M635.131,-201.5C643.421,-201.5 652.07,-201.5 660.568,-201.5"/>
<polygon fill="midnightblue" stroke="midnightblue" points="660.826,-205 670.826,-201.5 660.826,-198 660.826,-205"/>
</g>
<!-- Node10&#45;&gt;Node8 -->
<g id="edge6" class="edge"><title>Node10&#45;&gt;Node8</title>
<path fill="none" stroke="midnightblue" d="M310.127,-288.11C361.828,-289.312 433.852,-285.986 493,-264.5 517.586,-255.569 541.457,-237.72 558.119,-223.294"/>
<polygon fill="midnightblue" stroke="midnightblue" points="560.557,-225.809 565.691,-216.541 555.898,-220.584 560.557,-225.809"/>
</g>
<!-- Node11 -->
<g id="node6" class="node"><title>Node11</title>
<g id="a_node6"><a xlink:href="namespacemom__coriolisadv.html#a8d9732ffd7debb051047934fe1551f97" target="_top" xlink:title="Calculates the acceleration due to the gradient of kinetic energy. ">
<polygon fill="white" stroke="black" points="363.5,-236 363.5,-255 488.5,-255 488.5,-236 363.5,-236"/>
<text text-anchor="middle" x="426" y="-243" font-family="Helvetica,sans-Serif" font-size="10.00">mom_coriolisadv::gradke</text>
</a>
</g>
</g>
<!-- Node10&#45;&gt;Node11 -->
<g id="edge5" class="edge"><title>Node10&#45;&gt;Node11</title>
<path fill="none" stroke="midnightblue" d="M288.179,-273.911C312.763,-268.806 343.186,-262.489 369.097,-257.108"/>
<polygon fill="midnightblue" stroke="midnightblue" points="370.074,-260.48 379.153,-255.02 368.651,-253.626 370.074,-260.48"/>
</g>
<!-- Node12&#45;&gt;Node8 -->
<g id="edge8" class="edge"><title>Node12&#45;&gt;Node8</title>
<path fill="none" stroke="midnightblue" d="M490.082,-201.5C499.476,-201.5 509.156,-201.5 518.537,-201.5"/>
<polygon fill="midnightblue" stroke="midnightblue" points="518.572,-205 528.572,-201.5 518.572,-198 518.572,-205"/>
</g>
<!-- Node16&#45;&gt;Node8 -->
<g id="edge13" class="edge"><title>Node16&#45;&gt;Node8</title>
<path fill="none" stroke="midnightblue" d="M304.175,-69.0181C310.84,-71.4907 317.269,-74.5977 323,-78.5 346.234,-94.3212 336.41,-113.772 359,-130.5 372.207,-140.28 458.054,-166.24 519.028,-183.906"/>
<polygon fill="midnightblue" stroke="midnightblue" points="518.384,-187.363 528.963,-186.775 520.326,-180.638 518.384,-187.363"/>
</g>
<!-- Node17 -->
<g id="node12" class="node"><title>Node17</title>
<g id="a_node12"><a xlink:href="namespacemom__eos.html#a204529f8434a0322314e6ce2a9762436" target="_top" xlink:title="Calls the appropriate subroutine to calculate density derivatives for 1&#45;D array inputs. ">
<polygon fill="white" stroke="black" points="374,-91.5 374,-121.5 478,-121.5 478,-91.5 374,-91.5"/>
<text text-anchor="start" x="382" y="-109.5" font-family="Helvetica,sans-Serif" font-size="10.00">mom_eos::calculate</text>
<text text-anchor="middle" x="426" y="-98.5" font-family="Helvetica,sans-Serif" font-size="10.00">_density_derivs</text>
</a>
</g>
</g>
<!-- Node16&#45;&gt;Node17 -->
<g id="edge14" class="edge"><title>Node16&#45;&gt;Node17</title>
<path fill="none" stroke="midnightblue" d="M284.114,-69.0626C296.65,-71.9944 310.402,-75.2944 323,-78.5 336.39,-81.9069 350.719,-85.7298 364.28,-89.4299"/>
<polygon fill="midnightblue" stroke="midnightblue" points="363.424,-92.8244 373.994,-92.0947 365.276,-86.0738 363.424,-92.8244"/>
</g>
<!-- Node18 -->
<g id="node13" class="node"><title>Node18</title>
<g id="a_node13"><a xlink:href="namespacemom__set__visc.html#a21407595c202ddb14499af771b6f11e9" target="_top" xlink:title="This subroutine finds a thickness&#45;weighted value of v at the u&#45;points. ">
<polygon fill="white" stroke="black" points="359,-51 359,-70 493,-70 493,-51 359,-51"/>
<text text-anchor="middle" x="426" y="-58" font-family="Helvetica,sans-Serif" font-size="10.00">mom_set_visc::set_v_at_u</text>
</a>
</g>
</g>
<!-- Node16&#45;&gt;Node18 -->
<g id="edge16" class="edge"><title>Node16&#45;&gt;Node18</title>
<path fill="none" stroke="midnightblue" d="M318.548,-59.9183C328.507,-59.9727 338.709,-60.0285 348.664,-60.0829"/>
<polygon fill="midnightblue" stroke="midnightblue" points="348.91,-63.5842 358.929,-60.139 348.948,-56.5843 348.91,-63.5842"/>
</g>
<!-- Node19 -->
<g id="node14" class="node"><title>Node19</title>
<g id="a_node14"><a xlink:href="namespacemom__set__visc.html#a27ae4b202fb6449cef877d59bc91aa29" target="_top" xlink:title="This subroutine finds a thickness&#45;weighted value of u at the v&#45;points. ">
<polygon fill="white" stroke="black" points="359,-13 359,-32 493,-32 493,-13 359,-13"/>
<text text-anchor="middle" x="426" y="-20" font-family="Helvetica,sans-Serif" font-size="10.00">mom_set_visc::set_u_at_v</text>
</a>
</g>
</g>
<!-- Node16&#45;&gt;Node19 -->
<g id="edge17" class="edge"><title>Node16&#45;&gt;Node19</title>
<path fill="none" stroke="midnightblue" d="M289.127,-49.9716C313.154,-45.1136 342.568,-39.1666 367.876,-34.0497"/>
<polygon fill="midnightblue" stroke="midnightblue" points="368.607,-37.4728 377.715,-32.0604 367.22,-30.6116 368.607,-37.4728"/>
</g>
<!-- Node17&#45;&gt;Node8 -->
<g id="edge15" class="edge"><title>Node17&#45;&gt;Node8</title>
<path fill="none" stroke="midnightblue" d="M460.817,-121.538C471.327,-126.57 482.82,-132.448 493,-138.5 514.042,-151.01 536.46,-167.105 553.403,-179.895"/>
<polygon fill="midnightblue" stroke="midnightblue" points="551.654,-182.963 561.727,-186.246 555.899,-177.398 551.654,-182.963"/>
</g>
</g>
</svg>
