<?xml version="1.0" encoding="UTF-8" standalone="no"?>
<!DOCTYPE svg PUBLIC "-//W3C//DTD SVG 1.1//EN"
 "http://www.w3.org/Graphics/SVG/1.1/DTD/svg11.dtd">
<!-- Generated by graphviz version 2.38.0 (20140413.2041)
 -->
<!-- Title: mom_file_parser::get_param_int_array Pages: 1 -->
<svg width="815pt" height="218pt"
 viewBox="0.00 0.00 815.00 217.50" xmlns="http://www.w3.org/2000/svg" xmlns:xlink="http://www.w3.org/1999/xlink">
<g id="graph0" class="graph" transform="scale(1 1) rotate(0) translate(4 213.5)">
<title>mom_file_parser::get_param_int_array</title>
<polygon fill="white" stroke="none" points="-4,4 -4,-213.5 811,-213.5 811,4 -4,4"/>
<!-- Node88 -->
<g id="node1" class="node"><title>Node88</title>
<polygon fill="#bfbfbf" stroke="black" points="0,-119 0,-149 108,-149 108,-119 0,-119"/>
<text text-anchor="start" x="8" y="-137" font-family="Helvetica,sans-Serif" font-size="10.00">mom_file_parser::get</text>
<text text-anchor="middle" x="54" y="-126" font-family="Helvetica,sans-Serif" font-size="10.00">_param_int_array</text>
</g>
<!-- Node89 -->
<g id="node2" class="node"><title>Node89</title>
<g id="a_node2"><a xlink:href="namespacemom__file__parser.html#a5f5c684a42de7e61e51a87407b335ee5" target="_top" xlink:title="mom_file_parser::log\l_param_int_array">
<polygon fill="white" stroke="black" points="293.5,-179 293.5,-209 400.5,-209 400.5,-179 293.5,-179"/>
<text text-anchor="start" x="301.5" y="-197" font-family="Helvetica,sans-Serif" font-size="10.00">mom_file_parser::log</text>
<text text-anchor="middle" x="347" y="-186" font-family="Helvetica,sans-Serif" font-size="10.00">_param_int_array</text>
</a>
</g>
</g>
<!-- Node88&#45;&gt;Node89 -->
<g id="edge1" class="edge"><title>Node88&#45;&gt;Node89</title>
<path fill="none" stroke="midnightblue" d="M108.036,-144.935C157.472,-155.128 231.226,-170.335 283.502,-181.114"/>
<polygon fill="midnightblue" stroke="midnightblue" points="282.828,-184.548 293.329,-183.14 284.242,-177.693 282.828,-184.548"/>
</g>
<!-- Node91 -->
<g id="node4" class="node"><title>Node91</title>
<g id="a_node4"><a xlink:href="namespacemom__file__parser.html#a9f3cacd113743a19df607293b6c30ec7" target="_top" xlink:title="mom_file_parser::read\l_param_int_array">
<polygon fill="white" stroke="black" points="144,-97 144,-127 257,-127 257,-97 144,-97"/>
<text text-anchor="start" x="152" y="-115" font-family="Helvetica,sans-Serif" font-size="10.00">mom_file_parser::read</text>
<text text-anchor="middle" x="200.5" y="-104" font-family="Helvetica,sans-Serif" font-size="10.00">_param_int_array</text>
</a>
</g>
</g>
<!-- Node88&#45;&gt;Node91 -->
<g id="edge3" class="edge"><title>Node88&#45;&gt;Node91</title>
<path fill="none" stroke="midnightblue" d="M108.396,-125.871C116.717,-124.604 125.397,-123.282 133.95,-121.98"/>
<polygon fill="midnightblue" stroke="midnightblue" points="134.545,-125.43 143.904,-120.464 133.491,-118.51 134.545,-125.43"/>
</g>
<!-- Node90 -->
<g id="node3" class="node"><title>Node90</title>
<g id="a_node3"><a xlink:href="namespacemom__error__handler.html#ad5f00a53059c72fe2332d1436c80ca71" target="_top" xlink:title="mom_error_handler::\lis_root_pe">
<polygon fill="white" stroke="black" points="701,-159 701,-189 807,-189 807,-159 701,-159"/>
<text text-anchor="start" x="709" y="-177" font-family="Helvetica,sans-Serif" font-size="10.00">mom_error_handler::</text>
<text text-anchor="middle" x="754" y="-166" font-family="Helvetica,sans-Serif" font-size="10.00">is_root_pe</text>
</a>
</g>
</g>
<!-- Node89&#45;&gt;Node90 -->
<g id="edge2" class="edge"><title>Node89&#45;&gt;Node90</title>
<path fill="none" stroke="midnightblue" d="M400.565,-195.232C463.547,-196.194 572.2,-196.22 665,-188 673.307,-187.264 682.017,-186.218 690.593,-185.024"/>
<polygon fill="midnightblue" stroke="midnightblue" points="691.178,-188.475 700.566,-183.564 690.164,-181.549 691.178,-188.475"/>
</g>
<!-- Node92 -->
<g id="node5" class="node"><title>Node92</title>
<g id="a_node5"><a xlink:href="namespacemom__file__parser.html#af883df6020543889b25986d6ee9701f7" target="_top" xlink:title="mom_file_parser::get\l_variable_line">
<polygon fill="white" stroke="black" points="293,-95 293,-125 401,-125 401,-95 293,-95"/>
<text text-anchor="start" x="301" y="-113" font-family="Helvetica,sans-Serif" font-size="10.00">mom_file_parser::get</text>
<text text-anchor="middle" x="347" y="-102" font-family="Helvetica,sans-Serif" font-size="10.00">_variable_line</text>
</a>
</g>
</g>
<!-- Node91&#45;&gt;Node92 -->
<g id="edge4" class="edge"><title>Node91&#45;&gt;Node92</title>
<path fill="none" stroke="midnightblue" d="M257.367,-111.227C265.611,-111.113 274.155,-110.994 282.538,-110.878"/>
<polygon fill="midnightblue" stroke="midnightblue" points="282.703,-114.377 292.654,-110.738 282.606,-107.377 282.703,-114.377"/>
</g>
<!-- Node92&#45;&gt;Node90 -->
<g id="edge5" class="edge"><title>Node92&#45;&gt;Node90</title>
<path fill="none" stroke="midnightblue" d="M371.109,-125.005C388.479,-135.439 413.266,-148.582 437,-155 522.739,-178.185 626.155,-179.669 690.763,-177.612"/>
<polygon fill="midnightblue" stroke="midnightblue" points="690.922,-181.109 700.791,-177.254 690.672,-174.113 690.922,-181.109"/>
</g>
<!-- Node93 -->
<g id="node6" class="node"><title>Node93</title>
<g id="a_node6"><a xlink:href="namespacemom__file__parser.html#a58777b0faf747d59a793b4e238919dc6" target="_top" xlink:title="mom_file_parser::pushblocklevel">
<polygon fill="white" stroke="black" points="471.5,-126.5 471.5,-145.5 630.5,-145.5 630.5,-126.5 471.5,-126.5"/>
<text text-anchor="middle" x="551" y="-133.5" font-family="Helvetica,sans-Serif" font-size="10.00">mom_file_parser::pushblocklevel</text>
</a>
</g>
</g>
<!-- Node92&#45;&gt;Node93 -->
<g id="edge6" class="edge"><title>Node92&#45;&gt;Node93</title>
<path fill="none" stroke="midnightblue" d="M401.073,-116.831C420.941,-119.388 444.03,-122.36 466.013,-125.19"/>
<polygon fill="midnightblue" stroke="midnightblue" points="465.654,-128.672 476.019,-126.478 466.548,-121.73 465.654,-128.672"/>
</g>
<!-- Node94 -->
<g id="node7" class="node"><title>Node94</title>
<g id="a_node7"><a xlink:href="namespacemom__file__parser.html#a7803aabff129cc7f56d4516bc24613f0" target="_top" xlink:title="mom_file_parser::flag\l_line_as_read">
<polygon fill="white" stroke="black" points="496,-77 496,-107 606,-107 606,-77 496,-77"/>
<text text-anchor="start" x="504" y="-95" font-family="Helvetica,sans-Serif" font-size="10.00">mom_file_parser::flag</text>
<text text-anchor="middle" x="551" y="-84" font-family="Helvetica,sans-Serif" font-size="10.00">_line_as_read</text>
</a>
</g>
</g>
<!-- Node92&#45;&gt;Node94 -->
<g id="edge7" class="edge"><title>Node92&#45;&gt;Node94</title>
<path fill="none" stroke="midnightblue" d="M401.073,-105.271C426.986,-102.962 458.378,-100.164 485.647,-97.7344"/>
<polygon fill="midnightblue" stroke="midnightblue" points="486.226,-101.197 495.876,-96.8229 485.605,-94.2244 486.226,-101.197"/>
</g>
<!-- Node95 -->
<g id="node8" class="node"><title>Node95</title>
<g id="a_node8"><a xlink:href="namespacemom__file__parser.html#a73b11b969d303b1fc0ba5235c812fd05" target="_top" xlink:title="mom_file_parser::popblocklevel">
<polygon fill="white" stroke="black" points="474,-38.5 474,-57.5 628,-57.5 628,-38.5 474,-38.5"/>
<text text-anchor="middle" x="551" y="-45.5" font-family="Helvetica,sans-Serif" font-size="10.00">mom_file_parser::popblocklevel</text>
</a>
</g>
</g>
<!-- Node92&#45;&gt;Node95 -->
<g id="edge8" class="edge"><title>Node92&#45;&gt;Node95</title>
<path fill="none" stroke="midnightblue" d="M374.059,-94.9737C391.383,-85.6037 414.926,-74.0302 437,-67 446.004,-64.1324 455.557,-61.6749 465.145,-59.5739"/>
<polygon fill="midnightblue" stroke="midnightblue" points="466.043,-62.9623 475.128,-57.5113 464.627,-56.1071 466.043,-62.9623"/>
</g>
<!-- Node96 -->
<g id="node9" class="node"><title>Node96</title>
<g id="a_node9"><a xlink:href="namespacemom__file__parser.html#a0c9bb1e76b09bc09bae5402e63bd0f99" target="_top" xlink:title="mom_file_parser::overridewarninghasbeenissued">
<polygon fill="white" stroke="black" points="437,-0.5 437,-19.5 665,-19.5 665,-0.5 437,-0.5"/>
<text text-anchor="middle" x="551" y="-7.5" font-family="Helvetica,sans-Serif" font-size="10.00">mom_file_parser::overridewarninghasbeenissued</text>
</a>
</g>
</g>
<!-- Node92&#45;&gt;Node96 -->
<g id="edge10" class="edge"><title>Node92&#45;&gt;Node96</title>
<path fill="none" stroke="midnightblue" d="M359.749,-94.9608C375.277,-76.2378 404.493,-44.8021 437,-29 441.976,-26.5811 447.205,-24.4634 452.572,-22.6103"/>
<polygon fill="midnightblue" stroke="midnightblue" points="453.858,-25.8754 462.359,-19.5521 451.771,-19.1939 453.858,-25.8754"/>
</g>
<!-- Node95&#45;&gt;Node90 -->
<g id="edge9" class="edge"><title>Node95&#45;&gt;Node90</title>
<path fill="none" stroke="midnightblue" d="M628.154,-53.1325C641.014,-56.1116 653.808,-60.5239 665,-67 698.966,-86.6536 725.381,-124.718 740.074,-149.742"/>
<polygon fill="midnightblue" stroke="midnightblue" points="737.14,-151.663 745.123,-158.629 743.226,-148.205 737.14,-151.663"/>
</g>
</g>
</svg>
