<?xml version="1.0" encoding="UTF-8" standalone="no"?>
<!DOCTYPE svg PUBLIC "-//W3C//DTD SVG 1.1//EN"
 "http://www.w3.org/Graphics/SVG/1.1/DTD/svg11.dtd">
<!-- Generated by graphviz version 2.38.0 (20140413.2041)
 -->
<!-- Title: mom_diag_to_z::register_z_diag Pages: 1 -->
<svg width="740pt" height="53pt"
 viewBox="0.00 0.00 740.00 52.50" xmlns="http://www.w3.org/2000/svg" xmlns:xlink="http://www.w3.org/1999/xlink">
<g id="graph0" class="graph" transform="scale(1 1) rotate(0) translate(4 48.5)">
<title>mom_diag_to_z::register_z_diag</title>
<polygon fill="white" stroke="none" points="-4,4 -4,-48.5 736,-48.5 736,4 -4,4"/>
<!-- Node69 -->
<g id="node1" class="node"><title>Node69</title>
<polygon fill="#bfbfbf" stroke="black" points="0,-14 0,-44 124,-44 124,-14 0,-14"/>
<text text-anchor="start" x="8" y="-32" font-family="Helvetica,sans-Serif" font-size="10.00">mom_diag_to_z::register</text>
<text text-anchor="middle" x="62" y="-21" font-family="Helvetica,sans-Serif" font-size="10.00">_z_diag</text>
</g>
<!-- Node70 -->
<g id="node2" class="node"><title>Node70</title>
<g id="a_node2"><a xlink:href="namespacemom__error__handler.html#a460cfb79a06c29fc249952c2a3710d67" target="_top" xlink:title="mom_error_handler::\lmom_error">
<polygon fill="white" stroke="black" points="484,-14 484,-44 590,-44 590,-14 484,-14"/>
<text text-anchor="start" x="492" y="-32" font-family="Helvetica,sans-Serif" font-size="10.00">mom_error_handler::</text>
<text text-anchor="middle" x="537" y="-21" font-family="Helvetica,sans-Serif" font-size="10.00">mom_error</text>
</a>
</g>
</g>
<!-- Node69&#45;&gt;Node70 -->
<g id="edge1" class="edge"><title>Node69&#45;&gt;Node70</title>
<path fill="none" stroke="midnightblue" d="M124.352,-29C214.73,-29 382.748,-29 473.678,-29"/>
<polygon fill="midnightblue" stroke="midnightblue" points="473.839,-32.5001 483.839,-29 473.839,-25.5001 473.839,-32.5001"/>
</g>
<!-- Node72 -->
<g id="node4" class="node"><title>Node72</title>
<g id="a_node4"><a xlink:href="namespacemom__io.html#a23e82d1d89d9bb1c9bdf802ce80d4508" target="_top" xlink:title="This routine queries vardesc. ">
<polygon fill="white" stroke="black" points="160,-0.5 160,-19.5 281,-19.5 281,-0.5 160,-0.5"/>
<text text-anchor="middle" x="220.5" y="-7.5" font-family="Helvetica,sans-Serif" font-size="10.00">mom_io::query_vardesc</text>
</a>
</g>
</g>
<!-- Node69&#45;&gt;Node72 -->
<g id="edge3" class="edge"><title>Node69&#45;&gt;Node72</title>
<path fill="none" stroke="midnightblue" d="M124.404,-21.5452C132.683,-20.54 141.227,-19.5028 149.64,-18.4814"/>
<polygon fill="midnightblue" stroke="midnightblue" points="150.306,-21.9264 159.811,-17.2466 149.462,-14.9774 150.306,-21.9264"/>
</g>
<!-- Node71 -->
<g id="node3" class="node"><title>Node71</title>
<g id="a_node3"><a xlink:href="namespacemom__error__handler.html#ad5f00a53059c72fe2332d1436c80ca71" target="_top" xlink:title="mom_error_handler::\lis_root_pe">
<polygon fill="white" stroke="black" points="626,-14 626,-44 732,-44 732,-14 626,-14"/>
<text text-anchor="start" x="634" y="-32" font-family="Helvetica,sans-Serif" font-size="10.00">mom_error_handler::</text>
<text text-anchor="middle" x="679" y="-21" font-family="Helvetica,sans-Serif" font-size="10.00">is_root_pe</text>
</a>
</g>
</g>
<!-- Node70&#45;&gt;Node71 -->
<g id="edge2" class="edge"><title>Node70&#45;&gt;Node71</title>
<path fill="none" stroke="midnightblue" d="M590.131,-29C598.421,-29 607.07,-29 615.568,-29"/>
<polygon fill="midnightblue" stroke="midnightblue" points="615.826,-32.5001 625.826,-29 615.826,-25.5001 615.826,-32.5001"/>
</g>
<!-- Node73 -->
<g id="node5" class="node"><title>Node73</title>
<g id="a_node5"><a xlink:href="namespacemom__io.html#ac4bc408e8b38dbd669842753f26ebf88" target="_top" xlink:title="Copies a string. ">
<polygon fill="white" stroke="black" points="317,-0.5 317,-19.5 448,-19.5 448,-0.5 317,-0.5"/>
<text text-anchor="middle" x="382.5" y="-7.5" font-family="Helvetica,sans-Serif" font-size="10.00">mom_io::safe_string_copy</text>
</a>
</g>
</g>
<!-- Node72&#45;&gt;Node73 -->
<g id="edge4" class="edge"><title>Node72&#45;&gt;Node73</title>
<path fill="none" stroke="midnightblue" d="M281.078,-10C289.444,-10 298.129,-10 306.732,-10"/>
<polygon fill="midnightblue" stroke="midnightblue" points="306.771,-13.5001 316.771,-10 306.771,-6.5001 306.771,-13.5001"/>
</g>
<!-- Node73&#45;&gt;Node70 -->
<g id="edge5" class="edge"><title>Node73&#45;&gt;Node70</title>
<path fill="none" stroke="midnightblue" d="M448.174,-18.0577C456.6,-19.1075 465.219,-20.1814 473.607,-21.2264"/>
<polygon fill="midnightblue" stroke="midnightblue" points="473.339,-24.72 483.695,-22.4833 474.204,-17.7737 473.339,-24.72"/>
</g>
</g>
</svg>
