<?xml version="1.0" encoding="UTF-8" standalone="no"?>
<!DOCTYPE svg PUBLIC "-//W3C//DTD SVG 1.1//EN"
 "http://www.w3.org/Graphics/SVG/1.1/DTD/svg11.dtd">
<!-- Generated by graphviz version 2.38.0 (20140413.2041)
 -->
<!-- Title: mom_ice_shelf::initialize_shelf_mass Pages: 1 -->
<svg width="393pt" height="39pt"
 viewBox="0.00 0.00 393.00 39.00" xmlns="http://www.w3.org/2000/svg" xmlns:xlink="http://www.w3.org/1999/xlink">
<g id="graph0" class="graph" transform="scale(1 1) rotate(0) translate(4 35)">
<title>mom_ice_shelf::initialize_shelf_mass</title>
<polygon fill="white" stroke="none" points="-4,4 -4,-35 389,-35 389,4 -4,4"/>
<!-- Node272 -->
<g id="node1" class="node"><title>Node272</title>
<polygon fill="#bfbfbf" stroke="black" points="0,-0.5 0,-30.5 124,-30.5 124,-0.5 0,-0.5"/>
<text text-anchor="start" x="8" y="-18.5" font-family="Helvetica,sans-Serif" font-size="10.00">mom_ice_shelf::initialize</text>
<text text-anchor="middle" x="62" y="-7.5" font-family="Helvetica,sans-Serif" font-size="10.00">_shelf_mass</text>
</g>
<!-- Node273 -->
<g id="node2" class="node"><title>Node273</title>
<g id="a_node2"><a xlink:href="namespacemom__ice__shelf.html#ae315e8464ef8a20062e3bccb61886755" target="_top" xlink:title="Initializes shelf model data, parameters and diagnostics. ">
<polygon fill="white" stroke="black" points="160,-0.5 160,-30.5 284,-30.5 284,-0.5 160,-0.5"/>
<text text-anchor="start" x="168" y="-18.5" font-family="Helvetica,sans-Serif" font-size="10.00">mom_ice_shelf::initialize</text>
<text text-anchor="middle" x="222" y="-7.5" font-family="Helvetica,sans-Serif" font-size="10.00">_ice_shelf</text>
</a>
</g>
</g>
<!-- Node272&#45;&gt;Node273 -->
<g id="edge1" class="edge"><title>Node272&#45;&gt;Node273</title>
<path fill="none" stroke="midnightblue" d="M134.366,-15.5C142.863,-15.5 151.478,-15.5 159.815,-15.5"/>
<polygon fill="midnightblue" stroke="midnightblue" points="134.087,-12.0001 124.087,-15.5 134.087,-19.0001 134.087,-12.0001"/>
</g>
<!-- Node274 -->
<g id="node3" class="node"><title>Node274</title>
<g id="a_node3"><a xlink:href="MOM__driver_8F90.html#a08fffeb2d8e8acbf9ed4609be6d258c6" target="_top" xlink:title="mom_main">
<polygon fill="white" stroke="black" points="320,-6 320,-25 385,-25 385,-6 320,-6"/>
<text text-anchor="middle" x="352.5" y="-13" font-family="Helvetica,sans-Serif" font-size="10.00">mom_main</text>
</a>
</g>
</g>
<!-- Node273&#45;&gt;Node274 -->
<g id="edge2" class="edge"><title>Node273&#45;&gt;Node274</title>
<path fill="none" stroke="midnightblue" d="M294.31,-15.5C303.195,-15.5 311.897,-15.5 319.726,-15.5"/>
<polygon fill="midnightblue" stroke="midnightblue" points="294.239,-12.0001 284.239,-15.5 294.239,-19.0001 294.239,-12.0001"/>
</g>
</g>
</svg>
