<?xml version="1.0" encoding="UTF-8" standalone="no"?>
<!DOCTYPE svg PUBLIC "-//W3C//DTD SVG 1.1//EN"
 "http://www.w3.org/Graphics/SVG/1.1/DTD/svg11.dtd">
<!-- Generated by graphviz version 2.38.0 (20140413.2041)
 -->
<!-- Title: mom_string_functions::remove_spaces Pages: 1 -->
<svg width="685pt" height="88pt"
 viewBox="0.00 0.00 685.00 88.00" xmlns="http://www.w3.org/2000/svg" xmlns:xlink="http://www.w3.org/1999/xlink">
<g id="graph0" class="graph" transform="scale(1 1) rotate(0) translate(4 84)">
<title>mom_string_functions::remove_spaces</title>
<polygon fill="white" stroke="none" points="-4,4 -4,-84 681,-84 681,4 -4,4"/>
<!-- Node121 -->
<g id="node1" class="node"><title>Node121</title>
<polygon fill="#bfbfbf" stroke="black" points="0,-24.5 0,-54.5 113,-54.5 113,-24.5 0,-24.5"/>
<text text-anchor="start" x="8" y="-42.5" font-family="Helvetica,sans-Serif" font-size="10.00">mom_string_functions</text>
<text text-anchor="middle" x="56.5" y="-31.5" font-family="Helvetica,sans-Serif" font-size="10.00">::remove_spaces</text>
</g>
<!-- Node122 -->
<g id="node2" class="node"><title>Node122</title>
<g id="a_node2"><a xlink:href="namespacemom__open__boundary.html#a0d3f0ce359b2852f00092f7fef88cd5f" target="_top" xlink:title="Enables OBC module and reads configuration parameters This routine is called from MOM_initialize_fixe...">
<polygon fill="white" stroke="black" points="161,-49.5 161,-79.5 277,-79.5 277,-49.5 161,-49.5"/>
<text text-anchor="start" x="169" y="-67.5" font-family="Helvetica,sans-Serif" font-size="10.00">mom_open_boundary::</text>
<text text-anchor="middle" x="219" y="-56.5" font-family="Helvetica,sans-Serif" font-size="10.00">open_boundary_config</text>
</a>
</g>
</g>
<!-- Node121&#45;&gt;Node122 -->
<g id="edge1" class="edge"><title>Node121&#45;&gt;Node122</title>
<path fill="none" stroke="midnightblue" d="M123.079,-49.7147C135.577,-51.6615 148.567,-53.6849 160.78,-55.5872"/>
<polygon fill="midnightblue" stroke="midnightblue" points="123.604,-46.2545 113.185,-48.1736 122.527,-53.1711 123.604,-46.2545"/>
</g>
<!-- Node123 -->
<g id="node3" class="node"><title>Node123</title>
<g id="a_node3"><a xlink:href="namespacemom__string__functions.html#a7b7aa802a4da2021801267f6c6f890bf" target="_top" xlink:title="Returns true if a unit test of string_functions fails. ">
<polygon fill="white" stroke="black" points="149,-0.5 149,-30.5 289,-30.5 289,-0.5 149,-0.5"/>
<text text-anchor="start" x="157" y="-18.5" font-family="Helvetica,sans-Serif" font-size="10.00">mom_string_functions</text>
<text text-anchor="middle" x="219" y="-7.5" font-family="Helvetica,sans-Serif" font-size="10.00">::string_functions_unit_tests</text>
</a>
</g>
</g>
<!-- Node121&#45;&gt;Node123 -->
<g id="edge2" class="edge"><title>Node121&#45;&gt;Node123</title>
<path fill="none" stroke="midnightblue" d="M123.317,-29.6583C131.734,-28.3997 140.369,-27.1083 148.837,-25.8421"/>
<polygon fill="midnightblue" stroke="midnightblue" points="122.557,-26.2328 113.185,-31.1733 123.592,-33.1559 122.557,-26.2328"/>
</g>
<!-- Node124 -->
<g id="node4" class="node"><title>Node124</title>
<g id="a_node4"><a xlink:href="namespacemom__unit__tests.html#a71f3a2080872634c14a25a9411b59fe0" target="_top" xlink:title="Calls unit tests for other modules. Note that if a unit test returns true, a FATAL error is triggered...">
<polygon fill="white" stroke="black" points="325,-0.5 325,-30.5 433,-30.5 433,-0.5 325,-0.5"/>
<text text-anchor="start" x="333" y="-18.5" font-family="Helvetica,sans-Serif" font-size="10.00">mom_unit_tests::unit</text>
<text text-anchor="middle" x="379" y="-7.5" font-family="Helvetica,sans-Serif" font-size="10.00">_tests</text>
</a>
</g>
</g>
<!-- Node123&#45;&gt;Node124 -->
<g id="edge3" class="edge"><title>Node123&#45;&gt;Node124</title>
<path fill="none" stroke="midnightblue" d="M299.422,-15.5C308.062,-15.5 316.695,-15.5 324.908,-15.5"/>
<polygon fill="midnightblue" stroke="midnightblue" points="299.301,-12.0001 289.301,-15.5 299.301,-19.0001 299.301,-12.0001"/>
</g>
<!-- Node125 -->
<g id="node5" class="node"><title>Node125</title>
<g id="a_node5"><a xlink:href="namespacemom.html#a0be2869fef30e1e0604facfe1b41555d" target="_top" xlink:title="This subroutine initializes MOM. ">
<polygon fill="white" stroke="black" points="469,-6 469,-25 576,-25 576,-6 469,-6"/>
<text text-anchor="middle" x="522.5" y="-13" font-family="Helvetica,sans-Serif" font-size="10.00">mom::initialize_mom</text>
</a>
</g>
</g>
<!-- Node124&#45;&gt;Node125 -->
<g id="edge4" class="edge"><title>Node124&#45;&gt;Node125</title>
<path fill="none" stroke="midnightblue" d="M443.294,-15.5C451.742,-15.5 460.335,-15.5 468.581,-15.5"/>
<polygon fill="midnightblue" stroke="midnightblue" points="443.092,-12.0001 433.092,-15.5 443.092,-19.0001 443.092,-12.0001"/>
</g>
<!-- Node126 -->
<g id="node6" class="node"><title>Node126</title>
<g id="a_node6"><a xlink:href="MOM__driver_8F90.html#a08fffeb2d8e8acbf9ed4609be6d258c6" target="_top" xlink:title="mom_main">
<polygon fill="white" stroke="black" points="612,-6 612,-25 677,-25 677,-6 612,-6"/>
<text text-anchor="middle" x="644.5" y="-13" font-family="Helvetica,sans-Serif" font-size="10.00">mom_main</text>
</a>
</g>
</g>
<!-- Node125&#45;&gt;Node126 -->
<g id="edge5" class="edge"><title>Node125&#45;&gt;Node126</title>
<path fill="none" stroke="midnightblue" d="M586.206,-15.5C595.134,-15.5 603.983,-15.5 611.958,-15.5"/>
<polygon fill="midnightblue" stroke="midnightblue" points="586.134,-12.0001 576.134,-15.5 586.134,-19.0001 586.134,-12.0001"/>
</g>
</g>
</svg>
