<?xml version="1.0" encoding="UTF-8" standalone="no"?>
<!DOCTYPE svg PUBLIC "-//W3C//DTD SVG 1.1//EN"
 "http://www.w3.org/Graphics/SVG/1.1/DTD/svg11.dtd">
<!-- Generated by graphviz version 2.38.0 (20140413.2041)
 -->
<!-- Title: mom_shared_initialization::set_rotation_beta_plane Pages: 1 -->
<svg width="421pt" height="88pt"
 viewBox="0.00 0.00 421.00 88.00" xmlns="http://www.w3.org/2000/svg" xmlns:xlink="http://www.w3.org/1999/xlink">
<g id="graph0" class="graph" transform="scale(1 1) rotate(0) translate(4 84)">
<title>mom_shared_initialization::set_rotation_beta_plane</title>
<polygon fill="white" stroke="none" points="-4,4 -4,-84 417,-84 417,4 -4,4"/>
<!-- Node60 -->
<g id="node1" class="node"><title>Node60</title>
<polygon fill="#bfbfbf" stroke="black" points="0,-24.5 0,-54.5 129,-54.5 129,-24.5 0,-24.5"/>
<text text-anchor="start" x="8" y="-42.5" font-family="Helvetica,sans-Serif" font-size="10.00">mom_shared_initialization</text>
<text text-anchor="middle" x="64.5" y="-31.5" font-family="Helvetica,sans-Serif" font-size="10.00">::set_rotation_beta_plane</text>
</g>
<!-- Node61 -->
<g id="node2" class="node"><title>Node61</title>
<g id="a_node2"><a xlink:href="namespacemom__error__handler.html#a9cda07a87815f0e5594066162b4345c3" target="_top" xlink:title="Writes a message about entering a subroutine if call tree reporting is active. ">
<polygon fill="white" stroke="black" points="165,-49.5 165,-79.5 271,-79.5 271,-49.5 165,-49.5"/>
<text text-anchor="start" x="173" y="-67.5" font-family="Helvetica,sans-Serif" font-size="10.00">mom_error_handler::</text>
<text text-anchor="middle" x="218" y="-56.5" font-family="Helvetica,sans-Serif" font-size="10.00">calltree_enter</text>
</a>
</g>
</g>
<!-- Node60&#45;&gt;Node61 -->
<g id="edge1" class="edge"><title>Node60&#45;&gt;Node61</title>
<path fill="none" stroke="midnightblue" d="M129.311,-50.0298C137.704,-51.4149 146.299,-52.8331 154.667,-54.2141"/>
<polygon fill="midnightblue" stroke="midnightblue" points="154.298,-57.7004 164.735,-55.8754 155.438,-50.7938 154.298,-57.7004"/>
</g>
<!-- Node63 -->
<g id="node4" class="node"><title>Node63</title>
<g id="a_node4"><a xlink:href="namespacemom__error__handler.html#a88ea67781e2ed9b73ab7eac8ea5e8578" target="_top" xlink:title="Writes a message about leaving a subroutine if call tree reporting is active. ">
<polygon fill="white" stroke="black" points="165,-0.5 165,-30.5 271,-30.5 271,-0.5 165,-0.5"/>
<text text-anchor="start" x="173" y="-18.5" font-family="Helvetica,sans-Serif" font-size="10.00">mom_error_handler::</text>
<text text-anchor="middle" x="218" y="-7.5" font-family="Helvetica,sans-Serif" font-size="10.00">calltree_leave</text>
</a>
</g>
</g>
<!-- Node60&#45;&gt;Node63 -->
<g id="edge3" class="edge"><title>Node60&#45;&gt;Node63</title>
<path fill="none" stroke="midnightblue" d="M129.311,-29.3914C137.704,-28.0617 146.299,-26.7002 154.667,-25.3745"/>
<polygon fill="midnightblue" stroke="midnightblue" points="155.406,-28.8013 164.735,-23.7797 154.31,-21.8875 155.406,-28.8013"/>
</g>
<!-- Node62 -->
<g id="node3" class="node"><title>Node62</title>
<g id="a_node3"><a xlink:href="namespacemom__error__handler.html#ad5f00a53059c72fe2332d1436c80ca71" target="_top" xlink:title="mom_error_handler::\lis_root_pe">
<polygon fill="white" stroke="black" points="307,-24.5 307,-54.5 413,-54.5 413,-24.5 307,-24.5"/>
<text text-anchor="start" x="315" y="-42.5" font-family="Helvetica,sans-Serif" font-size="10.00">mom_error_handler::</text>
<text text-anchor="middle" x="360" y="-31.5" font-family="Helvetica,sans-Serif" font-size="10.00">is_root_pe</text>
</a>
</g>
</g>
<!-- Node61&#45;&gt;Node62 -->
<g id="edge2" class="edge"><title>Node61&#45;&gt;Node62</title>
<path fill="none" stroke="midnightblue" d="M271.131,-55.1909C279.512,-53.6942 288.26,-52.1321 296.849,-50.5985"/>
<polygon fill="midnightblue" stroke="midnightblue" points="297.597,-54.0203 306.826,-48.8169 296.366,-47.1293 297.597,-54.0203"/>
</g>
<!-- Node63&#45;&gt;Node62 -->
<g id="edge4" class="edge"><title>Node63&#45;&gt;Node62</title>
<path fill="none" stroke="midnightblue" d="M271.131,-24.4367C279.512,-25.8736 288.26,-27.3732 296.849,-28.8455"/>
<polygon fill="midnightblue" stroke="midnightblue" points="296.378,-32.3158 306.826,-30.5558 297.561,-25.4164 296.378,-32.3158"/>
</g>
</g>
</svg>
