<?xml version="1.0" encoding="UTF-8" standalone="no"?>
<!DOCTYPE svg PUBLIC "-//W3C//DTD SVG 1.1//EN"
 "http://www.w3.org/Graphics/SVG/1.1/DTD/svg11.dtd">
<!-- Generated by graphviz version 2.38.0 (20140413.2041)
 -->
<!-- Title: mom_legacy_barotropic::legacy_set_dtbt Pages: 1 -->
<svg width="286pt" height="88pt"
 viewBox="0.00 0.00 286.00 88.00" xmlns="http://www.w3.org/2000/svg" xmlns:xlink="http://www.w3.org/1999/xlink">
<g id="graph0" class="graph" transform="scale(1 1) rotate(0) translate(4 84)">
<title>mom_legacy_barotropic::legacy_set_dtbt</title>
<polygon fill="white" stroke="none" points="-4,4 -4,-84 282,-84 282,4 -4,4"/>
<!-- Node63 -->
<g id="node1" class="node"><title>Node63</title>
<polygon fill="#bfbfbf" stroke="black" points="0,-24.5 0,-54.5 120,-54.5 120,-24.5 0,-24.5"/>
<text text-anchor="start" x="8" y="-42.5" font-family="Helvetica,sans-Serif" font-size="10.00">mom_legacy_barotropic</text>
<text text-anchor="middle" x="60" y="-31.5" font-family="Helvetica,sans-Serif" font-size="10.00">::legacy_set_dtbt</text>
</g>
<!-- Node64 -->
<g id="node2" class="node"><title>Node64</title>
<g id="a_node2"><a xlink:href="namespacemom__legacy__barotropic.html#aa06249abf57a70498ab07eee534e5e52" target="_top" xlink:title="mom_legacy_barotropic\l::bt_cont_to_face_areas">
<polygon fill="white" stroke="black" points="156,-49.5 156,-79.5 278,-79.5 278,-49.5 156,-49.5"/>
<text text-anchor="start" x="164" y="-67.5" font-family="Helvetica,sans-Serif" font-size="10.00">mom_legacy_barotropic</text>
<text text-anchor="middle" x="217" y="-56.5" font-family="Helvetica,sans-Serif" font-size="10.00">::bt_cont_to_face_areas</text>
</a>
</g>
</g>
<!-- Node63&#45;&gt;Node64 -->
<g id="edge1" class="edge"><title>Node63&#45;&gt;Node64</title>
<path fill="none" stroke="midnightblue" d="M120.041,-49.0227C128.465,-50.3815 137.198,-51.7901 145.81,-53.1791"/>
<polygon fill="midnightblue" stroke="midnightblue" points="145.408,-56.6594 155.838,-54.7965 146.523,-49.7487 145.408,-56.6594"/>
</g>
<!-- Node65 -->
<g id="node3" class="node"><title>Node65</title>
<g id="a_node3"><a xlink:href="namespacemom__legacy__barotropic.html#ab334a4e8ef23ec6d784b24b6336d22f7" target="_top" xlink:title="mom_legacy_barotropic\l::find_face_areas">
<polygon fill="white" stroke="black" points="157,-0.5 157,-30.5 277,-30.5 277,-0.5 157,-0.5"/>
<text text-anchor="start" x="165" y="-18.5" font-family="Helvetica,sans-Serif" font-size="10.00">mom_legacy_barotropic</text>
<text text-anchor="middle" x="217" y="-7.5" font-family="Helvetica,sans-Serif" font-size="10.00">::find_face_areas</text>
</a>
</g>
</g>
<!-- Node63&#45;&gt;Node65 -->
<g id="edge2" class="edge"><title>Node63&#45;&gt;Node65</title>
<path fill="none" stroke="midnightblue" d="M120.041,-30.3582C128.805,-29.0011 137.904,-27.5922 146.853,-26.2066"/>
<polygon fill="midnightblue" stroke="midnightblue" points="147.52,-29.6452 156.867,-24.6562 146.449,-22.7276 147.52,-29.6452"/>
</g>
</g>
</svg>
