<?xml version="1.0" encoding="UTF-8" standalone="no"?>
<!DOCTYPE svg PUBLIC "-//W3C//DTD SVG 1.1//EN"
 "http://www.w3.org/Graphics/SVG/1.1/DTD/svg11.dtd">
<!-- Generated by graphviz version 2.38.0 (20140413.2041)
 -->
<!-- Title: isomip_tracer::initialize_isomip_tracer Pages: 1 -->
<svg width="735pt" height="165pt"
 viewBox="0.00 0.00 735.00 165.00" xmlns="http://www.w3.org/2000/svg" xmlns:xlink="http://www.w3.org/1999/xlink">
<g id="graph0" class="graph" transform="scale(1 1) rotate(0) translate(4 161)">
<title>isomip_tracer::initialize_isomip_tracer</title>
<polygon fill="white" stroke="none" points="-4,4 -4,-161 731,-161 731,4 -4,4"/>
<!-- Node0 -->
<g id="node1" class="node"><title>Node0</title>
<polygon fill="#bfbfbf" stroke="black" points="0,-63.5 0,-93.5 116,-93.5 116,-63.5 0,-63.5"/>
<text text-anchor="start" x="8" y="-81.5" font-family="Helvetica,sans-Serif" font-size="10.00">isomip_tracer::initialize</text>
<text text-anchor="middle" x="58" y="-70.5" font-family="Helvetica,sans-Serif" font-size="10.00">_isomip_tracer</text>
</g>
<!-- Node1 -->
<g id="node2" class="node"><title>Node1</title>
<g id="a_node2"><a xlink:href="namespacemom__tracer__registry.html#ac008525fee272a225a19998ae437b5bf" target="_top" xlink:title="This subroutine adds diagnostic arrays for a tracer that has previously been registered by a call to ...">
<polygon fill="white" stroke="black" points="316,-126.5 316,-156.5 439,-156.5 439,-126.5 316,-126.5"/>
<text text-anchor="start" x="324" y="-144.5" font-family="Helvetica,sans-Serif" font-size="10.00">mom_tracer_registry</text>
<text text-anchor="middle" x="377.5" y="-133.5" font-family="Helvetica,sans-Serif" font-size="10.00">::add_tracer_diagnostics</text>
</a>
</g>
</g>
<!-- Node0&#45;&gt;Node1 -->
<g id="edge1" class="edge"><title>Node0&#45;&gt;Node1</title>
<path fill="none" stroke="midnightblue" d="M96.0207,-93.6339C112.856,-99.9942 133.181,-106.956 152,-111.5 202.71,-123.744 261.153,-131.354 305.695,-135.845"/>
<polygon fill="midnightblue" stroke="midnightblue" points="305.547,-139.347 315.841,-136.839 306.23,-132.381 305.547,-139.347"/>
</g>
<!-- Node2 -->
<g id="node3" class="node"><title>Node2</title>
<g id="a_node3"><a xlink:href="namespacemom__error__handler.html#a460cfb79a06c29fc249952c2a3710d67" target="_top" xlink:title="mom_error_handler::\lmom_error">
<polygon fill="white" stroke="black" points="479,-63.5 479,-93.5 585,-93.5 585,-63.5 479,-63.5"/>
<text text-anchor="start" x="487" y="-81.5" font-family="Helvetica,sans-Serif" font-size="10.00">mom_error_handler::</text>
<text text-anchor="middle" x="532" y="-70.5" font-family="Helvetica,sans-Serif" font-size="10.00">mom_error</text>
</a>
</g>
</g>
<!-- Node0&#45;&gt;Node2 -->
<g id="edge4" class="edge"><title>Node0&#45;&gt;Node2</title>
<path fill="none" stroke="midnightblue" d="M116.405,-78.5C205.561,-78.5 376.613,-78.5 468.679,-78.5"/>
<polygon fill="midnightblue" stroke="midnightblue" points="468.692,-82.0001 478.692,-78.5 468.692,-75.0001 468.692,-82.0001"/>
</g>
<!-- Node4 -->
<g id="node5" class="node"><title>Node4</title>
<g id="a_node5"><a xlink:href="namespacemom__io.html#a23e82d1d89d9bb1c9bdf802ce80d4508" target="_top" xlink:title="This routine queries vardesc. ">
<polygon fill="white" stroke="black" points="153.5,-50 153.5,-69 274.5,-69 274.5,-50 153.5,-50"/>
<text text-anchor="middle" x="214" y="-57" font-family="Helvetica,sans-Serif" font-size="10.00">mom_io::query_vardesc</text>
</a>
</g>
</g>
<!-- Node0&#45;&gt;Node4 -->
<g id="edge5" class="edge"><title>Node0&#45;&gt;Node4</title>
<path fill="none" stroke="midnightblue" d="M116.344,-71.4251C125.105,-70.3442 134.229,-69.2185 143.221,-68.1091"/>
<polygon fill="midnightblue" stroke="midnightblue" points="143.795,-71.5649 153.291,-66.8667 142.937,-64.6176 143.795,-71.5649"/>
</g>
<!-- Node6 -->
<g id="node7" class="node"><title>Node6</title>
<g id="a_node7"><a xlink:href="namespacemom__diag__to__z.html#a6946a3316715041c5944df17db1aef74" target="_top" xlink:title="This subroutine registers a tracer to be output in depth space. ">
<polygon fill="white" stroke="black" points="152,-0.5 152,-30.5 276,-30.5 276,-0.5 152,-0.5"/>
<text text-anchor="start" x="160" y="-18.5" font-family="Helvetica,sans-Serif" font-size="10.00">mom_diag_to_z::register</text>
<text text-anchor="middle" x="214" y="-7.5" font-family="Helvetica,sans-Serif" font-size="10.00">_z_tracer</text>
</a>
</g>
</g>
<!-- Node0&#45;&gt;Node6 -->
<g id="edge8" class="edge"><title>Node0&#45;&gt;Node6</title>
<path fill="none" stroke="midnightblue" d="M95.8868,-63.4099C117.143,-54.7143 144.057,-43.704 166.723,-34.4316"/>
<polygon fill="midnightblue" stroke="midnightblue" points="168.217,-37.6018 176.148,-30.576 165.567,-31.123 168.217,-37.6018"/>
</g>
<!-- Node1&#45;&gt;Node2 -->
<g id="edge2" class="edge"><title>Node1&#45;&gt;Node2</title>
<path fill="none" stroke="midnightblue" d="M415.028,-126.41C436.076,-117.714 462.728,-106.704 485.173,-97.4316"/>
<polygon fill="midnightblue" stroke="midnightblue" points="486.601,-100.629 494.507,-93.576 483.928,-94.1594 486.601,-100.629"/>
</g>
<!-- Node3 -->
<g id="node4" class="node"><title>Node3</title>
<g id="a_node4"><a xlink:href="namespacemom__error__handler.html#ad5f00a53059c72fe2332d1436c80ca71" target="_top" xlink:title="mom_error_handler::\lis_root_pe">
<polygon fill="white" stroke="black" points="621,-63.5 621,-93.5 727,-93.5 727,-63.5 621,-63.5"/>
<text text-anchor="start" x="629" y="-81.5" font-family="Helvetica,sans-Serif" font-size="10.00">mom_error_handler::</text>
<text text-anchor="middle" x="674" y="-70.5" font-family="Helvetica,sans-Serif" font-size="10.00">is_root_pe</text>
</a>
</g>
</g>
<!-- Node2&#45;&gt;Node3 -->
<g id="edge3" class="edge"><title>Node2&#45;&gt;Node3</title>
<path fill="none" stroke="midnightblue" d="M585.131,-78.5C593.421,-78.5 602.07,-78.5 610.568,-78.5"/>
<polygon fill="midnightblue" stroke="midnightblue" points="610.826,-82.0001 620.826,-78.5 610.826,-75.0001 610.826,-82.0001"/>
</g>
<!-- Node5 -->
<g id="node6" class="node"><title>Node5</title>
<g id="a_node6"><a xlink:href="namespacemom__io.html#ac4bc408e8b38dbd669842753f26ebf88" target="_top" xlink:title="Copies a string. ">
<polygon fill="white" stroke="black" points="312,-50 312,-69 443,-69 443,-50 312,-50"/>
<text text-anchor="middle" x="377.5" y="-57" font-family="Helvetica,sans-Serif" font-size="10.00">mom_io::safe_string_copy</text>
</a>
</g>
</g>
<!-- Node4&#45;&gt;Node5 -->
<g id="edge6" class="edge"><title>Node4&#45;&gt;Node5</title>
<path fill="none" stroke="midnightblue" d="M274.678,-59.5C283.491,-59.5 292.665,-59.5 301.737,-59.5"/>
<polygon fill="midnightblue" stroke="midnightblue" points="301.912,-63.0001 311.912,-59.5 301.912,-56.0001 301.912,-63.0001"/>
</g>
<!-- Node5&#45;&gt;Node2 -->
<g id="edge7" class="edge"><title>Node5&#45;&gt;Node2</title>
<path fill="none" stroke="midnightblue" d="M443.174,-67.5577C451.6,-68.6075 460.219,-69.6814 468.607,-70.7264"/>
<polygon fill="midnightblue" stroke="midnightblue" points="468.339,-74.22 478.695,-71.9833 469.204,-67.2737 468.339,-74.22"/>
</g>
<!-- Node7 -->
<g id="node8" class="node"><title>Node7</title>
<g id="a_node8"><a xlink:href="namespacemom__diag__to__z.html#adde57f2503f5c182af511fba0f4c83ea" target="_top" xlink:title="This subroutine registers a tracer to be output in depth space. ">
<polygon fill="white" stroke="black" points="315.5,-0.5 315.5,-30.5 439.5,-30.5 439.5,-0.5 315.5,-0.5"/>
<text text-anchor="start" x="323.5" y="-18.5" font-family="Helvetica,sans-Serif" font-size="10.00">mom_diag_to_z::register</text>
<text text-anchor="middle" x="377.5" y="-7.5" font-family="Helvetica,sans-Serif" font-size="10.00">_z_tracer_low</text>
</a>
</g>
</g>
<!-- Node6&#45;&gt;Node7 -->
<g id="edge9" class="edge"><title>Node6&#45;&gt;Node7</title>
<path fill="none" stroke="midnightblue" d="M276.056,-15.5C285.603,-15.5 295.54,-15.5 305.29,-15.5"/>
<polygon fill="midnightblue" stroke="midnightblue" points="305.357,-19.0001 315.357,-15.5 305.357,-12.0001 305.357,-19.0001"/>
</g>
<!-- Node7&#45;&gt;Node2 -->
<g id="edge10" class="edge"><title>Node7&#45;&gt;Node2</title>
<path fill="none" stroke="midnightblue" d="M418.162,-30.6009C426.395,-33.8117 434.998,-37.2229 443,-40.5 457.514,-46.4442 473.269,-53.1622 487.384,-59.2785"/>
<polygon fill="midnightblue" stroke="midnightblue" points="486.292,-62.6204 496.858,-63.3999 489.085,-56.2014 486.292,-62.6204"/>
</g>
</g>
</svg>
