<?xml version="1.0" encoding="UTF-8" standalone="no"?>
<!DOCTYPE svg PUBLIC "-//W3C//DTD SVG 1.1//EN"
 "http://www.w3.org/Graphics/SVG/1.1/DTD/svg11.dtd">
<!-- Generated by graphviz version 2.38.0 (20140413.2041)
 -->
<!-- Title: mom_legacy_barotropic::legacy_set_dtbt Pages: 1 -->
<svg width="284pt" height="100pt"
 viewBox="0.00 0.00 284.00 99.50" xmlns="http://www.w3.org/2000/svg" xmlns:xlink="http://www.w3.org/1999/xlink">
<g id="graph0" class="graph" transform="scale(1 1) rotate(0) translate(4 95.5)">
<title>mom_legacy_barotropic::legacy_set_dtbt</title>
<polygon fill="white" stroke="none" points="-4,4 -4,-95.5 280,-95.5 280,4 -4,4"/>
<!-- Node66 -->
<g id="node1" class="node"><title>Node66</title>
<polygon fill="#bfbfbf" stroke="black" points="0,-33 0,-63 120,-63 120,-33 0,-33"/>
<text text-anchor="start" x="8" y="-51" font-family="Helvetica,sans-Serif" font-size="10.00">mom_legacy_barotropic</text>
<text text-anchor="middle" x="60" y="-40" font-family="Helvetica,sans-Serif" font-size="10.00">::legacy_set_dtbt</text>
</g>
<!-- Node67 -->
<g id="node2" class="node"><title>Node67</title>
<g id="a_node2"><a xlink:href="namespacemom__legacy__barotropic.html#aa9771b1e4e725afa95ab8ada8538a064" target="_top" xlink:title="mom_legacy_barotropic\l::legacy_barotropic_init">
<polygon fill="white" stroke="black" points="156,-61 156,-91 276,-91 276,-61 156,-61"/>
<text text-anchor="start" x="164" y="-79" font-family="Helvetica,sans-Serif" font-size="10.00">mom_legacy_barotropic</text>
<text text-anchor="middle" x="216" y="-68" font-family="Helvetica,sans-Serif" font-size="10.00">::legacy_barotropic_init</text>
</a>
</g>
</g>
<!-- Node66&#45;&gt;Node67 -->
<g id="edge1" class="edge"><title>Node66&#45;&gt;Node67</title>
<path fill="none" stroke="midnightblue" d="M130.089,-60.5617C138.672,-62.1223 147.388,-63.7069 155.804,-65.237"/>
<polygon fill="midnightblue" stroke="midnightblue" points="130.565,-57.0908 120.1,-58.7455 129.313,-63.9779 130.565,-57.0908"/>
</g>
<!-- Node68 -->
<g id="node3" class="node"><title>Node68</title>
<g id="a_node3"><a xlink:href="namespacemom__dynamics__legacy__split.html#ae34fe0561f87dc05c2fad64bf6d5a1ee" target="_top" xlink:title="mom_dynamics_legacy\l_split::step_mom_dyn\l_legacy_split">
<polygon fill="white" stroke="black" points="156.5,-0.5 156.5,-41.5 275.5,-41.5 275.5,-0.5 156.5,-0.5"/>
<text text-anchor="start" x="164.5" y="-29.5" font-family="Helvetica,sans-Serif" font-size="10.00">mom_dynamics_legacy</text>
<text text-anchor="start" x="164.5" y="-18.5" font-family="Helvetica,sans-Serif" font-size="10.00">_split::step_mom_dyn</text>
<text text-anchor="middle" x="216" y="-7.5" font-family="Helvetica,sans-Serif" font-size="10.00">_legacy_split</text>
</a>
</g>
</g>
<!-- Node66&#45;&gt;Node68 -->
<g id="edge2" class="edge"><title>Node66&#45;&gt;Node68</title>
<path fill="none" stroke="midnightblue" d="M129.951,-35.9111C138.752,-34.3681 147.695,-32.8003 156.312,-31.2894"/>
<polygon fill="midnightblue" stroke="midnightblue" points="129.345,-32.4639 120.1,-37.6383 130.554,-39.3587 129.345,-32.4639"/>
</g>
</g>
</svg>
