<?xml version="1.0" encoding="UTF-8" standalone="no"?>
<!DOCTYPE svg PUBLIC "-//W3C//DTD SVG 1.1//EN"
 "http://www.w3.org/Graphics/SVG/1.1/DTD/svg11.dtd">
<!-- Generated by graphviz version 2.38.0 (20140413.2041)
 -->
<!-- Title: mom::register_diags_ts_tendency Pages: 1 -->
<svg width="357pt" height="39pt"
 viewBox="0.00 0.00 357.00 39.00" xmlns="http://www.w3.org/2000/svg" xmlns:xlink="http://www.w3.org/1999/xlink">
<g id="graph0" class="graph" transform="scale(1 1) rotate(0) translate(4 35)">
<title>mom::register_diags_ts_tendency</title>
<polygon fill="white" stroke="none" points="-4,4 -4,-35 353,-35 353,4 -4,4"/>
<!-- Node341 -->
<g id="node1" class="node"><title>Node341</title>
<polygon fill="#bfbfbf" stroke="black" points="0,-0.5 0,-30.5 105,-30.5 105,-0.5 0,-0.5"/>
<text text-anchor="start" x="8" y="-18.5" font-family="Helvetica,sans-Serif" font-size="10.00">mom::register_diags</text>
<text text-anchor="middle" x="52.5" y="-7.5" font-family="Helvetica,sans-Serif" font-size="10.00">_ts_tendency</text>
</g>
<!-- Node342 -->
<g id="node2" class="node"><title>Node342</title>
<g id="a_node2"><a xlink:href="namespacemom.html#a0be2869fef30e1e0604facfe1b41555d" target="_top" xlink:title="This subroutine initializes MOM. ">
<polygon fill="white" stroke="black" points="141,-6 141,-25 248,-25 248,-6 141,-6"/>
<text text-anchor="middle" x="194.5" y="-13" font-family="Helvetica,sans-Serif" font-size="10.00">mom::initialize_mom</text>
</a>
</g>
</g>
<!-- Node341&#45;&gt;Node342 -->
<g id="edge1" class="edge"><title>Node341&#45;&gt;Node342</title>
<path fill="none" stroke="midnightblue" d="M115.375,-15.5C123.781,-15.5 132.346,-15.5 140.575,-15.5"/>
<polygon fill="midnightblue" stroke="midnightblue" points="115.233,-12.0001 105.233,-15.5 115.233,-19.0001 115.233,-12.0001"/>
</g>
<!-- Node343 -->
<g id="node3" class="node"><title>Node343</title>
<g id="a_node3"><a xlink:href="MOM__driver_8F90.html#a08fffeb2d8e8acbf9ed4609be6d258c6" target="_top" xlink:title="mom_main">
<polygon fill="white" stroke="black" points="284,-6 284,-25 349,-25 349,-6 284,-6"/>
<text text-anchor="middle" x="316.5" y="-13" font-family="Helvetica,sans-Serif" font-size="10.00">mom_main</text>
</a>
</g>
</g>
<!-- Node342&#45;&gt;Node343 -->
<g id="edge2" class="edge"><title>Node342&#45;&gt;Node343</title>
<path fill="none" stroke="midnightblue" d="M258.206,-15.5C267.134,-15.5 275.983,-15.5 283.958,-15.5"/>
<polygon fill="midnightblue" stroke="midnightblue" points="258.134,-12.0001 248.134,-15.5 258.134,-19.0001 258.134,-12.0001"/>
</g>
</g>
</svg>
