<?xml version="1.0" encoding="UTF-8" standalone="no"?>
<!DOCTYPE svg PUBLIC "-//W3C//DTD SVG 1.1//EN"
 "http://www.w3.org/Graphics/SVG/1.1/DTD/svg11.dtd">
<!-- Generated by graphviz version 2.38.0 (20140413.2041)
 -->
<!-- Title: mom_wave_speed::wave_speed Pages: 1 -->
<svg width="611pt" height="108pt"
 viewBox="0.00 0.00 611.00 107.50" xmlns="http://www.w3.org/2000/svg" xmlns:xlink="http://www.w3.org/1999/xlink">
<g id="graph0" class="graph" transform="scale(1 1) rotate(0) translate(4 103.5)">
<title>mom_wave_speed::wave_speed</title>
<polygon fill="white" stroke="none" points="-4,4 -4,-103.5 607,-103.5 607,4 -4,4"/>
<!-- Node43 -->
<g id="node1" class="node"><title>Node43</title>
<polygon fill="#bfbfbf" stroke="black" points="0,-27.5 0,-57.5 128,-57.5 128,-27.5 0,-27.5"/>
<text text-anchor="start" x="8" y="-45.5" font-family="Helvetica,sans-Serif" font-size="10.00">mom_wave_speed::wave</text>
<text text-anchor="middle" x="64" y="-34.5" font-family="Helvetica,sans-Serif" font-size="10.00">_speed</text>
</g>
<!-- Node44 -->
<g id="node2" class="node"><title>Node44</title>
<g id="a_node2"><a xlink:href="namespacemom__lateral__mixing__coeffs.html#af206bc656869b4fc27d4d7e8a15d438e" target="_top" xlink:title="Calculates and stores the non&#45;dimensional resolution functions. ">
<polygon fill="white" stroke="black" points="181,-50 181,-91 285,-91 285,-50 181,-50"/>
<text text-anchor="start" x="189" y="-79" font-family="Helvetica,sans-Serif" font-size="10.00">mom_lateral_mixing</text>
<text text-anchor="start" x="189" y="-68" font-family="Helvetica,sans-Serif" font-size="10.00">_coeffs::calc_resoln</text>
<text text-anchor="middle" x="233" y="-57" font-family="Helvetica,sans-Serif" font-size="10.00">_function</text>
</a>
</g>
</g>
<!-- Node43&#45;&gt;Node44 -->
<g id="edge1" class="edge"><title>Node43&#45;&gt;Node44</title>
<path fill="none" stroke="midnightblue" d="M138.067,-54.7507C152.541,-57.1776 167.441,-59.6758 180.989,-61.9472"/>
<polygon fill="midnightblue" stroke="midnightblue" points="138.577,-51.2874 128.136,-53.0856 137.419,-58.1911 138.577,-51.2874"/>
</g>
<!-- Node49 -->
<g id="node7" class="node"><title>Node49</title>
<g id="a_node7"><a xlink:href="namespacemom__diagnostics.html#abb6644248c28ab2e952361bfec436063" target="_top" xlink:title="Diagnostics not more naturally calculated elsewhere are computed here. ">
<polygon fill="white" stroke="black" points="164,-0.5 164,-30.5 302,-30.5 302,-0.5 164,-0.5"/>
<text text-anchor="start" x="172" y="-18.5" font-family="Helvetica,sans-Serif" font-size="10.00">mom_diagnostics::calculate</text>
<text text-anchor="middle" x="233" y="-7.5" font-family="Helvetica,sans-Serif" font-size="10.00">_diagnostic_fields</text>
</a>
</g>
</g>
<!-- Node43&#45;&gt;Node49 -->
<g id="edge7" class="edge"><title>Node43&#45;&gt;Node49</title>
<path fill="none" stroke="midnightblue" d="M138.067,-30.6868C146.603,-29.3067 155.287,-27.9027 163.755,-26.5337"/>
<polygon fill="midnightblue" stroke="midnightblue" points="137.449,-27.2412 128.136,-32.2925 138.566,-34.1515 137.449,-27.2412"/>
</g>
<!-- Node45 -->
<g id="node3" class="node"><title>Node45</title>
<g id="a_node3"><a xlink:href="namespacemom.html#a4c8332b095c6d295084089aa6b3b678a" target="_top" xlink:title="This subroutine orchestrates the time stepping of MOM. The adiabatic dynamics are stepped by calls to...">
<polygon fill="white" stroke="black" points="340.5,-80 340.5,-99 430.5,-99 430.5,-80 340.5,-80"/>
<text text-anchor="middle" x="385.5" y="-87" font-family="Helvetica,sans-Serif" font-size="10.00">mom::step_mom</text>
</a>
</g>
</g>
<!-- Node44&#45;&gt;Node45 -->
<g id="edge2" class="edge"><title>Node44&#45;&gt;Node45</title>
<path fill="none" stroke="midnightblue" d="M295.612,-78.2783C310.62,-80.173 326.377,-82.1622 340.386,-83.9308"/>
<polygon fill="midnightblue" stroke="midnightblue" points="295.732,-74.7657 285.373,-76.9856 294.855,-81.7106 295.732,-74.7657"/>
</g>
<!-- Node47 -->
<g id="node5" class="node"><title>Node47</title>
<g id="a_node5"><a xlink:href="namespacemom.html#ad56e17a755c7078ccea29ccbae4d5803" target="_top" xlink:title="step_offline is the main driver for running tracers offline in MOM6. This has been primarily develope...">
<polygon fill="white" stroke="black" points="338,-42 338,-61 433,-61 433,-42 338,-42"/>
<text text-anchor="middle" x="385.5" y="-49" font-family="Helvetica,sans-Serif" font-size="10.00">mom::step_offline</text>
</a>
</g>
</g>
<!-- Node44&#45;&gt;Node47 -->
<g id="edge4" class="edge"><title>Node44&#45;&gt;Node47</title>
<path fill="none" stroke="midnightblue" d="M295.53,-62.7321C309.683,-60.9453 324.507,-59.0739 337.905,-57.3824"/>
<polygon fill="midnightblue" stroke="midnightblue" points="294.855,-59.2894 285.373,-64.0144 295.732,-66.2343 294.855,-59.2894"/>
</g>
<!-- Node46 -->
<g id="node4" class="node"><title>Node46</title>
<g id="a_node4"><a xlink:href="MOM__driver_8F90.html#a08fffeb2d8e8acbf9ed4609be6d258c6" target="_top" xlink:title="mom_main">
<polygon fill="white" stroke="black" points="503.5,-80 503.5,-99 568.5,-99 568.5,-80 503.5,-80"/>
<text text-anchor="middle" x="536" y="-87" font-family="Helvetica,sans-Serif" font-size="10.00">mom_main</text>
</a>
</g>
</g>
<!-- Node45&#45;&gt;Node46 -->
<g id="edge3" class="edge"><title>Node45&#45;&gt;Node46</title>
<path fill="none" stroke="midnightblue" d="M440.712,-89.5C461.646,-89.5 484.876,-89.5 503.04,-89.5"/>
<polygon fill="midnightblue" stroke="midnightblue" points="440.653,-86.0001 430.653,-89.5 440.653,-93.0001 440.653,-86.0001"/>
</g>
<!-- Node47&#45;&gt;Node46 -->
<g id="edge5" class="edge"><title>Node47&#45;&gt;Node46</title>
<path fill="none" stroke="midnightblue" d="M433.73,-63.5858C456.356,-69.3756 482.858,-76.1573 503.075,-81.3305"/>
<polygon fill="midnightblue" stroke="midnightblue" points="434.528,-60.1774 423.973,-61.089 432.793,-66.9589 434.528,-60.1774"/>
</g>
<!-- Node48 -->
<g id="node6" class="node"><title>Node48</title>
<g id="a_node6"><a xlink:href="namespaceocean__model__mod.html#ac9dc1795fc4799d6682f462857b42d62" target="_top" xlink:title="ocean_model_mod::update\l_ocean_model">
<polygon fill="white" stroke="black" points="469,-30.5 469,-60.5 603,-60.5 603,-30.5 469,-30.5"/>
<text text-anchor="start" x="477" y="-48.5" font-family="Helvetica,sans-Serif" font-size="10.00">ocean_model_mod::update</text>
<text text-anchor="middle" x="536" y="-37.5" font-family="Helvetica,sans-Serif" font-size="10.00">_ocean_model</text>
</a>
</g>
</g>
<!-- Node47&#45;&gt;Node48 -->
<g id="edge6" class="edge"><title>Node47&#45;&gt;Node48</title>
<path fill="none" stroke="midnightblue" d="M443.109,-49.2128C451.486,-48.8743 460.182,-48.5229 468.735,-48.1774"/>
<polygon fill="midnightblue" stroke="midnightblue" points="442.929,-45.7171 433.079,-49.618 443.212,-52.7114 442.929,-45.7171"/>
</g>
</g>
</svg>
