<?xml version="1.0" encoding="UTF-8" standalone="no"?>
<!DOCTYPE svg PUBLIC "-//W3C//DTD SVG 1.1//EN"
 "http://www.w3.org/Graphics/SVG/1.1/DTD/svg11.dtd">
<!-- Generated by graphviz version 2.38.0 (20140413.2041)
 -->
<!-- Title: /home/adcroft/GitHub/workspace/Gaea&#45;stats&#45;MOM6&#45;examples/MOM6&#45;examples/src/MOM6/src/tracer/oil_tracer.F90 Pages: 1 -->
<svg width="180pt" height="173pt"
 viewBox="0.00 0.00 180.00 173.00" xmlns="http://www.w3.org/2000/svg" xmlns:xlink="http://www.w3.org/1999/xlink">
<g id="graph0" class="graph" transform="scale(1 1) rotate(0) translate(4 169)">
<title>/home/adcroft/GitHub/workspace/Gaea&#45;stats&#45;MOM6&#45;examples/MOM6&#45;examples/src/MOM6/src/tracer/oil_tracer.F90</title>
<polygon fill="white" stroke="none" points="-4,4 -4,-169 176,-169 176,4 -4,4"/>
<!-- Node0 -->
<g id="node1" class="node"><title>Node0</title>
<polygon fill="#bfbfbf" stroke="black" points="0,-112.5 0,-164.5 172,-164.5 172,-112.5 0,-112.5"/>
<text text-anchor="start" x="8" y="-152.5" font-family="Helvetica,sans-Serif" font-size="10.00">/home/adcroft/GitHub</text>
<text text-anchor="start" x="8" y="-141.5" font-family="Helvetica,sans-Serif" font-size="10.00">/workspace/Gaea&#45;stats</text>
<text text-anchor="start" x="8" y="-130.5" font-family="Helvetica,sans-Serif" font-size="10.00">&#45;MOM6&#45;examples/MOM6&#45;examples</text>
<text text-anchor="middle" x="86" y="-119.5" font-family="Helvetica,sans-Serif" font-size="10.00">/src/MOM6/src/tracer/oil_tracer.F90</text>
</g>
<!-- Node1 -->
<g id="node2" class="node"><title>Node1</title>
<g id="a_node2"><a xlink:href="MOM__memory_8h.html" target="_top" xlink:title="Compile&#45;time memory settings. ">
<polygon fill="white" stroke="black" points="41.5,-56.5 41.5,-75.5 130.5,-75.5 130.5,-56.5 41.5,-56.5"/>
<text text-anchor="middle" x="86" y="-63.5" font-family="Helvetica,sans-Serif" font-size="10.00">MOM_memory.h</text>
</a>
</g>
</g>
<!-- Node0&#45;&gt;Node1 -->
<g id="edge1" class="edge"><title>Node0&#45;&gt;Node1</title>
<path fill="none" stroke="midnightblue" d="M86,-112.446C86,-103.73 86,-94.1045 86,-85.9641"/>
<polygon fill="midnightblue" stroke="midnightblue" points="89.5001,-85.6954 86,-75.6955 82.5001,-85.6955 89.5001,-85.6954"/>
</g>
<!-- Node2 -->
<g id="node3" class="node"><title>Node2</title>
<g id="a_node3"><a xlink:href="MOM__memory__macros_8h.html" target="_top" xlink:title="Memory macros. ">
<polygon fill="white" stroke="black" points="22.5,-0.5 22.5,-19.5 149.5,-19.5 149.5,-0.5 22.5,-0.5"/>
<text text-anchor="middle" x="86" y="-7.5" font-family="Helvetica,sans-Serif" font-size="10.00">MOM_memory_macros.h</text>
</a>
</g>
</g>
<!-- Node1&#45;&gt;Node2 -->
<g id="edge2" class="edge"><title>Node1&#45;&gt;Node2</title>
<path fill="none" stroke="midnightblue" d="M86,-56.083C86,-49.0059 86,-38.8611 86,-29.9865"/>
<polygon fill="midnightblue" stroke="midnightblue" points="89.5001,-29.751 86,-19.7511 82.5001,-29.7511 89.5001,-29.751"/>
</g>
</g>
</svg>
