<?xml version="1.0" encoding="UTF-8" standalone="no"?>
<!DOCTYPE svg PUBLIC "-//W3C//DTD SVG 1.1//EN"
 "http://www.w3.org/Graphics/SVG/1.1/DTD/svg11.dtd">
<!-- Generated by graphviz version 2.38.0 (20140413.2041)
 -->
<!-- Title: mom_ale::ale_cs Pages: 1 -->
<svg width="642pt" height="183pt"
 viewBox="0.00 0.00 642.00 183.00" xmlns="http://www.w3.org/2000/svg" xmlns:xlink="http://www.w3.org/1999/xlink">
<g id="graph0" class="graph" transform="scale(1 1) rotate(0) translate(4 179)">
<title>mom_ale::ale_cs</title>
<polygon fill="white" stroke="none" points="-4,4 -4,-179 638,-179 638,4 -4,4"/>
<!-- Node1 -->
<g id="node1" class="node"><title>Node1</title>
<polygon fill="#bfbfbf" stroke="black" points="231.5,-0.5 231.5,-19.5 322.5,-19.5 322.5,-0.5 231.5,-0.5"/>
<text text-anchor="middle" x="277" y="-7.5" font-family="Helvetica,sans-Serif" font-size="10.00">mom_ale::ale_cs</text>
</g>
<!-- Node2 -->
<g id="node2" class="node"><title>Node2</title>
<polygon fill="white" stroke="#bfbfbf" points="0,-155.5 0,-174.5 44,-174.5 44,-155.5 0,-155.5"/>
<text text-anchor="middle" x="22" y="-162.5" font-family="Helvetica,sans-Serif" font-size="10.00">logical</text>
</g>
<!-- Node2&#45;&gt;Node1 -->
<g id="edge1" class="edge"><title>Node2&#45;&gt;Node1</title>
<path fill="none" stroke="#9a32cd" stroke-dasharray="5,2" d="M17.56,-145.596C12.132,-118.076 6.82685,-66.408 35,-38 48.5446,-24.3425 165.145,-16.4576 231.423,-13.0403"/>
<polygon fill="#9a32cd" stroke="#9a32cd" points="14.1645,-146.452 19.7234,-155.471 21.0023,-144.954 14.1645,-146.452"/>
<text text-anchor="middle" x="91" y="-118" font-family="Helvetica,sans-Serif" font-size="10.00"> remap_after_initialization</text>
<text text-anchor="middle" x="91" y="-107" font-family="Helvetica,sans-Serif" font-size="10.00">reconstructforpressure</text>
<text text-anchor="start" x="35" y="-96" font-family="Helvetica,sans-Serif" font-size="10.00">boundary_extrapolation</text>
<text text-anchor="middle" x="91" y="-85" font-family="Helvetica,sans-Serif" font-size="10.00">_for_pressure</text>
<text text-anchor="middle" x="91" y="-74" font-family="Helvetica,sans-Serif" font-size="10.00">show_call_tree</text>
<text text-anchor="middle" x="91" y="-63" font-family="Helvetica,sans-Serif" font-size="10.00">do_tendency_diag</text>
<text text-anchor="middle" x="91" y="-52" font-family="Helvetica,sans-Serif" font-size="10.00">remap_uv_using_old_alg</text>
</g>
<!-- Node3 -->
<g id="node3" class="node"><title>Node3</title>
<polygon fill="white" stroke="#bfbfbf" points="108.5,-155.5 108.5,-174.5 185.5,-174.5 185.5,-155.5 108.5,-155.5"/>
<text text-anchor="middle" x="147" y="-162.5" font-family="Helvetica,sans-Serif" font-size="10.00">remapping_cs</text>
</g>
<!-- Node3&#45;&gt;Node1 -->
<g id="edge2" class="edge"><title>Node3&#45;&gt;Node1</title>
<path fill="none" stroke="#9a32cd" stroke-dasharray="5,2" d="M148.929,-145.081C152.718,-117.698 163.617,-67.1181 194,-38 204.174,-28.2494 217.91,-22.0199 231.277,-18.0401"/>
<polygon fill="#9a32cd" stroke="#9a32cd" points="145.424,-144.92 147.705,-155.266 152.373,-145.756 145.424,-144.92"/>
<text text-anchor="middle" x="214.5" y="-85" font-family="Helvetica,sans-Serif" font-size="10.00"> remapcs</text>
</g>
<!-- Node4 -->
<g id="node4" class="node"><title>Node4</title>
<polygon fill="white" stroke="#bfbfbf" points="203.5,-155.5 203.5,-174.5 256.5,-174.5 256.5,-155.5 203.5,-155.5"/>
<text text-anchor="middle" x="230" y="-162.5" font-family="Helvetica,sans-Serif" font-size="10.00">diag_ctrl</text>
</g>
<!-- Node4&#45;&gt;Node1 -->
<g id="edge3" class="edge"><title>Node4&#45;&gt;Node1</title>
<path fill="none" stroke="#9a32cd" stroke-dasharray="5,2" d="M235.67,-145.541C245.878,-112.312 266.971,-43.647 274.368,-19.5693"/>
<polygon fill="#9a32cd" stroke="#9a32cd" points="232.252,-144.749 232.662,-155.336 238.944,-146.804 232.252,-144.749"/>
<text text-anchor="middle" x="280" y="-85" font-family="Helvetica,sans-Serif" font-size="10.00"> diag</text>
</g>
<!-- Node5 -->
<g id="node5" class="node"><title>Node5</title>
<polygon fill="white" stroke="#bfbfbf" points="274.5,-155.5 274.5,-174.5 373.5,-174.5 373.5,-155.5 274.5,-155.5"/>
<text text-anchor="middle" x="324" y="-162.5" font-family="Helvetica,sans-Serif" font-size="10.00">type(regridding_cs)</text>
</g>
<!-- Node5&#45;&gt;Node1 -->
<g id="edge4" class="edge"><title>Node5&#45;&gt;Node1</title>
<path fill="none" stroke="#9a32cd" stroke-dasharray="5,2" d="M321.859,-145.421C318.487,-120.249 310.646,-74.2857 295,-38 292.145,-31.3783 287.645,-24.6283 283.859,-19.5337"/>
<polygon fill="#9a32cd" stroke="#9a32cd" points="318.395,-145.925 323.106,-155.415 325.341,-145.058 318.395,-145.925"/>
<text text-anchor="middle" x="340" y="-85" font-family="Helvetica,sans-Serif" font-size="10.00"> regridcs</text>
</g>
<!-- Node6 -->
<g id="node6" class="node"><title>Node6</title>
<polygon fill="white" stroke="#bfbfbf" points="392,-155.5 392,-174.5 424,-174.5 424,-155.5 392,-155.5"/>
<text text-anchor="middle" x="408" y="-162.5" font-family="Helvetica,sans-Serif" font-size="10.00">real</text>
</g>
<!-- Node6&#45;&gt;Node1 -->
<g id="edge5" class="edge"><title>Node6&#45;&gt;Node1</title>
<path fill="none" stroke="#9a32cd" stroke-dasharray="5,2" d="M400.405,-145.755C399.237,-142.837 398.067,-139.844 397,-137 380.662,-93.4408 396.331,-70.4559 363,-38 352.125,-27.4101 337.144,-20.969 322.73,-17.053"/>
<polygon fill="#9a32cd" stroke="#9a32cd" points="397.181,-147.119 404.206,-155.05 403.661,-144.469 397.181,-147.119"/>
<text text-anchor="middle" x="435.5" y="-90.5" font-family="Helvetica,sans-Serif" font-size="10.00"> c_p</text>
<text text-anchor="middle" x="435.5" y="-79.5" font-family="Helvetica,sans-Serif" font-size="10.00">regrid_time_scale</text>
</g>
<!-- Node7 -->
<g id="node7" class="node"><title>Node7</title>
<polygon fill="white" stroke="#bfbfbf" points="473,-155.5 473,-174.5 519,-174.5 519,-155.5 473,-155.5"/>
<text text-anchor="middle" x="496" y="-162.5" font-family="Helvetica,sans-Serif" font-size="10.00">integer</text>
</g>
<!-- Node7&#45;&gt;Node1 -->
<g id="edge6" class="edge"><title>Node7&#45;&gt;Node1</title>
<path fill="none" stroke="#9a32cd" stroke-dasharray="5,2" d="M498.845,-145.503C501.942,-117.862 503.086,-66.0389 474,-38 452.999,-17.7549 373.872,-12.4729 322.516,-11.221"/>
<polygon fill="#9a32cd" stroke="#9a32cd" points="495.374,-145.051 497.528,-155.425 502.313,-145.973 495.374,-145.051"/>
<text text-anchor="middle" x="567" y="-129" font-family="Helvetica,sans-Serif" font-size="10.00"> id_htracer_remap_tendency</text>
<text text-anchor="middle" x="567" y="-118" font-family="Helvetica,sans-Serif" font-size="10.00">id_dzregrid</text>
<text text-anchor="middle" x="567" y="-107" font-family="Helvetica,sans-Serif" font-size="10.00">id_tracer_remap_tendency</text>
<text text-anchor="start" x="500" y="-96" font-family="Helvetica,sans-Serif" font-size="10.00">id_htracer_remap_tendency</text>
<text text-anchor="middle" x="567" y="-85" font-family="Helvetica,sans-Serif" font-size="10.00">_2d</text>
<text text-anchor="middle" x="567" y="-74" font-family="Helvetica,sans-Serif" font-size="10.00">degree_linear</text>
<text text-anchor="middle" x="567" y="-63" font-family="Helvetica,sans-Serif" font-size="10.00">pressurereconstructionscheme</text>
<text text-anchor="middle" x="567" y="-52" font-family="Helvetica,sans-Serif" font-size="10.00">nk</text>
<text text-anchor="middle" x="567" y="-41" font-family="Helvetica,sans-Serif" font-size="10.00">degree_parab</text>
</g>
</g>
</svg>
