<?xml version="1.0" encoding="UTF-8" standalone="no"?>
<!DOCTYPE svg PUBLIC "-//W3C//DTD SVG 1.1//EN"
 "http://www.w3.org/Graphics/SVG/1.1/DTD/svg11.dtd">
<!-- Generated by graphviz version 2.38.0 (20140413.2041)
 -->
<!-- Title: mom_file_parser::file_data_type Pages: 1 -->
<svg width="252pt" height="128pt"
 viewBox="0.00 0.00 252.00 128.00" xmlns="http://www.w3.org/2000/svg" xmlns:xlink="http://www.w3.org/1999/xlink">
<g id="graph0" class="graph" transform="scale(1 1) rotate(0) translate(4 124)">
<title>mom_file_parser::file_data_type</title>
<polygon fill="white" stroke="none" points="-4,4 -4,-124 248,-124 248,4 -4,4"/>
<!-- Node1 -->
<g id="node1" class="node"><title>Node1</title>
<polygon fill="#bfbfbf" stroke="black" points="67.5,-0.5 67.5,-30.5 174.5,-30.5 174.5,-0.5 67.5,-0.5"/>
<text text-anchor="start" x="75.5" y="-18.5" font-family="Helvetica,sans-Serif" font-size="10.00">mom_file_parser::file</text>
<text text-anchor="middle" x="121" y="-7.5" font-family="Helvetica,sans-Serif" font-size="10.00">_data_type</text>
</g>
<!-- Node2 -->
<g id="node2" class="node"><title>Node2</title>
<polygon fill="white" stroke="#bfbfbf" points="0,-89.5 0,-108.5 44,-108.5 44,-89.5 0,-89.5"/>
<text text-anchor="middle" x="22" y="-96.5" font-family="Helvetica,sans-Serif" font-size="10.00">logical</text>
</g>
<!-- Node2&#45;&gt;Node1 -->
<g id="edge1" class="edge"><title>Node2&#45;&gt;Node1</title>
<path fill="none" stroke="#9a32cd" stroke-dasharray="5,2" d="M36.9291,-81.8797C46.5162,-71.9143 59.4768,-59.1368 72,-49 80.0932,-42.4491 89.516,-35.9589 97.924,-30.5212"/>
<polygon fill="#9a32cd" stroke="#9a32cd" points="34.3669,-79.4951 30.0366,-89.1646 39.4517,-84.306 34.3669,-79.4951"/>
<text text-anchor="middle" x="94.5" y="-52" font-family="Helvetica,sans-Serif" font-size="10.00"> line_used</text>
</g>
<!-- Node3 -->
<g id="node3" class="node"><title>Node3</title>
<polygon fill="white" stroke="#bfbfbf" points="62,-78.5 62,-119.5 180,-119.5 180,-78.5 62,-78.5"/>
<text text-anchor="start" x="70" y="-107.5" font-family="Helvetica,sans-Serif" font-size="10.00">character(len=input</text>
<text text-anchor="start" x="70" y="-96.5" font-family="Helvetica,sans-Serif" font-size="10.00">_str_length), dimension</text>
<text text-anchor="middle" x="121" y="-85.5" font-family="Helvetica,sans-Serif" font-size="10.00">(:), pointer</text>
</g>
<!-- Node3&#45;&gt;Node1 -->
<g id="edge2" class="edge"><title>Node3&#45;&gt;Node1</title>
<path fill="none" stroke="#9a32cd" stroke-dasharray="5,2" d="M121,-68.0254C121,-55.258 121,-40.9702 121,-30.6846"/>
<polygon fill="#9a32cd" stroke="#9a32cd" points="117.5,-68.2711 121,-78.2711 124.5,-68.2712 117.5,-68.2711"/>
<text text-anchor="middle" x="130.5" y="-52" font-family="Helvetica,sans-Serif" font-size="10.00"> line</text>
</g>
<!-- Node4 -->
<g id="node4" class="node"><title>Node4</title>
<polygon fill="white" stroke="#bfbfbf" points="198,-89.5 198,-108.5 244,-108.5 244,-89.5 198,-89.5"/>
<text text-anchor="middle" x="221" y="-96.5" font-family="Helvetica,sans-Serif" font-size="10.00">integer</text>
</g>
<!-- Node4&#45;&gt;Node1 -->
<g id="edge3" class="edge"><title>Node4&#45;&gt;Node1</title>
<path fill="none" stroke="#9a32cd" stroke-dasharray="5,2" d="M202.114,-82.6083C183.752,-67.6432 156.099,-45.1057 138.297,-30.5974"/>
<polygon fill="#9a32cd" stroke="#9a32cd" points="200.335,-85.6735 210.298,-89.2781 204.758,-80.2474 200.335,-85.6735"/>
<text text-anchor="middle" x="197" y="-52" font-family="Helvetica,sans-Serif" font-size="10.00"> num_lines</text>
</g>
</g>
</svg>
