<?xml version="1.0" encoding="UTF-8" standalone="no"?>
<!DOCTYPE svg PUBLIC "-//W3C//DTD SVG 1.1//EN"
 "http://www.w3.org/Graphics/SVG/1.1/DTD/svg11.dtd">
<!-- Generated by graphviz version 2.38.0 (20140413.2041)
 -->
<!-- Title: mom_vert_friction::vertvisc_cs Pages: 1 -->
<!--zoomable 582 -->
<svg id="main" version="1.1" xmlns="http://www.w3.org/2000/svg" xmlns:xlink="http://www.w3.org/1999/xlink" xml:space="preserve" onload="init(evt)">
<style type="text/css"><![CDATA[
.edge:hover path { stroke: red; }
.edge:hover polygon { stroke: red; fill: red; }
]]></style>
<script type="text/javascript"><![CDATA[
var edges = document.getElementsByTagName('g');
if (edges && edges.length) {
  for (var i=0;i<edges.length;i++) {
    if (edges[i].id.substr(0,4)=='edge') {
      edges[i].setAttribute('class','edge');
    }
  }
}
]]></script>
        <defs>
                <circle id="rim" cx="0" cy="0" r="7"/>
                <circle id="rim2" cx="0" cy="0" r="3.5"/>
                <g id="zoomPlus">
                        <use xlink:href="#rim" fill="#404040">
                                <set attributeName="fill" to="#808080" begin="zoomplus.mouseover" end="zoomplus.mouseout"/>
                        </use>
                        <path d="M-4,0h8M0,-4v8" fill="none" stroke="white" stroke-width="1.5" pointer-events="none"/>
                </g>
                <g id="zoomMin">
                        <use xlink:href="#rim" fill="#404040">
                                <set attributeName="fill" to="#808080" begin="zoomminus.mouseover" end="zoomminus.mouseout"/>
                        </use>
                        <path d="M-4,0h8" fill="none" stroke="white" stroke-width="1.5" pointer-events="none"/>
                </g>
                <g id="dirArrow">
                        <path fill="none" stroke="white" stroke-width="1.5" d="M0,-3.0v7 M-2.5,-0.5L0,-3.0L2.5,-0.5"/>
                </g>
               <g id="resetDef">
                       <use xlink:href="#rim2" fill="#404040">
                               <set attributeName="fill" to="#808080" begin="reset.mouseover" end="reset.mouseout"/>
                       </use>
               </g>
        </defs>

<script type="text/javascript">
var viewWidth = 339;
var viewHeight = 582;
var sectionId = 'dynsection-0';
</script>
<script xlink:href="svgpan.js"/>
<svg id="graph" class="graph">
<g id="viewport">
<title>mom_vert_friction::vertvisc_cs</title>
<polygon fill="white" stroke="none" points="-4,4 -4,-577.5 335,-577.5 335,4 -4,4"/>
<!-- Node1 -->
<g id="node1" class="node"><title>Node1</title>
<polygon fill="#bfbfbf" stroke="black" points="230,-332.5 230,-362.5 331,-362.5 331,-332.5 230,-332.5"/>
<text text-anchor="start" x="238" y="-350.5" font-family="Helvetica,sans-Serif" font-size="10.00">mom_vert_friction::</text>
<text text-anchor="middle" x="280.5" y="-339.5" font-family="Helvetica,sans-Serif" font-size="10.00">vertvisc_cs</text>
</g>
<!-- Node2 -->
<g id="node2" class="node"><title>Node2</title>
<polygon fill="white" stroke="#bfbfbf" points="28.5,-455 28.5,-474 72.5,-474 72.5,-455 28.5,-455"/>
<text text-anchor="middle" x="50.5" y="-462" font-family="Helvetica,sans-Serif" font-size="10.00">logical</text>
</g>
<!-- Node2&#45;&gt;Node1 -->
<g id="edge1" class="edge"><title>Node2&#45;&gt;Node1</title>
<path fill="none" stroke="#9a32cd" stroke-dasharray="5,2" d="M83.0164,-465.607C117.207,-465.381 172.224,-460.74 212,-436.5 241.311,-418.637 262.358,-382.93 272.557,-362.592"/>
<polygon fill="#9a32cd" stroke="#9a32cd" points="82.714,-462.105 72.693,-465.544 82.6716,-469.105 82.714,-462.105"/>
<text text-anchor="middle" x="165.5" y="-565.5" font-family="Helvetica,sans-Serif" font-size="10.00"> cfl_based_trunc</text>
<text text-anchor="middle" x="165.5" y="-554.5" font-family="Helvetica,sans-Serif" font-size="10.00">direct_stress</text>
<text text-anchor="middle" x="165.5" y="-543.5" font-family="Helvetica,sans-Serif" font-size="10.00">split</text>
<text text-anchor="middle" x="165.5" y="-532.5" font-family="Helvetica,sans-Serif" font-size="10.00">harmonic_visc</text>
<text text-anchor="start" x="119" y="-521.5" font-family="Helvetica,sans-Serif" font-size="10.00">dynamic_viscous</text>
<text text-anchor="middle" x="165.5" y="-510.5" font-family="Helvetica,sans-Serif" font-size="10.00">_ml</text>
<text text-anchor="middle" x="165.5" y="-499.5" font-family="Helvetica,sans-Serif" font-size="10.00">bottomdraglaw</text>
<text text-anchor="middle" x="165.5" y="-488.5" font-family="Helvetica,sans-Serif" font-size="10.00">channel_drag</text>
<text text-anchor="middle" x="165.5" y="-477.5" font-family="Helvetica,sans-Serif" font-size="10.00">cflrampingisactivated</text>
<text text-anchor="middle" x="165.5" y="-466.5" font-family="Helvetica,sans-Serif" font-size="10.00">debug</text>
</g>
<!-- Node3 -->
<g id="node3" class="node"><title>Node3</title>
<polygon fill="white" stroke="#bfbfbf" points="21,-417 21,-436 80,-436 80,-417 21,-417"/>
<text text-anchor="middle" x="50.5" y="-424" font-family="Helvetica,sans-Serif" font-size="10.00">time_type</text>
</g>
<!-- Node3&#45;&gt;Node1 -->
<g id="edge2" class="edge"><title>Node3&#45;&gt;Node1</title>
<path fill="none" stroke="#9a32cd" stroke-dasharray="5,2" d="M90.5228,-425.22C123.99,-422.906 172.859,-416.584 212,-399.5 232.201,-390.683 251.753,-374.514 264.568,-362.538"/>
<polygon fill="#9a32cd" stroke="#9a32cd" points="90.0019,-421.745 80.23,-425.839 90.4221,-428.732 90.0019,-421.745"/>
<text text-anchor="middle" x="165.5" y="-424.5" font-family="Helvetica,sans-Serif" font-size="10.00"> rampstarttime</text>
</g>
<!-- Node4 -->
<g id="node4" class="node"><title>Node4</title>
<polygon fill="white" stroke="#bfbfbf" points="1.5,-374 1.5,-393 99.5,-393 99.5,-374 1.5,-374"/>
<text text-anchor="middle" x="50.5" y="-381" font-family="Helvetica,sans-Serif" font-size="10.00">character(len=200)</text>
</g>
<!-- Node4&#45;&gt;Node1 -->
<g id="edge3" class="edge"><title>Node4&#45;&gt;Node1</title>
<path fill="none" stroke="#9a32cd" stroke-dasharray="5,2" d="M109.703,-375.19C140.2,-370.737 178.151,-365.038 212,-359.5 217.756,-358.558 223.781,-357.537 229.762,-356.502"/>
<polygon fill="#9a32cd" stroke="#9a32cd" points="109.055,-371.748 99.6627,-376.651 110.062,-378.675 109.055,-371.748"/>
<text text-anchor="middle" x="165.5" y="-387.5" font-family="Helvetica,sans-Serif" font-size="10.00"> v_trunc_file</text>
<text text-anchor="middle" x="165.5" y="-376.5" font-family="Helvetica,sans-Serif" font-size="10.00">u_trunc_file</text>
</g>
<!-- Node5 -->
<g id="node5" class="node"><title>Node5</title>
<polygon fill="white" stroke="#bfbfbf" points="24,-336 24,-355 77,-355 77,-336 24,-336"/>
<text text-anchor="middle" x="50.5" y="-343" font-family="Helvetica,sans-Serif" font-size="10.00">diag_ctrl</text>
</g>
<!-- Node5&#45;&gt;Node1 -->
<g id="edge4" class="edge"><title>Node5&#45;&gt;Node1</title>
<path fill="none" stroke="#9a32cd" stroke-dasharray="5,2" d="M87.4004,-345.815C125.785,-346.152 186.917,-346.688 229.888,-347.065"/>
<polygon fill="#9a32cd" stroke="#9a32cd" points="87.2416,-342.313 77.2113,-345.726 87.1802,-349.313 87.2416,-342.313"/>
<text text-anchor="middle" x="165.5" y="-349.5" font-family="Helvetica,sans-Serif" font-size="10.00"> diag</text>
</g>
<!-- Node6 -->
<g id="node6" class="node"><title>Node6</title>
<polygon fill="white" stroke="#bfbfbf" points="27.5,-194 27.5,-213 73.5,-213 73.5,-194 27.5,-194"/>
<text text-anchor="middle" x="50.5" y="-201" font-family="Helvetica,sans-Serif" font-size="10.00">integer</text>
</g>
<!-- Node6&#45;&gt;Node1 -->
<g id="edge5" class="edge"><title>Node6&#45;&gt;Node1</title>
<path fill="none" stroke="#9a32cd" stroke-dasharray="5,2" d="M83.7241,-198.576C118.431,-195.042 173.803,-194.709 212,-220.5 251.525,-247.188 269.646,-304.748 276.299,-332.257"/>
<polygon fill="#9a32cd" stroke="#9a32cd" points="83.1852,-195.115 73.6582,-199.751 83.9964,-202.068 83.1852,-195.115"/>
<text text-anchor="middle" x="165.5" y="-333.5" font-family="Helvetica,sans-Serif" font-size="10.00"> id_dv_dt_visc</text>
<text text-anchor="middle" x="165.5" y="-322.5" font-family="Helvetica,sans-Serif" font-size="10.00">id_hml_u</text>
<text text-anchor="middle" x="165.5" y="-311.5" font-family="Helvetica,sans-Serif" font-size="10.00">id_hml_v</text>
<text text-anchor="middle" x="165.5" y="-300.5" font-family="Helvetica,sans-Serif" font-size="10.00">id_av_vv</text>
<text text-anchor="middle" x="165.5" y="-289.5" font-family="Helvetica,sans-Serif" font-size="10.00">id_au_vv</text>
<text text-anchor="middle" x="165.5" y="-278.5" font-family="Helvetica,sans-Serif" font-size="10.00">id_tauy_bot</text>
<text text-anchor="middle" x="165.5" y="-267.5" font-family="Helvetica,sans-Serif" font-size="10.00">id_ray_u</text>
<text text-anchor="middle" x="165.5" y="-256.5" font-family="Helvetica,sans-Serif" font-size="10.00">id_h_u</text>
<text text-anchor="middle" x="165.5" y="-245.5" font-family="Helvetica,sans-Serif" font-size="10.00">id_taux_bot</text>
<text text-anchor="middle" x="165.5" y="-234.5" font-family="Helvetica,sans-Serif" font-size="10.00">id_ray_v</text>
<text text-anchor="middle" x="165.5" y="-223.5" font-family="Helvetica,sans-Serif" font-size="10.00">...</text>
</g>
<!-- Node7 -->
<g id="node7" class="node"><title>Node7</title>
<polygon fill="white" stroke="#bfbfbf" points="34.5,-50 34.5,-69 66.5,-69 66.5,-50 34.5,-50"/>
<text text-anchor="middle" x="50.5" y="-57" font-family="Helvetica,sans-Serif" font-size="10.00">real</text>
</g>
<!-- Node7&#45;&gt;Node1 -->
<g id="edge6" class="edge"><title>Node7&#45;&gt;Node1</title>
<path fill="none" stroke="#9a32cd" stroke-dasharray="5,2" d="M76.7893,-53.3561C111.584,-46.5274 174.196,-40.3035 212,-72.5 252.514,-107.004 272.779,-279.832 278.069,-332.344"/>
<polygon fill="#9a32cd" stroke="#9a32cd" points="75.9942,-49.9469 66.9424,-55.4529 77.4521,-56.7934 75.9942,-49.9469"/>
<text text-anchor="middle" x="165.5" y="-185.5" font-family="Helvetica,sans-Serif" font-size="10.00"> a_u</text>
<text text-anchor="middle" x="165.5" y="-174.5" font-family="Helvetica,sans-Serif" font-size="10.00">a_v</text>
<text text-anchor="middle" x="165.5" y="-163.5" font-family="Helvetica,sans-Serif" font-size="10.00">hmix</text>
<text text-anchor="middle" x="165.5" y="-152.5" font-family="Helvetica,sans-Serif" font-size="10.00">a1_shelf_u</text>
<text text-anchor="middle" x="165.5" y="-141.5" font-family="Helvetica,sans-Serif" font-size="10.00">hbbl</text>
<text text-anchor="middle" x="165.5" y="-130.5" font-family="Helvetica,sans-Serif" font-size="10.00">harm_bl_val</text>
<text text-anchor="middle" x="165.5" y="-119.5" font-family="Helvetica,sans-Serif" font-size="10.00">a1_shelf_v</text>
<text text-anchor="middle" x="165.5" y="-108.5" font-family="Helvetica,sans-Serif" font-size="10.00">cfl_trunc</text>
<text text-anchor="middle" x="165.5" y="-97.5" font-family="Helvetica,sans-Serif" font-size="10.00">h_u</text>
<text text-anchor="middle" x="165.5" y="-86.5" font-family="Helvetica,sans-Serif" font-size="10.00">h_v</text>
<text text-anchor="middle" x="165.5" y="-75.5" font-family="Helvetica,sans-Serif" font-size="10.00">...</text>
</g>
<!-- Node8 -->
<g id="node8" class="node"><title>Node8</title>
<polygon fill="white" stroke="#bfbfbf" points="0,-0.5 0,-30.5 101,-30.5 101,-0.5 0,-0.5"/>
<text text-anchor="start" x="8" y="-18.5" font-family="Helvetica,sans-Serif" font-size="10.00">type(pointaccel_cs)</text>
<text text-anchor="middle" x="50.5" y="-7.5" font-family="Helvetica,sans-Serif" font-size="10.00">, pointer</text>
</g>
<!-- Node8&#45;&gt;Node1 -->
<g id="edge7" class="edge"><title>Node8&#45;&gt;Node1</title>
<path fill="none" stroke="#9a32cd" stroke-dasharray="5,2" d="M111.249,-6.46702C144.828,-4.87491 185.241,-9.29337 212,-33.5 257.278,-74.4602 274.487,-275.134 278.515,-332.285"/>
<polygon fill="#9a32cd" stroke="#9a32cd" points="110.818,-2.98775 101.071,-7.13883 111.28,-9.97256 110.818,-2.98775"/>
<text text-anchor="middle" x="165.5" y="-36.5" font-family="Helvetica,sans-Serif" font-size="10.00"> pointaccel_csp</text>
</g>
</g>
</svg>
        <g id="navigator" transform="translate(0 0)" fill="#404254">
                <rect fill="#f2f5e9" fill-opacity="0.5" stroke="#606060" stroke-width=".5" x="0" y="0" width="60" height="60"/>
                <use id="zoomplus" xlink:href="#zoomPlus" x="17" y="9" onmousedown="handleZoom(evt,'in')"/>
                <use id="zoomminus" xlink:href="#zoomMin" x="42" y="9" onmousedown="handleZoom(evt,'out')"/>
                <use id="reset" xlink:href="#resetDef" x="30" y="36" onmousedown="handleReset()"/>
                <g id="arrowUp" xlink:href="#dirArrow" transform="translate(30 24)" onmousedown="handlePan(0,-1)">
                  <use xlink:href="#rim" fill="#404040">
                        <set attributeName="fill" to="#808080" begin="arrowUp.mouseover" end="arrowUp.mouseout"/>
                  </use>
                  <path fill="none" stroke="white" stroke-width="1.5" d="M0,-3.0v7 M-2.5,-0.5L0,-3.0L2.5,-0.5"/>
                </g>
                <g id="arrowRight" xlink:href="#dirArrow" transform="rotate(90) translate(36 -43)" onmousedown="handlePan(1,0)">
                  <use xlink:href="#rim" fill="#404040">
                        <set attributeName="fill" to="#808080" begin="arrowRight.mouseover" end="arrowRight.mouseout"/>
                  </use>
                  <path fill="none" stroke="white" stroke-width="1.5" d="M0,-3.0v7 M-2.5,-0.5L0,-3.0L2.5,-0.5"/>
                </g>
                <g id="arrowDown" xlink:href="#dirArrow" transform="rotate(180) translate(-30 -48)" onmousedown="handlePan(0,1)">
                  <use xlink:href="#rim" fill="#404040">
                        <set attributeName="fill" to="#808080" begin="arrowDown.mouseover" end="arrowDown.mouseout"/>
                  </use>
                  <path fill="none" stroke="white" stroke-width="1.5" d="M0,-3.0v7 M-2.5,-0.5L0,-3.0L2.5,-0.5"/>
                </g>
                <g id="arrowLeft" xlink:href="#dirArrow" transform="rotate(270) translate(-36 17)" onmousedown="handlePan(-1,0)">
                  <use xlink:href="#rim" fill="#404040">
                        <set attributeName="fill" to="#808080" begin="arrowLeft.mouseover" end="arrowLeft.mouseout"/>
                  </use>
                  <path fill="none" stroke="white" stroke-width="1.5" d="M0,-3.0v7 M-2.5,-0.5L0,-3.0L2.5,-0.5"/>
                </g>
        </g>
        <svg viewBox="0 0 15 15" width="100%" height="30px" preserveAspectRatio="xMaxYMin meet">
         <g id="arrow_out" transform="scale(0.3 0.3)">
          <a xlink:href="structmom__vert__friction_1_1vertvisc__cs__coll__graph_org.svg" target="_base">
           <rect id="button" ry="5" rx="5" y="6" x="6" height="38" width="38"
                fill="#f2f5e9" fill-opacity="0.5" stroke="#606060" stroke-width="1.0"/>
           <path id="arrow"
             d="M 11.500037,31.436501 C 11.940474,20.09759 22.043105,11.32322 32.158766,21.979434 L 37.068811,17.246167 C 37.068811,17.246167 37.088388,32 37.088388,32 L 22.160133,31.978069 C 22.160133,31.978069 26.997745,27.140456 26.997745,27.140456 C 18.528582,18.264221 13.291696,25.230495 11.500037,31.436501 z"
             style="fill:#404040;"/>
          </a>
         </g>
        </svg>
</svg>
