<?xml version="1.0" encoding="UTF-8" standalone="no"?>
<!DOCTYPE svg PUBLIC "-//W3C//DTD SVG 1.1//EN"
 "http://www.w3.org/Graphics/SVG/1.1/DTD/svg11.dtd">
<!-- Generated by graphviz version 2.38.0 (20140413.2041)
 -->
<!-- Title: mom_legacy_barotropic::bt_obc_type Pages: 1 -->
<svg width="153pt" height="216pt"
 viewBox="0.00 0.00 153.00 216.00" xmlns="http://www.w3.org/2000/svg" xmlns:xlink="http://www.w3.org/1999/xlink">
<g id="graph0" class="graph" transform="scale(1 1) rotate(0) translate(4 212)">
<title>mom_legacy_barotropic::bt_obc_type</title>
<polygon fill="white" stroke="none" points="-4,4 -4,-212 149,-212 149,4 -4,4"/>
<!-- Node1 -->
<g id="node1" class="node"><title>Node1</title>
<polygon fill="#bfbfbf" stroke="black" points="-7.10543e-15,-0.5 -7.10543e-15,-30.5 120,-30.5 120,-0.5 -7.10543e-15,-0.5"/>
<text text-anchor="start" x="8" y="-18.5" font-family="Helvetica,sans-Serif" font-size="10.00">mom_legacy_barotropic</text>
<text text-anchor="middle" x="60" y="-7.5" font-family="Helvetica,sans-Serif" font-size="10.00">::bt_obc_type</text>
</g>
<!-- Node2 -->
<g id="node2" class="node"><title>Node2</title>
<polygon fill="white" stroke="#bfbfbf" points="4,-188.5 4,-207.5 50,-207.5 50,-188.5 4,-188.5"/>
<text text-anchor="middle" x="27" y="-195.5" font-family="Helvetica,sans-Serif" font-size="10.00">integer</text>
</g>
<!-- Node2&#45;&gt;Node1 -->
<g id="edge1" class="edge"><title>Node2&#45;&gt;Node1</title>
<path fill="none" stroke="#9a32cd" stroke-dasharray="5,2" d="M22.7897,-178.237C17.2186,-149.249 10.0524,-92.3903 28,-49 30.845,-42.1219 35.9151,-35.913 41.1928,-30.8093"/>
<polygon fill="#9a32cd" stroke="#9a32cd" points="19.4007,-179.132 24.8614,-188.211 26.2545,-177.708 19.4007,-179.132"/>
<text text-anchor="middle" x="49.5" y="-145.5" font-family="Helvetica,sans-Serif" font-size="10.00"> js_u_obc</text>
<text text-anchor="middle" x="49.5" y="-134.5" font-family="Helvetica,sans-Serif" font-size="10.00">js_v_obc</text>
<text text-anchor="middle" x="49.5" y="-123.5" font-family="Helvetica,sans-Serif" font-size="10.00">is_u_obc</text>
<text text-anchor="middle" x="49.5" y="-112.5" font-family="Helvetica,sans-Serif" font-size="10.00">is_v_obc</text>
<text text-anchor="middle" x="49.5" y="-101.5" font-family="Helvetica,sans-Serif" font-size="10.00">je_u_obc</text>
<text text-anchor="middle" x="49.5" y="-90.5" font-family="Helvetica,sans-Serif" font-size="10.00">je_v_obc</text>
<text text-anchor="middle" x="49.5" y="-79.5" font-family="Helvetica,sans-Serif" font-size="10.00">ie_u_obc</text>
<text text-anchor="middle" x="49.5" y="-68.5" font-family="Helvetica,sans-Serif" font-size="10.00">ie_v_obc</text>
</g>
<!-- Node3 -->
<g id="node3" class="node"><title>Node3</title>
<polygon fill="white" stroke="#bfbfbf" points="77,-188.5 77,-207.5 109,-207.5 109,-188.5 77,-188.5"/>
<text text-anchor="middle" x="93" y="-195.5" font-family="Helvetica,sans-Serif" font-size="10.00">real</text>
</g>
<!-- Node3&#45;&gt;Node1 -->
<g id="edge2" class="edge"><title>Node3&#45;&gt;Node1</title>
<path fill="none" stroke="#9a32cd" stroke-dasharray="5,2" d="M91.2862,-178.128C88.4689,-149.797 82.0409,-94.7179 71,-49 69.5177,-42.8623 67.377,-36.2353 65.3773,-30.5765"/>
<polygon fill="#9a32cd" stroke="#9a32cd" points="87.815,-178.598 92.2477,-188.221 94.7835,-177.934 87.815,-178.598"/>
<text text-anchor="middle" x="117.5" y="-162" font-family="Helvetica,sans-Serif" font-size="10.00"> eta_outer_u</text>
<text text-anchor="middle" x="117.5" y="-151" font-family="Helvetica,sans-Serif" font-size="10.00">vbt_outer</text>
<text text-anchor="middle" x="117.5" y="-140" font-family="Helvetica,sans-Serif" font-size="10.00">eta_outer_v</text>
<text text-anchor="middle" x="117.5" y="-129" font-family="Helvetica,sans-Serif" font-size="10.00">vhbt</text>
<text text-anchor="middle" x="117.5" y="-118" font-family="Helvetica,sans-Serif" font-size="10.00">uhbt</text>
<text text-anchor="middle" x="117.5" y="-107" font-family="Helvetica,sans-Serif" font-size="10.00">h_u</text>
<text text-anchor="middle" x="117.5" y="-96" font-family="Helvetica,sans-Serif" font-size="10.00">h_v</text>
<text text-anchor="middle" x="117.5" y="-85" font-family="Helvetica,sans-Serif" font-size="10.00">cg_u</text>
<text text-anchor="middle" x="117.5" y="-74" font-family="Helvetica,sans-Serif" font-size="10.00">cg_v</text>
<text text-anchor="middle" x="117.5" y="-63" font-family="Helvetica,sans-Serif" font-size="10.00">ubt_outer</text>
<text text-anchor="middle" x="117.5" y="-52" font-family="Helvetica,sans-Serif" font-size="10.00">...</text>
</g>
</g>
</svg>
