<?xml version="1.0" encoding="UTF-8" standalone="no"?>
<!DOCTYPE svg PUBLIC "-//W3C//DTD SVG 1.1//EN"
 "http://www.w3.org/Graphics/SVG/1.1/DTD/svg11.dtd">
<!-- Generated by graphviz version 2.38.0 (20140413.2041)
 -->
<!-- Title: mom_diabatic_aux::diabatic_aux_cs Pages: 1 -->
<svg width="379pt" height="205pt"
 viewBox="0.00 0.00 379.00 205.00" xmlns="http://www.w3.org/2000/svg" xmlns:xlink="http://www.w3.org/1999/xlink">
<g id="graph0" class="graph" transform="scale(1 1) rotate(0) translate(4 201)">
<title>mom_diabatic_aux::diabatic_aux_cs</title>
<polygon fill="white" stroke="none" points="-4,4 -4,-201 375,-201 375,4 -4,4"/>
<!-- Node1 -->
<g id="node1" class="node"><title>Node1</title>
<polygon fill="#bfbfbf" stroke="black" points="95,-0.5 95,-30.5 233,-30.5 233,-0.5 95,-0.5"/>
<text text-anchor="start" x="103" y="-18.5" font-family="Helvetica,sans-Serif" font-size="10.00">mom_diabatic_aux::diabatic</text>
<text text-anchor="middle" x="164" y="-7.5" font-family="Helvetica,sans-Serif" font-size="10.00">_aux_cs</text>
</g>
<!-- Node2 -->
<g id="node2" class="node"><title>Node2</title>
<polygon fill="white" stroke="#bfbfbf" points="0,-177.5 0,-196.5 44,-196.5 44,-177.5 0,-177.5"/>
<text text-anchor="middle" x="22" y="-184.5" font-family="Helvetica,sans-Serif" font-size="10.00">logical</text>
</g>
<!-- Node2&#45;&gt;Node1 -->
<g id="edge1" class="edge"><title>Node2&#45;&gt;Node1</title>
<path fill="none" stroke="#9a32cd" stroke-dasharray="5,2" d="M18.0146,-167.299C13.0017,-138.25 8.20624,-82.1853 37,-49 45.1662,-39.5883 69.582,-32.2819 94.8523,-27.0018"/>
<polygon fill="#9a32cd" stroke="#9a32cd" points="14.6168,-168.164 19.9443,-177.322 21.4905,-166.84 14.6168,-168.164"/>
<text text-anchor="start" x="37" y="-151" font-family="Helvetica,sans-Serif" font-size="10.00"> pressure_dependent</text>
<text text-anchor="middle" x="82.5" y="-140" font-family="Helvetica,sans-Serif" font-size="10.00">_frazil</text>
<text text-anchor="middle" x="82.5" y="-129" font-family="Helvetica,sans-Serif" font-size="10.00">reclaim_frazil</text>
<text text-anchor="middle" x="82.5" y="-118" font-family="Helvetica,sans-Serif" font-size="10.00">do_rivermix</text>
<text text-anchor="start" x="37" y="-107" font-family="Helvetica,sans-Serif" font-size="10.00">use_river_heat</text>
<text text-anchor="middle" x="82.5" y="-96" font-family="Helvetica,sans-Serif" font-size="10.00">_content</text>
<text text-anchor="start" x="37" y="-85" font-family="Helvetica,sans-Serif" font-size="10.00">use_calving_heat</text>
<text text-anchor="middle" x="82.5" y="-74" font-family="Helvetica,sans-Serif" font-size="10.00">_content</text>
<text text-anchor="start" x="37" y="-63" font-family="Helvetica,sans-Serif" font-size="10.00">ignore_fluxes</text>
<text text-anchor="middle" x="82.5" y="-52" font-family="Helvetica,sans-Serif" font-size="10.00">_over_land</text>
</g>
<!-- Node3 -->
<g id="node3" class="node"><title>Node3</title>
<polygon fill="white" stroke="#bfbfbf" points="103.5,-177.5 103.5,-196.5 156.5,-196.5 156.5,-177.5 103.5,-177.5"/>
<text text-anchor="middle" x="130" y="-184.5" font-family="Helvetica,sans-Serif" font-size="10.00">diag_ctrl</text>
</g>
<!-- Node3&#45;&gt;Node1 -->
<g id="edge2" class="edge"><title>Node3&#45;&gt;Node1</title>
<path fill="none" stroke="#9a32cd" stroke-dasharray="5,2" d="M130.536,-167.236C131.731,-140.462 135.584,-89.9996 148,-49 149.896,-42.7401 152.892,-36.2026 155.781,-30.6462"/>
<polygon fill="#9a32cd" stroke="#9a32cd" points="127.03,-167.337 130.161,-177.459 134.026,-167.594 127.03,-167.337"/>
<text text-anchor="middle" x="159" y="-101.5" font-family="Helvetica,sans-Serif" font-size="10.00"> diag</text>
</g>
<!-- Node4 -->
<g id="node4" class="node"><title>Node4</title>
<polygon fill="white" stroke="#bfbfbf" points="175,-177.5 175,-196.5 221,-196.5 221,-177.5 175,-177.5"/>
<text text-anchor="middle" x="198" y="-184.5" font-family="Helvetica,sans-Serif" font-size="10.00">integer</text>
</g>
<!-- Node4&#45;&gt;Node1 -->
<g id="edge3" class="edge"><title>Node4&#45;&gt;Node1</title>
<path fill="none" stroke="#9a32cd" stroke-dasharray="5,2" d="M194.252,-167.316C187.384,-133.078 172.928,-61.0088 166.82,-30.5569"/>
<polygon fill="#9a32cd" stroke="#9a32cd" points="190.869,-168.245 196.267,-177.361 197.732,-166.868 190.869,-168.245"/>
<text text-anchor="middle" x="233.5" y="-123.5" font-family="Helvetica,sans-Serif" font-size="10.00"> id_brine_lay</text>
<text text-anchor="middle" x="233.5" y="-112.5" font-family="Helvetica,sans-Serif" font-size="10.00">id_nonpensw_diag</text>
<text text-anchor="middle" x="233.5" y="-101.5" font-family="Helvetica,sans-Serif" font-size="10.00">id_createdh</text>
<text text-anchor="middle" x="233.5" y="-90.5" font-family="Helvetica,sans-Serif" font-size="10.00">id_pensw_diag</text>
<text text-anchor="middle" x="233.5" y="-79.5" font-family="Helvetica,sans-Serif" font-size="10.00">id_penswflux_diag</text>
</g>
<!-- Node5 -->
<g id="node5" class="node"><title>Node5</title>
<polygon fill="white" stroke="#bfbfbf" points="280,-177.5 280,-196.5 312,-196.5 312,-177.5 280,-177.5"/>
<text text-anchor="middle" x="296" y="-184.5" font-family="Helvetica,sans-Serif" font-size="10.00">real</text>
</g>
<!-- Node5&#45;&gt;Node1 -->
<g id="edge4" class="edge"><title>Node5&#45;&gt;Node1</title>
<path fill="none" stroke="#9a32cd" stroke-dasharray="5,2" d="M298.724,-167.306C301.837,-138.267 303.213,-82.2156 274,-49 263.413,-36.9629 248.608,-29.2824 233.284,-24.4088"/>
<polygon fill="#9a32cd" stroke="#9a32cd" points="295.239,-166.966 297.46,-177.325 302.184,-167.842 295.239,-166.966"/>
<text text-anchor="middle" x="335.5" y="-123.5" font-family="Helvetica,sans-Serif" font-size="10.00"> penswflux_diag</text>
<text text-anchor="middle" x="335.5" y="-112.5" font-family="Helvetica,sans-Serif" font-size="10.00">pensw_diag</text>
<text text-anchor="middle" x="335.5" y="-101.5" font-family="Helvetica,sans-Serif" font-size="10.00">rivermix_depth</text>
<text text-anchor="middle" x="335.5" y="-90.5" font-family="Helvetica,sans-Serif" font-size="10.00">nonpensw_diag</text>
<text text-anchor="middle" x="335.5" y="-79.5" font-family="Helvetica,sans-Serif" font-size="10.00">createdh</text>
</g>
</g>
</svg>
