<?xml version="1.0" encoding="UTF-8" standalone="no"?>
<!DOCTYPE svg PUBLIC "-//W3C//DTD SVG 1.1//EN"
 "http://www.w3.org/Graphics/SVG/1.1/DTD/svg11.dtd">
<!-- Generated by graphviz version 2.38.0 (20140413.2041)
 -->
<!-- Title: mom_domains::mom_domain_type Pages: 1 -->
<svg width="271pt" height="172pt"
 viewBox="0.00 0.00 271.00 172.00" xmlns="http://www.w3.org/2000/svg" xmlns:xlink="http://www.w3.org/1999/xlink">
<g id="graph0" class="graph" transform="scale(1 1) rotate(0) translate(4 168)">
<title>mom_domains::mom_domain_type</title>
<polygon fill="white" stroke="none" points="-4,4 -4,-168 267,-168 267,4 -4,4"/>
<!-- Node1 -->
<g id="node1" class="node"><title>Node1</title>
<polygon fill="#bfbfbf" stroke="black" points="55.5,-0.5 55.5,-19.5 224.5,-19.5 224.5,-0.5 55.5,-0.5"/>
<text text-anchor="middle" x="140" y="-7.5" font-family="Helvetica,sans-Serif" font-size="10.00">mom_domains::mom_domain_type</text>
</g>
<!-- Node2 -->
<g id="node2" class="node"><title>Node2</title>
<polygon fill="white" stroke="#bfbfbf" points="0,-144.5 0,-163.5 44,-163.5 44,-144.5 0,-144.5"/>
<text text-anchor="middle" x="22" y="-151.5" font-family="Helvetica,sans-Serif" font-size="10.00">logical</text>
</g>
<!-- Node2&#45;&gt;Node1 -->
<g id="edge1" class="edge"><title>Node2&#45;&gt;Node1</title>
<path fill="none" stroke="#9a32cd" stroke-dasharray="5,2" d="M19.4522,-134.462C17.1071,-109.339 17.0167,-64.5771 41,-38 48.5789,-29.6014 58.4892,-23.7081 69.1079,-19.5939"/>
<polygon fill="#9a32cd" stroke="#9a32cd" points="15.9858,-134.954 20.61,-144.487 22.9395,-134.151 15.9858,-134.954"/>
<text text-anchor="middle" x="88.5" y="-101.5" font-family="Helvetica,sans-Serif" font-size="10.00"> nonblocking_updates</text>
<text text-anchor="middle" x="88.5" y="-90.5" font-family="Helvetica,sans-Serif" font-size="10.00">maskmap</text>
<text text-anchor="middle" x="88.5" y="-79.5" font-family="Helvetica,sans-Serif" font-size="10.00">symmetric</text>
<text text-anchor="middle" x="88.5" y="-68.5" font-family="Helvetica,sans-Serif" font-size="10.00">use_io_layout</text>
<text text-anchor="middle" x="88.5" y="-57.5" font-family="Helvetica,sans-Serif" font-size="10.00">thin_halo_updates</text>
</g>
<!-- Node3 -->
<g id="node3" class="node"><title>Node3</title>
<polygon fill="white" stroke="#bfbfbf" points="110.5,-144.5 110.5,-163.5 169.5,-163.5 169.5,-144.5 110.5,-144.5"/>
<text text-anchor="middle" x="140" y="-151.5" font-family="Helvetica,sans-Serif" font-size="10.00">domain2d</text>
</g>
<!-- Node3&#45;&gt;Node1 -->
<g id="edge2" class="edge"><title>Node3&#45;&gt;Node1</title>
<path fill="none" stroke="#9a32cd" stroke-dasharray="5,2" d="M140,-134.107C140,-102.929 140,-41.926 140,-19.5184"/>
<polygon fill="#9a32cd" stroke="#9a32cd" points="136.5,-134.117 140,-144.117 143.5,-134.117 136.5,-134.117"/>
<text text-anchor="middle" x="169.5" y="-79.5" font-family="Helvetica,sans-Serif" font-size="10.00"> mpp_domain</text>
</g>
<!-- Node4 -->
<g id="node4" class="node"><title>Node4</title>
<polygon fill="white" stroke="#bfbfbf" points="199,-144.5 199,-163.5 245,-163.5 245,-144.5 199,-144.5"/>
<text text-anchor="middle" x="222" y="-151.5" font-family="Helvetica,sans-Serif" font-size="10.00">integer</text>
</g>
<!-- Node4&#45;&gt;Node1 -->
<g id="edge3" class="edge"><title>Node4&#45;&gt;Node1</title>
<path fill="none" stroke="#9a32cd" stroke-dasharray="5,2" d="M223.405,-134.235C224.239,-109.528 222.079,-65.9555 200,-38 193.274,-29.484 183.278,-23.5703 173.364,-19.5003"/>
<polygon fill="#9a32cd" stroke="#9a32cd" points="219.899,-134.242 222.85,-144.418 226.889,-134.623 219.899,-134.242"/>
<text text-anchor="middle" x="243" y="-118" font-family="Helvetica,sans-Serif" font-size="10.00"> x_flags</text>
<text text-anchor="middle" x="243" y="-107" font-family="Helvetica,sans-Serif" font-size="10.00">io_layout</text>
<text text-anchor="middle" x="243" y="-96" font-family="Helvetica,sans-Serif" font-size="10.00">y_flags</text>
<text text-anchor="middle" x="243" y="-85" font-family="Helvetica,sans-Serif" font-size="10.00">niglobal</text>
<text text-anchor="middle" x="243" y="-74" font-family="Helvetica,sans-Serif" font-size="10.00">nihalo</text>
<text text-anchor="middle" x="243" y="-63" font-family="Helvetica,sans-Serif" font-size="10.00">njhalo</text>
<text text-anchor="middle" x="243" y="-52" font-family="Helvetica,sans-Serif" font-size="10.00">njglobal</text>
<text text-anchor="middle" x="243" y="-41" font-family="Helvetica,sans-Serif" font-size="10.00">layout</text>
</g>
</g>
</svg>
