<?xml version="1.0" encoding="UTF-8" standalone="no"?>
<!DOCTYPE svg PUBLIC "-//W3C//DTD SVG 1.1//EN"
 "http://www.w3.org/Graphics/SVG/1.1/DTD/svg11.dtd">
<!-- Generated by graphviz version 2.38.0 (20140413.2041)
 -->
<!-- Title: kelvin_initialization::kelvin_obc_cs Pages: 1 -->
<svg width="128pt" height="216pt"
 viewBox="0.00 0.00 128.00 216.00" xmlns="http://www.w3.org/2000/svg" xmlns:xlink="http://www.w3.org/1999/xlink">
<g id="graph0" class="graph" transform="scale(1 1) rotate(0) translate(4 212)">
<title>kelvin_initialization::kelvin_obc_cs</title>
<polygon fill="white" stroke="none" points="-4,4 -4,-212 124,-212 124,4 -4,4"/>
<!-- Node1 -->
<g id="node1" class="node"><title>Node1</title>
<polygon fill="#bfbfbf" stroke="black" points="6,-0.5 6,-30.5 104,-30.5 104,-0.5 6,-0.5"/>
<text text-anchor="start" x="14" y="-18.5" font-family="Helvetica,sans-Serif" font-size="10.00">kelvin_initialization</text>
<text text-anchor="middle" x="55" y="-7.5" font-family="Helvetica,sans-Serif" font-size="10.00">::kelvin_obc_cs</text>
</g>
<!-- Node2 -->
<g id="node2" class="node"><title>Node2</title>
<polygon fill="white" stroke="#bfbfbf" points="0,-188.5 0,-207.5 32,-207.5 32,-188.5 0,-188.5"/>
<text text-anchor="middle" x="16" y="-195.5" font-family="Helvetica,sans-Serif" font-size="10.00">real</text>
</g>
<!-- Node2&#45;&gt;Node1 -->
<g id="edge1" class="edge"><title>Node2&#45;&gt;Node1</title>
<path fill="none" stroke="#9a32cd" stroke-dasharray="5,2" d="M11.4269,-178.461C5.24282,-149.339 -2.88344,-91.7883 17,-49 20.3656,-41.7573 26.2199,-35.5229 32.3395,-30.5075"/>
<polygon fill="#9a32cd" stroke="#9a32cd" points="8.07153,-179.488 13.7168,-188.454 14.8947,-177.925 8.07153,-179.488"/>
<text text-anchor="middle" x="44.5" y="-162" font-family="Helvetica,sans-Serif" font-size="10.00"> rho_range</text>
<text text-anchor="middle" x="44.5" y="-151" font-family="Helvetica,sans-Serif" font-size="10.00">f_0</text>
<text text-anchor="middle" x="44.5" y="-140" font-family="Helvetica,sans-Serif" font-size="10.00">plx</text>
<text text-anchor="middle" x="44.5" y="-129" font-family="Helvetica,sans-Serif" font-size="10.00">rho_0</text>
<text text-anchor="middle" x="44.5" y="-118" font-family="Helvetica,sans-Serif" font-size="10.00">pmz</text>
<text text-anchor="middle" x="44.5" y="-107" font-family="Helvetica,sans-Serif" font-size="10.00">n0</text>
<text text-anchor="middle" x="44.5" y="-96" font-family="Helvetica,sans-Serif" font-size="10.00">coast_angle</text>
<text text-anchor="middle" x="44.5" y="-85" font-family="Helvetica,sans-Serif" font-size="10.00">lambda</text>
<text text-anchor="middle" x="44.5" y="-74" font-family="Helvetica,sans-Serif" font-size="10.00">coast_offset</text>
<text text-anchor="middle" x="44.5" y="-63" font-family="Helvetica,sans-Serif" font-size="10.00">omega</text>
<text text-anchor="middle" x="44.5" y="-52" font-family="Helvetica,sans-Serif" font-size="10.00">...</text>
</g>
<!-- Node3 -->
<g id="node3" class="node"><title>Node3</title>
<polygon fill="white" stroke="#bfbfbf" points="71,-188.5 71,-207.5 117,-207.5 117,-188.5 71,-188.5"/>
<text text-anchor="middle" x="94" y="-195.5" font-family="Helvetica,sans-Serif" font-size="10.00">integer</text>
</g>
<!-- Node3&#45;&gt;Node1 -->
<g id="edge2" class="edge"><title>Node3&#45;&gt;Node1</title>
<path fill="none" stroke="#9a32cd" stroke-dasharray="5,2" d="M93.2151,-178.288C91.5775,-149.753 86.631,-93.9387 72,-49 69.9498,-42.703 66.7598,-36.1585 63.6943,-30.6069"/>
<polygon fill="#9a32cd" stroke="#9a32cd" points="89.727,-178.615 93.7202,-188.429 96.7183,-178.267 89.727,-178.615"/>
<text text-anchor="middle" x="106" y="-107" font-family="Helvetica,sans-Serif" font-size="10.00"> mode</text>
</g>
</g>
</svg>
