<?xml version="1.0" encoding="UTF-8" standalone="no"?>
<!DOCTYPE svg PUBLIC "-//W3C//DTD SVG 1.1//EN"
 "http://www.w3.org/Graphics/SVG/1.1/DTD/svg11.dtd">
<!-- Generated by graphviz version 2.38.0 (20140413.2041)
 -->
<!-- Title: mom_legacy_barotropic::legacy_barotropic_cs Pages: 1 -->
<svg width="373pt" height="663pt"
 viewBox="0.00 0.00 373.00 662.50" xmlns="http://www.w3.org/2000/svg" xmlns:xlink="http://www.w3.org/1999/xlink">
<g id="graph0" class="graph" transform="scale(1 1) rotate(0) translate(4 658.5)">
<title>mom_legacy_barotropic::legacy_barotropic_cs</title>
<polygon fill="white" stroke="none" points="-4,4 -4,-658.5 369,-658.5 369,4 -4,4"/>
<!-- Node1 -->
<g id="node1" class="node"><title>Node1</title>
<polygon fill="#bfbfbf" stroke="black" points="245,-382.5 245,-412.5 365,-412.5 365,-382.5 245,-382.5"/>
<text text-anchor="start" x="253" y="-400.5" font-family="Helvetica,sans-Serif" font-size="10.00">mom_legacy_barotropic</text>
<text text-anchor="middle" x="305" y="-389.5" font-family="Helvetica,sans-Serif" font-size="10.00">::legacy_barotropic_cs</text>
</g>
<!-- Node2 -->
<g id="node2" class="node"><title>Node2</title>
<polygon fill="white" stroke="#bfbfbf" points="40,-519 40,-538 84,-538 84,-519 40,-519"/>
<text text-anchor="middle" x="62" y="-526" font-family="Helvetica,sans-Serif" font-size="10.00">logical</text>
</g>
<!-- Node2&#45;&gt;Node1 -->
<g id="edge1" class="edge"><title>Node2&#45;&gt;Node1</title>
<path fill="none" stroke="#9a32cd" stroke-dasharray="5,2" d="M94.1323,-528.244C128.944,-526.621 185.83,-519.862 227,-494.5 259.951,-474.201 284.632,-434.492 296.383,-412.704"/>
<polygon fill="#9a32cd" stroke="#9a32cd" points="93.9501,-524.748 84.0794,-528.598 94.1963,-531.744 93.9501,-524.748"/>
<text text-anchor="middle" x="184.5" y="-646.5" font-family="Helvetica,sans-Serif" font-size="10.00"> bound_bt_corr</text>
<text text-anchor="middle" x="184.5" y="-635.5" font-family="Helvetica,sans-Serif" font-size="10.00">use_wide_halos</text>
<text text-anchor="middle" x="184.5" y="-624.5" font-family="Helvetica,sans-Serif" font-size="10.00">clip_velocity</text>
<text text-anchor="middle" x="184.5" y="-613.5" font-family="Helvetica,sans-Serif" font-size="10.00">dynamic_psurf</text>
<text text-anchor="middle" x="184.5" y="-602.5" font-family="Helvetica,sans-Serif" font-size="10.00">sadourny</text>
<text text-anchor="middle" x="184.5" y="-591.5" font-family="Helvetica,sans-Serif" font-size="10.00">split</text>
<text text-anchor="middle" x="184.5" y="-580.5" font-family="Helvetica,sans-Serif" font-size="10.00">debug_bt</text>
<text text-anchor="middle" x="184.5" y="-569.5" font-family="Helvetica,sans-Serif" font-size="10.00">bt_project_velocity</text>
<text text-anchor="middle" x="184.5" y="-558.5" font-family="Helvetica,sans-Serif" font-size="10.00">tides</text>
<text text-anchor="start" x="143.5" y="-547.5" font-family="Helvetica,sans-Serif" font-size="10.00">linearized_bt</text>
<text text-anchor="middle" x="184.5" y="-536.5" font-family="Helvetica,sans-Serif" font-size="10.00">_pv</text>
<text text-anchor="middle" x="184.5" y="-525.5" font-family="Helvetica,sans-Serif" font-size="10.00">...</text>
</g>
<!-- Node3 -->
<g id="node3" class="node"><title>Node3</title>
<polygon fill="white" stroke="#bfbfbf" points="20.5,-481 20.5,-500 103.5,-500 103.5,-481 20.5,-481"/>
<text text-anchor="middle" x="62" y="-488" font-family="Helvetica,sans-Serif" font-size="10.00">hor_index_type</text>
</g>
<!-- Node3&#45;&gt;Node1 -->
<g id="edge2" class="edge"><title>Node3&#45;&gt;Node1</title>
<path fill="none" stroke="#9a32cd" stroke-dasharray="5,2" d="M113.622,-485.463C146.983,-480.774 190.992,-471.923 227,-455.5 250.45,-444.805 273.551,-425.988 288.237,-412.692"/>
<polygon fill="#9a32cd" stroke="#9a32cd" points="113.084,-482.003 103.631,-486.788 114.005,-488.943 113.084,-482.003"/>
<text text-anchor="middle" x="184.5" y="-482.5" font-family="Helvetica,sans-Serif" font-size="10.00"> debug_bt_hi</text>
</g>
<!-- Node4 -->
<g id="node4" class="node"><title>Node4</title>
<polygon fill="white" stroke="#bfbfbf" points="32.5,-443 32.5,-462 91.5,-462 91.5,-443 32.5,-443"/>
<text text-anchor="middle" x="62" y="-450" font-family="Helvetica,sans-Serif" font-size="10.00">time_type</text>
</g>
<!-- Node4&#45;&gt;Node1 -->
<g id="edge3" class="edge"><title>Node4&#45;&gt;Node1</title>
<path fill="none" stroke="#9a32cd" stroke-dasharray="5,2" d="M101.994,-447.295C135.445,-442.428 184.787,-434.294 227,-423.5 238.893,-420.459 251.595,-416.482 263.183,-412.557"/>
<polygon fill="#9a32cd" stroke="#9a32cd" points="101.127,-443.883 91.7205,-448.759 102.114,-450.813 101.127,-443.883"/>
<text text-anchor="middle" x="184.5" y="-443.5" font-family="Helvetica,sans-Serif" font-size="10.00"> time</text>
</g>
<!-- Node5 -->
<g id="node5" class="node"><title>Node5</title>
<polygon fill="white" stroke="#bfbfbf" points="35.5,-405 35.5,-424 88.5,-424 88.5,-405 35.5,-405"/>
<text text-anchor="middle" x="62" y="-412" font-family="Helvetica,sans-Serif" font-size="10.00">diag_ctrl</text>
</g>
<!-- Node5&#45;&gt;Node1 -->
<g id="edge4" class="edge"><title>Node5&#45;&gt;Node1</title>
<path fill="none" stroke="#9a32cd" stroke-dasharray="5,2" d="M98.9855,-411.962C137.415,-409.251 198.944,-404.911 244.582,-401.691"/>
<polygon fill="#9a32cd" stroke="#9a32cd" points="98.5201,-408.486 88.7912,-412.681 99.0127,-415.468 98.5201,-408.486"/>
<text text-anchor="middle" x="184.5" y="-411.5" font-family="Helvetica,sans-Serif" font-size="10.00"> diag</text>
</g>
<!-- Node6 -->
<g id="node6" class="node"><title>Node6</title>
<polygon fill="white" stroke="#bfbfbf" points="16.5,-355.5 16.5,-385.5 107.5,-385.5 107.5,-355.5 16.5,-355.5"/>
<text text-anchor="start" x="24.5" y="-373.5" font-family="Helvetica,sans-Serif" font-size="10.00">type(tidal_forcing</text>
<text text-anchor="middle" x="62" y="-362.5" font-family="Helvetica,sans-Serif" font-size="10.00">_cs), pointer</text>
</g>
<!-- Node6&#45;&gt;Node1 -->
<g id="edge5" class="edge"><title>Node6&#45;&gt;Node1</title>
<path fill="none" stroke="#9a32cd" stroke-dasharray="5,2" d="M117.606,-375.804C149.522,-378.993 190.57,-383.247 227,-387.5 232.757,-388.172 238.753,-388.901 244.745,-389.648"/>
<polygon fill="#9a32cd" stroke="#9a32cd" points="117.879,-372.314 107.582,-374.807 117.187,-379.279 117.879,-372.314"/>
<text text-anchor="middle" x="184.5" y="-390.5" font-family="Helvetica,sans-Serif" font-size="10.00"> tides_csp</text>
</g>
<!-- Node7 -->
<g id="node7" class="node"><title>Node7</title>
<polygon fill="white" stroke="#bfbfbf" points="39,-216 39,-235 85,-235 85,-216 39,-216"/>
<text text-anchor="middle" x="62" y="-223" font-family="Helvetica,sans-Serif" font-size="10.00">integer</text>
</g>
<!-- Node7&#45;&gt;Node1 -->
<g id="edge6" class="edge"><title>Node7&#45;&gt;Node1</title>
<path fill="none" stroke="#9a32cd" stroke-dasharray="5,2" d="M95.464,-219.984C130.996,-215.779 188.078,-214.599 227,-241.5 276.195,-275.502 295.353,-350.227 301.509,-382.342"/>
<polygon fill="#9a32cd" stroke="#9a32cd" points="94.6213,-216.565 85.1727,-221.359 95.5481,-223.504 94.6213,-216.565"/>
<text text-anchor="middle" x="184.5" y="-365.5" font-family="Helvetica,sans-Serif" font-size="10.00"> id_gtotn</text>
<text text-anchor="middle" x="184.5" y="-354.5" font-family="Helvetica,sans-Serif" font-size="10.00">id_ubt_hifreq</text>
<text text-anchor="middle" x="184.5" y="-343.5" font-family="Helvetica,sans-Serif" font-size="10.00">id_vbt_st</text>
<text text-anchor="middle" x="184.5" y="-332.5" font-family="Helvetica,sans-Serif" font-size="10.00">id_ubtav</text>
<text text-anchor="start" x="142" y="-321.5" font-family="Helvetica,sans-Serif" font-size="10.00">nonlin_cont_update</text>
<text text-anchor="middle" x="184.5" y="-310.5" font-family="Helvetica,sans-Serif" font-size="10.00">_period</text>
<text text-anchor="middle" x="184.5" y="-299.5" font-family="Helvetica,sans-Serif" font-size="10.00">id_ubt_st</text>
<text text-anchor="middle" x="184.5" y="-288.5" font-family="Helvetica,sans-Serif" font-size="10.00">id_vbtav</text>
<text text-anchor="middle" x="184.5" y="-277.5" font-family="Helvetica,sans-Serif" font-size="10.00">id_ubt</text>
<text text-anchor="middle" x="184.5" y="-266.5" font-family="Helvetica,sans-Serif" font-size="10.00">id_vhbt</text>
<text text-anchor="middle" x="184.5" y="-255.5" font-family="Helvetica,sans-Serif" font-size="10.00">id_vbt</text>
<text text-anchor="middle" x="184.5" y="-244.5" font-family="Helvetica,sans-Serif" font-size="10.00">...</text>
</g>
<!-- Node8 -->
<g id="node8" class="node"><title>Node8</title>
<polygon fill="white" stroke="#bfbfbf" points="46,-50 46,-69 78,-69 78,-50 46,-50"/>
<text text-anchor="middle" x="62" y="-57" font-family="Helvetica,sans-Serif" font-size="10.00">real</text>
</g>
<!-- Node8&#45;&gt;Node1 -->
<g id="edge7" class="edge"><title>Node8&#45;&gt;Node1</title>
<path fill="none" stroke="#9a32cd" stroke-dasharray="5,2" d="M88.3097,-53.0478C123.764,-45.6518 188.214,-38.4345 227,-71.5 275.681,-113.001 297.558,-323.931 302.748,-382.435"/>
<polygon fill="#9a32cd" stroke="#9a32cd" points="87.2835,-49.6912 78.2979,-55.3044 88.8228,-56.5198 87.2835,-49.6912"/>
<text text-anchor="middle" x="184.5" y="-206.5" font-family="Helvetica,sans-Serif" font-size="10.00"> dtbt</text>
<text text-anchor="middle" x="184.5" y="-195.5" font-family="Helvetica,sans-Serif" font-size="10.00">dmin_dyn_psurf</text>
<text text-anchor="middle" x="184.5" y="-184.5" font-family="Helvetica,sans-Serif" font-size="10.00">idatu</text>
<text text-anchor="middle" x="184.5" y="-173.5" font-family="Helvetica,sans-Serif" font-size="10.00">idatv</text>
<text text-anchor="middle" x="184.5" y="-162.5" font-family="Helvetica,sans-Serif" font-size="10.00">g_extra</text>
<text text-anchor="middle" x="184.5" y="-151.5" font-family="Helvetica,sans-Serif" font-size="10.00">ubtav</text>
<text text-anchor="start" x="149.5" y="-140.5" font-family="Helvetica,sans-Serif" font-size="10.00">allocable</text>
<text text-anchor="middle" x="184.5" y="-129.5" font-family="Helvetica,sans-Serif" font-size="10.00">_</text>
<text text-anchor="start" x="149.5" y="-118.5" font-family="Helvetica,sans-Serif" font-size="10.00">maxcfl_bt</text>
<text text-anchor="middle" x="184.5" y="-107.5" font-family="Helvetica,sans-Serif" font-size="10.00">_cont</text>
<text text-anchor="middle" x="184.5" y="-96.5" font-family="Helvetica,sans-Serif" font-size="10.00">bebt</text>
<text text-anchor="middle" x="184.5" y="-85.5" font-family="Helvetica,sans-Serif" font-size="10.00">dtbt_fraction</text>
<text text-anchor="middle" x="184.5" y="-74.5" font-family="Helvetica,sans-Serif" font-size="10.00">...</text>
</g>
<!-- Node9 -->
<g id="node9" class="node"><title>Node9</title>
<polygon fill="white" stroke="#bfbfbf" points="0,-0.5 0,-30.5 124,-30.5 124,-0.5 0,-0.5"/>
<text text-anchor="start" x="8" y="-18.5" font-family="Helvetica,sans-Serif" font-size="10.00">type(mom_domain_type)</text>
<text text-anchor="middle" x="62" y="-7.5" font-family="Helvetica,sans-Serif" font-size="10.00">, pointer</text>
</g>
<!-- Node9&#45;&gt;Node1 -->
<g id="edge8" class="edge"><title>Node9&#45;&gt;Node1</title>
<path fill="none" stroke="#9a32cd" stroke-dasharray="5,2" d="M134.399,-5.25538C166.369,-4.7116 202.336,-10.2898 227,-32.5 280.42,-80.6042 299.095,-319.763 303.113,-382.441"/>
<polygon fill="#9a32cd" stroke="#9a32cd" points="134.043,-1.76609 124.179,-5.63373 134.302,-8.76129 134.043,-1.76609"/>
<text text-anchor="middle" x="184.5" y="-35.5" font-family="Helvetica,sans-Serif" font-size="10.00"> bt_domain</text>
</g>
</g>
</svg>
