<?xml version="1.0" encoding="UTF-8" standalone="no"?>
<!DOCTYPE svg PUBLIC "-//W3C//DTD SVG 1.1//EN"
 "http://www.w3.org/Graphics/SVG/1.1/DTD/svg11.dtd">
<!-- Generated by graphviz version 2.38.0 (20140413.2041)
 -->
<!-- Title: mom_tracer_registry::tracer_registry_type Pages: 1 -->
<svg width="272pt" height="294pt"
 viewBox="0.00 0.00 271.50 294.00" xmlns="http://www.w3.org/2000/svg" xmlns:xlink="http://www.w3.org/1999/xlink">
<g id="graph0" class="graph" transform="scale(1 1) rotate(0) translate(4 290)">
<title>mom_tracer_registry::tracer_registry_type</title>
<polygon fill="white" stroke="none" points="-4,4 -4,-290 267.5,-290 267.5,4 -4,4"/>
<!-- Node1 -->
<g id="node1" class="node"><title>Node1</title>
<polygon fill="#bfbfbf" stroke="black" points="61,-0.5 61,-30.5 170,-30.5 170,-0.5 61,-0.5"/>
<text text-anchor="start" x="69" y="-18.5" font-family="Helvetica,sans-Serif" font-size="10.00">mom_tracer_registry</text>
<text text-anchor="middle" x="115.5" y="-7.5" font-family="Helvetica,sans-Serif" font-size="10.00">::tracer_registry_type</text>
</g>
<!-- Node2 -->
<g id="node2" class="node"><title>Node2</title>
<polygon fill="white" stroke="#bfbfbf" points="0.5,-84 0.5,-103 44.5,-103 44.5,-84 0.5,-84"/>
<text text-anchor="middle" x="22.5" y="-91" font-family="Helvetica,sans-Serif" font-size="10.00">logical</text>
</g>
<!-- Node2&#45;&gt;Node1 -->
<g id="edge1" class="edge"><title>Node2&#45;&gt;Node1</title>
<path fill="none" stroke="#9a32cd" stroke-dasharray="5,2" d="M41.1232,-77.281C57.8188,-63.6374 82.114,-43.7832 98.3442,-30.5198"/>
<polygon fill="#9a32cd" stroke="#9a32cd" points="38.6968,-74.7438 33.1683,-83.7818 43.1263,-80.1641 38.6968,-74.7438"/>
<text text-anchor="middle" x="91.5" y="-52" font-family="Helvetica,sans-Serif" font-size="10.00"> locked</text>
</g>
<!-- Node3 -->
<g id="node3" class="node"><title>Node3</title>
<g id="a_node3"><a xlink:href="structmom__tracer__registry_1_1tracer__type.html" target="_top" xlink:title="The tracer type. ">
<polygon fill="white" stroke="black" points="62.5,-78.5 62.5,-108.5 168.5,-108.5 168.5,-78.5 62.5,-78.5"/>
<text text-anchor="start" x="70.5" y="-96.5" font-family="Helvetica,sans-Serif" font-size="10.00">mom_tracer_registry</text>
<text text-anchor="middle" x="115.5" y="-85.5" font-family="Helvetica,sans-Serif" font-size="10.00">::tracer_type</text>
</a>
</g>
</g>
<!-- Node3&#45;&gt;Node1 -->
<g id="edge2" class="edge"><title>Node3&#45;&gt;Node1</title>
<path fill="none" stroke="#9a32cd" stroke-dasharray="5,2" d="M115.5,-68.0898C115.5,-55.7565 115.5,-41.2237 115.5,-30.7309"/>
<polygon fill="#9a32cd" stroke="#9a32cd" points="112,-68.2049 115.5,-78.205 119,-68.205 112,-68.2049"/>
<text text-anchor="middle" x="120.5" y="-52" font-family="Helvetica,sans-Serif" font-size="10.00"> tr</text>
</g>
<!-- Node4 -->
<g id="node4" class="node"><title>Node4</title>
<polygon fill="white" stroke="#bfbfbf" points="0,-266.5 0,-285.5 51,-285.5 51,-266.5 0,-266.5"/>
<text text-anchor="middle" x="25.5" y="-273.5" font-family="Helvetica,sans-Serif" font-size="10.00">vardesc</text>
</g>
<!-- Node4&#45;&gt;Node3 -->
<g id="edge3" class="edge"><title>Node4&#45;&gt;Node3</title>
<path fill="none" stroke="#9a32cd" stroke-dasharray="5,2" d="M33.915,-256.924C47.0529,-228.885 73.4311,-173.313 97.5,-127 100.653,-120.933 104.281,-114.319 107.45,-108.65"/>
<polygon fill="#9a32cd" stroke="#9a32cd" points="30.622,-255.704 29.5605,-266.245 36.9641,-258.667 30.622,-255.704"/>
<text text-anchor="middle" x="104.5" y="-185" font-family="Helvetica,sans-Serif" font-size="10.00"> vd</text>
</g>
<!-- Node5 -->
<g id="node5" class="node"><title>Node5</title>
<polygon fill="white" stroke="#bfbfbf" points="69.5,-266.5 69.5,-285.5 161.5,-285.5 161.5,-266.5 69.5,-266.5"/>
<text text-anchor="middle" x="115.5" y="-273.5" font-family="Helvetica,sans-Serif" font-size="10.00">character(len=32)</text>
</g>
<!-- Node5&#45;&gt;Node3 -->
<g id="edge4" class="edge"><title>Node5&#45;&gt;Node3</title>
<path fill="none" stroke="#9a32cd" stroke-dasharray="5,2" d="M115.5,-256.09C115.5,-219.701 115.5,-140.694 115.5,-108.539"/>
<polygon fill="#9a32cd" stroke="#9a32cd" points="112,-256.294 115.5,-266.294 119,-256.294 112,-256.294"/>
<text text-anchor="middle" x="129.5" y="-185" font-family="Helvetica,sans-Serif" font-size="10.00"> name</text>
</g>
<!-- Node6 -->
<g id="node6" class="node"><title>Node6</title>
<polygon fill="white" stroke="#bfbfbf" points="179.5,-266.5 179.5,-285.5 211.5,-285.5 211.5,-266.5 179.5,-266.5"/>
<text text-anchor="middle" x="195.5" y="-273.5" font-family="Helvetica,sans-Serif" font-size="10.00">real</text>
</g>
<!-- Node6&#45;&gt;Node3 -->
<g id="edge5" class="edge"><title>Node6&#45;&gt;Node3</title>
<path fill="none" stroke="#9a32cd" stroke-dasharray="5,2" d="M192.332,-256.367C186.751,-227.119 173.241,-169.399 147.5,-127 143.473,-120.367 137.84,-114.049 132.42,-108.778"/>
<polygon fill="#9a32cd" stroke="#9a32cd" points="188.924,-257.189 194.146,-266.407 195.812,-255.944 188.924,-257.189"/>
<text text-anchor="middle" x="227" y="-240" font-family="Helvetica,sans-Serif" font-size="10.00"> advection_xy</text>
<text text-anchor="middle" x="227" y="-229" font-family="Helvetica,sans-Serif" font-size="10.00">obc_inflow_conc</text>
<text text-anchor="middle" x="227" y="-218" font-family="Helvetica,sans-Serif" font-size="10.00">df2d_x</text>
<text text-anchor="middle" x="227" y="-207" font-family="Helvetica,sans-Serif" font-size="10.00">df2d_y</text>
<text text-anchor="middle" x="227" y="-196" font-family="Helvetica,sans-Serif" font-size="10.00">df_x</text>
<text text-anchor="middle" x="227" y="-185" font-family="Helvetica,sans-Serif" font-size="10.00">ad2d_x</text>
<text text-anchor="middle" x="227" y="-174" font-family="Helvetica,sans-Serif" font-size="10.00">df_y</text>
<text text-anchor="middle" x="227" y="-163" font-family="Helvetica,sans-Serif" font-size="10.00">ad2d_y</text>
<text text-anchor="middle" x="227" y="-152" font-family="Helvetica,sans-Serif" font-size="10.00">ad_x</text>
<text text-anchor="middle" x="227" y="-141" font-family="Helvetica,sans-Serif" font-size="10.00">ad_y</text>
<text text-anchor="middle" x="227" y="-130" font-family="Helvetica,sans-Serif" font-size="10.00">...</text>
</g>
<!-- Node7 -->
<g id="node7" class="node"><title>Node7</title>
<polygon fill="white" stroke="#bfbfbf" points="186.5,-84 186.5,-103 232.5,-103 232.5,-84 186.5,-84"/>
<text text-anchor="middle" x="209.5" y="-91" font-family="Helvetica,sans-Serif" font-size="10.00">integer</text>
</g>
<!-- Node7&#45;&gt;Node1 -->
<g id="edge6" class="edge"><title>Node7&#45;&gt;Node1</title>
<path fill="none" stroke="#9a32cd" stroke-dasharray="5,2" d="M190.677,-77.281C173.801,-63.6374 149.245,-43.7832 132.84,-30.5198"/>
<polygon fill="#9a32cd" stroke="#9a32cd" points="188.74,-80.2163 198.717,-83.7818 193.141,-74.7729 188.74,-80.2163"/>
<text text-anchor="middle" x="176" y="-52" font-family="Helvetica,sans-Serif" font-size="10.00"> ntr</text>
</g>
</g>
</svg>
