<?xml version="1.0" encoding="UTF-8" standalone="no"?>
<!DOCTYPE svg PUBLIC "-//W3C//DTD SVG 1.1//EN"
 "http://www.w3.org/Graphics/SVG/1.1/DTD/svg11.dtd">
<!-- Generated by graphviz version 2.38.0 (20140413.2041)
 -->
<!-- Title: mom_cvmix_shear::cvmix_shear_cs Pages: 1 -->
<svg width="227pt" height="150pt"
 viewBox="0.00 0.00 227.00 150.00" xmlns="http://www.w3.org/2000/svg" xmlns:xlink="http://www.w3.org/1999/xlink">
<g id="graph0" class="graph" transform="scale(1 1) rotate(0) translate(4 146)">
<title>mom_cvmix_shear::cvmix_shear_cs</title>
<polygon fill="white" stroke="none" points="-4,4 -4,-146 223,-146 223,4 -4,4"/>
<!-- Node1 -->
<g id="node1" class="node"><title>Node1</title>
<polygon fill="#bfbfbf" stroke="black" points="33.5,-0.5 33.5,-30.5 164.5,-30.5 164.5,-0.5 33.5,-0.5"/>
<text text-anchor="start" x="41.5" y="-18.5" font-family="Helvetica,sans-Serif" font-size="10.00">mom_cvmix_shear::cvmix</text>
<text text-anchor="middle" x="99" y="-7.5" font-family="Helvetica,sans-Serif" font-size="10.00">_shear_cs</text>
</g>
<!-- Node2 -->
<g id="node2" class="node"><title>Node2</title>
<polygon fill="white" stroke="#bfbfbf" points="0,-122.5 0,-141.5 44,-141.5 44,-122.5 0,-122.5"/>
<text text-anchor="middle" x="22" y="-129.5" font-family="Helvetica,sans-Serif" font-size="10.00">logical</text>
</g>
<!-- Node2&#45;&gt;Node1 -->
<g id="edge1" class="edge"><title>Node2&#45;&gt;Node1</title>
<path fill="none" stroke="#9a32cd" stroke-dasharray="5,2" d="M23.8836,-112.439C26.5037,-94.6087 32.6704,-67.6916 47,-49 52.6999,-41.565 60.6257,-35.4012 68.5735,-30.5133"/>
<polygon fill="#9a32cd" stroke="#9a32cd" points="20.4008,-112.086 22.6464,-122.44 27.3478,-112.945 20.4008,-112.086"/>
<text text-anchor="middle" x="71" y="-79.5" font-family="Helvetica,sans-Serif" font-size="10.00"> use_pp81</text>
<text text-anchor="middle" x="71" y="-68.5" font-family="Helvetica,sans-Serif" font-size="10.00">use_lmd94</text>
</g>
<!-- Node3 -->
<g id="node3" class="node"><title>Node3</title>
<polygon fill="white" stroke="#bfbfbf" points="62,-122.5 62,-141.5 136,-141.5 136,-122.5 62,-122.5"/>
<text text-anchor="middle" x="99" y="-129.5" font-family="Helvetica,sans-Serif" font-size="10.00">character(10)</text>
</g>
<!-- Node3&#45;&gt;Node1 -->
<g id="edge2" class="edge"><title>Node3&#45;&gt;Node1</title>
<path fill="none" stroke="#9a32cd" stroke-dasharray="5,2" d="M99,-112.294C99,-89.4785 99,-51.4142 99,-30.8061"/>
<polygon fill="#9a32cd" stroke="#9a32cd" points="95.5001,-112.394 99,-122.394 102.5,-112.394 95.5001,-112.394"/>
<text text-anchor="middle" x="128.5" y="-74" font-family="Helvetica,sans-Serif" font-size="10.00"> mix_scheme</text>
</g>
<!-- Node4 -->
<g id="node4" class="node"><title>Node4</title>
<polygon fill="white" stroke="#bfbfbf" points="165,-122.5 165,-141.5 197,-141.5 197,-122.5 165,-122.5"/>
<text text-anchor="middle" x="181" y="-129.5" font-family="Helvetica,sans-Serif" font-size="10.00">real</text>
</g>
<!-- Node4&#45;&gt;Node1 -->
<g id="edge3" class="edge"><title>Node4&#45;&gt;Node1</title>
<path fill="none" stroke="#9a32cd" stroke-dasharray="5,2" d="M180.148,-112.272C178.444,-94.3159 173.453,-67.3083 159,-49 152.981,-41.3752 144.662,-35.3005 136.134,-30.5652"/>
<polygon fill="#9a32cd" stroke="#9a32cd" points="176.664,-112.62 180.85,-122.352 183.647,-112.133 176.664,-112.62"/>
<text text-anchor="middle" x="199" y="-96" font-family="Helvetica,sans-Serif" font-size="10.00"> kpp_exp</text>
<text text-anchor="middle" x="199" y="-85" font-family="Helvetica,sans-Serif" font-size="10.00">s2</text>
<text text-anchor="middle" x="199" y="-74" font-family="Helvetica,sans-Serif" font-size="10.00">n2</text>
<text text-anchor="middle" x="199" y="-63" font-family="Helvetica,sans-Serif" font-size="10.00">ri_zero</text>
<text text-anchor="middle" x="199" y="-52" font-family="Helvetica,sans-Serif" font-size="10.00">nu_zero</text>
</g>
</g>
</svg>
