<?xml version="1.0" encoding="UTF-8" standalone="no"?>
<!DOCTYPE svg PUBLIC "-//W3C//DTD SVG 1.1//EN"
 "http://www.w3.org/Graphics/SVG/1.1/DTD/svg11.dtd">
<!-- Generated by graphviz version 2.38.0 (20140413.2041)
 -->
<!-- Title: mom_hor_index::hor_index_type Pages: 1 -->
<svg width="143pt" height="216pt"
 viewBox="0.00 0.00 143.00 216.00" xmlns="http://www.w3.org/2000/svg" xmlns:xlink="http://www.w3.org/1999/xlink">
<g id="graph0" class="graph" transform="scale(1 1) rotate(0) translate(4 212)">
<title>mom_hor_index::hor_index_type</title>
<polygon fill="white" stroke="none" points="-4,4 -4,-212 139,-212 139,4 -4,4"/>
<!-- Node1 -->
<g id="node1" class="node"><title>Node1</title>
<polygon fill="#bfbfbf" stroke="black" points="5.5,-0.5 5.5,-30.5 110.5,-30.5 110.5,-0.5 5.5,-0.5"/>
<text text-anchor="start" x="13.5" y="-18.5" font-family="Helvetica,sans-Serif" font-size="10.00">mom_hor_index::hor</text>
<text text-anchor="middle" x="58" y="-7.5" font-family="Helvetica,sans-Serif" font-size="10.00">_index_type</text>
</g>
<!-- Node2 -->
<g id="node2" class="node"><title>Node2</title>
<polygon fill="white" stroke="#bfbfbf" points="-3.55271e-15,-188.5 -3.55271e-15,-207.5 44,-207.5 44,-188.5 -3.55271e-15,-188.5"/>
<text text-anchor="middle" x="22" y="-195.5" font-family="Helvetica,sans-Serif" font-size="10.00">logical</text>
</g>
<!-- Node2&#45;&gt;Node1 -->
<g id="edge1" class="edge"><title>Node2&#45;&gt;Node1</title>
<path fill="none" stroke="#9a32cd" stroke-dasharray="5,2" d="M17.5522,-178.136C11.6653,-149.013 4.08568,-91.9777 23,-49 26.1397,-41.8658 31.6927,-35.5889 37.4633,-30.5016"/>
<polygon fill="#9a32cd" stroke="#9a32cd" points="14.1882,-179.137 19.7411,-188.16 21.027,-177.643 14.1882,-179.137"/>
<text text-anchor="middle" x="47.5" y="-107" font-family="Helvetica,sans-Serif" font-size="10.00"> symmetric</text>
</g>
<!-- Node3 -->
<g id="node3" class="node"><title>Node3</title>
<polygon fill="white" stroke="#bfbfbf" points="71,-188.5 71,-207.5 117,-207.5 117,-188.5 71,-188.5"/>
<text text-anchor="middle" x="94" y="-195.5" font-family="Helvetica,sans-Serif" font-size="10.00">integer</text>
</g>
<!-- Node3&#45;&gt;Node1 -->
<g id="edge2" class="edge"><title>Node3&#45;&gt;Node1</title>
<path fill="none" stroke="#9a32cd" stroke-dasharray="5,2" d="M92.7883,-178.418C90.5942,-150.053 84.9315,-94.4569 72,-49 70.2517,-42.8545 67.6134,-36.3384 65.0967,-30.7672"/>
<polygon fill="#9a32cd" stroke="#9a32cd" points="89.3043,-178.768 93.5077,-188.494 96.2866,-178.27 89.3043,-178.768"/>
<text text-anchor="middle" x="113.5" y="-162" font-family="Helvetica,sans-Serif" font-size="10.00"> iec</text>
<text text-anchor="middle" x="113.5" y="-151" font-family="Helvetica,sans-Serif" font-size="10.00">ied</text>
<text text-anchor="middle" x="113.5" y="-140" font-family="Helvetica,sans-Serif" font-size="10.00">jec</text>
<text text-anchor="middle" x="113.5" y="-129" font-family="Helvetica,sans-Serif" font-size="10.00">jed</text>
<text text-anchor="middle" x="113.5" y="-118" font-family="Helvetica,sans-Serif" font-size="10.00">jsgb</text>
<text text-anchor="middle" x="113.5" y="-107" font-family="Helvetica,sans-Serif" font-size="10.00">isc</text>
<text text-anchor="middle" x="113.5" y="-96" font-family="Helvetica,sans-Serif" font-size="10.00">jdg_offset</text>
<text text-anchor="middle" x="113.5" y="-85" font-family="Helvetica,sans-Serif" font-size="10.00">isgb</text>
<text text-anchor="middle" x="113.5" y="-74" font-family="Helvetica,sans-Serif" font-size="10.00">ieg</text>
<text text-anchor="middle" x="113.5" y="-63" font-family="Helvetica,sans-Serif" font-size="10.00">isd</text>
<text text-anchor="middle" x="113.5" y="-52" font-family="Helvetica,sans-Serif" font-size="10.00">...</text>
</g>
</g>
</svg>
