<?xml version="1.0" encoding="UTF-8" standalone="no"?>
<!DOCTYPE svg PUBLIC "-//W3C//DTD SVG 1.1//EN"
 "http://www.w3.org/Graphics/SVG/1.1/DTD/svg11.dtd">
<!-- Generated by graphviz version 2.38.0 (20140413.2041)
 -->
<!-- Title: mom_document::link_msg Pages: 1 -->
<svg width="219pt" height="95pt"
 viewBox="0.00 0.00 218.50 95.00" xmlns="http://www.w3.org/2000/svg" xmlns:xlink="http://www.w3.org/1999/xlink">
<g id="graph0" class="graph" transform="scale(1 1) rotate(0) translate(4 91)">
<title>mom_document::link_msg</title>
<polygon fill="white" stroke="none" points="-4,4 -4,-91 214.5,-91 214.5,4 -4,4"/>
<!-- Node1 -->
<g id="node1" class="node"><title>Node1</title>
<polygon fill="#bfbfbf" stroke="black" points="39.5,-0.5 39.5,-19.5 170.5,-19.5 170.5,-0.5 39.5,-0.5"/>
<text text-anchor="middle" x="105" y="-7.5" font-family="Helvetica,sans-Serif" font-size="10.00">mom_document::link_msg</text>
</g>
<!-- Node1&#45;&gt;Node1 -->
<g id="edge1" class="edge"><title>Node1&#45;&gt;Node1</title>
<path fill="none" stroke="#9a32cd" stroke-dasharray="5,2" d="M181.021,-14.1798C185.692,-13.1902 188.5,-11.7969 188.5,-10 188.5,-7.125 181.311,-5.2832 170.807,-4.47461"/>
<polygon fill="#9a32cd" stroke="#9a32cd" points="180.265,-10.7492 170.807,-15.5254 181.179,-17.6892 180.265,-10.7492"/>
<text text-anchor="middle" x="199.5" y="-7.5" font-family="Helvetica,sans-Serif" font-size="10.00"> next</text>
</g>
<!-- Node2 -->
<g id="node2" class="node"><title>Node2</title>
<polygon fill="white" stroke="#bfbfbf" points="0,-67.5 0,-86.5 98,-86.5 98,-67.5 0,-67.5"/>
<text text-anchor="middle" x="49" y="-74.5" font-family="Helvetica,sans-Serif" font-size="10.00">character(len=620)</text>
</g>
<!-- Node2&#45;&gt;Node1 -->
<g id="edge2" class="edge"><title>Node2&#45;&gt;Node1</title>
<path fill="none" stroke="#9a32cd" stroke-dasharray="5,2" d="M63.0992,-59.6348C74.0512,-46.9228 88.805,-29.7978 97.5672,-19.6273"/>
<polygon fill="#9a32cd" stroke="#9a32cd" points="60.4279,-57.3732 56.5524,-67.2338 65.7312,-61.9422 60.4279,-57.3732"/>
<text text-anchor="middle" x="92" y="-41" font-family="Helvetica,sans-Serif" font-size="10.00"> msg</text>
</g>
<!-- Node3 -->
<g id="node3" class="node"><title>Node3</title>
<polygon fill="white" stroke="#bfbfbf" points="116,-67.5 116,-86.5 208,-86.5 208,-67.5 116,-67.5"/>
<text text-anchor="middle" x="162" y="-74.5" font-family="Helvetica,sans-Serif" font-size="10.00">character(len=80)</text>
</g>
<!-- Node3&#45;&gt;Node1 -->
<g id="edge3" class="edge"><title>Node3&#45;&gt;Node1</title>
<path fill="none" stroke="#9a32cd" stroke-dasharray="5,2" d="M147.649,-59.6348C136.502,-46.9228 121.484,-29.7978 112.565,-19.6273"/>
<polygon fill="#9a32cd" stroke="#9a32cd" points="145.088,-62.0228 154.313,-67.2338 150.351,-57.4075 145.088,-62.0228"/>
<text text-anchor="middle" x="150" y="-41" font-family="Helvetica,sans-Serif" font-size="10.00"> name</text>
</g>
</g>
</svg>
