<?xml version="1.0" encoding="UTF-8" standalone="no"?>
<!DOCTYPE svg PUBLIC "-//W3C//DTD SVG 1.1//EN"
 "http://www.w3.org/Graphics/SVG/1.1/DTD/svg11.dtd">
<!-- Generated by graphviz version 2.38.0 (20140413.2041)
 -->
<!-- Title: mom_continuity_ppm::continuity_ppm_cs Pages: 1 -->
<svg width="260pt" height="183pt"
 viewBox="0.00 0.00 260.00 183.00" xmlns="http://www.w3.org/2000/svg" xmlns:xlink="http://www.w3.org/1999/xlink">
<g id="graph0" class="graph" transform="scale(1 1) rotate(0) translate(4 179)">
<title>mom_continuity_ppm::continuity_ppm_cs</title>
<polygon fill="white" stroke="none" points="-4,4 -4,-179 256,-179 256,4 -4,4"/>
<!-- Node1 -->
<g id="node1" class="node"><title>Node1</title>
<polygon fill="#bfbfbf" stroke="black" points="75,-0.5 75,-30.5 185,-30.5 185,-0.5 75,-0.5"/>
<text text-anchor="start" x="83" y="-18.5" font-family="Helvetica,sans-Serif" font-size="10.00">mom_continuity_ppm</text>
<text text-anchor="middle" x="130" y="-7.5" font-family="Helvetica,sans-Serif" font-size="10.00">::continuity_ppm_cs</text>
</g>
<!-- Node2 -->
<g id="node2" class="node"><title>Node2</title>
<polygon fill="white" stroke="#bfbfbf" points="0,-155.5 0,-174.5 44,-174.5 44,-155.5 0,-155.5"/>
<text text-anchor="middle" x="22" y="-162.5" font-family="Helvetica,sans-Serif" font-size="10.00">logical</text>
</g>
<!-- Node2&#45;&gt;Node1 -->
<g id="edge1" class="edge"><title>Node2&#45;&gt;Node1</title>
<path fill="none" stroke="#9a32cd" stroke-dasharray="5,2" d="M19.7226,-145.04C17.817,-120.114 18.3664,-76.3006 41,-49 49.7138,-38.4894 62.1328,-31.3779 74.9383,-26.5663"/>
<polygon fill="#9a32cd" stroke="#9a32cd" points="16.2716,-145.711 20.7347,-155.32 23.238,-145.025 16.2716,-145.711"/>
<text text-anchor="middle" x="83.5" y="-129" font-family="Helvetica,sans-Serif" font-size="10.00"> aggress_adjust</text>
<text text-anchor="middle" x="83.5" y="-118" font-family="Helvetica,sans-Serif" font-size="10.00">monotonic</text>
<text text-anchor="middle" x="83.5" y="-107" font-family="Helvetica,sans-Serif" font-size="10.00">simple_2nd</text>
<text text-anchor="middle" x="83.5" y="-96" font-family="Helvetica,sans-Serif" font-size="10.00">better_iter</text>
<text text-anchor="middle" x="83.5" y="-85" font-family="Helvetica,sans-Serif" font-size="10.00">upwind_1st</text>
<text text-anchor="middle" x="83.5" y="-74" font-family="Helvetica,sans-Serif" font-size="10.00">marginal_faces</text>
<text text-anchor="middle" x="83.5" y="-63" font-family="Helvetica,sans-Serif" font-size="10.00">vol_cfl</text>
<text text-anchor="middle" x="83.5" y="-52" font-family="Helvetica,sans-Serif" font-size="10.00">use_visc_rem_max</text>
</g>
<!-- Node3 -->
<g id="node3" class="node"><title>Node3</title>
<polygon fill="white" stroke="#bfbfbf" points="103.5,-155.5 103.5,-174.5 156.5,-174.5 156.5,-155.5 103.5,-155.5"/>
<text text-anchor="middle" x="130" y="-162.5" font-family="Helvetica,sans-Serif" font-size="10.00">diag_ctrl</text>
</g>
<!-- Node3&#45;&gt;Node1 -->
<g id="edge2" class="edge"><title>Node3&#45;&gt;Node1</title>
<path fill="none" stroke="#9a32cd" stroke-dasharray="5,2" d="M130,-144.863C130,-114.894 130,-57.5609 130,-30.8526"/>
<polygon fill="#9a32cd" stroke="#9a32cd" points="126.5,-145.215 130,-155.215 133.5,-145.215 126.5,-145.215"/>
<text text-anchor="middle" x="141" y="-90.5" font-family="Helvetica,sans-Serif" font-size="10.00"> diag</text>
</g>
<!-- Node4 -->
<g id="node4" class="node"><title>Node4</title>
<polygon fill="white" stroke="#bfbfbf" points="175,-155.5 175,-174.5 207,-174.5 207,-155.5 175,-155.5"/>
<text text-anchor="middle" x="191" y="-162.5" font-family="Helvetica,sans-Serif" font-size="10.00">real</text>
</g>
<!-- Node4&#45;&gt;Node1 -->
<g id="edge3" class="edge"><title>Node4&#45;&gt;Node1</title>
<path fill="none" stroke="#9a32cd" stroke-dasharray="5,2" d="M187.635,-145.537C182.869,-122.102 172.809,-80.8899 156,-49 152.563,-42.48 147.738,-35.9962 143.176,-30.5548"/>
<polygon fill="#9a32cd" stroke="#9a32cd" points="184.225,-146.339 189.556,-155.495 191.099,-145.013 184.225,-146.339"/>
<text text-anchor="middle" x="219" y="-107" font-family="Helvetica,sans-Serif" font-size="10.00"> tol_eta_aux</text>
<text text-anchor="middle" x="219" y="-96" font-family="Helvetica,sans-Serif" font-size="10.00">tol_eta</text>
<text text-anchor="middle" x="219" y="-85" font-family="Helvetica,sans-Serif" font-size="10.00">cfl_limit_adjust</text>
<text text-anchor="middle" x="219" y="-74" font-family="Helvetica,sans-Serif" font-size="10.00">tol_vel</text>
</g>
</g>
</svg>
