<?xml version="1.0" encoding="UTF-8" standalone="no"?>
<!DOCTYPE svg PUBLIC "-//W3C//DTD SVG 1.1//EN"
 "http://www.w3.org/Graphics/SVG/1.1/DTD/svg11.dtd">
<!-- Generated by graphviz version 2.38.0 (20140413.2041)
 -->
<!-- Title: mom_set_diffusivity::set_diffusivity_cs Pages: 1 -->
<!--zoomable 810 -->
<svg id="main" version="1.1" xmlns="http://www.w3.org/2000/svg" xmlns:xlink="http://www.w3.org/1999/xlink" xml:space="preserve" onload="init(evt)">
<style type="text/css"><![CDATA[
.edge:hover path { stroke: red; }
.edge:hover polygon { stroke: red; fill: red; }
]]></style>
<script type="text/javascript"><![CDATA[
var edges = document.getElementsByTagName('g');
if (edges && edges.length) {
  for (var i=0;i<edges.length;i++) {
    if (edges[i].id.substr(0,4)=='edge') {
      edges[i].setAttribute('class','edge');
    }
  }
}
]]></script>
        <defs>
                <circle id="rim" cx="0" cy="0" r="7"/>
                <circle id="rim2" cx="0" cy="0" r="3.5"/>
                <g id="zoomPlus">
                        <use xlink:href="#rim" fill="#404040">
                                <set attributeName="fill" to="#808080" begin="zoomplus.mouseover" end="zoomplus.mouseout"/>
                        </use>
                        <path d="M-4,0h8M0,-4v8" fill="none" stroke="white" stroke-width="1.5" pointer-events="none"/>
                </g>
                <g id="zoomMin">
                        <use xlink:href="#rim" fill="#404040">
                                <set attributeName="fill" to="#808080" begin="zoomminus.mouseover" end="zoomminus.mouseout"/>
                        </use>
                        <path d="M-4,0h8" fill="none" stroke="white" stroke-width="1.5" pointer-events="none"/>
                </g>
                <g id="dirArrow">
                        <path fill="none" stroke="white" stroke-width="1.5" d="M0,-3.0v7 M-2.5,-0.5L0,-3.0L2.5,-0.5"/>
                </g>
               <g id="resetDef">
                       <use xlink:href="#rim2" fill="#404040">
                               <set attributeName="fill" to="#808080" begin="reset.mouseover" end="reset.mouseout"/>
                       </use>
               </g>
        </defs>

<script type="text/javascript">
var viewWidth = 369;
var viewHeight = 810;
var sectionId = 'dynsection-0';
</script>
<script xlink:href="svgpan.js"/>
<svg id="graph" class="graph">
<g id="viewport">
<title>mom_set_diffusivity::set_diffusivity_cs</title>
<polygon fill="white" stroke="none" points="-4,4 -4,-806.071 365,-806.071 365,4 -4,4"/>
<!-- Node1 -->
<g id="node1" class="node"><title>Node1</title>
<polygon fill="#bfbfbf" stroke="black" points="257,-453.071 257,-483.071 361,-483.071 361,-453.071 257,-453.071"/>
<text text-anchor="start" x="265" y="-471.071" font-family="Helvetica,sans-Serif" font-size="10.00">mom_set_diffusivity</text>
<text text-anchor="middle" x="309" y="-460.071" font-family="Helvetica,sans-Serif" font-size="10.00">::set_diffusivity_cs</text>
</g>
<!-- Node2 -->
<g id="node2" class="node"><title>Node2</title>
<polygon fill="white" stroke="#bfbfbf" points="34.5,-655.571 34.5,-674.571 78.5,-674.571 78.5,-655.571 34.5,-655.571"/>
<text text-anchor="middle" x="56.5" y="-662.571" font-family="Helvetica,sans-Serif" font-size="10.00">logical</text>
</g>
<!-- Node2&#45;&gt;Node1 -->
<g id="edge1" class="edge"><title>Node2&#45;&gt;Node1</title>
<path fill="none" stroke="#9a32cd" stroke-dasharray="5,2" d="M88.6176,-669.134C127.923,-672.494 195.648,-672.167 239,-638.071 289.073,-598.688 303.021,-517.081 306.727,-483.263"/>
<polygon fill="#9a32cd" stroke="#9a32cd" points="88.8599,-665.641 78.5639,-668.139 88.1709,-672.607 88.8599,-665.641"/>
<text text-anchor="middle" x="185" y="-794.071" font-family="Helvetica,sans-Serif" font-size="10.00"> use_lotw_bbl_diffusivity</text>
<text text-anchor="start" x="131" y="-783.071" font-family="Helvetica,sans-Serif" font-size="10.00">henyey_igw_background</text>
<text text-anchor="middle" x="185" y="-772.071" font-family="Helvetica,sans-Serif" font-size="10.00">_new</text>
<text text-anchor="middle" x="185" y="-761.071" font-family="Helvetica,sans-Serif" font-size="10.00">double_diffusion</text>
<text text-anchor="middle" x="185" y="-750.071" font-family="Helvetica,sans-Serif" font-size="10.00">int_tide_dissipation</text>
<text text-anchor="middle" x="185" y="-739.071" font-family="Helvetica,sans-Serif" font-size="10.00">ml_use_omega</text>
<text text-anchor="middle" x="185" y="-728.071" font-family="Helvetica,sans-Serif" font-size="10.00">bulkmixedlayer</text>
<text text-anchor="middle" x="185" y="-717.071" font-family="Helvetica,sans-Serif" font-size="10.00">ml_radiation</text>
<text text-anchor="middle" x="185" y="-706.071" font-family="Helvetica,sans-Serif" font-size="10.00">simple_tke_to_kd</text>
<text text-anchor="middle" x="185" y="-695.071" font-family="Helvetica,sans-Serif" font-size="10.00">lee_wave_dissipation</text>
<text text-anchor="middle" x="185" y="-684.071" font-family="Helvetica,sans-Serif" font-size="10.00">lotw_bbl_use_omega</text>
<text text-anchor="middle" x="185" y="-673.071" font-family="Helvetica,sans-Serif" font-size="10.00">...</text>
</g>
<!-- Node3 -->
<g id="node3" class="node"><title>Node3</title>
<polygon fill="white" stroke="#bfbfbf" points="7.5,-617.571 7.5,-636.571 105.5,-636.571 105.5,-617.571 7.5,-617.571"/>
<text text-anchor="middle" x="56.5" y="-624.571" font-family="Helvetica,sans-Serif" font-size="10.00">character(len=200)</text>
</g>
<!-- Node3&#45;&gt;Node1 -->
<g id="edge2" class="edge"><title>Node3&#45;&gt;Node1</title>
<path fill="none" stroke="#9a32cd" stroke-dasharray="5,2" d="M115.732,-625.658C153.981,-622.085 203.347,-612.171 239,-586.071 274.808,-559.857 295.12,-508.977 303.468,-483.454"/>
<polygon fill="#9a32cd" stroke="#9a32cd" points="115.445,-622.17 105.762,-626.472 116.014,-629.147 115.445,-622.17"/>
<text text-anchor="middle" x="185" y="-626.071" font-family="Helvetica,sans-Serif" font-size="10.00"> inputdir</text>
</g>
<!-- Node4 -->
<g id="node4" class="node"><title>Node4</title>
<polygon fill="white" stroke="#bfbfbf" points="5.5,-568.071 5.5,-598.071 107.5,-598.071 107.5,-568.071 5.5,-568.071"/>
<text text-anchor="start" x="13.5" y="-586.071" font-family="Helvetica,sans-Serif" font-size="10.00">type(diag_to_z_cs),</text>
<text text-anchor="middle" x="56.5" y="-575.071" font-family="Helvetica,sans-Serif" font-size="10.00"> pointer</text>
</g>
<!-- Node4&#45;&gt;Node1 -->
<g id="edge3" class="edge"><title>Node4&#45;&gt;Node1</title>
<path fill="none" stroke="#9a32cd" stroke-dasharray="5,2" d="M117.951,-575.043C154.731,-568.278 201.655,-556.187 239,-535.071 262.546,-521.757 283.923,-498.463 296.447,-483.152"/>
<polygon fill="#9a32cd" stroke="#9a32cd" points="117.108,-571.637 107.863,-576.813 118.317,-578.532 117.108,-571.637"/>
<text text-anchor="middle" x="185" y="-574.071" font-family="Helvetica,sans-Serif" font-size="10.00"> diag_to_z_csp</text>
</g>
<!-- Node5 -->
<g id="node5" class="node"><title>Node5</title>
<polygon fill="white" stroke="#bfbfbf" points="0,-519.071 0,-549.071 113,-549.071 113,-519.071 0,-519.071"/>
<text text-anchor="start" x="8" y="-537.071" font-family="Helvetica,sans-Serif" font-size="10.00">type(user_change_diff</text>
<text text-anchor="middle" x="56.5" y="-526.071" font-family="Helvetica,sans-Serif" font-size="10.00">_cs), pointer</text>
</g>
<!-- Node5&#45;&gt;Node1 -->
<g id="edge4" class="edge"><title>Node5&#45;&gt;Node1</title>
<path fill="none" stroke="#9a32cd" stroke-dasharray="5,2" d="M123.254,-521.947C157.98,-514.951 201.135,-505.314 239,-494.071 249.554,-490.937 260.804,-486.975 271.091,-483.094"/>
<polygon fill="#9a32cd" stroke="#9a32cd" points="122.355,-518.557 113.229,-523.941 123.72,-525.423 122.355,-518.557"/>
<text text-anchor="middle" x="185" y="-523.071" font-family="Helvetica,sans-Serif" font-size="10.00"> user_change_diff_csp</text>
</g>
<!-- Node6 -->
<g id="node6" class="node"><title>Node6</title>
<polygon fill="white" stroke="#bfbfbf" points="0,-470.071 0,-500.071 113,-500.071 113,-470.071 0,-470.071"/>
<text text-anchor="start" x="8" y="-488.071" font-family="Helvetica,sans-Serif" font-size="10.00">type(kappa_shear_cs)</text>
<text text-anchor="middle" x="56.5" y="-477.071" font-family="Helvetica,sans-Serif" font-size="10.00">, pointer</text>
</g>
<!-- Node6&#45;&gt;Node1 -->
<g id="edge5" class="edge"><title>Node6&#45;&gt;Node1</title>
<path fill="none" stroke="#9a32cd" stroke-dasharray="5,2" d="M123.174,-480.614C164.933,-477.78 218.211,-474.164 256.826,-471.544"/>
<polygon fill="#9a32cd" stroke="#9a32cd" points="122.834,-477.129 113.094,-481.298 123.308,-484.113 122.834,-477.129"/>
<text text-anchor="middle" x="185" y="-482.071" font-family="Helvetica,sans-Serif" font-size="10.00"> kappashear_csp</text>
</g>
<!-- Node7 -->
<g id="node7" class="node"><title>Node7</title>
<polygon fill="white" stroke="#bfbfbf" points="0,-421.071 0,-451.071 113,-451.071 113,-421.071 0,-421.071"/>
<text text-anchor="start" x="8" y="-439.071" font-family="Helvetica,sans-Serif" font-size="10.00">type(cvmix_shear_cs)</text>
<text text-anchor="middle" x="56.5" y="-428.071" font-family="Helvetica,sans-Serif" font-size="10.00">, pointer</text>
</g>
<!-- Node7&#45;&gt;Node1 -->
<g id="edge6" class="edge"><title>Node7&#45;&gt;Node1</title>
<path fill="none" stroke="#9a32cd" stroke-dasharray="5,2" d="M123.108,-443.65C157.622,-447.731 200.626,-452.965 239,-458.071 244.759,-458.837 250.785,-459.668 256.774,-460.511"/>
<polygon fill="#9a32cd" stroke="#9a32cd" points="123.489,-440.17 113.148,-442.476 122.669,-447.122 123.489,-440.17"/>
<text text-anchor="middle" x="185" y="-461.071" font-family="Helvetica,sans-Serif" font-size="10.00"> cvmix_shear_csp</text>
</g>
<!-- Node8 -->
<g id="node8" class="node"><title>Node8</title>
<polygon fill="white" stroke="#bfbfbf" points="30,-382.571 30,-401.571 83,-401.571 83,-382.571 30,-382.571"/>
<text text-anchor="middle" x="56.5" y="-389.571" font-family="Helvetica,sans-Serif" font-size="10.00">diag_ctrl</text>
</g>
<!-- Node8&#45;&gt;Node1 -->
<g id="edge7" class="edge"><title>Node8&#45;&gt;Node1</title>
<path fill="none" stroke="#9a32cd" stroke-dasharray="5,2" d="M93.5137,-396.034C130.812,-400.911 190.337,-410.877 239,-429.071 255.369,-435.191 272.478,-444.837 285.565,-453.004"/>
<polygon fill="#9a32cd" stroke="#9a32cd" points="93.5075,-392.506 83.1499,-394.736 92.6372,-399.452 93.5075,-392.506"/>
<text text-anchor="middle" x="185" y="-432.071" font-family="Helvetica,sans-Serif" font-size="10.00"> diag</text>
</g>
<!-- Node9 -->
<g id="node9" class="node"><title>Node9</title>
<polygon fill="white" stroke="#bfbfbf" points="33.5,-241.571 33.5,-260.571 79.5,-260.571 79.5,-241.571 33.5,-241.571"/>
<text text-anchor="middle" x="56.5" y="-248.571" font-family="Helvetica,sans-Serif" font-size="10.00">integer</text>
</g>
<!-- Node9&#45;&gt;Node1 -->
<g id="edge8" class="edge"><title>Node9&#45;&gt;Node1</title>
<path fill="none" stroke="#9a32cd" stroke-dasharray="5,2" d="M89.4862,-241.569C128.792,-231.989 195.596,-222.77 239,-255.071 303.55,-303.109 308.824,-412.725 308.479,-452.927"/>
<polygon fill="#9a32cd" stroke="#9a32cd" points="88.4476,-238.223 79.6438,-244.117 90.2018,-244.999 88.4476,-238.223"/>
<text text-anchor="start" x="134" y="-390.071" font-family="Helvetica,sans-Serif" font-size="10.00"> id_polzin_decay_scale</text>
<text text-anchor="middle" x="185" y="-379.071" font-family="Helvetica,sans-Serif" font-size="10.00">_scaled</text>
<text text-anchor="middle" x="185" y="-368.071" font-family="Helvetica,sans-Serif" font-size="10.00">id_kd_user</text>
<text text-anchor="middle" x="185" y="-357.071" font-family="Helvetica,sans-Serif" font-size="10.00">id_kd_lowmode</text>
<text text-anchor="start" x="134" y="-346.071" font-family="Helvetica,sans-Serif" font-size="10.00">id_polzin_decay</text>
<text text-anchor="middle" x="185" y="-335.071" font-family="Helvetica,sans-Serif" font-size="10.00">_scale</text>
<text text-anchor="middle" x="185" y="-324.071" font-family="Helvetica,sans-Serif" font-size="10.00">id_kt_extra_z</text>
<text text-anchor="middle" x="185" y="-313.071" font-family="Helvetica,sans-Serif" font-size="10.00">id_maxtke</text>
<text text-anchor="middle" x="185" y="-302.071" font-family="Helvetica,sans-Serif" font-size="10.00">id_nb</text>
<text text-anchor="middle" x="185" y="-291.071" font-family="Helvetica,sans-Serif" font-size="10.00">id_kd_niku_work</text>
<text text-anchor="middle" x="185" y="-280.071" font-family="Helvetica,sans-Serif" font-size="10.00">id_tke_to_kd</text>
<text text-anchor="middle" x="185" y="-269.071" font-family="Helvetica,sans-Serif" font-size="10.00">id_ks_extra_z</text>
<text text-anchor="middle" x="185" y="-258.071" font-family="Helvetica,sans-Serif" font-size="10.00">...</text>
</g>
<!-- Node10 -->
<g id="node10" class="node"><title>Node10</title>
<polygon fill="white" stroke="#bfbfbf" points="40.5,-53.5708 40.5,-72.5708 72.5,-72.5708 72.5,-53.5708 40.5,-53.5708"/>
<text text-anchor="middle" x="56.5" y="-60.5708" font-family="Helvetica,sans-Serif" font-size="10.00">real</text>
</g>
<!-- Node10&#45;&gt;Node1 -->
<g id="edge9" class="edge"><title>Node10&#45;&gt;Node1</title>
<path fill="none" stroke="#9a32cd" stroke-dasharray="5,2" d="M82.462,-54.2203C120.958,-42.3294 194.964,-26.7097 239,-64.0708 299.633,-115.513 306.988,-385.065 307.878,-452.677"/>
<polygon fill="#9a32cd" stroke="#9a32cd" points="81.027,-51.0064 72.6001,-57.4281 83.1924,-57.6631 81.027,-51.0064"/>
<text text-anchor="middle" x="185" y="-221.071" font-family="Helvetica,sans-Serif" font-size="10.00"> kappa_itides</text>
<text text-anchor="middle" x="185" y="-210.071" font-family="Helvetica,sans-Serif" font-size="10.00">gamma_itides</text>
<text text-anchor="middle" x="185" y="-199.071" font-family="Helvetica,sans-Serif" font-size="10.00">cdrag</text>
<text text-anchor="start" x="142" y="-188.071" font-family="Helvetica,sans-Serif" font-size="10.00">polzin_decay_scale</text>
<text text-anchor="middle" x="185" y="-177.071" font-family="Helvetica,sans-Serif" font-size="10.00">_factor</text>
<text text-anchor="middle" x="185" y="-166.071" font-family="Helvetica,sans-Serif" font-size="10.00">mu_itides</text>
<text text-anchor="start" x="142" y="-155.071" font-family="Helvetica,sans-Serif" font-size="10.00">max_rrho_salt</text>
<text text-anchor="middle" x="185" y="-144.071" font-family="Helvetica,sans-Serif" font-size="10.00">_fingers</text>
<text text-anchor="start" x="142" y="-133.071" font-family="Helvetica,sans-Serif" font-size="10.00">bryan_lewis_width</text>
<text text-anchor="middle" x="185" y="-122.071" font-family="Helvetica,sans-Serif" font-size="10.00">_trans</text>
<text text-anchor="start" x="142" y="-111.071" font-family="Helvetica,sans-Serif" font-size="10.00">bryan_lewis_depth</text>
<text text-anchor="middle" x="185" y="-100.071" font-family="Helvetica,sans-Serif" font-size="10.00">_cent</text>
<text text-anchor="middle" x="185" y="-89.0708" font-family="Helvetica,sans-Serif" font-size="10.00">hmix</text>
<text text-anchor="middle" x="185" y="-78.0708" font-family="Helvetica,sans-Serif" font-size="10.00">ml_rad_coeff</text>
<text text-anchor="middle" x="185" y="-67.0708" font-family="Helvetica,sans-Serif" font-size="10.00">...</text>
</g>
<!-- Node11 -->
<g id="node11" class="node"><title>Node11</title>
<polygon fill="white" stroke="#bfbfbf" points="10.5,-4.07077 10.5,-34.0708 102.5,-34.0708 102.5,-4.07077 10.5,-4.07077"/>
<text text-anchor="start" x="18.5" y="-22.0708" font-family="Helvetica,sans-Serif" font-size="10.00">type(int_tide_cs),</text>
<text text-anchor="middle" x="56.5" y="-11.0708" font-family="Helvetica,sans-Serif" font-size="10.00"> pointer</text>
</g>
<!-- Node11&#45;&gt;Node1 -->
<g id="edge10" class="edge"><title>Node11&#45;&gt;Node1</title>
<path fill="none" stroke="#9a32cd" stroke-dasharray="5,2" d="M112.387,-4.4871C152.37,2.57224 205.232,3.9816 239,-26.0708 304.269,-84.1579 308.108,-381.573 308.081,-452.752"/>
<polygon fill="#9a32cd" stroke="#9a32cd" points="111.676,-1.0596 102.519,-6.38787 113,-7.93326 111.676,-1.0596"/>
<text text-anchor="middle" x="185" y="-29.0708" font-family="Helvetica,sans-Serif" font-size="10.00"> int_tide_csp</text>
</g>
</g>
</svg>
        <g id="navigator" transform="translate(0 0)" fill="#404254">
                <rect fill="#f2f5e9" fill-opacity="0.5" stroke="#606060" stroke-width=".5" x="0" y="0" width="60" height="60"/>
                <use id="zoomplus" xlink:href="#zoomPlus" x="17" y="9" onmousedown="handleZoom(evt,'in')"/>
                <use id="zoomminus" xlink:href="#zoomMin" x="42" y="9" onmousedown="handleZoom(evt,'out')"/>
                <use id="reset" xlink:href="#resetDef" x="30" y="36" onmousedown="handleReset()"/>
                <g id="arrowUp" xlink:href="#dirArrow" transform="translate(30 24)" onmousedown="handlePan(0,-1)">
                  <use xlink:href="#rim" fill="#404040">
                        <set attributeName="fill" to="#808080" begin="arrowUp.mouseover" end="arrowUp.mouseout"/>
                  </use>
                  <path fill="none" stroke="white" stroke-width="1.5" d="M0,-3.0v7 M-2.5,-0.5L0,-3.0L2.5,-0.5"/>
                </g>
                <g id="arrowRight" xlink:href="#dirArrow" transform="rotate(90) translate(36 -43)" onmousedown="handlePan(1,0)">
                  <use xlink:href="#rim" fill="#404040">
                        <set attributeName="fill" to="#808080" begin="arrowRight.mouseover" end="arrowRight.mouseout"/>
                  </use>
                  <path fill="none" stroke="white" stroke-width="1.5" d="M0,-3.0v7 M-2.5,-0.5L0,-3.0L2.5,-0.5"/>
                </g>
                <g id="arrowDown" xlink:href="#dirArrow" transform="rotate(180) translate(-30 -48)" onmousedown="handlePan(0,1)">
                  <use xlink:href="#rim" fill="#404040">
                        <set attributeName="fill" to="#808080" begin="arrowDown.mouseover" end="arrowDown.mouseout"/>
                  </use>
                  <path fill="none" stroke="white" stroke-width="1.5" d="M0,-3.0v7 M-2.5,-0.5L0,-3.0L2.5,-0.5"/>
                </g>
                <g id="arrowLeft" xlink:href="#dirArrow" transform="rotate(270) translate(-36 17)" onmousedown="handlePan(-1,0)">
                  <use xlink:href="#rim" fill="#404040">
                        <set attributeName="fill" to="#808080" begin="arrowLeft.mouseover" end="arrowLeft.mouseout"/>
                  </use>
                  <path fill="none" stroke="white" stroke-width="1.5" d="M0,-3.0v7 M-2.5,-0.5L0,-3.0L2.5,-0.5"/>
                </g>
        </g>
        <svg viewBox="0 0 15 15" width="100%" height="30px" preserveAspectRatio="xMaxYMin meet">
         <g id="arrow_out" transform="scale(0.3 0.3)">
          <a xlink:href="structmom__set__diffusivity_1_1set__diffusivity__cs__coll__graph_org.svg" target="_base">
           <rect id="button" ry="5" rx="5" y="6" x="6" height="38" width="38"
                fill="#f2f5e9" fill-opacity="0.5" stroke="#606060" stroke-width="1.0"/>
           <path id="arrow"
             d="M 11.500037,31.436501 C 11.940474,20.09759 22.043105,11.32322 32.158766,21.979434 L 37.068811,17.246167 C 37.068811,17.246167 37.088388,32 37.088388,32 L 22.160133,31.978069 C 22.160133,31.978069 26.997745,27.140456 26.997745,27.140456 C 18.528582,18.264221 13.291696,25.230495 11.500037,31.436501 z"
             style="fill:#404040;"/>
          </a>
         </g>
        </svg>
</svg>
