<?xml version="1.0" encoding="UTF-8" standalone="no"?>
<!DOCTYPE svg PUBLIC "-//W3C//DTD SVG 1.1//EN"
 "http://www.w3.org/Graphics/SVG/1.1/DTD/svg11.dtd">
<!-- Generated by graphviz version 2.38.0 (20140413.2041)
 -->
<!-- Title: mom_wave_speed::wave_speed_cs Pages: 1 -->
<svg width="360pt" height="117pt"
 viewBox="0.00 0.00 360.00 117.00" xmlns="http://www.w3.org/2000/svg" xmlns:xlink="http://www.w3.org/1999/xlink">
<g id="graph0" class="graph" transform="scale(1 1) rotate(0) translate(4 113)">
<title>mom_wave_speed::wave_speed_cs</title>
<polygon fill="white" stroke="none" points="-4,4 -4,-113 356,-113 356,4 -4,4"/>
<!-- Node1 -->
<g id="node1" class="node"><title>Node1</title>
<polygon fill="#bfbfbf" stroke="black" points="91,-0.5 91,-30.5 219,-30.5 219,-0.5 91,-0.5"/>
<text text-anchor="start" x="99" y="-18.5" font-family="Helvetica,sans-Serif" font-size="10.00">mom_wave_speed::wave</text>
<text text-anchor="middle" x="155" y="-7.5" font-family="Helvetica,sans-Serif" font-size="10.00">_speed_cs</text>
</g>
<!-- Node2 -->
<g id="node2" class="node"><title>Node2</title>
<polygon fill="white" stroke="#bfbfbf" points="0,-89.5 0,-108.5 44,-108.5 44,-89.5 0,-89.5"/>
<text text-anchor="middle" x="22" y="-96.5" font-family="Helvetica,sans-Serif" font-size="10.00">logical</text>
</g>
<!-- Node2&#45;&gt;Node1 -->
<g id="edge1" class="edge"><title>Node2&#45;&gt;Node1</title>
<path fill="none" stroke="#9a32cd" stroke-dasharray="5,2" d="M23.801,-79.3849C25.7351,-69.1249 29.7356,-56.9033 38,-49 52.322,-35.3039 71.901,-27.284 90.9454,-22.6185"/>
<polygon fill="#9a32cd" stroke="#9a32cd" points="20.3119,-79.0658 22.4093,-89.451 27.2459,-80.0246 20.3119,-79.0658"/>
<text text-anchor="middle" x="71.5" y="-57.5" font-family="Helvetica,sans-Serif" font-size="10.00"> use_ebt_mode</text>
</g>
<!-- Node3 -->
<g id="node3" class="node"><title>Node3</title>
<polygon fill="white" stroke="#bfbfbf" points="73.5,-89.5 73.5,-108.5 150.5,-108.5 150.5,-89.5 73.5,-89.5"/>
<text text-anchor="middle" x="112" y="-96.5" font-family="Helvetica,sans-Serif" font-size="10.00">remapping_cs</text>
</g>
<!-- Node3&#45;&gt;Node1 -->
<g id="edge2" class="edge"><title>Node3&#45;&gt;Node1</title>
<path fill="none" stroke="#9a32cd" stroke-dasharray="5,2" d="M108.674,-79.1054C107.897,-69.5987 108.381,-58.1773 113,-49 116.648,-41.7529 122.751,-35.6478 129.19,-30.756"/>
<polygon fill="#9a32cd" stroke="#9a32cd" points="105.22,-79.6792 109.995,-89.1368 112.16,-78.7655 105.22,-79.6792"/>
<text text-anchor="middle" x="145" y="-57.5" font-family="Helvetica,sans-Serif" font-size="10.00"> remapping_cs</text>
</g>
<!-- Node4 -->
<g id="node4" class="node"><title>Node4</title>
<polygon fill="white" stroke="#bfbfbf" points="172.5,-89.5 172.5,-108.5 225.5,-108.5 225.5,-89.5 172.5,-89.5"/>
<text text-anchor="middle" x="199" y="-96.5" font-family="Helvetica,sans-Serif" font-size="10.00">diag_ctrl</text>
</g>
<!-- Node4&#45;&gt;Node1 -->
<g id="edge3" class="edge"><title>Node4&#45;&gt;Node1</title>
<path fill="none" stroke="#9a32cd" stroke-dasharray="5,2" d="M191.786,-79.9608C187.801,-70.5431 182.542,-58.942 177,-49 173.55,-42.8106 169.272,-36.2863 165.408,-30.7207"/>
<polygon fill="#9a32cd" stroke="#9a32cd" points="188.653,-81.5434 195.692,-89.4613 195.127,-78.8815 188.653,-81.5434"/>
<text text-anchor="middle" x="199" y="-57.5" font-family="Helvetica,sans-Serif" font-size="10.00"> diag</text>
</g>
<!-- Node5 -->
<g id="node5" class="node"><title>Node5</title>
<polygon fill="white" stroke="#bfbfbf" points="244,-89.5 244,-108.5 276,-108.5 276,-89.5 244,-89.5"/>
<text text-anchor="middle" x="260" y="-96.5" font-family="Helvetica,sans-Serif" font-size="10.00">real</text>
</g>
<!-- Node5&#45;&gt;Node1 -->
<g id="edge4" class="edge"><title>Node5&#45;&gt;Node1</title>
<path fill="none" stroke="#9a32cd" stroke-dasharray="5,2" d="M246.799,-81.4833C238.161,-71.3353 226.24,-58.5042 214,-49 205.133,-42.1148 194.619,-35.8232 184.941,-30.6482"/>
<polygon fill="#9a32cd" stroke="#9a32cd" points="244.148,-83.7693 253.218,-89.2445 249.542,-79.3079 244.148,-83.7693"/>
<text text-anchor="middle" x="294.5" y="-63" font-family="Helvetica,sans-Serif" font-size="10.00"> mono_n2_depth</text>
<text text-anchor="middle" x="294.5" y="-52" font-family="Helvetica,sans-Serif" font-size="10.00">mono_n2_column_fraction</text>
</g>
</g>
</svg>
