<?xml version="1.0" encoding="UTF-8" standalone="no"?>
<!DOCTYPE svg PUBLIC "-//W3C//DTD SVG 1.1//EN"
 "http://www.w3.org/Graphics/SVG/1.1/DTD/svg11.dtd">
<!-- Generated by graphviz version 2.38.0 (20140413.2041)
 -->
<!-- Title: mom_ice_shelf::ice_shelf_cs Pages: 1 -->
<svg width="376pt" height="743pt"
 viewBox="0.00 0.00 376.00 742.97" xmlns="http://www.w3.org/2000/svg" xmlns:xlink="http://www.w3.org/1999/xlink">
<g id="graph0" class="graph" transform="scale(1 1) rotate(0) translate(4 738.966)">
<title>mom_ice_shelf::ice_shelf_cs</title>
<polygon fill="white" stroke="none" points="-4,4 -4,-738.966 372,-738.966 372,4 -4,4"/>
<!-- Node1 -->
<g id="node1" class="node"><title>Node1</title>
<polygon fill="#bfbfbf" stroke="black" points="267,-404.966 267,-434.966 368,-434.966 368,-404.966 267,-404.966"/>
<text text-anchor="start" x="275" y="-422.966" font-family="Helvetica,sans-Serif" font-size="10.00">mom_ice_shelf::ice</text>
<text text-anchor="middle" x="317.5" y="-411.966" font-family="Helvetica,sans-Serif" font-size="10.00">_shelf_cs</text>
</g>
<!-- Node2 -->
<g id="node2" class="node"><title>Node2</title>
<polygon fill="white" stroke="#bfbfbf" points="36,-596.466 36,-615.466 80,-615.466 80,-596.466 36,-596.466"/>
<text text-anchor="middle" x="58" y="-603.466" font-family="Helvetica,sans-Serif" font-size="10.00">logical</text>
</g>
<!-- Node2&#45;&gt;Node1 -->
<g id="edge1" class="edge"><title>Node2&#45;&gt;Node1</title>
<path fill="none" stroke="#9a32cd" stroke-dasharray="5,2" d="M90.1989,-611.295C130.993,-616.441 202.695,-619.007 249,-583.966 297.981,-546.899 311.613,-468.007 315.245,-434.989"/>
<polygon fill="#9a32cd" stroke="#9a32cd" points="90.4307,-607.794 80.0431,-609.879 89.4638,-614.727 90.4307,-607.794"/>
<text text-anchor="middle" x="191.5" y="-726.966" font-family="Helvetica,sans-Serif" font-size="10.00"> override_shelf_movement</text>
<text text-anchor="middle" x="191.5" y="-715.966" font-family="Helvetica,sans-Serif" font-size="10.00">use_reproducing_sums</text>
<text text-anchor="middle" x="191.5" y="-704.966" font-family="Helvetica,sans-Serif" font-size="10.00">solo_ice_sheet</text>
<text text-anchor="middle" x="191.5" y="-693.966" font-family="Helvetica,sans-Serif" font-size="10.00">moving_shelf_front</text>
<text text-anchor="middle" x="191.5" y="-682.966" font-family="Helvetica,sans-Serif" font-size="10.00">constant_sea_level</text>
<text text-anchor="middle" x="191.5" y="-671.966" font-family="Helvetica,sans-Serif" font-size="10.00">find_salt_root</text>
<text text-anchor="middle" x="191.5" y="-660.966" font-family="Helvetica,sans-Serif" font-size="10.00">calve_to_mask</text>
<text text-anchor="middle" x="191.5" y="-649.966" font-family="Helvetica,sans-Serif" font-size="10.00">gl_couple</text>
<text text-anchor="middle" x="191.5" y="-638.966" font-family="Helvetica,sans-Serif" font-size="10.00">mass_from_file</text>
<text text-anchor="middle" x="191.5" y="-627.966" font-family="Helvetica,sans-Serif" font-size="10.00">shelf_mass_is_dynamic</text>
<text text-anchor="middle" x="191.5" y="-616.966" font-family="Helvetica,sans-Serif" font-size="10.00">...</text>
</g>
<!-- Node3 -->
<g id="node3" class="node"><title>Node3</title>
<polygon fill="white" stroke="#bfbfbf" points="28.5,-558.466 28.5,-577.466 87.5,-577.466 87.5,-558.466 28.5,-558.466"/>
<text text-anchor="middle" x="58" y="-565.466" font-family="Helvetica,sans-Serif" font-size="10.00">time_type</text>
</g>
<!-- Node3&#45;&gt;Node1 -->
<g id="edge2" class="edge"><title>Node3&#45;&gt;Node1</title>
<path fill="none" stroke="#9a32cd" stroke-dasharray="5,2" d="M97.6976,-570.91C138.814,-572.071 203.975,-568.076 249,-536.966 285.271,-511.904 304.672,-460.553 312.42,-435.041"/>
<polygon fill="#9a32cd" stroke="#9a32cd" points="97.6676,-567.406 87.5359,-570.505 97.3882,-574.401 97.6676,-567.406"/>
<text text-anchor="middle" x="191.5" y="-572.966" font-family="Helvetica,sans-Serif" font-size="10.00"> time</text>
</g>
<!-- Node4 -->
<g id="node4" class="node"><title>Node4</title>
<polygon fill="white" stroke="#bfbfbf" points="0,-520.466 0,-539.466 116,-539.466 116,-520.466 0,-520.466"/>
<text text-anchor="middle" x="58" y="-527.466" font-family="Helvetica,sans-Serif" font-size="10.00">type(eos_type), pointer</text>
</g>
<!-- Node4&#45;&gt;Node1 -->
<g id="edge3" class="edge"><title>Node4&#45;&gt;Node1</title>
<path fill="none" stroke="#9a32cd" stroke-dasharray="5,2" d="M126.309,-523.98C164.192,-518.406 211.309,-507.661 249,-486.966 272.447,-474.092 293.249,-450.681 305.365,-435.225"/>
<polygon fill="#9a32cd" stroke="#9a32cd" points="125.813,-520.515 116.387,-525.353 126.773,-527.449 125.813,-520.515"/>
<text text-anchor="middle" x="191.5" y="-524.966" font-family="Helvetica,sans-Serif" font-size="10.00"> eqn_of_state</text>
</g>
<!-- Node5 -->
<g id="node5" class="node"><title>Node5</title>
<polygon fill="white" stroke="#bfbfbf" points="2,-470.966 2,-500.966 114,-500.966 114,-470.966 2,-470.966"/>
<text text-anchor="start" x="10" y="-488.966" font-family="Helvetica,sans-Serif" font-size="10.00">type(mom_restart_cs)</text>
<text text-anchor="middle" x="58" y="-477.966" font-family="Helvetica,sans-Serif" font-size="10.00">, pointer</text>
</g>
<!-- Node5&#45;&gt;Node1 -->
<g id="edge4" class="edge"><title>Node5&#45;&gt;Node1</title>
<path fill="none" stroke="#9a32cd" stroke-dasharray="5,2" d="M124.193,-474.915C161.164,-467.985 208.078,-458.07 249,-445.966 259.356,-442.903 270.372,-438.963 280.436,-435.082"/>
<polygon fill="#9a32cd" stroke="#9a32cd" points="123.24,-471.532 114.042,-476.79 124.512,-478.416 123.24,-471.532"/>
<text text-anchor="middle" x="191.5" y="-474.966" font-family="Helvetica,sans-Serif" font-size="10.00"> restart_csp</text>
</g>
<!-- Node6 -->
<g id="node6" class="node"><title>Node6</title>
<polygon fill="white" stroke="#bfbfbf" points="7.5,-421.966 7.5,-451.966 108.5,-451.966 108.5,-421.966 7.5,-421.966"/>
<text text-anchor="start" x="15.5" y="-439.966" font-family="Helvetica,sans-Serif" font-size="10.00">type(user_ice_shelf</text>
<text text-anchor="middle" x="58" y="-428.966" font-family="Helvetica,sans-Serif" font-size="10.00">_cs), pointer</text>
</g>
<!-- Node6&#45;&gt;Node1 -->
<g id="edge5" class="edge"><title>Node6&#45;&gt;Node1</title>
<path fill="none" stroke="#9a32cd" stroke-dasharray="5,2" d="M118.823,-433.016C163.661,-430.056 224.315,-426.052 266.565,-423.263"/>
<polygon fill="#9a32cd" stroke="#9a32cd" points="118.396,-429.537 108.649,-433.688 118.857,-436.522 118.396,-429.537"/>
<text text-anchor="middle" x="191.5" y="-433.966" font-family="Helvetica,sans-Serif" font-size="10.00"> user_cs</text>
</g>
<!-- Node7 -->
<g id="node7" class="node"><title>Node7</title>
<polygon fill="white" stroke="#bfbfbf" points="31.5,-383.466 31.5,-402.466 84.5,-402.466 84.5,-383.466 31.5,-383.466"/>
<text text-anchor="middle" x="58" y="-390.466" font-family="Helvetica,sans-Serif" font-size="10.00">diag_ctrl</text>
</g>
<!-- Node7&#45;&gt;Node1 -->
<g id="edge6" class="edge"><title>Node7&#45;&gt;Node1</title>
<path fill="none" stroke="#9a32cd" stroke-dasharray="5,2" d="M94.6915,-395.143C132.941,-397.669 195.396,-402.351 249,-408.966 254.774,-409.678 260.811,-410.521 266.798,-411.418"/>
<polygon fill="#9a32cd" stroke="#9a32cd" points="94.7778,-391.641 84.5725,-394.488 94.3255,-398.626 94.7778,-391.641"/>
<text text-anchor="middle" x="191.5" y="-411.966" font-family="Helvetica,sans-Serif" font-size="10.00"> diag</text>
</g>
<!-- Node8 -->
<g id="node8" class="node"><title>Node8</title>
<polygon fill="white" stroke="#bfbfbf" points="9,-345.466 9,-364.466 107,-364.466 107,-345.466 9,-345.466"/>
<text text-anchor="middle" x="58" y="-352.466" font-family="Helvetica,sans-Serif" font-size="10.00">character(len=128)</text>
</g>
<!-- Node8&#45;&gt;Node1 -->
<g id="edge7" class="edge"><title>Node8&#45;&gt;Node1</title>
<path fill="none" stroke="#9a32cd" stroke-dasharray="5,2" d="M117.765,-358.232C155.956,-361.656 206.383,-368.66 249,-382.966 264.71,-388.239 281.037,-397.085 293.699,-404.805"/>
<polygon fill="#9a32cd" stroke="#9a32cd" points="117.592,-354.705 107.334,-357.357 117.007,-361.68 117.592,-354.705"/>
<text text-anchor="middle" x="191.5" y="-385.966" font-family="Helvetica,sans-Serif" font-size="10.00"> restart_output_dir</text>
</g>
<!-- Node9 -->
<g id="node9" class="node"><title>Node9</title>
<polygon fill="white" stroke="#bfbfbf" points="35,-215.466 35,-234.466 81,-234.466 81,-215.466 35,-215.466"/>
<text text-anchor="middle" x="58" y="-222.466" font-family="Helvetica,sans-Serif" font-size="10.00">integer</text>
</g>
<!-- Node9&#45;&gt;Node1 -->
<g id="edge8" class="edge"><title>Node9&#45;&gt;Node1</title>
<path fill="none" stroke="#9a32cd" stroke-dasharray="5,2" d="M91.2042,-216.998C132.137,-208.884 202.993,-201.818 249,-235.966 304.465,-277.133 314.41,-368.711 316.15,-404.865"/>
<polygon fill="#9a32cd" stroke="#9a32cd" points="90.2868,-213.615 81.2312,-219.115 91.7399,-220.463 90.2868,-213.615"/>
<text text-anchor="middle" x="191.5" y="-348.966" font-family="Helvetica,sans-Serif" font-size="10.00"> id_od_av</text>
<text text-anchor="middle" x="191.5" y="-337.966" font-family="Helvetica,sans-Serif" font-size="10.00">id_bathym</text>
<text text-anchor="middle" x="191.5" y="-326.966" font-family="Helvetica,sans-Serif" font-size="10.00">id_exch_vel_s</text>
<text text-anchor="middle" x="191.5" y="-315.966" font-family="Helvetica,sans-Serif" font-size="10.00">id_melt</text>
<text text-anchor="middle" x="191.5" y="-304.966" font-family="Helvetica,sans-Serif" font-size="10.00">id_exch_vel_t</text>
<text text-anchor="middle" x="191.5" y="-293.966" font-family="Helvetica,sans-Serif" font-size="10.00">cg_max_iterations</text>
<text text-anchor="middle" x="191.5" y="-282.966" font-family="Helvetica,sans-Serif" font-size="10.00">id_sbdry</text>
<text text-anchor="middle" x="191.5" y="-271.966" font-family="Helvetica,sans-Serif" font-size="10.00">id_tfl_shelf</text>
<text text-anchor="middle" x="191.5" y="-260.966" font-family="Helvetica,sans-Serif" font-size="10.00">id_t_shelf</text>
<text text-anchor="middle" x="191.5" y="-249.966" font-family="Helvetica,sans-Serif" font-size="10.00">id_col_thick</text>
<text text-anchor="middle" x="191.5" y="-238.966" font-family="Helvetica,sans-Serif" font-size="10.00">...</text>
</g>
<!-- Node10 -->
<g id="node10" class="node"><title>Node10</title>
<polygon fill="white" stroke="#bfbfbf" points="42,-60.4659 42,-79.4659 74,-79.4659 74,-60.4659 42,-60.4659"/>
<text text-anchor="middle" x="58" y="-67.4659" font-family="Helvetica,sans-Serif" font-size="10.00">real</text>
</g>
<!-- Node10&#45;&gt;Node1 -->
<g id="edge9" class="edge"><title>Node10&#45;&gt;Node1</title>
<path fill="none" stroke="#9a32cd" stroke-dasharray="5,2" d="M83.7034,-61.8893C123.555,-50.5601 202.278,-35.457 249,-74.9659 300.496,-118.512 313.386,-343.986 315.948,-404.825"/>
<polygon fill="#9a32cd" stroke="#9a32cd" points="82.5773,-58.5729 74.0015,-64.7944 84.5853,-65.2787 82.5773,-58.5729"/>
<text text-anchor="middle" x="191.5" y="-198.966" font-family="Helvetica,sans-Serif" font-size="10.00"> input_thickness</text>
<text text-anchor="middle" x="191.5" y="-187.966" font-family="Helvetica,sans-Serif" font-size="10.00">t0</text>
<text text-anchor="middle" x="191.5" y="-176.966" font-family="Helvetica,sans-Serif" font-size="10.00">gamma_t</text>
<text text-anchor="middle" x="191.5" y="-165.966" font-family="Helvetica,sans-Serif" font-size="10.00">cdrag</text>
<text text-anchor="start" x="155.5" y="-154.966" font-family="Helvetica,sans-Serif" font-size="10.00">taub_beta_eff</text>
<text text-anchor="middle" x="191.5" y="-143.966" font-family="Helvetica,sans-Serif" font-size="10.00">_upper_tri</text>
<text text-anchor="middle" x="191.5" y="-132.966" font-family="Helvetica,sans-Serif" font-size="10.00">v_face_mask</text>
<text text-anchor="middle" x="191.5" y="-121.966" font-family="Helvetica,sans-Serif" font-size="10.00">h_shelf</text>
<text text-anchor="middle" x="191.5" y="-110.966" font-family="Helvetica,sans-Serif" font-size="10.00">salt_flux</text>
<text text-anchor="middle" x="191.5" y="-99.9659" font-family="Helvetica,sans-Serif" font-size="10.00">s0</text>
<text text-anchor="middle" x="191.5" y="-88.9659" font-family="Helvetica,sans-Serif" font-size="10.00">gamma_t_3eq</text>
<text text-anchor="middle" x="191.5" y="-77.9659" font-family="Helvetica,sans-Serif" font-size="10.00">...</text>
</g>
<!-- Node11 -->
<g id="node11" class="node"><title>Node11</title>
<polygon fill="white" stroke="#bfbfbf" points="14,-15.4659 14,-34.4659 102,-34.4659 102,-15.4659 14,-15.4659"/>
<text text-anchor="middle" x="58" y="-22.4659" font-family="Helvetica,sans-Serif" font-size="10.00">ocean_grid_type</text>
</g>
<!-- Node11&#45;&gt;Node1 -->
<g id="edge10" class="edge"><title>Node11&#45;&gt;Node1</title>
<path fill="none" stroke="#9a32cd" stroke-dasharray="5,2" d="M94.766,-12.354C136.813,-0.0377368 206.266,12.1005 249,-23.9659 308.56,-74.2323 315.572,-338.564 316.392,-404.87"/>
<polygon fill="#9a32cd" stroke="#9a32cd" points="93.4807,-9.08755 84.9548,-15.3772 95.542,-15.7772 93.4807,-9.08755"/>
<text text-anchor="middle" x="191.5" y="-37.9659" font-family="Helvetica,sans-Serif" font-size="10.00"> ocn_grid</text>
<text text-anchor="middle" x="191.5" y="-26.9659" font-family="Helvetica,sans-Serif" font-size="10.00">grid</text>
</g>
</g>
</svg>
