<?xml version="1.0" encoding="UTF-8" standalone="no"?>
<!DOCTYPE svg PUBLIC "-//W3C//DTD SVG 1.1//EN"
 "http://www.w3.org/Graphics/SVG/1.1/DTD/svg11.dtd">
<!-- Generated by graphviz version 2.38.0 (20140413.2041)
 -->
<!-- Title: mom_coriolisadv::coriolisadv_cs Pages: 1 -->
<svg width="407pt" height="183pt"
 viewBox="0.00 0.00 407.00 183.00" xmlns="http://www.w3.org/2000/svg" xmlns:xlink="http://www.w3.org/1999/xlink">
<g id="graph0" class="graph" transform="scale(1 1) rotate(0) translate(4 179)">
<title>mom_coriolisadv::coriolisadv_cs</title>
<polygon fill="white" stroke="none" points="-4,4 -4,-179 403,-179 403,4 -4,4"/>
<!-- Node1 -->
<g id="node1" class="node"><title>Node1</title>
<polygon fill="#bfbfbf" stroke="black" points="96,-0.5 96,-19.5 254,-19.5 254,-0.5 96,-0.5"/>
<text text-anchor="middle" x="175" y="-7.5" font-family="Helvetica,sans-Serif" font-size="10.00">mom_coriolisadv::coriolisadv_cs</text>
</g>
<!-- Node2 -->
<g id="node2" class="node"><title>Node2</title>
<polygon fill="white" stroke="#bfbfbf" points="0,-155.5 0,-174.5 44,-174.5 44,-155.5 0,-155.5"/>
<text text-anchor="middle" x="22" y="-162.5" font-family="Helvetica,sans-Serif" font-size="10.00">logical</text>
</g>
<!-- Node2&#45;&gt;Node1 -->
<g id="edge1" class="edge"><title>Node2&#45;&gt;Node1</title>
<path fill="none" stroke="#9a32cd" stroke-dasharray="5,2" d="M18.4268,-145.047C14.4456,-117.622 11.75,-66.9903 39,-38 47.4083,-29.0547 70.7065,-22.9514 95.6945,-18.8454"/>
<polygon fill="#9a32cd" stroke="#9a32cd" points="15.0308,-145.962 20.1282,-155.25 21.9355,-144.81 15.0308,-145.962"/>
<text text-anchor="middle" x="71.5" y="-96" font-family="Helvetica,sans-Serif" font-size="10.00"> no_slip</text>
<text text-anchor="middle" x="71.5" y="-85" font-family="Helvetica,sans-Serif" font-size="10.00">coriolis_en_dis</text>
<text text-anchor="middle" x="71.5" y="-74" font-family="Helvetica,sans-Serif" font-size="10.00">bound_coriolis</text>
</g>
<!-- Node3 -->
<g id="node3" class="node"><title>Node3</title>
<polygon fill="white" stroke="#bfbfbf" points="71.5,-155.5 71.5,-174.5 130.5,-174.5 130.5,-155.5 71.5,-155.5"/>
<text text-anchor="middle" x="101" y="-162.5" font-family="Helvetica,sans-Serif" font-size="10.00">time_type</text>
</g>
<!-- Node3&#45;&gt;Node1 -->
<g id="edge2" class="edge"><title>Node3&#45;&gt;Node1</title>
<path fill="none" stroke="#9a32cd" stroke-dasharray="5,2" d="M105.571,-145.332C112.384,-119.739 126.828,-72.9551 149,-38 153.322,-31.1858 159.557,-24.6382 164.838,-19.6976"/>
<polygon fill="#9a32cd" stroke="#9a32cd" points="102.136,-144.639 103.047,-155.194 108.917,-146.374 102.136,-144.639"/>
<text text-anchor="middle" x="160" y="-85" font-family="Helvetica,sans-Serif" font-size="10.00"> time</text>
</g>
<!-- Node4 -->
<g id="node4" class="node"><title>Node4</title>
<polygon fill="white" stroke="#bfbfbf" points="148.5,-155.5 148.5,-174.5 201.5,-174.5 201.5,-155.5 148.5,-155.5"/>
<text text-anchor="middle" x="175" y="-162.5" font-family="Helvetica,sans-Serif" font-size="10.00">diag_ctrl</text>
</g>
<!-- Node4&#45;&gt;Node1 -->
<g id="edge3" class="edge"><title>Node4&#45;&gt;Node1</title>
<path fill="none" stroke="#9a32cd" stroke-dasharray="5,2" d="M175,-145.105C175,-111.716 175,-43.5423 175,-19.5693"/>
<polygon fill="#9a32cd" stroke="#9a32cd" points="171.5,-145.336 175,-155.336 178.5,-145.336 171.5,-145.336"/>
<text text-anchor="middle" x="186" y="-85" font-family="Helvetica,sans-Serif" font-size="10.00"> diag</text>
</g>
<!-- Node5 -->
<g id="node5" class="node"><title>Node5</title>
<polygon fill="white" stroke="#bfbfbf" points="220,-155.5 220,-174.5 252,-174.5 252,-155.5 220,-155.5"/>
<text text-anchor="middle" x="236" y="-162.5" font-family="Helvetica,sans-Serif" font-size="10.00">real</text>
</g>
<!-- Node5&#45;&gt;Node1 -->
<g id="edge4" class="edge"><title>Node5&#45;&gt;Node1</title>
<path fill="none" stroke="#9a32cd" stroke-dasharray="5,2" d="M231.075,-145.34C222.089,-111.431 203.705,-42.7385 201,-38 196.999,-30.9922 190.774,-24.4385 185.418,-19.5432"/>
<polygon fill="#9a32cd" stroke="#9a32cd" points="227.786,-146.592 233.726,-155.364 234.553,-144.802 227.786,-146.592"/>
<text text-anchor="middle" x="265.5" y="-90.5" font-family="Helvetica,sans-Serif" font-size="10.00"> wt_lin_blend</text>
<text text-anchor="middle" x="265.5" y="-79.5" font-family="Helvetica,sans-Serif" font-size="10.00">f_eff_max_blend</text>
</g>
<!-- Node6 -->
<g id="node6" class="node"><title>Node6</title>
<polygon fill="white" stroke="#bfbfbf" points="301,-155.5 301,-174.5 347,-174.5 347,-155.5 301,-155.5"/>
<text text-anchor="middle" x="324" y="-162.5" font-family="Helvetica,sans-Serif" font-size="10.00">integer</text>
</g>
<!-- Node6&#45;&gt;Node1 -->
<g id="edge5" class="edge"><title>Node6&#45;&gt;Node1</title>
<path fill="none" stroke="#9a32cd" stroke-dasharray="5,2" d="M326.658,-145.002C329.347,-117.519 329.78,-66.8162 302,-38 293.982,-29.683 272.025,-23.6976 248.576,-19.5101"/>
<polygon fill="#9a32cd" stroke="#9a32cd" points="323.148,-144.884 325.443,-155.227 330.099,-145.71 323.148,-144.884"/>
<text text-anchor="middle" x="363" y="-129" font-family="Helvetica,sans-Serif" font-size="10.00"> id_rv</text>
<text text-anchor="middle" x="363" y="-118" font-family="Helvetica,sans-Serif" font-size="10.00">id_pv</text>
<text text-anchor="middle" x="363" y="-107" font-family="Helvetica,sans-Serif" font-size="10.00">ke_scheme</text>
<text text-anchor="middle" x="363" y="-96" font-family="Helvetica,sans-Serif" font-size="10.00">coriolis_scheme</text>
<text text-anchor="middle" x="363" y="-85" font-family="Helvetica,sans-Serif" font-size="10.00">pv_adv_scheme</text>
<text text-anchor="middle" x="363" y="-74" font-family="Helvetica,sans-Serif" font-size="10.00">id_gkeu</text>
<text text-anchor="middle" x="363" y="-63" font-family="Helvetica,sans-Serif" font-size="10.00">id_gkev</text>
<text text-anchor="middle" x="363" y="-52" font-family="Helvetica,sans-Serif" font-size="10.00">id_rvxu</text>
<text text-anchor="middle" x="363" y="-41" font-family="Helvetica,sans-Serif" font-size="10.00">id_rvxv</text>
</g>
</g>
</svg>
