<?xml version="1.0" encoding="UTF-8" standalone="no"?>
<!DOCTYPE svg PUBLIC "-//W3C//DTD SVG 1.1//EN"
 "http://www.w3.org/Graphics/SVG/1.1/DTD/svg11.dtd">
<!-- Generated by graphviz version 2.38.0 (20140413.2041)
 -->
<!-- Title: mom_eos::eos_type Pages: 1 -->
<svg width="253pt" height="150pt"
 viewBox="0.00 0.00 253.00 150.00" xmlns="http://www.w3.org/2000/svg" xmlns:xlink="http://www.w3.org/1999/xlink">
<g id="graph0" class="graph" transform="scale(1 1) rotate(0) translate(4 146)">
<title>mom_eos::eos_type</title>
<polygon fill="white" stroke="none" points="-4,4 -4,-146 249,-146 249,4 -4,4"/>
<!-- Node1 -->
<g id="node1" class="node"><title>Node1</title>
<polygon fill="#bfbfbf" stroke="black" points="59.5,-0.5 59.5,-19.5 164.5,-19.5 164.5,-0.5 59.5,-0.5"/>
<text text-anchor="middle" x="112" y="-7.5" font-family="Helvetica,sans-Serif" font-size="10.00">mom_eos::eos_type</text>
</g>
<!-- Node2 -->
<g id="node2" class="node"><title>Node2</title>
<polygon fill="white" stroke="#bfbfbf" points="0,-122.5 0,-141.5 44,-141.5 44,-122.5 0,-122.5"/>
<text text-anchor="middle" x="22" y="-129.5" font-family="Helvetica,sans-Serif" font-size="10.00">logical</text>
</g>
<!-- Node2&#45;&gt;Node1 -->
<g id="edge1" class="edge"><title>Node2&#45;&gt;Node1</title>
<path fill="none" stroke="#9a32cd" stroke-dasharray="5,2" d="M20.8222,-112.122C20.5726,-91.5414 23.3425,-58.7747 41,-38 48.2595,-29.4589 58.5257,-23.613 69.0015,-19.6141"/>
<polygon fill="#9a32cd" stroke="#9a32cd" points="17.3354,-112.539 21.2122,-122.399 24.3304,-112.274 17.3354,-112.539"/>
<text text-anchor="middle" x="74.5" y="-74" font-family="Helvetica,sans-Serif" font-size="10.00"> compressible</text>
<text text-anchor="middle" x="74.5" y="-63" font-family="Helvetica,sans-Serif" font-size="10.00">eos_quadrature</text>
</g>
<!-- Node3 -->
<g id="node3" class="node"><title>Node3</title>
<polygon fill="white" stroke="#bfbfbf" points="96,-122.5 96,-141.5 128,-141.5 128,-122.5 96,-122.5"/>
<text text-anchor="middle" x="112" y="-129.5" font-family="Helvetica,sans-Serif" font-size="10.00">real</text>
</g>
<!-- Node3&#45;&gt;Node1 -->
<g id="edge2" class="edge"><title>Node3&#45;&gt;Node1</title>
<path fill="none" stroke="#9a32cd" stroke-dasharray="5,2" d="M112,-112.145C112,-85.7231 112,-38.7637 112,-19.5519"/>
<polygon fill="#9a32cd" stroke="#9a32cd" points="108.5,-112.37 112,-122.37 115.5,-112.37 108.5,-112.37"/>
<text text-anchor="middle" x="133.5" y="-96" font-family="Helvetica,sans-Serif" font-size="10.00"> dtfr_ds</text>
<text text-anchor="middle" x="133.5" y="-85" font-family="Helvetica,sans-Serif" font-size="10.00">tfr_s0_p0</text>
<text text-anchor="middle" x="133.5" y="-74" font-family="Helvetica,sans-Serif" font-size="10.00">drho_ds</text>
<text text-anchor="middle" x="133.5" y="-63" font-family="Helvetica,sans-Serif" font-size="10.00">rho_t0_s0</text>
<text text-anchor="middle" x="133.5" y="-52" font-family="Helvetica,sans-Serif" font-size="10.00">drho_dt</text>
<text text-anchor="middle" x="133.5" y="-41" font-family="Helvetica,sans-Serif" font-size="10.00">dtfr_dp</text>
</g>
<!-- Node4 -->
<g id="node4" class="node"><title>Node4</title>
<polygon fill="white" stroke="#bfbfbf" points="155,-122.5 155,-141.5 201,-141.5 201,-122.5 155,-122.5"/>
<text text-anchor="middle" x="178" y="-129.5" font-family="Helvetica,sans-Serif" font-size="10.00">integer</text>
</g>
<!-- Node4&#45;&gt;Node1 -->
<g id="edge3" class="edge"><title>Node4&#45;&gt;Node1</title>
<path fill="none" stroke="#9a32cd" stroke-dasharray="5,2" d="M177.712,-112.365C176.527,-92.2496 172.01,-60.1267 156,-38 150.221,-30.0128 141.284,-23.9045 132.971,-19.5352"/>
<polygon fill="#9a32cd" stroke="#9a32cd" points="174.216,-112.546 178.082,-122.41 181.211,-112.288 174.216,-112.546"/>
<text text-anchor="middle" x="210.5" y="-74" font-family="Helvetica,sans-Serif" font-size="10.00"> form_of_eos</text>
<text text-anchor="middle" x="210.5" y="-63" font-family="Helvetica,sans-Serif" font-size="10.00">form_of_tfreeze</text>
</g>
</g>
</svg>
