<?xml version="1.0" encoding="UTF-8" standalone="no"?>
<!DOCTYPE svg PUBLIC "-//W3C//DTD SVG 1.1//EN"
 "http://www.w3.org/Graphics/SVG/1.1/DTD/svg11.dtd">
<!-- Generated by graphviz version 2.38.0 (20140413.2041)
 -->
<!-- Title: mom_tracer_flow_control::tracer_flow_control_cs Pages: 1 -->
<svg width="432pt" height="678pt"
 viewBox="0.00 0.00 432.00 677.50" xmlns="http://www.w3.org/2000/svg" xmlns:xlink="http://www.w3.org/1999/xlink">
<g id="graph0" class="graph" transform="scale(1 1) rotate(0) translate(4 673.5)">
<title>mom_tracer_flow_control::tracer_flow_control_cs</title>
<polygon fill="white" stroke="none" points="-4,4 -4,-673.5 428,-673.5 428,4 -4,4"/>
<!-- Node1 -->
<g id="node1" class="node"><title>Node1</title>
<polygon fill="#bfbfbf" stroke="black" points="298,-245.5 298,-275.5 424,-275.5 424,-245.5 298,-245.5"/>
<text text-anchor="start" x="306" y="-263.5" font-family="Helvetica,sans-Serif" font-size="10.00">mom_tracer_flow_control</text>
<text text-anchor="middle" x="361" y="-252.5" font-family="Helvetica,sans-Serif" font-size="10.00">::tracer_flow_control_cs</text>
</g>
<!-- Node2 -->
<g id="node2" class="node"><title>Node2</title>
<polygon fill="white" stroke="#bfbfbf" points="9.5,-630.5 9.5,-660.5 119.5,-660.5 119.5,-630.5 9.5,-630.5"/>
<text text-anchor="start" x="17.5" y="-648.5" font-family="Helvetica,sans-Serif" font-size="10.00">type(ideal_age_tracer</text>
<text text-anchor="middle" x="64.5" y="-637.5" font-family="Helvetica,sans-Serif" font-size="10.00">_cs), pointer</text>
</g>
<!-- Node2&#45;&gt;Node1 -->
<g id="edge1" class="edge"><title>Node2&#45;&gt;Node1</title>
<path fill="none" stroke="#9a32cd" stroke-dasharray="5,2" d="M129.699,-657.155C176.975,-661.845 239.777,-659.354 280,-623.5 333.351,-575.943 354.27,-338.929 358.94,-275.91"/>
<polygon fill="#9a32cd" stroke="#9a32cd" points="129.887,-653.654 119.559,-656.017 129.106,-660.61 129.887,-653.654"/>
<text text-anchor="middle" x="213.5" y="-661.5" font-family="Helvetica,sans-Serif" font-size="10.00"> ideal_age_tracer_csp</text>
</g>
<!-- Node3 -->
<g id="node3" class="node"><title>Node3</title>
<polygon fill="white" stroke="#bfbfbf" points="42.5,-442 42.5,-461 86.5,-461 86.5,-442 42.5,-442"/>
<text text-anchor="middle" x="64.5" y="-449" font-family="Helvetica,sans-Serif" font-size="10.00">logical</text>
</g>
<!-- Node3&#45;&gt;Node1 -->
<g id="edge2" class="edge"><title>Node3&#45;&gt;Node1</title>
<path fill="none" stroke="#9a32cd" stroke-dasharray="5,2" d="M96.7562,-450.319C149.037,-447.783 251.319,-440.252 280,-419.5 329.57,-383.633 350.318,-308.133 357.175,-275.763"/>
<polygon fill="#9a32cd" stroke="#9a32cd" points="96.5344,-446.826 86.7032,-450.775 96.8514,-453.819 96.5344,-446.826"/>
<text text-anchor="middle" x="213.5" y="-615.5" font-family="Helvetica,sans-Serif" font-size="10.00"> use_ocmip2_cfc</text>
<text text-anchor="middle" x="213.5" y="-604.5" font-family="Helvetica,sans-Serif" font-size="10.00">use_oil</text>
<text text-anchor="middle" x="213.5" y="-593.5" font-family="Helvetica,sans-Serif" font-size="10.00">use_regional_dyes</text>
<text text-anchor="start" x="163.5" y="-582.5" font-family="Helvetica,sans-Serif" font-size="10.00">use_user_tracer</text>
<text text-anchor="middle" x="213.5" y="-571.5" font-family="Helvetica,sans-Serif" font-size="10.00">_example</text>
<text text-anchor="start" x="163.5" y="-560.5" font-family="Helvetica,sans-Serif" font-size="10.00">use_pseudo_salt</text>
<text text-anchor="middle" x="213.5" y="-549.5" font-family="Helvetica,sans-Serif" font-size="10.00">_tracer</text>
<text text-anchor="middle" x="213.5" y="-538.5" font-family="Helvetica,sans-Serif" font-size="10.00">use_isomip_tracer</text>
<text text-anchor="start" x="163.5" y="-527.5" font-family="Helvetica,sans-Serif" font-size="10.00">use_advection_test</text>
<text text-anchor="middle" x="213.5" y="-516.5" font-family="Helvetica,sans-Serif" font-size="10.00">_tracer</text>
<text text-anchor="start" x="163.5" y="-505.5" font-family="Helvetica,sans-Serif" font-size="10.00">use_boundary_impulse</text>
<text text-anchor="middle" x="213.5" y="-494.5" font-family="Helvetica,sans-Serif" font-size="10.00">_tracer</text>
<text text-anchor="start" x="163.5" y="-483.5" font-family="Helvetica,sans-Serif" font-size="10.00">use_mom_generic</text>
<text text-anchor="middle" x="213.5" y="-472.5" font-family="Helvetica,sans-Serif" font-size="10.00">_tracer</text>
<text text-anchor="middle" x="213.5" y="-461.5" font-family="Helvetica,sans-Serif" font-size="10.00">use_dome_tracer</text>
<text text-anchor="middle" x="213.5" y="-450.5" font-family="Helvetica,sans-Serif" font-size="10.00">...</text>
</g>
<!-- Node4 -->
<g id="node4" class="node"><title>Node4</title>
<polygon fill="white" stroke="#bfbfbf" points="16,-392.5 16,-422.5 113,-422.5 113,-392.5 16,-392.5"/>
<text text-anchor="start" x="24" y="-410.5" font-family="Helvetica,sans-Serif" font-size="10.00">type(isomip_tracer</text>
<text text-anchor="middle" x="64.5" y="-399.5" font-family="Helvetica,sans-Serif" font-size="10.00">_cs), pointer</text>
</g>
<!-- Node4&#45;&gt;Node1 -->
<g id="edge3" class="edge"><title>Node4&#45;&gt;Node1</title>
<path fill="none" stroke="#9a32cd" stroke-dasharray="5,2" d="M123.339,-406.406C168.959,-403.124 232.582,-392.99 280,-363.5 315.186,-341.618 340.947,-298.387 352.778,-275.511"/>
<polygon fill="#9a32cd" stroke="#9a32cd" points="123.072,-402.916 113.312,-407.038 123.512,-409.902 123.072,-402.916"/>
<text text-anchor="middle" x="213.5" y="-407.5" font-family="Helvetica,sans-Serif" font-size="10.00"> isomip_tracer_csp</text>
</g>
<!-- Node5 -->
<g id="node5" class="node"><title>Node5</title>
<polygon fill="white" stroke="#bfbfbf" points="6,-343.5 6,-373.5 123,-373.5 123,-343.5 6,-343.5"/>
<text text-anchor="start" x="14" y="-361.5" font-family="Helvetica,sans-Serif" font-size="10.00">type(boundary_impulse</text>
<text text-anchor="middle" x="64.5" y="-350.5" font-family="Helvetica,sans-Serif" font-size="10.00">_tracer_cs), pointer</text>
</g>
<!-- Node5&#45;&gt;Node1 -->
<g id="edge4" class="edge"><title>Node5&#45;&gt;Node1</title>
<path fill="none" stroke="#9a32cd" stroke-dasharray="5,2" d="M133.321,-350.425C176.5,-343.729 232.95,-332.05 280,-312.5 302.487,-303.156 325.527,-287.397 341.071,-275.672"/>
<polygon fill="#9a32cd" stroke="#9a32cd" points="132.575,-346.998 123.204,-351.941 133.612,-353.92 132.575,-346.998"/>
<text text-anchor="middle" x="213.5" y="-351.5" font-family="Helvetica,sans-Serif" font-size="10.00"> boundary_impulse_tracer_csp</text>
</g>
<!-- Node6 -->
<g id="node6" class="node"><title>Node6</title>
<polygon fill="white" stroke="#bfbfbf" points="16,-294.5 16,-324.5 113,-324.5 113,-294.5 16,-294.5"/>
<text text-anchor="start" x="24" y="-312.5" font-family="Helvetica,sans-Serif" font-size="10.00">type(oil_tracer_cs)</text>
<text text-anchor="middle" x="64.5" y="-301.5" font-family="Helvetica,sans-Serif" font-size="10.00">, pointer</text>
</g>
<!-- Node6&#45;&gt;Node1 -->
<g id="edge5" class="edge"><title>Node6&#45;&gt;Node1</title>
<path fill="none" stroke="#9a32cd" stroke-dasharray="5,2" d="M123.319,-300.786C166.532,-294.164 227.031,-284.662 280,-275.5 285.709,-274.513 291.641,-273.457 297.579,-272.38"/>
<polygon fill="#9a32cd" stroke="#9a32cd" points="122.629,-297.351 113.272,-302.322 123.686,-304.271 122.629,-297.351"/>
<text text-anchor="middle" x="213.5" y="-300.5" font-family="Helvetica,sans-Serif" font-size="10.00"> oil_tracer_csp</text>
</g>
<!-- Node7 -->
<g id="node7" class="node"><title>Node7</title>
<polygon fill="white" stroke="#bfbfbf" points="0,-245.5 0,-275.5 129,-275.5 129,-245.5 0,-245.5"/>
<text text-anchor="start" x="8" y="-263.5" font-family="Helvetica,sans-Serif" font-size="10.00">type(user_tracer_example</text>
<text text-anchor="middle" x="64.5" y="-252.5" font-family="Helvetica,sans-Serif" font-size="10.00">_cs), pointer</text>
</g>
<!-- Node7&#45;&gt;Node1 -->
<g id="edge6" class="edge"><title>Node7&#45;&gt;Node1</title>
<path fill="none" stroke="#9a32cd" stroke-dasharray="5,2" d="M139.237,-260.5C188.113,-260.5 251.524,-260.5 297.838,-260.5"/>
<polygon fill="#9a32cd" stroke="#9a32cd" points="139.04,-257 129.04,-260.5 139.04,-264 139.04,-257"/>
<text text-anchor="middle" x="213.5" y="-263.5" font-family="Helvetica,sans-Serif" font-size="10.00"> user_tracer_example_csp</text>
</g>
<!-- Node8 -->
<g id="node8" class="node"><title>Node8</title>
<polygon fill="white" stroke="#bfbfbf" points="11,-196.5 11,-226.5 118,-226.5 118,-196.5 11,-196.5"/>
<text text-anchor="start" x="19" y="-214.5" font-family="Helvetica,sans-Serif" font-size="10.00">type(ocmip2_cfc_cs)</text>
<text text-anchor="middle" x="64.5" y="-203.5" font-family="Helvetica,sans-Serif" font-size="10.00">, pointer</text>
</g>
<!-- Node8&#45;&gt;Node1 -->
<g id="edge7" class="edge"><title>Node8&#45;&gt;Node1</title>
<path fill="none" stroke="#9a32cd" stroke-dasharray="5,2" d="M128.014,-220.934C170.844,-227.514 228.923,-236.665 280,-245.5 285.709,-246.487 291.641,-247.543 297.579,-248.62"/>
<polygon fill="#9a32cd" stroke="#9a32cd" points="128.434,-217.458 118.019,-219.403 127.374,-224.377 128.434,-217.458"/>
<text text-anchor="middle" x="213.5" y="-248.5" font-family="Helvetica,sans-Serif" font-size="10.00"> ocmip2_cfc_csp</text>
</g>
<!-- Node9 -->
<g id="node9" class="node"><title>Node9</title>
<polygon fill="white" stroke="#bfbfbf" points="4,-147.5 4,-177.5 125,-177.5 125,-147.5 4,-147.5"/>
<text text-anchor="start" x="12" y="-165.5" font-family="Helvetica,sans-Serif" font-size="10.00">type(pseudo_salt_tracer</text>
<text text-anchor="middle" x="64.5" y="-154.5" font-family="Helvetica,sans-Serif" font-size="10.00">_cs), pointer</text>
</g>
<!-- Node9&#45;&gt;Node1 -->
<g id="edge8" class="edge"><title>Node9&#45;&gt;Node1</title>
<path fill="none" stroke="#9a32cd" stroke-dasharray="5,2" d="M135.513,-171.466C178.366,-178.494 233.677,-190.371 280,-209.5 302.227,-218.679 325.122,-233.976 340.693,-245.428"/>
<polygon fill="#9a32cd" stroke="#9a32cd" points="135.883,-167.981 125.457,-169.868 134.784,-174.894 135.883,-167.981"/>
<text text-anchor="middle" x="213.5" y="-212.5" font-family="Helvetica,sans-Serif" font-size="10.00"> pseudo_salt_tracer_csp</text>
</g>
<!-- Node10 -->
<g id="node10" class="node"><title>Node10</title>
<polygon fill="white" stroke="#bfbfbf" points="13.5,-98.5 13.5,-128.5 115.5,-128.5 115.5,-98.5 13.5,-98.5"/>
<text text-anchor="start" x="21.5" y="-116.5" font-family="Helvetica,sans-Serif" font-size="10.00">type(advection_test</text>
<text text-anchor="middle" x="64.5" y="-105.5" font-family="Helvetica,sans-Serif" font-size="10.00">_tracer_cs), pointer</text>
</g>
<!-- Node10&#45;&gt;Node1 -->
<g id="edge9" class="edge"><title>Node10&#45;&gt;Node1</title>
<path fill="none" stroke="#9a32cd" stroke-dasharray="5,2" d="M125.902,-115.578C171.285,-119.599 233.386,-130.53 280,-159.5 314.577,-180.99 340.425,-222.972 352.478,-245.448"/>
<polygon fill="#9a32cd" stroke="#9a32cd" points="126.152,-112.087 115.905,-114.779 125.595,-119.065 126.152,-112.087"/>
<text text-anchor="middle" x="213.5" y="-162.5" font-family="Helvetica,sans-Serif" font-size="10.00"> advection_test_tracer_csp</text>
</g>
<!-- Node11 -->
<g id="node11" class="node"><title>Node11</title>
<polygon fill="white" stroke="#bfbfbf" points="13,-49.5 13,-79.5 116,-79.5 116,-49.5 13,-49.5"/>
<text text-anchor="start" x="21" y="-67.5" font-family="Helvetica,sans-Serif" font-size="10.00">type(dye_tracer_cs)</text>
<text text-anchor="middle" x="64.5" y="-56.5" font-family="Helvetica,sans-Serif" font-size="10.00">, pointer</text>
</g>
<!-- Node11&#45;&gt;Node1 -->
<g id="edge10" class="edge"><title>Node11&#45;&gt;Node1</title>
<path fill="none" stroke="#9a32cd" stroke-dasharray="5,2" d="M126.643,-62.0209C172.97,-63.1925 235.954,-71.6612 280,-104.5 328.071,-140.34 349.532,-213.4 356.871,-245.172"/>
<polygon fill="#9a32cd" stroke="#9a32cd" points="126.482,-58.5183 116.432,-61.8729 126.381,-65.5175 126.482,-58.5183"/>
<text text-anchor="middle" x="213.5" y="-107.5" font-family="Helvetica,sans-Serif" font-size="10.00"> dye_tracer_csp</text>
</g>
<!-- Node12 -->
<g id="node12" class="node"><title>Node12</title>
<polygon fill="white" stroke="#bfbfbf" points="9,-0.5 9,-30.5 120,-30.5 120,-0.5 9,-0.5"/>
<text text-anchor="start" x="17" y="-18.5" font-family="Helvetica,sans-Serif" font-size="10.00">type(dome_tracer_cs)</text>
<text text-anchor="middle" x="64.5" y="-7.5" font-family="Helvetica,sans-Serif" font-size="10.00">, pointer</text>
</g>
<!-- Node12&#45;&gt;Node1 -->
<g id="edge11" class="edge"><title>Node12&#45;&gt;Node1</title>
<path fill="none" stroke="#9a32cd" stroke-dasharray="5,2" d="M130.72,-9.25332C177.183,-8.35634 238.507,-14.8567 280,-48.5 342.947,-99.5384 356.39,-205.712 359.24,-245.238"/>
<polygon fill="#9a32cd" stroke="#9a32cd" points="130.333,-5.76362 120.448,-9.57523 130.553,-12.7602 130.333,-5.76362"/>
<text text-anchor="middle" x="213.5" y="-51.5" font-family="Helvetica,sans-Serif" font-size="10.00"> dome_tracer_csp</text>
</g>
</g>
</svg>
