<?xml version="1.0" encoding="UTF-8" standalone="no"?>
<!DOCTYPE svg PUBLIC "-//W3C//DTD SVG 1.1//EN"
 "http://www.w3.org/Graphics/SVG/1.1/DTD/svg11.dtd">
<!-- Generated by graphviz version 2.38.0 (20140413.2041)
 -->
<!-- Title: mom_pressureforce_mont::pressureforce_mont_cs Pages: 1 -->
<svg width="455pt" height="161pt"
 viewBox="0.00 0.00 455.00 161.00" xmlns="http://www.w3.org/2000/svg" xmlns:xlink="http://www.w3.org/1999/xlink">
<g id="graph0" class="graph" transform="scale(1 1) rotate(0) translate(4 157)">
<title>mom_pressureforce_mont::pressureforce_mont_cs</title>
<polygon fill="white" stroke="none" points="-4,4 -4,-157 451,-157 451,4 -4,4"/>
<!-- Node1 -->
<g id="node1" class="node"><title>Node1</title>
<polygon fill="#bfbfbf" stroke="black" points="146,-0.5 146,-30.5 276,-30.5 276,-0.5 146,-0.5"/>
<text text-anchor="start" x="154" y="-18.5" font-family="Helvetica,sans-Serif" font-size="10.00">mom_pressureforce_mont</text>
<text text-anchor="middle" x="211" y="-7.5" font-family="Helvetica,sans-Serif" font-size="10.00">::pressureforce_mont_cs</text>
</g>
<!-- Node2 -->
<g id="node2" class="node"><title>Node2</title>
<polygon fill="white" stroke="#bfbfbf" points="0,-128 0,-147 44,-147 44,-128 0,-128"/>
<text text-anchor="middle" x="22" y="-135" font-family="Helvetica,sans-Serif" font-size="10.00">logical</text>
</g>
<!-- Node2&#45;&gt;Node1 -->
<g id="edge1" class="edge"><title>Node2&#45;&gt;Node1</title>
<path fill="none" stroke="#9a32cd" stroke-dasharray="5,2" d="M29.7871,-118.473C39.3797,-98.4356 57.5839,-66.5874 83,-49 101.382,-36.2799 124.329,-28.5347 145.698,-23.82"/>
<polygon fill="#9a32cd" stroke="#9a32cd" points="26.5274,-117.186 25.5632,-127.737 32.8966,-120.09 26.5274,-117.186"/>
<text text-anchor="middle" x="95.5" y="-74" font-family="Helvetica,sans-Serif" font-size="10.00"> tides</text>
</g>
<!-- Node3 -->
<g id="node3" class="node"><title>Node3</title>
<polygon fill="white" stroke="#bfbfbf" points="62.5,-128 62.5,-147 121.5,-147 121.5,-128 62.5,-128"/>
<text text-anchor="middle" x="92" y="-135" font-family="Helvetica,sans-Serif" font-size="10.00">time_type</text>
</g>
<!-- Node3&#45;&gt;Node1 -->
<g id="edge2" class="edge"><title>Node3&#45;&gt;Node1</title>
<path fill="none" stroke="#9a32cd" stroke-dasharray="5,2" d="M101.265,-119.081C112.014,-100.09 131.209,-69.6545 154,-49 161.85,-41.8858 171.519,-35.6514 180.649,-30.5964"/>
<polygon fill="#9a32cd" stroke="#9a32cd" points="98.1906,-117.408 96.4389,-127.857 104.324,-120.781 98.1906,-117.408"/>
<text text-anchor="middle" x="165" y="-74" font-family="Helvetica,sans-Serif" font-size="10.00"> time</text>
</g>
<!-- Node4 -->
<g id="node4" class="node"><title>Node4</title>
<polygon fill="white" stroke="#bfbfbf" points="139.5,-128 139.5,-147 192.5,-147 192.5,-128 139.5,-128"/>
<text text-anchor="middle" x="166" y="-135" font-family="Helvetica,sans-Serif" font-size="10.00">diag_ctrl</text>
</g>
<!-- Node4&#45;&gt;Node1 -->
<g id="edge3" class="edge"><title>Node4&#45;&gt;Node1</title>
<path fill="none" stroke="#9a32cd" stroke-dasharray="5,2" d="M172.853,-118.225C181.846,-94.2443 197.444,-52.6495 205.631,-30.8184"/>
<polygon fill="#9a32cd" stroke="#9a32cd" points="169.47,-117.278 169.236,-127.87 176.025,-119.736 169.47,-117.278"/>
<text text-anchor="middle" x="209" y="-74" font-family="Helvetica,sans-Serif" font-size="10.00"> diag</text>
</g>
<!-- Node5 -->
<g id="node5" class="node"><title>Node5</title>
<polygon fill="white" stroke="#bfbfbf" points="210.5,-122.5 210.5,-152.5 301.5,-152.5 301.5,-122.5 210.5,-122.5"/>
<text text-anchor="start" x="218.5" y="-140.5" font-family="Helvetica,sans-Serif" font-size="10.00">type(tidal_forcing</text>
<text text-anchor="middle" x="256" y="-129.5" font-family="Helvetica,sans-Serif" font-size="10.00">_cs), pointer</text>
</g>
<!-- Node5&#45;&gt;Node1 -->
<g id="edge4" class="edge"><title>Node5&#45;&gt;Node1</title>
<path fill="none" stroke="#9a32cd" stroke-dasharray="5,2" d="M247.514,-112.701C241.172,-95.0644 232.217,-70.4674 224,-49 221.697,-42.984 219.073,-36.3779 216.788,-30.7019"/>
<polygon fill="#9a32cd" stroke="#9a32cd" points="244.251,-113.972 250.92,-122.205 250.841,-111.61 244.251,-113.972"/>
<text text-anchor="middle" x="268" y="-74" font-family="Helvetica,sans-Serif" font-size="10.00"> tides_csp</text>
</g>
<!-- Node6 -->
<g id="node6" class="node"><title>Node6</title>
<polygon fill="white" stroke="#bfbfbf" points="320,-128 320,-147 366,-147 366,-128 320,-128"/>
<text text-anchor="middle" x="343" y="-135" font-family="Helvetica,sans-Serif" font-size="10.00">integer</text>
</g>
<!-- Node6&#45;&gt;Node1 -->
<g id="edge5" class="edge"><title>Node6&#45;&gt;Node1</title>
<path fill="none" stroke="#9a32cd" stroke-dasharray="5,2" d="M337.21,-118.163C330.154,-98.5621 316.449,-67.7784 295,-49 286.176,-41.2749 275.313,-35.2867 264.362,-30.6807"/>
<polygon fill="#9a32cd" stroke="#9a32cd" points="333.934,-119.402 340.453,-127.754 340.566,-117.16 333.934,-119.402"/>
<text text-anchor="middle" x="354.5" y="-85" font-family="Helvetica,sans-Serif" font-size="10.00"> id_e_tidal</text>
<text text-anchor="middle" x="354.5" y="-74" font-family="Helvetica,sans-Serif" font-size="10.00">id_pfv_bc</text>
<text text-anchor="middle" x="354.5" y="-63" font-family="Helvetica,sans-Serif" font-size="10.00">id_pfu_bc</text>
</g>
<!-- Node7 -->
<g id="node7" class="node"><title>Node7</title>
<polygon fill="white" stroke="#bfbfbf" points="389,-128 389,-147 421,-147 421,-128 389,-128"/>
<text text-anchor="middle" x="405" y="-135" font-family="Helvetica,sans-Serif" font-size="10.00">real</text>
</g>
<!-- Node7&#45;&gt;Node1 -->
<g id="edge6" class="edge"><title>Node7&#45;&gt;Node1</title>
<path fill="none" stroke="#9a32cd" stroke-dasharray="5,2" d="M405.289,-117.736C404.519,-97.7424 400.043,-66.5983 381,-49 365.773,-34.9282 317.563,-26.5834 276.354,-21.8803"/>
<polygon fill="#9a32cd" stroke="#9a32cd" points="401.789,-117.826 405.4,-127.787 408.789,-117.749 401.789,-117.826"/>
<text text-anchor="middle" x="425.5" y="-96" font-family="Helvetica,sans-Serif" font-size="10.00"> rho_atm</text>
<text text-anchor="middle" x="425.5" y="-85" font-family="Helvetica,sans-Serif" font-size="10.00">pfv_bc</text>
<text text-anchor="middle" x="425.5" y="-74" font-family="Helvetica,sans-Serif" font-size="10.00">pfu_bc</text>
<text text-anchor="middle" x="425.5" y="-63" font-family="Helvetica,sans-Serif" font-size="10.00">rho0</text>
<text text-anchor="middle" x="425.5" y="-52" font-family="Helvetica,sans-Serif" font-size="10.00">gfs_scale</text>
</g>
</g>
</svg>
