<?xml version="1.0" encoding="UTF-8" standalone="no"?>
<!DOCTYPE svg PUBLIC "-//W3C//DTD SVG 1.1//EN"
 "http://www.w3.org/Graphics/SVG/1.1/DTD/svg11.dtd">
<!-- Generated by graphviz version 2.38.0 (20140413.2041)
 -->
<!-- Title: mom_kpp::kpp_cs Pages: 1 -->
<svg width="368pt" height="587pt"
 viewBox="0.00 0.00 368.00 587.06" xmlns="http://www.w3.org/2000/svg" xmlns:xlink="http://www.w3.org/1999/xlink">
<g id="graph0" class="graph" transform="scale(1 1) rotate(0) translate(4 583.062)">
<title>mom_kpp::kpp_cs</title>
<polygon fill="white" stroke="none" points="-4,4 -4,-583.062 364,-583.062 364,4 -4,4"/>
<!-- Node1 -->
<g id="node1" class="node"><title>Node1</title>
<polygon fill="#bfbfbf" stroke="black" points="263,-327.562 263,-346.562 360,-346.562 360,-327.562 263,-327.562"/>
<text text-anchor="middle" x="311.5" y="-334.562" font-family="Helvetica,sans-Serif" font-size="10.00">mom_kpp::kpp_cs</text>
</g>
<!-- Node2 -->
<g id="node2" class="node"><title>Node2</title>
<polygon fill="white" stroke="#bfbfbf" points="39.5,-453.562 39.5,-472.562 83.5,-472.562 83.5,-453.562 39.5,-453.562"/>
<text text-anchor="middle" x="61.5" y="-460.562" font-family="Helvetica,sans-Serif" font-size="10.00">logical</text>
</g>
<!-- Node2&#45;&gt;Node1 -->
<g id="edge1" class="edge"><title>Node2&#45;&gt;Node1</title>
<path fill="none" stroke="#9a32cd" stroke-dasharray="5,2" d="M93.791,-462.886C132.26,-461.288 198.191,-453.933 245,-424.062 275.76,-404.433 297.368,-364.952 306.141,-346.709"/>
<polygon fill="#9a32cd" stroke="#9a32cd" points="93.5945,-459.391 83.7076,-463.199 93.8111,-466.387 93.5945,-459.391"/>
<text text-anchor="middle" x="193" y="-571.062" font-family="Helvetica,sans-Serif" font-size="10.00"> computemoninobukhov</text>
<text text-anchor="middle" x="193" y="-560.062" font-family="Helvetica,sans-Serif" font-size="10.00">kppzerodiffusivity</text>
<text text-anchor="middle" x="193" y="-549.062" font-family="Helvetica,sans-Serif" font-size="10.00">applynonlocaltrans</text>
<text text-anchor="middle" x="193" y="-538.062" font-family="Helvetica,sans-Serif" font-size="10.00">kppisadditive</text>
<text text-anchor="middle" x="193" y="-527.062" font-family="Helvetica,sans-Serif" font-size="10.00">computeekman</text>
<text text-anchor="middle" x="193" y="-516.062" font-family="Helvetica,sans-Serif" font-size="10.00">passivemode</text>
<text text-anchor="middle" x="193" y="-505.062" font-family="Helvetica,sans-Serif" font-size="10.00">correctsurflayeravg</text>
<text text-anchor="middle" x="193" y="-494.062" font-family="Helvetica,sans-Serif" font-size="10.00">fixedobldepth</text>
<text text-anchor="middle" x="193" y="-483.062" font-family="Helvetica,sans-Serif" font-size="10.00">debug</text>
<text text-anchor="middle" x="193" y="-472.062" font-family="Helvetica,sans-Serif" font-size="10.00">enhance_diffusion</text>
<text text-anchor="middle" x="193" y="-461.062" font-family="Helvetica,sans-Serif" font-size="10.00">...</text>
</g>
<!-- Node3 -->
<g id="node3" class="node"><title>Node3</title>
<polygon fill="white" stroke="#bfbfbf" points="0,-404.062 0,-434.062 123,-434.062 123,-404.062 0,-404.062"/>
<text text-anchor="start" x="8" y="-422.062" font-family="Helvetica,sans-Serif" font-size="10.00">type(cvmix_kpp_params</text>
<text text-anchor="middle" x="61.5" y="-411.062" font-family="Helvetica,sans-Serif" font-size="10.00">_type), pointer</text>
</g>
<!-- Node3&#45;&gt;Node1 -->
<g id="edge2" class="edge"><title>Node3&#45;&gt;Node1</title>
<path fill="none" stroke="#9a32cd" stroke-dasharray="5,2" d="M133.057,-410.866C167.731,-405.229 209.571,-395.974 245,-381.062 265.707,-372.346 286.764,-356.74 299.225,-346.648"/>
<polygon fill="#9a32cd" stroke="#9a32cd" points="132.353,-407.434 123.011,-412.432 133.431,-414.35 132.353,-407.434"/>
<text text-anchor="middle" x="193" y="-412.062" font-family="Helvetica,sans-Serif" font-size="10.00"> kpp_params</text>
</g>
<!-- Node4 -->
<g id="node4" class="node"><title>Node4</title>
<polygon fill="white" stroke="#bfbfbf" points="15.5,-365.562 15.5,-384.562 107.5,-384.562 107.5,-365.562 15.5,-365.562"/>
<text text-anchor="middle" x="61.5" y="-372.562" font-family="Helvetica,sans-Serif" font-size="10.00">character(len=10)</text>
</g>
<!-- Node4&#45;&gt;Node1 -->
<g id="edge3" class="edge"><title>Node4&#45;&gt;Node1</title>
<path fill="none" stroke="#9a32cd" stroke-dasharray="5,2" d="M118.06,-369.516C154.331,-365.537 202.642,-359.562 245,-352.062 253.73,-350.516 263.05,-348.566 271.839,-346.588"/>
<polygon fill="#9a32cd" stroke="#9a32cd" points="117.255,-366.082 107.688,-370.635 118.006,-373.042 117.255,-366.082"/>
<text text-anchor="middle" x="193" y="-369.062" font-family="Helvetica,sans-Serif" font-size="10.00"> interptype</text>
</g>
<!-- Node5 -->
<g id="node5" class="node"><title>Node5</title>
<polygon fill="white" stroke="#bfbfbf" points="35,-327.562 35,-346.562 88,-346.562 88,-327.562 35,-327.562"/>
<text text-anchor="middle" x="61.5" y="-334.562" font-family="Helvetica,sans-Serif" font-size="10.00">diag_ctrl</text>
</g>
<!-- Node5&#45;&gt;Node1 -->
<g id="edge4" class="edge"><title>Node5&#45;&gt;Node1</title>
<path fill="none" stroke="#9a32cd" stroke-dasharray="5,2" d="M98.1649,-337.062C141.411,-337.062 214.474,-337.062 262.6,-337.062"/>
<polygon fill="#9a32cd" stroke="#9a32cd" points="98.1063,-333.562 88.1063,-337.062 98.1062,-340.562 98.1063,-333.562"/>
<text text-anchor="middle" x="193" y="-340.062" font-family="Helvetica,sans-Serif" font-size="10.00"> diag</text>
</g>
<!-- Node6 -->
<g id="node6" class="node"><title>Node6</title>
<polygon fill="white" stroke="#bfbfbf" points="15.5,-289.562 15.5,-308.562 107.5,-308.562 107.5,-289.562 15.5,-289.562"/>
<text text-anchor="middle" x="61.5" y="-296.562" font-family="Helvetica,sans-Serif" font-size="10.00">character(len=30)</text>
</g>
<!-- Node6&#45;&gt;Node1 -->
<g id="edge5" class="edge"><title>Node6&#45;&gt;Node1</title>
<path fill="none" stroke="#9a32cd" stroke-dasharray="5,2" d="M118.06,-304.608C154.331,-308.587 202.642,-314.562 245,-322.062 253.73,-323.608 263.05,-325.558 271.839,-327.536"/>
<polygon fill="#9a32cd" stroke="#9a32cd" points="118.006,-301.082 107.688,-303.489 117.255,-308.042 118.006,-301.082"/>
<text text-anchor="middle" x="193" y="-325.062" font-family="Helvetica,sans-Serif" font-size="10.00"> matchtechnique</text>
</g>
<!-- Node7 -->
<g id="node7" class="node"><title>Node7</title>
<polygon fill="white" stroke="#bfbfbf" points="38.5,-149.562 38.5,-168.562 84.5,-168.562 84.5,-149.562 38.5,-149.562"/>
<text text-anchor="middle" x="61.5" y="-156.562" font-family="Helvetica,sans-Serif" font-size="10.00">integer</text>
</g>
<!-- Node7&#45;&gt;Node1 -->
<g id="edge6" class="edge"><title>Node7&#45;&gt;Node1</title>
<path fill="none" stroke="#9a32cd" stroke-dasharray="5,2" d="M94.8959,-154.103C134.433,-149.909 201.392,-149.036 245,-182.062 293.907,-219.1 306.652,-299.674 309.653,-327.434"/>
<polygon fill="#9a32cd" stroke="#9a32cd" points="94.2654,-150.653 84.7519,-155.316 95.0969,-157.604 94.2654,-150.653"/>
<text text-anchor="middle" x="193" y="-295.062" font-family="Helvetica,sans-Serif" font-size="10.00"> id_nltt</text>
<text text-anchor="middle" x="193" y="-284.062" font-family="Helvetica,sans-Serif" font-size="10.00">nlt_shape</text>
<text text-anchor="middle" x="193" y="-273.062" font-family="Helvetica,sans-Serif" font-size="10.00">id_nlt_dsdt</text>
<text text-anchor="middle" x="193" y="-262.062" font-family="Helvetica,sans-Serif" font-size="10.00">id_vt2</text>
<text text-anchor="middle" x="193" y="-251.062" font-family="Helvetica,sans-Serif" font-size="10.00">sw_method</text>
<text text-anchor="middle" x="193" y="-240.062" font-family="Helvetica,sans-Serif" font-size="10.00">id_bulkuz2</text>
<text text-anchor="middle" x="193" y="-229.062" font-family="Helvetica,sans-Serif" font-size="10.00">id_n2</text>
<text text-anchor="middle" x="193" y="-218.062" font-family="Helvetica,sans-Serif" font-size="10.00">id_bulkri</text>
<text text-anchor="middle" x="193" y="-207.062" font-family="Helvetica,sans-Serif" font-size="10.00">id_bulkdrho</text>
<text text-anchor="middle" x="193" y="-196.062" font-family="Helvetica,sans-Serif" font-size="10.00">id_ks_kpp</text>
<text text-anchor="middle" x="193" y="-185.062" font-family="Helvetica,sans-Serif" font-size="10.00">...</text>
</g>
<!-- Node8 -->
<g id="node8" class="node"><title>Node8</title>
<polygon fill="white" stroke="#bfbfbf" points="45.5,-5.56186 45.5,-24.5619 77.5,-24.5619 77.5,-5.56186 45.5,-5.56186"/>
<text text-anchor="middle" x="61.5" y="-12.5619" font-family="Helvetica,sans-Serif" font-size="10.00">real</text>
</g>
<!-- Node8&#45;&gt;Node1 -->
<g id="edge7" class="edge"><title>Node8&#45;&gt;Node1</title>
<path fill="none" stroke="#9a32cd" stroke-dasharray="5,2" d="M87.6914,-8.35567C126.523,0.324881 201.101,10.1709 245,-28.0619 291.833,-68.8491 307.067,-279.35 309.957,-327.323"/>
<polygon fill="#9a32cd" stroke="#9a32cd" points="86.6551,-5.00465 77.7419,-10.7322 88.2814,-11.8131 86.6551,-5.00465"/>
<text text-anchor="middle" x="193" y="-141.062" font-family="Helvetica,sans-Serif" font-size="10.00"> minvtsqr</text>
<text text-anchor="middle" x="193" y="-130.062" font-family="Helvetica,sans-Serif" font-size="10.00">cs2</text>
<text text-anchor="middle" x="193" y="-119.062" font-family="Helvetica,sans-Serif" font-size="10.00">vt2</text>
<text text-anchor="middle" x="193" y="-108.062" font-family="Helvetica,sans-Serif" font-size="10.00">minobldepth</text>
<text text-anchor="middle" x="193" y="-97.0619" font-family="Helvetica,sans-Serif" font-size="10.00">ssurf</text>
<text text-anchor="middle" x="193" y="-86.0619" font-family="Helvetica,sans-Serif" font-size="10.00">ks_kpp</text>
<text text-anchor="middle" x="193" y="-75.0619" font-family="Helvetica,sans-Serif" font-size="10.00">tsurf</text>
<text text-anchor="middle" x="193" y="-64.0619" font-family="Helvetica,sans-Serif" font-size="10.00">kt_kpp</text>
<text text-anchor="middle" x="193" y="-53.0619" font-family="Helvetica,sans-Serif" font-size="10.00">drho</text>
<text text-anchor="middle" x="193" y="-42.0619" font-family="Helvetica,sans-Serif" font-size="10.00">usurf</text>
<text text-anchor="middle" x="193" y="-31.0619" font-family="Helvetica,sans-Serif" font-size="10.00">...</text>
</g>
</g>
</svg>
