<?xml version="1.0" encoding="UTF-8" standalone="no"?>
<!DOCTYPE svg PUBLIC "-//W3C//DTD SVG 1.1//EN"
 "http://www.w3.org/Graphics/SVG/1.1/DTD/svg11.dtd">
<!-- Generated by graphviz version 2.38.0 (20140413.2041)
 -->
<!-- Title: mom_dynamics_legacy_split::mom_dyn_legacy_split_cs Pages: 1 -->
<svg width="372pt" height="1076pt"
 viewBox="0.00 0.00 372.00 1076.13" xmlns="http://www.w3.org/2000/svg" xmlns:xlink="http://www.w3.org/1999/xlink">
<g id="graph0" class="graph" transform="scale(1 1) rotate(0) translate(4 1072.13)">
<title>mom_dynamics_legacy_split::mom_dyn_legacy_split_cs</title>
<polygon fill="white" stroke="none" points="-4,4 -4,-1072.13 368,-1072.13 368,4 -4,4"/>
<!-- Node1 -->
<g id="node1" class="node"><title>Node1</title>
<polygon fill="#bfbfbf" stroke="black" points="242,-577.632 242,-618.632 364,-618.632 364,-577.632 242,-577.632"/>
<text text-anchor="start" x="250" y="-606.632" font-family="Helvetica,sans-Serif" font-size="10.00">mom_dynamics_legacy</text>
<text text-anchor="start" x="250" y="-595.632" font-family="Helvetica,sans-Serif" font-size="10.00">_split::mom_dyn_legacy</text>
<text text-anchor="middle" x="303" y="-584.632" font-family="Helvetica,sans-Serif" font-size="10.00">_split_cs</text>
</g>
<!-- Node2 -->
<g id="node2" class="node"><title>Node2</title>
<polygon fill="white" stroke="#bfbfbf" points="5,-1039.63 5,-1058.63 110,-1058.63 110,-1039.63 5,-1039.63"/>
<text text-anchor="middle" x="57.5" y="-1046.63" font-family="Helvetica,sans-Serif" font-size="10.00">type(ale_cs), pointer</text>
</g>
<!-- Node2&#45;&gt;Node1 -->
<g id="edge1" class="edge"><title>Node2&#45;&gt;Node1</title>
<path fill="none" stroke="#9a32cd" stroke-dasharray="5,2" d="M120.103,-1057.3C154.968,-1058.34 196.887,-1052.98 224,-1027.13 283.994,-969.933 298.425,-696.644 301.343,-618.841"/>
<polygon fill="#9a32cd" stroke="#9a32cd" points="120.16,-1053.8 110.006,-1056.83 119.829,-1060.8 120.16,-1053.8"/>
<text text-anchor="middle" x="178.5" y="-1060.13" font-family="Helvetica,sans-Serif" font-size="10.00"> ale_csp</text>
</g>
<!-- Node3 -->
<g id="node3" class="node"><title>Node3</title>
<polygon fill="white" stroke="#bfbfbf" points="35.5,-930.632 35.5,-949.632 79.5,-949.632 79.5,-930.632 35.5,-930.632"/>
<text text-anchor="middle" x="57.5" y="-937.632" font-family="Helvetica,sans-Serif" font-size="10.00">logical</text>
</g>
<!-- Node3&#45;&gt;Node1 -->
<g id="edge2" class="edge"><title>Node3&#45;&gt;Node1</title>
<path fill="none" stroke="#9a32cd" stroke-dasharray="5,2" d="M89.6283,-939.651C132.017,-938.34 204.827,-933.538 224,-916.132 268.718,-875.534 292.942,-683.224 299.882,-619.04"/>
<polygon fill="#9a32cd" stroke="#9a32cd" points="89.463,-936.154 79.5582,-939.915 89.6464,-943.152 89.463,-936.154"/>
<text text-anchor="middle" x="178.5" y="-1017.13" font-family="Helvetica,sans-Serif" font-size="10.00"> flux_bt_coupling</text>
<text text-anchor="middle" x="178.5" y="-1006.13" font-family="Helvetica,sans-Serif" font-size="10.00">calc_dtbt</text>
<text text-anchor="middle" x="178.5" y="-995.132" font-family="Helvetica,sans-Serif" font-size="10.00">bt_use_layer_fluxes</text>
<text text-anchor="middle" x="178.5" y="-984.132" font-family="Helvetica,sans-Serif" font-size="10.00">readjust_velocity</text>
<text text-anchor="middle" x="178.5" y="-973.132" font-family="Helvetica,sans-Serif" font-size="10.00">readjust_bt_trans</text>
<text text-anchor="middle" x="178.5" y="-962.132" font-family="Helvetica,sans-Serif" font-size="10.00">split_bottom_stress</text>
<text text-anchor="middle" x="178.5" y="-951.132" font-family="Helvetica,sans-Serif" font-size="10.00">debug</text>
<text text-anchor="middle" x="178.5" y="-940.132" font-family="Helvetica,sans-Serif" font-size="10.00">module_is_initialized</text>
</g>
<!-- Node4 -->
<g id="node4" class="node"><title>Node4</title>
<polygon fill="white" stroke="#bfbfbf" points="13.5,-892.632 13.5,-911.632 101.5,-911.632 101.5,-892.632 13.5,-892.632"/>
<text text-anchor="middle" x="57.5" y="-899.632" font-family="Helvetica,sans-Serif" font-size="10.00">ocean_obc_type</text>
</g>
<!-- Node4&#45;&gt;Node1 -->
<g id="edge3" class="edge"><title>Node4&#45;&gt;Node1</title>
<path fill="none" stroke="#9a32cd" stroke-dasharray="5,2" d="M111.963,-905.398C147.916,-904.652 194.039,-897.559 224,-870.132 297.921,-802.464 303.561,-669.919 302.803,-618.865"/>
<polygon fill="#9a32cd" stroke="#9a32cd" points="111.623,-901.899 101.639,-905.446 111.656,-908.899 111.623,-901.899"/>
<text text-anchor="middle" x="178.5" y="-907.132" font-family="Helvetica,sans-Serif" font-size="10.00"> obc</text>
</g>
<!-- Node5 -->
<g id="node5" class="node"><title>Node5</title>
<polygon fill="white" stroke="#bfbfbf" points="0,-843.132 0,-873.132 115,-873.132 115,-843.132 0,-843.132"/>
<text text-anchor="start" x="8" y="-861.132" font-family="Helvetica,sans-Serif" font-size="10.00">type(legacy_barotropic</text>
<text text-anchor="middle" x="57.5" y="-850.132" font-family="Helvetica,sans-Serif" font-size="10.00">_cs), pointer</text>
</g>
<!-- Node5&#45;&gt;Node1 -->
<g id="edge4" class="edge"><title>Node5&#45;&gt;Node1</title>
<path fill="none" stroke="#9a32cd" stroke-dasharray="5,2" d="M125.496,-856.981C158.713,-853.08 197.322,-843.077 224,-819.132 283.954,-765.32 297.827,-662.545 301.035,-618.737"/>
<polygon fill="#9a32cd" stroke="#9a32cd" points="124.976,-853.516 115.379,-858.004 125.68,-860.48 124.976,-853.516"/>
<text text-anchor="middle" x="178.5" y="-858.132" font-family="Helvetica,sans-Serif" font-size="10.00"> barotropic_csp</text>
</g>
<!-- Node6 -->
<g id="node6" class="node"><title>Node6</title>
<polygon fill="white" stroke="#bfbfbf" points="9,-794.132 9,-824.132 106,-824.132 106,-794.132 9,-794.132"/>
<text text-anchor="start" x="17" y="-812.132" font-family="Helvetica,sans-Serif" font-size="10.00">type(set_visc_cs),</text>
<text text-anchor="middle" x="57.5" y="-801.132" font-family="Helvetica,sans-Serif" font-size="10.00"> pointer</text>
</g>
<!-- Node6&#45;&gt;Node1 -->
<g id="edge5" class="edge"><title>Node6&#45;&gt;Node1</title>
<path fill="none" stroke="#9a32cd" stroke-dasharray="5,2" d="M116.213,-807.133C150.865,-803.173 193.914,-793.051 224,-768.132 271.39,-728.88 291.361,-654.588 298.538,-618.64"/>
<polygon fill="#9a32cd" stroke="#9a32cd" points="115.819,-803.655 106.218,-808.134 116.517,-810.62 115.819,-803.655"/>
<text text-anchor="middle" x="178.5" y="-807.132" font-family="Helvetica,sans-Serif" font-size="10.00"> set_visc_csp</text>
</g>
<!-- Node7 -->
<g id="node7" class="node"><title>Node7</title>
<polygon fill="white" stroke="#bfbfbf" points="10,-745.132 10,-775.132 105,-775.132 105,-745.132 10,-745.132"/>
<text text-anchor="start" x="18" y="-763.132" font-family="Helvetica,sans-Serif" font-size="10.00">type(vertvisc_cs),</text>
<text text-anchor="middle" x="57.5" y="-752.132" font-family="Helvetica,sans-Serif" font-size="10.00"> pointer</text>
</g>
<!-- Node7&#45;&gt;Node1 -->
<g id="edge6" class="edge"><title>Node7&#45;&gt;Node1</title>
<path fill="none" stroke="#9a32cd" stroke-dasharray="5,2" d="M115.443,-756.087C149.567,-751.275 192.33,-740.812 224,-718.132 259.353,-692.814 282.821,-646.035 294.133,-618.966"/>
<polygon fill="#9a32cd" stroke="#9a32cd" points="114.625,-752.663 105.152,-757.406 115.516,-759.606 114.625,-752.663"/>
<text text-anchor="middle" x="178.5" y="-756.132" font-family="Helvetica,sans-Serif" font-size="10.00"> vertvisc_csp</text>
</g>
<!-- Node8 -->
<g id="node8" class="node"><title>Node8</title>
<polygon fill="white" stroke="#bfbfbf" points="17.5,-706.632 17.5,-725.632 97.5,-725.632 97.5,-706.632 17.5,-706.632"/>
<text text-anchor="middle" x="57.5" y="-713.632" font-family="Helvetica,sans-Serif" font-size="10.00">cont_diag_ptrs</text>
</g>
<!-- Node8&#45;&gt;Node1 -->
<g id="edge7" class="edge"><title>Node8&#45;&gt;Node1</title>
<path fill="none" stroke="#9a32cd" stroke-dasharray="5,2" d="M107.88,-709.176C142.098,-702.849 187.828,-691.313 224,-671.132 248.133,-657.668 270.597,-635.147 285.16,-618.674"/>
<polygon fill="#9a32cd" stroke="#9a32cd" points="106.895,-705.795 97.6528,-710.976 108.108,-712.689 106.895,-705.795"/>
<text text-anchor="middle" x="178.5" y="-706.132" font-family="Helvetica,sans-Serif" font-size="10.00"> cdp</text>
</g>
<!-- Node9 -->
<g id="node9" class="node"><title>Node9</title>
<polygon fill="white" stroke="#bfbfbf" points="9,-657.132 9,-687.132 106,-687.132 106,-657.132 9,-657.132"/>
<text text-anchor="start" x="17" y="-675.132" font-family="Helvetica,sans-Serif" font-size="10.00">type(hor_visc_cs),</text>
<text text-anchor="middle" x="57.5" y="-664.132" font-family="Helvetica,sans-Serif" font-size="10.00"> pointer</text>
</g>
<!-- Node9&#45;&gt;Node1 -->
<g id="edge8" class="edge"><title>Node9&#45;&gt;Node1</title>
<path fill="none" stroke="#9a32cd" stroke-dasharray="5,2" d="M116.191,-659.597C148.257,-652.106 188.694,-641.79 224,-630.132 234.146,-626.782 244.848,-622.74 254.964,-618.674"/>
<polygon fill="#9a32cd" stroke="#9a32cd" points="115.048,-656.269 106.091,-661.928 116.622,-663.089 115.048,-656.269"/>
<text text-anchor="middle" x="178.5" y="-659.132" font-family="Helvetica,sans-Serif" font-size="10.00"> hor_visc_csp</text>
</g>
<!-- Node10 -->
<g id="node10" class="node"><title>Node10</title>
<polygon fill="white" stroke="#bfbfbf" points="8,-608.132 8,-638.132 107,-638.132 107,-608.132 8,-608.132"/>
<text text-anchor="start" x="16" y="-626.132" font-family="Helvetica,sans-Serif" font-size="10.00">type(continuity_cs)</text>
<text text-anchor="middle" x="57.5" y="-615.132" font-family="Helvetica,sans-Serif" font-size="10.00">, pointer</text>
</g>
<!-- Node10&#45;&gt;Node1 -->
<g id="edge9" class="edge"><title>Node10&#45;&gt;Node1</title>
<path fill="none" stroke="#9a32cd" stroke-dasharray="5,2" d="M117.502,-617.074C155.162,-613.208 203.844,-608.209 241.744,-604.318"/>
<polygon fill="#9a32cd" stroke="#9a32cd" points="116.781,-613.63 107.191,-618.133 117.496,-620.593 116.781,-613.63"/>
<text text-anchor="middle" x="178.5" y="-618.132" font-family="Helvetica,sans-Serif" font-size="10.00"> continuity_csp</text>
</g>
<!-- Node11 -->
<g id="node11" class="node"><title>Node11</title>
<polygon fill="white" stroke="#bfbfbf" points="7,-559.132 7,-589.132 108,-589.132 108,-559.132 7,-559.132"/>
<text text-anchor="start" x="15" y="-577.132" font-family="Helvetica,sans-Serif" font-size="10.00">type(bt_cont_type),</text>
<text text-anchor="middle" x="57.5" y="-566.132" font-family="Helvetica,sans-Serif" font-size="10.00"> pointer</text>
</g>
<!-- Node11&#45;&gt;Node1 -->
<g id="edge10" class="edge"><title>Node11&#45;&gt;Node1</title>
<path fill="none" stroke="#9a32cd" stroke-dasharray="5,2" d="M118.462,-579.844C149.895,-582.86 189.031,-586.648 224,-590.132 229.825,-590.712 235.893,-591.323 241.959,-591.938"/>
<polygon fill="#9a32cd" stroke="#9a32cd" points="118.403,-576.322 108.115,-578.852 117.735,-583.29 118.403,-576.322"/>
<text text-anchor="middle" x="178.5" y="-593.132" font-family="Helvetica,sans-Serif" font-size="10.00"> bt_cont</text>
</g>
<!-- Node12 -->
<g id="node12" class="node"><title>Node12</title>
<polygon fill="white" stroke="#bfbfbf" points="4,-510.132 4,-540.132 111,-540.132 111,-510.132 4,-510.132"/>
<text text-anchor="start" x="12" y="-528.132" font-family="Helvetica,sans-Serif" font-size="10.00">type(update_obc_cs)</text>
<text text-anchor="middle" x="57.5" y="-517.132" font-family="Helvetica,sans-Serif" font-size="10.00">, pointer</text>
</g>
<!-- Node12&#45;&gt;Node1 -->
<g id="edge11" class="edge"><title>Node12&#45;&gt;Node1</title>
<path fill="none" stroke="#9a32cd" stroke-dasharray="5,2" d="M121.046,-538.978C152.252,-546.398 190.412,-556.246 224,-567.132 233.426,-570.187 243.348,-573.806 252.837,-577.474"/>
<polygon fill="#9a32cd" stroke="#9a32cd" points="121.708,-535.539 111.173,-536.657 120.106,-542.353 121.708,-535.539"/>
<text text-anchor="middle" x="178.5" y="-570.132" font-family="Helvetica,sans-Serif" font-size="10.00"> update_obc_csp</text>
</g>
<!-- Node13 -->
<g id="node13" class="node"><title>Node13</title>
<polygon fill="white" stroke="#bfbfbf" points="5.5,-461.132 5.5,-491.132 109.5,-491.132 109.5,-461.132 5.5,-461.132"/>
<text text-anchor="start" x="13.5" y="-479.132" font-family="Helvetica,sans-Serif" font-size="10.00">type(coriolisadv_cs)</text>
<text text-anchor="middle" x="57.5" y="-468.132" font-family="Helvetica,sans-Serif" font-size="10.00">, pointer</text>
</g>
<!-- Node13&#45;&gt;Node1 -->
<g id="edge12" class="edge"><title>Node13&#45;&gt;Node1</title>
<path fill="none" stroke="#9a32cd" stroke-dasharray="5,2" d="M119.48,-488.663C151.899,-496.926 191.63,-509.687 224,-528.132 246.923,-541.193 268.902,-561.916 283.653,-577.43"/>
<polygon fill="#9a32cd" stroke="#9a32cd" points="120.217,-485.24 109.67,-486.241 118.54,-492.036 120.217,-485.24"/>
<text text-anchor="middle" x="178.5" y="-531.132" font-family="Helvetica,sans-Serif" font-size="10.00"> coriolisadv_csp</text>
</g>
<!-- Node14 -->
<g id="node14" class="node"><title>Node14</title>
<polygon fill="white" stroke="#bfbfbf" points="31,-422.632 31,-441.632 84,-441.632 84,-422.632 31,-422.632"/>
<text text-anchor="middle" x="57.5" y="-429.632" font-family="Helvetica,sans-Serif" font-size="10.00">diag_ctrl</text>
</g>
<!-- Node14&#45;&gt;Node1 -->
<g id="edge13" class="edge"><title>Node14&#45;&gt;Node1</title>
<path fill="none" stroke="#9a32cd" stroke-dasharray="5,2" d="M94.1867,-435.012C130.025,-439.46 185.333,-450.722 224,-479.132 258.837,-504.727 282.495,-550.938 293.978,-577.618"/>
<polygon fill="#9a32cd" stroke="#9a32cd" points="94.5066,-431.526 84.1775,-433.884 93.7226,-438.482 94.5066,-431.526"/>
<text text-anchor="middle" x="178.5" y="-482.132" font-family="Helvetica,sans-Serif" font-size="10.00"> diag</text>
</g>
<!-- Node15 -->
<g id="node15" class="node"><title>Node15</title>
<polygon fill="white" stroke="#bfbfbf" points="12,-373.132 12,-403.132 103,-403.132 103,-373.132 12,-373.132"/>
<text text-anchor="start" x="20" y="-391.132" font-family="Helvetica,sans-Serif" font-size="10.00">type(tidal_forcing</text>
<text text-anchor="middle" x="57.5" y="-380.132" font-family="Helvetica,sans-Serif" font-size="10.00">_cs), pointer</text>
</g>
<!-- Node15&#45;&gt;Node1 -->
<g id="edge14" class="edge"><title>Node15&#45;&gt;Node1</title>
<path fill="none" stroke="#9a32cd" stroke-dasharray="5,2" d="M113.344,-389.047C148.45,-392.304 193.052,-401.738 224,-427.132 271.802,-466.355 291.574,-541.208 298.621,-577.45"/>
<polygon fill="#9a32cd" stroke="#9a32cd" points="113.491,-385.548 103.248,-388.254 112.943,-392.526 113.491,-385.548"/>
<text text-anchor="middle" x="178.5" y="-430.132" font-family="Helvetica,sans-Serif" font-size="10.00"> tides_csp</text>
</g>
<!-- Node16 -->
<g id="node16" class="node"><title>Node16</title>
<polygon fill="white" stroke="#bfbfbf" points="8.5,-324.132 8.5,-354.132 106.5,-354.132 106.5,-324.132 8.5,-324.132"/>
<text text-anchor="start" x="16.5" y="-342.132" font-family="Helvetica,sans-Serif" font-size="10.00">type(pressureforce</text>
<text text-anchor="middle" x="57.5" y="-331.132" font-family="Helvetica,sans-Serif" font-size="10.00">_cs), pointer</text>
</g>
<!-- Node16&#45;&gt;Node1 -->
<g id="edge15" class="edge"><title>Node16&#45;&gt;Node1</title>
<path fill="none" stroke="#9a32cd" stroke-dasharray="5,2" d="M116.621,-346.457C157.696,-352.726 208.15,-362.988 224,-377.132 284.108,-430.772 297.896,-533.641 301.059,-577.5"/>
<polygon fill="#9a32cd" stroke="#9a32cd" points="117.081,-342.987 106.677,-344.988 116.058,-349.912 117.081,-342.987"/>
<text text-anchor="middle" x="178.5" y="-380.132" font-family="Helvetica,sans-Serif" font-size="10.00"> pressureforce_csp</text>
</g>
<!-- Node17 -->
<g id="node17" class="node"><title>Node17</title>
<polygon fill="white" stroke="#bfbfbf" points="34.5,-215.632 34.5,-234.632 80.5,-234.632 80.5,-215.632 34.5,-215.632"/>
<text text-anchor="middle" x="57.5" y="-222.632" font-family="Helvetica,sans-Serif" font-size="10.00">integer</text>
</g>
<!-- Node17&#45;&gt;Node1 -->
<g id="edge16" class="edge"><title>Node17&#45;&gt;Node1</title>
<path fill="none" stroke="#9a32cd" stroke-dasharray="5,2" d="M90.3209,-214.375C126.836,-204.226 186.495,-194.658 224,-225.132 279.582,-270.293 296.939,-505.843 300.972,-577.457"/>
<polygon fill="#9a32cd" stroke="#9a32cd" points="89.2747,-211.035 80.6731,-217.22 91.2548,-217.749 89.2747,-211.035"/>
<text text-anchor="middle" x="178.5" y="-338.132" font-family="Helvetica,sans-Serif" font-size="10.00"> id_vh</text>
<text text-anchor="middle" x="178.5" y="-327.132" font-family="Helvetica,sans-Serif" font-size="10.00">id_cau</text>
<text text-anchor="middle" x="178.5" y="-316.132" font-family="Helvetica,sans-Serif" font-size="10.00">id_uh</text>
<text text-anchor="middle" x="178.5" y="-305.132" font-family="Helvetica,sans-Serif" font-size="10.00">id_du_adj</text>
<text text-anchor="middle" x="178.5" y="-294.132" font-family="Helvetica,sans-Serif" font-size="10.00">id_cav</text>
<text text-anchor="middle" x="178.5" y="-283.132" font-family="Helvetica,sans-Serif" font-size="10.00">id_dv_adj</text>
<text text-anchor="middle" x="178.5" y="-272.132" font-family="Helvetica,sans-Serif" font-size="10.00">id_uav</text>
<text text-anchor="middle" x="178.5" y="-261.132" font-family="Helvetica,sans-Serif" font-size="10.00">id_dv_adj2</text>
<text text-anchor="middle" x="178.5" y="-250.132" font-family="Helvetica,sans-Serif" font-size="10.00">id_vav</text>
<text text-anchor="middle" x="178.5" y="-239.132" font-family="Helvetica,sans-Serif" font-size="10.00">id_du_adj2</text>
<text text-anchor="middle" x="178.5" y="-228.132" font-family="Helvetica,sans-Serif" font-size="10.00">...</text>
</g>
<!-- Node18 -->
<g id="node18" class="node"><title>Node18</title>
<polygon fill="white" stroke="#bfbfbf" points="41.5,-49.6318 41.5,-68.6318 73.5,-68.6318 73.5,-49.6318 41.5,-49.6318"/>
<text text-anchor="middle" x="57.5" y="-56.6318" font-family="Helvetica,sans-Serif" font-size="10.00">real</text>
</g>
<!-- Node18&#45;&gt;Node1 -->
<g id="edge17" class="edge"><title>Node18&#45;&gt;Node1</title>
<path fill="none" stroke="#9a32cd" stroke-dasharray="5,2" d="M83.1352,-50.0082C118.81,-38.5574 184.856,-24.2357 224,-58.1318 304.021,-127.425 303.77,-487.32 302.417,-577.582"/>
<polygon fill="#9a32cd" stroke="#9a32cd" points="81.8626,-46.7438 73.5134,-53.2661 84.1076,-53.374 81.8626,-46.7438"/>
<text text-anchor="middle" x="178.5" y="-193.132" font-family="Helvetica,sans-Serif" font-size="10.00"> cau</text>
<text text-anchor="middle" x="178.5" y="-182.132" font-family="Helvetica,sans-Serif" font-size="10.00">cav</text>
<text text-anchor="middle" x="178.5" y="-171.132" font-family="Helvetica,sans-Serif" font-size="10.00">begw</text>
<text text-anchor="middle" x="178.5" y="-160.132" font-family="Helvetica,sans-Serif" font-size="10.00">be</text>
<text text-anchor="middle" x="178.5" y="-149.132" font-family="Helvetica,sans-Serif" font-size="10.00">eta_pf</text>
<text text-anchor="start" x="158.5" y="-138.132" font-family="Helvetica,sans-Serif" font-size="10.00">allocable</text>
<text text-anchor="middle" x="178.5" y="-127.132" font-family="Helvetica,sans-Serif" font-size="10.00">_</text>
<text text-anchor="middle" x="178.5" y="-116.132" font-family="Helvetica,sans-Serif" font-size="10.00">vhbt</text>
<text text-anchor="start" x="158.5" y="-105.132" font-family="Helvetica,sans-Serif" font-size="10.00">visc_rem</text>
<text text-anchor="middle" x="178.5" y="-94.1318" font-family="Helvetica,sans-Serif" font-size="10.00">_u</text>
<text text-anchor="middle" x="178.5" y="-83.1318" font-family="Helvetica,sans-Serif" font-size="10.00">pbce</text>
<text text-anchor="middle" x="178.5" y="-72.1318" font-family="Helvetica,sans-Serif" font-size="10.00">uhbt</text>
<text text-anchor="middle" x="178.5" y="-61.1318" font-family="Helvetica,sans-Serif" font-size="10.00">...</text>
</g>
<!-- Node19 -->
<g id="node19" class="node"><title>Node19</title>
<polygon fill="white" stroke="#bfbfbf" points="15,-11.6318 15,-30.6318 100,-30.6318 100,-11.6318 15,-11.6318"/>
<text text-anchor="middle" x="57.5" y="-18.6318" font-family="Helvetica,sans-Serif" font-size="10.00">accel_diag_ptrs</text>
</g>
<!-- Node19&#45;&gt;Node1 -->
<g id="edge18" class="edge"><title>Node19&#45;&gt;Node1</title>
<path fill="none" stroke="#9a32cd" stroke-dasharray="5,2" d="M95.6905,-8.80203C132.842,0.943422 189.282,8.38679 224,-22.1318 266.775,-59.7335 294.764,-478.936 300.782,-577.48"/>
<polygon fill="#9a32cd" stroke="#9a32cd" points="94.4441,-5.5163 85.7576,-11.5822 96.3309,-12.2572 94.4441,-5.5163"/>
<text text-anchor="middle" x="178.5" y="-25.1318" font-family="Helvetica,sans-Serif" font-size="10.00"> adp</text>
</g>
</g>
</svg>
