<?xml version="1.0" encoding="UTF-8" standalone="no"?>
<!DOCTYPE svg PUBLIC "-//W3C//DTD SVG 1.1//EN"
 "http://www.w3.org/Graphics/SVG/1.1/DTD/svg11.dtd">
<!-- Generated by graphviz version 2.38.0 (20140413.2041)
 -->
<!-- Title: mom_variables::cont_diag_ptrs Pages: 1 -->
<svg width="115pt" height="150pt"
 viewBox="0.00 0.00 115.00 150.00" xmlns="http://www.w3.org/2000/svg" xmlns:xlink="http://www.w3.org/1999/xlink">
<g id="graph0" class="graph" transform="scale(1 1) rotate(0) translate(4 146)">
<title>mom_variables::cont_diag_ptrs</title>
<polygon fill="white" stroke="none" points="-4,4 -4,-146 111,-146 111,4 -4,4"/>
<!-- Node1 -->
<g id="node1" class="node"><title>Node1</title>
<polygon fill="#bfbfbf" stroke="black" points="-7.10543e-15,-0.5 -7.10543e-15,-30.5 107,-30.5 107,-0.5 -7.10543e-15,-0.5"/>
<text text-anchor="start" x="8" y="-18.5" font-family="Helvetica,sans-Serif" font-size="10.00">mom_variables::cont</text>
<text text-anchor="middle" x="53.5" y="-7.5" font-family="Helvetica,sans-Serif" font-size="10.00">_diag_ptrs</text>
</g>
<!-- Node2 -->
<g id="node2" class="node"><title>Node2</title>
<polygon fill="white" stroke="#bfbfbf" points="37.5,-122.5 37.5,-141.5 69.5,-141.5 69.5,-122.5 37.5,-122.5"/>
<text text-anchor="middle" x="53.5" y="-129.5" font-family="Helvetica,sans-Serif" font-size="10.00">real</text>
</g>
<!-- Node2&#45;&gt;Node1 -->
<g id="edge1" class="edge"><title>Node2&#45;&gt;Node1</title>
<path fill="none" stroke="#9a32cd" stroke-dasharray="5,2" d="M53.5,-112.294C53.5,-89.4785 53.5,-51.4142 53.5,-30.8061"/>
<polygon fill="#9a32cd" stroke="#9a32cd" points="50.0001,-112.394 53.5,-122.394 57.0001,-112.394 50.0001,-112.394"/>
<text text-anchor="middle" x="77" y="-96" font-family="Helvetica,sans-Serif" font-size="10.00"> vh</text>
<text text-anchor="middle" x="77" y="-85" font-family="Helvetica,sans-Serif" font-size="10.00">uh</text>
<text text-anchor="middle" x="77" y="-74" font-family="Helvetica,sans-Serif" font-size="10.00">diapyc_vel</text>
<text text-anchor="middle" x="77" y="-63" font-family="Helvetica,sans-Serif" font-size="10.00">vhgm</text>
<text text-anchor="middle" x="77" y="-52" font-family="Helvetica,sans-Serif" font-size="10.00">uhgm</text>
</g>
</g>
</svg>
