<?xml version="1.0" encoding="UTF-8" standalone="no"?>
<!DOCTYPE svg PUBLIC "-//W3C//DTD SVG 1.1//EN"
 "http://www.w3.org/Graphics/SVG/1.1/DTD/svg11.dtd">
<!-- Generated by graphviz version 2.38.0 (20140413.2041)
 -->
<!-- Title: mom_bulk_mixed_layer::bulkmixedlayer_cs Pages: 1 -->
<!--zoomable 260 -->
<svg id="main" version="1.1" xmlns="http://www.w3.org/2000/svg" xmlns:xlink="http://www.w3.org/1999/xlink" xml:space="preserve" onload="init(evt)">
<style type="text/css"><![CDATA[
.edge:hover path { stroke: red; }
.edge:hover polygon { stroke: red; fill: red; }
]]></style>
<script type="text/javascript"><![CDATA[
var edges = document.getElementsByTagName('g');
if (edges && edges.length) {
  for (var i=0;i<edges.length;i++) {
    if (edges[i].id.substr(0,4)=='edge') {
      edges[i].setAttribute('class','edge');
    }
  }
}
]]></script>
        <defs>
                <circle id="rim" cx="0" cy="0" r="7"/>
                <circle id="rim2" cx="0" cy="0" r="3.5"/>
                <g id="zoomPlus">
                        <use xlink:href="#rim" fill="#404040">
                                <set attributeName="fill" to="#808080" begin="zoomplus.mouseover" end="zoomplus.mouseout"/>
                        </use>
                        <path d="M-4,0h8M0,-4v8" fill="none" stroke="white" stroke-width="1.5" pointer-events="none"/>
                </g>
                <g id="zoomMin">
                        <use xlink:href="#rim" fill="#404040">
                                <set attributeName="fill" to="#808080" begin="zoomminus.mouseover" end="zoomminus.mouseout"/>
                        </use>
                        <path d="M-4,0h8" fill="none" stroke="white" stroke-width="1.5" pointer-events="none"/>
                </g>
                <g id="dirArrow">
                        <path fill="none" stroke="white" stroke-width="1.5" d="M0,-3.0v7 M-2.5,-0.5L0,-3.0L2.5,-0.5"/>
                </g>
               <g id="resetDef">
                       <use xlink:href="#rim2" fill="#404040">
                               <set attributeName="fill" to="#808080" begin="reset.mouseover" end="reset.mouseout"/>
                       </use>
               </g>
        </defs>

<script type="text/javascript">
var viewWidth = 583;
var viewHeight = 260;
var sectionId = 'dynsection-0';
</script>
<script xlink:href="svgpan.js"/>
<svg id="graph" class="graph">
<g id="viewport">
<title>mom_bulk_mixed_layer::bulkmixedlayer_cs</title>
<polygon fill="white" stroke="none" points="-4,4 -4,-256 579.295,-256 579.295,4 -4,4"/>
<!-- Node1 -->
<g id="node1" class="node"><title>Node1</title>
<polygon fill="#bfbfbf" stroke="black" points="192.795,-0.5 192.795,-30.5 311.795,-30.5 311.795,-0.5 192.795,-0.5"/>
<text text-anchor="start" x="200.795" y="-18.5" font-family="Helvetica,sans-Serif" font-size="10.00">mom_bulk_mixed_layer</text>
<text text-anchor="middle" x="252.295" y="-7.5" font-family="Helvetica,sans-Serif" font-size="10.00">::bulkmixedlayer_cs</text>
</g>
<!-- Node2 -->
<g id="node2" class="node"><title>Node2</title>
<polygon fill="white" stroke="#bfbfbf" points="5.2947,-232.5 5.2947,-251.5 49.2947,-251.5 49.2947,-232.5 5.2947,-232.5"/>
<text text-anchor="middle" x="27.2947" y="-239.5" font-family="Helvetica,sans-Serif" font-size="10.00">logical</text>
</g>
<!-- Node2&#45;&gt;Node1 -->
<g id="edge1" class="edge"><title>Node2&#45;&gt;Node1</title>
<path fill="none" stroke="#9a32cd" stroke-dasharray="5,2" d="M19.9466,-222.779C6.13079,-185.206 -18.6543,-98.5053 24.2947,-49 45.682,-24.3479 132.51,-17.9206 192.618,-16.4992"/>
<polygon fill="#9a32cd" stroke="#9a32cd" points="16.7852,-224.309 23.6417,-232.386 23.3187,-221.796 16.7852,-224.309"/>
<text text-anchor="middle" x="64.7947" y="-206" font-family="Helvetica,sans-Serif" font-size="10.00"> absorb_all_sw</text>
<text text-anchor="middle" x="64.7947" y="-195" font-family="Helvetica,sans-Serif" font-size="10.00">correct_absorption</text>
<text text-anchor="middle" x="64.7947" y="-184" font-family="Helvetica,sans-Serif" font-size="10.00">do_rivermix</text>
<text text-anchor="start" x="24.2947" y="-173" font-family="Helvetica,sans-Serif" font-size="10.00">salt_reject_below</text>
<text text-anchor="middle" x="64.7947" y="-162" font-family="Helvetica,sans-Serif" font-size="10.00">_ml</text>
<text text-anchor="middle" x="64.7947" y="-151" font-family="Helvetica,sans-Serif" font-size="10.00">resolve_ekman</text>
<text text-anchor="middle" x="64.7947" y="-140" font-family="Helvetica,sans-Serif" font-size="10.00">ml_resort</text>
<text text-anchor="start" x="24.2947" y="-129" font-family="Helvetica,sans-Serif" font-size="10.00">allow_clocks_in</text>
<text text-anchor="middle" x="64.7947" y="-118" font-family="Helvetica,sans-Serif" font-size="10.00">_omp_loops</text>
<text text-anchor="start" x="24.2947" y="-107" font-family="Helvetica,sans-Serif" font-size="10.00">use_river_heat</text>
<text text-anchor="middle" x="64.7947" y="-96" font-family="Helvetica,sans-Serif" font-size="10.00">_content</text>
<text text-anchor="middle" x="64.7947" y="-85" font-family="Helvetica,sans-Serif" font-size="10.00">limit_det</text>
<text text-anchor="start" x="24.2947" y="-74" font-family="Helvetica,sans-Serif" font-size="10.00">use_calving_heat</text>
<text text-anchor="middle" x="64.7947" y="-63" font-family="Helvetica,sans-Serif" font-size="10.00">_content</text>
<text text-anchor="middle" x="64.7947" y="-52" font-family="Helvetica,sans-Serif" font-size="10.00">...</text>
</g>
<!-- Node3 -->
<g id="node3" class="node"><title>Node3</title>
<polygon fill="white" stroke="#bfbfbf" points="73.7947,-232.5 73.7947,-251.5 132.795,-251.5 132.795,-232.5 73.7947,-232.5"/>
<text text-anchor="middle" x="103.295" y="-239.5" font-family="Helvetica,sans-Serif" font-size="10.00">time_type</text>
</g>
<!-- Node3&#45;&gt;Node1 -->
<g id="edge2" class="edge"><title>Node3&#45;&gt;Node1</title>
<path fill="none" stroke="#9a32cd" stroke-dasharray="5,2" d="M107.391,-222.678C108.033,-219.776 108.685,-216.807 109.295,-214 125.204,-140.743 93.5391,-104.169 144.295,-49 156.823,-35.3826 174.818,-27.3901 192.537,-22.7252"/>
<polygon fill="#9a32cd" stroke="#9a32cd" points="103.963,-221.971 105.207,-232.492 110.796,-223.491 103.963,-221.971"/>
<text text-anchor="middle" x="155.295" y="-129" font-family="Helvetica,sans-Serif" font-size="10.00"> time</text>
</g>
<!-- Node4 -->
<g id="node4" class="node"><title>Node4</title>
<polygon fill="white" stroke="#bfbfbf" points="150.795,-232.5 150.795,-251.5 241.795,-251.5 241.795,-232.5 150.795,-232.5"/>
<text text-anchor="middle" x="196.295" y="-239.5" font-family="Helvetica,sans-Serif" font-size="10.00">group_pass_type</text>
</g>
<!-- Node4&#45;&gt;Node1 -->
<g id="edge3" class="edge"><title>Node4&#45;&gt;Node1</title>
<path fill="none" stroke="#9a32cd" stroke-dasharray="5,2" d="M189.147,-222.833C176.176,-186.648 153.112,-104.309 187.295,-49 192.137,-41.1653 199.503,-35.1562 207.56,-30.5685"/>
<polygon fill="#9a32cd" stroke="#9a32cd" points="185.984,-224.366 192.774,-232.499 192.538,-221.907 185.984,-224.366"/>
<text text-anchor="middle" x="241.795" y="-129" font-family="Helvetica,sans-Serif" font-size="10.00"> pass_h_sum_hmbl_prev</text>
</g>
<!-- Node5 -->
<g id="node5" class="node"><title>Node5</title>
<polygon fill="white" stroke="#bfbfbf" points="287.795,-232.5 287.795,-251.5 340.795,-251.5 340.795,-232.5 287.795,-232.5"/>
<text text-anchor="middle" x="314.295" y="-239.5" font-family="Helvetica,sans-Serif" font-size="10.00">diag_ctrl</text>
</g>
<!-- Node5&#45;&gt;Node1 -->
<g id="edge4" class="edge"><title>Node5&#45;&gt;Node1</title>
<path fill="none" stroke="#9a32cd" stroke-dasharray="5,2" d="M317.326,-222.119C322.157,-185.906 328.083,-105.294 296.295,-49 292.185,-41.7229 285.702,-35.6084 278.962,-30.7172"/>
<polygon fill="#9a32cd" stroke="#9a32cd" points="313.831,-221.828 315.845,-232.23 320.757,-222.842 313.831,-221.828"/>
<text text-anchor="middle" x="332.295" y="-129" font-family="Helvetica,sans-Serif" font-size="10.00"> diag</text>
</g>
<!-- Node6 -->
<g id="node6" class="node"><title>Node6</title>
<polygon fill="white" stroke="#bfbfbf" points="359.295,-232.5 359.295,-251.5 391.295,-251.5 391.295,-232.5 359.295,-232.5"/>
<text text-anchor="middle" x="375.295" y="-239.5" font-family="Helvetica,sans-Serif" font-size="10.00">real</text>
</g>
<!-- Node6&#45;&gt;Node1 -->
<g id="edge5" class="edge"><title>Node6&#45;&gt;Node1</title>
<path fill="none" stroke="#9a32cd" stroke-dasharray="5,2" d="M373.068,-222.029C367.46,-174.871 352.812,-55.6438 347.295,-49 338.275,-38.1373 325.452,-30.895 312.136,-26.0696"/>
<polygon fill="#9a32cd" stroke="#9a32cd" points="369.611,-222.6 374.26,-232.12 376.562,-221.778 369.611,-222.6"/>
<text text-anchor="middle" x="411.795" y="-184" font-family="Helvetica,sans-Serif" font-size="10.00"> diag_tke_mixing</text>
<text text-anchor="middle" x="411.795" y="-173" font-family="Helvetica,sans-Serif" font-size="10.00">diag_pe_detrain2</text>
<text text-anchor="middle" x="411.795" y="-162" font-family="Helvetica,sans-Serif" font-size="10.00">diag_tke_conv</text>
<text text-anchor="middle" x="411.795" y="-151" font-family="Helvetica,sans-Serif" font-size="10.00">diag_tke_conv_s2</text>
<text text-anchor="middle" x="411.795" y="-140" font-family="Helvetica,sans-Serif" font-size="10.00">ml_depth</text>
<text text-anchor="middle" x="411.795" y="-129" font-family="Helvetica,sans-Serif" font-size="10.00">bl_extrap_lim</text>
<text text-anchor="middle" x="411.795" y="-118" font-family="Helvetica,sans-Serif" font-size="10.00">dt_ds_wt</text>
<text text-anchor="middle" x="411.795" y="-107" font-family="Helvetica,sans-Serif" font-size="10.00">h_limit_fluxes</text>
<text text-anchor="middle" x="411.795" y="-96" font-family="Helvetica,sans-Serif" font-size="10.00">bulk_ri_ml</text>
<text text-anchor="middle" x="411.795" y="-85" font-family="Helvetica,sans-Serif" font-size="10.00">tke_decay</text>
<text text-anchor="middle" x="411.795" y="-74" font-family="Helvetica,sans-Serif" font-size="10.00">...</text>
</g>
<!-- Node7 -->
<g id="node7" class="node"><title>Node7</title>
<polygon fill="white" stroke="#bfbfbf" points="450.295,-232.5 450.295,-251.5 496.295,-251.5 496.295,-232.5 450.295,-232.5"/>
<text text-anchor="middle" x="473.295" y="-239.5" font-family="Helvetica,sans-Serif" font-size="10.00">integer</text>
</g>
<!-- Node7&#45;&gt;Node1 -->
<g id="edge6" class="edge"><title>Node7&#45;&gt;Node1</title>
<path fill="none" stroke="#9a32cd" stroke-dasharray="5,2" d="M477.743,-222C485.489,-183.636 496.612,-96.5372 451.295,-49 432.575,-29.3633 363.572,-21.5911 312.038,-18.515"/>
<polygon fill="#9a32cd" stroke="#9a32cd" points="474.22,-221.729 475.514,-232.244 481.06,-223.217 474.22,-221.729"/>
<text text-anchor="start" x="484.295" y="-189.5" font-family="Helvetica,sans-Serif" font-size="10.00"> ml_presort_nz_conv</text>
<text text-anchor="middle" x="529.795" y="-178.5" font-family="Helvetica,sans-Serif" font-size="10.00">_adj</text>
<text text-anchor="middle" x="529.795" y="-167.5" font-family="Helvetica,sans-Serif" font-size="10.00">id_tke_conv_s2</text>
<text text-anchor="middle" x="529.795" y="-156.5" font-family="Helvetica,sans-Serif" font-size="10.00">id_tke_conv_decay</text>
<text text-anchor="middle" x="529.795" y="-145.5" font-family="Helvetica,sans-Serif" font-size="10.00">id_tke_ribulk</text>
<text text-anchor="middle" x="529.795" y="-134.5" font-family="Helvetica,sans-Serif" font-size="10.00">id_pe_detrain2</text>
<text text-anchor="middle" x="529.795" y="-123.5" font-family="Helvetica,sans-Serif" font-size="10.00">id_tke_wind</text>
<text text-anchor="middle" x="529.795" y="-112.5" font-family="Helvetica,sans-Serif" font-size="10.00">id_tke_mech_decay</text>
<text text-anchor="middle" x="529.795" y="-101.5" font-family="Helvetica,sans-Serif" font-size="10.00">id_tke_conv</text>
<text text-anchor="middle" x="529.795" y="-90.5" font-family="Helvetica,sans-Serif" font-size="10.00">nkbl</text>
<text text-anchor="middle" x="529.795" y="-79.5" font-family="Helvetica,sans-Serif" font-size="10.00">id_tke_pen_sw</text>
<text text-anchor="middle" x="529.795" y="-68.5" font-family="Helvetica,sans-Serif" font-size="10.00">...</text>
</g>
</g>
</svg>
        <g id="navigator" transform="translate(0 0)" fill="#404254">
                <rect fill="#f2f5e9" fill-opacity="0.5" stroke="#606060" stroke-width=".5" x="0" y="0" width="60" height="60"/>
                <use id="zoomplus" xlink:href="#zoomPlus" x="17" y="9" onmousedown="handleZoom(evt,'in')"/>
                <use id="zoomminus" xlink:href="#zoomMin" x="42" y="9" onmousedown="handleZoom(evt,'out')"/>
                <use id="reset" xlink:href="#resetDef" x="30" y="36" onmousedown="handleReset()"/>
                <g id="arrowUp" xlink:href="#dirArrow" transform="translate(30 24)" onmousedown="handlePan(0,-1)">
                  <use xlink:href="#rim" fill="#404040">
                        <set attributeName="fill" to="#808080" begin="arrowUp.mouseover" end="arrowUp.mouseout"/>
                  </use>
                  <path fill="none" stroke="white" stroke-width="1.5" d="M0,-3.0v7 M-2.5,-0.5L0,-3.0L2.5,-0.5"/>
                </g>
                <g id="arrowRight" xlink:href="#dirArrow" transform="rotate(90) translate(36 -43)" onmousedown="handlePan(1,0)">
                  <use xlink:href="#rim" fill="#404040">
                        <set attributeName="fill" to="#808080" begin="arrowRight.mouseover" end="arrowRight.mouseout"/>
                  </use>
                  <path fill="none" stroke="white" stroke-width="1.5" d="M0,-3.0v7 M-2.5,-0.5L0,-3.0L2.5,-0.5"/>
                </g>
                <g id="arrowDown" xlink:href="#dirArrow" transform="rotate(180) translate(-30 -48)" onmousedown="handlePan(0,1)">
                  <use xlink:href="#rim" fill="#404040">
                        <set attributeName="fill" to="#808080" begin="arrowDown.mouseover" end="arrowDown.mouseout"/>
                  </use>
                  <path fill="none" stroke="white" stroke-width="1.5" d="M0,-3.0v7 M-2.5,-0.5L0,-3.0L2.5,-0.5"/>
                </g>
                <g id="arrowLeft" xlink:href="#dirArrow" transform="rotate(270) translate(-36 17)" onmousedown="handlePan(-1,0)">
                  <use xlink:href="#rim" fill="#404040">
                        <set attributeName="fill" to="#808080" begin="arrowLeft.mouseover" end="arrowLeft.mouseout"/>
                  </use>
                  <path fill="none" stroke="white" stroke-width="1.5" d="M0,-3.0v7 M-2.5,-0.5L0,-3.0L2.5,-0.5"/>
                </g>
        </g>
        <svg viewBox="0 0 15 15" width="100%" height="30px" preserveAspectRatio="xMaxYMin meet">
         <g id="arrow_out" transform="scale(0.3 0.3)">
          <a xlink:href="structmom__bulk__mixed__layer_1_1bulkmixedlayer__cs__coll__graph_org.svg" target="_base">
           <rect id="button" ry="5" rx="5" y="6" x="6" height="38" width="38"
                fill="#f2f5e9" fill-opacity="0.5" stroke="#606060" stroke-width="1.0"/>
           <path id="arrow"
             d="M 11.500037,31.436501 C 11.940474,20.09759 22.043105,11.32322 32.158766,21.979434 L 37.068811,17.246167 C 37.068811,17.246167 37.088388,32 37.088388,32 L 22.160133,31.978069 C 22.160133,31.978069 26.997745,27.140456 26.997745,27.140456 C 18.528582,18.264221 13.291696,25.230495 11.500037,31.436501 z"
             style="fill:#404040;"/>
          </a>
         </g>
        </svg>
</svg>
