<?xml version="1.0" encoding="UTF-8" standalone="no"?>
<!DOCTYPE svg PUBLIC "-//W3C//DTD SVG 1.1//EN"
 "http://www.w3.org/Graphics/SVG/1.1/DTD/svg11.dtd">
<!-- Generated by graphviz version 2.38.0 (20140413.2041)
 -->
<!-- Title: mom_tracer_advect::tracer_advect_cs Pages: 1 -->
<svg width="316pt" height="128pt"
 viewBox="0.00 0.00 316.00 128.00" xmlns="http://www.w3.org/2000/svg" xmlns:xlink="http://www.w3.org/1999/xlink">
<g id="graph0" class="graph" transform="scale(1 1) rotate(0) translate(4 124)">
<title>mom_tracer_advect::tracer_advect_cs</title>
<polygon fill="white" stroke="none" points="-4,4 -4,-124 312,-124 312,4 -4,4"/>
<!-- Node1 -->
<g id="node1" class="node"><title>Node1</title>
<polygon fill="#bfbfbf" stroke="black" points="114.5,-0.5 114.5,-30.5 223.5,-30.5 223.5,-0.5 114.5,-0.5"/>
<text text-anchor="start" x="122.5" y="-18.5" font-family="Helvetica,sans-Serif" font-size="10.00">mom_tracer_advect::</text>
<text text-anchor="middle" x="169" y="-7.5" font-family="Helvetica,sans-Serif" font-size="10.00">tracer_advect_cs</text>
</g>
<!-- Node2 -->
<g id="node2" class="node"><title>Node2</title>
<polygon fill="white" stroke="#bfbfbf" points="0,-100.5 0,-119.5 44,-119.5 44,-100.5 0,-100.5"/>
<text text-anchor="middle" x="22" y="-107.5" font-family="Helvetica,sans-Serif" font-size="10.00">logical</text>
</g>
<!-- Node2&#45;&gt;Node1 -->
<g id="edge1" class="edge"><title>Node2&#45;&gt;Node1</title>
<path fill="none" stroke="#9a32cd" stroke-dasharray="5,2" d="M28.0983,-90.6161C33.4448,-77.2289 42.4978,-59.6456 56,-49 72.6714,-35.8557 94.4467,-28.0274 114.428,-23.3651"/>
<polygon fill="#9a32cd" stroke="#9a32cd" points="24.7267,-89.6461 24.591,-100.24 31.3036,-92.043 24.7267,-89.6461"/>
<text text-anchor="middle" x="77.5" y="-74" font-family="Helvetica,sans-Serif" font-size="10.00"> useppm</text>
<text text-anchor="middle" x="77.5" y="-63" font-family="Helvetica,sans-Serif" font-size="10.00">usehuynh</text>
<text text-anchor="middle" x="77.5" y="-52" font-family="Helvetica,sans-Serif" font-size="10.00">debug</text>
</g>
<!-- Node3 -->
<g id="node3" class="node"><title>Node3</title>
<polygon fill="white" stroke="#bfbfbf" points="62.5,-100.5 62.5,-119.5 153.5,-119.5 153.5,-100.5 62.5,-100.5"/>
<text text-anchor="middle" x="108" y="-107.5" font-family="Helvetica,sans-Serif" font-size="10.00">group_pass_type</text>
</g>
<!-- Node3&#45;&gt;Node1 -->
<g id="edge2" class="edge"><title>Node3&#45;&gt;Node1</title>
<path fill="none" stroke="#9a32cd" stroke-dasharray="5,2" d="M103.674,-90.2524C101.831,-77.6871 101.558,-61.2611 109,-49 113.733,-41.2021 121.047,-35.1548 128.961,-30.5106"/>
<polygon fill="#9a32cd" stroke="#9a32cd" points="100.239,-90.927 105.542,-100.099 107.116,-89.6218 100.239,-90.927"/>
<text text-anchor="middle" x="159" y="-63" font-family="Helvetica,sans-Serif" font-size="10.00"> pass_uhr_vhr_t_hprev</text>
</g>
<!-- Node4 -->
<g id="node4" class="node"><title>Node4</title>
<polygon fill="white" stroke="#bfbfbf" points="204.5,-100.5 204.5,-119.5 257.5,-119.5 257.5,-100.5 204.5,-100.5"/>
<text text-anchor="middle" x="231" y="-107.5" font-family="Helvetica,sans-Serif" font-size="10.00">diag_ctrl</text>
</g>
<!-- Node4&#45;&gt;Node1 -->
<g id="edge3" class="edge"><title>Node4&#45;&gt;Node1</title>
<path fill="none" stroke="#9a32cd" stroke-dasharray="5,2" d="M226.932,-90.3619C223.567,-77.845 217.875,-61.4319 209,-49 204.009,-42.0088 197.137,-35.6906 190.495,-30.5239"/>
<polygon fill="#9a32cd" stroke="#9a32cd" points="223.551,-91.2696 229.313,-100.161 230.353,-89.6169 223.551,-91.2696"/>
<text text-anchor="middle" x="236" y="-63" font-family="Helvetica,sans-Serif" font-size="10.00"> diag</text>
</g>
<!-- Node5 -->
<g id="node5" class="node"><title>Node5</title>
<polygon fill="white" stroke="#bfbfbf" points="276,-100.5 276,-119.5 308,-119.5 308,-100.5 276,-100.5"/>
<text text-anchor="middle" x="292" y="-107.5" font-family="Helvetica,sans-Serif" font-size="10.00">real</text>
</g>
<!-- Node5&#45;&gt;Node1 -->
<g id="edge4" class="edge"><title>Node5&#45;&gt;Node1</title>
<path fill="none" stroke="#9a32cd" stroke-dasharray="5,2" d="M283.624,-91.3923C276.55,-78.162 265.293,-60.4249 251,-49 241.431,-41.3508 229.834,-35.3085 218.412,-30.6158"/>
<polygon fill="#9a32cd" stroke="#9a32cd" points="280.567,-93.1033 288.199,-100.452 286.815,-89.9479 280.567,-93.1033"/>
<text text-anchor="middle" x="285" y="-63" font-family="Helvetica,sans-Serif" font-size="10.00"> dt</text>
</g>
</g>
</svg>
