<?xml version="1.0" encoding="UTF-8" standalone="no"?>
<!DOCTYPE svg PUBLIC "-//W3C//DTD SVG 1.1//EN"
 "http://www.w3.org/Graphics/SVG/1.1/DTD/svg11.dtd">
<!-- Generated by graphviz version 2.38.0 (20140413.2041)
 -->
<!-- Title: mom_variables::thermo_var_ptrs Pages: 1 -->
<svg width="212pt" height="183pt"
 viewBox="0.00 0.00 212.00 183.00" xmlns="http://www.w3.org/2000/svg" xmlns:xlink="http://www.w3.org/1999/xlink">
<g id="graph0" class="graph" transform="scale(1 1) rotate(0) translate(4 179)">
<title>mom_variables::thermo_var_ptrs</title>
<polygon fill="white" stroke="none" points="-4,4 -4,-179 208,-179 208,4 -4,4"/>
<!-- Node1 -->
<g id="node1" class="node"><title>Node1</title>
<polygon fill="#bfbfbf" stroke="black" points="44.5,-0.5 44.5,-30.5 163.5,-30.5 163.5,-0.5 44.5,-0.5"/>
<text text-anchor="start" x="52.5" y="-18.5" font-family="Helvetica,sans-Serif" font-size="10.00">mom_variables::thermo</text>
<text text-anchor="middle" x="104" y="-7.5" font-family="Helvetica,sans-Serif" font-size="10.00">_var_ptrs</text>
</g>
<!-- Node2 -->
<g id="node2" class="node"><title>Node2</title>
<polygon fill="white" stroke="#bfbfbf" points="0,-155.5 0,-174.5 116,-174.5 116,-155.5 0,-155.5"/>
<text text-anchor="middle" x="58" y="-162.5" font-family="Helvetica,sans-Serif" font-size="10.00">type(eos_type), pointer</text>
</g>
<!-- Node2&#45;&gt;Node1 -->
<g id="edge1" class="edge"><title>Node2&#45;&gt;Node1</title>
<path fill="none" stroke="#9a32cd" stroke-dasharray="5,2" d="M55.5924,-145.253C53.4179,-121.519 52.5824,-79.9942 68,-49 71.5251,-41.9134 77.3152,-35.6492 83.2317,-30.5588"/>
<polygon fill="#9a32cd" stroke="#9a32cd" points="52.1306,-145.793 56.7021,-155.351 59.0887,-145.028 52.1306,-145.793"/>
<text text-anchor="middle" x="98" y="-90.5" font-family="Helvetica,sans-Serif" font-size="10.00"> eqn_of_state</text>
</g>
<!-- Node3 -->
<g id="node3" class="node"><title>Node3</title>
<polygon fill="white" stroke="#bfbfbf" points="134,-155.5 134,-174.5 166,-174.5 166,-155.5 134,-155.5"/>
<text text-anchor="middle" x="150" y="-162.5" font-family="Helvetica,sans-Serif" font-size="10.00">real</text>
</g>
<!-- Node3&#45;&gt;Node1 -->
<g id="edge2" class="edge"><title>Node3&#45;&gt;Node1</title>
<path fill="none" stroke="#9a32cd" stroke-dasharray="5,2" d="M148.947,-144.955C147.077,-121.502 141.944,-80.8609 128,-49 125.131,-42.4459 120.739,-35.9551 116.492,-30.5177"/>
<polygon fill="#9a32cd" stroke="#9a32cd" points="145.476,-145.504 149.642,-155.245 152.46,-145.032 145.476,-145.504"/>
<text text-anchor="middle" x="176" y="-129" font-family="Helvetica,sans-Serif" font-size="10.00"> salt_deficit</text>
<text text-anchor="middle" x="176" y="-118" font-family="Helvetica,sans-Serif" font-size="10.00">frazil</text>
<text text-anchor="middle" x="176" y="-107" font-family="Helvetica,sans-Serif" font-size="10.00">internal_heat</text>
<text text-anchor="middle" x="176" y="-96" font-family="Helvetica,sans-Serif" font-size="10.00">p_ref</text>
<text text-anchor="middle" x="176" y="-85" font-family="Helvetica,sans-Serif" font-size="10.00">s</text>
<text text-anchor="middle" x="176" y="-74" font-family="Helvetica,sans-Serif" font-size="10.00">c_p</text>
<text text-anchor="middle" x="176" y="-63" font-family="Helvetica,sans-Serif" font-size="10.00">t</text>
<text text-anchor="middle" x="176" y="-52" font-family="Helvetica,sans-Serif" font-size="10.00">tempxpme</text>
</g>
</g>
</svg>
