<?xml version="1.0" encoding="UTF-8" standalone="no"?>
<!DOCTYPE svg PUBLIC "-//W3C//DTD SVG 1.1//EN"
 "http://www.w3.org/Graphics/SVG/1.1/DTD/svg11.dtd">
<!-- Generated by graphviz version 2.38.0 (20140413.2041)
 -->
<!-- Title: mom_mixed_layer_restrat::mixedlayer_restrat_cs Pages: 1 -->
<svg width="385pt" height="238pt"
 viewBox="0.00 0.00 385.00 238.00" xmlns="http://www.w3.org/2000/svg" xmlns:xlink="http://www.w3.org/1999/xlink">
<g id="graph0" class="graph" transform="scale(1 1) rotate(0) translate(4 234)">
<title>mom_mixed_layer_restrat::mixedlayer_restrat_cs</title>
<polygon fill="white" stroke="none" points="-4,4 -4,-234 381,-234 381,4 -4,4"/>
<!-- Node1 -->
<g id="node1" class="node"><title>Node1</title>
<polygon fill="#bfbfbf" stroke="black" points="111.5,-0.5 111.5,-30.5 240.5,-30.5 240.5,-0.5 111.5,-0.5"/>
<text text-anchor="start" x="119.5" y="-18.5" font-family="Helvetica,sans-Serif" font-size="10.00">mom_mixed_layer_restrat</text>
<text text-anchor="middle" x="176" y="-7.5" font-family="Helvetica,sans-Serif" font-size="10.00">::mixedlayer_restrat_cs</text>
</g>
<!-- Node2 -->
<g id="node2" class="node"><title>Node2</title>
<polygon fill="white" stroke="#bfbfbf" points="0,-210.5 0,-229.5 44,-229.5 44,-210.5 0,-210.5"/>
<text text-anchor="middle" x="22" y="-217.5" font-family="Helvetica,sans-Serif" font-size="10.00">logical</text>
</g>
<!-- Node2&#45;&gt;Node1 -->
<g id="edge1" class="edge"><title>Node2&#45;&gt;Node1</title>
<path fill="none" stroke="#9a32cd" stroke-dasharray="5,2" d="M17.0045,-200.176C9.08531,-165.681 -1.93542,-91.9466 35,-49 45.2786,-37.0486 79.3658,-29.0044 111.448,-23.9089"/>
<polygon fill="#9a32cd" stroke="#9a32cd" points="13.7015,-201.399 19.4975,-210.268 20.4973,-199.721 13.7015,-201.399"/>
<text text-anchor="middle" x="86.5" y="-129" font-family="Helvetica,sans-Serif" font-size="10.00"> mle_use_mld_ave_bug</text>
<text text-anchor="middle" x="86.5" y="-118" font-family="Helvetica,sans-Serif" font-size="10.00">mle_use_pbl_mld</text>
<text text-anchor="middle" x="86.5" y="-107" font-family="Helvetica,sans-Serif" font-size="10.00">debug</text>
</g>
<!-- Node3 -->
<g id="node3" class="node"><title>Node3</title>
<polygon fill="white" stroke="#bfbfbf" points="115.5,-210.5 115.5,-229.5 168.5,-229.5 168.5,-210.5 115.5,-210.5"/>
<text text-anchor="middle" x="142" y="-217.5" font-family="Helvetica,sans-Serif" font-size="10.00">diag_ctrl</text>
</g>
<!-- Node3&#45;&gt;Node1 -->
<g id="edge2" class="edge"><title>Node3&#45;&gt;Node1</title>
<path fill="none" stroke="#9a32cd" stroke-dasharray="5,2" d="M141.858,-200.243C142.084,-168.472 144.581,-102.324 160,-49 161.817,-42.7168 164.798,-36.1749 167.698,-30.6215"/>
<polygon fill="#9a32cd" stroke="#9a32cd" points="138.358,-200.305 141.858,-210.305 145.358,-200.305 138.358,-200.305"/>
<text text-anchor="middle" x="171" y="-118" font-family="Helvetica,sans-Serif" font-size="10.00"> diag</text>
</g>
<!-- Node4 -->
<g id="node4" class="node"><title>Node4</title>
<polygon fill="white" stroke="#bfbfbf" points="187,-210.5 187,-229.5 233,-229.5 233,-210.5 187,-210.5"/>
<text text-anchor="middle" x="210" y="-217.5" font-family="Helvetica,sans-Serif" font-size="10.00">integer</text>
</g>
<!-- Node4&#45;&gt;Node1 -->
<g id="edge3" class="edge"><title>Node4&#45;&gt;Node1</title>
<path fill="none" stroke="#9a32cd" stroke-dasharray="5,2" d="M206.493,-200.383C205.981,-197.576 205.469,-194.713 205,-192 194.027,-128.57 192.955,-112.433 182,-49 180.965,-43.0068 179.758,-36.4046 178.7,-30.7253"/>
<polygon fill="#9a32cd" stroke="#9a32cd" points="203.104,-201.305 208.372,-210.497 209.986,-200.026 203.104,-201.305"/>
<text text-anchor="middle" x="228" y="-184" font-family="Helvetica,sans-Serif" font-size="10.00"> id_vml</text>
<text text-anchor="middle" x="228" y="-173" font-family="Helvetica,sans-Serif" font-size="10.00">id_vdml</text>
<text text-anchor="middle" x="228" y="-162" font-family="Helvetica,sans-Serif" font-size="10.00">id_udml</text>
<text text-anchor="middle" x="228" y="-151" font-family="Helvetica,sans-Serif" font-size="10.00">id_mld</text>
<text text-anchor="middle" x="228" y="-140" font-family="Helvetica,sans-Serif" font-size="10.00">id_vhml</text>
<text text-anchor="middle" x="228" y="-129" font-family="Helvetica,sans-Serif" font-size="10.00">id_uhml</text>
<text text-anchor="start" x="205" y="-118" font-family="Helvetica,sans-Serif" font-size="10.00">id_urestrat</text>
<text text-anchor="middle" x="228" y="-107" font-family="Helvetica,sans-Serif" font-size="10.00">_time</text>
<text text-anchor="start" x="205" y="-96" font-family="Helvetica,sans-Serif" font-size="10.00">id_vrestrat</text>
<text text-anchor="middle" x="228" y="-85" font-family="Helvetica,sans-Serif" font-size="10.00">_time</text>
<text text-anchor="middle" x="228" y="-74" font-family="Helvetica,sans-Serif" font-size="10.00">id_rml</text>
<text text-anchor="middle" x="228" y="-63" font-family="Helvetica,sans-Serif" font-size="10.00">id_uml</text>
<text text-anchor="middle" x="228" y="-52" font-family="Helvetica,sans-Serif" font-size="10.00">...</text>
</g>
<!-- Node5 -->
<g id="node5" class="node"><title>Node5</title>
<polygon fill="white" stroke="#bfbfbf" points="257,-210.5 257,-229.5 289,-229.5 289,-210.5 257,-210.5"/>
<text text-anchor="middle" x="273" y="-217.5" font-family="Helvetica,sans-Serif" font-size="10.00">real</text>
</g>
<!-- Node5&#45;&gt;Node1 -->
<g id="edge4" class="edge"><title>Node5&#45;&gt;Node1</title>
<path fill="none" stroke="#9a32cd" stroke-dasharray="5,2" d="M276.115,-200.187C280.632,-166.29 285.091,-94.2858 251,-49 245.111,-41.1772 236.948,-35.2104 228.165,-30.6673"/>
<polygon fill="#9a32cd" stroke="#9a32cd" points="272.646,-199.721 274.637,-210.127 279.57,-200.751 272.646,-199.721"/>
<text text-anchor="middle" x="328" y="-173" font-family="Helvetica,sans-Serif" font-size="10.00"> ml_restrat_coef2</text>
<text text-anchor="middle" x="328" y="-162" font-family="Helvetica,sans-Serif" font-size="10.00">mle_mld_decay_time2</text>
<text text-anchor="middle" x="328" y="-151" font-family="Helvetica,sans-Serif" font-size="10.00">mld_filtered_slow</text>
<text text-anchor="middle" x="328" y="-140" font-family="Helvetica,sans-Serif" font-size="10.00">mle_mld_stretch</text>
<text text-anchor="middle" x="328" y="-129" font-family="Helvetica,sans-Serif" font-size="10.00">mle_density_diff</text>
<text text-anchor="middle" x="328" y="-118" font-family="Helvetica,sans-Serif" font-size="10.00">front_length</text>
<text text-anchor="middle" x="328" y="-107" font-family="Helvetica,sans-Serif" font-size="10.00">mle_tail_dh</text>
<text text-anchor="middle" x="328" y="-96" font-family="Helvetica,sans-Serif" font-size="10.00">mle_mld_decay_time</text>
<text text-anchor="middle" x="328" y="-85" font-family="Helvetica,sans-Serif" font-size="10.00">mld_filtered</text>
<text text-anchor="middle" x="328" y="-74" font-family="Helvetica,sans-Serif" font-size="10.00">ml_restrat_coef</text>
<text text-anchor="middle" x="328" y="-63" font-family="Helvetica,sans-Serif" font-size="10.00">...</text>
</g>
</g>
</svg>
