<?xml version="1.0" encoding="UTF-8" standalone="no"?>
<!DOCTYPE svg PUBLIC "-//W3C//DTD SVG 1.1//EN"
 "http://www.w3.org/Graphics/SVG/1.1/DTD/svg11.dtd">
<!-- Generated by graphviz version 2.38.0 (20140413.2041)
 -->
<!-- Title: mom_barotropic::local_bt_cont_u_type Pages: 1 -->
<svg width="121pt" height="216pt"
 viewBox="0.00 0.00 121.00 216.00" xmlns="http://www.w3.org/2000/svg" xmlns:xlink="http://www.w3.org/1999/xlink">
<g id="graph0" class="graph" transform="scale(1 1) rotate(0) translate(4 212)">
<title>mom_barotropic::local_bt_cont_u_type</title>
<polygon fill="white" stroke="none" points="-4,4 -4,-212 117,-212 117,4 -4,4"/>
<!-- Node1 -->
<g id="node1" class="node"><title>Node1</title>
<polygon fill="#bfbfbf" stroke="black" points="0,-0.5 0,-30.5 113,-30.5 113,-0.5 0,-0.5"/>
<text text-anchor="start" x="8" y="-18.5" font-family="Helvetica,sans-Serif" font-size="10.00">mom_barotropic::local</text>
<text text-anchor="middle" x="56.5" y="-7.5" font-family="Helvetica,sans-Serif" font-size="10.00">_bt_cont_u_type</text>
</g>
<!-- Node2 -->
<g id="node2" class="node"><title>Node2</title>
<polygon fill="white" stroke="#bfbfbf" points="40.5,-188.5 40.5,-207.5 72.5,-207.5 72.5,-188.5 40.5,-188.5"/>
<text text-anchor="middle" x="56.5" y="-195.5" font-family="Helvetica,sans-Serif" font-size="10.00">real</text>
</g>
<!-- Node2&#45;&gt;Node1 -->
<g id="edge1" class="edge"><title>Node2&#45;&gt;Node1</title>
<path fill="none" stroke="#9a32cd" stroke-dasharray="5,2" d="M56.5,-178.09C56.5,-141.701 56.5,-62.6941 56.5,-30.5391"/>
<polygon fill="#9a32cd" stroke="#9a32cd" points="53.0001,-178.294 56.5,-188.294 60.0001,-178.294 53.0001,-178.294"/>
<text text-anchor="middle" x="78" y="-162" font-family="Helvetica,sans-Serif" font-size="10.00"> fa_u_ww</text>
<text text-anchor="middle" x="78" y="-151" font-family="Helvetica,sans-Serif" font-size="10.00">uh_ww</text>
<text text-anchor="middle" x="78" y="-140" font-family="Helvetica,sans-Serif" font-size="10.00">uh_ee</text>
<text text-anchor="middle" x="78" y="-129" font-family="Helvetica,sans-Serif" font-size="10.00">fa_u_e0</text>
<text text-anchor="middle" x="78" y="-118" font-family="Helvetica,sans-Serif" font-size="10.00">ubt_ww</text>
<text text-anchor="middle" x="78" y="-107" font-family="Helvetica,sans-Serif" font-size="10.00">ubt_ee</text>
<text text-anchor="middle" x="78" y="-96" font-family="Helvetica,sans-Serif" font-size="10.00">fa_u_w0</text>
<text text-anchor="middle" x="78" y="-85" font-family="Helvetica,sans-Serif" font-size="10.00">uh_crve</text>
<text text-anchor="middle" x="78" y="-74" font-family="Helvetica,sans-Serif" font-size="10.00">fa_u_ee</text>
<text text-anchor="middle" x="78" y="-63" font-family="Helvetica,sans-Serif" font-size="10.00">uh_crvw</text>
<text text-anchor="middle" x="78" y="-52" font-family="Helvetica,sans-Serif" font-size="10.00">...</text>
</g>
</g>
</svg>
