<?xml version="1.0" encoding="UTF-8" standalone="no"?>
<!DOCTYPE svg PUBLIC "-//W3C//DTD SVG 1.1//EN"
 "http://www.w3.org/Graphics/SVG/1.1/DTD/svg11.dtd">
<!-- Generated by graphviz version 2.38.0 (20140413.2041)
 -->
<!-- Title: mom_restart::mom_restart_cs Pages: 1 -->
<svg width="519pt" height="405pt"
 viewBox="0.00 0.00 519.00 405.00" xmlns="http://www.w3.org/2000/svg" xmlns:xlink="http://www.w3.org/1999/xlink">
<g id="graph0" class="graph" transform="scale(1 1) rotate(0) translate(4 401)">
<title>mom_restart::mom_restart_cs</title>
<polygon fill="white" stroke="none" points="-4,4 -4,-401 515,-401 515,4 -4,4"/>
<!-- Node1 -->
<g id="node1" class="node"><title>Node1</title>
<polygon fill="#bfbfbf" stroke="black" points="363,-152.5 363,-171.5 511,-171.5 511,-152.5 363,-152.5"/>
<text text-anchor="middle" x="437" y="-159.5" font-family="Helvetica,sans-Serif" font-size="10.00">mom_restart::mom_restart_cs</text>
</g>
<!-- Node2 -->
<g id="node2" class="node"><title>Node2</title>
<polygon fill="white" stroke="#bfbfbf" points="174,-377.5 174,-396.5 272,-396.5 272,-377.5 174,-377.5"/>
<text text-anchor="middle" x="223" y="-384.5" font-family="Helvetica,sans-Serif" font-size="10.00">character(len=240)</text>
</g>
<!-- Node2&#45;&gt;Node1 -->
<g id="edge1" class="edge"><title>Node2&#45;&gt;Node1</title>
<path fill="none" stroke="#9a32cd" stroke-dasharray="5,2" d="M280.173,-374.48C302.372,-367.314 326.859,-356.378 345,-340 399.615,-290.695 426.181,-200.98 433.7,-171.598"/>
<polygon fill="#9a32cd" stroke="#9a32cd" points="279.047,-371.164 270.495,-377.419 281.081,-377.862 279.047,-371.164"/>
<text text-anchor="middle" x="317.5" y="-373" font-family="Helvetica,sans-Serif" font-size="10.00"> restartfile</text>
</g>
<!-- Node3 -->
<g id="node3" class="node"><title>Node3</title>
<polygon fill="white" stroke="#bfbfbf" points="24,-301.5 24,-320.5 68,-320.5 68,-301.5 24,-301.5"/>
<text text-anchor="middle" x="46" y="-308.5" font-family="Helvetica,sans-Serif" font-size="10.00">logical</text>
</g>
<!-- Node3&#45;&gt;Node1 -->
<g id="edge2" class="edge"><title>Node3&#45;&gt;Node1</title>
<path fill="none" stroke="#9a32cd" stroke-dasharray="5,2" d="M78.1011,-313.964C100.013,-315.4 129.967,-316.051 156,-312 244.82,-298.178 269.706,-289.099 345,-240 377.419,-218.86 410.767,-187.263 426.581,-171.565"/>
<polygon fill="#9a32cd" stroke="#9a32cd" points="78.276,-310.467 68.043,-313.212 77.7544,-317.448 78.276,-310.467"/>
<text text-anchor="middle" x="223" y="-333" font-family="Helvetica,sans-Serif" font-size="10.00"> large_file_support</text>
<text text-anchor="middle" x="223" y="-322" font-family="Helvetica,sans-Serif" font-size="10.00">parallel_restartfiles</text>
<text text-anchor="middle" x="223" y="-311" font-family="Helvetica,sans-Serif" font-size="10.00">restart</text>
</g>
<!-- Node4 -->
<g id="node4" class="node"><title>Node4</title>
<g id="a_node4"><a xlink:href="structmom__restart_1_1field__restart.html" target="_top" xlink:title="mom_restart::field\l_restart">
<polygon fill="white" stroke="black" points="175.5,-236 175.5,-266 270.5,-266 270.5,-236 175.5,-236"/>
<text text-anchor="start" x="183.5" y="-254" font-family="Helvetica,sans-Serif" font-size="10.00">mom_restart::field</text>
<text text-anchor="middle" x="223" y="-243" font-family="Helvetica,sans-Serif" font-size="10.00">_restart</text>
</a>
</g>
</g>
<!-- Node3&#45;&gt;Node4 -->
<g id="edge4" class="edge"><title>Node3&#45;&gt;Node4</title>
<path fill="none" stroke="#9a32cd" stroke-dasharray="5,2" d="M77.694,-300.476C105.481,-290.949 146.73,-276.807 178.018,-266.079"/>
<polygon fill="#9a32cd" stroke="#9a32cd" points="76.4334,-297.208 68.1091,-303.763 78.7037,-303.83 76.4334,-297.208"/>
<text text-anchor="middle" x="133" y="-303" font-family="Helvetica,sans-Serif" font-size="10.00"> mand_var</text>
<text text-anchor="middle" x="133" y="-292" font-family="Helvetica,sans-Serif" font-size="10.00">initialized</text>
</g>
<!-- Node4&#45;&gt;Node1 -->
<g id="edge3" class="edge"><title>Node4&#45;&gt;Node1</title>
<path fill="none" stroke="#9a32cd" stroke-dasharray="5,2" d="M272.676,-232.276C294.836,-223.601 321.342,-213.016 345,-203 369.414,-192.664 397.15,-180.038 415.517,-171.551"/>
<polygon fill="#9a32cd" stroke="#9a32cd" points="271.191,-229.098 263.147,-235.993 273.735,-235.619 271.191,-229.098"/>
<text text-anchor="middle" x="317.5" y="-228" font-family="Helvetica,sans-Serif" font-size="10.00"> restart_field</text>
</g>
<!-- Node5 -->
<g id="node5" class="node"><title>Node5</title>
<polygon fill="white" stroke="#bfbfbf" points="20.5,-247.5 20.5,-266.5 71.5,-266.5 71.5,-247.5 20.5,-247.5"/>
<text text-anchor="middle" x="46" y="-254.5" font-family="Helvetica,sans-Serif" font-size="10.00">vardesc</text>
</g>
<!-- Node5&#45;&gt;Node4 -->
<g id="edge5" class="edge"><title>Node5&#45;&gt;Node4</title>
<path fill="none" stroke="#9a32cd" stroke-dasharray="5,2" d="M81.7859,-255.807C108.615,-254.887 145.986,-253.606 175.4,-252.598"/>
<polygon fill="#9a32cd" stroke="#9a32cd" points="81.5762,-252.312 71.7021,-256.153 81.8162,-259.308 81.5762,-252.312"/>
<text text-anchor="middle" x="133" y="-258" font-family="Helvetica,sans-Serif" font-size="10.00"> vars</text>
</g>
<!-- Node6 -->
<g id="node6" class="node"><title>Node6</title>
<polygon fill="white" stroke="#bfbfbf" points="0,-209.5 0,-228.5 92,-228.5 92,-209.5 0,-209.5"/>
<text text-anchor="middle" x="46" y="-216.5" font-family="Helvetica,sans-Serif" font-size="10.00">character(len=32)</text>
</g>
<!-- Node6&#45;&gt;Node4 -->
<g id="edge6" class="edge"><title>Node6&#45;&gt;Node4</title>
<path fill="none" stroke="#9a32cd" stroke-dasharray="5,2" d="M101.911,-229.041C125.461,-233.347 152.686,-238.325 175.254,-242.452"/>
<polygon fill="#9a32cd" stroke="#9a32cd" points="102.533,-225.597 92.0668,-227.241 101.274,-232.483 102.533,-225.597"/>
<text text-anchor="middle" x="133" y="-242" font-family="Helvetica,sans-Serif" font-size="10.00"> var_name</text>
</g>
<!-- Node7 -->
<g id="node7" class="node"><title>Node7</title>
<g id="a_node7"><a xlink:href="structmom__restart_1_1p2d.html" target="_top" xlink:title="mom_restart::p2d">
<polygon fill="white" stroke="black" points="176.5,-190.5 176.5,-209.5 269.5,-209.5 269.5,-190.5 176.5,-190.5"/>
<text text-anchor="middle" x="223" y="-197.5" font-family="Helvetica,sans-Serif" font-size="10.00">mom_restart::p2d</text>
</a>
</g>
</g>
<!-- Node7&#45;&gt;Node1 -->
<g id="edge7" class="edge"><title>Node7&#45;&gt;Node1</title>
<path fill="none" stroke="#9a32cd" stroke-dasharray="5,2" d="M279.793,-189.999C311.674,-184.285 351.433,-177.158 382.861,-171.525"/>
<polygon fill="#9a32cd" stroke="#9a32cd" points="278.965,-186.592 269.74,-191.801 280.201,-193.482 278.965,-186.592"/>
<text text-anchor="middle" x="317.5" y="-191" font-family="Helvetica,sans-Serif" font-size="10.00"> var_ptr2d</text>
</g>
<!-- Node8 -->
<g id="node8" class="node"><title>Node8</title>
<polygon fill="white" stroke="#bfbfbf" points="30,-109.5 30,-128.5 62,-128.5 62,-109.5 30,-109.5"/>
<text text-anchor="middle" x="46" y="-116.5" font-family="Helvetica,sans-Serif" font-size="10.00">real</text>
</g>
<!-- Node8&#45;&gt;Node7 -->
<g id="edge8" class="edge"><title>Node8&#45;&gt;Node7</title>
<path fill="none" stroke="#9a32cd" stroke-dasharray="5,2" d="M67.7921,-134.805C79.6997,-143.35 95.1811,-153.629 110,-161 134.98,-173.424 164.893,-183.622 187.52,-190.47"/>
<polygon fill="#9a32cd" stroke="#9a32cd" points="69.5859,-131.78 59.453,-128.686 65.4448,-137.424 69.5859,-131.78"/>
<text text-anchor="middle" x="133" y="-183" font-family="Helvetica,sans-Serif" font-size="10.00"> p</text>
</g>
<!-- Node9 -->
<g id="node9" class="node"><title>Node9</title>
<g id="a_node9"><a xlink:href="structmom__restart_1_1p3d.html" target="_top" xlink:title="mom_restart::p3d">
<polygon fill="white" stroke="black" points="176.5,-152.5 176.5,-171.5 269.5,-171.5 269.5,-152.5 176.5,-152.5"/>
<text text-anchor="middle" x="223" y="-159.5" font-family="Helvetica,sans-Serif" font-size="10.00">mom_restart::p3d</text>
</a>
</g>
</g>
<!-- Node8&#45;&gt;Node9 -->
<g id="edge10" class="edge"><title>Node8&#45;&gt;Node9</title>
<path fill="none" stroke="#9a32cd" stroke-dasharray="5,2" d="M71.9736,-125.136C100.958,-132.258 149.109,-144.09 183.029,-152.424"/>
<polygon fill="#9a32cd" stroke="#9a32cd" points="72.7703,-121.728 62.224,-122.741 71.0999,-128.526 72.7703,-121.728"/>
<text text-anchor="middle" x="133" y="-149" font-family="Helvetica,sans-Serif" font-size="10.00"> p</text>
</g>
<!-- Node10 -->
<g id="node10" class="node"><title>Node10</title>
<g id="a_node10"><a xlink:href="structmom__restart_1_1p4d.html" target="_top" xlink:title="mom_restart::p4d">
<polygon fill="white" stroke="black" points="176.5,-114.5 176.5,-133.5 269.5,-133.5 269.5,-114.5 176.5,-114.5"/>
<text text-anchor="middle" x="223" y="-121.5" font-family="Helvetica,sans-Serif" font-size="10.00">mom_restart::p4d</text>
</a>
</g>
</g>
<!-- Node8&#45;&gt;Node10 -->
<g id="edge12" class="edge"><title>Node8&#45;&gt;Node10</title>
<path fill="none" stroke="#9a32cd" stroke-dasharray="5,2" d="M72.3724,-118.864C94.4687,-118.834 127.362,-119.001 156,-120 162.539,-120.228 169.439,-120.553 176.213,-120.92"/>
<polygon fill="#9a32cd" stroke="#9a32cd" points="72.16,-115.365 62.1701,-118.893 72.18,-122.365 72.16,-115.365"/>
<text text-anchor="middle" x="133" y="-123" font-family="Helvetica,sans-Serif" font-size="10.00"> p</text>
</g>
<!-- Node11 -->
<g id="node11" class="node"><title>Node11</title>
<g id="a_node11"><a xlink:href="structmom__restart_1_1p0d.html" target="_top" xlink:title="mom_restart::p0d">
<polygon fill="white" stroke="black" points="176.5,-76.5 176.5,-95.5 269.5,-95.5 269.5,-76.5 176.5,-76.5"/>
<text text-anchor="middle" x="223" y="-83.5" font-family="Helvetica,sans-Serif" font-size="10.00">mom_restart::p0d</text>
</a>
</g>
</g>
<!-- Node8&#45;&gt;Node11 -->
<g id="edge14" class="edge"><title>Node8&#45;&gt;Node11</title>
<path fill="none" stroke="#9a32cd" stroke-dasharray="5,2" d="M72.0535,-113.127C83.582,-110.503 97.4565,-107.456 110,-105 131.774,-100.737 156.04,-96.5511 176.403,-93.1983"/>
<polygon fill="#9a32cd" stroke="#9a32cd" points="71.191,-109.734 62.2312,-115.388 72.7616,-116.555 71.191,-109.734"/>
<text text-anchor="middle" x="133" y="-108" font-family="Helvetica,sans-Serif" font-size="10.00"> p</text>
</g>
<!-- Node13 -->
<g id="node13" class="node"><title>Node13</title>
<g id="a_node13"><a xlink:href="structmom__restart_1_1p1d.html" target="_top" xlink:title="mom_restart::p1d">
<polygon fill="white" stroke="black" points="176.5,-38.5 176.5,-57.5 269.5,-57.5 269.5,-38.5 176.5,-38.5"/>
<text text-anchor="middle" x="223" y="-45.5" font-family="Helvetica,sans-Serif" font-size="10.00">mom_restart::p1d</text>
</a>
</g>
</g>
<!-- Node8&#45;&gt;Node13 -->
<g id="edge17" class="edge"><title>Node8&#45;&gt;Node13</title>
<path fill="none" stroke="#9a32cd" stroke-dasharray="5,2" d="M70.1985,-104.137C81.8354,-97.1012 96.3317,-88.9572 110,-83 134.091,-72.5002 162.342,-63.695 184.443,-57.5427"/>
<polygon fill="#9a32cd" stroke="#9a32cd" points="68.2185,-101.246 61.5493,-109.478 71.8967,-107.201 68.2185,-101.246"/>
<text text-anchor="middle" x="133" y="-86" font-family="Helvetica,sans-Serif" font-size="10.00"> p</text>
</g>
<!-- Node9&#45;&gt;Node1 -->
<g id="edge9" class="edge"><title>Node9&#45;&gt;Node1</title>
<path fill="none" stroke="#9a32cd" stroke-dasharray="5,2" d="M279.927,-162C305.309,-162 335.666,-162 362.83,-162"/>
<polygon fill="#9a32cd" stroke="#9a32cd" points="279.74,-158.5 269.74,-162 279.74,-165.5 279.74,-158.5"/>
<text text-anchor="middle" x="317.5" y="-165" font-family="Helvetica,sans-Serif" font-size="10.00"> var_ptr3d</text>
</g>
<!-- Node10&#45;&gt;Node1 -->
<g id="edge11" class="edge"><title>Node10&#45;&gt;Node1</title>
<path fill="none" stroke="#9a32cd" stroke-dasharray="5,2" d="M279.793,-134.001C311.674,-139.715 351.433,-146.842 382.861,-152.475"/>
<polygon fill="#9a32cd" stroke="#9a32cd" points="280.201,-130.518 269.74,-132.199 278.965,-137.408 280.201,-130.518"/>
<text text-anchor="middle" x="317.5" y="-149" font-family="Helvetica,sans-Serif" font-size="10.00"> var_ptr4d</text>
</g>
<!-- Node11&#45;&gt;Node1 -->
<g id="edge13" class="edge"><title>Node11&#45;&gt;Node1</title>
<path fill="none" stroke="#9a32cd" stroke-dasharray="5,2" d="M270.139,-98.2628C292.896,-104.681 320.624,-113.056 345,-122 369.95,-131.154 397.813,-143.77 416.055,-152.37"/>
<polygon fill="#9a32cd" stroke="#9a32cd" points="270.962,-94.8589 260.39,-95.5467 269.084,-101.602 270.962,-94.8589"/>
<text text-anchor="middle" x="317.5" y="-125" font-family="Helvetica,sans-Serif" font-size="10.00"> var_ptr0d</text>
</g>
<!-- Node12 -->
<g id="node12" class="node"><title>Node12</title>
<polygon fill="white" stroke="#bfbfbf" points="200,-0.5 200,-19.5 246,-19.5 246,-0.5 200,-0.5"/>
<text text-anchor="middle" x="223" y="-7.5" font-family="Helvetica,sans-Serif" font-size="10.00">integer</text>
</g>
<!-- Node12&#45;&gt;Node1 -->
<g id="edge15" class="edge"><title>Node12&#45;&gt;Node1</title>
<path fill="none" stroke="#9a32cd" stroke-dasharray="5,2" d="M256.361,-12.4082C282.201,-15.6444 318.365,-23.2283 345,-41 389.385,-70.6149 420.599,-129.347 431.621,-152.397"/>
<polygon fill="#9a32cd" stroke="#9a32cd" points="256.644,-8.91828 246.321,-11.303 255.878,-15.8762 256.644,-8.91828"/>
<text text-anchor="middle" x="317.5" y="-55" font-family="Helvetica,sans-Serif" font-size="10.00"> max_fields</text>
<text text-anchor="middle" x="317.5" y="-44" font-family="Helvetica,sans-Serif" font-size="10.00">novars</text>
</g>
<!-- Node13&#45;&gt;Node1 -->
<g id="edge16" class="edge"><title>Node13&#45;&gt;Node1</title>
<path fill="none" stroke="#9a32cd" stroke-dasharray="5,2" d="M271.501,-60.4489C294.474,-67.4657 321.988,-77.3771 345,-90 377.499,-107.827 410.292,-137.223 426.167,-152.348"/>
<polygon fill="#9a32cd" stroke="#9a32cd" points="272.212,-57.0092 261.63,-57.5245 270.224,-63.7209 272.212,-57.0092"/>
<text text-anchor="middle" x="317.5" y="-93" font-family="Helvetica,sans-Serif" font-size="10.00"> var_ptr1d</text>
</g>
</g>
</svg>
