<?xml version="1.0" encoding="UTF-8" standalone="no"?>
<!DOCTYPE svg PUBLIC "-//W3C//DTD SVG 1.1//EN"
 "http://www.w3.org/Graphics/SVG/1.1/DTD/svg11.dtd">
<!-- Generated by graphviz version 2.38.0 (20140413.2041)
 -->
<!-- Title: mom_restart::field_restart Pages: 1 -->
<svg width="235pt" height="117pt"
 viewBox="0.00 0.00 235.00 117.00" xmlns="http://www.w3.org/2000/svg" xmlns:xlink="http://www.w3.org/1999/xlink">
<g id="graph0" class="graph" transform="scale(1 1) rotate(0) translate(4 113)">
<title>mom_restart::field_restart</title>
<polygon fill="white" stroke="none" points="-4,4 -4,-113 231,-113 231,4 -4,4"/>
<!-- Node1 -->
<g id="node1" class="node"><title>Node1</title>
<polygon fill="#bfbfbf" stroke="black" points="43.5,-0.5 43.5,-30.5 138.5,-30.5 138.5,-0.5 43.5,-0.5"/>
<text text-anchor="start" x="51.5" y="-18.5" font-family="Helvetica,sans-Serif" font-size="10.00">mom_restart::field</text>
<text text-anchor="middle" x="91" y="-7.5" font-family="Helvetica,sans-Serif" font-size="10.00">_restart</text>
</g>
<!-- Node2 -->
<g id="node2" class="node"><title>Node2</title>
<polygon fill="white" stroke="#bfbfbf" points="0,-89.5 0,-108.5 44,-108.5 44,-89.5 0,-89.5"/>
<text text-anchor="middle" x="22" y="-96.5" font-family="Helvetica,sans-Serif" font-size="10.00">logical</text>
</g>
<!-- Node2&#45;&gt;Node1 -->
<g id="edge1" class="edge"><title>Node2&#45;&gt;Node1</title>
<path fill="none" stroke="#9a32cd" stroke-dasharray="5,2" d="M26.2902,-79.2415C29.2228,-69.4608 33.8948,-57.7476 41,-49 46.8747,-41.7674 54.7985,-35.6033 62.6046,-30.6504"/>
<polygon fill="#9a32cd" stroke="#9a32cd" points="22.8293,-78.6415 23.6811,-89.202 29.6009,-80.4153 22.8293,-78.6415"/>
<text text-anchor="middle" x="64" y="-63" font-family="Helvetica,sans-Serif" font-size="10.00"> mand_var</text>
<text text-anchor="middle" x="64" y="-52" font-family="Helvetica,sans-Serif" font-size="10.00">initialized</text>
</g>
<!-- Node3 -->
<g id="node3" class="node"><title>Node3</title>
<polygon fill="white" stroke="#bfbfbf" points="65.5,-89.5 65.5,-108.5 116.5,-108.5 116.5,-89.5 65.5,-89.5"/>
<text text-anchor="middle" x="91" y="-96.5" font-family="Helvetica,sans-Serif" font-size="10.00">vardesc</text>
</g>
<!-- Node3&#45;&gt;Node1 -->
<g id="edge2" class="edge"><title>Node3&#45;&gt;Node1</title>
<path fill="none" stroke="#9a32cd" stroke-dasharray="5,2" d="M91,-79.229C91,-64.4075 91,-44.0505 91,-30.5974"/>
<polygon fill="#9a32cd" stroke="#9a32cd" points="87.5001,-79.278 91,-89.2781 94.5001,-79.2781 87.5001,-79.278"/>
<text text-anchor="middle" x="102" y="-57.5" font-family="Helvetica,sans-Serif" font-size="10.00"> vars</text>
</g>
<!-- Node4 -->
<g id="node4" class="node"><title>Node4</title>
<polygon fill="white" stroke="#bfbfbf" points="135,-89.5 135,-108.5 227,-108.5 227,-89.5 135,-89.5"/>
<text text-anchor="middle" x="181" y="-96.5" font-family="Helvetica,sans-Serif" font-size="10.00">character(len=32)</text>
</g>
<!-- Node4&#45;&gt;Node1 -->
<g id="edge3" class="edge"><title>Node4&#45;&gt;Node1</title>
<path fill="none" stroke="#9a32cd" stroke-dasharray="5,2" d="M163.55,-82.1983C147.025,-67.2341 122.443,-44.9738 106.568,-30.5974"/>
<polygon fill="#9a32cd" stroke="#9a32cd" points="161.607,-85.16 171.368,-89.2781 166.305,-79.9713 161.607,-85.16"/>
<text text-anchor="middle" x="173" y="-57.5" font-family="Helvetica,sans-Serif" font-size="10.00"> var_name</text>
</g>
</g>
</svg>
