<?xml version="1.0" encoding="UTF-8" standalone="no"?>
<!DOCTYPE svg PUBLIC "-//W3C//DTD SVG 1.1//EN"
 "http://www.w3.org/Graphics/SVG/1.1/DTD/svg11.dtd">
<!-- Generated by graphviz version 2.38.0 (20140413.2041)
 -->
<!-- Title: scm_idealized_hurricane::scm_idealized_hurricane_cs Pages: 1 -->
<svg width="154pt" height="194pt"
 viewBox="0.00 0.00 154.00 194.00" xmlns="http://www.w3.org/2000/svg" xmlns:xlink="http://www.w3.org/1999/xlink">
<g id="graph0" class="graph" transform="scale(1 1) rotate(0) translate(4 190)">
<title>scm_idealized_hurricane::scm_idealized_hurricane_cs</title>
<polygon fill="white" stroke="none" points="-4,4 -4,-190 150,-190 150,4 -4,4"/>
<!-- Node1 -->
<g id="node1" class="node"><title>Node1</title>
<polygon fill="#bfbfbf" stroke="black" points="0,-0.5 0,-30.5 146,-30.5 146,-0.5 0,-0.5"/>
<text text-anchor="start" x="8" y="-18.5" font-family="Helvetica,sans-Serif" font-size="10.00">scm_idealized_hurricane</text>
<text text-anchor="middle" x="73" y="-7.5" font-family="Helvetica,sans-Serif" font-size="10.00">::scm_idealized_hurricane_cs</text>
</g>
<!-- Node2 -->
<g id="node2" class="node"><title>Node2</title>
<polygon fill="white" stroke="#bfbfbf" points="57,-166.5 57,-185.5 89,-185.5 89,-166.5 57,-166.5"/>
<text text-anchor="middle" x="73" y="-173.5" font-family="Helvetica,sans-Serif" font-size="10.00">real</text>
</g>
<!-- Node2&#45;&gt;Node1 -->
<g id="edge1" class="edge"><title>Node2&#45;&gt;Node1</title>
<path fill="none" stroke="#9a32cd" stroke-dasharray="5,2" d="M73,-156.263C73,-124.174 73,-59.3923 73,-30.714"/>
<polygon fill="#9a32cd" stroke="#9a32cd" points="69.5001,-156.478 73,-166.478 76.5001,-156.478 69.5001,-156.478"/>
<text text-anchor="middle" x="97.5" y="-140" font-family="Helvetica,sans-Serif" font-size="10.00"> yy</text>
<text text-anchor="middle" x="97.5" y="-129" font-family="Helvetica,sans-Serif" font-size="10.00">u_max</text>
<text text-anchor="middle" x="97.5" y="-118" font-family="Helvetica,sans-Serif" font-size="10.00">tran_speed</text>
<text text-anchor="middle" x="97.5" y="-107" font-family="Helvetica,sans-Serif" font-size="10.00">rho_a</text>
<text text-anchor="middle" x="97.5" y="-96" font-family="Helvetica,sans-Serif" font-size="10.00">gust_const</text>
<text text-anchor="middle" x="97.5" y="-85" font-family="Helvetica,sans-Serif" font-size="10.00">p_n</text>
<text text-anchor="middle" x="97.5" y="-74" font-family="Helvetica,sans-Serif" font-size="10.00">rho0</text>
<text text-anchor="middle" x="97.5" y="-63" font-family="Helvetica,sans-Serif" font-size="10.00">p_c</text>
<text text-anchor="middle" x="97.5" y="-52" font-family="Helvetica,sans-Serif" font-size="10.00">r_max</text>
</g>
</g>
</svg>
