<?xml version="1.0" encoding="UTF-8" standalone="no"?>
<!DOCTYPE svg PUBLIC "-//W3C//DTD SVG 1.1//EN"
 "http://www.w3.org/Graphics/SVG/1.1/DTD/svg11.dtd">
<!-- Generated by graphviz version 2.38.0 (20140413.2041)
 -->
<!-- Title: mom_diffconvection::diffconvection_cs Pages: 1 -->
<svg width="300pt" height="128pt"
 viewBox="0.00 0.00 300.00 128.00" xmlns="http://www.w3.org/2000/svg" xmlns:xlink="http://www.w3.org/1999/xlink">
<g id="graph0" class="graph" transform="scale(1 1) rotate(0) translate(4 124)">
<title>mom_diffconvection::diffconvection_cs</title>
<polygon fill="white" stroke="none" points="-4,4 -4,-124 296,-124 296,4 -4,4"/>
<!-- Node1 -->
<g id="node1" class="node"><title>Node1</title>
<polygon fill="#bfbfbf" stroke="black" points="79,-0.5 79,-30.5 183,-30.5 183,-0.5 79,-0.5"/>
<text text-anchor="start" x="87" y="-18.5" font-family="Helvetica,sans-Serif" font-size="10.00">mom_diffconvection</text>
<text text-anchor="middle" x="131" y="-7.5" font-family="Helvetica,sans-Serif" font-size="10.00">::diffconvection_cs</text>
</g>
<!-- Node2 -->
<g id="node2" class="node"><title>Node2</title>
<polygon fill="white" stroke="#bfbfbf" points="0,-100.5 0,-119.5 44,-119.5 44,-100.5 0,-100.5"/>
<text text-anchor="middle" x="22" y="-107.5" font-family="Helvetica,sans-Serif" font-size="10.00">logical</text>
</g>
<!-- Node2&#45;&gt;Node1 -->
<g id="edge1" class="edge"><title>Node2&#45;&gt;Node1</title>
<path fill="none" stroke="#9a32cd" stroke-dasharray="5,2" d="M23.2499,-90.2205C25.0668,-77.1345 29.4578,-60.1004 40,-49 50.3974,-38.0522 64.7313,-30.7851 78.9489,-25.964"/>
<polygon fill="#9a32cd" stroke="#9a32cd" points="19.7388,-90.1569 22.2258,-100.456 26.7041,-90.8539 19.7388,-90.1569"/>
<text text-anchor="middle" x="70.5" y="-68.5" font-family="Helvetica,sans-Serif" font-size="10.00"> passivemode</text>
<text text-anchor="middle" x="70.5" y="-57.5" font-family="Helvetica,sans-Serif" font-size="10.00">debug</text>
</g>
<!-- Node3 -->
<g id="node3" class="node"><title>Node3</title>
<polygon fill="white" stroke="#bfbfbf" points="68.5,-100.5 68.5,-119.5 121.5,-119.5 121.5,-100.5 68.5,-100.5"/>
<text text-anchor="middle" x="95" y="-107.5" font-family="Helvetica,sans-Serif" font-size="10.00">diag_ctrl</text>
</g>
<!-- Node3&#45;&gt;Node1 -->
<g id="edge2" class="edge"><title>Node3&#45;&gt;Node1</title>
<path fill="none" stroke="#9a32cd" stroke-dasharray="5,2" d="M101.407,-90.7178C105.664,-78.7801 111.467,-62.8888 117,-49 119.41,-42.9502 122.225,-36.3383 124.695,-30.667"/>
<polygon fill="#9a32cd" stroke="#9a32cd" points="98.0181,-89.8038 97.9854,-100.399 104.618,-92.1366 98.0181,-89.8038"/>
<text text-anchor="middle" x="128" y="-63" font-family="Helvetica,sans-Serif" font-size="10.00"> diag</text>
</g>
<!-- Node4 -->
<g id="node4" class="node"><title>Node4</title>
<polygon fill="white" stroke="#bfbfbf" points="140,-100.5 140,-119.5 186,-119.5 186,-100.5 140,-100.5"/>
<text text-anchor="middle" x="163" y="-107.5" font-family="Helvetica,sans-Serif" font-size="10.00">integer</text>
</g>
<!-- Node4&#45;&gt;Node1 -->
<g id="edge3" class="edge"><title>Node4&#45;&gt;Node1</title>
<path fill="none" stroke="#9a32cd" stroke-dasharray="5,2" d="M156.7,-90.7879C150.603,-73.166 141.49,-46.822 135.912,-30.6999"/>
<polygon fill="#9a32cd" stroke="#9a32cd" points="153.47,-92.1574 160.047,-100.464 160.085,-89.8689 153.47,-92.1574"/>
<text text-anchor="middle" x="180.5" y="-68.5" font-family="Helvetica,sans-Serif" font-size="10.00"> id_kd_conv</text>
<text text-anchor="middle" x="180.5" y="-57.5" font-family="Helvetica,sans-Serif" font-size="10.00">id_n2</text>
</g>
<!-- Node5 -->
<g id="node5" class="node"><title>Node5</title>
<polygon fill="white" stroke="#bfbfbf" points="217,-100.5 217,-119.5 249,-119.5 249,-100.5 217,-100.5"/>
<text text-anchor="middle" x="233" y="-107.5" font-family="Helvetica,sans-Serif" font-size="10.00">real</text>
</g>
<!-- Node5&#45;&gt;Node1 -->
<g id="edge4" class="edge"><title>Node5&#45;&gt;Node1</title>
<path fill="none" stroke="#9a32cd" stroke-dasharray="5,2" d="M230.236,-90.3005C227.421,-77.2529 221.852,-60.2319 211,-49 203.292,-41.0218 193.356,-34.9404 183.123,-30.3258"/>
<polygon fill="#9a32cd" stroke="#9a32cd" points="226.855,-91.2731 232.065,-100.498 233.745,-90.0376 226.855,-91.2731"/>
<text text-anchor="middle" x="260" y="-74" font-family="Helvetica,sans-Serif" font-size="10.00"> n2</text>
<text text-anchor="middle" x="260" y="-63" font-family="Helvetica,sans-Serif" font-size="10.00">kd_convection</text>
<text text-anchor="middle" x="260" y="-52" font-family="Helvetica,sans-Serif" font-size="10.00">kd_conv</text>
</g>
</g>
</svg>
