<?xml version="1.0" encoding="UTF-8" standalone="no"?>
<!DOCTYPE svg PUBLIC "-//W3C//DTD SVG 1.1//EN"
 "http://www.w3.org/Graphics/SVG/1.1/DTD/svg11.dtd">
<!-- Generated by graphviz version 2.38.0 (20140413.2041)
 -->
<!-- Title: ocean_model_mod::ocean_state_type Pages: 1 -->
<!--zoomable 645 -->
<svg id="main" version="1.1" xmlns="http://www.w3.org/2000/svg" xmlns:xlink="http://www.w3.org/1999/xlink" xml:space="preserve" onload="init(evt)">
<style type="text/css"><![CDATA[
.edge:hover path { stroke: red; }
.edge:hover polygon { stroke: red; fill: red; }
]]></style>
<script type="text/javascript"><![CDATA[
var edges = document.getElementsByTagName('g');
if (edges && edges.length) {
  for (var i=0;i<edges.length;i++) {
    if (edges[i].id.substr(0,4)=='edge') {
      edges[i].setAttribute('class','edge');
    }
  }
}
]]></script>
        <defs>
                <circle id="rim" cx="0" cy="0" r="7"/>
                <circle id="rim2" cx="0" cy="0" r="3.5"/>
                <g id="zoomPlus">
                        <use xlink:href="#rim" fill="#404040">
                                <set attributeName="fill" to="#808080" begin="zoomplus.mouseover" end="zoomplus.mouseout"/>
                        </use>
                        <path d="M-4,0h8M0,-4v8" fill="none" stroke="white" stroke-width="1.5" pointer-events="none"/>
                </g>
                <g id="zoomMin">
                        <use xlink:href="#rim" fill="#404040">
                                <set attributeName="fill" to="#808080" begin="zoomminus.mouseover" end="zoomminus.mouseout"/>
                        </use>
                        <path d="M-4,0h8" fill="none" stroke="white" stroke-width="1.5" pointer-events="none"/>
                </g>
                <g id="dirArrow">
                        <path fill="none" stroke="white" stroke-width="1.5" d="M0,-3.0v7 M-2.5,-0.5L0,-3.0L2.5,-0.5"/>
                </g>
               <g id="resetDef">
                       <use xlink:href="#rim2" fill="#404040">
                               <set attributeName="fill" to="#808080" begin="reset.mouseover" end="reset.mouseout"/>
                       </use>
               </g>
        </defs>

<script type="text/javascript">
var viewWidth = 395;
var viewHeight = 645;
var sectionId = 'dynsection-0';
</script>
<script xlink:href="svgpan.js"/>
<svg id="graph" class="graph">
<g id="viewport">
<title>ocean_model_mod::ocean_state_type</title>
<polygon fill="white" stroke="none" points="-4,4 -4,-640.5 391,-640.5 391,4 -4,4"/>
<!-- Node1 -->
<g id="node1" class="node"><title>Node1</title>
<polygon fill="#bfbfbf" stroke="black" points="256,-287.5 256,-317.5 387,-317.5 387,-287.5 256,-287.5"/>
<text text-anchor="start" x="264" y="-305.5" font-family="Helvetica,sans-Serif" font-size="10.00">ocean_model_mod::ocean</text>
<text text-anchor="middle" x="321.5" y="-294.5" font-family="Helvetica,sans-Serif" font-size="10.00">_state_type</text>
</g>
<!-- Node2 -->
<g id="node2" class="node"><title>Node2</title>
<polygon fill="white" stroke="#bfbfbf" points="42,-554 42,-573 86,-573 86,-554 42,-554"/>
<text text-anchor="middle" x="64" y="-561" font-family="Helvetica,sans-Serif" font-size="10.00">logical</text>
</g>
<!-- Node2&#45;&gt;Node1 -->
<g id="edge1" class="edge"><title>Node2&#45;&gt;Node1</title>
<path fill="none" stroke="#9a32cd" stroke-dasharray="5,2" d="M96.0073,-568.604C133.842,-572.994 197.732,-574.227 238,-541.5 309.365,-483.5 319.177,-360.369 320.387,-317.551"/>
<polygon fill="#9a32cd" stroke="#9a32cd" points="96.4368,-565.131 86.0681,-567.308 95.5315,-572.072 96.4368,-565.131"/>
<text text-anchor="start" x="146" y="-628.5" font-family="Helvetica,sans-Serif" font-size="10.00"> icebergs_apply_rigid</text>
<text text-anchor="middle" x="192" y="-617.5" font-family="Helvetica,sans-Serif" font-size="10.00">_boundary</text>
<text text-anchor="middle" x="192" y="-606.5" font-family="Helvetica,sans-Serif" font-size="10.00">restore_temp</text>
<text text-anchor="middle" x="192" y="-595.5" font-family="Helvetica,sans-Serif" font-size="10.00">restore_salinity</text>
<text text-anchor="middle" x="192" y="-584.5" font-family="Helvetica,sans-Serif" font-size="10.00">is_ocean_pe</text>
<text text-anchor="middle" x="192" y="-573.5" font-family="Helvetica,sans-Serif" font-size="10.00">use_ice_shelf</text>
</g>
<!-- Node3 -->
<g id="node3" class="node"><title>Node3</title>
<polygon fill="white" stroke="#bfbfbf" points="34.5,-500 34.5,-519 93.5,-519 93.5,-500 34.5,-500"/>
<text text-anchor="middle" x="64" y="-507" font-family="Helvetica,sans-Serif" font-size="10.00">time_type</text>
</g>
<!-- Node3&#45;&gt;Node1 -->
<g id="edge2" class="edge"><title>Node3&#45;&gt;Node1</title>
<path fill="none" stroke="#9a32cd" stroke-dasharray="5,2" d="M103.935,-507.657C148.344,-504.837 217.469,-498.041 238,-482.5 293.367,-440.591 312.724,-352.748 318.427,-317.554"/>
<polygon fill="#9a32cd" stroke="#9a32cd" points="103.544,-504.174 93.7692,-508.261 103.959,-511.162 103.544,-504.174"/>
<text text-anchor="middle" x="192" y="-529.5" font-family="Helvetica,sans-Serif" font-size="10.00"> energysavedays</text>
<text text-anchor="middle" x="192" y="-518.5" font-family="Helvetica,sans-Serif" font-size="10.00">write_energy_time</text>
<text text-anchor="middle" x="192" y="-507.5" font-family="Helvetica,sans-Serif" font-size="10.00">time</text>
</g>
<!-- Node4 -->
<g id="node4" class="node"><title>Node4</title>
<polygon fill="white" stroke="#bfbfbf" points="33,-462 33,-481 95,-481 95,-462 33,-462"/>
<text text-anchor="middle" x="64" y="-469" font-family="Helvetica,sans-Serif" font-size="10.00">directories</text>
</g>
<!-- Node4&#45;&gt;Node1 -->
<g id="edge3" class="edge"><title>Node4&#45;&gt;Node1</title>
<path fill="none" stroke="#9a32cd" stroke-dasharray="5,2" d="M105.509,-469.97C149.723,-467.598 217.029,-461.715 238,-447.5 284.751,-415.812 308.147,-348.267 316.643,-317.877"/>
<polygon fill="#9a32cd" stroke="#9a32cd" points="105.169,-466.482 95.3556,-470.475 105.517,-473.474 105.169,-466.482"/>
<text text-anchor="middle" x="192" y="-470.5" font-family="Helvetica,sans-Serif" font-size="10.00"> dirs</text>
</g>
<!-- Node5 -->
<g id="node5" class="node"><title>Node5</title>
<polygon fill="white" stroke="#bfbfbf" points="39.5,-424 39.5,-443 88.5,-443 88.5,-424 39.5,-424"/>
<text text-anchor="middle" x="64" y="-431" font-family="Helvetica,sans-Serif" font-size="10.00">surface</text>
</g>
<!-- Node5&#45;&gt;Node1 -->
<g id="edge4" class="edge"><title>Node5&#45;&gt;Node1</title>
<path fill="none" stroke="#9a32cd" stroke-dasharray="5,2" d="M98.7745,-434.989C135.49,-435.098 194.702,-430.75 238,-405.5 274.218,-384.378 300.813,-340.821 313.036,-317.697"/>
<polygon fill="#9a32cd" stroke="#9a32cd" points="98.6459,-431.487 88.5964,-434.842 98.5448,-438.486 98.6459,-431.487"/>
<text text-anchor="middle" x="192" y="-435.5" font-family="Helvetica,sans-Serif" font-size="10.00"> state</text>
</g>
<!-- Node6 -->
<g id="node6" class="node"><title>Node6</title>
<polygon fill="white" stroke="#bfbfbf" points="41,-386 41,-405 87,-405 87,-386 41,-386"/>
<text text-anchor="middle" x="64" y="-393" font-family="Helvetica,sans-Serif" font-size="10.00">forcing</text>
</g>
<!-- Node6&#45;&gt;Node1 -->
<g id="edge5" class="edge"><title>Node6&#45;&gt;Node1</title>
<path fill="none" stroke="#9a32cd" stroke-dasharray="5,2" d="M97.4615,-390.127C132.907,-383.605 190.901,-370.998 238,-351.5 259.857,-342.452 282.849,-328.365 298.993,-317.614"/>
<polygon fill="#9a32cd" stroke="#9a32cd" points="96.4507,-386.752 87.2223,-391.956 97.682,-393.643 96.4507,-386.752"/>
<text text-anchor="middle" x="192" y="-393.5" font-family="Helvetica,sans-Serif" font-size="10.00"> flux_tmp</text>
<text text-anchor="middle" x="192" y="-382.5" font-family="Helvetica,sans-Serif" font-size="10.00">fluxes</text>
</g>
<!-- Node7 -->
<g id="node7" class="node"><title>Node7</title>
<polygon fill="white" stroke="#bfbfbf" points="10,-336.5 10,-366.5 118,-366.5 118,-336.5 10,-336.5"/>
<text text-anchor="start" x="18" y="-354.5" font-family="Helvetica,sans-Serif" font-size="10.00">type(sum_output_cs)</text>
<text text-anchor="middle" x="64" y="-343.5" font-family="Helvetica,sans-Serif" font-size="10.00">, pointer</text>
</g>
<!-- Node7&#45;&gt;Node1 -->
<g id="edge6" class="edge"><title>Node7&#45;&gt;Node1</title>
<path fill="none" stroke="#9a32cd" stroke-dasharray="5,2" d="M128.4,-339.341C167.279,-331.885 216.92,-322.365 255.999,-314.87"/>
<polygon fill="#9a32cd" stroke="#9a32cd" points="127.412,-335.967 118.25,-341.288 128.73,-342.841 127.412,-335.967"/>
<text text-anchor="middle" x="192" y="-339.5" font-family="Helvetica,sans-Serif" font-size="10.00"> sum_output_csp</text>
</g>
<!-- Node8 -->
<g id="node8" class="node"><title>Node8</title>
<polygon fill="white" stroke="#bfbfbf" points="0,-287.5 0,-317.5 128,-317.5 128,-287.5 0,-287.5"/>
<text text-anchor="start" x="8" y="-305.5" font-family="Helvetica,sans-Serif" font-size="10.00">type(mom_control_struct)</text>
<text text-anchor="middle" x="64" y="-294.5" font-family="Helvetica,sans-Serif" font-size="10.00">, pointer</text>
</g>
<!-- Node8&#45;&gt;Node1 -->
<g id="edge7" class="edge"><title>Node8&#45;&gt;Node1</title>
<path fill="none" stroke="#9a32cd" stroke-dasharray="5,2" d="M138.403,-302.5C175.484,-302.5 220.074,-302.5 255.849,-302.5"/>
<polygon fill="#9a32cd" stroke="#9a32cd" points="138.157,-299 128.157,-302.5 138.157,-306 138.157,-299"/>
<text text-anchor="middle" x="192" y="-305.5" font-family="Helvetica,sans-Serif" font-size="10.00"> mom_csp</text>
</g>
<!-- Node9 -->
<g id="node9" class="node"><title>Node9</title>
<polygon fill="white" stroke="#bfbfbf" points="11.5,-238.5 11.5,-268.5 116.5,-268.5 116.5,-238.5 11.5,-238.5"/>
<text text-anchor="start" x="19.5" y="-256.5" font-family="Helvetica,sans-Serif" font-size="10.00">type(surface_forcing</text>
<text text-anchor="middle" x="64" y="-245.5" font-family="Helvetica,sans-Serif" font-size="10.00">_cs), pointer</text>
</g>
<!-- Node9&#45;&gt;Node1 -->
<g id="edge8" class="edge"><title>Node9&#45;&gt;Node1</title>
<path fill="none" stroke="#9a32cd" stroke-dasharray="5,2" d="M126.874,-265.366C165.875,-272.846 216.154,-282.488 255.701,-290.073"/>
<polygon fill="#9a32cd" stroke="#9a32cd" points="127.185,-261.862 116.704,-263.416 125.866,-268.737 127.185,-261.862"/>
<text text-anchor="middle" x="192" y="-290.5" font-family="Helvetica,sans-Serif" font-size="10.00"> forcing_csp</text>
</g>
<!-- Node10 -->
<g id="node10" class="node"><title>Node10</title>
<polygon fill="white" stroke="#bfbfbf" points="7.5,-189.5 7.5,-219.5 120.5,-219.5 120.5,-189.5 7.5,-189.5"/>
<text text-anchor="start" x="15.5" y="-207.5" font-family="Helvetica,sans-Serif" font-size="10.00">type(verticalgrid_type)</text>
<text text-anchor="middle" x="64" y="-196.5" font-family="Helvetica,sans-Serif" font-size="10.00">, pointer</text>
</g>
<!-- Node10&#45;&gt;Node1 -->
<g id="edge9" class="edge"><title>Node10&#45;&gt;Node1</title>
<path fill="none" stroke="#9a32cd" stroke-dasharray="5,2" d="M130.702,-219.429C163.588,-227.913 203.613,-239.793 238,-254.5 259.33,-263.623 282.004,-277.123 298.172,-287.484"/>
<polygon fill="#9a32cd" stroke="#9a32cd" points="131.293,-215.969 120.74,-216.906 129.574,-222.754 131.293,-215.969"/>
<text text-anchor="middle" x="192" y="-257.5" font-family="Helvetica,sans-Serif" font-size="10.00"> gv</text>
</g>
<!-- Node11 -->
<g id="node11" class="node"><title>Node11</title>
<polygon fill="white" stroke="#bfbfbf" points="20,-151 20,-170 108,-170 108,-151 20,-151"/>
<text text-anchor="middle" x="64" y="-158" font-family="Helvetica,sans-Serif" font-size="10.00">ocean_grid_type</text>
</g>
<!-- Node11&#45;&gt;Node1 -->
<g id="edge10" class="edge"><title>Node11&#45;&gt;Node1</title>
<path fill="none" stroke="#9a32cd" stroke-dasharray="5,2" d="M118.536,-168.04C154.431,-174.929 201.609,-187.656 238,-210.5 270.161,-230.689 297.288,-266.94 310.968,-287.392"/>
<polygon fill="#9a32cd" stroke="#9a32cd" points="118.723,-164.517 108.257,-166.167 117.468,-171.403 118.723,-164.517"/>
<text text-anchor="middle" x="192" y="-213.5" font-family="Helvetica,sans-Serif" font-size="10.00"> grid</text>
</g>
<!-- Node12 -->
<g id="node12" class="node"><title>Node12</title>
<polygon fill="white" stroke="#bfbfbf" points="48,-95 48,-114 80,-114 80,-95 48,-95"/>
<text text-anchor="middle" x="64" y="-102" font-family="Helvetica,sans-Serif" font-size="10.00">real</text>
</g>
<!-- Node12&#45;&gt;Node1 -->
<g id="edge11" class="edge"><title>Node12&#45;&gt;Node1</title>
<path fill="none" stroke="#9a32cd" stroke-dasharray="5,2" d="M89.6844,-96.793C125.64,-87.1741 193.024,-75.3863 238,-105.5 301.316,-147.893 316.142,-249.169 319.527,-287.475"/>
<polygon fill="#9a32cd" stroke="#9a32cd" points="88.6737,-93.4415 80.0071,-99.5357 90.5825,-100.176 88.6737,-93.4415"/>
<text text-anchor="middle" x="192" y="-163.5" font-family="Helvetica,sans-Serif" font-size="10.00"> press_to_z</text>
<text text-anchor="middle" x="192" y="-152.5" font-family="Helvetica,sans-Serif" font-size="10.00">kv_iceberg</text>
<text text-anchor="middle" x="192" y="-141.5" font-family="Helvetica,sans-Serif" font-size="10.00">latent_heat_fusion</text>
<text text-anchor="middle" x="192" y="-130.5" font-family="Helvetica,sans-Serif" font-size="10.00">berg_area_threshold</text>
<text text-anchor="middle" x="192" y="-119.5" font-family="Helvetica,sans-Serif" font-size="10.00">density_iceberg</text>
<text text-anchor="middle" x="192" y="-108.5" font-family="Helvetica,sans-Serif" font-size="10.00">c_p</text>
</g>
<!-- Node13 -->
<g id="node13" class="node"><title>Node13</title>
<polygon fill="white" stroke="#bfbfbf" points="41,-50 41,-69 87,-69 87,-50 41,-50"/>
<text text-anchor="middle" x="64" y="-57" font-family="Helvetica,sans-Serif" font-size="10.00">integer</text>
</g>
<!-- Node13&#45;&gt;Node1 -->
<g id="edge12" class="edge"><title>Node13&#45;&gt;Node1</title>
<path fill="none" stroke="#9a32cd" stroke-dasharray="5,2" d="M97.0205,-49.5091C134.532,-39.9165 196.782,-30.8236 238,-60.5 313.828,-115.095 320.734,-243.528 320.794,-287.457"/>
<polygon fill="#9a32cd" stroke="#9a32cd" points="95.8662,-46.1958 87.1343,-52.1962 97.7022,-52.9507 95.8662,-46.1958"/>
<text text-anchor="middle" x="192" y="-74.5" font-family="Helvetica,sans-Serif" font-size="10.00"> nstep</text>
<text text-anchor="middle" x="192" y="-63.5" font-family="Helvetica,sans-Serif" font-size="10.00">restart_control</text>
</g>
<!-- Node14 -->
<g id="node14" class="node"><title>Node14</title>
<polygon fill="white" stroke="#bfbfbf" points="14.5,-0.5 14.5,-30.5 113.5,-30.5 113.5,-0.5 14.5,-0.5"/>
<text text-anchor="start" x="22.5" y="-18.5" font-family="Helvetica,sans-Serif" font-size="10.00">type(ice_shelf_cs),</text>
<text text-anchor="middle" x="64" y="-7.5" font-family="Helvetica,sans-Serif" font-size="10.00"> pointer</text>
</g>
<!-- Node14&#45;&gt;Node1 -->
<g id="edge13" class="edge"><title>Node14&#45;&gt;Node1</title>
<path fill="none" stroke="#9a32cd" stroke-dasharray="5,2" d="M123.585,-3.13658C160.22,1.095 206.303,-0.411935 238,-25.5 280.591,-59.2106 310.148,-234.017 318.256,-287.159"/>
<polygon fill="#9a32cd" stroke="#9a32cd" points="122.977,0.313582 113.522,-4.46745 123.894,-6.62599 122.977,0.313582"/>
<text text-anchor="middle" x="192" y="-28.5" font-family="Helvetica,sans-Serif" font-size="10.00"> ice_shelf_csp</text>
</g>
</g>
</svg>
        <g id="navigator" transform="translate(0 0)" fill="#404254">
                <rect fill="#f2f5e9" fill-opacity="0.5" stroke="#606060" stroke-width=".5" x="0" y="0" width="60" height="60"/>
                <use id="zoomplus" xlink:href="#zoomPlus" x="17" y="9" onmousedown="handleZoom(evt,'in')"/>
                <use id="zoomminus" xlink:href="#zoomMin" x="42" y="9" onmousedown="handleZoom(evt,'out')"/>
                <use id="reset" xlink:href="#resetDef" x="30" y="36" onmousedown="handleReset()"/>
                <g id="arrowUp" xlink:href="#dirArrow" transform="translate(30 24)" onmousedown="handlePan(0,-1)">
                  <use xlink:href="#rim" fill="#404040">
                        <set attributeName="fill" to="#808080" begin="arrowUp.mouseover" end="arrowUp.mouseout"/>
                  </use>
                  <path fill="none" stroke="white" stroke-width="1.5" d="M0,-3.0v7 M-2.5,-0.5L0,-3.0L2.5,-0.5"/>
                </g>
                <g id="arrowRight" xlink:href="#dirArrow" transform="rotate(90) translate(36 -43)" onmousedown="handlePan(1,0)">
                  <use xlink:href="#rim" fill="#404040">
                        <set attributeName="fill" to="#808080" begin="arrowRight.mouseover" end="arrowRight.mouseout"/>
                  </use>
                  <path fill="none" stroke="white" stroke-width="1.5" d="M0,-3.0v7 M-2.5,-0.5L0,-3.0L2.5,-0.5"/>
                </g>
                <g id="arrowDown" xlink:href="#dirArrow" transform="rotate(180) translate(-30 -48)" onmousedown="handlePan(0,1)">
                  <use xlink:href="#rim" fill="#404040">
                        <set attributeName="fill" to="#808080" begin="arrowDown.mouseover" end="arrowDown.mouseout"/>
                  </use>
                  <path fill="none" stroke="white" stroke-width="1.5" d="M0,-3.0v7 M-2.5,-0.5L0,-3.0L2.5,-0.5"/>
                </g>
                <g id="arrowLeft" xlink:href="#dirArrow" transform="rotate(270) translate(-36 17)" onmousedown="handlePan(-1,0)">
                  <use xlink:href="#rim" fill="#404040">
                        <set attributeName="fill" to="#808080" begin="arrowLeft.mouseover" end="arrowLeft.mouseout"/>
                  </use>
                  <path fill="none" stroke="white" stroke-width="1.5" d="M0,-3.0v7 M-2.5,-0.5L0,-3.0L2.5,-0.5"/>
                </g>
        </g>
        <svg viewBox="0 0 15 15" width="100%" height="30px" preserveAspectRatio="xMaxYMin meet">
         <g id="arrow_out" transform="scale(0.3 0.3)">
          <a xlink:href="structocean__model__mod_1_1ocean__state__type__coll__graph_org.svg" target="_base">
           <rect id="button" ry="5" rx="5" y="6" x="6" height="38" width="38"
                fill="#f2f5e9" fill-opacity="0.5" stroke="#606060" stroke-width="1.0"/>
           <path id="arrow"
             d="M 11.500037,31.436501 C 11.940474,20.09759 22.043105,11.32322 32.158766,21.979434 L 37.068811,17.246167 C 37.068811,17.246167 37.088388,32 37.088388,32 L 22.160133,31.978069 C 22.160133,31.978069 26.997745,27.140456 26.997745,27.140456 C 18.528582,18.264221 13.291696,25.230495 11.500037,31.436501 z"
             style="fill:#404040;"/>
          </a>
         </g>
        </svg>
</svg>
