<?xml version="1.0" encoding="UTF-8" standalone="no"?>
<!DOCTYPE svg PUBLIC "-//W3C//DTD SVG 1.1//EN"
 "http://www.w3.org/Graphics/SVG/1.1/DTD/svg11.dtd">
<!-- Generated by graphviz version 2.38.0 (20140413.2041)
 -->
<!-- Title: coupler_types_mod::coupler_2d_bc_type Pages: 1 -->
<svg width="115pt" height="106pt"
 viewBox="0.00 0.00 115.00 106.00" xmlns="http://www.w3.org/2000/svg" xmlns:xlink="http://www.w3.org/1999/xlink">
<g id="graph0" class="graph" transform="scale(1 1) rotate(0) translate(4 102)">
<title>coupler_types_mod::coupler_2d_bc_type</title>
<polygon fill="white" stroke="none" points="-4,4 -4,-102 111,-102 111,4 -4,4"/>
<!-- Node1 -->
<g id="node1" class="node"><title>Node1</title>
<polygon fill="#bfbfbf" stroke="black" points="-7.10543e-15,-0.5 -7.10543e-15,-30.5 107,-30.5 107,-0.5 -7.10543e-15,-0.5"/>
<text text-anchor="start" x="8" y="-18.5" font-family="Helvetica,sans-Serif" font-size="10.00">coupler_types_mod::</text>
<text text-anchor="middle" x="53.5" y="-7.5" font-family="Helvetica,sans-Serif" font-size="10.00">coupler_2d_bc_type</text>
</g>
<!-- Node2 -->
<g id="node2" class="node"><title>Node2</title>
<polygon fill="white" stroke="#bfbfbf" points="30.5,-78.5 30.5,-97.5 76.5,-97.5 76.5,-78.5 30.5,-78.5"/>
<text text-anchor="middle" x="53.5" y="-85.5" font-family="Helvetica,sans-Serif" font-size="10.00">integer</text>
</g>
<!-- Node2&#45;&gt;Node1 -->
<g id="edge1" class="edge"><title>Node2&#45;&gt;Node1</title>
<path fill="none" stroke="#9a32cd" stroke-dasharray="5,2" d="M53.5,-68.2362C53.5,-56.4079 53.5,-41.3829 53.5,-30.5762"/>
<polygon fill="#9a32cd" stroke="#9a32cd" points="50.0001,-68.3553 53.5,-78.3553 57.0001,-68.3554 50.0001,-68.3553"/>
<text text-anchor="middle" x="75" y="-52" font-family="Helvetica,sans-Serif" font-size="10.00"> num_bcs</text>
</g>
</g>
</svg>
