<?xml version="1.0" encoding="UTF-8" standalone="no"?>
<!DOCTYPE svg PUBLIC "-//W3C//DTD SVG 1.1//EN"
 "http://www.w3.org/Graphics/SVG/1.1/DTD/svg11.dtd">
<!-- Generated by graphviz version 2.38.0 (20140413.2041)
 -->
<!-- Title: mom_io::vardesc Pages: 1 -->
<!--zoomable 117 -->
<svg id="main" version="1.1" xmlns="http://www.w3.org/2000/svg" xmlns:xlink="http://www.w3.org/1999/xlink" xml:space="preserve" onload="init(evt)">
<style type="text/css"><![CDATA[
.edge:hover path { stroke: red; }
.edge:hover polygon { stroke: red; fill: red; }
]]></style>
<script type="text/javascript"><![CDATA[
var edges = document.getElementsByTagName('g');
if (edges && edges.length) {
  for (var i=0;i<edges.length;i++) {
    if (edges[i].id.substr(0,4)=='edge') {
      edges[i].setAttribute('class','edge');
    }
  }
}
]]></script>
        <defs>
                <circle id="rim" cx="0" cy="0" r="7"/>
                <circle id="rim2" cx="0" cy="0" r="3.5"/>
                <g id="zoomPlus">
                        <use xlink:href="#rim" fill="#404040">
                                <set attributeName="fill" to="#808080" begin="zoomplus.mouseover" end="zoomplus.mouseout"/>
                        </use>
                        <path d="M-4,0h8M0,-4v8" fill="none" stroke="white" stroke-width="1.5" pointer-events="none"/>
                </g>
                <g id="zoomMin">
                        <use xlink:href="#rim" fill="#404040">
                                <set attributeName="fill" to="#808080" begin="zoomminus.mouseover" end="zoomminus.mouseout"/>
                        </use>
                        <path d="M-4,0h8" fill="none" stroke="white" stroke-width="1.5" pointer-events="none"/>
                </g>
                <g id="dirArrow">
                        <path fill="none" stroke="white" stroke-width="1.5" d="M0,-3.0v7 M-2.5,-0.5L0,-3.0L2.5,-0.5"/>
                </g>
               <g id="resetDef">
                       <use xlink:href="#rim2" fill="#404040">
                               <set attributeName="fill" to="#808080" begin="reset.mouseover" end="reset.mouseout"/>
                       </use>
               </g>
        </defs>

<script type="text/javascript">
var viewWidth = 503;
var viewHeight = 117;
var sectionId = 'dynsection-0';
</script>
<script xlink:href="svgpan.js"/>
<svg id="graph" class="graph">
<g id="viewport">
<title>mom_io::vardesc</title>
<polygon fill="white" stroke="none" points="-4,4 -4,-113 499,-113 499,4 -4,4"/>
<!-- Node1 -->
<g id="node1" class="node"><title>Node1</title>
<polygon fill="#bfbfbf" stroke="black" points="226,-0.5 226,-19.5 318,-19.5 318,-0.5 226,-0.5"/>
<text text-anchor="middle" x="272" y="-7.5" font-family="Helvetica,sans-Serif" font-size="10.00">mom_io::vardesc</text>
</g>
<!-- Node2 -->
<g id="node2" class="node"><title>Node2</title>
<polygon fill="white" stroke="#bfbfbf" points="0,-89.5 0,-108.5 98,-108.5 98,-89.5 0,-89.5"/>
<text text-anchor="middle" x="49" y="-96.5" font-family="Helvetica,sans-Serif" font-size="10.00">character(len=240)</text>
</g>
<!-- Node2&#45;&gt;Node1 -->
<g id="edge1" class="edge"><title>Node2&#45;&gt;Node1</title>
<path fill="none" stroke="#9a32cd" stroke-dasharray="5,2" d="M68.457,-83.5221C87.7155,-69.8597 118.51,-49.766 148,-38 172.863,-28.08 202.057,-21.4944 225.871,-17.3126"/>
<polygon fill="#9a32cd" stroke="#9a32cd" points="66.2809,-80.7764 60.2261,-89.4707 70.3812,-86.4498 66.2809,-80.7764"/>
<text text-anchor="middle" x="171" y="-52" font-family="Helvetica,sans-Serif" font-size="10.00"> longname</text>
</g>
<!-- Node3 -->
<g id="node3" class="node"><title>Node3</title>
<polygon fill="white" stroke="#bfbfbf" points="116,-89.5 116,-108.5 208,-108.5 208,-89.5 116,-89.5"/>
<text text-anchor="middle" x="162" y="-96.5" font-family="Helvetica,sans-Serif" font-size="10.00">character(len=48)</text>
</g>
<!-- Node3&#45;&gt;Node1 -->
<g id="edge2" class="edge"><title>Node3&#45;&gt;Node1</title>
<path fill="none" stroke="#9a32cd" stroke-dasharray="5,2" d="M181.002,-82.9712C204.138,-64.6725 242.43,-34.3875 261.095,-19.6249"/>
<polygon fill="#9a32cd" stroke="#9a32cd" points="178.622,-80.3914 172.949,-89.34 182.964,-85.8818 178.622,-80.3914"/>
<text text-anchor="middle" x="249.5" y="-52" font-family="Helvetica,sans-Serif" font-size="10.00"> units</text>
</g>
<!-- Node4 -->
<g id="node4" class="node"><title>Node4</title>
<polygon fill="white" stroke="#bfbfbf" points="226,-89.5 226,-108.5 318,-108.5 318,-89.5 226,-89.5"/>
<text text-anchor="middle" x="272" y="-96.5" font-family="Helvetica,sans-Serif" font-size="10.00">character(len=64)</text>
</g>
<!-- Node4&#45;&gt;Node1 -->
<g id="edge3" class="edge"><title>Node4&#45;&gt;Node1</title>
<path fill="none" stroke="#9a32cd" stroke-dasharray="5,2" d="M272,-79.1946C272,-60.7379 272,-33.412 272,-19.6249"/>
<polygon fill="#9a32cd" stroke="#9a32cd" points="268.5,-79.34 272,-89.34 275.5,-79.3401 268.5,-79.34"/>
<text text-anchor="middle" x="311" y="-63" font-family="Helvetica,sans-Serif" font-size="10.00"> cmor_field_name</text>
<text text-anchor="middle" x="311" y="-52" font-family="Helvetica,sans-Serif" font-size="10.00">cmor_units</text>
<text text-anchor="middle" x="311" y="-41" font-family="Helvetica,sans-Serif" font-size="10.00">name</text>
</g>
<!-- Node5 -->
<g id="node5" class="node"><title>Node5</title>
<polygon fill="white" stroke="#bfbfbf" points="336.5,-89.5 336.5,-108.5 423.5,-108.5 423.5,-89.5 336.5,-89.5"/>
<text text-anchor="middle" x="380" y="-96.5" font-family="Helvetica,sans-Serif" font-size="10.00">character(len=8)</text>
</g>
<!-- Node5&#45;&gt;Node1 -->
<g id="edge4" class="edge"><title>Node5&#45;&gt;Node1</title>
<path fill="none" stroke="#9a32cd" stroke-dasharray="5,2" d="M376.221,-79.4212C372.62,-66.1873 365.921,-48.8842 354,-38 344.039,-28.9045 330.946,-22.8672 318.156,-18.862"/>
<polygon fill="#9a32cd" stroke="#9a32cd" points="372.861,-80.4213 378.563,-89.3504 379.674,-78.8139 372.861,-80.4213"/>
<text text-anchor="middle" x="391.5" y="-63" font-family="Helvetica,sans-Serif" font-size="10.00"> t_grid</text>
<text text-anchor="middle" x="391.5" y="-52" font-family="Helvetica,sans-Serif" font-size="10.00">hor_grid</text>
<text text-anchor="middle" x="391.5" y="-41" font-family="Helvetica,sans-Serif" font-size="10.00">z_grid</text>
</g>
<!-- Node6 -->
<g id="node6" class="node"><title>Node6</title>
<polygon fill="white" stroke="#bfbfbf" points="442,-89.5 442,-108.5 474,-108.5 474,-89.5 442,-89.5"/>
<text text-anchor="middle" x="458" y="-96.5" font-family="Helvetica,sans-Serif" font-size="10.00">real</text>
</g>
<!-- Node6&#45;&gt;Node1 -->
<g id="edge5" class="edge"><title>Node6&#45;&gt;Node1</title>
<path fill="none" stroke="#9a32cd" stroke-dasharray="5,2" d="M449.467,-80.4417C441.842,-66.6821 429.352,-48.2121 413,-38 384.672,-20.309 347.368,-13.7407 318.246,-11.498"/>
<polygon fill="#9a32cd" stroke="#9a32cd" points="446.428,-82.184 454.146,-89.443 452.64,-78.9557 446.428,-82.184"/>
<text text-anchor="middle" x="469.5" y="-52" font-family="Helvetica,sans-Serif" font-size="10.00"> conversion</text>
</g>
</g>
</svg>
        <g id="navigator" transform="translate(0 0)" fill="#404254">
                <rect fill="#f2f5e9" fill-opacity="0.5" stroke="#606060" stroke-width=".5" x="0" y="0" width="60" height="60"/>
                <use id="zoomplus" xlink:href="#zoomPlus" x="17" y="9" onmousedown="handleZoom(evt,'in')"/>
                <use id="zoomminus" xlink:href="#zoomMin" x="42" y="9" onmousedown="handleZoom(evt,'out')"/>
                <use id="reset" xlink:href="#resetDef" x="30" y="36" onmousedown="handleReset()"/>
                <g id="arrowUp" xlink:href="#dirArrow" transform="translate(30 24)" onmousedown="handlePan(0,-1)">
                  <use xlink:href="#rim" fill="#404040">
                        <set attributeName="fill" to="#808080" begin="arrowUp.mouseover" end="arrowUp.mouseout"/>
                  </use>
                  <path fill="none" stroke="white" stroke-width="1.5" d="M0,-3.0v7 M-2.5,-0.5L0,-3.0L2.5,-0.5"/>
                </g>
                <g id="arrowRight" xlink:href="#dirArrow" transform="rotate(90) translate(36 -43)" onmousedown="handlePan(1,0)">
                  <use xlink:href="#rim" fill="#404040">
                        <set attributeName="fill" to="#808080" begin="arrowRight.mouseover" end="arrowRight.mouseout"/>
                  </use>
                  <path fill="none" stroke="white" stroke-width="1.5" d="M0,-3.0v7 M-2.5,-0.5L0,-3.0L2.5,-0.5"/>
                </g>
                <g id="arrowDown" xlink:href="#dirArrow" transform="rotate(180) translate(-30 -48)" onmousedown="handlePan(0,1)">
                  <use xlink:href="#rim" fill="#404040">
                        <set attributeName="fill" to="#808080" begin="arrowDown.mouseover" end="arrowDown.mouseout"/>
                  </use>
                  <path fill="none" stroke="white" stroke-width="1.5" d="M0,-3.0v7 M-2.5,-0.5L0,-3.0L2.5,-0.5"/>
                </g>
                <g id="arrowLeft" xlink:href="#dirArrow" transform="rotate(270) translate(-36 17)" onmousedown="handlePan(-1,0)">
                  <use xlink:href="#rim" fill="#404040">
                        <set attributeName="fill" to="#808080" begin="arrowLeft.mouseover" end="arrowLeft.mouseout"/>
                  </use>
                  <path fill="none" stroke="white" stroke-width="1.5" d="M0,-3.0v7 M-2.5,-0.5L0,-3.0L2.5,-0.5"/>
                </g>
        </g>
        <svg viewBox="0 0 15 15" width="100%" height="30px" preserveAspectRatio="xMaxYMin meet">
         <g id="arrow_out" transform="scale(0.3 0.3)">
          <a xlink:href="structmom__io_1_1vardesc__coll__graph_org.svg" target="_base">
           <rect id="button" ry="5" rx="5" y="6" x="6" height="38" width="38"
                fill="#f2f5e9" fill-opacity="0.5" stroke="#606060" stroke-width="1.0"/>
           <path id="arrow"
             d="M 11.500037,31.436501 C 11.940474,20.09759 22.043105,11.32322 32.158766,21.979434 L 37.068811,17.246167 C 37.068811,17.246167 37.088388,32 37.088388,32 L 22.160133,31.978069 C 22.160133,31.978069 26.997745,27.140456 26.997745,27.140456 C 18.528582,18.264221 13.291696,25.230495 11.500037,31.436501 z"
             style="fill:#404040;"/>
          </a>
         </g>
        </svg>
</svg>
