<?xml version="1.0" encoding="UTF-8" standalone="no"?>
<!DOCTYPE svg PUBLIC "-//W3C//DTD SVG 1.1//EN"
 "http://www.w3.org/Graphics/SVG/1.1/DTD/svg11.dtd">
<!-- Generated by graphviz version 2.38.0 (20140413.2041)
 -->
<!-- Title: mom_ocmip2_cfc::ocmip2_cfc_cs Pages: 1 -->
<!--zoomable 639 -->
<svg id="main" version="1.1" xmlns="http://www.w3.org/2000/svg" xmlns:xlink="http://www.w3.org/1999/xlink" xml:space="preserve" onload="init(evt)">
<style type="text/css"><![CDATA[
.edge:hover path { stroke: red; }
.edge:hover polygon { stroke: red; fill: red; }
]]></style>
<script type="text/javascript"><![CDATA[
var edges = document.getElementsByTagName('g');
if (edges && edges.length) {
  for (var i=0;i<edges.length;i++) {
    if (edges[i].id.substr(0,4)=='edge') {
      edges[i].setAttribute('class','edge');
    }
  }
}
]]></script>
        <defs>
                <circle id="rim" cx="0" cy="0" r="7"/>
                <circle id="rim2" cx="0" cy="0" r="3.5"/>
                <g id="zoomPlus">
                        <use xlink:href="#rim" fill="#404040">
                                <set attributeName="fill" to="#808080" begin="zoomplus.mouseover" end="zoomplus.mouseout"/>
                        </use>
                        <path d="M-4,0h8M0,-4v8" fill="none" stroke="white" stroke-width="1.5" pointer-events="none"/>
                </g>
                <g id="zoomMin">
                        <use xlink:href="#rim" fill="#404040">
                                <set attributeName="fill" to="#808080" begin="zoomminus.mouseover" end="zoomminus.mouseout"/>
                        </use>
                        <path d="M-4,0h8" fill="none" stroke="white" stroke-width="1.5" pointer-events="none"/>
                </g>
                <g id="dirArrow">
                        <path fill="none" stroke="white" stroke-width="1.5" d="M0,-3.0v7 M-2.5,-0.5L0,-3.0L2.5,-0.5"/>
                </g>
               <g id="resetDef">
                       <use xlink:href="#rim2" fill="#404040">
                               <set attributeName="fill" to="#808080" begin="reset.mouseover" end="reset.mouseout"/>
                       </use>
               </g>
        </defs>

<script type="text/javascript">
var viewWidth = 449;
var viewHeight = 639;
var sectionId = 'dynsection-0';
</script>
<script xlink:href="svgpan.js"/>
<svg id="graph" class="graph">
<g id="viewport">
<title>mom_ocmip2_cfc::ocmip2_cfc_cs</title>
<polygon fill="white" stroke="none" points="-4,4 -4,-634.767 445,-634.767 445,4 -4,4"/>
<!-- Node1 -->
<g id="node1" class="node"><title>Node1</title>
<polygon fill="#bfbfbf" stroke="black" points="310,-286.767 310,-316.767 441,-316.767 441,-286.767 310,-286.767"/>
<text text-anchor="start" x="318" y="-304.767" font-family="Helvetica,sans-Serif" font-size="10.00">mom_ocmip2_cfc::ocmip2</text>
<text text-anchor="middle" x="375.5" y="-293.767" font-family="Helvetica,sans-Serif" font-size="10.00">_cfc_cs</text>
</g>
<!-- Node2 -->
<g id="node2" class="node"><title>Node2</title>
<polygon fill="white" stroke="#bfbfbf" points="89,-596.267 89,-615.267 181,-615.267 181,-596.267 89,-596.267"/>
<text text-anchor="middle" x="135" y="-603.267" font-family="Helvetica,sans-Serif" font-size="10.00">character(len=16)</text>
</g>
<!-- Node2&#45;&gt;Node1 -->
<g id="edge1" class="edge"><title>Node2&#45;&gt;Node1</title>
<path fill="none" stroke="#9a32cd" stroke-dasharray="5,2" d="M191.736,-610.675C224.616,-610.506 264.952,-604.542 292,-580.767 372.618,-509.903 376.242,-364.445 375.146,-317.058"/>
<polygon fill="#9a32cd" stroke="#9a32cd" points="191.394,-607.17 181.349,-610.541 191.303,-614.17 191.394,-607.17"/>
<text text-anchor="middle" x="251.5" y="-622.767" font-family="Helvetica,sans-Serif" font-size="10.00"> cfc11_name</text>
<text text-anchor="middle" x="251.5" y="-611.767" font-family="Helvetica,sans-Serif" font-size="10.00">cfc12_name</text>
</g>
<!-- Node3 -->
<g id="node3" class="node"><title>Node3</title>
<polygon fill="white" stroke="#bfbfbf" points="113,-542.267 113,-561.267 157,-561.267 157,-542.267 113,-542.267"/>
<text text-anchor="middle" x="135" y="-549.267" font-family="Helvetica,sans-Serif" font-size="10.00">logical</text>
</g>
<!-- Node3&#45;&gt;Node1 -->
<g id="edge2" class="edge"><title>Node3&#45;&gt;Node1</title>
<path fill="none" stroke="#9a32cd" stroke-dasharray="5,2" d="M167.204,-549.353C207.18,-545.667 273.523,-537.361 292,-521.767 356.528,-467.305 370.642,-357.077 373.682,-316.875"/>
<polygon fill="#9a32cd" stroke="#9a32cd" points="166.827,-545.872 157.171,-550.232 167.439,-552.846 166.827,-545.872"/>
<text text-anchor="middle" x="251.5" y="-568.767" font-family="Helvetica,sans-Serif" font-size="10.00"> z_ic_file</text>
<text text-anchor="middle" x="251.5" y="-557.767" font-family="Helvetica,sans-Serif" font-size="10.00">tracers_may_reinit</text>
<text text-anchor="middle" x="251.5" y="-546.767" font-family="Helvetica,sans-Serif" font-size="10.00">mask_tracers</text>
</g>
<!-- Node4 -->
<g id="node4" class="node"><title>Node4</title>
<polygon fill="white" stroke="#bfbfbf" points="105.5,-504.267 105.5,-523.267 164.5,-523.267 164.5,-504.267 105.5,-504.267"/>
<text text-anchor="middle" x="135" y="-511.267" font-family="Helvetica,sans-Serif" font-size="10.00">time_type</text>
</g>
<!-- Node4&#45;&gt;Node1 -->
<g id="edge3" class="edge"><title>Node4&#45;&gt;Node1</title>
<path fill="none" stroke="#9a32cd" stroke-dasharray="5,2" d="M174.668,-512.79C208.985,-510.018 258.704,-501.095 292,-473.767 343.199,-431.744 364.754,-350.401 371.734,-316.825"/>
<polygon fill="#9a32cd" stroke="#9a32cd" points="174.293,-509.307 164.548,-513.467 174.76,-516.292 174.293,-509.307"/>
<text text-anchor="middle" x="251.5" y="-509.767" font-family="Helvetica,sans-Serif" font-size="10.00"> time</text>
</g>
<!-- Node5 -->
<g id="node5" class="node"><title>Node5</title>
<polygon fill="white" stroke="#bfbfbf" points="83.5,-466.267 83.5,-485.267 186.5,-485.267 186.5,-466.267 83.5,-466.267"/>
<text text-anchor="middle" x="135" y="-473.267" font-family="Helvetica,sans-Serif" font-size="10.00">tracer_registry_type</text>
</g>
<!-- Node5&#45;&gt;Node1 -->
<g id="edge4" class="edge"><title>Node5&#45;&gt;Node1</title>
<path fill="none" stroke="#9a32cd" stroke-dasharray="5,2" d="M194.759,-463.561C225.989,-454.911 263.669,-440.826 292,-418.767 328.476,-390.366 355.499,-341.471 367.55,-316.856"/>
<polygon fill="#9a32cd" stroke="#9a32cd" points="193.636,-460.238 184.866,-466.182 195.429,-467.004 193.636,-460.238"/>
<text text-anchor="middle" x="251.5" y="-461.767" font-family="Helvetica,sans-Serif" font-size="10.00"> tr_reg</text>
</g>
<!-- Node6 -->
<g id="node6" class="node"><title>Node6</title>
<polygon fill="white" stroke="#bfbfbf" points="86,-428.267 86,-447.267 184,-447.267 184,-428.267 86,-428.267"/>
<text text-anchor="middle" x="135" y="-435.267" font-family="Helvetica,sans-Serif" font-size="10.00">character(len=200)</text>
</g>
<!-- Node6&#45;&gt;Node1 -->
<g id="edge5" class="edge"><title>Node6&#45;&gt;Node1</title>
<path fill="none" stroke="#9a32cd" stroke-dasharray="5,2" d="M170.383,-424.301C177.936,-421.064 185.819,-417.466 193,-413.767 252.742,-382.99 319.004,-339.556 352.512,-316.882"/>
<polygon fill="#9a32cd" stroke="#9a32cd" points="168.951,-421.105 161.071,-428.187 171.648,-427.565 168.951,-421.105"/>
<text text-anchor="middle" x="251.5" y="-406.767" font-family="Helvetica,sans-Serif" font-size="10.00"> ic_file</text>
</g>
<!-- Node7 -->
<g id="node7" class="node"><title>Node7</title>
<g id="a_node7"><a xlink:href="structmom__ocmip2__cfc_1_1p3d.html" target="_top" xlink:title="mom_ocmip2_cfc::p3d">
<polygon fill="white" stroke="black" points="77,-233.267 77,-252.267 193,-252.267 193,-233.267 77,-233.267"/>
<text text-anchor="middle" x="135" y="-240.267" font-family="Helvetica,sans-Serif" font-size="10.00">mom_ocmip2_cfc::p3d</text>
</a>
</g>
</g>
<!-- Node7&#45;&gt;Node1 -->
<g id="edge6" class="edge"><title>Node7&#45;&gt;Node1</title>
<path fill="none" stroke="#9a32cd" stroke-dasharray="5,2" d="M203.348,-234.484C231.367,-233.254 263.856,-234.764 292,-243.767 318.515,-252.248 343.918,-272.568 359.363,-286.749"/>
<polygon fill="#9a32cd" stroke="#9a32cd" points="203.031,-230.996 193.243,-235.052 203.424,-237.985 203.031,-230.996"/>
<text text-anchor="middle" x="251.5" y="-279.767" font-family="Helvetica,sans-Serif" font-size="10.00"> tr_adx</text>
<text text-anchor="middle" x="251.5" y="-268.767" font-family="Helvetica,sans-Serif" font-size="10.00">tr_dfx</text>
<text text-anchor="middle" x="251.5" y="-257.767" font-family="Helvetica,sans-Serif" font-size="10.00">tr_ady</text>
<text text-anchor="middle" x="251.5" y="-246.767" font-family="Helvetica,sans-Serif" font-size="10.00">tr_dfy</text>
</g>
<!-- Node8 -->
<g id="node8" class="node"><title>Node8</title>
<polygon fill="white" stroke="#bfbfbf" points="0,-261.267 0,-280.267 32,-280.267 32,-261.267 0,-261.267"/>
<text text-anchor="middle" x="16" y="-268.267" font-family="Helvetica,sans-Serif" font-size="10.00">real</text>
</g>
<!-- Node8&#45;&gt;Node1 -->
<g id="edge12" class="edge"><title>Node8&#45;&gt;Node1</title>
<path fill="none" stroke="#9a32cd" stroke-dasharray="5,2" d="M42.1014,-273.909C44.7664,-274.213 47.438,-274.505 50,-274.767 139.982,-283.96 244.244,-292.209 309.787,-297.102"/>
<polygon fill="#9a32cd" stroke="#9a32cd" points="42.4444,-270.425 32.1007,-272.718 41.6166,-277.376 42.4444,-270.425"/>
<text text-anchor="middle" x="135" y="-400.767" font-family="Helvetica,sans-Serif" font-size="10.00"> cfc12_land_val</text>
<text text-anchor="middle" x="135" y="-389.767" font-family="Helvetica,sans-Serif" font-size="10.00">a4_11</text>
<text text-anchor="middle" x="135" y="-378.767" font-family="Helvetica,sans-Serif" font-size="10.00">cfc11_ic_val</text>
<text text-anchor="middle" x="135" y="-367.767" font-family="Helvetica,sans-Serif" font-size="10.00">a4_12</text>
<text text-anchor="middle" x="135" y="-356.767" font-family="Helvetica,sans-Serif" font-size="10.00">a3_11</text>
<text text-anchor="middle" x="135" y="-345.767" font-family="Helvetica,sans-Serif" font-size="10.00">a3_12</text>
<text text-anchor="middle" x="135" y="-334.767" font-family="Helvetica,sans-Serif" font-size="10.00">a2_11</text>
<text text-anchor="middle" x="135" y="-323.767" font-family="Helvetica,sans-Serif" font-size="10.00">cfc12_ic_val</text>
<text text-anchor="middle" x="135" y="-312.767" font-family="Helvetica,sans-Serif" font-size="10.00">d4_11</text>
<text text-anchor="middle" x="135" y="-301.767" font-family="Helvetica,sans-Serif" font-size="10.00">a2_12</text>
<text text-anchor="middle" x="135" y="-290.767" font-family="Helvetica,sans-Serif" font-size="10.00">...</text>
</g>
<!-- Node8&#45;&gt;Node7 -->
<g id="edge7" class="edge"><title>Node8&#45;&gt;Node7</title>
<path fill="none" stroke="#9a32cd" stroke-dasharray="5,2" d="M42.4503,-264.676C57.5976,-261.051 77.1445,-256.373 94.2846,-252.271"/>
<polygon fill="#9a32cd" stroke="#9a32cd" points="41.2065,-261.375 32.2957,-267.106 42.8357,-268.183 41.2065,-261.375"/>
<text text-anchor="middle" x="54.5" y="-265.767" font-family="Helvetica,sans-Serif" font-size="10.00"> p</text>
</g>
<!-- Node9 -->
<g id="node9" class="node"><title>Node9</title>
<polygon fill="white" stroke="#bfbfbf" points="109.5,-195.267 109.5,-214.267 160.5,-214.267 160.5,-195.267 109.5,-195.267"/>
<text text-anchor="middle" x="135" y="-202.267" font-family="Helvetica,sans-Serif" font-size="10.00">vardesc</text>
</g>
<!-- Node9&#45;&gt;Node1 -->
<g id="edge8" class="edge"><title>Node9&#45;&gt;Node1</title>
<path fill="none" stroke="#9a32cd" stroke-dasharray="5,2" d="M170.638,-198.051C203.493,-193.387 253.432,-190.826 292,-208.767 327.421,-225.243 353.996,-264.911 366.527,-286.74"/>
<polygon fill="#9a32cd" stroke="#9a32cd" points="169.948,-194.616 160.607,-199.615 171.027,-201.532 169.948,-194.616"/>
<text text-anchor="middle" x="251.5" y="-222.767" font-family="Helvetica,sans-Serif" font-size="10.00"> cfc12_desc</text>
<text text-anchor="middle" x="251.5" y="-211.767" font-family="Helvetica,sans-Serif" font-size="10.00">cfc11_desc</text>
</g>
<!-- Node10 -->
<g id="node10" class="node"><title>Node10</title>
<polygon fill="white" stroke="#bfbfbf" points="79,-145.767 79,-175.767 191,-175.767 191,-145.767 79,-145.767"/>
<text text-anchor="start" x="87" y="-163.767" font-family="Helvetica,sans-Serif" font-size="10.00">type(mom_restart_cs)</text>
<text text-anchor="middle" x="135" y="-152.767" font-family="Helvetica,sans-Serif" font-size="10.00">, pointer</text>
</g>
<!-- Node10&#45;&gt;Node1 -->
<g id="edge9" class="edge"><title>Node10&#45;&gt;Node1</title>
<path fill="none" stroke="#9a32cd" stroke-dasharray="5,2" d="M201.52,-156.817C231.062,-157.91 265.242,-163.409 292,-179.767 333.449,-205.105 358.817,-260.035 369.142,-286.673"/>
<polygon fill="#9a32cd" stroke="#9a32cd" points="201.354,-153.313 191.283,-156.603 201.208,-160.311 201.354,-153.313"/>
<text text-anchor="middle" x="251.5" y="-182.767" font-family="Helvetica,sans-Serif" font-size="10.00"> restart_csp</text>
</g>
<!-- Node11 -->
<g id="node11" class="node"><title>Node11</title>
<polygon fill="white" stroke="#bfbfbf" points="108.5,-107.267 108.5,-126.267 161.5,-126.267 161.5,-107.267 108.5,-107.267"/>
<text text-anchor="middle" x="135" y="-114.267" font-family="Helvetica,sans-Serif" font-size="10.00">diag_ctrl</text>
</g>
<!-- Node11&#45;&gt;Node1 -->
<g id="edge10" class="edge"><title>Node11&#45;&gt;Node1</title>
<path fill="none" stroke="#9a32cd" stroke-dasharray="5,2" d="M172.005,-114.057C206.063,-113.358 257.032,-117.343 292,-142.767 341.803,-178.977 363.919,-254.289 371.384,-286.556"/>
<polygon fill="#9a32cd" stroke="#9a32cd" points="171.452,-110.574 161.583,-114.427 171.701,-117.57 171.452,-110.574"/>
<text text-anchor="middle" x="251.5" y="-145.767" font-family="Helvetica,sans-Serif" font-size="10.00"> diag</text>
</g>
<!-- Node12 -->
<g id="node12" class="node"><title>Node12</title>
<polygon fill="white" stroke="#bfbfbf" points="112,-1.26673 112,-20.2667 158,-20.2667 158,-1.26673 112,-1.26673"/>
<text text-anchor="middle" x="135" y="-8.26673" font-family="Helvetica,sans-Serif" font-size="10.00">integer</text>
</g>
<!-- Node12&#45;&gt;Node1 -->
<g id="edge11" class="edge"><title>Node12&#45;&gt;Node1</title>
<path fill="none" stroke="#9a32cd" stroke-dasharray="5,2" d="M168.257,-3.75033C202.802,1.76432 257.318,4.43641 292,-23.7667 334.282,-58.1499 364.053,-233.207 372.234,-286.409"/>
<polygon fill="#9a32cd" stroke="#9a32cd" points="167.461,-0.336695 158.222,-5.522 168.678,-7.2301 167.461,-0.336695"/>
<text text-anchor="middle" x="251.5" y="-103.767" font-family="Helvetica,sans-Serif" font-size="10.00"> ind_cfc_11_flux</text>
<text text-anchor="middle" x="251.5" y="-92.7667" font-family="Helvetica,sans-Serif" font-size="10.00">id_tr_dfx</text>
<text text-anchor="middle" x="251.5" y="-81.7667" font-family="Helvetica,sans-Serif" font-size="10.00">ind_cfc_12_flux</text>
<text text-anchor="middle" x="251.5" y="-70.7667" font-family="Helvetica,sans-Serif" font-size="10.00">id_tr_dfy</text>
<text text-anchor="middle" x="251.5" y="-59.7667" font-family="Helvetica,sans-Serif" font-size="10.00">id_cfc11</text>
<text text-anchor="middle" x="251.5" y="-48.7667" font-family="Helvetica,sans-Serif" font-size="10.00">id_cfc12</text>
<text text-anchor="middle" x="251.5" y="-37.7667" font-family="Helvetica,sans-Serif" font-size="10.00">id_tr_adx</text>
<text text-anchor="middle" x="251.5" y="-26.7667" font-family="Helvetica,sans-Serif" font-size="10.00">id_tr_ady</text>
</g>
</g>
</svg>
        <g id="navigator" transform="translate(0 0)" fill="#404254">
                <rect fill="#f2f5e9" fill-opacity="0.5" stroke="#606060" stroke-width=".5" x="0" y="0" width="60" height="60"/>
                <use id="zoomplus" xlink:href="#zoomPlus" x="17" y="9" onmousedown="handleZoom(evt,'in')"/>
                <use id="zoomminus" xlink:href="#zoomMin" x="42" y="9" onmousedown="handleZoom(evt,'out')"/>
                <use id="reset" xlink:href="#resetDef" x="30" y="36" onmousedown="handleReset()"/>
                <g id="arrowUp" xlink:href="#dirArrow" transform="translate(30 24)" onmousedown="handlePan(0,-1)">
                  <use xlink:href="#rim" fill="#404040">
                        <set attributeName="fill" to="#808080" begin="arrowUp.mouseover" end="arrowUp.mouseout"/>
                  </use>
                  <path fill="none" stroke="white" stroke-width="1.5" d="M0,-3.0v7 M-2.5,-0.5L0,-3.0L2.5,-0.5"/>
                </g>
                <g id="arrowRight" xlink:href="#dirArrow" transform="rotate(90) translate(36 -43)" onmousedown="handlePan(1,0)">
                  <use xlink:href="#rim" fill="#404040">
                        <set attributeName="fill" to="#808080" begin="arrowRight.mouseover" end="arrowRight.mouseout"/>
                  </use>
                  <path fill="none" stroke="white" stroke-width="1.5" d="M0,-3.0v7 M-2.5,-0.5L0,-3.0L2.5,-0.5"/>
                </g>
                <g id="arrowDown" xlink:href="#dirArrow" transform="rotate(180) translate(-30 -48)" onmousedown="handlePan(0,1)">
                  <use xlink:href="#rim" fill="#404040">
                        <set attributeName="fill" to="#808080" begin="arrowDown.mouseover" end="arrowDown.mouseout"/>
                  </use>
                  <path fill="none" stroke="white" stroke-width="1.5" d="M0,-3.0v7 M-2.5,-0.5L0,-3.0L2.5,-0.5"/>
                </g>
                <g id="arrowLeft" xlink:href="#dirArrow" transform="rotate(270) translate(-36 17)" onmousedown="handlePan(-1,0)">
                  <use xlink:href="#rim" fill="#404040">
                        <set attributeName="fill" to="#808080" begin="arrowLeft.mouseover" end="arrowLeft.mouseout"/>
                  </use>
                  <path fill="none" stroke="white" stroke-width="1.5" d="M0,-3.0v7 M-2.5,-0.5L0,-3.0L2.5,-0.5"/>
                </g>
        </g>
        <svg viewBox="0 0 15 15" width="100%" height="30px" preserveAspectRatio="xMaxYMin meet">
         <g id="arrow_out" transform="scale(0.3 0.3)">
          <a xlink:href="structmom__ocmip2__cfc_1_1ocmip2__cfc__cs__coll__graph_org.svg" target="_base">
           <rect id="button" ry="5" rx="5" y="6" x="6" height="38" width="38"
                fill="#f2f5e9" fill-opacity="0.5" stroke="#606060" stroke-width="1.0"/>
           <path id="arrow"
             d="M 11.500037,31.436501 C 11.940474,20.09759 22.043105,11.32322 32.158766,21.979434 L 37.068811,17.246167 C 37.068811,17.246167 37.088388,32 37.088388,32 L 22.160133,31.978069 C 22.160133,31.978069 26.997745,27.140456 26.997745,27.140456 C 18.528582,18.264221 13.291696,25.230495 11.500037,31.436501 z"
             style="fill:#404040;"/>
          </a>
         </g>
        </svg>
</svg>
