<?xml version="1.0" encoding="UTF-8" standalone="no"?>
<!DOCTYPE svg PUBLIC "-//W3C//DTD SVG 1.1//EN"
 "http://www.w3.org/Graphics/SVG/1.1/DTD/svg11.dtd">
<!-- Generated by graphviz version 2.38.0 (20140413.2041)
 -->
<!-- Title: mom_energetic_pbl::energetic_pbl_cs Pages: 1 -->
<svg width="446pt" height="216pt"
 viewBox="0.00 0.00 446.00 216.00" xmlns="http://www.w3.org/2000/svg" xmlns:xlink="http://www.w3.org/1999/xlink">
<g id="graph0" class="graph" transform="scale(1 1) rotate(0) translate(4 212)">
<title>mom_energetic_pbl::energetic_pbl_cs</title>
<polygon fill="white" stroke="none" points="-4,4 -4,-212 442,-212 442,4 -4,4"/>
<!-- Node1 -->
<g id="node1" class="node"><title>Node1</title>
<polygon fill="#bfbfbf" stroke="black" points="138.5,-0.5 138.5,-30.5 245.5,-30.5 245.5,-0.5 138.5,-0.5"/>
<text text-anchor="start" x="146.5" y="-18.5" font-family="Helvetica,sans-Serif" font-size="10.00">mom_energetic_pbl::</text>
<text text-anchor="middle" x="192" y="-7.5" font-family="Helvetica,sans-Serif" font-size="10.00">energetic_pbl_cs</text>
</g>
<!-- Node2 -->
<g id="node2" class="node"><title>Node2</title>
<polygon fill="white" stroke="#bfbfbf" points="0,-188.5 0,-207.5 44,-207.5 44,-188.5 0,-188.5"/>
<text text-anchor="middle" x="22" y="-195.5" font-family="Helvetica,sans-Serif" font-size="10.00">logical</text>
</g>
<!-- Node2&#45;&gt;Node1 -->
<g id="edge1" class="edge"><title>Node2&#45;&gt;Node1</title>
<path fill="none" stroke="#9a32cd" stroke-dasharray="5,2" d="M17.0329,-178.439C9.97478,-147.489 1.16398,-85.1755 33,-49 46.7741,-33.3484 97.7642,-24.9315 138.336,-20.6154"/>
<polygon fill="#9a32cd" stroke="#9a32cd" points="13.6771,-179.449 19.4754,-188.316 20.4724,-177.768 13.6771,-179.449"/>
<text text-anchor="middle" x="77" y="-145.5" font-family="Helvetica,sans-Serif" font-size="10.00"> mixing_diagnostics</text>
<text text-anchor="middle" x="77" y="-134.5" font-family="Helvetica,sans-Serif" font-size="10.00">use_la_windsea</text>
<text text-anchor="middle" x="77" y="-123.5" font-family="Helvetica,sans-Serif" font-size="10.00">orig_pe_calc</text>
<text text-anchor="middle" x="77" y="-112.5" font-family="Helvetica,sans-Serif" font-size="10.00">mstar_flatcap</text>
<text text-anchor="middle" x="77" y="-101.5" font-family="Helvetica,sans-Serif" font-size="10.00">use_mld_iteration</text>
<text text-anchor="middle" x="77" y="-90.5" font-family="Helvetica,sans-Serif" font-size="10.00">orig_mld_iteration</text>
<text text-anchor="middle" x="77" y="-79.5" font-family="Helvetica,sans-Serif" font-size="10.00">tke_diagnostics</text>
<text text-anchor="middle" x="77" y="-68.5" font-family="Helvetica,sans-Serif" font-size="10.00">mld_iteration_guess</text>
</g>
<!-- Node3 -->
<g id="node3" class="node"><title>Node3</title>
<polygon fill="white" stroke="#bfbfbf" points="88.5,-188.5 88.5,-207.5 147.5,-207.5 147.5,-188.5 88.5,-188.5"/>
<text text-anchor="middle" x="118" y="-195.5" font-family="Helvetica,sans-Serif" font-size="10.00">time_type</text>
</g>
<!-- Node3&#45;&gt;Node1 -->
<g id="edge2" class="edge"><title>Node3&#45;&gt;Node1</title>
<path fill="none" stroke="#9a32cd" stroke-dasharray="5,2" d="M121.791,-178.253C128.141,-149.287 142.587,-92.4565 166,-49 169.496,-42.5115 174.333,-36.0341 178.889,-30.589"/>
<polygon fill="#9a32cd" stroke="#9a32cd" points="118.328,-177.712 119.688,-188.219 125.177,-179.158 118.328,-177.712"/>
<text text-anchor="middle" x="177" y="-107" font-family="Helvetica,sans-Serif" font-size="10.00"> time</text>
</g>
<!-- Node4 -->
<g id="node4" class="node"><title>Node4</title>
<polygon fill="white" stroke="#bfbfbf" points="165.5,-188.5 165.5,-207.5 218.5,-207.5 218.5,-188.5 165.5,-188.5"/>
<text text-anchor="middle" x="192" y="-195.5" font-family="Helvetica,sans-Serif" font-size="10.00">diag_ctrl</text>
</g>
<!-- Node4&#45;&gt;Node1 -->
<g id="edge3" class="edge"><title>Node4&#45;&gt;Node1</title>
<path fill="none" stroke="#9a32cd" stroke-dasharray="5,2" d="M192,-178.09C192,-141.701 192,-62.6941 192,-30.5391"/>
<polygon fill="#9a32cd" stroke="#9a32cd" points="188.5,-178.294 192,-188.294 195.5,-178.294 188.5,-178.294"/>
<text text-anchor="middle" x="203" y="-107" font-family="Helvetica,sans-Serif" font-size="10.00"> diag</text>
</g>
<!-- Node5 -->
<g id="node5" class="node"><title>Node5</title>
<polygon fill="white" stroke="#bfbfbf" points="237,-188.5 237,-207.5 283,-207.5 283,-188.5 237,-188.5"/>
<text text-anchor="middle" x="260" y="-195.5" font-family="Helvetica,sans-Serif" font-size="10.00">integer</text>
</g>
<!-- Node5&#45;&gt;Node1 -->
<g id="edge4" class="edge"><title>Node5&#45;&gt;Node1</title>
<path fill="none" stroke="#9a32cd" stroke-dasharray="5,2" d="M252.204,-178.826C251.062,-175.899 249.952,-172.884 249,-170 231.598,-117.283 242.783,-98.6755 218,-49 214.774,-42.5343 210.101,-36.1608 205.604,-30.7941"/>
<polygon fill="#9a32cd" stroke="#9a32cd" points="248.983,-180.197 256.023,-188.114 255.457,-177.535 248.983,-180.197"/>
<text text-anchor="middle" x="293" y="-162" font-family="Helvetica,sans-Serif" font-size="10.00"> id_mld_ekman</text>
<text text-anchor="middle" x="293" y="-151" font-family="Helvetica,sans-Serif" font-size="10.00">id_tke_mke</text>
<text text-anchor="middle" x="293" y="-140" font-family="Helvetica,sans-Serif" font-size="10.00">id_la</text>
<text text-anchor="middle" x="293" y="-129" font-family="Helvetica,sans-Serif" font-size="10.00">id_mstar_mix</text>
<text text-anchor="middle" x="293" y="-118" font-family="Helvetica,sans-Serif" font-size="10.00">id_tke_conv_decay</text>
<text text-anchor="middle" x="293" y="-107" font-family="Helvetica,sans-Serif" font-size="10.00">id_mixing_length</text>
<text text-anchor="middle" x="293" y="-96" font-family="Helvetica,sans-Serif" font-size="10.00">id_tke_wind</text>
<text text-anchor="middle" x="293" y="-85" font-family="Helvetica,sans-Serif" font-size="10.00">const_mstar</text>
<text text-anchor="middle" x="293" y="-74" font-family="Helvetica,sans-Serif" font-size="10.00">id_tke_mech_decay</text>
<text text-anchor="middle" x="293" y="-63" font-family="Helvetica,sans-Serif" font-size="10.00">id_tke_conv</text>
<text text-anchor="middle" x="293" y="-52" font-family="Helvetica,sans-Serif" font-size="10.00">...</text>
</g>
<!-- Node6 -->
<g id="node6" class="node"><title>Node6</title>
<polygon fill="white" stroke="#bfbfbf" points="343,-188.5 343,-207.5 375,-207.5 375,-188.5 343,-188.5"/>
<text text-anchor="middle" x="359" y="-195.5" font-family="Helvetica,sans-Serif" font-size="10.00">real</text>
</g>
<!-- Node6&#45;&gt;Node1 -->
<g id="edge5" class="edge"><title>Node6&#45;&gt;Node1</title>
<path fill="none" stroke="#9a32cd" stroke-dasharray="5,2" d="M362.273,-178.31C366.567,-147.17 370.079,-84.5841 337,-49 324.573,-35.6318 281.584,-27.1125 245.615,-22.166"/>
<polygon fill="#9a32cd" stroke="#9a32cd" points="358.805,-177.832 360.722,-188.252 365.722,-178.911 358.805,-177.832"/>
<text text-anchor="middle" x="401" y="-162" font-family="Helvetica,sans-Serif" font-size="10.00"> diag_tke_mixing</text>
<text text-anchor="middle" x="401" y="-151" font-family="Helvetica,sans-Serif" font-size="10.00">diag_tke_mke</text>
<text text-anchor="middle" x="401" y="-140" font-family="Helvetica,sans-Serif" font-size="10.00">lac_mldoob_un</text>
<text text-anchor="middle" x="401" y="-129" font-family="Helvetica,sans-Serif" font-size="10.00">lac_ekoob_stab</text>
<text text-anchor="middle" x="401" y="-118" font-family="Helvetica,sans-Serif" font-size="10.00">mstar_xint_up</text>
<text text-anchor="middle" x="401" y="-107" font-family="Helvetica,sans-Serif" font-size="10.00">c_ek</text>
<text text-anchor="middle" x="401" y="-96" font-family="Helvetica,sans-Serif" font-size="10.00">mstar_at_xint</text>
<text text-anchor="middle" x="401" y="-85" font-family="Helvetica,sans-Serif" font-size="10.00">mstar_cap</text>
<text text-anchor="middle" x="401" y="-74" font-family="Helvetica,sans-Serif" font-size="10.00">mstar_b2</text>
<text text-anchor="middle" x="401" y="-63" font-family="Helvetica,sans-Serif" font-size="10.00">mstar_a</text>
<text text-anchor="middle" x="401" y="-52" font-family="Helvetica,sans-Serif" font-size="10.00">...</text>
</g>
</g>
</svg>
