<?xml version="1.0" encoding="UTF-8" standalone="no"?>
<!DOCTYPE svg PUBLIC "-//W3C//DTD SVG 1.1//EN"
 "http://www.w3.org/Graphics/SVG/1.1/DTD/svg11.dtd">
<!-- Generated by graphviz version 2.38.0 (20140413.2041)
 -->
<!-- Title: mom_file_parser::param_file_type Pages: 1 -->
<svg width="629pt" height="508pt"
 viewBox="0.00 0.00 629.00 508.13" xmlns="http://www.w3.org/2000/svg" xmlns:xlink="http://www.w3.org/1999/xlink">
<g id="graph0" class="graph" transform="scale(1 1) rotate(0) translate(4 504.133)">
<title>mom_file_parser::param_file_type</title>
<polygon fill="white" stroke="none" points="-4,4 -4,-504.133 625,-504.133 625,4 -4,4"/>
<!-- Node1 -->
<g id="node1" class="node"><title>Node1</title>
<polygon fill="#bfbfbf" stroke="black" points="499,-203.633 499,-233.633 621,-233.633 621,-203.633 499,-203.633"/>
<text text-anchor="start" x="507" y="-221.633" font-family="Helvetica,sans-Serif" font-size="10.00">mom_file_parser::param</text>
<text text-anchor="middle" x="560" y="-210.633" font-family="Helvetica,sans-Serif" font-size="10.00">_file_type</text>
</g>
<!-- Node2 -->
<g id="node2" class="node"><title>Node2</title>
<polygon fill="white" stroke="#bfbfbf" points="10,-449.133 10,-468.133 108,-468.133 108,-449.133 10,-449.133"/>
<text text-anchor="middle" x="59" y="-456.133" font-family="Helvetica,sans-Serif" font-size="10.00">character(len=240)</text>
</g>
<!-- Node2&#45;&gt;Node1 -->
<g id="edge1" class="edge"><title>Node2&#45;&gt;Node1</title>
<path fill="none" stroke="#9a32cd" stroke-dasharray="5,2" d="M118.342,-455.824C204.025,-450.88 359.039,-438.586 408,-412.633 485.306,-371.656 535.63,-271.904 552.613,-233.785"/>
<polygon fill="#9a32cd" stroke="#9a32cd" points="118.036,-452.335 108.248,-456.391 118.429,-459.324 118.036,-452.335"/>
<text text-anchor="middle" x="339" y="-445.633" font-family="Helvetica,sans-Serif" font-size="10.00"> doc_file</text>
</g>
<!-- Node6 -->
<g id="node6" class="node"><title>Node6</title>
<g id="a_node6"><a xlink:href="structmom__file__parser_1_1parameter__block.html" target="_top" xlink:title="mom_file_parser::parameter\l_block">
<polygon fill="white" stroke="black" points="270,-469.633 270,-499.633 408,-499.633 408,-469.633 270,-469.633"/>
<text text-anchor="start" x="278" y="-487.633" font-family="Helvetica,sans-Serif" font-size="10.00">mom_file_parser::parameter</text>
<text text-anchor="middle" x="339" y="-476.633" font-family="Helvetica,sans-Serif" font-size="10.00">_block</text>
</a>
</g>
</g>
<!-- Node2&#45;&gt;Node6 -->
<g id="edge8" class="edge"><title>Node2&#45;&gt;Node6</title>
<path fill="none" stroke="#9a32cd" stroke-dasharray="5,2" d="M118.128,-464.07C162.38,-468.209 223.4,-473.915 269.932,-478.267"/>
<polygon fill="#9a32cd" stroke="#9a32cd" points="118.389,-460.579 108.107,-463.133 117.737,-467.549 118.389,-460.579"/>
<text text-anchor="middle" x="194" y="-478.633" font-family="Helvetica,sans-Serif" font-size="10.00"> name</text>
</g>
<!-- Node3 -->
<g id="node3" class="node"><title>Node3</title>
<polygon fill="white" stroke="#bfbfbf" points="37,-238.133 37,-257.133 81,-257.133 81,-238.133 37,-238.133"/>
<text text-anchor="middle" x="59" y="-245.133" font-family="Helvetica,sans-Serif" font-size="10.00">logical</text>
</g>
<!-- Node3&#45;&gt;Node1 -->
<g id="edge2" class="edge"><title>Node3&#45;&gt;Node1</title>
<path fill="none" stroke="#9a32cd" stroke-dasharray="5,2" d="M91.3377,-245.923C161.261,-242.09 335.335,-232.454 481,-223.633 486.824,-223.281 492.892,-222.905 498.959,-222.525"/>
<polygon fill="#9a32cd" stroke="#9a32cd" points="90.8235,-242.446 81.0299,-246.487 91.2063,-249.435 90.8235,-242.446"/>
<text text-anchor="middle" x="339" y="-305.633" font-family="Helvetica,sans-Serif" font-size="10.00"> minimal_doc</text>
<text text-anchor="middle" x="339" y="-294.633" font-family="Helvetica,sans-Serif" font-size="10.00">unused_params_fatal</text>
<text text-anchor="middle" x="339" y="-283.633" font-family="Helvetica,sans-Serif" font-size="10.00">log_to_stdout</text>
<text text-anchor="middle" x="339" y="-272.633" font-family="Helvetica,sans-Serif" font-size="10.00">complete_doc</text>
<text text-anchor="middle" x="339" y="-261.633" font-family="Helvetica,sans-Serif" font-size="10.00">report_unused</text>
<text text-anchor="middle" x="339" y="-250.633" font-family="Helvetica,sans-Serif" font-size="10.00">netcdf_file</text>
<text text-anchor="middle" x="339" y="-239.633" font-family="Helvetica,sans-Serif" font-size="10.00">log_open</text>
</g>
<!-- Node4 -->
<g id="node4" class="node"><title>Node4</title>
<g id="a_node4"><a xlink:href="structmom__file__parser_1_1link__parameter.html" target="_top" xlink:title="mom_file_parser::link\l_parameter">
<polygon fill="white" stroke="black" points="284,-343.633 284,-373.633 394,-373.633 394,-343.633 284,-343.633"/>
<text text-anchor="start" x="292" y="-361.633" font-family="Helvetica,sans-Serif" font-size="10.00">mom_file_parser::link</text>
<text text-anchor="middle" x="339" y="-350.633" font-family="Helvetica,sans-Serif" font-size="10.00">_parameter</text>
</a>
</g>
</g>
<!-- Node3&#45;&gt;Node4 -->
<g id="edge4" class="edge"><title>Node3&#45;&gt;Node4</title>
<path fill="none" stroke="#9a32cd" stroke-dasharray="5,2" d="M90.8899,-259.967C142.135,-280.428 244.568,-321.328 300.102,-343.501"/>
<polygon fill="#9a32cd" stroke="#9a32cd" points="91.9375,-256.617 81.3526,-256.159 89.3418,-263.118 91.9375,-256.617"/>
<text text-anchor="middle" x="194" y="-326.633" font-family="Helvetica,sans-Serif" font-size="10.00"> hasissuedoverridewarning</text>
</g>
<!-- Node10 -->
<g id="node10" class="node"><title>Node10</title>
<g id="a_node10"><a xlink:href="structmom__file__parser_1_1file__data__type.html" target="_top" xlink:title="mom_file_parser::file\l_data_type">
<polygon fill="white" stroke="black" points="285.5,-82.6334 285.5,-112.633 392.5,-112.633 392.5,-82.6334 285.5,-82.6334"/>
<text text-anchor="start" x="293.5" y="-100.633" font-family="Helvetica,sans-Serif" font-size="10.00">mom_file_parser::file</text>
<text text-anchor="middle" x="339" y="-89.6334" font-family="Helvetica,sans-Serif" font-size="10.00">_data_type</text>
</a>
</g>
</g>
<!-- Node3&#45;&gt;Node10 -->
<g id="edge13" class="edge"><title>Node3&#45;&gt;Node10</title>
<path fill="none" stroke="#9a32cd" stroke-dasharray="5,2" d="M82.9655,-232.034C120.775,-206.8 199.025,-156.448 270,-122.633 277.381,-119.117 285.398,-115.775 293.251,-112.744"/>
<polygon fill="#9a32cd" stroke="#9a32cd" points="80.6051,-229.403 74.2534,-237.883 84.5068,-235.215 80.6051,-229.403"/>
<text text-anchor="middle" x="194" y="-199.633" font-family="Helvetica,sans-Serif" font-size="10.00"> line_used</text>
</g>
<!-- Node4&#45;&gt;Node1 -->
<g id="edge3" class="edge"><title>Node4&#45;&gt;Node1</title>
<path fill="none" stroke="#9a32cd" stroke-dasharray="5,2" d="M387.562,-339.216C394.538,-335.92 401.543,-332.352 408,-328.633 458.871,-299.335 513.291,-256.478 540.812,-233.881"/>
<polygon fill="#9a32cd" stroke="#9a32cd" points="385.762,-336.19 378.121,-343.529 388.671,-342.557 385.762,-336.19"/>
<text text-anchor="middle" x="453.5" y="-318.633" font-family="Helvetica,sans-Serif" font-size="10.00"> chain</text>
</g>
<!-- Node4&#45;&gt;Node4 -->
<g id="edge6" class="edge"><title>Node4&#45;&gt;Node4</title>
<path fill="none" stroke="#9a32cd" stroke-dasharray="5,2" d="M318.744,-384.091C321.258,-388.812 328.01,-392.133 339,-392.133 357.035,-392.133 363.657,-383.19 358.867,-373.792"/>
<polygon fill="#9a32cd" stroke="#9a32cd" points="322.253,-383.918 319.133,-373.792 315.258,-383.653 322.253,-383.918"/>
<text text-anchor="middle" x="339" y="-395.133" font-family="Helvetica,sans-Serif" font-size="10.00"> next</text>
</g>
<!-- Node5 -->
<g id="node5" class="node"><title>Node5</title>
<polygon fill="white" stroke="#bfbfbf" points="13,-349.133 13,-368.133 105,-368.133 105,-349.133 13,-349.133"/>
<text text-anchor="middle" x="59" y="-356.133" font-family="Helvetica,sans-Serif" font-size="10.00">character(len=80)</text>
</g>
<!-- Node5&#45;&gt;Node4 -->
<g id="edge5" class="edge"><title>Node5&#45;&gt;Node4</title>
<path fill="none" stroke="#9a32cd" stroke-dasharray="5,2" d="M115.366,-358.633C164.249,-358.633 235.098,-358.633 283.668,-358.633"/>
<polygon fill="#9a32cd" stroke="#9a32cd" points="115.284,-355.134 105.284,-358.633 115.284,-362.134 115.284,-355.134"/>
<text text-anchor="middle" x="194" y="-361.633" font-family="Helvetica,sans-Serif" font-size="10.00"> name</text>
</g>
<!-- Node6&#45;&gt;Node1 -->
<g id="edge7" class="edge"><title>Node6&#45;&gt;Node1</title>
<path fill="none" stroke="#9a32cd" stroke-dasharray="5,2" d="M418.12,-481.818C440.673,-477.474 463.807,-469.125 481,-453.633 547.587,-393.638 557.45,-275.486 558.818,-233.706"/>
<polygon fill="#9a32cd" stroke="#9a32cd" points="417.448,-478.382 408.168,-483.493 418.61,-485.285 417.448,-478.382"/>
<text text-anchor="middle" x="453.5" y="-481.633" font-family="Helvetica,sans-Serif" font-size="10.00"> blockname</text>
</g>
<!-- Node7 -->
<g id="node7" class="node"><title>Node7</title>
<polygon fill="white" stroke="#bfbfbf" points="277.5,-170.133 277.5,-211.133 400.5,-211.133 400.5,-170.133 277.5,-170.133"/>
<text text-anchor="start" x="285.5" y="-199.133" font-family="Helvetica,sans-Serif" font-size="10.00">character(len=filename</text>
<text text-anchor="start" x="285.5" y="-188.133" font-family="Helvetica,sans-Serif" font-size="10.00">_length), dimension(max</text>
<text text-anchor="middle" x="339" y="-177.133" font-family="Helvetica,sans-Serif" font-size="10.00">_param_files)</text>
</g>
<!-- Node7&#45;&gt;Node1 -->
<g id="edge9" class="edge"><title>Node7&#45;&gt;Node1</title>
<path fill="none" stroke="#9a32cd" stroke-dasharray="5,2" d="M410.978,-199.708C439.371,-203.338 471.725,-207.475 498.928,-210.953"/>
<polygon fill="#9a32cd" stroke="#9a32cd" points="411.076,-196.192 400.713,-198.396 410.188,-203.136 411.076,-196.192"/>
<text text-anchor="middle" x="453.5" y="-211.633" font-family="Helvetica,sans-Serif" font-size="10.00"> filename</text>
</g>
<!-- Node8 -->
<g id="node8" class="node"><title>Node8</title>
<polygon fill="white" stroke="#bfbfbf" points="311,-132.133 311,-151.133 367,-151.133 367,-132.133 311,-132.133"/>
<text text-anchor="middle" x="339" y="-139.133" font-family="Helvetica,sans-Serif" font-size="10.00">doc_type</text>
</g>
<!-- Node8&#45;&gt;Node1 -->
<g id="edge10" class="edge"><title>Node8&#45;&gt;Node1</title>
<path fill="none" stroke="#9a32cd" stroke-dasharray="5,2" d="M377.044,-151.392C387.135,-154.211 398.03,-157.403 408,-160.633 447.939,-173.575 492.727,-191.182 523.08,-203.591"/>
<polygon fill="#9a32cd" stroke="#9a32cd" points="377.856,-147.985 367.286,-148.71 376,-154.735 377.856,-147.985"/>
<text text-anchor="middle" x="453.5" y="-189.633" font-family="Helvetica,sans-Serif" font-size="10.00"> doc</text>
</g>
<!-- Node9 -->
<g id="node9" class="node"><title>Node9</title>
<polygon fill="white" stroke="#bfbfbf" points="36,-25.1334 36,-44.1334 82,-44.1334 82,-25.1334 36,-25.1334"/>
<text text-anchor="middle" x="59" y="-32.1334" font-family="Helvetica,sans-Serif" font-size="10.00">integer</text>
</g>
<!-- Node9&#45;&gt;Node1 -->
<g id="edge11" class="edge"><title>Node9&#45;&gt;Node1</title>
<path fill="none" stroke="#9a32cd" stroke-dasharray="5,2" d="M92.1154,-24.9604C156.019,-7.60392 302.065,22.4915 408,-28.6334 485.791,-66.1757 535.824,-165.429 552.671,-203.486"/>
<polygon fill="#9a32cd" stroke="#9a32cd" points="90.9162,-21.6614 82.2278,-27.7245 92.8008,-28.4029 90.9162,-21.6614"/>
<text text-anchor="middle" x="339" y="-64.6334" font-family="Helvetica,sans-Serif" font-size="10.00"> stdlog</text>
<text text-anchor="middle" x="339" y="-53.6334" font-family="Helvetica,sans-Serif" font-size="10.00">nfiles</text>
<text text-anchor="middle" x="339" y="-42.6334" font-family="Helvetica,sans-Serif" font-size="10.00">iounit</text>
<text text-anchor="middle" x="339" y="-31.6334" font-family="Helvetica,sans-Serif" font-size="10.00">stdout</text>
</g>
<!-- Node9&#45;&gt;Node10 -->
<g id="edge15" class="edge"><title>Node9&#45;&gt;Node10</title>
<path fill="none" stroke="#9a32cd" stroke-dasharray="5,2" d="M92.2824,-41.9492C139.645,-52.6824 228.493,-72.817 285.374,-85.7074"/>
<polygon fill="#9a32cd" stroke="#9a32cd" points="92.8063,-38.4793 82.28,-39.6825 91.2591,-45.3062 92.8063,-38.4793"/>
<text text-anchor="middle" x="194" y="-80.6334" font-family="Helvetica,sans-Serif" font-size="10.00"> num_lines</text>
</g>
<!-- Node10&#45;&gt;Node1 -->
<g id="edge12" class="edge"><title>Node10&#45;&gt;Node1</title>
<path fill="none" stroke="#9a32cd" stroke-dasharray="5,2" d="M391.296,-116.185C396.948,-118.32 402.606,-120.498 408,-122.633 440.774,-135.608 450.916,-135.265 481,-153.633 504.62,-168.055 528.606,-189.235 543.624,-203.46"/>
<polygon fill="#9a32cd" stroke="#9a32cd" points="392.431,-112.873 381.839,-112.647 389.978,-119.429 392.431,-112.873"/>
<text text-anchor="middle" x="453.5" y="-156.633" font-family="Helvetica,sans-Serif" font-size="10.00"> param_data</text>
</g>
<!-- Node11 -->
<g id="node11" class="node"><title>Node11</title>
<polygon fill="white" stroke="#bfbfbf" points="0,-77.1334 0,-118.133 118,-118.133 118,-77.1334 0,-77.1334"/>
<text text-anchor="start" x="8" y="-106.133" font-family="Helvetica,sans-Serif" font-size="10.00">character(len=input</text>
<text text-anchor="start" x="8" y="-95.1334" font-family="Helvetica,sans-Serif" font-size="10.00">_str_length), dimension</text>
<text text-anchor="middle" x="59" y="-84.1334" font-family="Helvetica,sans-Serif" font-size="10.00">(:), pointer</text>
</g>
<!-- Node11&#45;&gt;Node10 -->
<g id="edge14" class="edge"><title>Node11&#45;&gt;Node10</title>
<path fill="none" stroke="#9a32cd" stroke-dasharray="5,2" d="M128.373,-97.6334C176.851,-97.6334 240.937,-97.6334 285.432,-97.6334"/>
<polygon fill="#9a32cd" stroke="#9a32cd" points="128.278,-94.1335 118.278,-97.6334 128.278,-101.134 128.278,-94.1335"/>
<text text-anchor="middle" x="194" y="-100.633" font-family="Helvetica,sans-Serif" font-size="10.00"> line</text>
</g>
</g>
</svg>
