<?xml version="1.0" encoding="UTF-8" standalone="no"?>
<!DOCTYPE svg PUBLIC "-//W3C//DTD SVG 1.1//EN"
 "http://www.w3.org/Graphics/SVG/1.1/DTD/svg11.dtd">
<!-- Generated by graphviz version 2.38.0 (20140413.2041)
 -->
<!-- Title: mom_diag_to_z::diag_to_z_cs Pages: 1 -->
<svg width="361pt" height="194pt"
 viewBox="0.00 0.00 361.00 194.00" xmlns="http://www.w3.org/2000/svg" xmlns:xlink="http://www.w3.org/1999/xlink">
<g id="graph0" class="graph" transform="scale(1 1) rotate(0) translate(4 190)">
<title>mom_diag_to_z::diag_to_z_cs</title>
<polygon fill="white" stroke="none" points="-4,4 -4,-190 357,-190 357,4 -4,4"/>
<!-- Node1 -->
<g id="node1" class="node"><title>Node1</title>
<polygon fill="#bfbfbf" stroke="black" points="96,-0.5 96,-30.5 206,-30.5 206,-0.5 96,-0.5"/>
<text text-anchor="start" x="104" y="-18.5" font-family="Helvetica,sans-Serif" font-size="10.00">mom_diag_to_z::diag</text>
<text text-anchor="middle" x="151" y="-7.5" font-family="Helvetica,sans-Serif" font-size="10.00">_to_z_cs</text>
</g>
<!-- Node2 -->
<g id="node2" class="node"><title>Node2</title>
<polygon fill="white" stroke="#bfbfbf" points="0,-166.5 0,-185.5 32,-185.5 32,-166.5 0,-166.5"/>
<text text-anchor="middle" x="16" y="-173.5" font-family="Helvetica,sans-Serif" font-size="10.00">p3d</text>
</g>
<!-- Node2&#45;&gt;Node1 -->
<g id="edge1" class="edge"><title>Node2&#45;&gt;Node1</title>
<path fill="none" stroke="#9a32cd" stroke-dasharray="5,2" d="M13.4329,-156.263C10.8291,-129.108 10.3693,-78.8109 37,-49 51.8761,-32.3474 74.6203,-23.9725 95.8908,-19.8499"/>
<polygon fill="#9a32cd" stroke="#9a32cd" points="9.97497,-156.828 14.6073,-166.357 16.9281,-156.019 9.97497,-156.828"/>
<text text-anchor="middle" x="56" y="-101.5" font-family="Helvetica,sans-Serif" font-size="10.00"> tr_z</text>
<text text-anchor="middle" x="56" y="-90.5" font-family="Helvetica,sans-Serif" font-size="10.00">tr_model</text>
</g>
<!-- Node3 -->
<g id="node3" class="node"><title>Node3</title>
<polygon fill="white" stroke="#bfbfbf" points="50,-166.5 50,-185.5 106,-185.5 106,-166.5 50,-166.5"/>
<text text-anchor="middle" x="78" y="-173.5" font-family="Helvetica,sans-Serif" font-size="10.00">axes_grp</text>
</g>
<!-- Node3&#45;&gt;Node1 -->
<g id="edge2" class="edge"><title>Node3&#45;&gt;Node1</title>
<path fill="none" stroke="#9a32cd" stroke-dasharray="5,2" d="M78.3404,-156.211C79.6463,-130.117 85.1262,-82.3565 107,-49 111.687,-41.8526 118.517,-35.7138 125.403,-30.7579"/>
<polygon fill="#9a32cd" stroke="#9a32cd" points="74.8409,-156.141 77.9953,-166.256 81.8367,-156.382 74.8409,-156.141"/>
<text text-anchor="middle" x="127" y="-140" font-family="Helvetica,sans-Serif" font-size="10.00"> axesz</text>
<text text-anchor="middle" x="127" y="-129" font-family="Helvetica,sans-Serif" font-size="10.00">axescvz</text>
<text text-anchor="middle" x="127" y="-118" font-family="Helvetica,sans-Serif" font-size="10.00">axescuz</text>
<text text-anchor="middle" x="127" y="-107" font-family="Helvetica,sans-Serif" font-size="10.00">axestz</text>
<text text-anchor="middle" x="127" y="-96" font-family="Helvetica,sans-Serif" font-size="10.00">axesbzi</text>
<text text-anchor="middle" x="127" y="-85" font-family="Helvetica,sans-Serif" font-size="10.00">axesbz</text>
<text text-anchor="middle" x="127" y="-74" font-family="Helvetica,sans-Serif" font-size="10.00">axestzi</text>
<text text-anchor="middle" x="127" y="-63" font-family="Helvetica,sans-Serif" font-size="10.00">axescuzi</text>
<text text-anchor="middle" x="127" y="-52" font-family="Helvetica,sans-Serif" font-size="10.00">axescvzi</text>
</g>
<!-- Node4 -->
<g id="node4" class="node"><title>Node4</title>
<polygon fill="white" stroke="#bfbfbf" points="124.5,-166.5 124.5,-185.5 177.5,-185.5 177.5,-166.5 124.5,-166.5"/>
<text text-anchor="middle" x="151" y="-173.5" font-family="Helvetica,sans-Serif" font-size="10.00">diag_ctrl</text>
</g>
<!-- Node4&#45;&gt;Node1 -->
<g id="edge3" class="edge"><title>Node4&#45;&gt;Node1</title>
<path fill="none" stroke="#9a32cd" stroke-dasharray="5,2" d="M151,-156.263C151,-124.174 151,-59.3923 151,-30.714"/>
<polygon fill="#9a32cd" stroke="#9a32cd" points="147.5,-156.478 151,-166.478 154.5,-156.478 147.5,-156.478"/>
<text text-anchor="middle" x="162" y="-96" font-family="Helvetica,sans-Serif" font-size="10.00"> diag</text>
</g>
<!-- Node5 -->
<g id="node5" class="node"><title>Node5</title>
<polygon fill="white" stroke="#bfbfbf" points="196,-166.5 196,-185.5 242,-185.5 242,-166.5 196,-166.5"/>
<text text-anchor="middle" x="219" y="-173.5" font-family="Helvetica,sans-Serif" font-size="10.00">integer</text>
</g>
<!-- Node5&#45;&gt;Node1 -->
<g id="edge4" class="edge"><title>Node5&#45;&gt;Node1</title>
<path fill="none" stroke="#9a32cd" stroke-dasharray="5,2" d="M211.337,-156.78C210.178,-153.859 209.028,-150.858 208,-148 192.4,-104.613 198.662,-89.701 177,-49 173.537,-42.4939 168.706,-36.0128 164.147,-30.5698"/>
<polygon fill="#9a32cd" stroke="#9a32cd" points="208.114,-158.146 215.144,-166.073 214.591,-155.492 208.114,-158.146"/>
<text text-anchor="middle" x="236.5" y="-140" font-family="Helvetica,sans-Serif" font-size="10.00"> id_vh_z</text>
<text text-anchor="middle" x="236.5" y="-129" font-family="Helvetica,sans-Serif" font-size="10.00">id_uh_z</text>
<text text-anchor="middle" x="236.5" y="-118" font-family="Helvetica,sans-Serif" font-size="10.00">id_u_z</text>
<text text-anchor="middle" x="236.5" y="-107" font-family="Helvetica,sans-Serif" font-size="10.00">id_v_z</text>
<text text-anchor="middle" x="236.5" y="-96" font-family="Helvetica,sans-Serif" font-size="10.00">axesz_out</text>
<text text-anchor="middle" x="236.5" y="-85" font-family="Helvetica,sans-Serif" font-size="10.00">id_tr</text>
<text text-anchor="middle" x="236.5" y="-74" font-family="Helvetica,sans-Serif" font-size="10.00">nk_zspace</text>
<text text-anchor="middle" x="236.5" y="-63" font-family="Helvetica,sans-Serif" font-size="10.00">num_tr_used</text>
<text text-anchor="middle" x="236.5" y="-52" font-family="Helvetica,sans-Serif" font-size="10.00">id_tr_xyave</text>
</g>
<!-- Node6 -->
<g id="node6" class="node"><title>Node6</title>
<polygon fill="white" stroke="#bfbfbf" points="271,-166.5 271,-185.5 303,-185.5 303,-166.5 271,-166.5"/>
<text text-anchor="middle" x="287" y="-173.5" font-family="Helvetica,sans-Serif" font-size="10.00">real</text>
</g>
<!-- Node6&#45;&gt;Node1 -->
<g id="edge5" class="edge"><title>Node6&#45;&gt;Node1</title>
<path fill="none" stroke="#9a32cd" stroke-dasharray="5,2" d="M289.396,-156.246C291.755,-129.07 291.781,-78.7471 265,-49 250.06,-32.4049 227.306,-24.0387 206.045,-19.9072"/>
<polygon fill="#9a32cd" stroke="#9a32cd" points="285.899,-156.032 288.313,-166.349 292.859,-156.779 285.899,-156.032"/>
<text text-anchor="middle" x="321.5" y="-140" font-family="Helvetica,sans-Serif" font-size="10.00"> missing_vel</text>
<text text-anchor="middle" x="321.5" y="-129" font-family="Helvetica,sans-Serif" font-size="10.00">z_int</text>
<text text-anchor="middle" x="321.5" y="-118" font-family="Helvetica,sans-Serif" font-size="10.00">missing_trans</text>
<text text-anchor="middle" x="321.5" y="-107" font-family="Helvetica,sans-Serif" font-size="10.00">u_z</text>
<text text-anchor="middle" x="321.5" y="-96" font-family="Helvetica,sans-Serif" font-size="10.00">v_z</text>
<text text-anchor="middle" x="321.5" y="-85" font-family="Helvetica,sans-Serif" font-size="10.00">missing_tr</text>
<text text-anchor="middle" x="321.5" y="-74" font-family="Helvetica,sans-Serif" font-size="10.00">missing_value</text>
<text text-anchor="middle" x="321.5" y="-63" font-family="Helvetica,sans-Serif" font-size="10.00">vh_z</text>
<text text-anchor="middle" x="321.5" y="-52" font-family="Helvetica,sans-Serif" font-size="10.00">uh_z</text>
</g>
</g>
</svg>
