<?xml version="1.0" encoding="UTF-8" standalone="no"?>
<!DOCTYPE svg PUBLIC "-//W3C//DTD SVG 1.1//EN"
 "http://www.w3.org/Graphics/SVG/1.1/DTD/svg11.dtd">
<!-- Generated by graphviz version 2.38.0 (20140413.2041)
 -->
<!-- Title: mom_shortwave_abs::optics_type Pages: 1 -->
<svg width="177pt" height="139pt"
 viewBox="0.00 0.00 177.00 139.00" xmlns="http://www.w3.org/2000/svg" xmlns:xlink="http://www.w3.org/1999/xlink">
<g id="graph0" class="graph" transform="scale(1 1) rotate(0) translate(4 135)">
<title>mom_shortwave_abs::optics_type</title>
<polygon fill="white" stroke="none" points="-4,4 -4,-135 173,-135 173,4 -4,4"/>
<!-- Node1 -->
<g id="node1" class="node"><title>Node1</title>
<polygon fill="#bfbfbf" stroke="black" points="19,-0.5 19,-30.5 135,-30.5 135,-0.5 19,-0.5"/>
<text text-anchor="start" x="27" y="-18.5" font-family="Helvetica,sans-Serif" font-size="10.00">mom_shortwave_abs::</text>
<text text-anchor="middle" x="77" y="-7.5" font-family="Helvetica,sans-Serif" font-size="10.00">optics_type</text>
</g>
<!-- Node2 -->
<g id="node2" class="node"><title>Node2</title>
<polygon fill="white" stroke="#bfbfbf" points="0,-111.5 0,-130.5 32,-130.5 32,-111.5 0,-111.5"/>
<text text-anchor="middle" x="16" y="-118.5" font-family="Helvetica,sans-Serif" font-size="10.00">real</text>
</g>
<!-- Node2&#45;&gt;Node1 -->
<g id="edge1" class="edge"><title>Node2&#45;&gt;Node1</title>
<path fill="none" stroke="#9a32cd" stroke-dasharray="5,2" d="M11.3517,-101.154C8.69874,-85.9632 7.53961,-64.632 17,-49 21.723,-41.1959 29.0329,-35.1463 36.9464,-30.5016"/>
<polygon fill="#9a32cd" stroke="#9a32cd" points="8.02143,-102.322 13.5205,-111.378 14.869,-100.869 8.02143,-102.322"/>
<text text-anchor="middle" x="67" y="-85" font-family="Helvetica,sans-Serif" font-size="10.00"> sw_pen_band</text>
<text text-anchor="middle" x="67" y="-74" font-family="Helvetica,sans-Serif" font-size="10.00">opacity_band</text>
<text text-anchor="middle" x="67" y="-63" font-family="Helvetica,sans-Serif" font-size="10.00">min_wavelength_band</text>
<text text-anchor="middle" x="67" y="-52" font-family="Helvetica,sans-Serif" font-size="10.00">max_wavelength_band</text>
</g>
<!-- Node3 -->
<g id="node3" class="node"><title>Node3</title>
<polygon fill="white" stroke="#bfbfbf" points="116,-111.5 116,-130.5 162,-130.5 162,-111.5 116,-111.5"/>
<text text-anchor="middle" x="139" y="-118.5" font-family="Helvetica,sans-Serif" font-size="10.00">integer</text>
</g>
<!-- Node3&#45;&gt;Node1 -->
<g id="edge2" class="edge"><title>Node3&#45;&gt;Node1</title>
<path fill="none" stroke="#9a32cd" stroke-dasharray="5,2" d="M136.281,-101.268C133.395,-86.1431 127.713,-64.8456 117,-49 112.289,-42.0321 105.645,-35.7994 99.1221,-30.7014"/>
<polygon fill="#9a32cd" stroke="#9a32cd" points="132.88,-102.151 137.98,-111.438 139.785,-100.998 132.88,-102.151"/>
<text text-anchor="middle" x="151.5" y="-68.5" font-family="Helvetica,sans-Serif" font-size="10.00"> nbands</text>
</g>
</g>
</svg>
