<?xml version="1.0" encoding="UTF-8" standalone="no"?>
<!DOCTYPE svg PUBLIC "-//W3C//DTD SVG 1.1//EN"
 "http://www.w3.org/Graphics/SVG/1.1/DTD/svg11.dtd">
<!-- Generated by graphviz version 2.38.0 (20140413.2041)
 -->
<!-- Title: mom_grid::ocean_grid_type Pages: 1 -->
<!--zoomable 216 -->
<svg id="main" version="1.1" xmlns="http://www.w3.org/2000/svg" xmlns:xlink="http://www.w3.org/1999/xlink" xml:space="preserve" onload="init(evt)">
<style type="text/css"><![CDATA[
.edge:hover path { stroke: red; }
.edge:hover polygon { stroke: red; fill: red; }
]]></style>
<script type="text/javascript"><![CDATA[
var edges = document.getElementsByTagName('g');
if (edges && edges.length) {
  for (var i=0;i<edges.length;i++) {
    if (edges[i].id.substr(0,4)=='edge') {
      edges[i].setAttribute('class','edge');
    }
  }
}
]]></script>
        <defs>
                <circle id="rim" cx="0" cy="0" r="7"/>
                <circle id="rim2" cx="0" cy="0" r="3.5"/>
                <g id="zoomPlus">
                        <use xlink:href="#rim" fill="#404040">
                                <set attributeName="fill" to="#808080" begin="zoomplus.mouseover" end="zoomplus.mouseout"/>
                        </use>
                        <path d="M-4,0h8M0,-4v8" fill="none" stroke="white" stroke-width="1.5" pointer-events="none"/>
                </g>
                <g id="zoomMin">
                        <use xlink:href="#rim" fill="#404040">
                                <set attributeName="fill" to="#808080" begin="zoomminus.mouseover" end="zoomminus.mouseout"/>
                        </use>
                        <path d="M-4,0h8" fill="none" stroke="white" stroke-width="1.5" pointer-events="none"/>
                </g>
                <g id="dirArrow">
                        <path fill="none" stroke="white" stroke-width="1.5" d="M0,-3.0v7 M-2.5,-0.5L0,-3.0L2.5,-0.5"/>
                </g>
               <g id="resetDef">
                       <use xlink:href="#rim2" fill="#404040">
                               <set attributeName="fill" to="#808080" begin="reset.mouseover" end="reset.mouseout"/>
                       </use>
               </g>
        </defs>

<script type="text/javascript">
var viewWidth = 556;
var viewHeight = 216;
var sectionId = 'dynsection-0';
</script>
<script xlink:href="svgpan.js"/>
<svg id="graph" class="graph">
<g id="viewport">
<title>mom_grid::ocean_grid_type</title>
<polygon fill="white" stroke="none" points="-4,4 -4,-212 552,-212 552,4 -4,4"/>
<!-- Node1 -->
<g id="node1" class="node"><title>Node1</title>
<polygon fill="#bfbfbf" stroke="black" points="198.5,-0.5 198.5,-19.5 335.5,-19.5 335.5,-0.5 198.5,-0.5"/>
<text text-anchor="middle" x="267" y="-7.5" font-family="Helvetica,sans-Serif" font-size="10.00">mom_grid::ocean_grid_type</text>
</g>
<!-- Node2 -->
<g id="node2" class="node"><title>Node2</title>
<polygon fill="white" stroke="#bfbfbf" points="0,-183 0,-202 44,-202 44,-183 0,-183"/>
<text text-anchor="middle" x="22" y="-190" font-family="Helvetica,sans-Serif" font-size="10.00">logical</text>
</g>
<!-- Node2&#45;&gt;Node1 -->
<g id="edge1" class="edge"><title>Node2&#45;&gt;Node1</title>
<path fill="none" stroke="#9a32cd" stroke-dasharray="5,2" d="M16.0762,-172.9C7.12853,-140.769 -5.38441,-74.7834 29,-38 40.4654,-25.7346 132.185,-18.1992 198.337,-14.3072"/>
<polygon fill="#9a32cd" stroke="#9a32cd" points="12.801,-174.165 19.0097,-182.75 19.5098,-172.167 12.801,-174.165"/>
<text text-anchor="middle" x="76.5" y="-107" font-family="Helvetica,sans-Serif" font-size="10.00"> nonblocking_updates</text>
<text text-anchor="middle" x="76.5" y="-96" font-family="Helvetica,sans-Serif" font-size="10.00">bathymetry_at_vel</text>
<text text-anchor="middle" x="76.5" y="-85" font-family="Helvetica,sans-Serif" font-size="10.00">symmetric</text>
</g>
<!-- Node3 -->
<g id="node3" class="node"><title>Node3</title>
<polygon fill="white" stroke="#bfbfbf" points="80.5,-183 80.5,-202 163.5,-202 163.5,-183 80.5,-183"/>
<text text-anchor="middle" x="122" y="-190" font-family="Helvetica,sans-Serif" font-size="10.00">hor_index_type</text>
</g>
<!-- Node3&#45;&gt;Node1 -->
<g id="edge2" class="edge"><title>Node3&#45;&gt;Node1</title>
<path fill="none" stroke="#9a32cd" stroke-dasharray="5,2" d="M124.738,-172.544C130.374,-140.359 146.254,-74.9355 186,-38 195.23,-29.423 207.26,-23.565 219.214,-19.5661"/>
<polygon fill="#9a32cd" stroke="#9a32cd" points="121.224,-172.355 123.101,-182.783 128.136,-173.461 121.224,-172.355"/>
<text text-anchor="middle" x="198" y="-101.5" font-family="Helvetica,sans-Serif" font-size="10.00"> hi</text>
<text text-anchor="middle" x="198" y="-90.5" font-family="Helvetica,sans-Serif" font-size="10.00">block</text>
</g>
<!-- Node4 -->
<g id="node4" class="node"><title>Node4</title>
<polygon fill="white" stroke="#bfbfbf" points="182,-183 182,-202 274,-202 274,-183 182,-183"/>
<text text-anchor="middle" x="228" y="-190" font-family="Helvetica,sans-Serif" font-size="10.00">character(len=40)</text>
</g>
<!-- Node4&#45;&gt;Node1 -->
<g id="edge3" class="edge"><title>Node4&#45;&gt;Node1</title>
<path fill="none" stroke="#9a32cd" stroke-dasharray="5,2" d="M222.759,-172.864C215.344,-142.599 205.079,-81.7465 228,-38 232.128,-30.122 239.714,-24.0856 247.106,-19.7391"/>
<polygon fill="#9a32cd" stroke="#9a32cd" points="219.461,-174.084 225.386,-182.867 226.231,-172.306 219.461,-174.084"/>
<text text-anchor="middle" x="257" y="-101.5" font-family="Helvetica,sans-Serif" font-size="10.00"> y_axis_units</text>
<text text-anchor="middle" x="257" y="-90.5" font-family="Helvetica,sans-Serif" font-size="10.00">x_axis_units</text>
</g>
<!-- Node5 -->
<g id="node5" class="node"><title>Node5</title>
<polygon fill="white" stroke="#bfbfbf" points="292,-183 292,-202 324,-202 324,-183 292,-183"/>
<text text-anchor="middle" x="308" y="-190" font-family="Helvetica,sans-Serif" font-size="10.00">real</text>
</g>
<!-- Node5&#45;&gt;Node1 -->
<g id="edge4" class="edge"><title>Node5&#45;&gt;Node1</title>
<path fill="none" stroke="#9a32cd" stroke-dasharray="5,2" d="M308.091,-172.648C307.629,-142.956 304.234,-83.949 286,-38 283.378,-31.3937 278.839,-24.8526 274.854,-19.8634"/>
<polygon fill="#9a32cd" stroke="#9a32cd" points="304.592,-172.843 308.148,-182.824 311.592,-172.804 304.592,-172.843"/>
<text text-anchor="middle" x="334" y="-151" font-family="Helvetica,sans-Serif" font-size="10.00"> max_depth</text>
<text text-anchor="middle" x="334" y="-140" font-family="Helvetica,sans-Serif" font-size="10.00">west_lon</text>
<text text-anchor="middle" x="334" y="-129" font-family="Helvetica,sans-Serif" font-size="10.00">dblock_u</text>
<text text-anchor="middle" x="334" y="-118" font-family="Helvetica,sans-Serif" font-size="10.00">iareabu</text>
<text text-anchor="middle" x="334" y="-107" font-family="Helvetica,sans-Serif" font-size="10.00">areat</text>
<text text-anchor="middle" x="334" y="-96" font-family="Helvetica,sans-Serif" font-size="10.00">dblock_v</text>
<text text-anchor="middle" x="334" y="-85" font-family="Helvetica,sans-Serif" font-size="10.00">len_lon</text>
<text text-anchor="middle" x="334" y="-74" font-family="Helvetica,sans-Serif" font-size="10.00">geoloncu</text>
<text text-anchor="middle" x="334" y="-63" font-family="Helvetica,sans-Serif" font-size="10.00">cos_rot</text>
<text text-anchor="middle" x="334" y="-52" font-family="Helvetica,sans-Serif" font-size="10.00">sin_rot</text>
<text text-anchor="middle" x="334" y="-41" font-family="Helvetica,sans-Serif" font-size="10.00">...</text>
</g>
<!-- Node6 -->
<g id="node6" class="node"><title>Node6</title>
<polygon fill="white" stroke="#bfbfbf" points="360,-183 360,-202 406,-202 406,-183 360,-183"/>
<text text-anchor="middle" x="383" y="-190" font-family="Helvetica,sans-Serif" font-size="10.00">integer</text>
</g>
<!-- Node6&#45;&gt;Node1 -->
<g id="edge5" class="edge"><title>Node6&#45;&gt;Node1</title>
<path fill="none" stroke="#9a32cd" stroke-dasharray="5,2" d="M386.211,-172.8C390.531,-141.002 394.235,-76.1442 361,-38 353.638,-29.5508 343.825,-23.6637 333.313,-19.579"/>
<polygon fill="#9a32cd" stroke="#9a32cd" points="382.717,-172.493 384.659,-182.909 389.636,-173.556 382.717,-172.493"/>
<text text-anchor="middle" x="410.5" y="-151" font-family="Helvetica,sans-Serif" font-size="10.00"> nblocks</text>
<text text-anchor="middle" x="410.5" y="-140" font-family="Helvetica,sans-Serif" font-size="10.00">iec</text>
<text text-anchor="middle" x="410.5" y="-129" font-family="Helvetica,sans-Serif" font-size="10.00">ied</text>
<text text-anchor="middle" x="410.5" y="-118" font-family="Helvetica,sans-Serif" font-size="10.00">jec</text>
<text text-anchor="middle" x="410.5" y="-107" font-family="Helvetica,sans-Serif" font-size="10.00">jed</text>
<text text-anchor="middle" x="410.5" y="-96" font-family="Helvetica,sans-Serif" font-size="10.00">jsgb</text>
<text text-anchor="middle" x="410.5" y="-85" font-family="Helvetica,sans-Serif" font-size="10.00">isc</text>
<text text-anchor="middle" x="410.5" y="-74" font-family="Helvetica,sans-Serif" font-size="10.00">jdg_offset</text>
<text text-anchor="middle" x="410.5" y="-63" font-family="Helvetica,sans-Serif" font-size="10.00">isgb</text>
<text text-anchor="middle" x="410.5" y="-52" font-family="Helvetica,sans-Serif" font-size="10.00">ieg</text>
<text text-anchor="middle" x="410.5" y="-41" font-family="Helvetica,sans-Serif" font-size="10.00">...</text>
</g>
<!-- Node7 -->
<g id="node7" class="node"><title>Node7</title>
<polygon fill="white" stroke="#bfbfbf" points="424,-177.5 424,-207.5 548,-207.5 548,-177.5 424,-177.5"/>
<text text-anchor="start" x="432" y="-195.5" font-family="Helvetica,sans-Serif" font-size="10.00">type(mom_domain_type)</text>
<text text-anchor="middle" x="486" y="-184.5" font-family="Helvetica,sans-Serif" font-size="10.00">, pointer</text>
</g>
<!-- Node7&#45;&gt;Node1 -->
<g id="edge6" class="edge"><title>Node7&#45;&gt;Node1</title>
<path fill="none" stroke="#9a32cd" stroke-dasharray="5,2" d="M485.522,-167.365C483.447,-133.047 474.26,-70.697 436,-38 420.923,-25.1149 375.612,-18.326 335.7,-14.7792"/>
<polygon fill="#9a32cd" stroke="#9a32cd" points="482.029,-167.615 485.974,-177.448 489.022,-167.302 482.029,-167.615"/>
<text text-anchor="middle" x="511.5" y="-101.5" font-family="Helvetica,sans-Serif" font-size="10.00"> domain</text>
<text text-anchor="middle" x="511.5" y="-90.5" font-family="Helvetica,sans-Serif" font-size="10.00">domain_aux</text>
</g>
</g>
</svg>
        <g id="navigator" transform="translate(0 0)" fill="#404254">
                <rect fill="#f2f5e9" fill-opacity="0.5" stroke="#606060" stroke-width=".5" x="0" y="0" width="60" height="60"/>
                <use id="zoomplus" xlink:href="#zoomPlus" x="17" y="9" onmousedown="handleZoom(evt,'in')"/>
                <use id="zoomminus" xlink:href="#zoomMin" x="42" y="9" onmousedown="handleZoom(evt,'out')"/>
                <use id="reset" xlink:href="#resetDef" x="30" y="36" onmousedown="handleReset()"/>
                <g id="arrowUp" xlink:href="#dirArrow" transform="translate(30 24)" onmousedown="handlePan(0,-1)">
                  <use xlink:href="#rim" fill="#404040">
                        <set attributeName="fill" to="#808080" begin="arrowUp.mouseover" end="arrowUp.mouseout"/>
                  </use>
                  <path fill="none" stroke="white" stroke-width="1.5" d="M0,-3.0v7 M-2.5,-0.5L0,-3.0L2.5,-0.5"/>
                </g>
                <g id="arrowRight" xlink:href="#dirArrow" transform="rotate(90) translate(36 -43)" onmousedown="handlePan(1,0)">
                  <use xlink:href="#rim" fill="#404040">
                        <set attributeName="fill" to="#808080" begin="arrowRight.mouseover" end="arrowRight.mouseout"/>
                  </use>
                  <path fill="none" stroke="white" stroke-width="1.5" d="M0,-3.0v7 M-2.5,-0.5L0,-3.0L2.5,-0.5"/>
                </g>
                <g id="arrowDown" xlink:href="#dirArrow" transform="rotate(180) translate(-30 -48)" onmousedown="handlePan(0,1)">
                  <use xlink:href="#rim" fill="#404040">
                        <set attributeName="fill" to="#808080" begin="arrowDown.mouseover" end="arrowDown.mouseout"/>
                  </use>
                  <path fill="none" stroke="white" stroke-width="1.5" d="M0,-3.0v7 M-2.5,-0.5L0,-3.0L2.5,-0.5"/>
                </g>
                <g id="arrowLeft" xlink:href="#dirArrow" transform="rotate(270) translate(-36 17)" onmousedown="handlePan(-1,0)">
                  <use xlink:href="#rim" fill="#404040">
                        <set attributeName="fill" to="#808080" begin="arrowLeft.mouseover" end="arrowLeft.mouseout"/>
                  </use>
                  <path fill="none" stroke="white" stroke-width="1.5" d="M0,-3.0v7 M-2.5,-0.5L0,-3.0L2.5,-0.5"/>
                </g>
        </g>
        <svg viewBox="0 0 15 15" width="100%" height="30px" preserveAspectRatio="xMaxYMin meet">
         <g id="arrow_out" transform="scale(0.3 0.3)">
          <a xlink:href="structmom__grid_1_1ocean__grid__type__coll__graph_org.svg" target="_base">
           <rect id="button" ry="5" rx="5" y="6" x="6" height="38" width="38"
                fill="#f2f5e9" fill-opacity="0.5" stroke="#606060" stroke-width="1.0"/>
           <path id="arrow"
             d="M 11.500037,31.436501 C 11.940474,20.09759 22.043105,11.32322 32.158766,21.979434 L 37.068811,17.246167 C 37.068811,17.246167 37.088388,32 37.088388,32 L 22.160133,31.978069 C 22.160133,31.978069 26.997745,27.140456 26.997745,27.140456 C 18.528582,18.264221 13.291696,25.230495 11.500037,31.436501 z"
             style="fill:#404040;"/>
          </a>
         </g>
        </svg>
</svg>
