<?xml version="1.0" encoding="UTF-8" standalone="no"?>
<!DOCTYPE svg PUBLIC "-//W3C//DTD SVG 1.1//EN"
 "http://www.w3.org/Graphics/SVG/1.1/DTD/svg11.dtd">
<!-- Generated by graphviz version 2.38.0 (20140413.2041)
 -->
<!-- Title: user_tracer_example::user_tracer_example_cs Pages: 1 -->
<svg width="449pt" height="424pt"
 viewBox="0.00 0.00 449.00 424.00" xmlns="http://www.w3.org/2000/svg" xmlns:xlink="http://www.w3.org/1999/xlink">
<g id="graph0" class="graph" transform="scale(1 1) rotate(0) translate(4 420)">
<title>user_tracer_example::user_tracer_example_cs</title>
<polygon fill="white" stroke="none" points="-4,4 -4,-420 445,-420 445,4 -4,4"/>
<!-- Node1 -->
<g id="node1" class="node"><title>Node1</title>
<polygon fill="#bfbfbf" stroke="black" points="312,-194 312,-224 441,-224 441,-194 312,-194"/>
<text text-anchor="start" x="320" y="-212" font-family="Helvetica,sans-Serif" font-size="10.00">user_tracer_example</text>
<text text-anchor="middle" x="376.5" y="-201" font-family="Helvetica,sans-Serif" font-size="10.00">::user_tracer_example_cs</text>
</g>
<!-- Node2 -->
<g id="node2" class="node"><title>Node2</title>
<polygon fill="white" stroke="#bfbfbf" points="119.5,-387.5 119.5,-406.5 163.5,-406.5 163.5,-387.5 119.5,-387.5"/>
<text text-anchor="middle" x="141.5" y="-394.5" font-family="Helvetica,sans-Serif" font-size="10.00">logical</text>
</g>
<!-- Node2&#45;&gt;Node1 -->
<g id="edge1" class="edge"><title>Node2&#45;&gt;Node1</title>
<path fill="none" stroke="#9a32cd" stroke-dasharray="5,2" d="M173.596,-394.052C206.6,-389.511 258.754,-378.14 294,-350 336.645,-315.953 361.312,-253.102 370.87,-224.229"/>
<polygon fill="#9a32cd" stroke="#9a32cd" points="173.09,-390.588 163.6,-395.299 173.956,-397.534 173.09,-390.588"/>
<text text-anchor="middle" x="259" y="-408" font-family="Helvetica,sans-Serif" font-size="10.00"> use_sponge</text>
<text text-anchor="middle" x="259" y="-397" font-family="Helvetica,sans-Serif" font-size="10.00">coupled_tracers</text>
<text text-anchor="middle" x="259" y="-386" font-family="Helvetica,sans-Serif" font-size="10.00">mask_tracers</text>
</g>
<!-- Node3 -->
<g id="node3" class="node"><title>Node3</title>
<g id="a_node3"><a xlink:href="structuser__tracer__example_1_1p3d.html" target="_top" xlink:title="user_tracer_example::p3d">
<polygon fill="white" stroke="black" points="77,-280.5 77,-299.5 206,-299.5 206,-280.5 77,-280.5"/>
<text text-anchor="middle" x="141.5" y="-287.5" font-family="Helvetica,sans-Serif" font-size="10.00">user_tracer_example::p3d</text>
</a>
</g>
</g>
<!-- Node3&#45;&gt;Node1 -->
<g id="edge2" class="edge"><title>Node3&#45;&gt;Node1</title>
<path fill="none" stroke="#9a32cd" stroke-dasharray="5,2" d="M198.628,-278.125C227.567,-271.268 263.165,-261.681 294,-250 312.959,-242.818 333.334,-232.568 348.969,-224.113"/>
<polygon fill="#9a32cd" stroke="#9a32cd" points="197.636,-274.762 188.688,-280.435 199.221,-281.58 197.636,-274.762"/>
<text text-anchor="middle" x="259" y="-307" font-family="Helvetica,sans-Serif" font-size="10.00"> tr_adx</text>
<text text-anchor="middle" x="259" y="-296" font-family="Helvetica,sans-Serif" font-size="10.00">tr_dfx</text>
<text text-anchor="middle" x="259" y="-285" font-family="Helvetica,sans-Serif" font-size="10.00">tr_ady</text>
<text text-anchor="middle" x="259" y="-274" font-family="Helvetica,sans-Serif" font-size="10.00">tr_dfy</text>
</g>
<!-- Node4 -->
<g id="node4" class="node"><title>Node4</title>
<polygon fill="white" stroke="#bfbfbf" points="0,-308.5 0,-327.5 32,-327.5 32,-308.5 0,-308.5"/>
<text text-anchor="middle" x="16" y="-315.5" font-family="Helvetica,sans-Serif" font-size="10.00">real</text>
</g>
<!-- Node4&#45;&gt;Node1 -->
<g id="edge10" class="edge"><title>Node4&#45;&gt;Node1</title>
<path fill="none" stroke="#9a32cd" stroke-dasharray="5,2" d="M42.0077,-325.299C92.7898,-338.638 210.266,-361.846 294,-319 333.567,-298.754 358.816,-249.392 369.553,-224.253"/>
<polygon fill="#9a32cd" stroke="#9a32cd" points="42.7884,-321.884 32.2198,-322.629 40.9466,-328.637 42.7884,-321.884"/>
<text text-anchor="middle" x="141.5" y="-368" font-family="Helvetica,sans-Serif" font-size="10.00"> tr_aux</text>
<text text-anchor="middle" x="141.5" y="-357" font-family="Helvetica,sans-Serif" font-size="10.00">land_val</text>
<text text-anchor="middle" x="141.5" y="-346" font-family="Helvetica,sans-Serif" font-size="10.00">tr</text>
</g>
<!-- Node4&#45;&gt;Node3 -->
<g id="edge3" class="edge"><title>Node4&#45;&gt;Node3</title>
<path fill="none" stroke="#9a32cd" stroke-dasharray="5,2" d="M41.9318,-312.347C58.1202,-308.677 79.6267,-303.801 98.4192,-299.541"/>
<polygon fill="#9a32cd" stroke="#9a32cd" points="41.1221,-308.942 32.1435,-314.567 42.6699,-315.769 41.1221,-308.942"/>
<text text-anchor="middle" x="54.5" y="-313" font-family="Helvetica,sans-Serif" font-size="10.00"> p</text>
</g>
<!-- Node5 -->
<g id="node5" class="node"><title>Node5</title>
<polygon fill="white" stroke="#bfbfbf" points="112,-239.5 112,-258.5 171,-258.5 171,-239.5 112,-239.5"/>
<text text-anchor="middle" x="141.5" y="-246.5" font-family="Helvetica,sans-Serif" font-size="10.00">time_type</text>
</g>
<!-- Node5&#45;&gt;Node1 -->
<g id="edge4" class="edge"><title>Node5&#45;&gt;Node1</title>
<path fill="none" stroke="#9a32cd" stroke-dasharray="5,2" d="M181.051,-242.382C216.617,-236.276 270.091,-227.096 311.966,-219.907"/>
<polygon fill="#9a32cd" stroke="#9a32cd" points="180.334,-238.954 171.07,-244.095 181.518,-245.853 180.334,-238.954"/>
<text text-anchor="middle" x="259" y="-238" font-family="Helvetica,sans-Serif" font-size="10.00"> time</text>
</g>
<!-- Node6 -->
<g id="node6" class="node"><title>Node6</title>
<polygon fill="white" stroke="#bfbfbf" points="90,-201.5 90,-220.5 193,-220.5 193,-201.5 90,-201.5"/>
<text text-anchor="middle" x="141.5" y="-208.5" font-family="Helvetica,sans-Serif" font-size="10.00">tracer_registry_type</text>
</g>
<!-- Node6&#45;&gt;Node1 -->
<g id="edge5" class="edge"><title>Node6&#45;&gt;Node1</title>
<path fill="none" stroke="#9a32cd" stroke-dasharray="5,2" d="M203.456,-210.214C210.385,-210.136 217.345,-210.063 224,-210 252.8,-209.728 284.681,-209.506 311.737,-209.341"/>
<polygon fill="#9a32cd" stroke="#9a32cd" points="203.324,-206.716 193.366,-210.331 203.406,-213.715 203.324,-206.716"/>
<text text-anchor="middle" x="259" y="-213" font-family="Helvetica,sans-Serif" font-size="10.00"> tr_reg</text>
</g>
<!-- Node7 -->
<g id="node7" class="node"><title>Node7</title>
<polygon fill="white" stroke="#bfbfbf" points="92.5,-163.5 92.5,-182.5 190.5,-182.5 190.5,-163.5 92.5,-163.5"/>
<text text-anchor="middle" x="141.5" y="-170.5" font-family="Helvetica,sans-Serif" font-size="10.00">character(len=200)</text>
</g>
<!-- Node7&#45;&gt;Node1 -->
<g id="edge6" class="edge"><title>Node7&#45;&gt;Node1</title>
<path fill="none" stroke="#9a32cd" stroke-dasharray="5,2" d="M200.742,-181.098C228.934,-185.109 263.256,-190.128 294,-195 299.814,-195.921 305.856,-196.907 311.904,-197.912"/>
<polygon fill="#9a32cd" stroke="#9a32cd" points="201.043,-177.606 190.651,-179.668 200.061,-184.536 201.043,-177.606"/>
<text text-anchor="middle" x="259" y="-198" font-family="Helvetica,sans-Serif" font-size="10.00"> tracer_ic_file</text>
</g>
<!-- Node8 -->
<g id="node8" class="node"><title>Node8</title>
<polygon fill="white" stroke="#bfbfbf" points="116,-125.5 116,-144.5 167,-144.5 167,-125.5 116,-125.5"/>
<text text-anchor="middle" x="141.5" y="-132.5" font-family="Helvetica,sans-Serif" font-size="10.00">vardesc</text>
</g>
<!-- Node8&#45;&gt;Node1 -->
<g id="edge7" class="edge"><title>Node8&#45;&gt;Node1</title>
<path fill="none" stroke="#9a32cd" stroke-dasharray="5,2" d="M177.023,-140.741C208.131,-146.437 254.855,-156.299 294,-170 312.507,-176.477 332.371,-185.928 347.856,-193.903"/>
<polygon fill="#9a32cd" stroke="#9a32cd" points="177.565,-137.283 167.105,-138.97 176.334,-144.174 177.565,-137.283"/>
<text text-anchor="middle" x="259" y="-173" font-family="Helvetica,sans-Serif" font-size="10.00"> tr_desc</text>
</g>
<!-- Node9 -->
<g id="node9" class="node"><title>Node9</title>
<polygon fill="white" stroke="#bfbfbf" points="115,-87.5 115,-106.5 168,-106.5 168,-87.5 115,-87.5"/>
<text text-anchor="middle" x="141.5" y="-94.5" font-family="Helvetica,sans-Serif" font-size="10.00">diag_ctrl</text>
</g>
<!-- Node9&#45;&gt;Node1 -->
<g id="edge8" class="edge"><title>Node9&#45;&gt;Node1</title>
<path fill="none" stroke="#9a32cd" stroke-dasharray="5,2" d="M178.431,-101.323C210.288,-106.273 257.315,-116.376 294,-136 321.804,-150.873 347.818,-177.152 362.673,-193.791"/>
<polygon fill="#9a32cd" stroke="#9a32cd" points="178.646,-97.8176 168.245,-99.8358 177.635,-104.744 178.646,-97.8176"/>
<text text-anchor="middle" x="259" y="-139" font-family="Helvetica,sans-Serif" font-size="10.00"> diag</text>
</g>
<!-- Node10 -->
<g id="node10" class="node"><title>Node10</title>
<polygon fill="white" stroke="#bfbfbf" points="118.5,-0.5 118.5,-19.5 164.5,-19.5 164.5,-0.5 118.5,-0.5"/>
<text text-anchor="middle" x="141.5" y="-7.5" font-family="Helvetica,sans-Serif" font-size="10.00">integer</text>
</g>
<!-- Node10&#45;&gt;Node1 -->
<g id="edge9" class="edge"><title>Node10&#45;&gt;Node1</title>
<path fill="none" stroke="#9a32cd" stroke-dasharray="5,2" d="M174.627,-8.67466C207.84,-8.96359 259.565,-14.2482 294,-41 345.072,-80.6766 366.039,-160.541 372.806,-193.86"/>
<polygon fill="#9a32cd" stroke="#9a32cd" points="174.518,-5.17516 164.539,-8.73551 174.56,-12.175 174.518,-5.17516"/>
<text text-anchor="middle" x="259" y="-99" font-family="Helvetica,sans-Serif" font-size="10.00"> id_tracer</text>
<text text-anchor="middle" x="259" y="-88" font-family="Helvetica,sans-Serif" font-size="10.00">id_tr_dfx</text>
<text text-anchor="middle" x="259" y="-77" font-family="Helvetica,sans-Serif" font-size="10.00">id_tr_dfy</text>
<text text-anchor="middle" x="259" y="-66" font-family="Helvetica,sans-Serif" font-size="10.00">id_tr_adx</text>
<text text-anchor="middle" x="259" y="-55" font-family="Helvetica,sans-Serif" font-size="10.00">ind_tr</text>
<text text-anchor="middle" x="259" y="-44" font-family="Helvetica,sans-Serif" font-size="10.00">id_tr_ady</text>
</g>
</g>
</svg>
