<?xml version="1.0" encoding="UTF-8" standalone="no"?>
<!DOCTYPE svg PUBLIC "-//W3C//DTD SVG 1.1//EN"
 "http://www.w3.org/Graphics/SVG/1.1/DTD/svg11.dtd">
<!-- Generated by graphviz version 2.38.0 (20140413.2041)
 -->
<!-- Title: mom_dynamics_split_rk2::mom_dyn_split_rk2_cs Pages: 1 -->
<svg width="351pt" height="1082pt"
 viewBox="0.00 0.00 351.00 1082.24" xmlns="http://www.w3.org/2000/svg" xmlns:xlink="http://www.w3.org/1999/xlink">
<g id="graph0" class="graph" transform="scale(1 1) rotate(0) translate(4 1078.24)">
<title>mom_dynamics_split_rk2::mom_dyn_split_rk2_cs</title>
<polygon fill="white" stroke="none" points="-4,4 -4,-1078.24 347,-1078.24 347,4 -4,4"/>
<!-- Node1 -->
<g id="node1" class="node"><title>Node1</title>
<polygon fill="#bfbfbf" stroke="black" points="234,-621.742 234,-662.742 343,-662.742 343,-621.742 234,-621.742"/>
<text text-anchor="start" x="242" y="-650.742" font-family="Helvetica,sans-Serif" font-size="10.00">mom_dynamics_split</text>
<text text-anchor="start" x="242" y="-639.742" font-family="Helvetica,sans-Serif" font-size="10.00">_rk2::mom_dyn_split</text>
<text text-anchor="middle" x="288.5" y="-628.742" font-family="Helvetica,sans-Serif" font-size="10.00">_rk2_cs</text>
</g>
<!-- Node2 -->
<g id="node2" class="node"><title>Node2</title>
<polygon fill="white" stroke="#bfbfbf" points="1,-1046.74 1,-1065.74 106,-1065.74 106,-1046.74 1,-1046.74"/>
<text text-anchor="middle" x="53.5" y="-1053.74" font-family="Helvetica,sans-Serif" font-size="10.00">type(ale_cs), pointer</text>
</g>
<!-- Node2&#45;&gt;Node1 -->
<g id="edge1" class="edge"><title>Node2&#45;&gt;Node1</title>
<path fill="none" stroke="#9a32cd" stroke-dasharray="5,2" d="M116.507,-1064.03C150.152,-1064.67 190.048,-1059.05 216,-1034.24 270.318,-982.316 283.937,-736.212 286.815,-662.898"/>
<polygon fill="#9a32cd" stroke="#9a32cd" points="116.414,-1060.53 106.289,-1063.65 116.15,-1067.52 116.414,-1060.53"/>
<text text-anchor="middle" x="170.5" y="-1066.24" font-family="Helvetica,sans-Serif" font-size="10.00"> ale_csp</text>
</g>
<!-- Node3 -->
<g id="node3" class="node"><title>Node3</title>
<polygon fill="white" stroke="#bfbfbf" points="31.5,-970.742 31.5,-989.742 75.5,-989.742 75.5,-970.742 31.5,-970.742"/>
<text text-anchor="middle" x="53.5" y="-977.742" font-family="Helvetica,sans-Serif" font-size="10.00">logical</text>
</g>
<!-- Node3&#45;&gt;Node1 -->
<g id="edge2" class="edge"><title>Node3&#45;&gt;Node1</title>
<path fill="none" stroke="#9a32cd" stroke-dasharray="5,2" d="M85.8295,-979.668C127.371,-978.242 197.588,-973.298 216,-956.242 259.578,-915.871 280.075,-726.166 285.783,-662.862"/>
<polygon fill="#9a32cd" stroke="#9a32cd" points="85.5789,-976.174 75.6861,-979.967 85.7847,-983.171 85.5789,-976.174"/>
<text text-anchor="middle" x="170.5" y="-1024.24" font-family="Helvetica,sans-Serif" font-size="10.00"> calc_dtbt</text>
<text text-anchor="middle" x="170.5" y="-1013.24" font-family="Helvetica,sans-Serif" font-size="10.00">bt_use_layer_fluxes</text>
<text text-anchor="middle" x="170.5" y="-1002.24" font-family="Helvetica,sans-Serif" font-size="10.00">split_bottom_stress</text>
<text text-anchor="middle" x="170.5" y="-991.242" font-family="Helvetica,sans-Serif" font-size="10.00">debug</text>
<text text-anchor="middle" x="170.5" y="-980.242" font-family="Helvetica,sans-Serif" font-size="10.00">module_is_initialized</text>
</g>
<!-- Node4 -->
<g id="node4" class="node"><title>Node4</title>
<polygon fill="white" stroke="#bfbfbf" points="9.5,-932.742 9.5,-951.742 97.5,-951.742 97.5,-932.742 9.5,-932.742"/>
<text text-anchor="middle" x="53.5" y="-939.742" font-family="Helvetica,sans-Serif" font-size="10.00">ocean_obc_type</text>
</g>
<!-- Node4&#45;&gt;Node1 -->
<g id="edge3" class="edge"><title>Node4&#45;&gt;Node1</title>
<path fill="none" stroke="#9a32cd" stroke-dasharray="5,2" d="M107.87,-945.669C142.869,-944.959 187.299,-937.997 216,-911.242 252.849,-876.891 277.103,-720.057 284.835,-663.04"/>
<polygon fill="#9a32cd" stroke="#9a32cd" points="107.791,-942.17 97.8049,-945.71 107.819,-949.17 107.791,-942.17"/>
<text text-anchor="middle" x="170.5" y="-947.242" font-family="Helvetica,sans-Serif" font-size="10.00"> obc</text>
</g>
<!-- Node5 -->
<g id="node5" class="node"><title>Node5</title>
<polygon fill="white" stroke="#bfbfbf" points="3.5,-883.242 3.5,-913.242 103.5,-913.242 103.5,-883.242 3.5,-883.242"/>
<text text-anchor="start" x="11.5" y="-901.242" font-family="Helvetica,sans-Serif" font-size="10.00">type(barotropic_cs)</text>
<text text-anchor="middle" x="53.5" y="-890.242" font-family="Helvetica,sans-Serif" font-size="10.00">, pointer</text>
</g>
<!-- Node5&#45;&gt;Node1 -->
<g id="edge4" class="edge"><title>Node5&#45;&gt;Node1</title>
<path fill="none" stroke="#9a32cd" stroke-dasharray="5,2" d="M113.966,-898.446C147.72,-895.488 188.574,-886.295 216,-861.242 274.321,-807.965 285.211,-706.547 287.142,-662.977"/>
<polygon fill="#9a32cd" stroke="#9a32cd" points="113.467,-894.972 103.741,-899.174 113.965,-901.955 113.467,-894.972"/>
<text text-anchor="middle" x="170.5" y="-899.242" font-family="Helvetica,sans-Serif" font-size="10.00"> barotropic_csp</text>
</g>
<!-- Node6 -->
<g id="node6" class="node"><title>Node6</title>
<polygon fill="white" stroke="#bfbfbf" points="5,-834.242 5,-864.242 102,-864.242 102,-834.242 5,-834.242"/>
<text text-anchor="start" x="13" y="-852.242" font-family="Helvetica,sans-Serif" font-size="10.00">type(set_visc_cs),</text>
<text text-anchor="middle" x="53.5" y="-841.242" font-family="Helvetica,sans-Serif" font-size="10.00"> pointer</text>
</g>
<!-- Node6&#45;&gt;Node1 -->
<g id="edge5" class="edge"><title>Node6&#45;&gt;Node1</title>
<path fill="none" stroke="#9a32cd" stroke-dasharray="5,2" d="M112.522,-848.239C146.151,-844.817 187.37,-835.397 216,-811.242 262.021,-772.414 279.061,-698.803 284.828,-662.931"/>
<polygon fill="#9a32cd" stroke="#9a32cd" points="112.013,-844.77 102.351,-849.118 112.616,-851.744 112.013,-844.77"/>
<text text-anchor="middle" x="170.5" y="-849.242" font-family="Helvetica,sans-Serif" font-size="10.00"> set_visc_csp</text>
</g>
<!-- Node7 -->
<g id="node7" class="node"><title>Node7</title>
<polygon fill="white" stroke="#bfbfbf" points="6,-785.242 6,-815.242 101,-815.242 101,-785.242 6,-785.242"/>
<text text-anchor="start" x="14" y="-803.242" font-family="Helvetica,sans-Serif" font-size="10.00">type(vertvisc_cs),</text>
<text text-anchor="middle" x="53.5" y="-792.242" font-family="Helvetica,sans-Serif" font-size="10.00"> pointer</text>
</g>
<!-- Node7&#45;&gt;Node1 -->
<g id="edge6" class="edge"><title>Node7&#45;&gt;Node1</title>
<path fill="none" stroke="#9a32cd" stroke-dasharray="5,2" d="M111.369,-797.773C144.589,-793.831 185.783,-784.379 216,-762.242 250.235,-737.161 271.077,-690.294 280.838,-663.147"/>
<polygon fill="#9a32cd" stroke="#9a32cd" points="110.916,-794.302 101.337,-798.828 111.648,-801.263 110.916,-794.302"/>
<text text-anchor="middle" x="170.5" y="-799.242" font-family="Helvetica,sans-Serif" font-size="10.00"> vertvisc_csp</text>
</g>
<!-- Node8 -->
<g id="node8" class="node"><title>Node8</title>
<polygon fill="white" stroke="#bfbfbf" points="13.5,-746.742 13.5,-765.742 93.5,-765.742 93.5,-746.742 13.5,-746.742"/>
<text text-anchor="middle" x="53.5" y="-753.742" font-family="Helvetica,sans-Serif" font-size="10.00">cont_diag_ptrs</text>
</g>
<!-- Node8&#45;&gt;Node1 -->
<g id="edge7" class="edge"><title>Node8&#45;&gt;Node1</title>
<path fill="none" stroke="#9a32cd" stroke-dasharray="5,2" d="M103.605,-750.854C137.043,-745.542 181.349,-735.182 216,-715.242 238.91,-702.057 259.373,-679.491 272.476,-662.93"/>
<polygon fill="#9a32cd" stroke="#9a32cd" points="102.974,-747.409 93.5997,-752.345 104.006,-754.333 102.974,-747.409"/>
<text text-anchor="middle" x="170.5" y="-750.242" font-family="Helvetica,sans-Serif" font-size="10.00"> cdp</text>
</g>
<!-- Node9 -->
<g id="node9" class="node"><title>Node9</title>
<polygon fill="white" stroke="#bfbfbf" points="5,-697.242 5,-727.242 102,-727.242 102,-697.242 5,-697.242"/>
<text text-anchor="start" x="13" y="-715.242" font-family="Helvetica,sans-Serif" font-size="10.00">type(hor_visc_cs),</text>
<text text-anchor="middle" x="53.5" y="-704.242" font-family="Helvetica,sans-Serif" font-size="10.00"> pointer</text>
</g>
<!-- Node9&#45;&gt;Node1 -->
<g id="edge8" class="edge"><title>Node9&#45;&gt;Node1</title>
<path fill="none" stroke="#9a32cd" stroke-dasharray="5,2" d="M112.116,-702.658C143.331,-696.657 182.3,-687.845 216,-676.242 226.787,-672.527 238.095,-667.648 248.453,-662.749"/>
<polygon fill="#9a32cd" stroke="#9a32cd" points="111.452,-699.221 102.27,-704.508 112.744,-706.101 111.452,-699.221"/>
<text text-anchor="middle" x="170.5" y="-703.242" font-family="Helvetica,sans-Serif" font-size="10.00"> hor_visc_csp</text>
</g>
<!-- Node10 -->
<g id="node10" class="node"><title>Node10</title>
<polygon fill="white" stroke="#bfbfbf" points="4,-648.242 4,-678.242 103,-678.242 103,-648.242 4,-648.242"/>
<text text-anchor="start" x="12" y="-666.242" font-family="Helvetica,sans-Serif" font-size="10.00">type(continuity_cs)</text>
<text text-anchor="middle" x="53.5" y="-655.242" font-family="Helvetica,sans-Serif" font-size="10.00">, pointer</text>
</g>
<!-- Node10&#45;&gt;Node1 -->
<g id="edge9" class="edge"><title>Node10&#45;&gt;Node1</title>
<path fill="none" stroke="#9a32cd" stroke-dasharray="5,2" d="M113.135,-661.536C143.841,-660.248 182.024,-658.028 216,-654.242 221.754,-653.6 227.749,-652.802 233.713,-651.924"/>
<polygon fill="#9a32cd" stroke="#9a32cd" points="112.878,-658.043 103.025,-661.938 113.156,-665.038 112.878,-658.043"/>
<text text-anchor="middle" x="170.5" y="-664.242" font-family="Helvetica,sans-Serif" font-size="10.00"> continuity_csp</text>
</g>
<!-- Node11 -->
<g id="node11" class="node"><title>Node11</title>
<polygon fill="white" stroke="#bfbfbf" points="3,-599.242 3,-629.242 104,-629.242 104,-599.242 3,-599.242"/>
<text text-anchor="start" x="11" y="-617.242" font-family="Helvetica,sans-Serif" font-size="10.00">type(bt_cont_type),</text>
<text text-anchor="middle" x="53.5" y="-606.242" font-family="Helvetica,sans-Serif" font-size="10.00"> pointer</text>
</g>
<!-- Node11&#45;&gt;Node1 -->
<g id="edge10" class="edge"><title>Node11&#45;&gt;Node1</title>
<path fill="none" stroke="#9a32cd" stroke-dasharray="5,2" d="M114.32,-621.43C151.21,-625.863 198.126,-631.501 233.818,-635.791"/>
<polygon fill="#9a32cd" stroke="#9a32cd" points="114.545,-617.932 104.199,-620.214 113.709,-624.882 114.545,-617.932"/>
<text text-anchor="middle" x="170.5" y="-636.242" font-family="Helvetica,sans-Serif" font-size="10.00"> bt_cont</text>
</g>
<!-- Node12 -->
<g id="node12" class="node"><title>Node12</title>
<polygon fill="white" stroke="#bfbfbf" points="0,-550.242 0,-580.242 107,-580.242 107,-550.242 0,-550.242"/>
<text text-anchor="start" x="8" y="-568.242" font-family="Helvetica,sans-Serif" font-size="10.00">type(update_obc_cs)</text>
<text text-anchor="middle" x="53.5" y="-557.242" font-family="Helvetica,sans-Serif" font-size="10.00">, pointer</text>
</g>
<!-- Node12&#45;&gt;Node1 -->
<g id="edge11" class="edge"><title>Node12&#45;&gt;Node1</title>
<path fill="none" stroke="#9a32cd" stroke-dasharray="5,2" d="M113.984,-583.152C117.707,-584.214 121.402,-585.252 125,-586.242 165.221,-597.31 176.672,-595.33 216,-609.242 226.053,-612.798 236.618,-617.25 246.449,-621.723"/>
<polygon fill="#9a32cd" stroke="#9a32cd" points="114.689,-579.713 104.111,-580.304 112.749,-586.439 114.689,-579.713"/>
<text text-anchor="middle" x="170.5" y="-612.242" font-family="Helvetica,sans-Serif" font-size="10.00"> update_obc_csp</text>
</g>
<!-- Node13 -->
<g id="node13" class="node"><title>Node13</title>
<polygon fill="white" stroke="#bfbfbf" points="8,-511.742 8,-530.742 99,-530.742 99,-511.742 8,-511.742"/>
<text text-anchor="middle" x="53.5" y="-518.742" font-family="Helvetica,sans-Serif" font-size="10.00">group_pass_type</text>
</g>
<!-- Node13&#45;&gt;Node1 -->
<g id="edge12" class="edge"><title>Node13&#45;&gt;Node1</title>
<path fill="none" stroke="#9a32cd" stroke-dasharray="5,2" d="M99.1629,-509.531C107.684,-507.746 116.573,-506.186 125,-505.242 165.193,-500.738 181.413,-484.278 216,-505.242 258.102,-530.759 276.583,-590.085 283.675,-621.641"/>
<polygon fill="#9a32cd" stroke="#9a32cd" points="98.3811,-506.12 89.3794,-511.707 99.9008,-512.953 98.3811,-506.12"/>
<text text-anchor="middle" x="170.5" y="-574.242" font-family="Helvetica,sans-Serif" font-size="10.00"> pass_uv</text>
<text text-anchor="middle" x="170.5" y="-563.242" font-family="Helvetica,sans-Serif" font-size="10.00">pass_uvp</text>
<text text-anchor="middle" x="170.5" y="-552.242" font-family="Helvetica,sans-Serif" font-size="10.00">pass_eta</text>
<text text-anchor="middle" x="170.5" y="-541.242" font-family="Helvetica,sans-Serif" font-size="10.00">pass_hp_uv</text>
<text text-anchor="middle" x="170.5" y="-530.242" font-family="Helvetica,sans-Serif" font-size="10.00">pass_h</text>
<text text-anchor="middle" x="170.5" y="-519.242" font-family="Helvetica,sans-Serif" font-size="10.00">pass_visc_rem</text>
<text text-anchor="middle" x="170.5" y="-508.242" font-family="Helvetica,sans-Serif" font-size="10.00">pass_av_uvh</text>
</g>
<!-- Node14 -->
<g id="node14" class="node"><title>Node14</title>
<polygon fill="white" stroke="#bfbfbf" points="1.5,-462.242 1.5,-492.242 105.5,-492.242 105.5,-462.242 1.5,-462.242"/>
<text text-anchor="start" x="9.5" y="-480.242" font-family="Helvetica,sans-Serif" font-size="10.00">type(coriolisadv_cs)</text>
<text text-anchor="middle" x="53.5" y="-469.242" font-family="Helvetica,sans-Serif" font-size="10.00">, pointer</text>
</g>
<!-- Node14&#45;&gt;Node1 -->
<g id="edge13" class="edge"><title>Node14&#45;&gt;Node1</title>
<path fill="none" stroke="#9a32cd" stroke-dasharray="5,2" d="M115.883,-463.46C148.204,-459.679 187.028,-460.975 216,-480.242 264.51,-512.502 280.38,-585.769 285.353,-621.657"/>
<polygon fill="#9a32cd" stroke="#9a32cd" points="115.077,-460.037 105.638,-464.85 116.018,-466.974 115.077,-460.037"/>
<text text-anchor="middle" x="170.5" y="-483.242" font-family="Helvetica,sans-Serif" font-size="10.00"> coriolisadv_csp</text>
</g>
<!-- Node15 -->
<g id="node15" class="node"><title>Node15</title>
<polygon fill="white" stroke="#bfbfbf" points="27,-423.742 27,-442.742 80,-442.742 80,-423.742 27,-423.742"/>
<text text-anchor="middle" x="53.5" y="-430.742" font-family="Helvetica,sans-Serif" font-size="10.00">diag_ctrl</text>
</g>
<!-- Node15&#45;&gt;Node1 -->
<g id="edge14" class="edge"><title>Node15&#45;&gt;Node1</title>
<path fill="none" stroke="#9a32cd" stroke-dasharray="5,2" d="M90.0824,-426.19C125.653,-421.268 180.089,-419.776 216,-447.242 271.851,-489.957 284.102,-580.74 286.769,-621.579"/>
<polygon fill="#9a32cd" stroke="#9a32cd" points="89.486,-422.74 80.136,-427.723 90.5525,-429.658 89.486,-422.74"/>
<text text-anchor="middle" x="170.5" y="-450.242" font-family="Helvetica,sans-Serif" font-size="10.00"> diag</text>
</g>
<!-- Node16 -->
<g id="node16" class="node"><title>Node16</title>
<polygon fill="white" stroke="#bfbfbf" points="8,-374.242 8,-404.242 99,-404.242 99,-374.242 8,-374.242"/>
<text text-anchor="start" x="16" y="-392.242" font-family="Helvetica,sans-Serif" font-size="10.00">type(tidal_forcing</text>
<text text-anchor="middle" x="53.5" y="-381.242" font-family="Helvetica,sans-Serif" font-size="10.00">_cs), pointer</text>
</g>
<!-- Node16&#45;&gt;Node1 -->
<g id="edge15" class="edge"><title>Node16&#45;&gt;Node1</title>
<path fill="none" stroke="#9a32cd" stroke-dasharray="5,2" d="M109.374,-381.977C143.739,-380.531 186.874,-384.802 216,-409.242 280.828,-463.638 288.002,-575.252 288.039,-621.48"/>
<polygon fill="#9a32cd" stroke="#9a32cd" points="108.79,-378.506 99.0152,-382.594 109.205,-385.493 108.79,-378.506"/>
<text text-anchor="middle" x="170.5" y="-412.242" font-family="Helvetica,sans-Serif" font-size="10.00"> tides_csp</text>
</g>
<!-- Node17 -->
<g id="node17" class="node"><title>Node17</title>
<polygon fill="white" stroke="#bfbfbf" points="4.5,-325.242 4.5,-355.242 102.5,-355.242 102.5,-325.242 4.5,-325.242"/>
<text text-anchor="start" x="12.5" y="-343.242" font-family="Helvetica,sans-Serif" font-size="10.00">type(pressureforce</text>
<text text-anchor="middle" x="53.5" y="-332.242" font-family="Helvetica,sans-Serif" font-size="10.00">_cs), pointer</text>
</g>
<!-- Node17&#45;&gt;Node1 -->
<g id="edge16" class="edge"><title>Node17&#45;&gt;Node1</title>
<path fill="none" stroke="#9a32cd" stroke-dasharray="5,2" d="M113.036,-346.9C156.044,-352.312 208.282,-360.18 216,-367.242 254.032,-402.041 277.621,-563.312 285.001,-621.356"/>
<polygon fill="#9a32cd" stroke="#9a32cd" points="113.252,-343.4 102.898,-345.648 112.393,-350.348 113.252,-343.4"/>
<text text-anchor="middle" x="170.5" y="-370.242" font-family="Helvetica,sans-Serif" font-size="10.00"> pressureforce_csp</text>
</g>
<!-- Node18 -->
<g id="node18" class="node"><title>Node18</title>
<polygon fill="white" stroke="#bfbfbf" points="30.5,-214.742 30.5,-233.742 76.5,-233.742 76.5,-214.742 30.5,-214.742"/>
<text text-anchor="middle" x="53.5" y="-221.742" font-family="Helvetica,sans-Serif" font-size="10.00">integer</text>
</g>
<!-- Node18&#45;&gt;Node1 -->
<g id="edge17" class="edge"><title>Node18&#45;&gt;Node1</title>
<path fill="none" stroke="#9a32cd" stroke-dasharray="5,2" d="M86.5,-213.297C122.377,-203.252 180.205,-194.05 216,-224.242 277.554,-276.16 286.119,-544.556 287.309,-621.564"/>
<polygon fill="#9a32cd" stroke="#9a32cd" points="85.1432,-210.05 76.5594,-216.26 87.1425,-216.758 85.1432,-210.05"/>
<text text-anchor="middle" x="170.5" y="-337.242" font-family="Helvetica,sans-Serif" font-size="10.00"> id_vh</text>
<text text-anchor="middle" x="170.5" y="-326.242" font-family="Helvetica,sans-Serif" font-size="10.00">id_cau</text>
<text text-anchor="middle" x="170.5" y="-315.242" font-family="Helvetica,sans-Serif" font-size="10.00">id_umo</text>
<text text-anchor="middle" x="170.5" y="-304.242" font-family="Helvetica,sans-Serif" font-size="10.00">id_uh</text>
<text text-anchor="middle" x="170.5" y="-293.242" font-family="Helvetica,sans-Serif" font-size="10.00">id_cav</text>
<text text-anchor="middle" x="170.5" y="-282.242" font-family="Helvetica,sans-Serif" font-size="10.00">id_vmo</text>
<text text-anchor="middle" x="170.5" y="-271.242" font-family="Helvetica,sans-Serif" font-size="10.00">id_uav</text>
<text text-anchor="middle" x="170.5" y="-260.242" font-family="Helvetica,sans-Serif" font-size="10.00">id_vav</text>
<text text-anchor="middle" x="170.5" y="-249.242" font-family="Helvetica,sans-Serif" font-size="10.00">id_v_bt_accel</text>
<text text-anchor="middle" x="170.5" y="-238.242" font-family="Helvetica,sans-Serif" font-size="10.00">id_vmo_2d</text>
<text text-anchor="middle" x="170.5" y="-227.242" font-family="Helvetica,sans-Serif" font-size="10.00">...</text>
</g>
<!-- Node19 -->
<g id="node19" class="node"><title>Node19</title>
<polygon fill="white" stroke="#bfbfbf" points="37.5,-48.7415 37.5,-67.7415 69.5,-67.7415 69.5,-48.7415 37.5,-48.7415"/>
<text text-anchor="middle" x="53.5" y="-55.7415" font-family="Helvetica,sans-Serif" font-size="10.00">real</text>
</g>
<!-- Node19&#45;&gt;Node1 -->
<g id="edge18" class="edge"><title>Node19&#45;&gt;Node1</title>
<path fill="none" stroke="#9a32cd" stroke-dasharray="5,2" d="M79.1668,-49.0525C114.219,-37.7647 178.356,-23.9188 216,-57.2415 259.286,-95.5595 281.869,-522.147 286.568,-621.602"/>
<polygon fill="#9a32cd" stroke="#9a32cd" points="78.0323,-45.7414 69.6901,-52.2726 80.2845,-52.3692 78.0323,-45.7414"/>
<text text-anchor="middle" x="170.5" y="-192.242" font-family="Helvetica,sans-Serif" font-size="10.00"> cau</text>
<text text-anchor="middle" x="170.5" y="-181.242" font-family="Helvetica,sans-Serif" font-size="10.00">cav</text>
<text text-anchor="middle" x="170.5" y="-170.242" font-family="Helvetica,sans-Serif" font-size="10.00">begw</text>
<text text-anchor="middle" x="170.5" y="-159.242" font-family="Helvetica,sans-Serif" font-size="10.00">be</text>
<text text-anchor="middle" x="170.5" y="-148.242" font-family="Helvetica,sans-Serif" font-size="10.00">eta_pf</text>
<text text-anchor="middle" x="170.5" y="-137.242" font-family="Helvetica,sans-Serif" font-size="10.00">vhbt</text>
<text text-anchor="start" x="150.5" y="-126.242" font-family="Helvetica,sans-Serif" font-size="10.00">visc_rem</text>
<text text-anchor="middle" x="170.5" y="-115.242" font-family="Helvetica,sans-Serif" font-size="10.00">_u</text>
<text text-anchor="middle" x="170.5" y="-104.242" font-family="Helvetica,sans-Serif" font-size="10.00">pbce</text>
<text text-anchor="middle" x="170.5" y="-93.2415" font-family="Helvetica,sans-Serif" font-size="10.00">uhbt</text>
<text text-anchor="start" x="150.5" y="-82.2415" font-family="Helvetica,sans-Serif" font-size="10.00">visc_rem</text>
<text text-anchor="middle" x="170.5" y="-71.2415" font-family="Helvetica,sans-Serif" font-size="10.00">_v</text>
<text text-anchor="middle" x="170.5" y="-60.2415" font-family="Helvetica,sans-Serif" font-size="10.00">...</text>
</g>
<!-- Node20 -->
<g id="node20" class="node"><title>Node20</title>
<polygon fill="white" stroke="#bfbfbf" points="11,-10.7415 11,-29.7415 96,-29.7415 96,-10.7415 11,-10.7415"/>
<text text-anchor="middle" x="53.5" y="-17.7415" font-family="Helvetica,sans-Serif" font-size="10.00">accel_diag_ptrs</text>
</g>
<!-- Node20&#45;&gt;Node1 -->
<g id="edge19" class="edge"><title>Node20&#45;&gt;Node1</title>
<path fill="none" stroke="#9a32cd" stroke-dasharray="5,2" d="M92.2006,-8.02798C128.586,1.16239 182.892,7.63775 216,-22.2415 261.599,-63.3932 282.515,-518.06 286.699,-621.421"/>
<polygon fill="#9a32cd" stroke="#9a32cd" points="91.1864,-4.67643 82.4459,-10.6642 93.0127,-11.434 91.1864,-4.67643"/>
<text text-anchor="middle" x="170.5" y="-25.2415" font-family="Helvetica,sans-Serif" font-size="10.00"> adp</text>
</g>
</g>
</svg>
