<?xml version="1.0" encoding="UTF-8" standalone="no"?>
<!DOCTYPE svg PUBLIC "-//W3C//DTD SVG 1.1//EN"
 "http://www.w3.org/Graphics/SVG/1.1/DTD/svg11.dtd">
<!-- Generated by graphviz version 2.38.0 (20140413.2041)
 -->
<!-- Title: mom_barotropic::barotropic_cs Pages: 1 -->
<!--zoomable 803 -->
<svg id="main" version="1.1" xmlns="http://www.w3.org/2000/svg" xmlns:xlink="http://www.w3.org/1999/xlink" xml:space="preserve" onload="init(evt)">
<style type="text/css"><![CDATA[
.edge:hover path { stroke: red; }
.edge:hover polygon { stroke: red; fill: red; }
]]></style>
<script type="text/javascript"><![CDATA[
var edges = document.getElementsByTagName('g');
if (edges && edges.length) {
  for (var i=0;i<edges.length;i++) {
    if (edges[i].id.substr(0,4)=='edge') {
      edges[i].setAttribute('class','edge');
    }
  }
}
]]></script>
        <defs>
                <circle id="rim" cx="0" cy="0" r="7"/>
                <circle id="rim2" cx="0" cy="0" r="3.5"/>
                <g id="zoomPlus">
                        <use xlink:href="#rim" fill="#404040">
                                <set attributeName="fill" to="#808080" begin="zoomplus.mouseover" end="zoomplus.mouseout"/>
                        </use>
                        <path d="M-4,0h8M0,-4v8" fill="none" stroke="white" stroke-width="1.5" pointer-events="none"/>
                </g>
                <g id="zoomMin">
                        <use xlink:href="#rim" fill="#404040">
                                <set attributeName="fill" to="#808080" begin="zoomminus.mouseover" end="zoomminus.mouseout"/>
                        </use>
                        <path d="M-4,0h8" fill="none" stroke="white" stroke-width="1.5" pointer-events="none"/>
                </g>
                <g id="dirArrow">
                        <path fill="none" stroke="white" stroke-width="1.5" d="M0,-3.0v7 M-2.5,-0.5L0,-3.0L2.5,-0.5"/>
                </g>
               <g id="resetDef">
                       <use xlink:href="#rim2" fill="#404040">
                               <set attributeName="fill" to="#808080" begin="reset.mouseover" end="reset.mouseout"/>
                       </use>
               </g>
        </defs>

<script type="text/javascript">
var viewWidth = 541;
var viewHeight = 803;
var sectionId = 'dynsection-0';
</script>
<script xlink:href="svgpan.js"/>
<svg id="graph" class="graph">
<g id="viewport">
<title>mom_barotropic::barotropic_cs</title>
<polygon fill="white" stroke="none" points="-4,4 -4,-798.5 537,-798.5 537,4 -4,4"/>
<!-- Node1 -->
<g id="node1" class="node"><title>Node1</title>
<polygon fill="#bfbfbf" stroke="black" points="382,-316 382,-335 533,-335 533,-316 382,-316"/>
<text text-anchor="middle" x="457.5" y="-323" font-family="Helvetica,sans-Serif" font-size="10.00">mom_barotropic::barotropic_cs</text>
</g>
<!-- Node2 -->
<g id="node2" class="node"><title>Node2</title>
<polygon fill="white" stroke="#bfbfbf" points="1,-612 1,-631 45,-631 45,-612 1,-612"/>
<text text-anchor="middle" x="23" y="-619" font-family="Helvetica,sans-Serif" font-size="10.00">logical</text>
</g>
<!-- Node2&#45;&gt;Node1 -->
<g id="edge1" class="edge"><title>Node2&#45;&gt;Node1</title>
<path fill="none" stroke="#9a32cd" stroke-dasharray="5,2" d="M53.4595,-634.677C56.9564,-635.823 60.5201,-636.808 64,-637.5 194.935,-663.545 263.523,-710.401 364,-622.5 454.642,-543.204 457.558,-376.692 456.804,-335.08"/>
<polygon fill="#9a32cd" stroke="#9a32cd" points="54.4989,-631.33 43.9059,-631.133 52.0643,-637.893 54.4989,-631.33"/>
<text text-anchor="middle" x="208" y="-786.5" font-family="Helvetica,sans-Serif" font-size="10.00"> bound_bt_corr</text>
<text text-anchor="middle" x="208" y="-775.5" font-family="Helvetica,sans-Serif" font-size="10.00">visc_rem_u_uh0</text>
<text text-anchor="middle" x="208" y="-764.5" font-family="Helvetica,sans-Serif" font-size="10.00">use_wide_halos</text>
<text text-anchor="middle" x="208" y="-753.5" font-family="Helvetica,sans-Serif" font-size="10.00">adjust_bt_cont</text>
<text text-anchor="middle" x="208" y="-742.5" font-family="Helvetica,sans-Serif" font-size="10.00">clip_velocity</text>
<text text-anchor="middle" x="208" y="-731.5" font-family="Helvetica,sans-Serif" font-size="10.00">dynamic_psurf</text>
<text text-anchor="middle" x="208" y="-720.5" font-family="Helvetica,sans-Serif" font-size="10.00">sadourny</text>
<text text-anchor="middle" x="208" y="-709.5" font-family="Helvetica,sans-Serif" font-size="10.00">split</text>
<text text-anchor="middle" x="208" y="-698.5" font-family="Helvetica,sans-Serif" font-size="10.00">debug_bt</text>
<text text-anchor="middle" x="208" y="-687.5" font-family="Helvetica,sans-Serif" font-size="10.00">bt_project_velocity</text>
<text text-anchor="middle" x="208" y="-676.5" font-family="Helvetica,sans-Serif" font-size="10.00">...</text>
</g>
<!-- Node5 -->
<g id="node5" class="node"><title>Node5</title>
<g id="a_node5"><a xlink:href="structmom__barotropic_1_1bt__obc__type.html" target="_top" xlink:title="mom_barotropic::bt\l_obc_type">
<polygon fill="white" stroke="black" points="157.5,-522.5 157.5,-552.5 258.5,-552.5 258.5,-522.5 157.5,-522.5"/>
<text text-anchor="start" x="165.5" y="-540.5" font-family="Helvetica,sans-Serif" font-size="10.00">mom_barotropic::bt</text>
<text text-anchor="middle" x="208" y="-529.5" font-family="Helvetica,sans-Serif" font-size="10.00">_obc_type</text>
</a>
</g>
</g>
<!-- Node2&#45;&gt;Node5 -->
<g id="edge5" class="edge"><title>Node2&#45;&gt;Node5</title>
<path fill="none" stroke="#9a32cd" stroke-dasharray="5,2" d="M51.9512,-607.377C76.5316,-595.103 113.376,-577.057 146,-562.5 153.421,-559.189 161.417,-555.791 169.1,-552.61"/>
<polygon fill="#9a32cd" stroke="#9a32cd" points="50.2215,-604.329 42.8494,-611.938 53.3577,-610.587 50.2215,-604.329"/>
<text text-anchor="middle" x="96" y="-625.5" font-family="Helvetica,sans-Serif" font-size="10.00"> apply_v_obcs</text>
<text text-anchor="middle" x="96" y="-614.5" font-family="Helvetica,sans-Serif" font-size="10.00">apply_u_obcs</text>
<text text-anchor="middle" x="96" y="-603.5" font-family="Helvetica,sans-Serif" font-size="10.00">is_alloced</text>
</g>
<!-- Node3 -->
<g id="node3" class="node"><title>Node3</title>
<polygon fill="white" stroke="#bfbfbf" points="166.5,-610 166.5,-629 249.5,-629 249.5,-610 166.5,-610"/>
<text text-anchor="middle" x="208" y="-617" font-family="Helvetica,sans-Serif" font-size="10.00">hor_index_type</text>
</g>
<!-- Node3&#45;&gt;Node1 -->
<g id="edge2" class="edge"><title>Node3&#45;&gt;Node1</title>
<path fill="none" stroke="#9a32cd" stroke-dasharray="5,2" d="M259.651,-614.59C293.127,-608.857 335.862,-596.431 364,-569.5 435.674,-500.899 452.412,-371.104 455.753,-335.019"/>
<polygon fill="#9a32cd" stroke="#9a32cd" points="258.926,-611.16 249.586,-616.162 260.006,-618.076 258.926,-611.16"/>
<text text-anchor="middle" x="326" y="-610.5" font-family="Helvetica,sans-Serif" font-size="10.00"> debug_bt_hi</text>
</g>
<!-- Node4 -->
<g id="node4" class="node"><title>Node4</title>
<polygon fill="white" stroke="#bfbfbf" points="178.5,-572 178.5,-591 237.5,-591 237.5,-572 178.5,-572"/>
<text text-anchor="middle" x="208" y="-579" font-family="Helvetica,sans-Serif" font-size="10.00">time_type</text>
</g>
<!-- Node4&#45;&gt;Node1 -->
<g id="edge3" class="edge"><title>Node4&#45;&gt;Node1</title>
<path fill="none" stroke="#9a32cd" stroke-dasharray="5,2" d="M247.362,-571.457C281.954,-560.621 332.144,-540.224 364,-506.5 415.131,-452.371 444.814,-364.51 453.67,-335.294"/>
<polygon fill="#9a32cd" stroke="#9a32cd" points="246.176,-568.159 237.607,-574.39 248.192,-574.862 246.176,-568.159"/>
<text text-anchor="middle" x="326" y="-557.5" font-family="Helvetica,sans-Serif" font-size="10.00"> time</text>
</g>
<!-- Node5&#45;&gt;Node1 -->
<g id="edge4" class="edge"><title>Node5&#45;&gt;Node1</title>
<path fill="none" stroke="#9a32cd" stroke-dasharray="5,2" d="M253.552,-517.662C259.251,-514.53 264.877,-511.12 270,-507.5 347.961,-452.414 424.104,-364.495 448.465,-335.288"/>
<polygon fill="#9a32cd" stroke="#9a32cd" points="251.839,-514.608 244.599,-522.343 255.082,-520.811 251.839,-514.608"/>
<text text-anchor="middle" x="326" y="-494.5" font-family="Helvetica,sans-Serif" font-size="10.00"> bt_obc</text>
</g>
<!-- Node6 -->
<g id="node6" class="node"><title>Node6</title>
<polygon fill="white" stroke="#bfbfbf" points="0,-404 0,-423 46,-423 46,-404 0,-404"/>
<text text-anchor="middle" x="23" y="-411" font-family="Helvetica,sans-Serif" font-size="10.00">integer</text>
</g>
<!-- Node6&#45;&gt;Node1 -->
<g id="edge11" class="edge"><title>Node6&#45;&gt;Node1</title>
<path fill="none" stroke="#9a32cd" stroke-dasharray="5,2" d="M56.1709,-403.959C80.6579,-396.901 115.271,-387.363 146,-380.5 230.952,-361.526 330.155,-344.905 393.136,-335.033"/>
<polygon fill="#9a32cd" stroke="#9a32cd" points="54.9632,-400.665 46.3372,-406.816 56.9167,-407.387 54.9632,-400.665"/>
<text text-anchor="middle" x="208" y="-504.5" font-family="Helvetica,sans-Serif" font-size="10.00"> id_gtotn</text>
<text text-anchor="middle" x="208" y="-493.5" font-family="Helvetica,sans-Serif" font-size="10.00">id_ubt_hifreq</text>
<text text-anchor="middle" x="208" y="-482.5" font-family="Helvetica,sans-Serif" font-size="10.00">id_vbt_st</text>
<text text-anchor="middle" x="208" y="-471.5" font-family="Helvetica,sans-Serif" font-size="10.00">id_ubtav</text>
<text text-anchor="start" x="165.5" y="-460.5" font-family="Helvetica,sans-Serif" font-size="10.00">nonlin_cont_update</text>
<text text-anchor="middle" x="208" y="-449.5" font-family="Helvetica,sans-Serif" font-size="10.00">_period</text>
<text text-anchor="middle" x="208" y="-438.5" font-family="Helvetica,sans-Serif" font-size="10.00">id_btc_ubt_ee</text>
<text text-anchor="middle" x="208" y="-427.5" font-family="Helvetica,sans-Serif" font-size="10.00">id_ubt_st</text>
<text text-anchor="middle" x="208" y="-416.5" font-family="Helvetica,sans-Serif" font-size="10.00">id_vbtav</text>
<text text-anchor="middle" x="208" y="-405.5" font-family="Helvetica,sans-Serif" font-size="10.00">id_ubt</text>
<text text-anchor="middle" x="208" y="-394.5" font-family="Helvetica,sans-Serif" font-size="10.00">id_vhbt</text>
<text text-anchor="middle" x="208" y="-383.5" font-family="Helvetica,sans-Serif" font-size="10.00">...</text>
</g>
<!-- Node6&#45;&gt;Node5 -->
<g id="edge6" class="edge"><title>Node6&#45;&gt;Node5</title>
<path fill="none" stroke="#9a32cd" stroke-dasharray="5,2" d="M53.5875,-427.786C75.8282,-439.526 106.105,-457.733 128,-479.5 138.492,-489.93 134.959,-497.653 146,-507.5 152.518,-513.313 160.365,-518.272 168.227,-522.385"/>
<polygon fill="#9a32cd" stroke="#9a32cd" points="55.089,-424.623 44.5956,-423.16 51.8862,-430.847 55.089,-424.623"/>
<text text-anchor="middle" x="96" y="-559.5" font-family="Helvetica,sans-Serif" font-size="10.00"> js_u_obc</text>
<text text-anchor="middle" x="96" y="-548.5" font-family="Helvetica,sans-Serif" font-size="10.00">js_v_obc</text>
<text text-anchor="middle" x="96" y="-537.5" font-family="Helvetica,sans-Serif" font-size="10.00">is_u_obc</text>
<text text-anchor="middle" x="96" y="-526.5" font-family="Helvetica,sans-Serif" font-size="10.00">is_v_obc</text>
<text text-anchor="middle" x="96" y="-515.5" font-family="Helvetica,sans-Serif" font-size="10.00">je_u_obc</text>
<text text-anchor="middle" x="96" y="-504.5" font-family="Helvetica,sans-Serif" font-size="10.00">je_v_obc</text>
<text text-anchor="middle" x="96" y="-493.5" font-family="Helvetica,sans-Serif" font-size="10.00">ie_u_obc</text>
<text text-anchor="middle" x="96" y="-482.5" font-family="Helvetica,sans-Serif" font-size="10.00">ie_v_obc</text>
</g>
<!-- Node7 -->
<g id="node7" class="node"><title>Node7</title>
<polygon fill="white" stroke="#bfbfbf" points="7,-202 7,-221 39,-221 39,-202 7,-202"/>
<text text-anchor="middle" x="23" y="-209" font-family="Helvetica,sans-Serif" font-size="10.00">real</text>
</g>
<!-- Node7&#45;&gt;Node1 -->
<g id="edge12" class="edge"><title>Node7&#45;&gt;Node1</title>
<path fill="none" stroke="#9a32cd" stroke-dasharray="5,2" d="M48.7004,-202.533C96.597,-186.865 203.245,-160.576 270,-209.5 291.428,-225.204 269.507,-247.426 288,-266.5 313.998,-293.315 352.855,-307.958 386.704,-315.947"/>
<polygon fill="#9a32cd" stroke="#9a32cd" points="47.4892,-199.248 39.145,-205.777 49.7393,-205.877 47.4892,-199.248"/>
<text text-anchor="middle" x="208" y="-344.5" font-family="Helvetica,sans-Serif" font-size="10.00"> dtbt</text>
<text text-anchor="middle" x="208" y="-333.5" font-family="Helvetica,sans-Serif" font-size="10.00">dmin_dyn_psurf</text>
<text text-anchor="middle" x="208" y="-322.5" font-family="Helvetica,sans-Serif" font-size="10.00">idatu</text>
<text text-anchor="middle" x="208" y="-311.5" font-family="Helvetica,sans-Serif" font-size="10.00">idatv</text>
<text text-anchor="middle" x="208" y="-300.5" font-family="Helvetica,sans-Serif" font-size="10.00">g_extra</text>
<text text-anchor="middle" x="208" y="-289.5" font-family="Helvetica,sans-Serif" font-size="10.00">ubtav</text>
<text text-anchor="start" x="173" y="-278.5" font-family="Helvetica,sans-Serif" font-size="10.00">allocable</text>
<text text-anchor="middle" x="208" y="-267.5" font-family="Helvetica,sans-Serif" font-size="10.00">_</text>
<text text-anchor="start" x="173" y="-256.5" font-family="Helvetica,sans-Serif" font-size="10.00">maxcfl_bt</text>
<text text-anchor="middle" x="208" y="-245.5" font-family="Helvetica,sans-Serif" font-size="10.00">_cont</text>
<text text-anchor="middle" x="208" y="-234.5" font-family="Helvetica,sans-Serif" font-size="10.00">bebt</text>
<text text-anchor="middle" x="208" y="-223.5" font-family="Helvetica,sans-Serif" font-size="10.00">dtbt_fraction</text>
<text text-anchor="middle" x="208" y="-212.5" font-family="Helvetica,sans-Serif" font-size="10.00">...</text>
</g>
<!-- Node7&#45;&gt;Node5 -->
<g id="edge7" class="edge"><title>Node7&#45;&gt;Node5</title>
<path fill="none" stroke="#9a32cd" stroke-dasharray="5,2" d="M47.8002,-226.025C72.5805,-242.596 110.211,-272.159 128,-308.5 147.522,-348.381 120.856,-470.902 146,-507.5 150.143,-513.531 155.858,-518.4 162.139,-522.317"/>
<polygon fill="#9a32cd" stroke="#9a32cd" points="49.6068,-223.026 39.3125,-220.52 45.7973,-228.898 49.6068,-223.026"/>
<text text-anchor="middle" x="96" y="-421.5" font-family="Helvetica,sans-Serif" font-size="10.00"> eta_outer_u</text>
<text text-anchor="middle" x="96" y="-410.5" font-family="Helvetica,sans-Serif" font-size="10.00">vbt_outer</text>
<text text-anchor="middle" x="96" y="-399.5" font-family="Helvetica,sans-Serif" font-size="10.00">eta_outer_v</text>
<text text-anchor="middle" x="96" y="-388.5" font-family="Helvetica,sans-Serif" font-size="10.00">vhbt</text>
<text text-anchor="middle" x="96" y="-377.5" font-family="Helvetica,sans-Serif" font-size="10.00">uhbt</text>
<text text-anchor="middle" x="96" y="-366.5" font-family="Helvetica,sans-Serif" font-size="10.00">h_u</text>
<text text-anchor="middle" x="96" y="-355.5" font-family="Helvetica,sans-Serif" font-size="10.00">h_v</text>
<text text-anchor="middle" x="96" y="-344.5" font-family="Helvetica,sans-Serif" font-size="10.00">cg_u</text>
<text text-anchor="middle" x="96" y="-333.5" font-family="Helvetica,sans-Serif" font-size="10.00">cg_v</text>
<text text-anchor="middle" x="96" y="-322.5" font-family="Helvetica,sans-Serif" font-size="10.00">ubt_outer</text>
<text text-anchor="middle" x="96" y="-311.5" font-family="Helvetica,sans-Serif" font-size="10.00">...</text>
</g>
<!-- Node8 -->
<g id="node8" class="node"><title>Node8</title>
<polygon fill="white" stroke="#bfbfbf" points="162.5,-137 162.5,-156 253.5,-156 253.5,-137 162.5,-137"/>
<text text-anchor="middle" x="208" y="-144" font-family="Helvetica,sans-Serif" font-size="10.00">group_pass_type</text>
</g>
<!-- Node8&#45;&gt;Node1 -->
<g id="edge8" class="edge"><title>Node8&#45;&gt;Node1</title>
<path fill="none" stroke="#9a32cd" stroke-dasharray="5,2" d="M251.441,-134.815C284.541,-128.249 330.383,-124.979 364,-145.5 428.177,-184.675 449.696,-284.137 455.03,-315.718"/>
<polygon fill="#9a32cd" stroke="#9a32cd" points="250.643,-131.406 241.606,-136.935 252.119,-138.249 250.643,-131.406"/>
<text text-anchor="middle" x="326" y="-258.5" font-family="Helvetica,sans-Serif" font-size="10.00"> pass_dat_uv</text>
<text text-anchor="middle" x="326" y="-247.5" font-family="Helvetica,sans-Serif" font-size="10.00">pass_gtot</text>
<text text-anchor="middle" x="326" y="-236.5" font-family="Helvetica,sans-Serif" font-size="10.00">pass_ubt_cor</text>
<text text-anchor="middle" x="326" y="-225.5" font-family="Helvetica,sans-Serif" font-size="10.00">pass_etaav</text>
<text text-anchor="middle" x="326" y="-214.5" font-family="Helvetica,sans-Serif" font-size="10.00">pass_ubta_uhbta</text>
<text text-anchor="middle" x="326" y="-203.5" font-family="Helvetica,sans-Serif" font-size="10.00">pass_tmp_uv</text>
<text text-anchor="middle" x="326" y="-192.5" font-family="Helvetica,sans-Serif" font-size="10.00">pass_e_anom</text>
<text text-anchor="middle" x="326" y="-181.5" font-family="Helvetica,sans-Serif" font-size="10.00">pass_eta_bt_rem</text>
<text text-anchor="middle" x="326" y="-170.5" font-family="Helvetica,sans-Serif" font-size="10.00">pass_eta_ubt</text>
<text text-anchor="middle" x="326" y="-159.5" font-family="Helvetica,sans-Serif" font-size="10.00">pass_q_dcor</text>
<text text-anchor="middle" x="326" y="-148.5" font-family="Helvetica,sans-Serif" font-size="10.00">...</text>
</g>
<!-- Node9 -->
<g id="node9" class="node"><title>Node9</title>
<polygon fill="white" stroke="#bfbfbf" points="181.5,-99 181.5,-118 234.5,-118 234.5,-99 181.5,-99"/>
<text text-anchor="middle" x="208" y="-106" font-family="Helvetica,sans-Serif" font-size="10.00">diag_ctrl</text>
</g>
<!-- Node9&#45;&gt;Node1 -->
<g id="edge9" class="edge"><title>Node9&#45;&gt;Node1</title>
<path fill="none" stroke="#9a32cd" stroke-dasharray="5,2" d="M244.516,-100.185C278.274,-94.409 328.955,-91.4981 364,-115.5 435.325,-164.349 452.195,-281.273 455.68,-315.765"/>
<polygon fill="#9a32cd" stroke="#9a32cd" points="243.801,-96.7576 234.618,-102.042 245.092,-103.637 243.801,-96.7576"/>
<text text-anchor="middle" x="326" y="-118.5" font-family="Helvetica,sans-Serif" font-size="10.00"> diag</text>
</g>
<!-- Node10 -->
<g id="node10" class="node"><title>Node10</title>
<polygon fill="white" stroke="#bfbfbf" points="162.5,-49.5 162.5,-79.5 253.5,-79.5 253.5,-49.5 162.5,-49.5"/>
<text text-anchor="start" x="170.5" y="-67.5" font-family="Helvetica,sans-Serif" font-size="10.00">type(tidal_forcing</text>
<text text-anchor="middle" x="208" y="-56.5" font-family="Helvetica,sans-Serif" font-size="10.00">_cs), pointer</text>
</g>
<!-- Node10&#45;&gt;Node1 -->
<g id="edge10" class="edge"><title>Node10&#45;&gt;Node1</title>
<path fill="none" stroke="#9a32cd" stroke-dasharray="5,2" d="M263.838,-57.1678C296.126,-55.8565 335.993,-59.816 364,-81.5 442.628,-142.377 454.425,-278.242 456.19,-315.747"/>
<polygon fill="#9a32cd" stroke="#9a32cd" points="263.425,-53.6859 253.646,-57.763 263.833,-60.674 263.425,-53.6859"/>
<text text-anchor="middle" x="326" y="-84.5" font-family="Helvetica,sans-Serif" font-size="10.00"> tides_csp</text>
</g>
<!-- Node11 -->
<g id="node11" class="node"><title>Node11</title>
<polygon fill="white" stroke="#bfbfbf" points="146,-0.5 146,-30.5 270,-30.5 270,-0.5 146,-0.5"/>
<text text-anchor="start" x="154" y="-18.5" font-family="Helvetica,sans-Serif" font-size="10.00">type(mom_domain_type)</text>
<text text-anchor="middle" x="208" y="-7.5" font-family="Helvetica,sans-Serif" font-size="10.00">, pointer</text>
</g>
<!-- Node11&#45;&gt;Node1 -->
<g id="edge13" class="edge"><title>Node11&#45;&gt;Node1</title>
<path fill="none" stroke="#9a32cd" stroke-dasharray="5,2" d="M280.202,-12.6053C309.199,-15.0135 341.188,-22.7462 364,-42.5 450.748,-117.618 456.604,-275.273 456.629,-315.825"/>
<polygon fill="#9a32cd" stroke="#9a32cd" points="280.292,-9.104 270.091,-11.9645 279.849,-16.09 280.292,-9.104"/>
<text text-anchor="middle" x="326" y="-45.5" font-family="Helvetica,sans-Serif" font-size="10.00"> bt_domain</text>
</g>
</g>
</svg>
        <g id="navigator" transform="translate(0 0)" fill="#404254">
                <rect fill="#f2f5e9" fill-opacity="0.5" stroke="#606060" stroke-width=".5" x="0" y="0" width="60" height="60"/>
                <use id="zoomplus" xlink:href="#zoomPlus" x="17" y="9" onmousedown="handleZoom(evt,'in')"/>
                <use id="zoomminus" xlink:href="#zoomMin" x="42" y="9" onmousedown="handleZoom(evt,'out')"/>
                <use id="reset" xlink:href="#resetDef" x="30" y="36" onmousedown="handleReset()"/>
                <g id="arrowUp" xlink:href="#dirArrow" transform="translate(30 24)" onmousedown="handlePan(0,-1)">
                  <use xlink:href="#rim" fill="#404040">
                        <set attributeName="fill" to="#808080" begin="arrowUp.mouseover" end="arrowUp.mouseout"/>
                  </use>
                  <path fill="none" stroke="white" stroke-width="1.5" d="M0,-3.0v7 M-2.5,-0.5L0,-3.0L2.5,-0.5"/>
                </g>
                <g id="arrowRight" xlink:href="#dirArrow" transform="rotate(90) translate(36 -43)" onmousedown="handlePan(1,0)">
                  <use xlink:href="#rim" fill="#404040">
                        <set attributeName="fill" to="#808080" begin="arrowRight.mouseover" end="arrowRight.mouseout"/>
                  </use>
                  <path fill="none" stroke="white" stroke-width="1.5" d="M0,-3.0v7 M-2.5,-0.5L0,-3.0L2.5,-0.5"/>
                </g>
                <g id="arrowDown" xlink:href="#dirArrow" transform="rotate(180) translate(-30 -48)" onmousedown="handlePan(0,1)">
                  <use xlink:href="#rim" fill="#404040">
                        <set attributeName="fill" to="#808080" begin="arrowDown.mouseover" end="arrowDown.mouseout"/>
                  </use>
                  <path fill="none" stroke="white" stroke-width="1.5" d="M0,-3.0v7 M-2.5,-0.5L0,-3.0L2.5,-0.5"/>
                </g>
                <g id="arrowLeft" xlink:href="#dirArrow" transform="rotate(270) translate(-36 17)" onmousedown="handlePan(-1,0)">
                  <use xlink:href="#rim" fill="#404040">
                        <set attributeName="fill" to="#808080" begin="arrowLeft.mouseover" end="arrowLeft.mouseout"/>
                  </use>
                  <path fill="none" stroke="white" stroke-width="1.5" d="M0,-3.0v7 M-2.5,-0.5L0,-3.0L2.5,-0.5"/>
                </g>
        </g>
        <svg viewBox="0 0 15 15" width="100%" height="30px" preserveAspectRatio="xMaxYMin meet">
         <g id="arrow_out" transform="scale(0.3 0.3)">
          <a xlink:href="structmom__barotropic_1_1barotropic__cs__coll__graph_org.svg" target="_base">
           <rect id="button" ry="5" rx="5" y="6" x="6" height="38" width="38"
                fill="#f2f5e9" fill-opacity="0.5" stroke="#606060" stroke-width="1.0"/>
           <path id="arrow"
             d="M 11.500037,31.436501 C 11.940474,20.09759 22.043105,11.32322 32.158766,21.979434 L 37.068811,17.246167 C 37.068811,17.246167 37.088388,32 37.088388,32 L 22.160133,31.978069 C 22.160133,31.978069 26.997745,27.140456 26.997745,27.140456 C 18.528582,18.264221 13.291696,25.230495 11.500037,31.436501 z"
             style="fill:#404040;"/>
          </a>
         </g>
        </svg>
</svg>
