<?xml version="1.0" encoding="UTF-8" standalone="no"?>
<!DOCTYPE svg PUBLIC "-//W3C//DTD SVG 1.1//EN"
 "http://www.w3.org/Graphics/SVG/1.1/DTD/svg11.dtd">
<!-- Generated by graphviz version 2.38.0 (20140413.2041)
 -->
<!-- Title: mom_variables::surface Pages: 1 -->
<svg width="268pt" height="283pt"
 viewBox="0.00 0.00 268.00 283.00" xmlns="http://www.w3.org/2000/svg" xmlns:xlink="http://www.w3.org/1999/xlink">
<g id="graph0" class="graph" transform="scale(1 1) rotate(0) translate(4 279)">
<title>mom_variables::surface</title>
<polygon fill="white" stroke="none" points="-4,4 -4,-279 264,-279 264,4 -4,4"/>
<!-- Node1 -->
<g id="node1" class="node"><title>Node1</title>
<polygon fill="#bfbfbf" stroke="black" points="59.5,-0.5 59.5,-19.5 180.5,-19.5 180.5,-0.5 59.5,-0.5"/>
<text text-anchor="middle" x="120" y="-7.5" font-family="Helvetica,sans-Serif" font-size="10.00">mom_variables::surface</text>
</g>
<!-- Node2 -->
<g id="node2" class="node"><title>Node2</title>
<polygon fill="white" stroke="#bfbfbf" points="0,-183 0,-202 44,-202 44,-183 0,-183"/>
<text text-anchor="middle" x="22" y="-190" font-family="Helvetica,sans-Serif" font-size="10.00">logical</text>
</g>
<!-- Node2&#45;&gt;Node1 -->
<g id="edge1" class="edge"><title>Node2&#45;&gt;Node1</title>
<path fill="none" stroke="#9a32cd" stroke-dasharray="5,2" d="M18.3358,-172.569C13.3683,-140.941 8.40501,-76.9897 40,-38 46.9216,-29.4584 56.654,-23.6043 66.9562,-19.596"/>
<polygon fill="#9a32cd" stroke="#9a32cd" points="14.9288,-173.405 20.0985,-182.653 21.8243,-172.2 14.9288,-173.405"/>
<text text-anchor="middle" x="77.5" y="-96" font-family="Helvetica,sans-Serif" font-size="10.00"> arrays_allocated</text>
</g>
<!-- Node3 -->
<g id="node3" class="node"><title>Node3</title>
<g id="a_node3"><a xlink:href="structcoupler__types__mod_1_1coupler__2d__bc__type.html" target="_top" xlink:title="coupler_types_mod::\lcoupler_2d_bc_type">
<polygon fill="white" stroke="black" points="64.5,-177.5 64.5,-207.5 171.5,-207.5 171.5,-177.5 64.5,-177.5"/>
<text text-anchor="start" x="72.5" y="-195.5" font-family="Helvetica,sans-Serif" font-size="10.00">coupler_types_mod::</text>
<text text-anchor="middle" x="118" y="-184.5" font-family="Helvetica,sans-Serif" font-size="10.00">coupler_2d_bc_type</text>
</a>
</g>
</g>
<!-- Node3&#45;&gt;Node1 -->
<g id="edge2" class="edge"><title>Node3&#45;&gt;Node1</title>
<path fill="none" stroke="#9a32cd" stroke-dasharray="5,2" d="M118.269,-167.192C118.721,-126.426 119.611,-46.1406 119.904,-19.6831"/>
<polygon fill="#9a32cd" stroke="#9a32cd" points="114.768,-167.298 118.157,-177.336 121.768,-167.376 114.768,-167.298"/>
<text text-anchor="middle" x="139" y="-96" font-family="Helvetica,sans-Serif" font-size="10.00"> tr_fields</text>
</g>
<!-- Node4 -->
<g id="node4" class="node"><title>Node4</title>
<polygon fill="white" stroke="#bfbfbf" points="95,-255.5 95,-274.5 141,-274.5 141,-255.5 95,-255.5"/>
<text text-anchor="middle" x="118" y="-262.5" font-family="Helvetica,sans-Serif" font-size="10.00">integer</text>
</g>
<!-- Node4&#45;&gt;Node3 -->
<g id="edge3" class="edge"><title>Node4&#45;&gt;Node3</title>
<path fill="none" stroke="#9a32cd" stroke-dasharray="5,2" d="M118,-245.236C118,-233.408 118,-218.383 118,-207.576"/>
<polygon fill="#9a32cd" stroke="#9a32cd" points="114.5,-245.355 118,-255.355 121.5,-245.355 114.5,-245.355"/>
<text text-anchor="middle" x="139.5" y="-229" font-family="Helvetica,sans-Serif" font-size="10.00"> num_bcs</text>
</g>
<!-- Node5 -->
<g id="node5" class="node"><title>Node5</title>
<polygon fill="white" stroke="#bfbfbf" points="190,-183 190,-202 222,-202 222,-183 190,-183"/>
<text text-anchor="middle" x="206" y="-190" font-family="Helvetica,sans-Serif" font-size="10.00">real</text>
</g>
<!-- Node5&#45;&gt;Node1 -->
<g id="edge4" class="edge"><title>Node5&#45;&gt;Node1</title>
<path fill="none" stroke="#9a32cd" stroke-dasharray="5,2" d="M204.84,-172.733C202.073,-141.803 192.8,-79.4274 162,-38 156.207,-30.2088 147.444,-24.0669 139.419,-19.6225"/>
<polygon fill="#9a32cd" stroke="#9a32cd" points="201.368,-173.231 205.613,-182.938 208.348,-172.702 201.368,-173.231"/>
<text text-anchor="middle" x="232" y="-151" font-family="Helvetica,sans-Serif" font-size="10.00"> hml</text>
<text text-anchor="middle" x="232" y="-140" font-family="Helvetica,sans-Serif" font-size="10.00">ocean_salt</text>
<text text-anchor="middle" x="232" y="-129" font-family="Helvetica,sans-Serif" font-size="10.00">ocean_mass</text>
<text text-anchor="middle" x="232" y="-118" font-family="Helvetica,sans-Serif" font-size="10.00">frazil</text>
<text text-anchor="middle" x="232" y="-107" font-family="Helvetica,sans-Serif" font-size="10.00">salt_deficit</text>
<text text-anchor="middle" x="232" y="-96" font-family="Helvetica,sans-Serif" font-size="10.00">sfc_density</text>
<text text-anchor="middle" x="232" y="-85" font-family="Helvetica,sans-Serif" font-size="10.00">internal_heat</text>
<text text-anchor="middle" x="232" y="-74" font-family="Helvetica,sans-Serif" font-size="10.00">sea_lev</text>
<text text-anchor="middle" x="232" y="-63" font-family="Helvetica,sans-Serif" font-size="10.00">sss</text>
<text text-anchor="middle" x="232" y="-52" font-family="Helvetica,sans-Serif" font-size="10.00">taux_shelf</text>
<text text-anchor="middle" x="232" y="-41" font-family="Helvetica,sans-Serif" font-size="10.00">...</text>
</g>
</g>
</svg>
