<?xml version="1.0" encoding="UTF-8" standalone="no"?>
<!DOCTYPE svg PUBLIC "-//W3C//DTD SVG 1.1//EN"
 "http://www.w3.org/Graphics/SVG/1.1/DTD/svg11.dtd">
<!-- Generated by graphviz version 2.38.0 (20140413.2041)
 -->
<!-- Title: mom_barotropic::bt_obc_type Pages: 1 -->
<svg width="240pt" height="216pt"
 viewBox="0.00 0.00 240.00 216.00" xmlns="http://www.w3.org/2000/svg" xmlns:xlink="http://www.w3.org/1999/xlink">
<g id="graph0" class="graph" transform="scale(1 1) rotate(0) translate(4 212)">
<title>mom_barotropic::bt_obc_type</title>
<polygon fill="white" stroke="none" points="-4,4 -4,-212 236,-212 236,4 -4,4"/>
<!-- Node1 -->
<g id="node1" class="node"><title>Node1</title>
<polygon fill="#bfbfbf" stroke="black" points="58.5,-0.5 58.5,-30.5 159.5,-30.5 159.5,-0.5 58.5,-0.5"/>
<text text-anchor="start" x="66.5" y="-18.5" font-family="Helvetica,sans-Serif" font-size="10.00">mom_barotropic::bt</text>
<text text-anchor="middle" x="109" y="-7.5" font-family="Helvetica,sans-Serif" font-size="10.00">_obc_type</text>
</g>
<!-- Node2 -->
<g id="node2" class="node"><title>Node2</title>
<polygon fill="white" stroke="#bfbfbf" points="0,-188.5 0,-207.5 44,-207.5 44,-188.5 0,-188.5"/>
<text text-anchor="middle" x="22" y="-195.5" font-family="Helvetica,sans-Serif" font-size="10.00">logical</text>
</g>
<!-- Node2&#45;&gt;Node1 -->
<g id="edge1" class="edge"><title>Node2&#45;&gt;Node1</title>
<path fill="none" stroke="#9a32cd" stroke-dasharray="5,2" d="M19.1102,-178.281C15.5046,-148.038 12.859,-87.8964 41,-49 46.6756,-41.1552 54.7519,-35.1301 63.3667,-30.5281"/>
<polygon fill="#9a32cd" stroke="#9a32cd" points="15.6576,-178.866 20.477,-188.302 22.5933,-177.92 15.6576,-178.866"/>
<text text-anchor="middle" x="73" y="-118" font-family="Helvetica,sans-Serif" font-size="10.00"> apply_v_obcs</text>
<text text-anchor="middle" x="73" y="-107" font-family="Helvetica,sans-Serif" font-size="10.00">apply_u_obcs</text>
<text text-anchor="middle" x="73" y="-96" font-family="Helvetica,sans-Serif" font-size="10.00">is_alloced</text>
</g>
<!-- Node3 -->
<g id="node3" class="node"><title>Node3</title>
<polygon fill="white" stroke="#bfbfbf" points="86,-188.5 86,-207.5 132,-207.5 132,-188.5 86,-188.5"/>
<text text-anchor="middle" x="109" y="-195.5" font-family="Helvetica,sans-Serif" font-size="10.00">integer</text>
</g>
<!-- Node3&#45;&gt;Node1 -->
<g id="edge2" class="edge"><title>Node3&#45;&gt;Node1</title>
<path fill="none" stroke="#9a32cd" stroke-dasharray="5,2" d="M109,-178.09C109,-141.701 109,-62.6941 109,-30.5391"/>
<polygon fill="#9a32cd" stroke="#9a32cd" points="105.5,-178.294 109,-188.294 112.5,-178.294 105.5,-178.294"/>
<text text-anchor="middle" x="130.5" y="-145.5" font-family="Helvetica,sans-Serif" font-size="10.00"> js_u_obc</text>
<text text-anchor="middle" x="130.5" y="-134.5" font-family="Helvetica,sans-Serif" font-size="10.00">js_v_obc</text>
<text text-anchor="middle" x="130.5" y="-123.5" font-family="Helvetica,sans-Serif" font-size="10.00">is_u_obc</text>
<text text-anchor="middle" x="130.5" y="-112.5" font-family="Helvetica,sans-Serif" font-size="10.00">is_v_obc</text>
<text text-anchor="middle" x="130.5" y="-101.5" font-family="Helvetica,sans-Serif" font-size="10.00">je_u_obc</text>
<text text-anchor="middle" x="130.5" y="-90.5" font-family="Helvetica,sans-Serif" font-size="10.00">je_v_obc</text>
<text text-anchor="middle" x="130.5" y="-79.5" font-family="Helvetica,sans-Serif" font-size="10.00">ie_u_obc</text>
<text text-anchor="middle" x="130.5" y="-68.5" font-family="Helvetica,sans-Serif" font-size="10.00">ie_v_obc</text>
</g>
<!-- Node4 -->
<g id="node4" class="node"><title>Node4</title>
<polygon fill="white" stroke="#bfbfbf" points="159,-188.5 159,-207.5 191,-207.5 191,-188.5 159,-188.5"/>
<text text-anchor="middle" x="175" y="-195.5" font-family="Helvetica,sans-Serif" font-size="10.00">real</text>
</g>
<!-- Node4&#45;&gt;Node1 -->
<g id="edge3" class="edge"><title>Node4&#45;&gt;Node1</title>
<path fill="none" stroke="#9a32cd" stroke-dasharray="5,2" d="M176.61,-178.004C178.211,-148.264 177.569,-89.8859 153,-49 148.598,-41.6739 141.852,-35.482 134.956,-30.5324"/>
<polygon fill="#9a32cd" stroke="#9a32cd" points="173.102,-178.009 175.905,-188.226 180.085,-178.491 173.102,-178.009"/>
<text text-anchor="middle" x="204.5" y="-162" font-family="Helvetica,sans-Serif" font-size="10.00"> eta_outer_u</text>
<text text-anchor="middle" x="204.5" y="-151" font-family="Helvetica,sans-Serif" font-size="10.00">vbt_outer</text>
<text text-anchor="middle" x="204.5" y="-140" font-family="Helvetica,sans-Serif" font-size="10.00">eta_outer_v</text>
<text text-anchor="middle" x="204.5" y="-129" font-family="Helvetica,sans-Serif" font-size="10.00">vhbt</text>
<text text-anchor="middle" x="204.5" y="-118" font-family="Helvetica,sans-Serif" font-size="10.00">uhbt</text>
<text text-anchor="middle" x="204.5" y="-107" font-family="Helvetica,sans-Serif" font-size="10.00">h_u</text>
<text text-anchor="middle" x="204.5" y="-96" font-family="Helvetica,sans-Serif" font-size="10.00">h_v</text>
<text text-anchor="middle" x="204.5" y="-85" font-family="Helvetica,sans-Serif" font-size="10.00">cg_u</text>
<text text-anchor="middle" x="204.5" y="-74" font-family="Helvetica,sans-Serif" font-size="10.00">cg_v</text>
<text text-anchor="middle" x="204.5" y="-63" font-family="Helvetica,sans-Serif" font-size="10.00">ubt_outer</text>
<text text-anchor="middle" x="204.5" y="-52" font-family="Helvetica,sans-Serif" font-size="10.00">...</text>
</g>
</g>
</svg>
