<?xml version="1.0" encoding="UTF-8" standalone="no"?>
<!DOCTYPE svg PUBLIC "-//W3C//DTD SVG 1.1//EN"
 "http://www.w3.org/Graphics/SVG/1.1/DTD/svg11.dtd">
<!-- Generated by graphviz version 2.38.0 (20140413.2041)
 -->
<!-- Title: mom_set_diffusivity::diffusivity_diags Pages: 1 -->
<svg width="146pt" height="216pt"
 viewBox="0.00 0.00 146.00 216.00" xmlns="http://www.w3.org/2000/svg" xmlns:xlink="http://www.w3.org/1999/xlink">
<g id="graph0" class="graph" transform="scale(1 1) rotate(0) translate(4 212)">
<title>mom_set_diffusivity::diffusivity_diags</title>
<polygon fill="white" stroke="none" points="-4,4 -4,-212 142,-212 142,4 -4,4"/>
<!-- Node1 -->
<g id="node1" class="node"><title>Node1</title>
<polygon fill="#bfbfbf" stroke="black" points="0,-0.5 0,-30.5 104,-30.5 104,-0.5 0,-0.5"/>
<text text-anchor="start" x="8" y="-18.5" font-family="Helvetica,sans-Serif" font-size="10.00">mom_set_diffusivity</text>
<text text-anchor="middle" x="52" y="-7.5" font-family="Helvetica,sans-Serif" font-size="10.00">::diffusivity_diags</text>
</g>
<!-- Node2 -->
<g id="node2" class="node"><title>Node2</title>
<polygon fill="white" stroke="#bfbfbf" points="36,-188.5 36,-207.5 68,-207.5 68,-188.5 36,-188.5"/>
<text text-anchor="middle" x="52" y="-195.5" font-family="Helvetica,sans-Serif" font-size="10.00">real</text>
</g>
<!-- Node2&#45;&gt;Node1 -->
<g id="edge1" class="edge"><title>Node2&#45;&gt;Node1</title>
<path fill="none" stroke="#9a32cd" stroke-dasharray="5,2" d="M52,-178.09C52,-141.701 52,-62.6941 52,-30.5391"/>
<polygon fill="#9a32cd" stroke="#9a32cd" points="48.5001,-178.294 52,-188.294 55.5001,-178.294 48.5001,-178.294"/>
<text text-anchor="middle" x="95" y="-162" font-family="Helvetica,sans-Serif" font-size="10.00"> n2_3d</text>
<text text-anchor="middle" x="95" y="-151" font-family="Helvetica,sans-Serif" font-size="10.00">polzin_decay_scale</text>
<text text-anchor="middle" x="95" y="-140" font-family="Helvetica,sans-Serif" font-size="10.00">n2_meanz</text>
<text text-anchor="middle" x="95" y="-129" font-family="Helvetica,sans-Serif" font-size="10.00">kd_itidal</text>
<text text-anchor="middle" x="95" y="-118" font-family="Helvetica,sans-Serif" font-size="10.00">kd_work</text>
<text text-anchor="middle" x="95" y="-107" font-family="Helvetica,sans-Serif" font-size="10.00">kd_user</text>
<text text-anchor="middle" x="95" y="-96" font-family="Helvetica,sans-Serif" font-size="10.00">ks_extra</text>
<text text-anchor="middle" x="95" y="-85" font-family="Helvetica,sans-Serif" font-size="10.00">kd_lowmode_work</text>
<text text-anchor="middle" x="95" y="-74" font-family="Helvetica,sans-Serif" font-size="10.00">fl_itidal</text>
<text text-anchor="middle" x="95" y="-63" font-family="Helvetica,sans-Serif" font-size="10.00">kt_extra</text>
<text text-anchor="middle" x="95" y="-52" font-family="Helvetica,sans-Serif" font-size="10.00">...</text>
</g>
</g>
</svg>
