<?xml version="1.0" encoding="UTF-8" standalone="no"?>
<!DOCTYPE svg PUBLIC "-//W3C//DTD SVG 1.1//EN"
 "http://www.w3.org/Graphics/SVG/1.1/DTD/svg11.dtd">
<!-- Generated by graphviz version 2.38.0 (20140413.2041)
 -->
<!-- Title: mom_sum_output::sum_output_cs Pages: 1 -->
<svg width="512pt" height="596pt"
 viewBox="0.00 0.00 512.00 596.31" xmlns="http://www.w3.org/2000/svg" xmlns:xlink="http://www.w3.org/1999/xlink">
<g id="graph0" class="graph" transform="scale(1 1) rotate(0) translate(4 592.307)">
<title>mom_sum_output::sum_output_cs</title>
<polygon fill="white" stroke="none" points="-4,4 -4,-592.307 508,-592.307 508,4 -4,4"/>
<!-- Node1 -->
<g id="node1" class="node"><title>Node1</title>
<polygon fill="#bfbfbf" stroke="black" points="385,-319.307 385,-349.307 504,-349.307 504,-319.307 385,-319.307"/>
<text text-anchor="start" x="393" y="-337.307" font-family="Helvetica,sans-Serif" font-size="10.00">mom_sum_output::sum</text>
<text text-anchor="middle" x="444.5" y="-326.307" font-family="Helvetica,sans-Serif" font-size="10.00">_output_cs</text>
</g>
<!-- Node2 -->
<g id="node2" class="node"><title>Node2</title>
<polygon fill="white" stroke="#bfbfbf" points="161.5,-517.807 161.5,-536.807 205.5,-536.807 205.5,-517.807 161.5,-517.807"/>
<text text-anchor="middle" x="183.5" y="-524.807" font-family="Helvetica,sans-Serif" font-size="10.00">logical</text>
</g>
<!-- Node2&#45;&gt;Node1 -->
<g id="edge1" class="edge"><title>Node2&#45;&gt;Node1</title>
<path fill="none" stroke="#9a32cd" stroke-dasharray="5,2" d="M215.829,-532.003C255.109,-536.113 322.662,-537.089 367,-504.307 419.178,-465.729 436.55,-383.301 441.63,-349.374"/>
<polygon fill="#9a32cd" stroke="#9a32cd" points="216.119,-528.513 205.777,-530.818 215.298,-535.465 216.119,-528.513"/>
<text text-anchor="middle" x="320" y="-580.307" font-family="Helvetica,sans-Serif" font-size="10.00"> use_temperature</text>
<text text-anchor="middle" x="320" y="-569.307" font-family="Helvetica,sans-Serif" font-size="10.00">do_ape_calc</text>
<text text-anchor="middle" x="320" y="-558.307" font-family="Helvetica,sans-Serif" font-size="10.00">read_depth_list</text>
<text text-anchor="middle" x="320" y="-547.307" font-family="Helvetica,sans-Serif" font-size="10.00">write_stocks</text>
<text text-anchor="middle" x="320" y="-536.307" font-family="Helvetica,sans-Serif" font-size="10.00">date_stamped_output</text>
</g>
<!-- Node3 -->
<g id="node3" class="node"><title>Node3</title>
<polygon fill="white" stroke="#bfbfbf" points="144,-429.807 144,-448.807 223,-448.807 223,-429.807 144,-429.807"/>
<text text-anchor="middle" x="183.5" y="-436.807" font-family="Helvetica,sans-Serif" font-size="10.00">type(efp_type)</text>
</g>
<!-- Node3&#45;&gt;Node1 -->
<g id="edge2" class="edge"><title>Node3&#45;&gt;Node1</title>
<path fill="none" stroke="#9a32cd" stroke-dasharray="5,2" d="M233.603,-438.782C271.815,-436.579 325.194,-429.465 367,-408.307 394.698,-394.289 418.988,-366.801 432.415,-349.559"/>
<polygon fill="#9a32cd" stroke="#9a32cd" points="233.069,-435.303 223.25,-439.281 233.406,-442.295 233.069,-435.303"/>
<text text-anchor="middle" x="320" y="-492.307" font-family="Helvetica,sans-Serif" font-size="10.00"> net_heat_in_efp</text>
<text text-anchor="middle" x="320" y="-481.307" font-family="Helvetica,sans-Serif" font-size="10.00">heat_prev_efp</text>
<text text-anchor="middle" x="320" y="-470.307" font-family="Helvetica,sans-Serif" font-size="10.00">salt_prev_efp</text>
<text text-anchor="middle" x="320" y="-459.307" font-family="Helvetica,sans-Serif" font-size="10.00">net_salt_in_efp</text>
<text text-anchor="middle" x="320" y="-448.307" font-family="Helvetica,sans-Serif" font-size="10.00">mass_prev_efp</text>
<text text-anchor="middle" x="320" y="-437.307" font-family="Helvetica,sans-Serif" font-size="10.00">fresh_water_in_efp</text>
</g>
<!-- Node4 -->
<g id="node4" class="node"><title>Node4</title>
<polygon fill="white" stroke="#bfbfbf" points="157,-391.807 157,-410.807 210,-410.807 210,-391.807 157,-391.807"/>
<text text-anchor="middle" x="183.5" y="-398.807" font-family="Helvetica,sans-Serif" font-size="10.00">fieldtype</text>
</g>
<!-- Node4&#45;&gt;Node1 -->
<g id="edge3" class="edge"><title>Node4&#45;&gt;Node1</title>
<path fill="none" stroke="#9a32cd" stroke-dasharray="5,2" d="M220.599,-399.526C258.011,-396.864 317.792,-390.305 367,-374.307 385.529,-368.283 404.967,-358.063 419.612,-349.461"/>
<polygon fill="#9a32cd" stroke="#9a32cd" points="219.956,-396.061 210.205,-400.206 220.413,-403.046 219.956,-396.061"/>
<text text-anchor="middle" x="320" y="-396.307" font-family="Helvetica,sans-Serif" font-size="10.00"> fields</text>
</g>
<!-- Node5 -->
<g id="node5" class="node"><title>Node5</title>
<polygon fill="white" stroke="#bfbfbf" points="154,-347.807 154,-366.807 213,-366.807 213,-347.807 154,-347.807"/>
<text text-anchor="middle" x="183.5" y="-354.807" font-family="Helvetica,sans-Serif" font-size="10.00">time_type</text>
</g>
<!-- Node5&#45;&gt;Node1 -->
<g id="edge4" class="edge"><title>Node5&#45;&gt;Node1</title>
<path fill="none" stroke="#9a32cd" stroke-dasharray="5,2" d="M223.222,-353.869C266.009,-350.069 335.396,-343.907 384.858,-339.515"/>
<polygon fill="#9a32cd" stroke="#9a32cd" points="222.858,-350.387 213.207,-354.758 223.478,-357.36 222.858,-350.387"/>
<text text-anchor="middle" x="320" y="-362.307" font-family="Helvetica,sans-Serif" font-size="10.00"> start_time</text>
<text text-anchor="middle" x="320" y="-351.307" font-family="Helvetica,sans-Serif" font-size="10.00">huge_time</text>
</g>
<!-- Node6 -->
<g id="node6" class="node"><title>Node6</title>
<polygon fill="white" stroke="#bfbfbf" points="134.5,-309.807 134.5,-328.807 232.5,-328.807 232.5,-309.807 134.5,-309.807"/>
<text text-anchor="middle" x="183.5" y="-316.807" font-family="Helvetica,sans-Serif" font-size="10.00">character(len=200)</text>
</g>
<!-- Node6&#45;&gt;Node1 -->
<g id="edge5" class="edge"><title>Node6&#45;&gt;Node1</title>
<path fill="none" stroke="#9a32cd" stroke-dasharray="5,2" d="M243.054,-312.45C278.975,-309.464 325.824,-307.758 367,-313.307 376.691,-314.613 386.891,-316.81 396.572,-319.303"/>
<polygon fill="#9a32cd" stroke="#9a32cd" points="242.402,-308.994 232.752,-313.366 243.022,-315.966 242.402,-308.994"/>
<text text-anchor="middle" x="320" y="-327.307" font-family="Helvetica,sans-Serif" font-size="10.00"> energyfile</text>
<text text-anchor="middle" x="320" y="-316.307" font-family="Helvetica,sans-Serif" font-size="10.00">depth_list_file</text>
</g>
<!-- Node7 -->
<g id="node7" class="node"><title>Node7</title>
<g id="a_node7"><a xlink:href="structmom__sum__output_1_1depth__list.html" target="_top" xlink:title="mom_sum_output::depth_list">
<polygon fill="white" stroke="black" points="112,-102.807 112,-121.807 255,-121.807 255,-102.807 112,-102.807"/>
<text text-anchor="middle" x="183.5" y="-109.807" font-family="Helvetica,sans-Serif" font-size="10.00">mom_sum_output::depth_list</text>
</a>
</g>
</g>
<!-- Node7&#45;&gt;Node1 -->
<g id="edge6" class="edge"><title>Node7&#45;&gt;Node1</title>
<path fill="none" stroke="#9a32cd" stroke-dasharray="5,2" d="M265.527,-113.989C306.62,-116.405 351.138,-121.927 367,-134.307 427.078,-181.196 439.993,-281.24 442.754,-319.24"/>
<polygon fill="#9a32cd" stroke="#9a32cd" points="265.622,-110.49 255.45,-113.453 265.25,-117.48 265.622,-110.49"/>
<text text-anchor="middle" x="320" y="-137.307" font-family="Helvetica,sans-Serif" font-size="10.00"> dl</text>
</g>
<!-- Node8 -->
<g id="node8" class="node"><title>Node8</title>
<polygon fill="white" stroke="#bfbfbf" points="0,-125.807 0,-144.807 32,-144.807 32,-125.807 0,-125.807"/>
<text text-anchor="middle" x="16" y="-132.807" font-family="Helvetica,sans-Serif" font-size="10.00">real</text>
</g>
<!-- Node8&#45;&gt;Node1 -->
<g id="edge8" class="edge"><title>Node8&#45;&gt;Node1</title>
<path fill="none" stroke="#9a32cd" stroke-dasharray="5,2" d="M42.1478,-143.442C44.7824,-144.14 47.4347,-144.779 50,-145.307 139.801,-163.79 171.169,-131.185 255,-168.307 334.744,-203.62 404.939,-285.075 431.834,-319.022"/>
<polygon fill="#9a32cd" stroke="#9a32cd" points="42.8752,-140.009 32.2956,-140.577 40.9207,-146.73 42.8752,-140.009"/>
<text text-anchor="middle" x="183.5" y="-292.307" font-family="Helvetica,sans-Serif" font-size="10.00"> salt_prev</text>
<text text-anchor="middle" x="183.5" y="-281.307" font-family="Helvetica,sans-Serif" font-size="10.00">mass_prev</text>
<text text-anchor="middle" x="183.5" y="-270.307" font-family="Helvetica,sans-Serif" font-size="10.00">net_salt_input</text>
<text text-anchor="middle" x="183.5" y="-259.307" font-family="Helvetica,sans-Serif" font-size="10.00">net_heat_input</text>
<text text-anchor="middle" x="183.5" y="-248.307" font-family="Helvetica,sans-Serif" font-size="10.00">max_energy</text>
<text text-anchor="middle" x="183.5" y="-237.307" font-family="Helvetica,sans-Serif" font-size="10.00">heat_prev</text>
<text text-anchor="middle" x="183.5" y="-226.307" font-family="Helvetica,sans-Serif" font-size="10.00">timeunit</text>
<text text-anchor="start" x="151.5" y="-215.307" font-family="Helvetica,sans-Serif" font-size="10.00">fresh_water</text>
<text text-anchor="middle" x="183.5" y="-204.307" font-family="Helvetica,sans-Serif" font-size="10.00">_input</text>
<text text-anchor="middle" x="183.5" y="-193.307" font-family="Helvetica,sans-Serif" font-size="10.00">d_list_min_inc</text>
<text text-anchor="middle" x="183.5" y="-182.307" font-family="Helvetica,sans-Serif" font-size="10.00">dt</text>
<text text-anchor="middle" x="183.5" y="-171.307" font-family="Helvetica,sans-Serif" font-size="10.00">...</text>
</g>
<!-- Node8&#45;&gt;Node7 -->
<g id="edge7" class="edge"><title>Node8&#45;&gt;Node7</title>
<path fill="none" stroke="#9a32cd" stroke-dasharray="5,2" d="M35.702,-119.405C40.1262,-116.488 45.0156,-113.873 50,-112.307 69.5322,-106.172 91.498,-104.303 111.845,-104.475"/>
<polygon fill="#9a32cd" stroke="#9a32cd" points="33.3326,-116.805 27.3924,-125.578 37.507,-122.424 33.3326,-116.805"/>
<text text-anchor="middle" x="72" y="-137.307" font-family="Helvetica,sans-Serif" font-size="10.00"> area</text>
<text text-anchor="middle" x="72" y="-126.307" font-family="Helvetica,sans-Serif" font-size="10.00">depth</text>
<text text-anchor="middle" x="72" y="-115.307" font-family="Helvetica,sans-Serif" font-size="10.00">vol_below</text>
</g>
<!-- Node9 -->
<g id="node9" class="node"><title>Node9</title>
<polygon fill="white" stroke="#bfbfbf" points="160.5,-12.8072 160.5,-31.8072 206.5,-31.8072 206.5,-12.8072 160.5,-12.8072"/>
<text text-anchor="middle" x="183.5" y="-19.8072" font-family="Helvetica,sans-Serif" font-size="10.00">integer</text>
</g>
<!-- Node9&#45;&gt;Node1 -->
<g id="edge9" class="edge"><title>Node9&#45;&gt;Node1</title>
<path fill="none" stroke="#9a32cd" stroke-dasharray="5,2" d="M216.367,-11.5381C256.096,-0.299851 324.001,11.4227 367,-22.3072 415.05,-59.999 436.874,-261.532 442.179,-319.001"/>
<polygon fill="#9a32cd" stroke="#9a32cd" points="215.249,-8.2189 206.667,-14.4316 217.25,-14.9268 215.249,-8.2189"/>
<text text-anchor="middle" x="320" y="-102.307" font-family="Helvetica,sans-Serif" font-size="10.00"> prev_n</text>
<text text-anchor="middle" x="320" y="-91.3072" font-family="Helvetica,sans-Serif" font-size="10.00">list_size</text>
<text text-anchor="middle" x="320" y="-80.3072" font-family="Helvetica,sans-Serif" font-size="10.00">previous_calls</text>
<text text-anchor="middle" x="320" y="-69.3072" font-family="Helvetica,sans-Serif" font-size="10.00">maxtrunc</text>
<text text-anchor="middle" x="320" y="-58.3072" font-family="Helvetica,sans-Serif" font-size="10.00">fileenergy_ascii</text>
<text text-anchor="middle" x="320" y="-47.3072" font-family="Helvetica,sans-Serif" font-size="10.00">fileenergy_nc</text>
<text text-anchor="middle" x="320" y="-36.3072" font-family="Helvetica,sans-Serif" font-size="10.00">lh</text>
<text text-anchor="middle" x="320" y="-25.3072" font-family="Helvetica,sans-Serif" font-size="10.00">ntrunc</text>
</g>
</g>
</svg>
