<?xml version="1.0" encoding="UTF-8" standalone="no"?>
<!DOCTYPE svg PUBLIC "-//W3C//DTD SVG 1.1//EN"
 "http://www.w3.org/Graphics/SVG/1.1/DTD/svg11.dtd">
<!-- Generated by graphviz version 2.38.0 (20140413.2041)
 -->
<!-- Title: mom_dyn_horgrid::dyn_horgrid_type Pages: 1 -->
<svg width="556pt" height="227pt"
 viewBox="0.00 0.00 556.00 227.00" xmlns="http://www.w3.org/2000/svg" xmlns:xlink="http://www.w3.org/1999/xlink">
<g id="graph0" class="graph" transform="scale(1 1) rotate(0) translate(4 223)">
<title>mom_dyn_horgrid::dyn_horgrid_type</title>
<polygon fill="white" stroke="none" points="-4,4 -4,-223 552,-223 552,4 -4,4"/>
<!-- Node1 -->
<g id="node1" class="node"><title>Node1</title>
<polygon fill="#bfbfbf" stroke="black" points="209,-0.5 209,-30.5 325,-30.5 325,-0.5 209,-0.5"/>
<text text-anchor="start" x="217" y="-18.5" font-family="Helvetica,sans-Serif" font-size="10.00">mom_dyn_horgrid::dyn</text>
<text text-anchor="middle" x="267" y="-7.5" font-family="Helvetica,sans-Serif" font-size="10.00">_horgrid_type</text>
</g>
<!-- Node2 -->
<g id="node2" class="node"><title>Node2</title>
<polygon fill="white" stroke="#bfbfbf" points="0,-194 0,-213 44,-213 44,-194 0,-194"/>
<text text-anchor="middle" x="22" y="-201" font-family="Helvetica,sans-Serif" font-size="10.00">logical</text>
</g>
<!-- Node2&#45;&gt;Node1 -->
<g id="edge1" class="edge"><title>Node2&#45;&gt;Node1</title>
<path fill="none" stroke="#9a32cd" stroke-dasharray="5,2" d="M16.8899,-183.891C9.30834,-151.746 -0.578955,-85.7396 34,-49 57.1638,-24.3888 147.758,-18.016 208.916,-16.586"/>
<polygon fill="#9a32cd" stroke="#9a32cd" points="13.5397,-184.918 19.3987,-193.746 20.3233,-183.191 13.5397,-184.918"/>
<text text-anchor="middle" x="81.5" y="-118" font-family="Helvetica,sans-Serif" font-size="10.00"> nonblocking_updates</text>
<text text-anchor="middle" x="81.5" y="-107" font-family="Helvetica,sans-Serif" font-size="10.00">bathymetry_at_vel</text>
<text text-anchor="middle" x="81.5" y="-96" font-family="Helvetica,sans-Serif" font-size="10.00">symmetric</text>
</g>
<!-- Node3 -->
<g id="node3" class="node"><title>Node3</title>
<polygon fill="white" stroke="#bfbfbf" points="80.5,-194 80.5,-213 163.5,-213 163.5,-194 80.5,-194"/>
<text text-anchor="middle" x="122" y="-201" font-family="Helvetica,sans-Serif" font-size="10.00">hor_index_type</text>
</g>
<!-- Node3&#45;&gt;Node1 -->
<g id="edge2" class="edge"><title>Node3&#45;&gt;Node1</title>
<path fill="none" stroke="#9a32cd" stroke-dasharray="5,2" d="M127.276,-184.046C137.079,-152.66 160.837,-88.4569 201,-49 208.653,-41.4813 218.39,-35.3976 228.019,-30.6166"/>
<polygon fill="#9a32cd" stroke="#9a32cd" points="123.905,-183.101 124.387,-193.685 130.611,-185.111 123.905,-183.101"/>
<text text-anchor="middle" x="206.5" y="-107" font-family="Helvetica,sans-Serif" font-size="10.00"> hi</text>
</g>
<!-- Node4 -->
<g id="node4" class="node"><title>Node4</title>
<polygon fill="white" stroke="#bfbfbf" points="182,-194 182,-213 274,-213 274,-194 182,-194"/>
<text text-anchor="middle" x="228" y="-201" font-family="Helvetica,sans-Serif" font-size="10.00">character(len=40)</text>
</g>
<!-- Node4&#45;&gt;Node1 -->
<g id="edge3" class="edge"><title>Node4&#45;&gt;Node1</title>
<path fill="none" stroke="#9a32cd" stroke-dasharray="5,2" d="M223.21,-184.088C216.433,-154.139 207.052,-93.7249 228,-49 231.365,-41.8166 237.184,-35.6672 243.316,-30.7125"/>
<polygon fill="#9a32cd" stroke="#9a32cd" points="219.851,-185.086 225.611,-193.978 226.653,-183.435 219.851,-185.086"/>
<text text-anchor="middle" x="257" y="-112.5" font-family="Helvetica,sans-Serif" font-size="10.00"> y_axis_units</text>
<text text-anchor="middle" x="257" y="-101.5" font-family="Helvetica,sans-Serif" font-size="10.00">x_axis_units</text>
</g>
<!-- Node5 -->
<g id="node5" class="node"><title>Node5</title>
<polygon fill="white" stroke="#bfbfbf" points="292,-194 292,-213 324,-213 324,-194 292,-194"/>
<text text-anchor="middle" x="308" y="-201" font-family="Helvetica,sans-Serif" font-size="10.00">real</text>
</g>
<!-- Node5&#45;&gt;Node1 -->
<g id="edge4" class="edge"><title>Node5&#45;&gt;Node1</title>
<path fill="none" stroke="#9a32cd" stroke-dasharray="5,2" d="M307.624,-183.822C306.527,-154.367 302.285,-95.6755 286,-49 283.804,-42.7056 280.342,-36.2676 276.971,-30.7996"/>
<polygon fill="#9a32cd" stroke="#9a32cd" points="304.128,-184.016 307.915,-193.911 311.125,-183.814 304.128,-184.016"/>
<text text-anchor="middle" x="333" y="-162" font-family="Helvetica,sans-Serif" font-size="10.00"> max_depth</text>
<text text-anchor="middle" x="333" y="-151" font-family="Helvetica,sans-Serif" font-size="10.00">west_lon</text>
<text text-anchor="middle" x="333" y="-140" font-family="Helvetica,sans-Serif" font-size="10.00">dblock_u</text>
<text text-anchor="middle" x="333" y="-129" font-family="Helvetica,sans-Serif" font-size="10.00">iareabu</text>
<text text-anchor="middle" x="333" y="-118" font-family="Helvetica,sans-Serif" font-size="10.00">areat</text>
<text text-anchor="middle" x="333" y="-107" font-family="Helvetica,sans-Serif" font-size="10.00">dblock_v</text>
<text text-anchor="middle" x="333" y="-96" font-family="Helvetica,sans-Serif" font-size="10.00">len_lon</text>
<text text-anchor="middle" x="333" y="-85" font-family="Helvetica,sans-Serif" font-size="10.00">geoloncu</text>
<text text-anchor="middle" x="333" y="-74" font-family="Helvetica,sans-Serif" font-size="10.00">cos_rot</text>
<text text-anchor="middle" x="333" y="-63" font-family="Helvetica,sans-Serif" font-size="10.00">sin_rot</text>
<text text-anchor="middle" x="333" y="-52" font-family="Helvetica,sans-Serif" font-size="10.00">...</text>
</g>
<!-- Node6 -->
<g id="node6" class="node"><title>Node6</title>
<polygon fill="white" stroke="#bfbfbf" points="360,-194 360,-213 406,-213 406,-194 360,-194"/>
<text text-anchor="middle" x="383" y="-201" font-family="Helvetica,sans-Serif" font-size="10.00">integer</text>
</g>
<!-- Node6&#45;&gt;Node1 -->
<g id="edge5" class="edge"><title>Node6&#45;&gt;Node1</title>
<path fill="none" stroke="#9a32cd" stroke-dasharray="5,2" d="M385.993,-183.985C389.985,-152.465 393.209,-88.0142 361,-49 351.876,-37.9478 338.787,-30.646 325.263,-25.8244"/>
<polygon fill="#9a32cd" stroke="#9a32cd" points="382.512,-183.602 384.552,-193.999 389.441,-184.6 382.512,-183.602"/>
<text text-anchor="middle" x="410.5" y="-162" font-family="Helvetica,sans-Serif" font-size="10.00"> iec</text>
<text text-anchor="middle" x="410.5" y="-151" font-family="Helvetica,sans-Serif" font-size="10.00">ied</text>
<text text-anchor="middle" x="410.5" y="-140" font-family="Helvetica,sans-Serif" font-size="10.00">jec</text>
<text text-anchor="middle" x="410.5" y="-129" font-family="Helvetica,sans-Serif" font-size="10.00">jed</text>
<text text-anchor="middle" x="410.5" y="-118" font-family="Helvetica,sans-Serif" font-size="10.00">jsgb</text>
<text text-anchor="middle" x="410.5" y="-107" font-family="Helvetica,sans-Serif" font-size="10.00">isc</text>
<text text-anchor="middle" x="410.5" y="-96" font-family="Helvetica,sans-Serif" font-size="10.00">jdg_offset</text>
<text text-anchor="middle" x="410.5" y="-85" font-family="Helvetica,sans-Serif" font-size="10.00">isgb</text>
<text text-anchor="middle" x="410.5" y="-74" font-family="Helvetica,sans-Serif" font-size="10.00">ieg</text>
<text text-anchor="middle" x="410.5" y="-63" font-family="Helvetica,sans-Serif" font-size="10.00">isd</text>
<text text-anchor="middle" x="410.5" y="-52" font-family="Helvetica,sans-Serif" font-size="10.00">...</text>
</g>
<!-- Node7 -->
<g id="node7" class="node"><title>Node7</title>
<polygon fill="white" stroke="#bfbfbf" points="424,-188.5 424,-218.5 548,-218.5 548,-188.5 424,-188.5"/>
<text text-anchor="start" x="432" y="-206.5" font-family="Helvetica,sans-Serif" font-size="10.00">type(mom_domain_type)</text>
<text text-anchor="middle" x="486" y="-195.5" font-family="Helvetica,sans-Serif" font-size="10.00">, pointer</text>
</g>
<!-- Node7&#45;&gt;Node1 -->
<g id="edge6" class="edge"><title>Node7&#45;&gt;Node1</title>
<path fill="none" stroke="#9a32cd" stroke-dasharray="5,2" d="M485.348,-178.009C483.04,-143.782 473.549,-82.1294 436,-49 419.701,-34.6194 367.337,-26.087 325.169,-21.4004"/>
<polygon fill="#9a32cd" stroke="#9a32cd" points="481.857,-178.281 485.871,-188.086 488.848,-177.918 481.857,-178.281"/>
<text text-anchor="middle" x="511.5" y="-112.5" font-family="Helvetica,sans-Serif" font-size="10.00"> domain</text>
<text text-anchor="middle" x="511.5" y="-101.5" font-family="Helvetica,sans-Serif" font-size="10.00">domain_aux</text>
</g>
</g>
</svg>
