<?xml version="1.0" encoding="UTF-8" standalone="no"?>
<!DOCTYPE svg PUBLIC "-//W3C//DTD SVG 1.1//EN"
 "http://www.w3.org/Graphics/SVG/1.1/DTD/svg11.dtd">
<!-- Generated by graphviz version 2.38.0 (20140413.2041)
 -->
<!-- Title: mom_meke_types::meke_type Pages: 1 -->
<svg width="159pt" height="227pt"
 viewBox="0.00 0.00 159.00 227.00" xmlns="http://www.w3.org/2000/svg" xmlns:xlink="http://www.w3.org/1999/xlink">
<g id="graph0" class="graph" transform="scale(1 1) rotate(0) translate(4 223)">
<title>mom_meke_types::meke_type</title>
<polygon fill="white" stroke="none" points="-4,4 -4,-223 155,-223 155,4 -4,4"/>
<!-- Node1 -->
<g id="node1" class="node"><title>Node1</title>
<polygon fill="#bfbfbf" stroke="black" points="0,-0.5 0,-19.5 151,-19.5 151,-0.5 0,-0.5"/>
<text text-anchor="middle" x="75.5" y="-7.5" font-family="Helvetica,sans-Serif" font-size="10.00">mom_meke_types::meke_type</text>
</g>
<!-- Node2 -->
<g id="node2" class="node"><title>Node2</title>
<polygon fill="white" stroke="#bfbfbf" points="59.5,-199.5 59.5,-218.5 91.5,-218.5 91.5,-199.5 59.5,-199.5"/>
<text text-anchor="middle" x="75.5" y="-206.5" font-family="Helvetica,sans-Serif" font-size="10.00">real</text>
</g>
<!-- Node2&#45;&gt;Node1 -->
<g id="edge1" class="edge"><title>Node2&#45;&gt;Node1</title>
<path fill="none" stroke="#9a32cd" stroke-dasharray="5,2" d="M75.5,-189.16C75.5,-147.575 75.5,-49.2758 75.5,-19.6183"/>
<polygon fill="#9a32cd" stroke="#9a32cd" points="72.0001,-189.281 75.5,-199.281 79.0001,-189.281 72.0001,-189.281"/>
<text text-anchor="middle" x="108" y="-173" font-family="Helvetica,sans-Serif" font-size="10.00"> meke</text>
<text text-anchor="middle" x="108" y="-162" font-family="Helvetica,sans-Serif" font-size="10.00">khth_fac</text>
<text text-anchor="start" x="75.5" y="-151" font-family="Helvetica,sans-Serif" font-size="10.00">backscatter_ro</text>
<text text-anchor="middle" x="108" y="-140" font-family="Helvetica,sans-Serif" font-size="10.00">_c</text>
<text text-anchor="start" x="75.5" y="-129" font-family="Helvetica,sans-Serif" font-size="10.00">backscatter</text>
<text text-anchor="middle" x="108" y="-118" font-family="Helvetica,sans-Serif" font-size="10.00">_ro_pow</text>
<text text-anchor="middle" x="108" y="-107" font-family="Helvetica,sans-Serif" font-size="10.00">ku</text>
<text text-anchor="middle" x="108" y="-96" font-family="Helvetica,sans-Serif" font-size="10.00">mom_src</text>
<text text-anchor="middle" x="108" y="-85" font-family="Helvetica,sans-Serif" font-size="10.00">gm_src</text>
<text text-anchor="middle" x="108" y="-74" font-family="Helvetica,sans-Serif" font-size="10.00">rd_dx_h</text>
<text text-anchor="middle" x="108" y="-63" font-family="Helvetica,sans-Serif" font-size="10.00">kh</text>
<text text-anchor="middle" x="108" y="-52" font-family="Helvetica,sans-Serif" font-size="10.00">khtr_fac</text>
<text text-anchor="middle" x="108" y="-41" font-family="Helvetica,sans-Serif" font-size="10.00">...</text>
</g>
</g>
</svg>
